<?xml version="1.0" standalone="no"?>
<!DOCTYPE svg PUBLIC "-//W3C//DTD SVG 1.1//EN" "http://www.w3.org/Graphics/SVG/1.1/DTD/svg11.dtd" >
<svg xmlns="http://www.w3.org/2000/svg" xmlns:xlink="http://www.w3.org/1999/xlink" version="1.1">
<metadata>
Created by FontForge 20201107 at Fri Jul 26 04:23:50 2013
 By 
Copyright 1990-2005 Bitstream Inc.  All rights reserved.
</metadata>
<defs>
<font id="IowanOldStyle-Titling" horiz-adv-x="1024" >
  <font-face 
    font-family="Iowan Old Style"
    font-weight="400"
    font-stretch="normal"
    units-per-em="2048"
    panose-1="2 4 6 2 4 5 6 2 2 4"
    ascent="1638"
    descent="-410"
    cap-height="1434"
    bbox="-266 -537 2437 1915"
    underline-thickness="82"
    underline-position="-246"
    unicode-range="U+0020-25CA"
  />
<missing-glyph horiz-adv-x="748" 
d="M68 0v1365h544v-1365h-544zM136 68h408v1229h-408v-1229z" />
    <glyph glyph-name=".notdef" horiz-adv-x="748" 
d="M68 0v1365h544v-1365h-544zM136 68h408v1229h-408v-1229z" />
    <glyph glyph-name=".null" horiz-adv-x="0" 
 />
    <glyph glyph-name="nonmarkingreturn" horiz-adv-x="682" 
 />
    <glyph glyph-name="space" unicode=" " horiz-adv-x="635" 
 />
    <glyph glyph-name="exclam" unicode="!" horiz-adv-x="635" 
d="M430 113q0 -20 -11.5 -39t-39.5 -43l-72 -62l-71 62q-28 24 -40 43t-12 39q0 19 12 38t40 44l71 61l72 -61q28 -25 39.5 -44t11.5 -38zM420 1434q0 -102 -7.5 -213.5t-23.5 -257.5q-20 -180 -32.5 -320t-18.5 -254h-51q-8 277 -23.5 538t-38.5 507h195z" />
    <glyph glyph-name="quotedbl" unicode="&#x22;" horiz-adv-x="676" 
d="M256 1362q0 -12 -2 -32.5t-8 -59.5l-62 -410h-20l-62 410q-5 38 -7.5 59t-2.5 33q0 47 22 74.5t60 27.5t60 -27.5t22 -74.5zM584 1362q0 -12 -2.5 -33t-8.5 -59l-61 -410h-20l-62 410q-6 39 -8 59t-2 33q0 47 22 74.5t60 27.5q37 0 59.5 -27.5t22.5 -74.5z" />
    <glyph glyph-name="numbersign" unicode="#" horiz-adv-x="1208" 
d="M782 845q-48 3 -83 4t-64 1q-46 0 -126 -4h-13l-90 -258q48 -2 82.5 -3t64.5 -1q47 0 125 3q10 1 14 1zM1101 942l-36 -102q-47 3 -101.5 4.5t-119.5 1.5l-90 -258q51 0 110.5 1.5t118.5 4.5l-37 -102q-50 3 -105 4.5t-118 1.5l-170 -498h-61l169 497q-53 3 -87 4t-62 1
q-47 0 -128 -4h-9l-170 -498h-62l170 498q-51 0 -111.5 -2t-115.5 -4l37 102q45 -3 100.5 -4.5t120.5 -1.5l90 258q-50 0 -109.5 -1.5t-119.5 -4.5l37 102q49 -3 104 -4.5t119 -1.5l170 498h61l-169 -498q52 -2 85.5 -3t63.5 -1q48 0 127 3q7 1 10 1l170 498h61l-170 -498
q54 0 112.5 1.5t114.5 4.5z" />
    <glyph glyph-name="dollar" unicode="$" horiz-adv-x="1106" 
d="M799 420q0 76 -46 128.5t-149 92.5q0 -76 1 -171.5t4 -268.5q89 17 139.5 76t50.5 143zM543 836q0 71 -1 162.5t-4 238.5q-91 -13 -138.5 -62t-47.5 -131q0 -70 42.5 -118t148.5 -90zM952 481q0 -132 -93.5 -229t-248.5 -123q0 -45 1 -99t3 -132h-82q3 69 4 122t1 99h-35
q-74 0 -149.5 16.5t-147.5 48.5q0 86 -7.5 151t-23.5 126l51 10q32 -144 107.5 -210t206.5 -66q2 165 3 276t1 195q-209 75 -273.5 144.5t-64.5 172.5q0 125 93 216t239 112q0 42 -1 85t-3 120l81 -1q-2 -75 -3 -117.5t-1 -82.5q59 0 130.5 -15t140.5 -40q0 -9 -1 -25
t-1 -25q0 -46 5.5 -87t16.5 -79l-45 -10q-27 102 -84.5 149.5t-163.5 55.5q-2 -143 -3 -245t-1 -185q215 -76 281.5 -148t66.5 -180z" />
    <glyph glyph-name="percent" unicode="%" horiz-adv-x="1812" 
d="M625 1004q0 195 -43.5 292t-130.5 97q-80 0 -122 -85.5t-42 -242.5q0 -195 43 -292t131 -97q79 0 121.5 85t42.5 243zM1526 358q0 196 -43.5 293t-130.5 97q-79 0 -121.5 -85.5t-42.5 -242.5q0 -195 43.5 -292t130.5 -97q79 0 121.5 85t42.5 242zM1413 1413
q-279 -409 -499 -744t-443 -689l-61 40q272 400 489 729.5t428 663.5h-6q-86 -55 -191 -89t-188 -34q-62 0 -142 17t-134 43q47 -46 74.5 -127.5t27.5 -178.5q0 -183 -89.5 -301t-227.5 -118q-136 0 -222 110.5t-86 288.5q0 184 89.5 302t228.5 118q23 0 46.5 -3t34.5 -7
q99 -38 206.5 -60t193.5 -22q99 0 194.5 26.5t204.5 85.5zM1669 399q0 -183 -89.5 -301t-227.5 -118q-136 0 -222 110.5t-86 288.5q0 183 89.5 301.5t228.5 118.5q135 0 221 -111t86 -289z" />
    <glyph glyph-name="ampersand" unicode="&#x26;" horiz-adv-x="1679" 
d="M932 256l-389 481q-119 -47 -177.5 -118.5t-58.5 -167.5q0 -138 87.5 -233t219.5 -95q94 0 172 32.5t146 100.5zM850 1167q0 98 -53 162t-131 64q-79 0 -126.5 -56.5t-47.5 -148.5q0 -73 36.5 -147t126.5 -181q97 65 146 142t49 165zM1622 195q-80 -109 -157.5 -162
t-153.5 -53q-95 0 -157 40t-181 185q-119 -119 -220 -167t-221 -48q-172 0 -285.5 113t-113.5 286q0 138 96 242t273 157q-88 88 -131 172t-43 166q0 137 102.5 232.5t237.5 95.5q134 0 224.5 -79.5t90.5 -196.5q0 -110 -70.5 -198t-216.5 -161l359 -440q108 127 171.5 252
t63.5 198q0 49 -33 71t-110 22v44q71 -6 128 -10t97 -4q44 0 88 2.5t137 12.5v-45q-77 0 -117.5 -25.5t-86.5 -118.5q-76 -151 -151.5 -265.5t-145.5 -184.5q109 -127 167.5 -166t129.5 -39q50 0 93.5 22.5t100.5 79.5z" />
    <glyph glyph-name="quotesingle" unicode="'" horiz-adv-x="348" 
d="M256 1362q0 -12 -2 -32.5t-8 -59.5l-62 -410h-20l-62 410q-5 38 -7.5 59t-2.5 33q0 47 22 74.5t60 27.5t60 -27.5t22 -74.5z" />
    <glyph glyph-name="parenleft" unicode="(" horiz-adv-x="860" 
d="M799 -358l-31 -31q-252 179 -387 430t-135 543q0 276 134.5 529.5t387.5 453.5l31 -31q-196 -195 -292.5 -432t-96.5 -520q0 -281 96 -513.5t293 -428.5z" />
    <glyph glyph-name="parenright" unicode=")" horiz-adv-x="860" 
d="M614 594q0 -277 -134.5 -530.5t-387.5 -452.5l-31 31q196 195 293 432t97 520q0 280 -96.5 512.5t-293.5 429.5l31 31q252 -179 387 -430t135 -543z" />
    <glyph glyph-name="asterisk" unicode="*" horiz-adv-x="942" 
d="M768 948l-82 -47q-45 58 -90.5 103t-73.5 61q-3 2 -6 3t-8 1q-4 0 -6 -2q-10 -2 -10 -23q0 -25 16.5 -85.5t44.5 -133.5l-82 -47l-82 47q28 73 45 133.5t17 85.5q0 21 -11 23q-2 2 -6 2q-5 0 -8 -1t-6 -3q-28 -16 -73.5 -61t-90.5 -103l-82 47v96q72 10 134 26t89 32
q15 8 15 20q0 11 -15 19q-27 15 -89 31.5t-134 26.5v95l82 47q45 -58 90.5 -102.5t72.5 -60.5q5 -3 7.5 -3.5t7.5 -0.5q4 0 6 2q11 2 11 22q0 26 -17 86.5t-45 132.5l82 47l82 -47q-28 -72 -44.5 -132.5t-16.5 -86.5q0 -20 10 -22q2 -2 6 -2q5 0 7.5 0.5t7.5 3.5
q27 16 72.5 60.5t90.5 102.5l82 -47v-95q-72 -10 -134 -26.5t-89 -31.5q-15 -8 -15 -19q0 -12 15 -20q27 -16 89 -32t134 -26v-96z" />
    <glyph glyph-name="plus" unicode="+" 
d="M942 696l-41 -82q-153 11 -352 11q0 -205 8 -389l-90 -31q8 215 8 420q-199 0 -393 -11l41 82q153 -10 352 -10q0 205 -8 389l90 31q-8 -215 -8 -420q199 0 393 10z" />
    <glyph glyph-name="comma" unicode="," horiz-adv-x="492" 
d="M379 92q0 -82 -86.5 -179.5t-220.5 -168.5l-31 31q71 47 115 109t59 136l-41 31q-31 24 -43 41.5t-12 40.5q0 18 11.5 36t43.5 46l72 61l51 -43q39 -29 60.5 -65.5t21.5 -75.5z" />
    <glyph glyph-name="hyphen" unicode="-" horiz-adv-x="717" 
d="M651 625q-15 -37 -27.5 -76.5t-25.5 -87.5q-9 0 -95.5 5t-144.5 5q-68 0 -169 -5t-123 -5q14 37 27 76.5t26 87.5q9 -1 95 -6t144 -5q69 0 170 5t123 6z" />
    <glyph glyph-name="period" unicode="." horiz-adv-x="492" 
d="M379 123q0 -23 -12 -41.5t-50 -50.5l-71 -62l-72 62q-38 32 -49.5 50.5t-11.5 41.5q0 22 11.5 41t49.5 51l72 61l71 -61q38 -32 50 -51t12 -41z" />
    <glyph glyph-name="slash" unicode="/" horiz-adv-x="963" 
d="M963 1505q-354 -647 -547 -1012t-355 -688l-81 41q354 647 546.5 1012t354.5 688z" />
    <glyph glyph-name="zero" unicode="0" horiz-adv-x="1270" 
d="M932 655q0 350 -79.5 538.5t-227.5 188.5q-143 0 -215 -152t-72 -452q0 -349 79 -535t228 -186q143 0 215 150t72 448zM1116 737q0 -351 -134.5 -554t-356.5 -203q-210 0 -340.5 196.5t-130.5 519.5q0 348 136.5 553t354.5 205q210 0 340.5 -196.5t130.5 -520.5z" />
    <glyph glyph-name="one" unicode="1" horiz-adv-x="737" 
d="M655 0q-6 0 -22 1q-180 9 -264 9q-48 0 -113.5 -2t-183.5 -8v43q9 -1 22 -1.5t39 -0.5q97 0 128 60.5t36 267.5q3 141 4.5 260t1.5 313q0 186 -1.5 260t-4.5 129q-53 -2 -116 -10t-136 -21l-8 52q149 25 239.5 44.5t194.5 47.5q-6 -189 -8 -342.5t-2 -323.5v-409
q0 -210 29 -269t124 -59q21 0 28.5 0.5t12.5 1.5v-43z" />
    <glyph glyph-name="two" unicode="2" horiz-adv-x="1065" 
d="M993 291q-32 -77 -53 -151t-29 -140q-24 1 -74 3q-216 7 -315 7h-61q-180 0 -402 -10h-8l-31 61l41 41q368 368 496.5 557.5t128.5 374.5q0 132 -71 214.5t-185 82.5q-99 0 -179.5 -52.5t-148.5 -162.5l-30 21q68 162 168.5 239.5t240.5 77.5q169 0 279 -110t110 -279
q0 -153 -90 -294.5t-473 -524.5l-71 -72q73 -5 140 -7.5t146 -2.5h164q125 0 180.5 30t85.5 113z" />
    <glyph glyph-name="three" unicode="3" 
d="M901 451q0 -196 -158 -333.5t-385 -137.5q-136 0 -237 52t-101 122q0 35 24 63.5t58 28.5q28 0 80 -66q8 -11 13 -17q43 -53 93 -79.5t111 -26.5q137 0 222.5 98.5t85.5 254.5q0 142 -75.5 224.5t-201.5 82.5q-49 0 -95.5 -10.5t-88.5 -30.5l-21 41q202 85 301 186.5
t99 222.5q0 98 -54.5 156.5t-140.5 58.5q-97 0 -168.5 -40.5t-148.5 -143.5l-31 21q55 133 153 204.5t226 71.5q146 0 242 -82.5t96 -214.5q0 -119 -82.5 -208.5t-244.5 -149.5q24 2 37 3t23 1q160 0 264.5 -98t104.5 -254z" />
    <glyph glyph-name="four" unicode="4" horiz-adv-x="1106" 
d="M614 569v660l-466 -651q65 -5 135 -7t229 -2h102zM1054 584q-8 -26 -15.5 -59t-14.5 -74q-50 4 -122 7t-124 3v-215q0 -113 29 -159t104 -46q13 0 19.5 0.5t11.5 1.5v-43q-77 5 -138 7.5t-108 2.5q-46 0 -107.5 -2.5t-137.5 -7.5v43q5 -1 14.5 -1.5t26.5 -0.5q68 0 95 47
t27 158v215h-245q-82 0 -158 -1.5t-160 -4.5l-51 77q42 42 98.5 112t157.5 206l174 235q91 123 141.5 198.5t94.5 150.5h122q-5 -206 -7.5 -422t-2.5 -443q70 0 142.5 4t133.5 11z" />
    <glyph glyph-name="five" unicode="5" horiz-adv-x="1065" 
d="M963 461q0 -206 -155.5 -343.5t-387.5 -137.5q-137 0 -237.5 52t-100.5 122q0 35 23.5 63.5t58.5 28.5q27 0 79 -66q8 -10 13 -16q43 -54 93.5 -80.5t111.5 -26.5q139 0 223 102.5t84 270.5q0 141 -85 229.5t-212 88.5q-65 0 -127 -21t-119 -61l-51 30q23 139 50 354
t42 383q97 -5 174 -7.5t164 -2.5q71 0 170.5 4.5t167.5 10.5q-19 -42 -33.5 -82.5t-27.5 -85.5q-98 -10 -186 -15.5t-152 -5.5q-40 0 -94 1t-111 3l-82 -495q65 51 140 76.5t157 25.5q178 0 294 -112t116 -287z" />
    <glyph glyph-name="six" unicode="6" horiz-adv-x="1147" 
d="M860 410q0 167 -71 262.5t-195 95.5q-66 0 -142.5 -29.5t-119.5 -72.5v-93q0 -248 73 -382t209 -134q112 0 179 97t67 256zM1044 451q0 -207 -128.5 -339t-321.5 -132q-204 0 -327.5 161.5t-123.5 431.5q0 392 209.5 636.5t487.5 244.5q75 0 119.5 -27.5t44.5 -74.5
q0 -31 -20.5 -51.5t-51.5 -20.5q-11 0 -23.5 4t-38.5 16q-30 16 -68.5 23.5t-84.5 7.5q-168 0 -270 -150.5t-109 -422.5q86 62 164 92.5t153 30.5q165 0 277 -121.5t112 -308.5z" />
    <glyph glyph-name="seven" unicode="7" horiz-adv-x="901" 
d="M922 1382q-119 -171 -280.5 -542.5t-313.5 -839.5h-201l630 1266q-52 1 -121 2.5t-124 1.5h-184q-124 0 -176 -32.5t-91 -131.5l-41 10q21 67 33.5 146.5t18.5 170.5q29 0 87 -2q221 -8 333 -8q77 0 174.5 2.5t234.5 7.5z" />
    <glyph glyph-name="eight" unicode="8" horiz-adv-x="1147" 
d="M840 348q0 120 -77.5 203t-250.5 145q-105 -64 -155 -144.5t-50 -182.5q0 -137 81 -224.5t206 -87.5q112 0 179 79t67 212zM819 1126q0 114 -68.5 185t-177.5 71q-94 0 -159.5 -70.5t-65.5 -174.5q0 -105 70 -182t217 -136q92 62 138 138.5t46 168.5zM1014 389
q0 -179 -125.5 -294t-315.5 -115q-189 0 -309.5 102t-120.5 266q0 123 73 212.5t235 166.5q-139 69 -203 157.5t-64 211.5q0 151 119 254.5t291 103.5q161 0 270 -88.5t109 -218.5q0 -116 -62 -199t-215 -160q166 -75 242 -170t76 -229z" />
    <glyph glyph-name="nine" unicode="9" horiz-adv-x="1147" 
d="M819 819q0 281 -71.5 422t-215.5 141q-109 0 -177 -93.5t-68 -244.5q0 -158 71 -247.5t195 -89.5q69 0 132.5 26t133.5 86zM1004 850q0 -375 -198.5 -622.5t-488.5 -247.5q-73 0 -113 26.5t-40 75.5q0 36 19.5 57t52.5 21q10 0 23 -4t38 -17q35 -17 68.5 -25t74.5 -8
q167 0 265 162.5t110 458.5q-63 -63 -148 -98t-175 -35q-166 0 -272.5 114.5t-106.5 295.5q0 192 128 321t312 129q209 0 330 -161.5t121 -442.5z" />
    <glyph glyph-name="colon" unicode=":" horiz-adv-x="492" 
d="M379 123q0 -23 -12 -41.5t-50 -50.5l-71 -62l-72 62q-38 32 -49.5 50.5t-11.5 41.5q0 22 11.5 41t49.5 51l72 61l71 -61q38 -32 50 -51t12 -41zM379 758q0 -23 -12 -41.5t-50 -50.5l-71 -62l-72 62q-38 32 -49.5 50.5t-11.5 41.5q0 22 11.5 40.5t49.5 51.5l72 61l71 -61
q38 -33 50 -51.5t12 -40.5z" />
    <glyph glyph-name="semicolon" unicode=";" horiz-adv-x="492" 
d="M379 92q0 -82 -86.5 -179.5t-220.5 -168.5l-31 31q71 47 115 109t59 136l-41 31q-31 24 -43 41.5t-12 40.5q0 18 11.5 36t43.5 46l72 61l51 -40q40 -32 61 -69t21 -75zM379 758q0 -23 -12 -41.5t-50 -50.5l-71 -62l-72 62q-38 32 -49.5 50.5t-11.5 41.5q0 22 11.5 40.5
t49.5 51.5l72 61l71 -61q38 -33 50 -51.5t12 -40.5z" />
    <glyph glyph-name="less" unicode="&#x3c;" horiz-adv-x="1706" 
d="M1442 1145v-127l-1000 -408l1000 -405v-129l-1178 483v103z" />
    <glyph glyph-name="equal" unicode="=" 
d="M932 573l-41 -81q-143 10 -348 10h-62q-205 0 -389 -10l41 81q143 -10 348 -10h62q205 0 389 10zM932 819l-41 -82q-143 11 -348 11h-62q-205 0 -389 -11l41 82q143 -10 348 -10h62q205 0 389 10z" />
    <glyph glyph-name="greater" unicode="&#x3e;" horiz-adv-x="1706" 
d="M264 1145l1178 -483v-103l-1178 -483v129l1000 405l-1000 408v127z" />
    <glyph glyph-name="question" unicode="?" horiz-adv-x="860" 
d="M410 113q0 -20 -12 -39t-40 -43l-71 -62l-72 62q-28 24 -39.5 43t-11.5 39q0 19 11.5 38t39.5 44l72 61l71 -61q28 -25 40 -44t12 -38zM768 1044q0 -142 -82 -244t-266 -186q-29 -13 -49 -25.5t-33 -25.5q-17 -16 -24 -42.5t-7 -69.5q0 -11 1 -24t3 -38h-57
q1 16 1.5 35.5t0.5 62.5q0 92 -2.5 142t-7.5 98q195 45 302 139t107 219q0 113 -68 184.5t-179 71.5q-39 0 -79.5 -14.5t-62.5 -36.5q-38 -38 -59.5 -49.5t-42.5 -11.5q-29 0 -45.5 19t-16.5 52q0 67 65 110.5t161 43.5q192 0 316 -117t124 -293z" />
    <glyph glyph-name="at" unicode="@" horiz-adv-x="2048" 
d="M1249 993q-25 17 -58.5 29t-57.5 12q-132 0 -223 -170.5t-91 -361.5q0 -74 13.5 -103.5t44.5 -29.5q38 0 109.5 52.5t180.5 162.5q23 100 45 208.5t37 200.5zM1812 307q-156 -238 -384 -375t-465 -137q-324 0 -525.5 190t-201.5 496q0 377 286.5 675t655.5 298
q274 0 449 -151t175 -392q0 -210 -187.5 -448t-344.5 -238q-65 0 -99 45.5t-34 128.5q0 22 2.5 44.5t7.5 47.5q-163 -162 -237.5 -214t-131.5 -52t-90 57t-33 158q0 250 154.5 458t368.5 208q27 0 55 -5t57 -16l123 41q-76 -359 -99.5 -491t-23.5 -184q0 -49 16 -76t46 -27
q108 0 217.5 165.5t109.5 377.5q0 220 -146 355.5t-386 135.5q-306 0 -532 -269t-226 -611q0 -282 164 -443t451 -161q210 0 420.5 124t357.5 336z" />
    <glyph glyph-name="A" unicode="A" horiz-adv-x="1290" 
d="M823 625l-209 635l-235 -635q35 -5 99.5 -8t115.5 -3q49 0 116 3t113 8zM1362 0q-17 1 -54 3q-137 7 -202 7q-79 0 -222 -7q-43 -2 -65 -3v43q10 -2 21 -2q66 0 99.5 23t33.5 69q0 41 -24 123.5t-100 286.5q-54 3 -117 4.5t-138 1.5q-76 0 -137.5 -1.5t-107.5 -4.5
q-11 -28 -31 -79q-103 -268 -103 -331q0 -46 33.5 -69t99.5 -23q10 0 21 2l-1 -43q-60 5 -118.5 7.5t-106.5 2.5q-47 0 -105.5 -2.5t-118.5 -7.5l-1 43q10 -2 21 -2q45 0 85.5 29.5t67.5 83.5q37 73 145 345t367 945h144q144 -432 265.5 -785t174.5 -495q25 -67 60.5 -95
t92.5 -28q11 0 21 2v-43z" />
    <glyph glyph-name="B" unicode="B" horiz-adv-x="1331" 
d="M1014 389q0 156 -110 237t-320 81q-29 0 -95 -4q-26 -2 -38 -3v-168q0 -82 2 -184.5t8 -240.5q46 -15 101 -22t114 -7q154 0 246 87t92 224zM922 1065q0 137 -93.5 217t-255.5 80q-26 0 -53.5 -2.5t-64.5 -7.5q-3 -108 -3.5 -227t-0.5 -347q41 -2 76.5 -3t66.5 -1
q47 0 97.5 2.5t87.5 6.5q66 46 104.5 121t38.5 161zM1229 410q0 -190 -149.5 -302t-403.5 -112q-64 0 -182 7t-166 7q-49 0 -184 -8q-41 -3 -62 -4v45q5 -1 14.5 -1.5t26.5 -0.5q88 0 115.5 63.5t27.5 253.5v748q0 184 -25.5 235.5t-117.5 51.5q-13 0 -19 -0.5t-12 -1.5v43
l12 -1q167 -10 244 -10q51 0 153.5 5.5t153.5 5.5q217 0 339 -91t122 -247q0 -107 -69 -197.5t-187 -140.5q169 -30 269 -125t100 -223z" />
    <glyph glyph-name="C" unicode="C" horiz-adv-x="1434" 
d="M1372 328q-21 -36 -53 -117t-49 -139q-87 -44 -201.5 -68t-228.5 -24q-334 0 -536 194.5t-202 521.5q0 338 210 548t548 210q117 0 231.5 -20.5t223.5 -61.5q-2 -18 -3 -40t-1 -42q0 -53 5.5 -116.5t14.5 -118.5l-51 -11q-27 164 -139.5 251t-300.5 87
q-251 0 -381.5 -164t-130.5 -481q0 -295 153 -485.5t400 -190.5q142 0 262.5 76.5t187.5 210.5z" />
    <glyph glyph-name="D" unicode="D" horiz-adv-x="1618" 
d="M1290 696q0 299 -181 479.5t-474 180.5q-40 0 -93.5 -4.5t-86.5 -10.5q-1 -25 -2 -73q-7 -266 -7 -398q0 -110 5 -314q3 -93 4 -147l6 -290q70 -25 135 -36t141 -11q265 0 409 165.5t144 458.5zM1516 717q0 -321 -212.5 -524t-566.5 -203q-74 0 -202 10t-187 10
q-57 0 -122 -2.5t-144 -7.5v43q5 -1 14.5 -1.5t26.5 -0.5q88 0 115.5 63.5t27.5 253.5v748q0 184 -25.5 235.5t-117.5 51.5q-13 0 -19 -0.5t-12 -1.5v42q57 -4 126.5 -7t129.5 -3q51 0 164 5.5t164 5.5q381 0 610.5 -194.5t229.5 -522.5z" />
    <glyph glyph-name="E" unicode="E" horiz-adv-x="1270" 
d="M1198 297q-29 -87 -49 -159.5t-33 -137.5q-37 1 -110 3q-231 7 -371 7q-196 0 -534 -9l-19 -1v43q5 -1 14.5 -1.5t26.5 -0.5q88 0 115.5 63.5t27.5 253.5v748q0 184 -25.5 235.5t-117.5 51.5q-13 0 -19 -0.5t-12 -1.5v42l32 -1q356 -19 511 -19q78 0 197.5 5.5
t252.5 15.5q0 -61 5 -130.5t16 -160.5l-41 -6q-41 140 -101.5 172t-246.5 32q-67 0 -137.5 -1.5t-124.5 -4.5q-2 -88 -3 -204.5t-1 -356.5q24 -3 48.5 -4.5t53.5 -1.5h184q143 0 195.5 28t60.5 109l41 -4q-7 -36 -10.5 -79.5t-3.5 -94.5q0 -49 3.5 -96t10.5 -98l-41 -5
q-8 98 -60.5 131t-195.5 33h-184q-30 0 -54.5 -1.5t-47.5 -4.5q0 -134 2.5 -299t7.5 -284q69 -8 142 -12.5t134 -4.5q192 0 275.5 41.5t144.5 183.5z" />
    <glyph glyph-name="F" unicode="F" horiz-adv-x="1147" 
d="M1106 1143l-41 -6q-41 140 -101.5 172t-246.5 32q-67 0 -137.5 -1.5t-124.5 -4.5q-2 -88 -3 -205t-1 -362q23 -3 47.5 -4.5t54.5 -1.5h164q138 0 193 29t63 110l40 -4q-6 -38 -10 -82.5t-4 -87.5q0 -47 4 -101.5t10 -97.5l-40 -6q-8 97 -62 130.5t-194 33.5h-164
q-30 0 -54.5 -1.5t-47.5 -4.5q0 -316 7 -434.5t34 -153.5q20 -27 50 -39t83 -12q20 0 41 2v-43q-20 1 -58 3q-158 7 -239 7q-89 0 -251 -8q-24 -1 -36 -2v43q5 -1 14.5 -1.5t26.5 -0.5q89 0 116 60t27 268v737q0 184 -25.5 235.5t-117.5 51.5q-13 0 -19 -0.5t-12 -1.5v42
l32 -1q356 -19 511 -19q78 0 197.5 5.5t252.5 15.5q0 -61 5 -130.5t16 -160.5z" />
    <glyph glyph-name="G" unicode="G" horiz-adv-x="1597" 
d="M1485 614q-79 0 -106 -42.5t-27 -161.5v-164q0 -56 2.5 -104t6.5 -91q-181 -43 -283 -57t-197 -14q-352 0 -565.5 196t-213.5 520q0 341 220.5 549.5t578.5 208.5q117 0 231.5 -20.5t219.5 -61.5q0 -71 7 -137t23 -150l-51 -10q-46 170 -151.5 238.5t-319.5 68.5
q-240 0 -386 -174.5t-146 -470.5q0 -307 162.5 -491.5t431.5 -184.5q69 0 129 10.5t112 30.5q2 54 3 117.5t1 190.5q0 120 -37 162t-147 42q-10 0 -31 -4v45h10q169 -10 267 -10q77 0 244 10h12v-41z" />
    <glyph glyph-name="H" unicode="H" horiz-adv-x="1638" 
d="M1556 0q-7 0 -24 1q-178 9 -252 9q-69 0 -225 -8q-27 -1 -41 -2v43q5 -1 11.5 -1.5t18.5 -0.5q89 0 116.5 60t27.5 268l-1 317q-52 3 -129.5 4.5t-238.5 1.5t-238.5 -1.5t-129.5 -4.5v-317q0 -208 27 -268t116 -60q13 0 19 0.5t12 1.5v-43q-14 1 -41 2q-157 8 -226 8
q-74 0 -252 -9q-17 -1 -24 -1v43q5 -1 14.5 -1.5t26.5 -0.5q89 0 116 60t27 268v737q0 184 -25.5 235.5t-117.5 51.5q-13 0 -19 -0.5t-12 -1.5v42q97 -5 160 -7.5t106 -2.5q78 0 244 10l12 1v-43q-10 2 -20 2q-92 0 -117.5 -51.5t-25.5 -235.5v-332q52 -3 130 -4.5t238 -1.5
t238 1.5t130 4.5l1 332q0 184 -25.5 235.5t-118.5 51.5q-10 0 -20 -2v43l12 -1q167 -10 244 -10q43 0 106 2.5t160 7.5v-42q-6 1 -12 1.5t-18 0.5q-93 0 -118.5 -51.5t-25.5 -235.5v-737q0 -208 27.5 -268t116.5 -60q16 0 25.5 0.5t14.5 1.5v-43z" />
    <glyph glyph-name="I" unicode="I" horiz-adv-x="717" 
d="M645 0q-7 0 -22 1q-180 9 -265 9q-84 0 -264 -9q-16 -1 -22 -1v43q5 -1 12.5 -1.5t28.5 -0.5q95 0 124 59t29 269v737q0 186 -27 236.5t-126 50.5q-13 0 -19 -0.5t-12 -1.5v43q7 -1 20 -1q184 -10 256 -10q74 0 252 9q16 1 25 2v-43q-6 1 -12 1.5t-19 0.5
q-99 0 -126 -50.5t-27 -236.5v-737q0 -210 29 -269t124 -59q21 0 28.5 0.5t12.5 1.5v-43z" />
    <glyph glyph-name="J" unicode="J" horiz-adv-x="676" 
d="M614 1391q-6 1 -12 1.5t-18 0.5q-97 0 -123.5 -48.5t-26.5 -238.5q0 -59 -2 -197t-2 -213q0 -74 2 -232.5t2 -217.5q0 -139 -24 -231t-82 -179q-57 -85 -152 -134.5t-196 -49.5q-75 0 -114.5 24t-39.5 68q0 38 20 65t41 27q27 0 88 -41q10 -7 15 -10q23 -15 46 -23t46 -8
q84 0 124 86t40 273v993q0 172 -31 229.5t-143 57.5q-11 0 -21 -2v43q8 -1 23 -2q180 -9 264 -9q78 0 239 9q25 1 37 2v-43z" />
    <glyph glyph-name="K" unicode="K" horiz-adv-x="1393" 
d="M625 0q-14 1 -41 2q-157 8 -226 8q-74 0 -252 -9q-17 -1 -24 -1v43q5 -1 14.5 -1.5t26.5 -0.5q89 0 116 60t27 268v737q0 184 -25.5 235.5t-117.5 51.5q-13 0 -19 -0.5t-12 -1.5v42q97 -5 160 -7.5t106 -2.5q78 0 244 10l12 1v-43q-10 2 -20 2q-92 0 -117.5 -51.5
t-25.5 -235.5v-737q0 -208 27 -268t116 -60q13 0 19 0.5t12 1.5v-43zM1485 0q-7 1 -22 2q-102 8 -173 8q-73 0 -191 -9q-12 -1 -18 -1q1 1 1 2q3 9 3 18q0 43 -158 201q-54 53 -87 86l-389 389l368 369q164 164 194.5 204t30.5 72q0 25 -24 38.5t-68 13.5q-10 0 -30 -2v43
q20 -1 62 -4q122 -7 183 -7q63 0 176 8q34 2 50 3v-43q-11 2 -21 2q-64 0 -130.5 -45.5t-197.5 -169.5l-409 -390l563 -563q112 -111 164.5 -147.5t112.5 -36.5q10 0 10 2v-43z" />
    <glyph glyph-name="L" unicode="L" horiz-adv-x="1106" 
d="M1157 303q-33 -106 -51.5 -175t-30.5 -128l-117 3q-222 7 -344 7q-175 0 -511 -9l-21 -1v43q5 -1 14.5 -1.5t26.5 -0.5q89 0 116 60t27 268v737q0 184 -25.5 235.5t-117.5 51.5q-13 0 -19 -0.5t-12 -1.5v43q16 -1 49 -3q143 -8 217 -8q84 0 264 9q15 1 23 2v-43
q-10 2 -20 2q-111 0 -140.5 -56.5t-29.5 -230.5q0 -389 3 -606.5t9 -397.5q70 -8 131.5 -12t118.5 -4q165 0 246 38.5t153 192.5z" />
    <glyph glyph-name="M" unicode="M" horiz-adv-x="1946" 
d="M1843 0q-8 0 -27 2q-148 8 -229 8q-68 0 -225 -8q-27 -1 -41 -2v43q9 0 22 -1t19 -1q72 0 102.5 29.5t30.5 103.5q0 158 -11.5 444.5t-29.5 579.5l-10 -31l-420 -901q-34 -72 -52.5 -127t-29.5 -119h-51q-7 33 -22 73t-70 163l-400 891l-30 61l-11 -164
q-14 -205 -22 -425t-8 -414q0 -96 32.5 -130t120.5 -34q11 0 31 2v-43q-11 1 -33 2q-141 8 -203 8q-57 0 -179 -7q-31 -2 -46 -3v43q21 -2 31 -2q49 0 77.5 14t45.5 47q18 37 37 334q3 38 4 56l20 306q3 39 17 230.5t14 231.5q0 69 -32 101t-101 32q-10 0 -21 -2v43
q9 -1 27 -2q124 -9 168 -9q31 0 79.5 3t98.5 7q-2 -12 -3 -18.5t-1 -11.5q0 -55 82 -232q13 -29 20 -44l359 -779l317 676q111 236 132.5 291t21.5 88q0 5 -1 11.5t-3 18.5q21 -1 58 -4q78 -6 120 -6q34 0 90.5 3.5t93.5 6.5v-42q-10 2 -20 2q-83 0 -115.5 -30.5
t-32.5 -105.5q0 -29 4.5 -139t10.5 -217l20 -368q12 -206 18.5 -293.5t12.5 -117.5q9 -45 34.5 -63t77.5 -18l31 2v-43z" />
    <glyph glyph-name="N" unicode="N" horiz-adv-x="1659" 
d="M1567 1391q-11 2 -23 2q-36 0 -65.5 -14t-44.5 -38q-25 -37 -33 -187t-8 -458v-409q0 -85 6 -170t14 -127h-72q-6 13 -24 37t-47 59l-922 1102v-451q0 -350 7.5 -480t33.5 -165q21 -27 51 -39t82 -12q21 0 41 2v-43l-57 3q-133 7 -189 7q-46 0 -173 -7q-42 -2 -62 -3v43
q6 -1 13 -1.5t20 -0.5q35 0 64.5 13.5t45.5 37.5q25 37 33 187t8 458v389q0 152 -31.5 209.5t-121.5 57.5q-11 0 -31 -2v43q3 -1 10 -1q118 -10 176 -10q28 0 71.5 3t90.5 7q16 -39 43.5 -80t79.5 -104l758 -911v358q0 340 -5.5 477.5t-25.5 167.5q-19 29 -50 40.5t-83 11.5
l-21 -2v43q89 -6 136.5 -8.5t78.5 -2.5q35 0 93.5 3t132.5 7v-42z" />
    <glyph glyph-name="O" unicode="O" horiz-adv-x="1638" 
d="M1311 676q0 320 -142 513t-370 193q-205 0 -338 -171.5t-133 -452.5q0 -320 141.5 -510.5t370.5 -190.5q206 0 338.5 169.5t132.5 449.5zM1536 717q0 -308 -208.5 -522.5t-508.5 -214.5q-317 0 -517 208t-200 529q0 304 211.5 520.5t505.5 216.5q313 0 515 -209.5
t202 -527.5z" />
    <glyph glyph-name="P" unicode="P" horiz-adv-x="1188" 
d="M973 1024q0 152 -104.5 245t-274.5 93q-35 0 -71 -2.5t-68 -7.5q-3 -120 -3.5 -257t-0.5 -419q39 -5 71.5 -7.5t61.5 -2.5q172 0 280.5 100.5t108.5 257.5zM1178 1034q0 -193 -159.5 -318.5t-404.5 -125.5q-50 0 -138 9q-17 2 -25 3q0 -269 7.5 -372t33.5 -138
q20 -27 50 -39t83 -12q20 0 41 2v-43q-20 1 -58 3q-158 7 -239 7q-89 0 -251 -8q-24 -1 -36 -2v43q5 -1 14.5 -1.5t26.5 -0.5q89 0 116 60t27 268v737q0 184 -25.5 235.5t-117.5 51.5q-13 0 -19 -0.5t-12 -1.5v43q15 -1 47 -3q146 -8 230 -8q38 0 135.5 5.5t150.5 5.5
q240 0 381.5 -107.5t141.5 -292.5z" />
    <glyph glyph-name="Q" unicode="Q" horiz-adv-x="1638" 
d="M1311 676q0 320 -142 513t-370 193q-205 0 -338 -171.5t-133 -452.5q0 -320 141.5 -510.5t370.5 -190.5q209 0 340 167.5t131 451.5zM1853 -272q-70 -35 -155.5 -55.5t-159.5 -20.5q-128 0 -271 68t-448 260q-317 0 -517 208t-200 529q0 304 211.5 520.5t505.5 216.5
q313 0 515 -209.5t202 -527.5q0 -232 -130 -417t-351 -269l225 -123q183 -100 264.5 -132t145.5 -32q41 0 79.5 6t73.5 19z" />
    <glyph glyph-name="R" unicode="R" horiz-adv-x="1352" 
d="M952 1024q0 150 -102 244t-266 94q-30 0 -64.5 -3t-64.5 -7q-2 -118 -3 -255.5t-1 -396.5q12 0 35 -2q80 -6 128 -6q68 0 100.5 1t53.5 3q91 53 137.5 136t46.5 192zM1454 4l-30 -4q-40 -5 -72.5 -7.5t-61.5 -2.5q-102 0 -168 32t-118 111q-31 46 -86 132l-27 42l-92 144
q-47 72 -78.5 118t-40.5 56q-35 -5 -79.5 -8t-88.5 -3h-61v-245q0 -211 29.5 -270.5t123.5 -59.5q13 0 19.5 0.5t11.5 0.5v-42q-8 0 -24 1q-178 9 -253 9q-74 0 -252 -9q-17 -1 -24 -1v45q5 -1 14.5 -1.5t26.5 -0.5q88 0 115.5 63.5t27.5 253.5v748q0 184 -25.5 235.5
t-117.5 51.5q-13 0 -19 -0.5t-12 -1.5v43l12 -1q167 -10 244 -10q51 0 143.5 5.5t143.5 5.5q231 0 376.5 -105.5t145.5 -273.5q0 -117 -69 -211.5t-207 -167.5l245 -369q113 -168 168.5 -217t128.5 -49h31v-37z" />
    <glyph glyph-name="S" unicode="S" horiz-adv-x="1188" 
d="M1065 420q0 -189 -156.5 -314.5t-396.5 -125.5q-79 0 -167.5 17t-201.5 54v29q0 75 -9 170.5t-21 138.5l55 14q30 -181 123 -263.5t262 -82.5q146 0 242 84.5t96 206.5q0 101 -72.5 172t-234.5 125l-62 21q-198 66 -278 156t-80 233q0 169 142 284t349 115
q74 0 161 -13.5t167 -37.5q0 -62 6.5 -120.5t24.5 -145.5l-47 -15q-38 137 -118 198.5t-224 61.5q-137 0 -217 -70t-80 -186q0 -93 67 -157.5t230 -118.5l61 -21q212 -70 295.5 -165t83.5 -244z" />
    <glyph glyph-name="T" unicode="T" horiz-adv-x="1249" 
d="M1239 1137l-41 -11q-40 138 -92.5 176.5t-183.5 38.5h-201q-4 -153 -4 -235v-737q0 -212 31 -270t133 -58q12 0 21 0.5t20 1.5v-43q-119 6 -184.5 8t-112.5 2q-48 0 -113.5 -2t-183.5 -8v43q10 -1 19 -1.5t22 -0.5q101 0 132 58t31 270v737q0 82 -4 235h-190
q-134 0 -195.5 -43.5t-101.5 -171.5l-41 11q22 82 31.5 151t9.5 156q51 -21 122.5 -26t225.5 -5h451q160 0 240 5.5t145 25.5q-6 -31 -6 -92q0 -48 4.5 -98.5t15.5 -116.5z" />
    <glyph glyph-name="U" unicode="U" horiz-adv-x="1618" 
d="M1536 1391q-10 2 -20 2q-47 0 -77.5 -15.5t-45.5 -46.5q-13 -26 -19 -113.5t-6 -275.5v-389q0 -282 -136 -433t-392 -151q-281 0 -432.5 158t-151.5 446q0 84 3 255.5t3 246.5q0 203 -27.5 260.5t-111.5 57.5q-10 0 -21 -2v42q33 -1 126 -5.5t130 -4.5q52 0 185 7
q60 2 92 3v-42q-10 2 -21 2q-94 0 -123.5 -48.5t-29.5 -197.5v-594q0 -228 108 -354.5t291 -126.5q219 0 319.5 125t100.5 397q0 335 -7 505.5t-24 211.5q-20 50 -49 66t-84 16q-12 0 -18.5 -0.5t-11.5 -1.5v43q35 -2 115 -6.5t130 -4.5q49 0 104 3t101 7v-42z" />
    <glyph glyph-name="V" unicode="V" horiz-adv-x="1249" 
d="M1341 1391q-10 2 -20 2q-45 0 -86 -29.5t-68 -83.5q-42 -85 -288 -731q-135 -355 -213 -559h-113q-114 343 -232 677t-219 603q-24 66 -60 94.5t-93 28.5q-10 0 -21 -2v43q18 -1 53 -3q139 -8 203 -8q98 0 267 10l10 1v-43q-10 2 -21 2q-64 0 -98.5 -21.5t-34.5 -60.5
q0 -53 48 -187q9 -26 14 -39l297 -849q49 123 157 412l37 100l41 108q143 381 143 444q0 47 -33 70t-100 23q-10 0 -20 -2v43q55 -5 120.5 -8t114.5 -3q44 0 95 2.5t120 8.5v-43z" />
    <glyph glyph-name="W" unicode="W" horiz-adv-x="1966" 
d="M2038 1391q-10 2 -21 2q-51 0 -89.5 -28.5t-63.5 -84.5q-25 -55 -197 -556.5t-254 -733.5h-92q-75 225 -152 443.5t-165 457.5l-77 -190q-173 -432 -282 -711h-92q-114 343 -232 677t-219 603q-24 66 -60 94.5t-93 28.5q-10 0 -21 -2v43l12 -1q167 -10 244 -10
q98 0 267 10l10 1v-43q-10 2 -21 2q-69 0 -101 -19.5t-32 -62.5q0 -25 25.5 -103t107.5 -307l226 -635q76 185 223 553q49 123 74 185q-21 68 -46 144t-47 132q-24 65 -52.5 89t-90.5 24q-10 0 -31 -2v43q18 -1 53 -3q139 -8 203 -8q108 0 278 10l9 1v-43q-10 2 -31 2
q-67 0 -100 -18t-33 -54t57 -208q44 -132 76 -232q24 -72 97.5 -274t117.5 -331q28 77 60.5 172t103.5 310q93 277 123.5 387t30.5 155q0 47 -33.5 70t-99.5 23q-11 0 -21 -2v43q55 -5 120.5 -8t115.5 -3q43 0 94 2.5t121 7.5v-42z" />
    <glyph glyph-name="X" unicode="X" horiz-adv-x="1270" 
d="M1352 0q-16 1 -46 2q-147 8 -231 8q-74 0 -216 -7q-33 -2 -50 -3v43q5 -1 11.5 -1.5t19.5 -0.5q47 0 74.5 17t27.5 44q0 26 -11.5 54t-39.5 69l-287 430l-246 -368q-57 -87 -74.5 -122.5t-17.5 -62.5t27.5 -44t75.5 -17q14 0 19.5 0.5t10.5 1.5v-43l-12 1q-166 9 -244 9
q-64 0 -195 -9q-14 -1 -20 -1v43q6 -1 12 -1.5t19 -0.5q58 0 107.5 36t117.5 130l369 510l-328 491q-9 15 -28 43q-89 142 -166 142q-15 0 -31 -2v43q20 -1 62 -4q123 -7 184 -7q62 0 141 3t145 8v-43q-5 1 -11.5 1.5t-18.5 0.5q-48 0 -75.5 -17.5t-27.5 -44.5
q0 -26 12 -53.5t40 -69.5l225 -338l215 318q34 51 47.5 82.5t13.5 60.5q0 27 -27.5 44.5t-74.5 17.5q-14 0 -19 -0.5t-12 -1.5v43q17 -1 53 -3q139 -8 203 -8q55 0 153 8l42 3v-43q-6 1 -12 1.5t-19 0.5q-60 0 -105.5 -40.5t-119.5 -144.5l-287 -399l399 -594
q70 -103 109.5 -138.5t85.5 -35.5q13 0 19 0.5t12 1.5v-43z" />
    <glyph glyph-name="Y" unicode="Y" horiz-adv-x="1126" 
d="M1229 1393h-31q-60 0 -101.5 -39.5t-133.5 -186.5l-328 -522v-276q0 -212 31 -270t133 -58q12 0 21 0.5t20 1.5v-43q-119 6 -184.5 8t-112.5 2t-113 -2t-184 -8v43q10 -1 19 -1.5t22 -0.5q101 0 132.5 58t31.5 270v266l-318 553l-15 27q-102 178 -169 178q-12 0 -18 -0.5
t-13 -1.5v43q20 -1 62 -4q123 -7 184 -7q56 0 121 2.5t145 7.5v-42q-20 2 -31 2q-55 0 -83.5 -16t-28.5 -46q0 -26 13.5 -60t47.5 -93l250 -441l16 26q178 287 256 425q30 52 41 81.5t11 61.5q0 30 -24 46t-69 16q-10 0 -30 -2v43q13 -1 42 -3q127 -8 193 -8q50 0 158 8
q25 2 37 3v-41z" />
    <glyph glyph-name="Z" unicode="Z" horiz-adv-x="1352" 
d="M1321 358q-27 -80 -45 -169.5t-27 -188.5q-77 8 -207.5 12t-283.5 4h-266q-89 0 -182 -3t-259 -13l-31 41q36 27 68.5 64t85.5 110l819 1126q-194 7 -399 7q-265 0 -338.5 -39t-132.5 -193l-41 14q21 67 31 141.5t10 162.5q75 -9 181 -13t249 -4h328q105 0 194 4t174 13
l31 -41q-36 -27 -68 -64t-86 -110l-819 -1127h492q236 0 326.5 51t154.5 230z" />
    <glyph glyph-name="bracketleft" unicode="[" horiz-adv-x="860" 
d="M819 -348h-268q-35 0 -123 -4.5t-131 -5.5q2 92 5 268q9 484 9 735q0 280 -7 835l-1 56q64 -5 130.5 -7.5t119.5 -2.5h266v-41h-82q-113 0 -173.5 -2.5t-102.5 -8.5q-6 -324 -8 -499.5t-2 -329.5q0 -180 2 -401t8 -541q52 -4 121 -7t125 -3h112v-41z" />
    <glyph glyph-name="backslash" unicode="\" horiz-adv-x="944" 
d="M61 1559q145 -285 353 -676.5t551 -1023.5l-107 -49q-145 287 -715 1348l-188 351z" />
    <glyph glyph-name="bracketright" unicode="]" horiz-adv-x="860" 
d="M563 -358q-43 1 -131 5.5t-123 4.5h-268v41h113q55 0 124 3t121 7q6 320 8.5 541.5t2.5 400.5q0 154 -2.5 329.5t-8.5 499.5q-42 6 -102 8.5t-174 2.5h-82v41h266q42 0 107.5 2.5t142.5 7.5l-1 -56q-7 -555 -7 -835q0 -251 9 -735q4 -177 5 -268z" />
    <glyph glyph-name="asciicircum" unicode="^" 
d="M819 1536l-61 -20l-246 225l-246 -225l-61 20l276 348h62z" />
    <glyph glyph-name="underscore" unicode="_" 
d="M1024 -483h-1024v118h1024v-118z" />
    <glyph glyph-name="grave" unicode="`" 
d="M696 1536l-61 -20l-307 307l123 82z" />
    <glyph glyph-name="braceleft" unicode="{" horiz-adv-x="860" 
d="M819 -358q-22 -3 -45.5 -5t-46.5 -2q-211 0 -284.5 97.5t-73.5 369.5q0 284 -43 383t-193 99h-20v51h20q145 0 190.5 89.5t45.5 340.5q0 276 75 375.5t283 99.5q17 0 35.5 -0.5t56.5 -3.5v-31h-41q-154 0 -210 -67t-56 -250v-164q0 -181 -61 -273.5t-205 -136.5v-10
q146 -44 206 -132.5t60 -266.5v-205q0 -187 57.5 -257.5t208.5 -70.5h41v-30z" />
    <glyph glyph-name="bar" unicode="|" 
d="M449 1565h126v-2048h-126v2048z" />
    <glyph glyph-name="braceright" unicode="}" horiz-adv-x="860" 
d="M748 584h-21q-150 0 -192.5 -99t-42.5 -383q0 -272 -74 -369.5t-285 -97.5q-22 0 -45 1.5t-47 5.5v30h41q151 0 208.5 70.5t57.5 257.5v205q0 178 60 266.5t206 132.5v10q-143 44 -204.5 136.5t-61.5 273.5v164q0 183 -56 250t-210 67h-41v31q38 3 56.5 3.5t35.5 0.5
q208 0 283.5 -99.5t75.5 -375.5q0 -251 45 -340.5t190 -89.5h21v-51z" />
    <glyph glyph-name="asciitilde" unicode="~" horiz-adv-x="1331" 
d="M1229 737q-62 -101 -161 -163t-198 -62q-56 0 -110 13t-105 38q-81 41 -131.5 56.5t-93.5 15.5q-87 0 -156 -30t-151 -103l-21 30q62 101 161 163.5t198 62.5q56 0 110 -13t105 -38q81 -41 131.5 -56.5t93.5 -15.5q87 0 156 29.5t151 103.5z" />
    <glyph glyph-name="Euro.alt01" horiz-adv-x="1270" 
d="M1137 307q-22 -58 -37.5 -118.5t-23.5 -116.5q-74 -49 -148.5 -70.5t-169.5 -21.5q-222 0 -361.5 152t-174.5 431q-42 0 -87 -1.5t-73 -4.5l20 73q29 -2 64.5 -3.5t68.5 -1.5q-1 18 -1.5 40t-0.5 62q0 24 2 52.5t4 56.5q-31 0 -83 -3t-64 -4l21 72q52 -2 82.5 -3t54.5 -1
q43 251 193 404t356 153q90 0 172 -21t145 -61q-2 -37 -3 -56t-1 -34q0 -38 3.5 -76t10.5 -79l-41 -11q-37 133 -111 199.5t-186 66.5q-147 0 -241.5 -126.5t-120.5 -358.5q225 0 337 1t210 3l-21 -72q-134 4 -267 5.5t-265 1.5q-2 -20 -3 -41t-1 -58q0 -42 1 -66.5t3 -45.5
q118 0 235.5 1.5t234.5 4.5l-20 -74l-147 3q-198 3 -297 3q27 -243 126 -374.5t257 -131.5q105 0 182.5 68.5t124.5 202.5z" />
    <glyph glyph-name="nonbreakingspace" unicode="&#xa0;" horiz-adv-x="1270" 
 />
    <glyph glyph-name="exclamdown" unicode="&#xa1;" horiz-adv-x="635" 
d="M410 0h-195q0 102 7.5 213.5t23.5 257.5q20 179 32.5 319t18.5 254h51q8 -276 23.5 -537t38.5 -507zM451 1321q0 -20 -12 -39t-40 -43l-71 -61l-72 61q-28 24 -39.5 43t-11.5 39t11.5 39t39.5 43l72 61l71 -61q28 -24 40 -43t12 -39z" />
    <glyph glyph-name="cent" unicode="&#xa2;" horiz-adv-x="1147" 
d="M604 737q0 66 -1 152t-3 211q-127 -21 -194.5 -116t-67.5 -257q0 -161 71 -268t191 -127q3 166 3.5 252t0.5 153zM963 481q-19 -37 -33 -74.5t-29 -89.5q-61 -30 -113.5 -44t-117.5 -17q0 -25 1 -78q3 -157 4 -219h-81q2 65 5 233q1 45 1 66q-199 15 -312.5 133
t-113.5 316q0 184 120.5 312.5t305.5 146.5q-1 75 -2.5 146t-3.5 142h81q-1 -70 -2.5 -140.5t-2.5 -145.5q66 -1 134.5 -16.5t137.5 -45.5q-2 -18 -3 -38t-1 -34q0 -39 3.5 -74t10.5 -69l-41 -10q-19 97 -82 154t-159 67q-3 -130 -3.5 -214.5t-0.5 -150.5q0 -65 0.5 -148.5
t3.5 -260.5q82 0 145.5 43t110.5 131z" />
    <glyph glyph-name="sterling" unicode="&#xa3;" horiz-adv-x="1147" 
d="M1004 358q-23 -240 -78 -311.5t-168 -71.5q-43 0 -92 10.5t-123 34.5q-66 22 -114.5 31.5t-90.5 9.5q-68 0 -114 -17.5t-101 -63.5l-41 51q183 108 260.5 210t77.5 230q0 45 -9.5 93.5t-25.5 86.5q-77 0 -130.5 -1.5t-110.5 -4.5v82q53 -3 100 -4.5t121 -1.5
q-19 60 -28 126.5t-9 135.5q0 200 115 335.5t274 135.5q91 0 158 -39.5t67 -93.5q0 -29 -18.5 -50.5t-42.5 -21.5q-25 0 -46 13t-57 49l-10 10q-28 28 -54 39.5t-59 11.5q-72 0 -117.5 -72t-45.5 -194q0 -89 8.5 -179.5t27.5 -205.5q83 0 152.5 1t179.5 5v-82
q-77 3 -155.5 4.5t-161.5 1.5q5 -31 7.5 -61t2.5 -58q0 -91 -40 -172t-134 -176h31q33 0 80.5 -5.5t92.5 -14.5q53 -11 93.5 -16t71.5 -5q97 0 145 53t59 173z" />
    <glyph glyph-name="currency" unicode="&#xa4;" horiz-adv-x="1241" 
d="M623 1200q-130 0 -222 -92t-92 -221q0 -131 91.5 -223.5t222.5 -92.5q129 0 221 93t92 223q0 129 -91.5 221t-221.5 92zM158 1419l207 -207q60 46 122.5 68.5t133.5 22.5t135.5 -22.5t124.5 -68.5l204 207l72 -73l-205 -205q43 -57 64.5 -121t21.5 -135t-21.5 -135.5
t-64.5 -120.5l205 -205l-72 -74l-204 207q-57 -44 -121.5 -66t-138.5 -22t-136.5 21.5t-119.5 66.5l-207 -207l-72 74l207 205q-44 58 -66 122t-22 134q0 69 22 133.5t66 122.5l-207 205z" />
    <glyph glyph-name="yen" unicode="&#xa5;" horiz-adv-x="1270" 
d="M1188 1391q-6 1 -12 1.5t-19 0.5q-41 0 -70.5 -30.5t-72.5 -113.5l-191 -368q78 0 221 10v-72q-143 4 -249 4l-99 -188q115 0 199.5 2.5t148.5 7.5v-72q-32 3 -73.5 4t-128.5 1h-146v-332q0 -113 29 -159t104 -46q16 0 25 0.5t16 1.5v-43l-12 1q-166 9 -244 9
q-77 0 -244 -9l-12 -1v43q8 -1 17 -1.5t24 -0.5q76 0 104.5 46t28.5 159v332h-139q-79 0 -117.5 -1t-70.5 -4v72q67 -5 143 -7.5t184 -2.5l-83 188q-101 0 -244 -4v72q153 -10 217 -10l-166 368q-33 74 -67 109t-76 35q-13 0 -19 -0.5t-12 -1.5v42q66 -4 124.5 -7t100.5 -3
q46 0 109 3t118 8l1 -41q-60 0 -87.5 -14.5t-27.5 -47.5q0 -15 7.5 -39.5t23.5 -62.5l204 -492l246 492q15 29 23 56t8 46q0 32 -27 47t-86 15v40q53 -5 98.5 -7.5t86.5 -2.5q37 0 87 3t97 7v-42z" />
    <glyph glyph-name="brokenbar" unicode="&#xa6;" 
d="M449 408h126v-758h-126v758zM449 1432h126v-758h-126v758z" />
    <glyph glyph-name="section" unicode="&#xa7;" 
d="M829 246q0 119 -57.5 224.5t-198.5 246.5q-158 159 -212 249t-54 181q0 46 10.5 88t30.5 76q-76 -77 -109.5 -151.5t-33.5 -166.5q0 -118 48.5 -215t176.5 -225q156 -156 221.5 -264.5t65.5 -216.5q0 -53 -10.5 -96.5t-30.5 -77.5q81 81 117 164t36 184zM911 287
q0 -216 -144 -374.5t-327 -158.5q-117 0 -217 66t-100 139q0 41 23 66.5t57 25.5q27 0 47 -18.5t55 -83.5q43 -71 80 -97t86 -26q78 0 126 56.5t48 148.5q0 88 -59 180t-228 260q-124 125 -179.5 239t-55.5 242q0 198 134.5 345t305.5 147q108 0 202.5 -64t94.5 -131
q0 -40 -22 -66t-56 -26q-21 0 -39.5 18.5t-56.5 84.5q-34 60 -68 86t-75 26q-80 0 -122 -47.5t-42 -136.5q0 -67 52 -147t212 -240q150 -150 209 -264t59 -250z" />
    <glyph glyph-name="dieresis" unicode="&#xa8;" 
d="M410 1690q0 -33 -38.5 -73t-74.5 -40q-37 0 -75 35t-38 67q0 33 38.5 73t74.5 40q37 0 75 -35t38 -67zM840 1690q0 -33 -38.5 -73t-74.5 -40q-37 0 -75 35t-38 67q0 33 38.5 73t74.5 40q37 0 75 -35t38 -67z" />
    <glyph glyph-name="copyright" unicode="&#xa9;" horiz-adv-x="1741" 
d="M1221 487q-13 -21 -32.5 -69.5t-29.5 -83.5q-52 -26 -120.5 -40.5t-137.5 -14.5q-200 0 -320 115.5t-120 312.5q0 202 125.5 329t324.5 127q76 0 145 -11.5t132 -35.5q-1 -5 -1 -12q-3 -26 -3 -39q0 -35 3.5 -71t10.5 -68l-31 -8q-18 97 -86.5 149.5t-179.5 52.5
q-150 0 -228.5 -98.5t-78.5 -288.5q0 -177 92 -291t240 -114q85 0 157.5 45.5t112.5 126.5zM1536 717q0 281 -194 478.5t-472 197.5t-471.5 -197.5t-193.5 -478.5t193.5 -478.5t471.5 -197.5t472 197.5t194 478.5zM1597 717q0 -300 -212 -508.5t-515 -208.5
q-302 0 -514.5 208.5t-212.5 508.5q0 299 212.5 508t514.5 209q303 0 515 -209t212 -508z" />
    <glyph glyph-name="ordfeminine" unicode="&#xaa;" horiz-adv-x="840" 
d="M520 951l-117 356l-133 -359q17 -2 44 -3t77 -1q30 0 67 2t62 5zM860 563q-18 1 -53 3q-72 3 -109 3q-38 0 -100.5 -2.5t-77.5 -3.5v39q12 -2 19 -2q37 0 55 12t18 37q0 26 -15.5 79.5t-55.5 159.5q-44 3 -80 4t-70 1q-35 0 -70 -1t-73 -3q-2 -5 -7 -18
q-71 -178 -71 -222q0 -25 18 -37t56 -12q6 0 18 2v-38q-35 2 -70 3.5t-71 1.5t-71.5 -1.5t-69.5 -4.5v39q12 -2 18 -2q25 0 47.5 16.5t38.5 47.5q22 43 87 206.5t220 567.5l2 4h94q87 -259 158 -465.5t109 -306.5q15 -38 34.5 -54t51.5 -16q6 0 20 2v-39z" />
    <glyph glyph-name="guillemotleft" unicode="&#xab;" horiz-adv-x="860" 
d="M410 328l-52 -41q-60 93 -124 178t-173 211q109 126 173 210.5t124 178.5l52 -41q-44 -79 -87.5 -172t-76.5 -176q33 -83 76.5 -176t87.5 -172zM768 317l-61 -30q-79 121 -147 217t-130 172q68 83 138 181.5t139 207.5l61 -31q-38 -77 -80.5 -175.5t-73.5 -182.5
q31 -85 73.5 -183.5t80.5 -175.5z" />
    <glyph glyph-name="logicalnot" unicode="&#xac;" horiz-adv-x="1706" 
d="M254 858h1198v-502h-115v385h-1083v117z" />
    <glyph glyph-name="sfthyphen" unicode="&#xad;" horiz-adv-x="717" 
d="M651 625q-15 -37 -27.5 -76.5t-25.5 -87.5q-9 0 -95.5 5t-144.5 5q-68 0 -169 -5t-123 -5q14 37 27 76.5t26 87.5q9 -1 95 -6t144 -5q69 0 170 5t123 6z" />
    <glyph glyph-name="registered" unicode="&#xae;" horiz-adv-x="881" 
d="M512 1239q0 38 -26 61t-68 23q-7 0 -19 -1t-14 -1v-159q8 -2 15.5 -2.5t25.5 -0.5h37q25 15 37 34.5t12 45.5zM635 987l-8 -2q-4 -1 -11 -1.5t-22 -0.5q-26 0 -43 8t-29 27q-5 7 -14 22t-14 23l-23 35q-5 6 -15.5 23.5t-12.5 18.5q-5 0 -14.5 -0.5t-29.5 -0.5h-14v-62
q0 -53 7 -67.5t30 -14.5h8v-9q-10 0 -26 0.5t-46 0.5q-10 0 -32.5 -1t-32.5 -1v10h10q22 0 28.5 15.5t6.5 64.5v185q0 47 -6 59t-29 12h-8v10q10 -1 23 -1.5t40 -0.5q12 0 35.5 1t36.5 1q59 0 96 -25t37 -67q0 -27 -17.5 -50t-53.5 -42l61 -92q31 -47 44 -58.5t30 -11.5h8
v-8zM727 1147q0 123 -82 205t-205 82t-204.5 -82t-81.5 -205t81.5 -205t204.5 -82t205 82t82 205zM754 1147q0 -130 -91 -218.5t-223 -88.5q-136 0 -224.5 87t-88.5 220q0 129 91 218t222 89q137 0 225.5 -87.5t88.5 -219.5z" />
    <glyph glyph-name="overscore" unicode="&#xaf;" 
d="M0 1565h1024v-119h-1024v119z" />
    <glyph glyph-name="degree" unicode="&#xb0;" horiz-adv-x="717" 
d="M559 1198q0 85 -59 145t-142 60t-141.5 -60t-58.5 -145t58.5 -145t141.5 -60q84 0 142.5 60t58.5 145zM618 1198q0 -105 -77 -180.5t-183 -75.5q-108 0 -184 74.5t-76 181.5q0 106 77 181t183 75q109 0 184.5 -74.5t75.5 -181.5z" />
    <glyph glyph-name="plusminus" unicode="&#xb1;" horiz-adv-x="1706" 
d="M254 158h1198v-117h-1198v117zM795 1180h118v-344h539v-117h-539v-344h-118v344h-541v117h541v344z" />
    <glyph glyph-name="twosuperior" unicode="&#xb2;" horiz-adv-x="737" 
d="M655 748q-18 -44 -30 -90t-17 -95q-54 3 -113.5 4.5t-115.5 1.5h-51q-110 0 -161.5 -1.5t-94.5 -4.5l-21 41q249 241 329.5 358.5t80.5 225.5q0 73 -44 123.5t-110 50.5q-52 0 -103.5 -35t-90.5 -98l-31 20q45 98 112 149.5t150 51.5q103 0 171.5 -66t68.5 -165
q0 -100 -61 -193t-277 -309l-41 -41q64 -3 95 -3.5t58 -0.5h113q72 0 102 18t52 72z" />
    <glyph glyph-name="threesuperior" unicode="&#xb3;" horiz-adv-x="737" 
d="M625 840q0 -117 -101 -204t-237 -87q-88 0 -151.5 33.5t-63.5 76.5q0 25 17 43.5t44 18.5q13 0 24 -7.5t27 -27.5q32 -39 64 -57.5t69 -18.5q73 0 124 60.5t51 148.5q0 85 -44 132.5t-118 47.5q-27 0 -60.5 -9t-54.5 -23l-20 37q144 66 194.5 120.5t50.5 124.5
q0 54 -33 88.5t-79 34.5q-57 0 -97 -22.5t-88 -89.5l-30 20q31 79 97 124.5t148 45.5q85 0 145 -51t60 -129q0 -66 -47.5 -119.5t-136.5 -89.5q104 0 175 -62t71 -159z" />
    <glyph glyph-name="acute" unicode="&#xb4;" 
d="M696 1823l-307 -307l-61 20l245 369z" />
    <glyph glyph-name="mu" unicode="&#xb5;" horiz-adv-x="1120" 
d="M164 193q-27 -136 -52 -339q-34 -272 -112 -272q-37 0 -58.5 23.5t-21.5 64.5q0 40 64.5 273.5t105.5 427.5l109 514h147l-104 -492q-6 -30 -9.5 -58.5t-3.5 -53.5q0 -83 42 -129t118 -46q98 0 163.5 68.5t94.5 200.5l111 510h149l-114 -531q-13 -59 -17 -87.5t-4 -49.5
q0 -48 26 -78t66 -30q35 0 65.5 18t51.5 51t41 93.5t39 60.5q12 0 19 -10t7 -27q0 -25 -11 -66.5t-29 -83.5q-38 -82 -95 -122.5t-135 -40.5q-68 0 -108.5 51t-40.5 139v23q-46 -110 -116 -164t-165 -54q-96 0 -152.5 54.5t-70.5 161.5z" />
    <glyph glyph-name="paragraph" unicode="&#xb6;" horiz-adv-x="1126" 
d="M758 461v901q-88 -16 -131 -123t-43 -307q0 -221 41 -333.5t133 -137.5zM1024 1391q-11 1 -17 1.5t-24 0.5q-66 0 -91 -20t-32 -73q-4 -29 -7 -222t-3 -443q0 -389 2.5 -583t7.5 -349h-112l9 696q-22 -4 -50.5 -7t-51.5 -3q-244 0 -398.5 144.5t-154.5 367.5
q0 233 158 383t416 150q35 0 94 -2t80 -2q67 0 104.5 0.5t69.5 3.5v-43z" />
    <glyph glyph-name="glyph96" unicode="&#xb7;" horiz-adv-x="573" 
d="M420 727q0 -23 -12 -41.5t-50 -50.5l-71 -62l-72 62q-38 32 -49.5 50.5t-11.5 41.5t11.5 41.5t49.5 50.5l72 62l71 -62q38 -32 50 -50.5t12 -41.5z" />
    <glyph glyph-name="cedilla" unicode="&#xb8;" 
d="M686 -256q0 -64 -66.5 -112.5t-199.5 -82.5l-31 41q73 17 118.5 53.5t45.5 80.5q0 38 -36.5 66t-96.5 36l174 174h61l-100 -123q63 -14 97 -49t34 -84z" />
    <glyph glyph-name="onesuperior" unicode="&#xb9;" horiz-adv-x="655" 
d="M512 564q-59 3 -98.5 4t-75.5 1q-47 0 -93 -1.5t-91 -4.5v37q5 -1 14.5 -1.5t26.5 -0.5q55 0 72 36t20 155q2 86 3 160t1 188q0 52 -1 104.5t-4 120.5q-41 -3 -80.5 -8.5t-78.5 -11.5l-4 40q62 9 124 22.5t158 39.5q-3 -72 -4.5 -152.5t-1.5 -257.5v-246
q0 -124 14.5 -157t67.5 -33q13 0 19 0.5t12 1.5v-36z" />
    <glyph glyph-name="ordmasculine" unicode="&#xba;" horiz-adv-x="1065" 
d="M829 983q0 185 -86 297.5t-221 112.5q-123 0 -204.5 -101.5t-81.5 -267.5q0 -185 86 -297.5t221 -112.5q123 0 204.5 101.5t81.5 267.5zM973 1004q0 -184 -131.5 -317.5t-309.5 -133.5q-192 0 -316 128t-124 323q0 183 131.5 316.5t308.5 133.5q193 0 317 -128t124 -322z
" />
    <glyph glyph-name="guillemotright" unicode="&#xbb;" horiz-adv-x="860" 
d="M430 676q-68 -83 -138 -181.5t-138 -207.5l-62 30q39 77 81 175.5t73 183.5q-31 84 -73 182.5t-81 175.5l62 31q78 -122 146 -217.5t130 -171.5zM799 676q-108 -126 -172.5 -211t-124.5 -178l-51 41q43 79 86.5 172t76.5 176q-33 83 -76.5 176t-86.5 172l51 41
q60 -94 124.5 -178.5t172.5 -210.5z" />
    <glyph glyph-name="onequarter" unicode="&#xbc;" horiz-adv-x="1761" 
d="M1341 319v357l-249 -352q68 -3 109 -4t85 -1h55zM492 645q-34 2 -67 3t-91 1q-70 0 -105.5 -1t-64.5 -3v33q4 -1 13.5 -1.5t27.5 -0.5q47 0 63 34.5t19 139.5q2 74 3 139.5t1 167.5q0 101 -0.5 143.5t-2.5 67.5q-41 -4 -77 -9t-68 -11l-4 41q61 10 123 24.5t133 36.5
q-3 -58 -4.5 -135.5t-1.5 -249.5v-215q0 -111 13.5 -142.5t58.5 -31.5q12 0 19 0.5t11 1.5zM1311 1413q-279 -409 -499 -744t-443 -689l-62 40q279 410 499 744.5t443 689.5zM1589 327q-5 -17 -9.5 -38t-8.5 -45q-30 3 -57.5 4.5t-75.5 1.5v-111q0 -56 15.5 -80t53.5 -24h27
v-34q-33 2 -68 3.5t-69 1.5q-36 0 -77 -1.5t-81 -3.5v34h37q38 0 51.5 22.5t13.5 81.5v111h-129q-75 0 -110.5 -1t-65.5 -3l-32 49q31 34 67.5 80.5t75.5 99.5l63 88q74 103 101.5 143.5t56.5 88.5h74q-2 -78 -3 -178.5t-1 -297.5q34 1 77 3t74 5z" />
    <glyph glyph-name="onehalf" unicode="&#xbd;" horiz-adv-x="1761" 
d="M492 645q-34 2 -67 3t-91 1q-70 0 -105.5 -1t-64.5 -3v33q4 -1 13.5 -1.5t27.5 -0.5q47 0 63 34.5t19 139.5q2 74 3 139.5t1 167.5q0 101 -0.5 143.5t-2.5 67.5q-41 -4 -77 -9t-68 -11l-4 41q61 10 123 24.5t133 36.5q-3 -58 -4.5 -135.5t-1.5 -249.5v-215
q0 -111 13.5 -142.5t58.5 -31.5q12 0 19 0.5t11 1.5zM1311 1413q-279 -409 -499 -744t-443 -689l-62 40q279 410 499 744.5t443 689.5zM1587 166q-15 -35 -25 -74.5t-16 -91.5q-35 2 -79 3t-128 1h-141q-57 0 -84.5 -1t-50.5 -3l-19 37q222 213 295.5 320.5t73.5 205.5
q0 66 -40 112t-99 46q-47 0 -93.5 -32.5t-80.5 -88.5l-29 18q41 89 101 135t135 46q92 0 155.5 -60.5t63.5 -148.5t-55 -171.5t-252 -281.5l-37 -37q52 -2 83 -3t56 -1h100q65 0 93 17t47 65z" />
    <glyph glyph-name="threequarters" unicode="&#xbe;" horiz-adv-x="1761" 
d="M1341 319v357l-249 -352q68 -3 109 -4t85 -1h55zM598 895q0 -105 -90.5 -183.5t-212.5 -78.5q-79 0 -136 30.5t-57 69.5q0 22 16 38.5t40 16.5q10 0 19.5 -6t25.5 -26q27 -36 56 -52t65 -16q65 0 110 54t45 135q0 76 -39 118.5t-106 42.5q-24 0 -53.5 -8t-49.5 -20
l-18 32q129 60 174 109t45 113q0 49 -29.5 79.5t-70.5 30.5q-51 0 -87 -20.5t-79 -81.5l-27 18q29 71 87.5 112.5t131.5 41.5q76 0 130.5 -46t54.5 -116q0 -58 -43.5 -107t-122.5 -81q93 0 157 -55.5t64 -143.5zM1352 1413q-279 -409 -499 -744t-443 -689l-62 40
q279 410 499 744.5t443 689.5zM1589 327q-5 -17 -9.5 -38t-8.5 -45q-30 3 -57.5 4.5t-75.5 1.5v-111q0 -56 15.5 -80t53.5 -24h27v-34q-33 2 -68 3.5t-69 1.5q-36 0 -77 -1.5t-81 -3.5v34h37q38 0 51.5 22.5t13.5 81.5v111h-129q-75 0 -110.5 -1t-65.5 -3l-32 49
q31 34 67.5 80.5t75.5 99.5l63 88q74 103 101.5 143.5t56.5 88.5h74q-2 -78 -3 -178.5t-1 -297.5q34 1 77 3t74 5z" />
    <glyph glyph-name="questiondown" unicode="&#xbf;" horiz-adv-x="860" 
d="M758 133q0 -66 -65 -109.5t-161 -43.5q-192 0 -316 116.5t-124 292.5q0 142 82 244.5t266 185.5q29 13 49 25.5t33 25.5q17 17 24 43.5t7 69.5q0 10 -1 23.5t-3 37.5h57q-1 -17 -1.5 -36t-0.5 -62q0 -91 2.5 -140.5t7.5 -98.5q-195 -46 -302 -139.5t-107 -219.5
q0 -113 67.5 -184.5t178.5 -71.5q39 0 80 14.5t63 36.5q38 38 59.5 50t42.5 12q29 0 45.5 -19.5t16.5 -52.5zM696 1321q0 -20 -11.5 -39t-39.5 -43l-72 -61l-71 61q-28 24 -39.5 43t-11.5 39t11.5 39t39.5 43l71 61l72 -61q28 -24 39.5 -43t11.5 -39z" />
    <glyph glyph-name="Agrave" unicode="&#xc0;" horiz-adv-x="1290" 
d="M823 625l-209 635l-235 -635q35 -5 99.5 -8t115.5 -3q49 0 116 3t113 8zM1362 0q-17 1 -54 3q-137 7 -202 7q-79 0 -222 -7q-43 -2 -65 -3v43q10 -2 21 -2q66 0 99.5 23t33.5 69q0 41 -24 123.5t-100 286.5q-54 3 -117 4.5t-138 1.5q-76 0 -137.5 -1.5t-107.5 -4.5
q-11 -28 -31 -79q-103 -268 -103 -331q0 -46 33.5 -69t99.5 -23q10 0 21 2l-1 -43q-60 5 -118.5 7.5t-106.5 2.5q-47 0 -105.5 -2.5t-118.5 -7.5l-1 43q10 -2 21 -2q45 0 85.5 29.5t67.5 83.5q37 73 145 345t367 945h144q144 -432 265.5 -785t174.5 -495q25 -67 60.5 -95
t92.5 -28q11 0 21 2v-43zM839 1536l-61 -20l-307 307l123 82z" />
    <glyph glyph-name="Aacute" unicode="&#xc1;" horiz-adv-x="1290" 
d="M823 625l-209 635l-235 -635q35 -5 99.5 -8t115.5 -3q49 0 116 3t113 8zM1362 0q-17 1 -54 3q-137 7 -202 7q-79 0 -222 -7q-43 -2 -65 -3v43q10 -2 21 -2q66 0 99.5 23t33.5 69q0 41 -24 123.5t-100 286.5q-54 3 -117 4.5t-138 1.5q-76 0 -137.5 -1.5t-107.5 -4.5
q-11 -28 -31 -79q-103 -268 -103 -331q0 -46 33.5 -69t99.5 -23q10 0 21 2l-1 -43q-60 5 -118.5 7.5t-106.5 2.5q-47 0 -105.5 -2.5t-118.5 -7.5l-1 43q10 -2 21 -2q45 0 85.5 29.5t67.5 83.5q37 73 145 345t367 945h144q144 -432 265.5 -785t174.5 -495q25 -67 60.5 -95
t92.5 -28q11 0 21 2v-43zM839 1823l-307 -307l-61 20l245 369z" />
    <glyph glyph-name="Acircumflex" unicode="&#xc2;" horiz-adv-x="1290" 
d="M823 625l-209 635l-235 -635q35 -5 99.5 -8t115.5 -3q49 0 116 3t113 8zM1362 0q-17 1 -54 3q-137 7 -202 7q-79 0 -222 -7q-43 -2 -65 -3v43q10 -2 21 -2q66 0 99.5 23t33.5 69q0 41 -24 123.5t-100 286.5q-54 3 -117 4.5t-138 1.5q-76 0 -137.5 -1.5t-107.5 -4.5
q-11 -28 -31 -79q-103 -268 -103 -331q0 -46 33.5 -69t99.5 -23q10 0 21 2l-1 -43q-60 5 -118.5 7.5t-106.5 2.5q-47 0 -105.5 -2.5t-118.5 -7.5l-1 43q10 -2 21 -2q45 0 85.5 29.5t67.5 83.5q37 73 145 345t367 945h144q144 -432 265.5 -785t174.5 -495q25 -67 60.5 -95
t92.5 -28q11 0 21 2v-43zM962 1536l-61 -20l-246 225l-246 -225l-61 20l276 348h62z" />
    <glyph glyph-name="Atilde" unicode="&#xc3;" horiz-adv-x="1290" 
d="M823 625l-209 635l-235 -635q35 -5 99.5 -8t115.5 -3q49 0 116 3t113 8zM1362 0q-17 1 -54 3q-137 7 -202 7q-79 0 -222 -7q-43 -2 -65 -3v43q10 -2 21 -2q66 0 99.5 23t33.5 69q0 41 -24 123.5t-100 286.5q-54 3 -117 4.5t-138 1.5q-76 0 -137.5 -1.5t-107.5 -4.5
q-11 -28 -31 -79q-103 -268 -103 -331q0 -46 33.5 -69t99.5 -23q10 0 21 2l-1 -43q-60 5 -118.5 7.5t-106.5 2.5q-47 0 -105.5 -2.5t-118.5 -7.5l-1 43q10 -2 21 -2q45 0 85.5 29.5t67.5 83.5q37 73 145 345t367 945h144q144 -432 265.5 -785t174.5 -495q25 -67 60.5 -95
t92.5 -28q11 0 21 2v-43zM1054 1792q-53 -68 -109 -117t-126 -88q-40 0 -75 6.5t-89 24.5q-87 29 -113 35t-51 6q-50 0 -97.5 -27.5t-96.5 -85.5l-31 31q53 68 109 117t126 88q40 0 75 -6.5t89 -24.5q87 -29 113.5 -35t50.5 -6q50 0 97.5 27.5t97.5 85.5z" />
    <glyph glyph-name="Adieresis" unicode="&#xc4;" horiz-adv-x="1290" 
d="M823 625l-209 635l-235 -635q35 -5 99.5 -8t115.5 -3q49 0 116 3t113 8zM1362 0q-17 1 -54 3q-137 7 -202 7q-79 0 -222 -7q-43 -2 -65 -3v43q10 -2 21 -2q66 0 99.5 23t33.5 69q0 41 -24 123.5t-100 286.5q-54 3 -117 4.5t-138 1.5q-76 0 -137.5 -1.5t-107.5 -4.5
q-11 -28 -31 -79q-103 -268 -103 -331q0 -46 33.5 -69t99.5 -23q10 0 21 2l-1 -43q-60 5 -118.5 7.5t-106.5 2.5q-47 0 -105.5 -2.5t-118.5 -7.5l-1 43q10 -2 21 -2q45 0 85.5 29.5t67.5 83.5q37 73 145 345t367 945h144q144 -432 265.5 -785t174.5 -495q25 -67 60.5 -95
t92.5 -28q11 0 21 2v-43zM553 1690q0 -33 -38.5 -73t-74.5 -40q-37 0 -75 35t-38 67q0 33 38.5 73t74.5 40q37 0 75 -35t38 -67zM983 1690q0 -33 -38.5 -73t-74.5 -40q-37 0 -75 35t-38 67q0 33 38.5 73t74.5 40q37 0 75 -35t38 -67z" />
    <glyph glyph-name="Aring" unicode="&#xc5;" horiz-adv-x="1290" 
d="M823 625l-209 635l-235 -635q35 -5 99.5 -8t115.5 -3q49 0 116 3t113 8zM1362 0q-17 1 -54 3q-137 7 -202 7q-79 0 -222 -7q-43 -2 -65 -3v43q10 -2 21 -2q66 0 99.5 23t33.5 69q0 43 -26 129.5t-100 280.5q-53 3 -115.5 4.5t-137.5 1.5q-76 0 -137.5 -1.5t-107.5 -4.5
q-11 -28 -31 -79q-103 -268 -103 -331q0 -46 33.5 -69t99.5 -23q10 0 21 2l-1 -43q-60 5 -118.5 7.5t-106.5 2.5q-47 0 -105.5 -2.5t-118.5 -7.5l-1 43q10 -2 21 -2q45 0 85.5 29.5t67.5 83.5q37 73 145 345t367 945h144q144 -432 265.5 -785t174.5 -495q25 -67 60.5 -95
t92.5 -28q11 0 21 2v-43zM778 1720q0 52 -32 87.5t-80 35.5t-80.5 -36t-32.5 -87t32 -87t81 -36q47 0 79.5 36t32.5 87zM850 1720q0 -74 -56 -129t-128 -55q-80 0 -132.5 51.5t-52.5 132.5q0 74 56.5 129.5t128.5 55.5q80 0 132 -51.5t52 -133.5z" />
    <glyph glyph-name="AE" unicode="&#xc6;" horiz-adv-x="1966" 
d="M973 1321l-471 -696q52 -3 119.5 -5t126.5 -2q43 1 169 5q31 1 46 2q0 36 2 112q8 358 8 584zM1894 297q-28 -87 -48.5 -159.5t-33.5 -137.5q-37 1 -109 3q-232 7 -372 7q-185 0 -517 -9q-32 -1 -46 -1v43q5 -1 17.5 -1.5t33.5 -0.5q89 0 116.5 63.5t27.5 253.5v185
q-22 0 -116.5 3t-139.5 3q-60 0 -129.5 -1.5t-123.5 -5.5q-150 -226 -199.5 -312.5t-49.5 -116.5q0 -38 30 -55t97 -17l26 2v-43q-51 5 -127 7.5t-149 2.5q-62 0 -119 -2.5t-106 -7.5v43l41 -2q115 0 311 297q55 83 88 133l287 430q145 218 200.5 309t55.5 121q0 32 -27 47
t-86 15q-20 0 -51 -4v44q141 -6 330.5 -11t324.5 -5q97 0 222.5 4.5t228.5 11.5q0 -60 4.5 -129.5t15.5 -160.5l-41 -6q-41 140 -101.5 172t-246.5 32q-67 0 -137.5 -1.5t-124.5 -4.5q-2 -88 -3 -204.5t-1 -355.5q24 -4 48.5 -5.5t53.5 -1.5h185q145 0 196.5 29.5
t59.5 117.5l40 -4q-7 -43 -10.5 -89t-3.5 -95q0 -48 3.5 -95.5t10.5 -99.5l-40 -4q-8 98 -61 131t-195 33h-185q-30 0 -54 -1.5t-48 -4.5q0 -134 3 -299.5t7 -283.5q70 -8 143 -12.5t134 -4.5q191 0 275 41.5t144 183.5z" />
    <glyph glyph-name="Ccedilla" unicode="&#xc7;" horiz-adv-x="1434" 
d="M1372 328q-21 -36 -53 -117t-49 -139q-85 -42 -187.5 -65.5t-218.5 -27.5l-88 -102q66 -14 100.5 -48.5t34.5 -84.5q0 -64 -66 -112.5t-200 -82.5l-31 41q74 17 119 53.5t45 80.5q0 38 -36 66t-97 36l154 154q-321 16 -509 207.5t-188 508.5q0 338 210 548t548 210
q117 0 231.5 -20.5t223.5 -61.5q-2 -18 -3 -40t-1 -42q0 -53 5.5 -116.5t14.5 -118.5l-51 -11q-27 164 -139.5 251t-300.5 87q-251 0 -381.5 -164t-130.5 -481q0 -295 153 -485.5t400 -190.5q142 0 262.5 76.5t187.5 210.5z" />
    <glyph glyph-name="Egrave" unicode="&#xc8;" horiz-adv-x="1270" 
d="M1198 297q-29 -87 -49 -159.5t-33 -137.5q-37 1 -110 3q-231 7 -371 7q-196 0 -534 -9l-19 -1v43q5 -1 14.5 -1.5t26.5 -0.5q88 0 115.5 63.5t27.5 253.5v748q0 184 -25.5 235.5t-117.5 51.5q-13 0 -19 -0.5t-12 -1.5v42l32 -1q356 -19 511 -19q78 0 197.5 5.5
t252.5 15.5q0 -61 5 -130.5t16 -160.5l-41 -6q-41 140 -101.5 172t-246.5 32q-67 0 -137.5 -1.5t-124.5 -4.5q-2 -88 -3 -204.5t-1 -356.5q24 -3 48.5 -4.5t53.5 -1.5h184q143 0 195.5 28t60.5 109l41 -4q-7 -36 -10.5 -79.5t-3.5 -94.5q0 -49 3.5 -96t10.5 -98l-41 -5
q-8 98 -60.5 131t-195.5 33h-184q-30 0 -54.5 -1.5t-47.5 -4.5q0 -134 2.5 -299t7.5 -284q69 -8 142 -12.5t134 -4.5q192 0 275.5 41.5t144.5 183.5zM819 1536l-61 -20l-307 307l123 82z" />
    <glyph glyph-name="Eacute" unicode="&#xc9;" horiz-adv-x="1270" 
d="M1198 297q-29 -87 -49 -159.5t-33 -137.5q-37 1 -110 3q-231 7 -371 7q-196 0 -534 -9l-19 -1v43q5 -1 14.5 -1.5t26.5 -0.5q88 0 115.5 63.5t27.5 253.5v748q0 184 -25.5 235.5t-117.5 51.5q-13 0 -19 -0.5t-12 -1.5v42l32 -1q356 -19 511 -19q78 0 197.5 5.5
t252.5 15.5q0 -61 5 -130.5t16 -160.5l-41 -6q-41 140 -101.5 172t-246.5 32q-67 0 -137.5 -1.5t-124.5 -4.5q-2 -88 -3 -204.5t-1 -356.5q24 -3 48.5 -4.5t53.5 -1.5h184q143 0 195.5 28t60.5 109l41 -4q-7 -36 -10.5 -79.5t-3.5 -94.5q0 -49 3.5 -96t10.5 -98l-41 -5
q-8 98 -60.5 131t-195.5 33h-184q-30 0 -54.5 -1.5t-47.5 -4.5q0 -134 2.5 -299t7.5 -284q69 -8 142 -12.5t134 -4.5q192 0 275.5 41.5t144.5 183.5zM819 1823l-307 -307l-61 20l245 369z" />
    <glyph glyph-name="Ecircumflex" unicode="&#xca;" horiz-adv-x="1270" 
d="M1198 297q-29 -87 -49 -159.5t-33 -137.5q-37 1 -110 3q-231 7 -371 7q-196 0 -534 -9l-19 -1v43q5 -1 14.5 -1.5t26.5 -0.5q88 0 115.5 63.5t27.5 253.5v748q0 184 -25.5 235.5t-117.5 51.5q-13 0 -19 -0.5t-12 -1.5v42l32 -1q356 -19 511 -19q78 0 197.5 5.5
t252.5 15.5q0 -61 5 -130.5t16 -160.5l-41 -6q-41 140 -101.5 172t-246.5 32q-67 0 -137.5 -1.5t-124.5 -4.5q-2 -88 -3 -204.5t-1 -356.5q24 -3 48.5 -4.5t53.5 -1.5h184q143 0 195.5 28t60.5 109l41 -4q-7 -36 -10.5 -79.5t-3.5 -94.5q0 -49 3.5 -96t10.5 -98l-41 -5
q-8 98 -60.5 131t-195.5 33h-184q-30 0 -54.5 -1.5t-47.5 -4.5q0 -134 2.5 -299t7.5 -284q69 -8 142 -12.5t134 -4.5q192 0 275.5 41.5t144.5 183.5zM942 1536l-61 -20l-246 225l-246 -225l-61 20l276 348h62z" />
    <glyph glyph-name="Edieresis" unicode="&#xcb;" horiz-adv-x="1270" 
d="M1198 297q-29 -87 -49 -159.5t-33 -137.5q-37 1 -110 3q-231 7 -371 7q-196 0 -534 -9l-19 -1v43q5 -1 14.5 -1.5t26.5 -0.5q88 0 115.5 63.5t27.5 253.5v748q0 184 -25.5 235.5t-117.5 51.5q-13 0 -19 -0.5t-12 -1.5v42l32 -1q356 -19 511 -19q78 0 197.5 5.5
t252.5 15.5q0 -61 5 -130.5t16 -160.5l-41 -6q-41 140 -101.5 172t-246.5 32q-67 0 -137.5 -1.5t-124.5 -4.5q-2 -88 -3 -204.5t-1 -356.5q24 -3 48.5 -4.5t53.5 -1.5h184q143 0 195.5 28t60.5 109l41 -4q-7 -36 -10.5 -79.5t-3.5 -94.5q0 -49 3.5 -96t10.5 -98l-41 -5
q-8 98 -60.5 131t-195.5 33h-184q-30 0 -54.5 -1.5t-47.5 -4.5q0 -134 2.5 -299t7.5 -284q69 -8 142 -12.5t134 -4.5q192 0 275.5 41.5t144.5 183.5zM533 1690q0 -33 -38.5 -73t-74.5 -40q-37 0 -75 35t-38 67q0 33 38.5 73t74.5 40q37 0 75 -35t38 -67zM963 1690
q0 -33 -38.5 -73t-74.5 -40q-37 0 -75 35t-38 67q0 33 38.5 73t74.5 40q37 0 75 -35t38 -67z" />
    <glyph glyph-name="Igrave" unicode="&#xcc;" horiz-adv-x="717" 
d="M645 0q-7 0 -22 1q-180 9 -265 9q-84 0 -264 -9q-16 -1 -22 -1v43q5 -1 12.5 -1.5t28.5 -0.5q95 0 124 59t29 269v737q0 186 -27 236.5t-126 50.5q-13 0 -19 -0.5t-12 -1.5v43q7 -1 20 -1q184 -10 256 -10q74 0 252 9q16 1 25 2v-43q-6 1 -12 1.5t-19 0.5
q-99 0 -126 -50.5t-27 -236.5v-737q0 -210 29 -269t124 -59q21 0 28.5 0.5t12.5 1.5v-43zM542 1536l-61 -20l-307 307l123 82z" />
    <glyph glyph-name="Iacute" unicode="&#xcd;" horiz-adv-x="717" 
d="M645 0q-7 0 -22 1q-180 9 -265 9q-84 0 -264 -9q-16 -1 -22 -1v43q5 -1 12.5 -1.5t28.5 -0.5q95 0 124 59t29 269v737q0 186 -27 236.5t-126 50.5q-13 0 -19 -0.5t-12 -1.5v43q7 -1 20 -1q184 -10 256 -10q74 0 252 9q16 1 25 2v-43q-6 1 -12 1.5t-19 0.5
q-99 0 -126 -50.5t-27 -236.5v-737q0 -210 29 -269t124 -59q21 0 28.5 0.5t12.5 1.5v-43zM542 1823l-307 -307l-61 20l245 369z" />
    <glyph glyph-name="Icircumflex" unicode="&#xce;" horiz-adv-x="717" 
d="M645 0q-7 0 -22 1q-180 9 -265 9q-84 0 -264 -9q-16 -1 -22 -1v43q5 -1 12.5 -1.5t28.5 -0.5q95 0 124 59t29 269v737q0 186 -27 236.5t-126 50.5q-13 0 -19 -0.5t-12 -1.5v43q7 -1 20 -1q184 -10 256 -10q74 0 252 9q16 1 25 2v-43q-6 1 -12 1.5t-19 0.5
q-99 0 -126 -50.5t-27 -236.5v-737q0 -210 29 -269t124 -59q21 0 28.5 0.5t12.5 1.5v-43zM665 1536l-61 -20l-246 225l-246 -225l-61 20l276 348h62z" />
    <glyph glyph-name="Idieresis" unicode="&#xcf;" horiz-adv-x="717" 
d="M645 0q-7 0 -22 1q-180 9 -265 9q-84 0 -264 -9q-16 -1 -22 -1v43q5 -1 12.5 -1.5t28.5 -0.5q95 0 124 59t29 269v737q0 186 -27 236.5t-126 50.5q-13 0 -19 -0.5t-12 -1.5v43q7 -1 20 -1q184 -10 256 -10q74 0 252 9q16 1 25 2v-43q-6 1 -12 1.5t-19 0.5
q-99 0 -126 -50.5t-27 -236.5v-737q0 -210 29 -269t124 -59q21 0 28.5 0.5t12.5 1.5v-43zM256 1690q0 -33 -38.5 -73t-74.5 -40q-37 0 -75 35t-38 67q0 33 38.5 73t74.5 40q37 0 75 -35t38 -67zM686 1690q0 -33 -38.5 -73t-74.5 -40q-37 0 -75 35t-38 67q0 33 38.5 73
t74.5 40q37 0 75 -35t38 -67z" />
    <glyph glyph-name="Eth" unicode="&#xd0;" horiz-adv-x="1638" 
d="M1311 696q0 299 -181.5 479.5t-474.5 180.5q-40 0 -93 -4.5t-87 -10.5q0 -24 -2 -74q-6 -265 -6 -397v-102q151 0 228 1.5t124 4.5v-73q-48 3 -124.5 4.5t-227.5 0.5q3 -87 6 -252q2 -61 2 -85l6 -250q70 -25 135.5 -36t141.5 -11q264 0 408.5 165.5t144.5 458.5z
M1536 717q0 -321 -212 -524t-566 -203q-74 0 -202 10t-187 10q-57 0 -122.5 -2.5t-143.5 -7.5l-1 43q6 -1 15 -1.5t26 -0.5q89 0 116.5 63.5t27.5 253.5v349q-52 0 -114.5 -2t-111.5 -4l1 73q36 -3 86 -4.5t139 -1.5v338q0 184 -25.5 235.5t-118.5 51.5q-12 0 -18 -0.5
t-12 -1.5v42q57 -4 126 -7t130 -3q51 0 163.5 5.5t163.5 5.5q381 0 610.5 -194.5t229.5 -522.5z" />
    <glyph glyph-name="Ntilde" unicode="&#xd1;" horiz-adv-x="1659" 
d="M1567 1391q-11 2 -23 2q-36 0 -65.5 -14t-44.5 -38q-25 -37 -33 -187t-8 -458v-409q0 -85 6 -170t14 -127h-72q-6 13 -24 37t-47 59l-922 1102v-451q0 -350 7.5 -480t33.5 -165q21 -27 51 -39t82 -12q21 0 41 2v-43l-57 3q-133 7 -189 7q-46 0 -173 -7q-42 -2 -62 -3v43
q6 -1 13 -1.5t20 -0.5q35 0 64.5 13.5t45.5 37.5q25 37 33 187t8 458v389q0 152 -31.5 209.5t-121.5 57.5q-11 0 -31 -2v43q3 -1 10 -1q118 -10 176 -10q28 0 71.5 3t90.5 7q16 -39 43.5 -80t79.5 -104l758 -911v358q0 340 -5.5 477.5t-25.5 167.5q-19 29 -50 40.5t-83 11.5
l-21 -2v43q89 -6 136.5 -8.5t78.5 -2.5q35 0 93.5 3t132.5 7v-42zM1224 1792q-53 -68 -109 -117t-126 -88q-40 0 -75 6.5t-89 24.5q-87 29 -113 35t-51 6q-50 0 -97.5 -27.5t-96.5 -85.5l-31 31q53 68 109 117t126 88q40 0 75 -6.5t89 -24.5q87 -29 113.5 -35t50.5 -6
q50 0 97.5 27.5t97.5 85.5z" />
    <glyph glyph-name="Ograve" unicode="&#xd2;" horiz-adv-x="1638" 
d="M1311 676q0 320 -142 513t-370 193q-205 0 -338 -171.5t-133 -452.5q0 -320 141.5 -510.5t370.5 -190.5q206 0 338.5 169.5t132.5 449.5zM1536 717q0 -308 -208.5 -522.5t-508.5 -214.5q-317 0 -517 208t-200 529q0 304 211.5 520.5t505.5 216.5q313 0 515 -209.5
t202 -527.5zM1003 1536l-61 -20l-307 307l123 82z" />
    <glyph glyph-name="Oacute" unicode="&#xd3;" horiz-adv-x="1638" 
d="M1311 676q0 320 -142 513t-370 193q-205 0 -338 -171.5t-133 -452.5q0 -320 141.5 -510.5t370.5 -190.5q206 0 338.5 169.5t132.5 449.5zM1536 717q0 -308 -208.5 -522.5t-508.5 -214.5q-317 0 -517 208t-200 529q0 304 211.5 520.5t505.5 216.5q313 0 515 -209.5
t202 -527.5zM1003 1823l-307 -307l-61 20l245 369z" />
    <glyph glyph-name="Ocircumflex" unicode="&#xd4;" horiz-adv-x="1638" 
d="M1311 676q0 320 -142 513t-370 193q-205 0 -338 -171.5t-133 -452.5q0 -320 141.5 -510.5t370.5 -190.5q206 0 338.5 169.5t132.5 449.5zM1536 717q0 -308 -208.5 -522.5t-508.5 -214.5q-317 0 -517 208t-200 529q0 304 211.5 520.5t505.5 216.5q313 0 515 -209.5
t202 -527.5zM1126 1536l-61 -20l-246 225l-246 -225l-61 20l276 348h62z" />
    <glyph glyph-name="Otilde" unicode="&#xd5;" horiz-adv-x="1638" 
d="M1311 676q0 320 -142 513t-370 193q-205 0 -338 -171.5t-133 -452.5q0 -320 141.5 -510.5t370.5 -190.5q206 0 338.5 169.5t132.5 449.5zM1536 717q0 -308 -208.5 -522.5t-508.5 -214.5q-317 0 -517 208t-200 529q0 304 211.5 520.5t505.5 216.5q313 0 515 -209.5
t202 -527.5zM1218 1792q-53 -68 -109 -117t-126 -88q-40 0 -75 6.5t-89 24.5q-87 29 -113 35t-51 6q-50 0 -97.5 -27.5t-96.5 -85.5l-31 31q53 68 109 117t126 88q40 0 75 -6.5t89 -24.5q87 -29 113.5 -35t50.5 -6q50 0 97.5 27.5t97.5 85.5z" />
    <glyph glyph-name="Odieresis" unicode="&#xd6;" horiz-adv-x="1638" 
d="M1311 676q0 320 -142 513t-370 193q-205 0 -338 -171.5t-133 -452.5q0 -320 141.5 -510.5t370.5 -190.5q206 0 338.5 169.5t132.5 449.5zM1536 717q0 -308 -208.5 -522.5t-508.5 -214.5q-317 0 -517 208t-200 529q0 304 211.5 520.5t505.5 216.5q313 0 515 -209.5
t202 -527.5zM717 1690q0 -33 -38.5 -73t-74.5 -40q-37 0 -75 35t-38 67q0 33 38.5 73t74.5 40q37 0 75 -35t38 -67zM1147 1690q0 -33 -38.5 -73t-74.5 -40q-37 0 -75 35t-38 67q0 33 38.5 73t74.5 40q37 0 75 -35t38 -67z" />
    <glyph glyph-name="multiply" unicode="&#xd7;" horiz-adv-x="1706" 
d="M381 1169l477 -477l475 477l82 -82l-475 -477l475 -475l-82 -82l-475 475l-477 -475l-80 82l475 475l-475 477z" />
    <glyph glyph-name="Oslash" unicode="&#xd8;" horiz-adv-x="1638" 
d="M1110 1253q-65 65 -142.5 97t-168.5 32q-205 0 -338 -171.5t-133 -452.5q0 -161 35 -288.5t108 -227.5zM1311 676q0 163 -39 297t-115 231l-641 -1016q72 -65 152.5 -98t171.5 -33q206 0 338.5 169.5t132.5 449.5zM1536 717q0 -308 -208.5 -522.5t-508.5 -214.5
q-106 0 -197.5 23t-175.5 71l-149 -242l-61 45l153 236q-136 98 -211.5 257t-75.5 347q0 304 211.5 520.5t505.5 216.5q100 0 191 -22.5t170 -67.5l141 223l61 -41l-143 -219q140 -98 218.5 -259t78.5 -351z" />
    <glyph glyph-name="Ugrave" unicode="&#xd9;" horiz-adv-x="1618" 
d="M1536 1391q-10 2 -20 2q-47 0 -77.5 -15.5t-45.5 -46.5q-13 -26 -19 -113.5t-6 -275.5v-389q0 -282 -136 -433t-392 -151q-281 0 -432.5 158t-151.5 446q0 84 3 255.5t3 246.5q0 203 -27.5 260.5t-111.5 57.5q-10 0 -21 -2v42q33 -1 126 -5.5t130 -4.5q52 0 185 7
q60 2 92 3v-42q-10 2 -21 2q-94 0 -123.5 -48.5t-29.5 -197.5v-594q0 -228 108 -354.5t291 -126.5q219 0 319.5 125t100.5 397q0 335 -7 505.5t-24 211.5q-20 50 -49 66t-84 16q-12 0 -18.5 -0.5t-11.5 -1.5v43q35 -2 115 -6.5t130 -4.5q49 0 104 3t101 7v-42zM1044 1536
l-61 -20l-307 307l123 82z" />
    <glyph glyph-name="Uacute" unicode="&#xda;" horiz-adv-x="1618" 
d="M1536 1391q-10 2 -20 2q-47 0 -77.5 -15.5t-45.5 -46.5q-13 -26 -19 -113.5t-6 -275.5v-389q0 -282 -136 -433t-392 -151q-281 0 -432.5 158t-151.5 446q0 84 3 255.5t3 246.5q0 203 -27.5 260.5t-111.5 57.5q-10 0 -21 -2v42q33 -1 126 -5.5t130 -4.5q52 0 185 7
q60 2 92 3v-42q-10 2 -21 2q-94 0 -123.5 -48.5t-29.5 -197.5v-594q0 -228 108 -354.5t291 -126.5q219 0 319.5 125t100.5 397q0 335 -7 505.5t-24 211.5q-20 50 -49 66t-84 16q-12 0 -18.5 -0.5t-11.5 -1.5v43q35 -2 115 -6.5t130 -4.5q49 0 104 3t101 7v-42zM1044 1823
l-307 -307l-61 20l245 369z" />
    <glyph glyph-name="Ucircumflex" unicode="&#xdb;" horiz-adv-x="1618" 
d="M1536 1391q-10 2 -20 2q-47 0 -77.5 -15.5t-45.5 -46.5q-13 -26 -19 -113.5t-6 -275.5v-389q0 -282 -136 -433t-392 -151q-281 0 -432.5 158t-151.5 446q0 84 3 255.5t3 246.5q0 203 -27.5 260.5t-111.5 57.5q-10 0 -21 -2v42q33 -1 126 -5.5t130 -4.5q52 0 185 7
q60 2 92 3v-42q-10 2 -21 2q-94 0 -123.5 -48.5t-29.5 -197.5v-594q0 -228 108 -354.5t291 -126.5q219 0 319.5 125t100.5 397q0 335 -7 505.5t-24 211.5q-20 50 -49 66t-84 16q-12 0 -18.5 -0.5t-11.5 -1.5v43q35 -2 115 -6.5t130 -4.5q49 0 104 3t101 7v-42zM1167 1536
l-61 -20l-246 225l-246 -225l-61 20l276 348h62z" />
    <glyph glyph-name="Udieresis" unicode="&#xdc;" horiz-adv-x="1618" 
d="M1536 1391q-10 2 -20 2q-47 0 -77.5 -15.5t-45.5 -46.5q-13 -26 -19 -113.5t-6 -275.5v-389q0 -282 -136 -433t-392 -151q-281 0 -432.5 158t-151.5 446q0 84 3 255.5t3 246.5q0 203 -27.5 260.5t-111.5 57.5q-10 0 -21 -2v42q33 -1 126 -5.5t130 -4.5q52 0 185 7
q60 2 92 3v-42q-10 2 -21 2q-94 0 -123.5 -48.5t-29.5 -197.5v-594q0 -228 108 -354.5t291 -126.5q219 0 319.5 125t100.5 397q0 335 -7 505.5t-24 211.5q-20 50 -49 66t-84 16q-12 0 -18.5 -0.5t-11.5 -1.5v43q35 -2 115 -6.5t130 -4.5q49 0 104 3t101 7v-42zM758 1690
q0 -33 -38.5 -73t-74.5 -40q-37 0 -75 35t-38 67q0 33 38.5 73t74.5 40q37 0 75 -35t38 -67zM1188 1690q0 -33 -38.5 -73t-74.5 -40q-37 0 -75 35t-38 67q0 33 38.5 73t74.5 40q37 0 75 -35t38 -67z" />
    <glyph glyph-name="Yacute" unicode="&#xdd;" horiz-adv-x="1126" 
d="M1229 1393h-31q-60 0 -101.5 -39.5t-133.5 -186.5l-328 -522v-276q0 -212 31 -270t133 -58q12 0 21 0.5t20 1.5v-43q-119 6 -184.5 8t-112.5 2t-113 -2t-184 -8v43q10 -1 19 -1.5t22 -0.5q101 0 132.5 58t31.5 270v266l-318 553l-15 27q-102 178 -169 178q-12 0 -18 -0.5
t-13 -1.5v43q20 -1 62 -4q123 -7 184 -7q56 0 121 2.5t145 7.5v-42q-20 2 -31 2q-55 0 -83.5 -16t-28.5 -46q0 -26 13.5 -60t47.5 -93l250 -441l16 26q178 287 256 425q30 52 41 81.5t11 61.5q0 30 -24 46t-69 16q-10 0 -30 -2v43q13 -1 42 -3q127 -8 193 -8q50 0 158 8
q25 2 37 3v-41zM747 1823l-307 -307l-61 20l245 369z" />
    <glyph glyph-name="Thorn" unicode="&#xde;" horiz-adv-x="1188" 
d="M973 758q0 152 -104.5 245t-274.5 93q-36 0 -74.5 -3t-68.5 -8q-1 -8 -1 -26q-4 -198 -4 -301q0 -104 4 -320q0 -19 1 -28q40 -6 72.5 -8.5t60.5 -2.5q172 0 280.5 100.5t108.5 258.5zM1178 768q0 -193 -159.5 -318.5t-404.5 -125.5q-35 0 -74 3t-89 11q0 -187 28 -242
t115 -55q17 0 26 0.5t15 1.5v-43q-16 1 -46 2q-147 8 -231 8q-83 0 -230 -8q-31 -1 -46 -2v43q5 -1 14.5 -1.5t26.5 -0.5q89 0 116 60t27 268v737q0 184 -25.5 235.5t-117.5 51.5q-13 0 -19 -0.5t-12 -1.5v43l54 -3q133 -8 212 -8q77 0 196 7q40 3 60 4v-43q-6 1 -12 1.5
t-18 0.5q-81 0 -107 -48.5t-26 -187.5q41 5 90 7.5t114 2.5q240 0 381.5 -107t141.5 -292z" />
    <glyph glyph-name="divide" unicode="&#xf7;" horiz-adv-x="1706" 
d="M854 365q47 0 81 -34t34 -81t-33.5 -81t-81.5 -34t-81.5 33.5t-33.5 81.5t34 81.5t81 33.5zM254 670h1198v-117h-1198v117zM854 1085q48 0 81.5 -33.5t33.5 -80.5q0 -48 -33.5 -81.5t-81.5 -33.5q-49 0 -82 33.5t-33 81.5q0 47 34 80.5t81 33.5z" />
    <glyph glyph-name="Amacron" unicode="&#x100;" horiz-adv-x="1290" 
d="M823 625l-209 635l-235 -635q35 -5 99.5 -8t115.5 -3q49 0 116 3t113 8zM1362 0q-17 1 -54 3q-137 7 -202 7q-79 0 -222 -7q-43 -2 -65 -3v43q10 -2 21 -2q66 0 99.5 23t33.5 69q0 41 -24 123.5t-100 286.5q-54 3 -117 4.5t-138 1.5q-76 0 -137.5 -1.5t-107.5 -4.5
q-11 -28 -31 -79q-103 -268 -103 -331q0 -46 33.5 -69t99.5 -23q10 0 21 2l-1 -43q-60 5 -118.5 7.5t-106.5 2.5q-47 0 -105.5 -2.5t-118.5 -7.5l-1 43q10 -2 21 -2q45 0 85.5 29.5t67.5 83.5q37 73 145 345t367 945h144q144 -432 265.5 -785t174.5 -495q25 -67 60.5 -95
t92.5 -28q11 0 21 2v-43zM942 1618h-574v123h574v-123z" />
    <glyph glyph-name="Abreve" unicode="&#x102;" horiz-adv-x="1290" 
d="M823 625l-209 635l-235 -635q35 -5 99.5 -8t115.5 -3q49 0 116 3t113 8zM1362 0q-17 1 -54 3q-137 7 -202 7q-79 0 -222 -7q-43 -2 -65 -3v43q10 -2 21 -2q66 0 99.5 23t33.5 69q0 41 -24 123.5t-100 286.5q-54 3 -117 4.5t-138 1.5q-76 0 -137.5 -1.5t-107.5 -4.5
q-11 -28 -31 -79q-103 -268 -103 -331q0 -46 33.5 -69t99.5 -23q10 0 21 2l-1 -43q-60 5 -118.5 7.5t-106.5 2.5q-47 0 -105.5 -2.5t-118.5 -7.5l-1 43q10 -2 21 -2q45 0 85.5 29.5t67.5 83.5q37 73 145 345t367 945h144q144 -432 265.5 -785t174.5 -495q25 -67 60.5 -95
t92.5 -28q11 0 21 2v-43zM942 1864q-32 -145 -108 -226.5t-179 -81.5t-179 81.5t-108 226.5l51 20q41 -98 102 -151.5t134 -53.5t134 53.5t102 151.5z" />
    <glyph glyph-name="Aogonek" unicode="&#x104;" horiz-adv-x="1290" 
d="M823 625l-209 635l-235 -635q35 -5 99.5 -8t115.5 -3q49 0 116 3t113 8zM1361 0q-20 1 -66 3t-66 3q-74 -74 -109 -135t-35 -117q0 -47 22.5 -74.5t59.5 -27.5q31 0 60.5 21.5t52.5 60.5l31 -21q-24 -70 -74 -111.5t-111 -41.5q-71 0 -117 43t-46 110q0 73 55.5 152
t152.5 143q-12 1 -26 1.5t-39 0.5q-79 0 -222 -7q-43 -2 -65 -3v43q10 -2 21 -2q66 0 99.5 23t33.5 69q0 41 -24 123.5t-100 286.5q-54 3 -117 4.5t-138 1.5q-76 0 -137.5 -1.5t-107.5 -4.5q-11 -28 -31 -79q-103 -268 -103 -331q0 -46 33.5 -69t99.5 -23q10 0 21 2l-1 -43
q-60 5 -118.5 7.5t-106.5 2.5q-47 0 -105.5 -2.5t-118.5 -7.5l-1 43q10 -2 21 -2q45 0 85.5 29.5t67.5 83.5q37 73 145 345t367 945h144q144 -432 265.5 -785t174.5 -495q25 -67 60.5 -95t92.5 -28q11 0 21 2z" />
    <glyph glyph-name="Cacute" unicode="&#x106;" horiz-adv-x="1434" 
d="M1372 328q-21 -36 -53 -117t-49 -139q-87 -44 -201.5 -68t-228.5 -24q-334 0 -536 194.5t-202 521.5q0 338 210 548t548 210q117 0 231.5 -20.5t223.5 -61.5q-2 -18 -3 -40t-1 -42q0 -53 5.5 -116.5t14.5 -118.5l-51 -11q-27 164 -139.5 251t-300.5 87
q-251 0 -381.5 -164t-130.5 -481q0 -295 153 -485.5t400 -190.5q142 0 262.5 76.5t187.5 210.5zM1026 1823l-307 -307l-61 20l245 369z" />
    <glyph glyph-name="Ccircumflex" unicode="&#x108;" horiz-adv-x="1434" 
d="M1372 328q-21 -36 -53 -117t-49 -139q-87 -44 -201.5 -68t-228.5 -24q-334 0 -536 194.5t-202 521.5q0 338 210 548t548 210q117 0 231.5 -20.5t223.5 -61.5q-2 -18 -3 -40t-1 -42q0 -53 5.5 -116.5t14.5 -118.5l-51 -11q-27 164 -139.5 251t-300.5 87
q-251 0 -381.5 -164t-130.5 -481q0 -295 153 -485.5t400 -190.5q142 0 262.5 76.5t187.5 210.5zM1149 1536l-61 -20l-246 225l-246 -225l-61 20l276 348h62z" />
    <glyph glyph-name="Cdotaccent" unicode="&#x10a;" horiz-adv-x="1434" 
d="M1372 328q-21 -36 -53 -117t-49 -139q-87 -44 -201.5 -68t-228.5 -24q-334 0 -536 194.5t-202 521.5q0 338 210 548t548 210q117 0 231.5 -20.5t223.5 -61.5q-2 -18 -3 -40t-1 -42q0 -53 5.5 -116.5t14.5 -118.5l-51 -11q-27 164 -139.5 251t-300.5 87
q-251 0 -381.5 -164t-130.5 -481q0 -295 153 -485.5t400 -190.5q142 0 262.5 76.5t187.5 210.5zM975 1690q0 -39 -47.5 -86.5t-85.5 -47.5q-39 0 -86 43t-47 80q0 39 47.5 86t85.5 47q39 0 86 -42.5t47 -79.5z" />
    <glyph glyph-name="Ccaron" unicode="&#x10c;" horiz-adv-x="1434" 
d="M1372 328q-21 -36 -53 -117t-49 -139q-87 -44 -201.5 -68t-228.5 -24q-334 0 -536 194.5t-202 521.5q0 338 210 548t548 210q117 0 231.5 -20.5t223.5 -61.5q-2 -18 -3 -40t-1 -42q0 -53 5.5 -116.5t14.5 -118.5l-51 -11q-27 164 -139.5 251t-300.5 87
q-251 0 -381.5 -164t-130.5 -481q0 -295 153 -485.5t400 -190.5q142 0 262.5 76.5t187.5 210.5zM1149 1884l-276 -348h-62l-276 348l61 21l246 -226l246 226z" />
    <glyph glyph-name="Dcaron" unicode="&#x10e;" horiz-adv-x="1618" 
d="M1290 696q0 299 -181 479.5t-474 180.5q-40 0 -93.5 -4.5t-86.5 -10.5q-1 -25 -2 -73q-7 -266 -7 -398q0 -110 5 -314q3 -93 4 -147l6 -290q70 -25 135 -36t141 -11q265 0 409 165.5t144 458.5zM1516 717q0 -321 -212.5 -524t-566.5 -203q-74 0 -202 10t-187 10
q-57 0 -122 -2.5t-144 -7.5v43q5 -1 14.5 -1.5t26.5 -0.5q88 0 115.5 63.5t27.5 253.5v748q0 184 -25.5 235.5t-117.5 51.5q-13 0 -19 -0.5t-12 -1.5v42q57 -4 126.5 -7t129.5 -3q51 0 164 5.5t164 5.5q381 0 610.5 -194.5t229.5 -522.5zM1116 1884l-276 -348h-62l-276 348
l61 21l246 -226l246 226z" />
    <glyph glyph-name="Dcroat" unicode="&#x110;" horiz-adv-x="1638" 
d="M1311 696q0 299 -181.5 479.5t-474.5 180.5q-40 0 -93 -4.5t-87 -10.5q0 -24 -2 -74q-6 -265 -6 -397v-102q151 0 228 1.5t124 4.5v-73q-48 3 -124.5 4.5t-227.5 0.5q3 -87 6 -252q2 -61 2 -85l6 -250q70 -25 135.5 -36t141.5 -11q264 0 408.5 165.5t144.5 458.5z
M1536 717q0 -321 -212 -524t-566 -203q-74 0 -202 10t-187 10q-57 0 -122.5 -2.5t-143.5 -7.5l-1 43q6 -1 15 -1.5t26 -0.5q89 0 116.5 63.5t27.5 253.5v349q-52 0 -114.5 -2t-111.5 -4l1 73q36 -3 86 -4.5t139 -1.5v338q0 184 -25.5 235.5t-118.5 51.5q-12 0 -18 -0.5
t-12 -1.5v42q57 -4 126 -7t130 -3q51 0 163.5 5.5t163.5 5.5q381 0 610.5 -194.5t229.5 -522.5z" />
    <glyph glyph-name="Emacron" unicode="&#x112;" horiz-adv-x="1270" 
d="M1198 297q-29 -87 -49 -159.5t-33 -137.5q-37 1 -110 3q-231 7 -371 7q-196 0 -534 -9l-19 -1v43q5 -1 14.5 -1.5t26.5 -0.5q88 0 115.5 63.5t27.5 253.5v748q0 184 -25.5 235.5t-117.5 51.5q-13 0 -19 -0.5t-12 -1.5v42l32 -1q356 -19 511 -19q78 0 197.5 5.5
t252.5 15.5q0 -61 5 -130.5t16 -160.5l-41 -6q-41 140 -101.5 172t-246.5 32q-67 0 -137.5 -1.5t-124.5 -4.5q-2 -88 -3 -204.5t-1 -356.5q24 -3 48.5 -4.5t53.5 -1.5h184q143 0 195.5 28t60.5 109l41 -4q-7 -36 -10.5 -79.5t-3.5 -94.5q0 -49 3.5 -96t10.5 -98l-41 -5
q-8 98 -60.5 131t-195.5 33h-184q-30 0 -54.5 -1.5t-47.5 -4.5q0 -134 2.5 -299t7.5 -284q69 -8 142 -12.5t134 -4.5q192 0 275.5 41.5t144.5 183.5zM922 1618h-574v123h574v-123z" />
    <glyph glyph-name="Ebreve" unicode="&#x114;" horiz-adv-x="1270" 
d="M1198 297q-29 -87 -49 -159.5t-33 -137.5q-37 1 -110 3q-231 7 -371 7q-196 0 -534 -9l-19 -1v43q5 -1 14.5 -1.5t26.5 -0.5q88 0 115.5 63.5t27.5 253.5v748q0 184 -25.5 235.5t-117.5 51.5q-13 0 -19 -0.5t-12 -1.5v42l32 -1q356 -19 511 -19q78 0 197.5 5.5
t252.5 15.5q0 -61 5 -130.5t16 -160.5l-41 -6q-41 140 -101.5 172t-246.5 32q-67 0 -137.5 -1.5t-124.5 -4.5q-2 -88 -3 -204.5t-1 -356.5q24 -3 48.5 -4.5t53.5 -1.5h184q143 0 195.5 28t60.5 109l41 -4q-7 -36 -10.5 -79.5t-3.5 -94.5q0 -49 3.5 -96t10.5 -98l-41 -5
q-8 98 -60.5 131t-195.5 33h-184q-30 0 -54.5 -1.5t-47.5 -4.5q0 -134 2.5 -299t7.5 -284q69 -8 142 -12.5t134 -4.5q192 0 275.5 41.5t144.5 183.5zM922 1864q-32 -145 -108 -226.5t-179 -81.5t-179 81.5t-108 226.5l51 20q41 -98 102 -151.5t134 -53.5t134 53.5t102 151.5
z" />
    <glyph glyph-name="Edotaccent" unicode="&#x116;" horiz-adv-x="1270" 
d="M1198 297q-29 -87 -49 -159.5t-33 -137.5q-37 1 -110 3q-231 7 -371 7q-196 0 -534 -9l-19 -1v43q5 -1 14.5 -1.5t26.5 -0.5q88 0 115.5 63.5t27.5 253.5v748q0 184 -25.5 235.5t-117.5 51.5q-13 0 -19 -0.5t-12 -1.5v42l32 -1q356 -19 511 -19q78 0 197.5 5.5
t252.5 15.5q0 -61 5 -130.5t16 -160.5l-41 -6q-41 140 -101.5 172t-246.5 32q-67 0 -137.5 -1.5t-124.5 -4.5q-2 -88 -3 -204.5t-1 -356.5q24 -3 48.5 -4.5t53.5 -1.5h184q143 0 195.5 28t60.5 109l41 -4q-7 -36 -10.5 -79.5t-3.5 -94.5q0 -49 3.5 -96t10.5 -98l-41 -5
q-8 98 -60.5 131t-195.5 33h-184q-30 0 -54.5 -1.5t-47.5 -4.5q0 -134 2.5 -299t7.5 -284q69 -8 142 -12.5t134 -4.5q192 0 275.5 41.5t144.5 183.5zM768 1690q0 -39 -47.5 -86.5t-85.5 -47.5q-39 0 -86 43t-47 80q0 39 47.5 86t85.5 47q39 0 86 -42.5t47 -79.5z" />
    <glyph glyph-name="Eogonek" unicode="&#x118;" horiz-adv-x="1270" 
d="M1198 297q-29 -87 -49 -159.5t-33 -137.5q-51 3 -74.5 3.5t-42.5 0.5q-72 -72 -105.5 -132t-33.5 -118q0 -47 22 -74.5t60 -27.5q30 0 59.5 21.5t53.5 60.5l30 -21q-23 -70 -73 -111.5t-111 -41.5q-71 0 -117.5 43t-46.5 110q0 73 49.5 144t155.5 149q-54 2 -117.5 3
t-189.5 1q-196 0 -534 -9l-19 -1v43q5 -1 14.5 -1.5t26.5 -0.5q88 0 115.5 63.5t27.5 253.5v748q0 184 -25.5 235.5t-117.5 51.5q-13 0 -19 -0.5t-12 -1.5v42l32 -1q356 -19 511 -19q78 0 197.5 5.5t252.5 15.5q0 -61 5 -130.5t16 -160.5l-41 -6q-41 140 -101.5 172
t-246.5 32q-67 0 -137.5 -1.5t-124.5 -4.5q-2 -88 -3 -204.5t-1 -356.5q24 -3 48.5 -4.5t53.5 -1.5h182q144 0 197 27.5t61 109.5l41 -4q-7 -36 -10.5 -79.5t-3.5 -94.5q0 -49 3.5 -96t10.5 -98l-41 -5q-8 98 -61 131t-197 33h-182q-30 0 -54.5 -1.5t-47.5 -4.5
q0 -134 2.5 -299t7.5 -284q70 -8 143 -12.5t135 -4.5q190 0 273.5 41.5t144.5 183.5z" />
    <glyph glyph-name="Ecaron" unicode="&#x11a;" horiz-adv-x="1270" 
d="M1198 297q-29 -87 -49 -159.5t-33 -137.5q-37 1 -110 3q-231 7 -371 7q-196 0 -534 -9l-19 -1v43q5 -1 14.5 -1.5t26.5 -0.5q88 0 115.5 63.5t27.5 253.5v748q0 184 -25.5 235.5t-117.5 51.5q-13 0 -19 -0.5t-12 -1.5v42l32 -1q356 -19 511 -19q78 0 197.5 5.5
t252.5 15.5q0 -61 5 -130.5t16 -160.5l-41 -6q-41 140 -101.5 172t-246.5 32q-67 0 -137.5 -1.5t-124.5 -4.5q-2 -88 -3 -204.5t-1 -356.5q24 -3 48.5 -4.5t53.5 -1.5h184q143 0 195.5 28t60.5 109l41 -4q-7 -36 -10.5 -79.5t-3.5 -94.5q0 -49 3.5 -96t10.5 -98l-41 -5
q-8 98 -60.5 131t-195.5 33h-184q-30 0 -54.5 -1.5t-47.5 -4.5q0 -134 2.5 -299t7.5 -284q69 -8 142 -12.5t134 -4.5q192 0 275.5 41.5t144.5 183.5zM942 1884l-276 -348h-62l-276 348l61 21l246 -226l246 226z" />
    <glyph glyph-name="Gcircumflex" unicode="&#x11c;" horiz-adv-x="1597" 
d="M1485 614q-79 0 -106 -42.5t-27 -161.5v-164q0 -56 2.5 -104t6.5 -91q-181 -43 -283 -57t-197 -14q-352 0 -565.5 196t-213.5 520q0 341 220.5 549.5t578.5 208.5q117 0 231.5 -20.5t219.5 -61.5q0 -71 7 -137t23 -150l-51 -10q-46 170 -151.5 238.5t-319.5 68.5
q-240 0 -386 -174.5t-146 -470.5q0 -307 162.5 -491.5t431.5 -184.5q69 0 129 10.5t112 30.5q2 54 3 117.5t1 190.5q0 120 -37 162t-147 42q-10 0 -31 -4v45h10q169 -10 267 -10q77 0 244 10h12v-41zM1106 1536l-61 -20l-246 225l-246 -225l-61 20l276 348h62z" />
    <glyph glyph-name="Gbreve" unicode="&#x11e;" horiz-adv-x="1597" 
d="M1485 614q-79 0 -106 -42.5t-27 -161.5v-164q0 -56 2.5 -104t6.5 -91q-181 -43 -283 -57t-197 -14q-352 0 -565.5 196t-213.5 520q0 341 220.5 549.5t578.5 208.5q117 0 231.5 -20.5t219.5 -61.5q0 -71 7 -137t23 -150l-51 -10q-46 170 -151.5 238.5t-319.5 68.5
q-240 0 -386 -174.5t-146 -470.5q0 -307 162.5 -491.5t431.5 -184.5q69 0 129 10.5t112 30.5q2 54 3 117.5t1 190.5q0 120 -37 162t-147 42q-10 0 -31 -4v45h10q169 -10 267 -10q77 0 244 10h12v-41zM1086 1864q-32 -145 -108 -226.5t-179 -81.5t-179 81.5t-108 226.5l51 20
q41 -98 102 -151.5t134 -53.5t134 53.5t102 151.5z" />
    <glyph glyph-name="Gdotaccent" unicode="&#x120;" horiz-adv-x="1597" 
d="M1485 614q-79 0 -106 -42.5t-27 -161.5v-164q0 -56 2.5 -104t6.5 -91q-181 -43 -283 -57t-197 -14q-352 0 -565.5 196t-213.5 520q0 341 220.5 549.5t578.5 208.5q117 0 231.5 -20.5t219.5 -61.5q0 -71 7 -137t23 -150l-51 -10q-46 170 -151.5 238.5t-319.5 68.5
q-240 0 -386 -174.5t-146 -470.5q0 -307 162.5 -491.5t431.5 -184.5q69 0 129 10.5t112 30.5q2 54 3 117.5t1 190.5q0 120 -37 162t-147 42q-10 0 -31 -4v45h10q169 -10 267 -10q77 0 244 10h12v-41zM932 1690q0 -39 -47.5 -86.5t-85.5 -47.5q-39 0 -86 43t-47 80
q0 39 47.5 86t85.5 47q39 0 86 -42.5t47 -79.5z" />
    <glyph glyph-name="Gcommaaccent" unicode="&#x122;" horiz-adv-x="1597" 
d="M1485 614q-79 0 -106 -42.5t-27 -161.5v-164q0 -56 2.5 -104t6.5 -91q-181 -43 -283 -57t-197 -14q-352 0 -565.5 196t-213.5 520q0 341 220.5 549.5t578.5 208.5q117 0 231.5 -20.5t219.5 -61.5q0 -71 7 -137t23 -150l-51 -10q-46 170 -151.5 238.5t-319.5 68.5
q-240 0 -386 -174.5t-146 -470.5q0 -307 162.5 -491.5t431.5 -184.5q69 0 129 10.5t112 30.5q2 54 3 117.5t1 190.5q0 120 -37 162t-147 42q-10 0 -31 -4v45h10q169 -10 267 -10q77 0 244 10h12v-41zM803 -98q65 -51 85 -80t20 -62q0 -52 -47.5 -113t-141.5 -130l-35 41
q43 30 69 67t34 78q-45 25 -64.5 45.5t-19.5 42.5q0 24 48 66q6 5 9 8z" />
    <glyph glyph-name="Hcircumflex" unicode="&#x124;" horiz-adv-x="1638" 
d="M1556 0q-7 0 -24 1q-178 9 -252 9q-69 0 -225 -8q-27 -1 -41 -2v43q5 -1 11.5 -1.5t18.5 -0.5q89 0 116.5 60t27.5 268l-1 317q-52 3 -129.5 4.5t-238.5 1.5t-238.5 -1.5t-129.5 -4.5v-317q0 -208 27 -268t116 -60q13 0 19 0.5t12 1.5v-43q-14 1 -41 2q-157 8 -226 8
q-74 0 -252 -9q-17 -1 -24 -1v43q5 -1 14.5 -1.5t26.5 -0.5q89 0 116 60t27 268v737q0 184 -25.5 235.5t-117.5 51.5q-13 0 -19 -0.5t-12 -1.5v42q97 -5 160 -7.5t106 -2.5q78 0 244 10l12 1v-43q-10 2 -20 2q-92 0 -117.5 -51.5t-25.5 -235.5v-332q52 -3 130 -4.5t238 -1.5
t238 1.5t130 4.5l1 332q0 184 -25.5 235.5t-118.5 51.5q-10 0 -20 -2v43l12 -1q167 -10 244 -10q43 0 106 2.5t160 7.5v-42q-6 1 -12 1.5t-18 0.5q-93 0 -118.5 -51.5t-25.5 -235.5v-737q0 -208 27.5 -268t116.5 -60q16 0 25.5 0.5t14.5 1.5v-43zM1126 1536l-61 -20
l-246 225l-246 -225l-61 20l276 348h62z" />
    <glyph glyph-name="Itilde" unicode="&#x128;" horiz-adv-x="717" 
d="M645 0q-7 0 -22 1q-180 9 -265 9q-84 0 -264 -9q-16 -1 -22 -1v43q5 -1 12.5 -1.5t28.5 -0.5q95 0 124 59t29 269v737q0 186 -27 236.5t-126 50.5q-13 0 -19 -0.5t-12 -1.5v43q7 -1 20 -1q184 -10 256 -10q74 0 252 9q16 1 25 2v-43q-6 1 -12 1.5t-19 0.5
q-99 0 -126 -50.5t-27 -236.5v-737q0 -210 29 -269t124 -59q21 0 28.5 0.5t12.5 1.5v-43zM757 1792q-53 -68 -109 -117t-126 -88q-40 0 -75 6.5t-89 24.5q-87 29 -113 35t-51 6q-50 0 -97.5 -27.5t-96.5 -85.5l-31 31q53 68 109 117t126 88q40 0 75 -6.5t89 -24.5
q87 -29 113.5 -35t50.5 -6q50 0 97.5 27.5t97.5 85.5z" />
    <glyph glyph-name="Imacron" unicode="&#x12a;" horiz-adv-x="717" 
d="M645 0q-7 0 -22 1q-180 9 -265 9q-84 0 -264 -9q-16 -1 -22 -1v43q5 -1 12.5 -1.5t28.5 -0.5q95 0 124 59t29 269v737q0 186 -27 236.5t-126 50.5q-13 0 -19 -0.5t-12 -1.5v43q7 -1 20 -1q184 -10 256 -10q74 0 252 9q16 1 25 2v-43q-6 1 -12 1.5t-19 0.5
q-99 0 -126 -50.5t-27 -236.5v-737q0 -210 29 -269t124 -59q21 0 28.5 0.5t12.5 1.5v-43zM645 1618h-574v123h574v-123z" />
    <glyph glyph-name="Ibreve" unicode="&#x12c;" horiz-adv-x="717" 
d="M645 0q-7 0 -22 1q-180 9 -265 9q-84 0 -264 -9q-16 -1 -22 -1v43q5 -1 12.5 -1.5t28.5 -0.5q95 0 124 59t29 269v737q0 186 -27 236.5t-126 50.5q-13 0 -19 -0.5t-12 -1.5v43q7 -1 20 -1q184 -10 256 -10q74 0 252 9q16 1 25 2v-43q-6 1 -12 1.5t-19 0.5
q-99 0 -126 -50.5t-27 -236.5v-737q0 -210 29 -269t124 -59q21 0 28.5 0.5t12.5 1.5v-43zM645 1864q-32 -145 -108 -226.5t-179 -81.5t-179 81.5t-108 226.5l51 20q41 -98 102 -151.5t134 -53.5t134 53.5t102 151.5z" />
    <glyph glyph-name="Iogonek" unicode="&#x12e;" horiz-adv-x="717" 
d="M645 0q-7 0 -22 1q-180 9 -265 9q-84 0 -264 -9q-16 -1 -22 -1v43q5 -1 12.5 -1.5t28.5 -0.5q95 0 124 59t29 269v737q0 186 -27 236.5t-126 50.5q-13 0 -19 -0.5t-12 -1.5v43q7 -1 20 -1q184 -10 256 -10q74 0 252 9q16 1 25 2v-43q-6 1 -12 1.5t-19 0.5
q-99 0 -126 -50.5t-27 -236.5v-737q0 -210 29 -269t124 -59q21 0 28.5 0.5t12.5 1.5v-43zM522 -287q-23 -70 -73.5 -111.5t-110.5 -41.5q-72 0 -118 43t-46 110q0 83 65 166t191 162h41q-94 -94 -134 -160t-40 -127q0 -47 22 -74.5t59 -27.5q31 0 60.5 21.5t52.5 60.5z" />
    <glyph glyph-name="Idotaccent" unicode="&#x130;" horiz-adv-x="717" 
d="M645 0q-7 0 -22 1q-180 9 -265 9q-84 0 -264 -9q-16 -1 -22 -1v43q5 -1 12.5 -1.5t28.5 -0.5q95 0 124 59t29 269v737q0 186 -27 236.5t-126 50.5q-13 0 -19 -0.5t-12 -1.5v43q7 -1 20 -1q184 -10 256 -10q74 0 252 9q16 1 25 2v-43q-6 1 -12 1.5t-19 0.5
q-99 0 -126 -50.5t-27 -236.5v-737q0 -210 29 -269t124 -59q21 0 28.5 0.5t12.5 1.5v-43zM491 1690q0 -39 -47.5 -86.5t-85.5 -47.5q-39 0 -86 43t-47 80q0 39 47.5 86t85.5 47q39 0 86 -42.5t47 -79.5z" />
    <glyph glyph-name="IJ" unicode="&#x132;" horiz-adv-x="1372" 
d="M645 0q-7 0 -22 1q-180 9 -265 9q-84 0 -264 -9q-16 -1 -22 -1v43q5 -1 12.5 -1.5t28.5 -0.5q95 0 124 59t29 269v737q0 186 -27 236.5t-126 50.5q-13 0 -19 -0.5t-12 -1.5v43q7 -1 20 -1q184 -10 256 -10q74 0 252 9q16 1 25 2v-43q-6 1 -12 1.5t-19 0.5
q-99 0 -126 -50.5t-27 -236.5v-737q0 -210 29 -269t124 -59q21 0 28.5 0.5t12.5 1.5v-43zM1310 1391q-5 1 -11 1.5t-19 0.5q-97 0 -123.5 -48.5t-26.5 -238.5q0 -59 -2 -197t-2 -213q0 -74 2 -232.5t2 -217.5q0 -139 -24 -231t-82 -179q-57 -85 -152 -134.5t-196 -49.5
q-75 0 -114.5 24t-39.5 68q0 38 20 65t42 27q27 0 89 -42q8 -6 13 -9q23 -15 46 -23t46 -8q85 0 124.5 86t39.5 273v993q0 172 -31 229.5t-143 57.5q-10 0 -20 -2v43q7 -1 22 -2q181 -9 264 -9q79 0 239 9q25 1 38 2z" />
    <glyph glyph-name="Jcircumflex" unicode="&#x134;" horiz-adv-x="676" 
d="M614 1391q-6 1 -12 1.5t-18 0.5q-97 0 -123.5 -48.5t-26.5 -238.5q0 -59 -2 -197t-2 -213q0 -74 2 -232.5t2 -217.5q0 -139 -24 -231t-82 -179q-57 -85 -152 -134.5t-196 -49.5q-75 0 -114.5 24t-39.5 68q0 38 20 65t41 27q27 0 88 -41q10 -7 15 -10q23 -15 46 -23t46 -8
q84 0 124 86t40 273v993q0 172 -31 229.5t-143 57.5q-11 0 -21 -2v43q8 -1 23 -2q180 -9 264 -9q78 0 239 9q25 1 37 2v-43zM641 1536l-61 -20l-246 225l-246 -225l-61 20l276 348h62z" />
    <glyph glyph-name="Kcommaaccent" unicode="&#x136;" horiz-adv-x="1393" 
d="M625 0q-14 1 -41 2q-157 8 -226 8q-74 0 -252 -9q-17 -1 -24 -1v43q5 -1 14.5 -1.5t26.5 -0.5q89 0 116 60t27 268v737q0 184 -25.5 235.5t-117.5 51.5q-13 0 -19 -0.5t-12 -1.5v42q97 -5 160 -7.5t106 -2.5q78 0 244 10l12 1v-43q-10 2 -20 2q-92 0 -117.5 -51.5
t-25.5 -235.5v-737q0 -208 27 -268t116 -60q13 0 19 0.5t12 1.5v-43zM1485 0q-7 1 -22 2q-102 8 -173 8q-73 0 -191 -9q-12 -1 -18 -1q1 1 1 2q3 9 3 18q0 43 -158 201q-54 53 -87 86l-389 389l368 369q164 164 194.5 204t30.5 72q0 25 -24 38.5t-68 13.5q-10 0 -30 -2v43
q20 -1 62 -4q122 -7 183 -7q63 0 176 8q34 2 50 3v-43q-11 2 -21 2q-64 0 -130.5 -45.5t-197.5 -169.5l-409 -390l563 -563q112 -111 164.5 -147.5t112.5 -36.5q10 0 10 2v-43zM700 -98q65 -51 85 -80t20 -62q0 -52 -47.5 -113t-141.5 -130l-35 41q43 30 69 67t34 78
q-45 25 -64.5 45.5t-19.5 42.5q0 24 48 66q6 5 9 8z" />
    <glyph glyph-name="Lacute" unicode="&#x139;" horiz-adv-x="1106" 
d="M1157 303q-33 -106 -51.5 -175t-30.5 -128l-117 3q-222 7 -344 7q-175 0 -511 -9l-21 -1v43q5 -1 14.5 -1.5t26.5 -0.5q89 0 116 60t27 268v737q0 184 -25.5 235.5t-117.5 51.5q-13 0 -19 -0.5t-12 -1.5v43q16 -1 49 -3q143 -8 217 -8q84 0 264 9q15 1 23 2v-43
q-10 2 -20 2q-111 0 -140.5 -56.5t-29.5 -230.5q0 -389 3 -606.5t9 -397.5q70 -8 131.5 -12t118.5 -4q165 0 246 38.5t153 192.5zM553 1823l-307 -307l-61 20l245 369z" />
    <glyph glyph-name="Lcommaaccent" unicode="&#x13b;" horiz-adv-x="1106" 
d="M1157 303q-33 -106 -51.5 -175t-30.5 -128l-117 3q-222 7 -344 7q-175 0 -511 -9l-21 -1v43q5 -1 14.5 -1.5t26.5 -0.5q89 0 116 60t27 268v737q0 184 -25.5 235.5t-117.5 51.5q-13 0 -19 -0.5t-12 -1.5v43q16 -1 49 -3q143 -8 217 -8q84 0 264 9q15 1 23 2v-43
q-10 2 -20 2q-111 0 -140.5 -56.5t-29.5 -230.5q0 -389 3 -606.5t9 -397.5q70 -8 131.5 -12t118.5 -4q165 0 246 38.5t153 192.5zM557 -98q65 -51 85 -80t20 -62q0 -52 -47.5 -113t-141.5 -130l-35 41q43 30 69 67t34 78q-45 25 -64.5 45.5t-19.5 42.5q0 24 48 66q6 5 9 8z
" />
    <glyph glyph-name="Lcaron" unicode="&#x13d;" horiz-adv-x="1147" 
d="M1157 303q-33 -106 -51.5 -175t-30.5 -128l-117 3q-222 7 -344 7q-175 0 -511 -9l-21 -1v43q5 -1 14.5 -1.5t26.5 -0.5q89 0 116 60t27 268v737q0 184 -25.5 235.5t-117.5 51.5q-13 0 -19 -0.5t-12 -1.5v43q16 -1 49 -3q143 -8 217 -8q84 0 264 9q15 1 23 2v-43
q-10 2 -20 2q-111 0 -140.5 -56.5t-29.5 -230.5q0 -389 3 -606.5t9 -397.5q70 -8 131.5 -12t118.5 -4q165 0 246 38.5t153 192.5zM1069 1290q0 -80 -78.5 -172t-212.5 -166l-20 21q69 46 112.5 111t51.5 135l-52 41q-25 20 -36 36.5t-11 34.5q0 20 12 38.5t35 37.5l72 57
l72 -57q26 -21 40.5 -51.5t14.5 -65.5z" />
    <glyph glyph-name="Ldot" unicode="&#x13f;" horiz-adv-x="1679" 
d="M1157 303q-33 -106 -51.5 -175t-30.5 -128l-117 3q-222 7 -344 7q-175 0 -511 -9l-21 -1v43q5 -1 14.5 -1.5t26.5 -0.5q89 0 116 60t27 268v737q0 184 -25.5 235.5t-117.5 51.5q-13 0 -19 -0.5t-12 -1.5v43q16 -1 49 -3q143 -8 217 -8q84 0 264 9q15 1 23 2v-43
q-10 2 -20 2q-111 0 -140.5 -56.5t-29.5 -230.5q0 -389 3 -606.5t9 -397.5q70 -8 131.5 -12t118.5 -4q165 0 246 38.5t153 192.5zM1526 727q0 -23 -12 -41.5t-50 -50.5l-71 -62l-72 62q-38 32 -49.5 50.5t-11.5 41.5t11.5 41.5t49.5 50.5l72 62l71 -62q38 -32 50 -50.5
t12 -41.5z" />
    <glyph glyph-name="Lslash" unicode="&#x141;" horiz-adv-x="1126" 
d="M1178 303q-34 -106 -52 -175t-31 -128q-39 1 -116 3q-222 7 -344 7q-175 0 -511 -9l-22 -1v43q6 -1 15 -1.5t26 -0.5q89 0 116.5 60t27.5 268v276q-70 -38 -130.5 -73.5t-115.5 -69.5v82q55 27 115.5 60t130.5 73v389q0 184 -25.5 235.5t-118.5 51.5q-12 0 -18 -0.5
t-12 -1.5v43q15 -1 49 -3q143 -8 217 -8q83 0 264 9q15 1 23 2v-43q-11 2 -21 2q-110 0 -140 -56.5t-30 -230.5v-297q85 49 155 92.5t128 81.5v-82q-44 -25 -113 -65t-170 -99q0 -116 3 -261.5t10 -373.5q70 -8 131 -12t118 -4q166 0 246.5 38.5t153.5 192.5z" />
    <glyph glyph-name="Nacute" unicode="&#x143;" horiz-adv-x="1659" 
d="M1567 1391q-11 2 -23 2q-36 0 -65.5 -14t-44.5 -38q-25 -37 -33 -187t-8 -458v-409q0 -85 6 -170t14 -127h-72q-6 13 -24 37t-47 59l-922 1102v-451q0 -350 7.5 -480t33.5 -165q21 -27 51 -39t82 -12q21 0 41 2v-43l-57 3q-133 7 -189 7q-46 0 -173 -7q-42 -2 -62 -3v43
q6 -1 13 -1.5t20 -0.5q35 0 64.5 13.5t45.5 37.5q25 37 33 187t8 458v389q0 152 -31.5 209.5t-121.5 57.5q-11 0 -31 -2v43q3 -1 10 -1q118 -10 176 -10q28 0 71.5 3t90.5 7q16 -39 43.5 -80t79.5 -104l758 -911v358q0 340 -5.5 477.5t-25.5 167.5q-19 29 -50 40.5t-83 11.5
l-21 -2v43q89 -6 136.5 -8.5t78.5 -2.5q35 0 93.5 3t132.5 7v-42zM1009 1823l-307 -307l-61 20l245 369z" />
    <glyph glyph-name="Ncommaaccent" unicode="&#x145;" horiz-adv-x="1659" 
d="M1567 1391q-11 2 -23 2q-36 0 -65.5 -14t-44.5 -38q-25 -37 -33 -187t-8 -458v-409q0 -85 6 -170t14 -127h-72q-6 13 -24 37t-47 59l-922 1102v-451q0 -350 7.5 -480t33.5 -165q21 -27 51 -39t82 -12q21 0 41 2v-43l-57 3q-133 7 -189 7q-46 0 -173 -7q-42 -2 -62 -3v43
q6 -1 13 -1.5t20 -0.5q35 0 64.5 13.5t45.5 37.5q25 37 33 187t8 458v389q0 152 -31.5 209.5t-121.5 57.5q-11 0 -31 -2v43q3 -1 10 -1q118 -10 176 -10q28 0 71.5 3t90.5 7q16 -39 43.5 -80t79.5 -104l758 -911v358q0 340 -5.5 477.5t-25.5 167.5q-19 29 -50 40.5t-83 11.5
l-21 -2v43q89 -6 136.5 -8.5t78.5 -2.5q35 0 93.5 3t132.5 7v-42zM833 -98q65 -51 85 -80t20 -62q0 -52 -47.5 -113t-141.5 -130l-35 41q43 30 69 67t34 78q-45 25 -64.5 45.5t-19.5 42.5q0 24 48 66q6 5 9 8z" />
    <glyph glyph-name="Ncaron" unicode="&#x147;" horiz-adv-x="1659" 
d="M1567 1391q-11 2 -23 2q-36 0 -65.5 -14t-44.5 -38q-25 -37 -33 -187t-8 -458v-409q0 -85 6 -170t14 -127h-72q-6 13 -24 37t-47 59l-922 1102v-451q0 -350 7.5 -480t33.5 -165q21 -27 51 -39t82 -12q21 0 41 2v-43l-57 3q-133 7 -189 7q-46 0 -173 -7q-42 -2 -62 -3v43
q6 -1 13 -1.5t20 -0.5q35 0 64.5 13.5t45.5 37.5q25 37 33 187t8 458v389q0 152 -31.5 209.5t-121.5 57.5q-11 0 -31 -2v43q3 -1 10 -1q118 -10 176 -10q28 0 71.5 3t90.5 7q16 -39 43.5 -80t79.5 -104l758 -911v358q0 340 -5.5 477.5t-25.5 167.5q-19 29 -50 40.5t-83 11.5
l-21 -2v43q89 -6 136.5 -8.5t78.5 -2.5q35 0 93.5 3t132.5 7v-42zM1132 1884l-276 -348h-62l-276 348l61 21l246 -226l246 226z" />
    <glyph glyph-name="Omacron" unicode="&#x14c;" horiz-adv-x="1638" 
d="M1311 676q0 320 -142 513t-370 193q-205 0 -338 -171.5t-133 -452.5q0 -320 141.5 -510.5t370.5 -190.5q206 0 338.5 169.5t132.5 449.5zM1536 717q0 -308 -208.5 -522.5t-508.5 -214.5q-317 0 -517 208t-200 529q0 304 211.5 520.5t505.5 216.5q313 0 515 -209.5
t202 -527.5zM1106 1618h-574v123h574v-123z" />
    <glyph glyph-name="Obreve" unicode="&#x14e;" horiz-adv-x="1638" 
d="M1311 676q0 320 -142 513t-370 193q-205 0 -338 -171.5t-133 -452.5q0 -320 141.5 -510.5t370.5 -190.5q206 0 338.5 169.5t132.5 449.5zM1536 717q0 -308 -208.5 -522.5t-508.5 -214.5q-317 0 -517 208t-200 529q0 304 211.5 520.5t505.5 216.5q313 0 515 -209.5
t202 -527.5zM1106 1864q-32 -145 -108 -226.5t-179 -81.5t-179 81.5t-108 226.5l51 20q41 -98 102 -151.5t134 -53.5t134 53.5t102 151.5z" />
    <glyph glyph-name="Ohungarumlaut" unicode="&#x150;" horiz-adv-x="1638" 
d="M1311 676q0 320 -142 513t-370 193q-205 0 -338 -171.5t-133 -452.5q0 -320 141.5 -510.5t370.5 -190.5q206 0 338.5 169.5t132.5 449.5zM1536 717q0 -308 -208.5 -522.5t-508.5 -214.5q-317 0 -517 208t-200 529q0 304 211.5 520.5t505.5 216.5q313 0 515 -209.5
t202 -527.5zM839 1843l-204 -327l-52 10l134 389zM1106 1843l-264 -327l-54 10l195 389z" />
    <glyph glyph-name="OE" unicode="&#x152;" horiz-adv-x="2253" 
d="M1290 676q0 321 -137 508.5t-365 187.5q-204 0 -332 -166.5t-128 -447.5q0 -320 136.5 -505t364.5 -185q206 0 333.5 164t127.5 444zM2181 297q-29 -87 -49 -159.5t-33 -137.5q-37 1 -110 3q-231 7 -371 7q-228 0 -342 -2.5t-211 -7.5q-69 -5 -129.5 -7.5t-116.5 -2.5
q-318 0 -517.5 204t-199.5 523q0 303 210.5 515t506.5 212q58 0 126 -3t130 -7q138 -11 275 -16t268 -5q79 0 198 5.5t252 15.5q0 -61 5 -130.5t16 -160.5l-41 -6q-41 140 -101.5 172t-246.5 32q-187 0 -296.5 -1.5t-215.5 -4.5q148 -99 230 -241t98 -326h204
q143 0 195.5 28t60.5 109l41 -4q-7 -36 -10.5 -79.5t-3.5 -94.5q0 -49 3.5 -96t10.5 -98l-41 -5q-8 98 -60.5 131t-195.5 33h-204q-16 -193 -97.5 -340.5t-230.5 -249.5q135 -7 279 -11.5t253 -4.5q192 0 275.5 41.5t144.5 183.5z" />
    <glyph glyph-name="Racute" unicode="&#x154;" horiz-adv-x="1352" 
d="M952 1024q0 150 -102 244t-266 94q-30 0 -64.5 -3t-64.5 -7q-2 -118 -3 -255.5t-1 -396.5q12 0 35 -2q80 -6 128 -6q68 0 100.5 1t53.5 3q91 53 137.5 136t46.5 192zM1454 4l-30 -4q-40 -5 -72.5 -7.5t-61.5 -2.5q-102 0 -168 32t-118 111q-31 46 -86 132l-27 42l-92 144
q-47 72 -78.5 118t-40.5 56q-35 -5 -79.5 -8t-88.5 -3h-61v-245q0 -211 29.5 -270.5t123.5 -59.5q13 0 19.5 0.5t11.5 0.5v-42q-8 0 -24 1q-178 9 -253 9q-74 0 -252 -9q-17 -1 -24 -1v45q5 -1 14.5 -1.5t26.5 -0.5q88 0 115.5 63.5t27.5 253.5v748q0 184 -25.5 235.5
t-117.5 51.5q-13 0 -19 -0.5t-12 -1.5v43l12 -1q167 -10 244 -10q51 0 143.5 5.5t143.5 5.5q231 0 376.5 -105.5t145.5 -273.5q0 -117 -69 -211.5t-207 -167.5l245 -369q113 -168 168.5 -217t128.5 -49h31v-37zM860 1823l-307 -307l-61 20l245 369z" />
    <glyph glyph-name="Rcommaaccent" unicode="&#x156;" horiz-adv-x="1352" 
d="M952 1024q0 150 -102 244t-266 94q-30 0 -64.5 -3t-64.5 -7q-2 -118 -3 -255.5t-1 -396.5q12 0 35 -2q80 -6 128 -6q68 0 100.5 1t53.5 3q91 53 137.5 136t46.5 192zM1454 4l-30 -4q-40 -5 -72.5 -7.5t-61.5 -2.5q-102 0 -168 32t-118 111q-31 46 -86 132l-27 42l-92 144
q-47 72 -78.5 118t-40.5 56q-35 -5 -79.5 -8t-88.5 -3h-61v-245q0 -211 29.5 -270.5t123.5 -59.5q13 0 19.5 0.5t11.5 0.5v-42q-8 0 -24 1q-178 9 -253 9q-74 0 -252 -9q-17 -1 -24 -1v45q5 -1 14.5 -1.5t26.5 -0.5q88 0 115.5 63.5t27.5 253.5v748q0 184 -25.5 235.5
t-117.5 51.5q-13 0 -19 -0.5t-12 -1.5v43l12 -1q167 -10 244 -10q51 0 143.5 5.5t143.5 5.5q231 0 376.5 -105.5t145.5 -273.5q0 -117 -69 -211.5t-207 -167.5l245 -369q113 -168 168.5 -217t128.5 -49h31v-37zM680 -98q65 -51 85 -80t20 -62q0 -52 -47.5 -113t-141.5 -130
l-35 41q43 30 69 67t34 78q-45 25 -64.5 45.5t-19.5 42.5q0 24 48 66q6 5 9 8z" />
    <glyph glyph-name="Rcaron" unicode="&#x158;" horiz-adv-x="1352" 
d="M952 1024q0 150 -102 244t-266 94q-30 0 -64.5 -3t-64.5 -7q-2 -118 -3 -255.5t-1 -396.5q12 0 35 -2q80 -6 128 -6q68 0 100.5 1t53.5 3q91 53 137.5 136t46.5 192zM1454 4l-30 -4q-40 -5 -72.5 -7.5t-61.5 -2.5q-102 0 -168 32t-118 111q-31 46 -86 132l-27 42l-92 144
q-47 72 -78.5 118t-40.5 56q-35 -5 -79.5 -8t-88.5 -3h-61v-245q0 -211 29.5 -270.5t123.5 -59.5q13 0 19.5 0.5t11.5 0.5v-42q-8 0 -24 1q-178 9 -253 9q-74 0 -252 -9q-17 -1 -24 -1v45q5 -1 14.5 -1.5t26.5 -0.5q88 0 115.5 63.5t27.5 253.5v748q0 184 -25.5 235.5
t-117.5 51.5q-13 0 -19 -0.5t-12 -1.5v43l12 -1q167 -10 244 -10q51 0 143.5 5.5t143.5 5.5q231 0 376.5 -105.5t145.5 -273.5q0 -117 -69 -211.5t-207 -167.5l245 -369q113 -168 168.5 -217t128.5 -49h31v-37zM983 1884l-276 -348h-62l-276 348l61 21l246 -226l246 226z
" />
    <glyph glyph-name="Sacute" unicode="&#x15a;" horiz-adv-x="1188" 
d="M1065 420q0 -189 -156.5 -314.5t-396.5 -125.5q-79 0 -167.5 17t-201.5 54v29q0 75 -9 170.5t-21 138.5l55 14q30 -181 123 -263.5t262 -82.5q146 0 242 84.5t96 206.5q0 101 -72.5 172t-234.5 125l-62 21q-198 66 -278 156t-80 233q0 169 142 284t349 115
q74 0 161 -13.5t167 -37.5q0 -62 6.5 -120.5t24.5 -145.5l-47 -15q-38 137 -118 198.5t-224 61.5q-137 0 -217 -70t-80 -186q0 -93 67 -157.5t230 -118.5l61 -21q212 -70 295.5 -165t83.5 -244zM778 1823l-307 -307l-61 20l245 369z" />
    <glyph glyph-name="Scircumflex" unicode="&#x15c;" horiz-adv-x="1188" 
d="M1065 420q0 -189 -156.5 -314.5t-396.5 -125.5q-79 0 -167.5 17t-201.5 54v29q0 75 -9 170.5t-21 138.5l55 14q30 -181 123 -263.5t262 -82.5q146 0 242 84.5t96 206.5q0 101 -72.5 172t-234.5 125l-62 21q-198 66 -278 156t-80 233q0 169 142 284t349 115
q74 0 161 -13.5t167 -37.5q0 -62 6.5 -120.5t24.5 -145.5l-47 -15q-38 137 -118 198.5t-224 61.5q-137 0 -217 -70t-80 -186q0 -93 67 -157.5t230 -118.5l61 -21q212 -70 295.5 -165t83.5 -244zM901 1536l-61 -20l-246 225l-246 -225l-61 20l276 348h62z" />
    <glyph glyph-name="Scedilla" unicode="&#x15e;" horiz-adv-x="1188" 
d="M1065 420q0 -189 -156.5 -314.5t-396.5 -125.5q-79 0 -167.5 17t-201.5 54v29q0 75 -9 170.5t-21 138.5l55 14q30 -181 123 -263.5t262 -82.5q146 0 242 84.5t96 206.5q0 101 -72.5 172t-234.5 125l-62 21q-198 66 -278 156t-80 233q0 169 142 284t349 115
q74 0 161 -13.5t167 -37.5q0 -62 6.5 -120.5t24.5 -145.5l-47 -15q-38 137 -118 198.5t-224 61.5q-137 0 -217 -70t-80 -186q0 -93 67 -157.5t230 -118.5l61 -21q212 -70 295.5 -165t83.5 -244zM768 -256q0 -64 -66.5 -112.5t-199.5 -82.5l-31 41q73 17 118.5 53.5
t45.5 80.5q0 38 -36.5 66t-96.5 36l174 174h61l-100 -123q63 -14 97 -49t34 -84z" />
    <glyph glyph-name="Scaron" unicode="&#x160;" horiz-adv-x="1188" 
d="M1065 420q0 -189 -156.5 -314.5t-396.5 -125.5q-79 0 -167.5 17t-201.5 54v29q0 75 -9 170.5t-21 138.5l55 14q30 -181 123 -263.5t262 -82.5q146 0 242 84.5t96 206.5q0 101 -72.5 172t-234.5 125l-62 21q-198 66 -278 156t-80 233q0 169 142 284t349 115
q74 0 161 -13.5t167 -37.5q0 -62 6.5 -120.5t24.5 -145.5l-47 -15q-38 137 -118 198.5t-224 61.5q-137 0 -217 -70t-80 -186q0 -93 67 -157.5t230 -118.5l61 -21q212 -70 295.5 -165t83.5 -244zM901 1884l-276 -348h-62l-276 348l61 21l246 -226l246 226z" />
    <glyph glyph-name="Tcommaaccent" unicode="&#x162;" horiz-adv-x="1249" 
d="M1239 1137l-41 -11q-40 138 -92.5 176.5t-183.5 38.5h-201q-4 -153 -4 -235v-737q0 -212 31 -270t133 -58q12 0 21 0.5t20 1.5v-43q-119 6 -184.5 8t-112.5 2q-48 0 -113.5 -2t-183.5 -8v43q10 -1 19 -1.5t22 -0.5q101 0 132 58t31 270v737q0 82 -4 235h-190
q-134 0 -195.5 -43.5t-101.5 -171.5l-41 11q22 82 31.5 151t9.5 156q51 -21 122.5 -26t225.5 -5h451q160 0 240 5.5t145 25.5q-6 -31 -6 -92q0 -48 4.5 -98.5t15.5 -116.5zM629 -98q65 -51 85 -80t20 -62q0 -52 -47.5 -113t-141.5 -130l-35 41q43 30 69 67t34 78
q-45 25 -64.5 45.5t-19.5 42.5q0 24 48 66q6 5 9 8z" />
    <glyph glyph-name="Tcaron" unicode="&#x164;" horiz-adv-x="1249" 
d="M1239 1137l-41 -11q-40 138 -92.5 176.5t-183.5 38.5h-201q-4 -153 -4 -235v-737q0 -212 31 -270t133 -58q12 0 21 0.5t20 1.5v-43q-119 6 -184.5 8t-112.5 2q-48 0 -113.5 -2t-183.5 -8v43q10 -1 19 -1.5t22 -0.5q101 0 132 58t31 270v737q0 82 -4 235h-190
q-134 0 -195.5 -43.5t-101.5 -171.5l-41 11q22 82 31.5 151t9.5 156q51 -21 122.5 -26t225.5 -5h451q160 0 240 5.5t145 25.5q-6 -31 -6 -92q0 -48 4.5 -98.5t15.5 -116.5zM932 1884l-276 -348h-62l-276 348l61 21l246 -226l246 226z" />
    <glyph glyph-name="Utilde" unicode="&#x168;" horiz-adv-x="1618" 
d="M1536 1391q-10 2 -20 2q-47 0 -77.5 -15.5t-45.5 -46.5q-13 -26 -19 -113.5t-6 -275.5v-389q0 -282 -136 -433t-392 -151q-281 0 -432.5 158t-151.5 446q0 84 3 255.5t3 246.5q0 203 -27.5 260.5t-111.5 57.5q-10 0 -21 -2v42q33 -1 126 -5.5t130 -4.5q52 0 185 7
q60 2 92 3v-42q-10 2 -21 2q-94 0 -123.5 -48.5t-29.5 -197.5v-594q0 -228 108 -354.5t291 -126.5q219 0 319.5 125t100.5 397q0 335 -7 505.5t-24 211.5q-20 50 -49 66t-84 16q-12 0 -18.5 -0.5t-11.5 -1.5v43q35 -2 115 -6.5t130 -4.5q49 0 104 3t101 7v-42zM1259 1792
q-53 -68 -109 -117t-126 -88q-40 0 -75 6.5t-89 24.5q-87 29 -113 35t-51 6q-50 0 -97.5 -27.5t-96.5 -85.5l-31 31q53 68 109 117t126 88q40 0 75 -6.5t89 -24.5q87 -29 113.5 -35t50.5 -6q50 0 97.5 27.5t97.5 85.5z" />
    <glyph glyph-name="Umacron" unicode="&#x16a;" horiz-adv-x="1618" 
d="M1536 1391q-10 2 -20 2q-47 0 -77.5 -15.5t-45.5 -46.5q-13 -26 -19 -113.5t-6 -275.5v-389q0 -282 -136 -433t-392 -151q-281 0 -432.5 158t-151.5 446q0 84 3 255.5t3 246.5q0 203 -27.5 260.5t-111.5 57.5q-10 0 -21 -2v42q33 -1 126 -5.5t130 -4.5q52 0 185 7
q60 2 92 3v-42q-10 2 -21 2q-94 0 -123.5 -48.5t-29.5 -197.5v-594q0 -228 108 -354.5t291 -126.5q219 0 319.5 125t100.5 397q0 335 -7 505.5t-24 211.5q-20 50 -49 66t-84 16q-12 0 -18.5 -0.5t-11.5 -1.5v43q35 -2 115 -6.5t130 -4.5q49 0 104 3t101 7v-42zM1147 1618
h-574v123h574v-123z" />
    <glyph glyph-name="Ubreve" unicode="&#x16c;" horiz-adv-x="1618" 
d="M1536 1391q-10 2 -20 2q-47 0 -77.5 -15.5t-45.5 -46.5q-13 -26 -19 -113.5t-6 -275.5v-389q0 -282 -136 -433t-392 -151q-281 0 -432.5 158t-151.5 446q0 84 3 255.5t3 246.5q0 203 -27.5 260.5t-111.5 57.5q-10 0 -21 -2v42q33 -1 126 -5.5t130 -4.5q52 0 185 7
q60 2 92 3v-42q-10 2 -21 2q-94 0 -123.5 -48.5t-29.5 -197.5v-594q0 -228 108 -354.5t291 -126.5q219 0 319.5 125t100.5 397q0 335 -7 505.5t-24 211.5q-20 50 -49 66t-84 16q-12 0 -18.5 -0.5t-11.5 -1.5v43q35 -2 115 -6.5t130 -4.5q49 0 104 3t101 7v-42zM1147 1864
q-32 -145 -108 -226.5t-179 -81.5t-179 81.5t-108 226.5l51 20q41 -98 102 -151.5t134 -53.5t134 53.5t102 151.5z" />
    <glyph glyph-name="Uring" unicode="&#x16e;" horiz-adv-x="1618" 
d="M1536 1391q-10 2 -20 2q-47 0 -77.5 -15.5t-45.5 -46.5q-13 -26 -19 -113.5t-6 -275.5v-389q0 -282 -136 -433t-392 -151q-281 0 -432.5 158t-151.5 446q0 84 3 255.5t3 246.5q0 203 -27.5 260.5t-111.5 57.5q-10 0 -21 -2v42q33 -1 126 -5.5t130 -4.5q52 0 185 7
q60 2 92 3v-42q-10 2 -21 2q-94 0 -123.5 -48.5t-29.5 -197.5v-594q0 -228 108 -354.5t291 -126.5q219 0 319.5 125t100.5 397q0 335 -7 505.5t-24 211.5q-20 50 -49 66t-84 16q-12 0 -18.5 -0.5t-11.5 -1.5v43q35 -2 115 -6.5t130 -4.5q49 0 104 3t101 7v-42zM973 1720
q0 52 -32.5 87.5t-80.5 35.5t-80.5 -36t-32.5 -87t32.5 -87t80.5 -36t80.5 36t32.5 87zM1044 1720q0 -74 -56 -129t-128 -55q-80 0 -132 51.5t-52 132.5q0 74 56 129.5t128 55.5q80 0 132 -51.5t52 -133.5z" />
    <glyph glyph-name="Uhungarumlaut" unicode="&#x170;" horiz-adv-x="1618" 
d="M1536 1391q-10 2 -20 2q-47 0 -77.5 -15.5t-45.5 -46.5q-13 -26 -19 -113.5t-6 -275.5v-389q0 -282 -136 -433t-392 -151q-281 0 -432.5 158t-151.5 446q0 84 3 255.5t3 246.5q0 203 -27.5 260.5t-111.5 57.5q-10 0 -21 -2v42q33 -1 126 -5.5t130 -4.5q52 0 185 7
q60 2 92 3v-42q-10 2 -21 2q-94 0 -123.5 -48.5t-29.5 -197.5v-594q0 -228 108 -354.5t291 -126.5q219 0 319.5 125t100.5 397q0 335 -7 505.5t-24 211.5q-20 50 -49 66t-84 16q-12 0 -18.5 -0.5t-11.5 -1.5v43q35 -2 115 -6.5t130 -4.5q49 0 104 3t101 7v-42zM880 1843
l-204 -327l-52 10l134 389zM1147 1843l-264 -327l-54 10l195 389z" />
    <glyph glyph-name="Uogonek" unicode="&#x172;" horiz-adv-x="1618" 
d="M1536 1391q-10 2 -20 2q-47 0 -77.5 -15.5t-45.5 -46.5q-13 -26 -19 -113.5t-6 -275.5v-389q0 -282 -136 -433t-392 -151q-281 0 -432.5 158t-151.5 446q0 84 3 255.5t3 246.5q0 203 -27.5 260.5t-111.5 57.5q-10 0 -21 -2v42q33 -1 126 -5.5t130 -4.5q52 0 185 7
q60 2 92 3v-42q-10 2 -21 2q-94 0 -123.5 -48.5t-29.5 -197.5v-594q0 -228 108 -354.5t291 -126.5q219 0 319.5 125t100.5 397q0 335 -7 505.5t-24 211.5q-20 50 -49 66t-84 16q-12 0 -18.5 -0.5t-11.5 -1.5v43q35 -2 115 -6.5t130 -4.5q49 0 104 3t101 7v-42zM973 -287
q-23 -70 -73.5 -111.5t-110.5 -41.5q-72 0 -118 43t-46 110q0 83 65 166t191 162h41q-94 -94 -134 -160t-40 -127q0 -47 22 -74.5t59 -27.5q31 0 60.5 21.5t52.5 60.5z" />
    </font>
</defs>
</svg>
