<?xml version="1.0" standalone="no"?>
<!DOCTYPE svg PUBLIC "-//W3C//DTD SVG 1.1//EN" "http://www.w3.org/Graphics/SVG/1.1/DTD/svg11.dtd" >
<svg xmlns="http://www.w3.org/2000/svg" xmlns:xlink="http://www.w3.org/1999/xlink" version="1.1">
<metadata>
Created by FontForge 20201107 at Fri Jul 26 04:23:48 2013
 By 
Copyright 1990-2005 Bitstream Inc.  All rights reserved.
</metadata>
<defs>
<font id="IowanOldStyle-BoldItalic" horiz-adv-x="0" >
  <font-face 
    font-family="Iowan Old Style"
    font-weight="700"
    font-style="italic"
    font-stretch="normal"
    units-per-em="2048"
    panose-1="2 4 7 2 5 5 6 9 2 4"
    ascent="1638"
    descent="-410"
    x-height="967"
    cap-height="1366"
    bbox="-1694 -909 3738 2522"
    underline-thickness="123"
    underline-position="-317"
    slope="-10"
    unicode-range="U+0020-FE48"
  />
<missing-glyph horiz-adv-x="1229" 
d="M102 -362v1806h1024v-1806h-1024zM217 -248h795v1577h-795v-1577z" />
    <glyph glyph-name=".notdef" horiz-adv-x="1229" 
d="M102 -362v1806h1024v-1806h-1024zM217 -248h795v1577h-795v-1577z" />
    <glyph glyph-name=".null" 
 />
    <glyph glyph-name="nonmarkingreturn" horiz-adv-x="682" 
 />
    <glyph glyph-name="space" unicode=" " horiz-adv-x="596" 
 />
    <glyph glyph-name="exclam" unicode="!" horiz-adv-x="680" 
d="M602 1395q-34 -202 -170 -635q-70 -225 -104 -344l-121 -29q42 260 73.5 497.5t53.5 461.5zM250 281l69 -68q30 -28 43 -52t13 -50q0 -35 -21.5 -61.5t-72.5 -53.5l-95 -49l-71 69q-30 30 -41 51t-11 46q0 36 22 63.5t73 54.5z" />
    <glyph glyph-name="quotedbl" unicode="&#x22;" horiz-adv-x="694" 
d="M496 856l-74 458q-1 8 -1.5 16.5t-0.5 23.5q0 51 25.5 79.5t70.5 28.5t70.5 -28t25.5 -78q0 -13 -3 -36q-1 -4 -1 -5l-73 -459h-39zM160 856l-74 459q-1 7 -1.5 15.5t-0.5 23.5q0 52 24.5 80t69.5 28q47 0 71.5 -27.5t24.5 -80.5q0 -16 -0.5 -24.5t-1.5 -15.5l-73 -458
h-39z" />
    <glyph glyph-name="numbersign" unicode="#" horiz-adv-x="1186" 
d="M516 819l-80 -244l248 -2l78 244zM571 1366h127l-141 -420h246l133 420h123l-139 -422l221 2l-41 -133l-223 4l-78 -242h225l-43 -131l-225 5l-140 -449h-124l149 449l-250 4l-135 -453h-129l149 453l-223 -2l45 129l219 -5l80 246l-217 -4l43 133l217 -2z" />
    <glyph glyph-name="dollar" unicode="$" horiz-adv-x="1190" 
d="M631 1196q-85 -6 -141 -55t-56 -115q0 -53 30 -91t109 -81zM618 580l-61 -369q92 13 149.5 69.5t57.5 131.5q0 51 -34.5 91t-111.5 77zM682 1542h109l-41 -229q121 -8 191.5 -47t70.5 -97q0 -22 -12.5 -44.5t-32.5 -39.5l-54 -41q-42 64 -89.5 101.5t-95.5 46.5l-64 -379
q169 -82 230.5 -154t61.5 -178q0 -132 -118.5 -244.5t-294.5 -138.5l-33 -225h-109l39 223q-146 2 -235.5 49t-89.5 119q0 23 9.5 39.5t43.5 42.5l59 45q45 -78 101.5 -121.5t132.5 -58.5l67 412q-157 67 -220.5 140.5t-63.5 180.5q0 134 113 238.5t292 130.5z" />
    <glyph glyph-name="percent" unicode="%" horiz-adv-x="1747" 
d="M1249 84q80 0 140.5 123.5t60.5 298.5q0 90 -28 134t-87 44q-81 0 -141.5 -121t-60.5 -289q0 -94 29 -142t87 -48zM1214 -16q-127 0 -198.5 78.5t-71.5 218.5q0 202 130 351.5t300 149.5q121 0 191.5 -79.5t70.5 -215.5q0 -203 -126 -353t-296 -150zM422 707
q84 0 144.5 124.5t60.5 305.5q0 83 -29 125.5t-86 42.5q-81 0 -143 -121t-62 -287q0 -93 29.5 -141.5t85.5 -48.5zM299 18l985 1307q-77 -55 -160 -85t-159 -30q-41 0 -84.5 9.5t-92.5 27.5q13 -25 19 -58t6 -77q0 -199 -130 -351.5t-304 -152.5q-123 0 -191.5 76t-68.5 211
q0 208 131.5 358t316.5 150q39 0 173.5 -46t242.5 -46q83 0 173 26.5t185 79.5l107 -51l-1045 -1395z" />
    <glyph glyph-name="ampersand" unicode="&#x26;" horiz-adv-x="1569" 
d="M1161 541q11 -24 16 -48t5 -51q0 -187 -188.5 -336t-438.5 -149q-219 0 -364.5 126.5t-145.5 315.5q0 177 122 288t355 144q-99 22 -155 86t-56 158q0 140 127 237t314 97q128 0 215.5 -55t87.5 -129q0 -31 -18.5 -52.5t-57.5 -35.5l-59 -21q-29 87 -76.5 129.5
t-114.5 42.5q-84 0 -138 -55t-54 -139q0 -82 49.5 -138t140.5 -77l-18 -86q-184 -17 -290 -112.5t-106 -244.5q0 -142 95 -234.5t243 -92.5q158 0 263.5 93.5t105.5 229.5q0 29 -6 55.5t-19 53.5q-5 0 -15 1q-54 3 -71 3q-121 0 -174 -23.5t-53 -75.5q0 -25 13.5 -47
t41.5 -43l-30 -37q-9 -10 -23.5 -16t-30.5 -6q-41 0 -67.5 33.5t-26.5 87.5q0 121 118.5 202t326.5 99q52 4 148 9q298 14 298 140q0 51 -36.5 81t-100.5 30q-12 0 -47 -3q-11 -1 -17 -1q0 3 -3 21t-3 28q0 47 32 73.5t89 26.5q87 0 145 -65t58 -166q0 -151 -105.5 -252.5
t-265.5 -101.5q-5 0 -16.5 1t-18.5 1z" />
    <glyph glyph-name="quotesingle" unicode="'" horiz-adv-x="358" 
d="M160 856l-74 459q-1 7 -1.5 15.5t-0.5 23.5q0 52 24.5 80t69.5 28q47 0 71.5 -27.5t24.5 -80.5q0 -16 -0.5 -24.5t-1.5 -15.5l-73 -458h-39z" />
    <glyph glyph-name="parenleft" unicode="(" horiz-adv-x="825" 
d="M905 1567l62 -86q-263 -181 -404 -443t-141 -571q0 -210 65.5 -406t198.5 -383l-88 -65q-204 206 -301.5 416.5t-97.5 443.5q0 335 184 621t522 473z" />
    <glyph glyph-name="parenright" unicode=")" horiz-adv-x="825" 
d="M190 1565q205 -207 303.5 -417.5t98.5 -442.5q0 -335 -184 -620t-523 -472l-63 86q262 179 404.5 443.5t142.5 570.5q0 207 -66.5 404t-200.5 384z" />
    <glyph glyph-name="asterisk" unicode="*" horiz-adv-x="948" 
d="M604 1427l86 -55q-54 -104 -77 -153t-23 -62q0 -7 3.5 -12.5t8.5 -5.5q26 0 122 93q48 45 77 73l88 -58l-19 -108q-25 -6 -69 -15q-172 -36 -172 -65q0 -25 137 -56q49 -11 78 -18l-23 -108l-106 -58q-22 30 -56 78q-62 88 -84 88q-9 0 -14.5 -9.5t-5.5 -27.5
q0 -23 6 -66.5t21 -129.5l-107 -56l-84 56q49 95 73.5 148.5t24.5 66.5q0 8 -4.5 13t-11.5 5q-20 0 -123 -99q-43 -42 -69 -67l-91 58l21 108q21 5 57 12q183 39 183 68q0 24 -135 55q-50 12 -78 19l18 108l109 58q16 -24 44 -64q70 -102 93 -102q10 0 16 10t6 27
q0 20 -6 71t-18 127z" />
    <glyph glyph-name="plus" unicode="+" horiz-adv-x="1706" 
d="M938 1221v-527h514v-166h-514v-528h-170v528h-514v166h514v527h170z" />
    <glyph glyph-name="comma" unicode="," horiz-adv-x="596" 
d="M250 350l65 -63q36 -34 51 -66t15 -71q0 -94 -95 -206.5t-253 -201.5l-66 70q103 70 141.5 116t38.5 92q0 34 -39.5 88.5t-39.5 81.5q0 33 17 57t60 48z" />
    <glyph glyph-name="hyphen" unicode="-" horiz-adv-x="668" 
d="M7 391q3 11 11 33q37 103 54 158q6 -1 19 -1q151 -3 220 -3q51 0 108.5 0.5t174.5 2.5q-19 -52 -34.5 -99.5t-27.5 -92.5q-103 3 -168 4.5t-85 1.5q-49 0 -106.5 -0.5t-165.5 -3.5z" />
    <glyph glyph-name="period" unicode="." horiz-adv-x="596" 
d="M254 350l70 -69q29 -28 42 -52.5t13 -52.5q0 -38 -22 -64.5t-76 -54.5l-95 -57l-71 78q-35 34 -45.5 55t-10.5 45q0 38 23 67t72 54z" />
    <glyph glyph-name="slash" unicode="/" horiz-adv-x="748" 
d="M680 1382l106 -53q-179 -326 -376.5 -703t-419.5 -816l-111 49q188 347 455 860.5t346 662.5z" />
    <glyph glyph-name="zero" unicode="0" horiz-adv-x="1190" 
d="M682 1294q-78 0 -140.5 -64.5t-115.5 -199.5q-50 -129 -78.5 -282.5t-28.5 -298.5q0 -172 47.5 -259.5t139.5 -87.5q68 0 126 51.5t105 153.5q59 127 96 307t37 338q0 171 -47 256.5t-141 85.5zM733 1423q186 0 291.5 -132t105.5 -365q0 -187 -56.5 -369.5t-158.5 -318.5
q-99 -133 -214.5 -201t-243.5 -68q-185 0 -291.5 133t-106.5 367q0 186 57.5 366t159.5 320q95 130 213.5 199t243.5 69z" />
    <glyph glyph-name="one" unicode="1" horiz-adv-x="1190" 
d="M178 90q10 0 29.5 -1t27.5 -1q66 0 97 16.5t48 59.5q15 34 32.5 110.5t53.5 278.5l33 182q60 330 86 496h-43q-45 0 -100 -2.5t-121 -7.5l-4 94q141 9 276 29.5t265 52.5q-43 -212 -74 -370.5t-49 -262.5l-37 -217l-10 -57q-43 -259 -43 -295q0 -65 32 -87t129 -22h21
l-17 -86q-98 7 -178 10.5t-137 3.5q-47 0 -116 -2.5t-222 -11.5z" />
    <glyph glyph-name="two" unicode="2" horiz-adv-x="1190" 
d="M418 301l-107 -84h396q129 0 169 32.5t64 125.5l88 -23q-31 -94 -53 -181.5t-35 -170.5q-130 7 -248 10.5t-223 3.5q-173 0 -275 -3.5t-180 -12.5l-39 106q401 292 592 519t191 411q0 107 -59.5 174.5t-151.5 67.5q-82 0 -141 -54t-93 -159l-59 27q-37 16 -53.5 38.5
t-16.5 57.5q0 94 107 159.5t268 65.5q201 0 325 -106.5t124 -278.5q0 -261 -548 -691z" />
    <glyph glyph-name="three" unicode="3" horiz-adv-x="1190" 
d="M643 748q158 -6 244 -81.5t86 -205.5q0 -195 -183.5 -340.5t-437.5 -145.5q-149 0 -248.5 52.5t-99.5 126.5q0 20 13.5 41t39.5 41l78 61q62 -94 133 -141t152 -47q119 0 203 91.5t84 221.5q0 120 -73.5 186t-209.5 66q-8 0 -39.5 -2t-48.5 -2l21 100q175 3 285 88.5
t110 216.5q0 95 -56.5 156t-142.5 61q-80 0 -135.5 -50.5t-87.5 -151.5l-58 26q-33 15 -49 39.5t-16 58.5q0 82 112 144.5t275 62.5q187 0 300.5 -86t113.5 -227q0 -122 -93.5 -214t-271.5 -146z" />
    <glyph glyph-name="four" unicode="4" horiz-adv-x="1190" 
d="M207 571h434l109 611zM377 100q11 -1 22 -1.5t31 -0.5q75 0 103.5 25t50.5 141l32 170h-325q-17 0 -69 -1.5t-142 -4.5l-47 131q44 40 87.5 84t90.5 96l362 404l18 20q127 141 181 219l236 33l-152 -844q111 0 164.5 0.5t99.5 1.5l-56 -145q-58 3 -116.5 4.5t-116.5 1.5
l-26 -177q-2 -13 -4 -31q-4 -30 -4 -38q0 -53 28 -71.5t127 -18.5l-15 -86l-21 2q-196 13 -248 13q-50 0 -118 -3t-192 -12z" />
    <glyph glyph-name="five" unicode="5" horiz-adv-x="1190" 
d="M1087 1380l-73 -217q-91 -12 -184.5 -18t-204.5 -6q-16 0 -76.5 1.5t-97.5 2.5l-105 -373q86 45 159.5 66.5t143.5 21.5q162 0 261.5 -93t99.5 -245q0 -219 -186.5 -381t-446.5 -162q-139 0 -226.5 47.5t-87.5 118.5q0 25 11 44t37 40l79 64q64 -96 126.5 -138t140.5 -42
q122 0 208.5 103t86.5 249q0 111 -58 176.5t-157 65.5q-52 0 -114 -19t-142 -59l-80 57l172 696q110 -10 199.5 -15t166.5 -5q72 0 156 5t192 15z" />
    <glyph glyph-name="six" unicode="6" horiz-adv-x="1190" 
d="M365 564q-6 -47 -8.5 -80t-2.5 -62q0 -155 53 -235.5t154 -80.5q108 0 178 104.5t70 264.5q0 108 -47.5 167.5t-132.5 59.5q-60 0 -126 -34.5t-138 -103.5zM1087 1157l-55 -45q-59 92 -117.5 130t-138.5 38q-147 0 -246.5 -149.5t-146.5 -440.5q98 90 185.5 133t172.5 43
q138 0 222 -90t84 -241q0 -222 -163 -392t-382 -170q-191 0 -296.5 126t-105.5 354q0 186 63.5 371t176.5 325q102 129 234.5 197.5t279.5 68.5q122 0 204.5 -49.5t82.5 -118.5q0 -25 -12 -45.5t-42 -44.5z" />
    <glyph glyph-name="seven" unicode="7" horiz-adv-x="1190" 
d="M166 0l772 1137q-73 4 -161 6t-197 2q-173 0 -226.5 -35.5t-74.5 -138.5l-95 18q28 95 48 192t32 197q148 -8 240 -11t162 -3q99 0 220.5 3.5t299.5 10.5l39 -92q-199 -260 -399 -582.5t-398 -703.5h-262z" />
    <glyph glyph-name="eight" unicode="8" horiz-adv-x="1190" 
d="M680 817q112 62 163.5 128.5t51.5 146.5q0 91 -61 148.5t-160 57.5q-90 0 -154.5 -58.5t-64.5 -139.5q0 -64 48 -126.5t177 -156.5zM522 635q-124 -67 -185 -142t-61 -161q0 -97 69.5 -163.5t172.5 -66.5q108 0 182 67.5t74 162.5q0 71 -53.5 137.5t-198.5 165.5z
M770 754q127 -84 183.5 -166t56.5 -182q0 -168 -162 -301.5t-377 -133.5q-178 0 -294 96.5t-116 241.5q0 122 90.5 215t284.5 172q-108 80 -157.5 159.5t-49.5 172.5q0 163 140.5 278t343.5 115q170 0 278.5 -86t108.5 -219q0 -105 -81.5 -194t-248.5 -168z" />
    <glyph glyph-name="nine" unicode="9" horiz-adv-x="1190" 
d="M825 831q6 55 8.5 87.5t2.5 54.5q0 152 -50.5 232.5t-146.5 80.5q-116 0 -187 -101.5t-71 -266.5q0 -108 47 -167t133 -59q60 0 127 35.5t137 103.5zM98 244l70 55q54 -95 115.5 -140.5t134.5 -45.5q143 0 242.5 151t146.5 438q-101 -91 -187 -132.5t-171 -41.5
q-138 0 -222 88t-84 234q0 233 160 401t383 168q192 0 296.5 -125t104.5 -356q0 -180 -65.5 -369t-177.5 -329q-100 -126 -230.5 -193t-275.5 -67q-124 0 -210.5 51.5t-86.5 120.5q0 25 12.5 46t44.5 46z" />
    <glyph glyph-name="colon" unicode=":" horiz-adv-x="600" 
d="M242 303l71 -70q30 -27 43 -51.5t13 -52.5q0 -37 -22.5 -64t-78.5 -55l-92 -49l-74 72q-36 36 -45.5 55.5t-9.5 42.5q0 37 22.5 66.5t71.5 54.5zM354 944l76 -74q28 -28 39.5 -51t11.5 -49q0 -37 -22 -64.5t-74 -54.5l-96 -49l-76 72q-26 24 -37.5 47t-11.5 49
q0 38 21.5 66.5t66.5 52.5z" />
    <glyph glyph-name="semicolon" unicode=";" horiz-adv-x="600" 
d="M227 303l66 -63q35 -34 50 -66t15 -72q0 -93 -94.5 -205.5t-253.5 -201.5l-63 69q103 71 141.5 117t38.5 92q0 34 -40 88.5t-40 81.5q0 33 17 56.5t61 48.5zM340 944l76 -74q29 -27 41 -50t12 -50q0 -38 -22 -66t-74 -53l-99 -49l-75 72q-26 24 -37.5 47t-11.5 49
q0 38 20 65.5t68 53.5z" />
    <glyph glyph-name="less" unicode="&#x3c;" horiz-adv-x="1706" 
d="M1442 991l-934 -381l934 -381v-182l-1178 483v160l1178 486v-185z" />
    <glyph glyph-name="equal" unicode="=" horiz-adv-x="1706" 
d="M1452 487v-165h-1198v165h1198zM1452 901v-168h-1198v168h1198z" />
    <glyph glyph-name="greater" unicode="&#x3e;" horiz-adv-x="1706" 
d="M1442 690v-160l-1178 -483v182l934 381l-934 381v185z" />
    <glyph glyph-name="question" unicode="?" horiz-adv-x="893" 
d="M326 408l-111 -27q22 108 35.5 191t19.5 155q214 88 308 170t94 178q0 81 -53.5 133t-137.5 52q-53 0 -107.5 -35t-113.5 -107l-55 51q-22 21 -32.5 40t-10.5 38q0 66 76 113t188 47q174 0 296 -120.5t122 -291.5q0 -109 -67.5 -197t-207.5 -159q-19 -10 -56 -28
q-187 -92 -187 -195v-8zM254 281l70 -68q29 -28 42 -52t13 -50q0 -36 -22 -63t-72 -52l-95 -49l-71 69q-32 32 -41.5 52t-9.5 45q0 36 21.5 63.5t72.5 54.5z" />
    <glyph glyph-name="at" unicode="@" horiz-adv-x="2048" 
d="M1143 446q17 74 37 165.5t43 199.5q-29 21 -58 32t-57 11q-102 0 -186 -149t-84 -332q0 -58 13 -83.5t42 -25.5q27 0 75.5 34t174.5 148zM1128 335q-19 -17 -55 -49q-207 -188 -293 -188q-72 0 -112.5 61.5t-40.5 172.5q0 106 37.5 212t107.5 197q82 106 179.5 163
t197.5 57q38 0 73.5 -9.5t69.5 -27.5l150 55q-64 -268 -96.5 -432.5t-32.5 -222.5q0 -46 18.5 -69.5t54.5 -23.5q97 0 190 155.5t93 342.5q0 216 -137 344.5t-365 128.5q-147 0 -283 -56t-247 -163q-127 -120 -196.5 -281.5t-69.5 -332.5q0 -264 169 -428t441 -164
q215 0 403 100t353 301l43 -69q-179 -231 -392 -347t-458 -116q-330 0 -541 196.5t-211 503.5q0 189 83.5 370t234.5 318q145 131 325.5 201t374.5 70q286 0 467.5 -155t181.5 -394q0 -143 -72 -279.5t-210 -253.5q-82 -69 -152.5 -103t-132.5 -34q-69 0 -110.5 51.5
t-41.5 138.5q0 21 0.5 34t1.5 25z" />
    <glyph glyph-name="A" unicode="A" horiz-adv-x="1513" 
d="M504 608h119q118 0 176 0.5t108 2.5l-84 550zM-92 84q16 -3 22.5 -3.5t12.5 -0.5q101 0 242 238q37 63 59 98l274 450q107 176 186 314t113 209h221q8 -83 20.5 -170t37.5 -226l98 -569q5 -28 13 -77q43 -265 141 -265q12 0 18.5 0.5t11.5 1.5l-12 -84q-93 6 -163 9
t-116 3q-53 0 -125.5 -3t-166.5 -9l14 84h27q77 0 105 22.5t28 83.5q0 13 -1 24t-3 24l-39 258q-64 1 -147 2.5t-97 1.5q-64 0 -122 -0.5t-122 -2.5l-123 -223q-24 -44 -35.5 -74.5t-11.5 -52.5q0 -30 28 -46.5t79 -16.5h22l-14 -84q-81 6 -142.5 9t-103.5 3q-41 0 -101 -3
t-142 -9z" />
    <glyph glyph-name="B" unicode="B" horiz-adv-x="1311" 
d="M498 769q43 -4 66 -4.5t46 -0.5q168 0 257 70.5t89 201.5q0 104 -62 157.5t-181 53.5q-23 0 -55 -1.5t-72 -4.5q-21 -105 -42.5 -220t-45.5 -252zM395 141q47 -11 87 -16.5t79 -5.5q170 0 263.5 78.5t93.5 220.5q0 122 -81 177.5t-259 55.5h-99q-19 -100 -39 -220
t-45 -290zM858 721q157 -15 242.5 -90.5t85.5 -198.5q0 -189 -173.5 -310.5t-453.5 -121.5q-56 0 -180.5 6t-192.5 6q-38 0 -96.5 -3t-134.5 -9l17 84q6 -1 14.5 -1.5t23.5 -0.5q73 0 107 50.5t73 281.5l109 630q12 72 16 105.5t4 52.5q0 40 -28 59t-88 19h-19l15 90
q57 -6 116.5 -9t128.5 -3q52 0 170.5 6t184.5 6q194 0 301.5 -82.5t107.5 -230.5q0 -121 -93.5 -211.5t-256.5 -124.5z" />
    <glyph glyph-name="C" unicode="C" horiz-adv-x="1391" 
d="M1167 88q-132 -67 -246 -99t-225 -32q-277 0 -446.5 168.5t-169.5 443.5q0 168 68.5 327t191.5 278q118 113 269.5 173t322.5 60q113 0 217 -25t211 -77q-26 -88 -43.5 -174t-28.5 -170l-90 12q3 25 4.5 41.5t1.5 23.5q0 106 -85 162.5t-242 56.5q-234 0 -372 -180
t-138 -485q0 -227 103.5 -355t287.5 -128q143 0 243.5 71.5t139.5 200.5l86 -19q-22 -76 -36.5 -143.5t-23.5 -130.5z" />
    <glyph glyph-name="D" unicode="D" horiz-adv-x="1569" 
d="M404 145q69 -11 111.5 -15.5t74.5 -4.5q154 0 254.5 33t173.5 106q83 85 131.5 225t48.5 297q0 222 -115 335.5t-340 113.5q-39 0 -132 -7q-16 -1 -23 -1q-57 -294 -103 -564t-81 -518zM-29 83q7 0 14.5 -0.5t20.5 -0.5q74 0 109.5 54t74.5 288l105 620q12 68 16 103
t4 55q0 39 -27.5 57.5t-86.5 18.5h-21l15 86q87 -6 141 -8t94 -2q94 0 216 5t149 5q336 0 512 -143t176 -416q0 -164 -63.5 -316t-178.5 -264q-115 -113 -271 -169t-356 -56q-47 0 -189.5 6t-236.5 6q-17 0 -72.5 -3t-160.5 -9z" />
    <glyph glyph-name="E" unicode="E" horiz-adv-x="1253" 
d="M-28 84q6 -1 14.5 -1.5t23.5 -0.5q73 0 107 50.5t73 281.5l107 630q12 68 16 103t4 55q0 40 -29 59t-89 19h-19l15 86q77 -5 170 -7.5t286 -2.5q175 0 310.5 2.5t275.5 7.5q-19 -80 -32 -158t-19 -155l-90 -4q1 9 1.5 18t0.5 25q0 84 -52.5 116.5t-193.5 32.5h-270
q-10 -55 -39 -216t-45 -255q57 -2 114.5 -3t145.5 -1q130 0 166.5 26.5t50.5 102.5l84 -12q-27 -94 -43.5 -187.5t-22.5 -185.5l-83 -2q0 13 0.5 25.5t0.5 25.5q0 56 -37.5 75t-187.5 19h-88h-63h-56q-22 -124 -43.5 -252.5t-42.5 -261.5q69 -6 145 -9t177 -3
q177 0 237 44.5t95 180.5l90 -14q-25 -89 -42.5 -173t-29.5 -165q-155 6 -304 9t-290 3q-114 0 -242.5 -3t-273.5 -9z" />
    <glyph glyph-name="F" unicode="F" horiz-adv-x="1153" 
d="M-31 83q6 0 14 -0.5t21 -0.5q126 0 183 338l1 8l105 619q13 80 16.5 108.5t3.5 46.5q0 41 -29 59.5t-94 18.5h-10l17 86q147 -5 254.5 -7.5t191.5 -2.5q114 0 252 2.5t317 7.5q-21 -82 -35 -162t-20 -160l-90 -4q1 17 1.5 31t0.5 27q0 81 -45.5 109t-263.5 28
q-8 0 -67.5 -1.5t-108.5 -2.5q-15 -79 -44 -243.5t-44 -248.5q19 0 58 -1q135 -3 187 -3q104 0 138 25.5t51 103.5l88 -12q-28 -98 -45 -193t-23 -190l-87 -2q0 10 0.5 22t0.5 35q0 58 -39.5 79.5t-167.5 21.5q-21 0 -82.5 -1t-101.5 -1l-53 -309q-7 -38 -10.5 -68t-3.5 -49
q0 -63 29.5 -88t107.5 -25h32l-12 -84q-93 7 -169 10.5t-132 3.5q-43 0 -109 -3t-198 -11z" />
    <glyph glyph-name="G" unicode="G" horiz-adv-x="1497" 
d="M1227 57q-153 -49 -282 -74.5t-226 -25.5q-299 0 -467 162t-168 448q0 189 80.5 359t226.5 291q114 94 258.5 142t311.5 48q111 0 220.5 -23.5t225.5 -72.5q-25 -88 -42.5 -170t-27.5 -158l-94 13q3 25 4.5 40.5t1.5 20.5q0 99 -90 152t-260 53q-246 0 -388 -182.5
t-142 -495.5q0 -235 111 -360.5t319 -125.5q52 0 99 9t91 26q25 136 37 215.5t12 108.5q0 46 -27 65t-98 19h-28l18 88q78 -4 146.5 -6t121.5 -2q67 0 227 6q25 1 38 2l-15 -88q-14 2 -22 3t-13 1q-94 0 -133 -300q-15 -117 -26 -188z" />
    <glyph glyph-name="H" unicode="H" horiz-adv-x="1595" 
d="M-26 84q6 -1 13.5 -1.5t20.5 -0.5q126 0 181 327l4 20l106 618q12 71 16 103.5t4 51.5q0 40 -28 59t-88 19h-19l15 86q127 -9 180.5 -11.5t89.5 -2.5q48 0 113 3t176 11l-13 -86h-26q-73 0 -106.5 -33.5t-55.5 -154.5l-57 -322q75 -3 145 -4.5t135 -1.5q67 0 154.5 1.5
t197.5 4.5l46 275q11 64 15.5 99.5t4.5 57.5q0 41 -29 59.5t-94 18.5h-10l14 86l9 -1q196 -13 255 -13q49 0 112 3t177 11l-14 -86h-16q-57 0 -87.5 -14.5t-46.5 -46.5q-12 -26 -33 -132t-67 -370l-14 -78q-37 -216 -53.5 -323.5t-16.5 -135.5q0 -52 24 -73t85 -21h30
l-14 -86q-87 7 -161.5 10.5t-131.5 3.5q-50 0 -122 -3.5t-158 -10.5l16 84q7 -1 16 -1.5t25 -0.5q117 0 157 226l3 16l55 315q-59 2 -123.5 3t-181.5 1q-125 0 -195 -1t-133 -3l-61 -354q-5 -30 -7.5 -55.5t-3.5 -45.5q0 -54 25.5 -77t85.5 -23q14 0 21 0.5t14 1.5l-14 -84
q-92 6 -167 9t-130 3q-43 0 -115.5 -3.5t-165.5 -10.5z" />
    <glyph glyph-name="I" unicode="I" horiz-adv-x="748" 
d="M-27 88q2 0 7 -1q30 -3 43 -3q117 0 166 286q5 29 8 44l112 633q10 53 15.5 92.5t5.5 62.5q0 41 -30 59.5t-97 18.5h-23l15 86q88 -6 156.5 -9t115.5 -3q84 0 160 2.5t149 7.5l-18 -84q-7 0 -17.5 1t-15.5 1q-70 0 -100.5 -34.5t-57.5 -180.5l-108 -596
q-22 -119 -30.5 -182.5t-8.5 -95.5q0 -62 27.5 -83.5t107.5 -21.5h14l-16 -88q-140 9 -200.5 11.5t-102.5 2.5q-60 0 -273 -13l-20 -1z" />
    <glyph glyph-name="J" unicode="J" horiz-adv-x="748" 
d="M-279 -324q198 4 292.5 110.5t150.5 428.5l145 832q13 75 17 106t4 49q0 42 -29 60t-96 18h-23l15 86q79 -6 149 -9t121 -3q84 0 160 2.5t149 6.5l-16 -83q-7 0 -18.5 1t-16.5 1q-60 0 -89 -24.5t-48 -94.5q-32 -107 -79 -421.5t-83 -497.5q-72 -366 -219 -509t-445 -157
z" />
    <glyph glyph-name="K" unicode="K" horiz-adv-x="1421" 
d="M487 680l476 422q64 57 86 84.5t22 48.5q0 24 -25.5 34.5t-87.5 10.5l19 86q84 -6 147 -9t105 -3q77 0 144.5 2.5t133.5 7.5l-18 -84h-23q-97 0 -215 -99q-11 -10 -18 -16l-496 -415l367 -531q56 -82 97 -106.5t106 -24.5h30l-16 -88q-88 6 -131.5 8t-69.5 2
q-30 0 -76 -2t-140 -8q-2 34 -15.5 68.5t-52.5 93.5zM-29 84q2 0 7 -1q25 -3 36 -3q119 0 167 280q6 35 9 53l111 634q13 75 17 106t4 49q0 40 -28.5 59t-88.5 19h-19l15 86q86 -6 155.5 -9t124.5 -3q63 0 135 2.5t149 7.5l-17 -84q-7 0 -17.5 1t-15.5 1q-70 0 -100.5 -34.5
t-57.5 -180.5l-108 -596q-22 -119 -30.5 -182.5t-8.5 -95.5q0 -63 28 -84t117 -21l-16 -88q-131 8 -195 11t-106 3q-54 0 -258 -12l-25 -2z" />
    <glyph glyph-name="L" unicode="L" horiz-adv-x="1145" 
d="M-36 84q6 -1 15 -1.5t27 -0.5q73 0 107 50.5t73 281.5l107 633q12 75 16 106t4 49q0 41 -27 59.5t-87 18.5h-21l15 86q87 -6 158 -9t126 -3q49 0 194 7q58 3 91 5l-14 -86h-21q-68 0 -100 -23t-47 -83q-25 -99 -75 -385.5t-103 -643.5q54 -5 115.5 -7.5t141.5 -2.5
q154 0 218.5 48.5t91.5 178.5l94 -14q-24 -84 -43 -170.5t-33 -177.5q-218 8 -350.5 11t-235.5 3q-80 0 -184 -3t-270 -11z" />
    <glyph glyph-name="M" unicode="M" horiz-adv-x="1843" 
d="M-59 84q4 0 13.5 -1t14.5 -1q70 0 103.5 36t66.5 177l189 797q7 29 10.5 53.5t3.5 40.5q0 55 -26 74.5t-99 19.5h-14l16 86q64 -4 122.5 -6t109.5 -2q55 0 113.5 2t119.5 6q-1 -2 -1.5 -6t-0.5 -14q0 -69 49 -307t148 -648q64 112 176 307q340 592 350 668
q93 -6 146.5 -8t86.5 -2q32 0 82 2t148 8l-15 -86q-6 0 -18 1t-16 1q-72 0 -101 -31.5t-45 -163.5l-100 -788q-4 -31 -6 -57t-2 -41q0 -67 26 -92t95 -25h10l-17 -84q-74 6 -144.5 9t-135.5 3q-48 0 -120 -3t-171 -9l18 84q6 0 14.5 -1t12.5 -1q141 0 186 304l2 19l111 760
l-516 -901q-3 -5 -8 -14q-78 -135 -121 -250h-111q-11 134 -50 304l-3 11l-184 801l-176 -823q-9 -42 -13 -66.5t-4 -38.5q0 -55 28 -79.5t91 -24.5h25l-15 -84q-75 6 -137.5 9t-107.5 3q-39 0 -94 -3t-128 -9z" />
    <glyph glyph-name="N" unicode="N" horiz-adv-x="1540" 
d="M-65 90q7 -1 15 -1.5t23 -0.5q78 0 115.5 50t75.5 255l125 654q9 48 13.5 88t4.5 67q0 42 -29.5 61t-95.5 19q-5 0 -16.5 -1t-18.5 -1l15 86q58 -3 107 -4.5t89 -1.5q51 0 105 1.5t114 4.5q5 -38 30.5 -95.5t78.5 -146.5l465 -784l106 664q11 62 17 112t6 76
q0 44 -29.5 64t-95.5 20h-20l16 92q64 -4 120.5 -6t104.5 -2q55 0 114.5 1.5t125.5 4.5l-13 -90q-8 1 -17 1.5t-25 0.5q-63 0 -91 -31t-53 -166q-107 -548 -142.5 -765t-35.5 -302v-22h-192q-39 94 -108 206l-9 15l-512 864l-123 -753q-9 -54 -13.5 -90.5t-5.5 -57.5
q0 -51 23 -70.5t82 -19.5q16 0 25 0.5t18 1.5l-11 -92q-78 7 -143 10.5t-110 3.5q-55 0 -115.5 -2.5t-123.5 -7.5z" />
    <glyph glyph-name="O" unicode="O" horiz-adv-x="1567" 
d="M866 1270q-231 0 -367.5 -201t-136.5 -543q0 -207 88.5 -315.5t256.5 -108.5q228 0 363.5 207t135.5 555q0 200 -86 303t-254 103zM78 530q0 179 70 348t196 296q112 112 261 172.5t313 60.5q266 0 417.5 -152.5t151.5 -420.5q0 -177 -68.5 -347t-189.5 -294
q-112 -115 -260.5 -175.5t-319.5 -60.5q-267 0 -419 153t-152 420z" />
    <glyph glyph-name="P" unicode="P" horiz-adv-x="1257" 
d="M479 662q16 -2 42 -4q58 -5 77 -5q178 0 280.5 92.5t102.5 251.5q0 118 -72.5 182t-203.5 64q-45 0 -71.5 -1t-49.5 -3q-13 -72 -39 -216.5t-66 -360.5zM461 553l-39 -233q-7 -44 -10.5 -77.5t-3.5 -52.5q0 -59 27.5 -81.5t101.5 -22.5h36l-12 -86q-96 7 -176 10.5
t-141 3.5q-35 0 -91 -2.5t-198 -11.5l12 83q6 0 14 -0.5t23 -0.5q128 0 183 327l4 20l106 620q10 54 15 94t5 61q0 41 -28.5 59.5t-89.5 18.5h-21l15 86h4q176 -10 219 -10q73 0 192.5 5t163.5 5q230 0 350.5 -90.5t120.5 -263.5q0 -216 -172.5 -342.5t-474.5 -126.5
q-26 0 -60.5 2t-74.5 6z" />
    <glyph glyph-name="Q" unicode="Q" horiz-adv-x="1567" 
d="M864 1270q-231 0 -366.5 -200.5t-135.5 -543.5q0 -207 88.5 -315.5t256.5 -108.5q228 0 363.5 207t135.5 555q0 199 -87 302.5t-255 103.5zM662 -27q-9 0 -24 -1t-22 -1q-247 0 -392.5 151.5t-145.5 407.5q0 180 70 349.5t196 294.5q114 112 263 172.5t313 60.5
q264 0 415.5 -153t151.5 -420q0 -285 -148 -505t-399 -309l98 -98q100 -100 195 -150.5t184 -50.5q35 0 77 7.5t97 23.5l23 -84q-108 -45 -204.5 -67.5t-180.5 -22.5q-133 0 -241.5 64.5t-244.5 230.5z" />
    <glyph glyph-name="R" unicode="R" horiz-adv-x="1438" 
d="M484 680q10 -1 22 -1.5t35 -0.5q199 0 308 85.5t109 242.5q0 116 -69 176.5t-203 60.5q-12 0 -56 -2q-29 -1 -48 -2q-30 -158 -78 -438q-14 -82 -20 -121zM-28 84q6 -1 14.5 -1.5t23.5 -0.5q121 0 172 299q4 23 6 35l103 579q13 76 19.5 130t6.5 79q0 40 -28.5 58
t-93.5 18h-23l14 90q78 -6 135 -9t95 -3q76 0 195 6t163 6q209 0 324.5 -88.5t115.5 -247.5q0 -131 -88.5 -239t-244.5 -164l129 -254q8 -17 24 -48q127 -255 273 -255q13 0 21.5 0.5t14.5 1.5l-18 -88q-35 -6 -71.5 -9.5t-73.5 -3.5q-101 0 -171 28.5t-120 88.5
q-56 67 -155 295q-54 124 -87 195q-30 -3 -59.5 -4.5t-59.5 -2.5q-10 0 -31.5 1.5t-31.5 1.5l-39 -246q-9 -51 -13.5 -92.5t-4.5 -61.5q0 -51 26.5 -73.5t87.5 -22.5h25l-12 -84q-102 6 -177 9t-120 3q-41 0 -103 -2t-180 -8z" />
    <glyph glyph-name="S" unicode="S" horiz-adv-x="1200" 
d="M1102 1319q-23 -81 -37.5 -158t-22.5 -153l-87 8q2 22 3.5 40.5t2.5 33.5q0 82 -74.5 132t-196.5 50q-115 0 -181.5 -54.5t-66.5 -146.5q0 -75 46.5 -129t211.5 -141q214 -114 274 -190t60 -183q0 -195 -170 -332t-420 -137q-95 0 -190 24.5t-193 73.5q22 88 34.5 171.5
t17.5 164.5l94 -6q0 -2 -1 -7q-3 -37 -3 -54q0 -103 87 -166.5t226 -63.5q123 0 203 67t80 167q0 131 -244 256q-23 12 -35 18q-171 87 -242 171.5t-71 195.5q0 178 159.5 307t391.5 129q78 0 163 -21.5t181 -66.5z" />
    <glyph glyph-name="T" unicode="T" horiz-adv-x="1274" 
d="M227 84h49q119 0 174 319l5 25l139 801h-174q-111 0 -162 -45.5t-74 -165.5l-92 12q25 90 41.5 174t24.5 162q78 -8 145 -12t127 -4q45 0 87 1.5t84 4.5h306q27 0 83.5 -1t86.5 -1q78 0 138 3t116 9q-16 -77 -27 -161t-18 -175l-92 -6q1 10 1.5 23t0.5 45
q0 67 -41.5 98.5t-142.5 38.5h-162l-162 -969q-3 -16 -4.5 -33t-1.5 -37q0 -58 27 -82t94 -24h28l-16 -84q-147 9 -209 11.5t-104 2.5q-35 0 -90.5 -2.5t-202.5 -11.5z" />
    <glyph glyph-name="U" unicode="U" horiz-adv-x="1511" 
d="M180 1366h3q209 -14 263 -14q48 0 112.5 3t174.5 11l-16 -86q-7 0 -17.5 1t-15.5 1q-118 0 -158 -246q-9 -53 -14 -81l-53 -306q-15 -79 -22 -139t-7 -113q0 -122 90 -200t234 -78q89 0 164.5 32.5t121.5 92.5q40 49 66.5 138.5t56.5 297.5l29 209q19 135 27 198.5
t8 81.5q0 61 -28 86t-95 25h-19l17 86q22 -1 64 -4q123 -8 167 -8q48 0 108 3t132 9l-12 -86h-21q-60 0 -86.5 -14t-42.5 -52q-25 -60 -64 -320q-30 -207 -53 -335q-28 -168 -64 -257t-95 -155q-83 -92 -204.5 -141t-266.5 -49q-234 0 -367 114t-133 312q0 76 52 343
q18 92 28 142q25 131 38 216t13 116q0 42 -28.5 61t-92.5 19h-10z" />
    <glyph glyph-name="V" unicode="V" horiz-adv-x="1466" 
d="M449 -37q-4 53 -9 99t-12 87l-149 957q-1 4 -2 11q-26 163 -134 163h-28l12 86q77 -5 149.5 -7.5t139.5 -2.5q56 0 126 2t148 6l-12 -86h-25q-70 0 -99.5 -20.5t-29.5 -67.5q0 -16 1.5 -33t4.5 -36l125 -873l498 913q9 17 13.5 30.5t4.5 22.5q0 35 -24.5 49.5t-85.5 14.5
h-17l15 88q92 -6 143.5 -8t87.5 -2q70 0 227 7q20 1 29 1l-15 -84q-4 1 -10.5 1.5t-19.5 0.5q-106 0 -265 -281q-55 -98 -89 -155q-215 -360 -361.5 -615t-146.5 -268h-14h-176z" />
    <glyph glyph-name="W" unicode="W" horiz-adv-x="2048" 
d="M420 -33q-11 137 -35 298q-3 22 -4 30l-105 745q-20 156 -51 197t-102 41h-21l15 88q78 -8 149.5 -12t136.5 -4q53 0 121 2t146 6l-13 -82q-7 1 -15 1.5t-24 0.5q-59 0 -85.5 -22.5t-26.5 -73.5q0 -15 0.5 -23.5t1.5 -16.5l117 -843l401 750l-16 104q-14 73 -41 98
t-86 25h-15l21 90q84 -6 147 -9t105 -3q60 0 130.5 3t151.5 9l-17 -92q-7 1 -15.5 1.5t-24.5 0.5q-63 0 -90 -22t-27 -72q0 -11 1.5 -27.5t4.5 -39.5l119 -816l395 811q21 44 28 66t7 38q0 32 -23 47t-73 15q-16 0 -24.5 -0.5t-15.5 -1.5l20 92q77 -6 135.5 -9t95.5 -3
q54 0 115.5 3t132.5 9l-19 -90h-20q-105 0 -195 -172q-13 -25 -20 -39l-397 -760q-7 -13 -24 -45q-86 -159 -144 -293h-170q-3 56 -9 112t-18 130l-94 637l-361 -662q-30 -54 -56 -108t-48 -109h-172z" />
    <glyph glyph-name="X" unicode="X" horiz-adv-x="1427" 
d="M985 1112q29 36 48.5 71t19.5 50q0 24 -15 35.5t-47 11.5q-1 0 -14.5 -1t-28.5 -1l17 88q66 -4 122 -6t91 -2q73 0 233 7l19 1l-15 -86q-4 0 -13 1t-11 1q-90 0 -201 -124l-7 -8l-356 -398l256 -531q43 -89 77 -113t93 -24h25l-16 -84q-101 6 -175 9t-122 3
q-46 0 -117 -3t-166 -9l15 84q7 -1 17 -1.5t27 -0.5q48 0 66 14t18 49q0 14 -6.5 35.5t-19.5 48.5l-154 330l-280 -334q-25 -29 -38.5 -53.5t-13.5 -40.5q0 -26 15 -37.5t49 -11.5h49l-12 -84q-109 6 -165.5 8t-92.5 2q-52 0 -113 -2t-129 -6l16 82q5 0 14 -1t15 -1
q91 0 214 133l13 14l402 445l-205 446q-48 107 -79 133.5t-85 26.5q-5 0 -15 -1t-16 -1l17 88q74 -5 141.5 -7.5t126.5 -2.5q63 0 132.5 2.5t143.5 7.5l-14 -86h-20q-43 0 -65.5 -10.5t-22.5 -30.5q0 -40 29 -105l1 -3l117 -267z" />
    <glyph glyph-name="Y" unicode="Y" horiz-adv-x="1298" 
d="M117 1366q96 -6 166.5 -9t117.5 -3q48 0 118.5 3t162.5 9l-14 -84h-23q-62 0 -90.5 -17.5t-28.5 -56.5q0 -14 4 -30.5t13 -38.5l155 -447l320 451q14 21 23.5 45t9.5 39q0 28 -21.5 42.5t-62.5 14.5q-4 0 -12.5 -1t-12.5 -1l17 84q16 -1 50 -4q120 -8 162 -8q49 0 185 9
l51 3l-16 -86h-13q-48 0 -81 -18t-78 -78l-471 -619l-54 -327q-4 -22 -6 -40t-2 -26q0 -48 28 -69t91 -21q16 0 25 0.5t15 1.5l-14 -86q-127 9 -193.5 12.5t-102.5 3.5q-45 0 -110 -2.5t-202 -11.5l17 86q8 -1 17.5 -1.5t27.5 -0.5q74 0 105 29.5t48 126.5l54 319l-220 584
q-34 93 -62.5 117t-82.5 24q-4 0 -12.5 -1t-14.5 -1z" />
    <glyph glyph-name="Z" unicode="Z" horiz-adv-x="1360" 
d="M-8 84q48 36 117 112t217 261l620 774q-23 0 -84 1t-98 1h-62q-259 0 -332 -45.5t-100 -171.5l-96 22q26 88 45.5 171t32.5 163q41 -10 119 -14t252 -4h114q219 0 346 4t199 14l37 -86q-89 -82 -261 -304q-73 -94 -112 -142l-559 -701q62 -2 125.5 -3t159.5 -1h73
q226 0 295 50.5t101 189.5l94 -23q-29 -94 -50 -183t-34 -173q-199 8 -330 11t-235 3q-116 0 -249.5 -3.5t-307.5 -10.5z" />
    <glyph glyph-name="bracketleft" unicode="[" horiz-adv-x="797" 
d="M94 -365l324 1905q49 -4 114.5 -6t217.5 -2h178l-15 -94h-75q-57 0 -114 -6t-118 -19l-280 -1651q62 -10 114.5 -15t94.5 -5q8 0 40.5 1t55.5 1l-17 -92h-145q-74 0 -165.5 -4t-209.5 -13z" />
    <glyph glyph-name="backslash" unicode="\" horiz-adv-x="748" 
d="M260 1382q159 -721 229.5 -1032.5t118.5 -517.5l-116 -22q-82 393 -169.5 780t-181.5 768z" />
    <glyph glyph-name="bracketright" unicode="]" horiz-adv-x="797" 
d="M673 1540l-323 -1904q-118 6 -206.5 10t-125.5 4h-178l17 94h88q52 0 106 5.5t111 17.5l280 1652q-68 9 -125.5 14t-101.5 5q-17 0 -36.5 -0.5t-41.5 -1.5l17 94l145 2q177 0 249.5 2t124.5 6z" />
    <glyph glyph-name="asciicircum" unicode="^" horiz-adv-x="2048" 
d="M1130 1462l502 -565h-104l-506 397l-506 -397h-104l503 565h215z" />
    <glyph glyph-name="underscore" unicode="_" horiz-adv-x="1024" 
d="M1024 -311v-172h-1024v172h1024z" />
    <glyph glyph-name="grave" unicode="`" horiz-adv-x="1024" 
d="M580 1530l147 -418l-90 -27l-240 367z" />
    <glyph glyph-name="a" unicode="a" horiz-adv-x="1073" 
d="M692 801q-36 25 -68.5 36t-66.5 11q-114 0 -208.5 -168t-94.5 -383q0 -69 18 -104t54 -35q31 0 102.5 53.5t187.5 165.5q15 72 33 171.5t43 252.5zM950 991q-65 -333 -95 -516t-30 -250q0 -31 10.5 -47t30.5 -16q15 0 38.5 16t90.5 76l33 -80l-67 -63q-84 -78 -135 -110
t-91 -32q-64 0 -98.5 48.5t-34.5 138.5q0 16 1.5 40.5t4.5 54.5q-178 -167 -261.5 -221.5t-147.5 -54.5q-84 0 -132.5 73t-48.5 200t41 245t119 220q94 122 209.5 189t233.5 67q39 0 78 -8.5t81 -26.5z" />
    <glyph glyph-name="b" unicode="b" horiz-adv-x="1061" 
d="M311 189q32 -41 69.5 -62t78.5 -21q116 0 197 149t81 370q0 86 -23 130t-69 44q-36 0 -94 -37.5t-178 -143.5l-35 -217q-13 -91 -18.5 -135.5t-8.5 -76.5zM537 1561q-23 -114 -44.5 -230.5t-41.5 -234.5l-64 -355l107 99q90 82 145 111.5t111 29.5q104 0 166.5 -86
t62.5 -231q0 -121 -40.5 -237t-117.5 -214q-92 -118 -211 -181t-250 -63q-87 0 -164 40.5t-133 115.5l197 1145q5 29 7.5 53.5t2.5 38.5q0 33 -16 47t-55 14q-14 0 -47 -3q-6 0 -11 -1l-10 76q98 10 199.5 26.5t206.5 39.5z" />
    <glyph glyph-name="c" unicode="c" horiz-adv-x="829" 
d="M719 762l-64 -55q-54 67 -93 93.5t-79 26.5q-99 0 -160 -124.5t-61 -329.5q0 -108 35 -167t98 -59q42 0 105 41t147 121l45 -92q-128 -133 -223 -191.5t-180 -58.5q-119 0 -195 101.5t-76 265.5q0 130 52 256.5t145 222.5q78 81 169.5 121.5t197.5 40.5q82 0 136 -36
t54 -89q0 -24 -12 -44t-41 -44z" />
    <glyph glyph-name="d" unicode="d" horiz-adv-x="1102" 
d="M629 362l69 422q-55 36 -93.5 51t-72.5 15q-113 0 -190.5 -151t-77.5 -375q0 -83 20 -124.5t60 -41.5q32 0 104.5 52t180.5 152zM627 246l-152 -137q-80 -73 -135 -102.5t-107 -29.5q-93 0 -150.5 81t-57.5 214q0 286 157 493.5t369 207.5q46 0 88.5 -11t87.5 -34l47 299
q6 39 9 68t3 42q0 52 -16.5 70t-62.5 18q-6 0 -25 -1.5t-31 -2.5l-6 82q109 8 213 22.5t203 35.5q-96 -479 -154.5 -844t-58.5 -461q0 -52 9.5 -72t31.5 -20q8 0 26 10t39 27l60 49l33 -76l-119 -108q-56 -53 -98 -77t-78 -24q-61 0 -96 56.5t-35 154.5q0 12 2.5 36t3.5 34z
" />
    <glyph glyph-name="e" unicode="e" horiz-adv-x="862" 
d="M258 465l10 5q322 162 322 261q0 48 -35 84.5t-82 36.5q-76 0 -133 -101.5t-82 -285.5zM553 510l-299 -143v-27q0 -94 37.5 -147.5t103.5 -53.5q49 0 116 38.5t169 125.5l39 -84q-138 -130 -242 -190t-190 -60q-123 0 -198 96t-75 257q0 104 40 223t106 209
q77 106 175.5 163.5t201.5 57.5q109 0 183.5 -65.5t74.5 -157.5q0 -124 -238 -240z" />
    <glyph glyph-name="f" unicode="f" horiz-adv-x="711" 
d="M197 825q-38 0 -76.5 -1.5t-77.5 -3.5l16 93q56 7 94 21t66 37q63 262 219 419.5t346 157.5q86 0 138.5 -34.5t52.5 -88.5q0 -23 -12 -45.5t-35 -42.5l-58 -49q-45 54 -89 79.5t-91 25.5q-101 0 -156 -102t-88 -359h62q31 0 66.5 1t90.5 3l-20 -115q-32 1 -63.5 1.5
t-65.5 0.5h-84l-1 -8q-125 -906 -267 -1124q-68 -103 -151.5 -160t-166.5 -57q-59 0 -102 32t-43 76q0 16 9.5 34t27.5 36l49 45q32 -38 62 -56t63 -18q81 0 123.5 89.5t73.5 353.5z" />
    <glyph glyph-name="g" unicode="g" horiz-adv-x="1020" 
d="M322 -29q-135 -70 -180.5 -113.5t-45.5 -93.5q0 -68 82 -117.5t203 -49.5q119 0 194.5 47t75.5 118q0 80 -242 175q-56 22 -87 34zM502 881q-90 0 -151.5 -103.5t-61.5 -255.5q0 -80 32.5 -122t96.5 -42q96 0 157.5 98t61.5 251q0 85 -34.5 129.5t-100.5 44.5zM1012 967
l-39 -129q-12 -1 -26 -1.5t-42 -0.5q-37 0 -73.5 3.5t-71.5 10.5q51 -37 75.5 -84t24.5 -111q0 -114 -70 -199.5t-212 -144.5q-34 -13 -92 -36q-136 -51 -136 -76q0 -36 182 -102q24 -9 35 -13q187 -68 246 -122.5t59 -135.5q0 -143 -176 -252t-422 -109q-179 0 -291 70.5
t-112 179.5q0 80 66.5 138.5t300.5 156.5q-97 39 -132.5 66t-35.5 59q0 58 225 151q30 12 47 19q-3 0 -10 -1q-30 -3 -45 -3q-101 0 -163.5 69.5t-62.5 182.5q0 174 136 298t329 124q63 0 171 -14.5t153 -14.5q35 0 75 5t87 16z" />
    <glyph glyph-name="h" unicode="h" horiz-adv-x="1114" 
d="M555 1559q-56 -281 -72 -359.5t-20 -99.5l-76 -402l139 131q89 84 140.5 113t99.5 29q80 0 128 -57.5t48 -155.5q0 -92 -45 -277.5t-45 -263.5q0 -29 10 -44t29 -15q11 0 26 8t35 24l64 58l35 -74l-115 -104q-51 -47 -99 -72t-85 -25q-59 0 -95 47.5t-36 126.5
q0 94 46 290.5t46 275.5q0 32 -13.5 50.5t-35.5 18.5q-46 0 -226 -151q-47 -40 -73 -62l-62 -338q-13 -71 -20 -118.5t-11 -89.5l-247 -50q48 207 122 612l7 38l32 186q40 212 64 364.5t24 186.5q0 29 -16.5 45t-46.5 16q-14 0 -50 -3q-7 0 -11 -1l-9 78q107 10 210 25.5
t204 38.5z" />
    <glyph glyph-name="i" unicode="i" horiz-adv-x="627" 
d="M461 1540l74 -74q25 -25 37 -47.5t12 -46.5q0 -29 -20 -53t-62 -47l-101 -55l-69 75l-4 4q-47 51 -47 88q0 30 19 55t58 46zM498 250l34 -78q-127 -119 -193 -160t-122 -41q-61 0 -96 43t-35 119q0 65 55 284q7 28 10 41q28 111 42 180t14 99q0 25 -13 40.5t-34 15.5
q-17 0 -43 -11t-68 -37l-33 70l138 90q47 32 88.5 48t74.5 16q61 0 97.5 -39t36.5 -105q0 -49 -45 -228q-18 -71 -27 -112q-28 -115 -39.5 -176t-11.5 -88q0 -28 10 -43.5t29 -15.5t49 20t82 68z" />
    <glyph glyph-name="j" unicode="j" horiz-adv-x="631" 
d="M465 1540l72 -74q28 -30 38.5 -50t10.5 -42q0 -30 -20 -55t-60 -47l-103 -55l-69 75q-2 3 -7 7q-44 48 -44 85q0 30 19 54t60 47zM461 715l-84 -512q-31 -190 -61 -292t-72 -171q-75 -124 -191 -199.5t-227 -75.5q-78 0 -126 33.5t-48 85.5q0 20 11.5 39.5t33.5 38.5
l53 47q43 -52 83.5 -78t78.5 -26q76 0 119 80t88 342l37 209q34 194 53.5 328t19.5 169q0 28 -9.5 43t-26.5 15q-12 0 -35.5 -10.5t-81.5 -43.5l-33 76l121 70q79 48 126 67t83 19q50 0 76 -32t26 -93q0 -18 -2.5 -43.5t-11.5 -85.5z" />
    <glyph glyph-name="k" unicode="k" horiz-adv-x="1100" 
d="M348 442q177 21 280 92.5t103 172.5q0 45 -24 70.5t-66 25.5q-58 0 -229 -140l-31 -26zM33 -29q32 142 63 302t64 352l30 184q54 315 70 420.5t16 130.5q0 29 -17 45t-48 16q-11 0 -40 -2q-11 -1 -17 -2l-9 78q107 8 209 23.5t203 39.5q-9 -45 -41.5 -204.5t-50.5 -253.5
l-68 -348l21 18q224 207 336 207q77 0 132.5 -62.5t55.5 -148.5q0 -113 -76 -193t-233 -133q111 -170 171 -236.5t101 -66.5q19 0 45 16.5t68 55.5l35 -70q-110 -107 -159.5 -136.5t-98.5 -29.5q-83 0 -169 94.5t-194 305.5q-27 -7 -52 -11.5t-48 -7.5l-15 -82
q-9 -46 -30 -215l-4 -32z" />
    <glyph glyph-name="l" unicode="l" horiz-adv-x="606" 
d="M516 172l-84 -76q-71 -64 -121.5 -92.5t-93.5 -28.5q-61 0 -100 55.5t-39 143.5q0 66 44 284q25 122 38 193l28 162q47 250 69 381t22 168q0 29 -17.5 45t-48.5 16q-11 0 -40 -2q-11 -1 -17 -2l-11 76q96 10 198.5 26.5t211.5 39.5q-158 -807 -201 -1045.5t-43 -288.5
q0 -32 12.5 -50.5t32.5 -18.5q11 0 29.5 10.5t42.5 30.5l57 47z" />
    <glyph glyph-name="m" unicode="m" horiz-adv-x="1632" 
d="M51 -27q18 80 35.5 171t42.5 231l21 114q12 74 19 127.5t7 81.5q0 40 -12 58t-39 18q-18 0 -43 -10t-55 -29l-31 72q34 23 92 64q145 104 197 104q54 0 89.5 -46t35.5 -118q0 -30 -12 -110q-3 -20 -5 -31q18 18 51 54q239 251 326 251q72 0 114 -60t42 -165
q0 -20 -1.5 -40t-4.5 -42l39 42q247 265 341 265q75 0 119.5 -53t44.5 -144q0 -96 -48 -290.5t-48 -272.5q0 -27 11 -43t28 -16t49 23t80 69l33 -76l-10 -9q-205 -190 -277 -190q-67 0 -104 50t-37 139q0 95 43 282t43 267q0 28 -11.5 45.5t-29.5 17.5q-46 0 -211 -156
q-43 -40 -68 -63q-6 -38 -19 -110q-53 -306 -65 -422l-243 -50q82 425 103.5 555.5t21.5 182.5q0 28 -13 45.5t-33 17.5q-45 0 -207 -151q-47 -44 -73 -68q-34 -177 -54.5 -304.5t-31.5 -225.5z" />
    <glyph glyph-name="n" unicode="n" horiz-adv-x="1130" 
d="M406 701l137 126q98 92 146.5 118t98.5 26q80 0 126.5 -55t46.5 -150q0 -94 -44.5 -282.5t-44.5 -266.5q0 -28 9.5 -42.5t27.5 -14.5q12 0 28 8t32 22l63 58l35 -74l-92 -84q-66 -59 -114 -87t-85 -28q-64 0 -100.5 48.5t-36.5 134.5t43 271.5t43 268.5q0 33 -17 52.5
t-44 19.5q-52 0 -216 -142q-40 -35 -63 -55l-63 -344q-15 -76 -21.5 -121t-9.5 -85l-250 -48q63 272 99 466t36 257q0 41 -13.5 63.5t-37.5 22.5q-18 0 -92 -43l-7 -3l-30 71q27 18 75 51q158 111 224 111q52 0 86.5 -47t34.5 -121q0 -20 -2.5 -45.5t-7.5 -56.5z" />
    <glyph glyph-name="o" unicode="o" horiz-adv-x="1040" 
d="M430 88q114 0 192 153t78 377q0 115 -39 174.5t-114 59.5q-118 0 -197.5 -149.5t-79.5 -376.5q0 -117 41 -177.5t119 -60.5zM23 344q0 136 56.5 263t160.5 222q77 72 167.5 109t186.5 37q165 0 259.5 -99t94.5 -272q0 -258 -167.5 -447.5t-401.5 -189.5
q-165 0 -260.5 101.5t-95.5 275.5z" />
    <glyph glyph-name="p" unicode="p" horiz-adv-x="1081" 
d="M313 164q46 -32 90.5 -50t79.5 -18q111 0 186.5 154t75.5 379q0 80 -22.5 121t-67.5 41q-57 0 -252 -181l-24 -22zM373 1071l94 -33q-16 -53 -30.5 -114t-28.5 -138l-17 -84q12 13 34 36q219 229 335 229q102 0 164.5 -90.5t62.5 -243.5q0 -119 -48 -247.5t-128 -223.5
q-77 -91 -166.5 -139t-181.5 -48q-43 0 -85 11.5t-87 36.5l-47 -303q-3 -20 -4.5 -36.5t-1.5 -29.5q0 -50 24 -68t96 -18h37l-17 -84q-100 5 -166 7.5t-112 2.5q-42 0 -99.5 -2t-156.5 -8l15 84h43q55 0 80 29t38 112l140 854q11 72 24.5 133t30.5 119l-184 -117l-21 80
q102 69 192.5 142t170.5 151z" />
    <glyph glyph-name="q" unicode="q" horiz-adv-x="1047" 
d="M614 369l72 430q-51 29 -86.5 41t-67.5 12q-65 0 -111.5 -39t-84.5 -127q-36 -80 -57 -180t-21 -189q0 -79 19 -120t55 -41q33 0 91 42.5t191 170.5zM596 240q-138 -143 -228 -203t-163 -60q-83 0 -135 82t-52 217q0 146 52 279t149 240q81 89 175 134.5t196 45.5
q49 0 95 -12t95 -37l168 71q-38 -179 -79 -434q-5 -28 -7 -41l-61 -375l-13 -79q-59 -369 -59 -410q0 -50 23 -69t84 -19h22l-18 -84q-8 0 -25 1q-170 7 -246 7q-41 0 -107 -3t-155 -9l19 88h30q127 0 158 182q1 9 2 15z" />
    <glyph glyph-name="r" unicode="r" horiz-adv-x="842" 
d="M55 -27q64 258 102 461.5t38 274.5q0 35 -14 55t-38 20q-22 0 -96 -47q-11 -6 -16 -10l-35 74l3 2q227 168 294 168q55 0 82.5 -39.5t27.5 -116.5q0 -36 -6 -87t-18 -120q135 221 201.5 291t126.5 70q40 0 66 -29t26 -76q0 -26 -18.5 -68.5t-59.5 -109.5q-22 27 -44 40
t-44 13q-43 0 -97 -54t-145 -189q-33 -135 -55.5 -252.5t-34.5 -223.5z" />
    <glyph glyph-name="s" unicode="s" horiz-adv-x="846" 
d="M696 762l-63 -53q-61 75 -109 108t-98 33q-47 0 -79 -28t-32 -68t33 -78t131 -105l16 -10q199 -131 199 -237q0 -142 -126.5 -247.5t-301.5 -105.5q-112 0 -186 43.5t-74 106.5q0 24 11 44t36 40l64 51q65 -88 119 -126t114 -38q55 0 91 31.5t36 79.5q0 71 -173 188
l-19 12q-108 72 -147.5 126.5t-39.5 121.5q0 129 125 225.5t301 96.5q89 0 151 -40.5t62 -94.5q0 -20 -10.5 -40t-30.5 -36z" />
    <glyph glyph-name="t" unicode="t" horiz-adv-x="743" 
d="M518 1217q-29 -110 -44 -172t-25 -113h40q47 0 99 1.5t110 4.5l-26 -118q-30 0 -65.5 0.5t-106.5 0.5h-74q-43 -195 -66.5 -339.5t-23.5 -213.5q0 -58 16 -89.5t45 -31.5q17 0 54 27t120 100l37 -79l-4 -5q-242 -229 -328 -229q-79 0 -127.5 72.5t-48.5 193.5
q0 82 26.5 228.5t80.5 367.5q-14 0 -40 -1t-38 -1h-72l17 86q50 5 89.5 20t76.5 44q9 31 20.5 65.5t32.5 98.5z" />
    <glyph glyph-name="u" unicode="u" horiz-adv-x="1126" 
d="M1063 172l-129 -113q-50 -42 -89 -62t-75 -20q-59 0 -96 47.5t-37 125.5q0 26 2 53t6 53q-178 -173 -260.5 -230t-138.5 -57q-67 0 -112.5 60t-45.5 153q0 82 57 305q7 27 11 42q25 99 36 147t11 63q0 27 -10 41.5t-29 14.5q-14 0 -49 -14t-76 -38l-27 70l33 21
q206 133 262 133t90.5 -42.5t34.5 -111.5q0 -85 -53 -276t-53 -271q0 -40 14 -60t43 -20q33 0 102 50t174 151q25 115 48 243.5t49 287.5l250 49q-11 -40 -31.5 -132t-48.5 -233l-25 -121q-21 -106 -31 -169.5t-10 -94.5q0 -28 9.5 -42.5t27.5 -14.5q17 0 51.5 22t83.5 66z
" />
    <glyph glyph-name="v" unicode="v" horiz-adv-x="995" 
d="M231 -39q5 73 7 145t2 146q0 335 -20 447t-70 112q-16 0 -45 -18.5t-66 -53.5l-33 76q117 107 165 133.5t95 26.5q100 0 138 -107.5t38 -433.5q0 -35 -1 -115.5t-1 -125.5q134 218 209.5 372.5t75.5 208.5q0 26 -13.5 47t-39.5 35l49 59q27 32 52 46t54 14
q44 0 68.5 -26.5t24.5 -74.5q0 -53 -54 -161.5t-202 -345.5l-230 -367z" />
    <glyph glyph-name="w" unicode="w" horiz-adv-x="1507" 
d="M209 -32q3 53 4.5 107t1.5 107q0 386 -18.5 501.5t-67.5 115.5q-17 0 -41 -16t-68 -56l-34 72q90 88 162 134t120 46q84 0 117 -93.5t33 -379.5q0 -10 -1.5 -105t-2.5 -179q28 58 81 165q221 455 228 542l215 50v-66q0 -81 14 -239q4 -53 6 -80l9 -123l3 -36
q13 -144 13 -242q123 215 192.5 370t69.5 211q0 28 -15.5 50t-43.5 34l47 62q23 30 48.5 44.5t57.5 14.5q43 0 69 -25.5t26 -68.5q0 -59 -50.5 -170t-187.5 -346l-217 -373l-186 -29q1 20 1.5 38t0.5 38q0 28 -3 73t-10 111l-20 222q-1 9 -3 28q-12 133 -16 209l-331 -676z
" />
    <glyph glyph-name="x" unicode="x" horiz-adv-x="1184" 
d="M500 360q-175 -248 -253 -319.5t-147 -71.5q-55 0 -92 32t-37 79q0 23 11.5 44t35.5 42l54 47q26 -36 47.5 -53t42.5 -17q53 0 247 247q32 41 50 63l-20 51q-112 299 -167 299q-18 0 -45 -15t-84 -59l-43 70q15 12 43 35q174 141 258 141q99 0 208 -305l14 -37l26 36
q230 312 340 312q51 0 86 -29t35 -71q0 -27 -13 -50t-44 -51l-37 -35q-21 28 -44 44t-42 16q-57 0 -224 -210q-26 -33 -40 -50q10 -27 28 -78q118 -324 176 -324q31 0 126 90l13 12l42 -73q-123 -129 -181.5 -167t-113.5 -38q-110 0 -253 385z" />
    <glyph glyph-name="y" unicode="y" horiz-adv-x="983" 
d="M-96 -285q32 -43 66.5 -64.5t72.5 -21.5q96 0 166 135.5t70 344.5q0 296 -37 474.5t-97 178.5q-15 0 -36.5 -20.5t-67.5 -82.5l-51 64q110 155 163.5 203.5t102.5 48.5q102 0 157.5 -175t55.5 -501q0 -40 -2 -93.5t-6 -115.5q169 346 215.5 466t46.5 179q0 36 -13 61
t-40 44l63 73q28 33 52.5 47.5t52.5 14.5q37 0 58.5 -28t21.5 -77q0 -86 -108 -317.5t-290 -529.5q-176 -292 -313 -425t-260 -133q-66 0 -108 32t-42 83q0 21 10 39t37 43z" />
    <glyph glyph-name="z" unicode="z" horiz-adv-x="983" 
d="M-61 18q159 166 323.5 345t335.5 374q-14 2 -41 5q-207 26 -274 26q-65 0 -99 -32.5t-47 -106.5l-82 14l19 86q29 134 80.5 190t140.5 56q86 0 227.5 -30t192.5 -30q54 0 90.5 19.5t73.5 66.5l69 -65q-243 -259 -394 -425.5t-255 -287.5q110 -18 199.5 -28.5t138.5 -10.5
q87 0 126 36.5t56 133.5l80 -12q-25 -206 -85 -288.5t-179 -82.5q-80 0 -229 33t-209 33q-61 0 -106 -20t-83 -64z" />
    <glyph glyph-name="braceleft" unicode="{" horiz-adv-x="817" 
d="M78 586h26q118 0 175.5 63.5t91.5 245.5l32 174q47 255 160 359t338 104q13 0 37 -1t35 -1l-15 -92q-11 1 -22 1.5t-25 0.5q-226 0 -291 -348q-6 -34 -10 -52l-12 -63q-45 -235 -121.5 -321t-228.5 -111l-4 -15q113 -13 168 -77.5t55 -182.5q0 -22 -4 -60.5t-10 -84.5
l-9 -68q-14 -100 -19 -150t-5 -83q0 -95 49.5 -139.5t155.5 -44.5h28l-15 -95q-19 -1 -39.5 -1.5t-49.5 -0.5q-174 0 -260 67.5t-86 203.5q0 26 5 78t13 114l23 167q9 60 13.5 102.5t4.5 66.5q0 81 -46.5 119.5t-143.5 38.5h-9z" />
    <glyph glyph-name="bar" unicode="|" horiz-adv-x="1024" 
d="M602 1565v-2048h-178v2048h178z" />
    <glyph glyph-name="braceright" unicode="}" horiz-adv-x="817" 
d="M-191 -361q11 0 22 -0.5t24 -0.5q231 0 299 381l4 20l10 57q40 225 119 317t233 115l2 15q-111 12 -166 78t-55 188q0 33 3 67.5t9 71.5l13 72q11 69 16.5 130.5t5.5 104.5q0 98 -49 141.5t-160 43.5l-4 -1q-11 -1 -22 -1l17 90q19 1 39.5 1.5t49.5 0.5q174 0 260 -68
t86 -207q0 -27 -4.5 -76.5t-13.5 -109.5l-25 -168q-9 -67 -13.5 -109.5t-4.5 -60.5q0 -80 46 -118t144 -38h8l-14 -86h-45q-103 0 -159 -66t-89 -243l-30 -174q-47 -256 -160.5 -360.5t-339.5 -104.5q-24 0 -40 0.5t-31 1.5z" />
    <glyph glyph-name="asciitilde" unicode="~" horiz-adv-x="1706" 
d="M1530 600q-103 -71 -197.5 -106t-183.5 -35q-44 0 -92.5 8.5t-98.5 26.5q-25 8 -76 26q-212 74 -319 74q-82 0 -174 -38t-211 -122v187q106 72 202 107.5t185 35.5q62 0 125.5 -12t168.5 -48q13 -4 42 -15q164 -58 250 -58q85 0 177 37t202 116v-184z" />
    <glyph glyph-name="Euro" horiz-adv-x="1190" 
d="M1245 1321l-3 -11q-53 -200 -64 -313l-91 13q3 17 4 33t1 32q0 103 -74.5 161t-204.5 58q-141 0 -243.5 -107.5t-147.5 -301.5h289q81 0 150.5 0.5t115.5 1.5l-31 -92q-107 2 -210.5 3t-182.5 1h-145q-6 -38 -9.5 -80.5t-5.5 -93.5h318q48 0 93.5 0.5t92.5 1.5l-31 -92
q-23 0 -66 1q-149 3 -247 3h-158q0 -212 80.5 -324.5t231.5 -112.5q116 0 202.5 73.5t116.5 199.5l86 -19q-24 -84 -38.5 -151t-20.5 -123q-89 -56 -187.5 -84.5t-208.5 -28.5q-229 0 -370.5 152t-153.5 418h-12q-21 0 -74 -2q-38 -2 -61 -2l30 92l93 -2h12h12q1 39 6 81
t15 93h-13q-19 0 -63 -2t-68 -2l31 92q34 -1 57.5 -1.5t46.5 -0.5h31q76 247 260.5 392.5t421.5 145.5q110 0 207.5 -25.5t179.5 -76.5z" />
    <glyph glyph-name="Euro" unicode="&#x20ac;" horiz-adv-x="1190" 
d="M1245 1321l-3 -11q-53 -200 -64 -313l-91 13q3 17 4 33t1 32q0 103 -74.5 161t-204.5 58q-141 0 -243.5 -107.5t-147.5 -301.5h289q81 0 150.5 0.5t115.5 1.5l-31 -92q-107 2 -210.5 3t-182.5 1h-145q-6 -38 -9.5 -80.5t-5.5 -93.5h318q48 0 93.5 0.5t92.5 1.5l-31 -92
q-23 0 -66 1q-149 3 -247 3h-158q0 -212 80.5 -324.5t231.5 -112.5q116 0 202.5 73.5t116.5 199.5l86 -19q-24 -84 -38.5 -151t-20.5 -123q-89 -56 -187.5 -84.5t-208.5 -28.5q-229 0 -370.5 152t-153.5 418h-12q-21 0 -74 -2q-38 -2 -61 -2l30 92l93 -2h12h12q1 39 6 81
t15 93h-13q-19 0 -63 -2t-68 -2l31 92q34 -1 57.5 -1.5t46.5 -0.5h31q76 247 260.5 392.5t421.5 145.5q110 0 207.5 -25.5t179.5 -76.5z" />
    <glyph glyph-name="nonbreakingspace" unicode="&#xa0;" horiz-adv-x="1190" 
 />
    <glyph glyph-name="exclamdown" unicode="&#xa1;" horiz-adv-x="680" 
d="M70 -29q34 202 170 635q70 225 104 344l121 29q-41 -254 -73 -493t-54 -466zM420 1085l-70 68q-28 28 -40.5 52.5t-12.5 49.5q0 36 21 62.5t71 52.5l96 49l70 -69q32 -32 42.5 -52.5t10.5 -44.5q0 -36 -21.5 -63.5t-72.5 -54.5z" />
    <glyph glyph-name="cent" unicode="&#xa2;" horiz-adv-x="1190" 
d="M573 1010q-90 -16 -150.5 -115t-60.5 -233q0 -84 29 -137t88 -79zM635 1391h96l-51 -275q93 -4 149 -38.5t56 -86.5q0 -18 -8.5 -32.5t-36.5 -38.5l-54 -43q-25 53 -55 82t-72 40l-96 -559q46 7 101 41.5t116 96.5l33 -84q-72 -82 -139.5 -129.5t-130.5 -61.5l-51 -330
h-99l57 322q-139 2 -219.5 88t-80.5 231q0 189 125.5 333t316.5 169z" />
    <glyph glyph-name="sterling" unicode="&#xa3;" horiz-adv-x="1190" 
d="M346 614h-65h-146l17 97q30 -1 81 -2q87 -2 113 -2q2 317 154.5 515.5t384.5 198.5q94 0 154.5 -38.5t60.5 -96.5q0 -23 -11 -43.5t-34 -40.5l-47 -39q-54 66 -102.5 97.5t-96.5 31.5q-134 0 -196 -398q-19 -120 -31 -189q96 2 288 4l-20 -96q-50 0 -110 0.5t-177 0.5
q-21 -111 -69 -200.5t-125 -165.5l239 -43q38 -6 73.5 -9t66.5 -3q90 0 132 43.5t64 160.5l100 -20q-40 -211 -112 -306.5t-189 -95.5q-71 0 -220 41t-222 41q-53 0 -110.5 -19t-135.5 -63l-47 93q180 80 260 198t80 299q0 7 -1 24t-1 25z" />
    <glyph glyph-name="currency" unicode="&#xa4;" horiz-adv-x="1241" 
d="M913 885q0 119 -85.5 205t-204.5 86q-120 0 -205.5 -86t-85.5 -205q0 -120 84.5 -204.5t206.5 -84.5q121 0 205.5 84.5t84.5 204.5zM371 1227q55 41 117 61.5t133 20.5t134 -20.5t117 -61.5l203 203l94 -93l-204 -204q39 -54 59 -116.5t20 -131.5q0 -70 -20 -132.5
t-59 -115.5l204 -205l-94 -92l-203 205q-57 -42 -118 -62t-131 -20q-72 0 -135 20.5t-117 61.5l-203 -205l-92 92l203 205q-40 53 -60 115.5t-20 132.5q0 69 20 131.5t60 116.5l-203 204l92 93z" />
    <glyph glyph-name="yen" unicode="&#xa5;" horiz-adv-x="1176" 
d="M175 2l13 84q9 -1 18 -1.5t25 -0.5q73 0 102.5 27.5t49.5 146.5l39 221h-135q-43 0 -92.5 -1t-104.5 -3l16 88q12 0 36 -1q155 -3 220 -3h78l-49 170h-127q-4 0 -47 -1t-82 -1l17 92q11 0 37 -1q111 -5 180 -5l-84 286l-4 14q-48 171 -125 171q-10 0 -15.5 -0.5
t-9.5 -0.5l17 85q93 -5 151.5 -7.5t99.5 -2.5q50 0 110.5 2t127.5 6l-16 -84h-25q-46 0 -65 -13.5t-19 -45.5q0 -24 24 -120q6 -23 9 -34l96 -360l203 362q4 8 11 21q63 112 63 149q0 23 -13.5 31t-54.5 8h-25l17 86q28 -1 78 -4q88 -4 114 -4q60 0 198 7l13 1l-18 -84
q-5 0 -11.5 1t-9.5 1q-38 0 -65.5 -18t-71.5 -86l-233 -365q32 -1 61 -1.5t61 -0.5q23 0 47.5 0.5t53.5 1.5l-17 -90q-67 3 -133 4.5t-131 1.5l-108 -172h88q78 0 242 4h12l-15 -88q-58 1 -171.5 2t-165.5 2l-29 -188q-1 -8 -4 -25q-11 -75 -11 -92q0 -49 27 -68.5t98 -19.5
h27l-16 -86q-102 6 -173 9t-112 3q-50 0 -119 -2.5t-173 -7.5z" />
    <glyph glyph-name="brokenbar" unicode="&#xa6;" horiz-adv-x="1024" 
d="M602 408v-758h-178v758h178zM602 1432v-758h-178v758h178z" />
    <glyph glyph-name="section" unicode="&#xa7;" horiz-adv-x="1100" 
d="M559 1272q-106 -66 -161.5 -160t-55.5 -207q0 -68 28 -144t101 -194q10 -16 29 -47q145 -237 145 -373q0 -67 -29 -133t-81 -118q101 63 161 162.5t60 203.5q0 64 -27 136t-92 180q-14 23 -43 69q-145 233 -145 363q0 72 27.5 138t82.5 124zM956 1190l-61 -37
q-28 63 -69 97t-89 34q-76 0 -125 -56t-49 -143q0 -59 31 -135.5t113 -208.5q5 -9 17 -28q148 -239 148 -387q0 -106 -49.5 -208t-142.5 -188q-86 -78 -189.5 -122t-201.5 -44q-107 0 -180.5 47.5t-73.5 110.5q0 25 12 44t41 38l66 45q44 -83 93.5 -124.5t104.5 -41.5
q78 0 129 54t51 137q0 49 -23 109t-105 199q-8 14 -22 38q-157 265 -157 424q0 120 59 232.5t167 197.5q79 63 170.5 96t187.5 33q83 0 140 -38.5t57 -92.5q0 -26 -12.5 -46.5t-37.5 -35.5z" />
    <glyph glyph-name="dieresis" unicode="&#xa8;" horiz-adv-x="1024" 
d="M844 1393q42 0 82.5 -45.5t40.5 -92.5q0 -39 -49.5 -77.5t-98.5 -38.5q-44 0 -83.5 44t-39.5 87q0 42 49.5 82.5t98.5 40.5zM416 1393q42 0 82.5 -45t40.5 -93q0 -38 -49.5 -77t-98.5 -39q-43 0 -83 44t-40 87q0 42 50 82.5t98 40.5z" />
    <glyph glyph-name="copyright" unicode="&#xa9;" horiz-adv-x="1683" 
d="M1165 1100l2 -320h-47q-32 134 -102 203.5t-172 69.5q-116 0 -176 -94t-60 -275q0 -184 65 -281.5t189 -97.5q82 0 151 43.5t126 130.5l43 -26q-63 -108 -150 -160.5t-200 -52.5q-177 0 -297.5 124t-120.5 306q0 184 119.5 309t295.5 125q80 0 154 -33t78 -33
q28 0 41.5 14t19.5 48h41zM1464 678q0 124 -48 241.5t-136 204.5q-86 86 -200 133.5t-236 47.5q-126 0 -241 -48t-202 -137q-88 -90 -135 -203.5t-47 -238.5q0 -126 47.5 -239.5t136.5 -202.5q91 -91 201.5 -137t237.5 -46q126 0 238.5 47t199.5 136q88 89 136 204.5
t48 237.5zM844 1401q140 0 272.5 -55.5t233.5 -155.5q101 -102 157 -235.5t56 -276.5q0 -142 -55.5 -274t-157.5 -236q-101 -102 -231 -155.5t-277 -53.5q-145 0 -274.5 53t-233.5 156q-104 104 -158.5 234.5t-54.5 275.5q0 143 54 274.5t157 235.5q102 102 235 157.5
t277 55.5z" />
    <glyph glyph-name="ordfeminine" unicode="&#xaa;" horiz-adv-x="805" 
d="M520 1241q-30 18 -54 25.5t-48 7.5q-85 0 -156.5 -118t-71.5 -267q0 -49 13.5 -73.5t40.5 -24.5q23 0 75.5 36.5t143.5 116.5q9 44 21 105t36 192zM713 1374q-50 -237 -72.5 -364t-22.5 -172q0 -21 8.5 -33t22.5 -12q20 0 94 61l4 4l25 -55l-51 -45q-60 -53 -99.5 -76
t-70.5 -23q-47 0 -72.5 34t-25.5 95q0 23 1 38t3 30q-132 -116 -195.5 -154t-111.5 -38q-64 0 -100 50t-36 140q0 88 30 170.5t89 155.5q72 85 158.5 131.5t173.5 46.5q31 0 60 -6t61 -19z" />
    <glyph glyph-name="guillemotleft" unicode="&#xab;" horiz-adv-x="874" 
d="M582 94q-18 41 -53 123q-77 180 -115 266q60 72 130 158.5t165 206.5l82 -43q-48 -88 -92.5 -172.5t-86.5 -165.5q11 -72 25 -158t31 -186zM268 94q-84 147 -135.5 234.5t-95.5 160.5q80 79 168 168t190 195l74 -49l-41 -63q-117 -178 -172 -265l11 -41q55 -200 85 -301z
" />
    <glyph glyph-name="logicalnot" unicode="&#xac;" horiz-adv-x="1706" 
d="M1452 862v-502h-166v336h-1032v166h1198z" />
    <glyph glyph-name="sfthyphen" unicode="&#xad;" horiz-adv-x="668" 
d="M7 391q3 11 11 33q37 103 54 158q6 -1 19 -1q151 -3 220 -3q51 0 108.5 0.5t174.5 2.5q-19 -52 -34.5 -99.5t-27.5 -92.5q-103 3 -168 4.5t-85 1.5q-49 0 -106.5 -0.5t-165.5 -3.5z" />
    <glyph glyph-name="registered" unicode="&#xae;" horiz-adv-x="1683" 
d="M748 981v-258q14 -1 27 -1.5t26 -0.5q100 0 154.5 44t54.5 126q0 70 -46.5 114t-121.5 44q-47 0 -70.5 -17.5t-23.5 -50.5zM866 1096q145 0 232.5 -55t87.5 -142q0 -84 -65.5 -133t-217.5 -76q96 -25 147.5 -73t69.5 -127q6 -24 10 -67q9 -91 54 -91q29 0 44 34t15 99h49
v-23q0 -85 -43 -129.5t-127 -44.5q-46 0 -80 14.5t-53 43.5q-24 39 -27 111.5t-8 93.5q-16 74 -60.5 109.5t-121.5 35.5h-24v-246q0 -49 22.5 -69.5t85.5 -26.5v-47h-389v46q64 4 88.5 24.5t24.5 72.5v520q0 52 -23.5 72t-89.5 25v49h399zM1464 678q0 122 -48.5 240
t-135.5 206q-86 86 -200 133.5t-236 47.5q-126 0 -241 -48t-202 -137q-89 -90 -135.5 -203t-46.5 -239t47.5 -239.5t136.5 -202.5q91 -91 201.5 -137t237.5 -46q126 0 238.5 47t199.5 136q89 90 136.5 204.5t47.5 237.5zM844 1401q144 0 279 -57t235 -160
q98 -102 151.5 -235.5t53.5 -278.5q0 -138 -59.5 -272.5t-166.5 -239.5q-101 -100 -228 -149.5t-282 -49.5q-135 0 -264 54.5t-229 154.5q-105 104 -159 234t-54 276q0 143 54.5 275t156.5 235q102 102 235 157.5t277 55.5z" />
    <glyph glyph-name="overscore.001" unicode="&#xaf;" horiz-adv-x="1024" 
d="M1024 1565v-172h-1024v172h1024z" />
    <glyph glyph-name="degree" unicode="&#xb0;" horiz-adv-x="674" 
d="M522 1165q0 77 -53.5 131t-130.5 54t-131.5 -54t-54.5 -131q0 -76 54.5 -131t131.5 -55t130.5 54.5t53.5 131.5zM338 1460q123 0 209 -87t86 -210q0 -121 -87 -208t-210 -87t-208 85.5t-85 209.5q0 125 86 211t209 86z" />
    <glyph glyph-name="plusminus" unicode="&#xb1;" horiz-adv-x="1706" 
d="M1452 182v-168h-1198v168h1198zM938 1206v-334h514v-165h-514v-334h-170v334h-514v165h514v334h170z" />
    <glyph glyph-name="twosuperior" unicode="&#xb2;" horiz-adv-x="784" 
d="M276 737l-71 -49h262q87 0 112.5 19.5t41.5 74.5l57 -14q-21 -60 -35 -111.5t-22 -99.5q-83 4 -160.5 6t-151.5 2q-136 0 -195 -2.5t-103 -7.5l-27 66q265 175 390.5 310.5t125.5 246.5q0 64 -39 104.5t-101 40.5q-53 0 -91.5 -32.5t-61.5 -96.5l-39 16q-25 10 -36 24
t-11 34q0 56 70.5 95.5t177.5 39.5q133 0 215 -63.5t82 -165.5q0 -157 -360 -416z" />
    <glyph glyph-name="threesuperior" unicode="&#xb3;" horiz-adv-x="784" 
d="M424 1006q105 -4 162 -49t57 -123q0 -117 -121 -204t-289 -87q-98 0 -164.5 31.5t-66.5 74.5q0 12 8.5 24t25.5 25l54 37q40 -56 86.5 -84t99.5 -28q79 0 135 55t56 133q0 72 -48.5 111t-137.5 39q-16 0 -30.5 -1t-29.5 -1l15 61q115 1 187.5 52t72.5 130q0 57 -37.5 94
t-93.5 37q-53 0 -89.5 -30.5t-58.5 -92.5l-37 17q-22 9 -32.5 23.5t-10.5 35.5q0 49 73.5 86t180.5 37q124 0 199.5 -51t75.5 -135q0 -73 -62 -128.5t-180 -88.5z" />
    <glyph glyph-name="acute" unicode="&#xb4;" horiz-adv-x="1024" 
d="M700 1530l177 -86l-357 -359l-80 35z" />
    <glyph glyph-name="mu" unicode="&#xb5;" horiz-adv-x="1184" 
d="M68 373l108 512h207l-100 -467q-10 -46 -15.5 -82t-5.5 -57q0 -64 37 -101t102 -37q87 0 139 53.5t76 167.5l111 523h209l-113 -533l-3 -15q-15 -70 -15 -110q0 -42 22.5 -66t63.5 -24q40 0 71 21.5t58 68.5q9 17 23 49q25 60 51 60q11 0 16.5 -7.5t5.5 -23.5
q0 -28 -17 -85.5t-40 -100.5q-41 -72 -95.5 -108t-123.5 -36q-84 0 -129.5 55t-47.5 156q-42 -104 -109.5 -157.5t-156.5 -53.5q-99 0 -156.5 58t-68.5 168q-23 -124 -48 -315q-39 -306 -134 -306q-47 0 -73 26.5t-26 74.5q0 52 69 282.5t108 409.5z" />
    <glyph glyph-name="paragraph" unicode="&#xb6;" horiz-adv-x="1024" 
d="M969 1380h-117v-1380h-129v1380h-168v-1380h-131v784q-168 6 -268.5 101t-100.5 245q0 158 107 253.5t284 95.5h523v-99z" />
    <glyph glyph-name="middot.001" unicode="&#xb7;" horiz-adv-x="596" 
d="M297 868q68 0 115 -47t47 -114q0 -68 -47.5 -115t-114.5 -47q-66 0 -114 48t-48 114t47.5 113.5t114.5 47.5z" />
    <glyph glyph-name="cedilla" unicode="&#xb8;" horiz-adv-x="1024" 
d="M463 47h127l-187 -194q57 -19 86 -52.5t29 -81.5q0 -90 -99 -158t-267 -89l-35 79q95 14 153 51.5t58 82.5q0 40 -28.5 62.5t-98.5 35.5z" />
    <glyph glyph-name="onesuperior" unicode="&#xb9;" horiz-adv-x="784" 
d="M117 610h39q42 0 62 10t32 35q9 21 20.5 66t36.5 168l23 108q39 199 55 299h-27q-28 0 -80 -2.5t-67 -3.5l-2 56q91 6 180 18t176 31q-9 -41 -25 -115q-44 -200 -55 -264l-24 -131q-20 -100 -27.5 -147.5t-7.5 -63.5q0 -39 21 -52.5t85 -13.5h13l-10 -51q-62 4 -115.5 6
t-93.5 2q-41 0 -157 -5q-43 -2 -67 -3z" />
    <glyph glyph-name="ordmasculine" unicode="&#xba;" horiz-adv-x="780" 
d="M324 741q85 0 143.5 107.5t58.5 263.5q0 81 -29.5 122.5t-86.5 41.5q-89 0 -148 -104.5t-59 -264.5q0 -82 30.5 -124t90.5 -42zM16 922q0 93 43 182t121 158q59 49 126.5 74.5t139.5 25.5q124 0 194.5 -68.5t70.5 -189.5q0 -181 -125.5 -314t-300.5 -133
q-124 0 -196.5 71.5t-72.5 193.5z" />
    <glyph glyph-name="guillemotright" unicode="&#xbb;" horiz-adv-x="874" 
d="M334 143l132 202.5t81 125.5l-18 64q-50 182 -78 278l84 39q51 -92 108.5 -189.5t122.5 -203.5q-113 -115 -344 -354l-12 -13zM11 141l11 22q128 234 168 315q-7 44 -26.5 160t-30.5 183l90 31q54 -134 92 -222.5t72 -164.5l-9 -12q-174 -213 -286 -355z" />
    <glyph glyph-name="onequarter" unicode="&#xbc;" horiz-adv-x="1841" 
d="M1223 319h272l70 343zM1329 55h33q47 0 65 14t33 78l21 97h-207q-5 0 -49.5 -1.5t-81.5 -2.5l-31 73q31 25 59 50t54 51l227 225q7 6 19 19q75 74 108 116l147 19l-96 -474q70 0 104 0.5t64 1.5l-35 -81h-6q-96 4 -141 4l-16 -100q-4 -15 -5.5 -24t-1.5 -14
q0 -30 18.5 -40.5t80.5 -10.5l-9 -49q-51 4 -95.5 6t-76.5 2q-44 0 -93.5 -2t-100.5 -6zM1374 1427l101 -51q-172 -229 -378 -518.5t-626 -896.5l-102 49q214 296 548.5 772t456.5 645zM111 664q7 0 19.5 -1t16.5 -1q41 0 60.5 9t32.5 34q9 19 21 67t32 150l20 102
q37 184 56 279h-29q-25 0 -74.5 -3t-64.5 -4l-2 53q90 5 174.5 16.5t164.5 29.5l-11 -53q-51 -233 -64 -302l-25 -120l-2 -12q-30 -165 -30 -187q0 -36 19.5 -47.5t82.5 -11.5h12l-10 -50q-59 4 -109.5 6.5t-89.5 2.5t-156 -6q-37 -2 -57 -3z" />
    <glyph glyph-name="onehalf" unicode="&#xbd;" horiz-adv-x="1841" 
d="M1356 168l-68 -47h248q81 0 106.5 18t40.5 70l56 -12q-19 -50 -32.5 -98.5t-23.5 -98.5q-77 4 -151.5 6t-145.5 2q-98 0 -166 -2.5t-120 -7.5l-25 61q253 163 373.5 290t120.5 231q0 59 -37.5 97t-95.5 38q-51 0 -88.5 -30.5t-59.5 -88.5l-37 14q-23 10 -33 22.5
t-10 31.5q0 52 67.5 89.5t168.5 37.5q126 0 204 -60t78 -156q0 -146 -339 -385zM1374 1427l101 -51q-172 -229 -378 -518.5t-626 -896.5l-102 49q214 296 548.5 772t456.5 645zM111 664q7 0 19.5 -1t16.5 -1q41 0 60.5 9t32.5 34q9 19 21 67t32 150l20 102q37 184 56 279
h-29q-25 0 -74.5 -3t-64.5 -4l-2 53q90 5 174.5 16.5t164.5 29.5l-11 -53q-51 -233 -64 -302l-25 -120l-2 -12q-30 -165 -30 -187q0 -36 19.5 -47.5t82.5 -11.5h12l-10 -50q-59 4 -109.5 6.5t-89.5 2.5t-156 -6q-37 -2 -57 -3z" />
    <glyph glyph-name="threequarters" unicode="&#xbe;" horiz-adv-x="1841" 
d="M1223 319h272l70 343zM1329 55h33q47 0 65 14t33 78l21 97h-207q-5 0 -49.5 -1.5t-81.5 -2.5l-31 73q31 25 59 50t54 51l227 225q7 6 19 19q75 74 108 116l147 19l-96 -474q70 0 104 0.5t64 1.5l-35 -81h-6q-96 4 -141 4l-16 -100q-4 -15 -5.5 -24t-1.5 -14
q0 -30 18.5 -40.5t80.5 -10.5l-9 -49q-51 4 -95.5 6t-76.5 2q-44 0 -93.5 -2t-100.5 -6zM1374 1427l101 -51q-172 -229 -378 -518.5t-626 -896.5l-102 49q214 296 548.5 772t456.5 645zM406 1030q98 -3 152 -45t54 -115q0 -109 -115.5 -190.5t-275.5 -81.5q-93 0 -156 29.5
t-63 70.5q0 11 9 23t26 22l49 35q38 -52 83 -78t95 -26q75 0 127.5 51t52.5 123q0 68 -46 104.5t-132 36.5q-14 0 -27.5 -0.5t-27.5 -1.5l14 57q110 2 179 50t69 120q0 53 -35 87t-90 34q-50 0 -84.5 -27.5t-56.5 -84.5l-35 14q-21 9 -31 22.5t-10 32.5q0 46 70.5 81.5
t173.5 35.5q117 0 188.5 -48.5t71.5 -127.5q0 -68 -58 -119.5t-171 -83.5z" />
    <glyph glyph-name="questiondown" unicode="&#xbf;" horiz-adv-x="893" 
d="M637 1085l-70 66q-28 28 -40.5 52.5t-12.5 49.5q0 38 21.5 65t70.5 52l94 49l72 -69q30 -31 40.5 -52t10.5 -47q0 -37 -20.5 -63.5t-73.5 -54.5zM567 956l109 29q-23 -108 -36 -191t-19 -155q-212 -87 -307 -170.5t-95 -179.5q0 -78 52.5 -131.5t129.5 -53.5q59 0 114 34
t116 108l55 -49q21 -20 32 -40.5t11 -39.5q0 -66 -76 -113t-188 -47q-173 0 -295.5 121.5t-122.5 292.5q0 110 67 196.5t208 159.5q26 14 71 36q174 86 174 185v8z" />
    <glyph glyph-name="Agrave" unicode="&#xc0;" horiz-adv-x="1513" 
d="M504 608h119q118 0 176 0.5t108 2.5l-84 550zM-92 84q16 -3 22.5 -3.5t12.5 -0.5q101 0 242 238q37 63 59 98l274 450q107 176 186 314t113 209h221q8 -83 20.5 -170t37.5 -226l98 -569q5 -28 13 -77q43 -265 141 -265q12 0 18.5 0.5t11.5 1.5l-12 -84q-93 6 -163 9
t-116 3q-53 0 -125.5 -3t-166.5 -9l14 84h27q77 0 105 22.5t28 83.5q0 13 -1 24t-3 24l-39 258q-64 1 -147 2.5t-97 1.5q-64 0 -122 -0.5t-122 -2.5l-123 -223q-24 -44 -35.5 -74.5t-11.5 -52.5q0 -30 28 -46.5t79 -16.5h22l-14 -84q-81 6 -142.5 9t-103.5 3q-41 0 -101 -3
t-142 -9zM928 1979l147 -418l-90 -27l-240 367z" />
    <glyph glyph-name="Aacute" unicode="&#xc1;" horiz-adv-x="1513" 
d="M504 608h119q118 0 176 0.5t108 2.5l-84 550zM-92 84q16 -3 22.5 -3.5t12.5 -0.5q101 0 242 238q37 63 59 98l274 450q107 176 186 314t113 209h221q8 -83 20.5 -170t37.5 -226l98 -569q5 -28 13 -77q43 -265 141 -265q12 0 18.5 0.5t11.5 1.5l-12 -84q-93 6 -163 9
t-116 3q-53 0 -125.5 -3t-166.5 -9l14 84h27q77 0 105 22.5t28 83.5q0 13 -1 24t-3 24l-39 258q-64 1 -147 2.5t-97 1.5q-64 0 -122 -0.5t-122 -2.5l-123 -223q-24 -44 -35.5 -74.5t-11.5 -52.5q0 -30 28 -46.5t79 -16.5h22l-14 -84q-81 6 -142.5 9t-103.5 3q-41 0 -101 -3
t-142 -9zM1048 1979l177 -86l-357 -359l-80 35z" />
    <glyph glyph-name="Acircumflex" unicode="&#xc2;" horiz-adv-x="1513" 
d="M504 608h119q118 0 176 0.5t108 2.5l-84 550zM-92 84q16 -3 22.5 -3.5t12.5 -0.5q101 0 242 238q37 63 59 98l274 450q107 176 186 314t113 209h221q8 -83 20.5 -170t37.5 -226l98 -569q5 -28 13 -77q43 -265 141 -265q12 0 18.5 0.5t11.5 1.5l-12 -84q-93 6 -163 9
t-116 3q-53 0 -125.5 -3t-166.5 -9l14 84h27q77 0 105 22.5t28 83.5q0 13 -1 24t-3 24l-39 258q-64 1 -147 2.5t-97 1.5q-64 0 -122 -0.5t-122 -2.5l-123 -223q-24 -44 -35.5 -74.5t-11.5 -52.5q0 -30 28 -46.5t79 -16.5h22l-14 -84q-81 6 -142.5 9t-103.5 3q-41 0 -101 -3
t-142 -9zM936 1905h119l215 -328l-84 -38l-220 184l-301 -189l-77 54z" />
    <glyph glyph-name="Atilde" unicode="&#xc3;" horiz-adv-x="1513" 
d="M504 608h119q118 0 176 0.5t108 2.5l-84 550zM-92 84q16 -3 22.5 -3.5t12.5 -0.5q101 0 242 238q37 63 59 98l274 450q107 176 186 314t113 209h221q8 -83 20.5 -170t37.5 -226l98 -569q5 -28 13 -77q43 -265 141 -265q12 0 18.5 0.5t11.5 1.5l-12 -84q-93 6 -163 9
t-116 3q-53 0 -125.5 -3t-166.5 -9l14 84h27q77 0 105 22.5t28 83.5q0 13 -1 24t-3 24l-39 258q-64 1 -147 2.5t-97 1.5q-64 0 -122 -0.5t-122 -2.5l-123 -223q-24 -44 -35.5 -74.5t-11.5 -52.5q0 -30 28 -46.5t79 -16.5h22l-14 -84q-81 6 -142.5 9t-103.5 3q-41 0 -101 -3
t-142 -9zM1288 1883l64 -41q-48 -81 -108.5 -142t-137.5 -108q-57 13 -153 42t-130 29q-45 0 -87.5 -25.5t-94.5 -86.5l-57 45q55 80 116.5 140t132.5 104q57 -13 149 -41.5t126 -28.5q49 0 94 28t86 85z" />
    <glyph glyph-name="Adieresis" unicode="&#xc4;" horiz-adv-x="1513" 
d="M504 608h119q118 0 176 0.5t108 2.5l-84 550zM-92 84q16 -3 22.5 -3.5t12.5 -0.5q101 0 242 238q37 63 59 98l274 450q107 176 186 314t113 209h221q8 -83 20.5 -170t37.5 -226l98 -569q5 -28 13 -77q43 -265 141 -265q12 0 18.5 0.5t11.5 1.5l-12 -84q-93 6 -163 9
t-116 3q-53 0 -125.5 -3t-166.5 -9l14 84h27q77 0 105 22.5t28 83.5q0 13 -1 24t-3 24l-39 258q-64 1 -147 2.5t-97 1.5q-64 0 -122 -0.5t-122 -2.5l-123 -223q-24 -44 -35.5 -74.5t-11.5 -52.5q0 -30 28 -46.5t79 -16.5h22l-14 -84q-81 6 -142.5 9t-103.5 3q-41 0 -101 -3
t-142 -9zM1192 1842q42 0 82.5 -45.5t40.5 -92.5q0 -39 -49.5 -77.5t-98.5 -38.5q-44 0 -83.5 44t-39.5 87q0 42 49.5 82.5t98.5 40.5zM764 1842q42 0 82.5 -45t40.5 -93q0 -38 -49.5 -77t-98.5 -39q-43 0 -83 44t-40 87q0 42 50 82.5t98 40.5z" />
    <glyph glyph-name="Aring" unicode="&#xc5;" horiz-adv-x="1513" 
d="M958 1599q51 0 87 36t36 85q0 53 -35.5 90t-84.5 37q-53 0 -90 -36t-37 -87t36.5 -88t87.5 -37zM958 1485q-98 0 -167.5 70t-69.5 171q0 95 70 164.5t167 69.5q98 0 167 -69.5t69 -168.5q0 -98 -69 -167.5t-167 -69.5zM504 608h119q118 0 176 0.5t108 2.5l-84 550z
M-92 84q16 -3 22.5 -3.5t12.5 -0.5q101 0 242 238q37 63 59 98l274 450q107 176 186 314t113 209h221q8 -83 20.5 -170t37.5 -226l98 -569q5 -28 13 -77q43 -265 141 -265q12 0 18.5 0.5t11.5 1.5l-12 -84q-93 6 -163 9t-116 3q-53 0 -125.5 -3t-166.5 -9l14 84h27
q77 0 105 22.5t28 83.5q0 13 -1 24t-3 24l-39 258q-64 1 -147 2.5t-97 1.5q-64 0 -122 -0.5t-122 -2.5l-123 -223q-24 -44 -35.5 -74.5t-11.5 -52.5q0 -30 28 -46.5t79 -16.5h22l-14 -84q-81 6 -142.5 9t-103.5 3q-41 0 -101 -3t-142 -9z" />
    <glyph glyph-name="AE" unicode="&#xc6;" horiz-adv-x="2066" 
d="M647 614q49 -1 92.5 -1.5t81.5 -0.5q22 0 44 -1q8 -1 9 -1q40 0 147 3q29 1 44 1l119 643zM-102 88q4 0 13 -1t13 -1q102 0 234 152q17 20 26 30l740 860q39 48 53 70.5t14 36.5q0 28 -29 38.5t-131 10.5l17 82q171 -5 353 -7.5t374 -2.5q127 0 242 2.5t227 7.5
q-19 -80 -32 -158t-19 -155l-88 -4q1 9 1.5 18t0.5 25q0 82 -52 113.5t-196 31.5h-96q-59 0 -89 -1t-55 -3q-35 -190 -52.5 -285.5t-31.5 -177.5q54 -2 106 -3t124 -1q129 0 166 26.5t51 102.5l84 -12q-26 -90 -41.5 -183t-22.5 -190l-86 -2q1 11 2.5 28.5t1.5 22.5
q0 56 -40 75t-205 19h-48h-110q-23 -124 -44.5 -252.5t-41.5 -261.5q59 -6 129 -9t172 -3q173 0 233.5 45t94.5 180l88 -14q-22 -81 -39.5 -165t-30.5 -173q-166 6 -307.5 9t-259.5 3q-173 0 -294.5 -3t-221.5 -9l18 88q6 -3 13.5 -4.5t21.5 -1.5q70 0 102.5 39t55.5 168
l36 206q-60 2 -130.5 2.5t-215.5 0.5h-149l-46 -57q-214 -266 -214 -300q0 -28 22.5 -39.5t87.5 -11.5q10 0 16 -0.5t11 -1.5l-18 -88q-90 6 -157.5 9t-113.5 3q-37 0 -101.5 -3t-154.5 -9z" />
    <glyph glyph-name="Ccedilla" unicode="&#xc7;" horiz-adv-x="1391" 
d="M1167 88q-132 -67 -246 -99t-225 -32q-277 0 -446.5 168.5t-169.5 443.5q0 168 68.5 327t191.5 278q118 113 269.5 173t322.5 60q113 0 217 -25t211 -77q-26 -88 -43.5 -174t-28.5 -170l-90 12q3 25 4.5 41.5t1.5 23.5q0 106 -85 162.5t-242 56.5q-234 0 -372 -180
t-138 -485q0 -227 103.5 -355t287.5 -128q143 0 243.5 71.5t139.5 200.5l86 -19q-22 -76 -36.5 -143.5t-23.5 -130.5zM733 47h127l-187 -194q57 -19 86 -52.5t29 -81.5q0 -90 -99 -158t-267 -89l-35 79q95 14 153 51.5t58 82.5q0 40 -28.5 62.5t-98.5 35.5z" />
    <glyph glyph-name="Egrave" unicode="&#xc8;" horiz-adv-x="1253" 
d="M-28 84q6 -1 14.5 -1.5t23.5 -0.5q73 0 107 50.5t73 281.5l107 630q12 68 16 103t4 55q0 40 -29 59t-89 19h-19l15 86q77 -5 170 -7.5t286 -2.5q175 0 310.5 2.5t275.5 7.5q-19 -80 -32 -158t-19 -155l-90 -4q1 9 1.5 18t0.5 25q0 84 -52.5 116.5t-193.5 32.5h-270
q-10 -55 -39 -216t-45 -255q57 -2 114.5 -3t145.5 -1q130 0 166.5 26.5t50.5 102.5l84 -12q-27 -94 -43.5 -187.5t-22.5 -185.5l-83 -2q0 13 0.5 25.5t0.5 25.5q0 56 -37.5 75t-187.5 19h-88h-63h-56q-22 -124 -43.5 -252.5t-42.5 -261.5q69 -6 145 -9t177 -3
q177 0 237 44.5t95 180.5l90 -14q-25 -89 -42.5 -173t-29.5 -165q-155 6 -304 9t-290 3q-114 0 -242.5 -3t-273.5 -9zM764 1979l147 -418l-90 -27l-240 367z" />
    <glyph glyph-name="Eacute" unicode="&#xc9;" horiz-adv-x="1253" 
d="M-28 84q6 -1 14.5 -1.5t23.5 -0.5q73 0 107 50.5t73 281.5l107 630q12 68 16 103t4 55q0 40 -29 59t-89 19h-19l15 86q77 -5 170 -7.5t286 -2.5q175 0 310.5 2.5t275.5 7.5q-19 -80 -32 -158t-19 -155l-90 -4q1 9 1.5 18t0.5 25q0 84 -52.5 116.5t-193.5 32.5h-270
q-10 -55 -39 -216t-45 -255q57 -2 114.5 -3t145.5 -1q130 0 166.5 26.5t50.5 102.5l84 -12q-27 -94 -43.5 -187.5t-22.5 -185.5l-83 -2q0 13 0.5 25.5t0.5 25.5q0 56 -37.5 75t-187.5 19h-88h-63h-56q-22 -124 -43.5 -252.5t-42.5 -261.5q69 -6 145 -9t177 -3
q177 0 237 44.5t95 180.5l90 -14q-25 -89 -42.5 -173t-29.5 -165q-155 6 -304 9t-290 3q-114 0 -242.5 -3t-273.5 -9zM884 1979l177 -86l-357 -359l-80 35z" />
    <glyph glyph-name="Ecircumflex" unicode="&#xca;" horiz-adv-x="1253" 
d="M-28 84q6 -1 14.5 -1.5t23.5 -0.5q73 0 107 50.5t73 281.5l107 630q12 68 16 103t4 55q0 40 -29 59t-89 19h-19l15 86q77 -5 170 -7.5t286 -2.5q175 0 310.5 2.5t275.5 7.5q-19 -80 -32 -158t-19 -155l-90 -4q1 9 1.5 18t0.5 25q0 84 -52.5 116.5t-193.5 32.5h-270
q-10 -55 -39 -216t-45 -255q57 -2 114.5 -3t145.5 -1q130 0 166.5 26.5t50.5 102.5l84 -12q-27 -94 -43.5 -187.5t-22.5 -185.5l-83 -2q0 13 0.5 25.5t0.5 25.5q0 56 -37.5 75t-187.5 19h-88h-63h-56q-22 -124 -43.5 -252.5t-42.5 -261.5q69 -6 145 -9t177 -3
q177 0 237 44.5t95 180.5l90 -14q-25 -89 -42.5 -173t-29.5 -165q-155 6 -304 9t-290 3q-114 0 -242.5 -3t-273.5 -9zM772 1905h119l215 -328l-84 -38l-220 184l-301 -189l-77 54z" />
    <glyph glyph-name="Edieresis" unicode="&#xcb;" horiz-adv-x="1253" 
d="M-28 84q6 -1 14.5 -1.5t23.5 -0.5q73 0 107 50.5t73 281.5l107 630q12 68 16 103t4 55q0 40 -29 59t-89 19h-19l15 86q77 -5 170 -7.5t286 -2.5q175 0 310.5 2.5t275.5 7.5q-19 -80 -32 -158t-19 -155l-90 -4q1 9 1.5 18t0.5 25q0 84 -52.5 116.5t-193.5 32.5h-270
q-10 -55 -39 -216t-45 -255q57 -2 114.5 -3t145.5 -1q130 0 166.5 26.5t50.5 102.5l84 -12q-27 -94 -43.5 -187.5t-22.5 -185.5l-83 -2q0 13 0.5 25.5t0.5 25.5q0 56 -37.5 75t-187.5 19h-88h-63h-56q-22 -124 -43.5 -252.5t-42.5 -261.5q69 -6 145 -9t177 -3
q177 0 237 44.5t95 180.5l90 -14q-25 -89 -42.5 -173t-29.5 -165q-155 6 -304 9t-290 3q-114 0 -242.5 -3t-273.5 -9zM1028 1842q42 0 82.5 -45.5t40.5 -92.5q0 -39 -49.5 -77.5t-98.5 -38.5q-44 0 -83.5 44t-39.5 87q0 42 49.5 82.5t98.5 40.5zM600 1842q42 0 82.5 -45
t40.5 -93q0 -38 -49.5 -77t-98.5 -39q-43 0 -83 44t-40 87q0 42 50 82.5t98 40.5z" />
    <glyph glyph-name="Igrave" unicode="&#xcc;" horiz-adv-x="748" 
d="M-27 88q2 0 7 -1q30 -3 43 -3q117 0 166 286q5 29 8 44l112 633q10 53 15.5 92.5t5.5 62.5q0 41 -30 59.5t-97 18.5h-23l15 86q88 -6 156.5 -9t115.5 -3q84 0 160 2.5t149 7.5l-18 -84q-7 0 -17.5 1t-15.5 1q-70 0 -100.5 -34.5t-57.5 -180.5l-108 -596
q-22 -119 -30.5 -182.5t-8.5 -95.5q0 -62 27.5 -83.5t107.5 -21.5h14l-16 -88q-140 9 -200.5 11.5t-102.5 2.5q-60 0 -273 -13l-20 -1zM523 1979l147 -418l-90 -27l-240 367z" />
    <glyph glyph-name="Iacute" unicode="&#xcd;" horiz-adv-x="748" 
d="M-27 88q2 0 7 -1q30 -3 43 -3q117 0 166 286q5 29 8 44l112 633q10 53 15.5 92.5t5.5 62.5q0 41 -30 59.5t-97 18.5h-23l15 86q88 -6 156.5 -9t115.5 -3q84 0 160 2.5t149 7.5l-18 -84q-7 0 -17.5 1t-15.5 1q-70 0 -100.5 -34.5t-57.5 -180.5l-108 -596
q-22 -119 -30.5 -182.5t-8.5 -95.5q0 -62 27.5 -83.5t107.5 -21.5h14l-16 -88q-140 9 -200.5 11.5t-102.5 2.5q-60 0 -273 -13l-20 -1zM643 1979l177 -86l-357 -359l-80 35z" />
    <glyph glyph-name="Icircumflex" unicode="&#xce;" horiz-adv-x="748" 
d="M-27 88q2 0 7 -1q30 -3 43 -3q117 0 166 286q5 29 8 44l112 633q10 53 15.5 92.5t5.5 62.5q0 41 -30 59.5t-97 18.5h-23l15 86q88 -6 156.5 -9t115.5 -3q84 0 160 2.5t149 7.5l-18 -84q-7 0 -17.5 1t-15.5 1q-70 0 -100.5 -34.5t-57.5 -180.5l-108 -596
q-22 -119 -30.5 -182.5t-8.5 -95.5q0 -62 27.5 -83.5t107.5 -21.5h14l-16 -88q-140 9 -200.5 11.5t-102.5 2.5q-60 0 -273 -13l-20 -1zM531 1905h119l215 -328l-84 -38l-220 184l-301 -189l-77 54z" />
    <glyph glyph-name="Idieresis" unicode="&#xcf;" horiz-adv-x="748" 
d="M-27 88q2 0 7 -1q30 -3 43 -3q117 0 166 286q5 29 8 44l112 633q10 53 15.5 92.5t5.5 62.5q0 41 -30 59.5t-97 18.5h-23l15 86q88 -6 156.5 -9t115.5 -3q84 0 160 2.5t149 7.5l-18 -84q-7 0 -17.5 1t-15.5 1q-70 0 -100.5 -34.5t-57.5 -180.5l-108 -596
q-22 -119 -30.5 -182.5t-8.5 -95.5q0 -62 27.5 -83.5t107.5 -21.5h14l-16 -88q-140 9 -200.5 11.5t-102.5 2.5q-60 0 -273 -13l-20 -1zM787 1842q42 0 82.5 -45.5t40.5 -92.5q0 -39 -49.5 -77.5t-98.5 -38.5q-44 0 -83.5 44t-39.5 87q0 42 49.5 82.5t98.5 40.5zM359 1842
q42 0 82.5 -45t40.5 -93q0 -38 -49.5 -77t-98.5 -39q-43 0 -83 44t-40 87q0 42 50 82.5t98 40.5z" />
    <glyph glyph-name="Eth" unicode="&#xd0;" horiz-adv-x="1575" 
d="M416 146q69 -12 111.5 -16.5t74.5 -4.5q154 0 254.5 33t173.5 106q84 85 133 225.5t49 296.5q0 222 -115 335.5t-339 113.5q-39 0 -133 -7q-15 -1 -23 -1q-25 -133 -54 -287.5t-34 -179.5h98q97 0 147 0.5t92 1.5l-22 -109q-64 1 -121.5 1.5t-109.5 0.5h-102
q-10 -59 -27 -167.5t-53 -341.5zM-16 84q6 -1 13.5 -1.5t22.5 -0.5q75 0 110 54t75 288l39 229q-38 0 -85 2h-16h-18q-53 -2 -98 -2l21 109q44 -1 91.5 -1.5t122.5 -0.5l55 317q6 32 9.5 58t3.5 45q0 56 -27.5 78t-97.5 22h-12l16 84q79 -5 135 -7.5t100 -2.5q95 0 216.5 5
t148.5 5q336 0 511 -143t175 -416q0 -164 -63 -316t-179 -264q-115 -113 -270 -169t-354 -56q-48 0 -190.5 6t-235.5 6q-18 0 -76 -3t-160 -9z" />
    <glyph glyph-name="Ntilde" unicode="&#xd1;" horiz-adv-x="1540" 
d="M-64 90q7 -1 15 -1.5t23 -0.5q78 0 115.5 50t75.5 255l125 654q9 48 13.5 88t4.5 67q0 42 -29.5 61t-95.5 19q-5 0 -16.5 -1t-18.5 -1l15 86q58 -3 107 -4.5t89 -1.5q51 0 105 1.5t114 4.5q5 -38 30.5 -95.5t78.5 -146.5l465 -784l106 664q11 62 17 112t6 76
q0 44 -29.5 64t-95.5 20h-20l16 92q64 -4 120.5 -6t104.5 -2q55 0 114.5 1.5t125.5 4.5l-13 -90q-8 1 -17 1.5t-25 0.5q-63 0 -91 -31t-53 -166q-107 -548 -142.5 -765t-35.5 -302v-22h-192q-39 94 -108 206l-9 15l-512 864l-123 -753q-9 -54 -13.5 -90.5t-5.5 -57.5
q0 -51 23 -70.5t82 -19.5q16 0 25 0.5t18 1.5l-11 -92q-78 7 -143 10.5t-110 3.5q-55 0 -115.5 -2.5t-123.5 -7.5zM1266 1883l64 -41q-48 -81 -108.5 -142t-137.5 -108q-57 13 -153 42t-130 29q-45 0 -87.5 -25.5t-94.5 -86.5l-57 45q55 80 116.5 140t132.5 104
q57 -13 149 -41.5t126 -28.5q49 0 94 28t86 85z" />
    <glyph glyph-name="Ograve" unicode="&#xd2;" horiz-adv-x="1567" 
d="M866 1270q-231 0 -367.5 -201t-136.5 -543q0 -207 88.5 -315.5t256.5 -108.5q228 0 363.5 207t135.5 555q0 200 -86 303t-254 103zM78 530q0 179 70 348t196 296q112 112 261 172.5t313 60.5q266 0 417.5 -152.5t151.5 -420.5q0 -177 -68.5 -347t-189.5 -294
q-112 -115 -260.5 -175.5t-319.5 -60.5q-267 0 -419 153t-152 420zM920 1979l147 -418l-90 -27l-240 367z" />
    <glyph glyph-name="Oacute" unicode="&#xd3;" horiz-adv-x="1567" 
d="M866 1270q-231 0 -367.5 -201t-136.5 -543q0 -207 88.5 -315.5t256.5 -108.5q228 0 363.5 207t135.5 555q0 200 -86 303t-254 103zM78 530q0 179 70 348t196 296q112 112 261 172.5t313 60.5q266 0 417.5 -152.5t151.5 -420.5q0 -177 -68.5 -347t-189.5 -294
q-112 -115 -260.5 -175.5t-319.5 -60.5q-267 0 -419 153t-152 420zM1040 1979l177 -86l-357 -359l-80 35z" />
    <glyph glyph-name="Ocircumflex" unicode="&#xd4;" horiz-adv-x="1567" 
d="M866 1270q-231 0 -367.5 -201t-136.5 -543q0 -207 88.5 -315.5t256.5 -108.5q228 0 363.5 207t135.5 555q0 200 -86 303t-254 103zM78 530q0 179 70 348t196 296q112 112 261 172.5t313 60.5q266 0 417.5 -152.5t151.5 -420.5q0 -177 -68.5 -347t-189.5 -294
q-112 -115 -260.5 -175.5t-319.5 -60.5q-267 0 -419 153t-152 420zM928 1905h119l215 -328l-84 -38l-220 184l-301 -189l-77 54z" />
    <glyph glyph-name="Otilde" unicode="&#xd5;" horiz-adv-x="1567" 
d="M866 1270q-231 0 -367.5 -201t-136.5 -543q0 -207 88.5 -315.5t256.5 -108.5q228 0 363.5 207t135.5 555q0 200 -86 303t-254 103zM78 530q0 179 70 348t196 296q112 112 261 172.5t313 60.5q266 0 417.5 -152.5t151.5 -420.5q0 -177 -68.5 -347t-189.5 -294
q-112 -115 -260.5 -175.5t-319.5 -60.5q-267 0 -419 153t-152 420zM1280 1883l64 -41q-48 -81 -108.5 -142t-137.5 -108q-57 13 -153 42t-130 29q-45 0 -87.5 -25.5t-94.5 -86.5l-57 45q55 80 116.5 140t132.5 104q57 -13 149 -41.5t126 -28.5q49 0 94 28t86 85z" />
    <glyph glyph-name="Odieresis" unicode="&#xd6;" horiz-adv-x="1567" 
d="M866 1270q-231 0 -367.5 -201t-136.5 -543q0 -207 88.5 -315.5t256.5 -108.5q228 0 363.5 207t135.5 555q0 200 -86 303t-254 103zM78 530q0 179 70 348t196 296q112 112 261 172.5t313 60.5q266 0 417.5 -152.5t151.5 -420.5q0 -177 -68.5 -347t-189.5 -294
q-112 -115 -260.5 -175.5t-319.5 -60.5q-267 0 -419 153t-152 420zM1184 1842q42 0 82.5 -45.5t40.5 -92.5q0 -39 -49.5 -77.5t-98.5 -38.5q-44 0 -83.5 44t-39.5 87q0 42 49.5 82.5t98.5 40.5zM756 1842q42 0 82.5 -45t40.5 -93q0 -38 -49.5 -77t-98.5 -39q-43 0 -83 44
t-40 87q0 42 50 82.5t98 40.5z" />
    <glyph glyph-name="multiply" unicode="&#xd7;" horiz-adv-x="1706" 
d="M862 729l461 459l117 -117l-459 -461l459 -458l-117 -119l-461 461l-459 -461l-116 119l458 458l-458 461l116 117z" />
    <glyph glyph-name="Oslash" unicode="&#xd8;" horiz-adv-x="1567" 
d="M1096 1200q-42 39 -100.5 58.5t-131.5 19.5q-234 0 -371 -200.5t-137 -542.5q0 -85 12.5 -151t39.5 -118q113 144 289 382t399 552zM1163 1118q-131 -169 -291.5 -384.5t-402.5 -547.5q41 -43 101 -65.5t139 -22.5q234 0 369.5 207t135.5 565q0 88 -12 147t-39 101z
M1348 1538l86 -59l-140 -189q96 -71 145.5 -188.5t49.5 -274.5q0 -175 -72.5 -347t-199.5 -298q-110 -108 -257 -165.5t-313 -57.5q-87 0 -160 16.5t-139 51.5l-155 -211l-84 63l155 201q-96 86 -141 192t-45 248q0 166 54.5 320.5t156.5 275.5q113 136 277 213.5t339 77.5
q95 0 168 -15t133 -46z" />
    <glyph glyph-name="Ugrave" unicode="&#xd9;" horiz-adv-x="1511" 
d="M180 1366h3q209 -14 263 -14q48 0 112.5 3t174.5 11l-16 -86q-7 0 -17.5 1t-15.5 1q-118 0 -158 -246q-9 -53 -14 -81l-53 -306q-15 -79 -22 -139t-7 -113q0 -122 90 -200t234 -78q89 0 164.5 32.5t121.5 92.5q40 49 66.5 138.5t56.5 297.5l29 209q19 135 27 198.5
t8 81.5q0 61 -28 86t-95 25h-19l17 86q22 -1 64 -4q123 -8 167 -8q48 0 108 3t132 9l-12 -86h-21q-60 0 -86.5 -14t-42.5 -52q-25 -60 -64 -320q-30 -207 -53 -335q-28 -168 -64 -257t-95 -155q-83 -92 -204.5 -141t-266.5 -49q-234 0 -367 114t-133 312q0 76 52 343
q18 92 28 142q25 131 38 216t13 116q0 42 -28.5 61t-92.5 19h-10zM912 1979l147 -418l-90 -27l-240 367z" />
    <glyph glyph-name="Uacute" unicode="&#xda;" horiz-adv-x="1511" 
d="M180 1366h3q209 -14 263 -14q48 0 112.5 3t174.5 11l-16 -86q-7 0 -17.5 1t-15.5 1q-118 0 -158 -246q-9 -53 -14 -81l-53 -306q-15 -79 -22 -139t-7 -113q0 -122 90 -200t234 -78q89 0 164.5 32.5t121.5 92.5q40 49 66.5 138.5t56.5 297.5l29 209q19 135 27 198.5
t8 81.5q0 61 -28 86t-95 25h-19l17 86q22 -1 64 -4q123 -8 167 -8q48 0 108 3t132 9l-12 -86h-21q-60 0 -86.5 -14t-42.5 -52q-25 -60 -64 -320q-30 -207 -53 -335q-28 -168 -64 -257t-95 -155q-83 -92 -204.5 -141t-266.5 -49q-234 0 -367 114t-133 312q0 76 52 343
q18 92 28 142q25 131 38 216t13 116q0 42 -28.5 61t-92.5 19h-10zM1032 1979l177 -86l-357 -359l-80 35z" />
    <glyph glyph-name="Ucircumflex" unicode="&#xdb;" horiz-adv-x="1511" 
d="M180 1366h3q209 -14 263 -14q48 0 112.5 3t174.5 11l-16 -86q-7 0 -17.5 1t-15.5 1q-118 0 -158 -246q-9 -53 -14 -81l-53 -306q-15 -79 -22 -139t-7 -113q0 -122 90 -200t234 -78q89 0 164.5 32.5t121.5 92.5q40 49 66.5 138.5t56.5 297.5l29 209q19 135 27 198.5
t8 81.5q0 61 -28 86t-95 25h-19l17 86q22 -1 64 -4q123 -8 167 -8q48 0 108 3t132 9l-12 -86h-21q-60 0 -86.5 -14t-42.5 -52q-25 -60 -64 -320q-30 -207 -53 -335q-28 -168 -64 -257t-95 -155q-83 -92 -204.5 -141t-266.5 -49q-234 0 -367 114t-133 312q0 76 52 343
q18 92 28 142q25 131 38 216t13 116q0 42 -28.5 61t-92.5 19h-10zM920 1905h119l215 -328l-84 -38l-220 184l-301 -189l-77 54z" />
    <glyph glyph-name="Udieresis" unicode="&#xdc;" horiz-adv-x="1511" 
d="M180 1366h3q209 -14 263 -14q48 0 112.5 3t174.5 11l-16 -86q-7 0 -17.5 1t-15.5 1q-118 0 -158 -246q-9 -53 -14 -81l-53 -306q-15 -79 -22 -139t-7 -113q0 -122 90 -200t234 -78q89 0 164.5 32.5t121.5 92.5q40 49 66.5 138.5t56.5 297.5l29 209q19 135 27 198.5
t8 81.5q0 61 -28 86t-95 25h-19l17 86q22 -1 64 -4q123 -8 167 -8q48 0 108 3t132 9l-12 -86h-21q-60 0 -86.5 -14t-42.5 -52q-25 -60 -64 -320q-30 -207 -53 -335q-28 -168 -64 -257t-95 -155q-83 -92 -204.5 -141t-266.5 -49q-234 0 -367 114t-133 312q0 76 52 343
q18 92 28 142q25 131 38 216t13 116q0 42 -28.5 61t-92.5 19h-10zM1176 1842q42 0 82.5 -45.5t40.5 -92.5q0 -39 -49.5 -77.5t-98.5 -38.5q-44 0 -83.5 44t-39.5 87q0 42 49.5 82.5t98.5 40.5zM748 1842q42 0 82.5 -45t40.5 -93q0 -38 -49.5 -77t-98.5 -39q-43 0 -83 44
t-40 87q0 42 50 82.5t98 40.5z" />
    <glyph glyph-name="Yacute" unicode="&#xdd;" horiz-adv-x="1298" 
d="M117 1366q96 -6 166.5 -9t117.5 -3q48 0 118.5 3t162.5 9l-14 -84h-23q-62 0 -90.5 -17.5t-28.5 -56.5q0 -14 4 -30.5t13 -38.5l155 -447l320 451q14 21 23.5 45t9.5 39q0 28 -21.5 42.5t-62.5 14.5q-4 0 -12.5 -1t-12.5 -1l17 84q16 -1 50 -4q120 -8 162 -8q49 0 185 9
l51 3l-16 -86h-13q-48 0 -81 -18t-78 -78l-471 -619l-54 -327q-4 -22 -6 -40t-2 -26q0 -48 28 -69t91 -21q16 0 25 0.5t15 1.5l-14 -86q-127 9 -193.5 12.5t-102.5 3.5q-45 0 -110 -2.5t-202 -11.5l17 86q8 -1 17.5 -1.5t27.5 -0.5q74 0 105 29.5t48 126.5l54 319l-220 584
q-34 93 -62.5 117t-82.5 24q-4 0 -12.5 -1t-14.5 -1zM926 1864l145 -86l-338 -280l-72 36z" />
    <glyph glyph-name="Thorn" unicode="&#xde;" horiz-adv-x="1257" 
d="M437 395q34 -3 62 -4.5t52 -1.5q179 0 281 91.5t102 250.5q0 118 -72.5 183t-204.5 65q-25 0 -56 -1.5t-64 -4.5q-12 -65 -46 -263t-54 -315zM414 263q-3 -17 -4.5 -35t-1.5 -38q0 -61 26 -83.5t98 -22.5q6 0 20 1t21 1l-12 -86q-96 7 -176 10.5t-141 3.5q-35 0 -91 -2.5
t-198 -11.5l12 83q6 0 14 -0.5t21 -0.5q127 0 183 314l6 33l114 648q6 31 9 58.5t3 46.5q0 56 -24.5 77t-91.5 21h-23l17 88q78 -7 149.5 -10.5t134.5 -3.5q73 0 139.5 3.5t134.5 10.5l-18 -88q-5 0 -15 1t-15 1q-69 0 -98.5 -29t-45.5 -127l-6 -32q27 0 88.5 4t91.5 4
q223 0 342 -91.5t119 -262.5q0 -217 -173.5 -343t-475.5 -126q-27 0 -60 2t-69 6z" />
    <glyph glyph-name="germandbls" unicode="&#xdf;" horiz-adv-x="1184" 
d="M469 184l57 45q54 -72 99.5 -104.5t93.5 -32.5q58 0 99.5 39t41.5 94q0 68 -122 211q-26 31 -40 47q-94 115 -118.5 167.5t-24.5 107.5q0 34 21 72t67 85q20 21 59 60q166 164 166 272q0 68 -45 111t-116 43q-70 0 -126 -40.5t-92 -117.5q-56 -116 -122 -596
q-24 -178 -39 -278q-50 -324 -107.5 -487t-150.5 -267q-61 -68 -126.5 -103.5t-129.5 -35.5q-65 0 -106.5 30t-41.5 76q0 18 9.5 35.5t27.5 34.5l49 45q32 -38 62 -56t63 -18q156 0 226 728q14 144 22 224q33 332 87.5 496t156.5 279q85 96 192.5 148t218.5 52
q129 0 212 -72.5t83 -183.5q0 -64 -33.5 -121.5t-153.5 -165.5q-12 -11 -34 -30q-109 -97 -109 -152q0 -33 23.5 -71.5t83.5 -100.5l40 -40q171 -170 171 -289q0 -141 -125 -250t-291 -109q-96 0 -158.5 40.5t-62.5 98.5q0 23 10.5 42t32.5 38z" />
    <glyph glyph-name="agrave" unicode="&#xe0;" horiz-adv-x="1073" 
d="M692 801q-36 25 -68.5 36t-66.5 11q-114 0 -208.5 -168t-94.5 -383q0 -69 18 -104t54 -35q31 0 102.5 53.5t187.5 165.5q15 72 33 171.5t43 252.5zM950 991q-65 -333 -95 -516t-30 -250q0 -31 10.5 -47t30.5 -16q15 0 38.5 16t90.5 76l33 -80l-67 -63q-84 -78 -135 -110
t-91 -32q-64 0 -98.5 48.5t-34.5 138.5q0 16 1.5 40.5t4.5 54.5q-178 -167 -261.5 -221.5t-147.5 -54.5q-84 0 -132.5 73t-48.5 200t41 245t119 220q94 122 209.5 189t233.5 67q39 0 78 -8.5t81 -26.5zM605 1530l147 -418l-90 -27l-240 367z" />
    <glyph glyph-name="aacute" unicode="&#xe1;" horiz-adv-x="1073" 
d="M692 801q-36 25 -68.5 36t-66.5 11q-114 0 -208.5 -168t-94.5 -383q0 -69 18 -104t54 -35q31 0 102.5 53.5t187.5 165.5q15 72 33 171.5t43 252.5zM950 991q-65 -333 -95 -516t-30 -250q0 -31 10.5 -47t30.5 -16q15 0 38.5 16t90.5 76l33 -80l-67 -63q-84 -78 -135 -110
t-91 -32q-64 0 -98.5 48.5t-34.5 138.5q0 16 1.5 40.5t4.5 54.5q-178 -167 -261.5 -221.5t-147.5 -54.5q-84 0 -132.5 73t-48.5 200t41 245t119 220q94 122 209.5 189t233.5 67q39 0 78 -8.5t81 -26.5zM725 1530l177 -86l-357 -359l-80 35z" />
    <glyph glyph-name="acircumflex" unicode="&#xe2;" horiz-adv-x="1073" 
d="M692 801q-36 25 -68.5 36t-66.5 11q-114 0 -208.5 -168t-94.5 -383q0 -69 18 -104t54 -35q31 0 102.5 53.5t187.5 165.5q15 72 33 171.5t43 252.5zM950 991q-65 -333 -95 -516t-30 -250q0 -31 10.5 -47t30.5 -16q15 0 38.5 16t90.5 76l33 -80l-67 -63q-84 -78 -135 -110
t-91 -32q-64 0 -98.5 48.5t-34.5 138.5q0 16 1.5 40.5t4.5 54.5q-178 -167 -261.5 -221.5t-147.5 -54.5q-84 0 -132.5 73t-48.5 200t41 245t119 220q94 122 209.5 189t233.5 67q39 0 78 -8.5t81 -26.5zM613 1456h119l215 -328l-84 -38l-220 184l-301 -189l-77 54z" />
    <glyph glyph-name="atilde" unicode="&#xe3;" horiz-adv-x="1073" 
d="M692 801q-36 25 -68.5 36t-66.5 11q-114 0 -208.5 -168t-94.5 -383q0 -69 18 -104t54 -35q31 0 102.5 53.5t187.5 165.5q15 72 33 171.5t43 252.5zM950 991q-65 -333 -95 -516t-30 -250q0 -31 10.5 -47t30.5 -16q15 0 38.5 16t90.5 76l33 -80l-67 -63q-84 -78 -135 -110
t-91 -32q-64 0 -98.5 48.5t-34.5 138.5q0 16 1.5 40.5t4.5 54.5q-178 -167 -261.5 -221.5t-147.5 -54.5q-84 0 -132.5 73t-48.5 200t41 245t119 220q94 122 209.5 189t233.5 67q39 0 78 -8.5t81 -26.5zM965 1434l64 -41q-48 -81 -108.5 -142t-137.5 -108q-57 13 -153 42
t-130 29q-45 0 -87.5 -25.5t-94.5 -86.5l-57 45q55 80 116.5 140t132.5 104q57 -13 149 -41.5t126 -28.5q49 0 94 28t86 85z" />
    <glyph glyph-name="adieresis" unicode="&#xe4;" horiz-adv-x="1073" 
d="M692 801q-36 25 -68.5 36t-66.5 11q-114 0 -208.5 -168t-94.5 -383q0 -69 18 -104t54 -35q31 0 102.5 53.5t187.5 165.5q15 72 33 171.5t43 252.5zM950 991q-65 -333 -95 -516t-30 -250q0 -31 10.5 -47t30.5 -16q15 0 38.5 16t90.5 76l33 -80l-67 -63q-84 -78 -135 -110
t-91 -32q-64 0 -98.5 48.5t-34.5 138.5q0 16 1.5 40.5t4.5 54.5q-178 -167 -261.5 -221.5t-147.5 -54.5q-84 0 -132.5 73t-48.5 200t41 245t119 220q94 122 209.5 189t233.5 67q39 0 78 -8.5t81 -26.5zM869 1393q42 0 82.5 -45.5t40.5 -92.5q0 -39 -49.5 -77.5t-98.5 -38.5
q-44 0 -83.5 44t-39.5 87q0 42 49.5 82.5t98.5 40.5zM441 1393q42 0 82.5 -45t40.5 -93q0 -38 -49.5 -77t-98.5 -39q-43 0 -83 44t-40 87q0 42 50 82.5t98 40.5z" />
    <glyph glyph-name="aring" unicode="&#xe5;" horiz-adv-x="1073" 
d="M653 1192q53 0 91 37.5t38 89.5q0 54 -37.5 92.5t-89.5 38.5q-54 0 -92.5 -37.5t-38.5 -89.5q0 -54 38 -92.5t91 -38.5zM653 1079q-98 0 -169.5 72t-71.5 170q0 101 71 171.5t174 70.5q97 0 167.5 -71.5t70.5 -170.5q0 -100 -71 -171t-171 -71zM616 377q15 72 33 171.5
t43 252.5q-36 25 -68.5 36t-66.5 11q-114 0 -208.5 -168t-94.5 -383q0 -69 18 -104t54 -35q31 0 103 54t187 165zM1028 174l-67 -63q-84 -78 -135 -110t-91 -32q-64 0 -98.5 48.5t-34.5 138.5q0 16 1.5 40.5t4.5 54.5q-178 -167 -261.5 -221.5t-147.5 -54.5q-84 0 -132.5 73
t-48.5 200t41 245t119 220q94 122 209.5 189t233.5 67q39 0 78 -8.5t81 -26.5l170 57q-65 -333 -95 -516t-30 -250q0 -31 10.5 -47t30.5 -16q15 0 38.5 16t90.5 76z" />
    <glyph glyph-name="ae" unicode="&#xe6;" horiz-adv-x="1419" 
d="M592 318q7 79 23.5 172t39.5 192l27 109q-28 30 -57 45.5t-60 15.5q-121 0 -218 -174.5t-97 -396.5q0 -56 20.5 -87.5t55.5 -31.5q25 0 86 35.5t180 120.5zM817 442l215 142q76 49 99.5 78.5t23.5 62.5q0 48 -38.5 84.5t-90.5 36.5q-83 0 -135 -101t-74 -303zM596 215
q-34 -25 -94 -70q-236 -176 -316 -176q-74 0 -121 78t-47 205q0 131 50 259t143 239q90 104 196 163.5t201 59.5q43 0 79.5 -11t70.5 -34l160 82l-29 -133q57 49 111 72.5t112 23.5q100 0 170 -64t70 -151q0 -56 -32.5 -96t-162.5 -113l-338 -193v-30q0 -94 35 -141.5
t104 -47.5q49 0 117.5 39t171.5 125l31 -86q-144 -128 -246 -186t-182 -58q-104 0 -174 66.5t-80 177.5z" />
    <glyph glyph-name="ccedilla" unicode="&#xe7;" horiz-adv-x="829" 
d="M719 762l-64 -55q-54 67 -93 93.5t-79 26.5q-99 0 -160 -124.5t-61 -329.5q0 -108 35 -167t98 -59q42 0 105 41t147 121l45 -92q-128 -133 -223 -191.5t-180 -58.5q-119 0 -195 101.5t-76 265.5q0 130 52 256.5t145 222.5q78 81 169.5 121.5t197.5 40.5q82 0 136 -36
t54 -89q0 -24 -12 -44t-41 -44zM367 47h127l-187 -194q57 -19 86 -52.5t29 -81.5q0 -90 -99 -158t-267 -89l-35 79q95 14 153 51.5t58 82.5q0 40 -28.5 62.5t-98.5 35.5z" />
    <glyph glyph-name="egrave" unicode="&#xe8;" horiz-adv-x="862" 
d="M258 465l10 5q322 162 322 261q0 48 -35 84.5t-82 36.5q-76 0 -133 -101.5t-82 -285.5zM553 510l-299 -143v-27q0 -94 37.5 -147.5t103.5 -53.5q49 0 116 38.5t169 125.5l39 -84q-138 -130 -242 -190t-190 -60q-123 0 -198 96t-75 257q0 104 40 223t106 209
q77 106 175.5 163.5t201.5 57.5q109 0 183.5 -65.5t74.5 -157.5q0 -124 -238 -240zM502 1530l147 -418l-90 -27l-240 367z" />
    <glyph glyph-name="eacute" unicode="&#xe9;" horiz-adv-x="862" 
d="M258 465l10 5q322 162 322 261q0 48 -35 84.5t-82 36.5q-76 0 -133 -101.5t-82 -285.5zM553 510l-299 -143v-27q0 -94 37.5 -147.5t103.5 -53.5q49 0 116 38.5t169 125.5l39 -84q-138 -130 -242 -190t-190 -60q-123 0 -198 96t-75 257q0 104 40 223t106 209
q77 106 175.5 163.5t201.5 57.5q109 0 183.5 -65.5t74.5 -157.5q0 -124 -238 -240zM622 1530l177 -86l-357 -359l-80 35z" />
    <glyph glyph-name="ecircumflex" unicode="&#xea;" horiz-adv-x="862" 
d="M258 465l10 5q322 162 322 261q0 48 -35 84.5t-82 36.5q-76 0 -133 -101.5t-82 -285.5zM553 510l-299 -143v-27q0 -94 37.5 -147.5t103.5 -53.5q49 0 116 38.5t169 125.5l39 -84q-138 -130 -242 -190t-190 -60q-123 0 -198 96t-75 257q0 104 40 223t106 209
q77 106 175.5 163.5t201.5 57.5q109 0 183.5 -65.5t74.5 -157.5q0 -124 -238 -240zM510 1456h119l215 -328l-84 -38l-220 184l-301 -189l-77 54z" />
    <glyph glyph-name="edieresis" unicode="&#xeb;" horiz-adv-x="862" 
d="M258 465l10 5q322 162 322 261q0 48 -35 84.5t-82 36.5q-76 0 -133 -101.5t-82 -285.5zM553 510l-299 -143v-27q0 -94 37.5 -147.5t103.5 -53.5q49 0 116 38.5t169 125.5l39 -84q-138 -130 -242 -190t-190 -60q-123 0 -198 96t-75 257q0 104 40 223t106 209
q77 106 175.5 163.5t201.5 57.5q109 0 183.5 -65.5t74.5 -157.5q0 -124 -238 -240zM766 1393q42 0 82.5 -45.5t40.5 -92.5q0 -39 -49.5 -77.5t-98.5 -38.5q-44 0 -83.5 44t-39.5 87q0 42 49.5 82.5t98.5 40.5zM338 1393q42 0 82.5 -45t40.5 -93q0 -38 -49.5 -77t-98.5 -39
q-43 0 -83 44t-40 87q0 42 50 82.5t98 40.5z" />
    <glyph glyph-name="igrave" unicode="&#xec;" horiz-adv-x="627" 
d="M498 250l34 -78q-127 -119 -193 -160t-122 -41q-61 0 -96 43t-35 119q0 65 55 284q7 28 10 41q28 111 42 180t14 99q0 25 -13 40.5t-34 15.5q-17 0 -43 -11t-68 -37l-33 70l138 90q47 32 88.5 48t74.5 16q61 0 97.5 -39t36.5 -105q0 -49 -45 -228q-18 -71 -27 -112
q-28 -115 -39.5 -176t-11.5 -88q0 -28 10 -43.5t29 -15.5t49 20t82 68zM383 1530l147 -418l-90 -27l-240 367z" />
    <glyph glyph-name="iacute" unicode="&#xed;" horiz-adv-x="627" 
d="M498 250l34 -78q-127 -119 -193 -160t-122 -41q-61 0 -96 43t-35 119q0 65 55 284q7 28 10 41q28 111 42 180t14 99q0 25 -13 40.5t-34 15.5q-17 0 -43 -11t-68 -37l-33 70l138 90q47 32 88.5 48t74.5 16q61 0 97.5 -39t36.5 -105q0 -49 -45 -228q-18 -71 -27 -112
q-28 -115 -39.5 -176t-11.5 -88q0 -28 10 -43.5t29 -15.5t49 20t82 68zM503 1530l177 -86l-357 -359l-80 35z" />
    <glyph glyph-name="icircumflex" unicode="&#xee;" horiz-adv-x="627" 
d="M498 250l34 -78q-127 -119 -193 -160t-122 -41q-61 0 -96 43t-35 119q0 65 55 284q7 28 10 41q28 111 42 180t14 99q0 25 -13 40.5t-34 15.5q-17 0 -43 -11t-68 -37l-33 70l138 90q47 32 88.5 48t74.5 16q61 0 97.5 -39t36.5 -105q0 -49 -45 -228q-18 -71 -27 -112
q-28 -115 -39.5 -176t-11.5 -88q0 -28 10 -43.5t29 -15.5t49 20t82 68zM391 1456h119l215 -328l-84 -38l-220 184l-301 -189l-77 54z" />
    <glyph glyph-name="idieresis" unicode="&#xef;" horiz-adv-x="627" 
d="M498 250l34 -78q-127 -119 -193 -160t-122 -41q-61 0 -96 43t-35 119q0 65 55 284q7 28 10 41q28 111 42 180t14 99q0 25 -13 40.5t-34 15.5q-17 0 -43 -11t-68 -37l-33 70l138 90q47 32 88.5 48t74.5 16q61 0 97.5 -39t36.5 -105q0 -49 -45 -228q-18 -71 -27 -112
q-28 -115 -39.5 -176t-11.5 -88q0 -28 10 -43.5t29 -15.5t49 20t82 68zM647 1393q42 0 82.5 -45.5t40.5 -92.5q0 -39 -49.5 -77.5t-98.5 -38.5q-44 0 -83.5 44t-39.5 87q0 42 49.5 82.5t98.5 40.5zM219 1393q42 0 82.5 -45t40.5 -93q0 -38 -49.5 -77t-98.5 -39q-43 0 -83 44
t-40 87q0 42 50 82.5t98 40.5z" />
    <glyph glyph-name="eth" unicode="&#xf0;" horiz-adv-x="1028" 
d="M709 813q-31 26 -63 39.5t-64 13.5q-138 0 -225 -149.5t-87 -386.5q0 -115 41 -176.5t117 -61.5q121 0 202 183.5t81 459.5q0 31 -0.5 47.5t-1.5 30.5zM440 1585q49 -33 107.5 -82.5t122.5 -111.5q41 25 88 55t104 67l53 -79q-43 -26 -89.5 -54t-96.5 -59
q112 -139 166.5 -288t54.5 -312q0 -313 -173 -532.5t-410 -219.5q-158 0 -250 105.5t-92 287.5q0 101 32 196t95 179q83 113 191.5 175.5t221.5 62.5q29 0 60.5 -5t70.5 -16q-16 65 -47 131.5t-80 141.5q-55 -33 -102.5 -62.5t-89.5 -56.5l-51 76q49 29 96 58t92 58
q-47 55 -103 106.5t-122 102.5z" />
    <glyph glyph-name="ntilde" unicode="&#xf1;" horiz-adv-x="1130" 
d="M406 701l137 126q98 92 146.5 118t98.5 26q80 0 126.5 -55t46.5 -150q0 -94 -44.5 -282.5t-44.5 -266.5q0 -28 9.5 -42.5t27.5 -14.5q12 0 28 8t32 22l63 58l35 -74l-92 -84q-66 -59 -114 -87t-85 -28q-64 0 -100.5 48.5t-36.5 134.5t43 271.5t43 268.5q0 33 -17 52.5
t-44 19.5q-52 0 -216 -142q-40 -35 -63 -55l-63 -344q-15 -76 -21.5 -121t-9.5 -85l-250 -48q63 272 99 466t36 257q0 41 -13.5 63.5t-37.5 22.5q-18 0 -92 -43l-7 -3l-30 71q27 18 75 51q158 111 224 111q52 0 86.5 -47t34.5 -121q0 -20 -2.5 -45.5t-7.5 -56.5zM942 1434
l64 -41q-48 -81 -108.5 -142t-137.5 -108q-57 13 -153 42t-130 29q-45 0 -87.5 -25.5t-94.5 -86.5l-57 45q55 80 116.5 140t132.5 104q57 -13 149 -41.5t126 -28.5q49 0 94 28t86 85z" />
    <glyph glyph-name="ograve" unicode="&#xf2;" horiz-adv-x="1040" 
d="M430 88q114 0 192 153t78 377q0 115 -39 174.5t-114 59.5q-118 0 -197.5 -149.5t-79.5 -376.5q0 -117 41 -177.5t119 -60.5zM23 344q0 136 56.5 263t160.5 222q77 72 167.5 109t186.5 37q165 0 259.5 -99t94.5 -272q0 -258 -167.5 -447.5t-401.5 -189.5
q-165 0 -260.5 101.5t-95.5 275.5zM588 1530l147 -418l-90 -27l-240 367z" />
    <glyph glyph-name="oacute" unicode="&#xf3;" horiz-adv-x="1040" 
d="M430 88q114 0 192 153t78 377q0 115 -39 174.5t-114 59.5q-118 0 -197.5 -149.5t-79.5 -376.5q0 -117 41 -177.5t119 -60.5zM23 344q0 136 56.5 263t160.5 222q77 72 167.5 109t186.5 37q165 0 259.5 -99t94.5 -272q0 -258 -167.5 -447.5t-401.5 -189.5
q-165 0 -260.5 101.5t-95.5 275.5zM708 1530l177 -86l-357 -359l-80 35z" />
    <glyph glyph-name="ocircumflex" unicode="&#xf4;" horiz-adv-x="1040" 
d="M430 88q114 0 192 153t78 377q0 115 -39 174.5t-114 59.5q-118 0 -197.5 -149.5t-79.5 -376.5q0 -117 41 -177.5t119 -60.5zM23 344q0 136 56.5 263t160.5 222q77 72 167.5 109t186.5 37q165 0 259.5 -99t94.5 -272q0 -258 -167.5 -447.5t-401.5 -189.5
q-165 0 -260.5 101.5t-95.5 275.5zM596 1456h119l215 -328l-84 -38l-220 184l-301 -189l-77 54z" />
    <glyph glyph-name="otilde" unicode="&#xf5;" horiz-adv-x="1040" 
d="M430 88q114 0 192 153t78 377q0 115 -39 174.5t-114 59.5q-118 0 -197.5 -149.5t-79.5 -376.5q0 -117 41 -177.5t119 -60.5zM23 344q0 136 56.5 263t160.5 222q77 72 167.5 109t186.5 37q165 0 259.5 -99t94.5 -272q0 -258 -167.5 -447.5t-401.5 -189.5
q-165 0 -260.5 101.5t-95.5 275.5zM948 1434l64 -41q-48 -81 -108.5 -142t-137.5 -108q-57 13 -153 42t-130 29q-45 0 -87.5 -25.5t-94.5 -86.5l-57 45q55 80 116.5 140t132.5 104q57 -13 149 -41.5t126 -28.5q49 0 94 28t86 85z" />
    <glyph glyph-name="odieresis" unicode="&#xf6;" horiz-adv-x="1040" 
d="M430 88q114 0 192 153t78 377q0 115 -39 174.5t-114 59.5q-118 0 -197.5 -149.5t-79.5 -376.5q0 -117 41 -177.5t119 -60.5zM23 344q0 136 56.5 263t160.5 222q77 72 167.5 109t186.5 37q165 0 259.5 -99t94.5 -272q0 -258 -167.5 -447.5t-401.5 -189.5
q-165 0 -260.5 101.5t-95.5 275.5zM852 1393q42 0 82.5 -45.5t40.5 -92.5q0 -39 -49.5 -77.5t-98.5 -38.5q-44 0 -83.5 44t-39.5 87q0 42 49.5 82.5t98.5 40.5zM424 1393q42 0 82.5 -45t40.5 -93q0 -38 -49.5 -77t-98.5 -39q-43 0 -83 44t-40 87q0 42 50 82.5t98 40.5z" />
    <glyph glyph-name="divide" unicode="&#xf7;" horiz-adv-x="1706" 
d="M854 367q57 0 97 -40.5t40 -97.5q0 -56 -39.5 -95.5t-97.5 -39.5t-97.5 39t-39.5 96t40.5 97.5t96.5 40.5zM1452 694v-166h-1198v166h1198zM854 1128q57 0 97 -41t40 -98q0 -56 -39.5 -95.5t-97.5 -39.5t-97.5 39t-39.5 96t40.5 98t96.5 41z" />
    <glyph glyph-name="oslash" unicode="&#xf8;" horiz-adv-x="1040" 
d="M668 801q-23 28 -53.5 42.5t-67.5 14.5q-123 0 -205 -147.5t-82 -372.5q0 -31 3.5 -60t11.5 -58q142 209 228.5 337t164.5 244zM705 719q-89 -125 -189 -272.5t-207 -309.5q17 -24 49 -38.5t70 -14.5q124 0 204.5 151.5t80.5 385.5q0 41 -2 61t-6 37zM858 1083l76 -47
l-103 -143q60 -52 88.5 -123t28.5 -166q0 -116 -44.5 -235t-123.5 -211q-81 -95 -183.5 -143t-225.5 -48q-45 0 -84 8.5t-72 24.5l-96 -143l-74 47l100 141q-62 55 -92 128t-30 169q0 254 173.5 443.5t401.5 189.5q50 0 91 -9t71 -26z" />
    <glyph glyph-name="ugrave" unicode="&#xf9;" horiz-adv-x="1126" 
d="M1063 172l-129 -113q-50 -42 -89 -62t-75 -20q-59 0 -96 47.5t-37 125.5q0 26 2 53t6 53q-178 -173 -260.5 -230t-138.5 -57q-67 0 -112.5 60t-45.5 153q0 82 57 305q7 27 11 42q25 99 36 147t11 63q0 27 -10 41.5t-29 14.5q-14 0 -49 -14t-76 -38l-27 70l33 21
q206 133 262 133t90.5 -42.5t34.5 -111.5q0 -85 -53 -276t-53 -271q0 -40 14 -60t43 -20q33 0 102 50t174 151q25 115 48 243.5t49 287.5l250 49q-11 -40 -31.5 -132t-48.5 -233l-25 -121q-21 -106 -31 -169.5t-10 -94.5q0 -28 9.5 -42.5t27.5 -14.5q17 0 51.5 22t83.5 66z
M631 1530l147 -418l-90 -27l-240 367z" />
    <glyph glyph-name="uacute" unicode="&#xfa;" horiz-adv-x="1126" 
d="M1063 172l-129 -113q-50 -42 -89 -62t-75 -20q-59 0 -96 47.5t-37 125.5q0 26 2 53t6 53q-178 -173 -260.5 -230t-138.5 -57q-67 0 -112.5 60t-45.5 153q0 82 57 305q7 27 11 42q25 99 36 147t11 63q0 27 -10 41.5t-29 14.5q-14 0 -49 -14t-76 -38l-27 70l33 21
q206 133 262 133t90.5 -42.5t34.5 -111.5q0 -85 -53 -276t-53 -271q0 -40 14 -60t43 -20q33 0 102 50t174 151q25 115 48 243.5t49 287.5l250 49q-11 -40 -31.5 -132t-48.5 -233l-25 -121q-21 -106 -31 -169.5t-10 -94.5q0 -28 9.5 -42.5t27.5 -14.5q17 0 51.5 22t83.5 66z
M751 1530l177 -86l-357 -359l-80 35z" />
    <glyph glyph-name="ucircumflex" unicode="&#xfb;" horiz-adv-x="1126" 
d="M1063 172l-129 -113q-50 -42 -89 -62t-75 -20q-59 0 -96 47.5t-37 125.5q0 26 2 53t6 53q-178 -173 -260.5 -230t-138.5 -57q-67 0 -112.5 60t-45.5 153q0 82 57 305q7 27 11 42q25 99 36 147t11 63q0 27 -10 41.5t-29 14.5q-14 0 -49 -14t-76 -38l-27 70l33 21
q206 133 262 133t90.5 -42.5t34.5 -111.5q0 -85 -53 -276t-53 -271q0 -40 14 -60t43 -20q33 0 102 50t174 151q25 115 48 243.5t49 287.5l250 49q-11 -40 -31.5 -132t-48.5 -233l-25 -121q-21 -106 -31 -169.5t-10 -94.5q0 -28 9.5 -42.5t27.5 -14.5q17 0 51.5 22t83.5 66z
M639 1456h119l215 -328l-84 -38l-220 184l-301 -189l-77 54z" />
    <glyph glyph-name="udieresis" unicode="&#xfc;" horiz-adv-x="1126" 
d="M1063 172l-129 -113q-50 -42 -89 -62t-75 -20q-59 0 -96 47.5t-37 125.5q0 26 2 53t6 53q-178 -173 -260.5 -230t-138.5 -57q-67 0 -112.5 60t-45.5 153q0 82 57 305q7 27 11 42q25 99 36 147t11 63q0 27 -10 41.5t-29 14.5q-14 0 -49 -14t-76 -38l-27 70l33 21
q206 133 262 133t90.5 -42.5t34.5 -111.5q0 -85 -53 -276t-53 -271q0 -40 14 -60t43 -20q33 0 102 50t174 151q25 115 48 243.5t49 287.5l250 49q-11 -40 -31.5 -132t-48.5 -233l-25 -121q-21 -106 -31 -169.5t-10 -94.5q0 -28 9.5 -42.5t27.5 -14.5q17 0 51.5 22t83.5 66z
M895 1393q42 0 82.5 -45.5t40.5 -92.5q0 -39 -49.5 -77.5t-98.5 -38.5q-44 0 -83.5 44t-39.5 87q0 42 49.5 82.5t98.5 40.5zM467 1393q42 0 82.5 -45t40.5 -93q0 -38 -49.5 -77t-98.5 -39q-43 0 -83 44t-40 87q0 42 50 82.5t98 40.5z" />
    <glyph glyph-name="yacute" unicode="&#xfd;" horiz-adv-x="983" 
d="M-96 -285q32 -43 66.5 -64.5t72.5 -21.5q96 0 166 135.5t70 344.5q0 296 -37 474.5t-97 178.5q-15 0 -36.5 -20.5t-67.5 -82.5l-51 64q110 155 163.5 203.5t102.5 48.5q102 0 157.5 -175t55.5 -501q0 -40 -2 -93.5t-6 -115.5q169 346 215.5 466t46.5 179q0 36 -13 61
t-40 44l63 73q28 33 52.5 47.5t52.5 14.5q37 0 58.5 -28t21.5 -77q0 -86 -108 -317.5t-290 -529.5q-176 -292 -313 -425t-260 -133q-66 0 -108 32t-42 83q0 21 10 39t37 43zM682 1530l177 -86l-357 -359l-80 35z" />
    <glyph glyph-name="thorn" unicode="&#xfe;" horiz-adv-x="1069" 
d="M307 164q46 -32 90.5 -50t79.5 -18q110 0 186 154t76 379q0 80 -22.5 121t-67.5 41q-58 0 -252 -181l-24 -22zM397 715q152 164 220 208t137 44q102 0 164.5 -90.5t62.5 -243.5q0 -119 -48 -247.5t-128 -223.5q-77 -91 -166.5 -139t-181.5 -48q-43 0 -85 11.5t-87 36.5
l-47 -303q-3 -20 -5 -37t-2 -29q0 -50 24.5 -68t96.5 -18h37l-17 -84q-101 5 -166.5 7.5t-111.5 2.5q-42 0 -99.5 -2t-156.5 -8l15 84h43q53 0 78 28.5t40 112.5l187 1104l6 38q78 466 78 511q0 29 -16.5 45t-47.5 16q-12 0 -46 -3q-8 0 -13 -1l-8 76q94 10 195 26.5
t212 39.5q-36 -180 -77.5 -395t-86.5 -451z" />
    <glyph glyph-name="ydieresis" unicode="&#xff;" horiz-adv-x="983" 
d="M-96 -285q32 -43 66.5 -64.5t72.5 -21.5q96 0 166 135.5t70 344.5q0 296 -37 474.5t-97 178.5q-15 0 -36.5 -20.5t-67.5 -82.5l-51 64q110 155 163.5 203.5t102.5 48.5q102 0 157.5 -175t55.5 -501q0 -40 -2 -93.5t-6 -115.5q169 346 215.5 466t46.5 179q0 36 -13 61
t-40 44l63 73q28 33 52.5 47.5t52.5 14.5q37 0 58.5 -28t21.5 -77q0 -86 -108 -317.5t-290 -529.5q-176 -292 -313 -425t-260 -133q-66 0 -108 32t-42 83q0 21 10 39t37 43zM826 1393q42 0 82.5 -45.5t40.5 -92.5q0 -39 -49.5 -77.5t-98.5 -38.5q-44 0 -83.5 44t-39.5 87
q0 42 49.5 82.5t98.5 40.5zM398 1393q42 0 82.5 -45t40.5 -93q0 -38 -49.5 -77t-98.5 -39q-43 0 -83 44t-40 87q0 42 50 82.5t98 40.5z" />
    <glyph glyph-name="Amacron" unicode="&#x100;" horiz-adv-x="1513" 
d="M504 608h119q118 0 176 0.5t108 2.5l-84 550zM-92 84q16 -3 22.5 -3.5t12.5 -0.5q101 0 242 238q37 63 59 98l274 450q107 176 186 314t113 209h221q8 -83 20.5 -170t37.5 -226l98 -569q5 -28 13 -77q43 -265 141 -265q12 0 18.5 0.5t11.5 1.5l-12 -84q-93 6 -163 9
t-116 3q-53 0 -125.5 -3t-166.5 -9l14 84h27q77 0 105 22.5t28 83.5q0 13 -1 24t-3 24l-39 258q-64 1 -147 2.5t-97 1.5q-64 0 -122 -0.5t-122 -2.5l-123 -223q-24 -44 -35.5 -74.5t-11.5 -52.5q0 -30 28 -46.5t79 -16.5h22l-14 -84q-81 6 -142.5 9t-103.5 3q-41 0 -101 -3
t-142 -9zM670 1768h612l-27 -154h-614z" />
    <glyph glyph-name="amacron" unicode="&#x101;" horiz-adv-x="1073" 
d="M692 801q-36 25 -68.5 36t-66.5 11q-114 0 -208.5 -168t-94.5 -383q0 -69 18 -104t54 -35q31 0 102.5 53.5t187.5 165.5q15 72 33 171.5t43 252.5zM950 991q-65 -333 -95 -516t-30 -250q0 -31 10.5 -47t30.5 -16q15 0 38.5 16t90.5 76l33 -80l-67 -63q-84 -78 -135 -110
t-91 -32q-64 0 -98.5 48.5t-34.5 138.5q0 16 1.5 40.5t4.5 54.5q-178 -167 -261.5 -221.5t-147.5 -54.5q-84 0 -132.5 73t-48.5 200t41 245t119 220q94 122 209.5 189t233.5 67q39 0 78 -8.5t81 -26.5zM347 1319h612l-27 -154h-614z" />
    <glyph glyph-name="Abreve" unicode="&#x102;" horiz-adv-x="1513" 
d="M504 608h119q118 0 176 0.5t108 2.5l-84 550zM-92 84q16 -3 22.5 -3.5t12.5 -0.5q101 0 242 238q37 63 59 98l274 450q107 176 186 314t113 209h221q8 -83 20.5 -170t37.5 -226l98 -569q5 -28 13 -77q43 -265 141 -265q12 0 18.5 0.5t11.5 1.5l-12 -84q-93 6 -163 9
t-116 3q-53 0 -125.5 -3t-166.5 -9l14 84h27q77 0 105 22.5t28 83.5q0 13 -1 24t-3 24l-39 258q-64 1 -147 2.5t-97 1.5q-64 0 -122 -0.5t-122 -2.5l-123 -223q-24 -44 -35.5 -74.5t-11.5 -52.5q0 -30 28 -46.5t79 -16.5h22l-14 -84q-81 6 -142.5 9t-103.5 3q-41 0 -101 -3
t-142 -9zM667 1872l91 29q18 -103 70 -154t138 -51q83 0 146.5 53.5t99.5 153.5l94 -35q-60 -163 -153.5 -248.5t-212.5 -85.5q-118 0 -187.5 87t-85.5 251z" />
    <glyph glyph-name="abreve" unicode="&#x103;" horiz-adv-x="1073" 
d="M692 801q-36 25 -68.5 36t-66.5 11q-114 0 -208.5 -168t-94.5 -383q0 -69 18 -104t54 -35q31 0 102.5 53.5t187.5 165.5q15 72 33 171.5t43 252.5zM950 991q-65 -333 -95 -516t-30 -250q0 -31 10.5 -47t30.5 -16q15 0 38.5 16t90.5 76l33 -80l-67 -63q-84 -78 -135 -110
t-91 -32q-64 0 -98.5 48.5t-34.5 138.5q0 16 1.5 40.5t4.5 54.5q-178 -167 -261.5 -221.5t-147.5 -54.5q-84 0 -132.5 73t-48.5 200t41 245t119 220q94 122 209.5 189t233.5 67q39 0 78 -8.5t81 -26.5zM344 1423l91 29q18 -103 70 -154t138 -51q83 0 146.5 53.5t99.5 153.5
l94 -35q-60 -163 -153.5 -248.5t-212.5 -85.5q-118 0 -187.5 87t-85.5 251z" />
    <glyph glyph-name="Aogonek" unicode="&#x104;" horiz-adv-x="1513" 
d="M504 608h119q118 0 176 0.5t108 2.5l-84 550zM-92 84q16 -3 22.5 -3.5t12.5 -0.5q101 0 242 238q37 63 59 98l274 450q107 176 186 314t113 209h221q8 -83 20.5 -170t37.5 -226l98 -569q5 -28 13 -77q43 -265 141 -265q12 0 18.5 0.5t11.5 1.5l-12 -84q-23 2 -45.5 3
t-44.5 1q-76 -68 -112 -122t-36 -101q0 -43 25.5 -68.5t67.5 -25.5q24 0 56 16t69 47l43 -74q-69 -60 -137 -91t-130 -31q-73 0 -118.5 43.5t-45.5 113.5t53 146t156 155h-80q-53 0 -125.5 -3t-166.5 -9l14 84h27q77 0 105 22.5t28 83.5q0 13 -1 24t-3 24l-39 258
q-64 1 -147 2.5t-97 1.5q-64 0 -122 -0.5t-122 -2.5l-123 -223q-24 -44 -35.5 -74.5t-11.5 -52.5q0 -30 28 -46.5t79 -16.5h22l-14 -84q-81 6 -142.5 9t-103.5 3q-41 0 -101 -3t-142 -9z" />
    <glyph glyph-name="aogonek" unicode="&#x105;" horiz-adv-x="1073" 
d="M616 377q15 72 33 171.5t43 252.5q-36 25 -68.5 36t-66.5 11q-114 0 -208.5 -168t-94.5 -383q0 -69 18 -104t54 -35q31 0 103 54t187 165zM1028 174l-67 -61q-21 -19 -61 -54q-206 -183 -206 -278q0 -42 24.5 -68t63.5 -26q26 0 57.5 15.5t69.5 47.5l43 -74
q-72 -61 -139 -93t-125 -32q-73 0 -119.5 45t-46.5 113q0 61 39.5 124.5t128.5 143.5q-39 10 -63.5 59t-24.5 120q0 12 1.5 36.5t4.5 58.5q-178 -167 -261.5 -221.5t-147.5 -54.5q-84 0 -132.5 73t-48.5 200t41 245t119 220q94 122 209.5 189t233.5 67q39 0 78 -8.5
t81 -26.5l170 57q-65 -333 -95 -516t-30 -250q0 -31 10.5 -47t30.5 -16q15 0 38.5 16t90.5 76z" />
    <glyph glyph-name="Cacute" unicode="&#x106;" horiz-adv-x="1391" 
d="M1167 88q-132 -67 -246 -99t-225 -32q-277 0 -446.5 168.5t-169.5 443.5q0 168 68.5 327t191.5 278q118 113 269.5 173t322.5 60q113 0 217 -25t211 -77q-26 -88 -43.5 -174t-28.5 -170l-90 12q3 25 4.5 41.5t1.5 23.5q0 106 -85 162.5t-242 56.5q-234 0 -372 -180
t-138 -485q0 -227 103.5 -355t287.5 -128q143 0 243.5 71.5t139.5 200.5l86 -19q-22 -76 -36.5 -143.5t-23.5 -130.5zM1026 1979l177 -86l-357 -359l-80 35z" />
    <glyph glyph-name="cacute" unicode="&#x107;" horiz-adv-x="829" 
d="M719 762l-64 -55q-54 67 -93 93.5t-79 26.5q-99 0 -160 -124.5t-61 -329.5q0 -108 35 -167t98 -59q42 0 105 41t147 121l45 -92q-128 -133 -223 -191.5t-180 -58.5q-119 0 -195 101.5t-76 265.5q0 130 52 256.5t145 222.5q78 81 169.5 121.5t197.5 40.5q82 0 136 -36
t54 -89q0 -24 -12 -44t-41 -44zM606 1530l177 -86l-357 -359l-80 35z" />
    <glyph glyph-name="Ccircumflex" unicode="&#x108;" horiz-adv-x="1391" 
d="M1167 88q-132 -67 -246 -99t-225 -32q-277 0 -446.5 168.5t-169.5 443.5q0 168 68.5 327t191.5 278q118 113 269.5 173t322.5 60q113 0 217 -25t211 -77q-26 -88 -43.5 -174t-28.5 -170l-90 12q3 25 4.5 41.5t1.5 23.5q0 106 -85 162.5t-242 56.5q-234 0 -372 -180
t-138 -485q0 -227 103.5 -355t287.5 -128q143 0 243.5 71.5t139.5 200.5l86 -19q-22 -76 -36.5 -143.5t-23.5 -130.5zM914 1905h119l215 -328l-84 -38l-220 184l-301 -189l-77 54z" />
    <glyph glyph-name="ccircumflex" unicode="&#x109;" horiz-adv-x="829" 
d="M719 762l-64 -55q-54 67 -93 93.5t-79 26.5q-99 0 -160 -124.5t-61 -329.5q0 -108 35 -167t98 -59q42 0 105 41t147 121l45 -92q-128 -133 -223 -191.5t-180 -58.5q-119 0 -195 101.5t-76 265.5q0 130 52 256.5t145 222.5q78 81 169.5 121.5t197.5 40.5q82 0 136 -36
t54 -89q0 -24 -12 -44t-41 -44zM494 1456h119l215 -328l-84 -38l-220 184l-301 -189l-77 54z" />
    <glyph glyph-name="Cdotaccent" unicode="&#x10a;" horiz-adv-x="1391" 
d="M1167 88q-132 -67 -246 -99t-225 -32q-277 0 -446.5 168.5t-169.5 443.5q0 168 68.5 327t191.5 278q118 113 269.5 173t322.5 60q113 0 217 -25t211 -77q-26 -88 -43.5 -174t-28.5 -170l-90 12q3 25 4.5 41.5t1.5 23.5q0 106 -85 162.5t-242 56.5q-234 0 -372 -180
t-138 -485q0 -227 103.5 -355t287.5 -128q143 0 243.5 71.5t139.5 200.5l86 -19q-22 -76 -36.5 -143.5t-23.5 -130.5zM961 1848q44 0 86.5 -49t42.5 -97q0 -39 -52.5 -79.5t-103.5 -40.5q-45 0 -86 46t-41 91q0 44 51.5 86.5t102.5 42.5z" />
    <glyph glyph-name="cdotaccent" unicode="&#x10b;" horiz-adv-x="829" 
d="M719 762l-64 -55q-54 67 -93 93.5t-79 26.5q-99 0 -160 -124.5t-61 -329.5q0 -108 35 -167t98 -59q42 0 105 41t147 121l45 -92q-128 -133 -223 -191.5t-180 -58.5q-119 0 -195 101.5t-76 265.5q0 130 52 256.5t145 222.5q78 81 169.5 121.5t197.5 40.5q82 0 136 -36
t54 -89q0 -24 -12 -44t-41 -44zM541 1399q44 0 86.5 -49t42.5 -97q0 -39 -52.5 -79.5t-103.5 -40.5q-45 0 -86 46t-41 91q0 44 51.5 86.5t102.5 42.5z" />
    <glyph glyph-name="Ccaron" unicode="&#x10c;" horiz-adv-x="1391" 
d="M1167 88q-132 -67 -246 -99t-225 -32q-277 0 -446.5 168.5t-169.5 443.5q0 168 68.5 327t191.5 278q118 113 269.5 173t322.5 60q113 0 217 -25t211 -77q-26 -88 -43.5 -174t-28.5 -170l-90 12q3 25 4.5 41.5t1.5 23.5q0 106 -85 162.5t-242 56.5q-234 0 -372 -180
t-138 -485q0 -227 103.5 -355t287.5 -128q143 0 243.5 71.5t139.5 200.5l86 -19q-22 -76 -36.5 -143.5t-23.5 -130.5zM975 1534h-121l-215 326l86 41l217 -186l304 188l77 -53z" />
    <glyph glyph-name="ccaron" unicode="&#x10d;" horiz-adv-x="829" 
d="M719 762l-64 -55q-54 67 -93 93.5t-79 26.5q-99 0 -160 -124.5t-61 -329.5q0 -108 35 -167t98 -59q42 0 105 41t147 121l45 -92q-128 -133 -223 -191.5t-180 -58.5q-119 0 -195 101.5t-76 265.5q0 130 52 256.5t145 222.5q78 81 169.5 121.5t197.5 40.5q82 0 136 -36
t54 -89q0 -24 -12 -44t-41 -44zM555 1085h-121l-215 326l86 41l217 -186l304 188l77 -53z" />
    <glyph glyph-name="Dcaron" unicode="&#x10e;" horiz-adv-x="1569" 
d="M404 145q69 -11 111.5 -15.5t74.5 -4.5q154 0 254.5 33t173.5 106q83 85 131.5 225t48.5 297q0 222 -115 335.5t-340 113.5q-39 0 -132 -7q-16 -1 -23 -1q-57 -294 -103 -564t-81 -518zM-29 83q7 0 14.5 -0.5t20.5 -0.5q74 0 109.5 54t74.5 288l105 620q12 68 16 103
t4 55q0 39 -27.5 57.5t-86.5 18.5h-21l15 86q87 -6 141 -8t94 -2q94 0 216 5t149 5q336 0 512 -143t176 -416q0 -164 -63.5 -316t-178.5 -264q-115 -113 -271 -169t-356 -56q-47 0 -189.5 6t-236.5 6q-17 0 -72.5 -3t-160.5 -9zM999 1534h-121l-215 326l86 41l217 -186
l304 188l77 -53z" />
    <glyph glyph-name="dcaron" unicode="&#x10f;" horiz-adv-x="1411" 
d="M629 362l69 422q-55 36 -93.5 51t-72.5 15q-113 0 -190.5 -151t-77.5 -375q0 -83 20 -124.5t60 -41.5q32 0 104.5 52t180.5 152zM627 246l-152 -137q-80 -73 -135 -102.5t-107 -29.5q-93 0 -150.5 81t-57.5 214q0 286 157 493.5t369 207.5q46 0 88.5 -11t87.5 -34l47 299
q6 39 9 68t3 42q0 52 -16.5 70t-62.5 18q-6 0 -25 -1.5t-31 -2.5l-6 82q109 8 213 22.5t203 35.5q-96 -479 -154.5 -844t-58.5 -461q0 -52 9.5 -72t31.5 -20q8 0 26 10t39 27l60 49l33 -76l-119 -108q-56 -53 -98 -77t-78 -24q-61 0 -96 56.5t-35 154.5q0 12 2.5 36t3.5 34z
M1389 1409l55 -57q31 -32 45 -61t14 -62q0 -87 -83 -189t-226 -186l-55 64q92 65 127 107t35 83q0 30 -35 79t-35 75q0 30 16 52.5t54 43.5z" />
    <glyph glyph-name="Dcroat" unicode="&#x110;" horiz-adv-x="1575" 
d="M416 146q69 -12 111.5 -16.5t74.5 -4.5q154 0 254.5 33t173.5 106q84 85 133 225.5t49 296.5q0 222 -115 335.5t-339 113.5q-39 0 -133 -7q-15 -1 -23 -1q-25 -133 -54 -287.5t-34 -179.5h98q97 0 147 0.5t92 1.5l-22 -109q-64 1 -121.5 1.5t-109.5 0.5h-102
q-10 -59 -27 -167.5t-53 -341.5zM-16 84q6 -1 13.5 -1.5t22.5 -0.5q75 0 110 54t75 288l39 229q-38 0 -85 2h-16h-18q-53 -2 -98 -2l21 109q44 -1 91.5 -1.5t122.5 -0.5l55 317q6 32 9.5 58t3.5 45q0 56 -27.5 78t-97.5 22h-12l16 84q79 -5 135 -7.5t100 -2.5q95 0 216.5 5
t148.5 5q336 0 511 -143t175 -416q0 -164 -63 -316t-179 -264q-115 -113 -270 -169t-354 -56q-48 0 -190.5 6t-235.5 6q-18 0 -76 -3t-160 -9z" />
    <glyph glyph-name="dcroat" unicode="&#x111;" horiz-adv-x="1114" 
d="M629 362l69 422q-55 36 -93.5 51t-72.5 15q-113 0 -190.5 -151t-77.5 -375q0 -83 20 -124.5t60 -41.5q32 0 104.5 52t180.5 152zM627 246l-152 -137q-80 -73 -135 -102.5t-107 -29.5q-93 0 -150.5 81t-57.5 214q0 286 157 493.5t369 207.5q46 0 88.5 -11t87.5 -34l35 217
h-115h-137l15 98q57 -1 120 -2.5t131 -3.5l6 40q2 12 3 27t1 46q0 41 -18 58t-61 17q-6 0 -25 -1.5t-31 -2.5l-6 82q109 8 213 22.5t203 35.5q-28 -137 -63 -319l-1 -5q78 0 117 0.5t71 1.5l-16 -100q-30 1 -68 1.5t-120 0.5q-65 -354 -99 -581t-34 -304q0 -52 9.5 -72
t31.5 -20q8 0 26 10t39 27l60 49l33 -76l-119 -108q-56 -53 -98 -77t-78 -24q-61 0 -96 56.5t-35 154.5q0 12 2.5 36t3.5 34z" />
    <glyph glyph-name="Emacron" unicode="&#x112;" horiz-adv-x="1253" 
d="M-28 84q6 -1 14.5 -1.5t23.5 -0.5q73 0 107 50.5t73 281.5l107 630q12 68 16 103t4 55q0 40 -29 59t-89 19h-19l15 86q77 -5 170 -7.5t286 -2.5q175 0 310.5 2.5t275.5 7.5q-19 -80 -32 -158t-19 -155l-90 -4q1 9 1.5 18t0.5 25q0 84 -52.5 116.5t-193.5 32.5h-270
q-10 -55 -39 -216t-45 -255q57 -2 114.5 -3t145.5 -1q130 0 166.5 26.5t50.5 102.5l84 -12q-27 -94 -43.5 -187.5t-22.5 -185.5l-83 -2q0 13 0.5 25.5t0.5 25.5q0 56 -37.5 75t-187.5 19h-88h-63h-56q-22 -124 -43.5 -252.5t-42.5 -261.5q69 -6 145 -9t177 -3
q177 0 237 44.5t95 180.5l90 -14q-25 -89 -42.5 -173t-29.5 -165q-155 6 -304 9t-290 3q-114 0 -242.5 -3t-273.5 -9zM506 1768h612l-27 -154h-614z" />
    <glyph glyph-name="emacron" unicode="&#x113;" horiz-adv-x="862" 
d="M258 465l10 5q322 162 322 261q0 48 -35 84.5t-82 36.5q-76 0 -133 -101.5t-82 -285.5zM553 510l-299 -143v-27q0 -94 37.5 -147.5t103.5 -53.5q49 0 116 38.5t169 125.5l39 -84q-138 -130 -242 -190t-190 -60q-123 0 -198 96t-75 257q0 104 40 223t106 209
q77 106 175.5 163.5t201.5 57.5q109 0 183.5 -65.5t74.5 -157.5q0 -124 -238 -240zM244 1319h612l-27 -154h-614z" />
    <glyph glyph-name="Ebreve" unicode="&#x114;" horiz-adv-x="1253" 
d="M-28 84q6 -1 14.5 -1.5t23.5 -0.5q73 0 107 50.5t73 281.5l107 630q12 68 16 103t4 55q0 40 -29 59t-89 19h-19l15 86q77 -5 170 -7.5t286 -2.5q175 0 310.5 2.5t275.5 7.5q-19 -80 -32 -158t-19 -155l-90 -4q1 9 1.5 18t0.5 25q0 84 -52.5 116.5t-193.5 32.5h-270
q-10 -55 -39 -216t-45 -255q57 -2 114.5 -3t145.5 -1q130 0 166.5 26.5t50.5 102.5l84 -12q-27 -94 -43.5 -187.5t-22.5 -185.5l-83 -2q0 13 0.5 25.5t0.5 25.5q0 56 -37.5 75t-187.5 19h-88h-63h-56q-22 -124 -43.5 -252.5t-42.5 -261.5q69 -6 145 -9t177 -3
q177 0 237 44.5t95 180.5l90 -14q-25 -89 -42.5 -173t-29.5 -165q-155 6 -304 9t-290 3q-114 0 -242.5 -3t-273.5 -9zM503 1872l91 29q18 -103 70 -154t138 -51q83 0 146.5 53.5t99.5 153.5l94 -35q-60 -163 -153.5 -248.5t-212.5 -85.5q-118 0 -187.5 87t-85.5 251z" />
    <glyph glyph-name="ebreve" unicode="&#x115;" horiz-adv-x="862" 
d="M258 465l10 5q322 162 322 261q0 48 -35 84.5t-82 36.5q-76 0 -133 -101.5t-82 -285.5zM553 510l-299 -143v-27q0 -94 37.5 -147.5t103.5 -53.5q49 0 116 38.5t169 125.5l39 -84q-138 -130 -242 -190t-190 -60q-123 0 -198 96t-75 257q0 104 40 223t106 209
q77 106 175.5 163.5t201.5 57.5q109 0 183.5 -65.5t74.5 -157.5q0 -124 -238 -240zM241 1423l91 29q18 -103 70 -154t138 -51q83 0 146.5 53.5t99.5 153.5l94 -35q-60 -163 -153.5 -248.5t-212.5 -85.5q-118 0 -187.5 87t-85.5 251z" />
    <glyph glyph-name="Edotaccent" unicode="&#x116;" horiz-adv-x="1253" 
d="M-28 84q6 -1 14.5 -1.5t23.5 -0.5q73 0 107 50.5t73 281.5l107 630q12 68 16 103t4 55q0 40 -29 59t-89 19h-19l15 86q77 -5 170 -7.5t286 -2.5q175 0 310.5 2.5t275.5 7.5q-19 -80 -32 -158t-19 -155l-90 -4q1 9 1.5 18t0.5 25q0 84 -52.5 116.5t-193.5 32.5h-270
q-10 -55 -39 -216t-45 -255q57 -2 114.5 -3t145.5 -1q130 0 166.5 26.5t50.5 102.5l84 -12q-27 -94 -43.5 -187.5t-22.5 -185.5l-83 -2q0 13 0.5 25.5t0.5 25.5q0 56 -37.5 75t-187.5 19h-88h-63h-56q-22 -124 -43.5 -252.5t-42.5 -261.5q69 -6 145 -9t177 -3
q177 0 237 44.5t95 180.5l90 -14q-25 -89 -42.5 -173t-29.5 -165q-155 6 -304 9t-290 3q-114 0 -242.5 -3t-273.5 -9zM819 1848q44 0 86.5 -49t42.5 -97q0 -39 -52.5 -79.5t-103.5 -40.5q-45 0 -86 46t-41 91q0 44 51.5 86.5t102.5 42.5z" />
    <glyph glyph-name="edotaccent" unicode="&#x117;" horiz-adv-x="862" 
d="M258 465l10 5q322 162 322 261q0 48 -35 84.5t-82 36.5q-76 0 -133 -101.5t-82 -285.5zM553 510l-299 -143v-27q0 -94 37.5 -147.5t103.5 -53.5q49 0 116 38.5t169 125.5l39 -84q-138 -130 -242 -190t-190 -60q-123 0 -198 96t-75 257q0 104 40 223t106 209
q77 106 175.5 163.5t201.5 57.5q109 0 183.5 -65.5t74.5 -157.5q0 -124 -238 -240zM557 1399q44 0 86.5 -49t42.5 -97q0 -39 -52.5 -79.5t-103.5 -40.5q-45 0 -86 46t-41 91q0 44 51.5 86.5t102.5 42.5z" />
    <glyph glyph-name="Eogonek" unicode="&#x118;" horiz-adv-x="1253" 
d="M-28 84q6 -1 14.5 -1.5t23.5 -0.5q73 0 107 50.5t73 281.5l111 663q6 33 9 61.5t3 45.5q0 53 -26 74.5t-94 21.5h-13l19 86q149 -8 266 -11t225 -3q87 0 227.5 3.5t319.5 10.5q-19 -80 -32 -158t-19 -155l-90 -4q1 9 1.5 18t0.5 25q0 82 -51.5 113.5t-194.5 31.5
q-103 0 -160.5 -1t-109.5 -3q-36 -190 -53 -285.5t-31 -177.5q57 -2 114.5 -3t145.5 -1q130 0 166.5 26.5t50.5 102.5l84 -12q-27 -94 -43.5 -187.5t-22.5 -185.5l-83 -2q0 13 0.5 25.5t0.5 25.5q0 56 -37.5 75t-187.5 19h-88h-63h-56q-22 -124 -43.5 -252.5t-42.5 -261.5
q69 -6 145 -9t177 -3q177 0 237 44.5t95 180.5l90 -14q-25 -89 -42.5 -173t-29.5 -165q-31 0 -82 4q-20 2 -29 2q-73 -63 -110 -119.5t-37 -105.5q0 -43 24.5 -68.5t65.5 -25.5q25 0 56 15.5t69 47.5l43 -74q-69 -60 -137 -91t-129 -31q-74 0 -119 43.5t-45 113.5
q0 69 52 145t153 152q-62 2 -136 3t-229 1q-118 0 -247.5 -3t-272.5 -9z" />
    <glyph glyph-name="eogonek" unicode="&#x119;" horiz-adv-x="862" 
d="M258 465l10 5q322 162 322 261q0 48 -35 84.5t-82 36.5q-76 0 -133 -101.5t-82 -285.5zM553 510l-299 -143v-27q0 -94 37.5 -147.5t103.5 -53.5q49 0 116 38.5t169 125.5l39 -84q-65 -58 -182 -150q-228 -178 -228 -288q0 -43 24 -68.5t64 -25.5q26 0 57.5 15.5
t69.5 47.5l43 -74q-71 -61 -137.5 -91.5t-126.5 -30.5q-74 0 -120 44t-46 117q0 60 40 123t120 129q-6 0 -14 1t-11 1q-110 0 -184 98.5t-74 254.5q0 103 40 221.5t106 210.5q77 106 175.5 163.5t201.5 57.5q109 0 183.5 -65.5t74.5 -157.5q0 -124 -238 -240z" />
    <glyph glyph-name="Ecaron" unicode="&#x11a;" horiz-adv-x="1253" 
d="M-28 84q6 -1 14.5 -1.5t23.5 -0.5q73 0 107 50.5t73 281.5l107 630q12 68 16 103t4 55q0 40 -29 59t-89 19h-19l15 86q77 -5 170 -7.5t286 -2.5q175 0 310.5 2.5t275.5 7.5q-19 -80 -32 -158t-19 -155l-90 -4q1 9 1.5 18t0.5 25q0 84 -52.5 116.5t-193.5 32.5h-270
q-10 -55 -39 -216t-45 -255q57 -2 114.5 -3t145.5 -1q130 0 166.5 26.5t50.5 102.5l84 -12q-27 -94 -43.5 -187.5t-22.5 -185.5l-83 -2q0 13 0.5 25.5t0.5 25.5q0 56 -37.5 75t-187.5 19h-88h-63h-56q-22 -124 -43.5 -252.5t-42.5 -261.5q69 -6 145 -9t177 -3
q177 0 237 44.5t95 180.5l90 -14q-25 -89 -42.5 -173t-29.5 -165q-155 6 -304 9t-290 3q-114 0 -242.5 -3t-273.5 -9zM833 1534h-121l-215 326l86 41l217 -186l304 188l77 -53z" />
    <glyph glyph-name="ecaron" unicode="&#x11b;" horiz-adv-x="862" 
d="M258 465l10 5q322 162 322 261q0 48 -35 84.5t-82 36.5q-76 0 -133 -101.5t-82 -285.5zM553 510l-299 -143v-27q0 -94 37.5 -147.5t103.5 -53.5q49 0 116 38.5t169 125.5l39 -84q-138 -130 -242 -190t-190 -60q-123 0 -198 96t-75 257q0 104 40 223t106 209
q77 106 175.5 163.5t201.5 57.5q109 0 183.5 -65.5t74.5 -157.5q0 -124 -238 -240zM571 1085h-121l-215 326l86 41l217 -186l304 188l77 -53z" />
    <glyph glyph-name="Gcircumflex" unicode="&#x11c;" horiz-adv-x="1497" 
d="M1227 57q-153 -49 -282 -74.5t-226 -25.5q-299 0 -467 162t-168 448q0 189 80.5 359t226.5 291q114 94 258.5 142t311.5 48q111 0 220.5 -23.5t225.5 -72.5q-25 -88 -42.5 -170t-27.5 -158l-94 13q3 25 4.5 40.5t1.5 20.5q0 99 -90 152t-260 53q-246 0 -388 -182.5
t-142 -495.5q0 -235 111 -360.5t319 -125.5q52 0 99 9t91 26q25 136 37 215.5t12 108.5q0 46 -27 65t-98 19h-28l18 88q78 -4 146.5 -6t121.5 -2q67 0 227 6q25 1 38 2l-15 -88q-14 2 -22 3t-13 1q-94 0 -133 -300q-15 -117 -26 -188zM903 1905h119l215 -328l-84 -38
l-220 184l-301 -189l-77 54z" />
    <glyph glyph-name="gcircumflex" unicode="&#x11d;" horiz-adv-x="1020" 
d="M322 -29q-135 -70 -180.5 -113.5t-45.5 -93.5q0 -68 82 -117.5t203 -49.5q119 0 194.5 47t75.5 118q0 80 -242 175q-56 22 -87 34zM502 881q-90 0 -151.5 -103.5t-61.5 -255.5q0 -80 32.5 -122t96.5 -42q96 0 157.5 98t61.5 251q0 85 -34.5 129.5t-100.5 44.5zM1012 967
l-39 -129q-12 -1 -26 -1.5t-42 -0.5q-37 0 -73.5 3.5t-71.5 10.5q51 -37 75.5 -84t24.5 -111q0 -114 -70 -199.5t-212 -144.5q-34 -13 -92 -36q-136 -51 -136 -76q0 -36 182 -102q24 -9 35 -13q187 -68 246 -122.5t59 -135.5q0 -143 -176 -252t-422 -109q-179 0 -291 70.5
t-112 179.5q0 80 66.5 138.5t300.5 156.5q-97 39 -132.5 66t-35.5 59q0 58 225 151q30 12 47 19q-3 0 -10 -1q-30 -3 -45 -3q-101 0 -163.5 69.5t-62.5 182.5q0 174 136 298t329 124q63 0 171 -14.5t153 -14.5q35 0 75 5t87 16zM588 1456h119l215 -328l-84 -38l-220 184
l-301 -189l-77 54z" />
    <glyph glyph-name="Gbreve" unicode="&#x11e;" horiz-adv-x="1497" 
d="M1227 57q-153 -49 -282 -74.5t-226 -25.5q-299 0 -467 162t-168 448q0 189 80.5 359t226.5 291q114 94 258.5 142t311.5 48q111 0 220.5 -23.5t225.5 -72.5q-25 -88 -42.5 -170t-27.5 -158l-94 13q3 25 4.5 40.5t1.5 20.5q0 99 -90 152t-260 53q-246 0 -388 -182.5
t-142 -495.5q0 -235 111 -360.5t319 -125.5q52 0 99 9t91 26q25 136 37 215.5t12 108.5q0 46 -27 65t-98 19h-28l18 88q78 -4 146.5 -6t121.5 -2q67 0 227 6q25 1 38 2l-15 -88q-14 2 -22 3t-13 1q-94 0 -133 -300q-15 -117 -26 -188zM634 1872l91 29q18 -103 70 -154
t138 -51q83 0 146.5 53.5t99.5 153.5l94 -35q-60 -163 -153.5 -248.5t-212.5 -85.5q-118 0 -187.5 87t-85.5 251z" />
    <glyph glyph-name="gbreve" unicode="&#x11f;" horiz-adv-x="1020" 
d="M322 -29q-135 -70 -180.5 -113.5t-45.5 -93.5q0 -68 82 -117.5t203 -49.5q119 0 194.5 47t75.5 118q0 80 -242 175q-56 22 -87 34zM502 881q-90 0 -151.5 -103.5t-61.5 -255.5q0 -80 32.5 -122t96.5 -42q96 0 157.5 98t61.5 251q0 85 -34.5 129.5t-100.5 44.5zM1012 967
l-39 -129q-12 -1 -26 -1.5t-42 -0.5q-37 0 -73.5 3.5t-71.5 10.5q51 -37 75.5 -84t24.5 -111q0 -114 -70 -199.5t-212 -144.5q-34 -13 -92 -36q-136 -51 -136 -76q0 -36 182 -102q24 -9 35 -13q187 -68 246 -122.5t59 -135.5q0 -143 -176 -252t-422 -109q-179 0 -291 70.5
t-112 179.5q0 80 66.5 138.5t300.5 156.5q-97 39 -132.5 66t-35.5 59q0 58 225 151q30 12 47 19q-3 0 -10 -1q-30 -3 -45 -3q-101 0 -163.5 69.5t-62.5 182.5q0 174 136 298t329 124q63 0 171 -14.5t153 -14.5q35 0 75 5t87 16zM319 1423l91 29q18 -103 70 -154t138 -51
q83 0 146.5 53.5t99.5 153.5l94 -35q-60 -163 -153.5 -248.5t-212.5 -85.5q-118 0 -187.5 87t-85.5 251z" />
    <glyph glyph-name="Gdotaccent" unicode="&#x120;" horiz-adv-x="1497" 
d="M1227 57q-153 -49 -282 -74.5t-226 -25.5q-299 0 -467 162t-168 448q0 189 80.5 359t226.5 291q114 94 258.5 142t311.5 48q111 0 220.5 -23.5t225.5 -72.5q-25 -88 -42.5 -170t-27.5 -158l-94 13q3 25 4.5 40.5t1.5 20.5q0 99 -90 152t-260 53q-246 0 -388 -182.5
t-142 -495.5q0 -235 111 -360.5t319 -125.5q52 0 99 9t91 26q25 136 37 215.5t12 108.5q0 46 -27 65t-98 19h-28l18 88q78 -4 146.5 -6t121.5 -2q67 0 227 6q25 1 38 2l-15 -88q-14 2 -22 3t-13 1q-94 0 -133 -300q-15 -117 -26 -188zM950 1848q44 0 86.5 -49t42.5 -97
q0 -39 -52.5 -79.5t-103.5 -40.5q-45 0 -86 46t-41 91q0 44 51.5 86.5t102.5 42.5z" />
    <glyph glyph-name="gdotaccent" unicode="&#x121;" horiz-adv-x="1020" 
d="M322 -29q-135 -70 -180.5 -113.5t-45.5 -93.5q0 -68 82 -117.5t203 -49.5q119 0 194.5 47t75.5 118q0 80 -242 175q-56 22 -87 34zM502 881q-90 0 -151.5 -103.5t-61.5 -255.5q0 -80 32.5 -122t96.5 -42q96 0 157.5 98t61.5 251q0 85 -34.5 129.5t-100.5 44.5zM1012 967
l-39 -129q-12 -1 -26 -1.5t-42 -0.5q-37 0 -73.5 3.5t-71.5 10.5q51 -37 75.5 -84t24.5 -111q0 -114 -70 -199.5t-212 -144.5q-34 -13 -92 -36q-136 -51 -136 -76q0 -36 182 -102q24 -9 35 -13q187 -68 246 -122.5t59 -135.5q0 -143 -176 -252t-422 -109q-179 0 -291 70.5
t-112 179.5q0 80 66.5 138.5t300.5 156.5q-97 39 -132.5 66t-35.5 59q0 58 225 151q30 12 47 19q-3 0 -10 -1q-30 -3 -45 -3q-101 0 -163.5 69.5t-62.5 182.5q0 174 136 298t329 124q63 0 171 -14.5t153 -14.5q35 0 75 5t87 16zM635 1399q44 0 86.5 -49t42.5 -97
q0 -39 -52.5 -79.5t-103.5 -40.5q-45 0 -86 46t-41 91q0 44 51.5 86.5t102.5 42.5z" />
    <glyph glyph-name="Gcommaaccent" unicode="&#x122;" horiz-adv-x="1497" 
d="M1227 57q-153 -49 -282 -74.5t-226 -25.5q-299 0 -467 162t-168 448q0 189 80.5 359t226.5 291q114 94 258.5 142t311.5 48q111 0 220.5 -23.5t225.5 -72.5q-25 -88 -42.5 -170t-27.5 -158l-94 13q3 25 4.5 40.5t1.5 20.5q0 99 -90 152t-260 53q-246 0 -388 -182.5
t-142 -495.5q0 -235 111 -360.5t319 -125.5q52 0 99 9t91 26q25 136 37 215.5t12 108.5q0 46 -27 65t-98 19h-28l18 88q78 -4 146.5 -6t121.5 -2q67 0 227 6q25 1 38 2l-15 -88q-14 2 -22 3t-13 1q-94 0 -133 -300q-15 -117 -26 -188zM604 -127l51 -49q27 -29 39 -55t12 -56
q0 -60 -59.5 -134t-161.5 -138l-47 55q54 39 75 65.5t21 55.5q0 22 -32.5 61.5t-32.5 65.5t13 44.5t48 39.5z" />
    <glyph glyph-name="gcommaaccent" unicode="&#x123;" horiz-adv-x="1020" 
d="M322 -29q-135 -70 -180.5 -113.5t-45.5 -93.5q0 -68 82 -117.5t203 -49.5q119 0 194.5 47t75.5 118q0 80 -242 175q-56 22 -87 34zM502 881q-90 0 -151.5 -103.5t-61.5 -255.5q0 -80 32.5 -122t96.5 -42q96 0 157.5 98t61.5 251q0 85 -34.5 129.5t-100.5 44.5zM1012 967
l-39 -129q-12 -1 -26 -1.5t-42 -0.5q-37 0 -73.5 3.5t-71.5 10.5q51 -37 75.5 -84t24.5 -111q0 -114 -70 -199.5t-212 -144.5q-34 -13 -92 -36q-136 -51 -136 -76q0 -36 182 -102q24 -9 35 -13q187 -68 246 -122.5t59 -135.5q0 -143 -176 -252t-422 -109q-179 0 -291 70.5
t-112 179.5q0 80 66.5 138.5t300.5 156.5q-97 39 -132.5 66t-35.5 59q0 58 225 151q30 12 47 19q-3 0 -10 -1q-30 -3 -45 -3q-101 0 -163.5 69.5t-62.5 182.5q0 174 136 298t329 124q63 0 171 -14.5t153 -14.5q35 0 75 5t87 16zM791 1602l53 -60q-89 -61 -120.5 -99
t-31.5 -77q0 -30 34 -76t34 -69q0 -31 -14.5 -50.5t-51.5 -37.5l-88 -48l-57 54q-29 29 -42 56.5t-13 59.5q0 79 81 175.5t216 171.5z" />
    <glyph glyph-name="Hcircumflex" unicode="&#x124;" horiz-adv-x="1595" 
d="M-26 84q6 -1 13.5 -1.5t20.5 -0.5q126 0 181 327l4 20l106 618q12 71 16 103.5t4 51.5q0 40 -28 59t-88 19h-19l15 86q127 -9 180.5 -11.5t89.5 -2.5q48 0 113 3t176 11l-13 -86h-26q-73 0 -106.5 -33.5t-55.5 -154.5l-57 -322q75 -3 145 -4.5t135 -1.5q67 0 154.5 1.5
t197.5 4.5l46 275q11 64 15.5 99.5t4.5 57.5q0 41 -29 59.5t-94 18.5h-10l14 86l9 -1q196 -13 255 -13q49 0 112 3t177 11l-14 -86h-16q-57 0 -87.5 -14.5t-46.5 -46.5q-12 -26 -33 -132t-67 -370l-14 -78q-37 -216 -53.5 -323.5t-16.5 -135.5q0 -52 24 -73t85 -21h30
l-14 -86q-87 7 -161.5 10.5t-131.5 3.5q-50 0 -122 -3.5t-158 -10.5l16 84q7 -1 16 -1.5t25 -0.5q117 0 157 226l3 16l55 315q-59 2 -123.5 3t-181.5 1q-125 0 -195 -1t-133 -3l-61 -354q-5 -30 -7.5 -55.5t-3.5 -45.5q0 -54 25.5 -77t85.5 -23q14 0 21 0.5t14 1.5l-14 -84
q-92 6 -167 9t-130 3q-43 0 -115.5 -3.5t-165.5 -10.5zM953 1905h119l215 -328l-84 -38l-220 184l-301 -189l-77 54z" />
    <glyph glyph-name="hcircumflex" unicode="&#x125;" horiz-adv-x="1114" 
d="M555 1559q-56 -281 -72 -359.5t-20 -99.5l-76 -402l139 131q89 84 140.5 113t99.5 29q80 0 128 -57.5t48 -155.5q0 -92 -45 -277.5t-45 -263.5q0 -29 10 -44t29 -15q11 0 26 8t35 24l64 58l35 -74l-115 -104q-51 -47 -99 -72t-85 -25q-59 0 -95 47.5t-36 126.5
q0 94 46 290.5t46 275.5q0 32 -13.5 50.5t-35.5 18.5q-46 0 -226 -151q-47 -40 -73 -62l-62 -338q-13 -71 -20 -118.5t-11 -89.5l-247 -50q48 207 122 612l7 38l32 186q40 212 64 364.5t24 186.5q0 29 -16.5 45t-46.5 16q-14 0 -50 -3q-7 0 -11 -1l-9 78q107 10 210 25.5
t204 38.5zM424 2038h119l215 -328l-84 -38l-220 184l-301 -189l-77 54z" />
    <glyph glyph-name="Itilde" unicode="&#x128;" horiz-adv-x="748" 
d="M-27 88q2 0 7 -1q30 -3 43 -3q117 0 166 286q5 29 8 44l112 633q10 53 15.5 92.5t5.5 62.5q0 41 -30 59.5t-97 18.5h-23l15 86q88 -6 156.5 -9t115.5 -3q84 0 160 2.5t149 7.5l-18 -84q-7 0 -17.5 1t-15.5 1q-70 0 -100.5 -34.5t-57.5 -180.5l-108 -596
q-22 -119 -30.5 -182.5t-8.5 -95.5q0 -62 27.5 -83.5t107.5 -21.5h14l-16 -88q-140 9 -200.5 11.5t-102.5 2.5q-60 0 -273 -13l-20 -1zM883 1883l64 -41q-48 -81 -108.5 -142t-137.5 -108q-57 13 -153 42t-130 29q-45 0 -87.5 -25.5t-94.5 -86.5l-57 45q55 80 116.5 140
t132.5 104q57 -13 149 -41.5t126 -28.5q49 0 94 28t86 85z" />
    <glyph glyph-name="itilde" unicode="&#x129;" horiz-adv-x="627" 
d="M498 250l34 -78q-127 -119 -193 -160t-122 -41q-61 0 -96 43t-35 119q0 65 55 284q7 28 10 41q28 111 42 180t14 99q0 25 -13 40.5t-34 15.5q-17 0 -43 -11t-68 -37l-33 70l138 90q47 32 88.5 48t74.5 16q61 0 97.5 -39t36.5 -105q0 -49 -45 -228q-18 -71 -27 -112
q-28 -115 -39.5 -176t-11.5 -88q0 -28 10 -43.5t29 -15.5t49 20t82 68zM743 1434l64 -41q-48 -81 -108.5 -142t-137.5 -108q-57 13 -153 42t-130 29q-45 0 -87.5 -25.5t-94.5 -86.5l-57 45q55 80 116.5 140t132.5 104q57 -13 149 -41.5t126 -28.5q49 0 94 28t86 85z" />
    <glyph glyph-name="Imacron" unicode="&#x12a;" horiz-adv-x="748" 
d="M-27 88q2 0 7 -1q30 -3 43 -3q117 0 166 286q5 29 8 44l112 633q10 53 15.5 92.5t5.5 62.5q0 41 -30 59.5t-97 18.5h-23l15 86q88 -6 156.5 -9t115.5 -3q84 0 160 2.5t149 7.5l-18 -84q-7 0 -17.5 1t-15.5 1q-70 0 -100.5 -34.5t-57.5 -180.5l-108 -596
q-22 -119 -30.5 -182.5t-8.5 -95.5q0 -62 27.5 -83.5t107.5 -21.5h14l-16 -88q-140 9 -200.5 11.5t-102.5 2.5q-60 0 -273 -13l-20 -1zM265 1768h612l-27 -154h-614z" />
    <glyph glyph-name="imacron" unicode="&#x12b;" horiz-adv-x="627" 
d="M498 250l34 -78q-127 -119 -193 -160t-122 -41q-61 0 -96 43t-35 119q0 65 55 284q7 28 10 41q28 111 42 180t14 99q0 25 -13 40.5t-34 15.5q-17 0 -43 -11t-68 -37l-33 70l138 90q47 32 88.5 48t74.5 16q61 0 97.5 -39t36.5 -105q0 -49 -45 -228q-18 -71 -27 -112
q-28 -115 -39.5 -176t-11.5 -88q0 -28 10 -43.5t29 -15.5t49 20t82 68zM125 1319h612l-27 -154h-614z" />
    <glyph glyph-name="Ibreve" unicode="&#x12c;" horiz-adv-x="748" 
d="M-27 88q2 0 7 -1q30 -3 43 -3q117 0 166 286q5 29 8 44l112 633q10 53 15.5 92.5t5.5 62.5q0 41 -30 59.5t-97 18.5h-23l15 86q88 -6 156.5 -9t115.5 -3q84 0 160 2.5t149 7.5l-18 -84q-7 0 -17.5 1t-15.5 1q-70 0 -100.5 -34.5t-57.5 -180.5l-108 -596
q-22 -119 -30.5 -182.5t-8.5 -95.5q0 -62 27.5 -83.5t107.5 -21.5h14l-16 -88q-140 9 -200.5 11.5t-102.5 2.5q-60 0 -273 -13l-20 -1zM262 1872l91 29q18 -103 70 -154t138 -51q83 0 146.5 53.5t99.5 153.5l94 -35q-60 -163 -153.5 -248.5t-212.5 -85.5q-118 0 -187.5 87
t-85.5 251z" />
    <glyph glyph-name="ibreve" unicode="&#x12d;" horiz-adv-x="627" 
d="M498 250l34 -78q-127 -119 -193 -160t-122 -41q-61 0 -96 43t-35 119q0 65 55 284q7 28 10 41q28 111 42 180t14 99q0 25 -13 40.5t-34 15.5q-17 0 -43 -11t-68 -37l-33 70l138 90q47 32 88.5 48t74.5 16q61 0 97.5 -39t36.5 -105q0 -49 -45 -228q-18 -71 -27 -112
q-28 -115 -39.5 -176t-11.5 -88q0 -28 10 -43.5t29 -15.5t49 20t82 68zM122 1423l91 29q18 -103 70 -154t138 -51q83 0 146.5 53.5t99.5 153.5l94 -35q-60 -163 -153.5 -248.5t-212.5 -85.5q-118 0 -187.5 87t-85.5 251z" />
    <glyph glyph-name="Iogonek" unicode="&#x12e;" horiz-adv-x="748" 
d="M-27 88q2 0 7 -1q30 -3 43 -3q117 0 166 286q5 29 8 44l112 633q10 53 15.5 92.5t5.5 62.5q0 41 -30 59.5t-97 18.5h-23l15 86q88 -6 156.5 -9t115.5 -3q84 0 160 2.5t149 7.5l-18 -84q-7 0 -17.5 1t-15.5 1q-70 0 -100.5 -34.5t-57.5 -180.5l-108 -596
q-22 -119 -30.5 -182.5t-8.5 -95.5q0 -62 27.5 -83.5t107.5 -21.5h14l-16 -88q-140 9 -200.5 11.5t-102.5 2.5q-60 0 -273 -13l-20 -1zM283 35h115q-98 -88 -138.5 -145.5t-40.5 -108.5q0 -43 25.5 -68.5t67.5 -25.5q24 0 55.5 15.5t69.5 47.5l41 -74q-70 -60 -137 -91
t-128 -31q-73 0 -118 43.5t-45 113.5q0 72 53.5 146.5t179.5 177.5z" />
    <glyph glyph-name="iogonek" unicode="&#x12f;" horiz-adv-x="627" 
d="M461 1540l74 -74q25 -25 37 -47.5t12 -46.5q0 -29 -20 -53t-62 -47l-101 -55l-69 75l-4 4q-47 51 -47 88q0 30 19 55t58 46zM498 250l34 -78q-127 -119 -193 -160t-122 -41q-61 0 -96 43t-35 119q0 65 55 284q7 28 10 41q28 111 42 180t14 99q0 25 -13 40.5t-34 15.5
q-17 0 -43 -11t-68 -37l-33 70l138 90q47 32 88.5 48t74.5 16q61 0 97.5 -39t36.5 -105q0 -49 -45 -228q-18 -71 -27 -112q-28 -115 -39.5 -176t-11.5 -88q0 -28 10 -43.5t29 -15.5t49 20t82 68zM229 35h115q-98 -88 -138.5 -145.5t-40.5 -108.5q0 -43 25.5 -68.5
t67.5 -25.5q24 0 55.5 15.5t69.5 47.5l41 -74q-70 -60 -137 -91t-128 -31q-73 0 -118 43.5t-45 113.5q0 72 53.5 146.5t179.5 177.5z" />
    <glyph glyph-name="Idotaccent" unicode="&#x130;" horiz-adv-x="748" 
d="M-27 88q2 0 7 -1q30 -3 43 -3q117 0 166 286q5 29 8 44l112 633q10 53 15.5 92.5t5.5 62.5q0 41 -30 59.5t-97 18.5h-23l15 86q88 -6 156.5 -9t115.5 -3q84 0 160 2.5t149 7.5l-18 -84q-7 0 -17.5 1t-15.5 1q-70 0 -100.5 -34.5t-57.5 -180.5l-108 -596
q-22 -119 -30.5 -182.5t-8.5 -95.5q0 -62 27.5 -83.5t107.5 -21.5h14l-16 -88q-140 9 -200.5 11.5t-102.5 2.5q-60 0 -273 -13l-20 -1zM578 1848q44 0 86.5 -49t42.5 -97q0 -39 -52.5 -79.5t-103.5 -40.5q-45 0 -86 46t-41 91q0 44 51.5 86.5t102.5 42.5z" />
    <glyph glyph-name="dotlessi" unicode="&#x131;" horiz-adv-x="627" 
d="M498 250l34 -78q-127 -119 -193 -160t-122 -41q-61 0 -96 43t-35 119q0 65 55 284q7 28 10 41q28 111 42 180t14 99q0 25 -13 40.5t-34 15.5q-17 0 -43 -11t-68 -37l-33 70l138 90q47 32 88.5 48t74.5 16q61 0 97.5 -39t36.5 -105q0 -49 -45 -228q-18 -71 -27 -112
q-28 -115 -39.5 -176t-11.5 -88q0 -28 10 -43.5t29 -15.5t49 20t82 68z" />
    <glyph glyph-name="IJ" unicode="&#x132;" horiz-adv-x="1483" 
d="M457 -324q197 4 291.5 110.5t150.5 428.5l148 832q12 75 16 106t4 49q0 41 -29.5 59.5t-97.5 18.5h-22l14 86q79 -6 149 -9t121 -3q85 0 161.5 2.5t149.5 7.5l-16 -84q-6 0 -18 1t-17 1q-60 0 -90 -25t-49 -94q-32 -107 -79 -421.5t-83 -497.5q-72 -368 -218 -510
t-443 -156zM-27 88q2 0 7 -1q30 -3 43 -3q117 0 166 286q5 29 8 44l112 633q10 53 15.5 92.5t5.5 62.5q0 41 -30 59.5t-97 18.5h-23l15 86q88 -6 156.5 -9t115.5 -3q84 0 160 2.5t149 7.5l-18 -84q-7 0 -17.5 1t-15.5 1q-70 0 -100.5 -34.5t-57.5 -180.5l-108 -596
q-22 -119 -30.5 -182.5t-8.5 -95.5q0 -62 27.5 -83.5t107.5 -21.5h14l-16 -88q-140 9 -200.5 11.5t-102.5 2.5q-60 0 -273 -13l-20 -1z" />
    <glyph glyph-name="ij" unicode="&#x133;" horiz-adv-x="1192" 
d="M1030 1540l70 -74q31 -33 41 -52t10 -40q0 -29 -20 -54.5t-62 -47.5l-102 -55l-68 75q-2 3 -6 7q-45 48 -45 85q0 31 18.5 55t59.5 46zM1026 715l-84 -512q-31 -190 -61 -292t-72 -171q-75 -124 -191 -199.5t-229 -75.5q-77 0 -124.5 33t-47.5 86q0 21 10.5 40t32.5 38
l53 47q44 -52 84 -78t78 -26q76 0 119 80t88 342l37 209q36 208 56 336.5t20 160.5q0 28 -10.5 44t-28.5 16q-14 0 -76 -32q-27 -13 -41 -19l-31 71l119 70q79 48 126 67t83 19q51 0 77.5 -32t26.5 -93q0 -18 -2.5 -43.5t-11.5 -85.5zM463 1540l72 -74q25 -25 37 -47.5
t12 -46.5q0 -29 -19.5 -53.5t-60.5 -46.5l-103 -55l-69 75l-4 4q-47 51 -47 88q0 29 19.5 54t59.5 47zM498 252l34 -80q-127 -119 -193 -160t-122 -41q-61 0 -95 42.5t-34 119.5q0 39 11 100t53 226q27 110 41 179t14 99q0 26 -12.5 41t-32.5 15q-19 0 -47 -13t-66 -39
l-33 74l140 90q48 32 88.5 48t72.5 16q61 0 97.5 -39t36.5 -105q0 -52 -49 -250q-14 -58 -21 -90q-33 -139 -43 -190t-10 -74q0 -27 11 -43t30 -16t48 20t81 70z" />
    <glyph glyph-name="Jcircumflex" unicode="&#x134;" horiz-adv-x="748" 
d="M-279 -324q198 4 292.5 110.5t150.5 428.5l145 832q13 75 17 106t4 49q0 42 -29 60t-96 18h-23l15 86q79 -6 149 -9t121 -3q84 0 160 2.5t149 6.5l-16 -83q-7 0 -18.5 1t-16.5 1q-60 0 -89 -24.5t-48 -94.5q-32 -107 -79 -421.5t-83 -497.5q-72 -366 -219 -509t-445 -157
zM529 1905h119l215 -328l-84 -38l-220 184l-301 -189l-77 54z" />
    <glyph glyph-name="jcircumflex" unicode="&#x135;" horiz-adv-x="631" 
d="M461 715l-84 -512q-31 -190 -61 -292t-72 -171q-75 -124 -191 -199.5t-227 -75.5q-78 0 -126 33.5t-48 85.5q0 20 11.5 39.5t33.5 38.5l53 47q43 -52 83.5 -78t78.5 -26q76 0 119 80t88 342l37 209q34 194 53.5 328t19.5 169q0 28 -9.5 43t-26.5 15q-12 0 -35.5 -10.5
t-81.5 -43.5l-33 76l121 70q79 48 126 67t83 19q50 0 76 -32t26 -93q0 -18 -2.5 -43.5t-11.5 -85.5zM393 1456h119l215 -328l-84 -38l-220 184l-301 -189l-77 54z" />
    <glyph glyph-name="Kcommaaccent" unicode="&#x136;" horiz-adv-x="1421" 
d="M487 680l476 422q64 57 86 84.5t22 48.5q0 24 -25.5 34.5t-87.5 10.5l19 86q84 -6 147 -9t105 -3q77 0 144.5 2.5t133.5 7.5l-18 -84h-23q-97 0 -215 -99q-11 -10 -18 -16l-496 -415l367 -531q56 -82 97 -106.5t106 -24.5h30l-16 -88q-88 6 -131.5 8t-69.5 2
q-30 0 -76 -2t-140 -8q-2 34 -15.5 68.5t-52.5 93.5zM-29 84q2 0 7 -1q25 -3 36 -3q119 0 167 280q6 35 9 53l111 634q13 75 17 106t4 49q0 40 -28.5 59t-88.5 19h-19l15 86q86 -6 155.5 -9t124.5 -3q63 0 135 2.5t149 7.5l-17 -84q-7 0 -17.5 1t-15.5 1q-70 0 -100.5 -34.5
t-57.5 -180.5l-108 -596q-22 -119 -30.5 -182.5t-8.5 -95.5q0 -63 28 -84t117 -21l-16 -88q-131 8 -195 11t-106 3q-54 0 -258 -12l-25 -2zM568 -127l51 -49q27 -29 39 -55t12 -56q0 -60 -59.5 -134t-161.5 -138l-47 55q54 39 75 65.5t21 55.5q0 22 -32.5 61.5t-32.5 65.5
t13 44.5t48 39.5z" />
    <glyph glyph-name="kcommaaccent" unicode="&#x137;" horiz-adv-x="1100" 
d="M348 442q177 21 280 92.5t103 172.5q0 45 -24 70.5t-66 25.5q-58 0 -229 -140l-31 -26zM33 -29q32 142 63 302t64 352l30 184q54 315 70 420.5t16 130.5q0 29 -17 45t-48 16q-11 0 -40 -2q-11 -1 -17 -2l-9 78q107 8 209 23.5t203 39.5q-9 -45 -41.5 -204.5t-50.5 -253.5
l-68 -348l21 18q224 207 336 207q77 0 132.5 -62.5t55.5 -148.5q0 -113 -76 -193t-233 -133q111 -170 171 -236.5t101 -66.5q19 0 45 16.5t68 55.5l35 -70q-110 -107 -159.5 -136.5t-98.5 -29.5q-83 0 -169 94.5t-194 305.5q-27 -7 -52 -11.5t-48 -7.5l-15 -82
q-9 -46 -30 -215l-4 -32zM414 -127l51 -49q27 -29 39 -55t12 -56q0 -60 -59.5 -134t-161.5 -138l-47 55q54 39 75 65.5t21 55.5q0 22 -32.5 61.5t-32.5 65.5t13 44.5t48 39.5z" />
    <glyph glyph-name="Lacute" unicode="&#x139;" horiz-adv-x="1145" 
d="M-36 84q6 -1 15 -1.5t27 -0.5q73 0 107 50.5t73 281.5l107 633q12 75 16 106t4 49q0 41 -27 59.5t-87 18.5h-21l15 86q87 -6 158 -9t126 -3q49 0 194 7q58 3 91 5l-14 -86h-21q-68 0 -100 -23t-47 -83q-25 -99 -75 -385.5t-103 -643.5q54 -5 115.5 -7.5t141.5 -2.5
q154 0 218.5 48.5t91.5 178.5l94 -14q-24 -84 -43 -170.5t-33 -177.5q-218 8 -350.5 11t-235.5 3q-80 0 -184 -3t-270 -11zM620 1979l177 -86l-357 -359l-80 35z" />
    <glyph glyph-name="lacute" unicode="&#x13a;" horiz-adv-x="606" 
d="M516 172l-84 -76q-71 -64 -121.5 -92.5t-93.5 -28.5q-61 0 -100 55.5t-39 143.5q0 66 44 284q25 122 38 193l28 162q47 250 69 381t22 168q0 29 -17.5 45t-48.5 16q-11 0 -40 -2q-11 -1 -17 -2l-11 76q96 10 198.5 26.5t211.5 39.5q-158 -807 -201 -1045.5t-43 -288.5
q0 -32 12.5 -50.5t32.5 -18.5q11 0 29.5 10.5t42.5 30.5l57 47zM552 2112l177 -86l-357 -359l-80 35z" />
    <glyph glyph-name="Lcommaaccent" unicode="&#x13b;" horiz-adv-x="1145" 
d="M-36 84q6 -1 15 -1.5t27 -0.5q73 0 107 50.5t73 281.5l107 633q12 75 16 106t4 49q0 41 -27 59.5t-87 18.5h-21l15 86q87 -6 158 -9t126 -3q49 0 194 7q58 3 91 5l-14 -86h-21q-68 0 -100 -23t-47 -83q-25 -99 -75 -385.5t-103 -643.5q54 -5 115.5 -7.5t141.5 -2.5
q154 0 218.5 48.5t91.5 178.5l94 -14q-24 -84 -43 -170.5t-33 -177.5q-218 8 -350.5 11t-235.5 3q-80 0 -184 -3t-270 -11zM428 -127l51 -49q27 -29 39 -55t12 -56q0 -60 -59.5 -134t-161.5 -138l-47 55q54 39 75 65.5t21 55.5q0 22 -32.5 61.5t-32.5 65.5t13 44.5t48 39.5z
" />
    <glyph glyph-name="lcommaaccent" unicode="&#x13c;" horiz-adv-x="606" 
d="M516 172l-84 -76q-71 -64 -121.5 -92.5t-93.5 -28.5q-61 0 -100 55.5t-39 143.5q0 66 44 284q25 122 38 193l28 162q47 250 69 381t22 168q0 29 -17.5 45t-48.5 16q-11 0 -40 -2q-11 -1 -17 -2l-11 76q96 10 198.5 26.5t211.5 39.5q-158 -807 -201 -1045.5t-43 -288.5
q0 -32 12.5 -50.5t32.5 -18.5q11 0 29.5 10.5t42.5 30.5l57 47zM168 -127l51 -49q27 -29 39 -55t12 -56q0 -60 -59.5 -134t-161.5 -138l-47 55q54 39 75 65.5t21 55.5q0 22 -32.5 61.5t-32.5 65.5t13 44.5t48 39.5z" />
    <glyph glyph-name="Lcaron" unicode="&#x13d;" horiz-adv-x="1145" 
d="M1042 1409l58 -57q30 -30 43.5 -59.5t13.5 -63.5q0 -89 -81 -188.5t-226 -186.5l-55 64q94 66 127.5 107t33.5 83q0 30 -35.5 79t-35.5 75q0 31 15 52.5t54 43.5zM-53 0l17 84q6 -1 15 -1.5t25 -0.5q74 0 108.5 50.5t73.5 281.5l111 663q6 33 9 61.5t3 45.5
q0 55 -25.5 75.5t-95.5 20.5h-14l19 86q87 -6 158 -9t126 -3q49 0 194 7q58 3 91 5l-14 -86h-21q-68 0 -100 -23t-47 -83q-25 -99 -75 -385.5t-103 -643.5q54 -5 115.5 -7.5t141.5 -2.5q154 0 218.5 48.5t91.5 178.5l94 -14q-24 -84 -43 -170.5t-33 -177.5q-218 8 -350.5 11
t-235.5 3q-80 0 -184 -3t-270 -11z" />
    <glyph glyph-name="lcaron" unicode="&#x13e;" horiz-adv-x="915" 
d="M516 172l-84 -76q-71 -64 -121.5 -92.5t-93.5 -28.5q-61 0 -100 55.5t-39 143.5q0 66 44 284q25 122 38 193l28 162q47 250 69 381t22 168q0 29 -17.5 45t-48.5 16q-11 0 -40 -2q-11 -1 -17 -2l-11 76q96 10 198.5 26.5t211.5 39.5q-158 -807 -201 -1045.5t-43 -288.5
q0 -32 12.5 -50.5t32.5 -18.5q11 0 29.5 10.5t42.5 30.5l57 47zM893 1409l55 -57q31 -32 45 -61t14 -62q0 -87 -83 -189t-226 -186l-55 64q92 65 127 107t35 83q0 30 -35 79t-35 75q0 30 16 52.5t54 43.5z" />
    <glyph glyph-name="Ldot" unicode="&#x13f;" horiz-adv-x="1741" 
d="M-36 84q6 -1 15 -1.5t27 -0.5q73 0 107 50.5t73 281.5l107 633q12 75 16 106t4 49q0 41 -27 59.5t-87 18.5h-21l15 86q87 -6 158 -9t126 -3q49 0 194 7q58 3 91 5l-14 -86h-21q-68 0 -100 -23t-47 -83q-25 -99 -75 -385.5t-103 -643.5q54 -5 115.5 -7.5t141.5 -2.5
q154 0 218.5 48.5t91.5 178.5l94 -14q-24 -84 -43 -170.5t-33 -177.5q-218 8 -350.5 11t-235.5 3q-80 0 -184 -3t-270 -11zM1442 868q68 0 115 -47t47 -114q0 -68 -47.5 -115t-114.5 -47q-66 0 -114 48t-48 114t47.5 113.5t114.5 47.5z" />
    <glyph glyph-name="ldot" unicode="&#x140;" horiz-adv-x="1202" 
d="M516 172l-84 -76q-71 -64 -121.5 -92.5t-93.5 -28.5q-61 0 -100 55.5t-39 143.5q0 66 44 284q25 122 38 193l28 162q47 250 69 381t22 168q0 29 -17.5 45t-48.5 16q-11 0 -40 -2q-11 -1 -17 -2l-11 76q96 10 198.5 26.5t211.5 39.5q-158 -807 -201 -1045.5t-43 -288.5
q0 -32 12.5 -50.5t32.5 -18.5q11 0 29.5 10.5t42.5 30.5l57 47zM903 868q68 0 115 -47t47 -114q0 -68 -47.5 -115t-114.5 -47q-66 0 -114 48t-48 114t47.5 113.5t114.5 47.5z" />
    <glyph glyph-name="Lslash" unicode="&#x141;" horiz-adv-x="1163" 
d="M-35 0l17 84q7 -1 15.5 -1.5t25.5 -0.5q75 0 111 56.5t71 275.5l24 155q-23 -11 -69.5 -34t-186.5 -93l23 131q54 25 141 67.5t115 55.5l63 381q6 40 9.5 68t3.5 39q0 54 -27 75t-96 21h-12l18 86q88 -6 159 -9t126 -3q48 0 193 7q59 3 91 5l-15 -86q-5 1 -12 1.5
t-20 0.5q-123 0 -174 -295q-9 -51 -14 -79l-19 -97q9 4 30 14q154 73 286 142l-23 -136q-108 -49 -279 -131l-34 -16l-21 -115q-6 -36 -24.5 -154t-40.5 -269q55 -6 116 -8.5t142 -2.5q153 0 217.5 48.5t91.5 178.5l94 -14q-24 -84 -42.5 -170.5t-32.5 -177.5
q-220 8 -351 11t-233 3q-82 0 -187 -3t-270 -11z" />
    <glyph glyph-name="lslash" unicode="&#x142;" horiz-adv-x="635" 
d="M530 172l-84 -76q-71 -64 -121.5 -92.5t-93.5 -28.5q-62 0 -100.5 55t-38.5 144q0 68 54 338q12 57 18 88l8 43q-51 -29 -101.5 -60t-101.5 -63l23 129q55 32 105.5 61.5t97.5 55.5l16 84q7 40 20 114q60 334 60 398q0 29 -16.5 45t-47.5 16q-11 0 -40 -2q-11 -1 -17 -2
l-10 76q96 10 198 26.5t211 39.5q-27 -139 -57 -292.5t-74 -387.5q48 29 105 64t123 77l-23 -129q-68 -39 -123 -71.5t-104 -61.5q-43 -211 -66.5 -349.5t-23.5 -183.5q0 -33 11.5 -51t33.5 -18q10 0 29 10.5t42 30.5l58 47z" />
    <glyph glyph-name="Nacute" unicode="&#x143;" horiz-adv-x="1540" 
d="M-64 90q7 -1 15 -1.5t23 -0.5q78 0 115.5 50t75.5 255l125 654q9 48 13.5 88t4.5 67q0 42 -29.5 61t-95.5 19q-5 0 -16.5 -1t-18.5 -1l15 86q58 -3 107 -4.5t89 -1.5q51 0 105 1.5t114 4.5q5 -38 30.5 -95.5t78.5 -146.5l465 -784l106 664q11 62 17 112t6 76
q0 44 -29.5 64t-95.5 20h-20l16 92q64 -4 120.5 -6t104.5 -2q55 0 114.5 1.5t125.5 4.5l-13 -90q-8 1 -17 1.5t-25 0.5q-63 0 -91 -31t-53 -166q-107 -548 -142.5 -765t-35.5 -302v-22h-192q-39 94 -108 206l-9 15l-512 864l-123 -753q-9 -54 -13.5 -90.5t-5.5 -57.5
q0 -51 23 -70.5t82 -19.5q16 0 25 0.5t18 1.5l-11 -92q-78 7 -143 10.5t-110 3.5q-55 0 -115.5 -2.5t-123.5 -7.5zM1026 1979l177 -86l-357 -359l-80 35z" />
    <glyph glyph-name="nacute" unicode="&#x144;" horiz-adv-x="1130" 
d="M406 701l137 126q98 92 146.5 118t98.5 26q80 0 126.5 -55t46.5 -150q0 -94 -44.5 -282.5t-44.5 -266.5q0 -28 9.5 -42.5t27.5 -14.5q12 0 28 8t32 22l63 58l35 -74l-92 -84q-66 -59 -114 -87t-85 -28q-64 0 -100.5 48.5t-36.5 134.5t43 271.5t43 268.5q0 33 -17 52.5
t-44 19.5q-52 0 -216 -142q-40 -35 -63 -55l-63 -344q-15 -76 -21.5 -121t-9.5 -85l-250 -48q63 272 99 466t36 257q0 41 -13.5 63.5t-37.5 22.5q-18 0 -92 -43l-7 -3l-30 71q27 18 75 51q158 111 224 111q52 0 86.5 -47t34.5 -121q0 -20 -2.5 -45.5t-7.5 -56.5zM702 1530
l177 -86l-357 -359l-80 35z" />
    <glyph glyph-name="Ncommaaccent" unicode="&#x145;" horiz-adv-x="1540" 
d="M-64 90q7 -1 15 -1.5t23 -0.5q78 0 115.5 50t75.5 255l125 654q9 48 13.5 88t4.5 67q0 42 -29.5 61t-95.5 19q-5 0 -16.5 -1t-18.5 -1l15 86q58 -3 107 -4.5t89 -1.5q51 0 105 1.5t114 4.5q5 -38 30.5 -95.5t78.5 -146.5l465 -784l106 664q11 62 17 112t6 76
q0 44 -29.5 64t-95.5 20h-20l16 92q64 -4 120.5 -6t104.5 -2q55 0 114.5 1.5t125.5 4.5l-13 -90q-8 1 -17 1.5t-25 0.5q-63 0 -91 -31t-53 -166q-107 -548 -142.5 -765t-35.5 -302v-22h-192q-39 94 -108 206l-9 15l-512 864l-123 -753q-9 -54 -13.5 -90.5t-5.5 -57.5
q0 -51 23 -70.5t82 -19.5q16 0 25 0.5t18 1.5l-11 -92q-78 7 -143 10.5t-110 3.5q-55 0 -115.5 -2.5t-123.5 -7.5zM627 -127l51 -49q27 -29 39 -55t12 -56q0 -60 -59.5 -134t-161.5 -138l-47 55q54 39 75 65.5t21 55.5q0 22 -32.5 61.5t-32.5 65.5t13 44.5t48 39.5z" />
    <glyph glyph-name="ncommaaccent" unicode="&#x146;" horiz-adv-x="1130" 
d="M406 701l137 126q98 92 146.5 118t98.5 26q80 0 126.5 -55t46.5 -150q0 -94 -44.5 -282.5t-44.5 -266.5q0 -28 9.5 -42.5t27.5 -14.5q12 0 28 8t32 22l63 58l35 -74l-92 -84q-66 -59 -114 -87t-85 -28q-64 0 -100.5 48.5t-36.5 134.5t43 271.5t43 268.5q0 33 -17 52.5
t-44 19.5q-52 0 -216 -142q-40 -35 -63 -55l-63 -344q-15 -76 -21.5 -121t-9.5 -85l-250 -48q63 272 99 466t36 257q0 41 -13.5 63.5t-37.5 22.5q-18 0 -92 -43l-7 -3l-30 71q27 18 75 51q158 111 224 111q52 0 86.5 -47t34.5 -121q0 -20 -2.5 -45.5t-7.5 -56.5zM428 -127
l51 -49q27 -29 39 -55t12 -56q0 -60 -59.5 -134t-161.5 -138l-47 55q54 39 75 65.5t21 55.5q0 22 -32.5 61.5t-32.5 65.5t13 44.5t48 39.5z" />
    <glyph glyph-name="Ncaron" unicode="&#x147;" horiz-adv-x="1540" 
d="M-64 90q7 -1 15 -1.5t23 -0.5q78 0 115.5 50t75.5 255l125 654q9 48 13.5 88t4.5 67q0 42 -29.5 61t-95.5 19q-5 0 -16.5 -1t-18.5 -1l15 86q58 -3 107 -4.5t89 -1.5q51 0 105 1.5t114 4.5q5 -38 30.5 -95.5t78.5 -146.5l465 -784l106 664q11 62 17 112t6 76
q0 44 -29.5 64t-95.5 20h-20l16 92q64 -4 120.5 -6t104.5 -2q55 0 114.5 1.5t125.5 4.5l-13 -90q-8 1 -17 1.5t-25 0.5q-63 0 -91 -31t-53 -166q-107 -548 -142.5 -765t-35.5 -302v-22h-192q-39 94 -108 206l-9 15l-512 864l-123 -753q-9 -54 -13.5 -90.5t-5.5 -57.5
q0 -51 23 -70.5t82 -19.5q16 0 25 0.5t18 1.5l-11 -92q-78 7 -143 10.5t-110 3.5q-55 0 -115.5 -2.5t-123.5 -7.5zM975 1534h-121l-215 326l86 41l217 -186l304 188l77 -53z" />
    <glyph glyph-name="ncaron" unicode="&#x148;" horiz-adv-x="1130" 
d="M406 701l137 126q98 92 146.5 118t98.5 26q80 0 126.5 -55t46.5 -150q0 -94 -44.5 -282.5t-44.5 -266.5q0 -28 9.5 -42.5t27.5 -14.5q12 0 28 8t32 22l63 58l35 -74l-92 -84q-66 -59 -114 -87t-85 -28q-64 0 -100.5 48.5t-36.5 134.5t43 271.5t43 268.5q0 33 -17 52.5
t-44 19.5q-52 0 -216 -142q-40 -35 -63 -55l-63 -344q-15 -76 -21.5 -121t-9.5 -85l-250 -48q63 272 99 466t36 257q0 41 -13.5 63.5t-37.5 22.5q-18 0 -92 -43l-7 -3l-30 71q27 18 75 51q158 111 224 111q52 0 86.5 -47t34.5 -121q0 -20 -2.5 -45.5t-7.5 -56.5zM651 1085
h-121l-215 326l86 41l217 -186l304 188l77 -53z" />
    <glyph glyph-name="napostrophe" unicode="&#x149;" horiz-adv-x="1440" 
d="M287 1409l55 -57q31 -32 45 -61t14 -62q0 -87 -83 -189t-226 -186l-55 64q92 65 127 107t35 83q0 30 -35 79t-35 75q0 30 16 52.5t54 43.5zM715 701l137 126q98 92 146.5 118t98.5 26q80 0 126.5 -55t46.5 -150q0 -94 -44.5 -282.5t-44.5 -266.5q0 -28 9.5 -42.5
t27.5 -14.5q12 0 28 8t32 22l63 58l35 -74l-92 -84q-66 -59 -114 -87t-85 -28q-64 0 -100.5 48.5t-36.5 134.5t43 271.5t43 268.5q0 33 -17 52.5t-44 19.5q-52 0 -216 -142q-40 -35 -63 -55l-63 -344q-15 -76 -21.5 -121t-9.5 -85l-250 -48q63 272 99 466t36 257
q0 41 -13.5 63.5t-37.5 22.5q-18 0 -92 -43l-7 -3l-30 71q27 18 75 51q158 111 224 111q52 0 86.5 -47t34.5 -121q0 -20 -2.5 -45.5t-7.5 -56.5z" />
    <glyph glyph-name="Omacron" unicode="&#x14c;" horiz-adv-x="1567" 
d="M866 1270q-231 0 -367.5 -201t-136.5 -543q0 -207 88.5 -315.5t256.5 -108.5q228 0 363.5 207t135.5 555q0 200 -86 303t-254 103zM78 530q0 179 70 348t196 296q112 112 261 172.5t313 60.5q266 0 417.5 -152.5t151.5 -420.5q0 -177 -68.5 -347t-189.5 -294
q-112 -115 -260.5 -175.5t-319.5 -60.5q-267 0 -419 153t-152 420zM662 1768h612l-27 -154h-614z" />
    <glyph glyph-name="omacron" unicode="&#x14d;" horiz-adv-x="1040" 
d="M430 88q114 0 192 153t78 377q0 115 -39 174.5t-114 59.5q-118 0 -197.5 -149.5t-79.5 -376.5q0 -117 41 -177.5t119 -60.5zM23 344q0 136 56.5 263t160.5 222q77 72 167.5 109t186.5 37q165 0 259.5 -99t94.5 -272q0 -258 -167.5 -447.5t-401.5 -189.5
q-165 0 -260.5 101.5t-95.5 275.5zM330 1319h612l-27 -154h-614z" />
    <glyph glyph-name="Obreve" unicode="&#x14e;" horiz-adv-x="1567" 
d="M866 1270q-231 0 -367.5 -201t-136.5 -543q0 -207 88.5 -315.5t256.5 -108.5q228 0 363.5 207t135.5 555q0 200 -86 303t-254 103zM78 530q0 179 70 348t196 296q112 112 261 172.5t313 60.5q266 0 417.5 -152.5t151.5 -420.5q0 -177 -68.5 -347t-189.5 -294
q-112 -115 -260.5 -175.5t-319.5 -60.5q-267 0 -419 153t-152 420zM659 1872l91 29q18 -103 70 -154t138 -51q83 0 146.5 53.5t99.5 153.5l94 -35q-60 -163 -153.5 -248.5t-212.5 -85.5q-118 0 -187.5 87t-85.5 251z" />
    <glyph glyph-name="obreve" unicode="&#x14f;" horiz-adv-x="1040" 
d="M430 88q114 0 192 153t78 377q0 115 -39 174.5t-114 59.5q-118 0 -197.5 -149.5t-79.5 -376.5q0 -117 41 -177.5t119 -60.5zM23 344q0 136 56.5 263t160.5 222q77 72 167.5 109t186.5 37q165 0 259.5 -99t94.5 -272q0 -258 -167.5 -447.5t-401.5 -189.5
q-165 0 -260.5 101.5t-95.5 275.5zM327 1423l91 29q18 -103 70 -154t138 -51q83 0 146.5 53.5t99.5 153.5l94 -35q-60 -163 -153.5 -248.5t-212.5 -85.5q-118 0 -187.5 87t-85.5 251z" />
    <glyph glyph-name="Ohungarumlaut" unicode="&#x150;" horiz-adv-x="1567" 
d="M866 1270q-231 0 -367.5 -201t-136.5 -543q0 -207 88.5 -315.5t256.5 -108.5q228 0 363.5 207t135.5 555q0 200 -86 303t-254 103zM78 530q0 179 70 348t196 296q112 112 261 172.5t313 60.5q266 0 417.5 -152.5t151.5 -420.5q0 -177 -68.5 -347t-189.5 -294
q-112 -115 -260.5 -175.5t-319.5 -60.5q-267 0 -419 153t-152 420zM1204 1979l168 -74l-325 -371l-70 31zM883 1979l176 -47l-260 -398l-76 19z" />
    <glyph glyph-name="ohungarumlaut" unicode="&#x151;" horiz-adv-x="1040" 
d="M430 88q114 0 192 153t78 377q0 115 -39 174.5t-114 59.5q-118 0 -197.5 -149.5t-79.5 -376.5q0 -117 41 -177.5t119 -60.5zM23 344q0 136 56.5 263t160.5 222q77 72 167.5 109t186.5 37q165 0 259.5 -99t94.5 -272q0 -258 -167.5 -447.5t-401.5 -189.5
q-165 0 -260.5 101.5t-95.5 275.5zM872 1530l168 -74l-325 -371l-70 31zM551 1530l176 -47l-260 -398l-76 19z" />
    <glyph glyph-name="OE" unicode="&#x152;" horiz-adv-x="2101" 
d="M842 1257q-215 0 -347.5 -201.5t-132.5 -531.5q0 -196 87.5 -304.5t244.5 -108.5q121 0 207.5 60t149.5 187q50 105 80 245t30 276q0 187 -80.5 282.5t-238.5 95.5zM2091 1366q-21 -86 -34 -164.5t-19 -152.5l-88 -5v23v25q0 94 -72.5 122.5t-431.5 28.5h-33h-98h-86
q103 -69 149.5 -167t46.5 -249q0 -13 -0.5 -27.5t-1.5 -31.5q31 -1 82 -2q84 -2 107 -2h37q120 0 153.5 26t46.5 99l84 -12q-25 -90 -41 -181t-24 -190l-86 -6q1 12 2.5 31t1.5 24q0 57 -39 76.5t-178 19.5h-80h-82q-31 -181 -115.5 -312t-223.5 -212q147 -3 250 -4.5
t159 -1.5q249 0 316.5 46.5t96.5 178.5l90 -16q-26 -90 -45 -174t-30 -164q-153 8 -306 12t-307 4q-170 0 -385 -15.5t-262 -15.5q-261 0 -414 152.5t-153 413.5q0 175 77.5 344t215.5 295q111 100 243 148t299 48q18 0 266.5 -11t479.5 -11q171 0 261.5 2.5t170.5 7.5z" />
    <glyph glyph-name="oe" unicode="&#x153;" horiz-adv-x="1495" 
d="M555 852q-117 0 -203 -151.5t-86 -364.5q0 -104 37.5 -159.5t106.5 -55.5q60 0 113 48t95 142q40 87 62 184.5t22 178.5q0 85 -38.5 131.5t-108.5 46.5zM1122 588q59 34 83 67t24 76q0 49 -33 85t-78 36q-80 0 -138 -102t-87 -293zM852 791q69 91 147 138.5t160 47.5
q115 0 190.5 -66.5t75.5 -162.5q0 -62 -36 -108.5t-117 -86.5l-387 -195q-1 -6 -1.5 -13.5t-0.5 -22.5q0 -87 42 -139t111 -52q41 0 104 38t175 132l35 -84q-148 -137 -242.5 -192.5t-175.5 -55.5q-89 0 -152.5 56t-83.5 151q-83 -109 -167 -159t-183 -50q-147 0 -234 103.5
t-87 279.5q0 121 41.5 230.5t123.5 203.5q80 92 179.5 142.5t199.5 50.5q102 0 175 -48t108 -138z" />
    <glyph glyph-name="Racute" unicode="&#x154;" horiz-adv-x="1438" 
d="M484 680q10 -1 22 -1.5t35 -0.5q199 0 308 85.5t109 242.5q0 116 -69 176.5t-203 60.5q-12 0 -56 -2q-29 -1 -48 -2q-30 -158 -78 -438q-14 -82 -20 -121zM-28 84q6 -1 14.5 -1.5t23.5 -0.5q121 0 172 299q4 23 6 35l103 579q13 76 19.5 130t6.5 79q0 40 -28.5 58
t-93.5 18h-23l14 90q78 -6 135 -9t95 -3q76 0 195 6t163 6q209 0 324.5 -88.5t115.5 -247.5q0 -131 -88.5 -239t-244.5 -164l129 -254q8 -17 24 -48q127 -255 273 -255q13 0 21.5 0.5t14.5 1.5l-18 -88q-35 -6 -71.5 -9.5t-73.5 -3.5q-101 0 -171 28.5t-120 88.5
q-56 67 -155 295q-54 124 -87 195q-30 -3 -59.5 -4.5t-59.5 -2.5q-10 0 -31.5 1.5t-31.5 1.5l-39 -246q-9 -51 -13.5 -92.5t-4.5 -61.5q0 -51 26.5 -73.5t87.5 -22.5h25l-12 -84q-102 6 -177 9t-120 3q-41 0 -103 -2t-180 -8zM923 1979l177 -86l-357 -359l-80 35z" />
    <glyph glyph-name="racute" unicode="&#x155;" horiz-adv-x="842" 
d="M55 -27q64 258 102 461.5t38 274.5q0 35 -14 55t-38 20q-22 0 -96 -47q-11 -6 -16 -10l-35 74l3 2q227 168 294 168q55 0 82.5 -39.5t27.5 -116.5q0 -36 -6 -87t-18 -120q135 221 201.5 291t126.5 70q40 0 66 -29t26 -76q0 -26 -18.5 -68.5t-59.5 -109.5q-22 27 -44 40
t-44 13q-43 0 -97 -54t-145 -189q-33 -135 -55.5 -252.5t-34.5 -223.5zM612 1530l177 -86l-357 -359l-80 35z" />
    <glyph glyph-name="Rcommaaccent" unicode="&#x156;" horiz-adv-x="1438" 
d="M484 680q10 -1 22 -1.5t35 -0.5q199 0 308 85.5t109 242.5q0 116 -69 176.5t-203 60.5q-12 0 -56 -2q-29 -1 -48 -2q-30 -158 -78 -438q-14 -82 -20 -121zM-28 84q6 -1 14.5 -1.5t23.5 -0.5q121 0 172 299q4 23 6 35l103 579q13 76 19.5 130t6.5 79q0 40 -28.5 58
t-93.5 18h-23l14 90q78 -6 135 -9t95 -3q76 0 195 6t163 6q209 0 324.5 -88.5t115.5 -247.5q0 -131 -88.5 -239t-244.5 -164l129 -254q8 -17 24 -48q127 -255 273 -255q13 0 21.5 0.5t14.5 1.5l-18 -88q-35 -6 -71.5 -9.5t-73.5 -3.5q-101 0 -171 28.5t-120 88.5
q-56 67 -155 295q-54 124 -87 195q-30 -3 -59.5 -4.5t-59.5 -2.5q-10 0 -31.5 1.5t-31.5 1.5l-39 -246q-9 -51 -13.5 -92.5t-4.5 -61.5q0 -51 26.5 -73.5t87.5 -22.5h25l-12 -84q-102 6 -177 9t-120 3q-41 0 -103 -2t-180 -8zM576 -127l51 -49q27 -29 39 -55t12 -56
q0 -60 -59.5 -134t-161.5 -138l-47 55q54 39 75 65.5t21 55.5q0 22 -32.5 61.5t-32.5 65.5t13 44.5t48 39.5z" />
    <glyph glyph-name="rcommaaccent" unicode="&#x157;" horiz-adv-x="842" 
d="M55 -27q64 258 102 461.5t38 274.5q0 35 -14 55t-38 20q-22 0 -96 -47q-11 -6 -16 -10l-35 74l3 2q227 168 294 168q55 0 82.5 -39.5t27.5 -116.5q0 -36 -6 -87t-18 -120q135 221 201.5 291t126.5 70q40 0 66 -29t26 -76q0 -26 -18.5 -68.5t-59.5 -109.5q-22 27 -44 40
t-44 13q-43 0 -97 -54t-145 -189q-33 -135 -55.5 -252.5t-34.5 -223.5zM199 -127l51 -49q27 -29 39 -55t12 -56q0 -60 -59.5 -134t-161.5 -138l-47 55q54 39 75 65.5t21 55.5q0 22 -32.5 61.5t-32.5 65.5t13 44.5t48 39.5z" />
    <glyph glyph-name="Rcaron" unicode="&#x158;" horiz-adv-x="1438" 
d="M484 680q10 -1 22 -1.5t35 -0.5q199 0 308 85.5t109 242.5q0 116 -69 176.5t-203 60.5q-12 0 -56 -2q-29 -1 -48 -2q-30 -158 -78 -438q-14 -82 -20 -121zM-28 84q6 -1 14.5 -1.5t23.5 -0.5q121 0 172 299q4 23 6 35l103 579q13 76 19.5 130t6.5 79q0 40 -28.5 58
t-93.5 18h-23l14 90q78 -6 135 -9t95 -3q76 0 195 6t163 6q209 0 324.5 -88.5t115.5 -247.5q0 -131 -88.5 -239t-244.5 -164l129 -254q8 -17 24 -48q127 -255 273 -255q13 0 21.5 0.5t14.5 1.5l-18 -88q-35 -6 -71.5 -9.5t-73.5 -3.5q-101 0 -171 28.5t-120 88.5
q-56 67 -155 295q-54 124 -87 195q-30 -3 -59.5 -4.5t-59.5 -2.5q-10 0 -31.5 1.5t-31.5 1.5l-39 -246q-9 -51 -13.5 -92.5t-4.5 -61.5q0 -51 26.5 -73.5t87.5 -22.5h25l-12 -84q-102 6 -177 9t-120 3q-41 0 -103 -2t-180 -8zM872 1534h-121l-215 326l86 41l217 -186
l304 188l77 -53z" />
    <glyph glyph-name="rcaron" unicode="&#x159;" horiz-adv-x="842" 
d="M55 -27q64 258 102 461.5t38 274.5q0 35 -14 55t-38 20q-22 0 -96 -47q-11 -6 -16 -10l-35 74l3 2q227 168 294 168q55 0 82.5 -39.5t27.5 -116.5q0 -36 -6 -87t-18 -120q135 221 201.5 291t126.5 70q40 0 66 -29t26 -76q0 -26 -18.5 -68.5t-59.5 -109.5q-22 27 -44 40
t-44 13q-43 0 -97 -54t-145 -189q-33 -135 -55.5 -252.5t-34.5 -223.5zM561 1085h-121l-215 326l86 41l217 -186l304 188l77 -53z" />
    <glyph glyph-name="Sacute" unicode="&#x15a;" horiz-adv-x="1200" 
d="M1102 1319q-23 -81 -37.5 -158t-22.5 -153l-87 8q2 22 3.5 40.5t2.5 33.5q0 82 -74.5 132t-196.5 50q-115 0 -181.5 -54.5t-66.5 -146.5q0 -75 46.5 -129t211.5 -141q214 -114 274 -190t60 -183q0 -195 -170 -332t-420 -137q-95 0 -190 24.5t-193 73.5q22 88 34.5 171.5
t17.5 164.5l94 -6q0 -2 -1 -7q-3 -37 -3 -54q0 -103 87 -166.5t226 -63.5q123 0 203 67t80 167q0 131 -244 256q-23 12 -35 18q-171 87 -242 171.5t-71 195.5q0 178 159.5 307t391.5 129q78 0 163 -21.5t181 -66.5zM866 1979l177 -86l-357 -359l-80 35z" />
    <glyph glyph-name="sacute" unicode="&#x15b;" horiz-adv-x="846" 
d="M696 762l-63 -53q-61 75 -109 108t-98 33q-47 0 -79 -28t-32 -68t33 -78t131 -105l16 -10q199 -131 199 -237q0 -142 -126.5 -247.5t-301.5 -105.5q-112 0 -186 43.5t-74 106.5q0 24 11 44t36 40l64 51q65 -88 119 -126t114 -38q55 0 91 31.5t36 79.5q0 71 -173 188
l-19 12q-108 72 -147.5 126.5t-39.5 121.5q0 129 125 225.5t301 96.5q89 0 151 -40.5t62 -94.5q0 -20 -10.5 -40t-30.5 -36zM614 1530l177 -86l-357 -359l-80 35z" />
    <glyph glyph-name="Scircumflex" unicode="&#x15c;" horiz-adv-x="1200" 
d="M1102 1319q-23 -81 -37.5 -158t-22.5 -153l-87 8q2 22 3.5 40.5t2.5 33.5q0 82 -74.5 132t-196.5 50q-115 0 -181.5 -54.5t-66.5 -146.5q0 -75 46.5 -129t211.5 -141q214 -114 274 -190t60 -183q0 -195 -170 -332t-420 -137q-95 0 -190 24.5t-193 73.5q22 88 34.5 171.5
t17.5 164.5l94 -6q0 -2 -1 -7q-3 -37 -3 -54q0 -103 87 -166.5t226 -63.5q123 0 203 67t80 167q0 131 -244 256q-23 12 -35 18q-171 87 -242 171.5t-71 195.5q0 178 159.5 307t391.5 129q78 0 163 -21.5t181 -66.5zM754 1905h119l215 -328l-84 -38l-220 184l-301 -189
l-77 54z" />
    <glyph glyph-name="scircumflex" unicode="&#x15d;" horiz-adv-x="846" 
d="M696 762l-63 -53q-61 75 -109 108t-98 33q-47 0 -79 -28t-32 -68t33 -78t131 -105l16 -10q199 -131 199 -237q0 -142 -126.5 -247.5t-301.5 -105.5q-112 0 -186 43.5t-74 106.5q0 24 11 44t36 40l64 51q65 -88 119 -126t114 -38q55 0 91 31.5t36 79.5q0 71 -173 188
l-19 12q-108 72 -147.5 126.5t-39.5 121.5q0 129 125 225.5t301 96.5q89 0 151 -40.5t62 -94.5q0 -20 -10.5 -40t-30.5 -36zM502 1456h119l215 -328l-84 -38l-220 184l-301 -189l-77 54z" />
    <glyph glyph-name="Scedilla" unicode="&#x15e;" horiz-adv-x="1200" 
d="M1102 1319q-23 -81 -37.5 -158t-22.5 -153l-87 8q2 22 3.5 40.5t2.5 33.5q0 82 -74.5 132t-196.5 50q-115 0 -181.5 -54.5t-66.5 -146.5q0 -75 46.5 -129t211.5 -141q214 -114 274 -190t60 -183q0 -195 -170 -332t-420 -137q-95 0 -190 24.5t-193 73.5q22 88 34.5 171.5
t17.5 164.5l94 -6q0 -2 -1 -7q-3 -37 -3 -54q0 -103 87 -166.5t226 -63.5q123 0 203 67t80 167q0 131 -244 256q-23 12 -35 18q-171 87 -242 171.5t-71 195.5q0 178 159.5 307t391.5 129q78 0 163 -21.5t181 -66.5zM545 47h127l-187 -194q57 -19 86 -52.5t29 -81.5
q0 -90 -99 -158t-267 -89l-35 79q95 14 153 51.5t58 82.5q0 40 -28.5 62.5t-98.5 35.5z" />
    <glyph glyph-name="scedilla" unicode="&#x15f;" horiz-adv-x="846" 
d="M696 762l-63 -53q-61 75 -109 108t-98 33q-47 0 -79 -28t-32 -68t33 -78t131 -105l16 -10q199 -131 199 -237q0 -142 -126.5 -247.5t-301.5 -105.5q-112 0 -186 43.5t-74 106.5q0 24 11 44t36 40l64 51q65 -88 119 -126t114 -38q55 0 91 31.5t36 79.5q0 71 -173 188
l-19 12q-108 72 -147.5 126.5t-39.5 121.5q0 129 125 225.5t301 96.5q89 0 151 -40.5t62 -94.5q0 -20 -10.5 -40t-30.5 -36zM377 47h127l-187 -194q57 -19 86 -52.5t29 -81.5q0 -90 -99 -158t-267 -89l-35 79q95 14 153 51.5t58 82.5q0 40 -28.5 62.5t-98.5 35.5z" />
    <glyph glyph-name="Scaron" unicode="&#x160;" horiz-adv-x="1200" 
d="M1102 1319q-23 -81 -37.5 -158t-22.5 -153l-87 8q2 22 3.5 40.5t2.5 33.5q0 82 -74.5 132t-196.5 50q-115 0 -181.5 -54.5t-66.5 -146.5q0 -75 46.5 -129t211.5 -141q214 -114 274 -190t60 -183q0 -195 -170 -332t-420 -137q-95 0 -190 24.5t-193 73.5q22 88 34.5 171.5
t17.5 164.5l94 -6q0 -2 -1 -7q-3 -37 -3 -54q0 -103 87 -166.5t226 -63.5q123 0 203 67t80 167q0 131 -244 256q-23 12 -35 18q-171 87 -242 171.5t-71 195.5q0 178 159.5 307t391.5 129q78 0 163 -21.5t181 -66.5zM815 1534h-121l-215 326l86 41l217 -186l304 188l77 -53z
" />
    <glyph glyph-name="scaron" unicode="&#x161;" horiz-adv-x="846" 
d="M696 762l-63 -53q-61 75 -109 108t-98 33q-47 0 -79 -28t-32 -68t33 -78t131 -105l16 -10q199 -131 199 -237q0 -142 -126.5 -247.5t-301.5 -105.5q-112 0 -186 43.5t-74 106.5q0 24 11 44t36 40l64 51q65 -88 119 -126t114 -38q55 0 91 31.5t36 79.5q0 71 -173 188
l-19 12q-108 72 -147.5 126.5t-39.5 121.5q0 129 125 225.5t301 96.5q89 0 151 -40.5t62 -94.5q0 -20 -10.5 -40t-30.5 -36zM563 1085h-121l-215 326l86 41l217 -186l304 188l77 -53z" />
    <glyph glyph-name="Tcedilla" unicode="&#x162;" horiz-adv-x="1274" 
d="M227 84h49q119 0 174 319l5 25l139 801h-174q-111 0 -162 -45.5t-74 -165.5l-92 12q25 90 41.5 174t24.5 162q78 -8 145 -12t127 -4q45 0 87 1.5t84 4.5h306q27 0 83.5 -1t86.5 -1q78 0 138 3t116 9q-16 -77 -27 -161t-18 -175l-92 -6q1 10 1.5 23t0.5 45
q0 67 -41.5 98.5t-142.5 38.5h-162l-162 -969q-3 -16 -4.5 -33t-1.5 -37q0 -58 27 -82t94 -24h28l-16 -84q-147 9 -209 11.5t-104 2.5q-35 0 -90.5 -2.5t-202.5 -11.5zM543 47h127l-187 -194q57 -19 86 -52.5t29 -81.5q0 -90 -99 -158t-267 -89l-35 79q95 14 153 51.5
t58 82.5q0 40 -28.5 62.5t-98.5 35.5z" />
    <glyph glyph-name="tcedilla" unicode="&#x163;" horiz-adv-x="743" 
d="M518 1217q-29 -110 -44 -172t-25 -113h40q47 0 99 1.5t110 4.5l-26 -118q-30 0 -65.5 0.5t-106.5 0.5h-74q-43 -195 -66.5 -339.5t-23.5 -213.5q0 -58 16 -89.5t45 -31.5q17 0 54 27t120 100l37 -79l-4 -5q-242 -229 -328 -229q-79 0 -127.5 72.5t-48.5 193.5
q0 82 26.5 228.5t80.5 367.5q-14 0 -40 -1t-38 -1h-72l17 86q50 5 89.5 20t76.5 44q9 31 20.5 65.5t32.5 98.5zM303 47h127l-187 -194q57 -19 86 -52.5t29 -81.5q0 -90 -99 -158t-267 -89l-35 79q95 14 153 51.5t58 82.5q0 40 -28.5 62.5t-98.5 35.5z" />
    <glyph glyph-name="Tcaron" unicode="&#x164;" horiz-adv-x="1274" 
d="M227 84h49q119 0 174 319l5 25l139 801h-174q-111 0 -162 -45.5t-74 -165.5l-92 12q25 90 41.5 174t24.5 162q78 -8 145 -12t127 -4q45 0 87 1.5t84 4.5h306q27 0 83.5 -1t86.5 -1q78 0 138 3t116 9q-16 -77 -27 -161t-18 -175l-92 -6q1 10 1.5 23t0.5 45
q0 67 -41.5 98.5t-142.5 38.5h-162l-162 -969q-3 -16 -4.5 -33t-1.5 -37q0 -58 27 -82t94 -24h28l-16 -84q-147 9 -209 11.5t-104 2.5q-35 0 -90.5 -2.5t-202.5 -11.5zM852 1534h-121l-215 326l86 41l217 -186l304 188l77 -53z" />
    <glyph glyph-name="tcaron" unicode="&#x165;" horiz-adv-x="1053" 
d="M518 1217q-29 -110 -44 -172t-25 -113h40q47 0 99 1.5t110 4.5l-26 -118q-30 0 -65.5 0.5t-106.5 0.5h-74q-43 -195 -66.5 -339.5t-23.5 -213.5q0 -58 16 -89.5t45 -31.5q17 0 54 27t120 100l37 -79l-4 -5q-242 -229 -328 -229q-79 0 -127.5 72.5t-48.5 193.5
q0 82 26.5 228.5t80.5 367.5q-14 0 -40 -1t-38 -1h-72l17 86q50 5 89.5 20t76.5 44q9 31 20.5 65.5t32.5 98.5zM1030 1409l55 -57q31 -32 45 -61t14 -62q0 -87 -83 -189t-226 -186l-55 64q92 65 127 107t35 83q0 30 -35 79t-35 75q0 30 16 52.5t54 43.5z" />
    <glyph glyph-name="Utilde" unicode="&#x168;" horiz-adv-x="1511" 
d="M180 1366h3q209 -14 263 -14q48 0 112.5 3t174.5 11l-16 -86q-7 0 -17.5 1t-15.5 1q-118 0 -158 -246q-9 -53 -14 -81l-53 -306q-15 -79 -22 -139t-7 -113q0 -122 90 -200t234 -78q89 0 164.5 32.5t121.5 92.5q40 49 66.5 138.5t56.5 297.5l29 209q19 135 27 198.5
t8 81.5q0 61 -28 86t-95 25h-19l17 86q22 -1 64 -4q123 -8 167 -8q48 0 108 3t132 9l-12 -86h-21q-60 0 -86.5 -14t-42.5 -52q-25 -60 -64 -320q-30 -207 -53 -335q-28 -168 -64 -257t-95 -155q-83 -92 -204.5 -141t-266.5 -49q-234 0 -367 114t-133 312q0 76 52 343
q18 92 28 142q25 131 38 216t13 116q0 42 -28.5 61t-92.5 19h-10zM1272 1883l64 -41q-48 -81 -108.5 -142t-137.5 -108q-57 13 -153 42t-130 29q-45 0 -87.5 -25.5t-94.5 -86.5l-57 45q55 80 116.5 140t132.5 104q57 -13 149 -41.5t126 -28.5q49 0 94 28t86 85z" />
    <glyph glyph-name="utilde" unicode="&#x169;" horiz-adv-x="1126" 
d="M1063 172l-129 -113q-50 -42 -89 -62t-75 -20q-59 0 -96 47.5t-37 125.5q0 26 2 53t6 53q-178 -173 -260.5 -230t-138.5 -57q-67 0 -112.5 60t-45.5 153q0 82 57 305q7 27 11 42q25 99 36 147t11 63q0 27 -10 41.5t-29 14.5q-14 0 -49 -14t-76 -38l-27 70l33 21
q206 133 262 133t90.5 -42.5t34.5 -111.5q0 -85 -53 -276t-53 -271q0 -40 14 -60t43 -20q33 0 102 50t174 151q25 115 48 243.5t49 287.5l250 49q-11 -40 -31.5 -132t-48.5 -233l-25 -121q-21 -106 -31 -169.5t-10 -94.5q0 -28 9.5 -42.5t27.5 -14.5q17 0 51.5 22t83.5 66z
M991 1434l64 -41q-48 -81 -108.5 -142t-137.5 -108q-57 13 -153 42t-130 29q-45 0 -87.5 -25.5t-94.5 -86.5l-57 45q55 80 116.5 140t132.5 104q57 -13 149 -41.5t126 -28.5q49 0 94 28t86 85z" />
    <glyph glyph-name="Umacron" unicode="&#x16a;" horiz-adv-x="1511" 
d="M180 1366h3q209 -14 263 -14q48 0 112.5 3t174.5 11l-16 -86q-7 0 -17.5 1t-15.5 1q-118 0 -158 -246q-9 -53 -14 -81l-53 -306q-15 -79 -22 -139t-7 -113q0 -122 90 -200t234 -78q89 0 164.5 32.5t121.5 92.5q40 49 66.5 138.5t56.5 297.5l29 209q19 135 27 198.5
t8 81.5q0 61 -28 86t-95 25h-19l17 86q22 -1 64 -4q123 -8 167 -8q48 0 108 3t132 9l-12 -86h-21q-60 0 -86.5 -14t-42.5 -52q-25 -60 -64 -320q-30 -207 -53 -335q-28 -168 -64 -257t-95 -155q-83 -92 -204.5 -141t-266.5 -49q-234 0 -367 114t-133 312q0 76 52 343
q18 92 28 142q25 131 38 216t13 116q0 42 -28.5 61t-92.5 19h-10zM654 1768h612l-27 -154h-614z" />
    <glyph glyph-name="umacron" unicode="&#x16b;" horiz-adv-x="1126" 
d="M1063 172l-129 -113q-50 -42 -89 -62t-75 -20q-59 0 -96 47.5t-37 125.5q0 26 2 53t6 53q-178 -173 -260.5 -230t-138.5 -57q-67 0 -112.5 60t-45.5 153q0 82 57 305q7 27 11 42q25 99 36 147t11 63q0 27 -10 41.5t-29 14.5q-14 0 -49 -14t-76 -38l-27 70l33 21
q206 133 262 133t90.5 -42.5t34.5 -111.5q0 -85 -53 -276t-53 -271q0 -40 14 -60t43 -20q33 0 102 50t174 151q25 115 48 243.5t49 287.5l250 49q-11 -40 -31.5 -132t-48.5 -233l-25 -121q-21 -106 -31 -169.5t-10 -94.5q0 -28 9.5 -42.5t27.5 -14.5q17 0 51.5 22t83.5 66z
M373 1319h612l-27 -154h-614z" />
    <glyph glyph-name="Ubreve" unicode="&#x16c;" horiz-adv-x="1511" 
d="M180 1366h3q209 -14 263 -14q48 0 112.5 3t174.5 11l-16 -86q-7 0 -17.5 1t-15.5 1q-118 0 -158 -246q-9 -53 -14 -81l-53 -306q-15 -79 -22 -139t-7 -113q0 -122 90 -200t234 -78q89 0 164.5 32.5t121.5 92.5q40 49 66.5 138.5t56.5 297.5l29 209q19 135 27 198.5
t8 81.5q0 61 -28 86t-95 25h-19l17 86q22 -1 64 -4q123 -8 167 -8q48 0 108 3t132 9l-12 -86h-21q-60 0 -86.5 -14t-42.5 -52q-25 -60 -64 -320q-30 -207 -53 -335q-28 -168 -64 -257t-95 -155q-83 -92 -204.5 -141t-266.5 -49q-234 0 -367 114t-133 312q0 76 52 343
q18 92 28 142q25 131 38 216t13 116q0 42 -28.5 61t-92.5 19h-10zM651 1872l91 29q18 -103 70 -154t138 -51q83 0 146.5 53.5t99.5 153.5l94 -35q-60 -163 -153.5 -248.5t-212.5 -85.5q-118 0 -187.5 87t-85.5 251z" />
    <glyph glyph-name="ubreve" unicode="&#x16d;" horiz-adv-x="1126" 
d="M1063 172l-129 -113q-50 -42 -89 -62t-75 -20q-59 0 -96 47.5t-37 125.5q0 26 2 53t6 53q-178 -173 -260.5 -230t-138.5 -57q-67 0 -112.5 60t-45.5 153q0 82 57 305q7 27 11 42q25 99 36 147t11 63q0 27 -10 41.5t-29 14.5q-14 0 -49 -14t-76 -38l-27 70l33 21
q206 133 262 133t90.5 -42.5t34.5 -111.5q0 -85 -53 -276t-53 -271q0 -40 14 -60t43 -20q33 0 102 50t174 151q25 115 48 243.5t49 287.5l250 49q-11 -40 -31.5 -132t-48.5 -233l-25 -121q-21 -106 -31 -169.5t-10 -94.5q0 -28 9.5 -42.5t27.5 -14.5q17 0 51.5 22t83.5 66z
M370 1423l91 29q18 -103 70 -154t138 -51q83 0 146.5 53.5t99.5 153.5l94 -35q-60 -163 -153.5 -248.5t-212.5 -85.5q-118 0 -187.5 87t-85.5 251z" />
    <glyph glyph-name="Uring" unicode="&#x16e;" horiz-adv-x="1511" 
d="M180 1366h3q209 -14 263 -14q48 0 112.5 3t174.5 11l-16 -86q-7 0 -17.5 1t-15.5 1q-118 0 -158 -246q-9 -53 -14 -81l-53 -306q-15 -79 -22 -139t-7 -113q0 -122 90 -200t234 -78q89 0 164.5 32.5t121.5 92.5q40 49 66.5 138.5t56.5 297.5l29 209q19 135 27 198.5
t8 81.5q0 61 -28 86t-95 25h-19l17 86q22 -1 64 -4q123 -8 167 -8q48 0 108 3t132 9l-12 -86h-21q-60 0 -86.5 -14t-42.5 -52q-25 -60 -64 -320q-30 -207 -53 -335q-28 -168 -64 -257t-95 -155q-83 -92 -204.5 -141t-266.5 -49q-234 0 -367 114t-133 312q0 76 52 343
q18 92 28 142q25 131 38 216t13 116q0 42 -28.5 61t-92.5 19h-10zM963 1899q-54 0 -91.5 -37.5t-37.5 -91.5q0 -52 38.5 -90.5t90.5 -38.5q53 0 91 38t38 91q0 54 -37.5 91.5t-91.5 37.5zM963 2012q101 0 171 -70.5t70 -171.5q0 -100 -70.5 -171t-170.5 -71
q-99 0 -170.5 71.5t-71.5 170.5q0 100 71 171t171 71z" />
    <glyph glyph-name="uring" unicode="&#x16f;" horiz-adv-x="1126" 
d="M1063 172l-129 -113q-50 -42 -89 -62t-75 -20q-59 0 -96 47.5t-37 125.5q0 26 2 53t6 53q-178 -173 -260.5 -230t-138.5 -57q-67 0 -112.5 60t-45.5 153q0 82 57 305q7 27 11 42q25 99 36 147t11 63q0 27 -10 41.5t-29 14.5q-14 0 -49 -14t-76 -38l-27 70l33 21
q206 133 262 133t90.5 -42.5t34.5 -111.5q0 -85 -53 -276t-53 -271q0 -40 14 -60t43 -20q33 0 102 50t174 151q25 115 48 243.5t49 287.5l250 49q-11 -40 -31.5 -132t-48.5 -233l-25 -121q-21 -106 -31 -169.5t-10 -94.5q0 -28 9.5 -42.5t27.5 -14.5q17 0 51.5 22t83.5 66z
M682 1450q-54 0 -91.5 -37.5t-37.5 -91.5q0 -52 38.5 -90.5t90.5 -38.5q53 0 91 38t38 91q0 54 -37.5 91.5t-91.5 37.5zM682 1563q101 0 171 -70.5t70 -171.5q0 -100 -70.5 -171t-170.5 -71q-99 0 -170.5 71.5t-71.5 170.5q0 100 71 171t171 71z" />
    <glyph glyph-name="Uhungarumlaut" unicode="&#x170;" horiz-adv-x="1511" 
d="M180 1366h3q209 -14 263 -14q48 0 112.5 3t174.5 11l-16 -86q-7 0 -17.5 1t-15.5 1q-118 0 -158 -246q-9 -53 -14 -81l-53 -306q-15 -79 -22 -139t-7 -113q0 -122 90 -200t234 -78q89 0 164.5 32.5t121.5 92.5q40 49 66.5 138.5t56.5 297.5l29 209q19 135 27 198.5
t8 81.5q0 61 -28 86t-95 25h-19l17 86q22 -1 64 -4q123 -8 167 -8q48 0 108 3t132 9l-12 -86h-21q-60 0 -86.5 -14t-42.5 -52q-25 -60 -64 -320q-30 -207 -53 -335q-28 -168 -64 -257t-95 -155q-83 -92 -204.5 -141t-266.5 -49q-234 0 -367 114t-133 312q0 76 52 343
q18 92 28 142q25 131 38 216t13 116q0 42 -28.5 61t-92.5 19h-10zM1196 1979l168 -74l-325 -371l-70 31zM875 1979l176 -47l-260 -398l-76 19z" />
    <glyph glyph-name="uhungarumlaut" unicode="&#x171;" horiz-adv-x="1126" 
d="M1063 172l-129 -113q-50 -42 -89 -62t-75 -20q-59 0 -96 47.5t-37 125.5q0 26 2 53t6 53q-178 -173 -260.5 -230t-138.5 -57q-67 0 -112.5 60t-45.5 153q0 82 57 305q7 27 11 42q25 99 36 147t11 63q0 27 -10 41.5t-29 14.5q-14 0 -49 -14t-76 -38l-27 70l33 21
q206 133 262 133t90.5 -42.5t34.5 -111.5q0 -85 -53 -276t-53 -271q0 -40 14 -60t43 -20q33 0 102 50t174 151q25 115 48 243.5t49 287.5l250 49q-11 -40 -31.5 -132t-48.5 -233l-25 -121q-21 -106 -31 -169.5t-10 -94.5q0 -28 9.5 -42.5t27.5 -14.5q17 0 51.5 22t83.5 66z
M915 1530l168 -74l-325 -371l-70 31zM594 1530l176 -47l-260 -398l-76 19z" />
    <glyph glyph-name="Uogonek" unicode="&#x172;" horiz-adv-x="1511" 
d="M180 1366h3q209 -14 263 -14q48 0 112.5 3t174.5 11l-16 -86q-7 0 -17.5 1t-15.5 1q-118 0 -158 -246q-9 -53 -14 -81l-53 -306q-15 -79 -22 -139t-7 -113q0 -122 90 -200t234 -78q89 0 164.5 32.5t121.5 92.5q40 49 66.5 138.5t56.5 297.5l29 209q19 135 27 198.5
t8 81.5q0 61 -28 86t-95 25h-19l17 86q22 -1 64 -4q123 -8 167 -8q48 0 108 3t132 9l-12 -86h-21q-60 0 -86.5 -14t-42.5 -52q-25 -60 -64 -320q-30 -207 -53 -335q-28 -168 -64 -257t-95 -155q-83 -92 -204.5 -141t-266.5 -49q-234 0 -367 114t-133 312q0 76 52 343
q18 92 28 142q25 131 38 216t13 116q0 42 -28.5 61t-92.5 19h-10zM684 35h115q-98 -88 -138.5 -145.5t-40.5 -108.5q0 -43 25.5 -68.5t67.5 -25.5q24 0 55.5 15.5t69.5 47.5l41 -74q-70 -60 -137 -91t-128 -31q-73 0 -118 43.5t-45 113.5q0 72 53.5 146.5t179.5 177.5z" />
    <glyph glyph-name="uogonek" unicode="&#x173;" horiz-adv-x="1126" 
d="M1063 172q-40 -35 -111 -95q-229 -192 -229 -296q0 -41 24.5 -67.5t61.5 -26.5q24 0 52.5 13.5t76.5 49.5l41 -74q-72 -61 -139 -93t-125 -32q-73 0 -119.5 45t-46.5 113q0 67 39 128.5t139 148.5q-45 19 -67.5 60t-22.5 104q0 26 2 53t6 53q-178 -173 -260.5 -230
t-138.5 -57q-67 0 -112.5 60t-45.5 153q0 82 57 305q7 27 11 42q25 99 36 147t11 63q0 27 -10 41.5t-29 14.5q-14 0 -49 -14t-76 -38l-27 70q152 98 206.5 124t88.5 26q56 0 90.5 -41t34.5 -109q0 -85 -53 -276t-53 -271q0 -40 14 -60t43 -20q33 0 102 50t174 151
q25 115 48 243.5t49 287.5l250 45q-11 -35 -31 -124.5t-49 -236.5l-25 -121q-21 -106 -31 -169.5t-10 -94.5q0 -28 9.5 -42.5t27.5 -14.5q17 0 51.5 22t83.5 66z" />
    <glyph glyph-name="Wcircumflex" unicode="&#x174;" horiz-adv-x="2048" 
d="M420 -33q-11 137 -35 298q-3 22 -4 30l-105 745q-20 156 -51 197t-102 41h-21l15 88q78 -8 149.5 -12t136.5 -4q53 0 121 2t146 6l-13 -82q-7 1 -15 1.5t-24 0.5q-59 0 -85.5 -22.5t-26.5 -73.5q0 -15 0.5 -23.5t1.5 -16.5l117 -843l401 750l-16 104q-14 73 -41 98
t-86 25h-15l21 90q84 -6 147 -9t105 -3q60 0 130.5 3t151.5 9l-17 -92q-7 1 -15.5 1.5t-24.5 0.5q-63 0 -90 -22t-27 -72q0 -11 1.5 -27.5t4.5 -39.5l119 -816l395 811q21 44 28 66t7 38q0 32 -23 47t-73 15q-16 0 -24.5 -0.5t-15.5 -1.5l20 92q77 -6 135.5 -9t95.5 -3
q54 0 115.5 3t132.5 9l-19 -90h-20q-105 0 -195 -172q-13 -25 -20 -39l-397 -760q-7 -13 -24 -45q-86 -159 -144 -293h-170q-3 56 -9 112t-18 130l-94 637l-361 -662q-30 -54 -56 -108t-48 -109h-172zM1178 1905h119l215 -328l-84 -38l-220 184l-301 -189l-77 54z" />
    <glyph glyph-name="wcircumflex" unicode="&#x175;" horiz-adv-x="1507" 
d="M209 -32q3 53 4.5 107t1.5 107q0 386 -18.5 501.5t-67.5 115.5q-17 0 -41 -16t-68 -56l-34 72q90 88 162 134t120 46q84 0 117 -93.5t33 -379.5q0 -10 -1.5 -105t-2.5 -179q28 58 81 165q221 455 228 542l215 50v-66q0 -81 14 -239q4 -53 6 -80l9 -123l3 -36
q13 -144 13 -242q123 215 192.5 370t69.5 211q0 28 -15.5 50t-43.5 34l47 62q23 30 48.5 44.5t57.5 14.5q43 0 69 -25.5t26 -68.5q0 -59 -50.5 -170t-187.5 -346l-217 -373l-186 -29q1 20 1.5 38t0.5 38q0 28 -3 73t-10 111l-20 222q-1 9 -3 28q-12 133 -16 209l-331 -676z
M830 1456h119l215 -328l-84 -38l-220 184l-301 -189l-77 54z" />
    <glyph glyph-name="Ycircumflex" unicode="&#x176;" horiz-adv-x="1298" 
d="M117 1366q96 -6 166.5 -9t117.5 -3q48 0 118.5 3t162.5 9l-14 -84h-23q-62 0 -90.5 -17.5t-28.5 -56.5q0 -14 4 -30.5t13 -38.5l155 -447l320 451q14 21 23.5 45t9.5 39q0 28 -21.5 42.5t-62.5 14.5q-4 0 -12.5 -1t-12.5 -1l17 84q16 -1 50 -4q120 -8 162 -8q49 0 185 9
l51 3l-16 -86h-13q-48 0 -81 -18t-78 -78l-471 -619l-54 -327q-4 -22 -6 -40t-2 -26q0 -48 28 -69t91 -21q16 0 25 0.5t15 1.5l-14 -86q-127 9 -193.5 12.5t-102.5 3.5q-45 0 -110 -2.5t-202 -11.5l17 86q8 -1 17.5 -1.5t27.5 -0.5q74 0 105 29.5t48 126.5l54 319l-220 584
q-34 93 -62.5 117t-82.5 24q-4 0 -12.5 -1t-14.5 -1zM803 1905h119l215 -328l-84 -38l-220 184l-301 -189l-77 54z" />
    <glyph glyph-name="ycircumflex" unicode="&#x177;" horiz-adv-x="983" 
d="M-96 -285q32 -43 66.5 -64.5t72.5 -21.5q96 0 166 135.5t70 344.5q0 296 -37 474.5t-97 178.5q-15 0 -36.5 -20.5t-67.5 -82.5l-51 64q110 155 163.5 203.5t102.5 48.5q102 0 157.5 -175t55.5 -501q0 -40 -2 -93.5t-6 -115.5q169 346 215.5 466t46.5 179q0 36 -13 61
t-40 44l63 73q28 33 52.5 47.5t52.5 14.5q37 0 58.5 -28t21.5 -77q0 -86 -108 -317.5t-290 -529.5q-176 -292 -313 -425t-260 -133q-66 0 -108 32t-42 83q0 21 10 39t37 43zM570 1456h119l215 -328l-84 -38l-220 184l-301 -189l-77 54z" />
    <glyph glyph-name="Ydieresis" unicode="&#x178;" horiz-adv-x="1298" 
d="M117 1366q96 -6 166.5 -9t117.5 -3q48 0 118.5 3t162.5 9l-14 -84h-23q-62 0 -90.5 -17.5t-28.5 -56.5q0 -14 4 -30.5t13 -38.5l155 -447l320 451q14 21 23.5 45t9.5 39q0 28 -21.5 42.5t-62.5 14.5q-4 0 -12.5 -1t-12.5 -1l17 84q16 -1 50 -4q120 -8 162 -8q49 0 185 9
l51 3l-16 -86h-13q-48 0 -81 -18t-78 -78l-471 -619l-54 -327q-4 -22 -6 -40t-2 -26q0 -48 28 -69t91 -21q16 0 25 0.5t15 1.5l-14 -86q-127 9 -193.5 12.5t-102.5 3.5q-45 0 -110 -2.5t-202 -11.5l17 86q8 -1 17.5 -1.5t27.5 -0.5q74 0 105 29.5t48 126.5l54 319l-220 584
q-34 93 -62.5 117t-82.5 24q-4 0 -12.5 -1t-14.5 -1zM1059 1842q42 0 82.5 -45.5t40.5 -92.5q0 -39 -49.5 -77.5t-98.5 -38.5q-44 0 -83.5 44t-39.5 87q0 42 49.5 82.5t98.5 40.5zM631 1842q42 0 82.5 -45t40.5 -93q0 -38 -49.5 -77t-98.5 -39q-43 0 -83 44t-40 87
q0 42 50 82.5t98 40.5z" />
    <glyph glyph-name="Zacute" unicode="&#x179;" horiz-adv-x="1360" 
d="M-8 84q48 36 117 112t217 261l620 774q-23 0 -84 1t-98 1h-62q-259 0 -332 -45.5t-100 -171.5l-96 22q26 88 45.5 171t32.5 163q41 -10 119 -14t252 -4h114q219 0 346 4t199 14l37 -86q-89 -82 -261 -304q-73 -94 -112 -142l-559 -701q62 -2 125.5 -3t159.5 -1h73
q226 0 295 50.5t101 189.5l94 -23q-29 -94 -50 -183t-34 -173q-199 8 -330 11t-235 3q-116 0 -249.5 -3.5t-307.5 -10.5zM946 1979l177 -86l-357 -359l-80 35z" />
    <glyph glyph-name="zacute" unicode="&#x17a;" horiz-adv-x="983" 
d="M-61 18q159 166 323.5 345t335.5 374q-14 2 -41 5q-207 26 -274 26q-65 0 -99 -32.5t-47 -106.5l-82 14l19 86q29 134 80.5 190t140.5 56q86 0 227.5 -30t192.5 -30q54 0 90.5 19.5t73.5 66.5l69 -65q-243 -259 -394 -425.5t-255 -287.5q110 -18 199.5 -28.5t138.5 -10.5
q87 0 126 36.5t56 133.5l80 -12q-25 -206 -85 -288.5t-179 -82.5q-80 0 -229 33t-209 33q-61 0 -106 -20t-83 -64zM682 1530l177 -86l-357 -359l-80 35z" />
    <glyph glyph-name="Zdotaccent" unicode="&#x17b;" horiz-adv-x="1360" 
d="M-8 84q48 36 117 112t217 261l620 774q-23 0 -84 1t-98 1h-62q-259 0 -332 -45.5t-100 -171.5l-96 22q26 88 45.5 171t32.5 163q41 -10 119 -14t252 -4h114q219 0 346 4t199 14l37 -86q-89 -82 -261 -304q-73 -94 -112 -142l-559 -701q62 -2 125.5 -3t159.5 -1h73
q226 0 295 50.5t101 189.5l94 -23q-29 -94 -50 -183t-34 -173q-199 8 -330 11t-235 3q-116 0 -249.5 -3.5t-307.5 -10.5zM881 1848q44 0 86.5 -49t42.5 -97q0 -39 -52.5 -79.5t-103.5 -40.5q-45 0 -86 46t-41 91q0 44 51.5 86.5t102.5 42.5z" />
    <glyph glyph-name="zdotaccent" unicode="&#x17c;" horiz-adv-x="983" 
d="M-61 18q159 166 323.5 345t335.5 374q-14 2 -41 5q-207 26 -274 26q-65 0 -99 -32.5t-47 -106.5l-82 14l19 86q29 134 80.5 190t140.5 56q86 0 227.5 -30t192.5 -30q54 0 90.5 19.5t73.5 66.5l69 -65q-243 -259 -394 -425.5t-255 -287.5q110 -18 199.5 -28.5t138.5 -10.5
q87 0 126 36.5t56 133.5l80 -12q-25 -206 -85 -288.5t-179 -82.5q-80 0 -229 33t-209 33q-61 0 -106 -20t-83 -64zM617 1399q44 0 86.5 -49t42.5 -97q0 -39 -52.5 -79.5t-103.5 -40.5q-45 0 -86 46t-41 91q0 44 51.5 86.5t102.5 42.5z" />
    <glyph glyph-name="Zcaron" unicode="&#x17d;" horiz-adv-x="1360" 
d="M-8 84q48 36 117 112t217 261l620 774q-23 0 -84 1t-98 1h-62q-259 0 -332 -45.5t-100 -171.5l-96 22q26 88 45.5 171t32.5 163q41 -10 119 -14t252 -4h114q219 0 346 4t199 14l37 -86q-89 -82 -261 -304q-73 -94 -112 -142l-559 -701q62 -2 125.5 -3t159.5 -1h73
q226 0 295 50.5t101 189.5l94 -23q-29 -94 -50 -183t-34 -173q-199 8 -330 11t-235 3q-116 0 -249.5 -3.5t-307.5 -10.5zM895 1534h-121l-215 326l86 41l217 -186l304 188l77 -53z" />
    <glyph glyph-name="zcaron" unicode="&#x17e;" horiz-adv-x="983" 
d="M-61 18q159 166 323.5 345t335.5 374q-14 2 -41 5q-207 26 -274 26q-65 0 -99 -32.5t-47 -106.5l-82 14l19 86q29 134 80.5 190t140.5 56q86 0 227.5 -30t192.5 -30q54 0 90.5 19.5t73.5 66.5l69 -65q-243 -259 -394 -425.5t-255 -287.5q110 -18 199.5 -28.5t138.5 -10.5
q87 0 126 36.5t56 133.5l80 -12q-25 -206 -85 -288.5t-179 -82.5q-80 0 -229 33t-209 33q-61 0 -106 -20t-83 -64zM631 1085h-121l-215 326l86 41l217 -186l304 188l77 -53z" />
    <glyph glyph-name="florin" unicode="&#x192;" horiz-adv-x="1190" 
d="M1192 1217l-43 -35q-39 56 -78 82t-84 26q-118 0 -187 -118t-106 -390h64h73q24 0 52.5 0.5t60.5 1.5l-23 -100q-78 1 -159.5 2.5t-87.5 1.5q-76 -514 -233 -781t-384 -267q-68 0 -110.5 30t-42.5 76q0 21 9 37.5t30 34.5l51 47q33 -43 69.5 -64.5t73.5 -21.5
q167 0 277 710q19 127 30 197h-206l22 98q20 -1 41 -1.5t61 -0.5h52h49q57 290 219.5 463.5t370.5 173.5q86 0 137 -30.5t51 -81.5q0 -26 -12 -48t-37 -42z" />
    <glyph glyph-name="clickdental" unicode="&#x1c0;" horiz-adv-x="1024" 
d="M602 1565v-2048h-178v2048h178z" />
    <glyph glyph-name="clicklateral" unicode="&#x1c1;" horiz-adv-x="2048" 
d="M602 1565v-2048h-178v2048h178zM1626 1565v-2048h-178v2048h178z" />
    <glyph glyph-name="clickretroflex" unicode="&#x1c3;" horiz-adv-x="680" 
d="M602 1395q-34 -202 -170 -635q-70 -225 -104 -344l-121 -29q42 260 73.5 497.5t53.5 461.5zM250 281l69 -68q30 -28 43 -52t13 -50q0 -35 -21.5 -61.5t-72.5 -53.5l-95 -49l-71 69q-30 30 -41 51t-11 46q0 36 22 63.5t73 54.5z" />
    <glyph glyph-name="DZcaron" unicode="&#x1c4;" horiz-adv-x="2929" 
d="M404 145q69 -11 111.5 -15.5t74.5 -4.5q154 0 254.5 33t173.5 106q83 85 131.5 225t48.5 297q0 222 -115 335.5t-340 113.5q-39 0 -132 -7q-16 -1 -23 -1q-57 -294 -103 -564t-81 -518zM-29 83q7 0 14.5 -0.5t20.5 -0.5q74 0 109.5 54t74.5 288l105 620q12 68 16 103
t4 55q0 39 -27.5 57.5t-86.5 18.5h-21l15 86q87 -6 141 -8t94 -2q94 0 216 5t149 5q336 0 512 -143t176 -416q0 -164 -63.5 -316t-178.5 -264q-115 -113 -271 -169t-356 -56q-47 0 -189.5 6t-236.5 6q-17 0 -72.5 -3t-160.5 -9zM1561 84q48 36 117 112t217 261l620 774
q-23 0 -84 1t-98 1h-62q-259 0 -332 -45.5t-100 -171.5l-96 22q26 88 45.5 171t32.5 163q41 -10 119 -14t252 -4h114q219 0 346 4t199 14l37 -86q-89 -82 -261 -304q-73 -94 -112 -142l-559 -701q62 -2 125.5 -3t159.5 -1h73q226 0 295 50.5t101 189.5l94 -23
q-29 -94 -50 -183t-34 -173q-199 8 -330 11t-235 3q-116 0 -249.5 -3.5t-307.5 -10.5zM2390 1474h-121l-215 326l86 41l217 -186l304 188l77 -53z" />
    <glyph glyph-name="Dzcaron" unicode="&#x1c5;" horiz-adv-x="2552" 
d="M404 145q69 -11 111.5 -15.5t74.5 -4.5q154 0 254.5 33t173.5 106q83 85 131.5 225t48.5 297q0 222 -115 335.5t-340 113.5q-39 0 -132 -7q-16 -1 -23 -1q-57 -294 -103 -564t-81 -518zM-29 83q7 0 14.5 -0.5t20.5 -0.5q74 0 109.5 54t74.5 288l105 620q12 68 16 103
t4 55q0 39 -27.5 57.5t-86.5 18.5h-21l15 86q87 -6 141 -8t94 -2q94 0 216 5t149 5q336 0 512 -143t176 -416q0 -164 -63.5 -316t-178.5 -264q-115 -113 -271 -169t-356 -56q-47 0 -189.5 6t-236.5 6q-17 0 -72.5 -3t-160.5 -9zM1508 18q159 166 323.5 345t335.5 374
q-14 2 -41 5q-207 26 -274 26q-65 0 -99 -32.5t-47 -106.5l-82 14l19 86q29 134 80.5 190t140.5 56q86 0 227.5 -30t192.5 -30q54 0 90.5 19.5t73.5 66.5l69 -65q-243 -259 -394 -425.5t-255 -287.5q110 -18 199.5 -28.5t138.5 -10.5q87 0 126 36.5t56 133.5l80 -12
q-25 -206 -85 -288.5t-179 -82.5q-80 0 -229 33t-209 33q-61 0 -106 -20t-83 -64zM2149 1103h-121l-215 326l86 41l217 -186l304 188l77 -53z" />
    <glyph glyph-name="dzcaron" unicode="&#x1c6;" horiz-adv-x="2085" 
d="M629 362l69 422q-55 36 -93.5 51t-72.5 15q-113 0 -190.5 -151t-77.5 -375q0 -83 20 -124.5t60 -41.5q32 0 104.5 52t180.5 152zM627 246l-152 -137q-80 -73 -135 -102.5t-107 -29.5q-93 0 -150.5 81t-57.5 214q0 286 157 493.5t369 207.5q46 0 88.5 -11t87.5 -34l47 299
q6 39 9 68t3 42q0 52 -16.5 70t-62.5 18q-6 0 -25 -1.5t-31 -2.5l-6 82q109 8 213 22.5t203 35.5q-96 -479 -154.5 -844t-58.5 -461q0 -52 9.5 -72t31.5 -20q8 0 26 10t39 27l60 49l33 -76l-119 -108q-56 -53 -98 -77t-78 -24q-61 0 -96 56.5t-35 154.5q0 12 2.5 36t3.5 34z
M1041 18q159 166 323.5 345t335.5 374q-14 2 -41 5q-207 26 -274 26q-65 0 -99 -32.5t-47 -106.5l-82 14l19 86q29 134 80.5 190t140.5 56q86 0 227.5 -30t192.5 -30q54 0 90.5 19.5t73.5 66.5l69 -65q-243 -259 -394 -425.5t-255 -287.5q110 -18 199.5 -28.5t138.5 -10.5
q87 0 126 36.5t56 133.5l80 -12q-25 -206 -85 -288.5t-179 -82.5q-80 0 -229 33t-209 33q-61 0 -106 -20t-83 -64zM1682 1103h-121l-215 326l86 41l217 -186l304 188l77 -53z" />
    <glyph glyph-name="LJ" unicode="&#x1c7;" horiz-adv-x="1893" 
d="M-36 84q6 -1 15 -1.5t27 -0.5q73 0 107 50.5t73 281.5l107 633q12 75 16 106t4 49q0 41 -27 59.5t-87 18.5h-21l15 86q87 -6 158 -9t126 -3q49 0 194 7q58 3 91 5l-14 -86h-21q-68 0 -100 -23t-47 -83q-25 -99 -75 -385.5t-103 -643.5q54 -5 115.5 -7.5t141.5 -2.5
q154 0 218.5 48.5t91.5 178.5l94 -14q-24 -84 -43 -170.5t-33 -177.5q-218 8 -350.5 11t-235.5 3q-80 0 -184 -3t-270 -11zM866 -324q198 4 292.5 110.5t150.5 428.5l145 832q13 75 17 106t4 49q0 42 -29 60t-96 18h-23l15 86q79 -6 149 -9t121 -3q84 0 160 2.5t149 6.5
l-16 -83q-7 0 -18.5 1t-16.5 1q-60 0 -89 -24.5t-48 -94.5q-32 -107 -79 -421.5t-83 -497.5q-72 -366 -219 -509t-445 -157z" />
    <glyph glyph-name="Lj" unicode="&#x1c8;" horiz-adv-x="1776" 
d="M-36 84q6 -1 15 -1.5t27 -0.5q73 0 107 50.5t73 281.5l107 633q12 75 16 106t4 49q0 41 -27 59.5t-87 18.5h-21l15 86q87 -6 158 -9t126 -3q49 0 194 7q58 3 91 5l-14 -86h-21q-68 0 -100 -23t-47 -83q-25 -99 -75 -385.5t-103 -643.5q54 -5 115.5 -7.5t141.5 -2.5
q154 0 218.5 48.5t91.5 178.5l94 -14q-24 -84 -43 -170.5t-33 -177.5q-218 8 -350.5 11t-235.5 3q-80 0 -184 -3t-270 -11zM1610 1540l72 -74q28 -30 38.5 -50t10.5 -42q0 -30 -20 -55t-60 -47l-103 -55l-69 75q-2 3 -7 7q-44 48 -44 85q0 30 19 54t60 47zM1606 715
l-84 -512q-31 -190 -61 -292t-72 -171q-75 -124 -191 -199.5t-227 -75.5q-78 0 -126 33.5t-48 85.5q0 20 11.5 39.5t33.5 38.5l53 47q43 -52 83.5 -78t78.5 -26q76 0 119 80t88 342l37 209q34 194 53.5 328t19.5 169q0 28 -9.5 43t-26.5 15q-12 0 -35.5 -10.5t-81.5 -43.5
l-33 76l121 70q79 48 126 67t83 19q50 0 76 -32t26 -93q0 -18 -2.5 -43.5t-11.5 -85.5z" />
    <glyph glyph-name="lj" unicode="&#x1c9;" horiz-adv-x="1237" 
d="M516 172l-84 -76q-71 -64 -121.5 -92.5t-93.5 -28.5q-61 0 -100 55.5t-39 143.5q0 66 44 284q25 122 38 193l28 162q47 250 69 381t22 168q0 29 -17.5 45t-48.5 16q-11 0 -40 -2q-11 -1 -17 -2l-11 76q96 10 198.5 26.5t211.5 39.5q-158 -807 -201 -1045.5t-43 -288.5
q0 -32 12.5 -50.5t32.5 -18.5q11 0 29.5 10.5t42.5 30.5l57 47zM1071 1540l72 -74q28 -30 38.5 -50t10.5 -42q0 -30 -20 -55t-60 -47l-103 -55l-69 75q-2 3 -7 7q-44 48 -44 85q0 30 19 54t60 47zM1067 715l-84 -512q-31 -190 -61 -292t-72 -171q-75 -124 -191 -199.5
t-227 -75.5q-78 0 -126 33.5t-48 85.5q0 20 11.5 39.5t33.5 38.5l53 47q43 -52 83.5 -78t78.5 -26q76 0 119 80t88 342l37 209q34 194 53.5 328t19.5 169q0 28 -9.5 43t-26.5 15q-12 0 -35.5 -10.5t-81.5 -43.5l-33 76l121 70q79 48 126 67t83 19q50 0 76 -32t26 -93
q0 -18 -2.5 -43.5t-11.5 -85.5z" />
    <glyph glyph-name="NJ" unicode="&#x1ca;" horiz-adv-x="2288" 
d="M-65 90q7 -1 15 -1.5t23 -0.5q78 0 115.5 50t75.5 255l125 654q9 48 13.5 88t4.5 67q0 42 -29.5 61t-95.5 19q-5 0 -16.5 -1t-18.5 -1l15 86q58 -3 107 -4.5t89 -1.5q51 0 105 1.5t114 4.5q5 -38 30.5 -95.5t78.5 -146.5l465 -784l106 664q11 62 17 112t6 76
q0 44 -29.5 64t-95.5 20h-20l16 92q64 -4 120.5 -6t104.5 -2q55 0 114.5 1.5t125.5 4.5l-13 -90q-8 1 -17 1.5t-25 0.5q-63 0 -91 -31t-53 -166q-107 -548 -142.5 -765t-35.5 -302v-22h-192q-39 94 -108 206l-9 15l-512 864l-123 -753q-9 -54 -13.5 -90.5t-5.5 -57.5
q0 -51 23 -70.5t82 -19.5q16 0 25 0.5t18 1.5l-11 -92q-78 7 -143 10.5t-110 3.5q-55 0 -115.5 -2.5t-123.5 -7.5zM1261 -324q198 4 292.5 110.5t150.5 428.5l145 832q13 75 17 106t4 49q0 42 -29 60t-96 18h-23l15 86q79 -6 149 -9t121 -3q84 0 160 2.5t149 6.5l-16 -83
q-7 0 -18.5 1t-16.5 1q-60 0 -89 -24.5t-48 -94.5q-32 -107 -79 -421.5t-83 -497.5q-72 -366 -219 -509t-445 -157z" />
    <glyph glyph-name="Nj" unicode="&#x1cb;" horiz-adv-x="2171" 
d="M-65 90q7 -1 15 -1.5t23 -0.5q78 0 115.5 50t75.5 255l125 654q9 48 13.5 88t4.5 67q0 42 -29.5 61t-95.5 19q-5 0 -16.5 -1t-18.5 -1l15 86q58 -3 107 -4.5t89 -1.5q51 0 105 1.5t114 4.5q5 -38 30.5 -95.5t78.5 -146.5l465 -784l106 664q11 62 17 112t6 76
q0 44 -29.5 64t-95.5 20h-20l16 92q64 -4 120.5 -6t104.5 -2q55 0 114.5 1.5t125.5 4.5l-13 -90q-8 1 -17 1.5t-25 0.5q-63 0 -91 -31t-53 -166q-107 -548 -142.5 -765t-35.5 -302v-22h-192q-39 94 -108 206l-9 15l-512 864l-123 -753q-9 -54 -13.5 -90.5t-5.5 -57.5
q0 -51 23 -70.5t82 -19.5q16 0 25 0.5t18 1.5l-11 -92q-78 7 -143 10.5t-110 3.5q-55 0 -115.5 -2.5t-123.5 -7.5zM2005 1540l72 -74q28 -30 38.5 -50t10.5 -42q0 -30 -20 -55t-60 -47l-103 -55l-69 75q-2 3 -7 7q-44 48 -44 85q0 30 19 54t60 47zM2001 715l-84 -512
q-31 -190 -61 -292t-72 -171q-75 -124 -191 -199.5t-227 -75.5q-78 0 -126 33.5t-48 85.5q0 20 11.5 39.5t33.5 38.5l53 47q43 -52 83.5 -78t78.5 -26q76 0 119 80t88 342l37 209q34 194 53.5 328t19.5 169q0 28 -9.5 43t-26.5 15q-12 0 -35.5 -10.5t-81.5 -43.5l-33 76
l121 70q79 48 126 67t83 19q50 0 76 -32t26 -93q0 -18 -2.5 -43.5t-11.5 -85.5z" />
    <glyph glyph-name="nj" unicode="&#x1cc;" horiz-adv-x="1761" 
d="M406 701l137 126q98 92 146.5 118t98.5 26q80 0 126.5 -55t46.5 -150q0 -94 -44.5 -282.5t-44.5 -266.5q0 -28 9.5 -42.5t27.5 -14.5q12 0 28 8t32 22l63 58l35 -74l-92 -84q-66 -59 -114 -87t-85 -28q-64 0 -100.5 48.5t-36.5 134.5t43 271.5t43 268.5q0 33 -17 52.5
t-44 19.5q-52 0 -216 -142q-40 -35 -63 -55l-63 -344q-15 -76 -21.5 -121t-9.5 -85l-250 -48q63 272 99 466t36 257q0 41 -13.5 63.5t-37.5 22.5q-18 0 -92 -43l-7 -3l-30 71q27 18 75 51q158 111 224 111q52 0 86.5 -47t34.5 -121q0 -20 -2.5 -45.5t-7.5 -56.5zM1595 1540
l72 -74q28 -30 38.5 -50t10.5 -42q0 -30 -20 -55t-60 -47l-103 -55l-69 75q-2 3 -7 7q-44 48 -44 85q0 30 19 54t60 47zM1591 715l-84 -512q-31 -190 -61 -292t-72 -171q-75 -124 -191 -199.5t-227 -75.5q-78 0 -126 33.5t-48 85.5q0 20 11.5 39.5t33.5 38.5l53 47
q43 -52 83.5 -78t78.5 -26q76 0 119 80t88 342l37 209q34 194 53.5 328t19.5 169q0 28 -9.5 43t-26.5 15q-12 0 -35.5 -10.5t-81.5 -43.5l-33 76l121 70q79 48 126 67t83 19q50 0 76 -32t26 -93q0 -18 -2.5 -43.5t-11.5 -85.5z" />
    <glyph glyph-name="Acaron" unicode="&#x1cd;" horiz-adv-x="1513" 
d="M504 608h119q118 0 176 0.5t108 2.5l-84 550zM-92 84q16 -3 22.5 -3.5t12.5 -0.5q101 0 242 238q37 63 59 98l274 450q107 176 186 314t113 209h221q8 -83 20.5 -170t37.5 -226l98 -569q5 -28 13 -77q43 -265 141 -265q12 0 18.5 0.5t11.5 1.5l-12 -84q-93 6 -163 9
t-116 3q-53 0 -125.5 -3t-166.5 -9l14 84h27q77 0 105 22.5t28 83.5q0 13 -1 24t-3 24l-39 258q-64 1 -147 2.5t-97 1.5q-64 0 -122 -0.5t-122 -2.5l-123 -223q-24 -44 -35.5 -74.5t-11.5 -52.5q0 -30 28 -46.5t79 -16.5h22l-14 -84q-81 6 -142.5 9t-103.5 3q-41 0 -101 -3
t-142 -9zM803 1491h-121l-215 326l86 41l217 -186l304 188l77 -53z" />
    <glyph glyph-name="acaron" unicode="&#x1ce;" horiz-adv-x="1073" 
d="M692 801q-36 25 -68.5 36t-66.5 11q-114 0 -208.5 -168t-94.5 -383q0 -69 18 -104t54 -35q31 0 102.5 53.5t187.5 165.5q15 72 33 171.5t43 252.5zM950 991q-65 -333 -95 -516t-30 -250q0 -31 10.5 -47t30.5 -16q15 0 38.5 16t90.5 76l33 -80l-67 -63q-84 -78 -135 -110
t-91 -32q-64 0 -98.5 48.5t-34.5 138.5q0 16 1.5 40.5t4.5 54.5q-178 -167 -261.5 -221.5t-147.5 -54.5q-84 0 -132.5 73t-48.5 200t41 245t119 220q94 122 209.5 189t233.5 67q39 0 78 -8.5t81 -26.5zM657 1093h-121l-215 326l86 41l217 -186l304 188l77 -53z" />
    <glyph glyph-name="Icaron" unicode="&#x1cf;" horiz-adv-x="748" 
d="M-27 88q2 0 7 -1q30 -3 43 -3q117 0 166 286q5 29 8 44l112 633q10 53 15.5 92.5t5.5 62.5q0 41 -30 59.5t-97 18.5h-23l15 86q88 -6 156.5 -9t115.5 -3q84 0 160 2.5t149 7.5l-18 -84q-7 0 -17.5 1t-15.5 1q-70 0 -100.5 -34.5t-57.5 -180.5l-108 -596
q-22 -119 -30.5 -182.5t-8.5 -95.5q0 -62 27.5 -83.5t107.5 -21.5h14l-16 -88q-140 9 -200.5 11.5t-102.5 2.5q-60 0 -273 -13l-20 -1zM532 1468h-121l-215 326l86 41l217 -186l304 188l77 -53z" />
    <glyph glyph-name="icaron" unicode="&#x1d0;" horiz-adv-x="627" 
d="M498 250l34 -78q-127 -119 -193 -160t-122 -41q-61 0 -96 43t-35 119q0 65 55 284q7 28 10 41q28 111 42 180t14 99q0 25 -13 40.5t-34 15.5q-17 0 -43 -11t-68 -37l-33 70l138 90q47 32 88.5 48t74.5 16q61 0 97.5 -39t36.5 -105q0 -49 -45 -228q-18 -71 -27 -112
q-28 -115 -39.5 -176t-11.5 -88q0 -28 10 -43.5t29 -15.5t49 20t82 68zM408 1072h-121l-215 326l86 41l217 -186l304 188l77 -53z" />
    <glyph glyph-name="Ocaron" unicode="&#x1d1;" horiz-adv-x="1567" 
d="M866 1270q-231 0 -367.5 -201t-136.5 -543q0 -207 88.5 -315.5t256.5 -108.5q228 0 363.5 207t135.5 555q0 200 -86 303t-254 103zM78 530q0 179 70 348t196 296q112 112 261 172.5t313 60.5q266 0 417.5 -152.5t151.5 -420.5q0 -177 -68.5 -347t-189.5 -294
q-112 -115 -260.5 -175.5t-319.5 -60.5q-267 0 -419 153t-152 420zM954 1509h-121l-215 326l86 41l217 -186l304 188l77 -53z" />
    <glyph glyph-name="ocaron" unicode="&#x1d2;" horiz-adv-x="1040" 
d="M430 88q114 0 192 153t78 377q0 115 -39 174.5t-114 59.5q-118 0 -197.5 -149.5t-79.5 -376.5q0 -117 41 -177.5t119 -60.5zM23 344q0 136 56.5 263t160.5 222q77 72 167.5 109t186.5 37q165 0 259.5 -99t94.5 -272q0 -258 -167.5 -447.5t-401.5 -189.5
q-165 0 -260.5 101.5t-95.5 275.5zM620 1078h-121l-215 326l86 41l217 -186l304 188l77 -53z" />
    <glyph glyph-name="Ucaron" unicode="&#x1d3;" horiz-adv-x="1511" 
d="M180 1366h3q209 -14 263 -14q48 0 112.5 3t174.5 11l-16 -86q-7 0 -17.5 1t-15.5 1q-118 0 -158 -246q-9 -53 -14 -81l-53 -306q-15 -79 -22 -139t-7 -113q0 -122 90 -200t234 -78q89 0 164.5 32.5t121.5 92.5q40 49 66.5 138.5t56.5 297.5l29 209q19 135 27 198.5
t8 81.5q0 61 -28 86t-95 25h-19l17 86q22 -1 64 -4q123 -8 167 -8q48 0 108 3t132 9l-12 -86h-21q-60 0 -86.5 -14t-42.5 -52q-25 -60 -64 -320q-30 -207 -53 -335q-28 -168 -64 -257t-95 -155q-83 -92 -204.5 -141t-266.5 -49q-234 0 -367 114t-133 312q0 76 52 343
q18 92 28 142q25 131 38 216t13 116q0 42 -28.5 61t-92.5 19h-10zM1037 1468h-121l-215 326l86 41l217 -186l304 188l77 -53z" />
    <glyph glyph-name="ucaron" unicode="&#x1d4;" horiz-adv-x="1126" 
d="M1063 172l-129 -113q-50 -42 -89 -62t-75 -20q-59 0 -96 47.5t-37 125.5q0 26 2 53t6 53q-178 -173 -260.5 -230t-138.5 -57q-67 0 -112.5 60t-45.5 153q0 82 57 305q7 27 11 42q25 99 36 147t11 63q0 27 -10 41.5t-29 14.5q-14 0 -49 -14t-76 -38l-27 70l33 21
q206 133 262 133t90.5 -42.5t34.5 -111.5q0 -85 -53 -276t-53 -271q0 -40 14 -60t43 -20q33 0 102 50t174 151q25 115 48 243.5t49 287.5l250 49q-11 -40 -31.5 -132t-48.5 -233l-25 -121q-21 -106 -31 -169.5t-10 -94.5q0 -28 9.5 -42.5t27.5 -14.5q17 0 51.5 22t83.5 66z
M671 1070h-121l-215 326l86 41l217 -186l304 188l77 -53z" />
    <glyph glyph-name="Udieresismacron" unicode="&#x1d5;" horiz-adv-x="1511" 
d="M180 1366h3q209 -14 263 -14q48 0 112.5 3t174.5 11l-16 -86q-7 0 -17.5 1t-15.5 1q-118 0 -158 -246q-9 -53 -14 -81l-53 -306q-15 -79 -22 -139t-7 -113q0 -122 90 -200t234 -78q89 0 164.5 32.5t121.5 92.5q40 49 66.5 138.5t56.5 297.5l29 209q19 135 27 198.5
t8 81.5q0 61 -28 86t-95 25h-19l17 86q22 -1 64 -4q123 -8 167 -8q48 0 108 3t132 9l-12 -86h-21q-60 0 -86.5 -14t-42.5 -52q-25 -60 -64 -320q-30 -207 -53 -335q-28 -168 -64 -257t-95 -155q-83 -92 -204.5 -141t-266.5 -49q-234 0 -367 114t-133 312q0 76 52 343
q18 92 28 142q25 131 38 216t13 116q0 42 -28.5 61t-92.5 19h-10zM1259 1722q42 0 82.5 -45.5t40.5 -92.5q0 -39 -49.5 -77.5t-98.5 -38.5q-44 0 -83.5 44t-39.5 87q0 42 49.5 82.5t98.5 40.5zM831 1722q42 0 82.5 -45t40.5 -93q0 -38 -49.5 -77t-98.5 -39q-43 0 -83 44
t-40 87q0 42 50 82.5t98 40.5zM1599 1996v-172h-1024v172h1024z" />
    <glyph glyph-name="udieresismacron" unicode="&#x1d6;" horiz-adv-x="1126" 
d="M1063 172l-129 -113q-50 -42 -89 -62t-75 -20q-59 0 -96 47.5t-37 125.5q0 26 2 53t6 53q-178 -173 -260.5 -230t-138.5 -57q-67 0 -112.5 60t-45.5 153q0 82 57 305q7 27 11 42q25 99 36 147t11 63q0 27 -10 41.5t-29 14.5q-14 0 -49 -14t-76 -38l-27 70l33 21
q206 133 262 133t90.5 -42.5t34.5 -111.5q0 -85 -53 -276t-53 -271q0 -40 14 -60t43 -20q33 0 102 50t174 151q25 115 48 243.5t49 287.5l250 49q-11 -40 -31.5 -132t-48.5 -233l-25 -121q-21 -106 -31 -169.5t-10 -94.5q0 -28 9.5 -42.5t27.5 -14.5q17 0 51.5 22t83.5 66z
M892 1324q42 0 82.5 -45.5t40.5 -92.5q0 -39 -49.5 -77.5t-98.5 -38.5q-44 0 -83.5 44t-39.5 87q0 42 49.5 82.5t98.5 40.5zM464 1324q42 0 82.5 -45t40.5 -93q0 -38 -49.5 -77t-98.5 -39q-43 0 -83 44t-40 87q0 42 50 82.5t98 40.5zM1232 1597v-172h-1024v172h1024z" />
    <glyph glyph-name="Udieresisacute" unicode="&#x1d7;" horiz-adv-x="1511" 
d="M180 1366h3q209 -14 263 -14q48 0 112.5 3t174.5 11l-16 -86q-7 0 -17.5 1t-15.5 1q-118 0 -158 -246q-9 -53 -14 -81l-53 -306q-15 -79 -22 -139t-7 -113q0 -122 90 -200t234 -78q89 0 164.5 32.5t121.5 92.5q40 49 66.5 138.5t56.5 297.5l29 209q19 135 27 198.5
t8 81.5q0 61 -28 86t-95 25h-19l17 86q22 -1 64 -4q123 -8 167 -8q48 0 108 3t132 9l-12 -86h-21q-60 0 -86.5 -14t-42.5 -52q-25 -60 -64 -320q-30 -207 -53 -335q-28 -168 -64 -257t-95 -155q-83 -92 -204.5 -141t-266.5 -49q-234 0 -367 114t-133 312q0 76 52 343
q18 92 28 142q25 131 38 216t13 116q0 42 -28.5 61t-92.5 19h-10zM1259 1722q42 0 82.5 -45.5t40.5 -92.5q0 -39 -49.5 -77.5t-98.5 -38.5q-44 0 -83.5 44t-39.5 87q0 42 49.5 82.5t98.5 40.5zM831 1722q42 0 82.5 -45t40.5 -93q0 -38 -49.5 -77t-98.5 -39q-43 0 -83 44
t-40 87q0 42 50 82.5t98 40.5zM1154 2269l177 -86l-357 -359l-80 35z" />
    <glyph glyph-name="udieresisacute" unicode="&#x1d8;" horiz-adv-x="1126" 
d="M1063 172l-129 -113q-50 -42 -89 -62t-75 -20q-59 0 -96 47.5t-37 125.5q0 26 2 53t6 53q-178 -173 -260.5 -230t-138.5 -57q-67 0 -112.5 60t-45.5 153q0 82 57 305q7 27 11 42q25 99 36 147t11 63q0 27 -10 41.5t-29 14.5q-14 0 -49 -14t-76 -38l-27 70l33 21
q206 133 262 133t90.5 -42.5t34.5 -111.5q0 -85 -53 -276t-53 -271q0 -40 14 -60t43 -20q33 0 102 50t174 151q25 115 48 243.5t49 287.5l250 49q-11 -40 -31.5 -132t-48.5 -233l-25 -121q-21 -106 -31 -169.5t-10 -94.5q0 -28 9.5 -42.5t27.5 -14.5q17 0 51.5 22t83.5 66z
M892 1324q42 0 82.5 -45.5t40.5 -92.5q0 -39 -49.5 -77.5t-98.5 -38.5q-44 0 -83.5 44t-39.5 87q0 42 49.5 82.5t98.5 40.5zM464 1324q42 0 82.5 -45t40.5 -93q0 -38 -49.5 -77t-98.5 -39q-43 0 -83 44t-40 87q0 42 50 82.5t98 40.5zM786 1870l177 -86l-357 -359l-80 35z
" />
    <glyph glyph-name="Udieresiscaron" unicode="&#x1d9;" horiz-adv-x="1511" 
d="M180 1366h3q209 -14 263 -14q48 0 112.5 3t174.5 11l-16 -86q-7 0 -17.5 1t-15.5 1q-118 0 -158 -246q-9 -53 -14 -81l-53 -306q-15 -79 -22 -139t-7 -113q0 -122 90 -200t234 -78q89 0 164.5 32.5t121.5 92.5q40 49 66.5 138.5t56.5 297.5l29 209q19 135 27 198.5
t8 81.5q0 61 -28 86t-95 25h-19l17 86q22 -1 64 -4q123 -8 167 -8q48 0 108 3t132 9l-12 -86h-21q-60 0 -86.5 -14t-42.5 -52q-25 -60 -64 -320q-30 -207 -53 -335q-28 -168 -64 -257t-95 -155q-83 -92 -204.5 -141t-266.5 -49q-234 0 -367 114t-133 312q0 76 52 343
q18 92 28 142q25 131 38 216t13 116q0 42 -28.5 61t-92.5 19h-10zM1259 1722q42 0 82.5 -45.5t40.5 -92.5q0 -39 -49.5 -77.5t-98.5 -38.5q-44 0 -83.5 44t-39.5 87q0 42 49.5 82.5t98.5 40.5zM831 1722q42 0 82.5 -45t40.5 -93q0 -38 -49.5 -77t-98.5 -39q-43 0 -83 44
t-40 87q0 42 50 82.5t98 40.5zM1100 1824h-121l-215 326l86 41l217 -186l304 188l77 -53z" />
    <glyph glyph-name="udieresiscaron" unicode="&#x1da;" horiz-adv-x="1126" 
d="M1063 172l-129 -113q-50 -42 -89 -62t-75 -20q-59 0 -96 47.5t-37 125.5q0 26 2 53t6 53q-178 -173 -260.5 -230t-138.5 -57q-67 0 -112.5 60t-45.5 153q0 82 57 305q7 27 11 42q25 99 36 147t11 63q0 27 -10 41.5t-29 14.5q-14 0 -49 -14t-76 -38l-27 70l33 21
q206 133 262 133t90.5 -42.5t34.5 -111.5q0 -85 -53 -276t-53 -271q0 -40 14 -60t43 -20q33 0 102 50t174 151q25 115 48 243.5t49 287.5l250 49q-11 -40 -31.5 -132t-48.5 -233l-25 -121q-21 -106 -31 -169.5t-10 -94.5q0 -28 9.5 -42.5t27.5 -14.5q17 0 51.5 22t83.5 66z
M892 1324q42 0 82.5 -45.5t40.5 -92.5q0 -39 -49.5 -77.5t-98.5 -38.5q-44 0 -83.5 44t-39.5 87q0 42 49.5 82.5t98.5 40.5zM464 1324q42 0 82.5 -45t40.5 -93q0 -38 -49.5 -77t-98.5 -39q-43 0 -83 44t-40 87q0 42 50 82.5t98 40.5zM732 1425h-121l-215 326l86 41l217 -186
l304 188l77 -53z" />
    <glyph glyph-name="Udieresisgrave" unicode="&#x1db;" horiz-adv-x="1511" 
d="M180 1366h3q209 -14 263 -14q48 0 112.5 3t174.5 11l-16 -86q-7 0 -17.5 1t-15.5 1q-118 0 -158 -246q-9 -53 -14 -81l-53 -306q-15 -79 -22 -139t-7 -113q0 -122 90 -200t234 -78q89 0 164.5 32.5t121.5 92.5q40 49 66.5 138.5t56.5 297.5l29 209q19 135 27 198.5
t8 81.5q0 61 -28 86t-95 25h-19l17 86q22 -1 64 -4q123 -8 167 -8q48 0 108 3t132 9l-12 -86h-21q-60 0 -86.5 -14t-42.5 -52q-25 -60 -64 -320q-30 -207 -53 -335q-28 -168 -64 -257t-95 -155q-83 -92 -204.5 -141t-266.5 -49q-234 0 -367 114t-133 312q0 76 52 343
q18 92 28 142q25 131 38 216t13 116q0 42 -28.5 61t-92.5 19h-10zM1259 1722q42 0 82.5 -45.5t40.5 -92.5q0 -39 -49.5 -77.5t-98.5 -38.5q-44 0 -83.5 44t-39.5 87q0 42 49.5 82.5t98.5 40.5zM831 1722q42 0 82.5 -45t40.5 -93q0 -38 -49.5 -77t-98.5 -39q-43 0 -83 44
t-40 87q0 42 50 82.5t98 40.5zM1130 2269l147 -418l-90 -27l-240 367z" />
    <glyph glyph-name="udieresisgrave" unicode="&#x1dc;" horiz-adv-x="1126" 
d="M1063 172l-129 -113q-50 -42 -89 -62t-75 -20q-59 0 -96 47.5t-37 125.5q0 26 2 53t6 53q-178 -173 -260.5 -230t-138.5 -57q-67 0 -112.5 60t-45.5 153q0 82 57 305q7 27 11 42q25 99 36 147t11 63q0 27 -10 41.5t-29 14.5q-14 0 -49 -14t-76 -38l-27 70l33 21
q206 133 262 133t90.5 -42.5t34.5 -111.5q0 -85 -53 -276t-53 -271q0 -40 14 -60t43 -20q33 0 102 50t174 151q25 115 48 243.5t49 287.5l250 49q-11 -40 -31.5 -132t-48.5 -233l-25 -121q-21 -106 -31 -169.5t-10 -94.5q0 -28 9.5 -42.5t27.5 -14.5q17 0 51.5 22t83.5 66z
M892 1324q42 0 82.5 -45.5t40.5 -92.5q0 -39 -49.5 -77.5t-98.5 -38.5q-44 0 -83.5 44t-39.5 87q0 42 49.5 82.5t98.5 40.5zM464 1324q42 0 82.5 -45t40.5 -93q0 -38 -49.5 -77t-98.5 -39q-43 0 -83 44t-40 87q0 42 50 82.5t98 40.5zM762 1870l147 -418l-90 -27l-240 367z
" />
    <glyph glyph-name="Adieresismacron" unicode="&#x1de;" horiz-adv-x="1513" 
d="M504 608h119q118 0 176 0.5t108 2.5l-84 550zM-92 84q16 -3 22.5 -3.5t12.5 -0.5q101 0 242 238q37 63 59 98l274 450q107 176 186 314t113 209h221q8 -83 20.5 -170t37.5 -226l98 -569q5 -28 13 -77q43 -265 141 -265q12 0 18.5 0.5t11.5 1.5l-12 -84q-93 6 -163 9
t-116 3q-53 0 -125.5 -3t-166.5 -9l14 84h27q77 0 105 22.5t28 83.5q0 13 -1 24t-3 24l-39 258q-64 1 -147 2.5t-97 1.5q-64 0 -122 -0.5t-122 -2.5l-123 -223q-24 -44 -35.5 -74.5t-11.5 -52.5q0 -30 28 -46.5t79 -16.5h22l-14 -84q-81 6 -142.5 9t-103.5 3q-41 0 -101 -3
t-142 -9zM1025 1745q42 0 82.5 -45.5t40.5 -92.5q0 -39 -49.5 -77.5t-98.5 -38.5q-44 0 -83.5 44t-39.5 87q0 42 49.5 82.5t98.5 40.5zM597 1745q42 0 82.5 -45t40.5 -93q0 -38 -49.5 -77t-98.5 -39q-43 0 -83 44t-40 87q0 42 50 82.5t98 40.5zM1366 2019v-172h-1024v172
h1024z" />
    <glyph glyph-name="adieresismacron" unicode="&#x1df;" horiz-adv-x="1073" 
d="M692 801q-36 25 -68.5 36t-66.5 11q-114 0 -208.5 -168t-94.5 -383q0 -69 18 -104t54 -35q31 0 102.5 53.5t187.5 165.5q15 72 33 171.5t43 252.5zM950 991q-65 -333 -95 -516t-30 -250q0 -31 10.5 -47t30.5 -16q15 0 38.5 16t90.5 76l33 -80l-67 -63q-84 -78 -135 -110
t-91 -32q-64 0 -98.5 48.5t-34.5 138.5q0 16 1.5 40.5t4.5 54.5q-178 -167 -261.5 -221.5t-147.5 -54.5q-84 0 -132.5 73t-48.5 200t41 245t119 220q94 122 209.5 189t233.5 67q39 0 78 -8.5t81 -26.5zM879 1348q42 0 82.5 -45.5t40.5 -92.5q0 -39 -49.5 -77.5t-98.5 -38.5
q-44 0 -83.5 44t-39.5 87q0 42 49.5 82.5t98.5 40.5zM451 1348q42 0 82.5 -45t40.5 -93q0 -38 -49.5 -77t-98.5 -39q-43 0 -83 44t-40 87q0 42 50 82.5t98 40.5zM1219 1621v-172h-1024v172h1024z" />
    <glyph glyph-name="Adotmacron" unicode="&#x1e0;" horiz-adv-x="1513" 
d="M504 608h119q118 0 176 0.5t108 2.5l-84 550zM-92 84q16 -3 22.5 -3.5t12.5 -0.5q101 0 242 238q37 63 59 98l274 450q107 176 186 314t113 209h221q8 -83 20.5 -170t37.5 -226l98 -569q5 -28 13 -77q43 -265 141 -265q12 0 18.5 0.5t11.5 1.5l-12 -84q-93 6 -163 9
t-116 3q-53 0 -125.5 -3t-166.5 -9l14 84h27q77 0 105 22.5t28 83.5q0 13 -1 24t-3 24l-39 258q-64 1 -147 2.5t-97 1.5q-64 0 -122 -0.5t-122 -2.5l-123 -223q-24 -44 -35.5 -74.5t-11.5 -52.5q0 -30 28 -46.5t79 -16.5h22l-14 -84q-81 6 -142.5 9t-103.5 3q-41 0 -101 -3
t-142 -9zM812 1757q44 0 86.5 -49t42.5 -97q0 -39 -52.5 -79.5t-103.5 -40.5q-45 0 -86 46t-41 91q0 44 51.5 86.5t102.5 42.5zM1368 2031v-172h-1024v172h1024z" />
    <glyph glyph-name="adotmacron" unicode="&#x1e1;" horiz-adv-x="1073" 
d="M692 801q-36 25 -68.5 36t-66.5 11q-114 0 -208.5 -168t-94.5 -383q0 -69 18 -104t54 -35q31 0 102.5 53.5t187.5 165.5q15 72 33 171.5t43 252.5zM950 991q-65 -333 -95 -516t-30 -250q0 -31 10.5 -47t30.5 -16q15 0 38.5 16t90.5 76l33 -80l-67 -63q-84 -78 -135 -110
t-91 -32q-64 0 -98.5 48.5t-34.5 138.5q0 16 1.5 40.5t4.5 54.5q-178 -167 -261.5 -221.5t-147.5 -54.5q-84 0 -132.5 73t-48.5 200t41 245t119 220q94 122 209.5 189t233.5 67q39 0 78 -8.5t81 -26.5zM666 1360q44 0 86.5 -49t42.5 -97q0 -39 -52.5 -79.5t-103.5 -40.5
q-45 0 -86 46t-41 91q0 44 51.5 86.5t102.5 42.5zM1221 1633v-172h-1024v172h1024z" />
    <glyph glyph-name="AEmacron" unicode="&#x1e2;" horiz-adv-x="2066" 
d="M647 614q49 -1 92.5 -1.5t81.5 -0.5q22 0 44 -1q8 -1 9 -1q40 0 147 3q29 1 44 1l119 643zM-102 88q4 0 13 -1t13 -1q102 0 234 152q17 20 26 30l740 860q39 48 53 70.5t14 36.5q0 28 -29 38.5t-131 10.5l17 82q171 -5 353 -7.5t374 -2.5q127 0 242 2.5t227 7.5
q-19 -80 -32 -158t-19 -155l-88 -4q1 9 1.5 18t0.5 25q0 82 -52 113.5t-196 31.5h-96q-59 0 -89 -1t-55 -3q-35 -190 -52.5 -285.5t-31.5 -177.5q54 -2 106 -3t124 -1q129 0 166 26.5t51 102.5l84 -12q-26 -90 -41.5 -183t-22.5 -190l-86 -2q1 11 2.5 28.5t1.5 22.5
q0 56 -40 75t-205 19h-48h-110q-23 -124 -44.5 -252.5t-41.5 -261.5q59 -6 129 -9t172 -3q173 0 233.5 45t94.5 180l88 -14q-22 -81 -39.5 -165t-30.5 -173q-166 6 -307.5 9t-259.5 3q-173 0 -294.5 -3t-221.5 -9l18 88q6 -3 13.5 -4.5t21.5 -1.5q70 0 102.5 39t55.5 168
l36 206q-60 2 -130.5 2.5t-215.5 0.5h-149l-46 -57q-214 -266 -214 -300q0 -28 22.5 -39.5t87.5 -11.5q10 0 16 -0.5t11 -1.5l-18 -88q-90 6 -157.5 9t-113.5 3q-37 0 -101.5 -3t-154.5 -9zM1626 1640v-172h-1024v172h1024z" />
    <glyph glyph-name="aemacron" unicode="&#x1e3;" horiz-adv-x="1419" 
d="M592 318q7 79 23.5 172t39.5 192l27 109q-28 30 -57 45.5t-60 15.5q-121 0 -218 -174.5t-97 -396.5q0 -56 20.5 -87.5t55.5 -31.5q25 0 86 35.5t180 120.5zM817 442l215 142q76 49 99.5 78.5t23.5 62.5q0 48 -38.5 84.5t-90.5 36.5q-83 0 -135 -101t-74 -303zM596 215
q-34 -25 -94 -70q-236 -176 -316 -176q-74 0 -121 78t-47 205q0 131 50 259t143 239q90 104 196 163.5t201 59.5q43 0 79.5 -11t70.5 -34l160 82l-29 -133q57 49 111 72.5t112 23.5q100 0 170 -64t70 -151q0 -56 -32.5 -96t-162.5 -113l-338 -193v-30q0 -94 35 -141.5
t104 -47.5q49 0 117.5 39t171.5 125l31 -86q-144 -128 -246 -186t-182 -58q-104 0 -174 66.5t-80 177.5zM1321 1285v-172h-1024v172h1024z" />
    <glyph glyph-name="Gcaron" unicode="&#x1e6;" horiz-adv-x="1497" 
d="M1227 57q-153 -49 -282 -74.5t-226 -25.5q-299 0 -467 162t-168 448q0 189 80.5 359t226.5 291q114 94 258.5 142t311.5 48q111 0 220.5 -23.5t225.5 -72.5q-25 -88 -42.5 -170t-27.5 -158l-94 13q3 25 4.5 40.5t1.5 20.5q0 99 -90 152t-260 53q-246 0 -388 -182.5
t-142 -495.5q0 -235 111 -360.5t319 -125.5q52 0 99 9t91 26q25 136 37 215.5t12 108.5q0 46 -27 65t-98 19h-28l18 88q78 -4 146.5 -6t121.5 -2q67 0 227 6q25 1 38 2l-15 -88q-14 2 -22 3t-13 1q-94 0 -133 -300q-15 -117 -26 -188zM931 1509h-121l-215 326l86 41
l217 -186l304 188l77 -53z" />
    <glyph glyph-name="gcaron" unicode="&#x1e7;" horiz-adv-x="1020" 
d="M322 -29q-135 -70 -180.5 -113.5t-45.5 -93.5q0 -68 82 -117.5t203 -49.5q119 0 194.5 47t75.5 118q0 80 -242 175q-56 22 -87 34zM502 881q-90 0 -151.5 -103.5t-61.5 -255.5q0 -80 32.5 -122t96.5 -42q96 0 157.5 98t61.5 251q0 85 -34.5 129.5t-100.5 44.5zM1012 967
l-39 -129q-12 -1 -26 -1.5t-42 -0.5q-37 0 -73.5 3.5t-71.5 10.5q51 -37 75.5 -84t24.5 -111q0 -114 -70 -199.5t-212 -144.5q-34 -13 -92 -36q-136 -51 -136 -76q0 -36 182 -102q24 -9 35 -13q187 -68 246 -122.5t59 -135.5q0 -143 -176 -252t-422 -109q-179 0 -291 70.5
t-112 179.5q0 80 66.5 138.5t300.5 156.5q-97 39 -132.5 66t-35.5 59q0 58 225 151q30 12 47 19q-3 0 -10 -1q-30 -3 -45 -3q-101 0 -163.5 69.5t-62.5 182.5q0 174 136 298t329 124q63 0 171 -14.5t153 -14.5q35 0 75 5t87 16zM621 1078h-121l-215 326l86 41l217 -186
l304 188l77 -53z" />
    <glyph glyph-name="Kcaron" unicode="&#x1e8;" horiz-adv-x="1421" 
d="M487 680l476 422q64 57 86 84.5t22 48.5q0 24 -25.5 34.5t-87.5 10.5l19 86q84 -6 147 -9t105 -3q77 0 144.5 2.5t133.5 7.5l-18 -84h-23q-97 0 -215 -99q-11 -10 -18 -16l-496 -415l367 -531q56 -82 97 -106.5t106 -24.5h30l-16 -88q-88 6 -131.5 8t-69.5 2
q-30 0 -76 -2t-140 -8q-2 34 -15.5 68.5t-52.5 93.5zM-29 84q2 0 7 -1q25 -3 36 -3q119 0 167 280q6 35 9 53l111 634q13 75 17 106t4 49q0 40 -28.5 59t-88.5 19h-19l15 86q86 -6 155.5 -9t124.5 -3q63 0 135 2.5t149 7.5l-17 -84q-7 0 -17.5 1t-15.5 1q-70 0 -100.5 -34.5
t-57.5 -180.5l-108 -596q-22 -119 -30.5 -182.5t-8.5 -95.5q0 -63 28 -84t117 -21l-16 -88q-131 8 -195 11t-106 3q-54 0 -258 -12l-25 -2zM896 1468h-121l-215 326l86 41l217 -186l304 188l77 -53z" />
    <glyph glyph-name="kcaron" unicode="&#x1e9;" horiz-adv-x="1100" 
d="M348 442q177 21 280 92.5t103 172.5q0 45 -24 70.5t-66 25.5q-58 0 -229 -140l-31 -26zM33 -29q32 142 63 302t64 352l30 184q54 315 70 420.5t16 130.5q0 29 -17 45t-48 16q-11 0 -40 -2q-11 -1 -17 -2l-9 78q107 8 209 23.5t203 39.5q-9 -45 -41.5 -204.5t-50.5 -253.5
l-68 -348l21 18q224 207 336 207q77 0 132.5 -62.5t55.5 -148.5q0 -113 -76 -193t-233 -133q111 -170 171 -236.5t101 -66.5q19 0 45 16.5t68 55.5l35 -70q-110 -107 -159.5 -136.5t-98.5 -29.5q-83 0 -169 94.5t-194 305.5q-27 -7 -52 -11.5t-48 -7.5l-15 -82
q-9 -46 -30 -215l-4 -32zM727 1660h-121l-215 326l86 41l217 -186l304 188l77 -53z" />
    </font>
</defs>
</svg>
