<?xml version="1.0" standalone="no"?>
<!DOCTYPE svg PUBLIC "-//W3C//DTD SVG 1.1//EN" "http://www.w3.org/Graphics/SVG/1.1/DTD/svg11.dtd" >
<svg xmlns="http://www.w3.org/2000/svg" xmlns:xlink="http://www.w3.org/1999/xlink" version="1.1">
<metadata>
Created by FontForge 20201107 at Mon Sep  5 16:39:31 2022
 By 
Copyright by Pangram Pangram Foundry. All rights reserved.
</metadata>
<defs>
<font id="PPNeueMontreal-MediumItalic" horiz-adv-x="0" >
  <font-face 
    font-family="PP Neue Montreal Medium"
    font-weight="500"
    font-style="italic"
    font-stretch="normal"
    units-per-em="1000"
    panose-1="0 0 6 0 0 0 0 0 0 0"
    ascent="800"
    descent="-200"
    x-height="510"
    cap-height="715"
    bbox="-225 -244 2172 947"
    underline-thickness="74"
    underline-position="-30"
    slope="-11"
    unicode-range="U+000D-1F150"
  />
<missing-glyph horiz-adv-x="657" 
 />
    <glyph glyph-name="f_f" unicode="ff" horiz-adv-x="554" 
d="M42 0l84 429h-71l16 81h71l11 62q16 84 54.5 117t104.5 33q24 0 62 -7l-15 -78q-27 3 -39 3q-35 0 -48 -15t-21 -56l-12 -59h164l12 62q16 84 54.5 117t104.5 33q23 0 61 -7l-15 -78q-27 3 -39 3q-35 0 -48 -15t-21 -56l-12 -59h96l-16 -81h-96l-83 -429h-98l84 429h-164
l-83 -429h-98z" />
    <glyph glyph-name="f_f_i" unicode="ffi" horiz-adv-x="765" 
d="M42 0l84 429h-71l16 81h71l11 62q16 84 54.5 117t104.5 33q24 0 62 -7l-15 -78q-27 3 -39 3q-35 0 -48 -15t-21 -56l-12 -59h164l12 62q16 84 54.5 117t104.5 33q23 0 61 -7l-15 -78q-27 3 -39 3q-35 0 -48 -15t-21 -56l-12 -59h96l-16 -81h-96l-83 -429h-98l84 429h-164
l-83 -429h-98zM660 0h-98l99 510h98zM783 601h-111l21 106h111z" />
    <glyph glyph-name="f_i" unicode="fi" horiz-adv-x="506" 
d="M272 625q-13 -15 -21 -56l-12 -59h96l-16 -81h-95l-84 -429h-98l83 429h-70l16 81h70l12 62q17 84 55.5 117t103.5 33q24 0 62 -7l-15 -78q-27 3 -39 3q-35 0 -48 -15zM400 0h-98l99 510h98zM523 601h-111l21 106h111z" />
    <glyph glyph-name="f_l" unicode="fl" horiz-adv-x="505" 
d="M272 625q-13 -15 -21 -56l-12 -59h96l-16 -81h-95l-84 -429h-98l83 429h-70l16 81h70l12 62q17 84 55.5 117t103.5 33q24 0 62 -7l-15 -78q-27 3 -39 3q-35 0 -48 -15zM399 0h-98l139 715h98z" />
    <glyph glyph-name=".notdef" horiz-adv-x="657" 
 />
    <glyph glyph-name=".null" 
 />
    <glyph glyph-name="nonmarkingreturn" unicode="&#xd;" horiz-adv-x="209" 
 />
    <glyph glyph-name="space" unicode=" " horiz-adv-x="209" 
 />
    <glyph glyph-name="exclam" unicode="!" horiz-adv-x="225" 
d="M129 195h-57l37 326l38 194h108l-37 -194zM117 0h-109l21 109h109z" />
    <glyph glyph-name="quotedbl" unicode="&#x22;" horiz-adv-x="334" 
d="M162 465h-69l36 250h93zM320 465h-69l36 250h93z" />
    <glyph glyph-name="numbersign" unicode="#" horiz-adv-x="582" 
d="M603 504l-31 -82h-97l-58 -147h107l-31 -81h-108l-77 -194h-81l76 194h-113l-76 -194h-82l77 194h-92l31 81h93l58 147h-101l30 82h103l74 187h81l-74 -187h113l74 187h82l-74 -187h96zM222 275h113l58 147h-113z" />
    <glyph glyph-name="dollar" unicode="$" horiz-adv-x="601" 
d="M491 477q1 6 1 18q0 91 -88 112l-43 -224q63 -24 102.5 -46t65.5 -58t26 -90q0 -59 -32.5 -105t-94 -72t-144.5 -26l-17 -87h-60l18 90q-99 13 -154 68t-55 143q0 9 2 29h105q-2 -18 -2 -26q0 -109 121 -125l45 232q-58 23 -98 46.5t-65.5 59.5t-25.5 88q0 59 33 103.5
t92.5 68.5t135.5 24h3l14 70h60l-14 -75q82 -13 128 -61t46 -130q0 -18 -1 -27h-104zM230 452q24 -24 75 -46l40 206q-64 -1 -101.5 -26.5t-37.5 -71.5q0 -38 24 -62zM422 241.5q-25 22.5 -80 46.5l-41 -213q73 3 109.5 31.5t36.5 74.5q0 38 -25 60.5z" />
    <glyph glyph-name="percent" unicode="%" horiz-adv-x="833" 
d="M101.5 351q-36.5 42 -36.5 111q0 64 25.5 120t72.5 89.5t108 33.5q69 0 106 -42.5t37 -110.5q0 -64 -26 -120t-73 -89.5t-108 -33.5q-69 0 -105.5 42zM215 0h-86l518 691h87zM274 409q26 25 40 64t14 80q0 77 -62 77q-36 0 -62 -25t-39.5 -64t-13.5 -80q0 -77 62 -77
q35 0 61 25zM491 28q-37 42 -37 111q0 64 26 120t73 89.5t108 33.5q69 0 105.5 -42.5t36.5 -110.5q0 -64 -25.5 -120t-72.5 -89.5t-108 -33.5q-69 0 -106 42zM664 86q26 25 39.5 64t13.5 80q0 77 -61 77q-36 0 -62 -25t-40 -64t-14 -80q0 -37 15.5 -57t46.5 -20q36 0 62 25z
" />
    <glyph glyph-name="ampersand" unicode="&#x26;" horiz-adv-x="611" 
d="M599 350q-42 -127 -114 -215l86 -135h-116l-40 64q-96 -78 -212 -78q-92 0 -141.5 45.5t-49.5 119.5q0 82 56 136.5t146 99.5q-27 46 -40.5 81t-13.5 71q0 52 25.5 95.5t72 69t106.5 25.5q76 0 117 -40t41 -105q0 -49 -23.5 -85.5t-62.5 -64t-102 -60.5l105 -166
q40 60 68 142h92zM282.5 613.5q-24.5 -26.5 -24.5 -66.5q0 -47 42 -118q62 32 94 65.5t32 74.5q0 32 -19 51.5t-56 19.5q-44 0 -68.5 -26.5zM372 133l-122 196q-65 -37 -99 -73.5t-34 -83.5q0 -44 26 -68.5t76 -24.5q86 0 153 54z" />
    <glyph glyph-name="quotesingle" unicode="'" horiz-adv-x="176" 
d="M162 465h-69l36 250h93z" />
    <glyph glyph-name="parenleft" unicode="(" horiz-adv-x="274" 
d="M98 -122q-31 59 -49.5 134.5t-18.5 160.5q0 151 64 308.5t175 276.5h86q-105 -137 -162 -284t-57 -311q0 -138 48 -285h-86z" />
    <glyph glyph-name="parenright" unicode=")" horiz-adv-x="274" 
d="M-58 -122q105 138 162 285t57 311q0 138 -48 284h86q31 -58 49.5 -133.5t18.5 -160.5q0 -151 -64 -308.5t-175 -277.5h-86z" />
    <glyph glyph-name="asterisk" unicode="*" horiz-adv-x="451" 
d="M270 485l-103 -110l-51 41l102 105l-121 38l35 63l120 -39l25 132h74l-26 -132l133 39l11 -63l-136 -38l61 -105l-64 -41z" />
    <glyph glyph-name="plus" unicode="+" horiz-adv-x="560" 
d="M294 90h-94l38 190h-184l17 93h184l38 190h93l-37 -190h184l-18 -93h-184z" />
    <glyph glyph-name="comma" unicode="," horiz-adv-x="203" 
d="M-17 -82q30 9 45.5 26.5t22.5 55.5h-53l22 109h109l-22 -109q-10 -55 -40 -89.5t-95 -46.5z" />
    <glyph glyph-name="hyphen" unicode="-" horiz-adv-x="355" 
d="M302 208h-269l18 93h269z" />
    <glyph glyph-name="period" unicode="." horiz-adv-x="198" 
d="M105 0h-109l21 109h109z" />
    <glyph glyph-name="slash" unicode="/" horiz-adv-x="413" 
d="M59 0h-92l425 715h92z" />
    <glyph glyph-name="zero" unicode="0" horiz-adv-x="640" 
d="M107 54.5q-56 68.5 -56 187.5t43.5 226t123 172t182.5 65q111 0 167 -68.5t56 -187.5q0 -120 -42.5 -226t-122 -171.5t-183.5 -65.5q-112 0 -168 68.5zM406 134q53 55 81 140.5t28 174.5q0 77 -28.5 120t-94.5 43q-71 0 -124.5 -55t-81.5 -140.5t-28 -174.5
q0 -77 29 -120t95 -43q71 0 124 55z" />
    <glyph glyph-name="one" unicode="1" horiz-adv-x="340" 
d="M206 513q-24 -19 -61 -26t-90 -7l17 88q84 1 127.5 31t62.5 92h86l-134 -691h-108z" />
    <glyph glyph-name="two" unicode="2" horiz-adv-x="571" 
d="M-18 0q19 98 82 167.5t182 135.5l44 24q63 34 98.5 58t59 58t23.5 80q0 42 -23 65.5t-80 23.5q-141 0 -174 -164h-109q13 72 51.5 130.5t100.5 92.5t143 34q94 0 147.5 -45.5t53.5 -126.5q0 -73 -41.5 -128.5t-90.5 -88.5t-132 -79q-71 -39 -113 -71t-61 -71v-2h348
l-18 -93h-491z" />
    <glyph glyph-name="three" unicode="3" horiz-adv-x="604" 
d="M87.5 39q-65.5 53 -65.5 142q0 27 6 55h110q-4 -20 -4 -42q0 -115 144 -115q83 0 123 37t40 98q0 56 -32 78.5t-94 22.5h-58l17 89h61q63 0 103 34.5t40 88.5q0 85 -114 85q-138 0 -160 -129h-110q11 64 48 114t97.5 79t138.5 29q97 0 154.5 -44.5t57.5 -118.5
q0 -60 -37 -105.5t-101 -70.5v-3q52 -16 76.5 -50.5t24.5 -89.5q0 -67 -33 -121t-97 -85t-153 -31q-117 0 -182.5 53z" />
    <glyph glyph-name="four" unicode="4" horiz-adv-x="590" 
d="M414 0h-108l30 158h-329l20 100l413 433h108l-85 -440h96l-18 -93h-97zM413 549l-283 -298h224z" />
    <glyph glyph-name="five" unicode="5" horiz-adv-x="582" 
d="M120 11q-50 25 -75 66.5t-25 91.5q0 17 3 33h109l-1 -15q0 -47 28.5 -77.5t87.5 -30.5q56 0 99 26.5t66.5 70t23.5 93.5q0 55 -29.5 81.5t-82.5 26.5q-99 0 -157 -62h-112l148 376h390l-18 -93h-307l-75 -191v-2q32 28 74 44t91 16q89 0 138.5 -50t49.5 -136
q0 -78 -38 -145t-107.5 -107.5t-159.5 -40.5q-71 0 -121 25z" />
    <glyph glyph-name="six" unicode="6" horiz-adv-x="610" 
d="M110.5 51q-59.5 65 -59.5 187q0 121 44 228.5t124 173t183 65.5q65 0 111 -25.5t67.5 -68.5t17.5 -95h-110q2 46 -23 72.5t-82 26.5q-82 0 -135.5 -67t-70.5 -170l-2 -12l2 -1q35 45 84.5 68t108.5 23q91 0 144.5 -52.5t53.5 -142.5q0 -74 -36 -137t-101.5 -100.5
t-149.5 -37.5q-111 0 -170.5 65zM373 99.5q39 23.5 60.5 64t21.5 88.5q0 56 -30.5 84.5t-87.5 28.5q-49 0 -89.5 -21t-63.5 -59t-23 -86q0 -57 32.5 -90t91.5 -33q49 0 88 23.5z" />
    <glyph glyph-name="seven" unicode="7" horiz-adv-x="517" 
d="M61 0q21 109 83 226t142.5 215.5t154.5 154.5l1 2h-367l18 93h485l-16 -83q-90 -65 -170.5 -165.5t-138 -217t-78.5 -225.5h-114z" />
    <glyph glyph-name="eight" unicode="8" horiz-adv-x="609" 
d="M87 30.5q-64 44.5 -64 132.5q0 56 27.5 98.5t67.5 68.5t80 37v3q-77 42 -77 129q0 57 33.5 104t93.5 74.5t135 27.5q94 0 150.5 -42t56.5 -120q0 -62 -35 -108.5t-94 -68.5v-3q46 -19 73 -52t27 -89q0 -65 -38 -119t-107.5 -85.5t-159.5 -31.5q-105 0 -169 44.5z
M445.5 443.5q40.5 33.5 40.5 85.5q0 44 -31 66t-85 22q-71 0 -108 -34.5t-37 -83.5q0 -43 29.5 -66t83.5 -23q67 0 107.5 33.5zM367 95q41 19 63.5 52.5t22.5 74.5q0 50 -35.5 76t-100.5 26q-56 0 -97.5 -19t-64 -52t-22.5 -74q0 -52 36 -77.5t103 -25.5q54 0 95 19z" />
    <glyph glyph-name="nine" unicode="9" horiz-adv-x="610" 
d="M132 11.5q-46 25.5 -68 68.5t-18 95h111q-2 -46 23 -72.5t82 -26.5q82 0 135.5 67t70.5 170l2 12l-2 1q-35 -45 -85 -68t-109 -23q-90 0 -143.5 52.5t-53.5 142.5q0 74 36 137t101.5 100.5t149.5 37.5q111 0 170.5 -65t59.5 -187q0 -121 -44 -228.5t-124 -173t-183 -65.5
q-65 0 -111 25.5zM397.5 347q40.5 21 63.5 59t23 86q0 57 -32.5 90t-91.5 33q-50 0 -89 -23.5t-60.5 -64t-21.5 -88.5q0 -56 31 -84.5t88 -28.5q49 0 89.5 21z" />
    <glyph glyph-name="colon" unicode=":" horiz-adv-x="209" 
d="M169 306h-109l21 109h109zM109 0h-109l21 109h109z" />
    <glyph glyph-name="semicolon" unicode=";" horiz-adv-x="209" 
d="M169 306h-109l21 109h109zM-15 -82q30 9 45.5 26.5t22.5 55.5h-53l22 109h109l-22 -109q-10 -55 -40 -89.5t-95 -46.5z" />
    <glyph glyph-name="less" unicode="&#x3c;" horiz-adv-x="507" 
d="M438 176l-18 -87l-375 170l20 104l441 170l-18 -100l-352 -127v-2z" />
    <glyph glyph-name="equal" unicode="=" horiz-adv-x="557" 
d="M525 359h-451l17 93h451zM493 202h-451l17 92h451z" />
    <glyph glyph-name="greater" unicode="&#x3e;" horiz-adv-x="506" 
d="M461 259l-441 -170l18 99l352 128v2l-302 128l18 87l375 -171z" />
    <glyph glyph-name="question" unicode="?" horiz-adv-x="505" 
d="M164 195q11 61 33.5 102.5t51 67.5t71.5 56q6 4 41.5 27t54 51.5t18.5 61.5q0 35 -25.5 55t-72.5 20q-63 0 -108.5 -37t-58.5 -117h-108q11 72 48 128t97.5 87.5t137.5 31.5q94 0 146.5 -43.5t52.5 -118.5q0 -47 -20.5 -82.5t-48.5 -58t-70 -49.5q-47 -31 -70 -50
t-42 -50.5t-28 -81.5h-100zM233 0h-109l22 109h108z" />
    <glyph glyph-name="at" unicode="@" horiz-adv-x="881" 
d="M122 -18q-89 88 -89 246q0 135 66.5 246t180.5 175t250 64q108 0 184.5 -39t116 -109t39.5 -162q0 -86 -31.5 -160.5t-85.5 -118.5t-118 -44q-93 0 -116 83h-2q-27 -36 -65.5 -58t-86.5 -22q-64 0 -99.5 41.5t-35.5 118.5q0 73 33 136t87.5 100.5t115.5 37.5
q48 0 78.5 -24t38.5 -61h2l25 78h85l-81 -251q-10 -30 -10 -54q0 -51 47 -51q38 0 70 33t51 88t19 116q0 120 -72 184t-195 64q-114 0 -208 -51.5t-148.5 -144t-54.5 -210.5q0 -125 69.5 -195t208.5 -70q92 0 173 31l17 -63q-88 -42 -206 -42q-164 0 -253 88zM469.5 189.5
q36.5 27.5 57.5 70.5t21 89q0 45 -21.5 67t-58.5 22q-41 0 -77 -26.5t-57 -70t-21 -90.5q0 -42 19 -65.5t58 -23.5q43 0 79.5 27.5z" />
    <glyph glyph-name="A" unicode="A" horiz-adv-x="660" 
d="M72 0h-116l402 715h120l127 -715h-116l-25 172h-299zM399 613l-184 -348h235l-49 348h-2z" />
    <glyph glyph-name="B" unicode="B" horiz-adv-x="669" 
d="M22 0l139 715h296q99 0 152.5 -39.5t53.5 -112.5q0 -64 -39 -112t-106 -68v-2q111 -24 111 -139q0 -69 -36.5 -124t-101.5 -86.5t-148 -31.5h-321zM401 418q70 0 109 33t39 89q0 41 -24 60.5t-76 19.5h-197l-38 -202h187zM345 95q80 0 126.5 39.5t46.5 104.5
q0 92 -105 92h-217l-45 -236h194z" />
    <glyph glyph-name="C" unicode="C" horiz-adv-x="710" 
d="M122 63.5q-73 77.5 -73 215.5q0 121 54.5 224.5t149.5 164.5t210 61q88 0 148.5 -35t89 -94t22.5 -128h-112q1 72 -39 117t-122 45q-84 0 -150.5 -47t-103.5 -127.5t-37 -176.5q0 -97 42 -149.5t136 -52.5q96 0 153 51.5t80 127.5h113q-23 -80 -73.5 -142t-123.5 -97
t-161 -35q-130 0 -203 77.5z" />
    <glyph glyph-name="D" unicode="D" horiz-adv-x="703" 
d="M22 0l139 715h259q133 0 203 -67.5t70 -204.5q0 -121 -50 -222.5t-138.5 -161t-200.5 -59.5h-282zM313 95q77 0 138 46t95.5 124.5t34.5 172.5q0 90 -40.5 136t-143.5 46h-145l-101 -525h162z" />
    <glyph glyph-name="E" unicode="E" horiz-adv-x="620" 
d="M538 0h-516l139 715h505l-19 -95h-395l-38 -203h346l-19 -95h-346l-44 -227h406z" />
    <glyph glyph-name="F" unicode="F" horiz-adv-x="586" 
d="M132 0h-110l139 715h495l-19 -95h-385l-41 -215h311l-18 -95h-312z" />
    <glyph glyph-name="G" unicode="G" horiz-adv-x="739" 
d="M115 61q-67 75 -67 207q0 124 54 230t150 168.5t216 62.5q87 0 145.5 -31.5t86 -85t24.5 -118.5h-113q0 67 -40.5 103.5t-120.5 36.5q-84 0 -150 -48t-103.5 -130.5t-37.5 -180.5q0 -194 170 -194q61 0 115 25.5t91.5 71t49.5 104.5h-211l17 92h323l-72 -374h-76l-8 99
h-2q-49 -57 -107.5 -85t-137.5 -28q-129 0 -196 75z" />
    <glyph glyph-name="H" unicode="H" horiz-adv-x="715" 
d="M132 0h-110l139 715h110l-58 -299h351l58 299h110l-139 -715h-110l62 321h-351z" />
    <glyph glyph-name="I" unicode="I" horiz-adv-x="254" 
d="M132 0h-110l139 715h110z" />
    <glyph glyph-name="J" unicode="J" horiz-adv-x="517" 
d="M45.5 31q-43.5 45 -43.5 122q0 36 7 70l6 29h106l-6 -29q-8 -40 -8 -65q0 -39 20 -58t69 -19q64 0 94 37.5t43 104.5l96 492h110l-99 -508q-21 -104 -79 -162.5t-172 -58.5q-100 0 -143.5 45z" />
    <glyph glyph-name="K" unicode="K" horiz-adv-x="652" 
d="M606 715h129l-336 -299l220 -416h-127l-176 343l-141 -125l-43 -218h-110l139 715h110l-69 -359z" />
    <glyph glyph-name="L" unicode="L" horiz-adv-x="558" 
d="M494 0h-472l139 715h110l-120 -620h362z" />
    <glyph glyph-name="M" unicode="M" horiz-adv-x="848" 
d="M129 0h-107l139 715h144l96 -570h2l308 570h155l-139 -715h-108l107 555h-2l-305 -555h-90l-90 555h-2z" />
    <glyph glyph-name="N" unicode="N" horiz-adv-x="714" 
d="M132 0h-110l139 715h124l225 -550h4l107 550h111l-139 -715h-124l-226 550h-4z" />
    <glyph glyph-name="O" unicode="O" horiz-adv-x="775" 
d="M185.5 22.5q-66.5 36.5 -101.5 102.5t-35 153q0 121 54.5 224.5t151 165t215.5 61.5q92 0 158.5 -36.5t101.5 -102.5t35 -153q0 -120 -54.5 -224t-151 -165.5t-215.5 -61.5q-92 0 -158.5 36.5zM509 130.5q69 49.5 107 131t38 174.5q0 90 -47 144t-144 54
q-89 0 -158 -49.5t-107 -131t-38 -174.5q0 -90 47 -144t144 -54q89 0 158 49.5z" />
    <glyph glyph-name="P" unicode="P" horiz-adv-x="626" 
d="M22 0l139 715h286q100 0 155.5 -40t55.5 -132q0 -72 -35 -129.5t-98 -90.5t-144 -33h-193l-56 -290h-110zM389 385q72 0 114.5 41.5t42.5 106.5q0 47 -26 67t-91 20h-177l-45 -235h182z" />
    <glyph glyph-name="Q" unicode="Q" horiz-adv-x="775" 
d="M726.5 247q-38.5 -90 -107.5 -153l66 -81l-74 -61l-69 85q-92 -51 -198 -51q-92 0 -158.5 36.5t-101.5 102.5t-35 153q0 121 54.5 224.5t151 165t215.5 61.5q92 0 158.5 -36.5t101.5 -102.5t35 -153q0 -100 -38.5 -190zM480 112l-80 98l74 62l82 -101q47 50 72.5 119.5
t25.5 145.5q0 90 -47 144t-144 54q-89 0 -158 -49.5t-107 -131t-38 -174.5q0 -90 47 -144t144 -54q70 0 129 31z" />
    <glyph glyph-name="R" unicode="R" horiz-adv-x="656" 
d="M22 0l139 715h288q106 0 162 -43.5t56 -124.5q0 -79 -48.5 -139t-125.5 -77l-1 -3q87 -17 87 -143q0 -38 -8 -98q-5 -37 -5 -56q0 -21 8 -24l-1 -7h-118q-4 4 -4 17q0 15 7 55q11 66 11 98q0 50 -21.5 80t-76.5 30h-185l-54 -280h-110zM382 375q77 0 124 43.5t47 110.5
q0 47 -31 69t-104 22h-166l-47 -245h177z" />
    <glyph glyph-name="S" unicode="S" horiz-adv-x="631" 
d="M149 16.5q-67 30.5 -101 87.5t-29 134h110q-4 -77 43.5 -117.5t135.5 -40.5q79 0 125 30.5t46 91.5q0 33 -17 53.5t-51 36t-107 40.5q-72 24 -115 48t-65.5 58.5t-22.5 85.5q0 65 36 111.5t98 70t140 23.5q126 0 192 -57.5t58 -167.5h-108q4 66 -32.5 98.5t-117.5 32.5
q-69 0 -111.5 -23.5t-42.5 -76.5q0 -31 14.5 -50t44 -32.5t93.5 -36.5q85 -30 129.5 -52t71 -57.5t26.5 -93.5q0 -107 -77 -167t-209 -60q-90 0 -157 30.5z" />
    <glyph glyph-name="T" unicode="T" horiz-adv-x="601" 
d="M306 0h-111l120 620h-231l19 95h573l-19 -95h-231z" />
    <glyph glyph-name="U" unicode="U" horiz-adv-x="691" 
d="M116.5 39q-60.5 53 -60.5 144q0 29 6 60l93 472h110l-92 -472q-6 -28 -6 -52q0 -58 34.5 -84t104.5 -26q86 0 137.5 40t67.5 122l92 472h111l-92 -472q-51 -257 -327 -257q-118 0 -178.5 53z" />
    <glyph glyph-name="V" unicode="V" horiz-adv-x="634" 
d="M328 0h-119l-113 715h120l73 -595h1l305 595h118z" />
    <glyph glyph-name="W" unicode="W" horiz-adv-x="926" 
d="M265 0h-118l-47 715h114l22 -563h2l248 563h119l41 -563h2l236 563h114l-317 -715h-118l-40 575h-2z" />
    <glyph glyph-name="X" unicode="X" horiz-adv-x="600" 
d="M76 0h-130l314 367l-157 348h121l113 -269h1l219 269h122l-297 -349l171 -366h-123l-123 285h-2z" />
    <glyph glyph-name="Y" unicode="Y" horiz-adv-x="639" 
d="M325 0h-111l56 286l-173 429h117l125 -342h2l259 342h120l-340 -429z" />
    <glyph glyph-name="Z" unicode="Z" horiz-adv-x="604" 
d="M528 0h-556l19 95l512 523v2h-391l19 95h526l-19 -95l-512 -523v-2h421z" />
    <glyph glyph-name="bracketleft" unicode="[" horiz-adv-x="304" 
d="M209 -122h-216l170 880h216l-17 -93h-108l-134 -694h107z" />
    <glyph glyph-name="backslash" unicode="\" horiz-adv-x="391" 
d="M330 0h-91l-138 715h91z" />
    <glyph glyph-name="bracketright" unicode="]" horiz-adv-x="304" 
d="M165 -122h-216l17 93h108l134 694h-107l18 93h216z" />
    <glyph glyph-name="asciicircum" unicode="^" horiz-adv-x="476" 
d="M164 440h-106l227 275h89l120 -275h-100l-79 187h-1z" />
    <glyph glyph-name="underscore" unicode="_" horiz-adv-x="570" 
d="M467 -152h-520l19 93h519z" />
    <glyph glyph-name="grave" unicode="`" horiz-adv-x="237" 
d="M213 587h-78l-74 138h115z" />
    <glyph glyph-name="a" unicode="a" horiz-adv-x="546" 
d="M48 20.5q-39 34.5 -39 98.5q0 79 58.5 118.5t171.5 62.5q64 13 94.5 21t50 24.5t19.5 45.5q0 27 -20.5 41.5t-68.5 14.5q-59 0 -92 -23.5t-47 -75.5h-97q18 83 80.5 130.5t165.5 47.5q83 0 128.5 -33.5t45.5 -99.5q0 -20 -5 -48l-45 -229q-4 -24 -4 -31q0 -13 5.5 -19
t19.5 -6q3 0 15 2l-12 -59q-30 -9 -56 -9q-74 0 -71 77h-3q-33 -40 -79 -62.5t-104 -22.5q-72 0 -111 34.5zM309 102.5q48 37.5 61 102.5l13 67q-16 -14 -35.5 -20t-80.5 -20q-59 -12 -91.5 -23.5t-49.5 -29t-17 -47.5q0 -67 84 -67q68 0 116 37.5z" />
    <glyph glyph-name="b" unicode="b" horiz-adv-x="573" 
d="M499.5 471q49.5 -54 49.5 -153q0 -92 -38 -168t-103.5 -120t-144.5 -44q-54 0 -89.5 21t-53.5 56h-5l-12 -63h-98l139 715h98l-52 -265h4q29 33 72.5 54t99.5 21q84 0 133.5 -54zM357 99q42 32 66.5 87.5t24.5 122.5q0 63 -26 98.5t-86 35.5q-52 0 -94.5 -33.5t-67.5 -89
t-25 -117.5q0 -66 29.5 -101t84.5 -35q52 0 94 32z" />
    <glyph glyph-name="c" unicode="c" horiz-adv-x="531" 
d="M78.5 41q-55.5 56 -55.5 153q0 88 38 164t107 121.5t157 45.5q65 0 111.5 -26.5t68 -72.5t16.5 -104h-96q1 6 1 19q0 49 -27 76t-80 27q-58 0 -103 -34t-70 -90t-25 -119q0 -60 29 -97t89 -37q66 0 105.5 36t53.5 84h97q-15 -59 -52.5 -105t-92.5 -71.5t-118 -25.5
q-98 0 -153.5 56z" />
    <glyph glyph-name="d" unicode="d" horiz-adv-x="572" 
d="M508 715h98l-139 -715h-98l12 60h-3q-30 -33 -73 -53.5t-99 -20.5q-84 0 -133.5 54t-49.5 153q0 91 38 167t103.5 120.5t144.5 44.5q53 0 88.5 -21.5t53.5 -55.5h5zM330.5 100.5q42.5 33.5 67.5 89t25 117.5q0 66 -29.5 101t-84.5 35q-52 0 -94.5 -32t-67 -87t-24.5 -122
q0 -135 113 -135q52 0 94.5 33.5z" />
    <glyph glyph-name="e" unicode="e" horiz-adv-x="554" 
d="M125 229q-1 -9 -1 -28q0 -67 30 -101t93 -34q62 0 102 29.5t53 62.5h102q-37 -81 -104 -127t-161 -46q-104 0 -159 57t-55 160q0 90 38.5 164t108 117t157.5 43q104 0 154 -53t50 -144q0 -36 -11 -100h-397zM204 408.5q-47 -37.5 -67 -102.5h295q3 18 3 33q0 49 -28.5 78
t-85.5 29q-70 0 -117 -37.5z" />
    <glyph glyph-name="f" unicode="f" horiz-adv-x="293" 
d="M272 625q-13 -15 -21 -56l-12 -59h96l-16 -81h-95l-84 -429h-98l83 429h-70l16 81h70l12 62q17 84 55.5 117t103.5 33q24 0 62 -7l-15 -78q-27 3 -39 3q-35 0 -48 -15z" />
    <glyph glyph-name="g" unicode="g" horiz-adv-x="570" 
d="M467 510h98l-92 -471q-21 -110 -90.5 -165t-176.5 -55q-65 0 -113.5 21.5t-74 58.5t-24.5 83h97q2 -82 116 -82q70 0 112.5 35.5t57.5 112.5l11 55h-3q-68 -77 -171 -77q-84 0 -134 50.5t-50 149.5q0 80 36 149t99 109.5t140 40.5q102 0 148 -75h2zM338.5 138
q41.5 31 64 81.5t22.5 108.5q0 115 -108 115q-55 0 -98 -29.5t-66 -78.5t-23 -104q0 -59 28 -91.5t84 -32.5q55 0 96.5 31z" />
    <glyph glyph-name="h" unicode="h" horiz-adv-x="544" 
d="M475 490q38 -36 38 -104q0 -26 -6 -56l-64 -330h-98l63 327q4 26 4 36q0 37 -21 58t-66 21q-60 0 -106 -39t-56 -96l-60 -307h-98l139 715h98l-52 -270h1q29 37 76 59t105 22q65 0 103 -36z" />
    <glyph glyph-name="i" unicode="i" horiz-adv-x="208" 
d="M103 0h-98l99 510h98zM226 601h-111l21 106h111z" />
    <glyph glyph-name="j" unicode="j" horiz-adv-x="208" 
d="M-114 -175l15 81q26 -3 39 -3q24 0 38.5 16.5t22.5 57.5l103 533h98l-104 -537q-15 -78 -55.5 -116t-96.5 -38q-24 0 -60 6zM226 601h-111l21 106h111z" />
    <glyph glyph-name="k" unicode="k" horiz-adv-x="493" 
d="M417 510h121l-233 -187l155 -323h-113l-119 261l-88 -71l-37 -190h-98l139 715h98l-80 -411z" />
    <glyph glyph-name="l" unicode="l" horiz-adv-x="208" 
d="M103 0h-98l139 715h98z" />
    <glyph glyph-name="m" unicode="m" horiz-adv-x="817" 
d="M756.5 495q31.5 -31 31.5 -92q0 -26 -6 -58l-67 -345h-98l63 327q5 28 5 47q0 33 -16 50.5t-52 17.5q-55 0 -95.5 -37.5t-51.5 -91.5l-61 -313h-98l63 327q6 36 6 49q0 32 -16 49t-53 17q-56 0 -96 -38.5t-52 -97.5h-1l-59 -306h-98l99 510h98l-13 -65h1q28 36 70.5 58.5
t96.5 22.5q53 0 82 -23t37 -69h2q80 92 187 92q60 0 91.5 -31z" />
    <glyph glyph-name="n" unicode="n" horiz-adv-x="544" 
d="M475 490q38 -36 38 -104q0 -26 -6 -56l-64 -330h-98l63 327q4 26 4 36q0 37 -21 58t-66 21q-60 0 -106 -39t-56 -96l-60 -307h-98l99 510h98l-13 -65h2q29 37 76 59t105 22q65 0 103 -36z" />
    <glyph glyph-name="o" unicode="o" horiz-adv-x="564" 
d="M77.5 41q-54.5 56 -54.5 151q0 90 39.5 166.5t110.5 121.5t161 45q98 0 152.5 -55.5t54.5 -150.5q0 -91 -39.5 -167.5t-110.5 -121.5t-161 -45q-98 0 -152.5 56zM346 101.5q46 34.5 71 91t25 120.5q0 60 -30.5 95.5t-88.5 35.5q-59 0 -105 -34.5t-71.5 -91t-25.5 -120.5
q0 -60 31 -95.5t89 -35.5q59 0 105 34.5z" />
    <glyph glyph-name="p" unicode="p" horiz-adv-x="572" 
d="M498.5 471q49.5 -54 49.5 -153q0 -92 -38 -168t-103.5 -120t-144.5 -44q-53 0 -88.5 21t-53.5 56h-5l-47 -240h-98l134 687h98l-12 -60h3q30 33 73 54t99 21q84 0 133.5 -54zM356.5 99q42.5 32 67 87.5t24.5 122.5q0 134 -113 134q-52 0 -94.5 -33.5t-67.5 -89
t-25 -117.5q0 -66 29.5 -101t84.5 -35q52 0 94.5 32z" />
    <glyph glyph-name="q" unicode="q" horiz-adv-x="572" 
d="M469 510h98l-134 -687h-98l46 237h-3q-30 -33 -73 -53.5t-99 -20.5q-84 0 -133.5 54t-49.5 153q0 91 38 167t103.5 120.5t144.5 44.5q53 0 88.5 -21.5t53.5 -55.5h6zM330.5 100.5q42.5 33.5 67.5 89t25 117.5q0 66 -29.5 101t-84.5 35q-52 0 -94.5 -32t-67 -87
t-24.5 -122q0 -135 113 -135q52 0 94.5 33.5z" />
    <glyph glyph-name="r" unicode="r" horiz-adv-x="344" 
d="M386 517l-18 -92q-18 3 -33 3q-69 0 -118 -45.5t-63 -121.5v1l-51 -262h-98l99 510h98l-18 -93h2q31 51 69 77.5t92 26.5q22 0 39 -4z" />
    <glyph glyph-name="s" unicode="s" horiz-adv-x="486" 
d="M102.5 10q-50.5 24 -75.5 65t-24 93h94q-1 -45 32 -74t101 -29q54 0 84.5 19t30.5 57q0 25 -14.5 40t-37 24t-67.5 22q-58 18 -89.5 31.5t-56 42t-24.5 75.5q0 71 57.5 110t146.5 39q67 0 113 -23t68 -60t21 -81h-95q1 36 -25.5 61t-84.5 25q-46 0 -75 -16.5t-29 -49.5
q0 -29 23 -43t80 -31l19 -6q55 -17 89.5 -33.5t57 -45t22.5 -74.5q0 -75 -59.5 -118.5t-158.5 -43.5q-73 0 -123.5 24z" />
    <glyph glyph-name="t" unicode="t" horiz-adv-x="314" 
d="M220 429l-56 -288q-3 -15 -3 -27q0 -21 11.5 -30t38.5 -9q17 0 44 4l-16 -79q-32 -6 -64 -6q-56 0 -85 23t-29 77q0 18 5 50l56 285h-74l16 81h74l32 164h98l-32 -164h98l-16 -81h-98z" />
    <glyph glyph-name="u" unicode="u" horiz-adv-x="544" 
d="M440 510h98l-99 -510h-98l12 64h-2q-29 -33 -75 -55.5t-103 -22.5q-66 0 -104.5 33t-38.5 103q0 30 7 64l63 324h98l-62 -322q-4 -26 -4 -37q0 -38 20 -60t62 -22q63 0 108.5 37.5t57.5 98.5h1z" />
    <glyph glyph-name="v" unicode="v" horiz-adv-x="487" 
d="M248 0h-110l-82 510h102l54 -409h1l210 409h107z" />
    <glyph glyph-name="w" unicode="w" horiz-adv-x="750" 
d="M214 0h-105l-50 510h104l23 -395h2l184 395h96l30 -395h2l186 395h106l-258 -510h-101l-33 393h-2z" />
    <glyph glyph-name="x" unicode="x" horiz-adv-x="487" 
d="M57 0h-115l245 262l-132 248h113l91 -183h2l154 183h112l-224 -249l144 -261h-115l-101 196h-2z" />
    <glyph glyph-name="y" unicode="y" horiz-adv-x="506" 
d="M-26 -172l16 80q24 -3 38 -3q84 0 129 100l-109 505h104l73 -395h2l216 395h106l-305 -530q-52 -90 -99.5 -124.5t-111.5 -34.5q-24 0 -59 7z" />
    <glyph glyph-name="z" unicode="z" horiz-adv-x="462" 
d="M392 0h-423l14 73l348 354l1 2h-262l16 81h394l-12 -63l-357 -364v-2h297z" />
    <glyph glyph-name="braceleft" unicode="{" horiz-adv-x="312" 
d="M194 -122q-80 0 -117 24t-37 92q0 34 9 82l21 108q5 23 5 39q0 49 -48 49l18 93q35 -1 52 21.5t25 65.5l22 112q16 82 44 124t69 56t108 14h21l-18 -93h-21q-38 0 -60.5 -20.5t-32.5 -72.5l-29 -146q-8 -40 -28.5 -65.5t-53.5 -41.5v-2q21 -13 32.5 -30.5t11.5 -44.5
q0 -9 -4 -33l-28 -141q-4 -20 -4 -38q0 -33 15.5 -46t45.5 -13h21l-18 -93h-21z" />
    <glyph glyph-name="bar" unicode="|" horiz-adv-x="223" 
d="M76 -130h-79l170 876h79z" />
    <glyph glyph-name="braceright" unicode="}" horiz-adv-x="312" 
d="M-50 -122l19 93h20q38 0 60.5 21t32.5 72l29 147q8 40 28.5 65.5t53.5 41.5v2q-21 13 -32.5 30.5t-11.5 44.5q0 9 4 33l28 140q4 20 4 39q0 32 -15.5 45t-45.5 13h-21l19 93h21q80 0 116.5 -24t36.5 -92q0 -34 -9 -82l-21 -107q-5 -23 -5 -39q0 -49 49 -49l-19 -93
q-34 1 -51.5 -21.5t-25.5 -65.5l-22 -113q-16 -82 -43.5 -124t-68.5 -56t-109 -14h-21z" />
    <glyph glyph-name="asciitilde" unicode="~" horiz-adv-x="444" 
d="M54 263q11 60 43.5 95.5t77.5 35.5q23 0 40 -7t37 -20q15 -9 24 -13t19 -4q20 0 32 13.5t15 30.5h77q-12 -60 -44.5 -95.5t-77.5 -35.5q-22 0 -38 6.5t-38 19.5q-15 9 -24 13t-20 4q-20 0 -31.5 -13t-15.5 -30h-76z" />
    <glyph glyph-name="uni00A0" unicode="&#xa0;" horiz-adv-x="209" 
 />
    <glyph glyph-name="exclamdown" unicode="&#xa1;" horiz-adv-x="223" 
d="M209 476h-109l21 109h109zM91 -130h-109l38 194l89 326h57l-37 -326z" />
    <glyph glyph-name="cent" unicode="&#xa2;" horiz-adv-x="564" 
d="M463 428q1 6 1 18q0 45 -22.5 71.5t-67.5 30.5l-72 -374q55 7 88.5 41.5t45.5 77.5h98q-23 -86 -90 -141.5t-158 -60.5l-17 -86h-63l17 90q-77 13 -119.5 67t-42.5 138q0 82 33 153.5t93.5 118.5t139.5 57l15 77h63l-15 -76q85 -8 130.5 -64t38.5 -138h-96zM178.5 222.5
q19.5 -34.5 60.5 -45.5l71 366q-68 -20 -109.5 -87t-41.5 -150q0 -49 19.5 -83.5z" />
    <glyph glyph-name="sterling" unicode="&#xa3;" horiz-adv-x="588" 
d="M472 460q5 28 5 48q0 98 -110 98q-67 0 -108 -39.5t-41 -103.5q0 -20 3.5 -37.5t10.5 -42.5l7 -28h155l-16 -82h-136q-8 -50 -39 -96t-73 -74v-2q6 3 24.5 11t38 13t39.5 5q23 0 38 -5t38 -16q19 -11 34.5 -16t36.5 -5q29 0 56 10.5t59 32.5l28 -85q-45 -31 -79 -45.5
t-77 -14.5q-33 0 -55.5 8t-52.5 24q-23 14 -42.5 21t-43.5 7q-27 0 -54.5 -10.5t-73.5 -35.5l-38 79q48 28 84.5 83t44.5 111h-82l16 82h60q-2 9 -7.5 29t-8.5 39t-3 39q0 62 32 116.5t92.5 87.5t142.5 33q107 0 158.5 -48t51.5 -130q0 -29 -6 -61h-109z" />
    <glyph glyph-name="currency" unicode="&#xa4;" horiz-adv-x="533" 
d="M469 457q15 -31 15 -73t-15 -80.5t-41 -71.5l50 -62l-63 -53l-49 62q-54 -34 -118 -34q-65 0 -109 35l-76 -63l-43 52l77 64q-15 32 -15 73q0 43 15 82t43 71l-51 63l62 52l50 -62q55 33 118 33q65 0 109 -35l75 63l43 -52zM194 243q23 -23 63 -23t71 21.5t48.5 58
t17.5 79.5q0 46 -22.5 69t-62.5 23t-71.5 -21.5t-49 -58t-17.5 -79.5q0 -46 23 -69z" />
    <glyph glyph-name="yen" unicode="&#xa5;" horiz-adv-x="615" 
d="M551 686h121l-287 -381h157l-11 -61h-173l-11 -58h173l-12 -61h-173l-24 -125h-109l24 125h-172l12 61h172l11 58h-172l12 61h157l-139 381h116l101 -317h2z" />
    <glyph glyph-name="brokenbar" unicode="&#xa6;" horiz-adv-x="223" 
d="M176 384h-79l70 362h79zM76 -130h-79l73 375h79z" />
    <glyph glyph-name="section" unicode="&#xa7;" horiz-adv-x="605" 
d="M463 540q1 5 1 16q0 40 -24 63.5t-74 23.5t-79 -23.5t-29 -61.5q0 -26 11 -44.5t29.5 -33t56.5 -37.5l47 -28q62 -38 91.5 -60t46.5 -49t17 -64q0 -54 -35.5 -96t-96.5 -59q28 -40 28 -89q0 -52 -25.5 -94t-73.5 -66t-112 -24q-97 0 -145.5 44t-48.5 109q0 19 2 29h97
q-1 -5 -1 -16q0 -40 24 -63.5t74 -23.5q49 0 78 23.5t29 61.5t-24.5 62.5t-72.5 52.5l-46 28q-63 39 -92.5 60.5t-46 48.5t-16.5 64q0 54 35.5 96t95.5 60q-28 38 -28 88q0 52 25.5 94t73.5 66t112 24q97 0 145.5 -43.5t48.5 -109.5q0 -19 -2 -29h-96zM278 374
q-24 14 -36 22q-41 -4 -64 -26.5t-23 -56.5q0 -22 11.5 -38t34.5 -32t76 -48l55 -33q24 -14 35 -22q41 4 64 26.5t23 56.5q0 22 -11.5 38t-34.5 32t-75 48z" />
    <glyph glyph-name="dieresis" unicode="&#xa8;" horiz-adv-x="369" 
d="M220 601h-111l22 107h110zM387 601h-110l22 107h110z" />
    <glyph glyph-name="copyright" unicode="&#xa9;" horiz-adv-x="847" 
d="M218 23q-74 37 -114.5 108t-40.5 169q0 118 56 216.5t155.5 155.5t223.5 57q98 0 171.5 -37t114 -108t40.5 -169q0 -118 -56 -216.5t-155 -155.5t-223 -57q-98 0 -172 37zM581.5 98.5q81.5 49.5 126 133.5t44.5 184q0 119 -68 184.5t-191 65.5q-106 0 -187 -49.5
t-125.5 -133.5t-44.5 -184q0 -119 68 -184.5t191 -65.5q105 0 186.5 49.5zM277.5 180q-44.5 47 -44.5 131q0 73 32.5 135t90 99t128.5 37q55 0 93.5 -21.5t56 -59t13.5 -83.5h-83q2 32 -18 60.5t-72 28.5q-45 0 -80.5 -25.5t-55 -69.5t-19.5 -96t22.5 -80t73.5 -28
q55 0 84.5 27.5t40.5 61.5h83q-19 -72 -77 -118t-142 -46q-82 0 -126.5 47z" />
    <glyph glyph-name="ordfeminine" unicode="&#xaa;" horiz-adv-x="447" 
d="M87.5 326.5q-29.5 27.5 -29.5 77.5q0 61 45 92.5t131 48.5q67 13 96.5 26t29.5 42q0 41 -64 41q-41 0 -63.5 -17.5t-31.5 -54.5h-90q15 64 65 102t133 38q137 0 137 -110q0 -22 -4 -42l-33 -167q-2 -14 -2 -18q0 -11 5 -15.5t18 -4.5h9l-10 -53q-33 -7 -53 -7
q-63 0 -62 60h-1q-25 -30 -62 -48t-81 -18q-53 0 -82.5 27.5zM292 398.5q34 27.5 43 73.5l9 44q-17 -11 -29 -15t-60 -14q-58 -13 -81 -26t-23 -44q0 -46 59 -46q48 0 82 27.5z" />
    <glyph glyph-name="guillemotleft" unicode="&#xab;" horiz-adv-x="471" 
d="M218 138l-19 -97l-166 160l21 109l228 160l-21 -112l-163 -109v-2zM398 138l-19 -97l-166 160l21 109l228 160l-21 -112l-163 -109v-2z" />
    <glyph glyph-name="logicalnot" unicode="&#xac;" horiz-adv-x="514" 
d="M431 142h-106l33 170h-311l19 93h417z" />
    <glyph glyph-name="uni00AD" unicode="&#xad;" horiz-adv-x="355" 
d="M302 208h-269l18 93h269z" />
    <glyph glyph-name="registered" unicode="&#xae;" horiz-adv-x="569" 
d="M187.5 271.5q-47.5 24.5 -74.5 69.5t-27 104q0 78 35.5 143.5t99 104t144.5 38.5q59 0 106.5 -24.5t74.5 -69.5t27 -104q0 -78 -35.5 -143.5t-99 -104t-144.5 -38.5q-59 0 -106.5 24.5zM417.5 319.5q52.5 31.5 80.5 87t28 126.5t-44 114t-119 43q-69 0 -121.5 -31.5
t-80.5 -87t-28 -126.5t44 -114t119 -43q69 0 121.5 31.5zM203 357l52 266h100q91 0 91 -70q0 -28 -19.5 -48t-52.5 -27v-2q40 -7 40 -59q0 -10 -1.5 -24t-1.5 -22q0 -10 4 -11v-3h-66q-3 3 -3 10q0 8 1.5 19.5t1.5 23.5q0 19 -7.5 30t-28.5 11h-25l-19 -94h-66zM326 504
q27 0 42.5 10.5t15.5 29.5q0 17 -11.5 23t-34.5 6h-27l-13 -69h28z" />
    <glyph glyph-name="macron" unicode="&#xaf;" horiz-adv-x="344" 
d="M371 601h-264l15 77h264z" />
    <glyph glyph-name="degree" unicode="&#xb0;" horiz-adv-x="387" 
d="M130.5 465q-33.5 37 -33.5 89q0 47 25.5 87.5t68 64t92.5 23.5q63 0 96 -36.5t33 -89.5q0 -47 -25 -87.5t-67.5 -64t-92.5 -23.5q-63 0 -96.5 37zM311 523.5q30 31.5 30 75.5q0 30 -18.5 48t-51.5 18q-43 0 -73 -31t-30 -75q0 -31 18.5 -49t51.5 -18q43 0 73 31.5z" />
    <glyph glyph-name="plusminus" unicode="&#xb1;" horiz-adv-x="560" 
d="M301 118h-94l38 190h-184l17 93h184l38 190h93l-37 -190h184l-18 -93h-184zM461 -6h-461l17 93h462z" />
    <glyph glyph-name="uni00B2" unicode="&#xb2;" horiz-adv-x="356" 
d="M42 363q9 49 34.5 82.5t52.5 51.5t85 52q55 33 79.5 57t24.5 57q0 45 -48 45q-69 0 -84 -86h-86q14 72 61.5 114.5t121.5 42.5q58 0 91.5 -26.5t33.5 -75.5q0 -58 -37 -96t-94 -72q-43 -26 -64.5 -41.5t-33.5 -31.5v-1h183l-15 -72h-305z" />
    <glyph glyph-name="uni00B3" unicode="&#xb3;" horiz-adv-x="372" 
d="M105 391.5q-39 30.5 -39 85.5q0 11 4 35h86q-3 -13 -3 -25q0 -55 65 -55q40 0 61.5 18.5t21.5 49.5q0 27 -16 37.5t-48 10.5h-28l12 63h27q36 0 55.5 16t19.5 43q0 21 -13 33t-38 12q-33 0 -53 -17t-25 -46h-85q10 59 58 96.5t120 37.5q59 0 93 -27t34 -74q0 -36 -21 -62
t-59 -38v-1q58 -20 58 -82t-48.5 -101.5t-128.5 -39.5q-71 0 -110 30.5z" />
    <glyph glyph-name="acute" unicode="&#xb4;" horiz-adv-x="237" 
d="M205 587h-77l70 138h114z" />
    <glyph glyph-name="uni00B5" unicode="&#xb5;" horiz-adv-x="569" 
d="M455 510h98l-99 -510h-98l12 64h-2q-26 -33 -67 -55.5t-89 -22.5q-65 0 -93 37l-39 -200h-97l134 687h98l-62 -322q-4 -19 -4 -39q0 -80 85 -80q61 0 106.5 38.5t56.5 97.5h1z" />
    <glyph glyph-name="paragraph" unicode="&#xb6;" horiz-adv-x="563" 
d="M209 0l66 335h-46q-81 0 -122.5 35t-41.5 101q0 71 30 126.5t84 86.5t124 31h274l-139 -715h-77l123 633h-75l-123 -633h-77z" />
    <glyph glyph-name="periodcentered" unicode="&#xb7;" horiz-adv-x="209" 
d="M147 196h-109l21 109h109z" />
    <glyph glyph-name="cedilla" unicode="&#xb8;" horiz-adv-x="298" 
d="M1.5 -189.5q-26.5 8.5 -45.5 22.5l28 28q35 -15 66 -15q25 0 40.5 11.5t15.5 31.5q0 22 -32 22q-23 0 -42 -7l-9 22l75 74h55l-54 -53l-1 -2q6 1 17 1q30 0 49.5 -13.5t19.5 -38.5q0 -41 -35.5 -66.5t-90.5 -25.5q-30 0 -56.5 8.5z" />
    <glyph glyph-name="uni00B9" unicode="&#xb9;" horiz-adv-x="233" 
d="M173 644q-23 -14 -89 -14l13 69q48 1 78.5 18.5t37.5 52.5h73l-78 -406h-90z" />
    <glyph glyph-name="ordmasculine" unicode="&#xba;" horiz-adv-x="457" 
d="M113.5 343q-42.5 44 -42.5 123q1 69 33 127.5t88.5 93.5t127.5 35q78 0 121 -43t43 -121q0 -69 -32 -128.5t-89 -95t-128 -35.5q-79 0 -121.5 44zM324 399q33 26 50.5 67t17.5 85q0 46 -21.5 71.5t-62.5 25.5q-43 0 -76.5 -26t-51 -67t-17.5 -85q0 -45 21.5 -71t63.5 -26
q43 0 76 26z" />
    <glyph glyph-name="guillemotright" unicode="&#xbb;" horiz-adv-x="471" 
d="M237 201l-228 -160l20 112l164 109v2l-121 109l20 97l166 -160zM417 201l-228 -160l20 112l164 109v2l-121 109l20 97l166 -160z" />
    <glyph glyph-name="onequarter" unicode="&#xbc;" horiz-adv-x="806" 
d="M169 589q-23 -14 -89 -14l13 69q48 1 78.5 18.5t37.5 52.5h73l-78 -406h-90zM125 0h-103l592 715h103zM682 0h-89l17 88h-186l16 84l232 234h88l-47 -246h59l-15 -72h-58zM654 305l-144 -145h115z" />
    <glyph glyph-name="onehalf" unicode="&#xbd;" horiz-adv-x="808" 
d="M171 589q-23 -14 -89 -14l13 69q48 1 78.5 18.5t37.5 52.5h73l-78 -406h-90zM127 0h-103l592 715h103zM420 0q9 49 34.5 82.5t52.5 51.5t85 52q55 33 79.5 57t24.5 57q0 45 -48 45q-69 0 -84 -86h-86q14 72 61.5 114.5t121.5 42.5q58 0 91.5 -26.5t33.5 -75.5
q0 -58 -37 -96t-94 -72q-43 -26 -64.5 -41.5t-33.5 -31.5v-1h183l-15 -72h-305z" />
    <glyph glyph-name="threequarters" unicode="&#xbe;" horiz-adv-x="927" 
d="M101 331.5q-39 30.5 -39 85.5q0 11 4 35h86q-3 -13 -3 -25q0 -55 65 -55q40 0 61.5 18.5t21.5 49.5q0 27 -16 37.5t-48 10.5h-28l12 63h27q36 0 55.5 16t19.5 43q0 21 -13 33t-38 12q-33 0 -53 -17t-25 -46h-85q10 59 58 96.5t120 37.5q59 0 93 -27t34 -74q0 -36 -21 -62
t-59 -38v-1q58 -20 58 -82t-48.5 -101.5t-128.5 -39.5q-71 0 -110 30.5zM269 0h-103l592 715h103zM799 0h-89l17 88h-186l16 84l232 234h88l-47 -246h59l-15 -72h-58zM771 305l-144 -145h115z" />
    <glyph glyph-name="questiondown" unicode="&#xbf;" horiz-adv-x="505" 
d="M373 476h-108l21 109h109zM27.5 -101q-52.5 44 -52.5 119q0 47 21 82.5t48.5 58t70.5 49.5q48 32 70.5 50.5t41 49.5t27.5 82h100q-11 -61 -33.5 -102.5t-50.5 -67.5t-71 -56q-6 -4 -41.5 -27t-54 -51.5t-18.5 -61.5q0 -36 25.5 -56t72.5 -20q63 0 108.5 37.5t58.5 117.5
h108q-11 -72 -48.5 -128.5t-98 -88t-137.5 -31.5q-94 0 -146.5 44z" />
    <glyph glyph-name="Agrave" unicode="&#xc0;" horiz-adv-x="660" 
d="M72 0h-116l402 715h120l127 -715h-116l-25 172h-299zM399 613l-184 -348h235l-49 348h-2zM464 792h-78l-74 138h115z" />
    <glyph glyph-name="Aacute" unicode="&#xc1;" horiz-adv-x="660" 
d="M72 0h-116l402 715h120l127 -715h-116l-25 172h-299zM399 613l-184 -348h235l-49 348h-2zM470 792h-77l70 138h114z" />
    <glyph glyph-name="Acircumflex" unicode="&#xc2;" horiz-adv-x="660" 
d="M72 0h-116l402 715h120l127 -715h-116l-25 172h-299zM399 613l-184 -348h235l-49 348h-2zM381 792h-96l123 138h104l70 -138h-93l-34 89h-2z" />
    <glyph glyph-name="Atilde" unicode="&#xc3;" horiz-adv-x="660" 
d="M72 0h-116l402 715h120l127 -715h-116l-25 172h-299zM399 613l-184 -348h235l-49 348h-2zM289 798q11 53 38 79.5t60 26.5q19 0 35.5 -5.5t38.5 -16.5q30 -15 44 -15q26 0 33 35h66q-11 -53 -37.5 -79.5t-60.5 -26.5q-19 0 -35.5 5.5t-38.5 16.5q-30 15 -44 15
q-26 0 -33 -35h-66z" />
    <glyph glyph-name="Adieresis" unicode="&#xc4;" horiz-adv-x="660" 
d="M72 0h-116l402 715h120l127 -715h-116l-25 172h-299zM399 613l-184 -348h235l-49 348h-2zM407 806h-111l22 106h111zM575 806h-111l22 106h111z" />
    <glyph glyph-name="Aring" unicode="&#xc5;" horiz-adv-x="660" 
d="M72 0h-116l402 715h120l127 -715h-116l-25 172h-299zM399 613l-184 -348h235l-49 348h-2zM370.5 784.5q-21.5 21.5 -21.5 55.5q0 45 32 76t77 31q37 0 58.5 -21.5t21.5 -55.5q0 -46 -32 -76.5t-78 -30.5q-36 0 -57.5 21.5zM474 824.5q17 17.5 17 40.5q0 18 -10.5 28
t-27.5 10q-24 0 -40.5 -16.5t-16.5 -41.5q0 -17 10 -27.5t28 -10.5q23 0 40 17.5z" />
    <glyph glyph-name="AE" unicode="&#xc6;" horiz-adv-x="980" 
d="M1027 715l-19 -95h-396l-38 -203h346l-19 -95h-346l-44 -227h406l-19 -95h-516l33 172h-247l-97 -172h-117l428 715h645zM418 617l-199 -352h215l68 352h-84z" />
    <glyph glyph-name="Ccedilla" unicode="&#xc7;" horiz-adv-x="710" 
d="M611 472q1 72 -39 117t-122 45q-84 0 -150.5 -47t-103.5 -127.5t-37 -176.5q0 -97 42 -149.5t136 -52.5q96 0 153 51.5t80 127.5h113q-35 -119 -126 -194.5t-217 -79.5l-40 -39l-1 -2q6 1 17 1q30 0 49.5 -13.5t19.5 -38.5q0 -41 -35.5 -66.5t-90.5 -25.5
q-30 0 -56.5 8.5t-45.5 22.5l28 28q35 -15 66 -15q25 0 40.5 11.5t15.5 31.5q0 22 -32 22q-23 0 -42 -7l-9 22l63 62q-113 11 -175.5 87.5t-62.5 203.5q0 121 54.5 224.5t149.5 164.5t210 61q88 0 148.5 -35t89 -94t22.5 -128h-112z" />
    <glyph glyph-name="Egrave" unicode="&#xc8;" horiz-adv-x="620" 
d="M538 0h-516l139 715h505l-19 -95h-395l-38 -203h346l-19 -95h-346l-44 -227h406zM457 792h-78l-74 138h115z" />
    <glyph glyph-name="Eacute" unicode="&#xc9;" horiz-adv-x="620" 
d="M538 0h-516l139 715h505l-19 -95h-395l-38 -203h346l-19 -95h-346l-44 -227h406zM462 792h-77l70 138h114z" />
    <glyph glyph-name="Ecircumflex" unicode="&#xca;" horiz-adv-x="620" 
d="M538 0h-516l139 715h505l-19 -95h-395l-38 -203h346l-19 -95h-346l-44 -227h406zM373 792h-96l123 138h104l70 -138h-93l-34 89h-2z" />
    <glyph glyph-name="Edieresis" unicode="&#xcb;" horiz-adv-x="620" 
d="M538 0h-516l139 715h505l-19 -95h-395l-38 -203h346l-19 -95h-346l-44 -227h406zM400 806h-111l22 106h111zM568 806h-111l22 106h111z" />
    <glyph glyph-name="Igrave" unicode="&#xcc;" horiz-adv-x="254" 
d="M132 0h-110l139 715h110zM261 792h-78l-74 138h115z" />
    <glyph glyph-name="Iacute" unicode="&#xcd;" horiz-adv-x="254" 
d="M132 0h-110l139 715h110zM267 792h-77l70 138h114z" />
    <glyph glyph-name="Icircumflex" unicode="&#xce;" horiz-adv-x="254" 
d="M132 0h-110l139 715h110zM178 792h-96l123 138h104l70 -138h-93l-34 89h-2z" />
    <glyph glyph-name="Idieresis" unicode="&#xcf;" horiz-adv-x="254" 
d="M132 0h-110l139 715h110zM204 806h-111l22 106h111zM372 806h-111l22 106h111z" />
    <glyph glyph-name="Eth" unicode="&#xd0;" horiz-adv-x="714" 
d="M430 715q133 0 203 -67.5t70 -204.5q0 -121 -50 -222.5t-138.5 -161t-200.5 -59.5h-282l65 333h-68l14 74h68l60 308h259zM323 95q77 0 138 46t95.5 124.5t34.5 172.5q0 90 -40.5 136t-143.5 46h-145l-41 -213h209l-15 -74h-208l-46 -238h162z" />
    <glyph glyph-name="Ntilde" unicode="&#xd1;" horiz-adv-x="714" 
d="M132 0h-110l139 715h124l225 -550h4l107 550h111l-139 -715h-124l-226 550h-4zM316 798q11 53 38 79.5t60 26.5q19 0 35.5 -5.5t38.5 -16.5q30 -15 44 -15q26 0 33 35h66q-11 -53 -37.5 -79.5t-60.5 -26.5q-19 0 -35.5 5.5t-38.5 16.5q-30 15 -44 15q-26 0 -33 -35h-66z
" />
    <glyph glyph-name="Ograve" unicode="&#xd2;" horiz-adv-x="775" 
d="M185.5 22.5q-66.5 36.5 -101.5 102.5t-35 153q0 121 54.5 224.5t151 165t215.5 61.5q92 0 158.5 -36.5t101.5 -102.5t35 -153q0 -120 -54.5 -224t-151 -165.5t-215.5 -61.5q-92 0 -158.5 36.5zM509 130.5q69 49.5 107 131t38 174.5q0 90 -47 144t-144 54
q-89 0 -158 -49.5t-107 -131t-38 -174.5q0 -90 47 -144t144 -54q89 0 158 49.5zM522 792h-78l-74 138h115z" />
    <glyph glyph-name="Oacute" unicode="&#xd3;" horiz-adv-x="775" 
d="M185.5 22.5q-66.5 36.5 -101.5 102.5t-35 153q0 121 54.5 224.5t151 165t215.5 61.5q92 0 158.5 -36.5t101.5 -102.5t35 -153q0 -120 -54.5 -224t-151 -165.5t-215.5 -61.5q-92 0 -158.5 36.5zM509 130.5q69 49.5 107 131t38 174.5q0 90 -47 144t-144 54
q-89 0 -158 -49.5t-107 -131t-38 -174.5q0 -90 47 -144t144 -54q89 0 158 49.5zM528 792h-77l70 138h114z" />
    <glyph glyph-name="Ocircumflex" unicode="&#xd4;" horiz-adv-x="775" 
d="M185.5 22.5q-66.5 36.5 -101.5 102.5t-35 153q0 121 54.5 224.5t151 165t215.5 61.5q92 0 158.5 -36.5t101.5 -102.5t35 -153q0 -120 -54.5 -224t-151 -165.5t-215.5 -61.5q-92 0 -158.5 36.5zM509 130.5q69 49.5 107 131t38 174.5q0 90 -47 144t-144 54
q-89 0 -158 -49.5t-107 -131t-38 -174.5q0 -90 47 -144t144 -54q89 0 158 49.5zM439 792h-96l123 138h104l70 -138h-93l-34 89h-2z" />
    <glyph glyph-name="Otilde" unicode="&#xd5;" horiz-adv-x="775" 
d="M185.5 22.5q-66.5 36.5 -101.5 102.5t-35 153q0 121 54.5 224.5t151 165t215.5 61.5q92 0 158.5 -36.5t101.5 -102.5t35 -153q0 -120 -54.5 -224t-151 -165.5t-215.5 -61.5q-92 0 -158.5 36.5zM509 130.5q69 49.5 107 131t38 174.5q0 90 -47 144t-144 54
q-89 0 -158 -49.5t-107 -131t-38 -174.5q0 -90 47 -144t144 -54q89 0 158 49.5zM347 798q11 53 38 79.5t60 26.5q19 0 35.5 -5.5t38.5 -16.5q30 -15 44 -15q26 0 33 35h66q-11 -53 -37.5 -79.5t-60.5 -26.5q-19 0 -35.5 5.5t-38.5 16.5q-30 15 -44 15q-26 0 -33 -35h-66z
" />
    <glyph glyph-name="Odieresis" unicode="&#xd6;" horiz-adv-x="775" 
d="M185.5 22.5q-66.5 36.5 -101.5 102.5t-35 153q0 121 54.5 224.5t151 165t215.5 61.5q92 0 158.5 -36.5t101.5 -102.5t35 -153q0 -120 -54.5 -224t-151 -165.5t-215.5 -61.5q-92 0 -158.5 36.5zM509 130.5q69 49.5 107 131t38 174.5q0 90 -47 144t-144 54
q-89 0 -158 -49.5t-107 -131t-38 -174.5q0 -90 47 -144t144 -54q89 0 158 49.5zM466 806h-111l22 106h111zM634 806h-111l22 106h111z" />
    <glyph glyph-name="multiply" unicode="&#xd7;" horiz-adv-x="560" 
d="M280 260l-178 -150l-53 67l178 149l-120 149l79 66l120 -149l179 149l53 -66l-179 -149l121 -149l-79 -67z" />
    <glyph glyph-name="Oslash" unicode="&#xd8;" horiz-adv-x="779" 
d="M825 676l-95 -80q38 -67 38 -159q0 -120 -54.5 -224t-151.5 -165.5t-216 -61.5q-75 0 -133.5 24.5t-97.5 70.5l-92 -77l-29 37l94 79q-37 68 -37 158q0 121 54.5 224.5t151.5 165t216 61.5q75 0 133 -24t96 -69l91 76zM176 194l444 373q-49 67 -154 67q-89 0 -158 -49.5
t-107 -131t-38 -174.5q0 -49 13 -85zM642 523l-444 -373q48 -69 155 -69q89 0 158 49.5t107 131t38 174.5q0 51 -14 87z" />
    <glyph glyph-name="Ugrave" unicode="&#xd9;" horiz-adv-x="691" 
d="M116.5 39q-60.5 53 -60.5 144q0 29 6 60l93 472h110l-92 -472q-6 -28 -6 -52q0 -58 34.5 -84t104.5 -26q86 0 137.5 40t67.5 122l92 472h111l-92 -472q-51 -257 -327 -257q-118 0 -178.5 53zM472 792h-78l-74 138h115z" />
    <glyph glyph-name="Uacute" unicode="&#xda;" horiz-adv-x="691" 
d="M116.5 39q-60.5 53 -60.5 144q0 29 6 60l93 472h110l-92 -472q-6 -28 -6 -52q0 -58 34.5 -84t104.5 -26q86 0 137.5 40t67.5 122l92 472h111l-92 -472q-51 -257 -327 -257q-118 0 -178.5 53zM478 792h-77l70 138h114z" />
    <glyph glyph-name="Ucircumflex" unicode="&#xdb;" horiz-adv-x="691" 
d="M116.5 39q-60.5 53 -60.5 144q0 29 6 60l93 472h110l-92 -472q-6 -28 -6 -52q0 -58 34.5 -84t104.5 -26q86 0 137.5 40t67.5 122l92 472h111l-92 -472q-51 -257 -327 -257q-118 0 -178.5 53zM388 792h-96l123 138h104l70 -138h-93l-34 89h-2z" />
    <glyph glyph-name="Udieresis" unicode="&#xdc;" horiz-adv-x="691" 
d="M116.5 39q-60.5 53 -60.5 144q0 29 6 60l93 472h110l-92 -472q-6 -28 -6 -52q0 -58 34.5 -84t104.5 -26q86 0 137.5 40t67.5 122l92 472h111l-92 -472q-51 -257 -327 -257q-118 0 -178.5 53zM415 806h-111l22 106h111zM583 806h-111l22 106h111z" />
    <glyph glyph-name="Yacute" unicode="&#xdd;" horiz-adv-x="639" 
d="M325 0h-111l56 286l-173 429h117l125 -342h2l259 342h120l-340 -429zM453 792h-77l70 138h114z" />
    <glyph glyph-name="Thorn" unicode="&#xde;" horiz-adv-x="626" 
d="M22 0l139 715h110l-22 -115h171q215 0 215 -172q0 -71 -34.5 -129t-97.5 -91.5t-145 -33.5h-192l-34 -174h-110zM371 270q71 0 111.5 41t40.5 106q0 47 -26 67t-86 20h-181l-46 -234h187z" />
    <glyph glyph-name="germandbls" unicode="&#xdf;" horiz-adv-x="534" 
d="M161 0l16 81q36 -13 68 -13q46 0 80.5 23t52.5 61.5t18 83.5q0 67 -37.5 94t-91.5 27h-29l15 77h26q65 0 108 38.5t43 96.5q0 79 -92 79q-60 0 -92 -36.5t-47 -115.5l-96 -496h-98l97 501q22 115 86 171.5t163 56.5q86 0 133 -39.5t47 -109.5q0 -68 -44 -117.5
t-109 -67.5v-2q61 -20 90.5 -57.5t29.5 -100.5q0 -65 -30 -122t-86.5 -92t-130.5 -35q-44 0 -90 14z" />
    <glyph glyph-name="agrave" unicode="&#xe0;" horiz-adv-x="546" 
d="M48 20.5q-39 34.5 -39 98.5q0 79 58.5 118.5t171.5 62.5q64 13 94.5 21t50 24.5t19.5 45.5q0 27 -20.5 41.5t-68.5 14.5q-59 0 -92 -23.5t-47 -75.5h-97q18 83 80.5 130.5t165.5 47.5q83 0 128.5 -33.5t45.5 -99.5q0 -20 -5 -48l-45 -229q-4 -24 -4 -31q0 -13 5.5 -19
t19.5 -6q3 0 15 2l-12 -59q-30 -9 -56 -9q-74 0 -71 77h-3q-33 -40 -79 -62.5t-104 -22.5q-72 0 -111 34.5zM309 102.5q48 37.5 61 102.5l13 67q-16 -14 -35.5 -20t-80.5 -20q-59 -12 -91.5 -23.5t-49.5 -29t-17 -47.5q0 -67 84 -67q68 0 116 37.5zM377 587h-78l-74 138h115
z" />
    <glyph glyph-name="aacute" unicode="&#xe1;" horiz-adv-x="546" 
d="M48 20.5q-39 34.5 -39 98.5q0 79 58.5 118.5t171.5 62.5q64 13 94.5 21t50 24.5t19.5 45.5q0 27 -20.5 41.5t-68.5 14.5q-59 0 -92 -23.5t-47 -75.5h-97q18 83 80.5 130.5t165.5 47.5q83 0 128.5 -33.5t45.5 -99.5q0 -20 -5 -48l-45 -229q-4 -24 -4 -31q0 -13 5.5 -19
t19.5 -6q3 0 15 2l-12 -59q-30 -9 -56 -9q-74 0 -71 77h-3q-33 -40 -79 -62.5t-104 -22.5q-72 0 -111 34.5zM309 102.5q48 37.5 61 102.5l13 67q-16 -14 -35.5 -20t-80.5 -20q-59 -12 -91.5 -23.5t-49.5 -29t-17 -47.5q0 -67 84 -67q68 0 116 37.5zM383 587h-77l70 138h114z
" />
    <glyph glyph-name="acircumflex" unicode="&#xe2;" horiz-adv-x="546" 
d="M48 20.5q-39 34.5 -39 98.5q0 79 58.5 118.5t171.5 62.5q64 13 94.5 21t50 24.5t19.5 45.5q0 27 -20.5 41.5t-68.5 14.5q-59 0 -92 -23.5t-47 -75.5h-97q18 83 80.5 130.5t165.5 47.5q83 0 128.5 -33.5t45.5 -99.5q0 -20 -5 -48l-45 -229q-4 -24 -4 -31q0 -13 5.5 -19
t19.5 -6q3 0 15 2l-12 -59q-30 -9 -56 -9q-74 0 -71 77h-3q-33 -40 -79 -62.5t-104 -22.5q-72 0 -111 34.5zM309 102.5q48 37.5 61 102.5l13 67q-16 -14 -35.5 -20t-80.5 -20q-59 -12 -91.5 -23.5t-49.5 -29t-17 -47.5q0 -67 84 -67q68 0 116 37.5zM294 587h-96l123 138h104
l70 -138h-93l-34 89h-2z" />
    <glyph glyph-name="atilde" unicode="&#xe3;" horiz-adv-x="546" 
d="M48 20.5q-39 34.5 -39 98.5q0 79 58.5 118.5t171.5 62.5q64 13 94.5 21t50 24.5t19.5 45.5q0 27 -20.5 41.5t-68.5 14.5q-59 0 -92 -23.5t-47 -75.5h-97q18 83 80.5 130.5t165.5 47.5q83 0 128.5 -33.5t45.5 -99.5q0 -20 -5 -48l-45 -229q-4 -24 -4 -31q0 -13 5.5 -19
t19.5 -6q3 0 15 2l-12 -59q-30 -9 -56 -9q-74 0 -71 77h-3q-33 -40 -79 -62.5t-104 -22.5q-72 0 -111 34.5zM309 102.5q48 37.5 61 102.5l13 67q-16 -14 -35.5 -20t-80.5 -20q-59 -12 -91.5 -23.5t-49.5 -29t-17 -47.5q0 -67 84 -67q68 0 116 37.5zM202 593q11 53 38 79.5
t60 26.5q19 0 35.5 -5.5t38.5 -16.5q30 -15 44 -15q26 0 33 35h66q-11 -53 -37.5 -79.5t-60.5 -26.5q-19 0 -35.5 5.5t-38.5 16.5q-30 15 -44 15q-26 0 -33 -35h-66z" />
    <glyph glyph-name="adieresis" unicode="&#xe4;" horiz-adv-x="546" 
d="M48 20.5q-39 34.5 -39 98.5q0 79 58.5 118.5t171.5 62.5q64 13 94.5 21t50 24.5t19.5 45.5q0 27 -20.5 41.5t-68.5 14.5q-59 0 -92 -23.5t-47 -75.5h-97q18 83 80.5 130.5t165.5 47.5q83 0 128.5 -33.5t45.5 -99.5q0 -20 -5 -48l-45 -229q-4 -24 -4 -31q0 -13 5.5 -19
t19.5 -6q3 0 15 2l-12 -59q-30 -9 -56 -9q-74 0 -71 77h-3q-33 -40 -79 -62.5t-104 -22.5q-72 0 -111 34.5zM309 102.5q48 37.5 61 102.5l13 67q-16 -14 -35.5 -20t-80.5 -20q-59 -12 -91.5 -23.5t-49.5 -29t-17 -47.5q0 -67 84 -67q68 0 116 37.5zM320 601h-111l22 106h111
zM488 601h-111l22 106h111z" />
    <glyph glyph-name="aring" unicode="&#xe5;" horiz-adv-x="546" 
d="M48 20.5q-39 34.5 -39 98.5q0 79 58.5 118.5t171.5 62.5q64 13 94.5 21t50 24.5t19.5 45.5q0 27 -20.5 41.5t-68.5 14.5q-59 0 -92 -23.5t-47 -75.5h-97q18 83 80.5 130.5t165.5 47.5q83 0 128.5 -33.5t45.5 -99.5q0 -20 -5 -48l-45 -229q-4 -24 -4 -31q0 -13 5.5 -19
t19.5 -6q3 0 15 2l-12 -59q-30 -9 -56 -9q-74 0 -71 77h-3q-33 -40 -79 -62.5t-104 -22.5q-72 0 -111 34.5zM309 102.5q48 37.5 61 102.5l13 67q-16 -14 -35.5 -20t-80.5 -20q-59 -12 -91.5 -23.5t-49.5 -29t-17 -47.5q0 -67 84 -67q68 0 116 37.5zM283.5 579.5
q-21.5 21.5 -21.5 55.5q0 45 32 76t77 31q37 0 58.5 -21.5t21.5 -55.5q0 -46 -32 -76.5t-78 -30.5q-36 0 -57.5 21.5zM387 619.5q17 17.5 17 40.5q0 18 -10.5 28t-27.5 10q-24 0 -40.5 -16.5t-16.5 -41.5q0 -17 10 -27.5t28 -10.5q23 0 40 17.5z" />
    <glyph glyph-name="ae" unicode="&#xe6;" horiz-adv-x="907" 
d="M477 229q-1 -9 -1 -28q0 -67 30 -101t93 -34q62 0 102 29.5t54 62.5h101q-37 -81 -104 -127t-161 -46q-138 0 -189 98q-72 -97 -223 -97q-170 0 -170 133q0 79 58.5 118.5t171.5 62.5q64 13 94.5 21t50 24.5t19.5 45.5q0 27 -20 41.5t-68 14.5q-59 0 -92.5 -23.5
t-46.5 -75.5h-98q17 79 78.5 128.5t165.5 49.5q61 0 102.5 -18.5t57.5 -56.5q40 36 90.5 55.5t108.5 19.5q104 0 154 -53t50 -144q0 -45 -11 -100h-397zM556 408.5q-47 -37.5 -66 -102.5h294q3 18 3 34q0 49 -29 77.5t-85 28.5q-70 0 -117 -37.5zM308 102q49 37 62 103
l13 63l1 6q-16 -14 -36.5 -21.5t-80.5 -20.5q-58 -12 -90.5 -23.5t-49.5 -29.5t-17 -48q0 -66 84 -66q65 0 114 37z" />
    <glyph glyph-name="ccedilla" unicode="&#xe7;" horiz-adv-x="531" 
d="M425 322q1 6 1 19q0 49 -27 76t-80 27q-58 0 -103 -34t-70 -90t-25 -119q0 -60 29 -97t89 -37q66 0 105.5 36t53.5 84h97q-21 -84 -86.5 -139t-153.5 -62l-40 -39l-1 -2q6 1 17 1q30 0 49.5 -13.5t19.5 -38.5q0 -41 -35.5 -66.5t-90.5 -25.5q-30 0 -56.5 8.5t-45.5 22.5
l28 28q35 -15 66 -15q25 0 40.5 11.5t15.5 31.5q0 22 -32 22q-23 0 -42 -7l-9 22l61 61q-83 9 -130 64t-47 143t38 164t107 121.5t157 45.5q65 0 111.5 -26.5t68 -72.5t16.5 -104h-96z" />
    <glyph glyph-name="egrave" unicode="&#xe8;" horiz-adv-x="554" 
d="M125 229q-1 -9 -1 -28q0 -67 30 -101t93 -34q62 0 102 29.5t53 62.5h102q-37 -81 -104 -127t-161 -46q-104 0 -159 57t-55 160q0 90 38.5 164t108 117t157.5 43q104 0 154 -53t50 -144q0 -36 -11 -100h-397zM204 408.5q-47 -37.5 -67 -102.5h295q3 18 3 33q0 49 -28.5 78
t-85.5 29q-70 0 -117 -37.5zM383 589h-78l-74 138h115z" />
    <glyph glyph-name="eacute" unicode="&#xe9;" horiz-adv-x="554" 
d="M125 229q-1 -9 -1 -28q0 -67 30 -101t93 -34q62 0 102 29.5t53 62.5h102q-37 -81 -104 -127t-161 -46q-104 0 -159 57t-55 160q0 90 38.5 164t108 117t157.5 43q104 0 154 -53t50 -144q0 -36 -11 -100h-397zM204 408.5q-47 -37.5 -67 -102.5h295q3 18 3 33q0 49 -28.5 78
t-85.5 29q-70 0 -117 -37.5zM389 589h-77l70 138h114z" />
    <glyph glyph-name="ecircumflex" unicode="&#xea;" horiz-adv-x="554" 
d="M125 229q-1 -9 -1 -28q0 -67 30 -101t93 -34q62 0 102 29.5t53 62.5h102q-37 -81 -104 -127t-161 -46q-104 0 -159 57t-55 160q0 90 38.5 164t108 117t157.5 43q104 0 154 -53t50 -144q0 -36 -11 -100h-397zM204 408.5q-47 -37.5 -67 -102.5h295q3 18 3 33q0 49 -28.5 78
t-85.5 29q-70 0 -117 -37.5zM300 589h-96l123 138h104l70 -138h-93l-34 89h-2z" />
    <glyph glyph-name="edieresis" unicode="&#xeb;" horiz-adv-x="554" 
d="M125 229q-1 -9 -1 -28q0 -67 30 -101t93 -34q62 0 102 29.5t53 62.5h102q-37 -81 -104 -127t-161 -46q-104 0 -159 57t-55 160q0 90 38.5 164t108 117t157.5 43q104 0 154 -53t50 -144q0 -36 -11 -100h-397zM204 408.5q-47 -37.5 -67 -102.5h295q3 18 3 33q0 49 -28.5 78
t-85.5 29q-70 0 -117 -37.5zM327 603h-111l22 106h111zM495 603h-111l22 106h111z" />
    <glyph glyph-name="igrave" unicode="&#xec;" horiz-adv-x="208" 
d="M103 0h-98l99 510h98zM198 587h-78l-74 138h115z" />
    <glyph glyph-name="iacute" unicode="&#xed;" horiz-adv-x="208" 
d="M103 0h-98l99 510h98zM204 587h-77l70 138h114z" />
    <glyph glyph-name="icircumflex" unicode="&#xee;" horiz-adv-x="208" 
d="M103 0h-98l99 510h98zM115 587h-96l123 138h104l70 -138h-93l-34 89h-2z" />
    <glyph glyph-name="idieresis" unicode="&#xef;" horiz-adv-x="208" 
d="M103 0h-98l99 510h98zM142 601h-111l22 106h111zM310 601h-111l22 106h111z" />
    <glyph glyph-name="eth" unicode="&#xf0;" horiz-adv-x="573" 
d="M585 643l-101 -26q72 -99 72 -239q0 -106 -39.5 -196.5t-112.5 -144t-168 -53.5q-100 0 -156.5 57.5t-56.5 158.5q0 85 38.5 159.5t105 119.5t146.5 45q55 0 91.5 -21t55.5 -59q-9 77 -67 150l-163 -41l-3 59l122 31q-39 38 -90 72h122q31 -20 61 -48l139 35zM346 99.5
q47 32.5 73.5 86.5t26.5 115q0 68 -33 106t-95 38q-56 0 -100.5 -31.5t-69.5 -85t-25 -117.5q0 -68 30 -106t90 -38q56 0 103 32.5z" />
    <glyph glyph-name="ntilde" unicode="&#xf1;" horiz-adv-x="544" 
d="M475 490q38 -36 38 -104q0 -26 -6 -56l-64 -330h-98l63 327q4 26 4 36q0 37 -21 58t-66 21q-60 0 -106 -39t-56 -96l-60 -307h-98l99 510h98l-13 -65h2q29 37 76 59t105 22q65 0 103 -36zM198 593q11 53 38 79.5t60 26.5q19 0 35.5 -5.5t38.5 -16.5q30 -15 44 -15
q26 0 33 35h66q-11 -53 -37.5 -79.5t-60.5 -26.5q-19 0 -35.5 5.5t-38.5 16.5q-30 15 -44 15q-26 0 -33 -35h-66z" />
    <glyph glyph-name="ograve" unicode="&#xf2;" horiz-adv-x="564" 
d="M77.5 41q-54.5 56 -54.5 151q0 90 39.5 166.5t110.5 121.5t161 45q98 0 152.5 -55.5t54.5 -150.5q0 -91 -39.5 -167.5t-110.5 -121.5t-161 -45q-98 0 -152.5 56zM346 101.5q46 34.5 71 91t25 120.5q0 60 -30.5 95.5t-88.5 35.5q-59 0 -105 -34.5t-71.5 -91t-25.5 -120.5
q0 -60 31 -95.5t89 -35.5q59 0 105 34.5zM381 587h-78l-74 138h115z" />
    <glyph glyph-name="oacute" unicode="&#xf3;" horiz-adv-x="564" 
d="M77.5 41q-54.5 56 -54.5 151q0 90 39.5 166.5t110.5 121.5t161 45q98 0 152.5 -55.5t54.5 -150.5q0 -91 -39.5 -167.5t-110.5 -121.5t-161 -45q-98 0 -152.5 56zM346 101.5q46 34.5 71 91t25 120.5q0 60 -30.5 95.5t-88.5 35.5q-59 0 -105 -34.5t-71.5 -91t-25.5 -120.5
q0 -60 31 -95.5t89 -35.5q59 0 105 34.5zM387 587h-77l70 138h114z" />
    <glyph glyph-name="ocircumflex" unicode="&#xf4;" horiz-adv-x="564" 
d="M77.5 41q-54.5 56 -54.5 151q0 90 39.5 166.5t110.5 121.5t161 45q98 0 152.5 -55.5t54.5 -150.5q0 -91 -39.5 -167.5t-110.5 -121.5t-161 -45q-98 0 -152.5 56zM346 101.5q46 34.5 71 91t25 120.5q0 60 -30.5 95.5t-88.5 35.5q-59 0 -105 -34.5t-71.5 -91t-25.5 -120.5
q0 -60 31 -95.5t89 -35.5q59 0 105 34.5zM297 587h-96l123 138h104l70 -138h-93l-34 89h-2z" />
    <glyph glyph-name="otilde" unicode="&#xf5;" horiz-adv-x="564" 
d="M77.5 41q-54.5 56 -54.5 151q0 90 39.5 166.5t110.5 121.5t161 45q98 0 152.5 -55.5t54.5 -150.5q0 -91 -39.5 -167.5t-110.5 -121.5t-161 -45q-98 0 -152.5 56zM346 101.5q46 34.5 71 91t25 120.5q0 60 -30.5 95.5t-88.5 35.5q-59 0 -105 -34.5t-71.5 -91t-25.5 -120.5
q0 -60 31 -95.5t89 -35.5q59 0 105 34.5zM205 593q11 53 38 79.5t60 26.5q19 0 35.5 -5.5t38.5 -16.5q30 -15 44 -15q26 0 33 35h66q-11 -53 -37.5 -79.5t-60.5 -26.5q-19 0 -35.5 5.5t-38.5 16.5q-30 15 -44 15q-26 0 -33 -35h-66z" />
    <glyph glyph-name="odieresis" unicode="&#xf6;" horiz-adv-x="564" 
d="M77.5 41q-54.5 56 -54.5 151q0 90 39.5 166.5t110.5 121.5t161 45q98 0 152.5 -55.5t54.5 -150.5q0 -91 -39.5 -167.5t-110.5 -121.5t-161 -45q-98 0 -152.5 56zM346 101.5q46 34.5 71 91t25 120.5q0 60 -30.5 95.5t-88.5 35.5q-59 0 -105 -34.5t-71.5 -91t-25.5 -120.5
q0 -60 31 -95.5t89 -35.5q59 0 105 34.5zM324 601h-111l22 106h111zM492 601h-111l22 106h111z" />
    <glyph glyph-name="divide" unicode="&#xf7;" horiz-adv-x="560" 
d="M372 447h-109l21 109h109zM304 99h-109l21 109h109zM515 281h-461l17 93h462z" />
    <glyph glyph-name="oslash" unicode="&#xf8;" horiz-adv-x="572" 
d="M595 484l-72 -60q22 -44 22 -105q0 -91 -40 -167.5t-111 -121.5t-160 -45q-104 0 -159 63l-70 -59l-29 37l73 61q-22 44 -22 105q0 90 39.5 166.5t110.5 121.5t161 45q104 0 158 -62l69 58zM130 155l292 246q-32 43 -95 43q-59 0 -105 -34.5t-71.5 -91t-25.5 -120.5
q0 -21 5 -43zM442 355l-293 -245q32 -43 96 -43q59 0 105 34.5t71 91t25 120.5q0 25 -4 42z" />
    <glyph glyph-name="ugrave" unicode="&#xf9;" horiz-adv-x="544" 
d="M440 510h98l-99 -510h-98l12 64h-2q-29 -33 -75 -55.5t-103 -22.5q-66 0 -104.5 33t-38.5 103q0 30 7 64l63 324h98l-62 -322q-4 -26 -4 -37q0 -38 20 -60t62 -22q63 0 108.5 37.5t57.5 98.5h1zM360 587h-78l-74 138h115z" />
    <glyph glyph-name="uacute" unicode="&#xfa;" horiz-adv-x="544" 
d="M440 510h98l-99 -510h-98l12 64h-2q-29 -33 -75 -55.5t-103 -22.5q-66 0 -104.5 33t-38.5 103q0 30 7 64l63 324h98l-62 -322q-4 -26 -4 -37q0 -38 20 -60t62 -22q63 0 108.5 37.5t57.5 98.5h1zM366 587h-77l70 138h114z" />
    <glyph glyph-name="ucircumflex" unicode="&#xfb;" horiz-adv-x="544" 
d="M440 510h98l-99 -510h-98l12 64h-2q-29 -33 -75 -55.5t-103 -22.5q-66 0 -104.5 33t-38.5 103q0 30 7 64l63 324h98l-62 -322q-4 -26 -4 -37q0 -38 20 -60t62 -22q63 0 108.5 37.5t57.5 98.5h1zM277 587h-96l123 138h104l70 -138h-93l-34 89h-2z" />
    <glyph glyph-name="udieresis" unicode="&#xfc;" horiz-adv-x="544" 
d="M440 510h98l-99 -510h-98l12 64h-2q-29 -33 -75 -55.5t-103 -22.5q-66 0 -104.5 33t-38.5 103q0 30 7 64l63 324h98l-62 -322q-4 -26 -4 -37q0 -38 20 -60t62 -22q63 0 108.5 37.5t57.5 98.5h1zM303 601h-111l22 106h111zM471 601h-111l22 106h111z" />
    <glyph glyph-name="yacute" unicode="&#xfd;" horiz-adv-x="506" 
d="M-26 -172l16 80q24 -3 38 -3q84 0 129 100l-109 505h104l73 -395h2l216 395h106l-305 -530q-52 -90 -99.5 -124.5t-111.5 -34.5q-24 0 -59 7zM345 587h-77l70 138h114z" />
    <glyph glyph-name="thorn" unicode="&#xfe;" horiz-adv-x="573" 
d="M499.5 471q49.5 -54 49.5 -153q0 -92 -38 -168t-103.5 -120t-144.5 -44q-54 0 -89.5 21t-53.5 56h-4l-47 -240h-98l173 892h98l-51 -265h3q29 33 72.5 54t99.5 21q84 0 133.5 -54zM357 99q42 32 66.5 87.5t24.5 122.5q0 63 -26 98.5t-86 35.5q-52 0 -94.5 -33.5
t-67.5 -89t-25 -117.5q0 -66 29.5 -101t84.5 -35q52 0 94 32z" />
    <glyph glyph-name="ydieresis" unicode="&#xff;" horiz-adv-x="506" 
d="M-26 -172l16 80q24 -3 38 -3q84 0 129 100l-109 505h104l73 -395h2l216 395h106l-305 -530q-52 -90 -99.5 -124.5t-111.5 -34.5q-24 0 -59 7zM282 601h-111l22 106h111zM450 601h-111l22 106h111z" />
    <glyph glyph-name="Amacron" unicode="&#x100;" horiz-adv-x="660" 
d="M72 0h-116l402 715h120l127 -715h-116l-25 172h-299zM399 613l-184 -348h235l-49 348h-2zM569 806h-264l15 77h264z" />
    <glyph glyph-name="amacron" unicode="&#x101;" horiz-adv-x="546" 
d="M48 20.5q-39 34.5 -39 98.5q0 79 58.5 118.5t171.5 62.5q64 13 94.5 21t50 24.5t19.5 45.5q0 27 -20.5 41.5t-68.5 14.5q-59 0 -92 -23.5t-47 -75.5h-97q18 83 80.5 130.5t165.5 47.5q83 0 128.5 -33.5t45.5 -99.5q0 -20 -5 -48l-45 -229q-4 -24 -4 -31q0 -13 5.5 -19
t19.5 -6q3 0 15 2l-12 -59q-30 -9 -56 -9q-74 0 -71 77h-3q-33 -40 -79 -62.5t-104 -22.5q-72 0 -111 34.5zM309 102.5q48 37.5 61 102.5l13 67q-16 -14 -35.5 -20t-80.5 -20q-59 -12 -91.5 -23.5t-49.5 -29t-17 -47.5q0 -67 84 -67q68 0 116 37.5zM481 601h-264l15 77h264z
" />
    <glyph glyph-name="Abreve" unicode="&#x102;" horiz-adv-x="660" 
d="M72 0h-116l402 715h120l127 -715h-116l-25 172h-299zM399 613l-184 -348h235l-49 348h-2zM349 809q-30 27 -30 79q0 14 3 32h66q-1 -7 -1 -20q0 -26 12 -37.5t39 -11.5q66 0 85 69h68q-16 -66 -58.5 -102t-102.5 -36q-51 0 -81 27z" />
    <glyph glyph-name="abreve" unicode="&#x103;" horiz-adv-x="546" 
d="M48 20.5q-39 34.5 -39 98.5q0 79 58.5 118.5t171.5 62.5q64 13 94.5 21t50 24.5t19.5 45.5q0 27 -20.5 41.5t-68.5 14.5q-59 0 -92 -23.5t-47 -75.5h-97q18 83 80.5 130.5t165.5 47.5q83 0 128.5 -33.5t45.5 -99.5q0 -20 -5 -48l-45 -229q-4 -24 -4 -31q0 -13 5.5 -19
t19.5 -6q3 0 15 2l-12 -59q-30 -9 -56 -9q-74 0 -71 77h-3q-33 -40 -79 -62.5t-104 -22.5q-72 0 -111 34.5zM309 102.5q48 37.5 61 102.5l13 67q-16 -14 -35.5 -20t-80.5 -20q-59 -12 -91.5 -23.5t-49.5 -29t-17 -47.5q0 -67 84 -67q68 0 116 37.5zM262 604q-30 27 -30 79
q0 14 3 32h66q-1 -7 -1 -20q0 -26 12 -37.5t39 -11.5q66 0 85 69h68q-16 -66 -58.5 -102t-102.5 -36q-51 0 -81 27z" />
    <glyph glyph-name="Aogonek" unicode="&#x104;" horiz-adv-x="660" 
d="M72 0h-116l402 715h120l127 -715h-116l-25 172h-299zM399 613l-184 -348h235l-49 348h-2zM447 -161q-21 16 -21 45q0 35 29 66.5t67 49.5h70q-35 -22 -57 -44.5t-22 -40.5q0 -11 8.5 -17.5t22.5 -6.5q22 0 49 9l-13 -67q-35 -10 -71 -10q-41 0 -62 16z" />
    <glyph glyph-name="aogonek" unicode="&#x105;" horiz-adv-x="546" 
d="M448 116q-4 -24 -4 -31q0 -13 5.5 -19t19.5 -6q3 0 15 2l-12 -59l-11 -3h2q-35 -22 -57 -44.5t-22 -40.5q0 -11 8.5 -17.5t22.5 -6.5q22 0 49 9l-13 -67q-35 -10 -71 -10q-41 0 -62 16t-21 45q0 34 27 64.5t64 48.5q-46 14 -43 74h-3q-33 -40 -79 -62.5t-104 -22.5
q-72 0 -111 34.5t-39 98.5q0 79 58.5 118.5t171.5 62.5q64 13 94.5 21t50 24.5t19.5 45.5q0 27 -20.5 41.5t-68.5 14.5q-59 0 -92 -23.5t-47 -75.5h-97q18 83 80.5 130.5t165.5 47.5q83 0 128.5 -33.5t45.5 -99.5q0 -20 -5 -48zM383 272q-16 -14 -35.5 -20t-80.5 -20
q-59 -12 -91.5 -23.5t-49.5 -29t-17 -47.5q0 -67 84 -67q68 0 116 37.5t61 102.5z" />
    <glyph glyph-name="Cacute" unicode="&#x106;" horiz-adv-x="710" 
d="M122 63.5q-73 77.5 -73 215.5q0 121 54.5 224.5t149.5 164.5t210 61q88 0 148.5 -35t89 -94t22.5 -128h-112q1 72 -39 117t-122 45q-84 0 -150.5 -47t-103.5 -127.5t-37 -176.5q0 -97 42 -149.5t136 -52.5q96 0 153 51.5t80 127.5h113q-23 -80 -73.5 -142t-123.5 -97
t-161 -35q-130 0 -203 77.5zM517 792h-77l70 138h114z" />
    <glyph glyph-name="cacute" unicode="&#x107;" horiz-adv-x="531" 
d="M78.5 41q-55.5 56 -55.5 153q0 88 38 164t107 121.5t157 45.5q65 0 111.5 -26.5t68 -72.5t16.5 -104h-96q1 6 1 19q0 49 -27 76t-80 27q-58 0 -103 -34t-70 -90t-25 -119q0 -60 29 -97t89 -37q66 0 105.5 36t53.5 84h97q-15 -59 -52.5 -105t-92.5 -71.5t-118 -25.5
q-98 0 -153.5 56zM380 587h-77l70 138h114z" />
    <glyph glyph-name="Ccircumflex" unicode="&#x108;" horiz-adv-x="710" 
d="M122 63.5q-73 77.5 -73 215.5q0 121 54.5 224.5t149.5 164.5t210 61q88 0 148.5 -35t89 -94t22.5 -128h-112q1 72 -39 117t-122 45q-84 0 -150.5 -47t-103.5 -127.5t-37 -176.5q0 -97 42 -149.5t136 -52.5q96 0 153 51.5t80 127.5h113q-23 -80 -73.5 -142t-123.5 -97
t-161 -35q-130 0 -203 77.5zM428 792h-96l123 138h104l70 -138h-93l-34 89h-2z" />
    <glyph glyph-name="ccircumflex" unicode="&#x109;" horiz-adv-x="531" 
d="M78.5 41q-55.5 56 -55.5 153q0 88 38 164t107 121.5t157 45.5q65 0 111.5 -26.5t68 -72.5t16.5 -104h-96q1 6 1 19q0 49 -27 76t-80 27q-58 0 -103 -34t-70 -90t-25 -119q0 -60 29 -97t89 -37q66 0 105.5 36t53.5 84h97q-15 -59 -52.5 -105t-92.5 -71.5t-118 -25.5
q-98 0 -153.5 56zM290 587h-96l123 138h104l70 -138h-93l-34 89h-2z" />
    <glyph glyph-name="Cdotaccent" unicode="&#x10a;" horiz-adv-x="710" 
d="M122 63.5q-73 77.5 -73 215.5q0 121 54.5 224.5t149.5 164.5t210 61q88 0 148.5 -35t89 -94t22.5 -128h-112q1 72 -39 117t-122 45q-84 0 -150.5 -47t-103.5 -127.5t-37 -176.5q0 -97 42 -149.5t136 -52.5q96 0 153 51.5t80 127.5h113q-23 -80 -73.5 -142t-123.5 -97
t-161 -35q-130 0 -203 77.5zM539 806h-111l21 106h111z" />
    <glyph glyph-name="cdotaccent" unicode="&#x10b;" horiz-adv-x="531" 
d="M78.5 41q-55.5 56 -55.5 153q0 88 38 164t107 121.5t157 45.5q65 0 111.5 -26.5t68 -72.5t16.5 -104h-96q1 6 1 19q0 49 -27 76t-80 27q-58 0 -103 -34t-70 -90t-25 -119q0 -60 29 -97t89 -37q66 0 105.5 36t53.5 84h97q-15 -59 -52.5 -105t-92.5 -71.5t-118 -25.5
q-98 0 -153.5 56zM401 601h-111l21 106h111z" />
    <glyph glyph-name="Ccaron" unicode="&#x10c;" horiz-adv-x="710" 
d="M122 63.5q-73 77.5 -73 215.5q0 121 54.5 224.5t149.5 164.5t210 61q88 0 148.5 -35t89 -94t22.5 -128h-112q1 72 -39 117t-122 45q-84 0 -150.5 -47t-103.5 -127.5t-37 -176.5q0 -97 42 -149.5t136 -52.5q96 0 153 51.5t80 127.5h113q-23 -80 -73.5 -142t-123.5 -97
t-161 -35q-130 0 -203 77.5zM534 792h-105l-69 138h90l35 -89h2l69 89h100z" />
    <glyph glyph-name="ccaron" unicode="&#x10d;" horiz-adv-x="531" 
d="M78.5 41q-55.5 56 -55.5 153q0 88 38 164t107 121.5t157 45.5q65 0 111.5 -26.5t68 -72.5t16.5 -104h-96q1 6 1 19q0 49 -27 76t-80 27q-58 0 -103 -34t-70 -90t-25 -119q0 -60 29 -97t89 -37q66 0 105.5 36t53.5 84h97q-15 -59 -52.5 -105t-92.5 -71.5t-118 -25.5
q-98 0 -153.5 56zM396 587h-105l-69 138h90l35 -89h2l69 89h100z" />
    <glyph glyph-name="Dcaron" unicode="&#x10e;" horiz-adv-x="703" 
d="M22 0l139 715h259q133 0 203 -67.5t70 -204.5q0 -121 -50 -222.5t-138.5 -161t-200.5 -59.5h-282zM313 95q77 0 138 46t95.5 124.5t34.5 172.5q0 90 -40.5 136t-143.5 46h-145l-101 -525h162zM443 792h-105l-69 138h90l35 -89h2l69 89h100z" />
    <glyph glyph-name="dcaron" unicode="&#x10f;" horiz-adv-x="604" 
d="M508 715h98l-139 -715h-98l12 60h-3q-30 -33 -73 -53.5t-99 -20.5q-84 0 -133.5 54t-49.5 153q0 91 38 167t103.5 120.5t144.5 44.5q53 0 88.5 -21.5t53.5 -55.5h5zM330.5 100.5q42.5 33.5 67.5 89t25 117.5q0 66 -29.5 101t-84.5 35q-52 0 -94.5 -32t-67 -87t-24.5 -122
q0 -135 113 -135q52 0 94.5 33.5zM679 520h-73l61 195h112z" />
    <glyph glyph-name="Dcroat" unicode="&#x110;" horiz-adv-x="714" 
d="M430 715q133 0 203 -67.5t70 -204.5q0 -121 -50 -222.5t-138.5 -161t-200.5 -59.5h-282l65 333h-68l14 74h68l60 308h259zM323 95q77 0 138 46t95.5 124.5t34.5 172.5q0 90 -40.5 136t-143.5 46h-145l-41 -213h209l-15 -74h-208l-46 -238h162z" />
    <glyph glyph-name="dcroat" unicode="&#x111;" horiz-adv-x="572" 
d="M657 651l-13 -67h-63l-114 -584h-98l12 60h-3q-30 -33 -73 -53.5t-99 -20.5q-84 0 -133.5 54t-49.5 153q0 91 38 167t103.5 120.5t144.5 44.5q53 0 88.5 -21.5t53.5 -55.5h5l27 136h-148l13 67h148l12 64h98l-12 -64h63zM330.5 100.5q42.5 33.5 67.5 89t25 117.5
q0 66 -29.5 101t-84.5 35q-52 0 -94.5 -32t-67 -87t-24.5 -122q0 -135 113 -135q52 0 94.5 33.5z" />
    <glyph glyph-name="Emacron" unicode="&#x112;" horiz-adv-x="620" 
d="M538 0h-516l139 715h505l-19 -95h-395l-38 -203h346l-19 -95h-346l-44 -227h406zM561 806h-264l15 77h264z" />
    <glyph glyph-name="emacron" unicode="&#x113;" horiz-adv-x="554" 
d="M125 229q-1 -9 -1 -28q0 -67 30 -101t93 -34q62 0 102 29.5t53 62.5h102q-37 -81 -104 -127t-161 -46q-104 0 -159 57t-55 160q0 90 38.5 164t108 117t157.5 43q104 0 154 -53t50 -144q0 -36 -11 -100h-397zM204 408.5q-47 -37.5 -67 -102.5h295q3 18 3 33q0 49 -28.5 78
t-85.5 29q-70 0 -117 -37.5zM488 603h-264l15 77h264z" />
    <glyph glyph-name="Edotaccent" unicode="&#x116;" horiz-adv-x="620" 
d="M538 0h-516l139 715h505l-19 -95h-395l-38 -203h346l-19 -95h-346l-44 -227h406zM484 806h-111l21 106h111z" />
    <glyph glyph-name="edotaccent" unicode="&#x117;" horiz-adv-x="554" 
d="M125 229q-1 -9 -1 -28q0 -67 30 -101t93 -34q62 0 102 29.5t53 62.5h102q-37 -81 -104 -127t-161 -46q-104 0 -159 57t-55 160q0 90 38.5 164t108 117t157.5 43q104 0 154 -53t50 -144q0 -36 -11 -100h-397zM204 408.5q-47 -37.5 -67 -102.5h295q3 18 3 33q0 49 -28.5 78
t-85.5 29q-70 0 -117 -37.5zM411 603h-111l21 106h111z" />
    <glyph glyph-name="Eogonek" unicode="&#x118;" horiz-adv-x="620" 
d="M538 0h-516l139 715h505l-19 -95h-395l-38 -203h346l-19 -95h-346l-44 -227h406zM384 -161q-21 16 -21 45q0 35 29 66.5t67 49.5h70q-35 -22 -57 -44.5t-22 -40.5q0 -11 8.5 -17.5t22.5 -6.5q22 0 49 9l-13 -67q-35 -10 -71 -10q-41 0 -62 16z" />
    <glyph glyph-name="eogonek" unicode="&#x119;" horiz-adv-x="554" 
d="M125 229q-1 -9 -1 -28q0 -67 30 -101t93 -34q62 0 102 29.5t53 62.5h102q-29 -63 -76 -105t-111 -59q-31 -20 -50.5 -41t-19.5 -38q0 -11 8.5 -17.5t22.5 -6.5q22 0 49 9l-13 -67q-35 -10 -71 -10q-41 0 -62 16t-21 45q0 28 19.5 54.5t49.5 46.5q-100 3 -152 59.5
t-52 157.5q0 90 38.5 164t108 117t157.5 43q104 0 154 -53t50 -144q0 -36 -11 -100h-397zM204 408.5q-47 -37.5 -67 -102.5h295q3 18 3 33q0 49 -28.5 78t-85.5 29q-70 0 -117 -37.5z" />
    <glyph glyph-name="Ecaron" unicode="&#x11a;" horiz-adv-x="620" 
d="M538 0h-516l139 715h505l-19 -95h-395l-38 -203h346l-19 -95h-346l-44 -227h406zM479 792h-105l-69 138h90l35 -89h2l69 89h100z" />
    <glyph glyph-name="ecaron" unicode="&#x11b;" horiz-adv-x="554" 
d="M125 229q-1 -9 -1 -28q0 -67 30 -101t93 -34q62 0 102 29.5t53 62.5h102q-37 -81 -104 -127t-161 -46q-104 0 -159 57t-55 160q0 90 38.5 164t108 117t157.5 43q104 0 154 -53t50 -144q0 -36 -11 -100h-397zM204 408.5q-47 -37.5 -67 -102.5h295q3 18 3 33q0 49 -28.5 78
t-85.5 29q-70 0 -117 -37.5zM406 589h-105l-69 138h90l35 -89h2l69 89h100z" />
    <glyph glyph-name="Gcircumflex" unicode="&#x11c;" horiz-adv-x="739" 
d="M115 61q-67 75 -67 207q0 124 54 230t150 168.5t216 62.5q87 0 145.5 -31.5t86 -85t24.5 -118.5h-113q0 67 -40.5 103.5t-120.5 36.5q-84 0 -150 -48t-103.5 -130.5t-37.5 -180.5q0 -194 170 -194q61 0 115 25.5t91.5 71t49.5 104.5h-211l17 92h323l-72 -374h-76l-8 99
h-2q-49 -57 -107.5 -85t-137.5 -28q-129 0 -196 75zM421 792h-96l123 138h104l70 -138h-93l-34 89h-2z" />
    <glyph glyph-name="gcircumflex" unicode="&#x11d;" horiz-adv-x="570" 
d="M467 510h98l-92 -471q-21 -110 -90.5 -165t-176.5 -55q-65 0 -113.5 21.5t-74 58.5t-24.5 83h97q2 -82 116 -82q70 0 112.5 35.5t57.5 112.5l11 55h-3q-68 -77 -171 -77q-84 0 -134 50.5t-50 149.5q0 80 36 149t99 109.5t140 40.5q102 0 148 -75h2zM338.5 138
q41.5 31 64 81.5t22.5 108.5q0 115 -108 115q-55 0 -98 -29.5t-66 -78.5t-23 -104q0 -59 28 -91.5t84 -32.5q55 0 96.5 31zM284 587h-96l123 138h104l70 -138h-93l-34 89h-2z" />
    <glyph glyph-name="Gbreve" unicode="&#x11e;" horiz-adv-x="739" 
d="M115 61q-67 75 -67 207q0 124 54 230t150 168.5t216 62.5q87 0 145.5 -31.5t86 -85t24.5 -118.5h-113q0 67 -40.5 103.5t-120.5 36.5q-84 0 -150 -48t-103.5 -130.5t-37.5 -180.5q0 -194 170 -194q61 0 115 25.5t91.5 71t49.5 104.5h-211l17 92h323l-72 -374h-76l-8 99
h-2q-49 -57 -107.5 -85t-137.5 -28q-129 0 -196 75zM390 809q-30 27 -30 79q0 14 3 32h66q-1 -7 -1 -20q0 -26 12 -37.5t39 -11.5q66 0 85 69h68q-16 -66 -58.5 -102t-102.5 -36q-51 0 -81 27z" />
    <glyph glyph-name="gbreve" unicode="&#x11f;" horiz-adv-x="570" 
d="M467 510h98l-92 -471q-21 -110 -90.5 -165t-176.5 -55q-65 0 -113.5 21.5t-74 58.5t-24.5 83h97q2 -82 116 -82q70 0 112.5 35.5t57.5 112.5l11 55h-3q-68 -77 -171 -77q-84 0 -134 50.5t-50 149.5q0 80 36 149t99 109.5t140 40.5q102 0 148 -75h2zM338.5 138
q41.5 31 64 81.5t22.5 108.5q0 115 -108 115q-55 0 -98 -29.5t-66 -78.5t-23 -104q0 -59 28 -91.5t84 -32.5q55 0 96.5 31zM252 604q-30 27 -30 79q0 14 3 32h66q-1 -7 -1 -20q0 -26 12 -37.5t39 -11.5q66 0 85 69h68q-16 -66 -58.5 -102t-102.5 -36q-51 0 -81 27z" />
    <glyph glyph-name="Gdotaccent" unicode="&#x120;" horiz-adv-x="739" 
d="M115 61q-67 75 -67 207q0 124 54 230t150 168.5t216 62.5q87 0 145.5 -31.5t86 -85t24.5 -118.5h-113q0 67 -40.5 103.5t-120.5 36.5q-84 0 -150 -48t-103.5 -130.5t-37.5 -180.5q0 -194 170 -194q61 0 115 25.5t91.5 71t49.5 104.5h-211l17 92h323l-72 -374h-76l-8 99
h-2q-49 -57 -107.5 -85t-137.5 -28q-129 0 -196 75zM532 806h-111l21 106h111z" />
    <glyph glyph-name="gdotaccent" unicode="&#x121;" horiz-adv-x="570" 
d="M467 510h98l-92 -471q-21 -110 -90.5 -165t-176.5 -55q-65 0 -113.5 21.5t-74 58.5t-24.5 83h97q2 -82 116 -82q70 0 112.5 35.5t57.5 112.5l11 55h-3q-68 -77 -171 -77q-84 0 -134 50.5t-50 149.5q0 80 36 149t99 109.5t140 40.5q102 0 148 -75h2zM338.5 138
q41.5 31 64 81.5t22.5 108.5q0 115 -108 115q-55 0 -98 -29.5t-66 -78.5t-23 -104q0 -59 28 -91.5t84 -32.5q55 0 96.5 31zM395 601h-111l21 106h111z" />
    <glyph glyph-name="uni0122" unicode="&#x122;" horiz-adv-x="739" 
d="M115 61q-67 75 -67 207q0 124 54 230t150 168.5t216 62.5q87 0 145.5 -31.5t86 -85t24.5 -118.5h-113q0 67 -40.5 103.5t-120.5 36.5q-84 0 -150 -48t-103.5 -130.5t-37.5 -180.5q0 -194 170 -194q61 0 115 25.5t91.5 71t49.5 104.5h-211l17 92h323l-72 -374h-76l-8 99
h-2q-49 -57 -107.5 -85t-137.5 -28q-129 0 -196 75zM260 -49h109l-16 -83q-8 -42 -39 -68t-90 -38l8 42q30 7 44.5 21t19.5 43h-52z" />
    <glyph glyph-name="uni0123" unicode="&#x123;" horiz-adv-x="570" 
d="M467 510h98l-92 -471q-21 -110 -90.5 -165t-176.5 -55q-65 0 -113.5 21.5t-74 58.5t-24.5 83h97q2 -82 116 -82q70 0 112.5 35.5t57.5 112.5l11 55h-3q-68 -77 -171 -77q-84 0 -134 50.5t-50 149.5q0 80 36 149t99 109.5t140 40.5q102 0 148 -75h2zM338.5 138
q41.5 31 64 81.5t22.5 108.5q0 115 -108 115q-55 0 -98 -29.5t-66 -78.5t-23 -104q0 -59 28 -91.5t84 -32.5q55 0 96.5 31zM426 747q-30 -7 -45 -22.5t-20 -46.5h52l-18 -91h-109l18 91q18 93 131 116z" />
    <glyph glyph-name="Hcircumflex" unicode="&#x124;" horiz-adv-x="715" 
d="M132 0h-110l139 715h110l-58 -299h351l58 299h110l-139 -715h-110l62 321h-351zM408 792h-96l123 138h104l70 -138h-93l-34 89h-2z" />
    <glyph glyph-name="hcircumflex" unicode="&#x125;" horiz-adv-x="544" 
d="M475 490q38 -36 38 -104q0 -26 -6 -56l-64 -330h-98l63 327q4 26 4 36q0 37 -21 58t-66 21q-60 0 -106 -39t-56 -96l-60 -307h-98l139 715h98l-52 -270h1q29 37 76 59t105 22q65 0 103 -36zM146 749h-96l123 138h104l70 -138h-93l-34 89h-2z" />
    <glyph glyph-name="Hbar" unicode="&#x126;" horiz-adv-x="738" 
d="M722 608h68l-15 -75h-67l-104 -533h-110l62 321h-351l-62 -321h-110l104 533h-67l15 75h66l21 107h110l-21 -107h351l21 107h110zM224 416h351l23 117h-351z" />
    <glyph glyph-name="hbar" unicode="&#x127;" horiz-adv-x="544" 
d="M475 490q38 -36 38 -104q0 -26 -6 -56l-64 -330h-98l63 327q4 26 4 36q0 37 -21 58t-66 21q-60 0 -106 -39t-56 -96l-60 -307h-98l114 584h-59l14 67h58l12 64h98l-12 -64h159l-13 -67h-159l-27 -139h1q29 37 76 59t105 22q65 0 103 -36z" />
    <glyph glyph-name="Itilde" unicode="&#x128;" horiz-adv-x="254" 
d="M132 0h-110l139 715h110zM86 798q11 53 38 79.5t60 26.5q19 0 35.5 -5.5t38.5 -16.5q30 -15 44 -15q26 0 33 35h66q-11 -53 -37.5 -79.5t-60.5 -26.5q-19 0 -35.5 5.5t-38.5 16.5q-30 15 -44 15q-26 0 -33 -35h-66z" />
    <glyph glyph-name="itilde" unicode="&#x129;" horiz-adv-x="208" 
d="M103 0h-98l99 510h98zM23 593q11 53 38 79.5t60 26.5q19 0 35.5 -5.5t38.5 -16.5q30 -15 44 -15q26 0 33 35h66q-11 -53 -37.5 -79.5t-60.5 -26.5q-19 0 -35.5 5.5t-38.5 16.5q-30 15 -44 15q-26 0 -33 -35h-66z" />
    <glyph glyph-name="Imacron" unicode="&#x12a;" horiz-adv-x="254" 
d="M132 0h-110l139 715h110zM365 806h-264l15 77h264z" />
    <glyph glyph-name="imacron" unicode="&#x12b;" horiz-adv-x="208" 
d="M103 0h-98l99 510h98zM303 601h-264l15 77h264z" />
    <glyph glyph-name="Iogonek" unicode="&#x12e;" horiz-adv-x="254" 
d="M132 0h-110l139 715h110zM-17 -161q-21 16 -21 45q0 35 29 66.5t67 49.5h70q-35 -22 -57 -44.5t-22 -40.5q0 -11 8.5 -17.5t22.5 -6.5q22 0 49 9l-13 -67q-35 -10 -71 -10q-41 0 -62 16z" />
    <glyph glyph-name="iogonek" unicode="&#x12f;" horiz-adv-x="208" 
d="M103 0h-98l99 510h98zM226 601h-111l21 106h111zM-48 -161q-21 16 -21 45q0 35 29 66.5t67 49.5h70q-35 -22 -57 -44.5t-22 -40.5q0 -11 8.5 -17.5t22.5 -6.5q22 0 49 9l-13 -67q-35 -10 -71 -10q-41 0 -62 16z" />
    <glyph glyph-name="Idotaccent" unicode="&#x130;" horiz-adv-x="254" 
d="M297 805h-114l22 107h113zM132 0h-110l139 715h110z" />
    <glyph glyph-name="dotlessi" unicode="&#x131;" horiz-adv-x="208" 
d="M103 0h-98l99 510h98z" />
    <glyph glyph-name="Jcircumflex" unicode="&#x134;" horiz-adv-x="517" 
d="M45.5 31q-43.5 45 -43.5 122q0 36 7 70l6 29h106l-6 -29q-8 -40 -8 -65q0 -39 20 -58t69 -19q64 0 94 37.5t43 104.5l96 492h110l-99 -508q-21 -104 -79 -162.5t-172 -58.5q-100 0 -143.5 45zM446 792h-96l123 138h104l70 -138h-93l-34 89h-2z" />
    <glyph glyph-name="jcircumflex" unicode="&#x135;" horiz-adv-x="208" 
d="M-114 -175l15 81q26 -3 39 -3q24 0 38.5 16.5t22.5 57.5l103 533h98l-104 -537q-15 -78 -55.5 -116t-96.5 -38q-24 0 -60 6zM115 587h-96l123 138h104l70 -138h-93l-34 89h-2z" />
    <glyph glyph-name="uni0136" unicode="&#x136;" horiz-adv-x="652" 
d="M606 715h129l-336 -299l220 -416h-127l-176 343l-141 -125l-43 -218h-110l139 715h110l-69 -359zM243 -49h109l-16 -83q-8 -42 -39 -68t-90 -38l8 42q30 7 44.5 21t19.5 43h-52z" />
    <glyph glyph-name="uni0137" unicode="&#x137;" horiz-adv-x="493" 
d="M417 510h121l-233 -187l155 -323h-113l-119 261l-88 -71l-37 -190h-98l139 715h98l-80 -411zM161 -49h109l-16 -83q-8 -42 -39 -68t-90 -38l8 42q30 7 44.5 21t19.5 43h-52z" />
    <glyph glyph-name="kgreenlandic" unicode="&#x138;" horiz-adv-x="499" 
d="M431 510h121l-242 -197l150 -313h-113l-114 251l-96 -79l-34 -172h-98l99 510h98l-42 -220z" />
    <glyph glyph-name="Lacute" unicode="&#x139;" horiz-adv-x="558" 
d="M494 0h-472l139 715h110l-120 -620h362zM268 792h-77l70 138h114z" />
    <glyph glyph-name="lacute" unicode="&#x13a;" horiz-adv-x="208" 
d="M103 0h-98l139 715h98zM235 749h-77l70 138h114z" />
    <glyph glyph-name="uni013B" unicode="&#x13b;" horiz-adv-x="558" 
d="M494 0h-472l139 715h110l-120 -620h362zM194 -49h109l-16 -83q-8 -42 -39 -68t-90 -38l8 42q30 7 44.5 21t19.5 43h-52z" />
    <glyph glyph-name="uni013C" unicode="&#x13c;" horiz-adv-x="208" 
d="M103 0h-98l139 715h98zM-10 -49h109l-16 -83q-8 -42 -39 -68t-90 -38l8 42q30 7 44.5 21t19.5 43h-52z" />
    <glyph glyph-name="Lcaron" unicode="&#x13d;" horiz-adv-x="558" 
d="M494 0h-472l139 715h110l-120 -620h362zM418 520h-73l61 195h112z" />
    <glyph glyph-name="lcaron" unicode="&#x13e;" horiz-adv-x="240" 
d="M103 0h-98l139 715h98zM315 522h-73l61 195h112z" />
    <glyph glyph-name="Lslash" unicode="&#x141;" horiz-adv-x="584" 
d="M219 313l-42 -218h362l-19 -95h-473l45 232l-76 -49l16 90l78 50l76 392h111l-60 -311l196 125l-17 -90z" />
    <glyph glyph-name="lslash" unicode="&#x142;" horiz-adv-x="285" 
d="M231 459l82 52l-17 -86l-81 -51l-73 -374h-98l59 303l-81 -51l17 86l81 51l63 326h98z" />
    <glyph glyph-name="Nacute" unicode="&#x143;" horiz-adv-x="714" 
d="M132 0h-110l139 715h124l225 -550h4l107 550h111l-139 -715h-124l-226 550h-4zM498 792h-77l70 138h114z" />
    <glyph glyph-name="nacute" unicode="&#x144;" horiz-adv-x="544" 
d="M475 490q38 -36 38 -104q0 -26 -6 -56l-64 -330h-98l63 327q4 26 4 36q0 37 -21 58t-66 21q-60 0 -106 -39t-56 -96l-60 -307h-98l99 510h98l-13 -65h2q29 37 76 59t105 22q65 0 103 -36zM379 587h-77l70 138h114z" />
    <glyph glyph-name="uni0145" unicode="&#x145;" horiz-adv-x="714" 
d="M132 0h-110l139 715h124l225 -550h4l107 550h111l-139 -715h-124l-226 550h-4zM243 -49h109l-16 -83q-8 -42 -39 -68t-90 -38l8 42q30 7 44.5 21t19.5 43h-52z" />
    <glyph glyph-name="uni0146" unicode="&#x146;" horiz-adv-x="544" 
d="M475 490q38 -36 38 -104q0 -26 -6 -56l-64 -330h-98l63 327q4 26 4 36q0 37 -21 58t-66 21q-60 0 -106 -39t-56 -96l-60 -307h-98l99 510h98l-13 -65h2q29 37 76 59t105 22q65 0 103 -36zM160 -49h109l-16 -83q-8 -42 -39 -68t-90 -38l8 42q30 7 44.5 21t19.5 43h-52z
" />
    <glyph glyph-name="Ncaron" unicode="&#x147;" horiz-adv-x="714" 
d="M132 0h-110l139 715h124l225 -550h4l107 550h111l-139 -715h-124l-226 550h-4zM514 792h-105l-69 138h90l35 -89h2l69 89h100z" />
    <glyph glyph-name="ncaron" unicode="&#x148;" horiz-adv-x="544" 
d="M475 490q38 -36 38 -104q0 -26 -6 -56l-64 -330h-98l63 327q4 26 4 36q0 37 -21 58t-66 21q-60 0 -106 -39t-56 -96l-60 -307h-98l99 510h98l-13 -65h2q29 37 76 59t105 22q65 0 103 -36zM396 587h-105l-69 138h90l35 -89h2l69 89h100z" />
    <glyph glyph-name="Eng" unicode="&#x14a;" horiz-adv-x="714" 
d="M312 -171l15 81q11 -1 30 -1q49 0 78 18t38 59l-232 564h-2l-107 -550h-110l139 715h126l224 -552h2l108 552h111l-137 -704q-18 -95 -75 -142t-142 -47q-41 0 -66 7z" />
    <glyph glyph-name="eng" unicode="&#x14b;" horiz-adv-x="544" 
d="M475.5 490q37.5 -36 37.5 -104q0 -26 -6 -56l-70 -359q-15 -77 -53.5 -109.5t-100.5 -32.5q-40 0 -68 7l17 81q9 -1 24 -1q39 0 58.5 14t26.5 50l67 347q4 26 4 36q0 37 -21 58t-66 21q-60 0 -106 -39t-56 -96l-60 -307h-98l99 510h98l-13 -66h1q31 37 78 59.5t105 22.5
q65 0 102.5 -36z" />
    <glyph glyph-name="Omacron" unicode="&#x14c;" horiz-adv-x="775" 
d="M185.5 22.5q-66.5 36.5 -101.5 102.5t-35 153q0 121 54.5 224.5t151 165t215.5 61.5q92 0 158.5 -36.5t101.5 -102.5t35 -153q0 -120 -54.5 -224t-151 -165.5t-215.5 -61.5q-92 0 -158.5 36.5zM509 130.5q69 49.5 107 131t38 174.5q0 90 -47 144t-144 54
q-89 0 -158 -49.5t-107 -131t-38 -174.5q0 -90 47 -144t144 -54q89 0 158 49.5zM627 806h-264l15 77h264z" />
    <glyph glyph-name="omacron" unicode="&#x14d;" horiz-adv-x="564" 
d="M77.5 41q-54.5 56 -54.5 151q0 90 39.5 166.5t110.5 121.5t161 45q98 0 152.5 -55.5t54.5 -150.5q0 -91 -39.5 -167.5t-110.5 -121.5t-161 -45q-98 0 -152.5 56zM346 101.5q46 34.5 71 91t25 120.5q0 60 -30.5 95.5t-88.5 35.5q-59 0 -105 -34.5t-71.5 -91t-25.5 -120.5
q0 -60 31 -95.5t89 -35.5q59 0 105 34.5zM485 601h-264l15 77h264z" />
    <glyph glyph-name="Ohungarumlaut" unicode="&#x150;" horiz-adv-x="775" 
d="M185.5 22.5q-66.5 36.5 -101.5 102.5t-35 153q0 121 54.5 224.5t151 165t215.5 61.5q92 0 158.5 -36.5t101.5 -102.5t35 -153q0 -120 -54.5 -224t-151 -165.5t-215.5 -61.5q-92 0 -158.5 36.5zM509 130.5q69 49.5 107 131t38 174.5q0 90 -47 144t-144 54
q-89 0 -158 -49.5t-107 -131t-38 -174.5q0 -90 47 -144t144 -54q89 0 158 49.5zM460 792h-76l83 138h106zM610 792h-76l87 138h107z" />
    <glyph glyph-name="ohungarumlaut" unicode="&#x151;" horiz-adv-x="564" 
d="M77.5 41q-54.5 56 -54.5 151q0 90 39.5 166.5t110.5 121.5t161 45q98 0 152.5 -55.5t54.5 -150.5q0 -91 -39.5 -167.5t-110.5 -121.5t-161 -45q-98 0 -152.5 56zM346 101.5q46 34.5 71 91t25 120.5q0 60 -30.5 95.5t-88.5 35.5q-59 0 -105 -34.5t-71.5 -91t-25.5 -120.5
q0 -60 31 -95.5t89 -35.5q59 0 105 34.5zM318 587h-76l83 138h106zM468 587h-76l87 138h107z" />
    <glyph glyph-name="OE" unicode="&#x152;" horiz-adv-x="1114" 
d="M1142 620h-396l-38 -203h347l-19 -95h-347l-44 -227h406l-19 -95h-516l26 135q-49 -70 -115.5 -109.5t-143.5 -39.5q-72 0 -125 34t-81.5 98t-28.5 150q0 117 51 224t139.5 172t194.5 65q156 0 196 -148l26 134h506zM456 133q62 52 95.5 135.5t33.5 172.5q0 99 -41.5 146
t-112.5 47q-76 0 -138.5 -49t-98 -131.5t-35.5 -177.5q0 -92 37.5 -143.5t117.5 -51.5t142 52z" />
    <glyph glyph-name="oe" unicode="&#x153;" horiz-adv-x="967" 
d="M537 229q-1 -9 -1 -28q0 -67 30 -101t94 -34q62 0 101.5 29.5t53.5 62.5h101q-37 -81 -103.5 -127t-161.5 -46q-72 0 -120 27t-72 79q-43 -50 -102 -78t-129 -28q-98 0 -152 55.5t-54 149.5q0 90 40 167t112 122.5t162 45.5q66 0 112 -25.5t70 -72.5q42 47 99 73t124 26
q104 0 154.5 -52.5t50.5 -144.5q0 -40 -12 -100h-397zM617 409q-47 -37 -67 -103h295q3 17 3 33q0 49 -29 78t-86 29q-69 0 -116 -37zM346 101.5q46 34.5 71 90.5t25 120q0 61 -30.5 96.5t-88.5 35.5q-59 0 -105 -34.5t-71.5 -91t-25.5 -120.5q0 -60 30.5 -95.5t88.5 -35.5
q60 0 106 34.5z" />
    <glyph glyph-name="Racute" unicode="&#x154;" horiz-adv-x="656" 
d="M22 0l139 715h288q106 0 162 -43.5t56 -124.5q0 -79 -48.5 -139t-125.5 -77l-1 -3q87 -17 87 -143q0 -38 -8 -98q-5 -37 -5 -56q0 -21 8 -24l-1 -7h-118q-4 4 -4 17q0 15 7 55q11 66 11 98q0 50 -21.5 80t-76.5 30h-185l-54 -280h-110zM382 375q77 0 124 43.5t47 110.5
q0 47 -31 69t-104 22h-166l-47 -245h177zM457 792h-77l70 138h114z" />
    <glyph glyph-name="racute" unicode="&#x155;" horiz-adv-x="344" 
d="M386 517l-18 -92q-18 3 -33 3q-69 0 -118 -45.5t-63 -121.5v1l-51 -262h-98l99 510h98l-18 -93h2q31 51 69 77.5t92 26.5q22 0 39 -4zM297 587h-77l70 138h114z" />
    <glyph glyph-name="uni0156" unicode="&#x156;" horiz-adv-x="656" 
d="M22 0l139 715h288q106 0 162 -43.5t56 -124.5q0 -79 -48.5 -139t-125.5 -77l-1 -3q87 -17 87 -143q0 -38 -8 -98q-5 -37 -5 -56q0 -21 8 -24l-1 -7h-118q-4 4 -4 17q0 15 7 55q11 66 11 98q0 50 -21.5 80t-76.5 30h-185l-54 -280h-110zM382 375q77 0 124 43.5t47 110.5
q0 47 -31 69t-104 22h-166l-47 -245h177zM225 -49h109l-16 -83q-8 -42 -39 -68t-90 -38l8 42q30 7 44.5 21t19.5 43h-52z" />
    <glyph glyph-name="uni0157" unicode="&#x157;" horiz-adv-x="344" 
d="M386 517l-18 -92q-18 3 -33 3q-69 0 -118 -45.5t-63 -121.5v1l-51 -262h-98l99 510h98l-18 -93h2q31 51 69 77.5t92 26.5q22 0 39 -4zM-10 -49h109l-16 -83q-8 -42 -39 -68t-90 -38l8 42q30 7 44.5 21t19.5 43h-52z" />
    <glyph glyph-name="Rcaron" unicode="&#x158;" horiz-adv-x="656" 
d="M22 0l139 715h288q106 0 162 -43.5t56 -124.5q0 -79 -48.5 -139t-125.5 -77l-1 -3q87 -17 87 -143q0 -38 -8 -98q-5 -37 -5 -56q0 -21 8 -24l-1 -7h-118q-4 4 -4 17q0 15 7 55q11 66 11 98q0 50 -21.5 80t-76.5 30h-185l-54 -280h-110zM382 375q77 0 124 43.5t47 110.5
q0 47 -31 69t-104 22h-166l-47 -245h177zM474 792h-105l-69 138h90l35 -89h2l69 89h100z" />
    <glyph glyph-name="rcaron" unicode="&#x159;" horiz-adv-x="344" 
d="M386 517l-18 -92q-18 3 -33 3q-69 0 -118 -45.5t-63 -121.5v1l-51 -262h-98l99 510h98l-18 -93h2q31 51 69 77.5t92 26.5q22 0 39 -4zM314 587h-105l-69 138h90l35 -89h2l69 89h100z" />
    <glyph glyph-name="Sacute" unicode="&#x15a;" horiz-adv-x="631" 
d="M149 16.5q-67 30.5 -101 87.5t-29 134h110q-4 -77 43.5 -117.5t135.5 -40.5q79 0 125 30.5t46 91.5q0 33 -17 53.5t-51 36t-107 40.5q-72 24 -115 48t-65.5 58.5t-22.5 85.5q0 65 36 111.5t98 70t140 23.5q126 0 192 -57.5t58 -167.5h-108q4 66 -32.5 98.5t-117.5 32.5
q-69 0 -111.5 -23.5t-42.5 -76.5q0 -31 14.5 -50t44 -32.5t93.5 -36.5q85 -30 129.5 -52t71 -57.5t26.5 -93.5q0 -107 -77 -167t-209 -60q-90 0 -157 30.5zM444 792h-77l70 138h114z" />
    <glyph glyph-name="sacute" unicode="&#x15b;" horiz-adv-x="486" 
d="M102.5 10q-50.5 24 -75.5 65t-24 93h94q-1 -45 32 -74t101 -29q54 0 84.5 19t30.5 57q0 25 -14.5 40t-37 24t-67.5 22q-58 18 -89.5 31.5t-56 42t-24.5 75.5q0 71 57.5 110t146.5 39q67 0 113 -23t68 -60t21 -81h-95q1 36 -25.5 61t-84.5 25q-46 0 -75 -16.5t-29 -49.5
q0 -29 23 -43t80 -31l19 -6q55 -17 89.5 -33.5t57 -45t22.5 -74.5q0 -75 -59.5 -118.5t-158.5 -43.5q-73 0 -123.5 24zM345 587h-77l70 138h114z" />
    <glyph glyph-name="Scircumflex" unicode="&#x15c;" horiz-adv-x="631" 
d="M149 16.5q-67 30.5 -101 87.5t-29 134h110q-4 -77 43.5 -117.5t135.5 -40.5q79 0 125 30.5t46 91.5q0 33 -17 53.5t-51 36t-107 40.5q-72 24 -115 48t-65.5 58.5t-22.5 85.5q0 65 36 111.5t98 70t140 23.5q126 0 192 -57.5t58 -167.5h-108q4 66 -32.5 98.5t-117.5 32.5
q-69 0 -111.5 -23.5t-42.5 -76.5q0 -31 14.5 -50t44 -32.5t93.5 -36.5q85 -30 129.5 -52t71 -57.5t26.5 -93.5q0 -107 -77 -167t-209 -60q-90 0 -157 30.5zM355 792h-96l123 138h104l70 -138h-93l-34 89h-2z" />
    <glyph glyph-name="scircumflex" unicode="&#x15d;" horiz-adv-x="486" 
d="M102.5 10q-50.5 24 -75.5 65t-24 93h94q-1 -45 32 -74t101 -29q54 0 84.5 19t30.5 57q0 25 -14.5 40t-37 24t-67.5 22q-58 18 -89.5 31.5t-56 42t-24.5 75.5q0 71 57.5 110t146.5 39q67 0 113 -23t68 -60t21 -81h-95q1 36 -25.5 61t-84.5 25q-46 0 -75 -16.5t-29 -49.5
q0 -29 23 -43t80 -31l19 -6q55 -17 89.5 -33.5t57 -45t22.5 -74.5q0 -75 -59.5 -118.5t-158.5 -43.5q-73 0 -123.5 24zM255 587h-96l123 138h104l70 -138h-93l-34 89h-2z" />
    <glyph glyph-name="Scedilla" unicode="&#x15e;" horiz-adv-x="631" 
d="M517 504q4 66 -32.5 98.5t-117.5 32.5q-69 0 -111.5 -23.5t-42.5 -76.5q0 -31 14.5 -50t44 -32.5t93.5 -36.5q85 -30 129.5 -52t71 -57.5t26.5 -93.5q0 -105 -75 -165t-204 -62l-40 -39l-1 -2q6 1 17 1q30 0 49.5 -13.5t19.5 -38.5q0 -41 -35.5 -66.5t-90.5 -25.5
q-30 0 -56.5 8.5t-45.5 22.5l28 28q35 -15 66 -15q25 0 40.5 11.5t15.5 31.5q0 22 -32 22q-23 0 -42 -7l-9 22l63 62q-117 11 -182.5 77.5t-58.5 172.5h110q-4 -77 43.5 -117.5t135.5 -40.5q79 0 125 30.5t46 91.5q0 33 -17 53.5t-51 36t-107 40.5q-72 24 -115 48
t-65.5 58.5t-22.5 85.5q0 65 36 111.5t98 70t140 23.5q126 0 192 -57.5t58 -167.5h-108z" />
    <glyph glyph-name="scedilla" unicode="&#x15f;" horiz-adv-x="486" 
d="M367 361q1 36 -25.5 61t-84.5 25q-46 0 -75 -16.5t-29 -49.5q0 -29 23 -43t80 -31l19 -6q55 -17 89.5 -33.5t57 -45t22.5 -74.5q0 -74 -58 -117t-155 -45l-40 -39l-1 -2q6 1 17 1q30 0 49.5 -13.5t19.5 -38.5q0 -41 -35.5 -66.5t-90.5 -25.5q-30 0 -56.5 8.5t-45.5 22.5
l28 28q35 -15 66 -15q25 0 40.5 11.5t15.5 31.5q0 22 -32 22q-23 0 -42 -7l-9 22l64 63q-87 11 -132.5 59.5t-43.5 119.5h94q-1 -45 32 -74t101 -29q54 0 84.5 19t30.5 57q0 25 -14.5 40t-37 24t-67.5 22q-58 18 -89.5 31.5t-56 42t-24.5 75.5q0 71 57.5 110t146.5 39
q67 0 113 -23t68 -60t21 -81h-95z" />
    <glyph glyph-name="Scaron" unicode="&#x160;" horiz-adv-x="631" 
d="M149 16.5q-67 30.5 -101 87.5t-29 134h110q-4 -77 43.5 -117.5t135.5 -40.5q79 0 125 30.5t46 91.5q0 33 -17 53.5t-51 36t-107 40.5q-72 24 -115 48t-65.5 58.5t-22.5 85.5q0 65 36 111.5t98 70t140 23.5q126 0 192 -57.5t58 -167.5h-108q4 66 -32.5 98.5t-117.5 32.5
q-69 0 -111.5 -23.5t-42.5 -76.5q0 -31 14.5 -50t44 -32.5t93.5 -36.5q85 -30 129.5 -52t71 -57.5t26.5 -93.5q0 -107 -77 -167t-209 -60q-90 0 -157 30.5zM461 792h-105l-69 138h90l35 -89h2l69 89h100z" />
    <glyph glyph-name="scaron" unicode="&#x161;" horiz-adv-x="486" 
d="M102.5 10q-50.5 24 -75.5 65t-24 93h94q-1 -45 32 -74t101 -29q54 0 84.5 19t30.5 57q0 25 -14.5 40t-37 24t-67.5 22q-58 18 -89.5 31.5t-56 42t-24.5 75.5q0 71 57.5 110t146.5 39q67 0 113 -23t68 -60t21 -81h-95q1 36 -25.5 61t-84.5 25q-46 0 -75 -16.5t-29 -49.5
q0 -29 23 -43t80 -31l19 -6q55 -17 89.5 -33.5t57 -45t22.5 -74.5q0 -75 -59.5 -118.5t-158.5 -43.5q-73 0 -123.5 24zM361 587h-105l-69 138h90l35 -89h2l69 89h100z" />
    <glyph glyph-name="uni0162" unicode="&#x162;" horiz-adv-x="601" 
d="M306 0h-111l120 620h-231l19 95h573l-19 -95h-231zM130.5 -189.5q-26.5 8.5 -45.5 22.5l28 28q35 -15 66 -15q25 0 40.5 11.5t15.5 31.5q0 22 -32 22q-23 0 -42 -7l-9 22l75 74h55l-54 -53l-1 -2q6 1 17 1q30 0 49.5 -13.5t19.5 -38.5q0 -41 -35.5 -66.5t-90.5 -25.5
q-30 0 -56.5 8.5z" />
    <glyph glyph-name="uni0163" unicode="&#x163;" horiz-adv-x="314" 
d="M220 429l-56 -288q-3 -15 -3 -27q0 -21 11.5 -30t38.5 -9q17 0 44 4l-16 -79q-32 -6 -64 -6h-5l-35 -34l-1 -2q6 1 17 1q30 0 49.5 -13.5t19.5 -38.5q0 -41 -35.5 -66.5t-90.5 -25.5q-30 0 -56.5 8.5t-45.5 22.5l28 28q35 -15 66 -15q25 0 40.5 11.5t15.5 31.5
q0 22 -32 22q-23 0 -42 -7l-9 22l63 62q-30 9 -45.5 31.5t-15.5 61.5q0 18 5 50l56 285h-74l16 81h74l32 164h98l-32 -164h98l-16 -81h-98z" />
    <glyph glyph-name="Tcaron" unicode="&#x164;" horiz-adv-x="601" 
d="M306 0h-111l120 620h-231l19 95h573l-19 -95h-231zM457 792h-105l-69 138h90l35 -89h2l69 89h100z" />
    <glyph glyph-name="tcaron" unicode="&#x165;" horiz-adv-x="314" 
d="M281 558l59 157h105l-95 -157h-69zM268 674l-32 -164h98l-16 -81h-98l-56 -288q-3 -15 -3 -27q0 -21 11.5 -30t38.5 -9q17 0 44 4l-16 -79q-32 -6 -64 -6q-56 0 -85 23t-29 77q0 18 5 50l56 285h-74l16 81h74l32 164h98z" />
    <glyph glyph-name="Tbar" unicode="&#x166;" horiz-adv-x="601" 
d="M676 715l-19 -95h-231l-41 -213h159l-15 -74h-159l-64 -333h-111l64 333h-147l15 74h147l41 213h-231l19 95h573z" />
    <glyph glyph-name="tbar" unicode="&#x167;" horiz-adv-x="318" 
d="M321 429h-98l-17 -87h98l-15 -75h-97l-25 -126q-3 -15 -3 -27q0 -21 11.5 -30t38.5 -9q17 0 44 4l-16 -79q-32 -6 -64 -6q-56 0 -85 23t-29 77q0 18 5 50l24 123h-74l15 75h74l17 87h-74l16 81h74l32 164h98l-32 -164h98z" />
    <glyph glyph-name="Utilde" unicode="&#x168;" horiz-adv-x="691" 
d="M116.5 39q-60.5 53 -60.5 144q0 29 6 60l93 472h110l-92 -472q-6 -28 -6 -52q0 -58 34.5 -84t104.5 -26q86 0 137.5 40t67.5 122l92 472h111l-92 -472q-51 -257 -327 -257q-118 0 -178.5 53zM296 798q11 53 38 79.5t60 26.5q19 0 35.5 -5.5t38.5 -16.5q30 -15 44 -15
q26 0 33 35h66q-11 -53 -37.5 -79.5t-60.5 -26.5q-19 0 -35.5 5.5t-38.5 16.5q-30 15 -44 15q-26 0 -33 -35h-66z" />
    <glyph glyph-name="utilde" unicode="&#x169;" horiz-adv-x="544" 
d="M440 510h98l-99 -510h-98l12 64h-2q-29 -33 -75 -55.5t-103 -22.5q-66 0 -104.5 33t-38.5 103q0 30 7 64l63 324h98l-62 -322q-4 -26 -4 -37q0 -38 20 -60t62 -22q63 0 108.5 37.5t57.5 98.5h1zM185 593q11 53 38 79.5t60 26.5q19 0 35.5 -5.5t38.5 -16.5q30 -15 44 -15
q26 0 33 35h66q-11 -53 -37.5 -79.5t-60.5 -26.5q-19 0 -35.5 5.5t-38.5 16.5q-30 15 -44 15q-26 0 -33 -35h-66z" />
    <glyph glyph-name="Umacron" unicode="&#x16a;" horiz-adv-x="691" 
d="M116.5 39q-60.5 53 -60.5 144q0 29 6 60l93 472h110l-92 -472q-6 -28 -6 -52q0 -58 34.5 -84t104.5 -26q86 0 137.5 40t67.5 122l92 472h111l-92 -472q-51 -257 -327 -257q-118 0 -178.5 53zM576 806h-264l15 77h264z" />
    <glyph glyph-name="umacron" unicode="&#x16b;" horiz-adv-x="544" 
d="M440 510h98l-99 -510h-98l12 64h-2q-29 -33 -75 -55.5t-103 -22.5q-66 0 -104.5 33t-38.5 103q0 30 7 64l63 324h98l-62 -322q-4 -26 -4 -37q0 -38 20 -60t62 -22q63 0 108.5 37.5t57.5 98.5h1zM464 601h-264l15 77h264z" />
    <glyph glyph-name="Ubreve" unicode="&#x16c;" horiz-adv-x="691" 
d="M116.5 39q-60.5 53 -60.5 144q0 29 6 60l93 472h110l-92 -472q-6 -28 -6 -52q0 -58 34.5 -84t104.5 -26q86 0 137.5 40t67.5 122l92 472h111l-92 -472q-51 -257 -327 -257q-118 0 -178.5 53zM357 809q-30 27 -30 79q0 14 3 32h66q-1 -7 -1 -20q0 -26 12 -37.5t39 -11.5
q66 0 85 69h68q-16 -66 -58.5 -102t-102.5 -36q-51 0 -81 27z" />
    <glyph glyph-name="ubreve" unicode="&#x16d;" horiz-adv-x="544" 
d="M440 510h98l-99 -510h-98l12 64h-2q-29 -33 -75 -55.5t-103 -22.5q-66 0 -104.5 33t-38.5 103q0 30 7 64l63 324h98l-62 -322q-4 -26 -4 -37q0 -38 20 -60t62 -22q63 0 108.5 37.5t57.5 98.5h1zM245 604q-30 27 -30 79q0 14 3 32h66q-1 -7 -1 -20q0 -26 12 -37.5
t39 -11.5q66 0 85 69h68q-16 -66 -58.5 -102t-102.5 -36q-51 0 -81 27z" />
    <glyph glyph-name="Uring" unicode="&#x16e;" horiz-adv-x="691" 
d="M116.5 39q-60.5 53 -60.5 144q0 29 6 60l93 472h110l-92 -472q-6 -28 -6 -52q0 -58 34.5 -84t104.5 -26q86 0 137.5 40t67.5 122l92 472h111l-92 -472q-51 -257 -327 -257q-118 0 -178.5 53zM377.5 784.5q-21.5 21.5 -21.5 55.5q0 45 32 76t77 31q37 0 58.5 -21.5
t21.5 -55.5q0 -46 -32 -76.5t-78 -30.5q-36 0 -57.5 21.5zM481 824.5q17 17.5 17 40.5q0 18 -10.5 28t-27.5 10q-24 0 -40.5 -16.5t-16.5 -41.5q0 -17 10 -27.5t28 -10.5q23 0 40 17.5z" />
    <glyph glyph-name="uring" unicode="&#x16f;" horiz-adv-x="544" 
d="M440 510h98l-99 -510h-98l12 64h-2q-29 -33 -75 -55.5t-103 -22.5q-66 0 -104.5 33t-38.5 103q0 30 7 64l63 324h98l-62 -322q-4 -26 -4 -37q0 -38 20 -60t62 -22q63 0 108.5 37.5t57.5 98.5h1zM266.5 579.5q-21.5 21.5 -21.5 55.5q0 45 32 76t77 31q37 0 58.5 -21.5
t21.5 -55.5q0 -46 -32 -76.5t-78 -30.5q-36 0 -57.5 21.5zM370 619.5q17 17.5 17 40.5q0 18 -10.5 28t-27.5 10q-24 0 -40.5 -16.5t-16.5 -41.5q0 -17 10 -27.5t28 -10.5q23 0 40 17.5z" />
    <glyph glyph-name="Uhungarumlaut" unicode="&#x170;" horiz-adv-x="691" 
d="M116.5 39q-60.5 53 -60.5 144q0 29 6 60l93 472h110l-92 -472q-6 -28 -6 -52q0 -58 34.5 -84t104.5 -26q86 0 137.5 40t67.5 122l92 472h111l-92 -472q-51 -257 -327 -257q-118 0 -178.5 53zM409 792h-76l83 138h106zM559 792h-76l87 138h107z" />
    <glyph glyph-name="uhungarumlaut" unicode="&#x171;" horiz-adv-x="544" 
d="M440 510h98l-99 -510h-98l12 64h-2q-29 -33 -75 -55.5t-103 -22.5q-66 0 -104.5 33t-38.5 103q0 30 7 64l63 324h98l-62 -322q-4 -26 -4 -37q0 -38 20 -60t62 -22q63 0 108.5 37.5t57.5 98.5h1zM298 587h-76l83 138h106zM448 587h-76l87 138h107z" />
    <glyph glyph-name="Uogonek" unicode="&#x172;" horiz-adv-x="691" 
d="M603 715h111l-92 -472q-39 -201 -218 -245q-34 -21 -55 -43t-21 -40q0 -11 8.5 -17.5t22.5 -6.5q22 0 49 9l-13 -67q-35 -10 -71 -10q-41 0 -62 16t-21 45t20 55.5t51 46.5h-17q-118 0 -178.5 53t-60.5 144q0 29 6 60l93 472h110l-92 -472q-6 -28 -6 -52q0 -58 34.5 -84
t104.5 -26q86 0 137.5 40t67.5 122z" />
    <glyph glyph-name="uogonek" unicode="&#x173;" horiz-adv-x="544" 
d="M430 0q-35 -22 -57 -44.5t-22 -40.5q0 -11 8.5 -17.5t22.5 -6.5q22 0 49 9l-13 -67q-35 -10 -71 -10q-41 0 -62 16t-21 45q0 35 29 66.5t67 49.5h-19l12 64h-2q-29 -33 -75 -55.5t-103 -22.5q-66 0 -104.5 33t-38.5 103q0 30 7 64l63 324h98l-62 -322q-4 -26 -4 -37
q0 -38 20 -60t62 -22q63 0 108.5 37.5t57.5 98.5h1l59 305h98l-99 -510h-9z" />
    <glyph glyph-name="Wcircumflex" unicode="&#x174;" horiz-adv-x="926" 
d="M265 0h-118l-47 715h114l22 -563h2l248 563h119l41 -563h2l236 563h114l-317 -715h-118l-40 575h-2zM511 792h-96l123 138h104l70 -138h-93l-34 89h-2z" />
    <glyph glyph-name="wcircumflex" unicode="&#x175;" horiz-adv-x="750" 
d="M214 0h-105l-50 510h104l23 -395h2l184 395h96l30 -395h2l186 395h106l-258 -510h-101l-33 393h-2zM383 587h-96l123 138h104l70 -138h-93l-34 89h-2z" />
    <glyph glyph-name="Ycircumflex" unicode="&#x176;" horiz-adv-x="639" 
d="M325 0h-111l56 286l-173 429h117l125 -342h2l259 342h120l-340 -429zM364 792h-96l123 138h104l70 -138h-93l-34 89h-2z" />
    <glyph glyph-name="ycircumflex" unicode="&#x177;" horiz-adv-x="506" 
d="M-26 -172l16 80q24 -3 38 -3q84 0 129 100l-109 505h104l73 -395h2l216 395h106l-305 -530q-52 -90 -99.5 -124.5t-111.5 -34.5q-24 0 -59 7zM256 587h-96l123 138h104l70 -138h-93l-34 89h-2z" />
    <glyph glyph-name="Ydieresis" unicode="&#x178;" horiz-adv-x="639" 
d="M325 0h-111l56 286l-173 429h117l125 -342h2l259 342h120l-340 -429zM390 806h-111l22 106h111zM558 806h-111l22 106h111z" />
    <glyph glyph-name="Zacute" unicode="&#x179;" horiz-adv-x="604" 
d="M528 0h-556l19 95l512 523v2h-391l19 95h526l-19 -95l-512 -523v-2h421zM435 792h-77l70 138h114z" />
    <glyph glyph-name="zacute" unicode="&#x17a;" horiz-adv-x="462" 
d="M392 0h-423l14 73l348 354l1 2h-262l16 81h394l-12 -63l-357 -364v-2h297zM327 587h-77l70 138h114z" />
    <glyph glyph-name="Zdotaccent" unicode="&#x17b;" horiz-adv-x="604" 
d="M528 0h-556l19 95l512 523v2h-391l19 95h526l-19 -95l-512 -523v-2h421zM457 806h-111l21 106h111z" />
    <glyph glyph-name="zdotaccent" unicode="&#x17c;" horiz-adv-x="462" 
d="M392 0h-423l14 73l348 354l1 2h-262l16 81h394l-12 -63l-357 -364v-2h297zM349 601h-111l21 106h111z" />
    <glyph glyph-name="Zcaron" unicode="&#x17d;" horiz-adv-x="604" 
d="M528 0h-556l19 95l512 523v2h-391l19 95h526l-19 -95l-512 -523v-2h421zM452 792h-105l-69 138h90l35 -89h2l69 89h100z" />
    <glyph glyph-name="zcaron" unicode="&#x17e;" horiz-adv-x="462" 
d="M392 0h-423l14 73l348 354l1 2h-262l16 81h394l-12 -63l-357 -364v-2h297zM344 587h-105l-69 138h90l35 -89h2l69 89h100z" />
    <glyph glyph-name="florin" unicode="&#x192;" horiz-adv-x="360" 
d="M310 624q-13 -16 -22 -61l-20 -103h94l-4 -81h-107l-67 -340q-16 -84 -53 -117t-99 -33q-21 0 -59 7l-4 79q29 -4 45 -4q38 0 51.5 14.5t21.5 56.5l67 337h-77l3 81h90l22 112q16 84 55 117t106 33q22 0 64 -6l-20 -79q-27 3 -39 3q-35 0 -48 -16z" />
    <glyph glyph-name="uni0218" unicode="&#x218;" horiz-adv-x="631" 
d="M149 16.5q-67 30.5 -101 87.5t-29 134h110q-4 -77 43.5 -117.5t135.5 -40.5q79 0 125 30.5t46 91.5q0 33 -17 53.5t-51 36t-107 40.5q-72 24 -115 48t-65.5 58.5t-22.5 85.5q0 65 36 111.5t98 70t140 23.5q126 0 192 -57.5t58 -167.5h-108q4 66 -32.5 98.5t-117.5 32.5
q-69 0 -111.5 -23.5t-42.5 -76.5q0 -31 14.5 -50t44 -32.5t93.5 -36.5q85 -30 129.5 -52t71 -57.5t26.5 -93.5q0 -107 -77 -167t-209 -60q-90 0 -157 30.5zM231 -49h109l-16 -83q-8 -42 -39 -68t-90 -38l8 42q30 7 44.5 21t19.5 43h-52z" />
    <glyph glyph-name="uni0219" unicode="&#x219;" horiz-adv-x="486" 
d="M102.5 10q-50.5 24 -75.5 65t-24 93h94q-1 -45 32 -74t101 -29q54 0 84.5 19t30.5 57q0 25 -14.5 40t-37 24t-67.5 22q-58 18 -89.5 31.5t-56 42t-24.5 75.5q0 71 57.5 110t146.5 39q67 0 113 -23t68 -60t21 -81h-95q1 36 -25.5 61t-84.5 25q-46 0 -75 -16.5t-29 -49.5
q0 -29 23 -43t80 -31l19 -6q55 -17 89.5 -33.5t57 -45t22.5 -74.5q0 -75 -59.5 -118.5t-158.5 -43.5q-73 0 -123.5 24zM150 -49h109l-16 -83q-8 -42 -39 -68t-90 -38l8 42q30 7 44.5 21t19.5 43h-52z" />
    <glyph glyph-name="uni021A" unicode="&#x21a;" horiz-adv-x="601" 
d="M306 0h-111l120 620h-231l19 95h573l-19 -95h-231zM186 -49h109l-16 -83q-8 -42 -39 -68t-90 -38l8 42q30 7 44.5 21t19.5 43h-52z" />
    <glyph glyph-name="uni021B" unicode="&#x21b;" horiz-adv-x="314" 
d="M220 429l-56 -288q-3 -15 -3 -27q0 -21 11.5 -30t38.5 -9q17 0 44 4l-16 -79q-32 -6 -64 -6q-56 0 -85 23t-29 77q0 18 5 50l56 285h-74l16 81h74l32 164h98l-32 -164h98l-16 -81h-98zM93 -36h109l-16 -83q-8 -42 -39 -68t-90 -38l8 42q30 7 44.5 21t19.5 43h-52z" />
    <glyph glyph-name="uni0237" unicode="&#x237;" horiz-adv-x="208" 
d="M-114 -175l15 81q26 -3 39 -3q24 0 38.5 16.5t22.5 57.5l103 533h98l-104 -537q-15 -78 -55.5 -116t-96.5 -38q-24 0 -60 6z" />
    <glyph glyph-name="circumflex" unicode="&#x2c6;" horiz-adv-x="376" 
d="M199 587h-96l123 138h104l70 -138h-93l-34 89h-2z" />
    <glyph glyph-name="caron" unicode="&#x2c7;" horiz-adv-x="376" 
d="M305 587h-105l-69 138h90l35 -89h2l69 89h100z" />
    <glyph glyph-name="breve" unicode="&#x2d8;" horiz-adv-x="349" 
d="M154 604q-30 27 -30 79q0 14 3 32h66q-1 -7 -1 -20q0 -26 12 -37.5t39 -11.5q66 0 85 69h68q-16 -66 -58.5 -102t-102.5 -36q-51 0 -81 27z" />
    <glyph glyph-name="dotaccent" unicode="&#x2d9;" horiz-adv-x="191" 
d="M217 601h-110l22 107h110z" />
    <glyph glyph-name="ring" unicode="&#x2da;" horiz-adv-x="262" 
d="M131.5 564.5q-21.5 21.5 -21.5 55.5q0 45 32 76t77 31q37 0 58.5 -21.5t21.5 -55.5q0 -46 -32 -76.5t-78 -30.5q-36 0 -57.5 21.5zM235 604.5q17 17.5 17 40.5q0 18 -10.5 28t-27.5 10q-24 0 -40.5 -16.5t-16.5 -41.5q0 -17 10 -27.5t28 -10.5q23 0 40 17.5z" />
    <glyph glyph-name="ogonek" unicode="&#x2db;" horiz-adv-x="245" 
d="M-10 -161q-21 16 -21 45q0 35 29 66.5t67 49.5h70q-35 -22 -57 -44.5t-22 -40.5q0 -11 8.5 -17.5t22.5 -6.5q22 0 49 9l-13 -67q-35 -10 -71 -10q-41 0 -62 16z" />
    <glyph glyph-name="tilde" unicode="&#x2dc;" horiz-adv-x="374" 
d="M105 593q11 53 38 79.5t60 26.5q19 0 35.5 -5.5t38.5 -16.5q30 -15 44 -15q26 0 33 35h66q-11 -53 -37.5 -79.5t-60.5 -26.5q-19 0 -35.5 5.5t-38.5 16.5q-30 15 -44 15q-26 0 -33 -35h-66z" />
    <glyph glyph-name="hungarumlaut" unicode="&#x2dd;" horiz-adv-x="397" 
d="M192 587h-76l83 138h106zM342 587h-76l87 138h107z" />
    <glyph glyph-name="gravecomb" unicode="&#x300;" 
d="M213 587h-78l-74 138h115z" />
    <glyph glyph-name="acutecomb" unicode="&#x301;" 
d="M205 587h-77l70 138h114z" />
    <glyph glyph-name="uni0302" unicode="&#x302;" 
d="M199 587h-96l123 138h104l70 -138h-93l-34 89h-2z" />
    <glyph glyph-name="tildecomb" unicode="&#x303;" 
d="M105 593q11 53 38 79.5t60 26.5q19 0 35.5 -5.5t38.5 -16.5q30 -15 44 -15q26 0 33 35h66q-11 -53 -37.5 -79.5t-60.5 -26.5q-19 0 -35.5 5.5t-38.5 16.5q-30 15 -44 15q-26 0 -33 -35h-66z" />
    <glyph glyph-name="uni0304" unicode="&#x304;" 
d="M371 601h-264l15 77h264z" />
    <glyph glyph-name="uni0306" unicode="&#x306;" 
d="M154 604q-30 27 -30 79q0 14 3 32h66q-1 -7 -1 -20q0 -26 12 -37.5t39 -11.5q66 0 85 69h68q-16 -66 -58.5 -102t-102.5 -36q-51 0 -81 27z" />
    <glyph glyph-name="uni0307" unicode="&#x307;" 
d="M218 601h-111l21 106h111z" />
    <glyph glyph-name="uni0308" unicode="&#x308;" 
d="M220 601h-111l22 106h111zM388 601h-111l22 106h111z" />
    <glyph glyph-name="uni030A" unicode="&#x30a;" 
d="M131.5 579.5q-21.5 21.5 -21.5 55.5q0 45 32 76t77 31q37 0 58.5 -21.5t21.5 -55.5q0 -46 -32 -76.5t-78 -30.5q-36 0 -57.5 21.5zM235 619.5q17 17.5 17 40.5q0 18 -10.5 28t-27.5 10q-24 0 -40.5 -16.5t-16.5 -41.5q0 -17 10 -27.5t28 -10.5q23 0 40 17.5z" />
    <glyph glyph-name="uni030B" unicode="&#x30b;" 
d="M192 587h-76l83 138h106zM342 587h-76l87 138h107z" />
    <glyph glyph-name="uni030C" unicode="&#x30c;" 
d="M305 587h-105l-69 138h90l35 -89h2l69 89h100z" />
    <glyph glyph-name="uni0312" unicode="&#x312;" 
d="M247 747q-30 -7 -45 -22.5t-20 -46.5h52l-18 -91h-109l18 91q18 93 131 116z" />
    <glyph glyph-name="uni0326" unicode="&#x326;" 
d="M-20 -49h109l-16 -83q-8 -42 -39 -68t-90 -38l8 42q30 7 44.5 21t19.5 43h-52z" />
    <glyph glyph-name="uni0327" unicode="&#x327;" 
d="M1.5 -189.5q-26.5 8.5 -45.5 22.5l28 28q35 -15 66 -15q25 0 40.5 11.5t15.5 31.5q0 22 -32 22q-23 0 -42 -7l-9 22l75 74h55l-54 -53l-1 -2q6 1 17 1q30 0 49.5 -13.5t19.5 -38.5q0 -41 -35.5 -66.5t-90.5 -25.5q-30 0 -56.5 8.5z" />
    <glyph glyph-name="uni0328" unicode="&#x328;" 
d="M-10 -161q-21 16 -21 45q0 35 29 66.5t67 49.5h70q-35 -22 -57 -44.5t-22 -40.5q0 -11 8.5 -17.5t22.5 -6.5q22 0 49 9l-13 -67q-35 -10 -71 -10q-41 0 -62 16z" />
    <glyph glyph-name="uni0335" unicode="&#x335;" 
d="M472 333h-417l14 74h417z" />
    <glyph glyph-name="uni0336" unicode="&#x336;" 
d="M559 308h-509l20 103h509z" />
    <glyph glyph-name="uni0337" unicode="&#x337;" 
d="M614 485l-590 -495l-29 37l589 495z" />
    <glyph glyph-name="uni0338" unicode="&#x338;" 
d="M614 485l-590 -495l-29 37l589 495z" />
    <glyph glyph-name="uni0394" unicode="&#x394;" horiz-adv-x="647" 
d="M347 715h128l119 -621l-18 -94h-605l18 94zM396 613h-8l-289 -519h383z" />
    <glyph glyph-name="uni03A9" unicode="&#x3a9;" horiz-adv-x="796" 
d="M-13 0l19 95h163q-101 73 -101 214q0 111 55.5 207.5t151.5 154.5t212 58q88 0 152.5 -34.5t99 -97t34.5 -144.5q0 -104 -52.5 -203t-139.5 -155h146l-19 -95h-295l16 83q107 52 169.5 143.5t62.5 204.5q0 99 -48.5 150.5t-138.5 51.5q-89 0 -156 -47.5t-103.5 -125
t-36.5 -164.5q0 -80 30.5 -128t88.5 -85l-15 -83h-295z" />
    <glyph glyph-name="uni03BC" unicode="&#x3bc;" horiz-adv-x="549" 
d="M445 510h98l-99 -510h-98l12 64h-2q-26 -33 -67 -55.5t-89 -22.5q-65 0 -93 37l-39 -200h-97l134 687h98l-62 -322q-4 -19 -4 -39q0 -80 85 -80q61 0 106.5 38.5t56.5 97.5h1z" />
    <glyph glyph-name="pi" unicode="&#x3c0;" horiz-adv-x="565" 
d="M493 429l-56 -288q-4 -19 -4 -33q0 -19 9 -26t29 -7q13 0 28 4l-15 -79q-30 -8 -64 -8q-46 0 -67.5 19t-21.5 66q0 29 7 64l57 288h-168l-83 -429h-98l83 429h-80l15 81h521l-16 -81h-76z" />
    <glyph glyph-name="uni0400" unicode="&#x400;" horiz-adv-x="620" 
d="M538 0h-516l139 715h505l-19 -95h-395l-38 -203h346l-19 -95h-346l-44 -227h406zM457 792h-78l-74 138h115z" />
    <glyph glyph-name="uni0401" unicode="&#x401;" horiz-adv-x="620" 
d="M538 0h-516l139 715h505l-19 -95h-395l-38 -203h346l-19 -95h-346l-44 -227h406zM400 806h-111l22 106h111zM568 806h-111l22 106h111z" />
    <glyph glyph-name="uni0402" unicode="&#x402;" horiz-adv-x="729" 
d="M388 -174l18 95q26 -9 55 -9q49 0 59 54l56 293q4 20 4 42q0 91 -102 91q-73 0 -123.5 -41t-65.5 -117l-45 -234h-111l121 620h-168l18 95h497l-18 -95h-218l-43 -219h2q37 40 89.5 63.5t116.5 23.5q79 0 122.5 -39t43.5 -113q0 -26 -6 -58l-62 -324q-14 -69 -58 -103
t-106 -34q-51 0 -76 9z" />
    <glyph glyph-name="uni0403" unicode="&#x403;" horiz-adv-x="506" 
d="M131 0h-109l139 715h419l-19 -95h-309zM440 792h-77l70 138h114z" />
    <glyph glyph-name="uni0404" unicode="&#x404;" horiz-adv-x="694" 
d="M275 568.5q-68 -65.5 -97 -163.5h265l-18 -89h-264q-2 -28 -2 -40q0 -59 23.5 -103t64 -68t90.5 -24q83 0 137.5 40.5t73.5 111.5h114q-27 -116 -115 -181.5t-223 -65.5q-81 0 -143.5 33t-97.5 94.5t-35 145.5q0 125 50 232.5t145 172.5t225 65q79 0 136 -30t85.5 -81.5
t23.5 -115.5h-114q-1 61 -40 96.5t-113 35.5q-103 0 -171 -65.5z" />
    <glyph glyph-name="uni0405" unicode="&#x405;" horiz-adv-x="631" 
d="M149 16.5q-67 30.5 -101 87.5t-29 134h110q-4 -77 43.5 -117.5t135.5 -40.5q79 0 125 30.5t46 91.5q0 33 -17 53.5t-51 36t-107 40.5q-72 24 -115 48t-65.5 58.5t-22.5 85.5q0 65 36 111.5t98 70t140 23.5q126 0 192 -57.5t58 -167.5h-108q4 66 -32.5 98.5t-117.5 32.5
q-69 0 -111.5 -23.5t-42.5 -76.5q0 -31 14.5 -50t44 -32.5t93.5 -36.5q85 -30 129.5 -52t71 -57.5t26.5 -93.5q0 -107 -77 -167t-209 -60q-90 0 -157 30.5z" />
    <glyph glyph-name="uni0406" unicode="&#x406;" horiz-adv-x="254" 
d="M132 0h-110l139 715h110z" />
    <glyph glyph-name="uni0407" unicode="&#x407;" horiz-adv-x="254" 
d="M132 0h-110l139 715h110zM204 806h-111l22 106h111zM372 806h-111l22 106h111z" />
    <glyph glyph-name="uni0408" unicode="&#x408;" horiz-adv-x="517" 
d="M45.5 31q-43.5 45 -43.5 122q0 36 7 70l6 29h106l-6 -29q-8 -40 -8 -65q0 -39 20 -58t69 -19q64 0 94 37.5t43 104.5l96 492h110l-99 -508q-21 -104 -79 -162.5t-172 -58.5q-100 0 -143.5 45z" />
    <glyph glyph-name="uni0409" unicode="&#x409;" horiz-adv-x="960" 
d="M-17.5 -12q-20.5 3 -29.5 9l19 95q26 -10 53 -10q39 0 63 23t38 84l125 526h407l-53 -273h129q95 0 150 -44.5t55 -122.5q0 -80 -38.5 -142.5t-106.5 -97.5t-153 -35h-232l120 620h-193l-102 -429q-28 -113 -80 -159.5t-131 -46.5q-20 0 -40.5 3zM662 95q51 0 88.5 22
t57 58.5t19.5 78.5q0 45 -28 69t-77 24h-136l-49 -252h125z" />
    <glyph glyph-name="uni040A" unicode="&#x40a;" horiz-adv-x="970" 
d="M22 0l139 715h110l-54 -280h286l54 280h111l-53 -280h128q96 0 150.5 -44.5t54.5 -122.5q0 -80 -38.5 -140.5t-106 -94t-152.5 -33.5h-233l67 340h-287l-67 -340h-109zM672 95q51 0 88.5 21t57 56t19.5 77q0 45 -27.5 68t-77.5 23h-135l-50 -245h125z" />
    <glyph glyph-name="uni040B" unicode="&#x40b;" horiz-adv-x="729" 
d="M133 0l121 620h-168l18 95h498l-19 -95h-218l-46 -235h2q36 40 89 64t117 24q79 0 122.5 -39t43.5 -113q0 -26 -6 -58l-51 -263h-110l47 244q4 20 4 42q0 91 -102 91q-73 0 -123.5 -41.5t-65.5 -117.5l-42 -218h-111z" />
    <glyph glyph-name="uni040C" unicode="&#x40c;" horiz-adv-x="651" 
d="M610 715h135l-369 -371l233 -344h-134l-200 300h-85l-58 -300h-110l139 715h110l-62 -319h86zM473 792h-77l70 138h114z" />
    <glyph glyph-name="uni040D" unicode="&#x40d;" horiz-adv-x="737" 
d="M132 0h-110l139 715h110l-104 -534h2l475 534h111l-139 -715h-111l104 534h-2zM504 792h-78l-74 138h115z" />
    <glyph glyph-name="uni040E" unicode="&#x40e;" horiz-adv-x="617" 
d="M212 0h-120l141 209l-134 506h116l97 -390h2l262 390h121zM321 809q-30 27 -30 79q0 14 3 32h66q-1 -7 -1 -20q0 -26 12 -37.5t39 -11.5q66 0 85 69h68q-16 -66 -58.5 -102t-102.5 -36q-51 0 -81 27z" />
    <glyph glyph-name="uni040F" unicode="&#x40f;" horiz-adv-x="697" 
d="M333 -130h-99l24 130h-236l139 715h110l-120 -620h333l120 620h111l-139 -715h-218z" />
    <glyph glyph-name="uni0410" unicode="&#x410;" horiz-adv-x="660" 
d="M72 0h-116l402 715h120l127 -715h-116l-25 172h-299zM399 613l-184 -348h235l-49 348h-2z" />
    <glyph glyph-name="uni0411" unicode="&#x411;" horiz-adv-x="633" 
d="M22 0l139 715h478l-19 -95h-368l-33 -170h188q97 0 149 -43t52 -123q0 -77 -36.5 -142t-104 -103.5t-157.5 -38.5h-288zM333 95q50 0 87 24t56 62.5t19 79.5q0 44 -27 69t-75 25h-192l-51 -260h183z" />
    <glyph glyph-name="uni0412" unicode="&#x412;" horiz-adv-x="669" 
d="M22 0l139 715h296q99 0 152.5 -39.5t53.5 -112.5q0 -64 -39 -112t-106 -68v-2q111 -24 111 -139q0 -69 -36.5 -124t-101.5 -86.5t-148 -31.5h-321zM401 418q70 0 109 33t39 89q0 41 -24 60.5t-76 19.5h-197l-38 -202h187zM345 95q80 0 126.5 39.5t46.5 104.5
q0 92 -105 92h-217l-45 -236h194z" />
    <glyph glyph-name="uni0413" unicode="&#x413;" horiz-adv-x="506" 
d="M131 0h-109l139 715h419l-19 -95h-309z" />
    <glyph glyph-name="uni0414" unicode="&#x414;" horiz-adv-x="693" 
d="M-70 -130l44 224h50q28 0 47.5 18t35 56t31.5 106l105 441h433l-120 -621h79l-44 -224h-99l25 129h-462l-25 -129h-100zM169 94h276l102 526h-218l-92 -387q-12 -50 -29 -82.5t-39 -54.5v-2z" />
    <glyph glyph-name="uni0415" unicode="&#x415;" horiz-adv-x="620" 
d="M538 0h-516l139 715h505l-19 -95h-395l-38 -203h346l-19 -95h-346l-44 -227h406z" />
    <glyph glyph-name="uni0416" unicode="&#x416;" horiz-adv-x="950" 
d="M911 715h127l-326 -372l186 -343h-123l-162 300h-74l-58 -300h-111l59 300h-75l-273 -300h-139l335 359l-170 356h113l154 -319h73l62 319h111l-62 -319h76z" />
    <glyph glyph-name="uni0417" unicode="&#x417;" horiz-adv-x="599" 
d="M76 26.5q-66 41.5 -66 127.5q0 24 4 45h111q-2 -9 -2 -24q0 -48 38 -71t104 -23q49 0 89.5 19.5t64.5 53t24 74.5t-32 64t-87 23h-85l17 89h81q43 0 76 20t50.5 51.5t17.5 65.5q0 40 -34.5 65t-87.5 25q-66 0 -110 -30.5t-53 -81.5h-112q20 98 97 152.5t196 54.5
q97 0 156 -44t59 -118q0 -66 -40 -120.5t-109 -79.5l-1 -2q51 -16 82 -50.5t31 -83.5q0 -65 -41.5 -121t-110.5 -89t-147 -33q-114 0 -180 41.5z" />
    <glyph glyph-name="uni0418" unicode="&#x418;" horiz-adv-x="737" 
d="M132 0h-110l139 715h110l-104 -534h2l475 534h111l-139 -715h-111l104 534h-2z" />
    <glyph glyph-name="uni0419" unicode="&#x419;" horiz-adv-x="737" 
d="M132 0h-110l139 715h110l-104 -534h2l475 534h111l-139 -715h-111l104 534h-2zM389 809q-30 27 -30 79q0 14 3 32h66q-1 -7 -1 -20q0 -26 12 -37.5t39 -11.5q66 0 85 69h68q-16 -66 -58.5 -102t-102.5 -36q-51 0 -81 27z" />
    <glyph glyph-name="uni041A" unicode="&#x41a;" horiz-adv-x="651" 
d="M610 715h135l-369 -371l233 -344h-134l-200 300h-85l-58 -300h-110l139 715h110l-62 -319h86z" />
    <glyph glyph-name="uni041B" unicode="&#x41b;" horiz-adv-x="671" 
d="M-17.5 -12q-20.5 3 -29.5 9l19 95q26 -10 53 -10q39 0 63 23t38 84l125 526h437l-139 -715h-110l121 620h-224l-102 -429q-28 -113 -80 -159.5t-131 -46.5q-20 0 -40.5 3z" />
    <glyph glyph-name="uni041C" unicode="&#x41c;" horiz-adv-x="848" 
d="M129 0h-107l139 715h144l96 -570h2l308 570h155l-139 -715h-108l107 555h-2l-305 -555h-90l-90 555h-2z" />
    <glyph glyph-name="uni041D" unicode="&#x41d;" horiz-adv-x="715" 
d="M132 0h-110l139 715h110l-58 -299h351l58 299h110l-139 -715h-110l62 321h-351z" />
    <glyph glyph-name="uni041E" unicode="&#x41e;" horiz-adv-x="775" 
d="M185.5 22.5q-66.5 36.5 -101.5 102.5t-35 153q0 121 54.5 224.5t151 165t215.5 61.5q92 0 158.5 -36.5t101.5 -102.5t35 -153q0 -120 -54.5 -224t-151 -165.5t-215.5 -61.5q-92 0 -158.5 36.5zM509 130.5q69 49.5 107 131t38 174.5q0 90 -47 144t-144 54
q-89 0 -158 -49.5t-107 -131t-38 -174.5q0 -90 47 -144t144 -54q89 0 158 49.5z" />
    <glyph glyph-name="uni041F" unicode="&#x41f;" horiz-adv-x="697" 
d="M132 0h-110l139 715h554l-139 -715h-111l120 620h-333z" />
    <glyph glyph-name="uni0420" unicode="&#x420;" horiz-adv-x="626" 
d="M22 0l139 715h286q100 0 155.5 -40t55.5 -132q0 -72 -35 -129.5t-98 -90.5t-144 -33h-193l-56 -290h-110zM389 385q72 0 114.5 41.5t42.5 106.5q0 47 -26 67t-91 20h-177l-45 -235h182z" />
    <glyph glyph-name="uni0421" unicode="&#x421;" horiz-adv-x="710" 
d="M122 63.5q-73 77.5 -73 215.5q0 121 54.5 224.5t149.5 164.5t210 61q88 0 148.5 -35t89 -94t22.5 -128h-112q1 72 -39 117t-122 45q-84 0 -150.5 -47t-103.5 -127.5t-37 -176.5q0 -97 42 -149.5t136 -52.5q96 0 153 51.5t80 127.5h113q-23 -80 -73.5 -142t-123.5 -97
t-161 -35q-130 0 -203 77.5z" />
    <glyph glyph-name="uni0422" unicode="&#x422;" horiz-adv-x="601" 
d="M306 0h-111l120 620h-231l19 95h573l-19 -95h-231z" />
    <glyph glyph-name="uni0423" unicode="&#x423;" horiz-adv-x="617" 
d="M212 0h-120l141 209l-134 506h116l97 -390h2l262 390h121z" />
    <glyph glyph-name="uni0424" unicode="&#x424;" horiz-adv-x="747" 
d="M693.5 249q-45.5 -69 -124 -111t-176.5 -51l-17 -87h-109l17 87q-110 11 -174 65.5t-64 147.5q0 21 3 43q17 116 109 190t230 88l18 94h109l-18 -93q113 -11 177.5 -68.5t64.5 -147.5q0 -88 -45.5 -157zM409 171q98 14 158.5 74.5t60.5 146.5q0 59 -39 96.5t-109 47.5z
M157 316q0 -59 38 -96.5t105 -48.5l71 365q-87 -13 -143.5 -63t-68.5 -127q-2 -10 -2 -30z" />
    <glyph glyph-name="uni0425" unicode="&#x425;" horiz-adv-x="600" 
d="M76 0h-130l314 367l-157 348h121l113 -269h1l219 269h122l-297 -349l171 -366h-123l-123 285h-2z" />
    <glyph glyph-name="uni0426" unicode="&#x426;" horiz-adv-x="733" 
d="M632 -130h-99l24 130h-535l139 715h110l-120 -620h333l120 620h111l-120 -620h80z" />
    <glyph glyph-name="uni0427" unicode="&#x427;" horiz-adv-x="615" 
d="M383 0l61 310h-2q-39 -39 -91.5 -63.5t-105.5 -24.5q-80 0 -125.5 43t-45.5 121q0 28 6 58l52 271h110l-50 -264q-4 -17 -4 -36q0 -47 28.5 -72t81.5 -25q48 0 83 18.5t79 59.5l62 319h110l-139 -715h-110z" />
    <glyph glyph-name="uni0428" unicode="&#x428;" horiz-adv-x="902" 
d="M781 0h-759l139 715h110l-120 -620h214l120 620h110l-120 -620h214l120 620h111z" />
    <glyph glyph-name="uni0429" unicode="&#x429;" horiz-adv-x="938" 
d="M837 -130h-99l24 130h-740l139 715h110l-120 -620h214l120 620h110l-120 -620h214l120 620h111l-120 -620h80z" />
    <glyph glyph-name="uni042A" unicode="&#x42a;" horiz-adv-x="696" 
d="M98 0l120 620h-142l19 95h252l-50 -258h176q97 0 150.5 -44.5t53.5 -125.5q0 -76 -36.5 -142t-105 -105.5t-158.5 -39.5h-279zM400 95q52 0 89.5 25t57 63.5t19.5 79.5q0 47 -26.5 73t-77.5 26h-183l-53 -267h174z" />
    <glyph glyph-name="uni042B" unicode="&#x42b;" horiz-adv-x="816" 
d="M22 0l139 715h110l-51 -258h149q96 0 150 -44.5t54 -125.5q0 -77 -36.5 -142.5t-104.5 -105t-159 -39.5h-251zM695 0h-111l139 715h111zM296 95q51 0 88 25t56 63.5t19 79.5q0 47 -26 73t-74 26h-157l-52 -267h146z" />
    <glyph glyph-name="uni042C" unicode="&#x42c;" horiz-adv-x="620" 
d="M22 0l139 715h110l-51 -258h179q96 0 149 -44.5t53 -125.5q0 -77 -36 -142.5t-103.5 -105t-158.5 -39.5h-281zM326 95q51 0 88 25t56 63.5t19 79.5q0 47 -26 73t-74 26h-187l-52 -267h176z" />
    <glyph glyph-name="uni042D" unicode="&#x42d;" horiz-adv-x="697" 
d="M615.5 657q71.5 -72 71.5 -200q0 -118 -46.5 -226.5t-136.5 -176.5t-212 -68q-124 0 -198 55.5t-74 153.5q0 19 3 38h114q-1 -6 -1 -16q0 -65 46.5 -100.5t125.5 -35.5q89 0 155 66.5t95 168.5h-267l18 89h265q1 12 1 36q0 91 -48.5 142t-130.5 51q-73 0 -127.5 -35.5
t-79.5 -96.5h-114q33 106 123.5 166.5t223.5 60.5q122 0 193.5 -72z" />
    <glyph glyph-name="uni042E" unicode="&#x42e;" horiz-adv-x="956" 
d="M882 659.5q66 -69.5 66 -193.5q0 -121 -46.5 -231.5t-135 -179.5t-207.5 -69t-184 71t-65 195q0 31 3 62h-119l-62 -314h-110l139 715h110l-59 -306h119q25 89 74 161t122 115.5t164 43.5q125 0 191 -69.5zM720.5 142q59.5 61 88 147.5t28.5 161.5q0 87 -40.5 135
t-113.5 48q-86 0 -145 -60.5t-87.5 -146.5t-28.5 -162q0 -87 40 -135.5t113 -48.5q86 0 145.5 61z" />
    <glyph glyph-name="uni042F" unicode="&#x42f;" horiz-adv-x="654" 
d="M-20 6q9 6 17 25t22 60q22 66 43.5 112.5t58.5 86t90 49.5v2q-51 12 -82 49.5t-31 92.5q0 69 35.5 121.5t99.5 81.5t145 29h294l-139 -715h-111l57 288h-169q-58 0 -94 -32.5t-54.5 -76.5t-34.5 -105q-2 -6 -7.5 -25.5t-10.5 -31t-10 -17.5h-121zM496 381l47 239h-177
q-78 0 -117.5 -34t-39.5 -97q0 -53 35.5 -80.5t99.5 -27.5h152z" />
    <glyph glyph-name="uni0430" unicode="&#x430;" horiz-adv-x="546" 
d="M48 20.5q-39 34.5 -39 98.5q0 79 58.5 118.5t171.5 62.5q64 13 94.5 21t50 24.5t19.5 45.5q0 27 -20.5 41.5t-68.5 14.5q-59 0 -92 -23.5t-47 -75.5h-97q18 83 80.5 130.5t165.5 47.5q83 0 128.5 -33.5t45.5 -99.5q0 -20 -5 -48l-45 -229q-4 -24 -4 -31q0 -13 5.5 -19
t19.5 -6q3 0 15 2l-12 -59q-30 -9 -56 -9q-74 0 -71 77h-3q-33 -40 -79 -62.5t-104 -22.5q-72 0 -111 34.5zM309 102.5q48 37.5 61 102.5l13 67q-16 -14 -35.5 -20t-80.5 -20q-59 -12 -91.5 -23.5t-49.5 -29t-17 -47.5q0 -67 84 -67q68 0 116 37.5z" />
    <glyph glyph-name="uni0431" unicode="&#x431;" horiz-adv-x="555" 
d="M37 218q0 82 30 178t97.5 171.5t171.5 93.5l89 14q80 15 86 41h96q-10 -52 -48 -79.5t-95 -38.5l-121 -21q-68 -12 -119 -57.5t-73 -111.5h2q32 50 90.5 84t125.5 34q80 0 122.5 -48t42.5 -135q0 -90 -36 -172.5t-104 -134t-159 -51.5q-198 0 -198 233zM352 108.5
q41 42.5 61 102.5t20 111q0 57 -26.5 89.5t-79.5 32.5q-61 0 -102.5 -40.5t-61.5 -99t-20 -112.5q0 -58 26.5 -92t81.5 -34q60 0 101 42.5z" />
    <glyph glyph-name="uni0432" unicode="&#x432;" horiz-adv-x="504" 
d="M5 0l100 510h233q68 0 105 -28.5t37 -78.5q0 -48 -32.5 -84.5t-78.5 -50.5v-2q39 -6 64 -31.5t25 -66.5q0 -43 -25 -81.5t-72 -62.5t-111 -24h-245zM291 296q36 0 60.5 25.5t24.5 57.5q0 25 -16 37.5t-45 12.5h-127l-26 -133h129zM257 81q47 0 73.5 23t26.5 63
q0 27 -17 41.5t-48 14.5h-144l-28 -142h137z" />
    <glyph glyph-name="uni0433" unicode="&#x433;" horiz-adv-x="412" 
d="M103 0h-98l100 510h345l-17 -81h-246z" />
    <glyph glyph-name="uni0434" unicode="&#x434;" horiz-adv-x="574" 
d="M448 81h70l-41 -211h-89l25 130h-366l-26 -130h-89l41 211h40q25 0 45 23t29 61l88 345h356zM348 81l67 348h-161l-66 -260q-15 -57 -45 -86v-2h205z" />
    <glyph glyph-name="uni0435" unicode="&#x435;" horiz-adv-x="554" 
d="M125 229q-1 -9 -1 -28q0 -67 30 -101t93 -34q62 0 102 29.5t53 62.5h102q-37 -81 -104 -127t-161 -46q-104 0 -159 57t-55 160q0 90 38.5 164t108 117t157.5 43q104 0 154 -53t50 -144q0 -36 -11 -100h-397zM204 408.5q-47 -37.5 -67 -102.5h295q3 18 3 33q0 49 -28.5 78
t-85.5 29q-70 0 -117 -37.5z" />
    <glyph glyph-name="uni0436" unicode="&#x436;" horiz-adv-x="698" 
d="M67 0h-118l225 258l-124 252h108l105 -216h46l42 216h100l-42 -216h52l172 216h112l-216 -264l114 -246h-106l-95 213h-50l-41 -213h-100l42 213h-44z" />
    <glyph glyph-name="uni0437" unicode="&#x437;" horiz-adv-x="467" 
d="M48 20q-52 35 -52 97q0 9 4 33h97q-2 -10 -2 -15q0 -32 29.5 -50t78.5 -18t81.5 23.5t32.5 65.5q0 31 -20.5 47.5t-56.5 16.5h-79l14 76h76q50 0 74 27.5t24 61.5q0 28 -24 43.5t-61 15.5q-52 0 -78.5 -22t-41.5 -65h-97q14 74 76.5 121.5t155.5 47.5q73 0 121.5 -32
t48.5 -88q0 -50 -36 -92.5t-83 -53.5v-1q38 -8 63 -35t25 -68q0 -53 -31 -91.5t-84 -59t-117 -20.5q-86 0 -138 35z" />
    <glyph glyph-name="uni0438" unicode="&#x438;" horiz-adv-x="567" 
d="M103 0h-100l103 510h99l-72 -359l329 359h101l-103 -510h-100l75 362z" />
    <glyph glyph-name="uni0439" unicode="&#x439;" horiz-adv-x="567" 
d="M103 0h-100l103 510h99l-72 -359l329 359h101l-103 -510h-100l75 362zM269 604q-30 27 -30 79q0 14 3 32h66q-1 -7 -1 -20q0 -26 12 -37.5t39 -11.5q66 0 85 69h68q-16 -66 -58.5 -102t-102.5 -36q-51 0 -81 27z" />
    <glyph glyph-name="uni043A" unicode="&#x43a;" horiz-adv-x="489" 
d="M427 510h118l-247 -262l150 -248h-115l-126 213h-60l-42 -213h-100l100 510h100l-42 -216h63z" />
    <glyph glyph-name="uni043B" unicode="&#x43b;" horiz-adv-x="520" 
d="M-42 -6l16 86q24 -7 39 -7q23 0 36.5 17t22.5 54l91 366h351l-100 -510h-98l83 429h-160l-79 -316q-15 -62 -53.5 -95t-91.5 -33q-35 0 -57 9z" />
    <glyph glyph-name="uni043C" unicode="&#x43c;" horiz-adv-x="681" 
d="M102 0h-99l104 510h117l83 -377h2l257 377h117l-116 -510h-100l78 338h-2l-226 -337h-77l-65 345h-2z" />
    <glyph glyph-name="uni043D" unicode="&#x43d;" horiz-adv-x="561" 
d="M414 300l41 210h100l-99 -510h-100l42 218h-251l-42 -218h-100l99 510h100l-41 -210h251z" />
    <glyph glyph-name="uni043E" unicode="&#x43e;" horiz-adv-x="564" 
d="M77.5 41q-54.5 56 -54.5 151q0 90 39.5 166.5t110.5 121.5t161 45q98 0 152.5 -55.5t54.5 -150.5q0 -91 -39.5 -167.5t-110.5 -121.5t-161 -45q-98 0 -152.5 56zM346 101.5q46 34.5 71 91t25 120.5q0 60 -30.5 95.5t-88.5 35.5q-59 0 -105 -34.5t-71.5 -91t-25.5 -120.5
q0 -60 31 -95.5t89 -35.5q59 0 105 34.5z" />
    <glyph glyph-name="uni043F" unicode="&#x43f;" horiz-adv-x="543" 
d="M105 0h-100l99 510h434l-99 -510h-100l83 429h-234z" />
    <glyph glyph-name="uni0440" unicode="&#x440;" horiz-adv-x="572" 
d="M498.5 471q49.5 -54 49.5 -153q0 -92 -38 -168t-103.5 -120t-144.5 -44q-53 0 -88.5 21t-53.5 56h-5l-47 -240h-98l134 687h98l-12 -60h3q30 33 73 54t99 21q84 0 133.5 -54zM356.5 99q42.5 32 67 87.5t24.5 122.5q0 134 -113 134q-52 0 -94.5 -33.5t-67.5 -89
t-25 -117.5q0 -66 29.5 -101t84.5 -35q52 0 94.5 32z" />
    <glyph glyph-name="uni0441" unicode="&#x441;" horiz-adv-x="531" 
d="M78.5 41q-55.5 56 -55.5 153q0 88 38 164t107 121.5t157 45.5q65 0 111.5 -26.5t68 -72.5t16.5 -104h-96q1 6 1 19q0 49 -27 76t-80 27q-58 0 -103 -34t-70 -90t-25 -119q0 -60 29 -97t89 -37q66 0 105.5 36t53.5 84h97q-15 -59 -52.5 -105t-92.5 -71.5t-118 -25.5
q-98 0 -153.5 56z" />
    <glyph glyph-name="uni0442" unicode="&#x442;" horiz-adv-x="462" 
d="M236 0h-100l83 429h-175l17 81h439l-16 -81h-165z" />
    <glyph glyph-name="uni0443" unicode="&#x443;" horiz-adv-x="506" 
d="M-26 -172l16 80q24 -3 38 -3q84 0 129 100l-109 505h104l73 -395h2l216 395h106l-305 -530q-52 -90 -99.5 -124.5t-111.5 -34.5q-24 0 -59 7z" />
    <glyph glyph-name="uni0444" unicode="&#x444;" horiz-adv-x="643" 
d="M583 163.5q-37 -71.5 -105.5 -118.5t-159.5 -57l-32 -165h-98l32 165q-94 11 -146 65.5t-52 140.5q0 30 6 61q22 113 100.5 184t195.5 84l37 192h98l-37 -192q94 -11 146 -65t52 -141q0 -82 -37 -153.5zM334 70q84 16 134 81.5t50 151.5q0 55 -29.5 91t-82.5 47zM125 211
q0 -54 27.5 -92t83.5 -49l72 371q-69 -14 -116.5 -63t-62.5 -123q-4 -20 -4 -44z" />
    <glyph glyph-name="uni0445" unicode="&#x445;" horiz-adv-x="487" 
d="M57 0h-115l245 262l-132 248h113l91 -183h2l154 183h112l-224 -249l144 -261h-115l-101 196h-2z" />
    <glyph glyph-name="uni0446" unicode="&#x446;" horiz-adv-x="577" 
d="M480 -130h-89l25 130h-411l99 510h100l-83 -429h230l83 429h100l-83 -429h71z" />
    <glyph glyph-name="uni0447" unicode="&#x447;" horiz-adv-x="507" 
d="M302 0l44 222h-2q-29 -31 -73.5 -51.5t-97.5 -20.5q-60 0 -97.5 29.5t-37.5 88.5q0 20 4 40l40 202h99l-34 -173q-3 -16 -3 -30q0 -37 20.5 -55.5t57.5 -18.5q78 0 141 78l39 199h100l-100 -510h-100z" />
    <glyph glyph-name="uni0448" unicode="&#x448;" horiz-adv-x="734" 
d="M629 0h-624l99 510h97l-83 -429h166l83 429h97l-83 -429h167l82 429h97z" />
    <glyph glyph-name="uni0449" unicode="&#x449;" horiz-adv-x="771" 
d="M674 -130h-89l25 130h-605l99 510h97l-83 -429h166l83 429h97l-83 -429h167l82 429h97l-83 -429h72z" />
    <glyph glyph-name="uni044A" unicode="&#x44a;" horiz-adv-x="541" 
d="M80 0l84 428h-118l16 82h217l-36 -183h107q74 0 116 -38t42 -109q0 -81 -57 -130.5t-153 -49.5h-218zM305 81q47 0 75.5 24.5t28.5 65.5q0 34 -22 54.5t-58 20.5h-102l-31 -165h109z" />
    <glyph glyph-name="uni044B" unicode="&#x44b;" horiz-adv-x="647" 
d="M5 0l100 510h99l-36 -183h95q74 0 116 -38t42 -109q0 -81 -57 -130.5t-153 -49.5h-206zM542 0h-99l99 510h99zM217 81q47 0 76 24.5t29 65.5q0 34 -22 54.5t-58 20.5h-90l-31 -165h96z" />
    <glyph glyph-name="uni044C" unicode="&#x44c;" horiz-adv-x="466" 
d="M5 0l100 510h99l-36 -183h107q74 0 116 -38t42 -109q0 -81 -57 -130.5t-153 -49.5h-218zM230 81q47 0 75.5 24.5t28.5 65.5q0 34 -22 54.5t-58 20.5h-102l-31 -165h109z" />
    <glyph glyph-name="uni044D" unicode="&#x44d;" horiz-adv-x="520" 
d="M444 471.5q52 -53.5 52 -146.5q0 -88 -34 -166t-100 -126t-159 -48q-89 0 -144.5 42.5t-55.5 115.5q0 13 1 20h97q0 -42 31 -69t86 -27q63 0 104.5 43t61.5 109h-190l15 76h189q1 10 1 29q0 60 -30 90t-86 30t-94 -25t-52 -68h-98q22 81 90.5 127.5t163.5 46.5
q99 0 151 -53.5z" />
    <glyph glyph-name="uni044E" unicode="&#x44e;" horiz-adv-x="714" 
d="M649 475q44 -51 44 -141q0 -86 -35.5 -166.5t-100.5 -131.5t-151 -51q-91 0 -134.5 57t-38.5 152q0 7 2 21h-88l-42 -215h-100l99 510h100l-42 -214h88q31 101 103.5 165.5t172.5 64.5q79 0 123 -51zM513.5 110q38.5 44 58 105.5t19.5 111.5q0 56 -22.5 86.5t-66.5 30.5
q-52 0 -89.5 -41t-57.5 -101.5t-20 -116.5q0 -119 87 -119q53 0 91.5 44z" />
    <glyph glyph-name="uni044F" unicode="&#x44f;" horiz-adv-x="493" 
d="M-30 4q7 5 13.5 20t10.5 26t6 16q17 45 31.5 75.5t40 56t62.5 31.5v1q-37 9 -59 36.5t-22 65.5q0 13 1 19q11 74 68 116.5t148 42.5h217l-99 -510h-99l36 186h-103q-40 0 -65 -21t-37.5 -48.5t-24.5 -68.5q-11 -39 -18 -48h-108zM340 265l32 164h-111q-52 0 -79 -27.5
t-27 -67.5q0 -31 19 -50t62 -19h104z" />
    <glyph glyph-name="uni0450" unicode="&#x450;" horiz-adv-x="554" 
d="M125 229q-1 -9 -1 -28q0 -67 30 -101t93 -34q62 0 102 29.5t53 62.5h102q-37 -81 -104 -127t-161 -46q-104 0 -159 57t-55 160q0 90 38.5 164t108 117t157.5 43q104 0 154 -53t50 -144q0 -36 -11 -100h-397zM204 408.5q-47 -37.5 -67 -102.5h295q3 18 3 33q0 49 -28.5 78
t-85.5 29q-70 0 -117 -37.5zM383 589h-78l-74 138h115z" />
    <glyph glyph-name="uni0451" unicode="&#x451;" horiz-adv-x="554" 
d="M125 229q-1 -9 -1 -28q0 -67 30 -101t93 -34q62 0 102 29.5t53 62.5h102q-37 -81 -104 -127t-161 -46q-104 0 -159 57t-55 160q0 90 38.5 164t108 117t157.5 43q104 0 154 -53t50 -144q0 -36 -11 -100h-397zM204 408.5q-47 -37.5 -67 -102.5h295q3 18 3 33q0 49 -28.5 78
t-85.5 29q-70 0 -117 -37.5zM327 603h-111l22 106h111zM495 603h-111l22 106h111z" />
    <glyph glyph-name="uni0452" unicode="&#x452;" horiz-adv-x="545" 
d="M213 -173l13 83q27 -5 52 -5q49 0 59 55l71 367q4 26 4 36q0 37 -21 58t-66 21q-58 0 -103 -36.5t-58 -90.5l-61 -315h-98l114 584h-58l13 67h58l12 64h98l-12 -64h160l-14 -67h-159l-27 -139h2q30 37 76.5 59t103.5 22q66 0 104 -36t38 -105q0 -25 -6 -55l-74 -384
q-12 -61 -54.5 -94t-98.5 -33q-36 0 -68 8z" />
    <glyph glyph-name="uni0453" unicode="&#x453;" horiz-adv-x="412" 
d="M103 0h-98l100 510h345l-17 -81h-246zM329 587h-77l70 138h114z" />
    <glyph glyph-name="uni0454" unicode="&#x454;" horiz-adv-x="514" 
d="M412 351q1 42 -25 67.5t-79 25.5q-67 0 -110 -42t-62 -108h180l-15 -77h-179q-1 -8 -1 -24q0 -61 29 -93.5t87 -32.5q53 0 91 27t52 69h98q-25 -82 -91 -130t-163 -48t-149.5 56.5t-52.5 149.5q0 86 37.5 162.5t105.5 124t156 47.5q94 0 143 -48.5t46 -125.5h-98z" />
    <glyph glyph-name="uni0455" unicode="&#x455;" horiz-adv-x="486" 
d="M102.5 10q-50.5 24 -75.5 65t-24 93h94q-1 -45 32 -74t101 -29q54 0 84.5 19t30.5 57q0 25 -14.5 40t-37 24t-67.5 22q-58 18 -89.5 31.5t-56 42t-24.5 75.5q0 71 57.5 110t146.5 39q67 0 113 -23t68 -60t21 -81h-95q1 36 -25.5 61t-84.5 25q-46 0 -75 -16.5t-29 -49.5
q0 -29 23 -43t80 -31l19 -6q55 -17 89.5 -33.5t57 -45t22.5 -74.5q0 -75 -59.5 -118.5t-158.5 -43.5q-73 0 -123.5 24z" />
    <glyph glyph-name="uni0456" unicode="&#x456;" horiz-adv-x="208" 
d="M103 0h-98l99 510h98zM226 601h-111l21 106h111z" />
    <glyph glyph-name="uni0457" unicode="&#x457;" horiz-adv-x="208" 
d="M159 601h-94l22 106h94zM275 601h-94l22 106h94zM103 0h-98l99 510h98z" />
    <glyph glyph-name="uni0458" unicode="&#x458;" horiz-adv-x="208" 
d="M-114 -175l15 81q26 -3 39 -3q24 0 38.5 16.5t22.5 57.5l103 533h98l-104 -537q-15 -78 -55.5 -116t-96.5 -38q-24 0 -60 6zM226 601h-111l21 106h111z" />
    <glyph glyph-name="uni0459" unicode="&#x459;" horiz-adv-x="744" 
d="M-42 -6l16 86q20 -7 39 -7q23 0 36.5 16.5t22.5 54.5l91 366h332l-36 -183h95q74 0 116 -38t42 -109q0 -81 -57 -130.5t-153 -49.5h-206l84 429h-141l-79 -317q-15 -62 -53.5 -94.5t-91.5 -32.5q-35 0 -57 9zM508 81q47 0 76 24.5t29 65.5q0 34 -22 54.5t-58 20.5h-90
l-31 -165h96z" />
    <glyph glyph-name="uni045A" unicode="&#x45a;" horiz-adv-x="757" 
d="M566 323q74 0 116 -37.5t42 -109.5q0 -80 -57 -128t-153 -48h-206l47 242h-203l-47 -242h-100l99 510h100l-36 -187h203l37 187h99l-36 -187h95zM521 81q48 0 76.5 23.5t28.5 63.5q0 34 -22.5 53.5t-59.5 19.5h-89l-31 -160h97z" />
    <glyph glyph-name="uni045B" unicode="&#x45b;" horiz-adv-x="544" 
d="M475 490q38 -36 38 -104q0 -26 -6 -56l-64 -330h-98l63 327q4 26 4 36q0 37 -21 58t-66 21q-60 0 -106 -39t-56 -96l-60 -307h-98l114 584h-59l14 67h58l12 64h98l-12 -64h159l-13 -67h-159l-27 -139h1q29 37 76 59t105 22q65 0 103 -36z" />
    <glyph glyph-name="uni045C" unicode="&#x45c;" horiz-adv-x="489" 
d="M427 510h118l-247 -262l150 -248h-115l-126 213h-60l-42 -213h-100l100 510h100l-42 -216h63zM355 587h-77l70 138h114z" />
    <glyph glyph-name="uni045D" unicode="&#x45d;" horiz-adv-x="567" 
d="M103 0h-100l103 510h99l-72 -359l329 359h101l-103 -510h-100l75 362zM383 587h-78l-74 138h115z" />
    <glyph glyph-name="uni045E" unicode="&#x45e;" horiz-adv-x="506" 
d="M-26 -172l16 80q24 -3 38 -3q84 0 129 100l-109 505h104l73 -395h2l216 395h106l-305 -530q-52 -90 -99.5 -124.5t-111.5 -34.5q-24 0 -59 7zM225 604q-30 27 -30 79q0 14 3 32h66q-1 -7 -1 -20q0 -26 12 -37.5t39 -11.5q66 0 85 69h68q-16 -66 -58.5 -102t-102.5 -36
q-51 0 -81 27z" />
    <glyph glyph-name="uni045F" unicode="&#x45f;" horiz-adv-x="540" 
d="M248 -130h-89l25 130h-179l99 510h100l-83 -429h230l83 429h100l-99 -510h-161z" />
    <glyph glyph-name="uni0490" unicode="&#x490;" horiz-adv-x="491" 
d="M131 0h-109l139 715h304l19 99h100l-38 -194h-294z" />
    <glyph glyph-name="uni0491" unicode="&#x491;" horiz-adv-x="419" 
d="M103 0h-98l100 510h263l21 110h89l-37 -191h-254z" />
    <glyph glyph-name="uni0492" unicode="&#x492;" horiz-adv-x="557" 
d="M627 715l-19 -95h-309l-45 -231h215l-19 -82h-212l-60 -307h-110l60 307h-116l19 82h113l63 326h420z" />
    <glyph glyph-name="uni0493" unicode="&#x493;" horiz-adv-x="450" 
d="M487 510l-16 -81h-246l-27 -136h168l-16 -74h-166l-43 -219h-98l43 219h-88l17 74h85l43 217h344z" />
    <glyph glyph-name="uni0496" unicode="&#x496;" horiz-adv-x="950" 
d="M1038 715l-326 -372l157 -289h65l-36 -184h-100l25 130h-48l-162 300h-74l-58 -300h-111l59 300h-75l-273 -300h-139l335 359l-170 356h113l154 -319h73l62 319h111l-62 -319h76l277 319h127z" />
    <glyph glyph-name="uni0497" unicode="&#x497;" horiz-adv-x="698" 
d="M745 510l-216 -264l82 -177h54l-39 -199h-88l25 130h-26l-95 213h-50l-41 -213h-100l42 213h-44l-182 -213h-118l225 258l-124 252h108l105 -216h46l42 216h100l-42 -216h52l172 216h112z" />
    <glyph glyph-name="uni049A" unicode="&#x49a;" horiz-adv-x="651" 
d="M745 715l-369 -371l196 -290h65l-36 -184h-100l25 130h-51l-200 300h-85l-58 -300h-110l139 715h110l-62 -319h86l315 319h135z" />
    <glyph glyph-name="uni049B" unicode="&#x49b;" horiz-adv-x="489" 
d="M545 510l-247 -262l108 -179h68l-39 -199h-88l25 130h-39l-126 213h-60l-42 -213h-100l100 510h100l-42 -216h63l201 216h118z" />
    <glyph glyph-name="uni04A2" unicode="&#x4a2;" horiz-adv-x="715" 
d="M622 715h110l-129 -661h44l-36 -184h-100l25 130h-53l62 321h-351l-62 -321h-110l139 715h110l-58 -299h351z" />
    <glyph glyph-name="uni04A3" unicode="&#x4a3;" horiz-adv-x="561" 
d="M455 510h100l-86 -441h47l-39 -199h-88l25 130h-58l42 218h-251l-42 -218h-100l99 510h100l-41 -210h251z" />
    <glyph glyph-name="uni04AE" unicode="&#x4ae;" horiz-adv-x="639" 
d="M325 0h-111l56 286l-173 429h117l125 -342h2l259 342h120l-340 -429z" />
    <glyph glyph-name="uni04AF" unicode="&#x4af;" horiz-adv-x="503" 
d="M221 -177h-99l42 216l-117 471h103l83 -340h2l206 340h109l-287 -471z" />
    <glyph glyph-name="uni04B0" unicode="&#x4b0;" horiz-adv-x="631" 
d="M717 715l-340 -429l-6 -31h151l-18 -81h-149l-34 -174h-110l33 174h-163l18 81h161l6 31l-173 429h117l125 -342h2l259 342h121z" />
    <glyph glyph-name="uni04B1" unicode="&#x4b1;" horiz-adv-x="504" 
d="M550 510l-287 -471l-9 -45h134l-15 -73h-133l-19 -98h-99l19 98h-133l15 73h132l9 45l-116 471h102l83 -340h2l206 340h109z" />
    <glyph glyph-name="uni04B2" unicode="&#x4b2;" horiz-adv-x="600" 
d="M679 715l-297 -349l146 -312h58l-36 -184h-100l25 130h-45l-123 285h-2l-229 -285h-130l314 367l-157 348h121l113 -269h1l219 269h122z" />
    <glyph glyph-name="uni04B3" unicode="&#x4b3;" horiz-adv-x="487" 
d="M527 510l-224 -249l106 -192h67l-39 -199h-88l25 130h-42l-101 196h-2l-172 -196h-115l245 262l-132 248h113l91 -183h2l154 183h112z" />
    <glyph glyph-name="uni04B6" unicode="&#x4b6;" horiz-adv-x="615" 
d="M632 715l-129 -661h43l-36 -184h-100l25 130h-52l61 310h-2q-39 -39 -91.5 -63.5t-105.5 -24.5q-80 0 -125.5 43t-45.5 121q0 28 6 58l52 271h110l-50 -264q-4 -17 -4 -36q0 -47 28.5 -72t81.5 -25q48 0 83 18.5t79 59.5l62 319h110z" />
    <glyph glyph-name="uni04B7" unicode="&#x4b7;" horiz-adv-x="507" 
d="M502 510l-86 -441h38l-39 -199h-88l25 130h-50l44 222h-2q-29 -31 -73.5 -51.5t-97.5 -20.5q-60 0 -97.5 29.5t-37.5 88.5q0 20 4 40l40 202h99l-34 -173q-3 -16 -3 -30q0 -37 20.5 -55.5t57.5 -18.5q78 0 141 78l39 199h100z" />
    <glyph glyph-name="uni04BA" unicode="&#x4ba;" horiz-adv-x="618" 
d="M22 0l139 715h111l-64 -325h2q38 40 90 63.5t116 23.5q79 0 123 -39.5t44 -113.5q0 -27 -6 -57l-53 -267h-110l48 248q4 20 4 42q0 91 -102 91q-73 0 -123.5 -41t-64.5 -117l-44 -223h-110z" />
    <glyph glyph-name="uni04BB" unicode="&#x4bb;" horiz-adv-x="544" 
d="M475 490q38 -36 38 -104q0 -26 -6 -56l-64 -330h-98l63 327q4 26 4 36q0 37 -21 58t-66 21q-60 0 -106 -39t-56 -96l-60 -307h-98l139 715h98l-52 -270h1q29 37 76 59t105 22q65 0 103 -36z" />
    <glyph glyph-name="uni04D8" unicode="&#x4d8;" horiz-adv-x="730" 
d="M598 693q59 -36 90.5 -99.5t31.5 -145.5q0 -35 -6 -71q-16 -114 -72.5 -203t-142.5 -139t-187 -50q-83 0 -144 34t-93.5 94t-32.5 138q0 39 7 75q6 33 16 61h540q4 36 4 51q0 91 -48 143.5t-128 52.5q-84 0 -143 -35.5t-81 -97.5h-112q37 109 136 168.5t227 59.5
q79 0 138 -36zM484 138.5q66 58.5 99 153.5h-428q-5 -27 -5 -46q0 -73 48.5 -119.5t132.5 -46.5q87 0 153 58.5z" />
    <glyph glyph-name="uni04D9" unicode="&#x4d9;" horiz-adv-x="534" 
d="M459 470.5q52 -54.5 52 -145.5q0 -87 -35 -165t-101 -126.5t-154 -48.5q-102 0 -151 58t-49 145q0 31 6 62q3 19 11 41h376q1 9 1 25q0 60 -32.5 94t-85.5 34t-92 -22t-54 -60h-97q32 78 100 120.5t157 42.5q96 0 148 -54.5zM337 108.5q42 41.5 62 105.5h-280
q-3 -16 -3 -33q0 -49 28.5 -81.5t86.5 -32.5q64 0 106 41.5z" />
    <glyph glyph-name="uni04E2" unicode="&#x4e2;" horiz-adv-x="737" 
d="M132 0h-110l139 715h110l-104 -534h2l475 534h111l-139 -715h-111l104 534h-2zM609 806h-264l15 77h264z" />
    <glyph glyph-name="uni04E3" unicode="&#x4e3;" horiz-adv-x="567" 
d="M103 0h-100l103 510h99l-72 -359l329 359h101l-103 -510h-100l75 362zM488 601h-264l15 77h264z" />
    <glyph glyph-name="uni04E8" unicode="&#x4e8;" horiz-adv-x="775" 
d="M628.5 692.5q66.5 -36.5 101.5 -102.5t35 -153q0 -120 -54.5 -224t-151 -165.5t-215.5 -61.5q-92 0 -158.5 36.5t-101.5 102.5t-35 153q0 121 54.5 224.5t151 165t215.5 61.5q92 0 158.5 -36.5zM285.5 569.5q-75.5 -64.5 -106.5 -166.5h474q1 11 1 33q0 90 -47 144
t-144 54q-102 0 -177.5 -64.5zM529.5 145.5q75.5 64.5 106.5 167.5h-475q-1 -11 -1 -34q0 -90 47 -144t144 -54q103 0 178.5 64.5z" />
    <glyph glyph-name="uni04E9" unicode="&#x4e9;" horiz-adv-x="564" 
d="M486.5 469.5q54.5 -55.5 54.5 -150.5q0 -91 -39.5 -167.5t-110.5 -121.5t-161 -45q-98 0 -152.5 56t-54.5 151q0 90 39.5 166.5t110.5 121.5t161 45q98 0 152.5 -55.5zM208.5 402.5q-48.5 -41.5 -71.5 -108.5h304q1 6 1 19q0 60 -30.5 95.5t-88.5 35.5
q-66 0 -114.5 -41.5zM355.5 108.5q48.5 41.5 70.5 108.5h-304q-1 -6 -1 -19q0 -60 31 -95.5t89 -35.5q66 0 114.5 41.5z" />
    <glyph glyph-name="uni04EE" unicode="&#x4ee;" horiz-adv-x="617" 
d="M212 0h-120l141 209l-134 506h116l97 -390h2l262 390h121zM540 806h-264l15 77h264z" />
    <glyph glyph-name="uni04EF" unicode="&#x4ef;" horiz-adv-x="506" 
d="M-26 -172l16 80q24 -3 38 -3q84 0 129 100l-109 505h104l73 -395h2l216 395h106l-305 -530q-52 -90 -99.5 -124.5t-111.5 -34.5q-24 0 -59 7zM444 601h-264l15 77h264z" />
    <glyph glyph-name="uni139A" unicode="&#x139a;" horiz-adv-x="657" 
 />
    <glyph glyph-name="Wgrave" unicode="&#x1e80;" horiz-adv-x="926" 
d="M265 0h-118l-47 715h114l22 -563h2l248 563h119l41 -563h2l236 563h114l-317 -715h-118l-40 575h-2zM594 792h-78l-74 138h115z" />
    <glyph glyph-name="wgrave" unicode="&#x1e81;" horiz-adv-x="750" 
d="M214 0h-105l-50 510h104l23 -395h2l184 395h96l30 -395h2l186 395h106l-258 -510h-101l-33 393h-2zM466 587h-78l-74 138h115z" />
    <glyph glyph-name="Wacute" unicode="&#x1e82;" horiz-adv-x="926" 
d="M265 0h-118l-47 715h114l22 -563h2l248 563h119l41 -563h2l236 563h114l-317 -715h-118l-40 575h-2zM600 792h-77l70 138h114z" />
    <glyph glyph-name="wacute" unicode="&#x1e83;" horiz-adv-x="750" 
d="M214 0h-105l-50 510h104l23 -395h2l184 395h96l30 -395h2l186 395h106l-258 -510h-101l-33 393h-2zM472 587h-77l70 138h114z" />
    <glyph glyph-name="Wdieresis" unicode="&#x1e84;" horiz-adv-x="926" 
d="M265 0h-118l-47 715h114l22 -563h2l248 563h119l41 -563h2l236 563h114l-317 -715h-118l-40 575h-2zM537 806h-111l22 106h111zM705 806h-111l22 106h111z" />
    <glyph glyph-name="wdieresis" unicode="&#x1e85;" horiz-adv-x="750" 
d="M214 0h-105l-50 510h104l23 -395h2l184 395h96l30 -395h2l186 395h106l-258 -510h-101l-33 393h-2zM409 601h-111l22 106h111zM577 601h-111l22 106h111z" />
    <glyph glyph-name="Ygrave" unicode="&#x1ef2;" horiz-adv-x="639" 
d="M325 0h-111l56 286l-173 429h117l125 -342h2l259 342h120l-340 -429zM447 792h-78l-74 138h115z" />
    <glyph glyph-name="ygrave" unicode="&#x1ef3;" horiz-adv-x="506" 
d="M-26 -172l16 80q24 -3 38 -3q84 0 129 100l-109 505h104l73 -395h2l216 395h106l-305 -530q-52 -90 -99.5 -124.5t-111.5 -34.5q-24 0 -59 7zM339 587h-78l-74 138h115z" />
    <glyph glyph-name="uni2000" unicode="&#x2000;" horiz-adv-x="500" 
 />
    <glyph glyph-name="uni2001" unicode="&#x2001;" horiz-adv-x="1000" 
 />
    <glyph glyph-name="uni2002" unicode="&#x2002;" horiz-adv-x="500" 
 />
    <glyph glyph-name="uni2003" unicode="&#x2003;" horiz-adv-x="1000" 
 />
    <glyph glyph-name="uni2004" unicode="&#x2004;" horiz-adv-x="333" 
 />
    <glyph glyph-name="uni2005" unicode="&#x2005;" horiz-adv-x="250" 
 />
    <glyph glyph-name="uni2006" unicode="&#x2006;" horiz-adv-x="167" 
 />
    <glyph glyph-name="uni2007" unicode="&#x2007;" horiz-adv-x="723" 
 />
    <glyph glyph-name="uni2008" unicode="&#x2008;" horiz-adv-x="198" 
 />
    <glyph glyph-name="uni2009" unicode="&#x2009;" horiz-adv-x="125" 
 />
    <glyph glyph-name="uni200A" unicode="&#x200a;" horiz-adv-x="42" 
 />
    <glyph glyph-name="uni200B" unicode="&#x200b;" 
 />
    <glyph glyph-name="endash" unicode="&#x2013;" horiz-adv-x="586" 
d="M533 208h-500l18 93h500z" />
    <glyph glyph-name="emdash" unicode="&#x2014;" horiz-adv-x="1083" 
d="M1031 207h-1000l19 93h1000z" />
    <glyph glyph-name="quoteleft" unicode="&#x2018;" horiz-adv-x="196" 
d="M228 660q-30 -8 -45.5 -26t-22.5 -55h52l-21 -109h-109l22 109q11 55 41 89.5t94 46.5z" />
    <glyph glyph-name="quoteright" unicode="&#x2019;" horiz-adv-x="190" 
d="M97 524q30 9 45.5 26.5t22.5 55.5h-53l22 109h109l-22 -109q-10 -55 -40 -89.5t-95 -46.5z" />
    <glyph glyph-name="quotesinglbase" unicode="&#x201a;" horiz-adv-x="203" 
d="M-17 -82q30 9 45.5 26.5t22.5 55.5h-53l22 109h109l-22 -109q-10 -55 -40 -89.5t-95 -46.5z" />
    <glyph glyph-name="quotedblleft" unicode="&#x201c;" horiz-adv-x="355" 
d="M104 580q11 55 41 89.5t94 46.5l-11 -55q-29 -9 -44.5 -27t-22.5 -54h52l-22 -109h-109zM387 661q-29 -9 -44.5 -27t-22.5 -54h52l-22 -109h-109l22 109q11 55 41.5 89.5t93.5 46.5z" />
    <glyph glyph-name="quotedblright" unicode="&#x201d;" horiz-adv-x="349" 
d="M97 524q30 9 45.5 26.5t22.5 55.5h-53l22 109h109l-22 -109q-10 -55 -40 -89.5t-95 -46.5zM256 524q30 9 45.5 26.5t22.5 55.5h-53l22 109h109l-22 -109q-10 -55 -40 -89.5t-95 -46.5z" />
    <glyph glyph-name="quotedblbase" unicode="&#x201e;" horiz-adv-x="363" 
d="M143 -82q30 9 45.5 26.5t22.5 55.5h-53l22 109h109l-22 -109q-10 -55 -40 -89.5t-95 -46.5zM-17 -82q30 9 45.5 26.5t22.5 55.5h-53l22 109h109l-22 -109q-10 -55 -40 -89.5t-95 -46.5z" />
    <glyph glyph-name="dagger" unicode="&#x2020;" horiz-adv-x="487" 
d="M214 -177h-109l116 596h-176l18 93h176l39 203h109l-39 -203h175l-19 -93h-175z" />
    <glyph glyph-name="daggerdbl" unicode="&#x2021;" horiz-adv-x="524" 
d="M232 -177h-108l53 276h-175l18 93h176l43 227h-175l18 93h176l39 203h108l-39 -203h175l-18 -93h-175l-44 -227h175l-18 -93h-175z" />
    <glyph glyph-name="bullet" unicode="&#x2022;" horiz-adv-x="386" 
d="M295 182h-234l46 234h233z" />
    <glyph glyph-name="ellipsis" unicode="&#x2026;" horiz-adv-x="597" 
d="M105 0h-109l21 109h109zM305 0h-109l21 109h109zM504 0h-109l21 109h109z" />
    <glyph glyph-name="perthousand" unicode="&#x2030;" horiz-adv-x="1206" 
d="M101.5 351q-36.5 42 -36.5 111q0 64 25.5 120t72.5 89.5t108 33.5q69 0 106 -42.5t37 -110.5q0 -64 -26 -120t-73 -89.5t-108 -33.5q-69 0 -105.5 42zM215 0h-86l518 691h87zM274 409q26 25 40 64t14 80q0 77 -62 77q-36 0 -62 -25t-39.5 -64t-13.5 -80q0 -77 62 -77
q35 0 61 25zM491 28q-37 42 -37 111q0 64 26 120t73 89.5t108 33.5q69 0 105.5 -42.5t36.5 -110.5q0 -64 -25.5 -120t-72.5 -89.5t-108 -33.5q-69 0 -106 42zM864.5 28q-36.5 42 -36.5 111q0 64 25.5 120t72.5 89.5t108 33.5q69 0 106 -42.5t37 -110.5q0 -64 -26 -120
t-73 -89.5t-108 -33.5q-69 0 -105.5 42zM664 86q26 25 39.5 64t13.5 80q0 77 -61 77q-36 0 -62 -25t-40 -64t-14 -80q0 -37 15.5 -57t46.5 -20q36 0 62 25zM1037 86q26 25 40 64t14 80q0 37 -15.5 57t-46.5 20q-36 0 -62 -25t-40 -64t-14 -80q0 -37 15.5 -57t47.5 -20
q35 0 61 25z" />
    <glyph glyph-name="guilsinglleft" unicode="&#x2039;" horiz-adv-x="294" 
d="M221 140l-20 -99l-168 160l21 109l231 160l-21 -112l-163 -109v-2z" />
    <glyph glyph-name="guilsinglright" unicode="&#x203a;" horiz-adv-x="294" 
d="M239 200l-230 -159l21 112l162 108l1 2l-121 108l20 99l168 -161z" />
    <glyph glyph-name="fraction" unicode="&#x2044;" horiz-adv-x="209" 
d="M-122 0h-103l592 715h103z" />
    <glyph glyph-name="uni2070" unicode="&#x2070;" horiz-adv-x="405" 
d="M119 403.5q-36 42.5 -36 114.5q0 71 29 132.5t79.5 98t113.5 36.5q70 0 105 -42.5t35 -114.5q0 -71 -28 -132.5t-78 -98t-113 -36.5q-71 0 -107 42.5zM299 461q28 30 42.5 75.5t14.5 90.5q0 88 -60 88q-38 0 -66 -30t-43 -75.5t-15 -91.5q0 -87 61 -87q38 0 66 30z" />
    <glyph glyph-name="uni2074" unicode="&#x2074;" horiz-adv-x="377" 
d="M318 364h-89l17 88h-186l16 84l232 234h88l-47 -246h59l-15 -72h-58zM290 669l-144 -145h115z" />
    <glyph glyph-name="uni2075" unicode="&#x2075;" horiz-adv-x="370" 
d="M103 387.5q-37 32.5 -37 82.5q0 12 1 18h87q-2 -28 13 -45t49 -17q40 0 63.5 25t23.5 63q0 31 -15.5 46.5t-43.5 15.5q-20 0 -39.5 -8t-34.5 -23h-84l89 225h249l-14 -72h-186l-35 -88v-2q38 29 89 29q53 0 84.5 -30.5t31.5 -85.5q0 -47 -23 -85t-64.5 -59.5t-96.5 -21.5
q-70 0 -107 32.5z" />
    <glyph glyph-name="uni2076" unicode="&#x2076;" horiz-adv-x="383" 
d="M119 399.5q-36 41.5 -36 114.5q0 72 27 134t76.5 98.5t113.5 36.5q58 0 92.5 -32t33.5 -80h-89q-2 45 -50 45q-37 0 -65.5 -32.5t-38.5 -78.5l-2 -7l4 -1q19 20 46.5 32t59.5 12q54 0 85 -30.5t31 -82.5q0 -45 -23 -84t-64.5 -62.5t-94.5 -23.5q-70 0 -106 41.5z
M292.5 452q25.5 26 25.5 63q0 28 -16.5 43t-46.5 15q-38 0 -63 -23t-25 -61q0 -29 16 -46t45 -17q39 0 64.5 26z" />
    <glyph glyph-name="uni2077" unicode="&#x2077;" horiz-adv-x="319" 
d="M92 364q19 95 78.5 190t123.5 143v1h-200l14 72h295l-13 -66q-76 -54 -130.5 -146.5t-74.5 -193.5h-93z" />
    <glyph glyph-name="uni2078" unicode="&#x2078;" horiz-adv-x="378" 
d="M107 387.5q-39 27.5 -39 79.5q0 48 30.5 77.5t68.5 42.5v1q-43 26 -43 70q0 36 22.5 65t60.5 46t84 17q56 0 91 -24.5t35 -67.5q0 -41 -25 -68t-52 -39v-1q59 -29 59 -83q0 -41 -24.5 -73.5t-67.5 -51t-97 -18.5q-64 0 -103 27.5zM313.5 633.5q20.5 18.5 20.5 46.5
q0 20 -14 31.5t-40 11.5q-35 0 -55.5 -18.5t-20.5 -47.5q0 -20 14.5 -31t40.5 -11q34 0 54.5 18.5zM286.5 449q25.5 22 25.5 55q0 23 -17 36.5t-48 13.5q-39 0 -65 -21.5t-26 -54.5q0 -24 17.5 -37.5t48.5 -13.5q39 0 64.5 22z" />
    <glyph glyph-name="uni2079" unicode="&#x2079;" horiz-adv-x="383" 
d="M114.5 392q-34.5 31 -33.5 81h89q0 -21 11.5 -33t35.5 -12q38 0 66.5 32.5t38.5 78.5l2 7l-2 1q-19 -20 -46.5 -32t-60.5 -12q-54 0 -85 32t-31 87q0 43 23 81t65 60.5t95 22.5q70 0 105.5 -41.5t35.5 -117.5q0 -69 -26.5 -130.5t-75.5 -98.5t-113 -37q-59 0 -93.5 31z
M312 597q27 26 27 62q0 27 -16 43t-45 16q-39 0 -64.5 -26t-25.5 -63q0 -28 15 -43t43 -15q39 0 66 26z" />
    <glyph glyph-name="uni2080" unicode="&#x2080;" horiz-adv-x="405" 
d="M28 -65.5q-36 42.5 -36 114.5q0 71 29 132.5t79.5 98t113.5 36.5q70 0 105 -42.5t35 -114.5q0 -71 -28 -132.5t-78 -98t-113 -36.5q-71 0 -107 42.5zM208 -8q28 30 42.5 75.5t14.5 90.5q0 88 -60 88q-38 0 -66 -30t-43 -75.5t-15 -91.5q0 -87 61 -87q38 0 66 30z" />
    <glyph glyph-name="uni2081" unicode="&#x2081;" horiz-adv-x="233" 
d="M83 180q-23 -14 -89 -14l13 69q48 1 78.5 18.5t37.5 52.5h73l-78 -406h-90z" />
    <glyph glyph-name="uni2082" unicode="&#x2082;" horiz-adv-x="356" 
d="M-48 -100q9 49 34.5 82.5t52.5 51.5t85 52q55 33 79.5 57t24.5 57q0 45 -48 45q-69 0 -84 -86h-86q14 72 61.5 114.5t121.5 42.5q58 0 91.5 -26.5t33.5 -75.5q0 -58 -37 -96t-94 -72q-43 -26 -64.5 -41.5t-33.5 -31.5v-1h183l-15 -72h-305z" />
    <glyph glyph-name="uni2083" unicode="&#x2083;" horiz-adv-x="372" 
d="M14 -78.5q-39 30.5 -39 85.5q0 11 4 35h86q-3 -13 -3 -25q0 -55 65 -55q40 0 61.5 18.5t21.5 49.5q0 27 -16 37.5t-48 10.5h-28l12 63h27q36 0 55.5 16t19.5 43q0 21 -13 33t-38 12q-33 0 -53 -17t-25 -46h-85q10 59 58 96.5t120 37.5q59 0 93 -27t34 -74q0 -36 -21 -62
t-59 -38v-1q58 -20 58 -82t-48.5 -101.5t-128.5 -39.5q-71 0 -110 30.5z" />
    <glyph glyph-name="uni2084" unicode="&#x2084;" horiz-adv-x="377" 
d="M228 -100h-89l17 88h-186l16 84l232 234h88l-47 -246h59l-15 -72h-58zM200 205l-144 -145h115z" />
    <glyph glyph-name="uni2085" unicode="&#x2085;" horiz-adv-x="370" 
d="M13 -76.5q-37 32.5 -37 82.5q0 12 1 18h87q-2 -28 13 -45t49 -17q40 0 63.5 25t23.5 63q0 31 -15.5 46.5t-43.5 15.5q-20 0 -39.5 -8t-34.5 -23h-84l89 225h249l-14 -72h-186l-35 -88v-2q38 29 89 29q53 0 84.5 -30.5t31.5 -85.5q0 -47 -23 -85t-64.5 -59.5t-96.5 -21.5
q-70 0 -107 32.5z" />
    <glyph glyph-name="uni2086" unicode="&#x2086;" horiz-adv-x="383" 
d="M29 -67.5q-36 41.5 -36 114.5q0 72 27 134t76.5 98.5t113.5 36.5q58 0 92.5 -32t33.5 -80h-89q-2 45 -50 45q-37 0 -65.5 -32.5t-38.5 -78.5l-2 -7l4 -1q19 20 46.5 32t59.5 12q54 0 85 -30.5t31 -82.5q0 -45 -23 -84t-64.5 -62.5t-94.5 -23.5q-70 0 -106 41.5z
M202.5 -15q25.5 26 25.5 63q0 28 -16.5 43t-46.5 15q-38 0 -63 -23t-25 -61q0 -29 16 -46t45 -17q39 0 64.5 26z" />
    <glyph glyph-name="uni2087" unicode="&#x2087;" horiz-adv-x="319" 
d="M2 -100q19 95 78.5 190t123.5 143v1h-200l14 72h295l-13 -66q-76 -54 -130.5 -146.5t-74.5 -193.5h-93z" />
    <glyph glyph-name="uni2088" unicode="&#x2088;" horiz-adv-x="378" 
d="M16 -81.5q-39 27.5 -39 79.5q0 48 30.5 77.5t68.5 42.5v1q-43 26 -43 70q0 36 22.5 65t60.5 46t84 17q56 0 91 -24.5t35 -67.5q0 -41 -25 -68t-52 -39v-1q59 -29 59 -83q0 -41 -24.5 -73.5t-67.5 -51t-97 -18.5q-64 0 -103 27.5zM222.5 164.5q20.5 18.5 20.5 46.5
q0 20 -14 31.5t-40 11.5q-35 0 -55.5 -18.5t-20.5 -47.5q0 -20 14.5 -31t40.5 -11q34 0 54.5 18.5zM195.5 -20q25.5 22 25.5 55q0 23 -17 36.5t-48 13.5q-39 0 -65 -21.5t-26 -54.5q0 -24 17.5 -37.5t48.5 -13.5q39 0 64.5 22z" />
    <glyph glyph-name="uni2089" unicode="&#x2089;" horiz-adv-x="383" 
d="M23.5 -78q-34.5 31 -33.5 81h89q0 -21 11.5 -33t35.5 -12q38 0 66.5 32.5t38.5 78.5l2 7l-2 1q-19 -20 -46.5 -32t-60.5 -12q-54 0 -85 32t-31 87q0 43 23 81t65 60.5t95 22.5q70 0 105.5 -41.5t35.5 -117.5q0 -69 -26.5 -130.5t-75.5 -98.5t-113 -37q-59 0 -93.5 31z
M221 127q27 26 27 62q0 27 -16 43t-45 16q-39 0 -64.5 -26t-25.5 -63q0 -28 15 -43t43 -15q39 0 66 26z" />
    <glyph glyph-name="Euro" unicode="&#x20ac;" horiz-adv-x="667" 
d="M558 453q2 65 -20.5 109t-89.5 44q-63 0 -115.5 -48t-83.5 -129h191l-12 -61h-197q-7 -25 -10 -59h197l-13 -61h-188v-1q0 -81 29 -124.5t96 -43.5t110.5 44t64.5 126h109q-34 -122 -111 -192.5t-190 -70.5q-108 0 -162.5 67.5t-54.5 194.5h-61l12 61h52q3 31 9 59h-50
l11 61h56q41 121 128 195.5t195 74.5q98 0 152 -56t54 -155q0 -11 -2 -35h-106z" />
    <glyph glyph-name="trademark" unicode="&#x2122;" horiz-adv-x="662" 
d="M206 436h-70l42 217h-84l11 62h240l-12 -62h-84zM393 436h-66l54 279h97l20 -191h2l96 191h96l-54 -279h-66l38 198h-2l-98 -198h-57l-20 198h-2z" />
    <glyph glyph-name="uni2126" unicode="&#x2126;" horiz-adv-x="796" 
d="M-13 0l19 95h163q-101 73 -101 214q0 111 55.5 207.5t151.5 154.5t212 58q88 0 152.5 -34.5t99 -97t34.5 -144.5q0 -104 -52.5 -203t-139.5 -155h146l-19 -95h-295l16 83q107 52 169.5 143.5t62.5 204.5q0 99 -48.5 150.5t-138.5 51.5q-89 0 -156 -47.5t-103.5 -125
t-36.5 -164.5q0 -80 30.5 -128t88.5 -85l-15 -83h-295z" />
    <glyph glyph-name="oneeighth" unicode="&#x215b;" horiz-adv-x="807" 
d="M169 589q-23 -14 -89 -14l13 69q48 1 78.5 18.5t37.5 52.5h73l-78 -406h-90zM125 0h-103l592 715h103zM466 18.5q-39 27.5 -39 79.5q0 48 30.5 77.5t68.5 42.5v1q-43 26 -43 70q0 36 22.5 65t60.5 46t84 17q56 0 91 -24.5t35 -67.5q0 -41 -25 -68t-52 -39v-1
q59 -29 59 -83q0 -41 -24.5 -73.5t-67.5 -51t-97 -18.5q-64 0 -103 27.5zM672.5 264.5q20.5 18.5 20.5 46.5q0 20 -14 31.5t-40 11.5q-35 0 -55.5 -18.5t-20.5 -47.5q0 -20 14.5 -31t40.5 -11q34 0 54.5 18.5zM645.5 80q25.5 22 25.5 55q0 23 -17 36.5t-48 13.5
q-39 0 -65 -21.5t-26 -54.5q0 -24 17.5 -37.5t48.5 -13.5q39 0 64.5 22z" />
    <glyph glyph-name="threeeighths" unicode="&#x215c;" horiz-adv-x="924" 
d="M100 331.5q-39 30.5 -39 85.5q0 11 4 35h86q-3 -13 -3 -25q0 -55 65 -55q40 0 61.5 18.5t21.5 49.5q0 27 -16 37.5t-48 10.5h-28l12 63h27q36 0 55.5 16t19.5 43q0 21 -13 33t-38 12q-33 0 -53 -17t-25 -46h-85q10 59 58 96.5t120 37.5q59 0 93 -27t34 -74q0 -36 -21 -62
t-59 -38v-1q58 -20 58 -82t-48.5 -101.5t-128.5 -39.5q-71 0 -110 30.5zM255 0h-103l592 715h103zM581 18.5q-39 27.5 -39 79.5q0 48 30.5 77.5t68.5 42.5v1q-43 26 -43 70q0 36 22.5 65t60.5 46t84 17q56 0 91 -24.5t35 -67.5q0 -41 -25 -68t-52 -39v-1q59 -29 59 -83
q0 -41 -24.5 -73.5t-67.5 -51t-97 -18.5q-64 0 -103 27.5zM787.5 264.5q20.5 18.5 20.5 46.5q0 20 -14 31.5t-40 11.5q-35 0 -55.5 -18.5t-20.5 -47.5q0 -20 14.5 -31t40.5 -11q34 0 54.5 18.5zM760.5 80q25.5 22 25.5 55q0 23 -17 36.5t-48 13.5q-39 0 -65 -21.5t-26 -54.5
q0 -24 17.5 -37.5t48.5 -13.5q39 0 64.5 22z" />
    <glyph glyph-name="fiveeighths" unicode="&#x215d;" horiz-adv-x="902" 
d="M91 332.5q-37 32.5 -37 82.5q0 12 1 18h87q-2 -28 13 -45t49 -17q40 0 63.5 25t23.5 63q0 31 -15.5 46.5t-43.5 15.5q-20 0 -39.5 -8t-34.5 -23h-84l89 225h249l-14 -72h-186l-35 -88v-2q38 29 89 29q53 0 84.5 -30.5t31.5 -85.5q0 -47 -23 -85t-64.5 -59.5t-96.5 -21.5
q-70 0 -107 32.5zM237 0h-103l592 715h103zM560 18.5q-39 27.5 -39 79.5q0 48 30.5 77.5t68.5 42.5v1q-43 26 -43 70q0 36 22.5 65t60.5 46t84 17q56 0 91 -24.5t35 -67.5q0 -41 -25 -68t-52 -39v-1q59 -29 59 -83q0 -41 -24.5 -73.5t-67.5 -51t-97 -18.5q-64 0 -103 27.5z
M766.5 264.5q20.5 18.5 20.5 46.5q0 20 -14 31.5t-40 11.5q-35 0 -55.5 -18.5t-20.5 -47.5q0 -20 14.5 -31t40.5 -11q34 0 54.5 18.5zM739.5 80q25.5 22 25.5 55q0 23 -17 36.5t-48 13.5q-39 0 -65 -21.5t-26 -54.5q0 -24 17.5 -37.5t48.5 -13.5q39 0 64.5 22z" />
    <glyph glyph-name="seveneighths" unicode="&#x215e;" horiz-adv-x="822" 
d="M87 309q19 95 78.5 190t123.5 143v1h-200l14 72h295l-13 -66q-76 -54 -130.5 -146.5t-74.5 -193.5h-93zM141 0h-103l592 715h103zM482 18.5q-39 27.5 -39 79.5q0 48 30.5 77.5t68.5 42.5v1q-43 26 -43 70q0 36 22.5 65t60.5 46t84 17q56 0 91 -24.5t35 -67.5
q0 -41 -25 -68t-52 -39v-1q59 -29 59 -83q0 -41 -24.5 -73.5t-67.5 -51t-97 -18.5q-64 0 -103 27.5zM688.5 264.5q20.5 18.5 20.5 46.5q0 20 -14 31.5t-40 11.5q-35 0 -55.5 -18.5t-20.5 -47.5q0 -20 14.5 -31t40.5 -11q34 0 54.5 18.5zM661.5 80q25.5 22 25.5 55
q0 23 -17 36.5t-48 13.5q-39 0 -65 -21.5t-26 -54.5q0 -24 17.5 -37.5t48.5 -13.5q39 0 64.5 22z" />
    <glyph glyph-name="arrowleft" unicode="&#x2190;" horiz-adv-x="780" 
d="M328 96l-70 -56l-204 279l312 279l49 -55l-207 -183h545l-17 -81h-544z" />
    <glyph glyph-name="arrowup" unicode="&#x2191;" horiz-adv-x="602" 
d="M291 0h-82l107 545l-216 -172l-45 60l330 258l229 -258l-67 -60l-150 172z" />
    <glyph glyph-name="arrowright" unicode="&#x2192;" horiz-adv-x="779" 
d="M750 319l-313 -279l-48 56l207 183h-545l17 81h544l-136 183l69 55z" />
    <glyph glyph-name="arrowdown" unicode="&#x2193;" horiz-adv-x="607" 
d="M576 218l-330 -258l-228 258l67 60l149 -172l107 545h81l-106 -545l215 172z" />
    <glyph glyph-name="arrowboth" unicode="&#x2194;" horiz-adv-x="1159" 
d="M325 96l-69 -56l-205 279l312 279l49 -55l-207 -183h788l-136 183l70 55l204 -279l-312 -279l-49 56l207 183h-788z" />
    <glyph glyph-name="arrowupdn" unicode="&#x2195;" horiz-adv-x="606" 
d="M548 81l-330 -258l-229 258l67 60l150 -172l131 671l-216 -172l-45 60l330 258l229 -258l-67 -60l-150 172l-131 -671l216 172z" />
    <glyph glyph-name="uni2196" unicode="&#x2196;" horiz-adv-x="597" 
d="M546 128l-68 -58l-309 386l-49 -247l-78 -1l74 382h382l-15 -77h-248z" />
    <glyph glyph-name="uni2197" unicode="&#x2197;" horiz-adv-x="597" 
d="M506 456l-460 -386l-45 58l461 385h-249l15 77h382l-74 -382l-78 1z" />
    <glyph glyph-name="uni2198" unicode="&#x2198;" horiz-adv-x="606" 
d="M507 54h-382l16 77h248l-312 385l69 58l309 -386l48 247l79 1z" />
    <glyph glyph-name="uni2199" unicode="&#x2199;" horiz-adv-x="606" 
d="M401 54h-382l74 382l78 -1l-48 -247l460 386l46 -58l-462 -385h249z" />
    <glyph glyph-name="partialdiff" unicode="&#x2202;" horiz-adv-x="546" 
d="M67 35q-52 49 -52 140q0 79 38 147t102 108.5t139 40.5q104 0 139 -83q-1 113 -53 168.5t-154 73.5l16 85q144 -19 215 -97t71 -215q0 -110 -42 -206t-116 -153.5t-165 -57.5q-86 0 -138 49zM310 98.5q44 29.5 70.5 78t26.5 101.5q0 51 -26 80.5t-77 29.5
q-50 0 -94 -28.5t-70 -76.5t-26 -103t27 -83t75 -28q50 0 94 29.5z" />
    <glyph glyph-name="emptyset" unicode="&#x2205;" horiz-adv-x="838" 
d="M840 650l-77 -65q49 -73 49 -171q0 -112 -61 -211t-163.5 -158t-220.5 -59q-69 0 -126 21t-98 60l-78 -65l-31 39l76 64q-50 72 -50 172q0 112 61.5 211t164.5 158t221 59q68 0 125 -21t98 -60l79 66zM154 142l532 445q-33 31 -80.5 47.5t-104.5 16.5q-104 0 -192.5 -51
t-140.5 -136t-52 -182q0 -84 38 -140zM719 549l-533 -445q70 -64 186 -64q105 0 193.5 51t140 135.5t51.5 181.5q0 83 -38 141z" />
    <glyph glyph-name="uni2206" unicode="&#x2206;" horiz-adv-x="644" 
d="M346 715h127l119 -621l-18 -94h-604l18 94zM394 613h-8l-289 -519h384z" />
    <glyph glyph-name="product" unicode="&#x220f;" horiz-adv-x="716" 
d="M111 -100h-108l158 815h572l-158 -815h-108l141 722h-357z" />
    <glyph glyph-name="summation" unicode="&#x2211;" horiz-adv-x="601" 
d="M503 -100h-540l18 96l334 319v2l-213 303l19 95h530l-17 -93h-404l-1 -2l189 -274l-10 -54l-307 -297v-2h421z" />
    <glyph glyph-name="minus" unicode="&#x2212;" horiz-adv-x="560" 
d="M515 280h-461l17 93h462z" />
    <glyph glyph-name="uni2219" unicode="&#x2219;" horiz-adv-x="306" 
d="M213 292h-109l21 109h109z" />
    <glyph glyph-name="radical" unicode="&#x221a;" horiz-adv-x="638" 
d="M268 -100h-99l-56 332h-74l18 93h142l44 -292h2l350 682h109z" />
    <glyph glyph-name="infinity" unicode="&#x221e;" horiz-adv-x="743" 
d="M82.5 163q-33.5 35 -33.5 106q0 55 25.5 104t69 78.5t96.5 29.5q55 0 90 -30t64 -74h2q48 47 93.5 75.5t100.5 28.5q54 0 88 -34.5t34 -105.5q0 -56 -25.5 -105t-69.5 -78.5t-95 -29.5q-38 0 -66.5 17.5t-43 35.5t-42.5 60h-2q-40 -38 -64.5 -58t-60.5 -37.5t-75 -17.5
q-52 0 -85.5 35zM261 236.5q29 20.5 49.5 41.5t26.5 27q-3 5 -19 31.5t-37.5 42.5t-46.5 16q-40 0 -68 -33.5t-28 -79.5q0 -33 16 -49.5t44 -16.5q34 0 63 20.5zM595.5 249q27.5 33 27.5 79q0 33 -16 50t-44 17q-34 0 -62.5 -20.5t-49.5 -42t-27 -27.5q17 -28 28.5 -45
t31 -30.5t45.5 -13.5q39 0 66.5 33z" />
    <glyph glyph-name="integral" unicode="&#x222b;" horiz-adv-x="377" 
d="M-66 -165l17 89q15 -5 35 -5q45 0 69.5 27.5t34.5 80.5l105 543q15 78 61 123.5t121 45.5q48 0 76 -10l-17 -89q-16 5 -35 5q-83 0 -104 -108l-105 -543q-17 -85 -61 -127t-122 -42q-47 0 -75 10z" />
    <glyph glyph-name="approxequal" unicode="&#x2248;" horiz-adv-x="584" 
d="M70 327q10 55 44 92t96 37q25 0 51.5 -5t64.5 -15q38 -9 61 -13.5t45 -4.5q29 0 43 11t19 34h77q-11 -55 -45.5 -91.5t-95.5 -36.5q-24 0 -47 4.5t-68 14.5q-37 9 -61 13.5t-46 4.5q-30 0 -43.5 -11t-17.5 -34h-77zM37 157q10 55 44 91.5t95 36.5q24 0 48 -4.5t68 -14.5
q39 -9 62.5 -13.5t45.5 -4.5q27 0 41.5 10.5t18.5 34.5h77q-10 -55 -44 -92t-96 -37q-24 0 -48 4.5t-66 14.5q-36 9 -60.5 14t-47.5 5q-29 0 -43 -11t-19 -34h-76z" />
    <glyph glyph-name="notequal" unicode="&#x2260;" horiz-adv-x="557" 
d="M545 452l-17 -93h-174l-43 -65h202l-17 -92h-246l-69 -104h-76l69 104h-129l17 92h173l43 65h-201l17 93h245l70 105h77l-70 -105h129z" />
    <glyph glyph-name="lessequal" unicode="&#x2264;" horiz-adv-x="500" 
d="M441 201l-18 -89l-377 159l20 104l439 158l-18 -97l-349 -116l-1 -2zM402 0h-409l16 81h409z" />
    <glyph glyph-name="greaterequal" unicode="&#x2265;" horiz-adv-x="497" 
d="M460 270l-439 -158l18 97l349 116l1 2l-304 117l17 89l378 -159zM407 0h-408l16 81h408z" />
    <glyph glyph-name="uni2266" unicode="&#x2266;" horiz-adv-x="563" 
d="M521 354l-18 -93l-418 157l21 106l479 159l-19 -94l-377 -117v-2zM481 146h-449l17 88h449zM452 0h-448l17 88h448z" />
    <glyph glyph-name="uni2267" unicode="&#x2267;" horiz-adv-x="560" 
d="M540 418l-480 -158l18 94l378 116l1 2l-333 117l18 94l418 -159zM487 146h-449l17 88h449zM458 0h-449l18 88h449z" />
    <glyph glyph-name="uni2460" unicode="&#x2460;" horiz-adv-x="852" 
d="M216 22.5q-73 36.5 -113.5 107t-40.5 169.5q0 118 56.5 217.5t157 158t227.5 58.5q98 0 171.5 -36.5t114 -107t40.5 -169.5q0 -118 -57 -217.5t-157.5 -158t-227.5 -58.5q-98 0 -171 36.5zM577 110q80 49 122.5 131t42.5 178q0 117 -64 178t-180 61q-105 0 -185 -49
t-122.5 -131t-42.5 -178q0 -117 64.5 -178t179.5 -61q105 0 185 49zM426 438q-23 -14 -89 -14l13 69q48 1 78.5 18.5t37.5 52.5h73l-78 -406h-90z" />
    <glyph glyph-name="uni2461" unicode="&#x2461;" horiz-adv-x="852" 
d="M216 22.5q-73 36.5 -113.5 107t-40.5 169.5q0 118 56.5 217.5t157 158t227.5 58.5q98 0 171.5 -36.5t114 -107t40.5 -169.5q0 -118 -57 -217.5t-157.5 -158t-227.5 -58.5q-98 0 -171 36.5zM577 110q80 49 122.5 131t42.5 178q0 117 -64 178t-180 61q-105 0 -185 -49
t-122.5 -131t-42.5 -178q0 -117 64.5 -178t179.5 -61q105 0 185 49zM257 158q9 49 34.5 82.5t52.5 51.5t85 52q55 33 79.5 57t24.5 57q0 45 -48 45q-69 0 -84 -86h-86q14 72 61.5 114.5t121.5 42.5q58 0 91.5 -26.5t33.5 -75.5q0 -58 -37 -96t-94 -72q-43 -26 -64.5 -41.5
t-33.5 -31.5v-1h183l-15 -72h-305z" />
    <glyph glyph-name="uni2462" unicode="&#x2462;" horiz-adv-x="852" 
d="M216 22.5q-73 36.5 -113.5 107t-40.5 169.5q0 118 56.5 217.5t157 158t227.5 58.5q98 0 171.5 -36.5t114 -107t40.5 -169.5q0 -118 -57 -217.5t-157.5 -158t-227.5 -58.5q-98 0 -171 36.5zM577 110q80 49 122.5 131t42.5 178q0 117 -64 178t-180 61q-105 0 -185 -49
t-122.5 -131t-42.5 -178q0 -117 64.5 -178t179.5 -61q105 0 185 49zM310 178.5q-39 30.5 -39 85.5q0 11 4 35h86q-3 -13 -3 -25q0 -55 65 -55q40 0 61.5 18.5t21.5 49.5q0 27 -16 37.5t-48 10.5h-28l12 63h27q36 0 55.5 16t19.5 43q0 21 -13 33t-38 12q-33 0 -53 -17
t-25 -46h-85q10 59 58 96.5t120 37.5q59 0 93 -27t34 -74q0 -36 -21 -62t-59 -38v-1q58 -20 58 -82t-48.5 -101.5t-128.5 -39.5q-71 0 -110 30.5z" />
    <glyph glyph-name="uni2463" unicode="&#x2463;" horiz-adv-x="852" 
d="M216 22.5q-73 36.5 -113.5 107t-40.5 169.5q0 118 56.5 217.5t157 158t227.5 58.5q98 0 171.5 -36.5t114 -107t40.5 -169.5q0 -118 -57 -217.5t-157.5 -158t-227.5 -58.5q-98 0 -171 36.5zM577 110q80 49 122.5 131t42.5 178q0 117 -64 178t-180 61q-105 0 -185 -49
t-122.5 -131t-42.5 -178q0 -117 64.5 -178t179.5 -61q105 0 185 49zM510 157h-89l17 88h-186l16 84l232 234h88l-47 -246h59l-15 -72h-58zM482 462l-144 -145h115z" />
    <glyph glyph-name="uni2464" unicode="&#x2464;" horiz-adv-x="852" 
d="M216 22.5q-73 36.5 -113.5 107t-40.5 169.5q0 118 56.5 217.5t157 158t227.5 58.5q98 0 171.5 -36.5t114 -107t40.5 -169.5q0 -118 -57 -217.5t-157.5 -158t-227.5 -58.5q-98 0 -171 36.5zM577 110q80 49 122.5 131t42.5 178q0 117 -64 178t-180 61q-105 0 -185 -49
t-122.5 -131t-42.5 -178q0 -117 64.5 -178t179.5 -61q105 0 185 49zM304 180.5q-37 32.5 -37 82.5q0 12 1 18h87q-2 -28 13 -45t49 -17q40 0 63.5 25t23.5 63q0 31 -15.5 46.5t-43.5 15.5q-20 0 -39.5 -8t-34.5 -23h-84l89 225h249l-14 -72h-186l-35 -88v-2q38 29 89 29
q53 0 84.5 -30.5t31.5 -85.5q0 -47 -23 -85t-64.5 -59.5t-96.5 -21.5q-70 0 -107 32.5z" />
    <glyph glyph-name="uni2465" unicode="&#x2465;" horiz-adv-x="852" 
d="M216 22.5q-73 36.5 -113.5 107t-40.5 169.5q0 118 56.5 217.5t157 158t227.5 58.5q98 0 171.5 -36.5t114 -107t40.5 -169.5q0 -118 -57 -217.5t-157.5 -158t-227.5 -58.5q-98 0 -171 36.5zM577 110q80 49 122.5 131t42.5 178q0 117 -64 178t-180 61q-105 0 -185 -49
t-122.5 -131t-42.5 -178q0 -117 64.5 -178t179.5 -61q105 0 185 49zM309 188.5q-36 41.5 -36 114.5q0 72 27 134t76.5 98.5t113.5 36.5q58 0 92.5 -32t33.5 -80h-89q-2 45 -50 45q-37 0 -65.5 -32.5t-38.5 -78.5l-2 -7l4 -1q19 20 46.5 32t59.5 12q54 0 85 -30.5t31 -82.5
q0 -45 -23 -84t-64.5 -62.5t-94.5 -23.5q-70 0 -106 41.5zM482.5 241q25.5 26 25.5 63q0 28 -16.5 43t-46.5 15q-38 0 -63 -23t-25 -61q0 -29 16 -46t45 -17q39 0 64.5 26z" />
    <glyph glyph-name="uni2466" unicode="&#x2466;" horiz-adv-x="852" 
d="M216 22.5q-73 36.5 -113.5 107t-40.5 169.5q0 118 56.5 217.5t157 158t227.5 58.5q98 0 171.5 -36.5t114 -107t40.5 -169.5q0 -118 -57 -217.5t-157.5 -158t-227.5 -58.5q-98 0 -171 36.5zM577 110q80 49 122.5 131t42.5 178q0 117 -64 178t-180 61q-105 0 -185 -49
t-122.5 -131t-42.5 -178q0 -117 64.5 -178t179.5 -61q105 0 185 49zM314 148q19 95 78.5 190t123.5 143v1h-200l14 72h295l-13 -66q-76 -54 -130.5 -146.5t-74.5 -193.5h-93z" />
    <glyph glyph-name="uni2467" unicode="&#x2467;" horiz-adv-x="852" 
d="M216 22.5q-73 36.5 -113.5 107t-40.5 169.5q0 118 56.5 217.5t157 158t227.5 58.5q98 0 171.5 -36.5t114 -107t40.5 -169.5q0 -118 -57 -217.5t-157.5 -158t-227.5 -58.5q-98 0 -171 36.5zM577 110q80 49 122.5 131t42.5 178q0 117 -64 178t-180 61q-105 0 -185 -49
t-122.5 -131t-42.5 -178q0 -117 64.5 -178t179.5 -61q105 0 185 49zM300 175.5q-39 27.5 -39 79.5q0 48 30.5 77.5t68.5 42.5v1q-43 26 -43 70q0 36 22.5 65t60.5 46t84 17q56 0 91 -24.5t35 -67.5q0 -41 -25 -68t-52 -39v-1q59 -29 59 -83q0 -41 -24.5 -73.5t-67.5 -51
t-97 -18.5q-64 0 -103 27.5zM506.5 421.5q20.5 18.5 20.5 46.5q0 20 -14 31.5t-40 11.5q-35 0 -55.5 -18.5t-20.5 -47.5q0 -20 14.5 -31t40.5 -11q34 0 54.5 18.5zM479.5 237q25.5 22 25.5 55q0 23 -17 36.5t-48 13.5q-39 0 -65 -21.5t-26 -54.5q0 -24 17.5 -37.5
t48.5 -13.5q39 0 64.5 22z" />
    <glyph glyph-name="uni2468" unicode="&#x2468;" horiz-adv-x="852" 
d="M216 22.5q-73 36.5 -113.5 107t-40.5 169.5q0 118 56.5 217.5t157 158t227.5 58.5q98 0 171.5 -36.5t114 -107t40.5 -169.5q0 -118 -57 -217.5t-157.5 -158t-227.5 -58.5q-98 0 -171 36.5zM577 110q80 49 122.5 131t42.5 178q0 117 -64 178t-180 61q-105 0 -185 -49
t-122.5 -131t-42.5 -178q0 -117 64.5 -178t179.5 -61q105 0 185 49zM308.5 178q-34.5 31 -33.5 81h89q0 -21 11.5 -33t35.5 -12q38 0 66.5 32.5t38.5 78.5l2 7l-2 1q-19 -20 -46.5 -32t-60.5 -12q-54 0 -85 32t-31 87q0 43 23 81t65 60.5t95 22.5q70 0 105.5 -41.5
t35.5 -117.5q0 -69 -26.5 -130.5t-75.5 -98.5t-113 -37q-59 0 -93.5 31zM506 383q27 26 27 62q0 27 -16 43t-45 16q-39 0 -64.5 -26t-25.5 -63q0 -28 15 -43t43 -15q39 0 66 26z" />
    <glyph glyph-name="uni24EA" unicode="&#x24ea;" horiz-adv-x="852" 
d="M216 22.5q-73 36.5 -113.5 107t-40.5 169.5q0 118 56.5 217.5t157 158t227.5 58.5q98 0 171.5 -36.5t114 -107t40.5 -169.5q0 -118 -57 -217.5t-157.5 -158t-227.5 -58.5q-98 0 -171 36.5zM577 110q80 49 122.5 131t42.5 178q0 117 -64 178t-180 61q-105 0 -185 -49
t-122.5 -131t-42.5 -178q0 -117 64.5 -178t179.5 -61q105 0 185 49zM300 191.5q-36 42.5 -36 114.5q0 71 29 132.5t79.5 98t113.5 36.5q70 0 105 -42.5t35 -114.5q0 -71 -28 -132.5t-78 -98t-113 -36.5q-71 0 -107 42.5zM480 249q28 30 42.5 75.5t14.5 90.5q0 88 -60 88
q-38 0 -66 -30t-43 -75.5t-15 -91.5q0 -87 61 -87q38 0 66 30z" />
    <glyph glyph-name="upblock" unicode="&#x2580;" horiz-adv-x="835" 
d="M793 357h-715l70 358h715z" />
    <glyph glyph-name="dnblock" unicode="&#x2584;" horiz-adv-x="837" 
d="M726 0h-715l70 358h715z" />
    <glyph glyph-name="block" unicode="&#x2588;" horiz-adv-x="858" 
d="M737 0h-715l139 715h715z" />
    <glyph glyph-name="filledbox" unicode="&#x25a0;" horiz-adv-x="858" 
d="M737 0h-715l139 715h715z" />
    <glyph glyph-name="uni25A1" unicode="&#x25a1;" horiz-adv-x="858" 
d="M737 0h-715l139 715h715zM232 626l-104 -537h537l104 537h-537z" />
    <glyph glyph-name="uni25AA" unicode="&#x25aa;" horiz-adv-x="346" 
d="M279 203h-234l46 234h233z" />
    <glyph glyph-name="uni25AB" unicode="&#x25ab;" horiz-adv-x="386" 
d="M315 183h-274l53 274h274zM166 368l-18 -96h95l18 96h-95z" />
    <glyph glyph-name="triagup" unicode="&#x25b2;" horiz-adv-x="830" 
d="M766 0h-800l539 715z" />
    <glyph glyph-name="triagrt" unicode="&#x25ba;" horiz-adv-x="833" 
d="M819 358l-793 -400l156 800z" />
    <glyph glyph-name="triagdn" unicode="&#x25bc;" horiz-adv-x="830" 
d="M904 715l-539 -715l-261 715h800z" />
    <glyph glyph-name="triaglf" unicode="&#x25c4;" horiz-adv-x="833" 
d="M846 757l-156 -800l-637 400z" />
    <glyph glyph-name="lozenge" unicode="&#x25ca;" horiz-adv-x="587" 
d="M297 0h-106l-133 358l271 357h107l132 -358zM167 359l95 -266h2l195 262l-94 267h-2z" />
    <glyph glyph-name="circle" unicode="&#x25cb;" horiz-adv-x="852" 
d="M216 22.5q-73 36.5 -113.5 107t-40.5 169.5q0 118 56.5 217.5t157 158t227.5 58.5q98 0 171.5 -36.5t114 -107t40.5 -169.5q0 -118 -57 -217.5t-157.5 -158t-227.5 -58.5q-98 0 -171 36.5zM577 110q80 49 122.5 131t42.5 178q0 117 -64 178t-180 61q-105 0 -185 -49
t-122.5 -131t-42.5 -178q0 -117 64.5 -178t179.5 -61q105 0 185 49z" />
    <glyph glyph-name="uni25CF" unicode="&#x25cf;" horiz-adv-x="838" 
d="M207.5 25q-70.5 39 -109.5 107.5t-39 153.5q0 112 64 214.5t168.5 165.5t219.5 63q89 0 158.5 -39.5t108.5 -108t39 -153.5q0 -112 -64 -214t-168 -165t-218 -63q-89 0 -159.5 39z" />
    <glyph glyph-name="uni2B0E" unicode="&#x2b0e;" horiz-adv-x="655" 
d="M361 146l213 169l44 -60l-330 -258l-228 258l67 60l145 -169l56 287h-273l14 79h364z" />
    <glyph glyph-name="uni2B0F" unicode="&#x2b0f;" horiz-adv-x="662" 
d="M67 257l329 258l229 -258l-67 -60l-146 169l-71 -366h-364l16 79h273l56 287l-211 -169z" />
    <glyph glyph-name="uni2B10" unicode="&#x2b10;" horiz-adv-x="662" 
d="M682 508l-16 -79h-273l-56 -287l211 169l44 -60l-329 -258l-229 258l68 60l146 -169l71 366h363z" />
    <glyph glyph-name="uni2B11" unicode="&#x2b11;" horiz-adv-x="656" 
d="M381 364l-56 -286h273l-14 -80h-364l72 366l-213 -168l-44 59l330 258l228 -258l-67 -59z" />
    <glyph glyph-name="uni2BA0" unicode="&#x2ba0;" horiz-adv-x="604" 
d="M533 572h79l-54 -275l-17 -89h-365l133 -179l-70 -55l-204 279l313 279l48 -56l-204 -179h287z" />
    <glyph glyph-name="uni2BA1" unicode="&#x2ba1;" horiz-adv-x="603" 
d="M292 478l69 56l205 -279l-313 -279l-48 56l203 179h-366l12 63l1 6l4 20l54 274h79l-53 -274h286z" />
    <glyph glyph-name="uni2BA2" unicode="&#x2ba2;" horiz-adv-x="603" 
d="M197 311h366l-14 -70l-57 -294h-79l53 275h-287l134 -179l-70 -56l-204 279l312 279l49 -55z" />
    <glyph glyph-name="uni2BA3" unicode="&#x2ba3;" horiz-adv-x="603" 
d="M294 490l71 55l204 -279l-314 -279l-48 56l204 179h-286l-54 -275h-79l53 275l17 89h366z" />
    <glyph glyph-name="uni2BA4" unicode="&#x2ba4;" horiz-adv-x="655" 
d="M380 364l-56 -287h274l-15 -79h-364l72 366l-212 -169l-45 60l330 258l228 -258l-67 -60z" />
    <glyph glyph-name="uni2BA5" unicode="&#x2ba5;" horiz-adv-x="662" 
d="M67 257l329 258l229 -258l-67 -60l-146 169l-71 -366h-364l16 79h273l56 287l-211 -169z" />
    <glyph glyph-name="uni2BA6" unicode="&#x2ba6;" horiz-adv-x="662" 
d="M682 508l-16 -79h-273l-56 -287l211 169l44 -60l-329 -258l-229 258l68 60l146 -169l71 366h363z" />
    <glyph glyph-name="uni2BA7" unicode="&#x2ba7;" horiz-adv-x="655" 
d="M361 146l213 169l44 -60l-330 -258l-228 258l67 60l145 -169l56 287h-273l14 79h364z" />
    <glyph glyph-name="fi" unicode="&#xfb01;" horiz-adv-x="501" 
d="M272 625q-13 -15 -21 -56l-12 -59h96l-16 -81h-95l-84 -429h-98l83 429h-70l16 81h70l12 62q17 84 55.5 117t103.5 33q24 0 62 -7l-15 -78q-27 3 -39 3q-35 0 -48 -15zM396 0h-98l99 510h98zM519 601h-111l21 106h111z" />
    <glyph glyph-name="fl" unicode="&#xfb02;" horiz-adv-x="502" 
d="M272 625q-13 -15 -21 -56l-12 -59h96l-16 -81h-95l-84 -429h-98l83 429h-70l16 81h70l12 62q17 84 55.5 117t103.5 33q24 0 62 -7l-15 -78q-27 3 -39 3q-35 0 -48 -15zM396 0h-98l139 715h98z" />
    <glyph glyph-name="uniFEFF" unicode="&#xfeff;" 
 />
    <glyph glyph-name="u1F150" unicode="&#x1f150;" horiz-adv-x="565" 
d="M191 305q-42 23 -65.5 64t-23.5 93q0 72 37 134t100 98.5t135 36.5q54 0 96.5 -23t66 -64t23.5 -93q0 -72 -37.5 -134t-100 -98.5t-135.5 -36.5q-54 0 -96 23z" />
    <glyph glyph-name="Adieresis.ss02" horiz-adv-x="660" 
d="M72 0h-116l402 715h120l127 -715h-116l-25 172h-299zM399 613l-184 -348h235l-49 348h-2zM319 814q-12 12 -12 31q0 28 19 48t49 20q22 0 34 -12t12 -32q0 -27 -19 -47t-49 -20q-22 0 -34 12zM483.5 814q-11.5 12 -11.5 30q0 29 19 49t49 20q22 0 34 -12t12 -32
q0 -26 -19.5 -46.5t-48.5 -20.5q-23 0 -34.5 12z" />
    <glyph glyph-name="Cdotaccent.ss02" horiz-adv-x="710" 
d="M122 63.5q-73 77.5 -73 215.5q0 121 54.5 224.5t149.5 164.5t210 61q88 0 148.5 -35t89 -94t22.5 -128h-112q1 72 -39 117t-122 45q-84 0 -150.5 -47t-103.5 -127.5t-37 -176.5q0 -97 42 -149.5t136 -52.5q96 0 153 51.5t80 127.5h113q-23 -80 -73.5 -142t-123.5 -97
t-161 -35q-130 0 -203 77.5zM448 813q-12 12 -12 31q0 28 19.5 48.5t49.5 20.5q22 0 34 -12t12 -31q0 -28 -19.5 -48.5t-49.5 -20.5q-22 0 -34 12z" />
    <glyph glyph-name="Edieresis.ss02" horiz-adv-x="620" 
d="M538 0h-516l139 715h505l-19 -95h-395l-38 -203h346l-19 -95h-346l-44 -227h406zM312 814q-12 12 -12 31q0 28 19 48t49 20q22 0 34 -12t12 -32q0 -27 -19 -47t-49 -20q-22 0 -34 12zM476.5 814q-11.5 12 -11.5 30q0 29 19 49t49 20q22 0 34 -12t12 -32
q0 -26 -19.5 -46.5t-48.5 -20.5q-23 0 -34.5 12z" />
    <glyph glyph-name="Edotaccent.ss02" horiz-adv-x="620" 
d="M538 0h-516l139 715h505l-19 -95h-395l-38 -203h346l-19 -95h-346l-44 -227h406zM393 813q-12 12 -12 31q0 28 19.5 48.5t49.5 20.5q22 0 34 -12t12 -31q0 -28 -19.5 -48.5t-49.5 -20.5q-22 0 -34 12z" />
    <glyph glyph-name="uni0122.ss02" horiz-adv-x="739" 
d="M115 61q-67 75 -67 207q0 124 54 230t150 168.5t216 62.5q87 0 145.5 -31.5t86 -85t24.5 -118.5h-113q0 67 -40.5 103.5t-120.5 36.5q-84 0 -150 -48t-103.5 -130.5t-37.5 -180.5q0 -194 170 -194q61 0 115 25.5t91.5 71t49.5 104.5h-211l17 92h323l-72 -374h-76l-8 99
h-2q-49 -57 -107.5 -85t-137.5 -28q-129 0 -196 75zM229 -201q70 13 78 52q-12 -3 -22 -3q-19 0 -31 10t-12 29q0 31 20 49t50 18q26 0 39 -14.5t13 -39.5q0 -15 -2 -23q-9 -44 -43.5 -77t-97.5 -44z" />
    <glyph glyph-name="Gdotaccent.ss02" horiz-adv-x="739" 
d="M115 61q-67 75 -67 207q0 124 54 230t150 168.5t216 62.5q87 0 145.5 -31.5t86 -85t24.5 -118.5h-113q0 67 -40.5 103.5t-120.5 36.5q-84 0 -150 -48t-103.5 -130.5t-37.5 -180.5q0 -194 170 -194q61 0 115 25.5t91.5 71t49.5 104.5h-211l17 92h323l-72 -374h-76l-8 99
h-2q-49 -57 -107.5 -85t-137.5 -28q-129 0 -196 75zM441 813q-12 12 -12 31q0 28 19.5 48.5t49.5 20.5q22 0 34 -12t12 -31q0 -28 -19.5 -48.5t-49.5 -20.5q-22 0 -34 12z" />
    <glyph glyph-name="Idieresis.ss02" horiz-adv-x="254" 
d="M132 0h-110l139 715h110zM116 814q-12 12 -12 31q0 28 19 48t49 20q22 0 34 -12t12 -32q0 -27 -19 -47t-49 -20q-22 0 -34 12zM280.5 814q-11.5 12 -11.5 30q0 29 19 49t49 20q22 0 34 -12t12 -32q0 -26 -19.5 -46.5t-48.5 -20.5q-23 0 -34.5 12z" />
    <glyph glyph-name="Idotaccent.ss02" horiz-adv-x="254" 
d="M132 0h-110l139 715h110zM198 813q-12 12 -12 31q0 28 19.5 48.5t49.5 20.5q22 0 34 -12t12 -31q0 -28 -19.5 -48.5t-49.5 -20.5q-22 0 -34 12z" />
    <glyph glyph-name="uni0136.ss02" horiz-adv-x="652" 
d="M606 715h129l-336 -299l220 -416h-127l-176 343l-141 -125l-43 -218h-110l139 715h110l-69 -359zM212 -201q70 13 78 52q-12 -3 -22 -3q-19 0 -31 10t-12 29q0 31 20 49t50 18q26 0 39 -14.5t13 -39.5q0 -15 -2 -23q-9 -44 -43.5 -77t-97.5 -44z" />
    <glyph glyph-name="uni013B.ss02" horiz-adv-x="558" 
d="M494 0h-472l139 715h110l-120 -620h362zM163 -201q70 13 78 52q-12 -3 -22 -3q-19 0 -31 10t-12 29q0 31 20 49t50 18q26 0 39 -14.5t13 -39.5q0 -15 -2 -23q-9 -44 -43.5 -77t-97.5 -44z" />
    <glyph glyph-name="uni0145.ss02" horiz-adv-x="714" 
d="M132 0h-110l139 715h124l225 -550h4l107 550h111l-139 -715h-124l-226 550h-4zM212 -201q70 13 78 52q-12 -3 -22 -3q-19 0 -31 10t-12 29q0 31 20 49t50 18q26 0 39 -14.5t13 -39.5q0 -15 -2 -23q-9 -44 -43.5 -77t-97.5 -44z" />
    <glyph glyph-name="Odieresis.ss02" horiz-adv-x="775" 
d="M185.5 22.5q-66.5 36.5 -101.5 102.5t-35 153q0 121 54.5 224.5t151 165t215.5 61.5q92 0 158.5 -36.5t101.5 -102.5t35 -153q0 -120 -54.5 -224t-151 -165.5t-215.5 -61.5q-92 0 -158.5 36.5zM509 130.5q69 49.5 107 131t38 174.5q0 90 -47 144t-144 54
q-89 0 -158 -49.5t-107 -131t-38 -174.5q0 -90 47 -144t144 -54q89 0 158 49.5zM378 814q-12 12 -12 31q0 28 19 48t49 20q22 0 34 -12t12 -32q0 -27 -19 -47t-49 -20q-22 0 -34 12zM542.5 814q-11.5 12 -11.5 30q0 29 19 49t49 20q22 0 34 -12t12 -32q0 -26 -19.5 -46.5
t-48.5 -20.5q-23 0 -34.5 12z" />
    <glyph glyph-name="uni0156.ss02" horiz-adv-x="656" 
d="M22 0l139 715h288q106 0 162 -43.5t56 -124.5q0 -79 -48.5 -139t-125.5 -77l-1 -3q87 -17 87 -143q0 -38 -8 -98q-5 -37 -5 -56q0 -21 8 -24l-1 -7h-118q-4 4 -4 17q0 15 7 55q11 66 11 98q0 50 -21.5 80t-76.5 30h-185l-54 -280h-110zM382 375q77 0 124 43.5t47 110.5
q0 47 -31 69t-104 22h-166l-47 -245h177zM194 -201q70 13 78 52q-12 -3 -22 -3q-19 0 -31 10t-12 29q0 31 20 49t50 18q26 0 39 -14.5t13 -39.5q0 -15 -2 -23q-9 -44 -43.5 -77t-97.5 -44z" />
    <glyph glyph-name="uni0218.ss02" horiz-adv-x="631" 
d="M149 16.5q-67 30.5 -101 87.5t-29 134h110q-4 -77 43.5 -117.5t135.5 -40.5q79 0 125 30.5t46 91.5q0 33 -17 53.5t-51 36t-107 40.5q-72 24 -115 48t-65.5 58.5t-22.5 85.5q0 65 36 111.5t98 70t140 23.5q126 0 192 -57.5t58 -167.5h-108q4 66 -32.5 98.5t-117.5 32.5
q-69 0 -111.5 -23.5t-42.5 -76.5q0 -31 14.5 -50t44 -32.5t93.5 -36.5q85 -30 129.5 -52t71 -57.5t26.5 -93.5q0 -107 -77 -167t-209 -60q-90 0 -157 30.5zM200 -201q70 13 78 52q-12 -3 -22 -3q-19 0 -31 10t-12 29q0 31 20 49t50 18q26 0 39 -14.5t13 -39.5q0 -15 -2 -23
q-9 -44 -43.5 -77t-97.5 -44z" />
    <glyph glyph-name="uni021A.ss02" horiz-adv-x="601" 
d="M306 0h-111l120 620h-231l19 95h573l-19 -95h-231zM155 -201q70 13 78 52q-12 -3 -22 -3q-19 0 -31 10t-12 29q0 31 20 49t50 18q26 0 39 -14.5t13 -39.5q0 -15 -2 -23q-9 -44 -43.5 -77t-97.5 -44z" />
    <glyph glyph-name="Udieresis.ss02" horiz-adv-x="691" 
d="M116.5 39q-60.5 53 -60.5 144q0 29 6 60l93 472h110l-92 -472q-6 -28 -6 -52q0 -58 34.5 -84t104.5 -26q86 0 137.5 40t67.5 122l92 472h111l-92 -472q-51 -257 -327 -257q-118 0 -178.5 53zM327 814q-12 12 -12 31q0 28 19 48t49 20q22 0 34 -12t12 -32q0 -27 -19 -47
t-49 -20q-22 0 -34 12zM491.5 814q-11.5 12 -11.5 30q0 29 19 49t49 20q22 0 34 -12t12 -32q0 -26 -19.5 -46.5t-48.5 -20.5q-23 0 -34.5 12z" />
    <glyph glyph-name="Wdieresis.ss02" horiz-adv-x="926" 
d="M265 0h-118l-47 715h114l22 -563h2l248 563h119l41 -563h2l236 563h114l-317 -715h-118l-40 575h-2zM449 814q-12 12 -12 31q0 28 19 48t49 20q22 0 34 -12t12 -32q0 -27 -19 -47t-49 -20q-22 0 -34 12zM613.5 814q-11.5 12 -11.5 30q0 29 19 49t49 20q22 0 34 -12
t12 -32q0 -26 -19.5 -46.5t-48.5 -20.5q-23 0 -34.5 12z" />
    <glyph glyph-name="Ydieresis.ss02" horiz-adv-x="639" 
d="M325 0h-111l56 286l-173 429h117l125 -342h2l259 342h120l-340 -429zM302 814q-12 12 -12 31q0 28 19 48t49 20q22 0 34 -12t12 -32q0 -27 -19 -47t-49 -20q-22 0 -34 12zM466.5 814q-11.5 12 -11.5 30q0 29 19 49t49 20q22 0 34 -12t12 -32q0 -26 -19.5 -46.5
t-48.5 -20.5q-23 0 -34.5 12z" />
    <glyph glyph-name="Zdotaccent.ss02" horiz-adv-x="604" 
d="M528 0h-556l19 95l512 523v2h-391l19 95h526l-19 -95l-512 -523v-2h421zM366 813q-12 12 -12 31q0 28 19.5 48.5t49.5 20.5q22 0 34 -12t12 -31q0 -28 -19.5 -48.5t-49.5 -20.5q-22 0 -34 12z" />
    <glyph glyph-name="i.latn_TRK" horiz-adv-x="208" 
d="M103 0h-98l99 510h98zM226 601h-111l21 106h111z" />
    <glyph glyph-name="a.ss01" horiz-adv-x="572" 
d="M468 510h98l-99 -510h-98l12 60h-3q-30 -33 -73 -53.5t-99 -20.5q-84 0 -133.5 54t-49.5 153q0 91 38 167t103.5 120.5t144.5 44.5q53 0 88.5 -21.5t53.5 -55.5h5zM330.5 100.5q42.5 33.5 67.5 89t25 117.5q0 66 -29.5 101t-84.5 35q-52 0 -94.5 -32t-67 -87t-24.5 -122
q0 -135 113 -135q52 0 94.5 33.5z" />
    <glyph glyph-name="aacute.ss01" horiz-adv-x="572" 
d="M468 510h98l-99 -510h-98l12 60h-3q-30 -33 -73 -53.5t-99 -20.5q-84 0 -133.5 54t-49.5 153q0 91 38 167t103.5 120.5t144.5 44.5q53 0 88.5 -21.5t53.5 -55.5h5zM330.5 100.5q42.5 33.5 67.5 89t25 117.5q0 66 -29.5 101t-84.5 35q-52 0 -94.5 -32t-67 -87t-24.5 -122
q0 -135 113 -135q52 0 94.5 33.5zM379 587h-77l70 138h114z" />
    <glyph glyph-name="abreve.ss01" horiz-adv-x="572" 
d="M468 510h98l-99 -510h-98l12 60h-3q-30 -33 -73 -53.5t-99 -20.5q-84 0 -133.5 54t-49.5 153q0 91 38 167t103.5 120.5t144.5 44.5q53 0 88.5 -21.5t53.5 -55.5h5zM330.5 100.5q42.5 33.5 67.5 89t25 117.5q0 66 -29.5 101t-84.5 35q-52 0 -94.5 -32t-67 -87t-24.5 -122
q0 -135 113 -135q52 0 94.5 33.5zM259 604q-30 27 -30 79q0 14 3 32h66q-1 -7 -1 -20q0 -26 12 -37.5t39 -11.5q66 0 85 69h68q-16 -66 -58.5 -102t-102.5 -36q-51 0 -81 27z" />
    <glyph glyph-name="acircumflex.ss01" horiz-adv-x="572" 
d="M468 510h98l-99 -510h-98l12 60h-3q-30 -33 -73 -53.5t-99 -20.5q-84 0 -133.5 54t-49.5 153q0 91 38 167t103.5 120.5t144.5 44.5q53 0 88.5 -21.5t53.5 -55.5h5zM330.5 100.5q42.5 33.5 67.5 89t25 117.5q0 66 -29.5 101t-84.5 35q-52 0 -94.5 -32t-67 -87t-24.5 -122
q0 -135 113 -135q52 0 94.5 33.5zM290 587h-96l123 138h104l70 -138h-93l-34 89h-2z" />
    <glyph glyph-name="adieresis.ss01" horiz-adv-x="572" 
d="M468 510h98l-99 -510h-98l12 60h-3q-30 -33 -73 -53.5t-99 -20.5q-84 0 -133.5 54t-49.5 153q0 91 38 167t103.5 120.5t144.5 44.5q53 0 88.5 -21.5t53.5 -55.5h5zM330.5 100.5q42.5 33.5 67.5 89t25 117.5q0 66 -29.5 101t-84.5 35q-52 0 -94.5 -32t-67 -87t-24.5 -122
q0 -135 113 -135q52 0 94.5 33.5zM316 601h-111l22 106h111zM484 601h-111l22 106h111z" />
    <glyph glyph-name="agrave.ss01" horiz-adv-x="572" 
d="M468 510h98l-99 -510h-98l12 60h-3q-30 -33 -73 -53.5t-99 -20.5q-84 0 -133.5 54t-49.5 153q0 91 38 167t103.5 120.5t144.5 44.5q53 0 88.5 -21.5t53.5 -55.5h5zM330.5 100.5q42.5 33.5 67.5 89t25 117.5q0 66 -29.5 101t-84.5 35q-52 0 -94.5 -32t-67 -87t-24.5 -122
q0 -135 113 -135q52 0 94.5 33.5zM373 587h-78l-74 138h115z" />
    <glyph glyph-name="amacron.ss01" horiz-adv-x="572" 
d="M468 510h98l-99 -510h-98l12 60h-3q-30 -33 -73 -53.5t-99 -20.5q-84 0 -133.5 54t-49.5 153q0 91 38 167t103.5 120.5t144.5 44.5q53 0 88.5 -21.5t53.5 -55.5h5zM330.5 100.5q42.5 33.5 67.5 89t25 117.5q0 66 -29.5 101t-84.5 35q-52 0 -94.5 -32t-67 -87t-24.5 -122
q0 -135 113 -135q52 0 94.5 33.5zM478 601h-264l15 77h264z" />
    <glyph glyph-name="aogonek.ss01" horiz-adv-x="572" 
d="M457 0q-35 -22 -57 -44.5t-22 -40.5q0 -11 8.5 -17.5t22.5 -6.5q22 0 49 9l-13 -67q-35 -10 -71 -10q-41 0 -62 16t-21 45q0 35 29 66.5t67 49.5h-18l12 60h-3q-30 -33 -73 -53.5t-99 -20.5q-84 0 -133.5 54t-49.5 153q0 91 38 167t103.5 120.5t144.5 44.5
q53 0 88.5 -21.5t53.5 -55.5h5l12 62h98l-99 -510h-10zM330.5 100.5q42.5 33.5 67.5 89t25 117.5q0 66 -29.5 101t-84.5 35q-52 0 -94.5 -32t-67 -87t-24.5 -122q0 -135 113 -135q52 0 94.5 33.5z" />
    <glyph glyph-name="aring.ss01" horiz-adv-x="572" 
d="M468 510h98l-99 -510h-98l12 60h-3q-30 -33 -73 -53.5t-99 -20.5q-84 0 -133.5 54t-49.5 153q0 91 38 167t103.5 120.5t144.5 44.5q53 0 88.5 -21.5t53.5 -55.5h5zM330.5 100.5q42.5 33.5 67.5 89t25 117.5q0 66 -29.5 101t-84.5 35q-52 0 -94.5 -32t-67 -87t-24.5 -122
q0 -135 113 -135q52 0 94.5 33.5zM279.5 579.5q-21.5 21.5 -21.5 55.5q0 45 32 76t77 31q37 0 58.5 -21.5t21.5 -55.5q0 -46 -32 -76.5t-78 -30.5q-36 0 -57.5 21.5zM383 619.5q17 17.5 17 40.5q0 18 -10.5 28t-27.5 10q-24 0 -40.5 -16.5t-16.5 -41.5q0 -17 10 -27.5
t28 -10.5q23 0 40 17.5z" />
    <glyph glyph-name="atilde.ss01" horiz-adv-x="572" 
d="M468 510h98l-99 -510h-98l12 60h-3q-30 -33 -73 -53.5t-99 -20.5q-84 0 -133.5 54t-49.5 153q0 91 38 167t103.5 120.5t144.5 44.5q53 0 88.5 -21.5t53.5 -55.5h5zM330.5 100.5q42.5 33.5 67.5 89t25 117.5q0 66 -29.5 101t-84.5 35q-52 0 -94.5 -32t-67 -87t-24.5 -122
q0 -135 113 -135q52 0 94.5 33.5zM198 593q11 53 38 79.5t60 26.5q19 0 35.5 -5.5t38.5 -16.5q30 -15 44 -15q26 0 33 35h66q-11 -53 -37.5 -79.5t-60.5 -26.5q-19 0 -35.5 5.5t-38.5 16.5q-30 15 -44 15q-26 0 -33 -35h-66z" />
    <glyph glyph-name="adieresis.ss02" horiz-adv-x="546" 
d="M48 20.5q-39 34.5 -39 98.5q0 79 58.5 118.5t171.5 62.5q64 13 94.5 21t50 24.5t19.5 45.5q0 27 -20.5 41.5t-68.5 14.5q-59 0 -92 -23.5t-47 -75.5h-97q18 83 80.5 130.5t165.5 47.5q83 0 128.5 -33.5t45.5 -99.5q0 -20 -5 -48l-45 -229q-4 -24 -4 -31q0 -13 5.5 -19
t19.5 -6q3 0 15 2l-12 -59q-30 -9 -56 -9q-74 0 -71 77h-3q-33 -40 -79 -62.5t-104 -22.5q-72 0 -111 34.5zM309 102.5q48 37.5 61 102.5l13 67q-16 -14 -35.5 -20t-80.5 -20q-59 -12 -91.5 -23.5t-49.5 -29t-17 -47.5q0 -67 84 -67q68 0 116 37.5zM232 609q-12 12 -12 31
q0 28 19 48t49 20q22 0 34 -12t12 -32q0 -27 -19 -47t-49 -20q-22 0 -34 12zM396.5 609q-11.5 12 -11.5 30q0 29 19 49t49 20q22 0 34 -12t12 -32q0 -26 -19.5 -46.5t-48.5 -20.5q-23 0 -34.5 12z" />
    <glyph glyph-name="cdotaccent.ss02" horiz-adv-x="531" 
d="M78.5 41q-55.5 56 -55.5 153q0 88 38 164t107 121.5t157 45.5q65 0 111.5 -26.5t68 -72.5t16.5 -104h-96q1 6 1 19q0 49 -27 76t-80 27q-58 0 -103 -34t-70 -90t-25 -119q0 -60 29 -97t89 -37q66 0 105.5 36t53.5 84h97q-15 -59 -52.5 -105t-92.5 -71.5t-118 -25.5
q-98 0 -153.5 56zM310 608q-12 12 -12 31q0 28 19.5 48.5t49.5 20.5q22 0 34 -12t12 -31q0 -28 -19.5 -48.5t-49.5 -20.5q-22 0 -34 12z" />
    <glyph glyph-name="edieresis.ss02" horiz-adv-x="554" 
d="M125 229q-1 -9 -1 -28q0 -67 30 -101t93 -34q62 0 102 29.5t53 62.5h102q-37 -81 -104 -127t-161 -46q-104 0 -159 57t-55 160q0 90 38.5 164t108 117t157.5 43q104 0 154 -53t50 -144q0 -36 -11 -100h-397zM204 408.5q-47 -37.5 -67 -102.5h295q3 18 3 33q0 49 -28.5 78
t-85.5 29q-70 0 -117 -37.5zM239 611q-12 12 -12 31q0 28 19 48t49 20q22 0 34 -12t12 -32q0 -27 -19 -47t-49 -20q-22 0 -34 12zM403.5 611q-11.5 12 -11.5 30q0 29 19 49t49 20q22 0 34 -12t12 -32q0 -26 -19.5 -46.5t-48.5 -20.5q-23 0 -34.5 12z" />
    <glyph glyph-name="edotaccent.ss02" horiz-adv-x="554" 
d="M125 229q-1 -9 -1 -28q0 -67 30 -101t93 -34q62 0 102 29.5t53 62.5h102q-37 -81 -104 -127t-161 -46q-104 0 -159 57t-55 160q0 90 38.5 164t108 117t157.5 43q104 0 154 -53t50 -144q0 -36 -11 -100h-397zM204 408.5q-47 -37.5 -67 -102.5h295q3 18 3 33q0 49 -28.5 78
t-85.5 29q-70 0 -117 -37.5zM320 610q-12 12 -12 31q0 28 19.5 48.5t49.5 20.5q22 0 34 -12t12 -31q0 -28 -19.5 -48.5t-49.5 -20.5q-22 0 -34 12z" />
    <glyph glyph-name="uni0123.ss02" horiz-adv-x="570" 
d="M467 510h98l-92 -471q-21 -110 -90.5 -165t-176.5 -55q-65 0 -113.5 21.5t-74 58.5t-24.5 83h97q2 -82 116 -82q70 0 112.5 35.5t57.5 112.5l11 55h-3q-68 -77 -171 -77q-84 0 -134 50.5t-50 149.5q0 80 36 149t99 109.5t140 40.5q102 0 148 -75h2zM338.5 138
q41.5 31 64 81.5t22.5 108.5q0 115 -108 115q-55 0 -98 -29.5t-66 -78.5t-23 -104q0 -59 28 -91.5t84 -32.5q55 0 96.5 31zM303 602.5q-13 14.5 -13 39.5q0 15 2 23q9 43 41 75t91 44l-7 -41q-31 -7 -49.5 -21t-23.5 -40q12 3 23 3q18 0 29 -9t11 -26q0 -28 -18.5 -45
t-46.5 -17q-26 0 -39 14.5z" />
    <glyph glyph-name="gdotaccent.ss02" horiz-adv-x="570" 
d="M467 510h98l-92 -471q-21 -110 -90.5 -165t-176.5 -55q-65 0 -113.5 21.5t-74 58.5t-24.5 83h97q2 -82 116 -82q70 0 112.5 35.5t57.5 112.5l11 55h-3q-68 -77 -171 -77q-84 0 -134 50.5t-50 149.5q0 80 36 149t99 109.5t140 40.5q102 0 148 -75h2zM338.5 138
q41.5 31 64 81.5t22.5 108.5q0 115 -108 115q-55 0 -98 -29.5t-66 -78.5t-23 -104q0 -59 28 -91.5t84 -32.5q55 0 96.5 31zM304 608q-12 12 -12 31q0 28 19.5 48.5t49.5 20.5q22 0 34 -12t12 -31q0 -28 -19.5 -48.5t-49.5 -20.5q-22 0 -34 12z" />
    <glyph glyph-name="i.ss02" horiz-adv-x="208" 
d="M134 607q-12 12 -12 32q0 28 20 49t50 21q23 0 35 -12.5t12 -32.5q0 -28 -19.5 -48.5t-50.5 -20.5q-23 0 -35 12zM103 0h-98l99 510h98z" />
    <glyph glyph-name="idieresis.ss02" horiz-adv-x="208" 
d="M103 0h-98l99 510h98zM54 609q-12 12 -12 31q0 28 19 48t49 20q22 0 34 -12t12 -32q0 -27 -19 -47t-49 -20q-22 0 -34 12zM218.5 609q-11.5 12 -11.5 30q0 29 19 49t49 20q22 0 34 -12t12 -32q0 -26 -19.5 -46.5t-48.5 -20.5q-23 0 -34.5 12z" />
    <glyph glyph-name="iogonek.ss02" horiz-adv-x="208" 
d="M103 0h-98l99 510h98zM135 608q-12 12 -12 31q0 28 19.5 48.5t49.5 20.5q22 0 34 -12t12 -31q0 -28 -19.5 -48.5t-49.5 -20.5q-22 0 -34 12zM-48 -161q-21 16 -21 45q0 35 29 66.5t67 49.5h70q-35 -22 -57 -44.5t-22 -40.5q0 -11 8.5 -17.5t22.5 -6.5q22 0 49 9l-13 -67
q-35 -10 -71 -10q-41 0 -62 16z" />
    <glyph glyph-name="j.ss02" horiz-adv-x="208" 
d="M-114 -175l15 81q26 -3 39 -3q24 0 38.5 16.5t22.5 57.5l103 533h98l-104 -537q-15 -78 -55.5 -116t-96.5 -38q-24 0 -60 6zM135 608q-12 12 -12 31q0 28 19.5 48.5t49.5 20.5q22 0 34 -12t12 -31q0 -28 -19.5 -48.5t-49.5 -20.5q-22 0 -34 12z" />
    <glyph glyph-name="uni0137.ss02" horiz-adv-x="493" 
d="M417 510h121l-233 -187l155 -323h-113l-119 261l-88 -71l-37 -190h-98l139 715h98l-80 -411zM130 -201q70 13 78 52q-12 -3 -22 -3q-19 0 -31 10t-12 29q0 31 20 49t50 18q26 0 39 -14.5t13 -39.5q0 -15 -2 -23q-9 -44 -43.5 -77t-97.5 -44z" />
    <glyph glyph-name="uni013C.ss02" horiz-adv-x="208" 
d="M103 0h-98l139 715h98zM-41 -201q70 13 78 52q-12 -3 -22 -3q-19 0 -31 10t-12 29q0 31 20 49t50 18q26 0 39 -14.5t13 -39.5q0 -15 -2 -23q-9 -44 -43.5 -77t-97.5 -44z" />
    <glyph glyph-name="uni0146.ss02" horiz-adv-x="544" 
d="M475 490q38 -36 38 -104q0 -26 -6 -56l-64 -330h-98l63 327q4 26 4 36q0 37 -21 58t-66 21q-60 0 -106 -39t-56 -96l-60 -307h-98l99 510h98l-13 -65h2q29 37 76 59t105 22q65 0 103 -36zM129 -201q70 13 78 52q-12 -3 -22 -3q-19 0 -31 10t-12 29q0 31 20 49t50 18
q26 0 39 -14.5t13 -39.5q0 -15 -2 -23q-9 -44 -43.5 -77t-97.5 -44z" />
    <glyph glyph-name="odieresis.ss02" horiz-adv-x="564" 
d="M77.5 41q-54.5 56 -54.5 151q0 90 39.5 166.5t110.5 121.5t161 45q98 0 152.5 -55.5t54.5 -150.5q0 -91 -39.5 -167.5t-110.5 -121.5t-161 -45q-98 0 -152.5 56zM346 101.5q46 34.5 71 91t25 120.5q0 60 -30.5 95.5t-88.5 35.5q-59 0 -105 -34.5t-71.5 -91t-25.5 -120.5
q0 -60 31 -95.5t89 -35.5q59 0 105 34.5zM236 609q-12 12 -12 31q0 28 19 48t49 20q22 0 34 -12t12 -32q0 -27 -19 -47t-49 -20q-22 0 -34 12zM400.5 609q-11.5 12 -11.5 30q0 29 19 49t49 20q22 0 34 -12t12 -32q0 -26 -19.5 -46.5t-48.5 -20.5q-23 0 -34.5 12z" />
    <glyph glyph-name="uni0157.ss02" horiz-adv-x="344" 
d="M386 517l-18 -92q-18 3 -33 3q-69 0 -118 -45.5t-63 -121.5v1l-51 -262h-98l99 510h98l-18 -93h2q31 51 69 77.5t92 26.5q22 0 39 -4zM-41 -201q70 13 78 52q-12 -3 -22 -3q-19 0 -31 10t-12 29q0 31 20 49t50 18q26 0 39 -14.5t13 -39.5q0 -15 -2 -23q-9 -44 -43.5 -77
t-97.5 -44z" />
    <glyph glyph-name="uni0219.ss02" horiz-adv-x="486" 
d="M102.5 10q-50.5 24 -75.5 65t-24 93h94q-1 -45 32 -74t101 -29q54 0 84.5 19t30.5 57q0 25 -14.5 40t-37 24t-67.5 22q-58 18 -89.5 31.5t-56 42t-24.5 75.5q0 71 57.5 110t146.5 39q67 0 113 -23t68 -60t21 -81h-95q1 36 -25.5 61t-84.5 25q-46 0 -75 -16.5t-29 -49.5
q0 -29 23 -43t80 -31l19 -6q55 -17 89.5 -33.5t57 -45t22.5 -74.5q0 -75 -59.5 -118.5t-158.5 -43.5q-73 0 -123.5 24zM119 -201q70 13 78 52q-12 -3 -22 -3q-19 0 -31 10t-12 29q0 31 20 49t50 18q26 0 39 -14.5t13 -39.5q0 -15 -2 -23q-9 -44 -43.5 -77t-97.5 -44z" />
    <glyph glyph-name="uni021B.ss02" horiz-adv-x="314" 
d="M220 429l-56 -288q-3 -15 -3 -27q0 -21 11.5 -30t38.5 -9q17 0 44 4l-16 -79q-32 -6 -64 -6q-56 0 -85 23t-29 77q0 18 5 50l56 285h-74l16 81h74l32 164h98l-32 -164h98l-16 -81h-98zM62 -188q70 13 78 52q-12 -3 -22 -3q-19 0 -31 10t-12 29q0 31 20 49t50 18
q26 0 39 -14.5t13 -39.5q0 -15 -2 -23q-9 -44 -43.5 -77t-97.5 -44z" />
    <glyph glyph-name="udieresis.ss02" horiz-adv-x="544" 
d="M440 510h98l-99 -510h-98l12 64h-2q-29 -33 -75 -55.5t-103 -22.5q-66 0 -104.5 33t-38.5 103q0 30 7 64l63 324h98l-62 -322q-4 -26 -4 -37q0 -38 20 -60t62 -22q63 0 108.5 37.5t57.5 98.5h1zM215 609q-12 12 -12 31q0 28 19 48t49 20q22 0 34 -12t12 -32
q0 -27 -19 -47t-49 -20q-22 0 -34 12zM379.5 609q-11.5 12 -11.5 30q0 29 19 49t49 20q22 0 34 -12t12 -32q0 -26 -19.5 -46.5t-48.5 -20.5q-23 0 -34.5 12z" />
    <glyph glyph-name="wdieresis.ss02" horiz-adv-x="750" 
d="M214 0h-105l-50 510h104l23 -395h2l184 395h96l30 -395h2l186 395h106l-258 -510h-101l-33 393h-2zM321 609q-12 12 -12 31q0 28 19 48t49 20q22 0 34 -12t12 -32q0 -27 -19 -47t-49 -20q-22 0 -34 12zM485.5 609q-11.5 12 -11.5 30q0 29 19 49t49 20q22 0 34 -12t12 -32
q0 -26 -19.5 -46.5t-48.5 -20.5q-23 0 -34.5 12z" />
    <glyph glyph-name="ydieresis.ss02" horiz-adv-x="506" 
d="M-26 -172l16 80q24 -3 38 -3q84 0 129 100l-109 505h104l73 -395h2l216 395h106l-305 -530q-52 -90 -99.5 -124.5t-111.5 -34.5q-24 0 -59 7zM194 609q-12 12 -12 31q0 28 19 48t49 20q22 0 34 -12t12 -32q0 -27 -19 -47t-49 -20q-22 0 -34 12zM358.5 609
q-11.5 12 -11.5 30q0 29 19 49t49 20q22 0 34 -12t12 -32q0 -26 -19.5 -46.5t-48.5 -20.5q-23 0 -34.5 12z" />
    <glyph glyph-name="zdotaccent.ss02" horiz-adv-x="462" 
d="M392 0h-423l14 73l348 354l1 2h-262l16 81h394l-12 -63l-357 -364v-2h297zM258 608q-12 12 -12 31q0 28 19.5 48.5t49.5 20.5q22 0 34 -12t12 -31q0 -28 -19.5 -48.5t-49.5 -20.5q-22 0 -34 12z" />
    <glyph glyph-name="i.latn_TRK.ss02" horiz-adv-x="208" 
d="M134 607q-12 12 -12 32q0 28 20 49t50 21q23 0 35 -12.5t12 -32.5q0 -28 -19.5 -48.5t-50.5 -20.5q-23 0 -35 12zM103 0h-98l99 510h98z" />
    <glyph glyph-name="adieresis.ss01.ss02" horiz-adv-x="572" 
d="M468 510h98l-99 -510h-98l12 60h-3q-30 -33 -73 -53.5t-99 -20.5q-84 0 -133.5 54t-49.5 153q0 91 38 167t103.5 120.5t144.5 44.5q53 0 88.5 -21.5t53.5 -55.5h5zM330.5 100.5q42.5 33.5 67.5 89t25 117.5q0 66 -29.5 101t-84.5 35q-52 0 -94.5 -32t-67 -87t-24.5 -122
q0 -135 113 -135q52 0 94.5 33.5zM228 609q-12 12 -12 31q0 28 19 48t49 20q22 0 34 -12t12 -32q0 -27 -19 -47t-49 -20q-22 0 -34 12zM392.5 609q-11.5 12 -11.5 30q0 29 19 49t49 20q22 0 34 -12t12 -32q0 -26 -19.5 -46.5t-48.5 -20.5q-23 0 -34.5 12z" />
    <glyph glyph-name="s_s" horiz-adv-x="974" 
d="M102.5 10q-50.5 24 -75.5 65t-24 93h94q-1 -45 32 -74t101 -29q54 0 84.5 19t30.5 57q0 25 -15 40.5t-37.5 24t-66.5 21.5q-56 17 -88.5 31t-57 43t-24.5 76q0 71 57 109.5t152 38.5q86 0 137 -31t78.5 -88.5t51.5 -154.5q18 -71 35.5 -109t50 -57.5t91.5 -19.5t91.5 19
t32.5 56q0 25 -15 40.5t-38 25t-65 21.5q-55 17 -88 31t-57.5 42.5t-24.5 75.5q0 71 57 110t146 39q67 0 113.5 -22.5t69 -59t21.5 -79.5h-94q1 34 -26 58.5t-86 24.5q-47 0 -76 -16.5t-29 -49.5q0 -29 23 -43t80 -31l19 -6q56 -17 90 -33t56.5 -45t22.5 -75
q0 -75 -59.5 -118.5t-162.5 -43.5q-83 0 -128.5 29t-66.5 78t-43 142q-20 83 -48 129t-65.5 64.5t-90.5 18.5q-54 0 -84.5 -17t-30.5 -50q0 -21 13.5 -34.5t35.5 -21.5t73 -23q55 -17 89.5 -33.5t57 -45t22.5 -74.5q0 -75 -59.5 -118.5t-158.5 -43.5q-73 0 -123.5 24z" />
    <glyph glyph-name="w_w_w" horiz-adv-x="2129" 
d="M1880 115l186 395h106l-258 -510h-101l-33 393h-2l-185 -393h-104l-44 439l-222 -439h-101l-32 393h-2l-185 -393h-104l-44 439l-222 -439h-101l-33 393h-2l-184 -393h-105l-50 510h104l23 -395h2l184 395h96l30 -395h2l186 395h167l23 -395h2l184 395h97l30 -395h2
l186 395h166l23 -395h2l185 395h96l30 -395h2z" />
    <glyph glyph-name="f_f_i.ss02" horiz-adv-x="765" 
d="M42 0l84 429h-71l16 81h71l11 62q16 84 54.5 117t104.5 33q24 0 62 -7l-15 -78q-27 3 -39 3q-35 0 -48 -15t-21 -56l-12 -59h164l12 62q16 84 54.5 117t104.5 33q23 0 61 -7l-15 -78q-27 3 -39 3q-35 0 -48 -15t-21 -56l-12 -59h96l-16 -81h-96l-83 -429h-98l84 429h-164
l-83 -429h-98zM691 607q-12 12 -12 32q0 28 20 49t50 21q23 0 35 -12.5t12 -32.5q0 -28 -19.5 -48.5t-50.5 -20.5q-23 0 -35 12zM660 0h-98l99 510h98z" />
    <glyph glyph-name="f_i.ss02" horiz-adv-x="501" 
d="M272 625q-13 -15 -21 -56l-12 -59h96l-16 -81h-95l-84 -429h-98l83 429h-70l16 81h70l12 62q17 84 55.5 117t103.5 33q24 0 62 -7l-15 -78q-27 3 -39 3q-35 0 -48 -15zM427 607q-12 12 -12 32q0 28 20 49t50 21q23 0 35 -12.5t12 -32.5q0 -28 -19.5 -48.5t-50.5 -20.5
q-23 0 -35 12zM396 0h-98l99 510h98z" />
    <glyph glyph-name="zero.zero" horiz-adv-x="640" 
d="M567 636.5q56 -68.5 56 -187.5q0 -120 -42.5 -226t-122 -171.5t-183.5 -65.5q-112 0 -168 68.5t-56 187.5t43.5 226t123 172t182.5 65q111 0 167 -68.5zM266.5 559q-53.5 -55 -82 -141t-28.5 -176q0 -70 21 -109l279 467q-26 14 -64 14q-72 0 -125.5 -55zM407.5 132
q53.5 55 81.5 141t28 176q0 51 -12 88l-270 -453q20 -7 47 -7q72 0 125.5 55z" />
    <glyph glyph-name="zero.slash" horiz-adv-x="640" 
d="M567 636.5q56 -68.5 56 -187.5q0 -120 -42.5 -226t-122 -171.5t-183.5 -65.5q-112 0 -168 68.5t-56 187.5t43.5 226t123 172t182.5 65q111 0 167 -68.5zM266.5 559q-53.5 -55 -82 -141t-28.5 -176q0 -70 21 -109l279 467q-26 14 -64 14q-72 0 -125.5 -55zM407.5 132
q53.5 55 81.5 141t28 176q0 51 -12 88l-270 -453q20 -7 47 -7q72 0 125.5 55z" />
    <glyph glyph-name="zero.tf" horiz-adv-x="723" 
d="M148 54.5q-56 68.5 -56 187.5t43.5 226t123 172t182.5 65q111 0 167 -68.5t56 -187.5q0 -120 -42.5 -226t-122 -171.5t-183.5 -65.5q-112 0 -168 68.5zM447 134q53 55 81 140.5t28 174.5q0 77 -28.5 120t-94.5 43q-71 0 -124.5 -55t-81.5 -140.5t-28 -174.5
q0 -77 29 -120t95 -43q71 0 124 55z" />
    <glyph glyph-name="one.tf" horiz-adv-x="723" 
d="M398 93h152l-18 -93h-397l18 93h136l83 420q-24 -19 -61.5 -26t-90.5 -7l18 88q84 1 127.5 31t62.5 92h86z" />
    <glyph glyph-name="two.tf" horiz-adv-x="723" 
d="M58 0q19 98 82 167.5t182 135.5l44 24q63 34 98.5 58t59 58t23.5 80q0 42 -23 65.5t-80 23.5q-141 0 -174 -164h-109q13 72 51.5 130.5t100.5 92.5t143 34q94 0 147.5 -45.5t53.5 -126.5q0 -73 -41.5 -128.5t-90.5 -88.5t-132 -79q-71 -39 -113 -71t-61 -71v-2h348
l-18 -93h-491z" />
    <glyph glyph-name="three.tf" horiz-adv-x="723" 
d="M146.5 39q-65.5 53 -65.5 142q0 27 6 55h110q-4 -20 -4 -42q0 -115 144 -115q83 0 123 37t40 98q0 56 -32 78.5t-94 22.5h-58l17 89h61q63 0 103 34.5t40 88.5q0 85 -114 85q-138 0 -160 -129h-110q11 64 48 114t97.5 79t138.5 29q97 0 154.5 -44.5t57.5 -118.5
q0 -60 -37 -105.5t-101 -70.5v-3q52 -16 76.5 -50.5t24.5 -89.5q0 -67 -33 -121t-97 -85t-153 -31q-117 0 -182.5 53z" />
    <glyph glyph-name="four.tf" horiz-adv-x="723" 
d="M480 0h-108l30 158h-329l20 100l413 433h108l-85 -440h96l-18 -93h-97zM479 549l-283 -298h224z" />
    <glyph glyph-name="five.tf" horiz-adv-x="723" 
d="M190 11q-50 25 -75 66.5t-25 91.5q0 17 3 33h109l-1 -15q0 -47 28.5 -77.5t87.5 -30.5q56 0 99 26.5t66.5 70t23.5 93.5q0 55 -29.5 81.5t-82.5 26.5q-99 0 -157 -62h-112l148 376h390l-18 -93h-307l-75 -191v-2q32 28 74 44t91 16q89 0 138.5 -50t49.5 -136
q0 -78 -38 -145t-107.5 -107.5t-159.5 -40.5q-71 0 -121 25z" />
    <glyph glyph-name="six.tf" horiz-adv-x="723" 
d="M166.5 51q-59.5 65 -59.5 187q0 121 44 228.5t124 173t183 65.5q65 0 111 -25.5t67.5 -68.5t17.5 -95h-110q2 46 -23 72.5t-82 26.5q-82 0 -135.5 -67t-70.5 -170l-2 -12l2 -1q35 45 84.5 68t108.5 23q91 0 144.5 -52.5t53.5 -142.5q0 -74 -36 -137t-101.5 -100.5
t-149.5 -37.5q-111 0 -170.5 65zM429 99.5q39 23.5 60.5 64t21.5 88.5q0 56 -30.5 84.5t-87.5 28.5q-49 0 -89.5 -21t-63.5 -59t-23 -86q0 -57 32.5 -90t91.5 -33q49 0 88 23.5z" />
    <glyph glyph-name="seven.tf" horiz-adv-x="723" 
d="M164 0q21 109 83 226t142.5 215.5t154.5 154.5l1 2h-367l18 93h485l-16 -83q-90 -65 -170.5 -165.5t-138 -217t-78.5 -225.5h-114z" />
    <glyph glyph-name="eight.tf" horiz-adv-x="723" 
d="M143 30.5q-64 44.5 -64 132.5q0 56 27.5 98.5t67.5 68.5t80 37v3q-77 42 -77 129q0 57 33.5 104t93.5 74.5t135 27.5q94 0 150.5 -42t56.5 -120q0 -62 -35 -108.5t-94 -68.5v-3q46 -19 73 -52t27 -89q0 -65 -38 -119t-107.5 -85.5t-159.5 -31.5q-105 0 -169 44.5z
M501.5 443.5q40.5 33.5 40.5 85.5q0 44 -31 66t-85 22q-71 0 -108 -34.5t-37 -83.5q0 -43 29.5 -66t83.5 -23q67 0 107.5 33.5zM423 95q41 19 63.5 52.5t22.5 74.5q0 50 -35.5 76t-100.5 26q-56 0 -97.5 -19t-64 -52t-22.5 -74q0 -52 36 -77.5t103 -25.5q54 0 95 19z" />
    <glyph glyph-name="nine.tf" horiz-adv-x="723" 
d="M188.5 11.5q-45.5 25.5 -67.5 68.5t-18 95h110q-2 -46 23 -72.5t82 -26.5q82 0 135.5 67t71.5 170l2 12l-3 1q-35 -45 -84.5 -68t-108.5 -23q-91 0 -144.5 52.5t-53.5 142.5q0 74 36 137t101.5 100.5t149.5 37.5q112 0 171 -65t59 -187q0 -121 -43.5 -228.5t-123.5 -173
t-184 -65.5q-65 0 -110.5 25.5zM453.5 347q40.5 21 64 59t23.5 86q0 57 -32.5 90t-91.5 33q-50 0 -89 -23.5t-60.5 -64t-21.5 -88.5q0 -56 30.5 -84.5t87.5 -28.5q49 0 89.5 21z" />
    <glyph glyph-name="zero.tf.zero" horiz-adv-x="723" 
d="M609 636.5q56 -68.5 56 -187.5q0 -120 -42.5 -226t-122 -171.5t-183.5 -65.5q-112 0 -168 68.5t-56 187.5t43.5 226t123 172t182.5 65q111 0 167 -68.5zM308.5 559q-53.5 -55 -82 -141t-28.5 -176q0 -70 21 -109l279 467q-26 14 -64 14q-72 0 -125.5 -55zM449.5 132
q53.5 55 81.5 141t28 176q0 51 -12 88l-270 -453q20 -7 47 -7q72 0 125.5 55z" />
    <glyph glyph-name="zero.dnom" horiz-adv-x="405" 
d="M47 34.5q-36 42.5 -36 114.5q0 71 29 132.5t79.5 98t113.5 36.5q70 0 105 -42.5t35 -114.5q0 -71 -28 -132.5t-78 -98t-113 -36.5q-71 0 -107 42.5zM227 92q28 30 42.5 75.5t14.5 90.5q0 88 -60 88q-38 0 -66 -30t-43 -75.5t-15 -91.5q0 -87 61 -87q38 0 66 30z" />
    <glyph glyph-name="one.dnom" horiz-adv-x="233" 
d="M102 280q-23 -14 -89 -14l13 69q48 1 78.5 18.5t37.5 52.5h73l-78 -406h-90z" />
    <glyph glyph-name="two.dnom" horiz-adv-x="356" 
d="M-29 0q9 49 34.5 82.5t52.5 51.5t85 52q55 33 79.5 57t24.5 57q0 45 -48 45q-69 0 -84 -86h-86q14 72 61.5 114.5t121.5 42.5q58 0 91.5 -26.5t33.5 -75.5q0 -58 -37 -96t-94 -72q-43 -26 -64.5 -41.5t-33.5 -31.5v-1h183l-15 -72h-305z" />
    <glyph glyph-name="three.dnom" horiz-adv-x="372" 
d="M33 21.5q-39 30.5 -39 85.5q0 11 4 35h86q-3 -13 -3 -25q0 -55 65 -55q40 0 61.5 18.5t21.5 49.5q0 27 -16 37.5t-48 10.5h-28l12 63h27q36 0 55.5 16t19.5 43q0 21 -13 33t-38 12q-33 0 -53 -17t-25 -46h-85q10 59 58 96.5t120 37.5q59 0 93 -27t34 -74q0 -36 -21 -62
t-59 -38v-1q58 -20 58 -82t-48.5 -101.5t-128.5 -39.5q-71 0 -110 30.5z" />
    <glyph glyph-name="four.dnom" horiz-adv-x="377" 
d="M247 0h-89l17 88h-186l16 84l232 234h88l-47 -246h59l-15 -72h-58zM219 305l-144 -145h115z" />
    <glyph glyph-name="five.dnom" horiz-adv-x="370" 
d="M32 23.5q-37 32.5 -37 82.5q0 12 1 18h87q-2 -28 13 -45t49 -17q40 0 63.5 25t23.5 63q0 31 -15.5 46.5t-43.5 15.5q-20 0 -39.5 -8t-34.5 -23h-84l89 225h249l-14 -72h-186l-35 -88v-2q38 29 89 29q53 0 84.5 -30.5t31.5 -85.5q0 -47 -23 -85t-64.5 -59.5t-96.5 -21.5
q-70 0 -107 32.5z" />
    <glyph glyph-name="six.dnom" horiz-adv-x="383" 
d="M48 32.5q-36 41.5 -36 114.5q0 72 27 134t76.5 98.5t113.5 36.5q58 0 92.5 -32t33.5 -80h-89q-2 45 -50 45q-37 0 -65.5 -32.5t-38.5 -78.5l-2 -7l4 -1q19 20 46.5 32t59.5 12q54 0 85 -30.5t31 -82.5q0 -45 -23 -84t-64.5 -62.5t-94.5 -23.5q-70 0 -106 41.5zM221.5 85
q25.5 26 25.5 63q0 28 -16.5 43t-46.5 15q-38 0 -63 -23t-25 -61q0 -29 16 -46t45 -17q39 0 64.5 26z" />
    <glyph glyph-name="seven.dnom" horiz-adv-x="319" 
d="M21 0q19 95 78.5 190t123.5 143v1h-200l14 72h295l-13 -66q-76 -54 -130.5 -146.5t-74.5 -193.5h-93z" />
    <glyph glyph-name="eight.dnom" horiz-adv-x="378" 
d="M35 18.5q-39 27.5 -39 79.5q0 48 30.5 77.5t68.5 42.5v1q-43 26 -43 70q0 36 22.5 65t60.5 46t84 17q56 0 91 -24.5t35 -67.5q0 -41 -25 -68t-52 -39v-1q59 -29 59 -83q0 -41 -24.5 -73.5t-67.5 -51t-97 -18.5q-64 0 -103 27.5zM241.5 264.5q20.5 18.5 20.5 46.5
q0 20 -14 31.5t-40 11.5q-35 0 -55.5 -18.5t-20.5 -47.5q0 -20 14.5 -31t40.5 -11q34 0 54.5 18.5zM214.5 80q25.5 22 25.5 55q0 23 -17 36.5t-48 13.5q-39 0 -65 -21.5t-26 -54.5q0 -24 17.5 -37.5t48.5 -13.5q39 0 64.5 22z" />
    <glyph glyph-name="nine.dnom" horiz-adv-x="383" 
d="M42.5 22q-34.5 31 -33.5 81h89q0 -21 11.5 -33t35.5 -12q38 0 66.5 32.5t38.5 78.5l2 7l-2 1q-19 -20 -46.5 -32t-60.5 -12q-54 0 -85 32t-31 87q0 43 23 81t65 60.5t95 22.5q70 0 105.5 -41.5t35.5 -117.5q0 -69 -26.5 -130.5t-75.5 -98.5t-113 -37q-59 0 -93.5 31z
M240 227q27 26 27 62q0 27 -16 43t-45 16q-39 0 -64.5 -26t-25.5 -63q0 -28 15 -43t43 -15q39 0 66 26z" />
    <glyph glyph-name="zero.numr" horiz-adv-x="405" 
d="M107 345.5q-36 42.5 -36 114.5q0 71 29 132.5t79.5 98t113.5 36.5q70 0 105 -42.5t35 -114.5q0 -71 -28 -132.5t-78 -98t-113 -36.5q-71 0 -107 42.5zM287 403q28 30 42.5 75.5t14.5 90.5q0 88 -60 88q-38 0 -66 -30t-43 -75.5t-15 -91.5q0 -87 61 -87q38 0 66 30z" />
    <glyph glyph-name="one.numr" horiz-adv-x="233" 
d="M162 589q-23 -14 -89 -14l13 69q48 1 78.5 18.5t37.5 52.5h73l-78 -406h-90z" />
    <glyph glyph-name="two.numr" horiz-adv-x="356" 
d="M31 310q9 49 34.5 82.5t52.5 51.5t85 52q55 33 79.5 57t24.5 57q0 45 -48 45q-69 0 -84 -86h-86q14 72 61.5 114.5t121.5 42.5q58 0 91.5 -26.5t33.5 -75.5q0 -58 -37 -96t-94 -72q-43 -26 -64.5 -41.5t-33.5 -31.5v-1h183l-15 -72h-305z" />
    <glyph glyph-name="three.numr" horiz-adv-x="372" 
d="M93 331.5q-39 30.5 -39 85.5q0 11 4 35h86q-3 -13 -3 -25q0 -55 65 -55q40 0 61.5 18.5t21.5 49.5q0 27 -16 37.5t-48 10.5h-28l12 63h27q36 0 55.5 16t19.5 43q0 21 -13 33t-38 12q-33 0 -53 -17t-25 -46h-85q10 59 58 96.5t120 37.5q59 0 93 -27t34 -74q0 -36 -21 -62
t-59 -38v-1q58 -20 58 -82t-48.5 -101.5t-128.5 -39.5q-71 0 -110 30.5z" />
    <glyph glyph-name="four.numr" horiz-adv-x="377" 
d="M307 310h-89l17 88h-186l16 84l232 234h88l-47 -246h59l-15 -72h-58zM279 615l-144 -145h115z" />
    <glyph glyph-name="five.numr" horiz-adv-x="370" 
d="M92 332.5q-37 32.5 -37 82.5q0 12 1 18h87q-2 -28 13 -45t49 -17q40 0 63.5 25t23.5 63q0 31 -15.5 46.5t-43.5 15.5q-20 0 -39.5 -8t-34.5 -23h-84l89 225h249l-14 -72h-186l-35 -88v-2q38 29 89 29q53 0 84.5 -30.5t31.5 -85.5q0 -47 -23 -85t-64.5 -59.5t-96.5 -21.5
q-70 0 -107 32.5z" />
    <glyph glyph-name="six.numr" horiz-adv-x="383" 
d="M108 342.5q-36 41.5 -36 114.5q0 72 27 134t76.5 98.5t113.5 36.5q58 0 92.5 -32t33.5 -80h-89q-2 45 -50 45q-37 0 -65.5 -32.5t-38.5 -78.5l-2 -7l4 -1q19 20 46.5 32t59.5 12q54 0 85 -30.5t31 -82.5q0 -45 -23 -84t-64.5 -62.5t-94.5 -23.5q-70 0 -106 41.5z
M281.5 395q25.5 26 25.5 63q0 28 -16.5 43t-46.5 15q-38 0 -63 -23t-25 -61q0 -29 16 -46t45 -17q39 0 64.5 26z" />
    <glyph glyph-name="seven.numr" horiz-adv-x="319" 
d="M81 309q19 95 78.5 190t123.5 143v1h-200l14 72h295l-13 -66q-76 -54 -130.5 -146.5t-74.5 -193.5h-93z" />
    <glyph glyph-name="eight.numr" horiz-adv-x="378" 
d="M95 328.5q-39 27.5 -39 79.5q0 48 30.5 77.5t68.5 42.5v1q-43 26 -43 70q0 36 22.5 65t60.5 46t84 17q56 0 91 -24.5t35 -67.5q0 -41 -25 -68t-52 -39v-1q59 -29 59 -83q0 -41 -24.5 -73.5t-67.5 -51t-97 -18.5q-64 0 -103 27.5zM301.5 574.5q20.5 18.5 20.5 46.5
q0 20 -14 31.5t-40 11.5q-35 0 -55.5 -18.5t-20.5 -47.5q0 -20 14.5 -31t40.5 -11q34 0 54.5 18.5zM274.5 390q25.5 22 25.5 55q0 23 -17 36.5t-48 13.5q-39 0 -65 -21.5t-26 -54.5q0 -24 17.5 -37.5t48.5 -13.5q39 0 64.5 22z" />
    <glyph glyph-name="nine.numr" horiz-adv-x="383" 
d="M102.5 331q-34.5 31 -33.5 81h89q0 -21 11.5 -33t35.5 -12q38 0 66.5 32.5t38.5 78.5l2 7l-2 1q-19 -20 -46.5 -32t-60.5 -12q-54 0 -85 32t-31 87q0 43 23 81t65 60.5t95 22.5q70 0 105.5 -41.5t35.5 -117.5q0 -69 -26.5 -130.5t-75.5 -98.5t-113 -37q-59 0 -93.5 31z
M300 536q27 26 27 62q0 27 -16 43t-45 16q-39 0 -64.5 -26t-25.5 -63q0 -28 15 -43t43 -15q39 0 66 26z" />
    <glyph glyph-name="space.frac" horiz-adv-x="38" 
 />
    <glyph glyph-name="uni2007.tf" horiz-adv-x="723" 
 />
    <glyph glyph-name="periodcentered.case" horiz-adv-x="223" 
d="M173 297h-109l21 109h109z" />
    <glyph glyph-name="bullet.case" horiz-adv-x="387" 
d="M307 241h-234l46 234h233z" />
    <glyph glyph-name="period.ss02" horiz-adv-x="185" 
d="M7 8q-13 13 -13 33q0 29 20.5 50.5t51.5 21.5q23 0 36.5 -13t13.5 -32q0 -29 -20.5 -51t-51.5 -22q-24 0 -37 13z" />
    <glyph glyph-name="comma.ss02" horiz-adv-x="191" 
d="M-22 -74q32 7 53.5 25.5t27.5 48.5q-14 -4 -22 -4q-18 0 -30 10.5t-12 29.5q0 5 2 15q5 28 24 45t45 17q52 0 52 -58q0 -59 -39 -109.5t-110 -67.5z" />
    <glyph glyph-name="colon.ss02" horiz-adv-x="208" 
d="M76 314q-13 13 -13 33q0 29 20.5 50.5t51.5 21.5q23 0 36.5 -13t13.5 -32q0 -29 -20.5 -51t-51.5 -22q-24 0 -37 13zM17 8q-13 13 -13 33q0 29 20.5 50.5t51.5 21.5q23 0 36.5 -13t13.5 -32q0 -29 -20.5 -51t-51.5 -22q-24 0 -37 13z" />
    <glyph glyph-name="semicolon.ss02" horiz-adv-x="212" 
d="M80 314q-13 13 -13 33q0 29 20.5 50.5t51.5 21.5q23 0 36.5 -13t13.5 -32q0 -29 -20.5 -51t-51.5 -22q-24 0 -37 13zM-14 -74q32 7 53.5 25.5t27.5 48.5q-14 -4 -22 -4q-18 0 -30 10.5t-12 29.5q0 5 2 15q5 28 24 45t45 17q52 0 52 -58q0 -59 -39 -109.5t-110 -67.5z" />
    <glyph glyph-name="ellipsis.ss02" horiz-adv-x="584" 
d="M7 8q-13 13 -13 33q0 29 20.5 50.5t51.5 21.5q23 0 36.5 -13t13.5 -32q0 -29 -20.5 -51t-51.5 -22q-24 0 -37 13zM207 8q-13 13 -13 33q0 29 20.5 50.5t51.5 21.5q23 0 36.5 -13t13.5 -32q0 -29 -20.5 -51t-51.5 -22q-24 0 -37 13zM406 8q-13 13 -13 33q0 29 20.5 50.5
t51.5 21.5q23 0 36.5 -13t13.5 -32q0 -29 -20.5 -51t-51.5 -22q-24 0 -37 13z" />
    <glyph glyph-name="exclam.ss02" horiz-adv-x="225" 
d="M129 195h-57l37 326l38 194h108l-38 -194zM25.5 8q-13.5 13 -13.5 32q0 29 21 51t52 22q24 0 36.5 -13t12.5 -33q0 -29 -20.5 -50.5t-51.5 -21.5q-23 0 -36.5 13z" />
    </font>
</defs>
</svg>
