<?xml version="1.0" standalone="no"?>
<!DOCTYPE svg PUBLIC "-//W3C//DTD SVG 1.1//EN" "http://www.w3.org/Graphics/SVG/1.1/DTD/svg11.dtd" >
<svg xmlns="http://www.w3.org/2000/svg" xmlns:xlink="http://www.w3.org/1999/xlink" version="1.1">
<metadata>
Created by FontForge 20201107 at Mon Sep  5 16:39:32 2022
 By 
Copyright by Pangram Pangram Foundry. All rights reserved.
</metadata>
<defs>
<font id="PPNeueMontreal-Bold" horiz-adv-x="0" >
  <font-face 
    font-family="PP Neue Montreal"
    font-weight="700"
    font-stretch="normal"
    units-per-em="1000"
    panose-1="0 0 8 0 0 0 0 0 0 0"
    ascent="800"
    descent="-200"
    x-height="512"
    cap-height="715"
    bbox="-179 -285 2232 958"
    underline-thickness="120"
    underline-position="-30"
    unicode-range="U+000D-1F150"
  />
<missing-glyph horiz-adv-x="650" 
 />
    <glyph glyph-name="f_f" unicode="ff" horiz-adv-x="653" 
d="M89 0v392h-69v120h69v36q0 93 37.5 134.5t120.5 41.5q42 0 91 -10v-113q-29 3 -40 3q-25 0 -37 -11t-12 -49v-32h145v36q0 93 37.5 134.5t120.5 41.5q42 0 91 -10v-113q-28 3 -40 3q-25 0 -37 -11t-12 -49v-32h89v-120h-89v-392h-160v392h-145v-392h-160z" />
    <glyph glyph-name="f_f_i" unicode="ffi" horiz-adv-x="900" 
d="M89 0v392h-69v120h69v36q0 93 37.5 134.5t120.5 41.5q42 0 91 -10v-113q-29 3 -40 3q-25 0 -37 -11t-12 -49v-32h145v36q0 93 37.5 134.5t120.5 41.5q42 0 91 -10v-113q-28 3 -40 3q-25 0 -37 -11t-12 -49v-32h89v-120h-89v-392h-160v392h-145v-392h-160zM856 0h-160v512
h160v-512zM856 573h-160v142h160v-142z" />
    <glyph glyph-name="f_i" unicode="fi" horiz-adv-x="595" 
d="M261 593q-12 -11 -12 -49v-32h89v-120h-89v-392h-160v392h-69v120h69v36q0 93 37.5 134.5t120.5 41.5q42 0 91 -10v-113q-29 3 -40 3q-25 0 -37 -11zM551 0h-160v512h160v-512zM551 573h-160v142h160v-142z" />
    <glyph glyph-name="f_l" unicode="fl" horiz-adv-x="595" 
d="M261 593q-12 -11 -12 -49v-32h89v-120h-89v-392h-160v392h-69v120h69v36q0 93 37.5 134.5t120.5 41.5q42 0 91 -10v-113q-29 3 -40 3q-25 0 -37 -11zM551 0h-160v715h160v-715z" />
    <glyph glyph-name=".notdef" horiz-adv-x="650" 
 />
    <glyph glyph-name=".null" 
 />
    <glyph glyph-name="nonmarkingreturn" unicode="&#xd;" horiz-adv-x="190" 
 />
    <glyph glyph-name="space" unicode=" " horiz-adv-x="190" 
 />
    <glyph glyph-name="exclam" unicode="!" horiz-adv-x="252" 
d="M166 234h-80l-45 325v156h170v-156zM203 0h-152v152h152v-152z" />
    <glyph glyph-name="quotedbl" unicode="&#x22;" horiz-adv-x="400" 
d="M150 446h-100l-20 269h140zM350 446h-100l-20 269h140z" />
    <glyph glyph-name="numbersign" unicode="#" horiz-adv-x="589" 
d="M571 512l-26 -120h-73l-26 -123h73l-25 -120h-74l-32 -149h-120l32 149h-90l-32 -149h-120l32 149h-75l25 120h76l26 123h-76l26 120h76l38 179h120l-38 -179h90l38 179h120l-38 -179h73zM236 269h90l26 123h-90z" />
    <glyph glyph-name="dollar" unicode="$" horiz-adv-x="632" 
d="M537 47q-66 -56 -187 -61v-86h-67v88q-119 10 -189 72t-70 166h160q3 -91 99 -107v162l-20 6q-107 32 -162.5 77t-55.5 129q0 90 64 145t174 62v70h67v-70q112 -10 175 -69.5t68 -153.5h-160q-11 74 -83 90v-149q83 -24 135 -47.5t85 -65.5t33 -109q0 -93 -66 -149z
M223.5 466.5q17.5 -14.5 59.5 -27.5v131q-36 -4 -56.5 -19.5t-20.5 -44.5q0 -25 17.5 -39.5zM350 116q47 2 69.5 19t22.5 46q0 30 -23.5 48.5t-68.5 32.5v-146z" />
    <glyph glyph-name="percent" unicode="%" horiz-adv-x="906" 
d="M72.5 360q-54.5 54 -54.5 146t54.5 146.5t146.5 54.5t146 -54.5t54 -146.5t-54 -146t-146 -54t-146.5 54zM315 0h-107l383 691h107zM257 430q12 24 12 76q0 53 -12 77t-38 24q-27 0 -39 -24t-12 -77t12 -76.5t39 -23.5q26 0 38 24zM541 38.5q-54 54.5 -54 146.5t54 146
t146 54t146.5 -54t54.5 -146t-54.5 -146.5t-146.5 -54.5t-146 54.5zM726 108q12 24 12 77t-12 76.5t-39 23.5q-26 0 -38 -23.5t-12 -76.5t12 -77t38 -24q27 0 39 24z" />
    <glyph glyph-name="ampersand" unicode="&#x26;" horiz-adv-x="683" 
d="M696 0h-200l-33 40q-86 -56 -199 -56q-76 0 -130.5 25t-82.5 69t-28 100q0 73 42 117t119 82q-44 54 -64.5 91t-20.5 80q0 48 25.5 90t75 67.5t116.5 25.5q64 0 112 -23.5t74.5 -64.5t26.5 -92q0 -59 -38.5 -101.5t-121.5 -85.5l104 -115q26 48 38 109h140
q-8 -57 -28.5 -113t-53.5 -103zM265.5 583q-16.5 -17 -16.5 -43q0 -21 12.5 -44.5t39.5 -54.5q78 50 78 101q0 25 -16 41.5t-49 16.5q-32 0 -48.5 -17zM378 143l-130 157q-32 -23 -43.5 -45t-11.5 -46q0 -39 25 -63.5t75 -24.5q46 0 85 22z" />
    <glyph glyph-name="quotesingle" unicode="'" horiz-adv-x="200" 
d="M150 446h-100l-20 269h140z" />
    <glyph glyph-name="parenleft" unicode="(" horiz-adv-x="309" 
d="M155 -137q-53 85 -90 206.5t-37 247.5q0 130 36.5 248.5t90.5 204.5h140q-45 -102 -71 -213t-26 -240q0 -233 97 -454h-140z" />
    <glyph glyph-name="parenright" unicode=")" horiz-adv-x="309" 
d="M14 -137q45 102 71 213t26 240q0 233 -97 454h140q53 -85 90 -206.5t37 -247.5q0 -130 -36.5 -248.5t-90.5 -204.5h-140z" />
    <glyph glyph-name="asterisk" unicode="*" horiz-adv-x="440" 
d="M220 459l-66 -101l-81 59l71 96l-111 29l31 95l107 -44v122h100v-122l106 44l31 -95l-112 -29l71 -96l-81 -59z" />
    <glyph glyph-name="plus" unicode="+" horiz-adv-x="574" 
d="M356 79h-138v181h-174v138h174v181h138v-181h174v-138h-174v-181z" />
    <glyph glyph-name="comma" unicode="," horiz-adv-x="232" 
d="M40 -97q72 12 72 97h-72v152h152v-152q0 -68 -39.5 -112.5t-112.5 -54.5v70z" />
    <glyph glyph-name="hyphen" unicode="-" horiz-adv-x="352" 
d="M312 184h-272v137h272v-137z" />
    <glyph glyph-name="period" unicode="." horiz-adv-x="228" 
d="M190 0h-152v152h152v-152z" />
    <glyph glyph-name="slash" unicode="/" horiz-adv-x="430" 
d="M141 0h-130l277 715h130z" />
    <glyph glyph-name="zero" unicode="0" horiz-adv-x="679" 
d="M171.5 30.5q-68.5 46.5 -102 127.5t-33.5 187t33.5 187.5t102 128t168.5 46.5t168 -46.5t101.5 -128t33.5 -187.5t-33.5 -187t-101.5 -127.5t-168 -46.5t-168.5 46.5zM437.5 182.5q28.5 58.5 28.5 162.5t-28.5 163t-97.5 59t-98 -59t-29 -163q0 -103 28.5 -162t98.5 -59
q69 0 97.5 58.5z" />
    <glyph glyph-name="one" unicode="1" horiz-adv-x="394" 
d="M160 464q-37 -29 -146 -29v133q77 0 126.5 31t49.5 92h140v-691h-170v464z" />
    <glyph glyph-name="two" unicode="2" horiz-adv-x="601" 
d="M26 0q0 70 24.5 120.5t69 91.5t134.5 108q67 50 98.5 86t31.5 79q0 41 -20 63t-60 22q-51 0 -77.5 -31t-26.5 -100h-164q0 126 68.5 197t204.5 71q113 0 181 -56t68 -154q0 -63 -29.5 -114.5t-71.5 -89.5t-106 -84q-59 -43 -86 -70v-2h293v-137h-532z" />
    <glyph glyph-name="three" unicode="3" horiz-adv-x="620" 
d="M99 52q-76 68 -76 192h164q0 -62 28.5 -92.5t92.5 -30.5q54 0 78.5 21.5t24.5 62.5q0 48 -31 69.5t-92 21.5h-35v117h31q48 0 77.5 21.5t29.5 63.5q0 35 -21.5 53.5t-63.5 18.5q-44 0 -71.5 -22t-27.5 -69h-164q0 66 32.5 118t93 81t141.5 29q71 0 129 -22.5t92 -65.5
t34 -102q0 -99 -100 -151v-2q120 -38 120 -166q0 -103 -72.5 -158.5t-198.5 -55.5q-139 0 -215 68z" />
    <glyph glyph-name="four" unicode="4" horiz-adv-x="643" 
d="M514 0h-170v146h-313v167l313 378h170v-408h102v-137h-102v-146zM344 506l-188 -223h188v223z" />
    <glyph glyph-name="five" unicode="5" horiz-adv-x="618" 
d="M105 46.5q-74 62.5 -78 167.5h164q4 -40 33.5 -66.5t80.5 -26.5q49 0 77 29.5t28 85.5t-27 86t-81 30q-29 0 -57 -12.5t-48 -37.5h-160l80 389h437v-137h-321l-26 -132v-2q62 49 148 49q104 0 166.5 -62.5t62.5 -172.5q0 -81 -34.5 -137t-95.5 -84.5t-139 -28.5
q-136 0 -210 62.5z" />
    <glyph glyph-name="six" unicode="6" horiz-adv-x="643" 
d="M108.5 84q-71.5 100 -71.5 252q0 182 79.5 276.5t216.5 94.5q66 0 120.5 -24.5t90 -68t46.5 -98.5h-172q-5 24 -25.5 44t-62.5 20q-62 0 -92.5 -42t-30.5 -113v-11l4 -3q64 60 161 60q70 0 124 -30.5t84 -84t30 -119.5q0 -76 -33 -133t-94.5 -88.5t-143.5 -31.5
q-159 0 -230.5 100zM414.5 143.5q31.5 32.5 31.5 84.5q0 51 -31.5 83.5t-85.5 32.5q-55 0 -86.5 -32.5t-31.5 -83.5q0 -52 31.5 -84.5t86.5 -32.5q54 0 85.5 32.5z" />
    <glyph glyph-name="seven" unicode="7" horiz-adv-x="541" 
d="M122 0q0 108 28.5 216t78 196t110.5 140v2h-327v137h507v-127q-111 -90 -164 -240.5t-53 -323.5h-180z" />
    <glyph glyph-name="eight" unicode="8" horiz-adv-x="636" 
d="M172.5 8.5q-64.5 24.5 -102.5 72.5t-38 117q0 64 36.5 106.5t93.5 67.5v2q-100 53 -100 146q0 58 34 100.5t92 64.5t130 22t130 -22t92 -64.5t34 -100.5q0 -53 -28 -87.5t-72 -58.5v-2q57 -25 93.5 -67.5t36.5 -106.5q0 -69 -38 -117t-102.5 -72.5t-145.5 -24.5
t-145.5 24.5zM394 443q26 24 26 62q0 36 -26 60.5t-76 24.5t-76 -24.5t-26 -60.5q0 -38 26 -62t76 -24t76 24zM400.5 140.5q29.5 29.5 29.5 73.5q0 43 -29.5 72t-82.5 29t-82.5 -29t-29.5 -72q0 -44 29.5 -73.5t82.5 -29.5t82.5 29.5z" />
    <glyph glyph-name="nine" unicode="9" horiz-adv-x="643" 
d="M189.5 8.5q-54.5 24.5 -90 68t-46.5 98.5h172q5 -24 25.5 -44t62.5 -20q62 0 92.5 42t30.5 113v11l-4 3q-64 -60 -161 -60q-70 0 -124 30.5t-84 84t-30 119.5q0 76 33 133t94.5 88.5t143.5 31.5q159 0 230.5 -100t71.5 -252q0 -182 -79.5 -276.5t-216.5 -94.5
q-66 0 -120.5 24.5zM400.5 379.5q31.5 32.5 31.5 83.5q0 52 -31.5 84.5t-86.5 32.5q-54 0 -85.5 -32.5t-31.5 -84.5q0 -51 31.5 -83.5t85.5 -32.5q55 0 86.5 32.5z" />
    <glyph glyph-name="colon" unicode=":" horiz-adv-x="240" 
d="M196 310h-152v152h152v-152zM196 0h-152v152h152v-152z" />
    <glyph glyph-name="semicolon" unicode=";" horiz-adv-x="240" 
d="M196 310h-152v152h152v-152zM44 -97q72 12 72 97h-72v152h152v-152q0 -68 -39.5 -112.5t-112.5 -54.5v70z" />
    <glyph glyph-name="less" unicode="&#x3c;" horiz-adv-x="499" 
d="M452 199v-137l-412 172v150l412 172v-137l-277 -109v-2z" />
    <glyph glyph-name="equal" unicode="=" horiz-adv-x="559" 
d="M515 366h-471v138h471v-138zM515 154h-471v138h471v-138z" />
    <glyph glyph-name="greater" unicode="&#x3e;" horiz-adv-x="499" 
d="M459 234l-412 -172v137l277 109v2l-277 109v137l412 -172v-150z" />
    <glyph glyph-name="question" unicode="?" horiz-adv-x="538" 
d="M184 234q0 65 6 95t24 50.5t64 54.5q44 32 58.5 50.5t14.5 48.5q0 26 -17.5 43.5t-56.5 17.5q-47 0 -70.5 -29.5t-23.5 -86.5h-170q0 72 30.5 129t91 90.5t147.5 33.5q69 0 123.5 -24.5t85 -68.5t30.5 -101q0 -58 -27 -97.5t-82 -70.5q-38 -21 -58 -37.5t-29 -39
t-9 -58.5h-132zM327 0h-152v152h152v-152z" />
    <glyph glyph-name="at" unicode="@" horiz-adv-x="890" 
d="M219 -55q-97 53 -146 143.5t-49 203.5q0 122 55.5 218.5t156 150.5t229.5 54q126 0 217.5 -51.5t138.5 -137.5t47 -189q0 -83 -28 -140t-76.5 -85.5t-108.5 -28.5q-50 0 -85 23.5t-48 67.5h-2q-11 -40 -44.5 -65.5t-80.5 -25.5q-72 0 -118 53t-46 151q0 71 24.5 123
t66.5 79.5t93 27.5q76 0 109 -67h2l7 60h130l-32 -251q-2 -20 -2 -27q0 -32 12.5 -45.5t36.5 -13.5q41 0 65.5 43.5t24.5 121.5q0 88 -36 152.5t-103 99.5t-158 35q-102 0 -178.5 -42t-118.5 -117.5t-42 -173.5q0 -92 38 -162t110.5 -109t173.5 -39q90 0 171 32l32 -79
q-79 -43 -201 -43q-140 0 -237 53zM487 227q19 34 19 86q0 47 -14 70.5t-45 23.5q-37 0 -59 -33t-22 -90q0 -43 14 -67t49 -24q39 0 58 34z" />
    <glyph glyph-name="A" unicode="A" horiz-adv-x="716" 
d="M188 0h-193l272 715h181l274 -715h-197l-46 149h-245zM356 550l-81 -264h164l-81 264h-2z" />
    <glyph glyph-name="B" unicode="B" horiz-adv-x="690" 
d="M60 0v715h347q227 0 227 -180q0 -61 -30.5 -98t-80.5 -54v-2q62 -11 100.5 -53t38.5 -117q0 -110 -64 -160.5t-181 -50.5h-357zM360 426q43 0 66.5 15t23.5 56t-23.5 56t-66.5 15h-120v-142h120zM365 147q59 0 86 18.5t27 66.5t-27 66t-86 18h-125v-169h125z" />
    <glyph glyph-name="C" unicode="C" horiz-adv-x="715" 
d="M185 31.5q-77 47.5 -116 131.5t-39 192q0 111 40 196t118.5 132.5t188.5 47.5q142 0 222.5 -76.5t93.5 -205.5h-184q-11 65 -42.5 100t-97.5 35q-84 0 -119.5 -58.5t-35.5 -167.5t35.5 -168t119.5 -59q67 0 98.5 35.5t41.5 101.5h184q-8 -84 -47 -148t-108.5 -100
t-165.5 -36q-110 0 -187 47.5z" />
    <glyph glyph-name="D" unicode="D" horiz-adv-x="728" 
d="M60 0v715h317q150 0 234.5 -93.5t84.5 -264.5q0 -172 -80 -264.5t-229 -92.5h-327zM355 147q157 0 157 210q0 211 -157 211h-115v-421h115z" />
    <glyph glyph-name="E" unicode="E" horiz-adv-x="642" 
d="M608 0h-548v715h542v-147h-362v-127h312v-147h-312v-147h368v-147z" />
    <glyph glyph-name="F" unicode="F" horiz-adv-x="613" 
d="M240 0h-180v715h532v-147h-352v-157h287v-147h-287v-264z" />
    <glyph glyph-name="G" unicode="G" horiz-adv-x="751" 
d="M181.5 32q-73.5 48 -112.5 133t-39 193q0 109 40 193.5t118 132t188 47.5q94 0 164 -34t109.5 -91.5t48.5 -127.5h-184q-12 47 -43 76.5t-98 29.5q-159 0 -159 -226q0 -108 38.5 -167.5t127.5 -59.5q62 0 101.5 33.5t41.5 85.5h-136v130h322v-380h-129l-18 91h-2
q-26 -51 -78 -79t-128 -28q-99 0 -172.5 48z" />
    <glyph glyph-name="H" unicode="H" horiz-adv-x="725" 
d="M240 0h-180v715h180v-280h245v280h180v-715h-180v288h-245v-288z" />
    <glyph glyph-name="I" unicode="I" horiz-adv-x="300" 
d="M240 0h-180v715h180v-715z" />
    <glyph glyph-name="J" unicode="J" horiz-adv-x="561" 
d="M70.5 52.5q-54.5 68.5 -54.5 185.5v60h160v-60q0 -54 16.5 -80.5t58.5 -26.5t58.5 26.5t16.5 80.5v477h180v-477q0 -117 -54.5 -185.5t-190.5 -68.5t-190.5 68.5z" />
    <glyph glyph-name="K" unicode="K" horiz-adv-x="690" 
d="M709 0h-210l-185 279l-74 -86v-193h-180v715h180v-305l256 305h193l-269 -313z" />
    <glyph glyph-name="L" unicode="L" horiz-adv-x="573" 
d="M558 0h-498v715h180v-568h318v-147z" />
    <glyph glyph-name="M" unicode="M" horiz-adv-x="856" 
d="M230 0h-170v715h220l147 -456h2l147 456h220v-715h-170v445h-2l-133 -445h-126l-133 445h-2v-445z" />
    <glyph glyph-name="N" unicode="N" horiz-adv-x="732" 
d="M240 0h-180v715h180l250 -425h2v425h180v-715h-180l-250 425h-2v-425z" />
    <glyph glyph-name="O" unicode="O" horiz-adv-x="768" 
d="M193 32q-80 48 -121.5 132.5t-41.5 193.5q0 108 41.5 192.5t121.5 132.5t191 48q110 0 190 -48t122 -132.5t42 -192.5q0 -109 -42 -193.5t-122 -132.5t-190 -48q-111 0 -191 48zM514.5 192.5q39.5 61.5 39.5 165.5q0 103 -39.5 164.5t-130.5 61.5q-170 0 -170 -226
q0 -227 170 -227q91 0 130.5 61.5z" />
    <glyph glyph-name="P" unicode="P" horiz-adv-x="665" 
d="M60 0v715h347q114 0 178 -58.5t64 -169.5t-64 -169.5t-178 -58.5h-167v-259h-180zM365 406q49 0 74.5 19t25.5 62t-25.5 62t-74.5 19h-125v-162h125z" />
    <glyph glyph-name="Q" unicode="Q" horiz-adv-x="768" 
d="M714.5 208.5q-23.5 -68.5 -68.5 -117.5l75 -76l-87 -90l-90 91q-70 -32 -160 -32q-111 0 -191 48t-121.5 132.5t-41.5 193.5q0 108 41.5 192.5t121.5 132.5t191 48q110 0 190 -48t122 -132.5t42 -192.5q0 -81 -23.5 -149.5zM426 135l-85 86l87 90l98 -99q28 56 28 146
q0 103 -39.5 164.5t-130.5 61.5q-170 0 -170 -226q0 -227 170 -227q25 0 42 4z" />
    <glyph glyph-name="R" unicode="R" horiz-adv-x="688" 
d="M60 0v715h337q120 0 187.5 -53.5t67.5 -150.5q0 -73 -38 -118.5t-107 -60.5v-2q56 -10 85 -48.5t38.5 -85t13.5 -109.5q3 -40 6 -57t12 -20v-10h-187q-7 7 -9.5 24t-3.5 50q-2 53 -8.5 88t-30 61t-71.5 26h-112v-249h-180zM362 396q55 0 82.5 21t27.5 65t-27.5 65
t-82.5 21h-122v-172h122z" />
    <glyph glyph-name="S" unicode="S" horiz-adv-x="657" 
d="M179.5 15q-74.5 31 -117 89.5t-42.5 138.5h182q0 -59 39.5 -86.5t104.5 -27.5q49 0 75 17.5t26 46.5q0 27 -17.5 44t-46 28.5t-83.5 27.5l-23 7q-73 22 -123 47t-81 66t-31 101q0 111 76 164t200 53q84 0 152 -28.5t108.5 -81t42.5 -123.5h-182q-6 41 -37.5 64.5
t-83.5 23.5q-42 0 -67 -14.5t-25 -44.5q0 -23 13.5 -38.5t40 -26.5t77.5 -26q93 -28 146 -50t90.5 -64.5t37.5 -111.5q0 -68 -33.5 -119t-97.5 -79t-152 -28q-94 0 -168.5 31z" />
    <glyph glyph-name="T" unicode="T" horiz-adv-x="625" 
d="M403 0h-180v568h-208v147h595v-147h-207v-568z" />
    <glyph glyph-name="U" unicode="U" horiz-adv-x="706" 
d="M124.5 52.5q-70.5 68.5 -70.5 205.5v457h180v-457q0 -68 29 -97.5t90 -29.5t90 29.5t29 97.5v457h180v-457q0 -137 -70.5 -205.5t-228.5 -68.5t-228.5 68.5z" />
    <glyph glyph-name="V" unicode="V" horiz-adv-x="669" 
d="M431 0h-190l-238 715h197l135 -501h2l136 501h190z" />
    <glyph glyph-name="W" unicode="W" horiz-adv-x="956" 
d="M370 0h-180l-182 715h180l92 -485h2l111 485h170l111 -485h2l92 485h180l-182 -715h-180l-107 446h-2z" />
    <glyph glyph-name="X" unicode="X" horiz-adv-x="667" 
d="M191 0h-200l237 365l-217 350h190l131 -218h2l132 218h190l-217 -348l237 -367h-200l-142 232h-2z" />
    <glyph glyph-name="Y" unicode="Y" horiz-adv-x="667" 
d="M424 0h-180v264l-244 451h194l139 -304h2l140 304h190l-241 -451v-264z" />
    <glyph glyph-name="Z" unicode="Z" horiz-adv-x="613" 
d="M583 0h-557v147l327 419v2h-307v147h527v-147l-327 -419v-2h337v-147z" />
    <glyph glyph-name="bracketleft" unicode="[" horiz-adv-x="380" 
d="M362 -137h-307v907h307v-137h-137v-633h137v-137z" />
    <glyph glyph-name="backslash" unicode="\" horiz-adv-x="430" 
d="M419 0h-130l-277 715h130z" />
    <glyph glyph-name="bracketright" unicode="]" horiz-adv-x="380" 
d="M325 -137h-307v137h137v633h-137v137h307v-907z" />
    <glyph glyph-name="asciicircum" unicode="^" horiz-adv-x="480" 
d="M163 440h-150l167 275h120l167 -275h-150l-77 135h-1z" />
    <glyph glyph-name="underscore" unicode="_" horiz-adv-x="574" 
d="M547 -172h-520v137h520v-137z" />
    <glyph glyph-name="grave" unicode="`" horiz-adv-x="303" 
d="M263 573h-120l-93 152h160z" />
    <glyph glyph-name="a" unicode="a" horiz-adv-x="564" 
d="M67 25q-44 41 -44 109q0 74 51.5 112t144.5 58q6 2 22 4q56 12 84.5 24.5t28.5 42.5q0 22 -17 34t-51 12q-44 0 -65.5 -18t-25.5 -56h-152q4 80 66 131t184 51q108 0 162 -49.5t54 -163.5v-198q0 -22 4 -30.5t15 -8.5q7 0 13 1v-76q-48 -9 -88 -9q-46 0 -68 16.5
t-28 50.5h-2q-28 -36 -72 -57t-97 -21q-75 0 -119 41zM326.5 127q27.5 33 27.5 80v43q-23 -9 -87 -24q-43 -10 -61.5 -28.5t-18.5 -46.5q0 -29 17 -43t49 -14q46 0 73.5 33z" />
    <glyph glyph-name="b" unicode="b" horiz-adv-x="601" 
d="M472 495q50 -33 77.5 -94.5t27.5 -144.5t-27.5 -144.5t-77.5 -94.5t-118 -33q-50 0 -90 21t-58 46h-2v-51h-160v715h160v-254h2q18 25 58 46t90 21q68 0 118 -33zM386 143q27 39 27 113t-27 113t-76 39t-76 -39t-27 -113t27 -113t76 -39t76 39z" />
    <glyph glyph-name="c" unicode="c" horiz-adv-x="549" 
d="M146.5 17.5q-59.5 34.5 -92 96.5t-32.5 142q0 79 32 141t91 97t137 35q108 0 174.5 -57.5t76.5 -150.5h-161q-10 88 -87 88q-49 0 -74 -40t-25 -113t25 -113t74 -40q43 0 63 24.5t24 65.5h161q-4 -61 -35 -108.5t-85.5 -74.5t-126.5 -27q-80 0 -139.5 34.5z" />
    <glyph glyph-name="d" unicode="d" horiz-adv-x="600" 
d="M396 715h160v-715h-160v51h-2q-18 -25 -58 -46t-90 -21q-68 0 -118 33t-77.5 94.5t-27.5 144.5t27.5 144.5t77.5 94.5t118 33q50 0 90 -21t58 -46h2v254zM366 143q27 39 27 113t-27 113t-76 39t-76 -39t-27 -113t27 -113t76 -39t76 39z" />
    <glyph glyph-name="e" unicode="e" horiz-adv-x="573" 
d="M550 213h-368q0 -51 31.5 -80.5t78.5 -29.5q71 0 91 52h163q-22 -81 -87.5 -126.5t-170.5 -45.5q-82 0 -142 34.5t-92 96.5t-32 142q0 76 31 138t91.5 98.5t143.5 36.5q130 0 196 -74.5t66 -217.5v-24zM389 312q0 49 -27 75t-74 26q-46 0 -74 -26t-31 -75h206z" />
    <glyph glyph-name="f" unicode="f" horiz-adv-x="348" 
d="M261 593q-12 -11 -12 -49v-32h89v-120h-89v-392h-160v392h-69v120h69v36q0 93 37.5 134.5t120.5 41.5q42 0 91 -10v-113q-29 3 -40 3q-25 0 -37 -11z" />
    <glyph glyph-name="g" unicode="g" horiz-adv-x="584" 
d="M381 512h160v-451q0 -131 -65.5 -187.5t-190.5 -56.5q-110 0 -173 48t-78 118h162q18 -51 89 -51q53 0 74.5 30t21.5 99v30h-2q-20 -26 -55 -46.5t-85 -20.5q-64 0 -113 32t-75.5 89t-26.5 131t26.5 131t75.5 89t113 32q50 0 85 -20.5t55 -46.5h2v51zM354.5 178
q23.5 34 23.5 98t-23.5 98t-71.5 34t-71.5 -34t-23.5 -98t23.5 -98t71.5 -34t71.5 34z" />
    <glyph glyph-name="h" unicode="h" horiz-adv-x="581" 
d="M495 480q45 -48 45 -134v-346h-160v295q0 56 -19.5 79.5t-60.5 23.5q-96 0 -96 -102v-296h-160v715h160v-277h2q52 90 168 90q76 0 121 -48z" />
    <glyph glyph-name="i" unicode="i" horiz-adv-x="248" 
d="M204 0h-160v512h160v-512zM204 573h-160v142h160v-142z" />
    <glyph glyph-name="j" unicode="j" horiz-adv-x="248" 
d="M-45 -173v122q24 -3 37 -3q27 0 39.5 11.5t12.5 49.5v505h160v-497q0 -98 -37.5 -148t-122.5 -50q-43 0 -89 10zM204 573h-160v142h160v-142z" />
    <glyph glyph-name="k" unicode="k" horiz-adv-x="546" 
d="M566 0h-185l-121 211l-56 -59v-152h-160v715h160v-393l171 190h170l-181 -192z" />
    <glyph glyph-name="l" unicode="l" horiz-adv-x="248" 
d="M204 0h-160v715h160v-715z" />
    <glyph glyph-name="m" unicode="m" horiz-adv-x="879" 
d="M795 480.5q43 -47.5 43 -134.5v-346h-162v295q0 58 -15.5 80.5t-57.5 22.5q-40 0 -61.5 -25t-21.5 -77v-296h-160v295q0 58 -15.5 80.5t-57.5 22.5q-39 0 -61 -25t-22 -77v-296h-160v512h160v-74h2q22 39 64 64.5t96 25.5q49 0 83.5 -24.5t50.5 -65.5h2q38 45 76.5 67.5
t95.5 22.5q78 0 121 -47.5z" />
    <glyph glyph-name="n" unicode="n" horiz-adv-x="581" 
d="M495 480q45 -48 45 -134v-346h-160v295q0 56 -19.5 79.5t-60.5 23.5q-96 0 -96 -102v-296h-160v512h160v-74h2q52 90 168 90q76 0 121 -48z" />
    <glyph glyph-name="o" unicode="o" horiz-adv-x="591" 
d="M149.5 17q-61.5 34 -94.5 95.5t-33 142.5t33 143t95.5 96.5t146.5 34.5q83 0 144.5 -34t94.5 -95.5t33 -141.5q0 -81 -33 -143.5t-95 -97t-147 -34.5q-83 0 -144.5 34zM378 142.5q29 39.5 29 113.5t-29 113.5t-82 39.5q-54 0 -83 -39.5t-29 -113.5t29 -113.5t83 -39.5
q53 0 82 39.5z" />
    <glyph glyph-name="p" unicode="p" horiz-adv-x="601" 
d="M472 495q50 -33 77.5 -94.5t27.5 -144.5t-27.5 -144.5t-77.5 -94.5t-118 -33q-50 0 -90 21t-58 46h-2v-228h-160v689h160v-51h2q18 25 58 46t90 21q68 0 118 -33zM386 143q27 39 27 113t-27 113t-76 39t-76 -39t-27 -113t27 -113t76 -39t76 39z" />
    <glyph glyph-name="q" unicode="q" horiz-adv-x="599" 
d="M396 512h160v-689h-160v228h-2q-18 -25 -58 -46t-90 -21q-68 0 -118 33t-77.5 94.5t-27.5 144.5t27.5 144.5t77.5 94.5t118 33q50 0 90 -21t58 -46h2v51zM366 143q27 39 27 113t-27 113t-76 39t-76 -39t-27 -113t27 -113t76 -39t76 39z" />
    <glyph glyph-name="r" unicode="r" horiz-adv-x="385" 
d="M375 512v-140q-20 3 -33 3q-58 0 -98 -35.5t-40 -101.5v-238h-160v512h160v-84h2q19 41 51.5 64.5t73.5 23.5q26 0 44 -4z" />
    <glyph glyph-name="s" unicode="s" horiz-adv-x="520" 
d="M83 36q-62 52 -65 134h150q7 -76 100 -76q68 0 68 44q0 19 -12 30.5t-30.5 17.5t-57.5 14l-25 6q-83 19 -133 55t-50 106q0 73 59 117t165 44q115 0 172 -49t61 -124h-150q-4 32 -22.5 47.5t-57.5 15.5q-63 0 -63 -41q0 -21 16 -29t65 -19l26 -6q63 -15 104.5 -32.5
t69 -51t27.5 -89.5q0 -80 -59 -123t-170 -43q-126 0 -188 52z" />
    <glyph glyph-name="t" unicode="t" horiz-adv-x="365" 
d="M340 114v-113q-47 -11 -95 -11q-84 0 -122 41.5t-38 134.5v226h-71v120h71v143h160v-143h89v-120h-89v-222q0 -38 12.5 -49t39.5 -11q18 0 43 4z" />
    <glyph glyph-name="u" unicode="u" horiz-adv-x="581" 
d="M377 512h160v-512h-160v74h-2q-52 -90 -168 -90q-76 0 -121 48t-45 134v346h160v-295q0 -56 19.5 -79.5t60.5 -23.5q96 0 96 102v296z" />
    <glyph glyph-name="v" unicode="v" horiz-adv-x="534" 
d="M355 0h-176l-177 512h162l104 -338h2l104 338h158z" />
    <glyph glyph-name="w" unicode="w" horiz-adv-x="790" 
d="M295 0h-150l-143 512h160l77 -312h2l86 312h140l86 -312h3l77 312h155l-143 -512h-150l-99 324h-2z" />
    <glyph glyph-name="x" unicode="x" horiz-adv-x="520" 
d="M167 0h-180l176 261l-156 251h170l82 -148h2l82 148h170l-156 -251l176 -261h-180l-92 158h-2z" />
    <glyph glyph-name="y" unicode="y" horiz-adv-x="549" 
d="M58 -167v122q26 -3 48 -3q34 0 57.5 9.5t32.5 45.5l-204 505h165l120 -337h2l110 337h158l-187 -513q-34 -93 -79.5 -134.5t-126.5 -41.5q-47 0 -96 10z" />
    <glyph glyph-name="z" unicode="z" horiz-adv-x="501" 
d="M478 0h-459v115l249 275v2h-229v120h429v-115l-249 -275v-2h259v-120z" />
    <glyph glyph-name="braceleft" unicode="{" horiz-adv-x="385" 
d="M335 -137q-86 0 -138 15.5t-79.5 58t-27.5 124.5v122q0 37 -13.5 50.5t-54.5 13.5v138q41 -1 54.5 12.5t13.5 52.5v126q0 81 27.5 123t79 56.5t138.5 14.5h27v-137h-27q-75 0 -75 -93v-116q0 -42 -16.5 -67t-53.5 -40v-2q37 -15 53.5 -40t16.5 -68v-110q0 -97 75 -97h27
v-137h-27z" />
    <glyph glyph-name="bar" unicode="|" horiz-adv-x="230" 
d="M170 -138h-110v892h110v-892z" />
    <glyph glyph-name="braceright" unicode="}" horiz-adv-x="385" 
d="M23 -137v137h27q75 0 75 93v116q0 42 16.5 67t53.5 40v2q-37 15 -53.5 40t-16.5 68v110q0 97 -75 97h-27v137h27q86 0 138 -15.5t79.5 -58t27.5 -124.5v-122q0 -37 13.5 -50.5t54.5 -13.5v-138q-41 1 -54.5 -12.5t-13.5 -52.5v-126q0 -81 -27.5 -123t-79 -56.5
t-138.5 -14.5h-27z" />
    <glyph glyph-name="asciitilde" unicode="~" horiz-adv-x="489" 
d="M45 239q0 89 29 132t90 43q25 0 43.5 -7t41.5 -19q19 -10 31 -14.5t26 -4.5q41 0 41 45h100q0 -89 -29 -132t-90 -43q-25 0 -43.5 7t-41.5 19q-19 10 -31 14.5t-26 4.5q-41 0 -41 -45h-100z" />
    <glyph glyph-name="uni00A0" unicode="&#xa0;" horiz-adv-x="190" 
 />
    <glyph glyph-name="exclamdown" unicode="&#xa1;" horiz-adv-x="254" 
d="M202 433h-152v152h152v-152zM212 -130h-170v156l45 325h80l45 -325v-156z" />
    <glyph glyph-name="cent" unicode="&#xa2;" horiz-adv-x="586" 
d="M341 218q42 18 49 83h161q-5 -84 -61 -141t-149 -67v-88h-70v88q-71 7 -123 43t-80 95t-28 133t28.5 133.5t80.5 96t122 42.5v70h70v-71q91 -11 146 -67t64 -139h-161q-8 64 -49 81v-292zM221 266q17 -38 50 -50v296q-33 -12 -50 -50t-17 -98t17 -98z" />
    <glyph glyph-name="sterling" unicode="&#xa3;" horiz-adv-x="629" 
d="M610 46q-39 -32 -74 -47t-84 -15q-40 0 -66 8t-60 24q-25 13 -45 19.5t-45 6.5q-57 0 -125 -42l-76 124q77 48 82 139h-72v106h51l-10 20q-16 34 -23.5 56.5t-7.5 54.5q0 50 24 95.5t82 75.5t153 30q139 0 204.5 -67t65.5 -186h-170q0 116 -97 116q-47 0 -69.5 -23
t-22.5 -60q0 -24 8 -44.5t24 -49.5l10 -18h143v-106h-124q-10 -58 -64 -114l1 -2q20 10 38 15t40 5t38.5 -4.5t36.5 -12.5t36 -12t37 -4q32 0 54.5 9.5t43.5 27.5z" />
    <glyph glyph-name="currency" unicode="&#xa4;" horiz-adv-x="550" 
d="M457 252l60 -60l-85 -85l-59 59q-47 -21 -97 -21q-54 0 -98 22l-60 -60l-85 85l60 60q-21 47 -21 97t21 97l-60 60l85 85l60 -60q44 22 98 22q55 0 97 -21l59 59l85 -85l-59 -59q21 -43 21 -98q0 -53 -22 -97zM339 266q20 31 20 83t-20 83t-63 31t-63.5 -31t-20.5 -83
t20.5 -83t63.5 -31t63 31z" />
    <glyph glyph-name="yen" unicode="&#xa5;" horiz-adv-x="672" 
d="M466 686h190l-212 -380h142v-67h-165v-58h165v-67h-165v-114h-170v114h-165v67h165v58h-165v67h142l-212 380h190l129 -271h2z" />
    <glyph glyph-name="brokenbar" unicode="&#xa6;" horiz-adv-x="230" 
d="M170 384h-110v370h110v-370zM170 -138h-110v383h110v-383z" />
    <glyph glyph-name="section" unicode="&#xa7;" horiz-adv-x="655" 
d="M591 166.5q-27 -35.5 -77 -54.5q44 -49 44 -114q0 -80 -59 -127.5t-168 -47.5q-112 0 -171.5 55t-63.5 146h160q3 -45 20 -68t57 -23q32 0 48.5 13.5t16.5 37.5q0 29 -23 47t-74 42l-24 12l-65 32q-64 32 -97.5 53t-55.5 52.5t-22 78.5t27 82.5t77 54.5q-44 49 -44 114
q0 80 59 127.5t168 47.5q112 0 171.5 -55t63.5 -146h-160q-3 45 -20 68t-57 23q-32 0 -48.5 -13.5t-16.5 -37.5q0 -29 23 -47t74 -42l24 -12l65 -32q64 -32 97.5 -53t55.5 -52.5t22 -78.5t-27 -82.5zM365 202q26 -12 39 -19q26 2 40.5 15t14.5 34q0 23 -21 39t-81 45l-67 32
q-26 12 -39 19q-26 -2 -40.5 -15t-14.5 -34q0 -23 21 -39t81 -45z" />
    <glyph glyph-name="dieresis" unicode="&#xa8;" horiz-adv-x="462" 
d="M207 573h-160v142h160v-142zM415 573h-160v142h160v-142z" />
    <glyph glyph-name="copyright" unicode="&#xa9;" horiz-adv-x="832" 
d="M217.5 29.5q-84.5 45.5 -130 129.5t-45.5 198t45.5 198.5t130 130t198.5 45.5t198.5 -45.5t130 -130t45.5 -198.5t-45.5 -198t-130 -129.5t-198.5 -45.5t-198.5 45.5zM626.5 136q75.5 80 75.5 221t-76 221.5t-210 80.5t-210 -80.5t-76 -221.5t75.5 -221t210.5 -80
t210.5 80zM306.5 161.5q-49.5 28.5 -76 79t-26.5 116.5q0 65 25.5 116.5t73 80t111.5 28.5q89 0 142 -47.5t61 -123.5h-129q-8 72 -71 72q-41 0 -61 -32.5t-20 -93.5q0 -60 20 -92.5t61 -32.5q36 0 51.5 20t19.5 53h129q-5 -77 -56 -124.5t-139 -47.5q-66 0 -115.5 28.5z
" />
    <glyph glyph-name="ordfeminine" unicode="&#xaa;" horiz-adv-x="489" 
d="M59.5 313q-37.5 33 -37.5 89q0 60 44 91.5t121 46.5l45 9t52 18t17 29q0 34 -54 34q-70 0 -76 -58h-132q4 66 56.5 108t156.5 42q92 0 137.5 -41.5t45.5 -137.5v-154q0 -16 3 -22.5t17 -6.5l8 1v-70q-40 -9 -72 -9q-42 0 -62 15t-26 44h-1q-23 -27 -60 -44t-82 -17
q-63 0 -100.5 33zM279 401.5q22 25.5 22 60.5v31q-29 -14 -72 -23q-64 -13 -64 -54q0 -20 14 -30t38 -10q40 0 62 25.5z" />
    <glyph glyph-name="guillemotleft" unicode="&#xab;" horiz-adv-x="481" 
d="M226 177v-150l-188 154v157l188 155v-154l-112 -79v-2zM436 177v-150l-188 154v157l188 155v-154l-112 -79v-2z" />
    <glyph glyph-name="logicalnot" unicode="&#xac;" horiz-adv-x="512" 
d="M461 134h-160v159h-269v137h429v-296z" />
    <glyph glyph-name="uni00AD" unicode="&#xad;" horiz-adv-x="352" 
d="M312 184h-272v137h272v-137z" />
    <glyph glyph-name="registered" unicode="&#xae;" horiz-adv-x="563" 
d="M161 278.5q-55 31.5 -87 87t-32 123.5t32 123.5t87 87t121 31.5t121 -31.5t86.5 -87t31.5 -123.5t-31.5 -123.5t-86.5 -87t-121 -31.5t-121 31.5zM415 347q49 53 49 143q0 89 -49 142t-133 53t-133.5 -53t-49.5 -142q0 -90 49.5 -143t133.5 -53t133 53zM177 360v265h125
q44 0 69 -20t25 -57q0 -26 -14 -43t-39 -22v-1q30 -5 39 -29t11 -61q1 -11 2.5 -19t4.5 -9v-4h-79q-3 3 -4 11t-1 17q-1 30 -8.5 47.5t-32.5 17.5h-22v-93h-76zM279 509q41 0 41 31q0 17 -10.5 24t-30.5 7h-26v-62h26z" />
    <glyph glyph-name="macron" unicode="&#xaf;" horiz-adv-x="366" 
d="M326 573h-286v100h286v-100z" />
    <glyph glyph-name="degree" unicode="&#xb0;" horiz-adv-x="390" 
d="M112.5 445q-35.5 21 -54.5 56.5t-19 76.5t19 76t54.5 56t82.5 21t82.5 -21t54.5 -56t19 -76t-19 -76.5t-54.5 -56.5t-82.5 -21t-82.5 21zM241 522.5q20 18.5 20 55.5t-19.5 55t-46.5 18t-46.5 -18t-19.5 -55t20 -55.5t46 -18.5t46 18.5z" />
    <glyph glyph-name="plusminus" unicode="&#xb1;" horiz-adv-x="574" 
d="M530 426v-138h-174v-148h174v-138h-486v138h174v148h-174v138h174v181h138v-181h174z" />
    <glyph glyph-name="uni00B2" unicode="&#xb2;" horiz-adv-x="375" 
d="M20 364q0 43 8 66.5t28.5 43t72.5 59.5q8 6 35.5 26.5t43 42t15.5 44.5q0 38 -36 38q-23 0 -35 -14.5t-12 -52.5h-116q0 79 41.5 121.5t125.5 42.5q71 0 112.5 -33.5t41.5 -92.5q0 -53 -27 -87.5t-73 -72.5q-30 -25 -37 -33v-1h139v-97h-327z" />
    <glyph glyph-name="uni00B3" unicode="&#xb3;" horiz-adv-x="384" 
d="M63 400.5q-46 40.5 -46 116.5h116q0 -32 12.5 -46.5t44.5 -14.5q47 0 47 40q0 21 -15.5 31t-50.5 10h-14v80h12q57 0 57 40q0 16 -10.5 24.5t-26.5 8.5q-20 0 -32.5 -9.5t-12.5 -30.5h-115q0 60 45 98.5t120 38.5q67 0 111.5 -30.5t44.5 -82.5q0 -55 -57 -89v-1
q68 -23 68 -96q0 -62 -44.5 -95t-121.5 -33q-86 0 -132 40.5z" />
    <glyph glyph-name="acute" unicode="&#xb4;" horiz-adv-x="303" 
d="M160 573h-120l53 152h180z" />
    <glyph glyph-name="uni00B5" unicode="&#xb5;" horiz-adv-x="606" 
d="M391 512h160v-512h-160v74h-2q-20 -41 -55 -62.5t-73 -21.5q-26 0 -46 10v-177h-160v689h160v-295q0 -56 19.5 -79.5t60.5 -23.5q96 0 96 102v296z" />
    <glyph glyph-name="paragraph" unicode="&#xb6;" horiz-adv-x="603" 
d="M267 0v335h-42q-101 0 -155 48.5t-54 138.5q0 91 54.5 142t154.5 51h313v-715h-100v625h-71v-625h-100z" />
    <glyph glyph-name="periodcentered" unicode="&#xb7;" horiz-adv-x="242" 
d="M197 174h-152v152h152v-152z" />
    <glyph glyph-name="cedilla" unicode="&#xb8;" horiz-adv-x="323" 
d="M51 -165l30 35q32 -15 63 -15q20 0 33 7t13 22q0 27 -34 27q-18 0 -37 -7l-24 34l59 62h72l-39 -48v-2q6 1 18 1q38 0 63.5 -17.5t25.5 -50.5q0 -38 -37.5 -59.5t-93.5 -21.5q-63 0 -112 33z" />
    <glyph glyph-name="uni00B9" unicode="&#xb9;" horiz-adv-x="267" 
d="M99 617q-20 -9 -86 -9v92q45 0 77 19t31 51h106v-406h-128v253z" />
    <glyph glyph-name="ordmasculine" unicode="&#xba;" horiz-adv-x="502" 
d="M127.5 308q-52.5 28 -80.5 78t-28 115t28 115t81 78t124 28q70 0 122.5 -27.5t80.5 -77.5t28 -114q0 -65 -28 -116t-81 -79t-124 -28q-70 0 -122.5 28zM316 414q23 30 23 88q0 56 -23 86t-65 30t-65 -30t-23 -86q0 -58 23 -88t65 -30t65 30z" />
    <glyph glyph-name="guillemotright" unicode="&#xbb;" horiz-adv-x="481" 
d="M233 182l-188 -155v154l112 79v2l-112 81v150l188 -154v-157zM443 182l-188 -155v154l112 79v2l-112 81v150l188 -154v-157z" />
    <glyph glyph-name="onequarter" unicode="&#xbc;" horiz-adv-x="823" 
d="M99 562q-20 -9 -86 -9v92q45 0 77 19t31 51h106v-406h-128v253zM231 0h-140l453 715h140zM749 0h-121v81h-179v120l179 205h121v-229h60v-96h-60v-81zM628 280l-94 -103h94v103z" />
    <glyph glyph-name="onehalf" unicode="&#xbd;" horiz-adv-x="874" 
d="M98 562q-20 -9 -86 -9v92q45 0 77 19t31 51h106v-406h-128v253zM238 0h-140l453 715h140zM521 0q0 43 8 66.5t28.5 43t72.5 59.5q8 6 35.5 26.5t43 42t15.5 44.5q0 38 -36 38q-23 0 -35 -14.5t-12 -52.5h-116q0 79 41.5 121.5t125.5 42.5q71 0 112.5 -33.5t41.5 -92.5
q0 -53 -27 -87.5t-73 -72.5q-30 -25 -37 -33v-1h139v-97h-327z" />
    <glyph glyph-name="threequarters" unicode="&#xbe;" horiz-adv-x="920" 
d="M73 339.5q-46 40.5 -46 116.5h116q0 -32 12.5 -46.5t44.5 -14.5q47 0 47 40q0 21 -15.5 31t-50.5 10h-14v80h12q57 0 57 40q0 16 -10.5 24.5t-26.5 8.5q-20 0 -32.5 -9.5t-12.5 -30.5h-115q0 60 45 98.5t120 38.5q67 0 111.5 -30.5t44.5 -82.5q0 -55 -57 -89v-1
q68 -23 68 -96q0 -62 -44.5 -95t-121.5 -33q-86 0 -132 40.5zM325 0h-140l453 715h140zM841 0h-121v81h-179v120l179 205h121v-229h60v-96h-60v-81zM720 280l-94 -103h94v103z" />
    <glyph glyph-name="questiondown" unicode="&#xbf;" horiz-adv-x="540" 
d="M363 435h-152v152h152v-152zM132.5 -119.5q-54.5 24.5 -85 68.5t-30.5 101q0 58 27 97.5t82 70.5q38 21 58 37.5t29 39t9 58.5h132q0 -65 -6 -95t-24 -50.5t-64 -54.5q-44 -32 -58.5 -50.5t-14.5 -48.5q0 -26 17.5 -43.5t56.5 -17.5q47 0 70.5 29.5t23.5 86.5h170
q0 -72 -30.5 -129t-91 -90.5t-147.5 -33.5q-69 0 -123.5 24.5z" />
    <glyph glyph-name="Agrave" unicode="&#xc0;" horiz-adv-x="716" 
d="M188 0h-193l272 715h181l274 -715h-197l-46 149h-245zM356 550l-81 -264h164l-81 264h-2zM415 778h-120l-93 152h160z" />
    <glyph glyph-name="Aacute" unicode="&#xc1;" horiz-adv-x="716" 
d="M188 0h-193l272 715h181l274 -715h-197l-46 149h-245zM356 550l-81 -264h164l-81 264h-2zM417 776h-120l53 152h180z" />
    <glyph glyph-name="Acircumflex" unicode="&#xc2;" horiz-adv-x="716" 
d="M188 0h-193l272 715h181l274 -715h-197l-46 149h-245zM356 550l-81 -264h164l-81 264h-2zM311 776h-139l107 152h156l107 -152h-139l-45 81h-2z" />
    <glyph glyph-name="Atilde" unicode="&#xc3;" horiz-adv-x="716" 
d="M188 0h-193l272 715h181l274 -715h-197l-46 149h-245zM356 550l-81 -264h164l-81 264h-2zM178 761q0 147 89 147q19 0 36 -5.5t42 -16.5q4 -2 16.5 -7.5t22.5 -8t19 -2.5q35 0 35 40h86q0 -76 -22.5 -111.5t-66.5 -35.5q-20 0 -38 6t-41 16q-38 17 -57 17q-34 0 -34 -39
h-87z" />
    <glyph glyph-name="Adieresis" unicode="&#xc4;" horiz-adv-x="716" 
d="M188 0h-193l272 715h181l274 -715h-197l-46 149h-245zM356 550l-81 -264h164l-81 264h-2zM333 776h-160v142h160v-142zM541 776h-160v142h160v-142z" />
    <glyph glyph-name="Aring" unicode="&#xc5;" horiz-adv-x="716" 
d="M188 0h-193l272 715h181l274 -715h-197l-46 149h-245zM356 550l-81 -264h164l-81 264h-2zM279 771.5q-32 29.5 -32 78.5q0 48 32 78t78 30t78 -30t32 -78q0 -49 -32 -78.5t-78 -29.5t-78 29.5zM388.5 816q11.5 12 11.5 34t-11.5 34t-31.5 12q-19 0 -30.5 -12t-11.5 -34
t11.5 -34t30.5 -12q20 0 31.5 12z" />
    <glyph glyph-name="AE" unicode="&#xc6;" horiz-adv-x="1009" 
d="M607 294v-147h368v-147h-548v147h-207l-46 -149h-180l270 717h705v-147h-362v-127h312v-147h-312zM261 284h165v284h-73z" />
    <glyph glyph-name="Ccedilla" unicode="&#xc7;" horiz-adv-x="715" 
d="M467.5 166.5q31.5 35.5 41.5 101.5h184q-12 -118 -83.5 -194t-195.5 -88l-28 -34v-2q6 1 18 1q38 0 63.5 -17.5t25.5 -50.5q0 -38 -37.5 -59.5t-93.5 -21.5q-63 0 -112 33l30 35q32 -15 63 -15q20 0 33 7t13 22q0 27 -34 27q-18 0 -37 -7l-24 34l45 47
q-100 7 -169.5 56.5t-104.5 130t-35 183.5q0 111 40 196t118.5 132.5t188.5 47.5q142 0 222.5 -76.5t93.5 -205.5h-184q-11 65 -42.5 100t-97.5 35q-84 0 -119.5 -58.5t-35.5 -167.5t35.5 -168t119.5 -59q67 0 98.5 35.5z" />
    <glyph glyph-name="Egrave" unicode="&#xc8;" horiz-adv-x="642" 
d="M608 0h-548v715h542v-147h-362v-127h312v-147h-312v-147h368v-147zM392 778h-120l-93 152h160z" />
    <glyph glyph-name="Eacute" unicode="&#xc9;" horiz-adv-x="642" 
d="M608 0h-548v715h542v-147h-362v-127h312v-147h-312v-147h368v-147zM394 776h-120l53 152h180z" />
    <glyph glyph-name="Ecircumflex" unicode="&#xca;" horiz-adv-x="642" 
d="M608 0h-548v715h542v-147h-362v-127h312v-147h-312v-147h368v-147zM288 776h-139l107 152h156l107 -152h-139l-45 81h-2z" />
    <glyph glyph-name="Edieresis" unicode="&#xcb;" horiz-adv-x="642" 
d="M608 0h-548v715h542v-147h-362v-127h312v-147h-312v-147h368v-147zM310 776h-160v142h160v-142zM518 776h-160v142h160v-142z" />
    <glyph glyph-name="Igrave" unicode="&#xcc;" horiz-adv-x="300" 
d="M240 0h-180v715h180v-715zM208 778h-120l-93 152h160z" />
    <glyph glyph-name="Iacute" unicode="&#xcd;" horiz-adv-x="300" 
d="M240 0h-180v715h180v-715zM210 776h-120l53 152h180z" />
    <glyph glyph-name="Icircumflex" unicode="&#xce;" horiz-adv-x="300" 
d="M240 0h-180v715h180v-715zM104 776h-139l107 152h156l107 -152h-139l-45 81h-2z" />
    <glyph glyph-name="Idieresis" unicode="&#xcf;" horiz-adv-x="300" 
d="M240 0h-180v715h180v-715zM126 776h-160v142h160v-142zM334 776h-160v142h160v-142z" />
    <glyph glyph-name="Eth" unicode="&#xd0;" horiz-adv-x="739" 
d="M388 715q150 0 234.5 -93.5t84.5 -264.5q0 -172 -80 -264.5t-229 -92.5h-327v325h-58v90h58v300h317zM366 147q157 0 157 210q0 211 -157 211h-115v-153h140v-90h-140v-178h115z" />
    <glyph glyph-name="Ntilde" unicode="&#xd1;" horiz-adv-x="732" 
d="M240 0h-180v715h180l250 -425h2v425h180v-715h-180l-250 425h-2v-425zM187 761q0 147 89 147q19 0 36 -5.5t42 -16.5q4 -2 16.5 -7.5t22.5 -8t19 -2.5q35 0 35 40h86q0 -76 -22.5 -111.5t-66.5 -35.5q-20 0 -38 6t-41 16q-38 17 -57 17q-34 0 -34 -39h-87z" />
    <glyph glyph-name="Ograve" unicode="&#xd2;" horiz-adv-x="768" 
d="M193 32q-80 48 -121.5 132.5t-41.5 193.5q0 108 41.5 192.5t121.5 132.5t191 48q110 0 190 -48t122 -132.5t42 -192.5q0 -109 -42 -193.5t-122 -132.5t-190 -48q-111 0 -191 48zM514.5 192.5q39.5 61.5 39.5 165.5q0 103 -39.5 164.5t-130.5 61.5q-170 0 -170 -226
q0 -227 170 -227q91 0 130.5 61.5zM442 778h-120l-93 152h160z" />
    <glyph glyph-name="Oacute" unicode="&#xd3;" horiz-adv-x="768" 
d="M193 32q-80 48 -121.5 132.5t-41.5 193.5q0 108 41.5 192.5t121.5 132.5t191 48q110 0 190 -48t122 -132.5t42 -192.5q0 -109 -42 -193.5t-122 -132.5t-190 -48q-111 0 -191 48zM514.5 192.5q39.5 61.5 39.5 165.5q0 103 -39.5 164.5t-130.5 61.5q-170 0 -170 -226
q0 -227 170 -227q91 0 130.5 61.5zM444 776h-120l53 152h180z" />
    <glyph glyph-name="Ocircumflex" unicode="&#xd4;" horiz-adv-x="768" 
d="M193 32q-80 48 -121.5 132.5t-41.5 193.5q0 108 41.5 192.5t121.5 132.5t191 48q110 0 190 -48t122 -132.5t42 -192.5q0 -109 -42 -193.5t-122 -132.5t-190 -48q-111 0 -191 48zM514.5 192.5q39.5 61.5 39.5 165.5q0 103 -39.5 164.5t-130.5 61.5q-170 0 -170 -226
q0 -227 170 -227q91 0 130.5 61.5zM338 776h-139l107 152h156l107 -152h-139l-45 81h-2z" />
    <glyph glyph-name="Otilde" unicode="&#xd5;" horiz-adv-x="768" 
d="M193 32q-80 48 -121.5 132.5t-41.5 193.5q0 108 41.5 192.5t121.5 132.5t191 48q110 0 190 -48t122 -132.5t42 -192.5q0 -109 -42 -193.5t-122 -132.5t-190 -48q-111 0 -191 48zM514.5 192.5q39.5 61.5 39.5 165.5q0 103 -39.5 164.5t-130.5 61.5q-170 0 -170 -226
q0 -227 170 -227q91 0 130.5 61.5zM205 761q0 147 89 147q19 0 36 -5.5t42 -16.5q4 -2 16.5 -7.5t22.5 -8t19 -2.5q35 0 35 40h86q0 -76 -22.5 -111.5t-66.5 -35.5q-20 0 -38 6t-41 16q-38 17 -57 17q-34 0 -34 -39h-87z" />
    <glyph glyph-name="Odieresis" unicode="&#xd6;" horiz-adv-x="768" 
d="M193 32q-80 48 -121.5 132.5t-41.5 193.5q0 108 41.5 192.5t121.5 132.5t191 48q110 0 190 -48t122 -132.5t42 -192.5q0 -109 -42 -193.5t-122 -132.5t-190 -48q-111 0 -191 48zM514.5 192.5q39.5 61.5 39.5 165.5q0 103 -39.5 164.5t-130.5 61.5q-170 0 -170 -226
q0 -227 170 -227q91 0 130.5 61.5zM360 776h-160v142h160v-142zM568 776h-160v142h160v-142z" />
    <glyph glyph-name="multiply" unicode="&#xd7;" horiz-adv-x="574" 
d="M287 232l-144 -144l-97 97l144 144l-144 143l97 97l144 -144l144 144l97 -97l-144 -143l144 -144l-97 -97z" />
    <glyph glyph-name="Oslash" unicode="&#xd8;" horiz-adv-x="771" 
d="M742 673l-74 -74q72 -98 72 -241q0 -109 -42 -193.5t-122 -132.5t-190 -48q-75 0 -137 22.5t-107 64.5l-70 -70l-42 43l72 73q-34 47 -52 108.5t-18 132.5q0 108 41.5 192.5t121.5 132.5t191 48q74 0 135.5 -22.5t106.5 -64.5l71 71zM230 245l282 283q-42 56 -126 56
q-170 0 -170 -226q0 -67 14 -113zM541 471l-283 -283q44 -57 128 -57q91 0 130.5 61.5t39.5 165.5q0 68 -15 113z" />
    <glyph glyph-name="Ugrave" unicode="&#xd9;" horiz-adv-x="706" 
d="M124.5 52.5q-70.5 68.5 -70.5 205.5v457h180v-457q0 -68 29 -97.5t90 -29.5t90 29.5t29 97.5v457h180v-457q0 -137 -70.5 -205.5t-228.5 -68.5t-228.5 68.5zM411 778h-120l-93 152h160z" />
    <glyph glyph-name="Uacute" unicode="&#xda;" horiz-adv-x="706" 
d="M124.5 52.5q-70.5 68.5 -70.5 205.5v457h180v-457q0 -68 29 -97.5t90 -29.5t90 29.5t29 97.5v457h180v-457q0 -137 -70.5 -205.5t-228.5 -68.5t-228.5 68.5zM413 776h-120l53 152h180z" />
    <glyph glyph-name="Ucircumflex" unicode="&#xdb;" horiz-adv-x="706" 
d="M124.5 52.5q-70.5 68.5 -70.5 205.5v457h180v-457q0 -68 29 -97.5t90 -29.5t90 29.5t29 97.5v457h180v-457q0 -137 -70.5 -205.5t-228.5 -68.5t-228.5 68.5zM307 776h-139l107 152h156l107 -152h-139l-45 81h-2z" />
    <glyph glyph-name="Udieresis" unicode="&#xdc;" horiz-adv-x="706" 
d="M124.5 52.5q-70.5 68.5 -70.5 205.5v457h180v-457q0 -68 29 -97.5t90 -29.5t90 29.5t29 97.5v457h180v-457q0 -137 -70.5 -205.5t-228.5 -68.5t-228.5 68.5zM329 776h-160v142h160v-142zM537 776h-160v142h160v-142z" />
    <glyph glyph-name="Yacute" unicode="&#xdd;" horiz-adv-x="667" 
d="M424 0h-180v264l-244 451h194l139 -304h2l140 304h190l-241 -451v-264zM395 776h-120l53 152h180z" />
    <glyph glyph-name="Thorn" unicode="&#xde;" horiz-adv-x="665" 
d="M60 0v715h180v-100h167q114 0 178 -58.5t64 -169.5t-64 -169.5t-178 -58.5h-167v-159h-180zM369 306q49 0 74.5 19t25.5 62t-25.5 62t-74.5 19h-129v-162h129z" />
    <glyph glyph-name="germandbls" unicode="&#xdf;" horiz-adv-x="586" 
d="M254 0v120q30 -5 50 -5q97 0 97 105q0 123 -122 123h-25v100h21q40 0 63 23.5t23 64.5q0 38 -19.5 59t-56.5 21q-39 0 -60 -28.5t-21 -97.5v-485h-160v477q0 125 62.5 189.5t183.5 64.5q79 0 132 -26t78 -69.5t25 -95.5q0 -54 -25 -90.5t-65 -53.5v-2q62 -20 96 -73.5
t34 -125.5q0 -66 -29 -114t-79 -72.5t-111 -24.5q-47 0 -92 16z" />
    <glyph glyph-name="agrave" unicode="&#xe0;" horiz-adv-x="564" 
d="M67 25q-44 41 -44 109q0 74 51.5 112t144.5 58q6 2 22 4q56 12 84.5 24.5t28.5 42.5q0 22 -17 34t-51 12q-44 0 -65.5 -18t-25.5 -56h-152q4 80 66 131t184 51q108 0 162 -49.5t54 -163.5v-198q0 -22 4 -30.5t15 -8.5q7 0 13 1v-76q-48 -9 -88 -9q-46 0 -68 16.5
t-28 50.5h-2q-28 -36 -72 -57t-97 -21q-75 0 -119 41zM326.5 127q27.5 33 27.5 80v43q-23 -9 -87 -24q-43 -10 -61.5 -28.5t-18.5 -46.5q0 -29 17 -43t49 -14q46 0 73.5 33zM343 575h-120l-93 152h160z" />
    <glyph glyph-name="aacute" unicode="&#xe1;" horiz-adv-x="564" 
d="M67 25q-44 41 -44 109q0 74 51.5 112t144.5 58q6 2 22 4q56 12 84.5 24.5t28.5 42.5q0 22 -17 34t-51 12q-44 0 -65.5 -18t-25.5 -56h-152q4 80 66 131t184 51q108 0 162 -49.5t54 -163.5v-198q0 -22 4 -30.5t15 -8.5q7 0 13 1v-76q-48 -9 -88 -9q-46 0 -68 16.5
t-28 50.5h-2q-28 -36 -72 -57t-97 -21q-75 0 -119 41zM326.5 127q27.5 33 27.5 80v43q-23 -9 -87 -24q-43 -10 -61.5 -28.5t-18.5 -46.5q0 -29 17 -43t49 -14q46 0 73.5 33zM345 573h-120l53 152h180z" />
    <glyph glyph-name="acircumflex" unicode="&#xe2;" horiz-adv-x="564" 
d="M67 25q-44 41 -44 109q0 74 51.5 112t144.5 58q6 2 22 4q56 12 84.5 24.5t28.5 42.5q0 22 -17 34t-51 12q-44 0 -65.5 -18t-25.5 -56h-152q4 80 66 131t184 51q108 0 162 -49.5t54 -163.5v-198q0 -22 4 -30.5t15 -8.5q7 0 13 1v-76q-48 -9 -88 -9q-46 0 -68 16.5
t-28 50.5h-2q-28 -36 -72 -57t-97 -21q-75 0 -119 41zM326.5 127q27.5 33 27.5 80v43q-23 -9 -87 -24q-43 -10 -61.5 -28.5t-18.5 -46.5q0 -29 17 -43t49 -14q46 0 73.5 33zM239 573h-139l107 152h156l107 -152h-139l-45 81h-2z" />
    <glyph glyph-name="atilde" unicode="&#xe3;" horiz-adv-x="564" 
d="M67 25q-44 41 -44 109q0 74 51.5 112t144.5 58q6 2 22 4q56 12 84.5 24.5t28.5 42.5q0 22 -17 34t-51 12q-44 0 -65.5 -18t-25.5 -56h-152q4 80 66 131t184 51q108 0 162 -49.5t54 -163.5v-198q0 -22 4 -30.5t15 -8.5q7 0 13 1v-76q-48 -9 -88 -9q-46 0 -68 16.5
t-28 50.5h-2q-28 -36 -72 -57t-97 -21q-75 0 -119 41zM326.5 127q27.5 33 27.5 80v43q-23 -9 -87 -24q-43 -10 -61.5 -28.5t-18.5 -46.5q0 -29 17 -43t49 -14q46 0 73.5 33zM106 558q0 147 89 147q19 0 36 -5.5t42 -16.5q4 -2 16.5 -7.5t22.5 -8t19 -2.5q35 0 35 40h86
q0 -76 -22.5 -111.5t-66.5 -35.5q-20 0 -38 6t-41 16q-38 17 -57 17q-34 0 -34 -39h-87z" />
    <glyph glyph-name="adieresis" unicode="&#xe4;" horiz-adv-x="564" 
d="M67 25q-44 41 -44 109q0 74 51.5 112t144.5 58q6 2 22 4q56 12 84.5 24.5t28.5 42.5q0 22 -17 34t-51 12q-44 0 -65.5 -18t-25.5 -56h-152q4 80 66 131t184 51q108 0 162 -49.5t54 -163.5v-198q0 -22 4 -30.5t15 -8.5q7 0 13 1v-76q-48 -9 -88 -9q-46 0 -68 16.5
t-28 50.5h-2q-28 -36 -72 -57t-97 -21q-75 0 -119 41zM326.5 127q27.5 33 27.5 80v43q-23 -9 -87 -24q-43 -10 -61.5 -28.5t-18.5 -46.5q0 -29 17 -43t49 -14q46 0 73.5 33zM261 573h-160v142h160v-142zM469 573h-160v142h160v-142z" />
    <glyph glyph-name="aring" unicode="&#xe5;" horiz-adv-x="564" 
d="M67 25q-44 41 -44 109q0 74 51.5 112t144.5 58q6 2 22 4q56 12 84.5 24.5t28.5 42.5q0 22 -17 34t-51 12q-44 0 -65.5 -18t-25.5 -56h-152q4 80 66 131t184 51q108 0 162 -49.5t54 -163.5v-198q0 -22 4 -30.5t15 -8.5q7 0 13 1v-76q-48 -9 -88 -9q-46 0 -68 16.5
t-28 50.5h-2q-28 -36 -72 -57t-97 -21q-75 0 -119 41zM326.5 127q27.5 33 27.5 80v43q-23 -9 -87 -24q-43 -10 -61.5 -28.5t-18.5 -46.5q0 -29 17 -43t49 -14q46 0 73.5 33zM207 568.5q-32 29.5 -32 78.5q0 48 32 78t78 30t78 -30t32 -78q0 -49 -32 -78.5t-78 -29.5
t-78 29.5zM316.5 613q11.5 12 11.5 34t-11.5 34t-31.5 12q-19 0 -30.5 -12t-11.5 -34t11.5 -34t30.5 -12q20 0 31.5 12z" />
    <glyph glyph-name="ae" unicode="&#xe6;" horiz-adv-x="899" 
d="M876 213h-368q0 -51 31.5 -80.5t78.5 -29.5q71 0 91 52h163q-22 -81 -87.5 -126.5t-170.5 -45.5q-65 0 -117 22.5t-87 63.5q-41 -46 -89 -65.5t-110 -19.5q-93 0 -140.5 40.5t-47.5 109.5q0 74 51.5 112t144.5 58q6 2 22 4q56 12 84.5 24.5t28.5 42.5q0 22 -17 34t-51 12
q-44 0 -65.5 -18t-25.5 -56h-152q4 80 65 131t177 51q112 0 168 -48q67 48 161 48q130 0 196 -74.5t66 -217.5v-24zM715 312q0 49 -27 75t-74 26q-46 0 -74 -26t-31 -75h206zM349 229l-1 20q-28 -11 -81 -23q-80 -18 -80 -72q0 -60 64 -60q47 0 72.5 30.5t25.5 75.5v29z" />
    <glyph glyph-name="ccedilla" unicode="&#xe7;" horiz-adv-x="549" 
d="M348 127.5q20 24.5 24 65.5h161q-5 -86 -63 -143t-153 -66l-26 -32v-2q6 1 18 1q38 0 63.5 -17.5t25.5 -50.5q0 -38 -37.5 -59.5t-93.5 -21.5q-63 0 -112 33l30 35q32 -15 63 -15q20 0 33 7t13 22q0 27 -34 27q-18 0 -37 -7l-24 34l45 48q-102 13 -162 86.5t-60 183.5
q0 79 32 141t91 97t137 35q108 0 174.5 -57.5t76.5 -150.5h-161q-10 88 -87 88q-49 0 -74 -40t-25 -113t25 -113t74 -40q43 0 63 24.5z" />
    <glyph glyph-name="egrave" unicode="&#xe8;" horiz-adv-x="573" 
d="M550 213h-368q0 -51 31.5 -80.5t78.5 -29.5q71 0 91 52h163q-22 -81 -87.5 -126.5t-170.5 -45.5q-82 0 -142 34.5t-92 96.5t-32 142q0 76 31 138t91.5 98.5t143.5 36.5q130 0 196 -74.5t66 -217.5v-24zM389 312q0 49 -27 75t-74 26q-46 0 -74 -26t-31 -75h206zM344 575
h-120l-93 152h160z" />
    <glyph glyph-name="eacute" unicode="&#xe9;" horiz-adv-x="573" 
d="M550 213h-368q0 -51 31.5 -80.5t78.5 -29.5q71 0 91 52h163q-22 -81 -87.5 -126.5t-170.5 -45.5q-82 0 -142 34.5t-92 96.5t-32 142q0 76 31 138t91.5 98.5t143.5 36.5q130 0 196 -74.5t66 -217.5v-24zM389 312q0 49 -27 75t-74 26q-46 0 -74 -26t-31 -75h206zM346 573
h-120l53 152h180z" />
    <glyph glyph-name="ecircumflex" unicode="&#xea;" horiz-adv-x="573" 
d="M550 213h-368q0 -51 31.5 -80.5t78.5 -29.5q71 0 91 52h163q-22 -81 -87.5 -126.5t-170.5 -45.5q-82 0 -142 34.5t-92 96.5t-32 142q0 76 31 138t91.5 98.5t143.5 36.5q130 0 196 -74.5t66 -217.5v-24zM389 312q0 49 -27 75t-74 26q-46 0 -74 -26t-31 -75h206zM240 573
h-139l107 152h156l107 -152h-139l-45 81h-2z" />
    <glyph glyph-name="edieresis" unicode="&#xeb;" horiz-adv-x="573" 
d="M550 213h-368q0 -51 31.5 -80.5t78.5 -29.5q71 0 91 52h163q-22 -81 -87.5 -126.5t-170.5 -45.5q-82 0 -142 34.5t-92 96.5t-32 142q0 76 31 138t91.5 98.5t143.5 36.5q130 0 196 -74.5t66 -217.5v-24zM389 312q0 49 -27 75t-74 26q-46 0 -74 -26t-31 -75h206zM262 573
h-160v142h160v-142zM470 573h-160v142h160v-142z" />
    <glyph glyph-name="igrave" unicode="&#xec;" horiz-adv-x="248" 
d="M204 0h-160v512h160v-512zM182 575h-120l-93 152h160z" />
    <glyph glyph-name="iacute" unicode="&#xed;" horiz-adv-x="248" 
d="M204 0h-160v512h160v-512zM184 573h-120l53 152h180z" />
    <glyph glyph-name="icircumflex" unicode="&#xee;" horiz-adv-x="248" 
d="M204 0h-160v512h160v-512zM78 573h-139l107 152h156l107 -152h-139l-45 81h-2z" />
    <glyph glyph-name="idieresis" unicode="&#xef;" horiz-adv-x="248" 
d="M204 0h-160v512h160v-512zM100 573h-160v142h160v-142zM308 573h-160v142h160v-142z" />
    <glyph glyph-name="eth" unicode="&#xf0;" horiz-adv-x="593" 
d="M448 630q52 -58 85 -137.5t33 -176.5q0 -91 -28 -165.5t-90 -120.5t-159 -46q-126 0 -196.5 74t-70.5 199q0 83 31 144.5t83.5 94t114.5 32.5q79 0 125 -43q-18 57 -65 109l-130 -35l-16 58l93 25q-56 42 -114 73h200q25 -13 53 -36l105 28l16 -58zM367.5 149
q28.5 37 28.5 108q0 70 -28.5 107t-78.5 37t-78.5 -37t-28.5 -107q0 -71 28.5 -108t78.5 -37t78.5 37z" />
    <glyph glyph-name="ntilde" unicode="&#xf1;" horiz-adv-x="581" 
d="M495 480q45 -48 45 -134v-346h-160v295q0 56 -19.5 79.5t-60.5 23.5q-96 0 -96 -102v-296h-160v512h160v-74h2q52 90 168 90q76 0 121 -48zM143 558q0 147 89 147q19 0 36 -5.5t42 -16.5q4 -2 16.5 -7.5t22.5 -8t19 -2.5q35 0 35 40h86q0 -76 -22.5 -111.5t-66.5 -35.5
q-20 0 -38 6t-41 16q-38 17 -57 17q-34 0 -34 -39h-87z" />
    <glyph glyph-name="ograve" unicode="&#xf2;" horiz-adv-x="591" 
d="M149.5 17q-61.5 34 -94.5 95.5t-33 142.5t33 143t95.5 96.5t146.5 34.5q83 0 144.5 -34t94.5 -95.5t33 -141.5q0 -81 -33 -143.5t-95 -97t-147 -34.5q-83 0 -144.5 34zM378 142.5q29 39.5 29 113.5t-29 113.5t-82 39.5q-54 0 -83 -39.5t-29 -113.5t29 -113.5t83 -39.5
q53 0 82 39.5zM354 575h-120l-93 152h160z" />
    <glyph glyph-name="oacute" unicode="&#xf3;" horiz-adv-x="591" 
d="M149.5 17q-61.5 34 -94.5 95.5t-33 142.5t33 143t95.5 96.5t146.5 34.5q83 0 144.5 -34t94.5 -95.5t33 -141.5q0 -81 -33 -143.5t-95 -97t-147 -34.5q-83 0 -144.5 34zM378 142.5q29 39.5 29 113.5t-29 113.5t-82 39.5q-54 0 -83 -39.5t-29 -113.5t29 -113.5t83 -39.5
q53 0 82 39.5zM356 573h-120l53 152h180z" />
    <glyph glyph-name="ocircumflex" unicode="&#xf4;" horiz-adv-x="591" 
d="M149.5 17q-61.5 34 -94.5 95.5t-33 142.5t33 143t95.5 96.5t146.5 34.5q83 0 144.5 -34t94.5 -95.5t33 -141.5q0 -81 -33 -143.5t-95 -97t-147 -34.5q-83 0 -144.5 34zM378 142.5q29 39.5 29 113.5t-29 113.5t-82 39.5q-54 0 -83 -39.5t-29 -113.5t29 -113.5t83 -39.5
q53 0 82 39.5zM250 573h-139l107 152h156l107 -152h-139l-45 81h-2z" />
    <glyph glyph-name="otilde" unicode="&#xf5;" horiz-adv-x="591" 
d="M149.5 17q-61.5 34 -94.5 95.5t-33 142.5t33 143t95.5 96.5t146.5 34.5q83 0 144.5 -34t94.5 -95.5t33 -141.5q0 -81 -33 -143.5t-95 -97t-147 -34.5q-83 0 -144.5 34zM378 142.5q29 39.5 29 113.5t-29 113.5t-82 39.5q-54 0 -83 -39.5t-29 -113.5t29 -113.5t83 -39.5
q53 0 82 39.5zM117 558q0 147 89 147q19 0 36 -5.5t42 -16.5q4 -2 16.5 -7.5t22.5 -8t19 -2.5q35 0 35 40h86q0 -76 -22.5 -111.5t-66.5 -35.5q-20 0 -38 6t-41 16q-38 17 -57 17q-34 0 -34 -39h-87z" />
    <glyph glyph-name="odieresis" unicode="&#xf6;" horiz-adv-x="591" 
d="M149.5 17q-61.5 34 -94.5 95.5t-33 142.5t33 143t95.5 96.5t146.5 34.5q83 0 144.5 -34t94.5 -95.5t33 -141.5q0 -81 -33 -143.5t-95 -97t-147 -34.5q-83 0 -144.5 34zM378 142.5q29 39.5 29 113.5t-29 113.5t-82 39.5q-54 0 -83 -39.5t-29 -113.5t29 -113.5t83 -39.5
q53 0 82 39.5zM272 573h-160v142h160v-142zM480 573h-160v142h160v-142z" />
    <glyph glyph-name="divide" unicode="&#xf7;" horiz-adv-x="574" 
d="M363 452h-152v152h152v-152zM363 53h-152v152h152v-152zM530 260h-486v138h486v-138z" />
    <glyph glyph-name="oslash" unicode="&#xf8;" horiz-adv-x="591" 
d="M515 433q54 -71 54 -175q0 -81 -33 -143.5t-95 -97t-147 -34.5q-105 0 -175 53l-49 -49l-42 43l49 49q-55 70 -55 176q0 81 33 143t95.5 96.5t146.5 34.5q106 0 175 -54l49 49l43 -42zM191 193l182 183q-27 33 -77 33q-54 0 -83 -39.5t-29 -113.5q0 -38 7 -63zM378 142.5
q29 39.5 29 113.5q0 35 -6 62l-183 -182q29 -33 78 -33q53 0 82 39.5z" />
    <glyph glyph-name="ugrave" unicode="&#xf9;" horiz-adv-x="581" 
d="M377 512h160v-512h-160v74h-2q-52 -90 -168 -90q-76 0 -121 48t-45 134v346h160v-295q0 -56 19.5 -79.5t60.5 -23.5q96 0 96 102v296zM344 575h-120l-93 152h160z" />
    <glyph glyph-name="uacute" unicode="&#xfa;" horiz-adv-x="581" 
d="M377 512h160v-512h-160v74h-2q-52 -90 -168 -90q-76 0 -121 48t-45 134v346h160v-295q0 -56 19.5 -79.5t60.5 -23.5q96 0 96 102v296zM346 573h-120l53 152h180z" />
    <glyph glyph-name="ucircumflex" unicode="&#xfb;" horiz-adv-x="581" 
d="M377 512h160v-512h-160v74h-2q-52 -90 -168 -90q-76 0 -121 48t-45 134v346h160v-295q0 -56 19.5 -79.5t60.5 -23.5q96 0 96 102v296zM240 573h-139l107 152h156l107 -152h-139l-45 81h-2z" />
    <glyph glyph-name="udieresis" unicode="&#xfc;" horiz-adv-x="581" 
d="M377 512h160v-512h-160v74h-2q-52 -90 -168 -90q-76 0 -121 48t-45 134v346h160v-295q0 -56 19.5 -79.5t60.5 -23.5q96 0 96 102v296zM262 573h-160v142h160v-142zM470 573h-160v142h160v-142z" />
    <glyph glyph-name="yacute" unicode="&#xfd;" horiz-adv-x="549" 
d="M58 -167v122q26 -3 48 -3q34 0 57.5 9.5t32.5 45.5l-204 505h165l120 -337h2l110 337h158l-187 -513q-34 -93 -79.5 -134.5t-126.5 -41.5q-47 0 -96 10zM330 573h-120l53 152h180z" />
    <glyph glyph-name="thorn" unicode="&#xfe;" horiz-adv-x="601" 
d="M472 495q50 -33 77.5 -94.5t27.5 -144.5t-27.5 -144.5t-77.5 -94.5t-118 -33q-50 0 -90 21t-58 46h-2v-228h-160v892h160v-254h2q18 25 58 46t90 21q68 0 118 -33zM386 143q27 39 27 113t-27 113t-76 39t-76 -39t-27 -113t27 -113t76 -39t76 39z" />
    <glyph glyph-name="ydieresis" unicode="&#xff;" horiz-adv-x="549" 
d="M58 -167v122q26 -3 48 -3q34 0 57.5 9.5t32.5 45.5l-204 505h165l120 -337h2l110 337h158l-187 -513q-34 -93 -79.5 -134.5t-126.5 -41.5q-47 0 -96 10zM246 573h-160v142h160v-142zM454 573h-160v142h160v-142z" />
    <glyph glyph-name="Amacron" unicode="&#x100;" horiz-adv-x="716" 
d="M188 0h-193l272 715h181l274 -715h-197l-46 149h-245zM356 550l-81 -264h164l-81 264h-2zM500 776h-286v100h286v-100z" />
    <glyph glyph-name="amacron" unicode="&#x101;" horiz-adv-x="564" 
d="M67 25q-44 41 -44 109q0 74 51.5 112t144.5 58q6 2 22 4q56 12 84.5 24.5t28.5 42.5q0 22 -17 34t-51 12q-44 0 -65.5 -18t-25.5 -56h-152q4 80 66 131t184 51q108 0 162 -49.5t54 -163.5v-198q0 -22 4 -30.5t15 -8.5q7 0 13 1v-76q-48 -9 -88 -9q-46 0 -68 16.5
t-28 50.5h-2q-28 -36 -72 -57t-97 -21q-75 0 -119 41zM326.5 127q27.5 33 27.5 80v43q-23 -9 -87 -24q-43 -10 -61.5 -28.5t-18.5 -46.5q0 -29 17 -43t49 -14q46 0 73.5 33zM428 573h-286v100h286v-100z" />
    <glyph glyph-name="Abreve" unicode="&#x102;" horiz-adv-x="716" 
d="M188 0h-193l272 715h181l274 -715h-197l-46 149h-245zM356 550l-81 -264h164l-81 264h-2zM243.5 809.5q-44.5 41.5 -46.5 110.5h92q2 -25 19.5 -39.5t48.5 -14.5t48.5 14.5t19.5 39.5h92q-3 -68 -47 -110t-113 -42t-113.5 41.5z" />
    <glyph glyph-name="abreve" unicode="&#x103;" horiz-adv-x="564" 
d="M67 25q-44 41 -44 109q0 74 51.5 112t144.5 58q6 2 22 4q56 12 84.5 24.5t28.5 42.5q0 22 -17 34t-51 12q-44 0 -65.5 -18t-25.5 -56h-152q4 80 66 131t184 51q108 0 162 -49.5t54 -163.5v-198q0 -22 4 -30.5t15 -8.5q7 0 13 1v-76q-48 -9 -88 -9q-46 0 -68 16.5
t-28 50.5h-2q-28 -36 -72 -57t-97 -21q-75 0 -119 41zM326.5 127q27.5 33 27.5 80v43q-23 -9 -87 -24q-43 -10 -61.5 -28.5t-18.5 -46.5q0 -29 17 -43t49 -14q46 0 73.5 33zM171.5 606.5q-44.5 41.5 -46.5 110.5h92q2 -25 19.5 -39.5t48.5 -14.5t48.5 14.5t19.5 39.5h92
q-3 -68 -47 -110t-113 -42t-113.5 41.5z" />
    <glyph glyph-name="Aogonek" unicode="&#x104;" horiz-adv-x="716" 
d="M645 -82q17 0 41 7v-90q-42 -11 -81 -11q-56 0 -85 21.5t-29 62.5q0 32 20 55.5t48 36.5h-34l-46 149h-245l-46 -149h-193l272 715h181l274 -715h-61q-25 -22 -36 -34t-11 -26q0 -22 31 -22zM356 550l-81 -264h164l-81 264h-2z" />
    <glyph glyph-name="aogonek" unicode="&#x105;" horiz-adv-x="564" 
d="M566 -71v-90q-42 -11 -81 -11q-56 0 -85 21.5t-29 62.5q0 28 15.5 49t39.5 36q-32 4 -47.5 20.5t-21.5 44.5h-2q-28 -36 -72 -57t-97 -21q-75 0 -119 41t-44 109q0 74 51.5 112t144.5 58q6 2 22 4q56 12 84.5 24.5t28.5 42.5q0 22 -17 34t-51 12q-44 0 -65.5 -18
t-25.5 -56h-152q4 80 66 131t184 51q108 0 162 -49.5t54 -163.5v-198q0 -22 4 -30.5t15 -8.5q7 0 13 1v-75h1l-1 -1v0q-25 -22 -36 -34t-11 -26q0 -22 31 -22q17 0 41 7zM354 250q-23 -9 -87 -24q-43 -10 -61.5 -28.5t-18.5 -46.5q0 -29 17 -43t49 -14q46 0 73.5 33t27.5 80
v43z" />
    <glyph glyph-name="Cacute" unicode="&#x106;" horiz-adv-x="715" 
d="M185 31.5q-77 47.5 -116 131.5t-39 192q0 111 40 196t118.5 132.5t188.5 47.5q142 0 222.5 -76.5t93.5 -205.5h-184q-11 65 -42.5 100t-97.5 35q-84 0 -119.5 -58.5t-35.5 -167.5t35.5 -168t119.5 -59q67 0 98.5 35.5t41.5 101.5h184q-8 -84 -47 -148t-108.5 -100
t-165.5 -36q-110 0 -187 47.5zM442 776h-120l53 152h180z" />
    <glyph glyph-name="cacute" unicode="&#x107;" horiz-adv-x="549" 
d="M146.5 17.5q-59.5 34.5 -92 96.5t-32.5 142q0 79 32 141t91 97t137 35q108 0 174.5 -57.5t76.5 -150.5h-161q-10 88 -87 88q-49 0 -74 -40t-25 -113t25 -113t74 -40q43 0 63 24.5t24 65.5h161q-4 -61 -35 -108.5t-85.5 -74.5t-126.5 -27q-80 0 -139.5 34.5zM342 573h-120
l53 152h180z" />
    <glyph glyph-name="Ccircumflex" unicode="&#x108;" horiz-adv-x="715" 
d="M185 31.5q-77 47.5 -116 131.5t-39 192q0 111 40 196t118.5 132.5t188.5 47.5q142 0 222.5 -76.5t93.5 -205.5h-184q-11 65 -42.5 100t-97.5 35q-84 0 -119.5 -58.5t-35.5 -167.5t35.5 -168t119.5 -59q67 0 98.5 35.5t41.5 101.5h184q-8 -84 -47 -148t-108.5 -100
t-165.5 -36q-110 0 -187 47.5zM336 776h-139l107 152h156l107 -152h-139l-45 81h-2z" />
    <glyph glyph-name="ccircumflex" unicode="&#x109;" horiz-adv-x="549" 
d="M146.5 17.5q-59.5 34.5 -92 96.5t-32.5 142q0 79 32 141t91 97t137 35q108 0 174.5 -57.5t76.5 -150.5h-161q-10 88 -87 88q-49 0 -74 -40t-25 -113t25 -113t74 -40q43 0 63 24.5t24 65.5h161q-4 -61 -35 -108.5t-85.5 -74.5t-126.5 -27q-80 0 -139.5 34.5zM236 573h-139
l107 152h156l107 -152h-139l-45 81h-2z" />
    <glyph glyph-name="Cdotaccent" unicode="&#x10a;" horiz-adv-x="715" 
d="M185 31.5q-77 47.5 -116 131.5t-39 192q0 111 40 196t118.5 132.5t188.5 47.5q142 0 222.5 -76.5t93.5 -205.5h-184q-11 65 -42.5 100t-97.5 35q-84 0 -119.5 -58.5t-35.5 -167.5t35.5 -168t119.5 -59q67 0 98.5 35.5t41.5 101.5h184q-8 -84 -47 -148t-108.5 -100
t-165.5 -36q-110 0 -187 47.5zM462 776h-160v142h160v-142z" />
    <glyph glyph-name="cdotaccent" unicode="&#x10b;" horiz-adv-x="549" 
d="M146.5 17.5q-59.5 34.5 -92 96.5t-32.5 142q0 79 32 141t91 97t137 35q108 0 174.5 -57.5t76.5 -150.5h-161q-10 88 -87 88q-49 0 -74 -40t-25 -113t25 -113t74 -40q43 0 63 24.5t24 65.5h161q-4 -61 -35 -108.5t-85.5 -74.5t-126.5 -27q-80 0 -139.5 34.5zM362 573h-160
v142h160v-142z" />
    <glyph glyph-name="Ccaron" unicode="&#x10c;" horiz-adv-x="715" 
d="M185 31.5q-77 47.5 -116 131.5t-39 192q0 111 40 196t118.5 132.5t188.5 47.5q142 0 222.5 -76.5t93.5 -205.5h-184q-11 65 -42.5 100t-97.5 35q-84 0 -119.5 -58.5t-35.5 -167.5t35.5 -168t119.5 -59q67 0 98.5 35.5t41.5 101.5h184q-8 -84 -47 -148t-108.5 -100
t-165.5 -36q-110 0 -187 47.5zM460 776h-156l-107 152h139l45 -81h2l45 81h139z" />
    <glyph glyph-name="ccaron" unicode="&#x10d;" horiz-adv-x="549" 
d="M146.5 17.5q-59.5 34.5 -92 96.5t-32.5 142q0 79 32 141t91 97t137 35q108 0 174.5 -57.5t76.5 -150.5h-161q-10 88 -87 88q-49 0 -74 -40t-25 -113t25 -113t74 -40q43 0 63 24.5t24 65.5h161q-4 -61 -35 -108.5t-85.5 -74.5t-126.5 -27q-80 0 -139.5 34.5zM360 573h-156
l-107 152h139l45 -81h2l45 81h139z" />
    <glyph glyph-name="Dcaron" unicode="&#x10e;" horiz-adv-x="728" 
d="M60 0v715h317q150 0 234.5 -93.5t84.5 -264.5q0 -172 -80 -264.5t-229 -92.5h-327zM355 147q157 0 157 210q0 211 -157 211h-115v-421h115zM406 776h-156l-107 152h139l45 -81h2l45 81h139z" />
    <glyph glyph-name="dcaron" unicode="&#x10f;" horiz-adv-x="685" 
d="M396 715h160v-715h-160v51h-2q-18 -25 -58 -46t-90 -21q-68 0 -118 33t-77.5 94.5t-27.5 144.5t27.5 144.5t77.5 94.5t118 33q50 0 90 -21t58 -46h2v254zM366 143q27 39 27 113t-27 113t-76 39t-76 -39t-27 -113t27 -113t76 -39t76 39zM696 509h-110l25 206h170z" />
    <glyph glyph-name="Dcroat" unicode="&#x110;" horiz-adv-x="739" 
d="M388 715q150 0 234.5 -93.5t84.5 -264.5q0 -172 -80 -264.5t-229 -92.5h-327v325h-58v90h58v300h317zM366 147q157 0 157 210q0 211 -157 211h-115v-153h140v-90h-140v-178h115z" />
    <glyph glyph-name="dcroat" unicode="&#x111;" horiz-adv-x="600" 
d="M610 665v-90h-54v-575h-160v51h-2q-18 -25 -58 -46t-90 -21q-68 0 -118 33t-77.5 94.5t-27.5 144.5t27.5 144.5t77.5 94.5t118 33q50 0 90 -21t58 -46h2v114h-134v90h134v50h160v-50h54zM366 143q27 39 27 113t-27 113t-76 39t-76 -39t-27 -113t27 -113t76 -39t76 39z
" />
    <glyph glyph-name="Emacron" unicode="&#x112;" horiz-adv-x="642" 
d="M608 0h-548v715h542v-147h-362v-127h312v-147h-312v-147h368v-147zM477 776h-286v100h286v-100z" />
    <glyph glyph-name="emacron" unicode="&#x113;" horiz-adv-x="573" 
d="M550 213h-368q0 -51 31.5 -80.5t78.5 -29.5q71 0 91 52h163q-22 -81 -87.5 -126.5t-170.5 -45.5q-82 0 -142 34.5t-92 96.5t-32 142q0 76 31 138t91.5 98.5t143.5 36.5q130 0 196 -74.5t66 -217.5v-24zM389 312q0 49 -27 75t-74 26q-46 0 -74 -26t-31 -75h206zM429 573
h-286v100h286v-100z" />
    <glyph glyph-name="Edotaccent" unicode="&#x116;" horiz-adv-x="642" 
d="M608 0h-548v715h542v-147h-362v-127h312v-147h-312v-147h368v-147zM414 776h-160v142h160v-142z" />
    <glyph glyph-name="edotaccent" unicode="&#x117;" horiz-adv-x="573" 
d="M550 213h-368q0 -51 31.5 -80.5t78.5 -29.5q71 0 91 52h163q-22 -81 -87.5 -126.5t-170.5 -45.5q-82 0 -142 34.5t-92 96.5t-32 142q0 76 31 138t91.5 98.5t143.5 36.5q130 0 196 -74.5t66 -217.5v-24zM389 312q0 49 -27 75t-74 26q-46 0 -74 -26t-31 -75h206zM366 573
h-160v142h160v-142z" />
    <glyph glyph-name="Eogonek" unicode="&#x118;" horiz-adv-x="642" 
d="M583 0q-25 -22 -36 -34t-11 -26q0 -22 31 -22q17 0 41 7v-90q-42 -11 -81 -11q-56 0 -85 21.5t-29 62.5q0 32 20 55.5t48 36.5h-421v715h542v-147h-362v-127h312v-147h-312v-147h368v-147h-25z" />
    <glyph glyph-name="eogonek" unicode="&#x119;" horiz-adv-x="573" 
d="M550 213h-368q0 -51 31.5 -80.5t78.5 -29.5q71 0 91 52h163q-16 -59 -56 -100t-102 -59q-22 -19 -32 -31t-10 -25q0 -22 31 -22q17 0 41 7v-90q-42 -11 -81 -11q-56 0 -85 21.5t-29 62.5q0 23 11.5 42.5t30.5 33.5q-75 5 -130 40.5t-84 95.5t-29 136t31 138t91.5 98.5
t143.5 36.5q130 0 196 -74.5t66 -217.5v-24zM389 312q0 49 -27 75t-74 26q-46 0 -74 -26t-31 -75h206z" />
    <glyph glyph-name="Ecaron" unicode="&#x11a;" horiz-adv-x="642" 
d="M608 0h-548v715h542v-147h-362v-127h312v-147h-312v-147h368v-147zM412 776h-156l-107 152h139l45 -81h2l45 81h139z" />
    <glyph glyph-name="ecaron" unicode="&#x11b;" horiz-adv-x="573" 
d="M550 213h-368q0 -51 31.5 -80.5t78.5 -29.5q71 0 91 52h163q-22 -81 -87.5 -126.5t-170.5 -45.5q-82 0 -142 34.5t-92 96.5t-32 142q0 76 31 138t91.5 98.5t143.5 36.5q130 0 196 -74.5t66 -217.5v-24zM389 312q0 49 -27 75t-74 26q-46 0 -74 -26t-31 -75h206zM364 573
h-156l-107 152h139l45 -81h2l45 81h139z" />
    <glyph glyph-name="Gcircumflex" unicode="&#x11c;" horiz-adv-x="751" 
d="M181.5 32q-73.5 48 -112.5 133t-39 193q0 109 40 193.5t118 132t188 47.5q94 0 164 -34t109.5 -91.5t48.5 -127.5h-184q-12 47 -43 76.5t-98 29.5q-159 0 -159 -226q0 -108 38.5 -167.5t127.5 -59.5q62 0 101.5 33.5t41.5 85.5h-136v130h322v-380h-129l-18 91h-2
q-26 -51 -78 -79t-128 -28q-99 0 -172.5 48zM329 776h-139l107 152h156l107 -152h-139l-45 81h-2z" />
    <glyph glyph-name="gcircumflex" unicode="&#x11d;" horiz-adv-x="584" 
d="M381 512h160v-451q0 -131 -65.5 -187.5t-190.5 -56.5q-110 0 -173 48t-78 118h162q18 -51 89 -51q53 0 74.5 30t21.5 99v30h-2q-20 -26 -55 -46.5t-85 -20.5q-64 0 -113 32t-75.5 89t-26.5 131t26.5 131t75.5 89t113 32q50 0 85 -20.5t55 -46.5h2v51zM354.5 178
q23.5 34 23.5 98t-23.5 98t-71.5 34t-71.5 -34t-23.5 -98t23.5 -98t71.5 -34t71.5 34zM227 573h-139l107 152h156l107 -152h-139l-45 81h-2z" />
    <glyph glyph-name="Gbreve" unicode="&#x11e;" horiz-adv-x="751" 
d="M181.5 32q-73.5 48 -112.5 133t-39 193q0 109 40 193.5t118 132t188 47.5q94 0 164 -34t109.5 -91.5t48.5 -127.5h-184q-12 47 -43 76.5t-98 29.5q-159 0 -159 -226q0 -108 38.5 -167.5t127.5 -59.5q62 0 101.5 33.5t41.5 85.5h-136v130h322v-380h-129l-18 91h-2
q-26 -51 -78 -79t-128 -28q-99 0 -172.5 48zM261.5 809.5q-44.5 41.5 -46.5 110.5h92q2 -25 19.5 -39.5t48.5 -14.5t48.5 14.5t19.5 39.5h92q-3 -68 -47 -110t-113 -42t-113.5 41.5z" />
    <glyph glyph-name="gbreve" unicode="&#x11f;" horiz-adv-x="584" 
d="M381 512h160v-451q0 -131 -65.5 -187.5t-190.5 -56.5q-110 0 -173 48t-78 118h162q18 -51 89 -51q53 0 74.5 30t21.5 99v30h-2q-20 -26 -55 -46.5t-85 -20.5q-64 0 -113 32t-75.5 89t-26.5 131t26.5 131t75.5 89t113 32q50 0 85 -20.5t55 -46.5h2v51zM354.5 178
q23.5 34 23.5 98t-23.5 98t-71.5 34t-71.5 -34t-23.5 -98t23.5 -98t71.5 -34t71.5 34zM159.5 606.5q-44.5 41.5 -46.5 110.5h92q2 -25 19.5 -39.5t48.5 -14.5t48.5 14.5t19.5 39.5h92q-3 -68 -47 -110t-113 -42t-113.5 41.5z" />
    <glyph glyph-name="Gdotaccent" unicode="&#x120;" horiz-adv-x="751" 
d="M181.5 32q-73.5 48 -112.5 133t-39 193q0 109 40 193.5t118 132t188 47.5q94 0 164 -34t109.5 -91.5t48.5 -127.5h-184q-12 47 -43 76.5t-98 29.5q-159 0 -159 -226q0 -108 38.5 -167.5t127.5 -59.5q62 0 101.5 33.5t41.5 85.5h-136v130h322v-380h-129l-18 91h-2
q-26 -51 -78 -79t-128 -28q-99 0 -172.5 48zM455 776h-160v142h160v-142z" />
    <glyph glyph-name="gdotaccent" unicode="&#x121;" horiz-adv-x="584" 
d="M381 512h160v-451q0 -131 -65.5 -187.5t-190.5 -56.5q-110 0 -173 48t-78 118h162q18 -51 89 -51q53 0 74.5 30t21.5 99v30h-2q-20 -26 -55 -46.5t-85 -20.5q-64 0 -113 32t-75.5 89t-26.5 131t26.5 131t75.5 89t113 32q50 0 85 -20.5t55 -46.5h2v51zM354.5 178
q23.5 34 23.5 98t-23.5 98t-71.5 34t-71.5 -34t-23.5 -98t23.5 -98t71.5 -34t71.5 34zM353 573h-160v142h160v-142z" />
    <glyph glyph-name="uni0122" unicode="&#x122;" horiz-adv-x="751" 
d="M181.5 32q-73.5 48 -112.5 133t-39 193q0 109 40 193.5t118 132t188 47.5q94 0 164 -34t109.5 -91.5t48.5 -127.5h-184q-12 47 -43 76.5t-98 29.5q-159 0 -159 -226q0 -108 38.5 -167.5t127.5 -59.5q62 0 101.5 33.5t41.5 85.5h-136v130h322v-380h-129l-18 91h-2
q-26 -51 -78 -79t-128 -28q-99 0 -172.5 48zM298 -49h152v-102q0 -45 -39.5 -75t-112.5 -37v47q72 9 72 65h-72v102z" />
    <glyph glyph-name="uni0123" unicode="&#x123;" horiz-adv-x="584" 
d="M381 512h160v-451q0 -131 -65.5 -187.5t-190.5 -56.5q-110 0 -173 48t-78 118h162q18 -51 89 -51q53 0 74.5 30t21.5 99v30h-2q-20 -26 -55 -46.5t-85 -20.5q-64 0 -113 32t-75.5 89t-26.5 131t26.5 131t75.5 89t113 32q50 0 85 -20.5t55 -46.5h2v51zM354.5 178
q23.5 34 23.5 98t-23.5 98t-71.5 34t-71.5 -34t-23.5 -98t23.5 -98t71.5 -34t71.5 34zM349 742q-72 -9 -72 -66h72v-103h-152v103q0 46 39.5 76t112.5 37v-47z" />
    <glyph glyph-name="Hcircumflex" unicode="&#x124;" horiz-adv-x="725" 
d="M240 0h-180v715h180v-280h245v280h180v-715h-180v288h-245v-288zM317 776h-139l107 152h156l107 -152h-139l-45 81h-2z" />
    <glyph glyph-name="hcircumflex" unicode="&#x125;" horiz-adv-x="581" 
d="M495 480q45 -48 45 -134v-346h-160v295q0 56 -19.5 79.5t-60.5 23.5q-96 0 -96 -102v-296h-160v715h160v-277h2q52 90 168 90q76 0 121 -48zM78 741h-139l107 152h156l107 -152h-139l-45 81h-2z" />
    <glyph glyph-name="Hbar" unicode="&#x126;" horiz-adv-x="744" 
d="M675 616h53v-90h-53v-526h-180v288h-245v-288h-180v526h-55v90h55v99h180v-99h245v99h180v-99zM250 435h245v91h-245v-91z" />
    <glyph glyph-name="hbar" unicode="&#x127;" horiz-adv-x="581" 
d="M495 480q45 -48 45 -134v-346h-160v295q0 56 -19.5 79.5t-60.5 23.5q-96 0 -96 -102v-296h-160v575h-61v90h61v50h160v-50h155v-90h-155v-137h2q52 90 168 90q76 0 121 -48z" />
    <glyph glyph-name="Itilde" unicode="&#x128;" horiz-adv-x="300" 
d="M240 0h-180v715h180v-715zM-29 761q0 147 89 147q19 0 36 -5.5t42 -16.5q4 -2 16.5 -7.5t22.5 -8t19 -2.5q35 0 35 40h86q0 -76 -22.5 -111.5t-66.5 -35.5q-20 0 -38 6t-41 16q-38 17 -57 17q-34 0 -34 -39h-87z" />
    <glyph glyph-name="itilde" unicode="&#x129;" horiz-adv-x="248" 
d="M204 0h-160v512h160v-512zM-55 558q0 147 89 147q19 0 36 -5.5t42 -16.5q4 -2 16.5 -7.5t22.5 -8t19 -2.5q35 0 35 40h86q0 -76 -22.5 -111.5t-66.5 -35.5q-20 0 -38 6t-41 16q-38 17 -57 17q-34 0 -34 -39h-87z" />
    <glyph glyph-name="Imacron" unicode="&#x12a;" horiz-adv-x="300" 
d="M240 0h-180v715h180v-715zM293 776h-286v100h286v-100z" />
    <glyph glyph-name="imacron" unicode="&#x12b;" horiz-adv-x="248" 
d="M204 0h-160v512h160v-512zM267 573h-286v100h286v-100z" />
    <glyph glyph-name="Iogonek" unicode="&#x12e;" horiz-adv-x="300" 
d="M214 0q-25 -22 -36 -34t-11 -26q0 -22 31 -22q16 0 41 7v-90q-42 -11 -81 -11q-56 0 -85 21.5t-29 62.5q0 32 20 55.5t48 36.5h-52v715h180v-715h-26z" />
    <glyph glyph-name="iogonek" unicode="&#x12f;" horiz-adv-x="248" 
d="M44 573v142h160v-142h-160zM44 0v512h160v-512h-25q-25 -22 -36 -34t-11 -26q0 -22 31 -22q16 0 41 7v-90q-42 -11 -81 -11q-56 0 -85 21.5t-29 62.5q0 32 20 55.5t48 36.5h-33z" />
    <glyph glyph-name="Idotaccent" unicode="&#x130;" horiz-adv-x="300" 
d="M240 776h-179v142h179v-142zM240 0h-180v715h180v-715z" />
    <glyph glyph-name="dotlessi" unicode="&#x131;" horiz-adv-x="248" 
d="M204 0h-160v512h160v-512z" />
    <glyph glyph-name="Jcircumflex" unicode="&#x134;" horiz-adv-x="561" 
d="M70.5 52.5q-54.5 68.5 -54.5 185.5v60h160v-60q0 -54 16.5 -80.5t58.5 -26.5t58.5 26.5t16.5 80.5v477h180v-477q0 -117 -54.5 -185.5t-190.5 -68.5t-190.5 68.5zM370 776h-139l107 152h156l107 -152h-139l-45 81h-2z" />
    <glyph glyph-name="jcircumflex" unicode="&#x135;" horiz-adv-x="248" 
d="M-45 -173v122q24 -3 37 -3q27 0 39.5 11.5t12.5 49.5v505h160v-497q0 -98 -37.5 -148t-122.5 -50q-43 0 -89 10zM78 573h-139l107 152h156l107 -152h-139l-45 81h-2z" />
    <glyph glyph-name="uni0136" unicode="&#x136;" horiz-adv-x="690" 
d="M709 0h-210l-185 279l-74 -86v-193h-180v715h180v-305l256 305h193l-269 -313zM289 -49h152v-102q0 -45 -39.5 -75t-112.5 -37v47q72 9 72 65h-72v102z" />
    <glyph glyph-name="uni0137" unicode="&#x137;" horiz-adv-x="546" 
d="M566 0h-185l-121 211l-56 -59v-152h-160v715h160v-393l171 190h170l-181 -192zM229 -49h152v-102q0 -45 -39.5 -75t-112.5 -37v47q72 9 72 65h-72v102z" />
    <glyph glyph-name="kgreenlandic" unicode="&#x138;" horiz-adv-x="549" 
d="M566 0h-185l-120 210l-57 -59v-151h-160v512h160v-192l180 192h170l-189 -195z" />
    <glyph glyph-name="Lacute" unicode="&#x139;" horiz-adv-x="573" 
d="M558 0h-498v715h180v-568h318v-147zM213 776h-120l53 152h180z" />
    <glyph glyph-name="lacute" unicode="&#x13a;" horiz-adv-x="248" 
d="M204 0h-160v715h160v-715zM184 741h-120l53 152h180z" />
    <glyph glyph-name="uni013B" unicode="&#x13b;" horiz-adv-x="573" 
d="M558 0h-498v715h180v-568h318v-147zM233 -49h152v-102q0 -45 -39.5 -75t-112.5 -37v47q72 9 72 65h-72v102z" />
    <glyph glyph-name="uni013C" unicode="&#x13c;" horiz-adv-x="248" 
d="M204 0h-160v715h160v-715zM48 -49h152v-102q0 -45 -39.5 -75t-112.5 -37v47q72 9 72 65h-72v102z" />
    <glyph glyph-name="Lcaron" unicode="&#x13d;" horiz-adv-x="573" 
d="M558 0h-498v715h180v-568h318v-147zM447 509h-110l25 206h170z" />
    <glyph glyph-name="lcaron" unicode="&#x13e;" horiz-adv-x="333" 
d="M204 0h-160v715h160v-715zM344 519h-110l25 206h170z" />
    <glyph glyph-name="Lslash" unicode="&#x141;" horiz-adv-x="619" 
d="M286 364v-217h318v-147h-498v231l-81 -60v117l81 60v367h180v-234l159 117v-117z" />
    <glyph glyph-name="lslash" unicode="&#x142;" horiz-adv-x="317" 
d="M240 499l59 44v-117l-59 -44v-382h-160v265l-59 -44v117l59 44v333h160v-216z" />
    <glyph glyph-name="Nacute" unicode="&#x143;" horiz-adv-x="732" 
d="M240 0h-180v715h180l250 -425h2v425h180v-715h-180l-250 425h-2v-425zM426 776h-120l53 152h180z" />
    <glyph glyph-name="nacute" unicode="&#x144;" horiz-adv-x="581" 
d="M495 480q45 -48 45 -134v-346h-160v295q0 56 -19.5 79.5t-60.5 23.5q-96 0 -96 -102v-296h-160v512h160v-74h2q52 90 168 90q76 0 121 -48zM382 573h-120l53 152h180z" />
    <glyph glyph-name="uni0145" unicode="&#x145;" horiz-adv-x="732" 
d="M240 0h-180v715h180l250 -425h2v425h180v-715h-180l-250 425h-2v-425zM290 -49h152v-102q0 -45 -39.5 -75t-112.5 -37v47q72 9 72 65h-72v102z" />
    <glyph glyph-name="uni0146" unicode="&#x146;" horiz-adv-x="581" 
d="M495 480q45 -48 45 -134v-346h-160v295q0 56 -19.5 79.5t-60.5 23.5q-96 0 -96 -102v-296h-160v512h160v-74h2q52 90 168 90q76 0 121 -48zM216 -49h152v-102q0 -45 -39.5 -75t-112.5 -37v47q72 9 72 65h-72v102z" />
    <glyph glyph-name="Ncaron" unicode="&#x147;" horiz-adv-x="732" 
d="M240 0h-180v715h180l250 -425h2v425h180v-715h-180l-250 425h-2v-425zM444 776h-156l-107 152h139l45 -81h2l45 81h139z" />
    <glyph glyph-name="ncaron" unicode="&#x148;" horiz-adv-x="581" 
d="M495 480q45 -48 45 -134v-346h-160v295q0 56 -19.5 79.5t-60.5 23.5q-96 0 -96 -102v-296h-160v512h160v-74h2q52 90 168 90q76 0 121 -48zM400 573h-156l-107 152h139l45 -81h2l45 81h139z" />
    <glyph glyph-name="Eng" unicode="&#x14a;" horiz-adv-x="732" 
d="M375 -167v117q58 0 81 11t36 39l-250 425h-2v-425h-180v715h180l250 -425h2v425h180v-669q0 -223 -199 -223q-52 0 -98 10z" />
    <glyph glyph-name="eng" unicode="&#x14b;" horiz-adv-x="581" 
d="M495 480q45 -48 45 -134v-358q0 -91 -33 -134t-117 -43q-30 0 -51 2.5t-48 8.5v120q40 0 56.5 2.5t24.5 14.5t8 41v295q0 56 -19.5 79.5t-60.5 23.5q-96 0 -96 -102v-296h-160v512h160v-74h2q52 90 168 90q76 0 121 -48z" />
    <glyph glyph-name="Omacron" unicode="&#x14c;" horiz-adv-x="768" 
d="M193 32q-80 48 -121.5 132.5t-41.5 193.5q0 108 41.5 192.5t121.5 132.5t191 48q110 0 190 -48t122 -132.5t42 -192.5q0 -109 -42 -193.5t-122 -132.5t-190 -48q-111 0 -191 48zM514.5 192.5q39.5 61.5 39.5 165.5q0 103 -39.5 164.5t-130.5 61.5q-170 0 -170 -226
q0 -227 170 -227q91 0 130.5 61.5zM527 776h-286v100h286v-100z" />
    <glyph glyph-name="omacron" unicode="&#x14d;" horiz-adv-x="591" 
d="M149.5 17q-61.5 34 -94.5 95.5t-33 142.5t33 143t95.5 96.5t146.5 34.5q83 0 144.5 -34t94.5 -95.5t33 -141.5q0 -81 -33 -143.5t-95 -97t-147 -34.5q-83 0 -144.5 34zM378 142.5q29 39.5 29 113.5t-29 113.5t-82 39.5q-54 0 -83 -39.5t-29 -113.5t29 -113.5t83 -39.5
q53 0 82 39.5zM439 573h-286v100h286v-100z" />
    <glyph glyph-name="Ohungarumlaut" unicode="&#x150;" horiz-adv-x="768" 
d="M193 32q-80 48 -121.5 132.5t-41.5 193.5q0 108 41.5 192.5t121.5 132.5t191 48q110 0 190 -48t122 -132.5t42 -192.5q0 -109 -42 -193.5t-122 -132.5t-190 -48q-111 0 -191 48zM514.5 192.5q39.5 61.5 39.5 165.5q0 103 -39.5 164.5t-130.5 61.5q-170 0 -170 -226
q0 -227 170 -227q91 0 130.5 61.5zM349 776h-115l61 152h155zM525 776h-115l81 152h155z" />
    <glyph glyph-name="ohungarumlaut" unicode="&#x151;" horiz-adv-x="591" 
d="M149.5 17q-61.5 34 -94.5 95.5t-33 142.5t33 143t95.5 96.5t146.5 34.5q83 0 144.5 -34t94.5 -95.5t33 -141.5q0 -81 -33 -143.5t-95 -97t-147 -34.5q-83 0 -144.5 34zM378 142.5q29 39.5 29 113.5t-29 113.5t-82 39.5q-54 0 -83 -39.5t-29 -113.5t29 -113.5t83 -39.5
q53 0 82 39.5zM261 573h-115l61 152h155zM437 573h-115l81 152h155z" />
    <glyph glyph-name="OE" unicode="&#x152;" horiz-adv-x="1142" 
d="M740 147h368v-147h-548v80q-77 -96 -205 -96q-97 0 -170.5 48t-113.5 133t-40 193q0 107 40 192t113.5 133t170.5 48q128 0 205 -96v80h542v-147h-362v-127h312v-147h-312v-147zM477.5 161q39.5 30 60.5 82t21 115t-21 114.5t-60.5 81.5t-92.5 30q-170 0 -170 -226
q0 -227 170 -227q53 0 92.5 30z" />
    <glyph glyph-name="oe" unicode="&#x153;" horiz-adv-x="959" 
d="M936 213h-368q0 -51 31.5 -80.5t78.5 -29.5q71 0 91 52h163q-22 -81 -87.5 -126.5t-170.5 -45.5q-58 0 -105.5 17.5t-81.5 50.5q-74 -68 -193 -68q-83 0 -144.5 34t-94.5 95.5t-33 142.5t33 143t95.5 96.5t146.5 34.5q118 0 192 -68q71 68 185 68q130 0 196 -74.5
t66 -217.5v-24zM775 312q0 49 -27 75t-74 26q-46 0 -74 -26t-31 -75h206zM378 142.5q29 39.5 29 113.5t-29 113.5t-82 39.5q-54 0 -83 -39.5t-29 -113.5t29 -113.5t83 -39.5q53 0 82 39.5z" />
    <glyph glyph-name="Racute" unicode="&#x154;" horiz-adv-x="688" 
d="M60 0v715h337q120 0 187.5 -53.5t67.5 -150.5q0 -73 -38 -118.5t-107 -60.5v-2q56 -10 85 -48.5t38.5 -85t13.5 -109.5q3 -40 6 -57t12 -20v-10h-187q-7 7 -9.5 24t-3.5 50q-2 53 -8.5 88t-30 61t-71.5 26h-112v-249h-180zM362 396q55 0 82.5 21t27.5 65t-27.5 65
t-82.5 21h-122v-172h122zM391 776h-120l53 152h180z" />
    <glyph glyph-name="racute" unicode="&#x155;" horiz-adv-x="385" 
d="M375 512v-140q-20 3 -33 3q-58 0 -98 -35.5t-40 -101.5v-238h-160v512h160v-84h2q19 41 51.5 64.5t73.5 23.5q26 0 44 -4zM270 573h-120l53 152h180z" />
    <glyph glyph-name="uni0156" unicode="&#x156;" horiz-adv-x="688" 
d="M60 0v715h337q120 0 187.5 -53.5t67.5 -150.5q0 -73 -38 -118.5t-107 -60.5v-2q56 -10 85 -48.5t38.5 -85t13.5 -109.5q3 -40 6 -57t12 -20v-10h-187q-7 7 -9.5 24t-3.5 50q-2 53 -8.5 88t-30 61t-71.5 26h-112v-249h-180zM362 396q55 0 82.5 21t27.5 65t-27.5 65
t-82.5 21h-122v-172h122zM285 -49h152v-102q0 -45 -39.5 -75t-112.5 -37v47q72 9 72 65h-72v102z" />
    <glyph glyph-name="uni0157" unicode="&#x157;" horiz-adv-x="385" 
d="M375 512v-140q-20 3 -33 3q-58 0 -98 -35.5t-40 -101.5v-238h-160v512h160v-84h2q19 41 51.5 64.5t73.5 23.5q26 0 44 -4zM48 -49h152v-102q0 -45 -39.5 -75t-112.5 -37v47q72 9 72 65h-72v102z" />
    <glyph glyph-name="Rcaron" unicode="&#x158;" horiz-adv-x="688" 
d="M60 0v715h337q120 0 187.5 -53.5t67.5 -150.5q0 -73 -38 -118.5t-107 -60.5v-2q56 -10 85 -48.5t38.5 -85t13.5 -109.5q3 -40 6 -57t12 -20v-10h-187q-7 7 -9.5 24t-3.5 50q-2 53 -8.5 88t-30 61t-71.5 26h-112v-249h-180zM362 396q55 0 82.5 21t27.5 65t-27.5 65
t-82.5 21h-122v-172h122zM409 776h-156l-107 152h139l45 -81h2l45 81h139z" />
    <glyph glyph-name="rcaron" unicode="&#x159;" horiz-adv-x="385" 
d="M375 512v-140q-20 3 -33 3q-58 0 -98 -35.5t-40 -101.5v-238h-160v512h160v-84h2q19 41 51.5 64.5t73.5 23.5q26 0 44 -4zM288 573h-156l-107 152h139l45 -81h2l45 81h139z" />
    <glyph glyph-name="Sacute" unicode="&#x15a;" horiz-adv-x="657" 
d="M179.5 15q-74.5 31 -117 89.5t-42.5 138.5h182q0 -59 39.5 -86.5t104.5 -27.5q49 0 75 17.5t26 46.5q0 27 -17.5 44t-46 28.5t-83.5 27.5l-23 7q-73 22 -123 47t-81 66t-31 101q0 111 76 164t200 53q84 0 152 -28.5t108.5 -81t42.5 -123.5h-182q-6 41 -37.5 64.5
t-83.5 23.5q-42 0 -67 -14.5t-25 -44.5q0 -23 13.5 -38.5t40 -26.5t77.5 -26q93 -28 146 -50t90.5 -64.5t37.5 -111.5q0 -68 -33.5 -119t-97.5 -79t-152 -28q-94 0 -168.5 31zM387 776h-120l53 152h180z" />
    <glyph glyph-name="sacute" unicode="&#x15b;" horiz-adv-x="520" 
d="M83 36q-62 52 -65 134h150q7 -76 100 -76q68 0 68 44q0 19 -12 30.5t-30.5 17.5t-57.5 14l-25 6q-83 19 -133 55t-50 106q0 73 59 117t165 44q115 0 172 -49t61 -124h-150q-4 32 -22.5 47.5t-57.5 15.5q-63 0 -63 -41q0 -21 16 -29t65 -19l26 -6q63 -15 104.5 -32.5
t69 -51t27.5 -89.5q0 -80 -59 -123t-170 -43q-126 0 -188 52zM319 573h-120l53 152h180z" />
    <glyph glyph-name="Scircumflex" unicode="&#x15c;" horiz-adv-x="657" 
d="M179.5 15q-74.5 31 -117 89.5t-42.5 138.5h182q0 -59 39.5 -86.5t104.5 -27.5q49 0 75 17.5t26 46.5q0 27 -17.5 44t-46 28.5t-83.5 27.5l-23 7q-73 22 -123 47t-81 66t-31 101q0 111 76 164t200 53q84 0 152 -28.5t108.5 -81t42.5 -123.5h-182q-6 41 -37.5 64.5
t-83.5 23.5q-42 0 -67 -14.5t-25 -44.5q0 -23 13.5 -38.5t40 -26.5t77.5 -26q93 -28 146 -50t90.5 -64.5t37.5 -111.5q0 -68 -33.5 -119t-97.5 -79t-152 -28q-94 0 -168.5 31zM281 776h-139l107 152h156l107 -152h-139l-45 81h-2z" />
    <glyph glyph-name="scircumflex" unicode="&#x15d;" horiz-adv-x="520" 
d="M83 36q-62 52 -65 134h150q7 -76 100 -76q68 0 68 44q0 19 -12 30.5t-30.5 17.5t-57.5 14l-25 6q-83 19 -133 55t-50 106q0 73 59 117t165 44q115 0 172 -49t61 -124h-150q-4 32 -22.5 47.5t-57.5 15.5q-63 0 -63 -41q0 -21 16 -29t65 -19l26 -6q63 -15 104.5 -32.5
t69 -51t27.5 -89.5q0 -80 -59 -123t-170 -43q-126 0 -188 52zM213 573h-139l107 152h156l107 -152h-139l-45 81h-2z" />
    <glyph glyph-name="Scedilla" unicode="&#x15e;" horiz-adv-x="657" 
d="M351 -48v-2q6 1 18 1q38 0 63.5 -17.5t25.5 -50.5q0 -38 -37.5 -59.5t-93.5 -21.5q-63 0 -112 33l30 35q32 -15 63 -15q20 0 33 7t13 22q0 27 -34 27q-18 0 -37 -7l-24 34l45 48q-83 7 -147 39.5t-100.5 88t-36.5 129.5h182q0 -59 39.5 -86.5t104.5 -27.5q49 0 75 17.5
t26 46.5q0 27 -17.5 44t-46 28.5t-83.5 27.5l-23 7q-73 22 -123 47t-81 66t-31 101q0 111 76 164t200 53q84 0 152 -28.5t108.5 -81t42.5 -123.5h-182q-6 41 -37.5 64.5t-83.5 23.5q-42 0 -67 -14.5t-25 -44.5q0 -23 13.5 -38.5t40 -26.5t77.5 -26q93 -28 146 -50
t90.5 -64.5t37.5 -111.5q0 -98 -67 -158t-186 -67z" />
    <glyph glyph-name="scedilla" unicode="&#x15f;" horiz-adv-x="520" 
d="M280 -48v-2q6 1 18 1q38 0 63.5 -17.5t25.5 -50.5q0 -38 -37.5 -59.5t-93.5 -21.5q-63 0 -112 33l30 35q32 -15 63 -15q20 0 33 7t13 22q0 27 -34 27q-18 0 -37 -7l-24 34l45 47q-107 9 -159.5 59t-55.5 126h150q7 -76 100 -76q68 0 68 44q0 19 -12 30.5t-30.5 17.5
t-57.5 14l-25 6q-83 19 -133 55t-50 106q0 73 59 117t165 44q115 0 172 -49t61 -124h-150q-4 32 -22.5 47.5t-57.5 15.5q-63 0 -63 -41q0 -21 16 -29t65 -19l26 -6q63 -15 104.5 -32.5t69 -51t27.5 -89.5q0 -73 -49.5 -115.5t-143.5 -49.5z" />
    <glyph glyph-name="Scaron" unicode="&#x160;" horiz-adv-x="657" 
d="M179.5 15q-74.5 31 -117 89.5t-42.5 138.5h182q0 -59 39.5 -86.5t104.5 -27.5q49 0 75 17.5t26 46.5q0 27 -17.5 44t-46 28.5t-83.5 27.5l-23 7q-73 22 -123 47t-81 66t-31 101q0 111 76 164t200 53q84 0 152 -28.5t108.5 -81t42.5 -123.5h-182q-6 41 -37.5 64.5
t-83.5 23.5q-42 0 -67 -14.5t-25 -44.5q0 -23 13.5 -38.5t40 -26.5t77.5 -26q93 -28 146 -50t90.5 -64.5t37.5 -111.5q0 -68 -33.5 -119t-97.5 -79t-152 -28q-94 0 -168.5 31zM405 776h-156l-107 152h139l45 -81h2l45 81h139z" />
    <glyph glyph-name="scaron" unicode="&#x161;" horiz-adv-x="520" 
d="M83 36q-62 52 -65 134h150q7 -76 100 -76q68 0 68 44q0 19 -12 30.5t-30.5 17.5t-57.5 14l-25 6q-83 19 -133 55t-50 106q0 73 59 117t165 44q115 0 172 -49t61 -124h-150q-4 32 -22.5 47.5t-57.5 15.5q-63 0 -63 -41q0 -21 16 -29t65 -19l26 -6q63 -15 104.5 -32.5
t69 -51t27.5 -89.5q0 -80 -59 -123t-170 -43q-126 0 -188 52zM337 573h-156l-107 152h139l45 -81h2l45 81h139z" />
    <glyph glyph-name="uni0162" unicode="&#x162;" horiz-adv-x="625" 
d="M403 0h-180v568h-208v147h595v-147h-207v-568zM181 -165l30 35q32 -15 63 -15q20 0 33 7t13 22q0 27 -34 27q-18 0 -37 -7l-24 34l59 62h72l-39 -48v-2q6 1 18 1q38 0 63.5 -17.5t25.5 -50.5q0 -38 -37.5 -59.5t-93.5 -21.5q-63 0 -112 33z" />
    <glyph glyph-name="uni0163" unicode="&#x163;" horiz-adv-x="365" 
d="M235 -40q6 1 18 1q38 0 63.5 -17.5t25.5 -50.5q0 -38 -37.5 -59.5t-93.5 -21.5q-63 0 -112 33l30 35q32 -15 63 -15q20 0 33 7t13 22q0 27 -34 27q-18 0 -37 -7l-24 34l45 48q-53 12 -78 53t-25 117v226h-71v120h71v143h160v-143h89v-120h-89v-222q0 -38 12.5 -49
t39.5 -11q18 0 43 4v-113q-39 -9 -82 -11l-23 -28v-2z" />
    <glyph glyph-name="Tcaron" unicode="&#x164;" horiz-adv-x="625" 
d="M403 0h-180v568h-208v147h595v-147h-207v-568zM391 776h-156l-107 152h139l45 -81h2l45 81h139z" />
    <glyph glyph-name="tcaron" unicode="&#x165;" horiz-adv-x="365" 
d="M281 550l21 165h145l-72 -165h-94zM245 170q0 -38 12.5 -49t39.5 -11q18 0 43 4v-113q-47 -11 -95 -11q-84 0 -122 41.5t-38 134.5v226h-71v120h71v143h160v-143h89v-120h-89v-222z" />
    <glyph glyph-name="Tbar" unicode="&#x166;" horiz-adv-x="625" 
d="M610 715v-147h-207v-153h140v-90h-140v-325h-180v325h-128v90h128v153h-208v147h595z" />
    <glyph glyph-name="tbar" unicode="&#x167;" horiz-adv-x="370" 
d="M344 114v-113q-47 -11 -95 -11q-84 0 -122 41.5t-38 134.5v68h-71v90h71v68h-71v120h71v143h160v-143h89v-120h-89v-68h89v-90h-89v-64q0 -38 12.5 -49t39.5 -11q18 0 43 4z" />
    <glyph glyph-name="Utilde" unicode="&#x168;" horiz-adv-x="706" 
d="M124.5 52.5q-70.5 68.5 -70.5 205.5v457h180v-457q0 -68 29 -97.5t90 -29.5t90 29.5t29 97.5v457h180v-457q0 -137 -70.5 -205.5t-228.5 -68.5t-228.5 68.5zM174 761q0 147 89 147q19 0 36 -5.5t42 -16.5q4 -2 16.5 -7.5t22.5 -8t19 -2.5q35 0 35 40h86
q0 -76 -22.5 -111.5t-66.5 -35.5q-20 0 -38 6t-41 16q-38 17 -57 17q-34 0 -34 -39h-87z" />
    <glyph glyph-name="utilde" unicode="&#x169;" horiz-adv-x="581" 
d="M377 512h160v-512h-160v74h-2q-52 -90 -168 -90q-76 0 -121 48t-45 134v346h160v-295q0 -56 19.5 -79.5t60.5 -23.5q96 0 96 102v296zM107 558q0 147 89 147q19 0 36 -5.5t42 -16.5q4 -2 16.5 -7.5t22.5 -8t19 -2.5q35 0 35 40h86q0 -76 -22.5 -111.5t-66.5 -35.5
q-20 0 -38 6t-41 16q-38 17 -57 17q-34 0 -34 -39h-87z" />
    <glyph glyph-name="Umacron" unicode="&#x16a;" horiz-adv-x="706" 
d="M124.5 52.5q-70.5 68.5 -70.5 205.5v457h180v-457q0 -68 29 -97.5t90 -29.5t90 29.5t29 97.5v457h180v-457q0 -137 -70.5 -205.5t-228.5 -68.5t-228.5 68.5zM496 776h-286v100h286v-100z" />
    <glyph glyph-name="umacron" unicode="&#x16b;" horiz-adv-x="581" 
d="M377 512h160v-512h-160v74h-2q-52 -90 -168 -90q-76 0 -121 48t-45 134v346h160v-295q0 -56 19.5 -79.5t60.5 -23.5q96 0 96 102v296zM429 573h-286v100h286v-100z" />
    <glyph glyph-name="Ubreve" unicode="&#x16c;" horiz-adv-x="706" 
d="M124.5 52.5q-70.5 68.5 -70.5 205.5v457h180v-457q0 -68 29 -97.5t90 -29.5t90 29.5t29 97.5v457h180v-457q0 -137 -70.5 -205.5t-228.5 -68.5t-228.5 68.5zM239.5 809.5q-44.5 41.5 -46.5 110.5h92q2 -25 19.5 -39.5t48.5 -14.5t48.5 14.5t19.5 39.5h92q-3 -68 -47 -110
t-113 -42t-113.5 41.5z" />
    <glyph glyph-name="ubreve" unicode="&#x16d;" horiz-adv-x="581" 
d="M377 512h160v-512h-160v74h-2q-52 -90 -168 -90q-76 0 -121 48t-45 134v346h160v-295q0 -56 19.5 -79.5t60.5 -23.5q96 0 96 102v296zM172.5 606.5q-44.5 41.5 -46.5 110.5h92q2 -25 19.5 -39.5t48.5 -14.5t48.5 14.5t19.5 39.5h92q-3 -68 -47 -110t-113 -42t-113.5 41.5
z" />
    <glyph glyph-name="Uring" unicode="&#x16e;" horiz-adv-x="706" 
d="M124.5 52.5q-70.5 68.5 -70.5 205.5v457h180v-457q0 -68 29 -97.5t90 -29.5t90 29.5t29 97.5v457h180v-457q0 -137 -70.5 -205.5t-228.5 -68.5t-228.5 68.5zM275 771.5q-32 29.5 -32 78.5q0 48 32 78t78 30t78 -30t32 -78q0 -49 -32 -78.5t-78 -29.5t-78 29.5zM384.5 816
q11.5 12 11.5 34t-11.5 34t-31.5 12q-19 0 -30.5 -12t-11.5 -34t11.5 -34t30.5 -12q20 0 31.5 12z" />
    <glyph glyph-name="uring" unicode="&#x16f;" horiz-adv-x="581" 
d="M377 512h160v-512h-160v74h-2q-52 -90 -168 -90q-76 0 -121 48t-45 134v346h160v-295q0 -56 19.5 -79.5t60.5 -23.5q96 0 96 102v296zM208 568.5q-32 29.5 -32 78.5q0 48 32 78t78 30t78 -30t32 -78q0 -49 -32 -78.5t-78 -29.5t-78 29.5zM317.5 613q11.5 12 11.5 34
t-11.5 34t-31.5 12q-19 0 -30.5 -12t-11.5 -34t11.5 -34t30.5 -12q20 0 31.5 12z" />
    <glyph glyph-name="Uhungarumlaut" unicode="&#x170;" horiz-adv-x="706" 
d="M124.5 52.5q-70.5 68.5 -70.5 205.5v457h180v-457q0 -68 29 -97.5t90 -29.5t90 29.5t29 97.5v457h180v-457q0 -137 -70.5 -205.5t-228.5 -68.5t-228.5 68.5zM318 776h-115l61 152h155zM494 776h-115l81 152h155z" />
    <glyph glyph-name="uhungarumlaut" unicode="&#x171;" horiz-adv-x="581" 
d="M377 512h160v-512h-160v74h-2q-52 -90 -168 -90q-76 0 -121 48t-45 134v346h160v-295q0 -56 19.5 -79.5t60.5 -23.5q96 0 96 102v296zM251 573h-115l61 152h155zM427 573h-115l81 152h155z" />
    <glyph glyph-name="Uogonek" unicode="&#x172;" horiz-adv-x="706" 
d="M472 715h180v-457q0 -114 -48.5 -180.5t-153.5 -85.5q-18 -16 -27.5 -28t-9.5 -24q0 -22 31 -22q16 0 41 7v-90q-42 -11 -81 -11q-56 0 -85 21.5t-29 62.5q0 45 42 76q-146 4 -212 72.5t-66 201.5v457h180v-457q0 -68 29 -97.5t90 -29.5t90 29.5t29 97.5v457z" />
    <glyph glyph-name="uogonek" unicode="&#x173;" horiz-adv-x="581" 
d="M509 0q-25 -22 -36 -34t-11 -26q0 -22 31 -22q16 0 41 7v-90q-42 -11 -81 -11q-56 0 -85 21.5t-29 62.5q0 32 20 55.5t48 36.5h-30v74h-2q-52 -90 -168 -90q-76 0 -121 48t-45 134v346h160v-295q0 -56 19.5 -79.5t60.5 -23.5q96 0 96 102v296h160v-512h-28z" />
    <glyph glyph-name="Wcircumflex" unicode="&#x174;" horiz-adv-x="956" 
d="M370 0h-180l-182 715h180l92 -485h2l111 485h170l111 -485h2l92 485h180l-182 -715h-180l-107 446h-2zM432 776h-139l107 152h156l107 -152h-139l-45 81h-2z" />
    <glyph glyph-name="wcircumflex" unicode="&#x175;" horiz-adv-x="790" 
d="M295 0h-150l-143 512h160l77 -312h2l86 312h140l86 -312h3l77 312h155l-143 -512h-150l-99 324h-2zM349 573h-139l107 152h156l107 -152h-139l-45 81h-2z" />
    <glyph glyph-name="Ycircumflex" unicode="&#x176;" horiz-adv-x="667" 
d="M424 0h-180v264l-244 451h194l139 -304h2l140 304h190l-241 -451v-264zM289 776h-139l107 152h156l107 -152h-139l-45 81h-2z" />
    <glyph glyph-name="ycircumflex" unicode="&#x177;" horiz-adv-x="549" 
d="M58 -167v122q26 -3 48 -3q34 0 57.5 9.5t32.5 45.5l-204 505h165l120 -337h2l110 337h158l-187 -513q-34 -93 -79.5 -134.5t-126.5 -41.5q-47 0 -96 10zM224 573h-139l107 152h156l107 -152h-139l-45 81h-2z" />
    <glyph glyph-name="Ydieresis" unicode="&#x178;" horiz-adv-x="667" 
d="M424 0h-180v264l-244 451h194l139 -304h2l140 304h190l-241 -451v-264zM311 776h-160v142h160v-142zM519 776h-160v142h160v-142z" />
    <glyph glyph-name="Zacute" unicode="&#x179;" horiz-adv-x="613" 
d="M583 0h-557v147l327 419v2h-307v147h527v-147l-327 -419v-2h337v-147zM375 776h-120l53 152h180z" />
    <glyph glyph-name="zacute" unicode="&#x17a;" horiz-adv-x="501" 
d="M478 0h-459v115l249 275v2h-229v120h429v-115l-249 -275v-2h259v-120zM308 573h-120l53 152h180z" />
    <glyph glyph-name="Zdotaccent" unicode="&#x17b;" horiz-adv-x="613" 
d="M583 0h-557v147l327 419v2h-307v147h527v-147l-327 -419v-2h337v-147zM395 776h-160v142h160v-142z" />
    <glyph glyph-name="zdotaccent" unicode="&#x17c;" horiz-adv-x="501" 
d="M478 0h-459v115l249 275v2h-229v120h429v-115l-249 -275v-2h259v-120zM328 573h-160v142h160v-142z" />
    <glyph glyph-name="Zcaron" unicode="&#x17d;" horiz-adv-x="613" 
d="M583 0h-557v147l327 419v2h-307v147h527v-147l-327 -419v-2h337v-147zM393 776h-156l-107 152h139l45 -81h2l45 81h139z" />
    <glyph glyph-name="zcaron" unicode="&#x17e;" horiz-adv-x="501" 
d="M478 0h-459v115l249 275v2h-229v120h429v-115l-249 -275v-2h259v-120zM326 573h-156l-107 152h139l45 -81h2l45 81h139z" />
    <glyph glyph-name="florin" unicode="&#x192;" horiz-adv-x="530" 
d="M410 586q-14 -18 -23 -63l-12 -63h83l-4 -120h-103l-59 -304q-18 -93 -61.5 -134.5t-122.5 -41.5q-42 0 -87 11l-7 114q26 -5 49 -5q37 0 51 17.5t23 63.5l54 279h-65l4 120h85l17 88q18 93 64 134.5t131 41.5q45 0 94 -11l-31 -114q-16 5 -33 5q-33 0 -47 -18z" />
    <glyph glyph-name="uni0218" unicode="&#x218;" horiz-adv-x="657" 
d="M179.5 15q-74.5 31 -117 89.5t-42.5 138.5h182q0 -59 39.5 -86.5t104.5 -27.5q49 0 75 17.5t26 46.5q0 27 -17.5 44t-46 28.5t-83.5 27.5l-23 7q-73 22 -123 47t-81 66t-31 101q0 111 76 164t200 53q84 0 152 -28.5t108.5 -81t42.5 -123.5h-182q-6 41 -37.5 64.5
t-83.5 23.5q-42 0 -67 -14.5t-25 -44.5q0 -23 13.5 -38.5t40 -26.5t77.5 -26q93 -28 146 -50t90.5 -64.5t37.5 -111.5q0 -68 -33.5 -119t-97.5 -79t-152 -28q-94 0 -168.5 31zM271 -49h152v-102q0 -45 -39.5 -75t-112.5 -37v47q72 9 72 65h-72v102z" />
    <glyph glyph-name="uni0219" unicode="&#x219;" horiz-adv-x="520" 
d="M83 36q-62 52 -65 134h150q7 -76 100 -76q68 0 68 44q0 19 -12 30.5t-30.5 17.5t-57.5 14l-25 6q-83 19 -133 55t-50 106q0 73 59 117t165 44q115 0 172 -49t61 -124h-150q-4 32 -22.5 47.5t-57.5 15.5q-63 0 -63 -41q0 -21 16 -29t65 -19l26 -6q63 -15 104.5 -32.5
t69 -51t27.5 -89.5q0 -80 -59 -123t-170 -43q-126 0 -188 52zM200 -49h152v-102q0 -45 -39.5 -75t-112.5 -37v47q72 9 72 65h-72v102z" />
    <glyph glyph-name="uni021A" unicode="&#x21a;" horiz-adv-x="625" 
d="M403 0h-180v568h-208v147h595v-147h-207v-568zM237 -49h152v-102q0 -45 -39.5 -75t-112.5 -37v47q72 9 72 65h-72v102z" />
    <glyph glyph-name="uni021B" unicode="&#x21b;" horiz-adv-x="365" 
d="M340 114v-113q-47 -11 -95 -11q-84 0 -122 41.5t-38 134.5v226h-71v120h71v143h160v-143h89v-120h-89v-222q0 -38 12.5 -49t39.5 -11q18 0 43 4zM155 -39h152v-102q0 -45 -39.5 -75t-112.5 -37v47q72 9 72 65h-72v102z" />
    <glyph glyph-name="uni0237" unicode="&#x237;" horiz-adv-x="248" 
d="M-45 -173v122q24 -3 37 -3q27 0 39.5 11.5t12.5 49.5v505h160v-497q0 -98 -37.5 -148t-122.5 -50q-43 0 -89 10z" />
    <glyph glyph-name="circumflex" unicode="&#x2c6;" horiz-adv-x="450" 
d="M179 573h-139l107 152h156l107 -152h-139l-45 81h-2z" />
    <glyph glyph-name="caron" unicode="&#x2c7;" horiz-adv-x="450" 
d="M303 573h-156l-107 152h139l45 -81h2l45 81h139z" />
    <glyph glyph-name="breve" unicode="&#x2d8;" horiz-adv-x="400" 
d="M86.5 604.5q-44.5 41.5 -46.5 110.5h92q2 -25 19.5 -39.5t48.5 -14.5t48.5 14.5t19.5 39.5h92q-3 -68 -47 -110t-113 -42t-113.5 41.5z" />
    <glyph glyph-name="dotaccent" unicode="&#x2d9;" horiz-adv-x="240" 
d="M200 573h-160v142h160v-142z" />
    <glyph glyph-name="ring" unicode="&#x2da;" horiz-adv-x="284" 
d="M64 546.5q-32 29.5 -32 78.5q0 48 32 78t78 30t78 -30t32 -78q0 -49 -32 -78.5t-78 -29.5t-78 29.5zM173.5 591q11.5 12 11.5 34t-11.5 34t-31.5 12q-19 0 -30.5 -12t-11.5 -34t11.5 -34t30.5 -12q20 0 31.5 12z" />
    <glyph glyph-name="ogonek" unicode="&#x2db;" horiz-adv-x="275" 
d="M69 -155.5q-29 21.5 -29 62.5q0 32 20.5 56t49.5 37h101q-26 -22 -37 -34.5t-11 -26.5q0 -22 31 -22q17 0 41 7v-90q-42 -11 -81 -11q-56 0 -85 21.5z" />
    <glyph glyph-name="tilde" unicode="&#x2dc;" horiz-adv-x="426" 
d="M40 558q0 147 89 147q19 0 36 -5.5t42 -16.5q4 -2 16.5 -7.5t22.5 -8t19 -2.5q35 0 35 40h86q0 -76 -22.5 -111.5t-66.5 -35.5q-20 0 -38 6t-41 16q-38 17 -57 17q-34 0 -34 -39h-87z" />
    <glyph glyph-name="hungarumlaut" unicode="&#x2dd;" horiz-adv-x="523" 
d="M180 573h-115l61 152h155zM356 573h-115l81 152h155z" />
    <glyph glyph-name="gravecomb" unicode="&#x300;" 
d="M263 573h-120l-93 152h160z" />
    <glyph glyph-name="acutecomb" unicode="&#x301;" 
d="M160 573h-120l53 152h180z" />
    <glyph glyph-name="uni0302" unicode="&#x302;" 
d="M179 573h-139l107 152h156l107 -152h-139l-45 81h-2z" />
    <glyph glyph-name="tildecomb" unicode="&#x303;" 
d="M40 558q0 147 89 147q19 0 36 -5.5t42 -16.5q4 -2 16.5 -7.5t22.5 -8t19 -2.5q35 0 35 40h86q0 -76 -22.5 -111.5t-66.5 -35.5q-20 0 -38 6t-41 16q-38 17 -57 17q-34 0 -34 -39h-87z" />
    <glyph glyph-name="uni0304" unicode="&#x304;" 
d="M326 573h-286v100h286v-100z" />
    <glyph glyph-name="uni0306" unicode="&#x306;" 
d="M86.5 604.5q-44.5 41.5 -46.5 110.5h92q2 -25 19.5 -39.5t48.5 -14.5t48.5 14.5t19.5 39.5h92q-3 -68 -47 -110t-113 -42t-113.5 41.5z" />
    <glyph glyph-name="uni0307" unicode="&#x307;" 
d="M200 573h-160v142h160v-142z" />
    <glyph glyph-name="uni0308" unicode="&#x308;" 
d="M207 573h-160v142h160v-142zM415 573h-160v142h160v-142z" />
    <glyph glyph-name="uni030A" unicode="&#x30a;" 
d="M64 566.5q-32 29.5 -32 78.5q0 48 32 78t78 30t78 -30t32 -78q0 -49 -32 -78.5t-78 -29.5t-78 29.5zM173.5 611q11.5 12 11.5 34t-11.5 34t-31.5 12q-19 0 -30.5 -12t-11.5 -34t11.5 -34t30.5 -12q20 0 31.5 12z" />
    <glyph glyph-name="uni030B" unicode="&#x30b;" 
d="M180 573h-115l61 152h155zM356 573h-115l81 152h155z" />
    <glyph glyph-name="uni030C" unicode="&#x30c;" 
d="M303 573h-156l-107 152h139l45 -81h2l45 81h139z" />
    <glyph glyph-name="uni0312" unicode="&#x312;" 
d="M192 742q-72 -9 -72 -66h72v-103h-152v103q0 46 39.5 76t112.5 37v-47z" />
    <glyph glyph-name="uni0326" unicode="&#x326;" 
d="M40 -49h152v-102q0 -45 -39.5 -75t-112.5 -37v47q72 9 72 65h-72v102z" />
    <glyph glyph-name="uni0327" unicode="&#x327;" 
d="M51 -165l30 35q32 -15 63 -15q20 0 33 7t13 22q0 27 -34 27q-18 0 -37 -7l-24 34l59 62h72l-39 -48v-2q6 1 18 1q38 0 63.5 -17.5t25.5 -50.5q0 -38 -37.5 -59.5t-93.5 -21.5q-63 0 -112 33z" />
    <glyph glyph-name="uni0328" unicode="&#x328;" 
d="M69 -155.5q-29 21.5 -29 62.5q0 32 20.5 56t49.5 37h101q-26 -22 -37 -34.5t-11 -26.5q0 -22 31 -22q17 0 41 7v-90q-42 -11 -81 -11q-56 0 -85 21.5z" />
    <glyph glyph-name="uni0335" unicode="&#x335;" 
d="M488 325h-448v90h448v-90z" />
    <glyph glyph-name="uni0336" unicode="&#x336;" 
d="M580 286h-540v147h540v-147z" />
    <glyph glyph-name="uni0337" unicode="&#x337;" 
d="M576 482l-494 -495l-42 43l493 494z" />
    <glyph glyph-name="uni0338" unicode="&#x338;" 
d="M576 482l-494 -495l-42 43l493 494z" />
    <glyph glyph-name="uni0394" unicode="&#x394;" horiz-adv-x="686" 
d="M245 715h196l224 -568v-147h-644v147zM347 550h-9l-150 -408h309z" />
    <glyph glyph-name="uni03A9" unicode="&#x3a9;" horiz-adv-x="800" 
d="M34 0v146h153q-68 41 -104 107.5t-36 154.5q0 96 42.5 168.5t122.5 112.5t188 40t188 -40t122.5 -112.5t42.5 -168.5q0 -88 -36 -154.5t-104 -107.5h153v-146h-316v135q129 82 129 247q0 101 -47 152t-132 51t-132 -51t-47 -152q0 -165 129 -247v-135h-316z" />
    <glyph glyph-name="uni03BC" unicode="&#x3bc;" horiz-adv-x="584" 
d="M380 512h160v-512h-160v74h-2q-20 -41 -55 -62.5t-73 -21.5q-26 0 -46 10v-177h-160v689h160v-295q0 -56 19.5 -79.5t60.5 -23.5q96 0 96 102v296z" />
    <glyph glyph-name="pi" unicode="&#x3c0;" horiz-adv-x="617" 
d="M589 392h-81v-222q0 -38 10.5 -49t33.5 -11q13 0 33 4v-113q-41 -11 -85 -11q-80 0 -116 41.5t-36 134.5v226h-93v-392h-160v392h-79v120h573v-120z" />
    <glyph glyph-name="uni0400" unicode="&#x400;" horiz-adv-x="642" 
d="M608 0h-548v715h542v-147h-362v-127h312v-147h-312v-147h368v-147zM392 778h-120l-93 152h160z" />
    <glyph glyph-name="uni0401" unicode="&#x401;" horiz-adv-x="642" 
d="M608 0h-548v715h542v-147h-362v-127h312v-147h-312v-147h368v-147zM310 776h-160v142h160v-142zM518 776h-160v142h160v-142z" />
    <glyph glyph-name="uni0402" unicode="&#x402;" horiz-adv-x="771" 
d="M480.5 -179q-32.5 4 -56.5 11v152q16 -6 39.5 -10.5t33.5 -4.5q28 0 41.5 10.5t13.5 47.5v199q0 48 -27 75t-79 27q-51 0 -82.5 -30.5t-31.5 -81.5v-216h-180v568h-135v147h534v-147h-219v-192h2q30 46 83 74t109 28q98 0 152 -57t54 -165v-249q0 -92 -50 -141t-139 -49
q-30 0 -62.5 4z" />
    <glyph glyph-name="uni0403" unicode="&#x403;" horiz-adv-x="541" 
d="M240 0h-180v715h466v-147h-286v-568zM379 776h-120l53 152h180z" />
    <glyph glyph-name="uni0404" unicode="&#x404;" horiz-adv-x="727" 
d="M481 166.5q39 33.5 43 85.5h182q-3 -77 -42.5 -137.5t-110.5 -94.5t-165 -34q-100 0 -182 46t-129 131t-47 197q0 111 47 194.5t129 129t185 45.5q84 0 152.5 -33t111 -90t51.5 -127h-182q-9 44 -45 73.5t-91 29.5q-65 0 -109.5 -40.5t-58.5 -113.5h210v-120h-213
q9 -85 49.5 -130t112.5 -45q63 0 102 33.5z" />
    <glyph glyph-name="uni0405" unicode="&#x405;" horiz-adv-x="657" 
d="M179.5 15q-74.5 31 -117 89.5t-42.5 138.5h182q0 -59 39.5 -86.5t104.5 -27.5q49 0 75 17.5t26 46.5q0 27 -17.5 44t-46 28.5t-83.5 27.5l-23 7q-73 22 -123 47t-81 66t-31 101q0 111 76 164t200 53q84 0 152 -28.5t108.5 -81t42.5 -123.5h-182q-6 41 -37.5 64.5
t-83.5 23.5q-42 0 -67 -14.5t-25 -44.5q0 -23 13.5 -38.5t40 -26.5t77.5 -26q93 -28 146 -50t90.5 -64.5t37.5 -111.5q0 -68 -33.5 -119t-97.5 -79t-152 -28q-94 0 -168.5 31z" />
    <glyph glyph-name="uni0406" unicode="&#x406;" horiz-adv-x="300" 
d="M240 0h-180v715h180v-715z" />
    <glyph glyph-name="uni0407" unicode="&#x407;" horiz-adv-x="300" 
d="M240 0h-180v715h180v-715zM126 776h-160v142h160v-142zM334 776h-160v142h160v-142z" />
    <glyph glyph-name="uni0408" unicode="&#x408;" horiz-adv-x="561" 
d="M70.5 52.5q-54.5 68.5 -54.5 185.5v60h160v-60q0 -54 16.5 -80.5t58.5 -26.5t58.5 26.5t16.5 80.5v477h180v-477q0 -117 -54.5 -185.5t-190.5 -68.5t-190.5 68.5z" />
    <glyph glyph-name="uni0409" unicode="&#x409;" horiz-adv-x="1023" 
d="M48 -12q-30 3 -41 9v154q28 -10 63 -10q27 0 41 19t16 60l31 495h479v-221h109q79 0 138 -30.5t91 -85.5t32 -128q0 -117 -73 -183.5t-198 -66.5h-279v568h-143l-23 -369q-13 -214 -181 -214q-32 0 -62 3zM731 147q43 0 67.5 26.5t24.5 76.5q0 43 -22.5 70t-60.5 27h-103
v-200h94z" />
    <glyph glyph-name="uni040A" unicode="&#x40a;" horiz-adv-x="1071" 
d="M60 0v715h180v-251h245v251h180v-251h129q121 0 191 -60t70 -169q0 -115 -72 -175t-199 -60h-299v317h-245v-317h-180zM779 147q45 0 68.5 20t23.5 68q0 41 -22 61.5t-61 20.5h-123v-170h114z" />
    <glyph glyph-name="uni040B" unicode="&#x40b;" horiz-adv-x="771" 
d="M152 0v568h-135v147h534v-147h-219v-192h2q31 46 83.5 74t108.5 28q98 0 152 -57t54 -165v-256h-180v226q0 48 -27 75t-79 27q-51 0 -82.5 -30.5t-31.5 -81.5v-216h-180z" />
    <glyph glyph-name="uni040C" unicode="&#x40c;" horiz-adv-x="720" 
d="M721 715l-285 -353l303 -362h-226l-222 271h-51v-271h-180v715h180v-297h51l236 297h194zM421 776h-120l53 152h180z" />
    <glyph glyph-name="uni040D" unicode="&#x40d;" horiz-adv-x="755" 
d="M240 0h-180v715h180v-444h2l273 444h180v-715h-180v444h-2zM432 778h-120l-93 152h160z" />
    <glyph glyph-name="uni040E" unicode="&#x40e;" horiz-adv-x="670" 
d="M301 0h-174l110 214l-229 501h180l143 -313h2l157 313h172zM220.5 809.5q-44.5 41.5 -46.5 110.5h92q2 -25 19.5 -39.5t48.5 -14.5t48.5 14.5t19.5 39.5h92q-3 -68 -47 -110t-113 -42t-113.5 41.5z" />
    <glyph glyph-name="uni040F" unicode="&#x40f;" horiz-adv-x="715" 
d="M438 -131h-160v131h-218v715h180v-568h235v568h180v-715h-217v-131z" />
    <glyph glyph-name="uni0410" unicode="&#x410;" horiz-adv-x="716" 
d="M188 0h-193l272 715h181l274 -715h-197l-46 149h-245zM356 550l-81 -264h164l-81 264h-2z" />
    <glyph glyph-name="uni0411" unicode="&#x411;" horiz-adv-x="637" 
d="M60 0v715h486v-147h-306v-104h119q125 0 193 -61.5t68 -165.5q0 -113 -70 -175t-201 -62h-289zM344 147q45 0 68.5 23t23.5 67q0 35 -21.5 57.5t-61.5 22.5h-113v-170h104z" />
    <glyph glyph-name="uni0412" unicode="&#x412;" horiz-adv-x="690" 
d="M60 0v715h347q227 0 227 -180q0 -61 -30.5 -98t-80.5 -54v-2q62 -11 100.5 -53t38.5 -117q0 -110 -64 -160.5t-181 -50.5h-357zM360 426q43 0 66.5 15t23.5 56t-23.5 56t-66.5 15h-120v-142h120zM365 147q59 0 86 18.5t27 66.5t-27 66t-86 18h-125v-169h125z" />
    <glyph glyph-name="uni0413" unicode="&#x413;" horiz-adv-x="541" 
d="M240 0h-180v715h466v-147h-286v-568z" />
    <glyph glyph-name="uni0414" unicode="&#x414;" horiz-adv-x="769" 
d="M6 -130v276h52q28 0 44 18t23.5 56t11.5 106l20 389h510v-569h75v-276h-160v129h-416v-129h-160zM256 146h231v422h-170l-20 -283q-4 -51 -13.5 -83t-27.5 -54v-2z" />
    <glyph glyph-name="uni0415" unicode="&#x415;" horiz-adv-x="642" 
d="M608 0h-548v715h542v-147h-362v-127h312v-147h-312v-147h368v-147z" />
    <glyph glyph-name="uni0416" unicode="&#x416;" horiz-adv-x="1000" 
d="M994 715l-214 -357l226 -358h-203l-162 271h-51v-271h-180v271h-51l-162 -271h-203l226 358l-214 357h187l166 -297h51v297h180v-297h51l166 297h187z" />
    <glyph glyph-name="uni0417" unicode="&#x417;" horiz-adv-x="635" 
d="M157 11.5q-67 28.5 -102.5 80.5t-35.5 122h184q8 -41 35 -62.5t84 -21.5q43 0 72.5 23.5t29.5 57.5q0 42 -28 63t-78 21h-85v120h81q39 0 59.5 23.5t20.5 59.5q0 34 -25.5 60t-63.5 26q-39 0 -66.5 -23t-27.5 -57h-184q5 66 40 117.5t96 80.5t142 29t143 -24.5t96 -70.5
t34 -109q0 -62 -35 -104t-90 -66v-2q64 -11 109.5 -50.5t45.5 -112.5q0 -64 -39.5 -111.5t-106 -72.5t-145.5 -25q-93 0 -160 28.5z" />
    <glyph glyph-name="uni0418" unicode="&#x418;" horiz-adv-x="755" 
d="M240 0h-180v715h180v-444h2l273 444h180v-715h-180v444h-2z" />
    <glyph glyph-name="uni0419" unicode="&#x419;" horiz-adv-x="755" 
d="M240 0h-180v715h180v-444h2l273 444h180v-715h-180v444h-2zM260.5 809.5q-44.5 41.5 -46.5 110.5h92q2 -25 19.5 -39.5t48.5 -14.5t48.5 14.5t19.5 39.5h92q-3 -68 -47 -110t-113 -42t-113.5 41.5z" />
    <glyph glyph-name="uni041A" unicode="&#x41a;" horiz-adv-x="720" 
d="M721 715l-285 -353l303 -362h-226l-222 271h-51v-271h-180v715h180v-297h51l236 297h194z" />
    <glyph glyph-name="uni041B" unicode="&#x41b;" horiz-adv-x="714" 
d="M48 -12q-30 3 -41 9v154q28 -10 63 -10q27 0 41 19t16 60l31 495h496v-715h-180v568h-160l-23 -369q-13 -214 -181 -214q-32 0 -62 3z" />
    <glyph glyph-name="uni041C" unicode="&#x41c;" horiz-adv-x="856" 
d="M230 0h-170v715h220l147 -456h2l147 456h220v-715h-170v445h-2l-133 -445h-126l-133 445h-2v-445z" />
    <glyph glyph-name="uni041D" unicode="&#x41d;" horiz-adv-x="725" 
d="M240 0h-180v715h180v-280h245v280h180v-715h-180v288h-245v-288z" />
    <glyph glyph-name="uni041E" unicode="&#x41e;" horiz-adv-x="768" 
d="M193 32q-80 48 -121.5 132.5t-41.5 193.5q0 108 41.5 192.5t121.5 132.5t191 48q110 0 190 -48t122 -132.5t42 -192.5q0 -109 -42 -193.5t-122 -132.5t-190 -48q-111 0 -191 48zM514.5 192.5q39.5 61.5 39.5 165.5q0 103 -39.5 164.5t-130.5 61.5q-170 0 -170 -226
q0 -227 170 -227q91 0 130.5 61.5z" />
    <glyph glyph-name="uni041F" unicode="&#x41f;" horiz-adv-x="715" 
d="M240 0h-180v715h595v-715h-180v568h-235v-568z" />
    <glyph glyph-name="uni0420" unicode="&#x420;" horiz-adv-x="665" 
d="M60 0v715h347q114 0 178 -58.5t64 -169.5t-64 -169.5t-178 -58.5h-167v-259h-180zM365 406q49 0 74.5 19t25.5 62t-25.5 62t-74.5 19h-125v-162h125z" />
    <glyph glyph-name="uni0421" unicode="&#x421;" horiz-adv-x="715" 
d="M185 31.5q-77 47.5 -116 131.5t-39 192q0 111 40 196t118.5 132.5t188.5 47.5q142 0 222.5 -76.5t93.5 -205.5h-184q-11 65 -42.5 100t-97.5 35q-84 0 -119.5 -58.5t-35.5 -167.5t35.5 -168t119.5 -59q67 0 98.5 35.5t41.5 101.5h184q-8 -84 -47 -148t-108.5 -100
t-165.5 -36q-110 0 -187 47.5z" />
    <glyph glyph-name="uni0422" unicode="&#x422;" horiz-adv-x="625" 
d="M403 0h-180v568h-208v147h595v-147h-207v-568z" />
    <glyph glyph-name="uni0423" unicode="&#x423;" horiz-adv-x="670" 
d="M301 0h-174l110 214l-229 501h180l143 -313h2l157 313h172z" />
    <glyph glyph-name="uni0424" unicode="&#x424;" horiz-adv-x="812" 
d="M707.5 163.5q-78.5 -74.5 -216.5 -92.5v-71h-170v71q-138 18 -216.5 92.5t-78.5 189.5t78.5 189t216.5 92v81h170v-81q138 -18 216.5 -92t78.5 -189t-78.5 -189.5zM239 262.5q29 -37.5 82 -54.5v289q-53 -17 -82 -54t-29 -90t29 -90.5zM491 208q53 17 82 54.5t29 90.5
t-29 90t-82 54v-289z" />
    <glyph glyph-name="uni0425" unicode="&#x425;" horiz-adv-x="667" 
d="M191 0h-200l237 365l-217 350h190l131 -218h2l132 218h190l-217 -348l237 -367h-200l-142 232h-2z" />
    <glyph glyph-name="uni0426" unicode="&#x426;" horiz-adv-x="761" 
d="M735 -131h-160v131h-515v715h180v-568h235v568h180v-568h80v-278z" />
    <glyph glyph-name="uni0427" unicode="&#x427;" horiz-adv-x="670" 
d="M430 0v309h-2q-31 -47 -81.5 -74.5t-105.5 -27.5q-91 0 -146 60t-55 162v286h180v-256q0 -47 27 -74.5t74 -27.5q65 0 109 64v294h180v-715h-180z" />
    <glyph glyph-name="uni0428" unicode="&#x428;" horiz-adv-x="970" 
d="M910 0h-850v715h180v-568h155v568h180v-568h155v568h180v-715z" />
    <glyph glyph-name="uni0429" unicode="&#x429;" horiz-adv-x="1016" 
d="M990 -131h-160v131h-770v715h180v-568h155v568h180v-568h155v568h180v-568h80v-278z" />
    <glyph glyph-name="uni042A" unicode="&#x42a;" horiz-adv-x="739" 
d="M153 0v568h-140v147h320v-221h129q79 0 138 -30.5t91 -85.5t32 -128q0 -117 -73 -183.5t-198 -66.5h-299zM447 147q43 0 67.5 26.5t24.5 76.5q0 43 -22.5 70t-60.5 27h-123v-200h114z" />
    <glyph glyph-name="uni042B" unicode="&#x42b;" horiz-adv-x="910" 
d="M60 0v715h180v-221h109q79 0 138 -30.5t91 -85.5t32 -128q0 -117 -73 -183.5t-198 -66.5h-279zM850 0h-180v715h180v-715zM334 147q43 0 67.5 26.5t24.5 76.5q0 43 -22.5 70t-60.5 27h-103v-200h94z" />
    <glyph glyph-name="uni042C" unicode="&#x42c;" horiz-adv-x="646" 
d="M60 0v715h180v-221h129q79 0 138 -30.5t91 -85.5t32 -128q0 -117 -73 -183.5t-198 -66.5h-299zM354 147q43 0 67.5 26.5t24.5 76.5q0 43 -22.5 70t-60.5 27h-123v-200h114z" />
    <glyph glyph-name="uni042D" unicode="&#x42d;" horiz-adv-x="727" 
d="M532 684q78 -45 121.5 -128.5t43.5 -194.5q0 -113 -44.5 -198t-123 -131t-178.5 -46q-94 0 -168 34t-116.5 95t-45.5 137h182q4 -52 44.5 -85.5t103.5 -33.5q71 0 111 45t48 130h-213v120h211q-12 75 -52.5 114.5t-106.5 39.5q-61 0 -99 -29.5t-47 -73.5h-182
q9 70 53.5 127t116.5 90t161 33q102 0 180 -45z" />
    <glyph glyph-name="uni042E" unicode="&#x42e;" horiz-adv-x="1000" 
d="M886.5 634q81.5 -97 81.5 -276q0 -180 -81.5 -277t-232.5 -97q-136 0 -216 79t-95 228h-103v-291h-180v715h180v-277h105q17 142 96.5 217.5t212.5 75.5q151 0 232.5 -97zM749.5 189.5q34.5 58.5 34.5 168.5t-34.5 168t-95.5 58t-95.5 -58t-34.5 -168t34.5 -168.5
t95.5 -58.5t95.5 58.5z" />
    <glyph glyph-name="uni042F" unicode="&#x42f;" horiz-adv-x="689" 
d="M13 6q10 20 25 82t30.5 105t48.5 78.5t87 46.5v2q-151 36 -151 190q0 58 30.5 105t87 73.5t131.5 26.5h327v-715h-180v249h-85q-54 0 -83.5 -29.5t-40.5 -68t-19 -95.5q-5 -41 -11 -56h-197v6zM449 386v182h-139q-33 0 -53 -24.5t-20 -60.5q0 -45 22 -71t64 -26h126z" />
    <glyph glyph-name="uni0430" unicode="&#x430;" horiz-adv-x="564" 
d="M67 25q-44 41 -44 109q0 74 51.5 112t144.5 58q6 2 22 4q56 12 84.5 24.5t28.5 42.5q0 22 -17 34t-51 12q-44 0 -65.5 -18t-25.5 -56h-152q4 80 66 131t184 51q108 0 162 -49.5t54 -163.5v-198q0 -22 4 -30.5t15 -8.5q7 0 13 1v-76q-48 -9 -88 -9q-46 0 -68 16.5
t-28 50.5h-2q-28 -36 -72 -57t-97 -21q-75 0 -119 41zM326.5 127q27.5 33 27.5 80v43q-23 -9 -87 -24q-43 -10 -61.5 -28.5t-18.5 -46.5q0 -29 17 -43t49 -14q46 0 73.5 33z" />
    <glyph glyph-name="uni0431" unicode="&#x431;" horiz-adv-x="592" 
d="M101.5 68q-72.5 85 -72.5 247q0 160 65 253t181 107l100 12q36 4 53 12t17 16h120q0 -71 -36.5 -104t-99.5 -42l-124 -16q-64 -8 -104 -51t-47 -123h2q23 70 82.5 110t127.5 40q60 0 105.5 -32t71 -94t25.5 -147q0 -128 -70.5 -200.5t-193.5 -72.5q-130 0 -202.5 85z
M376.5 146q29.5 43 29.5 110q0 68 -29 110.5t-73 42.5q-48 0 -80.5 -43t-32.5 -111t32.5 -110t80.5 -42q43 0 72.5 43z" />
    <glyph glyph-name="uni0432" unicode="&#x432;" horiz-adv-x="547" 
d="M44 0v512h264q56 0 98.5 -18t66 -48.5t23.5 -67.5q0 -48 -28.5 -78t-73.5 -33v-2q54 -5 94 -31.5t40 -78.5q0 -155 -208 -155h-276zM304 308q40 0 40 43q0 41 -40 41h-100v-84h100zM311 120q55 0 55 46q0 42 -46 42h-116v-88h107z" />
    <glyph glyph-name="uni0433" unicode="&#x433;" horiz-adv-x="418" 
d="M204 0h-160v512h364v-120h-204v-392z" />
    <glyph glyph-name="uni0434" unicode="&#x434;" horiz-adv-x="634" 
d="M544 120h70v-250h-150v130h-306v-130h-150v250h40q31 0 47 16t18 52l21 324h410v-392zM252 120h132v272h-103l-13 -200q-3 -45 -16 -70v-2z" />
    <glyph glyph-name="uni0435" unicode="&#x435;" horiz-adv-x="573" 
d="M550 213h-368q0 -51 31.5 -80.5t78.5 -29.5q71 0 91 52h163q-22 -81 -87.5 -126.5t-170.5 -45.5q-82 0 -142 34.5t-92 96.5t-32 142q0 76 31 138t91.5 98.5t143.5 36.5q130 0 196 -74.5t66 -217.5v-24zM389 312q0 49 -27 75t-74 26q-46 0 -74 -26t-31 -75h206z" />
    <glyph glyph-name="uni0436" unicode="&#x436;" horiz-adv-x="804" 
d="M180 0h-187l167 257l-161 255h172l121 -201h30v201h160v-201h30l121 201h172l-161 -255l167 -257h-187l-115 191h-27v-191h-160v191h-27z" />
    <glyph glyph-name="uni0437" unicode="&#x437;" horiz-adv-x="518" 
d="M134 4.5q-55 21.5 -86 61t-31 92.5h160q0 -25 22 -40t60 -15q30 0 51.5 13t21.5 38q0 24 -15 39t-48 15h-72v100h69q59 0 59 51q0 22 -22.5 36t-50.5 14q-33 0 -54 -14t-21 -38h-160q0 50 29.5 89t84.5 61t127 22q59 0 111.5 -17t85 -51.5t32.5 -82.5q0 -27 -17 -53
t-48.5 -43.5t-72.5 -21.5v-1q145 -14 145 -115q0 -48 -30.5 -85t-84 -56.5t-120.5 -19.5q-70 0 -125 21.5z" />
    <glyph glyph-name="uni0438" unicode="&#x438;" horiz-adv-x="614" 
d="M204 0h-160v510h160v-300l206 300h160v-510h-160v300z" />
    <glyph glyph-name="uni0439" unicode="&#x439;" horiz-adv-x="614" 
d="M204 0h-160v510h160v-300l206 300h160v-510h-160v300zM201.5 604.5q-44.5 41.5 -46.5 110.5h92q2 -25 19.5 -39.5t48.5 -14.5t48.5 14.5t19.5 39.5h92q-3 -68 -47 -110t-113 -42t-113.5 41.5z" />
    <glyph glyph-name="uni043A" unicode="&#x43a;" horiz-adv-x="567" 
d="M578 512l-187 -251l189 -261h-193l-136 191h-47v-191h-160v512h160v-201h50l134 201h190z" />
    <glyph glyph-name="uni043B" unicode="&#x43b;" horiz-adv-x="581" 
d="M13 -6v118q21 -7 40 -7q39 0 44 78l20 327h420v-510h-160v390h-117l-14 -225q-11 -180 -160 -180q-51 0 -73 9z" />
    <glyph glyph-name="uni043C" unicode="&#x43c;" horiz-adv-x="704" 
d="M204 0h-160v512h148l161 -330h2l171 330h134v-512h-160v208h-2l-101 -208h-100l-91 208h-2v-208z" />
    <glyph glyph-name="uni043D" unicode="&#x43d;" horiz-adv-x="594" 
d="M390 317v195h160v-512h-160v197h-186v-197h-160v512h160v-195h186z" />
    <glyph glyph-name="uni043E" unicode="&#x43e;" horiz-adv-x="591" 
d="M149.5 17q-61.5 34 -94.5 95.5t-33 142.5t33 143t95.5 96.5t146.5 34.5q83 0 144.5 -34t94.5 -95.5t33 -141.5q0 -81 -33 -143.5t-95 -97t-147 -34.5q-83 0 -144.5 34zM378 142.5q29 39.5 29 113.5t-29 113.5t-82 39.5q-54 0 -83 -39.5t-29 -113.5t29 -113.5t83 -39.5
q53 0 82 39.5z" />
    <glyph glyph-name="uni043F" unicode="&#x43f;" horiz-adv-x="584" 
d="M204 0h-160v512h496v-512h-160v392h-176v-392z" />
    <glyph glyph-name="uni0440" unicode="&#x440;" horiz-adv-x="601" 
d="M472 495q50 -33 77.5 -94.5t27.5 -144.5t-27.5 -144.5t-77.5 -94.5t-118 -33q-50 0 -90 21t-58 46h-2v-228h-160v689h160v-51h2q18 25 58 46t90 21q68 0 118 -33zM386 143q27 39 27 113t-27 113t-76 39t-76 -39t-27 -113t27 -113t76 -39t76 39z" />
    <glyph glyph-name="uni0441" unicode="&#x441;" horiz-adv-x="549" 
d="M146.5 17.5q-59.5 34.5 -92 96.5t-32.5 142q0 79 32 141t91 97t137 35q108 0 174.5 -57.5t76.5 -150.5h-161q-10 88 -87 88q-49 0 -74 -40t-25 -113t25 -113t74 -40q43 0 63 24.5t24 65.5h161q-4 -61 -35 -108.5t-85.5 -74.5t-126.5 -27q-80 0 -139.5 34.5z" />
    <glyph glyph-name="uni0442" unicode="&#x442;" horiz-adv-x="506" 
d="M333 0h-160v392h-163v120h486v-120h-163v-392z" />
    <glyph glyph-name="uni0443" unicode="&#x443;" horiz-adv-x="549" 
d="M58 -167v122q26 -3 48 -3q34 0 57.5 9.5t32.5 45.5l-204 505h165l120 -337h2l110 337h158l-187 -513q-34 -93 -79.5 -134.5t-126.5 -41.5q-47 0 -96 10z" />
    <glyph glyph-name="uni0444" unicode="&#x444;" horiz-adv-x="720" 
d="M629 78q-69 -70 -191 -88v-167h-155v167q-122 17 -191.5 87.5t-69.5 178.5q0 109 69 180t192 88v191h155v-191q122 -18 191 -88.5t69 -179.5q0 -108 -69 -178zM206 165.5q27 -37.5 77 -53.5v290q-49 -17 -76.5 -54.5t-27.5 -91.5q0 -53 27 -90.5zM438 112q49 16 76 53.5
t27 90.5q0 54 -27 91.5t-76 54.5v-290z" />
    <glyph glyph-name="uni0445" unicode="&#x445;" horiz-adv-x="520" 
d="M167 0h-180l176 261l-156 251h170l82 -148h2l82 148h170l-156 -251l176 -261h-180l-92 158h-2z" />
    <glyph glyph-name="uni0446" unicode="&#x446;" horiz-adv-x="630" 
d="M610 -130h-150v130h-416v512h160v-392h176v392h160v-392h70v-250z" />
    <glyph glyph-name="uni0447" unicode="&#x447;" horiz-adv-x="550" 
d="M346 0v203h-2q-23 -31 -63 -49.5t-85 -18.5q-76 0 -121 42.5t-45 115.5v217h160v-157q0 -40 21 -64t56 -24q23 0 41 11t38 34v200h160v-510h-160z" />
    <glyph glyph-name="uni0448" unicode="&#x448;" horiz-adv-x="766" 
d="M722 0h-678v512h150v-392h114v392h150v-392h114v392h150v-512z" />
    <glyph glyph-name="uni0449" unicode="&#x449;" horiz-adv-x="812" 
d="M792 -130h-150v130h-598v512h150v-392h114v392h150v-392h114v392h150v-392h70v-250z" />
    <glyph glyph-name="uni044A" unicode="&#x44a;" horiz-adv-x="574" 
d="M99 0v392h-89v120h249v-154h100q94 0 149 -48t55 -130q0 -83 -56 -131.5t-152 -48.5h-256zM336 120q30 0 47.5 15.5t17.5 41.5q0 28 -17.5 44.5t-47.5 16.5h-77v-118h77z" />
    <glyph glyph-name="uni044B" unicode="&#x44b;" horiz-adv-x="742" 
d="M44 0v512h160v-154h80q94 0 149 -48t55 -130q0 -83 -56 -131.5t-152 -48.5h-236zM698 0h-160v512h160v-512zM261 120q30 0 47.5 15.5t17.5 41.5q0 28 -17.5 44.5t-47.5 16.5h-57v-118h57z" />
    <glyph glyph-name="uni044C" unicode="&#x44c;" horiz-adv-x="519" 
d="M44 0v512h160v-154h100q94 0 149 -48t55 -130q0 -83 -56 -131.5t-152 -48.5h-256zM281 120q30 0 47.5 15.5t17.5 41.5q0 28 -17.5 44.5t-47.5 16.5h-77v-118h77z" />
    <glyph glyph-name="uni044D" unicode="&#x44d;" horiz-adv-x="553" 
d="M405.5 495q60.5 -34 93.5 -96.5t33 -143.5q0 -127 -66 -199.5t-204 -72.5q-108 0 -172 52t-77 143h160q6 -34 29 -54.5t65 -20.5q48 0 73 25.5t32 78.5h-156v100h156q-8 52 -33 77t-72 25q-42 0 -65 -19.5t-29 -53.5h-160q20 86 82.5 139.5t168.5 53.5q81 0 141.5 -34z
" />
    <glyph glyph-name="uni044E" unicode="&#x44e;" horiz-adv-x="736" 
d="M601.5 496.5q52.5 -32.5 82 -94t29.5 -144.5q0 -84 -30 -146t-83 -95.5t-122 -33.5q-90 0 -151.5 56.5t-76.5 156.5h-46v-196h-160v512h160v-196h46q16 100 78 156.5t153 56.5q68 0 120.5 -32.5zM533 140q18 37 18 116t-18 116t-53 37q-72 0 -72 -153t72 -153q35 0 53 37
z" />
    <glyph glyph-name="uni044F" unicode="&#x44f;" horiz-adv-x="543" 
d="M7 4q13 25 23 65q14 45 27.5 72t41 48.5t75.5 27.5v1q-61 11 -99.5 44.5t-38.5 91.5q0 39 19.5 75.5t59.5 59.5t98 23h286v-512h-160v159h-49q-46 0 -67 -37t-34 -93q-2 -7 -4.5 -16t-4.5 -13h-173v4zM339 269v123h-82q-26 0 -42.5 -16t-16.5 -41q0 -30 16.5 -48
t44.5 -18h80z" />
    <glyph glyph-name="uni0450" unicode="&#x450;" horiz-adv-x="573" 
d="M550 213h-368q0 -51 31.5 -80.5t78.5 -29.5q71 0 91 52h163q-22 -81 -87.5 -126.5t-170.5 -45.5q-82 0 -142 34.5t-92 96.5t-32 142q0 76 31 138t91.5 98.5t143.5 36.5q130 0 196 -74.5t66 -217.5v-24zM389 312q0 49 -27 75t-74 26q-46 0 -74 -26t-31 -75h206zM344 575
h-120l-93 152h160z" />
    <glyph glyph-name="uni0451" unicode="&#x451;" horiz-adv-x="573" 
d="M550 213h-368q0 -51 31.5 -80.5t78.5 -29.5q71 0 91 52h163q-22 -81 -87.5 -126.5t-170.5 -45.5q-82 0 -142 34.5t-92 96.5t-32 142q0 76 31 138t91.5 98.5t143.5 36.5q130 0 196 -74.5t66 -217.5v-24zM389 312q0 49 -27 75t-74 26q-46 0 -74 -26t-31 -75h206zM262 573
h-160v142h160v-142zM470 573h-160v142h160v-142z" />
    <glyph glyph-name="uni0452" unicode="&#x452;" horiz-adv-x="581" 
d="M274 -173v122q24 -3 54 -3q52 0 52 61v288q0 56 -19.5 79.5t-60.5 23.5q-96 0 -96 -102v-296h-160v575h-61v90h61v50h160v-50h155v-90h-155v-137h2q52 90 168 90q76 0 121 -48t45 -134v-331q0 -95 -46 -146.5t-133 -51.5q-41 0 -87 10z" />
    <glyph glyph-name="uni0453" unicode="&#x453;" horiz-adv-x="418" 
d="M204 0h-160v512h364v-120h-204v-392zM292 571h-120l53 152h180z" />
    <glyph glyph-name="uni0454" unicode="&#x454;" horiz-adv-x="554" 
d="M352 123.5q23 20.5 29 54.5h160q-13 -91 -77 -143t-172 -52q-138 0 -204 72.5t-66 199.5q0 81 33 143.5t93.5 96.5t141.5 34q106 0 168.5 -53.5t82.5 -139.5h-160q-6 34 -29 53.5t-65 19.5q-47 0 -72 -25t-33 -77h156v-100h-156q7 -53 32 -78.5t73 -25.5q42 0 65 20.5z
" />
    <glyph glyph-name="uni0455" unicode="&#x455;" horiz-adv-x="520" 
d="M83 36q-62 52 -65 134h150q7 -76 100 -76q68 0 68 44q0 19 -12 30.5t-30.5 17.5t-57.5 14l-25 6q-83 19 -133 55t-50 106q0 73 59 117t165 44q115 0 172 -49t61 -124h-150q-4 32 -22.5 47.5t-57.5 15.5q-63 0 -63 -41q0 -21 16 -29t65 -19l26 -6q63 -15 104.5 -32.5
t69 -51t27.5 -89.5q0 -80 -59 -123t-170 -43q-126 0 -188 52z" />
    <glyph glyph-name="uni0456" unicode="&#x456;" horiz-adv-x="248" 
d="M204 0h-160v512h160v-512zM204 573h-160v142h160v-142z" />
    <glyph glyph-name="uni0457" unicode="&#x457;" horiz-adv-x="248" 
d="M110 582h-120v124h120v-124zM258 582h-120v124h120v-124zM204 0h-160v512h160v-512z" />
    <glyph glyph-name="uni0458" unicode="&#x458;" horiz-adv-x="248" 
d="M-45 -173v122q24 -3 37 -3q27 0 39.5 11.5t12.5 49.5v505h160v-497q0 -98 -37.5 -148t-122.5 -50q-43 0 -89 10zM204 573h-160v142h160v-142z" />
    <glyph glyph-name="uni0459" unicode="&#x459;" horiz-adv-x="807" 
d="M13 -4v118q21 -7 40 -7q39 0 44 78l20 327h395v-154h80q94 0 149 -48t55 -130q0 -83 -56 -131.5t-152 -48.5h-236v392h-92l-14 -225q-11 -180 -160 -180q-51 0 -73 9zM569 120q30 0 47.5 15.5t17.5 41.5q0 28 -17.5 44.5t-47.5 16.5h-57v-118h57z" />
    <glyph glyph-name="uni045A" unicode="&#x45a;" horiz-adv-x="803" 
d="M588 338q95 0 149.5 -43t54.5 -123q0 -82 -55.5 -127t-152.5 -45h-236v218h-144v-218h-160v512h160v-174h144v174h160v-174h80zM565 120q65 0 65 49q0 27 -16.5 38t-48.5 11h-57v-98h57z" />
    <glyph glyph-name="uni045B" unicode="&#x45b;" horiz-adv-x="581" 
d="M495 480q45 -48 45 -134v-346h-160v295q0 56 -19.5 79.5t-60.5 23.5q-96 0 -96 -102v-296h-160v575h-61v90h61v50h160v-50h155v-90h-155v-137h2q52 90 168 90q76 0 121 -48z" />
    <glyph glyph-name="uni045C" unicode="&#x45c;" horiz-adv-x="567" 
d="M578 512l-187 -251l189 -261h-193l-136 191h-47v-191h-160v512h160v-201h50l134 201h190zM343 571h-120l53 152h180z" />
    <glyph glyph-name="uni045D" unicode="&#x45d;" horiz-adv-x="614" 
d="M204 0h-160v510h160v-300l206 300h160v-510h-160v300zM373 573h-120l-93 152h160z" />
    <glyph glyph-name="uni045E" unicode="&#x45e;" horiz-adv-x="549" 
d="M58 -167v122q26 -3 48 -3q34 0 57.5 9.5t32.5 45.5l-204 505h165l120 -337h2l110 337h158l-187 -513q-34 -93 -79.5 -134.5t-126.5 -41.5q-47 0 -96 10zM156.5 606.5q-44.5 41.5 -46.5 110.5h92q2 -25 19.5 -39.5t48.5 -14.5t48.5 14.5t19.5 39.5h92q-3 -68 -47 -110
t-113 -42t-113.5 41.5z" />
    <glyph glyph-name="uni045F" unicode="&#x45f;" horiz-adv-x="584" 
d="M367 -130h-150v130h-173v512h160v-392h176v392h160v-512h-173v-130z" />
    <glyph glyph-name="uni0490" unicode="&#x490;" horiz-adv-x="556" 
d="M240 0h-180v715h321v99h160v-246h-301v-568z" />
    <glyph glyph-name="uni0491" unicode="&#x491;" horiz-adv-x="464" 
d="M204 0h-160v512h260v108h150v-228h-250v-392z" />
    <glyph glyph-name="uni0492" unicode="&#x492;" horiz-adv-x="602" 
d="M585 715v-147h-286v-164h184v-120h-184v-284h-180v284h-100v120h100v311h466z" />
    <glyph glyph-name="uni0493" unicode="&#x493;" horiz-adv-x="468" 
d="M457 512v-120h-204v-99h140v-100h-140v-193h-160v193h-80v100h80v219h364z" />
    <glyph glyph-name="uni0496" unicode="&#x496;" horiz-adv-x="1000" 
d="M780 358l192 -304h52v-184h-160v130h-61l-162 271h-51v-271h-180v271h-51l-162 -271h-203l226 358l-214 357h187l166 -297h51v297h180v-297h51l166 297h187z" />
    <glyph glyph-name="uni0497" unicode="&#x497;" horiz-adv-x="804" 
d="M644 257l102 -157h91v-230h-150v130h-63l-115 191h-27v-191h-160v191h-27l-115 -191h-187l167 257l-161 255h172l121 -201h30v201h160v-201h30l121 201h172z" />
    <glyph glyph-name="uni049A" unicode="&#x49a;" horiz-adv-x="720" 
d="M436 362l258 -308h66v-184h-160v130h-87l-222 271h-51v-271h-180v715h180v-297h51l236 297h194z" />
    <glyph glyph-name="uni049B" unicode="&#x49b;" horiz-adv-x="567" 
d="M391 261l116 -161h88v-230h-150v130h-58l-136 191h-47v-191h-160v512h160v-201h50l134 201h190z" />
    <glyph glyph-name="uni04A2" unicode="&#x4a2;" horiz-adv-x="725" 
d="M665 715v-661h56v-184h-160v130h-76v288h-245v-288h-180v715h180v-280h245v280h180z" />
    <glyph glyph-name="uni04A3" unicode="&#x4a3;" horiz-adv-x="594" 
d="M550 512v-412h65v-230h-150v130h-75v197h-186v-197h-160v512h160v-195h186v195h160z" />
    <glyph glyph-name="uni04AE" unicode="&#x4ae;" horiz-adv-x="667" 
d="M424 0h-180v264l-244 451h194l139 -304h2l140 304h190l-241 -451v-264z" />
    <glyph glyph-name="uni04AF" unicode="&#x4af;" horiz-adv-x="550" 
d="M355 -177h-160v228l-203 461h170l113 -293h2l124 293h156l-202 -461v-228z" />
    <glyph glyph-name="uni04B0" unicode="&#x4b0;" horiz-adv-x="661" 
d="M662 715l-241 -451v-32h130v-120h-130v-112h-180v112h-130v120h130v32l-244 451h194l139 -304h2l140 304h190z" />
    <glyph glyph-name="uni04B1" unicode="&#x4b1;" horiz-adv-x="550" 
d="M557 512l-202 -461v-35h120v-100h-120v-93h-160v93h-120v100h120v35l-203 461h170l113 -293h2l124 293h156z" />
    <glyph glyph-name="uni04B2" unicode="&#x4b2;" horiz-adv-x="667" 
d="M439 367l202 -313h58v-184h-160v130h-63l-142 232h-2l-141 -232h-200l237 365l-217 350h190l131 -218h2l132 218h190z" />
    <glyph glyph-name="uni04B3" unicode="&#x4b3;" horiz-adv-x="520" 
d="M357 261l109 -161h95v-230h-150v130h-58l-92 158h-2l-92 -158h-180l176 261l-156 251h170l82 -148h2l82 148h170z" />
    <glyph glyph-name="uni04B6" unicode="&#x4b6;" horiz-adv-x="670" 
d="M610 54h71v-184h-160v130h-91v309h-2q-31 -47 -81.5 -74.5t-105.5 -27.5q-91 0 -146 60t-55 162v286h180v-256q0 -47 27 -74.5t74 -27.5q65 0 109 64v294h180v-661z" />
    <glyph glyph-name="uni04B7" unicode="&#x4b7;" horiz-adv-x="550" 
d="M506 100h64v-230h-150v130h-74v203h-2q-23 -31 -63 -49.5t-85 -18.5q-76 0 -121 42.5t-45 115.5v217h160v-157q0 -40 21 -64t56 -24q23 0 41 11t38 34v200h160v-410z" />
    <glyph glyph-name="uni04BA" unicode="&#x4ba;" horiz-adv-x="681" 
d="M60 0v715h180v-309h2q22 50 76.5 76t115.5 26q98 0 152 -57t54 -165v-286h-180v256q0 48 -27 75t-79 27q-51 0 -82.5 -30.5t-31.5 -81.5v-246h-180z" />
    <glyph glyph-name="uni04BB" unicode="&#x4bb;" horiz-adv-x="581" 
d="M495 480q45 -48 45 -134v-346h-160v295q0 56 -19.5 79.5t-60.5 23.5q-96 0 -96 -102v-296h-160v715h160v-277h2q52 90 168 90q76 0 121 -48z" />
    <glyph glyph-name="uni04D8" unicode="&#x4d8;" horiz-adv-x="745" 
d="M552 682.5q77 -46.5 120 -130.5t43 -193q0 -108 -45 -193.5t-124 -133t-178 -47.5q-97 0 -174 48.5t-119.5 128t-42.5 169.5v39q0 28 2 45h498q-13 83 -61 125t-108 42q-58 0 -95.5 -25.5t-44.5 -63.5h-184q12 70 59.5 123.5t120.5 83t158 29.5q98 0 175 -46.5z
M465.5 165.5q43.5 33.5 60.5 102.5h-318q0 -36 22 -67.5t57.5 -50t74.5 -18.5q60 0 103.5 33.5z" />
    <glyph glyph-name="uni04D9" unicode="&#x4d9;" horiz-adv-x="565" 
d="M474.5 455q68.5 -74 68.5 -200q0 -77 -34 -139t-94.5 -97.5t-135.5 -35.5q-77 0 -135.5 34.5t-90 95.5t-31.5 140q0 19 3 41h354q-6 55 -32.5 85t-66.5 30q-37 0 -60.5 -15t-31.5 -40h-160q17 87 87 131t169 44q122 0 190.5 -74zM338 126.5q24 23.5 35 67.5h-189
q0 -41 26 -66t70 -25q34 0 58 23.5z" />
    <glyph glyph-name="uni04E2" unicode="&#x4e2;" horiz-adv-x="755" 
d="M240 0h-180v715h180v-444h2l273 444h180v-715h-180v444h-2zM517 776h-286v100h286v-100z" />
    <glyph glyph-name="uni04E3" unicode="&#x4e3;" horiz-adv-x="614" 
d="M204 0h-160v510h160v-300l206 300h160v-510h-160v300zM458 571h-286v100h286v-100z" />
    <glyph glyph-name="uni04E8" unicode="&#x4e8;" horiz-adv-x="768" 
d="M574 683q80 -48 122 -132.5t42 -192.5q0 -109 -42 -193.5t-122 -132.5t-190 -48q-111 0 -191 48t-121.5 132.5t-41.5 193.5q0 108 41.5 192.5t121.5 132.5t191 48q110 0 190 -48zM218 418h332q-10 77 -49.5 121.5t-116.5 44.5q-145 0 -166 -166zM550 298h-333
q21 -167 167 -167q145 0 166 167z" />
    <glyph glyph-name="uni04E9" unicode="&#x4e9;" horiz-adv-x="591" 
d="M441.5 495q61.5 -34 94.5 -95.5t33 -141.5q0 -81 -33 -143.5t-95 -97t-147 -34.5q-83 0 -144.5 34t-94.5 95.5t-33 142.5t33 143t95.5 96.5t146.5 34.5q83 0 144.5 -34zM224.5 382.5q-27.5 -26.5 -36.5 -76.5h215q-9 50 -36.5 76.5t-70.5 26.5q-44 0 -71.5 -26.5z
M366.5 129.5q27.5 26.5 36.5 76.5h-215q9 -50 36.5 -76.5t71.5 -26.5q43 0 70.5 26.5z" />
    <glyph glyph-name="uni04EE" unicode="&#x4ee;" horiz-adv-x="670" 
d="M301 0h-174l110 214l-229 501h180l143 -313h2l157 313h172zM477 776h-286v100h286v-100z" />
    <glyph glyph-name="uni04EF" unicode="&#x4ef;" horiz-adv-x="549" 
d="M58 -167v122q26 -3 48 -3q34 0 57.5 9.5t32.5 45.5l-204 505h165l120 -337h2l110 337h158l-187 -513q-34 -93 -79.5 -134.5t-126.5 -41.5q-47 0 -96 10zM413 573h-286v100h286v-100z" />
    <glyph glyph-name="uni139A" unicode="&#x139a;" horiz-adv-x="650" 
 />
    <glyph glyph-name="Wgrave" unicode="&#x1e80;" horiz-adv-x="956" 
d="M370 0h-180l-182 715h180l92 -485h2l111 485h170l111 -485h2l92 485h180l-182 -715h-180l-107 446h-2zM536 778h-120l-93 152h160z" />
    <glyph glyph-name="wgrave" unicode="&#x1e81;" horiz-adv-x="790" 
d="M295 0h-150l-143 512h160l77 -312h2l86 312h140l86 -312h3l77 312h155l-143 -512h-150l-99 324h-2zM453 575h-120l-93 152h160z" />
    <glyph glyph-name="Wacute" unicode="&#x1e82;" horiz-adv-x="956" 
d="M370 0h-180l-182 715h180l92 -485h2l111 485h170l111 -485h2l92 485h180l-182 -715h-180l-107 446h-2zM538 776h-120l53 152h180z" />
    <glyph glyph-name="wacute" unicode="&#x1e83;" horiz-adv-x="790" 
d="M295 0h-150l-143 512h160l77 -312h2l86 312h140l86 -312h3l77 312h155l-143 -512h-150l-99 324h-2zM455 573h-120l53 152h180z" />
    <glyph glyph-name="Wdieresis" unicode="&#x1e84;" horiz-adv-x="956" 
d="M370 0h-180l-182 715h180l92 -485h2l111 485h170l111 -485h2l92 485h180l-182 -715h-180l-107 446h-2zM454 776h-160v142h160v-142zM662 776h-160v142h160v-142z" />
    <glyph glyph-name="wdieresis" unicode="&#x1e85;" horiz-adv-x="790" 
d="M295 0h-150l-143 512h160l77 -312h2l86 312h140l86 -312h3l77 312h155l-143 -512h-150l-99 324h-2zM371 573h-160v142h160v-142zM579 573h-160v142h160v-142z" />
    <glyph glyph-name="Ygrave" unicode="&#x1ef2;" horiz-adv-x="667" 
d="M424 0h-180v264l-244 451h194l139 -304h2l140 304h190l-241 -451v-264zM393 778h-120l-93 152h160z" />
    <glyph glyph-name="ygrave" unicode="&#x1ef3;" horiz-adv-x="549" 
d="M58 -167v122q26 -3 48 -3q34 0 57.5 9.5t32.5 45.5l-204 505h165l120 -337h2l110 337h158l-187 -513q-34 -93 -79.5 -134.5t-126.5 -41.5q-47 0 -96 10zM328 575h-120l-93 152h160z" />
    <glyph glyph-name="uni2000" unicode="&#x2000;" horiz-adv-x="500" 
 />
    <glyph glyph-name="uni2001" unicode="&#x2001;" horiz-adv-x="1000" 
 />
    <glyph glyph-name="uni2002" unicode="&#x2002;" horiz-adv-x="500" 
 />
    <glyph glyph-name="uni2003" unicode="&#x2003;" horiz-adv-x="1000" 
 />
    <glyph glyph-name="uni2004" unicode="&#x2004;" horiz-adv-x="333" 
 />
    <glyph glyph-name="uni2005" unicode="&#x2005;" horiz-adv-x="250" 
 />
    <glyph glyph-name="uni2006" unicode="&#x2006;" horiz-adv-x="167" 
 />
    <glyph glyph-name="uni2007" unicode="&#x2007;" horiz-adv-x="800" 
 />
    <glyph glyph-name="uni2008" unicode="&#x2008;" horiz-adv-x="228" 
 />
    <glyph glyph-name="uni2009" unicode="&#x2009;" horiz-adv-x="125" 
 />
    <glyph glyph-name="uni200A" unicode="&#x200a;" horiz-adv-x="42" 
 />
    <glyph glyph-name="uni200B" unicode="&#x200b;" 
 />
    <glyph glyph-name="endash" unicode="&#x2013;" horiz-adv-x="580" 
d="M540 184h-500v137h500v-137z" />
    <glyph glyph-name="emdash" unicode="&#x2014;" horiz-adv-x="1080" 
d="M1040 184h-1000v137h1000v-137z" />
    <glyph glyph-name="quoteleft" unicode="&#x2018;" horiz-adv-x="228" 
d="M187 645q-72 -12 -72 -97h72v-152h-152v152q0 68 39.5 112.5t112.5 54.5v-70z" />
    <glyph glyph-name="quoteright" unicode="&#x2019;" horiz-adv-x="222" 
d="M41 466q72 12 72 97h-72v152h152v-152q0 -68 -39.5 -112.5t-112.5 -54.5v70z" />
    <glyph glyph-name="quotesinglbase" unicode="&#x201a;" horiz-adv-x="232" 
d="M40 -97q72 12 72 97h-72v152h152v-152q0 -68 -39.5 -112.5t-112.5 -54.5v70z" />
    <glyph glyph-name="quotedblleft" unicode="&#x201c;" horiz-adv-x="428" 
d="M35 551q0 68 39.5 112.5t112.5 54.5v-70q-72 -12 -72 -97h72v-152h-152v152zM387 648q-72 -12 -72 -97h72v-152h-152v152q0 68 39.5 112.5t112.5 54.5v-70z" />
    <glyph glyph-name="quotedblright" unicode="&#x201d;" horiz-adv-x="422" 
d="M41 466q72 12 72 97h-72v152h152v-152q0 -68 -39.5 -112.5t-112.5 -54.5v70zM241 466q72 12 72 97h-72v152h152v-152q0 -68 -39.5 -112.5t-112.5 -54.5v70z" />
    <glyph glyph-name="quotedblbase" unicode="&#x201e;" horiz-adv-x="432" 
d="M240 -97q72 12 72 97h-72v152h152v-152q0 -68 -39.5 -112.5t-112.5 -54.5v70zM40 -97q72 12 72 97h-72v152h152v-152q0 -68 -39.5 -112.5t-112.5 -54.5v70z" />
    <glyph glyph-name="dagger" unicode="&#x2020;" horiz-adv-x="552" 
d="M361 -177h-170v552h-175v137h175v203h170v-203h175v-137h-175v-552z" />
    <glyph glyph-name="daggerdbl" unicode="&#x2021;" horiz-adv-x="596" 
d="M383 -177h-170v232h-175v137h175v183h-175v137h175v203h170v-203h175v-137h-175v-183h175v-137h-175v-232z" />
    <glyph glyph-name="bullet" unicode="&#x2022;" horiz-adv-x="416" 
d="M348 156h-280v280h280v-280z" />
    <glyph glyph-name="ellipsis" unicode="&#x2026;" horiz-adv-x="652" 
d="M190 0h-152v152h152v-152zM402 0h-152v152h152v-152zM614 0h-152v152h152v-152z" />
    <glyph glyph-name="perthousand" unicode="&#x2030;" horiz-adv-x="1325" 
d="M72.5 360q-54.5 54 -54.5 146t54.5 146.5t146.5 54.5t146 -54.5t54 -146.5t-54 -146t-146 -54t-146.5 54zM315 0h-107l383 691h107zM257 430q12 24 12 76q0 53 -12 77t-38 24q-27 0 -39 -24t-12 -77t12 -76.5t39 -23.5q26 0 38 24zM541 38.5q-54 54.5 -54 146.5t54 146
t146 54t146.5 -54t54.5 -146t-54.5 -146.5t-146.5 -54.5t-146 54.5zM959 38.5q-54 54.5 -54 146.5t54 146t146 54t146.5 -54t54.5 -146t-54.5 -146.5t-146.5 -54.5t-146 54.5zM726 108q12 24 12 77t-12 76.5t-39 23.5q-26 0 -38 -23.5t-12 -76.5t12 -77t38 -24q27 0 39 24z
M1144 108q12 24 12 77t-12 76.5t-39 23.5q-26 0 -38 -23.5t-12 -76.5t12 -77t38 -24q27 0 39 24z" />
    <glyph glyph-name="guilsinglleft" unicode="&#x2039;" horiz-adv-x="282" 
d="M237 183v-156l-199 154v157l199 154v-156l-111 -75v-3z" />
    <glyph glyph-name="guilsinglright" unicode="&#x203a;" horiz-adv-x="282" 
d="M244 181l-199 -154v156l111 75v3l-111 75v156l199 -154v-157z" />
    <glyph glyph-name="fraction" unicode="&#x2044;" horiz-adv-x="240" 
d="M-39 0h-140l453 715h140z" />
    <glyph glyph-name="uni2070" unicode="&#x2070;" horiz-adv-x="422" 
d="M107.5 388.5q-42.5 28.5 -63.5 77t-21 106.5t21 106.5t63.5 77.5t104.5 29q91 0 139 -60.5t48 -152.5q0 -91 -48 -151.5t-139 -60.5q-62 0 -104.5 28.5zM261 485q13 28 13 87t-13 87t-49 28q-37 0 -50.5 -27t-13.5 -88q0 -60 13.5 -87.5t50.5 -27.5q36 0 49 28z" />
    <glyph glyph-name="uni2074" unicode="&#x2074;" horiz-adv-x="405" 
d="M323 364h-121v81h-179v120l179 205h121v-229h60v-96h-60v-81zM202 644l-94 -103h94v103z" />
    <glyph glyph-name="uni2075" unicode="&#x2075;" horiz-adv-x="392" 
d="M66.5 391.5q-47.5 37.5 -49.5 102.5h123q2 -18 17 -31t40 -13q23 0 35.5 14t12.5 40q0 57 -53 57q-29 0 -50 -24h-113l49 233h273v-96h-191l-12 -56v-1q38 25 83 25q63 0 100 -36.5t37 -102.5q0 -73 -45.5 -111t-118.5 -38q-90 0 -137.5 37.5z" />
    <glyph glyph-name="uni2076" unicode="&#x2076;" horiz-adv-x="399" 
d="M65 417.5q-41 58.5 -41 146.5q0 106 49 164t129 58q65 0 107 -31.5t54 -82.5h-117q-15 27 -47 27q-61 0 -67 -70l-1 -12l4 -1q12 12 38.5 23t57.5 11q66 0 106 -39.5t40 -102.5q0 -67 -48 -108t-126 -41q-97 0 -138 58.5zM246 464.5q16 16.5 16 41.5q0 24 -15 40.5
t-43 16.5t-44 -17t-16 -40q0 -25 15.5 -41.5t42.5 -16.5q28 0 44 16.5z" />
    <glyph glyph-name="uni2077" unicode="&#x2077;" horiz-adv-x="333" 
d="M75 364q0 95 33 180.5t82 128.5v1h-179v96h306v-89q-60 -50 -87.5 -132.5t-27.5 -184.5h-127z" />
    <glyph glyph-name="uni2078" unicode="&#x2078;" horiz-adv-x="395" 
d="M71 392q-49 33 -49 94q0 68 76 102v1q-26 14 -42.5 34t-16.5 52q0 51 45.5 81t112.5 30q68 0 113.5 -30t45.5 -81q0 -54 -59 -86v-1q34 -15 55.5 -40.5t21.5 -61.5q0 -61 -50.5 -94t-126.5 -33q-77 0 -126 33zM235.5 632q12.5 13 12.5 31q0 17 -12.5 29.5t-38.5 12.5
q-25 0 -38 -12.5t-13 -29.5q0 -18 12.5 -31t38.5 -13t38.5 13zM235.5 462.5q13.5 15.5 13.5 36.5q0 20 -13.5 34.5t-38.5 14.5t-38.5 -14.5t-13.5 -34.5q0 -21 13 -36.5t39 -15.5q25 0 38.5 15.5z" />
    <glyph glyph-name="uni2079" unicode="&#x2079;" horiz-adv-x="401" 
d="M89 391q-45 32 -56 82h123q14 -26 44 -26q26 0 41.5 17t15.5 50v5l-1 1q-11 -10 -35 -18.5t-54 -8.5q-66 0 -105.5 40t-39.5 104q0 67 48 108t126 41q98 0 139.5 -61.5t41.5 -153.5q0 -101 -49.5 -156.5t-130.5 -55.5q-63 0 -108 32zM240.5 598.5q14.5 16.5 14.5 40.5
q0 25 -15.5 41.5t-42.5 16.5q-28 0 -44 -16.5t-16 -41.5q0 -23 16.5 -40t44.5 -17t42.5 16.5z" />
    <glyph glyph-name="uni2080" unicode="&#x2080;" horiz-adv-x="422" 
d="M107.5 -80.5q-42.5 28.5 -63.5 77t-21 106.5t21 106.5t63.5 77.5t104.5 29q91 0 139 -60.5t48 -152.5q0 -91 -48 -151.5t-139 -60.5q-62 0 -104.5 28.5zM261 16q13 28 13 87t-13 87t-49 28q-37 0 -50.5 -27t-13.5 -88q0 -60 13.5 -87.5t50.5 -27.5q36 0 49 28z" />
    <glyph glyph-name="uni2081" unicode="&#x2081;" horiz-adv-x="267" 
d="M99 153q-20 -9 -86 -9v92q45 0 77 19t31 51h106v-406h-128v253z" />
    <glyph glyph-name="uni2082" unicode="&#x2082;" horiz-adv-x="375" 
d="M20 -100q0 43 8 66.5t28.5 43t72.5 59.5q8 6 35.5 26.5t43 42t15.5 44.5q0 38 -36 38q-23 0 -35 -14.5t-12 -52.5h-116q0 79 41.5 121.5t125.5 42.5q71 0 112.5 -33.5t41.5 -92.5q0 -53 -27 -87.5t-73 -72.5q-30 -25 -37 -33v-1h139v-97h-327z" />
    <glyph glyph-name="uni2083" unicode="&#x2083;" horiz-adv-x="384" 
d="M63 -69.5q-46 40.5 -46 116.5h116q0 -32 12.5 -46.5t44.5 -14.5q47 0 47 40q0 21 -15.5 31t-50.5 10h-14v80h12q57 0 57 40q0 16 -10.5 24.5t-26.5 8.5q-20 0 -32.5 -9.5t-12.5 -30.5h-115q0 60 45 98.5t120 38.5q67 0 111.5 -30.5t44.5 -82.5q0 -55 -57 -89v-1
q68 -23 68 -96q0 -62 -44.5 -95t-121.5 -33q-86 0 -132 40.5z" />
    <glyph glyph-name="uni2084" unicode="&#x2084;" horiz-adv-x="405" 
d="M323 -100h-121v81h-179v120l179 205h121v-229h60v-96h-60v-81zM202 180l-94 -103h94v103z" />
    <glyph glyph-name="uni2085" unicode="&#x2085;" horiz-adv-x="392" 
d="M66.5 -72.5q-47.5 37.5 -49.5 102.5h123q2 -18 17 -31t40 -13q23 0 35.5 14t12.5 40q0 57 -53 57q-29 0 -50 -24h-113l49 233h273v-96h-191l-12 -56v-1q38 25 83 25q63 0 100 -36.5t37 -102.5q0 -73 -45.5 -111t-118.5 -38q-90 0 -137.5 37.5z" />
    <glyph glyph-name="uni2086" unicode="&#x2086;" horiz-adv-x="399" 
d="M65 -51.5q-41 58.5 -41 146.5q0 106 49 164t129 58q65 0 107 -31.5t54 -82.5h-117q-15 27 -47 27q-61 0 -67 -70l-1 -12l4 -1q12 12 38.5 23t57.5 11q66 0 106 -39.5t40 -102.5q0 -67 -48 -108t-126 -41q-97 0 -138 58.5zM246 -4.5q16 16.5 16 41.5q0 24 -15 40.5
t-43 16.5t-44 -17t-16 -40q0 -25 15.5 -41.5t42.5 -16.5q28 0 44 16.5z" />
    <glyph glyph-name="uni2087" unicode="&#x2087;" horiz-adv-x="333" 
d="M75 -100q0 95 33 180.5t82 128.5v1h-179v96h306v-89q-60 -50 -87.5 -132.5t-27.5 -184.5h-127z" />
    <glyph glyph-name="uni2088" unicode="&#x2088;" horiz-adv-x="395" 
d="M71 -77q-49 33 -49 94q0 68 76 102v1q-26 14 -42.5 34t-16.5 52q0 51 45.5 81t112.5 30q68 0 113.5 -30t45.5 -81q0 -54 -59 -86v-1q34 -15 55.5 -40.5t21.5 -61.5q0 -61 -50.5 -94t-126.5 -33q-77 0 -126 33zM235.5 163q12.5 13 12.5 31q0 17 -12.5 29.5t-38.5 12.5
q-25 0 -38 -12.5t-13 -29.5q0 -18 12.5 -31t38.5 -13t38.5 13zM235.5 -6.5q13.5 15.5 13.5 36.5q0 20 -13.5 34.5t-38.5 14.5t-38.5 -14.5t-13.5 -34.5q0 -21 13 -36.5t39 -15.5q25 0 38.5 15.5z" />
    <glyph glyph-name="uni2089" unicode="&#x2089;" horiz-adv-x="401" 
d="M89 -78q-45 32 -56 82h123q14 -26 44 -26q26 0 41.5 17t15.5 50v5l-1 1q-11 -10 -35 -18.5t-54 -8.5q-66 0 -105.5 40t-39.5 104q0 67 48 108t126 41q98 0 139.5 -61.5t41.5 -153.5q0 -101 -49.5 -156.5t-130.5 -55.5q-63 0 -108 32zM240.5 129.5q14.5 16.5 14.5 40.5
q0 25 -15.5 41.5t-42.5 16.5q-28 0 -44 -16.5t-16 -41.5q0 -23 16.5 -40t44.5 -17t42.5 16.5z" />
    <glyph glyph-name="Euro" unicode="&#x20ac;" horiz-adv-x="701" 
d="M469.5 155q25.5 34 28.5 98h170q-5 -124 -74 -196.5t-203 -72.5q-133 0 -205 70t-91 190h-53v67h47q-1 11 -1 32v17h-46v67h51q17 126 89 200t209 74q133 0 202 -72t75 -195h-170q-4 63 -29.5 96.5t-81.5 33.5t-85.5 -35t-38.5 -102h159v-67h-164v-17q0 -22 1 -32h163
v-67h-157q11 -60 40 -91.5t82 -31.5q57 0 82.5 34z" />
    <glyph glyph-name="trademark" unicode="&#x2122;" horiz-adv-x="703" 
d="M193 439h-100v188h-73v88h246v-88h-73v-188zM393 439h-90v276h125l49 -156h2l50 156h126v-276h-92v169h-2l-51 -169h-65l-50 169h-2v-169z" />
    <glyph glyph-name="uni2126" unicode="&#x2126;" horiz-adv-x="800" 
d="M34 0v146h153q-68 41 -104 107.5t-36 154.5q0 96 42.5 168.5t122.5 112.5t188 40t188 -40t122.5 -112.5t42.5 -168.5q0 -88 -36 -154.5t-104 -107.5h153v-146h-316v135q129 82 129 247q0 101 -47 152t-132 51t-132 -51t-47 -152q0 -165 129 -247v-135h-316z" />
    <glyph glyph-name="oneeighth" unicode="&#x215b;" horiz-adv-x="860" 
d="M99 562q-20 -9 -86 -9v92q45 0 77 19t31 51h106v-406h-128v253zM239 0h-140l453 715h140zM539 23q-49 33 -49 94q0 68 76 102v1q-26 14 -42.5 34t-16.5 52q0 51 45.5 81t112.5 30q68 0 113.5 -30t45.5 -81q0 -54 -59 -86v-1q34 -15 55.5 -40.5t21.5 -61.5
q0 -61 -50.5 -94t-126.5 -33q-77 0 -126 33zM703.5 263q12.5 13 12.5 31q0 17 -12.5 29.5t-38.5 12.5q-25 0 -38 -12.5t-13 -29.5q0 -18 12.5 -31t38.5 -13t38.5 13zM703.5 93.5q13.5 15.5 13.5 36.5q0 20 -13.5 34.5t-38.5 14.5t-38.5 -14.5t-13.5 -34.5q0 -21 13 -36.5
t39 -15.5q25 0 38.5 15.5z" />
    <glyph glyph-name="threeeighths" unicode="&#x215c;" horiz-adv-x="991" 
d="M73 339.5q-46 40.5 -46 116.5h116q0 -32 12.5 -46.5t44.5 -14.5q47 0 47 40q0 21 -15.5 31t-50.5 10h-14v80h12q57 0 57 40q0 16 -10.5 24.5t-26.5 8.5q-20 0 -32.5 -9.5t-12.5 -30.5h-115q0 60 45 98.5t120 38.5q67 0 111.5 -30.5t44.5 -82.5q0 -55 -57 -89v-1
q68 -23 68 -96q0 -62 -44.5 -95t-121.5 -33q-86 0 -132 40.5zM345 0h-140l453 715h140zM665 23q-49 33 -49 94q0 68 76 102v1q-26 14 -42.5 34t-16.5 52q0 51 45.5 81t112.5 30q68 0 113.5 -30t45.5 -81q0 -54 -59 -86v-1q34 -15 55.5 -40.5t21.5 -61.5q0 -61 -50.5 -94
t-126.5 -33q-77 0 -126 33zM829.5 263q12.5 13 12.5 31q0 17 -12.5 29.5t-38.5 12.5q-25 0 -38 -12.5t-13 -29.5q0 -18 12.5 -31t38.5 -13t38.5 13zM829.5 93.5q13.5 15.5 13.5 36.5q0 20 -13.5 34.5t-38.5 14.5t-38.5 -14.5t-13.5 -34.5q0 -21 13 -36.5t39 -15.5
q25 0 38.5 15.5z" />
    <glyph glyph-name="fiveeighths" unicode="&#x215d;" horiz-adv-x="987" 
d="M70.5 336.5q-47.5 37.5 -49.5 102.5h123q2 -18 17 -31t40 -13q23 0 35.5 14t12.5 40q0 57 -53 57q-29 0 -50 -24h-113l49 233h273v-96h-191l-12 -56v-1q38 25 83 25q63 0 100 -36.5t37 -102.5q0 -73 -45.5 -111t-118.5 -38q-90 0 -137.5 37.5zM342 0h-140l453 715h140z
M662 23q-49 33 -49 94q0 68 76 102v1q-26 14 -42.5 34t-16.5 52q0 51 45.5 81t112.5 30q68 0 113.5 -30t45.5 -81q0 -54 -59 -86v-1q34 -15 55.5 -40.5t21.5 -61.5q0 -61 -50.5 -94t-126.5 -33q-77 0 -126 33zM826.5 263q12.5 13 12.5 31q0 17 -12.5 29.5t-38.5 12.5
q-25 0 -38 -12.5t-13 -29.5q0 -18 12.5 -31t38.5 -13t38.5 13zM826.5 93.5q13.5 15.5 13.5 36.5q0 20 -13.5 34.5t-38.5 14.5t-38.5 -14.5t-13.5 -34.5q0 -21 13 -36.5t39 -15.5q25 0 38.5 15.5z" />
    <glyph glyph-name="seveneighths" unicode="&#x215e;" horiz-adv-x="890" 
d="M77 309q0 95 33 180.5t82 128.5v1h-179v96h306v-89q-60 -50 -87.5 -132.5t-27.5 -184.5h-127zM249 0h-140l453 715h140zM569 23q-49 33 -49 94q0 68 76 102v1q-26 14 -42.5 34t-16.5 52q0 51 45.5 81t112.5 30q68 0 113.5 -30t45.5 -81q0 -54 -59 -86v-1
q34 -15 55.5 -40.5t21.5 -61.5q0 -61 -50.5 -94t-126.5 -33q-77 0 -126 33zM733.5 263q12.5 13 12.5 31q0 17 -12.5 29.5t-38.5 12.5q-25 0 -38 -12.5t-13 -29.5q0 -18 12.5 -31t38.5 -13t38.5 13zM733.5 93.5q13.5 15.5 13.5 36.5q0 20 -13.5 34.5t-38.5 14.5t-38.5 -14.5
t-13.5 -34.5q0 -21 13 -36.5t39 -15.5q25 0 38.5 15.5z" />
    <glyph glyph-name="arrowleft" unicode="&#x2190;" horiz-adv-x="771" 
d="M401 89l-77 -79l-287 310l287 310l77 -79l-160 -171h487v-120h-487z" />
    <glyph glyph-name="arrowup" unicode="&#x2191;" horiz-adv-x="666" 
d="M393 0h-120v487l-171 -160l-79 77l310 287l310 -287l-79 -77l-171 160v-487z" />
    <glyph glyph-name="arrowright" unicode="&#x2192;" horiz-adv-x="771" 
d="M734 320l-287 -310l-77 79l160 171h-487v120h487l-160 171l77 79z" />
    <glyph glyph-name="arrowdown" unicode="&#x2193;" horiz-adv-x="666" 
d="M643 247l-310 -287l-310 287l79 77l171 -160v487h120v-487l171 160z" />
    <glyph glyph-name="arrowboth" unicode="&#x2194;" horiz-adv-x="1147" 
d="M397 89l-77 -80l-287 310l287 311l77 -79l-160 -171h672l-159 171l76 79l287 -310l-286 -310l-77 79l160 171h-673z" />
    <glyph glyph-name="arrowupdn" unicode="&#x2195;" horiz-adv-x="660" 
d="M640 110l-310 -287l-310 287l79 77l171 -160v555l-171 -160l-79 77l310 287l310 -287l-79 -77l-171 160v-555l171 160z" />
    <glyph glyph-name="uni2196" unicode="&#x2196;" horiz-adv-x="609" 
d="M584 155l-85 -85l-340 344v-234l-106 -1v422h422l-2 -102h-239z" />
    <glyph glyph-name="uni2197" unicode="&#x2197;" horiz-adv-x="609" 
d="M450 414l-340 -344l-85 85l350 344h-239l-2 102h422v-422l-106 1v234z" />
    <glyph glyph-name="uni2198" unicode="&#x2198;" horiz-adv-x="604" 
d="M554 43h-422l2 102h239l-350 344l85 85l340 -344v234l106 1v-422z" />
    <glyph glyph-name="uni2199" unicode="&#x2199;" horiz-adv-x="604" 
d="M472 43h-422v422l106 -1v-234l340 344l85 -85l-350 -344h239z" />
    <glyph glyph-name="partialdiff" unicode="&#x2202;" horiz-adv-x="584" 
d="M134.5 12.5q-56.5 28.5 -87 81t-30.5 123.5q0 65 29.5 124t80.5 94.5t111 35.5q55 0 88.5 -16.5t56.5 -46.5q-19 84 -77.5 127t-148.5 43v137q136 0 224.5 -52.5t130 -142t41.5 -204.5q0 -87 -29 -162t-93 -122.5t-165 -47.5q-75 0 -131.5 28.5zM353.5 148
q29.5 37 29.5 90q0 45 -23.5 75.5t-69.5 30.5q-53 0 -83 -36.5t-30 -89.5q0 -46 23.5 -76.5t69.5 -30.5q54 0 83.5 37z" />
    <glyph glyph-name="emptyset" unicode="&#x2205;" horiz-adv-x="820" 
d="M695 581q83 -99 83 -236q0 -105 -48.5 -187t-133 -128t-186.5 -46q-67 0 -126.5 20t-108.5 57l-65 -65l-50 50l64 64q-40 47 -61.5 106.5t-21.5 128.5q0 105 49 187.5t133.5 128.5t186.5 46q67 0 126.5 -20t107.5 -57l65 65l50 -50zM174 160l419 419q-38 28 -85 43
t-98 15q-83 0 -151 -37t-108 -103.5t-40 -151.5q0 -106 63 -185zM560.5 91q68.5 37 108 103t39.5 151q0 54 -16.5 101t-46.5 85l-419 -419q38 -28 85 -43t99 -15q82 0 150.5 37z" />
    <glyph glyph-name="uni2206" unicode="&#x2206;" horiz-adv-x="686" 
d="M245 715h196l224 -568v-147h-644v147zM347 550h-9l-150 -408h309z" />
    <glyph glyph-name="product" unicode="&#x220f;" horiz-adv-x="733" 
d="M230 -100h-170v815h613v-815h-170v678h-273v-678z" />
    <glyph glyph-name="summation" unicode="&#x2211;" horiz-adv-x="606" 
d="M580 -100h-550v140l252 275v2l-252 259v139h540v-137h-341v-2l223 -222v-70l-230 -245v-2h358v-137z" />
    <glyph glyph-name="minus" unicode="&#x2212;" horiz-adv-x="574" 
d="M530 260h-486v138h486v-138z" />
    <glyph glyph-name="uni2219" unicode="&#x2219;" horiz-adv-x="342" 
d="M247 270h-152v152h152v-152z" />
    <glyph glyph-name="radical" unicode="&#x221a;" horiz-adv-x="684" 
d="M403 -100h-160l-127 327h-77v137h187l96 -262h2l176 613h170z" />
    <glyph glyph-name="infinity" unicode="&#x221e;" horiz-adv-x="763" 
d="M128 140q-39 21 -63 63t-24 102q0 61 24 103t63 62.5t84 20.5q98 0 169 -85h2q71 85 168 85q45 0 84 -20.5t63 -62.5t24 -103q0 -60 -24 -102t-63 -63t-84 -21q-50 0 -91 27t-77 70h-2q-36 -43 -77.5 -70t-91.5 -27q-45 0 -84 21zM274 248q23 19 53 57q-30 38 -53 57
t-55 19q-34 0 -51 -22t-17 -54t17 -54t51 -22q32 0 55 19zM595 251q17 22 17 54t-17 54t-51 22q-32 0 -55 -19t-53 -57q30 -38 53 -57t55 -19q34 0 51 22z" />
    <glyph glyph-name="integral" unicode="&#x222b;" horiz-adv-x="404" 
d="M13 -167v120q21 -6 39 -6q32 0 48.5 20.5t16.5 65.5v531q0 89 37.5 133t122.5 44q66 0 114 -10v-120q-21 6 -39 6q-32 0 -48.5 -20.5t-16.5 -65.5v-531q0 -89 -37.5 -133t-122.5 -44q-66 0 -114 10z" />
    <glyph glyph-name="approxequal" unicode="&#x2248;" horiz-adv-x="573" 
d="M46 327q0 89 29 132t90 43q24 0 53.5 -6.5t80.5 -19.5q70 -19 92 -19q41 0 41 45h100q0 -89 -29 -132t-90 -43q-24 0 -53.5 6.5t-80.5 19.5q-70 19 -92 19q-41 0 -41 -45h-100zM46 112q0 89 29 132t90 43q24 0 53.5 -6.5t80.5 -19.5q70 -19 92 -19q41 0 41 45h100
q0 -89 -29 -132t-90 -43q-24 0 -53.5 6.5t-80.5 19.5q-70 19 -92 19q-41 0 -41 -45h-100z" />
    <glyph glyph-name="notequal" unicode="&#x2260;" horiz-adv-x="559" 
d="M515 504v-138h-169l-35 -74h204v-138h-270l-36 -77h-100l36 77h-101v138h167l35 74h-202v138h267l37 78h100l-37 -78h104z" />
    <glyph glyph-name="lessequal" unicode="&#x2264;" horiz-adv-x="494" 
d="M449 267v-137l-412 138v150l412 138v-137l-277 -75v-2zM449 0h-412v120h412v-120z" />
    <glyph glyph-name="greaterequal" unicode="&#x2265;" horiz-adv-x="494" 
d="M457 268l-412 -138v137l277 75v2l-277 75v137l412 -138v-150zM457 0h-412v120h412v-120z" />
    <glyph glyph-name="uni2266" unicode="&#x2266;" horiz-adv-x="558" 
d="M507 700v-127l-308 -94v-2l308 -94v-220h-462v117h390l-390 131v135zM507 0h-462v117h462v-117z" />
    <glyph glyph-name="uni2267" unicode="&#x2267;" horiz-adv-x="558" 
d="M51 700l462 -154v-135l-390 -131h390v-117h-462v220l308 94v2l-308 94v127zM513 0h-462v117h462v-117z" />
    <glyph glyph-name="uni2460" unicode="&#x2460;" horiz-adv-x="832" 
d="M217.5 29.5q-84.5 45.5 -130 129.5t-45.5 198t45.5 198.5t130 130t198.5 45.5t198.5 -45.5t130 -130t45.5 -198.5t-45.5 -198t-130 -129.5t-198.5 -45.5t-198.5 45.5zM610 153q70 74 70 204t-70 204.5t-194 74.5t-194 -74.5t-70 -204.5t70 -204t194 -74t194 74zM365 409
q-20 -9 -86 -9v92q45 0 77 19t31 51h106v-406h-128v253z" />
    <glyph glyph-name="uni2461" unicode="&#x2461;" horiz-adv-x="832" 
d="M217.5 29.5q-84.5 45.5 -130 129.5t-45.5 198t45.5 198.5t130 130t198.5 45.5t198.5 -45.5t130 -130t45.5 -198.5t-45.5 -198t-130 -129.5t-198.5 -45.5t-198.5 45.5zM610 153q70 74 70 204t-70 204.5t-194 74.5t-194 -74.5t-70 -204.5t70 -204t194 -74t194 74zM253 156
q0 43 8 66.5t28.5 43t72.5 59.5q8 6 35.5 26.5t43 42t15.5 44.5q0 38 -36 38q-23 0 -35 -14.5t-12 -52.5h-116q0 79 41.5 121.5t125.5 42.5q71 0 112.5 -33.5t41.5 -92.5q0 -53 -27 -87.5t-73 -72.5q-30 -25 -37 -33v-1h139v-97h-327z" />
    <glyph glyph-name="uni2462" unicode="&#x2462;" horiz-adv-x="832" 
d="M217.5 29.5q-84.5 45.5 -130 129.5t-45.5 198t45.5 198.5t130 130t198.5 45.5t198.5 -45.5t130 -130t45.5 -198.5t-45.5 -198t-130 -129.5t-198.5 -45.5t-198.5 45.5zM610 153q70 74 70 204t-70 204.5t-194 74.5t-194 -74.5t-70 -204.5t70 -204t194 -74t194 74z
M290 184.5q-46 40.5 -46 116.5h116q0 -32 12.5 -46.5t44.5 -14.5q47 0 47 40q0 21 -15.5 31t-50.5 10h-14v80h12q57 0 57 40q0 16 -10.5 24.5t-26.5 8.5q-20 0 -32.5 -9.5t-12.5 -30.5h-115q0 60 45 98.5t120 38.5q67 0 111.5 -30.5t44.5 -82.5q0 -55 -57 -89v-1
q68 -23 68 -96q0 -62 -44.5 -95t-121.5 -33q-86 0 -132 40.5z" />
    <glyph glyph-name="uni2463" unicode="&#x2463;" horiz-adv-x="832" 
d="M217.5 29.5q-84.5 45.5 -130 129.5t-45.5 198t45.5 198.5t130 130t198.5 45.5t198.5 -45.5t130 -130t45.5 -198.5t-45.5 -198t-130 -129.5t-198.5 -45.5t-198.5 45.5zM610 153q70 74 70 204t-70 204.5t-194 74.5t-194 -74.5t-70 -204.5t70 -204t194 -74t194 74zM536 154
h-121v81h-179v120l179 205h121v-229h60v-96h-60v-81zM415 434l-94 -103h94v103z" />
    <glyph glyph-name="uni2464" unicode="&#x2464;" horiz-adv-x="832" 
d="M217.5 29.5q-84.5 45.5 -130 129.5t-45.5 198t45.5 198.5t130 130t198.5 45.5t198.5 -45.5t130 -130t45.5 -198.5t-45.5 -198t-130 -129.5t-198.5 -45.5t-198.5 45.5zM610 153q70 74 70 204t-70 204.5t-194 74.5t-194 -74.5t-70 -204.5t70 -204t194 -74t194 74z
M290.5 181.5q-47.5 37.5 -49.5 102.5h123q2 -18 17 -31t40 -13q23 0 35.5 14t12.5 40q0 57 -53 57q-29 0 -50 -24h-113l49 233h273v-96h-191l-12 -56v-1q38 25 83 25q63 0 100 -36.5t37 -102.5q0 -73 -45.5 -111t-118.5 -38q-90 0 -137.5 37.5z" />
    <glyph glyph-name="uni2465" unicode="&#x2465;" horiz-adv-x="832" 
d="M217.5 29.5q-84.5 45.5 -130 129.5t-45.5 198t45.5 198.5t130 130t198.5 45.5t198.5 -45.5t130 -130t45.5 -198.5t-45.5 -198t-130 -129.5t-198.5 -45.5t-198.5 45.5zM610 153q70 74 70 204t-70 204.5t-194 74.5t-194 -74.5t-70 -204.5t70 -204t194 -74t194 74z
M281 202.5q-41 58.5 -41 146.5q0 106 49 164t129 58q65 0 107 -31.5t54 -82.5h-117q-15 27 -47 27q-61 0 -67 -70l-1 -12l4 -1q12 12 38.5 23t57.5 11q66 0 106 -39.5t40 -102.5q0 -67 -48 -108t-126 -41q-97 0 -138 58.5zM462 249.5q16 16.5 16 41.5q0 24 -15 40.5
t-43 16.5t-44 -17t-16 -40q0 -25 15.5 -41.5t42.5 -16.5q28 0 44 16.5z" />
    <glyph glyph-name="uni2466" unicode="&#x2466;" horiz-adv-x="832" 
d="M217.5 29.5q-84.5 45.5 -130 129.5t-45.5 198t45.5 198.5t130 130t198.5 45.5t198.5 -45.5t130 -130t45.5 -198.5t-45.5 -198t-130 -129.5t-198.5 -45.5t-198.5 45.5zM610 153q70 74 70 204t-70 204.5t-194 74.5t-194 -74.5t-70 -204.5t70 -204t194 -74t194 74zM327 143
q0 95 33 180.5t82 128.5v1h-179v96h306v-89q-60 -50 -87.5 -132.5t-27.5 -184.5h-127z" />
    <glyph glyph-name="uni2467" unicode="&#x2467;" horiz-adv-x="832" 
d="M217.5 29.5q-84.5 45.5 -130 129.5t-45.5 198t45.5 198.5t130 130t198.5 45.5t198.5 -45.5t130 -130t45.5 -198.5t-45.5 -198t-130 -129.5t-198.5 -45.5t-198.5 45.5zM610 153q70 74 70 204t-70 204.5t-194 74.5t-194 -74.5t-70 -204.5t70 -204t194 -74t194 74zM289 177
q-49 33 -49 94q0 68 76 102v1q-26 14 -42.5 34t-16.5 52q0 51 45.5 81t112.5 30q68 0 113.5 -30t45.5 -81q0 -54 -59 -86v-1q34 -15 55.5 -40.5t21.5 -61.5q0 -61 -50.5 -94t-126.5 -33q-77 0 -126 33zM453.5 417q12.5 13 12.5 31q0 17 -12.5 29.5t-38.5 12.5
q-25 0 -38 -12.5t-13 -29.5q0 -18 12.5 -31t38.5 -13t38.5 13zM453.5 247.5q13.5 15.5 13.5 36.5q0 20 -13.5 34.5t-38.5 14.5t-38.5 -14.5t-13.5 -34.5q0 -21 13 -36.5t39 -15.5q25 0 38.5 15.5z" />
    <glyph glyph-name="uni2468" unicode="&#x2468;" horiz-adv-x="832" 
d="M217.5 29.5q-84.5 45.5 -130 129.5t-45.5 198t45.5 198.5t130 130t198.5 45.5t198.5 -45.5t130 -130t45.5 -198.5t-45.5 -198t-130 -129.5t-198.5 -45.5t-198.5 45.5zM610 153q70 74 70 204t-70 204.5t-194 74.5t-194 -74.5t-70 -204.5t70 -204t194 -74t194 74zM306 176
q-45 32 -56 82h123q14 -26 44 -26q26 0 41.5 17t15.5 50v5l-1 1q-11 -10 -35 -18.5t-54 -8.5q-66 0 -105.5 40t-39.5 104q0 67 48 108t126 41q98 0 139.5 -61.5t41.5 -153.5q0 -101 -49.5 -156.5t-130.5 -55.5q-63 0 -108 32zM457.5 383.5q14.5 16.5 14.5 40.5
q0 25 -15.5 41.5t-42.5 16.5q-28 0 -44 -16.5t-16 -41.5q0 -23 16.5 -40t44.5 -17t42.5 16.5z" />
    <glyph glyph-name="uni24EA" unicode="&#x24ea;" horiz-adv-x="832" 
d="M217.5 29.5q-84.5 45.5 -130 129.5t-45.5 198t45.5 198.5t130 130t198.5 45.5t198.5 -45.5t130 -130t45.5 -198.5t-45.5 -198t-130 -129.5t-198.5 -45.5t-198.5 45.5zM610 153q70 74 70 204t-70 204.5t-194 74.5t-194 -74.5t-70 -204.5t70 -204t194 -74t194 74z
M312.5 173.5q-42.5 28.5 -63.5 77t-21 106.5t21 106.5t63.5 77.5t104.5 29q91 0 139 -60.5t48 -152.5q0 -91 -48 -151.5t-139 -60.5q-62 0 -104.5 28.5zM466 270q13 28 13 87t-13 87t-49 28q-37 0 -50.5 -27t-13.5 -88q0 -60 13.5 -87.5t50.5 -27.5q36 0 49 28z" />
    <glyph glyph-name="upblock" unicode="&#x2580;" horiz-adv-x="817" 
d="M766 357h-715v358h715v-358z" />
    <glyph glyph-name="dnblock" unicode="&#x2584;" horiz-adv-x="819" 
d="M767 0h-715v358h715v-358z" />
    <glyph glyph-name="block" unicode="&#x2588;" horiz-adv-x="835" 
d="M775 0h-715v715h715v-715z" />
    <glyph glyph-name="filledbox" unicode="&#x25a0;" horiz-adv-x="835" 
d="M775 0h-715v715h715v-715z" />
    <glyph glyph-name="uni25A1" unicode="&#x25a1;" horiz-adv-x="835" 
d="M775 0h-715v715h715v-715zM180 595v-475h475v475h-475z" />
    <glyph glyph-name="uni25AA" unicode="&#x25aa;" horiz-adv-x="378" 
d="M329 180h-280v280h280v-280z" />
    <glyph glyph-name="uni25AB" unicode="&#x25ab;" horiz-adv-x="418" 
d="M369 160h-320v320h320v-320zM169 360v-80h80v80h-80z" />
    <glyph glyph-name="triagup" unicode="&#x25b2;" horiz-adv-x="824" 
d="M812 0h-800l400 715z" />
    <glyph glyph-name="triagrt" unicode="&#x25ba;" horiz-adv-x="815" 
d="M786 357l-715 -400v800z" />
    <glyph glyph-name="triagdn" unicode="&#x25bc;" horiz-adv-x="824" 
d="M812 715l-400 -715l-400 715h800z" />
    <glyph glyph-name="triaglf" unicode="&#x25c4;" horiz-adv-x="815" 
d="M744 757v-800l-715 400z" />
    <glyph glyph-name="lozenge" unicode="&#x25ca;" horiz-adv-x="630" 
d="M396 0h-161l-202 357l201 358h161l202 -358zM203 357l112 -220h2l110 220l-112 221h-2z" />
    <glyph glyph-name="circle" unicode="&#x25cb;" horiz-adv-x="832" 
d="M217.5 29.5q-84.5 45.5 -130 129.5t-45.5 198t45.5 198.5t130 130t198.5 45.5t198.5 -45.5t130 -130t45.5 -198.5t-45.5 -198t-130 -129.5t-198.5 -45.5t-198.5 45.5zM610 153q70 74 70 204t-70 204.5t-194 74.5t-194 -74.5t-70 -204.5t70 -204t194 -74t194 74z" />
    <glyph glyph-name="uni25CF" unicode="&#x25cf;" horiz-adv-x="829" 
d="M227 34q-86 50 -136 136t-50 187t50 187t136 136.5t188 50.5q101 0 187 -50.5t136 -136.5t50 -187t-50 -187t-136 -136t-187 -50q-102 0 -188 50z" />
    <glyph glyph-name="uni2B0E" unicode="&#x2b0e;" horiz-adv-x="710" 
d="M430 184l171 160l79 -77l-310 -287l-310 287l79 77l171 -160v218h-290v110h410v-328z" />
    <glyph glyph-name="uni2B0F" unicode="&#x2b0f;" horiz-adv-x="712" 
d="M60 245l310 287l310 -287l-79 -77l-171 160v-328h-410v110h290v218l-171 -160z" />
    <glyph glyph-name="uni2B10" unicode="&#x2b10;" horiz-adv-x="710" 
d="M689 508v-110h-290v-218l171 160l79 -77l-310 -287l-310 287l79 77l171 -160v328h410z" />
    <glyph glyph-name="uni2B11" unicode="&#x2b11;" horiz-adv-x="712" 
d="M402 328v-218h290v-110h-410v328l-171 -160l-79 77l310 287l310 -287l-79 -77z" />
    <glyph glyph-name="uni2BA0" unicode="&#x2ba0;" horiz-adv-x="616" 
d="M455 312v290h110v-410h-328l160 -171l-77 -79l-287 310l287 310l77 -79l-160 -171h218z" />
    <glyph glyph-name="uni2BA1" unicode="&#x2ba1;" horiz-adv-x="616" 
d="M219 483l77 79l287 -310l-287 -310l-77 79l160 171h-328v410h110v-290h218z" />
    <glyph glyph-name="uni2BA2" unicode="&#x2ba2;" horiz-adv-x="612" 
d="M396 498l-160 -171h328v-410h-110v290h-218l160 -171l-77 -79l-287 310l287 310z" />
    <glyph glyph-name="uni2BA3" unicode="&#x2ba3;" horiz-adv-x="612" 
d="M216 498l77 79l287 -310l-287 -310l-77 79l160 171h-218v-290h-110v410h328z" />
    <glyph glyph-name="uni2BA4" unicode="&#x2ba4;" horiz-adv-x="710" 
d="M400 326v-218h290v-110h-410v328l-171 -160l-79 77l310 287l310 -287l-79 -77z" />
    <glyph glyph-name="uni2BA5" unicode="&#x2ba5;" horiz-adv-x="712" 
d="M60 245l310 287l310 -287l-79 -77l-171 160v-328h-410v110h290v218l-171 -160z" />
    <glyph glyph-name="uni2BA6" unicode="&#x2ba6;" horiz-adv-x="710" 
d="M689 508v-110h-290v-218l171 160l79 -77l-310 -287l-310 287l79 77l171 -160v328h410z" />
    <glyph glyph-name="uni2BA7" unicode="&#x2ba7;" horiz-adv-x="710" 
d="M430 184l171 160l79 -77l-310 -287l-310 287l79 77l171 -160v218h-290v110h410v-328z" />
    <glyph glyph-name="fi" unicode="&#xfb01;" horiz-adv-x="596" 
d="M261 593q-12 -11 -12 -49v-32h89v-120h-89v-392h-160v392h-69v120h69v36q0 93 37.5 134.5t120.5 41.5q42 0 91 -10v-113q-29 3 -40 3q-25 0 -37 -11zM552 0h-160v512h160v-512zM552 573h-160v142h160v-142z" />
    <glyph glyph-name="fl" unicode="&#xfb02;" horiz-adv-x="596" 
d="M261 593q-12 -11 -12 -49v-32h89v-120h-89v-392h-160v392h-69v120h69v36q0 93 37.5 134.5t120.5 41.5q42 0 91 -10v-113q-29 3 -40 3q-25 0 -37 -11zM552 0h-160v715h160v-715z" />
    <glyph glyph-name="uniFEFF" unicode="&#xfeff;" 
 />
    <glyph glyph-name="u1F150" unicode="&#x1f150;" horiz-adv-x="588" 
d="M171 275q-56 32 -88.5 87.5t-32.5 124.5t32.5 124.5t88.5 87.5t123 32t123 -32t88.5 -87.5t32.5 -124.5t-32.5 -124.5t-88.5 -87.5t-123 -32t-123 32z" />
    <glyph glyph-name="Adieresis.ss02" horiz-adv-x="716" 
d="M188 0h-193l272 715h181l274 -715h-197l-46 149h-245zM356 550l-81 -264h164l-81 264h-2zM203.5 793q-20.5 22 -20.5 54t21 54t56 22t55.5 -22t20.5 -54t-20.5 -54t-55.5 -22q-36 0 -56.5 22zM398.5 793q-20.5 22 -20.5 54t21 54t56 22t55.5 -22t20.5 -54t-20.5 -54
t-55.5 -22q-36 0 -56.5 22z" />
    <glyph glyph-name="Cdotaccent.ss02" horiz-adv-x="715" 
d="M185 31.5q-77 47.5 -116 131.5t-39 192q0 111 40 196t118.5 132.5t188.5 47.5q142 0 222.5 -76.5t93.5 -205.5h-184q-11 65 -42.5 100t-97.5 35q-84 0 -119.5 -58.5t-35.5 -167.5t35.5 -168t119.5 -59q67 0 98.5 35.5t41.5 101.5h184q-8 -84 -47 -148t-108.5 -100
t-165.5 -36q-110 0 -187 47.5zM323 786.5q-21 22.5 -21 56.5t21.5 57t58.5 23t58.5 -23t21.5 -57t-21.5 -56.5t-58.5 -22.5q-38 0 -59 22.5z" />
    <glyph glyph-name="Edieresis.ss02" horiz-adv-x="642" 
d="M608 0h-548v715h542v-147h-362v-127h312v-147h-312v-147h368v-147zM180.5 793q-20.5 22 -20.5 54t21 54t56 22t55.5 -22t20.5 -54t-20.5 -54t-55.5 -22q-36 0 -56.5 22zM375.5 793q-20.5 22 -20.5 54t21 54t56 22t55.5 -22t20.5 -54t-20.5 -54t-55.5 -22q-36 0 -56.5 22z
" />
    <glyph glyph-name="Edotaccent.ss02" horiz-adv-x="642" 
d="M608 0h-548v715h542v-147h-362v-127h312v-147h-312v-147h368v-147zM275 786.5q-21 22.5 -21 56.5t21.5 57t58.5 23t58.5 -23t21.5 -57t-21.5 -56.5t-58.5 -22.5q-38 0 -59 22.5z" />
    <glyph glyph-name="uni0122.ss02" horiz-adv-x="751" 
d="M181.5 32q-73.5 48 -112.5 133t-39 193q0 109 40 193.5t118 132t188 47.5q94 0 164 -34t109.5 -91.5t48.5 -127.5h-184q-12 47 -43 76.5t-98 29.5q-159 0 -159 -226q0 -108 38.5 -167.5t127.5 -59.5q62 0 101.5 33.5t41.5 85.5h-136v130h322v-380h-129l-18 91h-2
q-26 -51 -78 -79t-128 -28q-99 0 -172.5 48zM299 -234q40 5 63.5 19t23.5 38q-16 -2 -23 -2q-32 0 -52.5 17.5t-20.5 48.5t22.5 49.5t58.5 18.5q42 0 64.5 -25t22.5 -68q0 -57 -40.5 -98.5t-118.5 -48.5v51z" />
    <glyph glyph-name="Gdotaccent.ss02" horiz-adv-x="751" 
d="M181.5 32q-73.5 48 -112.5 133t-39 193q0 109 40 193.5t118 132t188 47.5q94 0 164 -34t109.5 -91.5t48.5 -127.5h-184q-12 47 -43 76.5t-98 29.5q-159 0 -159 -226q0 -108 38.5 -167.5t127.5 -59.5q62 0 101.5 33.5t41.5 85.5h-136v130h322v-380h-129l-18 91h-2
q-26 -51 -78 -79t-128 -28q-99 0 -172.5 48zM316 786.5q-21 22.5 -21 56.5t21.5 57t58.5 23t58.5 -23t21.5 -57t-21.5 -56.5t-58.5 -22.5q-38 0 -59 22.5z" />
    <glyph glyph-name="Idieresis.ss02" horiz-adv-x="300" 
d="M240 0h-180v715h180v-715zM-3.5 793q-20.5 22 -20.5 54t21 54t56 22t55.5 -22t20.5 -54t-20.5 -54t-55.5 -22q-36 0 -56.5 22zM191.5 793q-20.5 22 -20.5 54t21 54t56 22t55.5 -22t20.5 -54t-20.5 -54t-55.5 -22q-36 0 -56.5 22z" />
    <glyph glyph-name="Idotaccent.ss02" horiz-adv-x="300" 
d="M240 0h-180v715h180v-715zM91 786.5q-21 22.5 -21 56.5t21.5 57t58.5 23t58.5 -23t21.5 -57t-21.5 -56.5t-58.5 -22.5q-38 0 -59 22.5z" />
    <glyph glyph-name="uni0136.ss02" horiz-adv-x="690" 
d="M709 0h-210l-185 279l-74 -86v-193h-180v715h180v-305l256 305h193l-269 -313zM290 -234q40 5 63.5 19t23.5 38q-16 -2 -23 -2q-32 0 -52.5 17.5t-20.5 48.5t22.5 49.5t58.5 18.5q42 0 64.5 -25t22.5 -68q0 -57 -40.5 -98.5t-118.5 -48.5v51z" />
    <glyph glyph-name="uni013B.ss02" horiz-adv-x="573" 
d="M558 0h-498v715h180v-568h318v-147zM234 -234q40 5 63.5 19t23.5 38q-16 -2 -23 -2q-32 0 -52.5 17.5t-20.5 48.5t22.5 49.5t58.5 18.5q42 0 64.5 -25t22.5 -68q0 -57 -40.5 -98.5t-118.5 -48.5v51z" />
    <glyph glyph-name="uni0145.ss02" horiz-adv-x="732" 
d="M240 0h-180v715h180l250 -425h2v425h180v-715h-180l-250 425h-2v-425zM291 -234q40 5 63.5 19t23.5 38q-16 -2 -23 -2q-32 0 -52.5 17.5t-20.5 48.5t22.5 49.5t58.5 18.5q42 0 64.5 -25t22.5 -68q0 -57 -40.5 -98.5t-118.5 -48.5v51z" />
    <glyph glyph-name="Odieresis.ss02" horiz-adv-x="768" 
d="M193 32q-80 48 -121.5 132.5t-41.5 193.5q0 108 41.5 192.5t121.5 132.5t191 48q110 0 190 -48t122 -132.5t42 -192.5q0 -109 -42 -193.5t-122 -132.5t-190 -48q-111 0 -191 48zM514.5 192.5q39.5 61.5 39.5 165.5q0 103 -39.5 164.5t-130.5 61.5q-170 0 -170 -226
q0 -227 170 -227q91 0 130.5 61.5zM230.5 793q-20.5 22 -20.5 54t21 54t56 22t55.5 -22t20.5 -54t-20.5 -54t-55.5 -22q-36 0 -56.5 22zM425.5 793q-20.5 22 -20.5 54t21 54t56 22t55.5 -22t20.5 -54t-20.5 -54t-55.5 -22q-36 0 -56.5 22z" />
    <glyph glyph-name="uni0156.ss02" horiz-adv-x="688" 
d="M60 0v715h337q120 0 187.5 -53.5t67.5 -150.5q0 -73 -38 -118.5t-107 -60.5v-2q56 -10 85 -48.5t38.5 -85t13.5 -109.5q3 -40 6 -57t12 -20v-10h-187q-7 7 -9.5 24t-3.5 50q-2 53 -8.5 88t-30 61t-71.5 26h-112v-249h-180zM362 396q55 0 82.5 21t27.5 65t-27.5 65
t-82.5 21h-122v-172h122zM286 -234q40 5 63.5 19t23.5 38q-16 -2 -23 -2q-32 0 -52.5 17.5t-20.5 48.5t22.5 49.5t58.5 18.5q42 0 64.5 -25t22.5 -68q0 -57 -40.5 -98.5t-118.5 -48.5v51z" />
    <glyph glyph-name="uni0218.ss02" horiz-adv-x="657" 
d="M179.5 15q-74.5 31 -117 89.5t-42.5 138.5h182q0 -59 39.5 -86.5t104.5 -27.5q49 0 75 17.5t26 46.5q0 27 -17.5 44t-46 28.5t-83.5 27.5l-23 7q-73 22 -123 47t-81 66t-31 101q0 111 76 164t200 53q84 0 152 -28.5t108.5 -81t42.5 -123.5h-182q-6 41 -37.5 64.5
t-83.5 23.5q-42 0 -67 -14.5t-25 -44.5q0 -23 13.5 -38.5t40 -26.5t77.5 -26q93 -28 146 -50t90.5 -64.5t37.5 -111.5q0 -68 -33.5 -119t-97.5 -79t-152 -28q-94 0 -168.5 31zM272 -234q40 5 63.5 19t23.5 38q-16 -2 -23 -2q-32 0 -52.5 17.5t-20.5 48.5t22.5 49.5
t58.5 18.5q42 0 64.5 -25t22.5 -68q0 -57 -40.5 -98.5t-118.5 -48.5v51z" />
    <glyph glyph-name="uni021A.ss02" horiz-adv-x="625" 
d="M403 0h-180v568h-208v147h595v-147h-207v-568zM238 -234q40 5 63.5 19t23.5 38q-16 -2 -23 -2q-32 0 -52.5 17.5t-20.5 48.5t22.5 49.5t58.5 18.5q42 0 64.5 -25t22.5 -68q0 -57 -40.5 -98.5t-118.5 -48.5v51z" />
    <glyph glyph-name="Udieresis.ss02" horiz-adv-x="706" 
d="M124.5 52.5q-70.5 68.5 -70.5 205.5v457h180v-457q0 -68 29 -97.5t90 -29.5t90 29.5t29 97.5v457h180v-457q0 -137 -70.5 -205.5t-228.5 -68.5t-228.5 68.5zM199.5 793q-20.5 22 -20.5 54t21 54t56 22t55.5 -22t20.5 -54t-20.5 -54t-55.5 -22q-36 0 -56.5 22zM394.5 793
q-20.5 22 -20.5 54t21 54t56 22t55.5 -22t20.5 -54t-20.5 -54t-55.5 -22q-36 0 -56.5 22z" />
    <glyph glyph-name="Wdieresis.ss02" horiz-adv-x="956" 
d="M370 0h-180l-182 715h180l92 -485h2l111 485h170l111 -485h2l92 485h180l-182 -715h-180l-107 446h-2zM324.5 793q-20.5 22 -20.5 54t21 54t56 22t55.5 -22t20.5 -54t-20.5 -54t-55.5 -22q-36 0 -56.5 22zM519.5 793q-20.5 22 -20.5 54t21 54t56 22t55.5 -22t20.5 -54
t-20.5 -54t-55.5 -22q-36 0 -56.5 22z" />
    <glyph glyph-name="Ydieresis.ss02" horiz-adv-x="667" 
d="M424 0h-180v264l-244 451h194l139 -304h2l140 304h190l-241 -451v-264zM181.5 793q-20.5 22 -20.5 54t21 54t56 22t55.5 -22t20.5 -54t-20.5 -54t-55.5 -22q-36 0 -56.5 22zM376.5 793q-20.5 22 -20.5 54t21 54t56 22t55.5 -22t20.5 -54t-20.5 -54t-55.5 -22
q-36 0 -56.5 22z" />
    <glyph glyph-name="Zdotaccent.ss02" horiz-adv-x="613" 
d="M583 0h-557v147l327 419v2h-307v147h527v-147l-327 -419v-2h337v-147zM256 786.5q-21 22.5 -21 56.5t21.5 57t58.5 23t58.5 -23t21.5 -57t-21.5 -56.5t-58.5 -22.5q-38 0 -59 22.5z" />
    <glyph glyph-name="i.latn_TRK" horiz-adv-x="248" 
d="M204 0h-160v512h160v-512zM204 573h-160v142h160v-142z" />
    <glyph glyph-name="a.ss01" horiz-adv-x="600" 
d="M396 512h160v-512h-160v51h-2q-18 -25 -58 -46t-90 -21q-68 0 -118 33t-77.5 94.5t-27.5 144.5t27.5 144.5t77.5 94.5t118 33q50 0 90 -21t58 -46h2v51zM366 143q27 39 27 113t-27 113t-76 39t-76 -39t-27 -113t27 -113t76 -39t76 39z" />
    <glyph glyph-name="aacute.ss01" horiz-adv-x="600" 
d="M396 512h160v-512h-160v51h-2q-18 -25 -58 -46t-90 -21q-68 0 -118 33t-77.5 94.5t-27.5 144.5t27.5 144.5t77.5 94.5t118 33q50 0 90 -21t58 -46h2v51zM366 143q27 39 27 113t-27 113t-76 39t-76 -39t-27 -113t27 -113t76 -39t76 39zM344 573h-120l53 152h180z" />
    <glyph glyph-name="abreve.ss01" horiz-adv-x="600" 
d="M396 512h160v-512h-160v51h-2q-18 -25 -58 -46t-90 -21q-68 0 -118 33t-77.5 94.5t-27.5 144.5t27.5 144.5t77.5 94.5t118 33q50 0 90 -21t58 -46h2v51zM366 143q27 39 27 113t-27 113t-76 39t-76 -39t-27 -113t27 -113t76 -39t76 39zM170.5 606.5
q-44.5 41.5 -46.5 110.5h92q2 -25 19.5 -39.5t48.5 -14.5t48.5 14.5t19.5 39.5h92q-3 -68 -47 -110t-113 -42t-113.5 41.5z" />
    <glyph glyph-name="acircumflex.ss01" horiz-adv-x="600" 
d="M396 512h160v-512h-160v51h-2q-18 -25 -58 -46t-90 -21q-68 0 -118 33t-77.5 94.5t-27.5 144.5t27.5 144.5t77.5 94.5t118 33q50 0 90 -21t58 -46h2v51zM366 143q27 39 27 113t-27 113t-76 39t-76 -39t-27 -113t27 -113t76 -39t76 39zM238 573h-139l107 152h156l107 -152
h-139l-45 81h-2z" />
    <glyph glyph-name="adieresis.ss01" horiz-adv-x="600" 
d="M396 512h160v-512h-160v51h-2q-18 -25 -58 -46t-90 -21q-68 0 -118 33t-77.5 94.5t-27.5 144.5t27.5 144.5t77.5 94.5t118 33q50 0 90 -21t58 -46h2v51zM366 143q27 39 27 113t-27 113t-76 39t-76 -39t-27 -113t27 -113t76 -39t76 39zM260 573h-160v142h160v-142z
M468 573h-160v142h160v-142z" />
    <glyph glyph-name="agrave.ss01" horiz-adv-x="600" 
d="M396 512h160v-512h-160v51h-2q-18 -25 -58 -46t-90 -21q-68 0 -118 33t-77.5 94.5t-27.5 144.5t27.5 144.5t77.5 94.5t118 33q50 0 90 -21t58 -46h2v51zM366 143q27 39 27 113t-27 113t-76 39t-76 -39t-27 -113t27 -113t76 -39t76 39zM342 575h-120l-93 152h160z" />
    <glyph glyph-name="amacron.ss01" horiz-adv-x="600" 
d="M396 512h160v-512h-160v51h-2q-18 -25 -58 -46t-90 -21q-68 0 -118 33t-77.5 94.5t-27.5 144.5t27.5 144.5t77.5 94.5t118 33q50 0 90 -21t58 -46h2v51zM366 143q27 39 27 113t-27 113t-76 39t-76 -39t-27 -113t27 -113t76 -39t76 39zM427 573h-286v100h286v-100z" />
    <glyph glyph-name="aogonek.ss01" horiz-adv-x="600" 
d="M513 0q-25 -22 -36 -34t-11 -26q0 -22 31 -22q17 0 41 7v-90q-42 -11 -81 -11q-56 0 -85 21.5t-29 62.5q0 32 20 55.5t48 36.5h-15v51h-2q-18 -25 -58 -46t-90 -21q-68 0 -118 33t-77.5 94.5t-27.5 144.5t27.5 144.5t77.5 94.5t118 33q50 0 90 -21t58 -46h2v51h160v-512
h-43zM366 143q27 39 27 113t-27 113t-76 39t-76 -39t-27 -113t27 -113t76 -39t76 39z" />
    <glyph glyph-name="aring.ss01" horiz-adv-x="600" 
d="M396 512h160v-512h-160v51h-2q-18 -25 -58 -46t-90 -21q-68 0 -118 33t-77.5 94.5t-27.5 144.5t27.5 144.5t77.5 94.5t118 33q50 0 90 -21t58 -46h2v51zM366 143q27 39 27 113t-27 113t-76 39t-76 -39t-27 -113t27 -113t76 -39t76 39zM206 568.5q-32 29.5 -32 78.5
q0 48 32 78t78 30t78 -30t32 -78q0 -49 -32 -78.5t-78 -29.5t-78 29.5zM315.5 613q11.5 12 11.5 34t-11.5 34t-31.5 12q-19 0 -30.5 -12t-11.5 -34t11.5 -34t30.5 -12q20 0 31.5 12z" />
    <glyph glyph-name="atilde.ss01" horiz-adv-x="600" 
d="M396 512h160v-512h-160v51h-2q-18 -25 -58 -46t-90 -21q-68 0 -118 33t-77.5 94.5t-27.5 144.5t27.5 144.5t77.5 94.5t118 33q50 0 90 -21t58 -46h2v51zM366 143q27 39 27 113t-27 113t-76 39t-76 -39t-27 -113t27 -113t76 -39t76 39zM105 558q0 147 89 147q19 0 36 -5.5
t42 -16.5q4 -2 16.5 -7.5t22.5 -8t19 -2.5q35 0 35 40h86q0 -76 -22.5 -111.5t-66.5 -35.5q-20 0 -38 6t-41 16q-38 17 -57 17q-34 0 -34 -39h-87z" />
    <glyph glyph-name="adieresis.ss02" horiz-adv-x="564" 
d="M67 25q-44 41 -44 109q0 74 51.5 112t144.5 58q6 2 22 4q56 12 84.5 24.5t28.5 42.5q0 22 -17 34t-51 12q-44 0 -65.5 -18t-25.5 -56h-152q4 80 66 131t184 51q108 0 162 -49.5t54 -163.5v-198q0 -22 4 -30.5t15 -8.5q7 0 13 1v-76q-48 -9 -88 -9q-46 0 -68 16.5
t-28 50.5h-2q-28 -36 -72 -57t-97 -21q-75 0 -119 41zM326.5 127q27.5 33 27.5 80v43q-23 -9 -87 -24q-43 -10 -61.5 -28.5t-18.5 -46.5q0 -29 17 -43t49 -14q46 0 73.5 33zM131.5 590q-20.5 22 -20.5 54t21 54t56 22t55.5 -22t20.5 -54t-20.5 -54t-55.5 -22q-36 0 -56.5 22
zM326.5 590q-20.5 22 -20.5 54t21 54t56 22t55.5 -22t20.5 -54t-20.5 -54t-55.5 -22q-36 0 -56.5 22z" />
    <glyph glyph-name="cdotaccent.ss02" horiz-adv-x="549" 
d="M146.5 17.5q-59.5 34.5 -92 96.5t-32.5 142q0 79 32 141t91 97t137 35q108 0 174.5 -57.5t76.5 -150.5h-161q-10 88 -87 88q-49 0 -74 -40t-25 -113t25 -113t74 -40q43 0 63 24.5t24 65.5h161q-4 -61 -35 -108.5t-85.5 -74.5t-126.5 -27q-80 0 -139.5 34.5zM223 583.5
q-21 22.5 -21 56.5t21.5 57t58.5 23t58.5 -23t21.5 -57t-21.5 -56.5t-58.5 -22.5q-38 0 -59 22.5z" />
    <glyph glyph-name="edieresis.ss02" horiz-adv-x="573" 
d="M550 213h-368q0 -51 31.5 -80.5t78.5 -29.5q71 0 91 52h163q-22 -81 -87.5 -126.5t-170.5 -45.5q-82 0 -142 34.5t-92 96.5t-32 142q0 76 31 138t91.5 98.5t143.5 36.5q130 0 196 -74.5t66 -217.5v-24zM389 312q0 49 -27 75t-74 26q-46 0 -74 -26t-31 -75h206zM132.5 590
q-20.5 22 -20.5 54t21 54t56 22t55.5 -22t20.5 -54t-20.5 -54t-55.5 -22q-36 0 -56.5 22zM327.5 590q-20.5 22 -20.5 54t21 54t56 22t55.5 -22t20.5 -54t-20.5 -54t-55.5 -22q-36 0 -56.5 22z" />
    <glyph glyph-name="edotaccent.ss02" horiz-adv-x="573" 
d="M550 213h-368q0 -51 31.5 -80.5t78.5 -29.5q71 0 91 52h163q-22 -81 -87.5 -126.5t-170.5 -45.5q-82 0 -142 34.5t-92 96.5t-32 142q0 76 31 138t91.5 98.5t143.5 36.5q130 0 196 -74.5t66 -217.5v-24zM389 312q0 49 -27 75t-74 26q-46 0 -74 -26t-31 -75h206zM227 583.5
q-21 22.5 -21 56.5t21.5 57t58.5 23t58.5 -23t21.5 -57t-21.5 -56.5t-58.5 -22.5q-38 0 -59 22.5z" />
    <glyph glyph-name="uni0123.ss02" horiz-adv-x="584" 
d="M381 512h160v-451q0 -131 -65.5 -187.5t-190.5 -56.5q-110 0 -173 48t-78 118h162q18 -51 89 -51q53 0 74.5 30t21.5 99v30h-2q-20 -26 -55 -46.5t-85 -20.5q-64 0 -113 32t-75.5 89t-26.5 131t26.5 131t75.5 89t113 32q50 0 85 -20.5t55 -46.5h2v51zM354.5 178
q23.5 34 23.5 98t-23.5 98t-71.5 34t-71.5 -34t-23.5 -98t23.5 -98t71.5 -34t71.5 34zM219 594.5q-21 25.5 -21 65.5q0 51 35.5 85t106.5 40v-46q-36 -5 -57 -19t-21 -37q16 2 22 2q30 0 47 -15t17 -42t-18.5 -43t-49.5 -16q-40 0 -61 25.5z" />
    <glyph glyph-name="gdotaccent.ss02" horiz-adv-x="584" 
d="M381 512h160v-451q0 -131 -65.5 -187.5t-190.5 -56.5q-110 0 -173 48t-78 118h162q18 -51 89 -51q53 0 74.5 30t21.5 99v30h-2q-20 -26 -55 -46.5t-85 -20.5q-64 0 -113 32t-75.5 89t-26.5 131t26.5 131t75.5 89t113 32q50 0 85 -20.5t55 -46.5h2v51zM354.5 178
q23.5 34 23.5 98t-23.5 98t-71.5 34t-71.5 -34t-23.5 -98t23.5 -98t71.5 -34t71.5 34zM214 583.5q-21 22.5 -21 56.5t21.5 57t58.5 23t58.5 -23t21.5 -57t-21.5 -56.5t-58.5 -22.5q-38 0 -59 22.5z" />
    <glyph glyph-name="i.ss02" horiz-adv-x="248" 
d="M62.5 580q-22.5 24 -22.5 60q0 35 23 59.5t61 24.5q39 0 62 -24.5t23 -59.5q0 -36 -23 -60t-62 -24t-61.5 24zM204 0h-160v512h160v-512z" />
    <glyph glyph-name="idieresis.ss02" horiz-adv-x="248" 
d="M204 0h-160v512h160v-512zM-29.5 590q-20.5 22 -20.5 54t21 54t56 22t55.5 -22t20.5 -54t-20.5 -54t-55.5 -22q-36 0 -56.5 22zM165.5 590q-20.5 22 -20.5 54t21 54t56 22t55.5 -22t20.5 -54t-20.5 -54t-55.5 -22q-36 0 -56.5 22z" />
    <glyph glyph-name="iogonek.ss02" horiz-adv-x="248" 
d="M65 583.5q-21 22.5 -21 56.5t21.5 57t58.5 23t58.5 -23t21.5 -57t-21.5 -56.5t-58.5 -22.5q-38 0 -59 22.5zM44 0v512h160v-512h-25q-25 -22 -36 -34t-11 -26q0 -22 31 -22q16 0 41 7v-90q-42 -11 -81 -11q-56 0 -85 21.5t-29 62.5q0 32 20 55.5t48 36.5h-33z" />
    <glyph glyph-name="j.ss02" horiz-adv-x="248" 
d="M-45 -173v122q24 -3 37 -3q27 0 39.5 11.5t12.5 49.5v505h160v-497q0 -98 -37.5 -148t-122.5 -50q-43 0 -89 10zM65 583.5q-21 22.5 -21 56.5t21.5 57t58.5 23t58.5 -23t21.5 -57t-21.5 -56.5t-58.5 -22.5q-38 0 -59 22.5z" />
    <glyph glyph-name="uni0137.ss02" horiz-adv-x="546" 
d="M566 0h-185l-121 211l-56 -59v-152h-160v715h160v-393l171 190h170l-181 -192zM230 -234q40 5 63.5 19t23.5 38q-16 -2 -23 -2q-32 0 -52.5 17.5t-20.5 48.5t22.5 49.5t58.5 18.5q42 0 64.5 -25t22.5 -68q0 -57 -40.5 -98.5t-118.5 -48.5v51z" />
    <glyph glyph-name="uni013C.ss02" horiz-adv-x="248" 
d="M204 0h-160v715h160v-715zM49 -234q40 5 63.5 19t23.5 38q-16 -2 -23 -2q-32 0 -52.5 17.5t-20.5 48.5t22.5 49.5t58.5 18.5q42 0 64.5 -25t22.5 -68q0 -57 -40.5 -98.5t-118.5 -48.5v51z" />
    <glyph glyph-name="uni0146.ss02" horiz-adv-x="581" 
d="M495 480q45 -48 45 -134v-346h-160v295q0 56 -19.5 79.5t-60.5 23.5q-96 0 -96 -102v-296h-160v512h160v-74h2q52 90 168 90q76 0 121 -48zM217 -234q40 5 63.5 19t23.5 38q-16 -2 -23 -2q-32 0 -52.5 17.5t-20.5 48.5t22.5 49.5t58.5 18.5q42 0 64.5 -25t22.5 -68
q0 -57 -40.5 -98.5t-118.5 -48.5v51z" />
    <glyph glyph-name="odieresis.ss02" horiz-adv-x="591" 
d="M149.5 17q-61.5 34 -94.5 95.5t-33 142.5t33 143t95.5 96.5t146.5 34.5q83 0 144.5 -34t94.5 -95.5t33 -141.5q0 -81 -33 -143.5t-95 -97t-147 -34.5q-83 0 -144.5 34zM378 142.5q29 39.5 29 113.5t-29 113.5t-82 39.5q-54 0 -83 -39.5t-29 -113.5t29 -113.5t83 -39.5
q53 0 82 39.5zM142.5 590q-20.5 22 -20.5 54t21 54t56 22t55.5 -22t20.5 -54t-20.5 -54t-55.5 -22q-36 0 -56.5 22zM337.5 590q-20.5 22 -20.5 54t21 54t56 22t55.5 -22t20.5 -54t-20.5 -54t-55.5 -22q-36 0 -56.5 22z" />
    <glyph glyph-name="uni0157.ss02" horiz-adv-x="385" 
d="M375 512v-140q-20 3 -33 3q-58 0 -98 -35.5t-40 -101.5v-238h-160v512h160v-84h2q19 41 51.5 64.5t73.5 23.5q26 0 44 -4zM49 -234q40 5 63.5 19t23.5 38q-16 -2 -23 -2q-32 0 -52.5 17.5t-20.5 48.5t22.5 49.5t58.5 18.5q42 0 64.5 -25t22.5 -68q0 -57 -40.5 -98.5
t-118.5 -48.5v51z" />
    <glyph glyph-name="uni0219.ss02" horiz-adv-x="520" 
d="M83 36q-62 52 -65 134h150q7 -76 100 -76q68 0 68 44q0 19 -12 30.5t-30.5 17.5t-57.5 14l-25 6q-83 19 -133 55t-50 106q0 73 59 117t165 44q115 0 172 -49t61 -124h-150q-4 32 -22.5 47.5t-57.5 15.5q-63 0 -63 -41q0 -21 16 -29t65 -19l26 -6q63 -15 104.5 -32.5
t69 -51t27.5 -89.5q0 -80 -59 -123t-170 -43q-126 0 -188 52zM201 -234q40 5 63.5 19t23.5 38q-16 -2 -23 -2q-32 0 -52.5 17.5t-20.5 48.5t22.5 49.5t58.5 18.5q42 0 64.5 -25t22.5 -68q0 -57 -40.5 -98.5t-118.5 -48.5v51z" />
    <glyph glyph-name="uni021B.ss02" horiz-adv-x="365" 
d="M340 114v-113q-47 -11 -95 -11q-84 0 -122 41.5t-38 134.5v226h-71v120h71v143h160v-143h89v-120h-89v-222q0 -38 12.5 -49t39.5 -11q18 0 43 4zM156 -224q40 5 63.5 19t23.5 38q-16 -2 -23 -2q-32 0 -52.5 17.5t-20.5 48.5t22.5 49.5t58.5 18.5q42 0 64.5 -25t22.5 -68
q0 -57 -40.5 -98.5t-118.5 -48.5v51z" />
    <glyph glyph-name="udieresis.ss02" horiz-adv-x="581" 
d="M377 512h160v-512h-160v74h-2q-52 -90 -168 -90q-76 0 -121 48t-45 134v346h160v-295q0 -56 19.5 -79.5t60.5 -23.5q96 0 96 102v296zM132.5 590q-20.5 22 -20.5 54t21 54t56 22t55.5 -22t20.5 -54t-20.5 -54t-55.5 -22q-36 0 -56.5 22zM327.5 590q-20.5 22 -20.5 54
t21 54t56 22t55.5 -22t20.5 -54t-20.5 -54t-55.5 -22q-36 0 -56.5 22z" />
    <glyph glyph-name="wdieresis.ss02" horiz-adv-x="790" 
d="M295 0h-150l-143 512h160l77 -312h2l86 312h140l86 -312h3l77 312h155l-143 -512h-150l-99 324h-2zM241.5 590q-20.5 22 -20.5 54t21 54t56 22t55.5 -22t20.5 -54t-20.5 -54t-55.5 -22q-36 0 -56.5 22zM436.5 590q-20.5 22 -20.5 54t21 54t56 22t55.5 -22t20.5 -54
t-20.5 -54t-55.5 -22q-36 0 -56.5 22z" />
    <glyph glyph-name="ydieresis.ss02" horiz-adv-x="549" 
d="M58 -167v122q26 -3 48 -3q34 0 57.5 9.5t32.5 45.5l-204 505h165l120 -337h2l110 337h158l-187 -513q-34 -93 -79.5 -134.5t-126.5 -41.5q-47 0 -96 10zM116.5 590q-20.5 22 -20.5 54t21 54t56 22t55.5 -22t20.5 -54t-20.5 -54t-55.5 -22q-36 0 -56.5 22zM311.5 590
q-20.5 22 -20.5 54t21 54t56 22t55.5 -22t20.5 -54t-20.5 -54t-55.5 -22q-36 0 -56.5 22z" />
    <glyph glyph-name="zdotaccent.ss02" horiz-adv-x="501" 
d="M478 0h-459v115l249 275v2h-229v120h429v-115l-249 -275v-2h259v-120zM189 583.5q-21 22.5 -21 56.5t21.5 57t58.5 23t58.5 -23t21.5 -57t-21.5 -56.5t-58.5 -22.5q-38 0 -59 22.5z" />
    <glyph glyph-name="i.latn_TRK.ss02" horiz-adv-x="248" 
d="M62.5 580q-22.5 24 -22.5 60q0 35 23 59.5t61 24.5q39 0 62 -24.5t23 -59.5q0 -36 -23 -60t-62 -24t-61.5 24zM204 0h-160v512h160v-512z" />
    <glyph glyph-name="adieresis.ss01.ss02" horiz-adv-x="600" 
d="M396 512h160v-512h-160v51h-2q-18 -25 -58 -46t-90 -21q-68 0 -118 33t-77.5 94.5t-27.5 144.5t27.5 144.5t77.5 94.5t118 33q50 0 90 -21t58 -46h2v51zM366 143q27 39 27 113t-27 113t-76 39t-76 -39t-27 -113t27 -113t76 -39t76 39zM130.5 590q-20.5 22 -20.5 54t21 54
t56 22t55.5 -22t20.5 -54t-20.5 -54t-55.5 -22q-36 0 -56.5 22zM325.5 590q-20.5 22 -20.5 54t21 54t56 22t55.5 -22t20.5 -54t-20.5 -54t-55.5 -22q-36 0 -56.5 22z" />
    <glyph glyph-name="s_s" horiz-adv-x="1037" 
d="M85.5 34q-63.5 50 -67.5 136h150q7 -76 100 -76q68 0 68 44q0 28 -22 39t-71 22q-24 5 -32 7q-83 20 -133 57t-50 108q0 72 55.5 114.5t153.5 42.5q77 0 132.5 -28.5t96.5 -83t82 -141.5q46 -99 101 -140t129 -41q40 0 57.5 10.5t17.5 33.5q0 19 -11.5 30.5t-30 17.5
t-55.5 14l-28 6q-84 20 -133.5 58t-49.5 106q0 73 58.5 115.5t164.5 42.5q116 0 173 -49t61 -124h-150q-4 32 -22.5 47.5t-57.5 15.5q-63 0 -63 -41q0 -21 17 -29.5t70 -20.5q14 -2 20 -4q62 -13 104 -31t69.5 -52t27.5 -90q0 -80 -56.5 -123t-159.5 -43q-76 0 -125.5 25.5
t-85 75t-79.5 139.5q-54 112 -117.5 153t-130.5 41q-71 0 -71 -40q0 -14 9 -22.5t30 -15t68 -17.5q62 -15 104 -33.5t69.5 -53t27.5 -90.5q0 -79 -58 -120.5t-169 -41.5q-124 0 -187.5 50z" />
    <glyph glyph-name="w_w_w" horiz-adv-x="2234" 
d="M2000 200l77 312h155l-143 -512h-150l-99 324h-2l-99 -324h-150l-111 397l-111 -397h-150l-99 324h-2l-99 -324h-150l-111 397l-111 -397h-150l-99 324h-2l-99 -324h-150l-143 512h160l77 -312h2l86 312h140l86 -312h3l77 312h251l77 -312h2l86 312h140l86 -312h3l77 312
h251l77 -312h2l86 312h140l86 -312h3z" />
    <glyph glyph-name="f_f_i.ss02" horiz-adv-x="900" 
d="M89 0v392h-69v120h69v36q0 93 37.5 134.5t120.5 41.5q42 0 91 -10v-113q-29 3 -40 3q-25 0 -37 -11t-12 -49v-32h145v36q0 93 37.5 134.5t120.5 41.5q42 0 91 -10v-113q-28 3 -40 3q-25 0 -37 -11t-12 -49v-32h89v-120h-89v-392h-160v392h-145v-392h-160zM714.5 580
q-22.5 24 -22.5 60q0 35 23 59.5t61 24.5q39 0 62 -24.5t23 -59.5q0 -36 -23 -60t-62 -24t-61.5 24zM856 0h-160v512h160v-512z" />
    <glyph glyph-name="f_i.ss02" horiz-adv-x="596" 
d="M261 593q-12 -11 -12 -49v-32h89v-120h-89v-392h-160v392h-69v120h69v36q0 93 37.5 134.5t120.5 41.5q42 0 91 -10v-113q-29 3 -40 3q-25 0 -37 -11zM410.5 580q-22.5 24 -22.5 60q0 35 23 59.5t61 24.5q39 0 62 -24.5t23 -59.5q0 -36 -23 -60t-62 -24t-61.5 24zM552 0
h-160v512h160v-512z" />
    <glyph glyph-name="zero.zero" horiz-adv-x="679" 
d="M508 660.5q68 -46.5 101.5 -128t33.5 -187.5t-33.5 -187t-101.5 -127.5t-168 -46.5t-168.5 46.5t-102 127.5t-33.5 187t33.5 187.5t102 128t168.5 46.5t168 -46.5zM235.5 517q-30.5 -63 -30.5 -172q0 -96 22 -152l148 383q-22 4 -35 4q-74 0 -104.5 -63zM444 173
q30 62 30 172q0 86 -17 141l-145 -372q13 -3 28 -3q74 0 104 62z" />
    <glyph glyph-name="zero.slash" horiz-adv-x="679" 
d="M508 660.5q68 -46.5 101.5 -128t33.5 -187.5t-33.5 -187t-101.5 -127.5t-168 -46.5t-168.5 46.5t-102 127.5t-33.5 187t33.5 187.5t102 128t168.5 46.5t168 -46.5zM235.5 517q-30.5 -63 -30.5 -172q0 -96 22 -152l148 383q-22 4 -35 4q-74 0 -104.5 -63zM444 173
q30 62 30 172q0 86 -17 141l-145 -372q13 -3 28 -3q74 0 104 62z" />
    <glyph glyph-name="zero.tf" horiz-adv-x="800" 
d="M232.5 30.5q-68.5 46.5 -102 127.5t-33.5 187t33.5 187.5t102 128t168.5 46.5t168 -46.5t101.5 -128t33.5 -187.5t-33.5 -187t-101.5 -127.5t-168 -46.5t-168.5 46.5zM498.5 182.5q28.5 58.5 28.5 162.5t-28.5 163t-97.5 59t-98 -59t-29 -163q0 -103 28.5 -162t98.5 -59
q69 0 97.5 58.5z" />
    <glyph glyph-name="one.tf" horiz-adv-x="800" 
d="M502 137h146v-137h-462v137h146v327q-37 -29 -146 -29v133q77 0 126.5 31t49.5 92h140v-554z" />
    <glyph glyph-name="two.tf" horiz-adv-x="800" 
d="M126 0q0 70 24.5 120.5t69 91.5t134.5 108q67 50 98.5 86t31.5 79q0 41 -20 63t-60 22q-51 0 -77.5 -31t-26.5 -100h-164q0 126 68.5 197t204.5 71q113 0 181 -56t68 -154q0 -63 -29.5 -114.5t-71.5 -89.5t-106 -84q-59 -43 -86 -70v-2h293v-137h-532z" />
    <glyph glyph-name="three.tf" horiz-adv-x="800" 
d="M189 52q-76 68 -76 192h164q0 -62 28.5 -92.5t92.5 -30.5q54 0 78.5 21.5t24.5 62.5q0 48 -31 69.5t-92 21.5h-35v117h31q48 0 77.5 21.5t29.5 63.5q0 35 -21.5 53.5t-63.5 18.5q-44 0 -71.5 -22t-27.5 -69h-164q0 66 32.5 118t93 81t141.5 29q71 0 129 -22.5t92 -65.5
t34 -102q0 -99 -100 -151v-2q120 -38 120 -166q0 -103 -72.5 -158.5t-198.5 -55.5q-139 0 -215 68z" />
    <glyph glyph-name="four.tf" horiz-adv-x="800" 
d="M592 0h-170v146h-313v167l313 378h170v-408h102v-137h-102v-146zM422 506l-188 -223h188v223z" />
    <glyph glyph-name="five.tf" horiz-adv-x="800" 
d="M196 46.5q-74 62.5 -78 167.5h164q4 -40 33.5 -66.5t80.5 -26.5q49 0 77 29.5t28 85.5t-27 86t-81 30q-29 0 -57 -12.5t-48 -37.5h-160l80 389h437v-137h-321l-26 -132v-2q62 49 148 49q104 0 166.5 -62.5t62.5 -172.5q0 -81 -34.5 -137t-95.5 -84.5t-139 -28.5
q-136 0 -210 62.5z" />
    <glyph glyph-name="six.tf" horiz-adv-x="800" 
d="M186.5 84q-71.5 100 -71.5 252q0 182 79.5 276.5t216.5 94.5q66 0 120.5 -24.5t90 -68t46.5 -98.5h-172q-5 24 -25.5 44t-62.5 20q-62 0 -92.5 -42t-30.5 -113v-11l4 -3q64 60 161 60q70 0 124 -30.5t84 -84t30 -119.5q0 -76 -33 -133t-94.5 -88.5t-143.5 -31.5
q-159 0 -230.5 100zM492.5 143.5q31.5 32.5 31.5 84.5q0 51 -31.5 83.5t-85.5 32.5q-55 0 -86.5 -32.5t-31.5 -83.5q0 -52 31.5 -84.5t86.5 -32.5q54 0 85.5 32.5z" />
    <glyph glyph-name="seven.tf" horiz-adv-x="800" 
d="M252 0q0 108 28.5 216t78 196t110.5 140v2h-327v137h507v-127q-111 -90 -164 -240.5t-53 -323.5h-180z" />
    <glyph glyph-name="eight.tf" horiz-adv-x="800" 
d="M254.5 8.5q-64.5 24.5 -102.5 72.5t-38 117q0 64 36.5 106.5t93.5 67.5v2q-100 53 -100 146q0 58 34 100.5t92 64.5t130 22t130 -22t92 -64.5t34 -100.5q0 -53 -28 -87.5t-72 -58.5v-2q57 -25 93.5 -67.5t36.5 -106.5q0 -69 -38 -117t-102.5 -72.5t-145.5 -24.5
t-145.5 24.5zM476 443q26 24 26 62q0 36 -26 60.5t-76 24.5t-76 -24.5t-26 -60.5q0 -38 26 -62t76 -24t76 24zM482.5 140.5q29.5 29.5 29.5 73.5q0 43 -29.5 72t-82.5 29t-82.5 -29t-29.5 -72q0 -44 29.5 -73.5t82.5 -29.5t82.5 29.5z" />
    <glyph glyph-name="nine.tf" horiz-adv-x="800" 
d="M268.5 8.5q-54.5 24.5 -90 68t-46.5 98.5h172q5 -24 25.5 -44t62.5 -20q62 0 92.5 42t30.5 113v11l-4 3q-64 -60 -161 -60q-70 0 -124 30.5t-84 84t-30 119.5q0 76 33 133t94.5 88.5t143.5 31.5q159 0 230.5 -100t71.5 -252q0 -182 -79.5 -276.5t-216.5 -94.5
q-66 0 -120.5 24.5zM479.5 379.5q31.5 32.5 31.5 83.5q0 52 -31.5 84.5t-86.5 32.5q-54 0 -85.5 -32.5t-31.5 -84.5q0 -51 31.5 -83.5t85.5 -32.5q55 0 86.5 32.5z" />
    <glyph glyph-name="zero.tf.zero" horiz-adv-x="800" 
d="M568 660.5q68 -46.5 101.5 -128t33.5 -187.5t-33.5 -187t-101.5 -127.5t-168 -46.5t-168.5 46.5t-102 127.5t-33.5 187t33.5 187.5t102 128t168.5 46.5t168 -46.5zM295.5 517q-30.5 -63 -30.5 -172q0 -96 22 -152l148 383q-22 4 -35 4q-74 0 -104.5 -63zM504 173
q30 62 30 172q0 86 -17 141l-145 -372q13 -3 28 -3q74 0 104 62z" />
    <glyph glyph-name="zero.dnom" horiz-adv-x="422" 
d="M107.5 19.5q-42.5 28.5 -63.5 77t-21 106.5t21 106.5t63.5 77.5t104.5 29q91 0 139 -60.5t48 -152.5q0 -91 -48 -151.5t-139 -60.5q-62 0 -104.5 28.5zM261 116q13 28 13 87t-13 87t-49 28q-37 0 -50.5 -27t-13.5 -88q0 -60 13.5 -87.5t50.5 -27.5q36 0 49 28z" />
    <glyph glyph-name="one.dnom" horiz-adv-x="267" 
d="M99 253q-20 -9 -86 -9v92q45 0 77 19t31 51h106v-406h-128v253z" />
    <glyph glyph-name="two.dnom" horiz-adv-x="375" 
d="M20 0q0 43 8 66.5t28.5 43t72.5 59.5q8 6 35.5 26.5t43 42t15.5 44.5q0 38 -36 38q-23 0 -35 -14.5t-12 -52.5h-116q0 79 41.5 121.5t125.5 42.5q71 0 112.5 -33.5t41.5 -92.5q0 -53 -27 -87.5t-73 -72.5q-30 -25 -37 -33v-1h139v-97h-327z" />
    <glyph glyph-name="three.dnom" horiz-adv-x="384" 
d="M63 30.5q-46 40.5 -46 116.5h116q0 -32 12.5 -46.5t44.5 -14.5q47 0 47 40q0 21 -15.5 31t-50.5 10h-14v80h12q57 0 57 40q0 16 -10.5 24.5t-26.5 8.5q-20 0 -32.5 -9.5t-12.5 -30.5h-115q0 60 45 98.5t120 38.5q67 0 111.5 -30.5t44.5 -82.5q0 -55 -57 -89v-1
q68 -23 68 -96q0 -62 -44.5 -95t-121.5 -33q-86 0 -132 40.5z" />
    <glyph glyph-name="four.dnom" horiz-adv-x="405" 
d="M323 0h-121v81h-179v120l179 205h121v-229h60v-96h-60v-81zM202 280l-94 -103h94v103z" />
    <glyph glyph-name="five.dnom" horiz-adv-x="392" 
d="M66.5 27.5q-47.5 37.5 -49.5 102.5h123q2 -18 17 -31t40 -13q23 0 35.5 14t12.5 40q0 57 -53 57q-29 0 -50 -24h-113l49 233h273v-96h-191l-12 -56v-1q38 25 83 25q63 0 100 -36.5t37 -102.5q0 -73 -45.5 -111t-118.5 -38q-90 0 -137.5 37.5z" />
    <glyph glyph-name="six.dnom" horiz-adv-x="399" 
d="M65 48.5q-41 58.5 -41 146.5q0 106 49 164t129 58q65 0 107 -31.5t54 -82.5h-117q-15 27 -47 27q-61 0 -67 -70l-1 -12l4 -1q12 12 38.5 23t57.5 11q66 0 106 -39.5t40 -102.5q0 -67 -48 -108t-126 -41q-97 0 -138 58.5zM246 95.5q16 16.5 16 41.5q0 24 -15 40.5
t-43 16.5t-44 -17t-16 -40q0 -25 15.5 -41.5t42.5 -16.5q28 0 44 16.5z" />
    <glyph glyph-name="seven.dnom" horiz-adv-x="333" 
d="M75 0q0 95 33 180.5t82 128.5v1h-179v96h306v-89q-60 -50 -87.5 -132.5t-27.5 -184.5h-127z" />
    <glyph glyph-name="eight.dnom" horiz-adv-x="395" 
d="M71 23q-49 33 -49 94q0 68 76 102v1q-26 14 -42.5 34t-16.5 52q0 51 45.5 81t112.5 30q68 0 113.5 -30t45.5 -81q0 -54 -59 -86v-1q34 -15 55.5 -40.5t21.5 -61.5q0 -61 -50.5 -94t-126.5 -33q-77 0 -126 33zM235.5 263q12.5 13 12.5 31q0 17 -12.5 29.5t-38.5 12.5
q-25 0 -38 -12.5t-13 -29.5q0 -18 12.5 -31t38.5 -13t38.5 13zM235.5 93.5q13.5 15.5 13.5 36.5q0 20 -13.5 34.5t-38.5 14.5t-38.5 -14.5t-13.5 -34.5q0 -21 13 -36.5t39 -15.5q25 0 38.5 15.5z" />
    <glyph glyph-name="nine.dnom" horiz-adv-x="401" 
d="M89 22q-45 32 -56 82h123q14 -26 44 -26q26 0 41.5 17t15.5 50v5l-1 1q-11 -10 -35 -18.5t-54 -8.5q-66 0 -105.5 40t-39.5 104q0 67 48 108t126 41q98 0 139.5 -61.5t41.5 -153.5q0 -101 -49.5 -156.5t-130.5 -55.5q-63 0 -108 32zM240.5 229.5q14.5 16.5 14.5 40.5
q0 25 -15.5 41.5t-42.5 16.5q-28 0 -44 -16.5t-16 -41.5q0 -23 16.5 -40t44.5 -17t42.5 16.5z" />
    <glyph glyph-name="zero.numr" horiz-adv-x="422" 
d="M107.5 329.5q-42.5 28.5 -63.5 77t-21 106.5t21 106.5t63.5 77.5t104.5 29q91 0 139 -60.5t48 -152.5q0 -91 -48 -151.5t-139 -60.5q-62 0 -104.5 28.5zM261 426q13 28 13 87t-13 87t-49 28q-37 0 -50.5 -27t-13.5 -88q0 -60 13.5 -87.5t50.5 -27.5q36 0 49 28z" />
    <glyph glyph-name="one.numr" horiz-adv-x="267" 
d="M99 562q-20 -9 -86 -9v92q45 0 77 19t31 51h106v-406h-128v253z" />
    <glyph glyph-name="two.numr" horiz-adv-x="375" 
d="M20 310q0 43 8 66.5t28.5 43t72.5 59.5q8 6 35.5 26.5t43 42t15.5 44.5q0 38 -36 38q-23 0 -35 -14.5t-12 -52.5h-116q0 79 41.5 121.5t125.5 42.5q71 0 112.5 -33.5t41.5 -92.5q0 -53 -27 -87.5t-73 -72.5q-30 -25 -37 -33v-1h139v-97h-327z" />
    <glyph glyph-name="three.numr" horiz-adv-x="384" 
d="M63 339.5q-46 40.5 -46 116.5h116q0 -32 12.5 -46.5t44.5 -14.5q47 0 47 40q0 21 -15.5 31t-50.5 10h-14v80h12q57 0 57 40q0 16 -10.5 24.5t-26.5 8.5q-20 0 -32.5 -9.5t-12.5 -30.5h-115q0 60 45 98.5t120 38.5q67 0 111.5 -30.5t44.5 -82.5q0 -55 -57 -89v-1
q68 -23 68 -96q0 -62 -44.5 -95t-121.5 -33q-86 0 -132 40.5z" />
    <glyph glyph-name="four.numr" horiz-adv-x="405" 
d="M323 310h-121v81h-179v120l179 205h121v-229h60v-96h-60v-81zM202 590l-94 -103h94v103z" />
    <glyph glyph-name="five.numr" horiz-adv-x="392" 
d="M66.5 336.5q-47.5 37.5 -49.5 102.5h123q2 -18 17 -31t40 -13q23 0 35.5 14t12.5 40q0 57 -53 57q-29 0 -50 -24h-113l49 233h273v-96h-191l-12 -56v-1q38 25 83 25q63 0 100 -36.5t37 -102.5q0 -73 -45.5 -111t-118.5 -38q-90 0 -137.5 37.5z" />
    <glyph glyph-name="six.numr" horiz-adv-x="399" 
d="M65 357.5q-41 58.5 -41 146.5q0 106 49 164t129 58q65 0 107 -31.5t54 -82.5h-117q-15 27 -47 27q-61 0 -67 -70l-1 -12l4 -1q12 12 38.5 23t57.5 11q66 0 106 -39.5t40 -102.5q0 -67 -48 -108t-126 -41q-97 0 -138 58.5zM246 404.5q16 16.5 16 41.5q0 24 -15 40.5
t-43 16.5t-44 -17t-16 -40q0 -25 15.5 -41.5t42.5 -16.5q28 0 44 16.5z" />
    <glyph glyph-name="seven.numr" horiz-adv-x="333" 
d="M75 309q0 95 33 180.5t82 128.5v1h-179v96h306v-89q-60 -50 -87.5 -132.5t-27.5 -184.5h-127z" />
    <glyph glyph-name="eight.numr" horiz-adv-x="395" 
d="M71 332q-49 33 -49 94q0 68 76 102v1q-26 14 -42.5 34t-16.5 52q0 51 45.5 81t112.5 30q68 0 113.5 -30t45.5 -81q0 -54 -59 -86v-1q34 -15 55.5 -40.5t21.5 -61.5q0 -61 -50.5 -94t-126.5 -33q-77 0 -126 33zM235.5 572q12.5 13 12.5 31q0 17 -12.5 29.5t-38.5 12.5
q-25 0 -38 -12.5t-13 -29.5q0 -18 12.5 -31t38.5 -13t38.5 13zM235.5 402.5q13.5 15.5 13.5 36.5q0 20 -13.5 34.5t-38.5 14.5t-38.5 -14.5t-13.5 -34.5q0 -21 13 -36.5t39 -15.5q25 0 38.5 15.5z" />
    <glyph glyph-name="nine.numr" horiz-adv-x="401" 
d="M89 331q-45 32 -56 82h123q14 -26 44 -26q26 0 41.5 17t15.5 50v5l-1 1q-11 -10 -35 -18.5t-54 -8.5q-66 0 -105.5 40t-39.5 104q0 67 48 108t126 41q98 0 139.5 -61.5t41.5 -153.5q0 -101 -49.5 -156.5t-130.5 -55.5q-63 0 -108 32zM240.5 538.5q14.5 16.5 14.5 40.5
q0 25 -15.5 41.5t-42.5 16.5q-28 0 -44 -16.5t-16 -41.5q0 -23 16.5 -40t44.5 -17t42.5 16.5z" />
    <glyph glyph-name="space.frac" horiz-adv-x="38" 
 />
    <glyph glyph-name="uni2007.tf" horiz-adv-x="800" 
 />
    <glyph glyph-name="periodcentered.case" horiz-adv-x="250" 
d="M201 282h-152v152h152v-152z" />
    <glyph glyph-name="bullet.case" horiz-adv-x="418" 
d="M349 218h-280v280h280v-280z" />
    <glyph glyph-name="period.ss02" horiz-adv-x="213" 
d="M47 18q-22 23 -22 58q0 34 22 57.5t60 23.5q37 0 59 -23.5t22 -57.5t-22 -57.5t-59 -23.5q-38 0 -60 23z" />
    <glyph glyph-name="comma.ss02" horiz-adv-x="219" 
d="M36 -79q40 6 62.5 25.5t22.5 51.5q-12 -3 -23 -3q-31 0 -51 20.5t-20 55.5q0 38 22 61t58 23q41 0 63 -31t22 -84q0 -71 -40 -122t-116 -60v63z" />
    <glyph glyph-name="colon.ss02" horiz-adv-x="243" 
d="M62 328q-22 23 -22 58q0 34 22 57.5t60 23.5q37 0 59 -23.5t22 -57.5t-22 -57.5t-59 -23.5q-38 0 -60 23zM62 18q-22 23 -22 58q0 34 22 57.5t60 23.5q37 0 59 -23.5t22 -57.5t-22 -57.5t-59 -23.5q-38 0 -60 23z" />
    <glyph glyph-name="semicolon.ss02" horiz-adv-x="243" 
d="M62 328q-22 23 -22 58q0 34 22 57.5t60 23.5q37 0 59 -23.5t22 -57.5t-22 -57.5t-59 -23.5q-38 0 -60 23zM48 -79q40 6 62.5 25.5t22.5 51.5q-12 -3 -23 -3q-31 0 -51 20.5t-20 55.5q0 38 22 61t58 23q41 0 63 -31t22 -84q0 -71 -40 -122t-116 -60v63z" />
    <glyph glyph-name="ellipsis.ss02" horiz-adv-x="637" 
d="M47 18q-22 23 -22 58q0 34 22 57.5t60 23.5q37 0 59 -23.5t22 -57.5t-22 -57.5t-59 -23.5q-38 0 -60 23zM259 18q-22 23 -22 58q0 34 22 57.5t60 23.5q37 0 59 -23.5t22 -57.5t-22 -57.5t-59 -23.5q-38 0 -60 23zM471 18q-22 23 -22 58q0 34 22 57.5t60 23.5
q37 0 59 -23.5t22 -57.5t-22 -57.5t-59 -23.5q-38 0 -60 23z" />
    <glyph glyph-name="exclam.ss02" horiz-adv-x="252" 
d="M166 234h-80l-45 325v156h170v-156zM68 18q-22 23 -22 58q0 34 22 57.5t60 23.5q37 0 59 -23.5t22 -57.5t-22 -57.5t-59 -23.5q-38 0 -60 23z" />
    <glyph glyph-name="exclamdown.ss02" horiz-adv-x="251" 
d="M66 450q-22 23 -22 58q0 34 22 57.5t60 23.5q37 0 59 -23.5t22 -57.5t-22 -57.5t-59 -23.5q-38 0 -60 23zM210 -130h-170v156l45 325h80l45 -325v-156z" />
    <glyph glyph-name="question.ss02" horiz-adv-x="538" 
d="M184 234q0 65 6 95t24 50.5t64 54.5q44 32 58.5 50.5t14.5 48.5q0 26 -17.5 43.5t-56.5 17.5q-47 0 -70.5 -29.5t-23.5 -86.5h-170q0 72 30.5 129t91 90.5t147.5 33.5q69 0 123.5 -24.5t85 -68.5t30.5 -101q0 -58 -27 -97.5t-82 -70.5q-38 -21 -58 -37.5t-29 -39
t-9 -58.5h-132zM192 18q-22 23 -22 58q0 34 22 57.5t60 23.5q37 0 59 -23.5t22 -57.5t-22 -57.5t-59 -23.5q-38 0 -60 23z" />
    <glyph glyph-name="questiondown.ss02" horiz-adv-x="539" 
d="M228 450q-22 23 -22 58q0 34 22 57.5t60 23.5q37 0 59 -23.5t22 -57.5t-22 -57.5t-59 -23.5q-38 0 -60 23zM132.5 -119.5q-54.5 24.5 -85 68.5t-30.5 101q0 58 27 97.5t82 70.5q38 21 58 37.5t29 39t9 58.5h132q0 -65 -6 -95t-24 -50.5t-64 -54.5q-44 -32 -58.5 -50.5
t-14.5 -48.5q0 -26 17.5 -43.5t56.5 -17.5q47 0 70.5 29.5t23.5 86.5h170q0 -72 -30.5 -129t-91 -90.5t-147.5 -33.5q-69 0 -123.5 24.5z" />
    <glyph glyph-name="periodcentered.ss02" horiz-adv-x="223" 
d="M52 192q-22 23 -22 58q0 34 22 57.5t60 23.5q37 0 59 -23.5t22 -57.5t-22 -57.5t-59 -23.5q-38 0 -60 23z" />
    <glyph glyph-name="bullet.ss02" horiz-adv-x="400" 
d="M98 194q-40 40 -40 102t40 102t102 40t102 -40t40 -102t-40 -102t-102 -40t-102 40z" />
    <glyph glyph-name="periodcentered.case.ss02" horiz-adv-x="235" 
d="M58 300q-22 23 -22 58q0 34 22 57.5t60 23.5q37 0 59 -23.5t22 -57.5t-22 -57.5t-59 -23.5q-38 0 -60 23z" />
    <glyph glyph-name="bullet.case.ss02" horiz-adv-x="398" 
d="M97 254q-40 40 -40 102t40 102t102 40t102 -40t40 -102t-40 -102t-102 -40t-102 40z" />
    <glyph glyph-name="hyphen.case" horiz-adv-x="360" 
d="M316 289h-272v137h272v-137z" />
    <glyph glyph-name="uni00AD.case" horiz-adv-x="360" 
d="M316 290h-272v137h272v-137z" />
    <glyph glyph-name="endash.case" horiz-adv-x="588" 
d="M544 289h-500v137h500v-137z" />
    <glyph glyph-name="emdash.case" horiz-adv-x="1088" 
d="M1044 290h-1000v137h1000v-137z" />
    <glyph glyph-name="parenleft.case" horiz-adv-x="317" 
d="M159 -95q-53 85 -90 206.5t-37 247.5q0 130 36.5 248.5t90.5 204.5h140q-45 -102 -71 -213t-26 -240q0 -233 97 -454h-140z" />
    <glyph glyph-name="parenright.case" horiz-adv-x="317" 
d="M18 -95q45 102 71 213t26 240q0 233 -97 454h140q53 -85 90 -206.5t37 -247.5q0 -130 -36.5 -248.5t-90.5 -204.5h-140z" />
    <glyph glyph-name="braceleft.case" horiz-adv-x="395" 
d="M338 -95q-86 0 -138 15.5t-79.5 58t-27.5 124.5v122q0 37 -13.5 50.5t-54.5 13.5v138q41 -1 54.5 12.5t13.5 52.5v126q0 81 27.5 123t79 56.5t138.5 14.5h27v-137h-27q-75 0 -75 -93v-116q0 -42 -16.5 -67t-53.5 -40v-2q37 -15 53.5 -40t16.5 -68v-110q0 -97 75 -97h27
v-137h-27z" />
    <glyph glyph-name="braceright.case" horiz-adv-x="395" 
d="M30 -95v137h27q75 0 75 93v116q0 42 16.5 67t53.5 40v2q-37 15 -53.5 40t-16.5 68v110q0 97 -75 97h-27v137h27q86 0 138 -15.5t79.5 -58t27.5 -124.5v-122q0 -37 13.5 -50.5t54.5 -13.5v-138q-41 1 -54.5 -12.5t-13.5 -52.5v-126q0 -81 -27.5 -123t-79 -56.5
t-138.5 -14.5h-27z" />
    <glyph glyph-name="bracketleft.case" horiz-adv-x="389" 
d="M367 -95h-307v907h307v-137h-137v-633h137v-137z" />
    <glyph glyph-name="bracketright.case" horiz-adv-x="389" 
d="M329 -95h-307v137h137v633h-137v137h307v-907z" />
    <glyph glyph-name="guillemotleft.case" horiz-adv-x="506" 
d="M237 275v-150l-188 154v157l188 155v-154l-112 -79v-2zM447 275v-150l-188 154v157l188 155v-154l-112 -79v-2z" />
    <glyph glyph-name="guillemotright.case" horiz-adv-x="506" 
d="M247 280l-188 -155v154l112 79v2l-112 81v150l188 -154v-157zM457 280l-188 -155v154l112 79v2l-112 81v150l188 -154v-157z" />
    <glyph glyph-name="guilsinglleft.case" horiz-adv-x="307" 
d="M248 281v-156l-199 154v157l199 154v-156l-111 -75v-3z" />
    <glyph glyph-name="guilsinglright.case" horiz-adv-x="307" 
d="M258 279l-199 -154v156l111 75v3l-111 75v156l199 -154v-157z" />
    <glyph glyph-name="quotesinglbase.ss02" horiz-adv-x="219" 
d="M36 -79q40 6 62.5 25.5t22.5 51.5q-12 -3 -23 -3q-31 0 -51 20.5t-20 55.5q0 38 22 61t58 23q41 0 63 -31t22 -84q0 -71 -40 -122t-116 -60v63z" />
    <glyph glyph-name="quotedblbase.ss02" horiz-adv-x="419" 
d="M236 -79q40 6 62.5 25.5t22.5 51.5q-12 -3 -23 -3q-31 0 -51 20.5t-20 55.5q0 38 22 61t58 23q41 0 63 -31t22 -84q0 -71 -40 -122t-116 -60v63zM36 -79q40 6 62.5 25.5t22.5 51.5q-12 -3 -23 -3q-31 0 -51 20.5t-20 55.5q0 38 22 61t58 23q41 0 63 -31t22 -84
q0 -71 -40 -122t-116 -60v63z" />
    <glyph glyph-name="quotedblleft.ss02" horiz-adv-x="433" 
d="M47.5 429.5q-24.5 33.5 -24.5 91.5q0 76 44 132t128 65v-68q-44 -7 -69 -28t-25 -56q14 3 26 3q35 0 56.5 -22t21.5 -60q0 -41 -24.5 -66t-63.5 -25q-45 0 -69.5 33.5zM247.5 429.5q-24.5 33.5 -24.5 91.5q0 76 44 132t128 65v-68q-44 -7 -69 -28t-25 -56q14 3 26 3
q35 0 56.5 -22t21.5 -60q0 -41 -24.5 -66t-63.5 -25q-45 0 -69.5 33.5z" />
    <glyph glyph-name="quotedblright.ss02" horiz-adv-x="433" 
d="M41 464q44 7 69 28t25 56q-13 -3 -26 -3q-35 0 -56.5 22t-21.5 60q0 41 24.5 66t63.5 25q45 0 69.5 -33.5t24.5 -91.5q0 -76 -44 -132t-128 -65v68zM240 464q44 7 69 28t25 56q-13 -3 -26 -3q-35 0 -56.5 22t-21.5 60q0 41 24.5 66t63.5 25q45 0 69.5 -33.5t24.5 -91.5
q0 -76 -44 -132t-128 -65v68z" />
    <glyph glyph-name="quoteleft.ss02" horiz-adv-x="233" 
d="M47.5 429.5q-24.5 33.5 -24.5 91.5q0 76 44 132t128 65v-68q-44 -7 -69 -28t-25 -56q14 3 26 3q35 0 56.5 -22t21.5 -60q0 -41 -24.5 -66t-63.5 -25q-45 0 -69.5 33.5z" />
    <glyph glyph-name="quoteright.ss02" horiz-adv-x="234" 
d="M41 464q44 7 69 28t25 56q-13 -3 -26 -3q-35 0 -56.5 22t-21.5 60q0 41 24.5 66t63.5 25q45 0 69.5 -33.5t24.5 -91.5q0 -76 -44 -132t-128 -65v68z" />
    <glyph glyph-name="uni2219.ss02" horiz-adv-x="342" 
d="M111 293q-22 23 -22 58q0 34 22 57.5t60 23.5q37 0 59 -23.5t22 -57.5t-22 -57.5t-59 -23.5q-38 0 -60 23z" />
    <glyph glyph-name="divide.ss02" horiz-adv-x="574" 
d="M228 470q-22 23 -22 58q0 34 22 57.5t60 23.5q37 0 59 -23.5t22 -57.5t-22 -57.5t-59 -23.5q-38 0 -60 23zM228 71q-22 23 -22 58q0 34 22 57.5t60 23.5q37 0 59 -23.5t22 -57.5t-22 -57.5t-59 -23.5q-38 0 -60 23zM530 260h-486v138h486v-138z" />
    <glyph glyph-name="brevecombcy" 
d="M86.5 604.5q-44.5 41.5 -46.5 110.5h92q2 -25 19.5 -39.5t48.5 -14.5t48.5 14.5t19.5 39.5h92q-3 -68 -47 -110t-113 -42t-113.5 41.5z" />
    <glyph glyph-name="uni030C.alt" 
d="M150 509h-110l25 206h170z" />
    <glyph glyph-name="uni0308.ss02" 
d="M77.5 590q-20.5 22 -20.5 54t21 54t56 22t55.5 -22t20.5 -54t-20.5 -54t-55.5 -22q-36 0 -56.5 22zM272.5 590q-20.5 22 -20.5 54t21 54t56 22t55.5 -22t20.5 -54t-20.5 -54t-55.5 -22q-36 0 -56.5 22z" />
    <glyph glyph-name="uni0307.ss02" 
d="M61 583.5q-21 22.5 -21 56.5t21.5 57t58.5 23t58.5 -23t21.5 -57t-21.5 -56.5t-58.5 -22.5q-38 0 -59 22.5z" />
    <glyph glyph-name="uni0312.ss02" 
d="M61 594.5q-21 25.5 -21 65.5q0 51 35.5 85t106.5 40v-46q-36 -5 -57 -19t-21 -37q16 2 22 2q30 0 47 -15t17 -42t-18.5 -43t-49.5 -16q-40 0 -61 25.5z" />
    <glyph glyph-name="uni0326.ss02" 
d="M41 -234q40 5 63.5 19t23.5 38q-16 -2 -23 -2q-32 0 -52.5 17.5t-20.5 48.5t22.5 49.5t58.5 18.5q42 0 64.5 -25t22.5 -68q0 -57 -40.5 -98.5t-118.5 -48.5v51z" />
    <glyph glyph-name="dieresis.ss02" horiz-adv-x="462" 
d="M64.5 590q-23.5 22 -23.5 54q0 31 23.5 53.5t63.5 22.5q38 0 61.5 -22.5t23.5 -53.5q0 -32 -23 -54t-62 -22q-40 0 -63.5 22zM272.5 590q-23.5 22 -23.5 54q0 31 23.5 53.5t63.5 22.5q38 0 61.5 -22.5t23.5 -53.5q0 -32 -23 -54t-62 -22q-40 0 -63.5 22z" />
    <glyph glyph-name="dotaccent.ss02" 
d="M61 583.5q-21 22.5 -21 56.5t21.5 57t58.5 23t58.5 -23t21.5 -57t-21.5 -56.5t-58.5 -22.5q-38 0 -59 22.5z" />
    <glyph glyph-name="logo" horiz-adv-x="710" 
d="M658 322q13 -24 13 -50q0 -44 -31 -75t-75 -31q-3 0 -8 0.5t-8 -0.5l1 -15q2 -26 -12 -50.5t-39 -40t-55 -15.5q-27 0 -50.5 13t-38.5 35q-15 -22 -38.5 -35t-50.5 -13q-30 0 -55 15.5t-39 40t-12 50.5l1 15q-3 1 -8 0.5t-8 -0.5q-44 0 -75 31t-31 75q0 26 13 50t35 38
q-22 14 -35 38t-13 50q0 44 31 75t75 31q3 0 8 -0.5t8 0.5l-1 15q-2 26 12 50.5t39 40t55 15.5q27 0 50.5 -13t38.5 -35q15 22 38.5 35t50.5 13q30 0 55 -15.5t39 -40t12 -50.5l-1 -15q3 -1 8 -0.5t8 0.5q44 0 75 -31t31 -75q0 -26 -13 -50t-35 -38q22 -14 35 -38zM91.5 397
q19.5 -21 47.5 -21h162q15 0 26 11t11 26v162q0 28 -21.5 47.5t-49.5 19.5q-19 0 -35.5 -10t-26.5 -27q-9 -15 -9 -34q0 -17 9 -34q11 -18 23 -25q8 2 13 2q17 0 29 -12.5t12 -29.5t-12 -29t-29 -12t-29.5 12t-12.5 29q0 2 3 14q-10 15 -25.5 23.5t-33.5 8.5q-29 0 -50 -21
t-21 -50t19.5 -50zM372 413q0 -15 11 -26t26 -11h162q28 0 47.5 21t19.5 50t-21 50t-50 21q-18 0 -33.5 -8.5t-25.5 -23.5q3 -12 3 -14q0 -17 -12.5 -29t-29.5 -12t-29 12t-12 29t12 29.5t29 12.5q5 0 13 -2q12 8 23 25q9 17 9 34q0 19 -9 34q-10 17 -26.5 27t-35.5 10
q-28 0 -49.5 -19.5t-21.5 -47.5v-162zM338 307q0 15 -11 26t-26 11h-162q-28 0 -47.5 -21t-19.5 -50t21 -50t50 -21q18 0 33.5 8.5t25.5 23.5q-3 12 -3 14q0 17 12.5 29t29.5 12t29 -12t12 -29t-12 -29.5t-29 -12.5q-5 0 -13 2q-12 -7 -23 -25q-9 -16 -9 -34q0 -19 9 -34
q10 -17 26.5 -27t35.5 -10q28 0 49.5 19.5t21.5 47.5v162zM617 223q21 21 21 50t-19.5 50t-47.5 21h-162q-15 0 -26 -11t-11 -26v-162q0 -28 21.5 -47.5t49.5 -19.5q19 0 35.5 10t26.5 27q9 15 9 34q0 18 -9 34q-11 17 -23 25q-8 -2 -13 -2q-17 0 -29 12.5t-12 29.5t12 29
t29 12t29.5 -12t12.5 -29q0 -2 -3 -14q10 -15 25.5 -23.5t33.5 -8.5q29 0 50 21z" />
    <glyph glyph-name="smallLogo" horiz-adv-x="458" 
d="M411 523.5q8 -14.5 8 -30.5q0 -27 -19 -45t-54 -18q1 -32 -17 -52.5t-46 -20.5q-16 0 -30.5 7.5t-23.5 21.5q-9 -14 -23.5 -21.5t-30.5 -7.5q-28 0 -46 20.5t-17 52.5q-35 0 -54 18t-19 45q0 16 8 30.5t21 22.5q-13 8 -21 22.5t-8 30.5q0 27 19 45t54 18q-1 32 17 52.5
t46 20.5q16 0 30.5 -7.5t23.5 -21.5q9 14 23.5 21.5t30.5 7.5q28 0 46 -20.5t17 -52.5q35 0 54 -18t19 -45q0 -16 -8 -30.5t-21 -22.5q13 -8 21 -22.5zM70.5 568.5q11.5 -12.5 28.5 -12.5h97q9 0 15.5 6.5t6.5 15.5v97q0 17 -12.5 28.5t-29.5 11.5q-12 0 -22 -6t-15 -16
q-6 -12 -6 -20q0 -10 6 -21q5 -9 13 -15q3 1 8 1q10 0 17.5 -7.5t7.5 -17.5t-7.5 -17t-17.5 -7t-17.5 7t-7.5 17q0 3 2 9q-13 19 -36 19q-17 0 -29.5 -12.5t-12.5 -30.5q0 -17 11.5 -29.5zM240 578q0 -9 6.5 -15.5t15.5 -6.5h97q17 0 28.5 12.5t11.5 29.5q0 18 -12.5 30.5
t-29.5 12.5q-23 0 -36 -19q2 -6 2 -9q0 -10 -7.5 -17t-17.5 -7t-17.5 7t-7.5 17t7.5 17.5t17.5 7.5q5 0 8 -1q8 5 13 15q6 11 6 21q0 11 -6 20q-15 22 -37 22q-17 0 -29.5 -11.5t-12.5 -28.5v-97zM218 514q0 9 -6.5 15.5t-15.5 6.5h-97q-17 0 -28.5 -12.5t-11.5 -29.5
q0 -18 12.5 -30.5t29.5 -12.5q23 0 36 19q-2 6 -2 9q0 10 7.5 17t17.5 7t17.5 -7t7.5 -17t-7.5 -17.5t-17.5 -7.5q-5 0 -8 1q-8 -5 -13 -15q-6 -10 -6 -21t6 -20q15 -22 37 -22q17 0 29.5 11.5t12.5 28.5v97zM386.5 463.5q12.5 12.5 12.5 30.5q0 17 -11.5 29.5t-28.5 12.5
h-97q-9 0 -15.5 -6.5t-6.5 -15.5v-97q0 -17 12.5 -28.5t29.5 -11.5q12 0 22 6t15 16q6 12 6 20q0 11 -6 21q-5 10 -13 15q-3 -1 -8 -1q-10 0 -17.5 7.5t-7.5 17.5t7.5 17t17.5 7t17.5 -7t7.5 -17q0 -3 -2 -9q13 -19 36 -19q17 0 29.5 12.5z" />
    <glyph glyph-name="topLogoCircle" horiz-adv-x="574" 
d="M164 275q-56 32 -88.5 87.5t-32.5 124.5t32.5 124.5t88.5 87.5t123 32t123 -32t88.5 -87.5t32.5 -124.5t-32.5 -124.5t-88.5 -87.5t-123 -32t-123 32z" />
    </font>
</defs>
</svg>
