<?xml version="1.0" standalone="no"?>
<!DOCTYPE svg PUBLIC "-//W3C//DTD SVG 1.1//EN" "http://www.w3.org/Graphics/SVG/1.1/DTD/svg11.dtd" >
<svg xmlns="http://www.w3.org/2000/svg" xmlns:xlink="http://www.w3.org/1999/xlink" version="1.1">
<metadata>
Created by FontForge 20201107 at Mon Sep  5 16:39:30 2022
 By 
Copyright by Pangram Pangram Foundry. All rights reserved.
</metadata>
<defs>
<font id="PPNeueMontreal-ThinItalic" horiz-adv-x="0" >
  <font-face 
    font-family="PP Neue Montreal Thin"
    font-weight="100"
    font-style="italic"
    font-stretch="normal"
    units-per-em="1000"
    panose-1="0 0 2 0 0 0 0 0 0 0"
    ascent="800"
    descent="-200"
    x-height="510"
    cap-height="715"
    bbox="-215 -208 2052 930"
    underline-thickness="24"
    underline-position="-30"
    slope="-11"
    unicode-range="U+000D-1F150"
  />
<missing-glyph horiz-adv-x="662" 
 />
    <glyph glyph-name="f_f" unicode="ff" horiz-adv-x="446" 
d="M40 0l94 484h-72l5 26h72l17 89q14 71 42 96.5t83 25.5q17 0 40 -3l-5 -25q-26 2 -36 2q-30 0 -47.5 -8t-28.5 -29.5t-19 -63.5l-16 -84h184l17 89q14 71 42 96.5t83 25.5q18 0 40 -3l-5 -25q-26 2 -36 2q-30 0 -47.5 -8t-28.5 -29.5t-19 -63.5l-16 -84h112l-5 -26h-112
l-94 -484h-30l94 484h-184l-94 -484h-30z" />
    <glyph glyph-name="f_f_i" unicode="ffi" horiz-adv-x="608" 
d="M40 0l94 484h-72l5 26h72l17 89q14 71 42 96.5t83 25.5q17 0 40 -3l-5 -25q-26 2 -36 2q-30 0 -47.5 -8t-28.5 -29.5t-19 -63.5l-16 -84h184l17 89q14 71 42 96.5t83 25.5q18 0 40 -3l-5 -25q-26 2 -36 2q-30 0 -47.5 -8t-28.5 -29.5t-19 -63.5l-16 -84h112l-5 -26h-112
l-94 -484h-30l94 484h-184l-94 -484h-30zM492 0h-30l99 510h30zM625 618h-56l11 55h56z" />
    <glyph glyph-name="f_i" unicode="fi" horiz-adv-x="395" 
d="M232.5 687q-17.5 -8 -28.5 -29.5t-19 -63.5l-16 -84h112l-5 -26h-112l-94 -484h-30l94 484h-72l5 26h72l17 89q14 71 42 96.5t83 25.5q17 0 40 -3l-5 -25q-26 2 -36 2q-30 0 -47.5 -8zM279 0h-30l99 510h30zM412 618h-56l11 55h56z" />
    <glyph glyph-name="f_l" unicode="fl" horiz-adv-x="394" 
d="M232.5 687q-17.5 -8 -28.5 -29.5t-19 -63.5l-16 -84h112l-5 -26h-112l-94 -484h-30l94 484h-72l5 26h72l17 89q14 71 42 96.5t83 25.5q17 0 40 -3l-5 -25q-26 2 -36 2q-30 0 -47.5 -8zM278 0h-30l139 715h30z" />
    <glyph glyph-name=".notdef" horiz-adv-x="662" 
 />
    <glyph glyph-name=".null" 
 />
    <glyph glyph-name="nonmarkingreturn" unicode="&#xd;" horiz-adv-x="230" 
 />
    <glyph glyph-name="space" unicode=" " horiz-adv-x="230" 
 />
    <glyph glyph-name="exclam" unicode="!" horiz-adv-x="191" 
d="M91 184h-20l46 289l47 242h40l-47 -242zM73 0h-56l11 55h56z" />
    <glyph glyph-name="quotedbl" unicode="&#x22;" horiz-adv-x="262" 
d="M131 494h-28l40 221h34zM248 494h-28l40 221h34z" />
    <glyph glyph-name="numbersign" unicode="#" horiz-adv-x="553" 
d="M556 469l-11 -28h-112l-69 -185h116l-10 -28h-117l-85 -228h-32l85 228h-158l-85 -228h-32l85 228h-93l10 28h94l69 185h-100l11 28h100l80 215h32l-80 -215h158l80 215h32l-80 -215h112zM174 256h158l69 185h-158z" />
    <glyph glyph-name="dollar" unicode="$" horiz-adv-x="559" 
d="M505 490l1 18q0 63 -33 101.5t-93 50.5l-57 -294q70 -31 110 -56t61 -57t21 -79q0 -87 -67.5 -134.5t-173.5 -47.5q-16 0 -24 1l-18 -93h-32l19 96q-88 13 -143 65t-55 137q0 15 1 23h31q-1 -7 -1 -20q0 -76 47.5 -122t124.5 -58l64 330q-5 1 -13 5q-93 42 -133.5 80
t-40.5 98q0 80 65 119t156 39q21 0 32 -1l15 79h32l-16 -84q70 -14 110.5 -58t40.5 -114q0 -16 -1 -24h-30zM348 664q-8 1 -27 1q-81 0 -134.5 -32t-53.5 -100q0 -38 17.5 -64t50 -45t92.5 -45zM466.5 240q-16.5 26 -50.5 47t-99 50l-62 -319h17q90 0 150.5 38.5t60.5 117.5
q0 40 -16.5 66z" />
    <glyph glyph-name="percent" unicode="%" horiz-adv-x="714" 
d="M96 358.5q-28 37.5 -28 100.5q0 61 24.5 114t67 84.5t92.5 31.5q54 0 81.5 -37.5t27.5 -100.5q0 -61 -24 -114t-66 -84.5t-92 -31.5q-55 0 -83 37.5zM127 0h-35l530 685h35zM260 376q34 28 52.5 74.5t18.5 100.5q0 111 -83 111q-43 0 -77 -28t-53.5 -74.5t-19.5 -101.5
q0 -110 84 -110q44 0 78 28zM412.5 26.5q-27.5 37.5 -27.5 100.5q0 61 24 114t66 84.5t92 31.5q55 0 83 -37.5t28 -100.5q0 -61 -24.5 -114t-67 -84.5t-92.5 -31.5q-54 0 -81.5 37.5zM575 44q34 28 53.5 74.5t19.5 101.5q0 110 -84 110q-44 0 -78 -28t-52.5 -74.5
t-18.5 -100.5q0 -111 83 -111q43 0 77 28z" />
    <glyph glyph-name="ampersand" unicode="&#x26;" horiz-adv-x="565" 
d="M531 328q-12 -48 -35 -98.5t-55 -94.5l81 -135h-36l-65 109q-47 -55 -105 -87.5t-125 -32.5q-79 0 -125.5 43.5t-46.5 117.5q0 66 34 115.5t80 81t109 63.5q-32 52 -46 85.5t-14 69.5q0 45 23 81.5t63 58t90 21.5q60 0 92 -31.5t32 -80.5q0 -64 -50.5 -111t-151.5 -100
l145 -242q51 75 74 167h32zM252 661q-40 -37 -40 -96q0 -34 13 -63t42 -78q94 50 138.5 93t44.5 94q0 40 -25.5 63.5t-72.5 23.5q-60 0 -100 -37zM308 48.5q55 31.5 98 86.5l-145 243l-7 11q-64 -34 -105.5 -63t-69 -71.5t-27.5 -100.5q0 -66 37.5 -101.5t103.5 -35.5
q60 0 115 31.5z" />
    <glyph glyph-name="quotesingle" unicode="'" horiz-adv-x="145" 
d="M131 494h-28l40 221h34z" />
    <glyph glyph-name="parenleft" unicode="(" horiz-adv-x="219" 
d="M94 -117q-25 58 -40.5 129.5t-15.5 151.5q0 170 67.5 325t157.5 266h32q-79 -100 -152.5 -250t-73.5 -342q0 -77 15 -145t42 -135h-32z" />
    <glyph glyph-name="parenright" unicode=")" horiz-adv-x="219" 
d="M-52 -117q79 100 152.5 250t73.5 342q0 77 -15 145t-42 135h32q25 -58 40.5 -129.5t15.5 -151.5q0 -170 -67.5 -325t-157.5 -266h-32z" />
    <glyph glyph-name="asterisk" unicode="*" horiz-adv-x="415" 
d="M259 527l-118 -123l-19 16l117 118l-135 52l12 20l136 -50l29 155h27l-30 -156l153 51l6 -21l-154 -52l71 -118l-22 -15z" />
    <glyph glyph-name="plus" unicode="+" horiz-adv-x="526" 
d="M251 109h-32l40 203h-193l5 28h193l39 202h32l-41 -202h193l-5 -28h-193z" />
    <glyph glyph-name="comma" unicode="," horiz-adv-x="151" 
d="M-14 -79q19 7 28 24.5t16 54.5h-30l11 56h56l-11 -56q-9 -46 -23 -69.5t-53 -36.5z" />
    <glyph glyph-name="hyphen" unicode="-" horiz-adv-x="348" 
d="M304 241h-267l5 28h267z" />
    <glyph glyph-name="period" unicode="." horiz-adv-x="164" 
d="M64 0h-56l11 55h56z" />
    <glyph glyph-name="slash" unicode="/" horiz-adv-x="366" 
d="M3 0h-33l431 715h32z" />
    <glyph glyph-name="zero" unicode="0" horiz-adv-x="598" 
d="M104.5 53.5q-47.5 64.5 -47.5 173.5q0 117 41 227t115.5 179t171.5 69q96 0 143 -64.5t47 -173.5q0 -117 -41 -227t-115.5 -179t-170.5 -69t-143.5 64.5zM403 83.5q67 66.5 104 170t37 208.5q0 97 -40.5 154.5t-121.5 57.5q-86 0 -153 -66.5t-104 -170t-37 -208.5
q0 -97 40.5 -154.5t121.5 -57.5q86 0 153 66.5z" />
    <glyph glyph-name="one" unicode="1" horiz-adv-x="276" 
d="M221 586q-29 -39 -66.5 -51t-94.5 -12l5 28q79 0 121 34.5t56 105.5h32l-135 -691h-32z" />
    <glyph glyph-name="two" unicode="2" horiz-adv-x="525" 
d="M-11 0q19 97 83.5 166t169.5 119q95 46 142.5 74t82 73t34.5 109q0 58 -38 95.5t-106 37.5q-57 0 -104.5 -26.5t-79 -71t-42.5 -97.5h-32q11 59 45.5 110t89 82t123.5 31q78 0 127.5 -44t49.5 -116q0 -67 -31 -114.5t-79.5 -80t-124.5 -69.5q-78 -37 -124 -65t-86.5 -73
t-59.5 -110v-2h408l-5 -28h-443z" />
    <glyph glyph-name="three" unicode="3" horiz-adv-x="559" 
d="M88 41q-61 52 -61 140q0 13 4 43h32q-4 -20 -4 -42q0 -75 52 -120t139 -45q61 0 110 23.5t77 65t28 95.5q0 47 -21 80t-54.5 49.5t-69.5 16.5h-75l6 28h71q49 0 91 22.5t66 60t24 80.5q0 57 -41.5 96.5t-118.5 39.5q-89 0 -141.5 -52.5t-66.5 -127.5h-32q18 93 81 150.5
t157 57.5q55 0 99 -20.5t69.5 -57t25.5 -84.5q0 -62 -41 -110.5t-106 -67.5v-2q52 -17 80.5 -58t28.5 -100q0 -62 -32 -110.5t-88 -75.5t-127 -27q-101 0 -162 52z" />
    <glyph glyph-name="four" unicode="4" horiz-adv-x="532" 
d="M357 0h-32l35 182h-349l5 28l443 481h32l-94 -481h105l-5 -28h-105zM449 640l-396 -430h312z" />
    <glyph glyph-name="five" unicode="5" horiz-adv-x="528" 
d="M72.5 31.5q-50.5 42.5 -50.5 115.5q0 18 3 37h32q-3 -18 -3 -34q0 -63 40 -98t115 -35q74 0 129 33.5t84 89t29 119.5q0 78 -41.5 116t-109.5 38q-62 0 -116.5 -27.5t-82.5 -63.5h-35l146 369h323l-5 -28h-298l-114 -286l3 -3q38 35 86.5 51t93.5 16q92 0 137 -49.5
t45 -132.5q0 -75 -35 -136.5t-97.5 -97.5t-141.5 -36q-86 0 -136.5 42.5z" />
    <glyph glyph-name="six" unicode="6" horiz-adv-x="565" 
d="M103 43.5q-48 54.5 -48 157.5q0 137 43.5 252t120.5 182t172 67q72 0 116.5 -39.5t44.5 -109.5q0 -9 -2 -27h-32q1 8 1 23q0 58 -35.5 91.5t-93.5 33.5q-75 0 -135.5 -48t-100.5 -125.5t-56 -166.5l-12 -69l2 -1q34 87 102.5 133.5t145.5 46.5q85 0 133 -47t48 -125
q0 -77 -36.5 -142t-99.5 -103t-137 -38q-93 0 -141 54.5zM366 50.5q54 33.5 85 91.5t31 127q0 68 -39 107.5t-112 39.5q-62 0 -117.5 -34.5t-89 -92t-33.5 -122.5q0 -63 40 -106.5t116 -43.5q65 0 119 33.5z" />
    <glyph glyph-name="seven" unicode="7" horiz-adv-x="474" 
d="M80 0q35 181 130 359.5t274 303.5v1h-406l5 27h450l-4 -24q-168 -111 -271.5 -283t-145.5 -384h-32z" />
    <glyph glyph-name="eight" unicode="8" horiz-adv-x="572" 
d="M88.5 32.5q-58.5 43.5 -58.5 123.5q0 73 50.5 134t136.5 88v2q-89 38 -89 126q0 53 32 98t88 71.5t124 26.5q79 0 128.5 -37t49.5 -103q0 -61 -39 -110t-110 -76v-2q54 -17 84.5 -54.5t30.5 -92.5q0 -63 -38.5 -118t-103.5 -87.5t-140 -32.5q-87 0 -145.5 43.5zM416 413
q47 22 73.5 60t26.5 84q0 57 -40.5 87t-107.5 30q-58 0 -105 -22t-74 -60t-27 -83q0 -56 41 -87t108 -31q58 0 105 22zM358.5 45q56.5 28 90 75t33.5 101q0 66 -49.5 104t-126.5 38q-65 0 -121 -27.5t-88.5 -74t-32.5 -100.5q0 -67 48.5 -105.5t124.5 -38.5q65 0 121.5 28z
" />
    <glyph glyph-name="nine" unicode="9" horiz-adv-x="565" 
d="M91.5 28.5q-44.5 39.5 -44.5 109.5q0 9 2 27h32q-1 -8 -1 -23q0 -58 35.5 -91.5t93.5 -33.5q75 0 135.5 48t100.5 125.5t56 166.5l12 69l-2 1q-34 -87 -102.5 -133.5t-145.5 -46.5q-85 0 -133 47t-48 125q0 77 36.5 142t99.5 103t137 38q93 0 141 -54.5t48 -157.5
q0 -137 -43.5 -252t-120.5 -182t-172 -67q-72 0 -116.5 39.5zM385.5 309.5q55.5 34.5 89 92t33.5 122.5q0 63 -40 106.5t-116 43.5q-65 0 -119 -33.5t-85 -91.5t-31 -127q0 -68 39 -107.5t112 -39.5q62 0 117.5 34.5z" />
    <glyph glyph-name="colon" unicode=":" horiz-adv-x="175" 
d="M125 304h-56l11 55h56zM66 0h-56l11 55h56z" />
    <glyph glyph-name="semicolon" unicode=";" horiz-adv-x="173" 
d="M124 305h-56l11 55h56zM-6 -79q19 7 28 24.5t16 54.5h-30l11 56h56l-11 -56q-9 -46 -23 -69.5t-53 -36.5z" />
    <glyph glyph-name="less" unicode="&#x3c;" horiz-adv-x="501" 
d="M417 155l-6 -29l-359 167l8 40l423 165l-6 -35l-390 -152v-2z" />
    <glyph glyph-name="equal" unicode="=" horiz-adv-x="527" 
d="M466 241h-416l5 28h416zM496 382h-416l5 28h416z" />
    <glyph glyph-name="greater" unicode="&#x3e;" horiz-adv-x="499" 
d="M459 291l-423 -165l6 35l390 152v2l-330 154l6 29l359 -167z" />
    <glyph glyph-name="question" unicode="?" horiz-adv-x="445" 
d="M164 173q11 63 29 102.5t46.5 67t79.5 61.5q70 47 100 87t30 97q0 48 -33.5 78t-96.5 30q-84 0 -143.5 -51t-76.5 -135h-33q11 58 46 107.5t89 79t120 29.5q72 0 117.5 -37.5t45.5 -98.5q0 -47 -16.5 -81.5t-49 -64.5t-91.5 -70t-89.5 -84t-41.5 -117h-32zM181 0h-56
l11 55h56z" />
    <glyph glyph-name="at" unicode="@" horiz-adv-x="860" 
d="M688.5 674.5q70.5 -32.5 112.5 -97.5t42 -158q0 -83 -32.5 -159t-86 -123t-113.5 -47q-39 0 -60 20.5t-21 54.5q0 16 4 29q-32 -51 -75 -80.5t-96 -29.5q-62 0 -97 40.5t-35 111.5t34 136.5t91 105.5t121 40q56 0 86.5 -32.5t30.5 -90.5h1l34 114h28l-91 -283
q-9 -28 -9 -50q0 -28 15 -43t44 -15q50 0 95 43t72.5 112t27.5 142q0 85 -37.5 144.5t-102 89.5t-144.5 30q-120 0 -226 -65.5t-169.5 -174t-63.5 -229.5q0 -132 77 -206t213 -74q103 0 204 42l6 -25q-103 -45 -216 -45q-97 0 -168.5 36t-109.5 104.5t-38 163.5
q0 129 68.5 245t182.5 186t245 70q86 0 156.5 -32.5zM468 150q48 38 77 98.5t29 121.5q0 60 -27.5 90t-75.5 30q-54 0 -102 -35.5t-77 -93.5t-29 -121q0 -60 27 -94t77 -34q53 0 101 38z" />
    <glyph glyph-name="A" unicode="A" horiz-adv-x="613" 
d="M-2 0h-35l413 715h37l139 -715h-34l-44 243h-337zM388 679l-235 -408h316l-79 408h-2z" />
    <glyph glyph-name="B" unicode="B" horiz-adv-x="641" 
d="M33 0l139 715h267q88 0 137.5 -35.5t49.5 -101.5q0 -71 -40.5 -126t-112.5 -77v-2q56 -13 87 -48t31 -88q0 -70 -33.5 -123.5t-93.5 -83.5t-138 -30h-293zM409 389q50 0 92 24.5t66.5 66t24.5 91.5q0 54 -37.5 85t-109.5 31h-246l-58 -298h268zM328 28q68 0 120 26
t80.5 72.5t28.5 107.5q0 59 -40 93t-110 34h-272l-65 -333h258z" />
    <glyph glyph-name="C" unicode="C" horiz-adv-x="681" 
d="M123.5 63q-68.5 74 -68.5 207q0 119 54 224.5t147 168.5t204 63q109 0 169.5 -61t58.5 -161h-33q2 53 -18.5 97t-65.5 70.5t-111 26.5q-100 0 -185.5 -58.5t-136 -157t-50.5 -211.5q0 -119 58 -186.5t168 -67.5q74 0 135.5 31t103.5 83t61 115h34q-37 -116 -128 -186.5
t-209 -70.5q-119 0 -187.5 74z" />
    <glyph glyph-name="D" unicode="D" horiz-adv-x="682" 
d="M33 0l139 715h251q122 0 181.5 -70t59.5 -198q0 -121 -50 -223.5t-137.5 -163t-194.5 -60.5h-249zM281 28q97 0 177 57t126 153.5t46 211.5q0 117 -52 177t-156 60h-223l-129 -659h211z" />
    <glyph glyph-name="E" unicode="E" horiz-adv-x="581" 
d="M503 0h-470l139 715h460l-5 -28h-428l-57 -293h393l-6 -28h-393l-66 -338h438z" />
    <glyph glyph-name="F" unicode="F" horiz-adv-x="553" 
d="M65 0h-32l139 715h460l-5 -28h-428l-59 -300h368l-5 -28h-368z" />
    <glyph glyph-name="G" unicode="G" horiz-adv-x="721" 
d="M121 63q-66 74 -66 205q0 122 54.5 227.5t148.5 168t207 62.5q72 0 126.5 -26t84 -74.5t29.5 -114.5h-31q-1 85 -55 136t-155 51q-102 0 -188.5 -59t-136.5 -157.5t-50 -213.5q0 -116 56 -183.5t170 -67.5q84 0 153 37.5t116 107.5t65 164h-248l6 28h280l-69 -354h-26
l33 189h-2q-37 -88 -116.5 -144t-192.5 -56q-127 0 -193 74z" />
    <glyph glyph-name="H" unicode="H" horiz-adv-x="687" 
d="M65 0h-32l139 715h32l-62 -321h457l62 321h32l-139 -715h-32l71 366h-457z" />
    <glyph glyph-name="I" unicode="I" horiz-adv-x="198" 
d="M65 0h-32l139 715h32z" />
    <glyph glyph-name="J" unicode="J" horiz-adv-x="473" 
d="M41.5 28q-39.5 39 -39.5 105q0 28 5 49l6 29h32l-6 -29q-6 -27 -6 -50q0 -55 31 -85t89 -30q76 0 127.5 43t67.5 122l104 533h32l-104 -533q-17 -85 -75.5 -139t-149.5 -54q-74 0 -113.5 39z" />
    <glyph glyph-name="K" unicode="K" horiz-adv-x="604" 
d="M643 715h40l-352 -308l232 -407h-35l-221 386l-201 -177l-41 -209h-32l139 715h32l-90 -461z" />
    <glyph glyph-name="L" unicode="L" horiz-adv-x="537" 
d="M475 0h-442l139 715h32l-134 -687h410z" />
    <glyph glyph-name="M" unicode="M" horiz-adv-x="827" 
d="M65 0h-32l139 715h45l151 -676h2l414 676h49l-139 -715h-32l130 668h-2l-411 -668h-32l-150 668h-2z" />
    <glyph glyph-name="N" unicode="N" horiz-adv-x="694" 
d="M65 0h-32l139 715h37l325 -672h3l131 672h32l-139 -715h-37l-326 670h-3z" />
    <glyph glyph-name="O" unicode="O" horiz-adv-x="746" 
d="M178 23.5q-59 34.5 -91 98.5t-32 152q0 119 56 223t150.5 166.5t205.5 62.5q80 0 139.5 -34.5t91.5 -98.5t32 -152q0 -118 -56 -222.5t-151 -167t-206 -62.5q-80 0 -139 34.5zM505 75.5q87 58.5 139 156.5t52 208q0 121 -61 189.5t-170 68.5q-99 0 -185.5 -58
t-138.5 -155.5t-52 -208.5q0 -121 60.5 -190t169.5 -69q99 0 186 58.5z" />
    <glyph glyph-name="P" unicode="P" horiz-adv-x="592" 
d="M33 0l139 715h254q94 0 143 -39t49 -125q0 -71 -33 -126t-94 -85.5t-144 -30.5h-222l-60 -309h-32zM352 337q69 0 122 27t82 76t29 112q0 71 -38.5 103t-116.5 32h-231l-68 -350h221z" />
    <glyph glyph-name="Q" unicode="Q" horiz-adv-x="746" 
d="M680 229.5q-50 -99.5 -135 -162.5l77 -96l-23 -18l-78 98q-95 -62 -204 -62q-80 0 -139 34.5t-91 98.5t-32 152q0 119 56 223t150.5 166.5t205.5 62.5q80 0 139.5 -34.5t91.5 -98.5t32 -152q0 -112 -50 -211.5zM502 74l-78 98l22 18l80 -99q77 60 123.5 152.5t46.5 196.5
q0 121 -61 189.5t-170 68.5q-99 0 -185.5 -58t-138.5 -155.5t-52 -208.5q0 -121 60.5 -190t169.5 -69q96 0 183 57z" />
    <glyph glyph-name="R" unicode="R" horiz-adv-x="626" 
d="M33 0l139 715h263q90 0 140 -39.5t50 -117.5q0 -84 -53.5 -142t-142.5 -78v-2q64 -13 87.5 -59.5t23.5 -114.5q0 -37 -5 -77q-1 -10 -2 -22.5t-1 -25.5q0 -28 11 -31l-1 -6h-33q-7 6 -7 28q0 13 1 25.5t2 22.5q5 60 5 79q0 76 -31.5 122.5t-117.5 46.5h-233l-63 -324h-32
zM347 352q72 0 128 26.5t87 73t31 106.5q0 67 -40.5 98t-124.5 31h-229l-65 -335h213z" />
    <glyph glyph-name="S" unicode="S" horiz-adv-x="590" 
d="M160.5 13.5q-60.5 24.5 -96.5 73.5t-36 118q0 16 1 25h32q-1 -7 -1 -21q0 -62 31 -105.5t83.5 -65t117.5 -21.5q94 0 158 40.5t64 123.5q0 46 -21.5 75.5t-62.5 52.5t-135 64q-98 43 -140.5 83t-42.5 104q0 84 65 125t157 41q103 0 164.5 -49t61.5 -140q0 -16 -1 -24h-31
q6 92 -46 138.5t-149 46.5q-81 0 -134.5 -33.5t-53.5 -105.5q0 -43 20.5 -71t57.5 -48.5t110 -51.5q78 -33 122.5 -60.5t68 -63.5t23.5 -87q0 -90 -71 -139t-182 -49q-73 0 -133.5 24.5z" />
    <glyph glyph-name="T" unicode="T" horiz-adv-x="567" 
d="M249 0h-32l134 687h-255l5 28h542l-5 -28h-255z" />
    <glyph glyph-name="U" unicode="U" horiz-adv-x="668" 
d="M67 170q0 33 8 78l91 467h32l-91 -467q-9 -43 -9 -79q0 -77 44.5 -114.5t139.5 -37.5q114 0 183.5 57.5t91.5 173.5l91 467h32l-91 -467q-50 -259 -307 -259q-215 0 -215 181z" />
    <glyph glyph-name="V" unicode="V" horiz-adv-x="597" 
d="M261 0h-25l-135 715h35l121 -671h1l382 671h34z" />
    <glyph glyph-name="W" unicode="W" horiz-adv-x="836" 
d="M176 0h-37l-24 715h33l18 -670h2l317 670h38l60 -670h2l277 670h34l-302 -715h-35l-61 670h-2z" />
    <glyph glyph-name="X" unicode="X" horiz-adv-x="552" 
d="M-5 0h-42l325 370l-170 345h33l158 -320h1l283 320h41l-310 -350l187 -365h-32l-176 342h-1z" />
    <glyph glyph-name="Y" unicode="Y" horiz-adv-x="591" 
d="M261 0h-32l57 293l-181 422h35l166 -392h2l320 392h37l-347 -422z" />
    <glyph glyph-name="Z" unicode="Z" horiz-adv-x="554" 
d="M490 0h-528l5 28l606 657l1 2h-459l5 28h500l-5 -28l-607 -657l-1 -2h488z" />
    <glyph glyph-name="bracketleft" unicode="[" horiz-adv-x="229" 
d="M147 -117h-142l169 872h142l-5 -28h-110l-159 -816h110z" />
    <glyph glyph-name="backslash" unicode="\" horiz-adv-x="352" 
d="M289 0h-33l-152 715h32z" />
    <glyph glyph-name="bracketright" unicode="]" horiz-adv-x="229" 
d="M79 -117h-142l5 28h110l159 816h-110l5 28h142z" />
    <glyph glyph-name="asciicircum" unicode="^" horiz-adv-x="424" 
d="M107 440h-35l214 275h35l108 -275h-34l-94 247h-1z" />
    <glyph glyph-name="underscore" unicode="_" horiz-adv-x="517" 
d="M436 -126h-501l5 28h501z" />
    <glyph glyph-name="grave" unicode="`" horiz-adv-x="190" 
d="M180 598h-26l-64 127h45z" />
    <glyph glyph-name="a" unicode="a" horiz-adv-x="502" 
d="M47 19.5q-37 30.5 -37 89.5q0 51 28 80.5t69 42.5t108 26q66 13 106.5 25.5t68 39.5t27.5 74q0 50 -32 72.5t-91 22.5q-77 0 -121.5 -33t-59.5 -93h-32q16 64 67 108t146 44q73 0 112 -30.5t39 -90.5q0 -17 -5 -44l-49 -253q-6 -27 -6 -46q0 -17 8.5 -26t29.5 -9
q7 0 22 3l-5 -26q-13 -3 -26 -3q-59 0 -59 59q0 14 3 32h-2q-37 -47 -91 -71t-113 -24q-68 0 -105 30.5zM261.5 37.5q47.5 22.5 76.5 56t35 65.5l29 147q-26 -31 -68.5 -46.5t-118.5 -28.5q-60 -10 -94.5 -21t-57.5 -34.5t-23 -66.5q0 -94 115 -94q59 0 106.5 22.5z" />
    <glyph glyph-name="b" unicode="b" horiz-adv-x="550" 
d="M472 468.5q47 -53.5 47 -151.5q0 -87 -37 -161.5t-100.5 -118.5t-140.5 -44q-73 0 -114 39t-52 103h-3l-26 -135h-30l139 715h30l-65 -332h3q38 64 97 101.5t126 37.5q79 0 126 -53.5zM367.5 59q55.5 40 87.5 108t32 148q0 86 -37.5 133.5t-105.5 47.5q-65 0 -123.5 -42
t-94.5 -111.5t-36 -147.5q0 -82 41 -129t114 -47q67 0 122.5 40z" />
    <glyph glyph-name="c" unicode="c" horiz-adv-x="511" 
d="M82 45q-52 56 -52 156q0 87 38 160t104.5 115t148.5 42q89 0 135 -49.5t41 -125.5h-32q1 5 1 16q0 53 -35.5 93t-110.5 40q-71 0 -130.5 -38t-94.5 -104t-35 -146q0 -89 42.5 -139t124.5 -50q55 0 99 23t71 58t37 71h32q-13 -49 -47.5 -89.5t-85 -64.5t-109.5 -24
q-90 0 -142 56z" />
    <glyph glyph-name="d" unicode="d" horiz-adv-x="549" 
d="M542 715h30l-139 -715h-30l25 128h-2q-38 -64 -97 -101.5t-126 -37.5q-79 0 -126 53.5t-47 151.5q0 87 37 161.5t100.5 118.5t140.5 44q73 0 114 -39t52 -103h2zM309.5 44.5q50.5 29.5 87.5 81t52 113.5l7 33q3 23 3 44q0 82 -41 129t-114 47q-67 0 -122.5 -40
t-87.5 -108t-32 -148q0 -86 37.5 -133.5t105.5 -47.5q54 0 104.5 29.5z" />
    <glyph glyph-name="e" unicode="e" horiz-adv-x="519" 
d="M450.5 469q44.5 -49 44.5 -133q0 -32 -8 -74v-2h-419q-4 -27 -4 -61q0 -84 36 -134.5t117 -50.5q53 0 96.5 21.5t72 54t41.5 64.5h31q-31 -74 -95 -120t-147 -46q-89 0 -136.5 56.5t-47.5 154.5q0 88 37 161t102 115.5t147 42.5q88 0 132.5 -49zM461 286q4 32 4 49
q0 69 -35 113t-115 44q-91 0 -155 -56.5t-86 -149.5h387z" />
    <glyph glyph-name="f" unicode="f" horiz-adv-x="232" 
d="M232.5 687q-17.5 -8 -28.5 -29.5t-19 -63.5l-16 -84h112l-5 -26h-112l-94 -484h-30l94 484h-72l5 26h72l17 89q14 71 42 96.5t83 25.5q17 0 40 -3l-5 -25q-26 2 -36 2q-30 0 -47.5 -8z" />
    <glyph glyph-name="g" unicode="g" horiz-adv-x="546" 
d="M500 511h30l-94 -483q-20 -105 -88.5 -158t-170.5 -53q-62 0 -103.5 22t-61 57.5t-17.5 77.5h30q-2 -59 35.5 -95t118.5 -36q88 0 148 45t77 134l24 123h-2q-34 -56 -92.5 -90.5t-125.5 -34.5q-76 0 -125.5 47t-49.5 137q0 86 36.5 158t98.5 114t137 42q67 0 112.5 -34.5
t55.5 -93.5h3zM333.5 85q56.5 39 90.5 104.5t34 139.5q0 53 -21 89.5t-55.5 55t-74.5 18.5q-68 0 -123 -37.5t-87 -103t-32 -145.5q0 -81 38.5 -120.5t110.5 -39.5q63 0 119.5 39z" />
    <glyph glyph-name="h" unicode="h" horiz-adv-x="507" 
d="M432.5 488q36.5 -30 36.5 -89q0 -17 -5 -44l-69 -355h-30l67 347q5 27 5 45q0 100 -111 100q-52 0 -98 -23.5t-76.5 -59.5t-40.5 -72l-65 -337h-30l139 715h30l-59 -301h2q83 104 204 104q64 0 100.5 -30z" />
    <glyph glyph-name="i" unicode="i" horiz-adv-x="162" 
d="M46 0h-30l99 510h30zM179 618h-56l11 55h56z" />
    <glyph glyph-name="j" unicode="j" horiz-adv-x="162" 
d="M-104 -177l5 25q24 -2 32 -2q29 0 43.5 17t24.5 65l114 582h30l-113 -579q-12 -61 -36.5 -86t-60.5 -25q-18 0 -39 3zM179 618h-56l11 55h56z" />
    <glyph glyph-name="k" unicode="k" horiz-adv-x="446" 
d="M435 510h41l-240 -193l176 -317h-34l-164 300l-130 -105l-38 -195h-30l139 715h30l-93 -480z" />
    <glyph glyph-name="l" unicode="l" horiz-adv-x="162" 
d="M46 0h-30l139 715h30z" />
    <glyph glyph-name="m" unicode="m" horiz-adv-x="794" 
d="M724.5 489q31.5 -29 31.5 -84q0 -23 -4 -44l-70 -361h-30l70 361q4 19 4 42q0 89 -91 89q-53 0 -98 -26t-73.5 -63.5t-35.5 -72.5l-64 -330h-30l70 361q4 19 4 42q0 89 -94 89q-51 0 -94.5 -25t-72.5 -62.5t-36 -71.5l-65 -333h-30l99 510h30l-19 -96h2q29 45 79 74.5
t112 29.5q54 0 86.5 -28t33.5 -80h2q32 47 83 77.5t113 30.5q56 0 87.5 -29z" />
    <glyph glyph-name="n" unicode="n" horiz-adv-x="507" 
d="M432.5 488q36.5 -30 36.5 -89q0 -17 -5 -44l-69 -355h-30l67 347q5 27 5 45q0 100 -111 100q-53 0 -98.5 -24t-76.5 -60.5t-40 -72.5l-65 -335h-30l99 510h30l-19 -96h2q83 104 204 104q64 0 100.5 -30z" />
    <glyph glyph-name="o" unicode="o" horiz-adv-x="544" 
d="M79.5 42.5q-50.5 53.5 -50.5 149.5q0 85 37.5 160t104.5 120.5t153 45.5q88 0 138.5 -53.5t50.5 -149.5q0 -85 -37.5 -160t-104.5 -120.5t-153 -45.5q-88 0 -138.5 53.5zM357.5 57.5q59.5 42.5 91.5 111.5t32 147q0 82 -40.5 129t-118.5 47q-77 0 -136.5 -42.5t-92 -112
t-32.5 -147.5q0 -82 40.5 -128.5t118.5 -46.5t137.5 42.5z" />
    <glyph glyph-name="p" unicode="p" horiz-adv-x="550" 
d="M472 467.5q47 -53.5 47 -151.5q0 -87 -37 -161.5t-100.5 -118.5t-140.5 -44q-73 0 -114 39t-52 103h-3l-61 -311h-30l134 687h30l-25 -128h3q38 64 97 101.5t126 37.5q79 0 126 -53.5zM367.5 58q55.5 40 87.5 108t32 148q0 86 -37.5 133.5t-105.5 47.5q-65 0 -123.5 -42
t-94.5 -111.5t-36 -147.5q0 -82 41 -129t114 -47q67 0 122.5 40z" />
    <glyph glyph-name="q" unicode="q" horiz-adv-x="549" 
d="M503 511h30l-134 -688h-30l59 305h-2q-38 -64 -97 -101.5t-126 -37.5q-79 0 -126 53.5t-47 151.5q0 87 37 161.5t100.5 118.5t140.5 44q73 0 114 -39t52 -103h3zM328.5 57q58.5 42 94.5 111.5t36 147.5q0 82 -41 129t-114 47q-67 0 -122.5 -40t-87.5 -108t-32 -148
q0 -86 37.5 -133.5t105.5 -47.5q65 0 123.5 42z" />
    <glyph glyph-name="r" unicode="r" horiz-adv-x="302" 
d="M344 513l-5 -26q-24 3 -37 3q-41 0 -81.5 -21t-70.5 -58.5t-41 -85.5l-63 -325h-30l99 510h30l-20 -103h1q27 49 74.5 79.5t102.5 30.5q26 0 41 -4z" />
    <glyph glyph-name="s" unicode="s" horiz-adv-x="457" 
d="M113 9.5q-49 20.5 -77 59.5t-28 91h30q0 -45 25.5 -78t67.5 -50t92 -17q67 0 111 30.5t44 86.5q0 31 -19 53t-50.5 37.5t-85.5 34.5q-56 20 -86 34.5t-49.5 38.5t-19.5 62q0 61 49.5 93.5t120.5 32.5q55 0 97 -19.5t65 -52t23 -72.5h-30q0 53 -44.5 85.5t-109.5 32.5
q-57 0 -99.5 -25t-42.5 -74q0 -32 17.5 -51.5t40.5 -29.5t79 -30q66 -24 102 -43t53.5 -44t17.5 -61q0 -71 -52 -108t-133 -37q-60 0 -109 20.5z" />
    <glyph glyph-name="t" unicode="t" horiz-adv-x="246" 
d="M160 484l-70 -359q-6 -31 -6 -52q0 -28 15 -38.5t52 -10.5q9 0 33 2l-5 -25q-21 -3 -37 -3q-47 0 -68 15.5t-21 55.5q0 21 6 51l71 364h-75l5 26h75l33 170h30l-33 -170h113l-5 -26h-113z" />
    <glyph glyph-name="u" unicode="u" horiz-adv-x="511" 
d="M460 510h30l-99 -510h-30l20 101h-2q-36 -48 -89 -78.5t-122 -30.5q-59 0 -95 30.5t-36 87.5q0 19 4 38l70 362h30l-70 -362q-4 -24 -4 -36q0 -42 25 -68t84 -26q53 0 99.5 24t78.5 60.5t41 70.5z" />
    <glyph glyph-name="v" unicode="v" horiz-adv-x="451" 
d="M193 0h-36l-96 510h31l86 -479h3l275 479h32z" />
    <glyph glyph-name="w" unicode="w" horiz-adv-x="700" 
d="M152 0h-40l-43 510h31l38 -473h2l237 473h40l45 -474h2l242 474h31l-261 -510h-39l-46 471h-3z" />
    <glyph glyph-name="x" unicode="x" horiz-adv-x="441" 
d="M-14 0h-40l259 264l-141 246h33l127 -228h2l215 228h38l-240 -250l155 -260h-33l-141 242h-2z" />
    <glyph glyph-name="y" unicode="y" horiz-adv-x="453" 
d="M-34 -177l5 27q22 -2 36 -2q42 0 74.5 32.5t80.5 117.5l-103 512h30l94 -471h2l271 471h33l-303 -524q-37 -65 -64.5 -99.5t-54.5 -50t-62 -15.5q-22 0 -39 2z" />
    <glyph glyph-name="z" unicode="z" horiz-adv-x="415" 
d="M350 0h-386l5 26l427 456v2h-322l5 26h360l-5 -26l-427 -456v-2h348z" />
    <glyph glyph-name="braceleft" unicode="{" horiz-adv-x="243" 
d="M139 -117q-47 0 -67 22t-20 65q0 29 10 81l29 153q3 17 3 30q0 34 -17 52.5t-45 18.5l5 28q33 -1 61 24.5t38 75.5l31 158q16 84 46.5 124t94.5 40h11l-5 -28h-11q-34 0 -53 -13t-30.5 -45t-24.5 -97l-28 -145q-8 -40 -29 -65.5t-54 -41.5v-2q21 -13 32.5 -31t11.5 -45
q0 -14 -3 -32l-28 -140q-13 -70 -13 -99q0 -33 14 -46.5t46 -13.5h11l-5 -28h-11z" />
    <glyph glyph-name="bar" unicode="|" horiz-adv-x="199" 
d="M41 -128h-32l169 872h32z" />
    <glyph glyph-name="braceright" unicode="}" horiz-adv-x="243" 
d="M-52 -117l5 28h11q34 0 53 13t30.5 45t24.5 97l28 145q8 40 29 65.5t54 41.5v2q-21 13 -32.5 31t-11.5 45q0 14 3 32l28 140q13 70 13 99q0 33 -14 46.5t-46 13.5h-11l5 28h11q47 0 67 -22t20 -65q0 -29 -10 -81l-29 -153q-3 -16 -3 -30q0 -34 17 -52.5t45 -18.5l-5 -28
q-33 1 -61 -24.5t-38 -75.5l-31 -158q-16 -84 -46.5 -124t-94.5 -40h-11z" />
    <glyph glyph-name="asciitilde" unicode="~" horiz-adv-x="423" 
d="M64 291q11 42 36.5 66t59.5 24q23 0 39.5 -9t38.5 -27q18 -15 30 -22t26 -7q22 0 39 17t24 44h32q-11 -41 -37 -65t-60 -24q-22 0 -38.5 9t-37.5 27q-17 14 -30 21.5t-28 7.5q-22 0 -38 -17t-24 -45h-32z" />
    <glyph glyph-name="uni00A0" unicode="&#xa0;" horiz-adv-x="230" 
 />
    <glyph glyph-name="exclamdown" unicode="&#xa1;" horiz-adv-x="188" 
d="M175 530h-55l11 55h55zM39 -130h-40l47 242l66 289h20l-46 -289z" />
    <glyph glyph-name="cent" unicode="&#xa2;" horiz-adv-x="540" 
d="M503 446q1 5 1 16q0 52 -34 91.5t-106 41.5l-95 -477q54 1 97 24.5t69.5 58t36.5 69.5h32q-13 -49 -47 -89t-84.5 -64.5t-109.5 -24.5l-17 -87h-31l18 89q-77 9 -121 64t-44 146q0 83 35 153.5t97 114t138 48.5l17 86h31l-17 -85q84 -3 127.5 -52.5t38.5 -122.5h-32z
M133.5 177q35.5 -49 104.5 -57l95 474q-66 -7 -119.5 -46t-84.5 -102t-31 -139q0 -81 35.5 -130z" />
    <glyph glyph-name="sterling" unicode="&#xa3;" horiz-adv-x="545" 
d="M508 650q47 -46 47 -118q0 -21 -5 -48h-31q5 27 5 45q0 66 -42.5 102.5t-116.5 36.5q-64 0 -115.5 -27t-81.5 -74t-30 -105q0 -39 19 -102l7 -26h178l-5 -26h-167q4 -28 4 -43q0 -55 -30 -114.5t-78 -99.5l1 -2q23 13 52 21.5t55 8.5q27 0 47 -8.5t48 -24.5
q23 -14 40.5 -21.5t39.5 -7.5q27 0 53.5 13.5t61.5 43.5l13 -22q-35 -30 -65 -46.5t-69 -16.5q-28 0 -48 8t-46 24q-24 15 -42 22.5t-41 7.5q-30 0 -69.5 -13.5t-80.5 -37.5l-14 25q63 45 101 109.5t38 125.5q0 21 -5 48h-79l5 26h68l-5 20q-9 34 -13.5 58.5t-4.5 49.5
q0 64 33 117.5t93 85t136 31.5q92 0 139 -46z" />
    <glyph glyph-name="currency" unicode="&#xa4;" horiz-adv-x="509" 
d="M437 473q22 -35 22 -83q0 -49 -19 -94t-53 -80l49 -64l-24 -21l-48 64q-62 -47 -132 -47q-33 0 -63 11.5t-50 34.5l-73 -63l-15 20l72 64q-22 35 -22 83q0 49 19 95t53 80l-47 65l23 20l48 -65q60 47 132 47q33 0 62 -12t51 -34l73 64l16 -20zM148 209q35 -33 90 -33
q51 0 94.5 28.5t69 77t25.5 104.5q0 60 -35 93t-89 33q-51 0 -94.5 -28.5t-69.5 -76.5t-26 -105q0 -60 35 -93z" />
    <glyph glyph-name="yen" unicode="&#xa5;" horiz-adv-x="572" 
d="M585 686h37l-311 -396h200l-5 -28h-204l-18 -90h204l-5 -28h-204l-28 -144h-32l28 144h-204l5 28h204l18 90h-204l5 28h201l-157 396h35l143 -373h2z" />
    <glyph glyph-name="brokenbar" unicode="&#xa6;" horiz-adv-x="199" 
d="M141 384h-32l69 360h32zM41 -128h-32l73 373h32z" />
    <glyph glyph-name="section" unicode="&#xa7;" horiz-adv-x="569" 
d="M491 551q2 22 2 32q0 114 -134 114q-74 0 -119 -34.5t-45 -93.5q0 -30 13.5 -51t36 -37.5t76.5 -50.5l80 -50q57 -35 84 -65.5t27 -78.5q0 -61 -43 -106.5t-108 -58.5q25 -22 37.5 -45.5t12.5 -54.5q0 -45 -25 -81t-70.5 -56.5t-104.5 -20.5q-83 0 -123.5 39t-40.5 101
q0 16 3 34h32q-2 -22 -2 -32q0 -114 134 -114q74 0 119 34.5t45 93.5q0 31 -14.5 53t-46.5 44h-1v1l-64 41l-80 50q-57 35 -84 65.5t-27 78.5q0 62 43 108.5t107 57.5q-25 21 -37 44.5t-12 54.5q0 45 25 81t70.5 56.5t104.5 20.5q83 0 123.5 -39t40.5 -101q0 -16 -3 -34h-32
zM310 400q-58 37 -73 48q-65 -7 -104 -46t-39 -95q0 -32 13 -53.5t29.5 -33.5t57.5 -38l69 -44q58 -37 73 -48q65 9 104 48t39 93q0 32 -13 53.5t-29.5 33.5t-57.5 38z" />
    <glyph glyph-name="dieresis" unicode="&#xa8;" horiz-adv-x="270" 
d="M168 618h-56l11 55h56zM298 618h-56l11 55h56z" />
    <glyph glyph-name="copyright" unicode="&#xa9;" horiz-adv-x="849" 
d="M209.5 25q-68.5 36 -105.5 102.5t-37 155.5q0 117 61.5 219t165.5 163t225 61q92 0 160 -36t105 -102.5t37 -156.5q0 -117 -61 -218.5t-164.5 -162.5t-225.5 -61q-92 0 -160.5 36zM580.5 73.5q96.5 56.5 153.5 151t57 203.5q0 82 -33 143t-95 94t-146 33
q-112 0 -208.5 -56.5t-153.5 -151t-57 -203.5q0 -82 33.5 -143t95.5 -94t146 -33q111 0 207.5 56.5zM280 171.5q-43 46.5 -43 130.5q0 76 34.5 142t94 105.5t129.5 39.5q72 0 110 -40.5t36 -97.5h-31q1 46 -31.5 78t-89.5 32q-60 0 -110.5 -35t-80 -94t-29.5 -126
q0 -73 36 -113t103 -40q65 0 111 36.5t64 95.5h30q-19 -73 -77 -116.5t-135 -43.5q-78 0 -121 46.5z" />
    <glyph glyph-name="ordfeminine" unicode="&#xaa;" horiz-adv-x="409" 
d="M100.5 350q-29.5 24 -29.5 69q0 39 22 62t54 34t83 21q51 9 80 18t47 27.5t18 50.5q0 36 -22.5 51.5t-65.5 15.5q-56 0 -92 -26t-47 -72h-26q13 54 57 87.5t113 33.5q108 0 108 -91q0 -15 -3 -33l-36 -188q-5 -27 -5 -37t4 -14t14 -4q4 0 16 2l-4 -22q-9 -3 -18 -3
q-38 0 -38 42q0 6 2 24h-2q-27 -35 -67.5 -53.5t-82.5 -18.5q-50 0 -79.5 24zM290.5 385q44.5 36 54.5 84l20 99q-15 -23 -41 -33t-92 -22q-46 -9 -73.5 -18t-44.5 -27t-17 -49q0 -35 21.5 -52.5t61.5 -17.5q66 0 110.5 36z" />
    <glyph glyph-name="guillemotleft" unicode="&#xab;" horiz-adv-x="450" 
d="M206 131l-8 -36l-157 158l8 40l218 158l-7 -40l-193 -141v-2zM366 131l-8 -36l-157 158l8 40l218 158l-7 -40l-193 -141v-2z" />
    <glyph glyph-name="logicalnot" unicode="&#xac;" horiz-adv-x="499" 
d="M409 147h-32l40 208h-352l5 28h384z" />
    <glyph glyph-name="uni00AD" unicode="&#xad;" horiz-adv-x="348" 
d="M304 241h-267l5 28h267z" />
    <glyph glyph-name="registered" unicode="&#xae;" horiz-adv-x="571" 
d="M188 276.5q-45 23.5 -71 67.5t-26 103q0 73 37 138.5t101.5 105.5t142.5 40q55 0 100.5 -23.5t72 -68t26.5 -103.5q0 -73 -37 -138.5t-102 -105t-143 -39.5q-56 0 -101 23.5zM419.5 313.5q57.5 35.5 90 94.5t32.5 125q0 53 -23 92t-63 60t-88 21q-70 0 -126.5 -36
t-89 -95t-32.5 -125q0 -79 49 -125.5t123 -46.5q70 0 127.5 35.5zM216 366l51 259h102q34 0 55 -16t21 -43q0 -28 -20 -49t-56 -28v-1q36 -7 36 -58q0 -12 -1 -22t-1 -18q0 -17 7 -21l-1 -3h-27q-10 6 -10 28q0 13 1 20l1 22q0 19 -8 30t-30 11h-66l-22 -111h-32zM336 505
q38 0 57 15.5t19 41.5q0 19 -11.5 27t-40.5 8h-67l-18 -92h61z" />
    <glyph glyph-name="macron" unicode="&#xaf;" horiz-adv-x="308" 
d="M335 631h-228l5 28h228z" />
    <glyph glyph-name="degree" unicode="&#xb0;" horiz-adv-x="388" 
d="M133 462.5q-31 35.5 -31 85.5q0 47 25.5 88t67.5 66t89 25q61 0 92.5 -36t31.5 -85q0 -46 -25.5 -87.5t-67.5 -66.5t-89 -25q-62 0 -93 35.5zM302.5 476q34.5 20 55 54t20.5 74q0 43 -25.5 68.5t-72.5 25.5q-40 0 -74 -20t-54 -54t-20 -74q0 -43 24.5 -68.5t71.5 -25.5
q40 0 74.5 20z" />
    <glyph glyph-name="plusminus" unicode="&#xb1;" horiz-adv-x="526" 
d="M255 127h-32l40 203h-193l5 28h193l39 202h32l-41 -202h193l-5 -28h-193zM421 0h-416l5 28h416z" />
    <glyph glyph-name="uni00B2" unicode="&#xb2;" horiz-adv-x="319" 
d="M46 363q10 59 49 99.5t102 70.5q51 24 77.5 39.5t48 42t21.5 63.5q0 34 -18.5 54t-56.5 20q-49 0 -85.5 -32t-45.5 -79h-28q11 56 55 95.5t107 39.5q46 0 73.5 -25.5t27.5 -72.5q0 -41 -21 -70.5t-47.5 -46t-72.5 -38.5q-43 -21 -69 -36.5t-48 -40t-33 -58.5l1 -2h232
l-4 -23h-265z" />
    <glyph glyph-name="uni00B3" unicode="&#xb3;" horiz-adv-x="338" 
d="M102 392q-33 29 -33 79q0 15 3 31h28q-3 -15 -3 -29q0 -40 24 -63.5t72 -23.5q57 0 93.5 31t36.5 77q0 38 -23.5 56.5t-56.5 18.5h-44l5 25h42q42 0 71.5 29t29.5 69q0 30 -19.5 48t-61.5 18q-56 0 -86.5 -30.5t-36.5 -68.5h-28q9 52 51.5 87.5t103.5 35.5q48 0 77 -23
t29 -64q0 -36 -23 -67.5t-64 -46.5v-1q64 -21 64 -82q0 -38 -20.5 -68.5t-57.5 -48.5t-83 -18q-57 0 -90 29z" />
    <glyph glyph-name="acute" unicode="&#xb4;" horiz-adv-x="190" 
d="M157 598h-29l89 127h41z" />
    <glyph glyph-name="uni00B5" unicode="&#xb5;" horiz-adv-x="531" 
d="M474 510h30l-99 -510h-30l20 101h-2q-34 -46 -88 -77.5t-120 -31.5q-91 0 -117 64l-46 -233h-30l133 687h30l-70 -362q-4 -24 -4 -35q0 -42 25 -68.5t82 -26.5q54 0 101.5 24t79 60t40.5 71z" />
    <glyph glyph-name="paragraph" unicode="&#xb6;" horiz-adv-x="467" 
d="M182 0l75 385h-40q-71 0 -107.5 29.5t-36.5 97.5q0 58 25.5 104t73 72.5t109.5 26.5h189l-139 -715h-32l134 687h-85l-134 -687h-32z" />
    <glyph glyph-name="periodcentered" unicode="&#xb7;" horiz-adv-x="172" 
d="M108 226h-56l11 55h56z" />
    <glyph glyph-name="cedilla" unicode="&#xb8;" horiz-adv-x="269" 
d="M-40 -158l16 17q32 -20 73 -20q35 0 56.5 15.5t21.5 41.5q0 29 -41 29q-25 0 -49 -11l-9 15l71 71h32l-53 -53v-2q15 3 28 3q26 0 39.5 -13t13.5 -34q0 -38 -30.5 -62t-78.5 -24q-51 0 -90 27z" />
    <glyph glyph-name="uni00B9" unicode="&#xb9;" horiz-adv-x="171" 
d="M178 701q-20 -18 -39.5 -23.5t-49.5 -5.5l4 23q44 0 67.5 17t33.5 58h24l-79 -406h-27z" />
    <glyph glyph-name="ordmasculine" unicode="&#xba;" horiz-adv-x="429" 
d="M120.5 366q-37.5 40 -37.5 112q0 63 28 119t79 90.5t115 34.5q66 0 104 -40.5t38 -111.5q0 -63 -28.5 -119.5t-79.5 -90.5t-115 -34q-66 0 -103.5 40zM328 381q44 31 68 81.5t24 107.5q0 59 -30 93.5t-88 34.5q-56 0 -100 -31.5t-68 -82.5t-24 -108q0 -59 30 -92.5
t87 -33.5t101 31z" />
    <glyph glyph-name="guillemotright" unicode="&#xbb;" horiz-adv-x="448" 
d="M245 253l-218 -158l7 40l193 141v2l-139 137l8 36l157 -158zM405 253l-218 -158l7 40l193 141v2l-139 137l8 36l157 -158z" />
    <glyph glyph-name="onequarter" unicode="&#xbc;" horiz-adv-x="674" 
d="M187 646q-20 -18 -39.5 -23.5t-49.5 -5.5l4 23q44 0 67.5 17t33.5 58h24l-79 -406h-27zM34 0h-32l592 715h32zM546 0h-27l20 104h-203l5 24l257 278h27l-54 -278h61l-5 -24h-61zM590 366l-219 -238h173z" />
    <glyph glyph-name="onehalf" unicode="&#xbd;" horiz-adv-x="707" 
d="M192 646q-20 -18 -39.5 -23.5t-49.5 -5.5l4 23q44 0 67.5 17t33.5 58h24l-79 -406h-27zM39 0h-32l592 715h32zM349 0q10 59 49 99.5t102 70.5q51 24 77.5 39.5t48 42t21.5 63.5q0 34 -18.5 54t-56.5 20q-49 0 -85.5 -32t-45.5 -79h-28q11 56 55 95.5t107 39.5
q46 0 73.5 -25.5t27.5 -72.5q0 -41 -21 -70.5t-47.5 -46t-72.5 -38.5q-43 -21 -69 -36.5t-48 -40t-33 -58.5l1 -2h232l-4 -23h-265z" />
    <glyph glyph-name="threequarters" unicode="&#xbe;" horiz-adv-x="803" 
d="M98 332q-33 29 -33 79q0 15 3 31h28q-3 -15 -3 -29q0 -40 24 -63.5t72 -23.5q57 0 93.5 31t36.5 77q0 38 -23.5 56.5t-56.5 18.5h-44l5 25h42q42 0 71.5 29t29.5 69q0 30 -19.5 48t-61.5 18q-56 0 -86.5 -30.5t-36.5 -68.5h-28q9 52 51.5 87.5t103.5 35.5q48 0 77 -23
t29 -64q0 -36 -23 -67.5t-64 -46.5v-1q64 -21 64 -82q0 -38 -20.5 -68.5t-57.5 -48.5t-83 -18q-57 0 -90 29zM189 0h-32l592 715h32zM671 0h-27l20 104h-203l5 24l257 278h27l-54 -278h61l-5 -24h-61zM715 366l-219 -238h173z" />
    <glyph glyph-name="questiondown" unicode="&#xbf;" horiz-adv-x="447" 
d="M323 529h-56l11 55h56zM20.5 -104.5q-45.5 37.5 -45.5 98.5q0 47 16.5 81.5t49 64.5t91.5 70t89.5 84t41.5 117h32q-11 -63 -29 -102.5t-46.5 -67t-79.5 -61.5q-70 -47 -100 -87t-30 -97q0 -48 33.5 -78t96.5 -30q84 0 143.5 51t76.5 135h33q-11 -58 -46 -107.5t-89 -79
t-120 -29.5q-72 0 -117.5 37.5z" />
    <glyph glyph-name="Agrave" unicode="&#xc0;" horiz-adv-x="613" 
d="M-2 0h-35l413 715h37l139 -715h-34l-44 243h-337zM388 679l-235 -408h316l-79 408h-2zM411 803h-26l-64 127h45z" />
    <glyph glyph-name="Aacute" unicode="&#xc1;" horiz-adv-x="613" 
d="M-2 0h-35l413 715h37l139 -715h-34l-44 243h-337zM388 679l-235 -408h316l-79 408h-2zM428 803h-29l89 127h41z" />
    <glyph glyph-name="Acircumflex" unicode="&#xc2;" horiz-adv-x="613" 
d="M-2 0h-35l413 715h37l139 -715h-34l-44 243h-337zM388 679l-235 -408h316l-79 408h-2zM341 809h-40l112 121h37l63 -121h-36l-48 98h-1z" />
    <glyph glyph-name="Atilde" unicode="&#xc3;" horiz-adv-x="613" 
d="M-2 0h-35l413 715h37l139 -715h-34l-44 243h-337zM388 679l-235 -408h316l-79 408h-2zM268 798q10 38 31.5 58.5t50.5 20.5q20 0 35 -7.5t35 -22.5q15 -12 26 -17.5t23 -5.5q33 0 47 53h30q-10 -39 -31 -59t-50 -20q-19 0 -33 7.5t-32 21.5q-17 12 -27.5 18t-24.5 6
q-18 0 -30 -12.5t-20 -40.5h-30z" />
    <glyph glyph-name="Adieresis" unicode="&#xc4;" horiz-adv-x="613" 
d="M-2 0h-35l413 715h37l139 -715h-34l-44 243h-337zM388 679l-235 -408h316l-79 408h-2zM378 823h-56l11 55h56zM508 823h-56l11 55h56z" />
    <glyph glyph-name="Aring" unicode="&#xc5;" horiz-adv-x="613" 
d="M-2 0h-35l413 715h37l139 -715h-34l-44 243h-337zM388 679l-235 -408h316l-79 408h-2zM355 785.5q-19 17.5 -19 45.5q0 40 29.5 68.5t69.5 28.5q31 0 49.5 -17.5t18.5 -45.5q0 -40 -29 -68.5t-70 -28.5q-30 0 -49 17.5zM457.5 812q19.5 20 19.5 50q0 19 -12 30.5
t-34 11.5q-29 0 -49 -20t-20 -50q0 -19 12 -30.5t35 -11.5q29 0 48.5 20z" />
    <glyph glyph-name="AE" unicode="&#xc6;" horiz-adv-x="921" 
d="M972 715l-5 -28h-428l-57 -293h393l-6 -28h-393l-14 -72l-10 -51l-42 -215h438l-5 -28h-470l47 243h-284l-141 -243h-32l413 715h596zM392 687l-240 -416h274l81 416h-115z" />
    <glyph glyph-name="Ccedilla" unicode="&#xc7;" horiz-adv-x="681" 
d="M629.5 665q60.5 -61 58.5 -161h-33q2 53 -18.5 97t-65.5 70.5t-111 26.5q-100 0 -185.5 -58.5t-136 -157t-50.5 -211.5q0 -119 58 -186.5t168 -67.5q74 0 135.5 31t103.5 83t61 115h34q-36 -111 -121.5 -181t-198.5 -76l-42 -42v-2q15 3 28 3q26 0 39.5 -13t13.5 -34
q0 -38 -30.5 -62t-78.5 -24q-51 0 -90 27l16 17q32 -20 73 -20q35 0 56.5 15.5t21.5 41.5q0 29 -41 29q-25 0 -49 -11l-9 15l60 60q-113 5 -177 78.5t-64 202.5q0 119 54 224.5t147 168.5t204 63q109 0 169.5 -61z" />
    <glyph glyph-name="Egrave" unicode="&#xc8;" horiz-adv-x="581" 
d="M503 0h-470l139 715h460l-5 -28h-428l-57 -293h393l-6 -28h-393l-66 -338h438zM428 803h-26l-64 127h45z" />
    <glyph glyph-name="Eacute" unicode="&#xc9;" horiz-adv-x="581" 
d="M503 0h-470l139 715h460l-5 -28h-428l-57 -293h393l-6 -28h-393l-66 -338h438zM445 803h-29l89 127h41z" />
    <glyph glyph-name="Ecircumflex" unicode="&#xca;" horiz-adv-x="581" 
d="M503 0h-470l139 715h460l-5 -28h-428l-57 -293h393l-6 -28h-393l-66 -338h438zM358 809h-40l112 121h37l63 -121h-36l-48 98h-1z" />
    <glyph glyph-name="Edieresis" unicode="&#xcb;" horiz-adv-x="581" 
d="M503 0h-470l139 715h460l-5 -28h-428l-57 -293h393l-6 -28h-393l-66 -338h438zM395 823h-56l11 55h56zM525 823h-56l11 55h56z" />
    <glyph glyph-name="Igrave" unicode="&#xcc;" horiz-adv-x="198" 
d="M65 0h-32l139 715h32zM204 803h-26l-64 127h45z" />
    <glyph glyph-name="Iacute" unicode="&#xcd;" horiz-adv-x="198" 
d="M65 0h-32l139 715h32zM221 803h-29l89 127h41z" />
    <glyph glyph-name="Icircumflex" unicode="&#xce;" horiz-adv-x="198" 
d="M65 0h-32l139 715h32zM134 809h-40l112 121h37l63 -121h-36l-48 98h-1z" />
    <glyph glyph-name="Idieresis" unicode="&#xcf;" horiz-adv-x="198" 
d="M65 0h-32l139 715h32zM171 823h-56l11 55h56zM301 823h-56l11 55h56z" />
    <glyph glyph-name="Eth" unicode="&#xd0;" horiz-adv-x="686" 
d="M427 715q122 0 181.5 -70t59.5 -198q0 -121 -50 -223.5t-137.5 -163t-194.5 -60.5h-249l69 356h-71l5 28h72l64 331h251zM285 28q97 0 177 57t126 153.5t46 211.5q0 117 -52 177t-156 60h-223l-59 -303h248l-5 -28h-249l-64 -328h211z" />
    <glyph glyph-name="Ntilde" unicode="&#xd1;" horiz-adv-x="694" 
d="M65 0h-32l139 715h37l325 -672h3l131 672h32l-139 -715h-37l-326 670h-3zM308 798q10 38 31.5 58.5t50.5 20.5q20 0 35 -7.5t35 -22.5q15 -12 26 -17.5t23 -5.5q33 0 47 53h30q-10 -39 -31 -59t-50 -20q-19 0 -33 7.5t-32 21.5q-17 12 -27.5 18t-24.5 6q-18 0 -30 -12.5
t-20 -40.5h-30z" />
    <glyph glyph-name="Ograve" unicode="&#xd2;" horiz-adv-x="746" 
d="M178 23.5q-59 34.5 -91 98.5t-32 152q0 119 56 223t150.5 166.5t205.5 62.5q80 0 139.5 -34.5t91.5 -98.5t32 -152q0 -118 -56 -222.5t-151 -167t-206 -62.5q-80 0 -139 34.5zM505 75.5q87 58.5 139 156.5t52 208q0 121 -61 189.5t-170 68.5q-99 0 -185.5 -58
t-138.5 -155.5t-52 -208.5q0 -121 60.5 -190t169.5 -69q99 0 186 58.5zM498 803h-26l-64 127h45z" />
    <glyph glyph-name="Oacute" unicode="&#xd3;" horiz-adv-x="746" 
d="M178 23.5q-59 34.5 -91 98.5t-32 152q0 119 56 223t150.5 166.5t205.5 62.5q80 0 139.5 -34.5t91.5 -98.5t32 -152q0 -118 -56 -222.5t-151 -167t-206 -62.5q-80 0 -139 34.5zM505 75.5q87 58.5 139 156.5t52 208q0 121 -61 189.5t-170 68.5q-99 0 -185.5 -58
t-138.5 -155.5t-52 -208.5q0 -121 60.5 -190t169.5 -69q99 0 186 58.5zM515 803h-29l89 127h41z" />
    <glyph glyph-name="Ocircumflex" unicode="&#xd4;" horiz-adv-x="746" 
d="M178 23.5q-59 34.5 -91 98.5t-32 152q0 119 56 223t150.5 166.5t205.5 62.5q80 0 139.5 -34.5t91.5 -98.5t32 -152q0 -118 -56 -222.5t-151 -167t-206 -62.5q-80 0 -139 34.5zM505 75.5q87 58.5 139 156.5t52 208q0 121 -61 189.5t-170 68.5q-99 0 -185.5 -58
t-138.5 -155.5t-52 -208.5q0 -121 60.5 -190t169.5 -69q99 0 186 58.5zM428 809h-40l112 121h37l63 -121h-36l-48 98h-1z" />
    <glyph glyph-name="Otilde" unicode="&#xd5;" horiz-adv-x="746" 
d="M178 23.5q-59 34.5 -91 98.5t-32 152q0 119 56 223t150.5 166.5t205.5 62.5q80 0 139.5 -34.5t91.5 -98.5t32 -152q0 -118 -56 -222.5t-151 -167t-206 -62.5q-80 0 -139 34.5zM505 75.5q87 58.5 139 156.5t52 208q0 121 -61 189.5t-170 68.5q-99 0 -185.5 -58
t-138.5 -155.5t-52 -208.5q0 -121 60.5 -190t169.5 -69q99 0 186 58.5zM355 798q10 38 31.5 58.5t50.5 20.5q20 0 35 -7.5t35 -22.5q15 -12 26 -17.5t23 -5.5q33 0 47 53h30q-10 -39 -31 -59t-50 -20q-19 0 -33 7.5t-32 21.5q-17 12 -27.5 18t-24.5 6q-18 0 -30 -12.5
t-20 -40.5h-30z" />
    <glyph glyph-name="Odieresis" unicode="&#xd6;" horiz-adv-x="746" 
d="M178 23.5q-59 34.5 -91 98.5t-32 152q0 119 56 223t150.5 166.5t205.5 62.5q80 0 139.5 -34.5t91.5 -98.5t32 -152q0 -118 -56 -222.5t-151 -167t-206 -62.5q-80 0 -139 34.5zM505 75.5q87 58.5 139 156.5t52 208q0 121 -61 189.5t-170 68.5q-99 0 -185.5 -58
t-138.5 -155.5t-52 -208.5q0 -121 60.5 -190t169.5 -69q99 0 186 58.5zM465 823h-56l11 55h56zM595 823h-56l11 55h56z" />
    <glyph glyph-name="multiply" unicode="&#xd7;" horiz-adv-x="526" 
d="M273 304l-191 -160l-19 21l191 160l-129 160l23 21l129 -160l191 160l19 -21l-191 -160l129 -160l-23 -21z" />
    <glyph glyph-name="Oslash" unicode="&#xd8;" horiz-adv-x="753" 
d="M799 691l-102 -88q37 -68 37 -162q0 -118 -56 -222.5t-151 -167t-206 -62.5q-70 0 -124 26.5t-88 76.5l-100 -87l-16 21l102 88q-36 69 -36 160q0 119 56 223t150.5 166.5t205.5 62.5q69 0 123.5 -26t88.5 -74l98 85zM121 137l537 467q-30 46 -77.5 70t-111.5 24
q-99 0 -185.5 -58t-138.5 -155.5t-52 -208.5q0 -83 28 -139zM671 580l-537 -467q29 -46 77 -71t112 -25q99 0 186 58.5t139 156.5t52 208q0 82 -29 140z" />
    <glyph glyph-name="Ugrave" unicode="&#xd9;" horiz-adv-x="668" 
d="M67 170q0 33 8 78l91 467h32l-91 -467q-9 -43 -9 -79q0 -77 44.5 -114.5t139.5 -37.5q114 0 183.5 57.5t91.5 173.5l91 467h32l-91 -467q-50 -259 -307 -259q-215 0 -215 181zM439 803h-26l-64 127h45z" />
    <glyph glyph-name="Uacute" unicode="&#xda;" horiz-adv-x="668" 
d="M67 170q0 33 8 78l91 467h32l-91 -467q-9 -43 -9 -79q0 -77 44.5 -114.5t139.5 -37.5q114 0 183.5 57.5t91.5 173.5l91 467h32l-91 -467q-50 -259 -307 -259q-215 0 -215 181zM456 803h-29l89 127h41z" />
    <glyph glyph-name="Ucircumflex" unicode="&#xdb;" horiz-adv-x="668" 
d="M67 170q0 33 8 78l91 467h32l-91 -467q-9 -43 -9 -79q0 -77 44.5 -114.5t139.5 -37.5q114 0 183.5 57.5t91.5 173.5l91 467h32l-91 -467q-50 -259 -307 -259q-215 0 -215 181zM369 809h-40l112 121h37l63 -121h-36l-48 98h-1z" />
    <glyph glyph-name="Udieresis" unicode="&#xdc;" horiz-adv-x="668" 
d="M67 170q0 33 8 78l91 467h32l-91 -467q-9 -43 -9 -79q0 -77 44.5 -114.5t139.5 -37.5q114 0 183.5 57.5t91.5 173.5l91 467h32l-91 -467q-50 -259 -307 -259q-215 0 -215 181zM406 823h-56l11 55h56zM536 823h-56l11 55h56z" />
    <glyph glyph-name="Yacute" unicode="&#xdd;" horiz-adv-x="591" 
d="M261 0h-32l57 293l-181 422h35l166 -392h2l320 392h37l-347 -422zM418 803h-29l89 127h41z" />
    <glyph glyph-name="Thorn" unicode="&#xde;" horiz-adv-x="595" 
d="M33 0l139 715h32l-21 -110h212q202 0 202 -164q0 -71 -34 -126t-97.5 -85.5t-149.5 -30.5h-212l-39 -199h-32zM320 227q111 0 177.5 57.5t66.5 156.5q0 71 -42.5 103.5t-128.5 32.5h-216l-68 -350h211z" />
    <glyph glyph-name="germandbls" unicode="&#xdf;" horiz-adv-x="495" 
d="M145 3l5 26q41 -12 79 -12q53 0 97.5 30t70.5 80.5t26 108.5q0 80 -48 114t-111 34h-37l6 26h34q50 0 91 24t64.5 65.5t23.5 91.5q0 52 -28.5 80.5t-87.5 28.5q-80 0 -124 -50.5t-62 -145.5l-98 -504h-30l102 524q19 98 75 150t143 52q63 0 101.5 -34.5t38.5 -100.5
q0 -65 -38 -118.5t-102 -75.5v-2q117 -37 117 -157q0 -64 -28.5 -121t-80 -92.5t-117.5 -35.5q-49 0 -82 14z" />
    <glyph glyph-name="agrave" unicode="&#xe0;" horiz-adv-x="502" 
d="M47 19.5q-37 30.5 -37 89.5q0 51 28 80.5t69 42.5t108 26q66 13 106.5 25.5t68 39.5t27.5 74q0 50 -32 72.5t-91 22.5q-77 0 -121.5 -33t-59.5 -93h-32q16 64 67 108t146 44q73 0 112 -30.5t39 -90.5q0 -17 -5 -44l-49 -253q-6 -27 -6 -46q0 -17 8.5 -26t29.5 -9
q7 0 22 3l-5 -26q-13 -3 -26 -3q-59 0 -59 59q0 14 3 32h-2q-37 -47 -91 -71t-113 -24q-68 0 -105 30.5zM261.5 37.5q47.5 22.5 76.5 56t35 65.5l29 147q-26 -31 -68.5 -46.5t-118.5 -28.5q-60 -10 -94.5 -21t-57.5 -34.5t-23 -66.5q0 -94 115 -94q59 0 106.5 22.5zM316 598
h-26l-64 127h45z" />
    <glyph glyph-name="aacute" unicode="&#xe1;" horiz-adv-x="502" 
d="M47 19.5q-37 30.5 -37 89.5q0 51 28 80.5t69 42.5t108 26q66 13 106.5 25.5t68 39.5t27.5 74q0 50 -32 72.5t-91 22.5q-77 0 -121.5 -33t-59.5 -93h-32q16 64 67 108t146 44q73 0 112 -30.5t39 -90.5q0 -17 -5 -44l-49 -253q-6 -27 -6 -46q0 -17 8.5 -26t29.5 -9
q7 0 22 3l-5 -26q-13 -3 -26 -3q-59 0 -59 59q0 14 3 32h-2q-37 -47 -91 -71t-113 -24q-68 0 -105 30.5zM261.5 37.5q47.5 22.5 76.5 56t35 65.5l29 147q-26 -31 -68.5 -46.5t-118.5 -28.5q-60 -10 -94.5 -21t-57.5 -34.5t-23 -66.5q0 -94 115 -94q59 0 106.5 22.5zM333 598
h-29l89 127h41z" />
    <glyph glyph-name="acircumflex" unicode="&#xe2;" horiz-adv-x="502" 
d="M47 19.5q-37 30.5 -37 89.5q0 51 28 80.5t69 42.5t108 26q66 13 106.5 25.5t68 39.5t27.5 74q0 50 -32 72.5t-91 22.5q-77 0 -121.5 -33t-59.5 -93h-32q16 64 67 108t146 44q73 0 112 -30.5t39 -90.5q0 -17 -5 -44l-49 -253q-6 -27 -6 -46q0 -17 8.5 -26t29.5 -9
q7 0 22 3l-5 -26q-13 -3 -26 -3q-59 0 -59 59q0 14 3 32h-2q-37 -47 -91 -71t-113 -24q-68 0 -105 30.5zM261.5 37.5q47.5 22.5 76.5 56t35 65.5l29 147q-26 -31 -68.5 -46.5t-118.5 -28.5q-60 -10 -94.5 -21t-57.5 -34.5t-23 -66.5q0 -94 115 -94q59 0 106.5 22.5zM246 604
h-40l112 121h37l63 -121h-36l-48 98h-1z" />
    <glyph glyph-name="atilde" unicode="&#xe3;" horiz-adv-x="502" 
d="M47 19.5q-37 30.5 -37 89.5q0 51 28 80.5t69 42.5t108 26q66 13 106.5 25.5t68 39.5t27.5 74q0 50 -32 72.5t-91 22.5q-77 0 -121.5 -33t-59.5 -93h-32q16 64 67 108t146 44q73 0 112 -30.5t39 -90.5q0 -17 -5 -44l-49 -253q-6 -27 -6 -46q0 -17 8.5 -26t29.5 -9
q7 0 22 3l-5 -26q-13 -3 -26 -3q-59 0 -59 59q0 14 3 32h-2q-37 -47 -91 -71t-113 -24q-68 0 -105 30.5zM261.5 37.5q47.5 22.5 76.5 56t35 65.5l29 147q-26 -31 -68.5 -46.5t-118.5 -28.5q-60 -10 -94.5 -21t-57.5 -34.5t-23 -66.5q0 -94 115 -94q59 0 106.5 22.5zM173 593
q10 38 31.5 58.5t50.5 20.5q20 0 35 -7.5t35 -22.5q15 -12 26 -17.5t23 -5.5q33 0 47 53h30q-10 -39 -31 -59t-50 -20q-19 0 -33 7.5t-32 21.5q-17 12 -27.5 18t-24.5 6q-18 0 -30 -12.5t-20 -40.5h-30z" />
    <glyph glyph-name="adieresis" unicode="&#xe4;" horiz-adv-x="502" 
d="M47 19.5q-37 30.5 -37 89.5q0 51 28 80.5t69 42.5t108 26q66 13 106.5 25.5t68 39.5t27.5 74q0 50 -32 72.5t-91 22.5q-77 0 -121.5 -33t-59.5 -93h-32q16 64 67 108t146 44q73 0 112 -30.5t39 -90.5q0 -17 -5 -44l-49 -253q-6 -27 -6 -46q0 -17 8.5 -26t29.5 -9
q7 0 22 3l-5 -26q-13 -3 -26 -3q-59 0 -59 59q0 14 3 32h-2q-37 -47 -91 -71t-113 -24q-68 0 -105 30.5zM261.5 37.5q47.5 22.5 76.5 56t35 65.5l29 147q-26 -31 -68.5 -46.5t-118.5 -28.5q-60 -10 -94.5 -21t-57.5 -34.5t-23 -66.5q0 -94 115 -94q59 0 106.5 22.5zM283 618
h-56l11 55h56zM413 618h-56l11 55h56z" />
    <glyph glyph-name="aring" unicode="&#xe5;" horiz-adv-x="502" 
d="M47 19.5q-37 30.5 -37 89.5q0 51 28 80.5t69 42.5t108 26q66 13 106.5 25.5t68 39.5t27.5 74q0 50 -32 72.5t-91 22.5q-77 0 -121.5 -33t-59.5 -93h-32q16 64 67 108t146 44q73 0 112 -30.5t39 -90.5q0 -17 -5 -44l-49 -253q-6 -27 -6 -46q0 -17 8.5 -26t29.5 -9
q7 0 22 3l-5 -26q-13 -3 -26 -3q-59 0 -59 59q0 14 3 32h-2q-37 -47 -91 -71t-113 -24q-68 0 -105 30.5zM261.5 37.5q47.5 22.5 76.5 56t35 65.5l29 147q-26 -31 -68.5 -46.5t-118.5 -28.5q-60 -10 -94.5 -21t-57.5 -34.5t-23 -66.5q0 -94 115 -94q59 0 106.5 22.5z
M260 580.5q-19 17.5 -19 45.5q0 40 29.5 68.5t69.5 28.5q31 0 49.5 -17.5t18.5 -45.5q0 -40 -29 -68.5t-70 -28.5q-30 0 -49 17.5zM362.5 607q19.5 20 19.5 50q0 19 -12 30.5t-34 11.5q-29 0 -49 -20t-20 -50q0 -19 12 -30.5t35 -11.5q29 0 48.5 20z" />
    <glyph glyph-name="ae" unicode="&#xe6;" horiz-adv-x="876" 
d="M807.5 469q44.5 -49 44.5 -133q0 -32 -8 -74v-2h-419q-4 -27 -4 -61q0 -84 36 -134.5t117 -50.5q53 0 96.5 21.5t72 54t41.5 64.5h31q-31 -74 -95 -120t-147 -46q-74 0 -119.5 39.5t-59.5 110.5q-39 -79 -103.5 -114t-137.5 -35q-68 0 -105.5 30.5t-37.5 89.5q0 51 28 80
t69 42t108 26q66 13 106.5 25.5t68 40t27.5 74.5q0 95 -123 95q-76 0 -121 -33t-60 -93h-32q16 64 67.5 108t146.5 44q75 0 113 -31.5t37 -93.5q38 58 98 91.5t132 33.5q88 0 132.5 -49zM818 286q4 32 4 49q0 69 -35 113t-115 44q-91 0 -155 -56.5t-86 -149.5h387z
M263.5 38.5q47.5 23.5 77 61t37.5 77.5l24 129q-26 -31 -68.5 -46.5t-118.5 -28.5q-60 -10 -94.5 -21t-57.5 -34.5t-23 -66.5q0 -94 116 -94q60 0 107.5 23.5z" />
    <glyph glyph-name="ccedilla" unicode="&#xe7;" horiz-adv-x="511" 
d="M465 343q1 5 1 16q0 53 -35.5 93t-110.5 40q-71 0 -130.5 -38t-94.5 -104t-35 -146q0 -89 42.5 -139t124.5 -50q55 0 99 23t71 58t37 71h32q-13 -48 -46.5 -88.5t-83 -64.5t-107.5 -25l-42 -42v-2q15 3 28 3q26 0 39.5 -13t13.5 -34q0 -38 -30.5 -62t-78.5 -24
q-51 0 -90 27l16 17q32 -20 73 -20q35 0 56.5 15.5t21.5 41.5q0 29 -41 29q-25 0 -49 -11l-9 15l61 61q-78 8 -123 63t-45 148q0 87 38 160t104.5 115t148.5 42q89 0 135 -49.5t41 -125.5h-32z" />
    <glyph glyph-name="egrave" unicode="&#xe8;" horiz-adv-x="519" 
d="M450.5 469q44.5 -49 44.5 -133q0 -32 -8 -74v-2h-419q-4 -27 -4 -61q0 -84 36 -134.5t117 -50.5q53 0 96.5 21.5t72 54t41.5 64.5h31q-31 -74 -95 -120t-147 -46q-89 0 -136.5 56.5t-47.5 154.5q0 88 37 161t102 115.5t147 42.5q88 0 132.5 -49zM461 286q4 32 4 49
q0 69 -35 113t-115 44q-91 0 -155 -56.5t-86 -149.5h387zM360 599h-26l-64 127h45z" />
    <glyph glyph-name="eacute" unicode="&#xe9;" horiz-adv-x="519" 
d="M450.5 469q44.5 -49 44.5 -133q0 -32 -8 -74v-2h-419q-4 -27 -4 -61q0 -84 36 -134.5t117 -50.5q53 0 96.5 21.5t72 54t41.5 64.5h31q-31 -74 -95 -120t-147 -46q-89 0 -136.5 56.5t-47.5 154.5q0 88 37 161t102 115.5t147 42.5q88 0 132.5 -49zM461 286q4 32 4 49
q0 69 -35 113t-115 44q-91 0 -155 -56.5t-86 -149.5h387zM377 599h-29l89 127h41z" />
    <glyph glyph-name="ecircumflex" unicode="&#xea;" horiz-adv-x="519" 
d="M450.5 469q44.5 -49 44.5 -133q0 -32 -8 -74v-2h-419q-4 -27 -4 -61q0 -84 36 -134.5t117 -50.5q53 0 96.5 21.5t72 54t41.5 64.5h31q-31 -74 -95 -120t-147 -46q-89 0 -136.5 56.5t-47.5 154.5q0 88 37 161t102 115.5t147 42.5q88 0 132.5 -49zM461 286q4 32 4 49
q0 69 -35 113t-115 44q-91 0 -155 -56.5t-86 -149.5h387zM290 605h-40l112 121h37l63 -121h-36l-48 98h-1z" />
    <glyph glyph-name="edieresis" unicode="&#xeb;" horiz-adv-x="519" 
d="M450.5 469q44.5 -49 44.5 -133q0 -32 -8 -74v-2h-419q-4 -27 -4 -61q0 -84 36 -134.5t117 -50.5q53 0 96.5 21.5t72 54t41.5 64.5h31q-31 -74 -95 -120t-147 -46q-89 0 -136.5 56.5t-47.5 154.5q0 88 37 161t102 115.5t147 42.5q88 0 132.5 -49zM461 286q4 32 4 49
q0 69 -35 113t-115 44q-91 0 -155 -56.5t-86 -149.5h387zM327 619h-56l11 55h56zM457 619h-56l11 55h56z" />
    <glyph glyph-name="igrave" unicode="&#xec;" horiz-adv-x="162" 
d="M46 0h-30l99 510h30zM146 598h-26l-64 127h45z" />
    <glyph glyph-name="iacute" unicode="&#xed;" horiz-adv-x="162" 
d="M46 0h-30l99 510h30zM163 598h-29l89 127h41z" />
    <glyph glyph-name="icircumflex" unicode="&#xee;" horiz-adv-x="162" 
d="M46 0h-30l99 510h30zM76 604h-40l112 121h37l63 -121h-36l-48 98h-1z" />
    <glyph glyph-name="idieresis" unicode="&#xef;" horiz-adv-x="162" 
d="M46 0h-30l99 510h30zM113 618h-56l11 55h56zM243 618h-56l11 55h56z" />
    <glyph glyph-name="eth" unicode="&#xf0;" horiz-adv-x="547" 
d="M583 660l-147 -36q85 -115 85 -261q0 -104 -39 -189t-107.5 -134.5t-152.5 -49.5q-90 0 -141 57t-51 154q0 83 37.5 156t104 117t148.5 44q64 0 106.5 -27.5t61.5 -77.5q-1 49 -24.5 101.5t-60.5 100.5l-174 -43l-2 26l158 40q-33 41 -75 77h43q42 -40 66 -69l162 41z
M350.5 57q60.5 41 97 109.5t36.5 146.5q0 82 -42.5 130.5t-123.5 48.5q-74 0 -132.5 -40t-91 -106.5t-32.5 -143.5q0 -85 41 -135.5t117 -50.5q70 0 130.5 41z" />
    <glyph glyph-name="ntilde" unicode="&#xf1;" horiz-adv-x="507" 
d="M432.5 488q36.5 -30 36.5 -89q0 -17 -5 -44l-69 -355h-30l67 347q5 27 5 45q0 100 -111 100q-53 0 -98.5 -24t-76.5 -60.5t-40 -72.5l-65 -335h-30l99 510h30l-19 -96h2q83 104 204 104q64 0 100.5 -30zM189 597q10 38 31.5 58.5t50.5 20.5q20 0 35 -7.5t35 -22.5
q15 -12 26 -17.5t23 -5.5q33 0 47 53h30q-10 -39 -31 -59t-50 -20q-19 0 -33 7.5t-32 21.5q-17 12 -27.5 18t-24.5 6q-18 0 -30 -12.5t-20 -40.5h-30z" />
    <glyph glyph-name="ograve" unicode="&#xf2;" horiz-adv-x="544" 
d="M79.5 42.5q-50.5 53.5 -50.5 149.5q0 85 37.5 160t104.5 120.5t153 45.5q88 0 138.5 -53.5t50.5 -149.5q0 -85 -37.5 -160t-104.5 -120.5t-153 -45.5q-88 0 -138.5 53.5zM357.5 57.5q59.5 42.5 91.5 111.5t32 147q0 82 -40.5 129t-118.5 47q-77 0 -136.5 -42.5t-92 -112
t-32.5 -147.5q0 -82 40.5 -128.5t118.5 -46.5t137.5 42.5zM351 598h-26l-64 127h45z" />
    <glyph glyph-name="oacute" unicode="&#xf3;" horiz-adv-x="544" 
d="M79.5 42.5q-50.5 53.5 -50.5 149.5q0 85 37.5 160t104.5 120.5t153 45.5q88 0 138.5 -53.5t50.5 -149.5q0 -85 -37.5 -160t-104.5 -120.5t-153 -45.5q-88 0 -138.5 53.5zM357.5 57.5q59.5 42.5 91.5 111.5t32 147q0 82 -40.5 129t-118.5 47q-77 0 -136.5 -42.5t-92 -112
t-32.5 -147.5q0 -82 40.5 -128.5t118.5 -46.5t137.5 42.5zM368 598h-29l89 127h41z" />
    <glyph glyph-name="ocircumflex" unicode="&#xf4;" horiz-adv-x="544" 
d="M79.5 42.5q-50.5 53.5 -50.5 149.5q0 85 37.5 160t104.5 120.5t153 45.5q88 0 138.5 -53.5t50.5 -149.5q0 -85 -37.5 -160t-104.5 -120.5t-153 -45.5q-88 0 -138.5 53.5zM357.5 57.5q59.5 42.5 91.5 111.5t32 147q0 82 -40.5 129t-118.5 47q-77 0 -136.5 -42.5t-92 -112
t-32.5 -147.5q0 -82 40.5 -128.5t118.5 -46.5t137.5 42.5zM281 604h-40l112 121h37l63 -121h-36l-48 98h-1z" />
    <glyph glyph-name="otilde" unicode="&#xf5;" horiz-adv-x="544" 
d="M79.5 42.5q-50.5 53.5 -50.5 149.5q0 85 37.5 160t104.5 120.5t153 45.5q88 0 138.5 -53.5t50.5 -149.5q0 -85 -37.5 -160t-104.5 -120.5t-153 -45.5q-88 0 -138.5 53.5zM357.5 57.5q59.5 42.5 91.5 111.5t32 147q0 82 -40.5 129t-118.5 47q-77 0 -136.5 -42.5t-92 -112
t-32.5 -147.5q0 -82 40.5 -128.5t118.5 -46.5t137.5 42.5zM208 593q10 38 31.5 58.5t50.5 20.5q20 0 35 -7.5t35 -22.5q15 -12 26 -17.5t23 -5.5q33 0 47 53h30q-10 -39 -31 -59t-50 -20q-19 0 -33 7.5t-32 21.5q-17 12 -27.5 18t-24.5 6q-18 0 -30 -12.5t-20 -40.5h-30z
" />
    <glyph glyph-name="odieresis" unicode="&#xf6;" horiz-adv-x="544" 
d="M79.5 42.5q-50.5 53.5 -50.5 149.5q0 85 37.5 160t104.5 120.5t153 45.5q88 0 138.5 -53.5t50.5 -149.5q0 -85 -37.5 -160t-104.5 -120.5t-153 -45.5q-88 0 -138.5 53.5zM357.5 57.5q59.5 42.5 91.5 111.5t32 147q0 82 -40.5 129t-118.5 47q-77 0 -136.5 -42.5t-92 -112
t-32.5 -147.5q0 -82 40.5 -128.5t118.5 -46.5t137.5 42.5zM318 618h-56l11 55h56zM448 618h-56l11 55h56z" />
    <glyph glyph-name="divide" unicode="&#xf7;" horiz-adv-x="526" 
d="M322 460h-56l11 55h56zM262 144h-56l11 55h56zM481 313h-416l5 28h416z" />
    <glyph glyph-name="oslash" unicode="&#xf8;" horiz-adv-x="553" 
d="M571 499l-78 -69q26 -47 26 -115q0 -85 -37.5 -160t-104.5 -120.5t-153 -45.5q-50 0 -89 18t-64 53l-79 -70l-16 17l83 73q-24 47 -24 112q0 85 37.5 160t104.5 120.5t153 45.5q99 0 150 -67l74 65zM83 101l374 330q-41 61 -129 61q-77 0 -136.5 -42.5t-92 -112
t-32.5 -147.5q0 -53 16 -89zM469 409l-375 -329q41 -65 132 -65q78 0 137.5 42.5t91.5 111.5t32 147q0 54 -18 93z" />
    <glyph glyph-name="ugrave" unicode="&#xf9;" horiz-adv-x="511" 
d="M460 510h30l-99 -510h-30l20 101h-2q-36 -48 -89 -78.5t-122 -30.5q-59 0 -95 30.5t-36 87.5q0 19 4 38l70 362h30l-70 -362q-4 -24 -4 -36q0 -42 25 -68t84 -26q53 0 99.5 24t78.5 60.5t41 70.5zM324 598h-26l-64 127h45z" />
    <glyph glyph-name="uacute" unicode="&#xfa;" horiz-adv-x="511" 
d="M460 510h30l-99 -510h-30l20 101h-2q-36 -48 -89 -78.5t-122 -30.5q-59 0 -95 30.5t-36 87.5q0 19 4 38l70 362h30l-70 -362q-4 -24 -4 -36q0 -42 25 -68t84 -26q53 0 99.5 24t78.5 60.5t41 70.5zM341 598h-29l89 127h41z" />
    <glyph glyph-name="ucircumflex" unicode="&#xfb;" horiz-adv-x="511" 
d="M460 510h30l-99 -510h-30l20 101h-2q-36 -48 -89 -78.5t-122 -30.5q-59 0 -95 30.5t-36 87.5q0 19 4 38l70 362h30l-70 -362q-4 -24 -4 -36q0 -42 25 -68t84 -26q53 0 99.5 24t78.5 60.5t41 70.5zM254 604h-40l112 121h37l63 -121h-36l-48 98h-1z" />
    <glyph glyph-name="udieresis" unicode="&#xfc;" horiz-adv-x="511" 
d="M460 510h30l-99 -510h-30l20 101h-2q-36 -48 -89 -78.5t-122 -30.5q-59 0 -95 30.5t-36 87.5q0 19 4 38l70 362h30l-70 -362q-4 -24 -4 -36q0 -42 25 -68t84 -26q53 0 99.5 24t78.5 60.5t41 70.5zM291 618h-56l11 55h56zM421 618h-56l11 55h56z" />
    <glyph glyph-name="yacute" unicode="&#xfd;" horiz-adv-x="453" 
d="M-34 -177l5 27q22 -2 36 -2q42 0 74.5 32.5t80.5 117.5l-103 512h30l94 -471h2l271 471h33l-303 -524q-37 -65 -64.5 -99.5t-54.5 -50t-62 -15.5q-22 0 -39 2zM309 598h-29l89 127h41z" />
    <glyph glyph-name="thorn" unicode="&#xfe;" horiz-adv-x="550" 
d="M472 467.5q47 -53.5 47 -151.5q0 -87 -37 -161.5t-100.5 -118.5t-140.5 -44q-73 0 -114 39t-52 103h-3l-60 -311h-30l173 892h30l-65 -333h3q38 64 97 101.5t126 37.5q79 0 126 -53.5zM367.5 58q55.5 40 87.5 108t32 148q0 86 -37.5 133.5t-105.5 47.5q-65 0 -123.5 -42
t-94.5 -111.5t-36 -147.5q0 -82 41 -129t114 -47q67 0 122.5 40z" />
    <glyph glyph-name="ydieresis" unicode="&#xff;" horiz-adv-x="453" 
d="M-34 -177l5 27q22 -2 36 -2q42 0 74.5 32.5t80.5 117.5l-103 512h30l94 -471h2l271 471h33l-303 -524q-37 -65 -64.5 -99.5t-54.5 -50t-62 -15.5q-22 0 -39 2zM259 618h-56l11 55h56zM389 618h-56l11 55h56z" />
    <glyph glyph-name="Amacron" unicode="&#x100;" horiz-adv-x="613" 
d="M-2 0h-35l413 715h37l139 -715h-34l-44 243h-337zM388 679l-235 -408h316l-79 408h-2zM526 836h-228l5 28h228z" />
    <glyph glyph-name="amacron" unicode="&#x101;" horiz-adv-x="502" 
d="M47 19.5q-37 30.5 -37 89.5q0 51 28 80.5t69 42.5t108 26q66 13 106.5 25.5t68 39.5t27.5 74q0 50 -32 72.5t-91 22.5q-77 0 -121.5 -33t-59.5 -93h-32q16 64 67 108t146 44q73 0 112 -30.5t39 -90.5q0 -17 -5 -44l-49 -253q-6 -27 -6 -46q0 -17 8.5 -26t29.5 -9
q7 0 22 3l-5 -26q-13 -3 -26 -3q-59 0 -59 59q0 14 3 32h-2q-37 -47 -91 -71t-113 -24q-68 0 -105 30.5zM261.5 37.5q47.5 22.5 76.5 56t35 65.5l29 147q-26 -31 -68.5 -46.5t-118.5 -28.5q-60 -10 -94.5 -21t-57.5 -34.5t-23 -66.5q0 -94 115 -94q59 0 106.5 22.5zM431 631
h-228l5 28h228z" />
    <glyph glyph-name="Abreve" unicode="&#x102;" horiz-adv-x="613" 
d="M-2 0h-35l413 715h37l139 -715h-34l-44 243h-337zM388 679l-235 -408h316l-79 408h-2zM344.5 835q-25.5 27 -25.5 68q0 11 1 17h25q-2 -36 16 -61t55 -25q38 0 65.5 24.5t40.5 61.5h31q-13 -48 -50.5 -80t-88.5 -32q-44 0 -69.5 27z" />
    <glyph glyph-name="abreve" unicode="&#x103;" horiz-adv-x="502" 
d="M47 19.5q-37 30.5 -37 89.5q0 51 28 80.5t69 42.5t108 26q66 13 106.5 25.5t68 39.5t27.5 74q0 50 -32 72.5t-91 22.5q-77 0 -121.5 -33t-59.5 -93h-32q16 64 67 108t146 44q73 0 112 -30.5t39 -90.5q0 -17 -5 -44l-49 -253q-6 -27 -6 -46q0 -17 8.5 -26t29.5 -9
q7 0 22 3l-5 -26q-13 -3 -26 -3q-59 0 -59 59q0 14 3 32h-2q-37 -47 -91 -71t-113 -24q-68 0 -105 30.5zM261.5 37.5q47.5 22.5 76.5 56t35 65.5l29 147q-26 -31 -68.5 -46.5t-118.5 -28.5q-60 -10 -94.5 -21t-57.5 -34.5t-23 -66.5q0 -94 115 -94q59 0 106.5 22.5z
M249.5 630q-25.5 27 -25.5 68q0 11 1 17h25q-2 -36 16 -61t55 -25q38 0 65.5 24.5t40.5 61.5h31q-13 -48 -50.5 -80t-88.5 -32q-44 0 -69.5 27z" />
    <glyph glyph-name="Aogonek" unicode="&#x104;" horiz-adv-x="613" 
d="M-2 0h-35l413 715h37l139 -715h-34l-44 243h-337zM388 679l-235 -408h316l-79 408h-2zM434.5 -157q-19.5 16 -19.5 43q0 36 30 65t77 49h30q-105 -51 -105 -108q0 -19 13.5 -29.5t39.5 -10.5q27 0 54 10l-5 -24q-24 -11 -56 -11q-39 0 -58.5 16z" />
    <glyph glyph-name="aogonek" unicode="&#x105;" horiz-adv-x="502" 
d="M348.5 -140.5q13.5 -10.5 39.5 -10.5q27 0 54 10l-5 -24q-24 -11 -56 -11q-39 0 -58.5 16t-19.5 43q0 34 27.5 62t71.5 49q-47 5 -47 58q0 14 3 32h-2q-37 -47 -91 -71t-113 -24q-68 0 -105 30.5t-37 89.5q0 51 28 80.5t69 42.5t108 26q66 13 106.5 25.5t68 39.5t27.5 74
q0 50 -32 72.5t-91 22.5q-77 0 -121.5 -33t-59.5 -93h-32q16 64 67 108t146 44q73 0 112 -30.5t39 -90.5q0 -17 -5 -44l-49 -253q-6 -27 -6 -46q0 -17 8.5 -26t29.5 -9q7 0 22 3l-5 -26l-4 -1q-101 -51 -101 -106q0 -19 13.5 -29.5zM261.5 37.5q47.5 22.5 76.5 56t35 65.5
l29 147q-26 -31 -68.5 -46.5t-118.5 -28.5q-60 -10 -94.5 -21t-57.5 -34.5t-23 -66.5q0 -94 115 -94q59 0 106.5 22.5z" />
    <glyph glyph-name="Cacute" unicode="&#x106;" horiz-adv-x="681" 
d="M123.5 63q-68.5 74 -68.5 207q0 119 54 224.5t147 168.5t204 63q109 0 169.5 -61t58.5 -161h-33q2 53 -18.5 97t-65.5 70.5t-111 26.5q-100 0 -185.5 -58.5t-136 -157t-50.5 -211.5q0 -119 58 -186.5t168 -67.5q74 0 135.5 31t103.5 83t61 115h34q-37 -116 -128 -186.5
t-209 -70.5q-119 0 -187.5 74zM495 803h-29l89 127h41z" />
    <glyph glyph-name="cacute" unicode="&#x107;" horiz-adv-x="511" 
d="M82 45q-52 56 -52 156q0 87 38 160t104.5 115t148.5 42q89 0 135 -49.5t41 -125.5h-32q1 5 1 16q0 53 -35.5 93t-110.5 40q-71 0 -130.5 -38t-94.5 -104t-35 -146q0 -89 42.5 -139t124.5 -50q55 0 99 23t71 58t37 71h32q-13 -49 -47.5 -89.5t-85 -64.5t-109.5 -24
q-90 0 -142 56zM355 598h-29l89 127h41z" />
    <glyph glyph-name="Ccircumflex" unicode="&#x108;" horiz-adv-x="681" 
d="M123.5 63q-68.5 74 -68.5 207q0 119 54 224.5t147 168.5t204 63q109 0 169.5 -61t58.5 -161h-33q2 53 -18.5 97t-65.5 70.5t-111 26.5q-100 0 -185.5 -58.5t-136 -157t-50.5 -211.5q0 -119 58 -186.5t168 -67.5q74 0 135.5 31t103.5 83t61 115h34q-37 -116 -128 -186.5
t-209 -70.5q-119 0 -187.5 74zM408 809h-40l112 121h37l63 -121h-36l-48 98h-1z" />
    <glyph glyph-name="ccircumflex" unicode="&#x109;" horiz-adv-x="511" 
d="M82 45q-52 56 -52 156q0 87 38 160t104.5 115t148.5 42q89 0 135 -49.5t41 -125.5h-32q1 5 1 16q0 53 -35.5 93t-110.5 40q-71 0 -130.5 -38t-94.5 -104t-35 -146q0 -89 42.5 -139t124.5 -50q55 0 99 23t71 58t37 71h32q-13 -49 -47.5 -89.5t-85 -64.5t-109.5 -24
q-90 0 -142 56zM268 604h-40l112 121h37l63 -121h-36l-48 98h-1z" />
    <glyph glyph-name="Cdotaccent" unicode="&#x10a;" horiz-adv-x="681" 
d="M123.5 63q-68.5 74 -68.5 207q0 119 54 224.5t147 168.5t204 63q109 0 169.5 -61t58.5 -161h-33q2 53 -18.5 97t-65.5 70.5t-111 26.5q-100 0 -185.5 -58.5t-136 -157t-50.5 -211.5q0 -119 58 -186.5t168 -67.5q74 0 135.5 31t103.5 83t61 115h34q-37 -116 -128 -186.5
t-209 -70.5q-119 0 -187.5 74zM511 823h-56l11 55h56z" />
    <glyph glyph-name="cdotaccent" unicode="&#x10b;" horiz-adv-x="511" 
d="M82 45q-52 56 -52 156q0 87 38 160t104.5 115t148.5 42q89 0 135 -49.5t41 -125.5h-32q1 5 1 16q0 53 -35.5 93t-110.5 40q-71 0 -130.5 -38t-94.5 -104t-35 -146q0 -89 42.5 -139t124.5 -50q55 0 99 23t71 58t37 71h32q-13 -49 -47.5 -89.5t-85 -64.5t-109.5 -24
q-90 0 -142 56zM371 618h-56l11 55h56z" />
    <glyph glyph-name="Ccaron" unicode="&#x10c;" horiz-adv-x="681" 
d="M123.5 63q-68.5 74 -68.5 207q0 119 54 224.5t147 168.5t204 63q109 0 169.5 -61t58.5 -161h-33q2 53 -18.5 97t-65.5 70.5t-111 26.5q-100 0 -185.5 -58.5t-136 -157t-50.5 -211.5q0 -119 58 -186.5t168 -67.5q74 0 135.5 31t103.5 83t61 115h34q-37 -116 -128 -186.5
t-209 -70.5q-119 0 -187.5 74zM497 805h-37l-63 121h36l48 -98h1l87 98h40z" />
    <glyph glyph-name="ccaron" unicode="&#x10d;" horiz-adv-x="511" 
d="M82 45q-52 56 -52 156q0 87 38 160t104.5 115t148.5 42q89 0 135 -49.5t41 -125.5h-32q1 5 1 16q0 53 -35.5 93t-110.5 40q-71 0 -130.5 -38t-94.5 -104t-35 -146q0 -89 42.5 -139t124.5 -50q55 0 99 23t71 58t37 71h32q-13 -49 -47.5 -89.5t-85 -64.5t-109.5 -24
q-90 0 -142 56zM357 600h-37l-63 121h36l48 -98h1l87 98h40z" />
    <glyph glyph-name="Dcaron" unicode="&#x10e;" horiz-adv-x="682" 
d="M33 0l139 715h251q122 0 181.5 -70t59.5 -198q0 -121 -50 -223.5t-137.5 -163t-194.5 -60.5h-249zM281 28q97 0 177 57t126 153.5t46 211.5q0 117 -52 177t-156 60h-223l-129 -659h211zM403 805h-37l-63 121h36l48 -98h1l87 98h40z" />
    <glyph glyph-name="dcaron" unicode="&#x10f;" horiz-adv-x="557" 
d="M542 715h30l-139 -715h-30l25 128h-2q-38 -64 -97 -101.5t-126 -37.5q-79 0 -126 53.5t-47 151.5q0 87 37 161.5t100.5 118.5t140.5 44q73 0 114 -39t52 -103h2zM309.5 44.5q50.5 29.5 87.5 81t52 113.5l7 33q3 23 3 44q0 82 -41 129t-114 47q-67 0 -122.5 -40
t-87.5 -108t-32 -148q0 -86 37.5 -133.5t105.5 -47.5q54 0 104.5 29.5zM607 535h-24l60 180h36z" />
    <glyph glyph-name="Dcroat" unicode="&#x110;" horiz-adv-x="686" 
d="M427 715q122 0 181.5 -70t59.5 -198q0 -121 -50 -223.5t-137.5 -163t-194.5 -60.5h-249l69 356h-71l5 28h72l64 331h251zM285 28q97 0 177 57t126 153.5t46 211.5q0 117 -52 177t-156 60h-223l-59 -303h248l-5 -28h-249l-64 -328h211z" />
    <glyph glyph-name="dcroat" unicode="&#x111;" horiz-adv-x="549" 
d="M613 633l-5 -26h-57l-118 -607h-30l25 128h-2q-38 -64 -97 -101.5t-126 -37.5q-79 0 -126 53.5t-47 151.5q0 87 37 161.5t100.5 118.5t140.5 44q73 0 114 -39t52 -103h2l45 231h-147l5 26h147l16 82h30l-16 -82h57zM309.5 44.5q50.5 29.5 87.5 81t52 113.5l7 33
q3 23 3 44q0 82 -41 129t-114 47q-67 0 -122.5 -40t-87.5 -108t-32 -148q0 -86 37.5 -133.5t105.5 -47.5q54 0 104.5 29.5z" />
    <glyph glyph-name="Emacron" unicode="&#x112;" horiz-adv-x="581" 
d="M503 0h-470l139 715h460l-5 -28h-428l-57 -293h393l-6 -28h-393l-66 -338h438zM543 836h-228l5 28h228z" />
    <glyph glyph-name="emacron" unicode="&#x113;" horiz-adv-x="519" 
d="M450.5 469q44.5 -49 44.5 -133q0 -32 -8 -74v-2h-419q-4 -27 -4 -61q0 -84 36 -134.5t117 -50.5q53 0 96.5 21.5t72 54t41.5 64.5h31q-31 -74 -95 -120t-147 -46q-89 0 -136.5 56.5t-47.5 154.5q0 88 37 161t102 115.5t147 42.5q88 0 132.5 -49zM461 286q4 32 4 49
q0 69 -35 113t-115 44q-91 0 -155 -56.5t-86 -149.5h387zM475 632h-228l5 28h228z" />
    <glyph glyph-name="Edotaccent" unicode="&#x116;" horiz-adv-x="581" 
d="M503 0h-470l139 715h460l-5 -28h-428l-57 -293h393l-6 -28h-393l-66 -338h438zM461 823h-56l11 55h56z" />
    <glyph glyph-name="edotaccent" unicode="&#x117;" horiz-adv-x="519" 
d="M450.5 469q44.5 -49 44.5 -133q0 -32 -8 -74v-2h-419q-4 -27 -4 -61q0 -84 36 -134.5t117 -50.5q53 0 96.5 21.5t72 54t41.5 64.5h31q-31 -74 -95 -120t-147 -46q-89 0 -136.5 56.5t-47.5 154.5q0 88 37 161t102 115.5t147 42.5q88 0 132.5 -49zM461 286q4 32 4 49
q0 69 -35 113t-115 44q-91 0 -155 -56.5t-86 -149.5h387zM393 619h-56l11 55h56z" />
    <glyph glyph-name="Eogonek" unicode="&#x118;" horiz-adv-x="581" 
d="M503 0h-470l139 715h460l-5 -28h-428l-57 -293h393l-6 -28h-393l-66 -338h438zM356.5 -157q-19.5 16 -19.5 43q0 36 30 65t77 49h30q-105 -51 -105 -108q0 -19 13.5 -29.5t39.5 -10.5q27 0 54 10l-5 -24q-24 -11 -56 -11q-39 0 -58.5 16z" />
    <glyph glyph-name="eogonek" unicode="&#x119;" horiz-adv-x="519" 
d="M450.5 469q44.5 -49 44.5 -133q0 -32 -8 -74v-2h-419q-4 -27 -4 -61q0 -84 36 -134.5t117 -50.5q53 0 96.5 21.5t72 54t41.5 64.5h31q-27 -65 -80 -109t-123 -54q-85 -47 -85 -98q0 -19 13.5 -29.5t39.5 -10.5q27 0 54 10l-5 -24q-24 -11 -56 -11q-39 0 -58.5 16
t-19.5 43q0 57 80 101h-2q-89 0 -136.5 56.5t-47.5 154.5q0 88 37 161t102 115.5t147 42.5q88 0 132.5 -49zM461 286q4 32 4 49q0 69 -35 113t-115 44q-91 0 -155 -56.5t-86 -149.5h387z" />
    <glyph glyph-name="Ecaron" unicode="&#x11a;" horiz-adv-x="581" 
d="M503 0h-470l139 715h460l-5 -28h-428l-57 -293h393l-6 -28h-393l-66 -338h438zM447 805h-37l-63 121h36l48 -98h1l87 98h40z" />
    <glyph glyph-name="ecaron" unicode="&#x11b;" horiz-adv-x="519" 
d="M450.5 469q44.5 -49 44.5 -133q0 -32 -8 -74v-2h-419q-4 -27 -4 -61q0 -84 36 -134.5t117 -50.5q53 0 96.5 21.5t72 54t41.5 64.5h31q-31 -74 -95 -120t-147 -46q-89 0 -136.5 56.5t-47.5 154.5q0 88 37 161t102 115.5t147 42.5q88 0 132.5 -49zM461 286q4 32 4 49
q0 69 -35 113t-115 44q-91 0 -155 -56.5t-86 -149.5h387zM379 601h-37l-63 121h36l48 -98h1l87 98h40z" />
    <glyph glyph-name="Gcircumflex" unicode="&#x11c;" horiz-adv-x="721" 
d="M121 63q-66 74 -66 205q0 122 54.5 227.5t148.5 168t207 62.5q72 0 126.5 -26t84 -74.5t29.5 -114.5h-31q-1 85 -55 136t-155 51q-102 0 -188.5 -59t-136.5 -157.5t-50 -213.5q0 -116 56 -183.5t170 -67.5q84 0 153 37.5t116 107.5t65 164h-248l6 28h280l-69 -354h-26
l33 189h-2q-37 -88 -116.5 -144t-192.5 -56q-127 0 -193 74zM412 809h-40l112 121h37l63 -121h-36l-48 98h-1z" />
    <glyph glyph-name="gcircumflex" unicode="&#x11d;" horiz-adv-x="546" 
d="M500 511h30l-94 -483q-20 -105 -88.5 -158t-170.5 -53q-62 0 -103.5 22t-61 57.5t-17.5 77.5h30q-2 -59 35.5 -95t118.5 -36q88 0 148 45t77 134l24 123h-2q-34 -56 -92.5 -90.5t-125.5 -34.5q-76 0 -125.5 47t-49.5 137q0 86 36.5 158t98.5 114t137 42q67 0 112.5 -34.5
t55.5 -93.5h3zM333.5 85q56.5 39 90.5 104.5t34 139.5q0 53 -21 89.5t-55.5 55t-74.5 18.5q-68 0 -123 -37.5t-87 -103t-32 -145.5q0 -81 38.5 -120.5t110.5 -39.5q63 0 119.5 39zM264 604h-40l112 121h37l63 -121h-36l-48 98h-1z" />
    <glyph glyph-name="Gbreve" unicode="&#x11e;" horiz-adv-x="721" 
d="M121 63q-66 74 -66 205q0 122 54.5 227.5t148.5 168t207 62.5q72 0 126.5 -26t84 -74.5t29.5 -114.5h-31q-1 85 -55 136t-155 51q-102 0 -188.5 -59t-136.5 -157.5t-50 -213.5q0 -116 56 -183.5t170 -67.5q84 0 153 37.5t116 107.5t65 164h-248l6 28h280l-69 -354h-26
l33 189h-2q-37 -88 -116.5 -144t-192.5 -56q-127 0 -193 74zM415.5 835q-25.5 27 -25.5 68q0 11 1 17h25q-2 -36 16 -61t55 -25q38 0 65.5 24.5t40.5 61.5h31q-13 -48 -50.5 -80t-88.5 -32q-44 0 -69.5 27z" />
    <glyph glyph-name="gbreve" unicode="&#x11f;" horiz-adv-x="546" 
d="M500 511h30l-94 -483q-20 -105 -88.5 -158t-170.5 -53q-62 0 -103.5 22t-61 57.5t-17.5 77.5h30q-2 -59 35.5 -95t118.5 -36q88 0 148 45t77 134l24 123h-2q-34 -56 -92.5 -90.5t-125.5 -34.5q-76 0 -125.5 47t-49.5 137q0 86 36.5 158t98.5 114t137 42q67 0 112.5 -34.5
t55.5 -93.5h3zM333.5 85q56.5 39 90.5 104.5t34 139.5q0 53 -21 89.5t-55.5 55t-74.5 18.5q-68 0 -123 -37.5t-87 -103t-32 -145.5q0 -81 38.5 -120.5t110.5 -39.5q63 0 119.5 39zM267.5 630q-25.5 27 -25.5 68q0 11 1 17h25q-2 -36 16 -61t55 -25q38 0 65.5 24.5t40.5 61.5
h31q-13 -48 -50.5 -80t-88.5 -32q-44 0 -69.5 27z" />
    <glyph glyph-name="Gdotaccent" unicode="&#x120;" horiz-adv-x="721" 
d="M121 63q-66 74 -66 205q0 122 54.5 227.5t148.5 168t207 62.5q72 0 126.5 -26t84 -74.5t29.5 -114.5h-31q-1 85 -55 136t-155 51q-102 0 -188.5 -59t-136.5 -157.5t-50 -213.5q0 -116 56 -183.5t170 -67.5q84 0 153 37.5t116 107.5t65 164h-248l6 28h280l-69 -354h-26
l33 189h-2q-37 -88 -116.5 -144t-192.5 -56q-127 0 -193 74zM515 823h-56l11 55h56z" />
    <glyph glyph-name="gdotaccent" unicode="&#x121;" horiz-adv-x="546" 
d="M500 511h30l-94 -483q-20 -105 -88.5 -158t-170.5 -53q-62 0 -103.5 22t-61 57.5t-17.5 77.5h30q-2 -59 35.5 -95t118.5 -36q88 0 148 45t77 134l24 123h-2q-34 -56 -92.5 -90.5t-125.5 -34.5q-76 0 -125.5 47t-49.5 137q0 86 36.5 158t98.5 114t137 42q67 0 112.5 -34.5
t55.5 -93.5h3zM333.5 85q56.5 39 90.5 104.5t34 139.5q0 53 -21 89.5t-55.5 55t-74.5 18.5q-68 0 -123 -37.5t-87 -103t-32 -145.5q0 -81 38.5 -120.5t110.5 -39.5q63 0 119.5 39zM367 618h-56l11 55h56z" />
    <glyph glyph-name="uni0122" unicode="&#x122;" horiz-adv-x="721" 
d="M121 63q-66 74 -66 205q0 122 54.5 227.5t148.5 168t207 62.5q72 0 126.5 -26t84 -74.5t29.5 -114.5h-31q-1 85 -55 136t-155 51q-102 0 -188.5 -59t-136.5 -157.5t-50 -213.5q0 -116 56 -183.5t170 -67.5q84 0 153 37.5t116 107.5t65 164h-248l6 28h280l-69 -354h-26
l33 189h-2q-37 -88 -116.5 -144t-192.5 -56q-127 0 -193 74zM297 -47h55l-10 -55q-9 -47 -23.5 -70t-52.5 -36l5 27q19 7 28.5 24.5t16.5 54.5h-29z" />
    <glyph glyph-name="uni0123" unicode="&#x123;" horiz-adv-x="546" 
d="M500 511h30l-94 -483q-20 -105 -88.5 -158t-170.5 -53q-62 0 -103.5 22t-61 57.5t-17.5 77.5h30q-2 -59 35.5 -95t118.5 -36q88 0 148 45t77 134l24 123h-2q-34 -56 -92.5 -90.5t-125.5 -34.5q-76 0 -125.5 47t-49.5 137q0 86 36.5 158t98.5 114t137 42q67 0 112.5 -34.5
t55.5 -93.5h3zM333.5 85q56.5 39 90.5 104.5t34 139.5q0 53 -21 89.5t-55.5 55t-74.5 18.5q-68 0 -123 -37.5t-87 -103t-32 -145.5q0 -81 38.5 -120.5t110.5 -39.5q63 0 119.5 39zM379 731q-19 -7 -27.5 -22.5t-14.5 -46.5h29l-11 -55h-55l11 55q8 39 21.5 61t51.5 35z" />
    <glyph glyph-name="Hcircumflex" unicode="&#x124;" horiz-adv-x="687" 
d="M65 0h-32l139 715h32l-62 -321h457l62 321h32l-139 -715h-32l71 366h-457zM379 809h-40l112 121h37l63 -121h-36l-48 98h-1z" />
    <glyph glyph-name="hcircumflex" unicode="&#x125;" horiz-adv-x="507" 
d="M432.5 488q36.5 -30 36.5 -89q0 -17 -5 -44l-69 -355h-30l67 347q5 27 5 45q0 100 -111 100q-52 0 -98 -23.5t-76.5 -59.5t-40.5 -72l-65 -337h-30l139 715h30l-59 -301h2q83 104 204 104q64 0 100.5 -30zM108 764h-40l112 121h37l63 -121h-36l-48 98h-1z" />
    <glyph glyph-name="Hbar" unicode="&#x126;" horiz-adv-x="693" 
d="M671 584h69l-5 -28h-70l-108 -556h-32l71 366h-457l-71 -366h-32l108 556h-70l5 28h71l25 131h32l-25 -131h457l25 131h32zM145 394h457l31 162h-457z" />
    <glyph glyph-name="hbar" unicode="&#x127;" horiz-adv-x="507" 
d="M432.5 488q36.5 -30 36.5 -89q0 -17 -5 -44l-69 -355h-30l67 347q5 27 5 45q0 100 -111 100q-52 0 -98 -23.5t-76.5 -59.5t-40.5 -72l-65 -337h-30l118 607h-70l5 26h70l16 82h30l-16 -82h157l-5 -26h-157l-38 -193h2q83 104 204 104q64 0 100.5 -30z" />
    <glyph glyph-name="Itilde" unicode="&#x128;" horiz-adv-x="198" 
d="M65 0h-32l139 715h32zM61 798q10 38 31.5 58.5t50.5 20.5q20 0 35 -7.5t35 -22.5q15 -12 26 -17.5t23 -5.5q33 0 47 53h30q-10 -39 -31 -59t-50 -20q-19 0 -33 7.5t-32 21.5q-17 12 -27.5 18t-24.5 6q-18 0 -30 -12.5t-20 -40.5h-30z" />
    <glyph glyph-name="itilde" unicode="&#x129;" horiz-adv-x="162" 
d="M46 0h-30l99 510h30zM3 593q10 38 31.5 58.5t50.5 20.5q20 0 35 -7.5t35 -22.5q15 -12 26 -17.5t23 -5.5q33 0 47 53h30q-10 -39 -31 -59t-50 -20q-19 0 -33 7.5t-32 21.5q-17 12 -27.5 18t-24.5 6q-18 0 -30 -12.5t-20 -40.5h-30z" />
    <glyph glyph-name="Imacron" unicode="&#x12a;" horiz-adv-x="198" 
d="M65 0h-32l139 715h32zM319 836h-228l5 28h228z" />
    <glyph glyph-name="imacron" unicode="&#x12b;" horiz-adv-x="162" 
d="M46 0h-30l99 510h30zM261 631h-228l5 28h228z" />
    <glyph glyph-name="Iogonek" unicode="&#x12e;" horiz-adv-x="198" 
d="M65 0h-32l139 715h32zM-52.5 -157q-19.5 16 -19.5 43q0 36 30 65t77 49h30q-105 -51 -105 -108q0 -19 13.5 -29.5t39.5 -10.5q27 0 54 10l-5 -24q-24 -11 -56 -11q-39 0 -58.5 16z" />
    <glyph glyph-name="iogonek" unicode="&#x12f;" horiz-adv-x="162" 
d="M46 0h-30l99 510h30zM179 618h-56l11 55h56zM-71.5 -157q-19.5 16 -19.5 43q0 36 30 65t77 49h30q-105 -51 -105 -108q0 -19 13.5 -29.5t39.5 -10.5q27 0 54 10l-5 -24q-24 -11 -56 -11q-39 0 -58.5 16z" />
    <glyph glyph-name="Idotaccent" unicode="&#x130;" horiz-adv-x="198" 
d="M65 0h-32l139 715h32zM237 823h-56l11 55h56z" />
    <glyph glyph-name="dotlessi" unicode="&#x131;" horiz-adv-x="162" 
d="M46 0h-30l99 510h30z" />
    <glyph glyph-name="Jcircumflex" unicode="&#x134;" horiz-adv-x="473" 
d="M41.5 28q-39.5 39 -39.5 105q0 28 5 49l6 29h32l-6 -29q-6 -27 -6 -50q0 -55 31 -85t89 -30q76 0 127.5 43t67.5 122l104 533h32l-104 -533q-17 -85 -75.5 -139t-149.5 -54q-74 0 -113.5 39zM414 809h-40l112 121h37l63 -121h-36l-48 98h-1z" />
    <glyph glyph-name="jcircumflex" unicode="&#x135;" horiz-adv-x="162" 
d="M-104 -177l5 25q24 -2 32 -2q29 0 43.5 17t24.5 65l114 582h30l-113 -579q-12 -61 -36.5 -86t-60.5 -25q-18 0 -39 3zM76 604h-40l112 121h37l63 -121h-36l-48 98h-1z" />
    <glyph glyph-name="uni0136" unicode="&#x136;" horiz-adv-x="604" 
d="M643 715h40l-352 -308l232 -407h-35l-221 386l-201 -177l-41 -209h-32l139 715h32l-90 -461zM246 -47h55l-10 -55q-9 -47 -23.5 -70t-52.5 -36l5 27q19 7 28.5 24.5t16.5 54.5h-29z" />
    <glyph glyph-name="uni0137" unicode="&#x137;" horiz-adv-x="446" 
d="M435 510h41l-240 -193l176 -317h-34l-164 300l-130 -105l-38 -195h-30l139 715h30l-93 -480zM160 -47h55l-10 -55q-9 -47 -23.5 -70t-52.5 -36l5 27q19 7 28.5 24.5t16.5 54.5h-29z" />
    <glyph glyph-name="kgreenlandic" unicode="&#x138;" horiz-adv-x="449" 
d="M444 510h41l-246 -198l173 -312h-34l-161 294l-135 -108l-36 -186h-30l99 510h30l-55 -284z" />
    <glyph glyph-name="Lacute" unicode="&#x139;" horiz-adv-x="537" 
d="M475 0h-442l139 715h32l-134 -687h410zM229 803h-29l89 127h41z" />
    <glyph glyph-name="lacute" unicode="&#x13a;" horiz-adv-x="162" 
d="M46 0h-30l139 715h30zM195 758h-29l89 127h41z" />
    <glyph glyph-name="uni013B" unicode="&#x13b;" horiz-adv-x="537" 
d="M475 0h-442l139 715h32l-134 -687h410zM217 -47h55l-10 -55q-9 -47 -23.5 -70t-52.5 -36l5 27q19 7 28.5 24.5t16.5 54.5h-29z" />
    <glyph glyph-name="uni013C" unicode="&#x13c;" horiz-adv-x="162" 
d="M46 0h-30l139 715h30zM-6 -47h55l-10 -55q-9 -47 -23.5 -70t-52.5 -36l5 27q19 7 28.5 24.5t16.5 54.5h-29z" />
    <glyph glyph-name="Lcaron" unicode="&#x13d;" horiz-adv-x="537" 
d="M475 0h-442l139 715h32l-134 -687h410zM353 535h-24l60 180h36z" />
    <glyph glyph-name="lcaron" unicode="&#x13e;" horiz-adv-x="170" 
d="M46 0h-30l139 715h30zM220 535h-24l60 180h36z" />
    <glyph glyph-name="Lslash" unicode="&#x141;" horiz-adv-x="586" 
d="M172 305l-54 -277h410l-5 -28h-442l56 288l-127 -63l7 34l127 63l76 393h32l-73 -376l279 138l-7 -34z" />
    <glyph glyph-name="lslash" unicode="&#x142;" horiz-adv-x="217" 
d="M149 387l83 59l-6 -32l-83 -59l-69 -355h-30l64 330l-83 -59l7 32l82 59l69 353h30z" />
    <glyph glyph-name="Nacute" unicode="&#x143;" horiz-adv-x="694" 
d="M65 0h-32l139 715h37l325 -672h3l131 672h32l-139 -715h-37l-326 670h-3zM468 803h-29l89 127h41z" />
    <glyph glyph-name="nacute" unicode="&#x144;" horiz-adv-x="507" 
d="M432.5 488q36.5 -30 36.5 -89q0 -17 -5 -44l-69 -355h-30l67 347q5 27 5 45q0 100 -111 100q-53 0 -98.5 -24t-76.5 -60.5t-40 -72.5l-65 -335h-30l99 510h30l-19 -96h2q83 104 204 104q64 0 100.5 -30zM349 602h-29l89 127h41z" />
    <glyph glyph-name="uni0145" unicode="&#x145;" horiz-adv-x="694" 
d="M65 0h-32l139 715h37l325 -672h3l131 672h32l-139 -715h-37l-326 670h-3zM249 -47h55l-10 -55q-9 -47 -23.5 -70t-52.5 -36l5 27q19 7 28.5 24.5t16.5 54.5h-29z" />
    <glyph glyph-name="uni0146" unicode="&#x146;" horiz-adv-x="507" 
d="M432.5 488q36.5 -30 36.5 -89q0 -17 -5 -44l-69 -355h-30l67 347q5 27 5 45q0 100 -111 100q-53 0 -98.5 -24t-76.5 -60.5t-40 -72.5l-65 -335h-30l99 510h30l-19 -96h2q83 104 204 104q64 0 100.5 -30zM169 -47h55l-10 -55q-9 -47 -23.5 -70t-52.5 -36l5 27
q19 7 28.5 24.5t16.5 54.5h-29z" />
    <glyph glyph-name="Ncaron" unicode="&#x147;" horiz-adv-x="694" 
d="M65 0h-32l139 715h37l325 -672h3l131 672h32l-139 -715h-37l-326 670h-3zM470 805h-37l-63 121h36l48 -98h1l87 98h40z" />
    <glyph glyph-name="ncaron" unicode="&#x148;" horiz-adv-x="507" 
d="M432.5 488q36.5 -30 36.5 -89q0 -17 -5 -44l-69 -355h-30l67 347q5 27 5 45q0 100 -111 100q-53 0 -98.5 -24t-76.5 -60.5t-40 -72.5l-65 -335h-30l99 510h30l-19 -96h2q83 104 204 104q64 0 100.5 -30zM351 604h-37l-63 121h36l48 -98h1l87 98h40z" />
    <glyph glyph-name="Eng" unicode="&#x14a;" horiz-adv-x="695" 
d="M288 -167l5 26q35 -6 64 -6q144 0 167 147l-326 670h-3l-130 -670h-32l139 715h40l325 -672h2l131 672h32l-136 -694q-21 -107 -75 -152.5t-139 -45.5q-34 0 -64 10z" />
    <glyph glyph-name="eng" unicode="&#x14b;" horiz-adv-x="507" 
d="M432.5 488q36.5 -30 36.5 -89q0 -17 -5 -44l-78 -400q-12 -61 -36.5 -86t-65.5 -25q-19 0 -37 3l5 26q26 -4 34 -4q31 0 45.5 17.5t22.5 57.5l78 403q5 27 5 45q0 100 -111 100q-53 0 -98.5 -23.5t-76 -60t-40.5 -73.5l-65 -335h-30l99 510h30l-19 -96h2q83 104 204 104
q64 0 100.5 -30z" />
    <glyph glyph-name="Omacron" unicode="&#x14c;" horiz-adv-x="746" 
d="M178 23.5q-59 34.5 -91 98.5t-32 152q0 119 56 223t150.5 166.5t205.5 62.5q80 0 139.5 -34.5t91.5 -98.5t32 -152q0 -118 -56 -222.5t-151 -167t-206 -62.5q-80 0 -139 34.5zM505 75.5q87 58.5 139 156.5t52 208q0 121 -61 189.5t-170 68.5q-99 0 -185.5 -58
t-138.5 -155.5t-52 -208.5q0 -121 60.5 -190t169.5 -69q99 0 186 58.5zM613 836h-228l5 28h228z" />
    <glyph glyph-name="omacron" unicode="&#x14d;" horiz-adv-x="544" 
d="M79.5 42.5q-50.5 53.5 -50.5 149.5q0 85 37.5 160t104.5 120.5t153 45.5q88 0 138.5 -53.5t50.5 -149.5q0 -85 -37.5 -160t-104.5 -120.5t-153 -45.5q-88 0 -138.5 53.5zM357.5 57.5q59.5 42.5 91.5 111.5t32 147q0 82 -40.5 129t-118.5 47q-77 0 -136.5 -42.5t-92 -112
t-32.5 -147.5q0 -82 40.5 -128.5t118.5 -46.5t137.5 42.5zM466 631h-228l5 28h228z" />
    <glyph glyph-name="Ohungarumlaut" unicode="&#x150;" horiz-adv-x="746" 
d="M178 23.5q-59 34.5 -91 98.5t-32 152q0 119 56 223t150.5 166.5t205.5 62.5q80 0 139.5 -34.5t91.5 -98.5t32 -152q0 -118 -56 -222.5t-151 -167t-206 -62.5q-80 0 -139 34.5zM505 75.5q87 58.5 139 156.5t52 208q0 121 -61 189.5t-170 68.5q-99 0 -185.5 -58
t-138.5 -155.5t-52 -208.5q0 -121 60.5 -190t169.5 -69q99 0 186 58.5zM451 799h-29l89 127h41zM578 799h-29l89 127h41z" />
    <glyph glyph-name="ohungarumlaut" unicode="&#x151;" horiz-adv-x="544" 
d="M79.5 42.5q-50.5 53.5 -50.5 149.5q0 85 37.5 160t104.5 120.5t153 45.5q88 0 138.5 -53.5t50.5 -149.5q0 -85 -37.5 -160t-104.5 -120.5t-153 -45.5q-88 0 -138.5 53.5zM357.5 57.5q59.5 42.5 91.5 111.5t32 147q0 82 -40.5 129t-118.5 47q-77 0 -136.5 -42.5t-92 -112
t-32.5 -147.5q0 -82 40.5 -128.5t118.5 -46.5t137.5 42.5zM304 594h-29l89 127h41zM431 594h-29l89 127h41z" />
    <glyph glyph-name="OE" unicode="&#x152;" horiz-adv-x="1085" 
d="M1131 687h-428l-57 -293h393l-6 -28h-393l-66 -338h438l-5 -28h-470l36 185q-52 -89 -130.5 -142.5t-164.5 -53.5q-68 0 -118.5 34t-77.5 96.5t-27 146.5q0 118 51 224t136.5 171t183.5 65q87 0 142 -52t72 -146l36 187h460zM417.5 60.5q66.5 43.5 116 118t69.5 163.5
l7 35q6 36 6 73q0 114 -52.5 181t-141.5 67q-86 0 -163 -61t-124 -160.5t-47 -208.5q0 -77 24 -133.5t67.5 -87t101.5 -30.5q70 0 136.5 43.5z" />
    <glyph glyph-name="oe" unicode="&#x153;" horiz-adv-x="959" 
d="M890.5 469q44.5 -49 44.5 -133q0 -32 -8 -74v-2h-419q-4 -27 -4 -61q0 -84 36 -134.5t117 -50.5q53 0 96.5 21.5t72 54t41.5 64.5h31q-31 -74 -95 -120t-147 -46q-80 0 -126.5 45.5t-55.5 127.5q-36 -78 -103.5 -125t-152.5 -47q-90 0 -139.5 52t-49.5 143q0 89 37 165.5
t103 122.5t151 46q81 0 129.5 -42.5t57.5 -118.5q36 74 102 117.5t149 43.5q88 0 132.5 -49zM356.5 57.5q58.5 42.5 90.5 112.5t32 149q0 80 -42.5 126.5t-121.5 46.5q-75 0 -133.5 -42.5t-90.5 -112.5t-32 -149q0 -80 42.5 -126.5t121.5 -46.5q75 0 133.5 42.5zM901 286
q4 32 4 49q0 69 -35 113t-115 44q-91 0 -155 -56.5t-86 -149.5h387z" />
    <glyph glyph-name="Racute" unicode="&#x154;" horiz-adv-x="626" 
d="M33 0l139 715h263q90 0 140 -39.5t50 -117.5q0 -84 -53.5 -142t-142.5 -78v-2q64 -13 87.5 -59.5t23.5 -114.5q0 -37 -5 -77q-1 -10 -2 -22.5t-1 -25.5q0 -28 11 -31l-1 -6h-33q-7 6 -7 28q0 13 1 25.5t2 22.5q5 60 5 79q0 76 -31.5 122.5t-117.5 46.5h-233l-63 -324h-32
zM347 352q72 0 128 26.5t87 73t31 106.5q0 67 -40.5 98t-124.5 31h-229l-65 -335h213zM430 803h-29l89 127h41z" />
    <glyph glyph-name="racute" unicode="&#x155;" horiz-adv-x="302" 
d="M344 513l-5 -26q-24 3 -37 3q-41 0 -81.5 -21t-70.5 -58.5t-41 -85.5l-63 -325h-30l99 510h30l-20 -103h1q27 49 74.5 79.5t102.5 30.5q26 0 41 -4zM271 598h-29l89 127h41z" />
    <glyph glyph-name="uni0156" unicode="&#x156;" horiz-adv-x="626" 
d="M33 0l139 715h263q90 0 140 -39.5t50 -117.5q0 -84 -53.5 -142t-142.5 -78v-2q64 -13 87.5 -59.5t23.5 -114.5q0 -37 -5 -77q-1 -10 -2 -22.5t-1 -25.5q0 -28 11 -31l-1 -6h-33q-7 6 -7 28q0 13 1 25.5t2 22.5q5 60 5 79q0 76 -31.5 122.5t-117.5 46.5h-233l-63 -324h-32
zM347 352q72 0 128 26.5t87 73t31 106.5q0 67 -40.5 98t-124.5 31h-229l-65 -335h213zM241 -47h55l-10 -55q-9 -47 -23.5 -70t-52.5 -36l5 27q19 7 28.5 24.5t16.5 54.5h-29z" />
    <glyph glyph-name="uni0157" unicode="&#x157;" horiz-adv-x="302" 
d="M344 513l-5 -26q-24 3 -37 3q-41 0 -81.5 -21t-70.5 -58.5t-41 -85.5l-63 -325h-30l99 510h30l-20 -103h1q27 49 74.5 79.5t102.5 30.5q26 0 41 -4zM-6 -47h55l-10 -55q-9 -47 -23.5 -70t-52.5 -36l5 27q19 7 28.5 24.5t16.5 54.5h-29z" />
    <glyph glyph-name="Rcaron" unicode="&#x158;" horiz-adv-x="626" 
d="M33 0l139 715h263q90 0 140 -39.5t50 -117.5q0 -84 -53.5 -142t-142.5 -78v-2q64 -13 87.5 -59.5t23.5 -114.5q0 -37 -5 -77q-1 -10 -2 -22.5t-1 -25.5q0 -28 11 -31l-1 -6h-33q-7 6 -7 28q0 13 1 25.5t2 22.5q5 60 5 79q0 76 -31.5 122.5t-117.5 46.5h-233l-63 -324h-32
zM347 352q72 0 128 26.5t87 73t31 106.5q0 67 -40.5 98t-124.5 31h-229l-65 -335h213zM432 805h-37l-63 121h36l48 -98h1l87 98h40z" />
    <glyph glyph-name="rcaron" unicode="&#x159;" horiz-adv-x="302" 
d="M344 513l-5 -26q-24 3 -37 3q-41 0 -81.5 -21t-70.5 -58.5t-41 -85.5l-63 -325h-30l99 510h30l-20 -103h1q27 49 74.5 79.5t102.5 30.5q26 0 41 -4zM273 600h-37l-63 121h36l48 -98h1l87 98h40z" />
    <glyph glyph-name="Sacute" unicode="&#x15a;" horiz-adv-x="590" 
d="M160.5 13.5q-60.5 24.5 -96.5 73.5t-36 118q0 16 1 25h32q-1 -7 -1 -21q0 -62 31 -105.5t83.5 -65t117.5 -21.5q94 0 158 40.5t64 123.5q0 46 -21.5 75.5t-62.5 52.5t-135 64q-98 43 -140.5 83t-42.5 104q0 84 65 125t157 41q103 0 164.5 -49t61.5 -140q0 -16 -1 -24h-31
q6 92 -46 138.5t-149 46.5q-81 0 -134.5 -33.5t-53.5 -105.5q0 -43 20.5 -71t57.5 -48.5t110 -51.5q78 -33 122.5 -60.5t68 -63.5t23.5 -87q0 -90 -71 -139t-182 -49q-73 0 -133.5 24.5zM421 803h-29l89 127h41z" />
    <glyph glyph-name="sacute" unicode="&#x15b;" horiz-adv-x="457" 
d="M113 9.5q-49 20.5 -77 59.5t-28 91h30q0 -45 25.5 -78t67.5 -50t92 -17q67 0 111 30.5t44 86.5q0 31 -19 53t-50.5 37.5t-85.5 34.5q-56 20 -86 34.5t-49.5 38.5t-19.5 62q0 61 49.5 93.5t120.5 32.5q55 0 97 -19.5t65 -52t23 -72.5h-30q0 53 -44.5 85.5t-109.5 32.5
q-57 0 -99.5 -25t-42.5 -74q0 -32 17.5 -51.5t40.5 -29.5t79 -30q66 -24 102 -43t53.5 -44t17.5 -61q0 -71 -52 -108t-133 -37q-60 0 -109 20.5zM300 602h-29l89 127h41z" />
    <glyph glyph-name="Scircumflex" unicode="&#x15c;" horiz-adv-x="590" 
d="M160.5 13.5q-60.5 24.5 -96.5 73.5t-36 118q0 16 1 25h32q-1 -7 -1 -21q0 -62 31 -105.5t83.5 -65t117.5 -21.5q94 0 158 40.5t64 123.5q0 46 -21.5 75.5t-62.5 52.5t-135 64q-98 43 -140.5 83t-42.5 104q0 84 65 125t157 41q103 0 164.5 -49t61.5 -140q0 -16 -1 -24h-31
q6 92 -46 138.5t-149 46.5q-81 0 -134.5 -33.5t-53.5 -105.5q0 -43 20.5 -71t57.5 -48.5t110 -51.5q78 -33 122.5 -60.5t68 -63.5t23.5 -87q0 -90 -71 -139t-182 -49q-73 0 -133.5 24.5zM334 809h-40l112 121h37l63 -121h-36l-48 98h-1z" />
    <glyph glyph-name="scircumflex" unicode="&#x15d;" horiz-adv-x="457" 
d="M113 9.5q-49 20.5 -77 59.5t-28 91h30q0 -45 25.5 -78t67.5 -50t92 -17q67 0 111 30.5t44 86.5q0 31 -19 53t-50.5 37.5t-85.5 34.5q-56 20 -86 34.5t-49.5 38.5t-19.5 62q0 61 49.5 93.5t120.5 32.5q55 0 97 -19.5t65 -52t23 -72.5h-30q0 53 -44.5 85.5t-109.5 32.5
q-57 0 -99.5 -25t-42.5 -74q0 -32 17.5 -51.5t40.5 -29.5t79 -30q66 -24 102 -43t53.5 -44t17.5 -61q0 -71 -52 -108t-133 -37q-60 0 -109 20.5zM213 608h-40l112 121h37l63 -121h-36l-48 98h-1z" />
    <glyph glyph-name="Scedilla" unicode="&#x15e;" horiz-adv-x="590" 
d="M528 513q6 92 -46 138.5t-149 46.5q-81 0 -134.5 -33.5t-53.5 -105.5q0 -43 20.5 -71t57.5 -48.5t110 -51.5q78 -33 122.5 -60.5t68 -63.5t23.5 -87q0 -90 -71 -139t-182 -49h-17l-42 -42v-2q15 3 28 3q26 0 39.5 -13t13.5 -34q0 -38 -30.5 -62t-78.5 -24q-51 0 -90 27
l16 17q32 -20 73 -20q35 0 56.5 15.5t21.5 41.5q0 29 -41 29q-25 0 -49 -11l-9 15l63 63q-97 11 -158.5 66t-61.5 148q0 16 1 24h32q-1 -7 -1 -21q0 -62 31 -105.5t83.5 -65t117.5 -21.5q94 0 158 40.5t64 123.5q0 46 -21.5 75.5t-62.5 52.5t-135 64q-98 43 -140.5 83
t-42.5 104q0 84 65 125t157 41q103 0 164.5 -49t61.5 -140q0 -16 -1 -24h-31z" />
    <glyph glyph-name="scedilla" unicode="&#x15f;" horiz-adv-x="457" 
d="M336 239q36 -19 53.5 -44t17.5 -61q0 -71 -52 -108t-133 -37q-13 0 -19 1l-43 -43v-2q15 3 28 3q26 0 39.5 -13t13.5 -34q0 -38 -30.5 -62t-78.5 -24q-51 0 -90 27l16 17q32 -20 73 -20q35 0 56.5 15.5t21.5 41.5q0 29 -41 29q-25 0 -49 -11l-9 15l64 64q-74 12 -120 56
t-46 111h30q0 -45 25.5 -78t67.5 -50t92 -17q67 0 111 30.5t44 86.5q0 31 -19 53t-50.5 37.5t-85.5 34.5q-56 20 -86 34.5t-49.5 38.5t-19.5 62q0 61 49.5 93.5t120.5 32.5q55 0 97 -19.5t65 -52t23 -72.5h-30q0 53 -44.5 85.5t-109.5 32.5q-57 0 -99.5 -25t-42.5 -74
q0 -32 17.5 -51.5t40.5 -29.5t79 -30q66 -24 102 -43z" />
    <glyph glyph-name="Scaron" unicode="&#x160;" horiz-adv-x="590" 
d="M160.5 13.5q-60.5 24.5 -96.5 73.5t-36 118q0 16 1 25h32q-1 -7 -1 -21q0 -62 31 -105.5t83.5 -65t117.5 -21.5q94 0 158 40.5t64 123.5q0 46 -21.5 75.5t-62.5 52.5t-135 64q-98 43 -140.5 83t-42.5 104q0 84 65 125t157 41q103 0 164.5 -49t61.5 -140q0 -16 -1 -24h-31
q6 92 -46 138.5t-149 46.5q-81 0 -134.5 -33.5t-53.5 -105.5q0 -43 20.5 -71t57.5 -48.5t110 -51.5q78 -33 122.5 -60.5t68 -63.5t23.5 -87q0 -90 -71 -139t-182 -49q-73 0 -133.5 24.5zM423 805h-37l-63 121h36l48 -98h1l87 98h40z" />
    <glyph glyph-name="scaron" unicode="&#x161;" horiz-adv-x="457" 
d="M113 9.5q-49 20.5 -77 59.5t-28 91h30q0 -45 25.5 -78t67.5 -50t92 -17q67 0 111 30.5t44 86.5q0 31 -19 53t-50.5 37.5t-85.5 34.5q-56 20 -86 34.5t-49.5 38.5t-19.5 62q0 61 49.5 93.5t120.5 32.5q55 0 97 -19.5t65 -52t23 -72.5h-30q0 53 -44.5 85.5t-109.5 32.5
q-57 0 -99.5 -25t-42.5 -74q0 -32 17.5 -51.5t40.5 -29.5t79 -30q66 -24 102 -43t53.5 -44t17.5 -61q0 -71 -52 -108t-133 -37q-60 0 -109 20.5zM302 604h-37l-63 121h36l48 -98h1l87 98h40z" />
    <glyph glyph-name="uni0162" unicode="&#x162;" horiz-adv-x="567" 
d="M249 0h-32l134 687h-255l5 28h542l-5 -28h-255zM78 -158l16 17q32 -20 73 -20q35 0 56.5 15.5t21.5 41.5q0 29 -41 29q-25 0 -49 -11l-9 15l71 71h32l-53 -53v-2q15 3 28 3q26 0 39.5 -13t13.5 -34q0 -38 -30.5 -62t-78.5 -24q-51 0 -90 27z" />
    <glyph glyph-name="uni0163" unicode="&#x163;" horiz-adv-x="246" 
d="M160 484l-70 -359q-6 -31 -6 -52q0 -28 15 -38.5t52 -10.5q9 0 33 2l-5 -25q-21 -3 -37 -3h-12l-39 -39v-2q15 3 28 3q26 0 39.5 -13t13.5 -34q0 -38 -30.5 -62t-78.5 -24q-51 0 -90 27l16 17q32 -20 73 -20q35 0 56.5 15.5t21.5 41.5q0 29 -41 29q-25 0 -49 -11l-9 15
l61 61q-25 5 -37 20.5t-12 46.5q0 21 6 51l71 364h-75l5 26h75l33 170h30l-33 -170h113l-5 -26h-113z" />
    <glyph glyph-name="Tcaron" unicode="&#x164;" horiz-adv-x="567" 
d="M249 0h-32l134 687h-255l5 28h542l-5 -28h-255zM407 805h-37l-63 121h36l48 -98h1l87 98h40z" />
    <glyph glyph-name="tcaron" unicode="&#x165;" horiz-adv-x="246" 
d="M300 715h36l-72 -144h-24zM198 680l-33 -170h113l-5 -26h-113l-70 -359q-6 -31 -6 -52q0 -28 15 -38.5t52 -10.5q9 0 33 2l-5 -25q-21 -3 -37 -3q-47 0 -68 15.5t-21 55.5q0 21 6 51l71 364h-75l5 26h75l33 170h30z" />
    <glyph glyph-name="Tbar" unicode="&#x166;" horiz-adv-x="567" 
d="M643 715l-5 -28h-255l-59 -303h196l-5 -28h-197l-69 -356h-32l69 356h-179l5 28h180l59 303h-255l5 28h542z" />
    <glyph glyph-name="tbar" unicode="&#x167;" horiz-adv-x="254" 
d="M275 484h-113l-28 -141h114l-5 -26h-114l-37 -192q-6 -31 -6 -52q0 -28 15 -38.5t52 -10.5q9 0 33 2l-5 -25q-21 -3 -37 -3q-47 0 -68 15.5t-21 55.5q0 21 6 51l38 197h-74l5 26h74l28 141h-75l5 26h75l33 170h30l-33 -170h113z" />
    <glyph glyph-name="Utilde" unicode="&#x168;" horiz-adv-x="668" 
d="M67 170q0 33 8 78l91 467h32l-91 -467q-9 -43 -9 -79q0 -77 44.5 -114.5t139.5 -37.5q114 0 183.5 57.5t91.5 173.5l91 467h32l-91 -467q-50 -259 -307 -259q-215 0 -215 181zM296 798q10 38 31.5 58.5t50.5 20.5q20 0 35 -7.5t35 -22.5q15 -12 26 -17.5t23 -5.5
q33 0 47 53h30q-10 -39 -31 -59t-50 -20q-19 0 -33 7.5t-32 21.5q-17 12 -27.5 18t-24.5 6q-18 0 -30 -12.5t-20 -40.5h-30z" />
    <glyph glyph-name="utilde" unicode="&#x169;" horiz-adv-x="511" 
d="M460 510h30l-99 -510h-30l20 101h-2q-36 -48 -89 -78.5t-122 -30.5q-59 0 -95 30.5t-36 87.5q0 19 4 38l70 362h30l-70 -362q-4 -24 -4 -36q0 -42 25 -68t84 -26q53 0 99.5 24t78.5 60.5t41 70.5zM181 593q10 38 31.5 58.5t50.5 20.5q20 0 35 -7.5t35 -22.5
q15 -12 26 -17.5t23 -5.5q33 0 47 53h30q-10 -39 -31 -59t-50 -20q-19 0 -33 7.5t-32 21.5q-17 12 -27.5 18t-24.5 6q-18 0 -30 -12.5t-20 -40.5h-30z" />
    <glyph glyph-name="Umacron" unicode="&#x16a;" horiz-adv-x="668" 
d="M67 170q0 33 8 78l91 467h32l-91 -467q-9 -43 -9 -79q0 -77 44.5 -114.5t139.5 -37.5q114 0 183.5 57.5t91.5 173.5l91 467h32l-91 -467q-50 -259 -307 -259q-215 0 -215 181zM554 836h-228l5 28h228z" />
    <glyph glyph-name="umacron" unicode="&#x16b;" horiz-adv-x="511" 
d="M460 510h30l-99 -510h-30l20 101h-2q-36 -48 -89 -78.5t-122 -30.5q-59 0 -95 30.5t-36 87.5q0 19 4 38l70 362h30l-70 -362q-4 -24 -4 -36q0 -42 25 -68t84 -26q53 0 99.5 24t78.5 60.5t41 70.5zM439 631h-228l5 28h228z" />
    <glyph glyph-name="Ubreve" unicode="&#x16c;" horiz-adv-x="668" 
d="M67 170q0 33 8 78l91 467h32l-91 -467q-9 -43 -9 -79q0 -77 44.5 -114.5t139.5 -37.5q114 0 183.5 57.5t91.5 173.5l91 467h32l-91 -467q-50 -259 -307 -259q-215 0 -215 181zM372.5 835q-25.5 27 -25.5 68q0 11 1 17h25q-2 -36 16 -61t55 -25q38 0 65.5 24.5t40.5 61.5
h31q-13 -48 -50.5 -80t-88.5 -32q-44 0 -69.5 27z" />
    <glyph glyph-name="ubreve" unicode="&#x16d;" horiz-adv-x="511" 
d="M460 510h30l-99 -510h-30l20 101h-2q-36 -48 -89 -78.5t-122 -30.5q-59 0 -95 30.5t-36 87.5q0 19 4 38l70 362h30l-70 -362q-4 -24 -4 -36q0 -42 25 -68t84 -26q53 0 99.5 24t78.5 60.5t41 70.5zM257.5 630q-25.5 27 -25.5 68q0 11 1 17h25q-2 -36 16 -61t55 -25
q38 0 65.5 24.5t40.5 61.5h31q-13 -48 -50.5 -80t-88.5 -32q-44 0 -69.5 27z" />
    <glyph glyph-name="Uring" unicode="&#x16e;" horiz-adv-x="668" 
d="M67 170q0 33 8 78l91 467h32l-91 -467q-9 -43 -9 -79q0 -77 44.5 -114.5t139.5 -37.5q114 0 183.5 57.5t91.5 173.5l91 467h32l-91 -467q-50 -259 -307 -259q-215 0 -215 181zM383 785.5q-19 17.5 -19 45.5q0 40 29.5 68.5t69.5 28.5q31 0 49.5 -17.5t18.5 -45.5
q0 -40 -29 -68.5t-70 -28.5q-30 0 -49 17.5zM485.5 812q19.5 20 19.5 50q0 19 -12 30.5t-34 11.5q-29 0 -49 -20t-20 -50q0 -19 12 -30.5t35 -11.5q29 0 48.5 20z" />
    <glyph glyph-name="uring" unicode="&#x16f;" horiz-adv-x="511" 
d="M460 510h30l-99 -510h-30l20 101h-2q-36 -48 -89 -78.5t-122 -30.5q-59 0 -95 30.5t-36 87.5q0 19 4 38l70 362h30l-70 -362q-4 -24 -4 -36q0 -42 25 -68t84 -26q53 0 99.5 24t78.5 60.5t41 70.5zM268 580.5q-19 17.5 -19 45.5q0 40 29.5 68.5t69.5 28.5q31 0 49.5 -17.5
t18.5 -45.5q0 -40 -29 -68.5t-70 -28.5q-30 0 -49 17.5zM370.5 607q19.5 20 19.5 50q0 19 -12 30.5t-34 11.5q-29 0 -49 -20t-20 -50q0 -19 12 -30.5t35 -11.5q29 0 48.5 20z" />
    <glyph glyph-name="Uhungarumlaut" unicode="&#x170;" horiz-adv-x="668" 
d="M67 170q0 33 8 78l91 467h32l-91 -467q-9 -43 -9 -79q0 -77 44.5 -114.5t139.5 -37.5q114 0 183.5 57.5t91.5 173.5l91 467h32l-91 -467q-50 -259 -307 -259q-215 0 -215 181zM392 799h-29l89 127h41zM519 799h-29l89 127h41z" />
    <glyph glyph-name="uhungarumlaut" unicode="&#x171;" horiz-adv-x="511" 
d="M460 510h30l-99 -510h-30l20 101h-2q-36 -48 -89 -78.5t-122 -30.5q-59 0 -95 30.5t-36 87.5q0 19 4 38l70 362h30l-70 -362q-4 -24 -4 -36q0 -42 25 -68t84 -26q53 0 99.5 24t78.5 60.5t41 70.5zM277 594h-29l89 127h41zM404 594h-29l89 127h41z" />
    <glyph glyph-name="Uogonek" unicode="&#x172;" horiz-adv-x="668" 
d="M648 715h32l-91 -467q-43 -227 -248 -255q-89 -47 -89 -100q0 -19 13.5 -29.5t39.5 -10.5q27 0 54 10l-5 -24q-24 -11 -56 -11q-39 0 -58.5 16t-19.5 43q0 30 23 56t60 46h-21q-215 0 -215 181q0 33 8 78l91 467h32l-91 -467q-9 -43 -9 -79q0 -77 44.5 -114.5
t139.5 -37.5q114 0 183.5 57.5t91.5 173.5z" />
    <glyph glyph-name="uogonek" unicode="&#x173;" horiz-adv-x="511" 
d="M299.5 -137.5q13.5 -10.5 39.5 -10.5t54 10l-5 -24q-24 -11 -56 -11q-39 0 -58.5 16t-19.5 43q0 36 30 65t77 49l20 101h-2q-36 -48 -89 -78.5t-122 -30.5q-59 0 -95 30.5t-36 87.5q0 19 4 38l70 362h30l-70 -362q-4 -24 -4 -36q0 -42 25 -68t84 -26q53 0 99.5 24
t78.5 60.5t41 70.5l65 337h30l-99 -510q-105 -51 -105 -108q0 -19 13.5 -29.5z" />
    <glyph glyph-name="Wcircumflex" unicode="&#x174;" horiz-adv-x="836" 
d="M176 0h-37l-24 715h33l18 -670h2l317 670h38l60 -670h2l277 670h34l-302 -715h-35l-61 670h-2zM451 809h-40l112 121h37l63 -121h-36l-48 98h-1z" />
    <glyph glyph-name="wcircumflex" unicode="&#x175;" horiz-adv-x="700" 
d="M152 0h-40l-43 510h31l38 -473h2l237 473h40l45 -474h2l242 474h31l-261 -510h-39l-46 471h-3zM344 604h-40l112 121h37l63 -121h-36l-48 98h-1z" />
    <glyph glyph-name="Ycircumflex" unicode="&#x176;" horiz-adv-x="591" 
d="M261 0h-32l57 293l-181 422h35l166 -392h2l320 392h37l-347 -422zM331 809h-40l112 121h37l63 -121h-36l-48 98h-1z" />
    <glyph glyph-name="ycircumflex" unicode="&#x177;" horiz-adv-x="453" 
d="M-34 -177l5 27q22 -2 36 -2q42 0 74.5 32.5t80.5 117.5l-103 512h30l94 -471h2l271 471h33l-303 -524q-37 -65 -64.5 -99.5t-54.5 -50t-62 -15.5q-22 0 -39 2zM222 604h-40l112 121h37l63 -121h-36l-48 98h-1z" />
    <glyph glyph-name="Ydieresis" unicode="&#x178;" horiz-adv-x="591" 
d="M261 0h-32l57 293l-181 422h35l166 -392h2l320 392h37l-347 -422zM368 823h-56l11 55h56zM498 823h-56l11 55h56z" />
    <glyph glyph-name="Zacute" unicode="&#x179;" horiz-adv-x="554" 
d="M490 0h-528l5 28l606 657l1 2h-459l5 28h500l-5 -28l-607 -657l-1 -2h488zM408 803h-29l89 127h41z" />
    <glyph glyph-name="zacute" unicode="&#x17a;" horiz-adv-x="415" 
d="M350 0h-386l5 26l427 456v2h-322l5 26h360l-5 -26l-427 -456v-2h348zM289 598h-29l89 127h41z" />
    <glyph glyph-name="Zdotaccent" unicode="&#x17b;" horiz-adv-x="554" 
d="M490 0h-528l5 28l606 657l1 2h-459l5 28h500l-5 -28l-607 -657l-1 -2h488zM424 823h-56l11 55h56z" />
    <glyph glyph-name="zdotaccent" unicode="&#x17c;" horiz-adv-x="415" 
d="M350 0h-386l5 26l427 456v2h-322l5 26h360l-5 -26l-427 -456v-2h348zM305 618h-56l11 55h56z" />
    <glyph glyph-name="Zcaron" unicode="&#x17d;" horiz-adv-x="554" 
d="M490 0h-528l5 28l606 657l1 2h-459l5 28h500l-5 -28l-607 -657l-1 -2h488zM410 805h-37l-63 121h36l48 -98h1l87 98h40z" />
    <glyph glyph-name="zcaron" unicode="&#x17e;" horiz-adv-x="415" 
d="M350 0h-386l5 26l427 456v2h-322l5 26h360l-5 -26l-427 -456v-2h348zM291 600h-37l-63 121h36l48 -98h1l87 98h40z" />
    <glyph glyph-name="florin" unicode="&#x192;" horiz-adv-x="314" 
d="M367 718l-5 -25q-26 2 -36 2q-30 0 -47.5 -8t-28.5 -29.5t-19 -63.5l-26 -134h112v-26h-117l-78 -401q-10 -50 -23.5 -77t-33.5 -37.5t-50 -10.5q-24 0 -42 6l-1 25q18 -5 41 -5q25 0 39 8t23 30t18 66l77 396h-87v26h92l27 139q14 71 42 96.5t83 25.5q17 0 40 -3z" />
    <glyph glyph-name="uni0218" unicode="&#x218;" horiz-adv-x="590" 
d="M160.5 13.5q-60.5 24.5 -96.5 73.5t-36 118q0 16 1 25h32q-1 -7 -1 -21q0 -62 31 -105.5t83.5 -65t117.5 -21.5q94 0 158 40.5t64 123.5q0 46 -21.5 75.5t-62.5 52.5t-135 64q-98 43 -140.5 83t-42.5 104q0 84 65 125t157 41q103 0 164.5 -49t61.5 -140q0 -16 -1 -24h-31
q6 92 -46 138.5t-149 46.5q-81 0 -134.5 -33.5t-53.5 -105.5q0 -43 20.5 -71t57.5 -48.5t110 -51.5q78 -33 122.5 -60.5t68 -63.5t23.5 -87q0 -90 -71 -139t-182 -49q-73 0 -133.5 24.5zM235 -47h55l-10 -55q-9 -47 -23.5 -70t-52.5 -36l5 27q19 7 28.5 24.5t16.5 54.5h-29z
" />
    <glyph glyph-name="uni0219" unicode="&#x219;" horiz-adv-x="457" 
d="M113 9.5q-49 20.5 -77 59.5t-28 91h30q0 -45 25.5 -78t67.5 -50t92 -17q67 0 111 30.5t44 86.5q0 31 -19 53t-50.5 37.5t-85.5 34.5q-56 20 -86 34.5t-49.5 38.5t-19.5 62q0 61 49.5 93.5t120.5 32.5q55 0 97 -19.5t65 -52t23 -72.5h-30q0 53 -44.5 85.5t-109.5 32.5
q-57 0 -99.5 -25t-42.5 -74q0 -32 17.5 -51.5t40.5 -29.5t79 -30q66 -24 102 -43t53.5 -44t17.5 -61q0 -71 -52 -108t-133 -37q-60 0 -109 20.5zM160 -47h55l-10 -55q-9 -47 -23.5 -70t-52.5 -36l5 27q19 7 28.5 24.5t16.5 54.5h-29z" />
    <glyph glyph-name="uni021A" unicode="&#x21a;" horiz-adv-x="567" 
d="M249 0h-32l134 687h-255l5 28h542l-5 -28h-255zM196 -47h55l-10 -55q-9 -47 -23.5 -70t-52.5 -36l5 27q19 7 28.5 24.5t16.5 54.5h-29z" />
    <glyph glyph-name="uni021B" unicode="&#x21b;" horiz-adv-x="246" 
d="M160 484l-70 -359q-6 -31 -6 -52q0 -28 15 -38.5t52 -10.5q9 0 33 2l-5 -25q-21 -3 -37 -3q-47 0 -68 15.5t-21 55.5q0 21 6 51l71 364h-75l5 26h75l33 170h30l-33 -170h113l-5 -26h-113zM91 -35h55l-10 -55q-9 -47 -23.5 -70t-52.5 -36l5 27q19 7 28.5 24.5t16.5 54.5
h-29z" />
    <glyph glyph-name="uni0237" unicode="&#x237;" horiz-adv-x="162" 
d="M-104 -177l5 25q24 -2 32 -2q29 0 43.5 17t24.5 65l114 582h30l-113 -579q-12 -61 -36.5 -86t-60.5 -25q-18 0 -39 3z" />
    <glyph glyph-name="circumflex" unicode="&#x2c6;" horiz-adv-x="292" 
d="M141 604h-40l112 121h37l63 -121h-36l-48 98h-1z" />
    <glyph glyph-name="caron" unicode="&#x2c7;" horiz-adv-x="292" 
d="M231 604h-37l-63 121h36l48 -98h1l87 98h40z" />
    <glyph glyph-name="breve" unicode="&#x2d8;" horiz-adv-x="313" 
d="M155.5 630q-25.5 27 -25.5 68q0 11 1 17h25q-2 -36 16 -61t55 -25q38 0 65.5 24.5t40.5 61.5h31q-13 -48 -50.5 -80t-88.5 -32q-44 0 -69.5 27z" />
    <glyph glyph-name="dotaccent" unicode="&#x2d9;" horiz-adv-x="130" 
d="M162 618h-56l11 55h56z" />
    <glyph glyph-name="ring" unicode="&#x2da;" horiz-adv-x="242" 
d="M130 580.5q-19 17.5 -19 45.5q0 40 29.5 68.5t69.5 28.5q31 0 49.5 -17.5t18.5 -45.5q0 -40 -29 -68.5t-70 -28.5q-30 0 -49 17.5zM232.5 607q19.5 20 19.5 50q0 19 -12 30.5t-34 11.5q-29 0 -49 -20t-20 -50q0 -19 12 -30.5t35 -11.5q29 0 48.5 20z" />
    <glyph glyph-name="ogonek" unicode="&#x2db;" horiz-adv-x="225" 
d="M-14.5 -157q-19.5 16 -19.5 43q0 36 30 65t77 49h30q-105 -51 -105 -108q0 -19 13.5 -29.5t39.5 -10.5q27 0 54 10l-5 -24q-24 -11 -56 -11q-39 0 -58.5 16z" />
    <glyph glyph-name="tilde" unicode="&#x2dc;" horiz-adv-x="343" 
d="M94 597q10 38 31.5 58.5t50.5 20.5q20 0 35 -7.5t35 -22.5q15 -12 26 -17.5t23 -5.5q33 0 47 53h30q-10 -39 -31 -59t-50 -20q-19 0 -33 7.5t-32 21.5q-17 12 -27.5 18t-24.5 6q-18 0 -30 -12.5t-20 -40.5h-30z" />
    <glyph glyph-name="hungarumlaut" unicode="&#x2dd;" horiz-adv-x="317" 
d="M157 598h-29l89 127h41zM284 598h-29l89 127h41z" />
    <glyph glyph-name="gravecomb" unicode="&#x300;" 
d="M180 598h-26l-64 127h45z" />
    <glyph glyph-name="acutecomb" unicode="&#x301;" 
d="M157 598h-29l89 127h41z" />
    <glyph glyph-name="uni0302" unicode="&#x302;" 
d="M141 604h-40l112 121h37l63 -121h-36l-48 98h-1z" />
    <glyph glyph-name="tildecomb" unicode="&#x303;" 
d="M94 597q10 38 31.5 58.5t50.5 20.5q20 0 35 -7.5t35 -22.5q15 -12 26 -17.5t23 -5.5q33 0 47 53h30q-10 -39 -31 -59t-50 -20q-19 0 -33 7.5t-32 21.5q-17 12 -27.5 18t-24.5 6q-18 0 -30 -12.5t-20 -40.5h-30z" />
    <glyph glyph-name="uni0304" unicode="&#x304;" 
d="M335 631h-228l5 28h228z" />
    <glyph glyph-name="uni0306" unicode="&#x306;" 
d="M155.5 630q-25.5 27 -25.5 68q0 11 1 17h25q-2 -36 16 -61t55 -25q38 0 65.5 24.5t40.5 61.5h31q-13 -48 -50.5 -80t-88.5 -32q-44 0 -69.5 27z" />
    <glyph glyph-name="uni0307" unicode="&#x307;" 
d="M163 618h-56l11 55h56z" />
    <glyph glyph-name="uni0308" unicode="&#x308;" 
d="M168 618h-56l11 55h56zM298 618h-56l11 55h56z" />
    <glyph glyph-name="uni030A" unicode="&#x30a;" 
d="M130 580.5q-19 17.5 -19 45.5q0 40 29.5 68.5t69.5 28.5q31 0 49.5 -17.5t18.5 -45.5q0 -40 -29 -68.5t-70 -28.5q-30 0 -49 17.5zM232.5 607q19.5 20 19.5 50q0 19 -12 30.5t-34 11.5q-29 0 -49 -20t-20 -50q0 -19 12 -30.5t35 -11.5q29 0 48.5 20z" />
    <glyph glyph-name="uni030B" unicode="&#x30b;" 
d="M157 598h-29l89 127h41zM284 598h-29l89 127h41z" />
    <glyph glyph-name="uni030C" unicode="&#x30c;" 
d="M231 604h-37l-63 121h36l48 -98h1l87 98h40z" />
    <glyph glyph-name="uni0312" unicode="&#x312;" 
d="M176 735q-19 -7 -27.5 -22.5t-14.5 -46.5h29l-11 -55h-55l11 55q8 39 21.5 61t51.5 35z" />
    <glyph glyph-name="uni0326" unicode="&#x326;" 
d="M-22 -47h55l-10 -55q-9 -47 -23.5 -70t-52.5 -36l5 27q19 7 28.5 24.5t16.5 54.5h-29z" />
    <glyph glyph-name="uni0327" unicode="&#x327;" 
d="M-40 -158l16 17q32 -20 73 -20q35 0 56.5 15.5t21.5 41.5q0 29 -41 29q-25 0 -49 -11l-9 15l71 71h32l-53 -53v-2q15 3 28 3q26 0 39.5 -13t13.5 -34q0 -38 -30.5 -62t-78.5 -24q-51 0 -90 27z" />
    <glyph glyph-name="uni0328" unicode="&#x328;" 
d="M-36.5 -157q-19.5 16 -19.5 43q0 36 30 65t77 49h30q-105 -51 -105 -108q0 -19 13.5 -29.5t39.5 -10.5q27 0 54 10l-5 -24q-24 -11 -56 -11q-39 0 -58.5 16z" />
    <glyph glyph-name="uni0335" unicode="&#x335;" 
d="M467 356h-408l5 28h408z" />
    <glyph glyph-name="uni0336" unicode="&#x336;" 
d="M557 346h-500l5 28h500z" />
    <glyph glyph-name="uni0337" unicode="&#x337;" 
d="M587 500l-579 -509l-16 21l578 509z" />
    <glyph glyph-name="uni0338" unicode="&#x338;" 
d="M587 500l-579 -509l-16 21l578 509z" />
    <glyph glyph-name="uni0394" unicode="&#x394;" horiz-adv-x="623" 
d="M379 715h41l140 -688l-5 -27h-587l5 27zM394 678h-4l-385 -650h523z" />
    <glyph glyph-name="uni03A9" unicode="&#x3a9;" horiz-adv-x="767" 
d="M-9 0l6 28h195q-127 92 -127 261q0 113 54 213.5t148 162t209 61.5q85 0 145.5 -35t92 -97t31.5 -142q0 -45 -8 -84q-20 -108 -83 -195.5t-163 -144.5h190l-6 -28h-271l4 18q119 56 193.5 136.5t99.5 206.5q9 45 9 87q0 112 -61.5 181t-175.5 69q-105 0 -191.5 -59
t-135.5 -154t-49 -198q0 -97 42.5 -159.5t122.5 -109.5l-4 -18h-267z" />
    <glyph glyph-name="uni03BC" unicode="&#x3bc;" horiz-adv-x="511" 
d="M464 510h30l-99 -510h-30l20 101h-2q-34 -46 -88 -77.5t-120 -31.5q-91 0 -117 64l-46 -233h-30l133 687h30l-70 -362q-4 -24 -4 -35q0 -42 25 -68.5t82 -26.5q54 0 101.5 24t79 60t40.5 71z" />
    <glyph glyph-name="pi" unicode="&#x3c0;" horiz-adv-x="504" 
d="M453 484l-79 -404q-3 -15 -3 -27q0 -16 8 -23t27 -7q18 0 28 3l-5 -26q-9 -3 -27 -3q-31 0 -46 11.5t-15 40.5q0 13 3 31l79 404h-259l-94 -484h-30l94 484h-72l5 26h463l-5 -26h-72z" />
    <glyph glyph-name="uni0400" unicode="&#x400;" horiz-adv-x="581" 
d="M503 0h-470l139 715h460l-5 -28h-428l-57 -293h393l-6 -28h-393l-66 -338h438zM428 803h-26l-64 127h45z" />
    <glyph glyph-name="uni0401" unicode="&#x401;" horiz-adv-x="581" 
d="M503 0h-470l139 715h460l-5 -28h-428l-57 -293h393l-6 -28h-393l-66 -338h438zM395 823h-56l11 55h56zM525 823h-56l11 55h56z" />
    <glyph glyph-name="uni0402" unicode="&#x402;" horiz-adv-x="647" 
d="M391 -175l6 27q15 -4 40 -4q29 0 43.5 16.5t23.5 63.5l64 328q5 28 5 49q0 64 -36.5 100t-100.5 36q-88 0 -147.5 -50.5t-76.5 -134.5l-50 -256h-32l134 687h-169l5 28h408l-5 -28h-207l-61 -311h2q28 40 85 66t119 26q78 0 121.5 -39.5t43.5 -114.5q0 -26 -6 -58
l-67 -345q-9 -47 -36 -69t-63 -22q-25 0 -43 5z" />
    <glyph glyph-name="uni0403" unicode="&#x403;" horiz-adv-x="484" 
d="M64 0h-32l139 715h385l-5 -28h-354zM384 803h-29l89 127h41z" />
    <glyph glyph-name="uni0404" unicode="&#x404;" horiz-adv-x="679" 
d="M291.5 652q-73.5 -46 -123 -121.5t-69.5 -162.5h318l-5 -28h-318q-6 -34 -6 -70q0 -115 63 -184t174 -69q74 0 132 29.5t95.5 77t55.5 102.5h34q-20 -68 -64.5 -121.5t-110.5 -84.5t-148 -31q-80 0 -140 33.5t-92.5 96t-32.5 146.5q0 114 51.5 220.5t143.5 173.5t209 67
q72 0 124.5 -26.5t80 -72.5t28.5 -103h-34q0 46 -23.5 86t-70 64t-112.5 24q-86 0 -159.5 -46z" />
    <glyph glyph-name="uni0405" unicode="&#x405;" horiz-adv-x="590" 
d="M160.5 13.5q-60.5 24.5 -96.5 73.5t-36 118q0 16 1 25h32q-1 -7 -1 -21q0 -62 31 -105.5t83.5 -65t117.5 -21.5q94 0 158 40.5t64 123.5q0 46 -21.5 75.5t-62.5 52.5t-135 64q-98 43 -140.5 83t-42.5 104q0 84 65 125t157 41q103 0 164.5 -49t61.5 -140q0 -16 -1 -24h-31
q6 92 -46 138.5t-149 46.5q-81 0 -134.5 -33.5t-53.5 -105.5q0 -43 20.5 -71t57.5 -48.5t110 -51.5q78 -33 122.5 -60.5t68 -63.5t23.5 -87q0 -90 -71 -139t-182 -49q-73 0 -133.5 24.5z" />
    <glyph glyph-name="uni0406" unicode="&#x406;" horiz-adv-x="198" 
d="M65 0h-32l139 715h32z" />
    <glyph glyph-name="uni0407" unicode="&#x407;" horiz-adv-x="198" 
d="M65 0h-32l139 715h32zM171 823h-56l11 55h56zM301 823h-56l11 55h56z" />
    <glyph glyph-name="uni0408" unicode="&#x408;" horiz-adv-x="473" 
d="M41.5 28q-39.5 39 -39.5 105q0 28 5 49l6 29h32l-6 -29q-6 -27 -6 -50q0 -55 31 -85t89 -30q76 0 127.5 43t67.5 122l104 533h32l-104 -533q-17 -85 -75.5 -139t-149.5 -54q-74 0 -113.5 39z" />
    <glyph glyph-name="uni0409" unicode="&#x409;" horiz-adv-x="932" 
d="M-48 -3l5 28q26 -10 66 -10q35 0 58 24t35 79l136 597h339l-58 -296h176q93 0 142 -45.5t49 -119.5q0 -71 -31.5 -129t-92.5 -91.5t-146 -33.5h-210l134 687h-277l-133 -580q-14 -62 -46 -92t-85 -30q-40 0 -61 12zM623 28q113 0 178 60t65 160q0 64 -40.5 103.5
t-118.5 39.5h-179l-71 -363h166z" />
    <glyph glyph-name="uni040A" unicode="&#x40a;" horiz-adv-x="957" 
d="M32 0l139 715h32l-60 -310h379l60 310h32l-58 -310h176q99 0 145 -43.5t46 -119.5q0 -71 -31 -125.5t-92 -85.5t-147 -31h-210l73 377h-378l-74 -377h-32zM646 28q114 0 178.5 54.5t64.5 153.5q0 66 -38 103.5t-121 37.5h-179l-71 -349h166z" />
    <glyph glyph-name="uni040B" unicode="&#x40b;" horiz-adv-x="645" 
d="M130 0l134 687h-169l5 28h408l-5 -28h-207l-65 -332h2q28 40 85.5 66.5t119.5 26.5q77 0 120.5 -39.5t43.5 -113.5q0 -27 -6 -59l-46 -236h-32l46 236q5 28 5 49q0 64 -36.5 100t-100.5 36q-88 0 -147.5 -49.5t-76.5 -135.5l-46 -236h-32z" />
    <glyph glyph-name="uni040C" unicode="&#x40c;" horiz-adv-x="584" 
d="M631 715h42l-381 -372l244 -343h-38l-238 334h-131l-65 -334h-32l139 715h32l-69 -355h133zM418 803h-29l89 127h41z" />
    <glyph glyph-name="uni040D" unicode="&#x40d;" horiz-adv-x="706" 
d="M65 0h-31l138 715h32l-127 -658h2l602 658h31l-139 -715h-31l128 660h-2zM460 803h-26l-64 127h45z" />
    <glyph glyph-name="uni040E" unicode="&#x40e;" horiz-adv-x="560" 
d="M150 0h-36l136 204l-135 511h32l126 -474h2l316 474h37zM297.5 835q-25.5 27 -25.5 68q0 11 1 17h25q-2 -36 16 -61t55 -25q38 0 65.5 24.5t40.5 61.5h31q-13 -48 -50.5 -80t-88.5 -32q-44 0 -69.5 27z" />
    <glyph glyph-name="uni040F" unicode="&#x40f;" horiz-adv-x="655" 
d="M284 -130h-30l25 130h-247l139 715h31l-133 -687h427l133 687h32l-139 -715h-212z" />
    <glyph glyph-name="uni0410" unicode="&#x410;" horiz-adv-x="613" 
d="M-2 0h-35l413 715h37l139 -715h-34l-44 243h-337zM388 679l-235 -408h316l-79 408h-2z" />
    <glyph glyph-name="uni0411" unicode="&#x411;" horiz-adv-x="596" 
d="M32 0l139 715h415l-5 -28h-384l-52 -268h237q88 0 135 -40t47 -112q0 -71 -32 -132t-93.5 -98t-145.5 -37h-261zM296 28q72 0 125 32t81 85.5t28 115.5q0 61 -38.5 95.5t-111.5 34.5h-241l-70 -363h227z" />
    <glyph glyph-name="uni0412" unicode="&#x412;" horiz-adv-x="641" 
d="M33 0l139 715h267q88 0 137.5 -35.5t49.5 -101.5q0 -71 -40.5 -126t-112.5 -77v-2q56 -13 87 -48t31 -88q0 -70 -33.5 -123.5t-93.5 -83.5t-138 -30h-293zM409 389q50 0 92 24.5t66.5 66t24.5 91.5q0 54 -37.5 85t-109.5 31h-246l-58 -298h268zM328 28q68 0 120 26
t80.5 72.5t28.5 107.5q0 59 -40 93t-110 34h-272l-65 -333h258z" />
    <glyph glyph-name="uni0413" unicode="&#x413;" horiz-adv-x="484" 
d="M64 0h-32l139 715h385l-5 -28h-354z" />
    <glyph glyph-name="uni0414" unicode="&#x414;" horiz-adv-x="657" 
d="M-69 -130l31 157h49q43 0 73 42t55 138l128 508h390l-133 -688h52l-31 -157h-30l25 129h-553l-25 -129h-31zM83 27h409l128 660h-330l-131 -521q-26 -102 -76 -137v-2z" />
    <glyph glyph-name="uni0415" unicode="&#x415;" horiz-adv-x="581" 
d="M503 0h-470l139 715h460l-5 -28h-428l-57 -293h393l-6 -28h-393l-66 -338h438z" />
    <glyph glyph-name="uni0416" unicode="&#x416;" horiz-adv-x="847" 
d="M887 715h40l-340 -373l204 -342h-37l-198 334h-101l-65 -334h-32l65 334h-101l-328 -334h-44l348 350l-192 365h35l186 -355h101l69 355h32l-69 -355h103z" />
    <glyph glyph-name="uni0417" unicode="&#x417;" horiz-adv-x="564" 
d="M126.5 10q-52.5 22 -81.5 62.5t-29 94.5q0 9 2 27h34q-1 -7 -1 -21q0 -73 53 -115t142 -42q61 0 113.5 25t84 69t31.5 99q0 37 -20.5 68t-56 48.5t-77.5 17.5h-95l6 28h91q50 0 93.5 25t70 68t26.5 92q0 43 -21 75.5t-56 49.5t-76 17q-91 0 -152.5 -47.5t-83.5 -126.5
h-34q24 91 97 146.5t178 55.5q49 0 91 -20t66.5 -57.5t24.5 -86.5q0 -69 -43.5 -126t-112.5 -78l-1 -2q50 -11 84.5 -50t34.5 -91q0 -67 -36.5 -119t-96.5 -80t-128 -28q-69 0 -121.5 22z" />
    <glyph glyph-name="uni0418" unicode="&#x418;" horiz-adv-x="706" 
d="M65 0h-31l138 715h32l-127 -658h2l602 658h31l-139 -715h-31l128 660h-2z" />
    <glyph glyph-name="uni0419" unicode="&#x419;" horiz-adv-x="706" 
d="M65 0h-31l138 715h32l-127 -658h2l602 658h31l-139 -715h-31l128 660h-2zM393.5 835q-25.5 27 -25.5 68q0 11 1 17h25q-2 -36 16 -61t55 -25q38 0 65.5 24.5t40.5 61.5h31q-13 -48 -50.5 -80t-88.5 -32q-44 0 -69.5 27z" />
    <glyph glyph-name="uni041A" unicode="&#x41a;" horiz-adv-x="584" 
d="M631 715h42l-381 -372l244 -343h-38l-238 334h-131l-65 -334h-32l139 715h32l-69 -355h133z" />
    <glyph glyph-name="uni041B" unicode="&#x41b;" horiz-adv-x="616" 
d="M-48 -3l5 28q26 -10 66 -10q35 0 58 24t35 79l136 597h370l-139 -715h-32l134 687h-308l-133 -580q-14 -62 -46 -92t-85 -30q-40 0 -61 12z" />
    <glyph glyph-name="uni041C" unicode="&#x41c;" horiz-adv-x="827" 
d="M65 0h-32l139 715h45l151 -676h2l414 676h49l-139 -715h-32l130 668h-2l-411 -668h-32l-150 668h-2z" />
    <glyph glyph-name="uni041D" unicode="&#x41d;" horiz-adv-x="687" 
d="M65 0h-32l139 715h32l-62 -321h457l62 321h32l-139 -715h-32l71 366h-457z" />
    <glyph glyph-name="uni041E" unicode="&#x41e;" horiz-adv-x="746" 
d="M178 23.5q-59 34.5 -91 98.5t-32 152q0 119 56 223t150.5 166.5t205.5 62.5q80 0 139.5 -34.5t91.5 -98.5t32 -152q0 -118 -56 -222.5t-151 -167t-206 -62.5q-80 0 -139 34.5zM505 75.5q87 58.5 139 156.5t52 208q0 121 -61 189.5t-170 68.5q-99 0 -185.5 -58
t-138.5 -155.5t-52 -208.5q0 -121 60.5 -190t169.5 -69q99 0 186 58.5z" />
    <glyph glyph-name="uni041F" unicode="&#x41f;" horiz-adv-x="665" 
d="M64 0h-32l139 715h500l-139 -715h-31l133 687h-437z" />
    <glyph glyph-name="uni0420" unicode="&#x420;" horiz-adv-x="592" 
d="M33 0l139 715h254q94 0 143 -39t49 -125q0 -71 -33 -126t-94 -85.5t-144 -30.5h-222l-60 -309h-32zM352 337q69 0 122 27t82 76t29 112q0 71 -38.5 103t-116.5 32h-231l-68 -350h221z" />
    <glyph glyph-name="uni0421" unicode="&#x421;" horiz-adv-x="681" 
d="M123.5 63q-68.5 74 -68.5 207q0 119 54 224.5t147 168.5t204 63q109 0 169.5 -61t58.5 -161h-33q2 53 -18.5 97t-65.5 70.5t-111 26.5q-100 0 -185.5 -58.5t-136 -157t-50.5 -211.5q0 -119 58 -186.5t168 -67.5q74 0 135.5 31t103.5 83t61 115h34q-37 -116 -128 -186.5
t-209 -70.5q-119 0 -187.5 74z" />
    <glyph glyph-name="uni0422" unicode="&#x422;" horiz-adv-x="567" 
d="M249 0h-32l134 687h-255l5 28h542l-5 -28h-255z" />
    <glyph glyph-name="uni0423" unicode="&#x423;" horiz-adv-x="560" 
d="M150 0h-36l136 204l-135 511h32l126 -474h2l316 474h37z" />
    <glyph glyph-name="uni0424" unicode="&#x424;" horiz-adv-x="679" 
d="M619.5 252.5q-44.5 -67.5 -122 -105.5t-173.5 -41l-21 -106h-32l21 106q-113 4 -176 56t-63 140q0 85 43.5 153.5t120 109t172.5 44.5l21 106h32l-21 -106q115 -3 179 -56t64 -145q0 -88 -44.5 -155.5zM329 132q86 3 154.5 37.5t107.5 94.5t39 138q0 82 -56 130t-158 51z
M141.5 182.5q54.5 -46.5 155.5 -50.5l87 451q-86 -4 -153.5 -40.5t-105.5 -98t-38 -137.5q0 -78 54.5 -124.5z" />
    <glyph glyph-name="uni0425" unicode="&#x425;" horiz-adv-x="552" 
d="M-5 0h-42l325 370l-170 345h33l158 -320h1l283 320h41l-310 -350l187 -365h-32l-176 342h-1z" />
    <glyph glyph-name="uni0426" unicode="&#x426;" horiz-adv-x="659" 
d="M536 -130h-30l25 130h-499l139 715h31l-133 -687h427l133 687h32l-133 -687h39z" />
    <glyph glyph-name="uni0427" unicode="&#x427;" horiz-adv-x="549" 
d="M384 0l67 341h-2q-31 -39 -90 -66.5t-115 -27.5q-79 0 -122 36t-43 111q0 31 7 65l49 256h32l-49 -256q-6 -33 -6 -60q0 -125 138 -125q65 0 122.5 35t88.5 84l62 322h32l-139 -715h-32z" />
    <glyph glyph-name="uni0428" unicode="&#x428;" horiz-adv-x="821" 
d="M688 0h-655l138 715h32l-133 -687h280l133 687h32l-133 -687h280l133 687h32z" />
    <glyph glyph-name="uni0429" unicode="&#x429;" horiz-adv-x="825" 
d="M702 -130h-30l25 130h-664l138 715h32l-133 -687h280l133 687h32l-133 -687h280l133 687h32l-133 -687h39z" />
    <glyph glyph-name="uni042A" unicode="&#x42a;" horiz-adv-x="605" 
d="M93 0l134 687h-144l5 28h176l-58 -296h176q93 0 142 -45.5t49 -119.5q0 -71 -31.5 -129t-92.5 -91.5t-146 -33.5h-210zM296 28q113 0 178 60t65 160q0 64 -40.5 103.5t-118.5 39.5h-179l-71 -363h166z" />
    <glyph glyph-name="uni042B" unicode="&#x42b;" horiz-adv-x="699" 
d="M32 0l139 715h32l-58 -296h176q93 0 142 -45.5t49 -119.5q0 -71 -31.5 -129t-92.5 -91.5t-146 -33.5h-210zM566 0h-32l139 715h32zM235 28q113 0 178 60t65 160q0 64 -40.5 103.5t-118.5 39.5h-179l-71 -363h166z" />
    <glyph glyph-name="uni042C" unicode="&#x42c;" horiz-adv-x="574" 
d="M32 0l139 715h32l-58 -296h206q93 0 142 -45.5t49 -119.5q0 -71 -31.5 -129t-92.5 -91.5t-146 -33.5h-240zM265 28q113 0 178 60t65 160q0 64 -40.5 103.5t-118.5 39.5h-209l-71 -363h196z" />
    <glyph glyph-name="uni042D" unicode="&#x42d;" horiz-adv-x="680" 
d="M543.5 692q57.5 -34 89 -96t31.5 -143q0 -122 -50.5 -228.5t-140.5 -171t-201 -64.5q-82 0 -139.5 31t-85 85t-24.5 121h34l-1 -17q0 -51 23.5 -94.5t73.5 -70.5t125 -27q84 0 154 44t118 118t68 161h-319l5 28h320q7 38 7 80q0 74 -27 130.5t-78.5 88t-121.5 31.5
q-105 0 -178.5 -50t-101.5 -124h-34q34 89 119 145.5t200 56.5q77 0 134.5 -34z" />
    <glyph glyph-name="uni042E" unicode="&#x42e;" horiz-adv-x="883" 
d="M764.5 691.5q49.5 -34.5 76 -95t26.5 -135.5q0 -104 -40.5 -214t-121 -184.5t-192.5 -74.5q-73 0 -124.5 35.5t-78.5 98t-27 142.5q0 41 7 80h-159l-67 -344h-32l139 715h32l-66 -343h158q19 91 64 171.5t118.5 131.5t169.5 51q68 0 117.5 -34.5zM690 86.5
q71 70.5 107 174t36 199.5q0 68 -22.5 122t-66 85t-102.5 31q-105 0 -178.5 -69.5t-110 -170t-36.5 -192.5q0 -112 52.5 -181t148.5 -69q101 0 172 70.5z" />
    <glyph glyph-name="uni042F" unicode="&#x42f;" horiz-adv-x="585" 
d="M-4 6q7 9 14 30t14 45q20 67 40 115t58.5 88.5t97.5 51.5v2q-47 18 -82 61t-35 93q0 106 80.5 164.5t218.5 58.5h189l-139 -715h-32l63 321h-215q-65 0 -107 -38.5t-64 -89.5t-43 -123q-14 -51 -23 -70h-37zM488 349l66 338h-169q-82 0 -137.5 -25.5t-83 -68.5t-27.5 -95
q0 -41 20.5 -75.5t54 -54t70.5 -19.5h206z" />
    <glyph glyph-name="uni0430" unicode="&#x430;" horiz-adv-x="502" 
d="M47 19.5q-37 30.5 -37 89.5q0 51 28 80.5t69 42.5t108 26q66 13 106.5 25.5t68 39.5t27.5 74q0 50 -32 72.5t-91 22.5q-77 0 -121.5 -33t-59.5 -93h-32q16 64 67 108t146 44q73 0 112 -30.5t39 -90.5q0 -17 -5 -44l-49 -253q-6 -27 -6 -46q0 -17 8.5 -26t29.5 -9
q7 0 22 3l-5 -26q-13 -3 -26 -3q-59 0 -59 59q0 14 3 32h-2q-37 -47 -91 -71t-113 -24q-68 0 -105 30.5zM261.5 37.5q47.5 22.5 76.5 56t35 65.5l29 147q-26 -31 -68.5 -46.5t-118.5 -28.5q-60 -10 -94.5 -21t-57.5 -34.5t-23 -66.5q0 -94 115 -94q59 0 106.5 22.5z" />
    <glyph glyph-name="uni0431" unicode="&#x431;" horiz-adv-x="503" 
d="M82 38.5q-42 50.5 -42 136.5q0 77 25 175t84.5 179t154.5 100l94 19q42 9 76 28t38 40h33q-6 -31 -41.5 -55.5t-86.5 -35.5l-118 -24q-73 -15 -123.5 -82.5t-82.5 -154.5h2q33 76 91 115t134 39q71 0 113 -46t42 -128q0 -77 -29 -159.5t-90.5 -139.5t-152.5 -57
q-79 0 -121 50.5zM339 67q53 53 78.5 127.5t25.5 138.5q0 79 -36 118.5t-100 39.5q-72 0 -125.5 -47.5t-81.5 -120t-28 -143.5q0 -80 35 -123t101 -43q78 0 131 53z" />
    <glyph glyph-name="uni0432" unicode="&#x432;" horiz-adv-x="456" 
d="M16 0l100 510h170q62 0 97 -31t35 -88q0 -32 -16 -61t-41.5 -48t-50.5 -24v-2q36 -6 63.5 -34t27.5 -68q0 -67 -48 -110.5t-138 -43.5h-199zM262 271q31 0 59.5 15.5t46.5 42.5t18 60q0 95 -109 95h-136l-42 -213h163zM221 26q71 0 109.5 35t38.5 92q0 41 -32 66.5
t-84 25.5h-159l-43 -219h170z" />
    <glyph glyph-name="uni0433" unicode="&#x433;" horiz-adv-x="362" 
d="M46 0h-30l100 510h283l-5 -26h-253z" />
    <glyph glyph-name="uni0434" unicode="&#x434;" horiz-adv-x="476" 
d="M355 26h50l-30 -156h-30l26 130h-387l-25 -130h-26l30 156h20q23 0 43.5 25t30.5 63l107 396h286zM37 26h288l90 458h-230l-102 -375q-8 -31 -18 -49t-27 -32z" />
    <glyph glyph-name="uni0435" unicode="&#x435;" horiz-adv-x="519" 
d="M450.5 469q44.5 -49 44.5 -133q0 -32 -8 -74v-2h-419q-4 -27 -4 -61q0 -84 36 -134.5t117 -50.5q53 0 96.5 21.5t72 54t41.5 64.5h31q-31 -74 -95 -120t-147 -46q-89 0 -136.5 56.5t-47.5 154.5q0 88 37 161t102 115.5t147 42.5q88 0 132.5 -49zM461 286q4 32 4 49
q0 69 -35 113t-115 44q-91 0 -155 -56.5t-86 -149.5h387z" />
    <glyph glyph-name="uni0436" unicode="&#x436;" horiz-adv-x="570" 
d="M-2 0h-38l216 255l-118 255h32l111 -244h70l48 244h30l-48 -244h70l207 244h37l-225 -262l113 -248h-33l-107 240h-67l-47 -240h-30l47 240h-67z" />
    <glyph glyph-name="uni0437" unicode="&#x437;" horiz-adv-x="441" 
d="M45 27q-46 39 -39 121h32q-1 -6 -1 -18q0 -116 155 -116q72 0 116.5 38t44.5 101q0 42 -29.5 66.5t-80.5 24.5h-92l5 26h93q29 0 57 15t46 41.5t18 58.5q0 52 -32 79.5t-88 27.5q-65 0 -109.5 -33.5t-55.5 -91.5h-32q13 70 67.5 110.5t134.5 40.5q68 0 107.5 -32.5
t39.5 -92.5q0 -43 -25.5 -81t-69.5 -54v-1q37 -10 57.5 -37t20.5 -65q0 -77 -55 -122t-145 -45q-94 0 -140 39z" />
    <glyph glyph-name="uni0438" unicode="&#x438;" horiz-adv-x="530" 
d="M45 0h-29l100 510h29l-89 -459l428 459h30l-100 -510h-30l91 459z" />
    <glyph glyph-name="uni0439" unicode="&#x439;" horiz-adv-x="530" 
d="M45 0h-29l100 510h29l-89 -459l428 459h30l-100 -510h-30l91 459zM266.5 630q-25.5 27 -25.5 68q0 11 1 17h25q-2 -36 16 -61t55 -25q38 0 65.5 24.5t40.5 61.5h31q-13 -48 -50.5 -80t-88.5 -32q-44 0 -69.5 27z" />
    <glyph glyph-name="uni043A" unicode="&#x43a;" horiz-adv-x="423" 
d="M435 510h37l-253 -260l151 -250h-33l-147 240h-97l-47 -240h-30l100 510h30l-48 -244h100z" />
    <glyph glyph-name="uni043B" unicode="&#x43b;" horiz-adv-x="448" 
d="M-48 -6l6 27q19 -7 44 -7q42 0 53 47l109 449h268l-100 -510h-30l95 484h-211l-106 -433q-7 -30 -28.5 -46.5t-51.5 -16.5t-48 6z" />
    <glyph glyph-name="uni043C" unicode="&#x43c;" horiz-adv-x="624" 
d="M46 0h-30l100 510h30l126 -461h2l304 461h30l-100 -510h-30l86 439h-2l-289 -438h-20l-119 438h-2z" />
    <glyph glyph-name="uni043D" unicode="&#x43d;" horiz-adv-x="521" 
d="M427 266l48 244h30l-100 -510h-30l47 240h-329l-47 -240h-30l100 510h30l-48 -244h329z" />
    <glyph glyph-name="uni043E" unicode="&#x43e;" horiz-adv-x="544" 
d="M79.5 42.5q-50.5 53.5 -50.5 149.5q0 85 37.5 160t104.5 120.5t153 45.5q88 0 138.5 -53.5t50.5 -149.5q0 -85 -37.5 -160t-104.5 -120.5t-153 -45.5q-88 0 -138.5 53.5zM357.5 57.5q59.5 42.5 91.5 111.5t32 147q0 82 -40.5 129t-118.5 47q-77 0 -136.5 -42.5t-92 -112
t-32.5 -147.5q0 -82 40.5 -128.5t118.5 -46.5t137.5 42.5z" />
    <glyph glyph-name="uni043F" unicode="&#x43f;" horiz-adv-x="501" 
d="M46 0h-30l100 510h369l-100 -510h-30l95 484h-309z" />
    <glyph glyph-name="uni0440" unicode="&#x440;" horiz-adv-x="550" 
d="M472 467.5q47 -53.5 47 -151.5q0 -87 -37 -161.5t-100.5 -118.5t-140.5 -44q-73 0 -114 39t-52 103h-3l-61 -311h-30l134 687h30l-25 -128h3q38 64 97 101.5t126 37.5q79 0 126 -53.5zM367.5 58q55.5 40 87.5 108t32 148q0 86 -37.5 133.5t-105.5 47.5q-65 0 -123.5 -42
t-94.5 -111.5t-36 -147.5q0 -82 41 -129t114 -47q67 0 122.5 40z" />
    <glyph glyph-name="uni0441" unicode="&#x441;" horiz-adv-x="511" 
d="M82 45q-52 56 -52 156q0 87 38 160t104.5 115t148.5 42q89 0 135 -49.5t41 -125.5h-32q1 5 1 16q0 53 -35.5 93t-110.5 40q-71 0 -130.5 -38t-94.5 -104t-35 -146q0 -89 42.5 -139t124.5 -50q55 0 99 23t71 58t37 71h32q-13 -49 -47.5 -89.5t-85 -64.5t-109.5 -24
q-90 0 -142 56z" />
    <glyph glyph-name="uni0442" unicode="&#x442;" horiz-adv-x="439" 
d="M192 0h-30l95 484h-203l5 26h419l-5 -26h-186z" />
    <glyph glyph-name="uni0443" unicode="&#x443;" horiz-adv-x="453" 
d="M-34 -177l5 27q22 -2 36 -2q42 0 74.5 32.5t80.5 117.5l-103 512h30l94 -471h2l271 471h33l-303 -524q-37 -65 -64.5 -99.5t-54.5 -50t-62 -15.5q-22 0 -39 2z" />
    <glyph glyph-name="uni0444" unicode="&#x444;" horiz-adv-x="601" 
d="M531.5 156.5q-39.5 -74.5 -110.5 -119.5t-162 -49l-32 -165h-30l32 165q-96 4 -148 56.5t-52 142.5q0 85 37 159.5t105.5 121t160.5 50.5l38 197h30l-38 -197q99 -4 154 -56.5t55 -143.5q0 -87 -39.5 -161.5zM264 14q84 4 146.5 46.5t95.5 110t33 143.5q0 81 -47.5 127.5
t-134.5 50.5zM106.5 65q45.5 -47 127.5 -51l93 478q-79 -4 -139.5 -46t-93.5 -109t-33 -145q0 -80 45.5 -127z" />
    <glyph glyph-name="uni0445" unicode="&#x445;" horiz-adv-x="441" 
d="M-14 0h-40l259 264l-141 246h33l127 -228h2l215 228h38l-240 -250l155 -260h-33l-141 242h-2z" />
    <glyph glyph-name="uni0446" unicode="&#x446;" horiz-adv-x="504" 
d="M388 -130h-30l26 130h-368l100 510h30l-95 -484h309l95 484h30l-96 -484h29z" />
    <glyph glyph-name="uni0447" unicode="&#x447;" horiz-adv-x="460" 
d="M314 0l47 242h-2q-86 -67 -175 -67q-65 0 -101 31t-36 91q0 20 5 48l33 165h30l-33 -165q-5 -28 -5 -46q0 -98 116 -98q39 0 85 21t91 56l45 232h30l-100 -510h-30z" />
    <glyph glyph-name="uni0448" unicode="&#x448;" horiz-adv-x="660" 
d="M543 0h-527l100 510h30l-95 -484h219l95 484h30l-95 -484h219l95 484h30z" />
    <glyph glyph-name="uni0449" unicode="&#x449;" horiz-adv-x="663" 
d="M547 -130h-30l26 130h-527l100 510h30l-95 -484h219l95 484h30l-95 -484h219l95 484h30l-96 -484h29z" />
    <glyph glyph-name="uni044A" unicode="&#x44a;" horiz-adv-x="490" 
d="M73 0l95 484h-113l5 26h143l-43 -217h156q63 0 97.5 -32.5t34.5 -88.5q0 -79 -50 -125.5t-136 -46.5h-189zM268 26q68 0 108 39t40 106q0 45 -28 70.5t-81 25.5h-152l-47 -241h160z" />
    <glyph glyph-name="uni044B" unicode="&#x44b;" horiz-adv-x="545" 
d="M16 0l100 510h30l-43 -217h126q63 0 97.5 -32.5t34.5 -88.5q0 -79 -50 -125.5t-136 -46.5h-159zM429 0h-31l100 510h31zM181 26q68 0 108 39t40 106q0 45 -28 70.5t-81 25.5h-122l-47 -241h130z" />
    <glyph glyph-name="uni044C" unicode="&#x44c;" horiz-adv-x="433" 
d="M16 0l100 510h30l-43 -217h156q63 0 97.5 -32.5t34.5 -88.5q0 -79 -50 -125.5t-136 -46.5h-189zM211 26q68 0 108 39t40 106q0 45 -28 70.5t-81 25.5h-152l-47 -241h160z" />
    <glyph glyph-name="uni044D" unicode="&#x44d;" horiz-adv-x="504" 
d="M420.5 461q50.5 -57 50.5 -156q0 -75 -30.5 -148.5t-91.5 -121t-147 -47.5q-88 0 -139 45t-53 119h28q4 -64 48 -101t121 -37q63 0 110.5 33t77 84t40.5 107h-248l5 26h247q2 24 2 34q0 88 -44 141t-120 53q-71 0 -127 -36.5t-74 -87.5h-32q15 41 50 75t84 54.5t104 20.5
q88 0 138.5 -57z" />
    <glyph glyph-name="uni044E" unicode="&#x44e;" horiz-adv-x="653" 
d="M584.5 475q39.5 -47 39.5 -133q0 -75 -27 -157.5t-84 -139.5t-141 -57q-73 0 -114.5 48.5t-41.5 132.5q0 34 6 73h-129l-47 -242h-30l100 510h30l-47 -242h129q22 105 84 179.5t160 74.5q73 0 112.5 -47zM493.5 67q49.5 53 74 128.5t24.5 142.5q0 76 -32.5 117t-92.5 41
q-73 0 -122.5 -54t-73 -129.5t-23.5 -139.5q0 -75 32.5 -117t92.5 -42q71 0 120.5 53z" />
    <glyph glyph-name="uni044F" unicode="&#x44f;" horiz-adv-x="450" 
d="M-14 4l9 29q15 52 31 92.5t46.5 78t75.5 45.5v1q-29 5 -53.5 36t-24.5 67q0 77 54 117t142 40h168l-100 -510h-30l46 234h-157q-58 0 -94 -42t-48.5 -79t-32.5 -113h-33zM355 260l44 224h-142q-74 0 -114.5 -32t-40.5 -96q0 -42 26 -69t69 -27h158z" />
    <glyph glyph-name="uni0450" unicode="&#x450;" horiz-adv-x="519" 
d="M450.5 469q44.5 -49 44.5 -133q0 -32 -8 -74v-2h-419q-4 -27 -4 -61q0 -84 36 -134.5t117 -50.5q53 0 96.5 21.5t72 54t41.5 64.5h31q-31 -74 -95 -120t-147 -46q-89 0 -136.5 56.5t-47.5 154.5q0 88 37 161t102 115.5t147 42.5q88 0 132.5 -49zM461 286q4 32 4 49
q0 69 -35 113t-115 44q-91 0 -155 -56.5t-86 -149.5h387zM360 599h-26l-64 127h45z" />
    <glyph glyph-name="uni0451" unicode="&#x451;" horiz-adv-x="519" 
d="M450.5 469q44.5 -49 44.5 -133q0 -32 -8 -74v-2h-419q-4 -27 -4 -61q0 -84 36 -134.5t117 -50.5q53 0 96.5 21.5t72 54t41.5 64.5h31q-31 -74 -95 -120t-147 -46q-89 0 -136.5 56.5t-47.5 154.5q0 88 37 161t102 115.5t147 42.5q88 0 132.5 -49zM461 286q4 32 4 49
q0 69 -35 113t-115 44q-91 0 -155 -56.5t-86 -149.5h387zM327 619h-56l11 55h56zM457 619h-56l11 55h56z" />
    <glyph glyph-name="uni0452" unicode="&#x452;" horiz-adv-x="507" 
d="M200 -172l5 25q12 -3 31 -5t33 -2q67 0 82 76l81 425q5 27 5 45q0 100 -111 100q-52 0 -98 -23.5t-76.5 -59.5t-40.5 -72l-65 -337h-30l118 607h-70l5 26h70l16 82h30l-16 -82h157l-5 -26h-157l-38 -193h2q83 104 204 104q64 0 100.5 -30t36.5 -89q0 -17 -5 -44l-84 -433
q-10 -54 -38.5 -78t-76.5 -24q-28 0 -65 8z" />
    <glyph glyph-name="uni0453" unicode="&#x453;" horiz-adv-x="362" 
d="M46 0h-30l100 510h283l-5 -26h-253zM283 598h-29l89 127h41z" />
    <glyph glyph-name="uni0454" unicode="&#x454;" horiz-adv-x="499" 
d="M441.5 473q46.5 -45 45.5 -116h-32q2 59 -37.5 97t-107.5 38q-65 0 -116.5 -31t-84 -83t-42.5 -114h249l-5 -26h-247q-1 -8 -1 -25q0 -84 42.5 -141.5t130.5 -57.5q67 0 117.5 37t73.5 101h28q-26 -77 -82.5 -120.5t-141.5 -43.5q-67 0 -112 30t-66.5 79.5t-21.5 109.5
q0 81 36 152.5t101 115t147 43.5q80 0 126.5 -45z" />
    <glyph glyph-name="uni0455" unicode="&#x455;" horiz-adv-x="457" 
d="M113 9.5q-49 20.5 -77 59.5t-28 91h30q0 -45 25.5 -78t67.5 -50t92 -17q67 0 111 30.5t44 86.5q0 31 -19 53t-50.5 37.5t-85.5 34.5q-56 20 -86 34.5t-49.5 38.5t-19.5 62q0 61 49.5 93.5t120.5 32.5q55 0 97 -19.5t65 -52t23 -72.5h-30q0 53 -44.5 85.5t-109.5 32.5
q-57 0 -99.5 -25t-42.5 -74q0 -32 17.5 -51.5t40.5 -29.5t79 -30q66 -24 102 -43t53.5 -44t17.5 -61q0 -71 -52 -108t-133 -37q-60 0 -109 20.5z" />
    <glyph glyph-name="uni0456" unicode="&#x456;" horiz-adv-x="162" 
d="M46 0h-30l99 510h30zM179 618h-56l11 55h56z" />
    <glyph glyph-name="uni0457" unicode="&#x457;" horiz-adv-x="162" 
d="M138 618h-56l11 55h56zM218 618h-56l11 55h56zM46 0h-30l99 510h30z" />
    <glyph glyph-name="uni0458" unicode="&#x458;" horiz-adv-x="162" 
d="M-104 -177l5 25q24 -2 32 -2q29 0 43.5 17t24.5 65l114 582h30l-113 -579q-12 -61 -36.5 -86t-60.5 -25q-18 0 -39 3zM179 618h-56l11 55h56z" />
    <glyph glyph-name="uni0459" unicode="&#x459;" horiz-adv-x="664" 
d="M-48 -6l6 27q19 -7 44 -7q42 0 53 47l109 449h243l-43 -217h126q63 0 97.5 -32.5t34.5 -88.5q0 -79 -50 -125.5t-136 -46.5h-159l95 484h-186l-106 -433q-7 -30 -28.5 -46.5t-51.5 -16.5t-48 6zM442 26q68 0 108 39t40 106q0 45 -28 70.5t-81 25.5h-122l-47 -241h130z
" />
    <glyph glyph-name="uni045A" unicode="&#x45a;" horiz-adv-x="694" 
d="M517 284q63 0 98.5 -33t35.5 -89q0 -78 -49.5 -120t-136.5 -42h-159l51 258h-260l-51 -258h-30l100 510h30l-44 -226h260l44 226h30l-45 -226h126zM471 26q69 0 108.5 34.5t39.5 100.5q0 44 -27.5 70.5t-73.5 26.5h-132l-45 -232h130z" />
    <glyph glyph-name="uni045B" unicode="&#x45b;" horiz-adv-x="507" 
d="M432.5 488q36.5 -30 36.5 -89q0 -17 -5 -44l-69 -355h-30l67 347q5 27 5 45q0 100 -111 100q-52 0 -98 -23.5t-76.5 -59.5t-40.5 -72l-65 -337h-30l118 607h-70l5 26h70l16 82h30l-16 -82h157l-5 -26h-157l-38 -193h2q83 104 204 104q64 0 100.5 -30z" />
    <glyph glyph-name="uni045C" unicode="&#x45c;" horiz-adv-x="423" 
d="M435 510h37l-253 -260l151 -250h-33l-147 240h-97l-47 -240h-30l100 510h30l-48 -244h100zM298 598h-29l89 127h41z" />
    <glyph glyph-name="uni045D" unicode="&#x45d;" horiz-adv-x="530" 
d="M45 0h-29l100 510h29l-89 -459l428 459h30l-100 -510h-30l91 459zM333 598h-26l-64 127h45z" />
    <glyph glyph-name="uni045E" unicode="&#x45e;" horiz-adv-x="453" 
d="M-34 -177l5 27q22 -2 36 -2q42 0 74.5 32.5t80.5 117.5l-103 512h30l94 -471h2l271 471h33l-303 -524q-37 -65 -64.5 -99.5t-54.5 -50t-62 -15.5q-22 0 -39 2zM225.5 630q-25.5 27 -25.5 68q0 11 1 17h25q-2 -36 16 -61t55 -25q38 0 65.5 24.5t40.5 61.5h31
q-13 -48 -50.5 -80t-88.5 -32q-44 0 -69.5 27z" />
    <glyph glyph-name="uni045F" unicode="&#x45f;" horiz-adv-x="501" 
d="M200 -130h-30l26 130h-180l100 510h30l-95 -484h309l95 484h30l-101 -510h-159z" />
    <glyph glyph-name="uni0490" unicode="&#x490;" horiz-adv-x="478" 
d="M64 0h-32l139 715h349l20 99h30l-25 -127h-347z" />
    <glyph glyph-name="uni0491" unicode="&#x491;" horiz-adv-x="338" 
d="M46 0h-30l100 510h233l21 110h26l-26 -136h-230z" />
    <glyph glyph-name="uni0492" unicode="&#x492;" horiz-adv-x="506" 
d="M576 715l-5 -28h-354l-63 -324h229l-5 -26h-229l-65 -337h-32l66 337h-104l5 26h104l68 352h385z" />
    <glyph glyph-name="uni0493" unicode="&#x493;" horiz-adv-x="384" 
d="M420 510l-5 -26h-253l-42 -213h151l-5 -24h-151l-48 -247h-30l48 247h-89l5 24h89l47 239h283z" />
    <glyph glyph-name="uni0496" unicode="&#x496;" horiz-adv-x="847" 
d="M927 715l-340 -373l186 -312h30l-31 -160h-30l25 130h-13l-198 334h-101l-65 -334h-32l65 334h-101l-328 -334h-44l348 350l-192 365h35l186 -355h101l69 355h32l-69 -355h103l324 355h40z" />
    <glyph glyph-name="uni0497" unicode="&#x497;" horiz-adv-x="570" 
d="M615 510l-225 -262l99 -218h25l-31 -160h-26l25 130h-12l-107 240h-67l-47 -240h-30l47 240h-67l-201 -240h-38l216 255l-118 255h32l111 -244h70l48 244h30l-48 -244h70l207 244h37z" />
    <glyph glyph-name="uni049A" unicode="&#x49a;" horiz-adv-x="584" 
d="M292 343l223 -313h30l-31 -160h-30l25 130h-11l-238 334h-131l-65 -334h-32l139 715h32l-69 -355h133l364 355h42z" />
    <glyph glyph-name="uni049B" unicode="&#x49b;" horiz-adv-x="423" 
d="M472 510l-253 -260l133 -220h25l-31 -160h-26l25 130h-8l-147 240h-97l-47 -240h-30l100 510h30l-48 -244h100l237 244h37z" />
    <glyph glyph-name="uni04A2" unicode="&#x4a2;" horiz-adv-x="687" 
d="M661 715h32l-133 -685h15l-31 -160h-30l25 130h-17l71 366h-457l-71 -366h-32l139 715h32l-62 -321h457z" />
    <glyph glyph-name="uni04A3" unicode="&#x4a3;" horiz-adv-x="521" 
d="M475 510h30l-94 -480h19l-31 -160h-26l25 130h-23l47 240h-329l-47 -240h-30l100 510h30l-48 -244h329z" />
    <glyph glyph-name="uni04AE" unicode="&#x4ae;" horiz-adv-x="591" 
d="M261 0h-32l57 293l-181 422h35l166 -392h2l320 392h37l-347 -422z" />
    <glyph glyph-name="uni04AF" unicode="&#x4af;" horiz-adv-x="450" 
d="M160 -177h-30l42 217l-114 470h29l105 -430h1l260 430h35l-286 -470z" />
    <glyph glyph-name="uni04B0" unicode="&#x4b0;" horiz-adv-x="597" 
d="M668 715l-347 -422l-11 -55h168l-5 -26h-168l-41 -212h-32l41 212h-178l5 26h178l11 55l-181 422h35l166 -392h2l320 392h37z" />
    <glyph glyph-name="uni04B1" unicode="&#x4b1;" horiz-adv-x="450" 
d="M488 510l-286 -470l-13 -69h138l-5 -24h-138l-24 -124h-30l24 124h-142l5 24h142l13 69l-114 470h29l105 -430h1l260 430h35z" />
    <glyph glyph-name="uni04B2" unicode="&#x4b2;" horiz-adv-x="552" 
d="M624 715l-310 -350l172 -335h25l-31 -160h-30l25 130h-6l-176 342h-1l-297 -342h-42l325 370l-170 345h33l158 -320h1l283 320h41z" />
    <glyph glyph-name="uni04B3" unicode="&#x4b3;" horiz-adv-x="441" 
d="M239 260l138 -231v1h26l-31 -160h-26l25 130h-10l-141 242h-2l-232 -242h-40l259 264l-141 246h33l127 -228h2l215 228h38z" />
    <glyph glyph-name="uni04B6" unicode="&#x4b6;" horiz-adv-x="549" 
d="M555 715l-133 -685h21l-31 -160h-30l25 130h-23l67 341h-2q-31 -39 -90 -66.5t-115 -27.5q-79 0 -122 36t-43 111q0 31 7 65l49 256h32l-49 -256q-6 -33 -6 -60q0 -125 138 -125q65 0 122.5 35t88.5 84l62 322h32z" />
    <glyph glyph-name="uni04B7" unicode="&#x4b7;" horiz-adv-x="460" 
d="M444 510l-94 -480h14l-31 -160h-26l25 130h-18l47 242h-2q-86 -67 -175 -67q-65 0 -101 31t-36 91q0 20 5 48l33 165h30l-33 -165q-5 -28 -5 -46q0 -98 116 -98q39 0 85 21t91 56l45 232h30z" />
    <glyph glyph-name="uni04BA" unicode="&#x4ba;" horiz-adv-x="559" 
d="M32 0l140 717h32l-65 -335h2q28 41 85.5 68.5t118.5 27.5q84 0 129.5 -39.5t45.5 -114.5q0 -26 -6 -58l-52 -266h-32l52 266q5 28 5 49q0 64 -38 100t-109 36q-88 0 -147.5 -50.5t-76.5 -134.5l-52 -266h-32z" />
    <glyph glyph-name="uni04BB" unicode="&#x4bb;" horiz-adv-x="507" 
d="M432.5 488q36.5 -30 36.5 -89q0 -17 -5 -44l-69 -355h-30l67 347q5 27 5 45q0 100 -111 100q-52 0 -98 -23.5t-76.5 -59.5t-40.5 -72l-65 -337h-30l139 715h30l-59 -301h2q83 104 204 104q64 0 100.5 -30z" />
    <glyph glyph-name="uni04D8" unicode="&#x4d8;" horiz-adv-x="703" 
d="M621 651q63 -75 63 -211q0 -120 -47 -223.5t-135 -166t-204 -62.5q-86 0 -142 35t-82.5 93.5t-26.5 129.5q0 38 8 81q1 8 4 19t6 23h581q4 29 4 66q0 126 -56 194.5t-159 68.5q-66 0 -125.5 -24.5t-103 -67t-63.5 -93.5h-35q23 60 72 108.5t117 76.5t144 28
q117 0 180 -75zM463 59q71 43 117 117t62 165h-554q-9 -46 -9 -91q0 -105 54.5 -169.5t170.5 -64.5q88 0 159 43z" />
    <glyph glyph-name="uni04D9" unicode="&#x4d9;" horiz-adv-x="516" 
d="M433.5 465.5q50.5 -52.5 50.5 -146.5q0 -86 -33.5 -162t-97.5 -122.5t-150 -46.5q-81 0 -130.5 52t-49.5 135q0 25 4 48l7 30h412q6 30 6 61q0 84 -43.5 131t-111.5 47q-73 0 -125 -30t-79 -89h-32q25 66 89.5 105.5t151.5 39.5q81 0 131.5 -52.5zM356 75.5
q62 61.5 85 151.5h-384q-6 -24 -6 -49q0 -69 41 -116.5t116 -47.5q86 0 148 61.5z" />
    <glyph glyph-name="uni04E2" unicode="&#x4e2;" horiz-adv-x="706" 
d="M65 0h-31l138 715h32l-127 -658h2l602 658h31l-139 -715h-31l128 660h-2zM575 836h-228l5 28h228z" />
    <glyph glyph-name="uni04E3" unicode="&#x4e3;" horiz-adv-x="530" 
d="M45 0h-29l100 510h29l-89 -459l428 459h30l-100 -510h-30l91 459zM448 631h-228l5 28h228z" />
    <glyph glyph-name="uni04E8" unicode="&#x4e8;" horiz-adv-x="746" 
d="M606.5 691.5q59.5 -34.5 91.5 -98.5t32 -152q0 -118 -56 -222.5t-151 -167t-206 -62.5q-80 0 -139 34.5t-91 98.5t-32 152q0 119 56 223t150.5 166.5t205.5 62.5q80 0 139.5 -34.5zM304.5 654.5q-76.5 -43.5 -131 -118t-74.5 -165.5h591q6 35 6 69q0 121 -61 189.5
t-170 68.5q-84 0 -160.5 -43.5zM480 60.5q77 43.5 131.5 118.5t74.5 166h-592q-5 -38 -5 -69q0 -121 60.5 -190t169.5 -69q84 0 161 43.5z" />
    <glyph glyph-name="uni04E9" unicode="&#x4e9;" horiz-adv-x="544" 
d="M462.5 464.5q50.5 -53.5 50.5 -149.5q0 -85 -37.5 -160t-104.5 -120.5t-153 -45.5q-88 0 -138.5 53.5t-50.5 149.5q0 85 37.5 160t104.5 120.5t153 45.5q88 0 138.5 -53.5zM204.5 462q-52.5 -30 -87 -81.5t-48.5 -114.5h408q4 21 4 50q0 82 -40.5 129t-118.5 47
q-65 0 -117.5 -30zM337.5 45q52.5 30 87 81t48.5 114h-408q-4 -21 -4 -50q0 -82 40.5 -128.5t118.5 -46.5q65 0 117.5 30z" />
    <glyph glyph-name="uni04EE" unicode="&#x4ee;" horiz-adv-x="560" 
d="M150 0h-36l136 204l-135 511h32l126 -474h2l316 474h37zM479 836h-228l5 28h228z" />
    <glyph glyph-name="uni04EF" unicode="&#x4ef;" horiz-adv-x="453" 
d="M-34 -177l5 27q22 -2 36 -2q42 0 74.5 32.5t80.5 117.5l-103 512h30l94 -471h2l271 471h33l-303 -524q-37 -65 -64.5 -99.5t-54.5 -50t-62 -15.5q-22 0 -39 2zM407 631h-228l5 28h228z" />
    <glyph glyph-name="uni139A" unicode="&#x139a;" horiz-adv-x="662" 
 />
    <glyph glyph-name="Wgrave" unicode="&#x1e80;" horiz-adv-x="836" 
d="M176 0h-37l-24 715h33l18 -670h2l317 670h38l60 -670h2l277 670h34l-302 -715h-35l-61 670h-2zM521 803h-26l-64 127h45z" />
    <glyph glyph-name="wgrave" unicode="&#x1e81;" horiz-adv-x="700" 
d="M152 0h-40l-43 510h31l38 -473h2l237 473h40l45 -474h2l242 474h31l-261 -510h-39l-46 471h-3zM414 598h-26l-64 127h45z" />
    <glyph glyph-name="Wacute" unicode="&#x1e82;" horiz-adv-x="836" 
d="M176 0h-37l-24 715h33l18 -670h2l317 670h38l60 -670h2l277 670h34l-302 -715h-35l-61 670h-2zM538 803h-29l89 127h41z" />
    <glyph glyph-name="wacute" unicode="&#x1e83;" horiz-adv-x="700" 
d="M152 0h-40l-43 510h31l38 -473h2l237 473h40l45 -474h2l242 474h31l-261 -510h-39l-46 471h-3zM431 598h-29l89 127h41z" />
    <glyph glyph-name="Wdieresis" unicode="&#x1e84;" horiz-adv-x="836" 
d="M176 0h-37l-24 715h33l18 -670h2l317 670h38l60 -670h2l277 670h34l-302 -715h-35l-61 670h-2zM488 823h-56l11 55h56zM618 823h-56l11 55h56z" />
    <glyph glyph-name="wdieresis" unicode="&#x1e85;" horiz-adv-x="700" 
d="M152 0h-40l-43 510h31l38 -473h2l237 473h40l45 -474h2l242 474h31l-261 -510h-39l-46 471h-3zM381 618h-56l11 55h56zM511 618h-56l11 55h56z" />
    <glyph glyph-name="Ygrave" unicode="&#x1ef2;" horiz-adv-x="591" 
d="M261 0h-32l57 293l-181 422h35l166 -392h2l320 392h37l-347 -422zM401 803h-26l-64 127h45z" />
    <glyph glyph-name="ygrave" unicode="&#x1ef3;" horiz-adv-x="453" 
d="M-34 -177l5 27q22 -2 36 -2q42 0 74.5 32.5t80.5 117.5l-103 512h30l94 -471h2l271 471h33l-303 -524q-37 -65 -64.5 -99.5t-54.5 -50t-62 -15.5q-22 0 -39 2zM292 598h-26l-64 127h45z" />
    <glyph glyph-name="uni2000" unicode="&#x2000;" horiz-adv-x="500" 
 />
    <glyph glyph-name="uni2001" unicode="&#x2001;" horiz-adv-x="1000" 
 />
    <glyph glyph-name="uni2002" unicode="&#x2002;" horiz-adv-x="500" 
 />
    <glyph glyph-name="uni2003" unicode="&#x2003;" horiz-adv-x="1000" 
 />
    <glyph glyph-name="uni2004" unicode="&#x2004;" horiz-adv-x="333" 
 />
    <glyph glyph-name="uni2005" unicode="&#x2005;" horiz-adv-x="250" 
 />
    <glyph glyph-name="uni2006" unicode="&#x2006;" horiz-adv-x="167" 
 />
    <glyph glyph-name="uni2007" unicode="&#x2007;" horiz-adv-x="600" 
 />
    <glyph glyph-name="uni2008" unicode="&#x2008;" horiz-adv-x="164" 
 />
    <glyph glyph-name="uni2009" unicode="&#x2009;" horiz-adv-x="125" 
 />
    <glyph glyph-name="uni200A" unicode="&#x200a;" horiz-adv-x="42" 
 />
    <glyph glyph-name="uni200B" unicode="&#x200b;" 
 />
    <glyph glyph-name="endash" unicode="&#x2013;" horiz-adv-x="580" 
d="M536 241h-499l5 28h499z" />
    <glyph glyph-name="emdash" unicode="&#x2014;" horiz-adv-x="1080" 
d="M1036 241h-999l5 28h999z" />
    <glyph glyph-name="quoteleft" unicode="&#x2018;" horiz-adv-x="158" 
d="M188 688q-19 -7 -28.5 -24.5t-16.5 -54.5h30l-11 -55h-56l11 55q9 47 23.5 70t52.5 36z" />
    <glyph glyph-name="quoteright" unicode="&#x2019;" horiz-adv-x="151" 
d="M114 580q19 7 28 24.5t16 54.5h-30l11 56h56l-11 -56q-9 -46 -23 -69.5t-53 -36.5z" />
    <glyph glyph-name="quotesinglbase" unicode="&#x201a;" horiz-adv-x="151" 
d="M-14 -79q19 7 28 24.5t16 54.5h-30l11 56h56l-11 -56q-9 -46 -23 -69.5t-53 -36.5z" />
    <glyph glyph-name="quotedblleft" unicode="&#x201c;" horiz-adv-x="260" 
d="M117 609q9 47 23.5 70t52.5 36l-5 -27q-19 -7 -28.5 -24.5t-16.5 -54.5h30l-11 -55h-56zM290 688q-19 -7 -28.5 -24.5t-16.5 -54.5h30l-11 -55h-56l11 55q9 47 23.5 70t52.5 36z" />
    <glyph glyph-name="quotedblright" unicode="&#x201d;" horiz-adv-x="251" 
d="M112 579q19 7 28 24.5t16 54.5h-30l11 56h56l-11 -56q-9 -46 -23 -69.5t-53 -36.5zM214 579q19 7 28 24.5t16 54.5h-30l11 56h56l-11 -56q-9 -46 -23 -69.5t-53 -36.5z" />
    <glyph glyph-name="quotedblbase" unicode="&#x201e;" horiz-adv-x="253" 
d="M88 -79q19 7 28 24.5t16 54.5h-30l11 56h56l-11 -56q-9 -46 -23 -69.5t-53 -36.5zM-14 -79q19 7 28 24.5t16 54.5h-30l11 56h56l-11 -56q-9 -46 -23 -69.5t-53 -36.5z" />
    <glyph glyph-name="dagger" unicode="&#x2020;" horiz-adv-x="468" 
d="M167 -177h-32l123 635h-204l5 28h204l45 229h32l-45 -229h203l-5 -28h-203z" />
    <glyph glyph-name="daggerdbl" unicode="&#x2021;" horiz-adv-x="515" 
d="M186 -177h-32l61 315h-200l5 28h200l57 292h-204l6 28h204l44 229h32l-44 -229h203l-6 -28h-203l-57 -292h209l-5 -28h-209z" />
    <glyph glyph-name="bullet" unicode="&#x2022;" horiz-adv-x="293" 
d="M203 240h-120l23 120h120z" />
    <glyph glyph-name="ellipsis" unicode="&#x2026;" horiz-adv-x="476" 
d="M64 0h-56l11 55h56zM220 0h-56l11 55h56zM376 0h-56l11 55h56z" />
    <glyph glyph-name="perthousand" unicode="&#x2030;" horiz-adv-x="1040" 
d="M96 358.5q-28 37.5 -28 100.5q0 61 24.5 114t67 84.5t92.5 31.5q54 0 81.5 -37.5t27.5 -100.5q0 -61 -24 -114t-66 -84.5t-92 -31.5q-55 0 -83 37.5zM127 0h-35l530 685h35zM260 376q34 28 52.5 74.5t18.5 100.5q0 111 -83 111q-43 0 -77 -28t-53.5 -74.5t-19.5 -101.5
q0 -110 84 -110q44 0 78 28zM412.5 26.5q-27.5 37.5 -27.5 100.5q0 61 24 114t66 84.5t92 31.5q55 0 83 -37.5t28 -100.5q0 -61 -24.5 -114t-67 -84.5t-92.5 -31.5q-54 0 -81.5 37.5zM740.5 26.5q-27.5 37.5 -27.5 100.5q0 61 24 114t66 84.5t92 31.5q55 0 83 -37.5
t28 -100.5q0 -61 -24.5 -114t-67 -84.5t-92.5 -31.5q-54 0 -81.5 37.5zM575 44q34 28 53.5 74.5t19.5 101.5q0 110 -84 110q-44 0 -78 -28t-52.5 -74.5t-18.5 -100.5q0 -111 83 -111q43 0 77 28zM903 44q34 28 53.5 74.5t19.5 101.5q0 110 -84 110q-44 0 -78 -28
t-52.5 -74.5t-18.5 -100.5q0 -111 83 -111q43 0 77 28z" />
    <glyph glyph-name="guilsinglleft" unicode="&#x2039;" horiz-adv-x="290" 
d="M206 131l-8 -36l-157 158l8 40l218 158l-7 -40l-193 -141v-2z" />
    <glyph glyph-name="guilsinglright" unicode="&#x203a;" horiz-adv-x="288" 
d="M245 253l-218 -158l7 40l193 141v2l-139 137l8 36l157 -158z" />
    <glyph glyph-name="fraction" unicode="&#x2044;" horiz-adv-x="160" 
d="M-183 0h-32l592 715h32z" />
    <glyph glyph-name="uni2070" unicode="&#x2070;" horiz-adv-x="368" 
d="M120 404q-32 41 -32 114q0 66 26.5 127.5t72.5 99t102 37.5t84.5 -40t28.5 -112q0 -69 -24.5 -130.5t-68.5 -99t-100 -37.5q-57 0 -89 41zM296 421q37 33 57.5 89t20.5 122q0 65 -21 95t-66 30q-48 0 -87.5 -33t-61.5 -88t-22 -119q0 -129 94 -129q49 0 86 33z" />
    <glyph glyph-name="uni2074" unicode="&#x2074;" horiz-adv-x="327" 
d="M270 364h-27l20 104h-203l5 24l257 278h27l-54 -278h61l-5 -24h-61zM314 730l-219 -238h173z" />
    <glyph glyph-name="uni2075" unicode="&#x2075;" horiz-adv-x="321" 
d="M93 386q-27 28 -27 67q0 7 2 21h27q-1 -6 -1 -18q0 -35 21.5 -55t61.5 -20t72 20t50 52.5t18 70.5q0 43 -23 63t-62 20q-33 0 -62.5 -13.5t-49.5 -35.5h-28l85 212h198l-5 -23h-176l-63 -156v-1q22 20 50.5 30.5t58.5 10.5q50 0 77.5 -27.5t27.5 -76.5q0 -44 -22 -83
t-61 -62.5t-88 -23.5q-54 0 -81 28z" />
    <glyph glyph-name="uni2076" unicode="&#x2076;" horiz-adv-x="341" 
d="M85 502q0 71 27 135t73 103.5t100 39.5q47 0 74 -29t21 -76h-27q1 5 1 14q0 29 -18.5 48t-52.5 19q-61 0 -107 -58.5t-61 -142.5l-3 -17h2q20 46 56 68.5t81 22.5q49 0 79.5 -27.5t30.5 -78.5q0 -43 -21.5 -80t-58.5 -59.5t-83 -22.5q-113 0 -113 141zM266 402.5
q31 18.5 48.5 49.5t17.5 68q0 41 -21.5 63.5t-60.5 22.5q-36 0 -67.5 -18.5t-50 -50t-18.5 -68.5q0 -39 21.5 -62t61.5 -23q38 0 69 18.5z" />
    <glyph glyph-name="uni2077" unicode="&#x2077;" horiz-adv-x="282" 
d="M92 364q20 102 79.5 208.5t152.5 173.5v1h-231l5 23h269l-4 -20q-101 -68 -161.5 -174t-81.5 -212h-28z" />
    <glyph glyph-name="uni2078" unicode="&#x2078;" horiz-adv-x="346" 
d="M106 388.5q-35 25.5 -35 72.5q0 42 28.5 76.5t78.5 51.5v1q-49 24 -49 72q0 33 19.5 60.5t53 43.5t74.5 16q47 0 76.5 -22t29.5 -62q0 -35 -22 -63.5t-62 -44.5v-1q65 -27 65 -87q0 -37 -22.5 -69t-61.5 -51t-85 -19q-53 0 -88 25.5zM322 627.5q33 26.5 33 65.5
q0 32 -23 48.5t-60 16.5q-50 0 -83 -26.5t-33 -65.5q0 -32 22.5 -48.5t60.5 -16.5q50 0 83 26.5zM266.5 401.5q31.5 15.5 50 41.5t18.5 56q0 37 -27.5 58t-71.5 21q-38 0 -69.5 -15.5t-49.5 -41.5t-18 -57q0 -36 27 -57t71 -21q38 0 69.5 15.5z" />
    <glyph glyph-name="uni2079" unicode="&#x2079;" horiz-adv-x="342" 
d="M104 392q-27 29 -21 76h27q-1 -5 -1 -14q0 -29 18.5 -48t52.5 -19q41 0 77.5 29t61 77.5t31.5 103.5l1 8h-2q-20 -46 -57.5 -68.5t-85.5 -22.5q-46 0 -75 27t-29 78q0 44 21.5 81.5t59 59.5t83.5 22q53 0 82.5 -34.5t29.5 -103.5q0 -73 -27 -137.5t-73 -104t-100 -39.5
q-47 0 -74 29zM280 555.5q31 18.5 50 49.5t19 65q0 42 -21.5 65.5t-61.5 23.5q-38 0 -69 -18.5t-48.5 -49.5t-17.5 -68q0 -41 21.5 -63.5t60.5 -22.5q36 0 67 18.5z" />
    <glyph glyph-name="uni2080" unicode="&#x2080;" horiz-adv-x="368" 
d="M29 -65q-32 41 -32 114q0 66 26.5 127.5t72.5 99t102 37.5t84.5 -40t28.5 -112q0 -69 -24.5 -130.5t-68.5 -99t-100 -37.5q-57 0 -89 41zM205 -48q37 33 57.5 89t20.5 122q0 65 -21 95t-66 30q-48 0 -87.5 -33t-61.5 -88t-22 -119q0 -129 94 -129q49 0 86 33z" />
    <glyph glyph-name="uni2081" unicode="&#x2081;" horiz-adv-x="171" 
d="M88 237q-20 -18 -39.5 -23.5t-49.5 -5.5l4 23q44 0 67.5 17t33.5 58h24l-79 -406h-27z" />
    <glyph glyph-name="uni2082" unicode="&#x2082;" horiz-adv-x="319" 
d="M-44 -100q10 59 49 99.5t102 70.5q51 24 77.5 39.5t48 42t21.5 63.5q0 34 -18.5 54t-56.5 20q-49 0 -85.5 -32t-45.5 -79h-28q11 56 55 95.5t107 39.5q46 0 73.5 -25.5t27.5 -72.5q0 -41 -21 -70.5t-47.5 -46t-72.5 -38.5q-43 -21 -69 -36.5t-48 -40t-33 -58.5l1 -2h232
l-4 -23h-265z" />
    <glyph glyph-name="uni2083" unicode="&#x2083;" horiz-adv-x="338" 
d="M11 -77q-33 29 -33 79q0 15 3 31h28q-3 -15 -3 -29q0 -40 24 -63.5t72 -23.5q57 0 93.5 31t36.5 77q0 38 -23.5 56.5t-56.5 18.5h-44l5 25h42q42 0 71.5 29t29.5 69q0 30 -19.5 48t-61.5 18q-56 0 -86.5 -30.5t-36.5 -68.5h-28q9 52 51.5 87.5t103.5 35.5q48 0 77 -23
t29 -64q0 -36 -23 -67.5t-64 -46.5v-1q64 -21 64 -82q0 -38 -20.5 -68.5t-57.5 -48.5t-83 -18q-57 0 -90 29z" />
    <glyph glyph-name="uni2084" unicode="&#x2084;" horiz-adv-x="327" 
d="M180 -100h-27l20 104h-203l5 24l257 278h27l-54 -278h61l-5 -24h-61zM224 266l-219 -238h173z" />
    <glyph glyph-name="uni2085" unicode="&#x2085;" horiz-adv-x="321" 
d="M3 -78q-27 28 -27 67q0 7 2 21h27q-1 -6 -1 -18q0 -35 21.5 -55t61.5 -20t72 20t50 52.5t18 70.5q0 43 -23 63t-62 20q-33 0 -62.5 -13.5t-49.5 -35.5h-28l85 212h198l-5 -23h-176l-63 -156v-1q22 20 50.5 30.5t58.5 10.5q50 0 77.5 -27.5t27.5 -76.5q0 -44 -22 -83
t-61 -62.5t-88 -23.5q-54 0 -81 28z" />
    <glyph glyph-name="uni2086" unicode="&#x2086;" horiz-adv-x="341" 
d="M-5 35q0 71 27 135t73 103.5t100 39.5q47 0 74 -29t21 -76h-27q1 5 1 14q0 29 -18.5 48t-52.5 19q-61 0 -107 -58.5t-61 -142.5l-3 -17h2q20 46 56 68.5t81 22.5q49 0 79.5 -27.5t30.5 -78.5q0 -43 -21.5 -80t-58.5 -59.5t-83 -22.5q-113 0 -113 141zM176 -64.5
q31 18.5 48.5 49.5t17.5 68q0 41 -21.5 63.5t-60.5 22.5q-36 0 -67.5 -18.5t-50 -50t-18.5 -68.5q0 -39 21.5 -62t61.5 -23q38 0 69 18.5z" />
    <glyph glyph-name="uni2087" unicode="&#x2087;" horiz-adv-x="282" 
d="M2 -100q20 102 79.5 208.5t152.5 173.5v1h-231l5 23h269l-4 -20q-101 -68 -161.5 -174t-81.5 -212h-28z" />
    <glyph glyph-name="uni2088" unicode="&#x2088;" horiz-adv-x="346" 
d="M15 -80.5q-35 25.5 -35 72.5q0 42 28.5 76.5t78.5 51.5v1q-49 24 -49 72q0 33 19.5 60.5t53 43.5t74.5 16q47 0 76.5 -22t29.5 -62q0 -35 -22 -63.5t-62 -44.5v-1q65 -27 65 -87q0 -37 -22.5 -69t-61.5 -51t-85 -19q-53 0 -88 25.5zM231 158.5q33 26.5 33 65.5
q0 32 -23 48.5t-60 16.5q-50 0 -83 -26.5t-33 -65.5q0 -32 22.5 -48.5t60.5 -16.5q50 0 83 26.5zM175.5 -67.5q31.5 15.5 50 41.5t18.5 56q0 37 -27.5 58t-71.5 21q-38 0 -69.5 -15.5t-49.5 -41.5t-18 -57q0 -36 27 -57t71 -21q38 0 69.5 15.5z" />
    <glyph glyph-name="uni2089" unicode="&#x2089;" horiz-adv-x="342" 
d="M13 -77q-27 29 -21 76h27q-1 -5 -1 -14q0 -29 18.5 -48t52.5 -19q41 0 77.5 29t61 77.5t31.5 103.5l1 8h-2q-20 -46 -57.5 -68.5t-85.5 -22.5q-46 0 -75 27t-29 78q0 44 21.5 81.5t59 59.5t83.5 22q53 0 82.5 -34.5t29.5 -103.5q0 -73 -27 -137.5t-73 -104t-100 -39.5
q-47 0 -74 29zM189 86.5q31 18.5 50 49.5t19 65q0 42 -21.5 65.5t-61.5 23.5q-38 0 -69 -18.5t-48.5 -49.5t-17.5 -68q0 -41 21.5 -63.5t60.5 -22.5q36 0 67 18.5z" />
    <glyph glyph-name="Euro" unicode="&#x20ac;" horiz-adv-x="646" 
d="M562 666.5q43 -29.5 62.5 -78.5t15.5 -109h-32q3 49 -12.5 92t-52.5 70t-95 27q-86 0 -158 -69t-109 -181h247l-5 -28h-250q-12 -45 -18 -94h249l-5 -28h-246q-1 -13 -1 -38q0 -100 43 -156.5t126 -56.5q89 0 153 63t87 158h32q-34 -115 -105 -182t-172 -67
q-94 0 -145 63t-51 175q0 27 1 41h-65l5 28h63q4 47 17 94h-61l5 28h64q27 82 73 145t105.5 98t125.5 35t109 -29.5z" />
    <glyph glyph-name="trademark" unicode="&#x2122;" horiz-adv-x="659" 
d="M187 439h-32l48 248h-102l5 28h236l-5 -28h-102zM368 439h-32l53 276h50l46 -242h1l140 242h50l-53 -276h-32l45 235h-2l-135 -235h-38l-45 235h-3z" />
    <glyph glyph-name="uni2126" unicode="&#x2126;" horiz-adv-x="767" 
d="M-9 0l6 28h195q-127 92 -127 261q0 113 54 213.5t148 162t209 61.5q85 0 145.5 -35t92 -97t31.5 -142q0 -45 -8 -84q-20 -108 -83 -195.5t-163 -144.5h190l-6 -28h-271l4 18q119 56 193.5 136.5t99.5 206.5q9 45 9 87q0 112 -61.5 181t-175.5 69q-105 0 -191.5 -59
t-135.5 -154t-49 -198q0 -97 42.5 -159.5t122.5 -109.5l-4 -18h-267z" />
    <glyph glyph-name="oneeighth" unicode="&#x215b;" horiz-adv-x="681" 
d="M186 646q-20 -18 -39.5 -23.5t-49.5 -5.5l4 23q44 0 67.5 17t33.5 58h24l-79 -406h-27zM33 0h-32l592 715h32zM371 19.5q-35 25.5 -35 72.5q0 42 28.5 76.5t78.5 51.5v1q-49 24 -49 72q0 33 19.5 60.5t53 43.5t74.5 16q47 0 76.5 -22t29.5 -62q0 -35 -22 -63.5t-62 -44.5
v-1q65 -27 65 -87q0 -37 -22.5 -69t-61.5 -51t-85 -19q-53 0 -88 25.5zM587 258.5q33 26.5 33 65.5q0 32 -23 48.5t-60 16.5q-50 0 -83 -26.5t-33 -65.5q0 -32 22.5 -48.5t60.5 -16.5q50 0 83 26.5zM531.5 32.5q31.5 15.5 50 41.5t18.5 56q0 37 -27.5 58t-71.5 21
q-38 0 -69.5 -15.5t-49.5 -41.5t-18 -57q0 -36 27 -57t71 -21q38 0 69.5 15.5z" />
    <glyph glyph-name="threeeighths" unicode="&#x215c;" horiz-adv-x="785" 
d="M98 332q-33 29 -33 79q0 15 3 31h28q-3 -15 -3 -29q0 -40 24 -63.5t72 -23.5q57 0 93.5 31t36.5 77q0 38 -23.5 56.5t-56.5 18.5h-44l5 25h42q42 0 71.5 29t29.5 69q0 30 -19.5 48t-61.5 18q-56 0 -86.5 -30.5t-36.5 -68.5h-28q9 52 51.5 87.5t103.5 35.5q48 0 77 -23
t29 -64q0 -36 -23 -67.5t-64 -46.5v-1q64 -21 64 -82q0 -38 -20.5 -68.5t-57.5 -48.5t-83 -18q-57 0 -90 29zM153 0h-32l592 715h32zM471 19.5q-35 25.5 -35 72.5q0 42 28.5 76.5t78.5 51.5v1q-49 24 -49 72q0 33 19.5 60.5t53 43.5t74.5 16q47 0 76.5 -22t29.5 -62
q0 -35 -22 -63.5t-62 -44.5v-1q65 -27 65 -87q0 -37 -22.5 -69t-61.5 -51t-85 -19q-53 0 -88 25.5zM687 258.5q33 26.5 33 65.5q0 32 -23 48.5t-60 16.5q-50 0 -83 -26.5t-33 -65.5q0 -32 22.5 -48.5t60.5 -16.5q50 0 83 26.5zM631.5 32.5q31.5 15.5 50 41.5t18.5 56
q0 37 -27.5 58t-71.5 21q-38 0 -69.5 -15.5t-49.5 -41.5t-18 -57q0 -36 27 -57t71 -21q38 0 69.5 15.5z" />
    <glyph glyph-name="fiveeighths" unicode="&#x215d;" horiz-adv-x="781" 
d="M81 331q-27 28 -27 67q0 7 2 21h27q-1 -6 -1 -18q0 -35 21.5 -55t61.5 -20t72 20t50 52.5t18 70.5q0 43 -23 63t-62 20q-33 0 -62.5 -13.5t-49.5 -35.5h-28l85 212h198l-5 -23h-176l-63 -156v-1q22 20 50.5 30.5t58.5 10.5q50 0 77.5 -27.5t27.5 -76.5q0 -44 -22 -83
t-61 -62.5t-88 -23.5q-54 0 -81 28zM134 0h-32l592 715h32zM472 19.5q-35 25.5 -35 72.5q0 42 28.5 76.5t78.5 51.5v1q-49 24 -49 72q0 33 19.5 60.5t53 43.5t74.5 16q47 0 76.5 -22t29.5 -62q0 -35 -22 -63.5t-62 -44.5v-1q65 -27 65 -87q0 -37 -22.5 -69t-61.5 -51
t-85 -19q-53 0 -88 25.5zM688 258.5q33 26.5 33 65.5q0 32 -23 48.5t-60 16.5q-50 0 -83 -26.5t-33 -65.5q0 -32 22.5 -48.5t60.5 -16.5q50 0 83 26.5zM632.5 32.5q31.5 15.5 50 41.5t18.5 56q0 37 -27.5 58t-71.5 21q-38 0 -69.5 -15.5t-49.5 -41.5t-18 -57q0 -36 27 -57
t71 -21q38 0 69.5 15.5z" />
    <glyph glyph-name="seveneighths" unicode="&#x215e;" horiz-adv-x="723" 
d="M107 309q20 102 79.5 208.5t152.5 173.5v1h-231l5 23h269l-4 -20q-101 -68 -161.5 -174t-81.5 -212h-28zM50 0h-32l592 715h32zM408 19.5q-35 25.5 -35 72.5q0 42 28.5 76.5t78.5 51.5v1q-49 24 -49 72q0 33 19.5 60.5t53 43.5t74.5 16q47 0 76.5 -22t29.5 -62
q0 -35 -22 -63.5t-62 -44.5v-1q65 -27 65 -87q0 -37 -22.5 -69t-61.5 -51t-85 -19q-53 0 -88 25.5zM624 258.5q33 26.5 33 65.5q0 32 -23 48.5t-60 16.5q-50 0 -83 -26.5t-33 -65.5q0 -32 22.5 -48.5t60.5 -16.5q50 0 83 26.5zM568.5 32.5q31.5 15.5 50 41.5t18.5 56
q0 37 -27.5 58t-71.5 21q-38 0 -69.5 -15.5t-49.5 -41.5t-18 -57q0 -36 27 -57t71 -21q38 0 69.5 15.5z" />
    <glyph glyph-name="arrowleft" unicode="&#x2190;" horiz-adv-x="780" 
d="M275 71l-24 -21l-193 272l301 269l19 -21l-260 -233h634l-6 -32h-639z" />
    <glyph glyph-name="arrowup" unicode="&#x2191;" horiz-adv-x="582" 
d="M259 0h-32l125 640l-276 -220l-20 21l321 250l219 -250l-22 -21l-191 218z" />
    <glyph glyph-name="arrowright" unicode="&#x2192;" horiz-adv-x="780" 
d="M746 321l-300 -271l-20 23l259 232h-633l6 32h638l-168 237l21 17z" />
    <glyph glyph-name="arrowdown" unicode="&#x2193;" horiz-adv-x="574" 
d="M547 209l-321 -249l-218 252l22 18l189 -222l126 643h32l-129 -645l282 225z" />
    <glyph glyph-name="arrowboth" unicode="&#x2194;" horiz-adv-x="1125" 
d="M282 72l-25 -21l-198 270l302 270l17 -21l-259 -233h917l-169 233l25 21l198 -270l-302 -270l-17 21l259 233h-917z" />
    <glyph glyph-name="arrowupdn" unicode="&#x2195;" horiz-adv-x="597" 
d="M532 73l-319 -250l-221 250l25 21l191 -214l166 849l-275 -214l-17 21l319 250l221 -250l-25 -21l-191 214l-166 -849l275 214z" />
    <glyph glyph-name="uni2196" unicode="&#x2196;" horiz-adv-x="584" 
d="M530 125l-27 -23l-361 447l-60 -315h-31l71 368h371l-6 -30h-320z" />
    <glyph glyph-name="uni2197" unicode="&#x2197;" horiz-adv-x="585" 
d="M556 549l-534 -447l-18 23l536 447h-320l6 30h371l-72 -368h-31z" />
    <glyph glyph-name="uni2198" unicode="&#x2198;" horiz-adv-x="579" 
d="M484 42h-371l6 30h320l-363 447l27 23l361 -447l60 315h31z" />
    <glyph glyph-name="uni2199" unicode="&#x2199;" horiz-adv-x="579" 
d="M382 42h-371l72 368h31l-62 -315l535 447l18 -23l-537 -447h320z" />
    <glyph glyph-name="partialdiff" unicode="&#x2202;" horiz-adv-x="504" 
d="M56 36.5q-42 46.5 -42 128.5q0 79 37.5 148.5t101.5 111t138 41.5q65 0 103 -32.5t48 -90.5q5 42 5 74q0 107 -53.5 178t-178.5 96l5 28q142 -25 200 -103.5t58 -203.5q0 -114 -39.5 -211t-108.5 -154t-155 -57q-77 0 -119 46.5zM294.5 58q58.5 40 95 104t36.5 132
q0 67 -37 105.5t-102 38.5t-120 -37t-87.5 -99.5t-32.5 -133.5q0 -69 32 -109.5t95 -40.5q62 0 120.5 40z" />
    <glyph glyph-name="emptyset" unicode="&#x2205;" horiz-adv-x="851" 
d="M840 659l-78 -65q55 -74 55 -178q0 -112 -60.5 -210.5t-162.5 -157.5t-221 -59q-72 0 -130.5 22.5t-99.5 64.5l-78 -65l-17 21l77 65q-55 72 -55 178q0 112 60.5 210.5t163 157.5t221.5 59q72 0 130.5 -22.5t98.5 -64.5l79 66zM150 117l569 477q-36 39 -89 59.5
t-118 20.5q-109 0 -203 -54.5t-150 -145.5t-56 -195q0 -95 47 -162zM736 572l-569 -476q36 -39 88.5 -59t118.5 -20q109 0 203.5 54t150.5 144.5t56 194.5q0 97 -48 162z" />
    <glyph glyph-name="uni2206" unicode="&#x2206;" horiz-adv-x="625" 
d="M380 715h41l140 -688l-5 -27h-587l5 27zM395 678h-4l-385 -650h523z" />
    <glyph glyph-name="product" unicode="&#x220f;" horiz-adv-x="684" 
d="M46 -100h-32l158 815h518l-158 -815h-32l153 787h-454z" />
    <glyph glyph-name="summation" unicode="&#x2211;" horiz-adv-x="561" 
d="M465 -100h-505l6 29l388 395l1 1l-242 361l5 29h500l-5 -28h-460v-1l235 -351l-4 -20l-380 -386l-1 -1h467z" />
    <glyph glyph-name="minus" unicode="&#x2212;" horiz-adv-x="526" 
d="M481 312h-416l5 28h416z" />
    <glyph glyph-name="uni2219" unicode="&#x2219;" horiz-adv-x="287" 
d="M182 321h-56l11 55h56z" />
    <glyph glyph-name="radical" unicode="&#x221a;" horiz-adv-x="605" 
d="M239 -100h-32l-74 370h-83l5 28h104l71 -354h1l401 771h32z" />
    <glyph glyph-name="infinity" unicode="&#x221e;" horiz-adv-x="740" 
d="M671 436.5q29 -34.5 29 -92.5q0 -54 -24.5 -102t-65.5 -76.5t-89 -28.5q-55 0 -88 37t-57 101q-53 -70 -98.5 -104t-101.5 -34q-60 0 -89.5 36t-29.5 93q0 54 24.5 101.5t66 75.5t90.5 28q55 0 90 -36.5t61 -102.5q51 69 96 104t101 35t85 -34.5zM270 198q40 33 95 105
q-24 68 -53.5 104t-77.5 36q-40 0 -73 -24t-52.5 -64.5t-19.5 -86.5q0 -47 22 -75t69 -28q50 0 90 33zM596.5 189.5q32.5 24.5 52 65.5t19.5 87q0 47 -21 74t-66 27q-35 0 -64 -16.5t-54 -44.5t-63 -78q25 -69 52.5 -104t73.5 -35q38 0 70.5 24.5z" />
    <glyph glyph-name="integral" unicode="&#x222b;" horiz-adv-x="355" 
d="M-25.5 -169q-19.5 3 -29.5 7l5 28q36 -9 63 -9q39 0 61.5 30t38.5 111l111 571q15 81 45 124t91 43q14 0 33.5 -3t29.5 -7l-5 -28q-36 9 -63 9q-39 0 -61.5 -30t-38.5 -111l-111 -571q-15 -81 -45 -124t-91 -43q-14 0 -33.5 3z" />
    <glyph glyph-name="approxequal" unicode="&#x2248;" horiz-adv-x="559" 
d="M80 332q12 45 40 65t72 20q25 0 49 -5.5t59 -16.5q38 -12 64.5 -18t55.5 -6q31 0 48.5 12.5t26.5 43.5h32q-12 -45 -40 -64.5t-74 -19.5q-29 0 -56.5 6t-64.5 18q-39 12 -61.5 17t-45.5 5q-30 0 -47.5 -14t-25.5 -43h-32zM53 194q12 45 40.5 65t72.5 20q25 0 49 -5.5
t59 -16.5q38 -12 64.5 -18t55.5 -6q31 0 48.5 12.5t26.5 44.5h32q-12 -45 -41 -65t-75 -20q-28 0 -55 6t-64 18q-38 11 -61.5 16.5t-47.5 5.5q-29 0 -46 -13.5t-26 -43.5h-32z" />
    <glyph glyph-name="notequal" unicode="&#x2260;" horiz-adv-x="527" 
d="M502 410l-5 -28h-165l-77 -113h217l-5 -28h-231l-81 -120h-33l81 120h-152l5 28h166l77 113h-218l5 28h231l83 122h33l-83 -122h152z" />
    <glyph glyph-name="lessequal" unicode="&#x2264;" horiz-adv-x="495" 
d="M415 155l-6 -29l-347 167l8 40l411 165l-6 -35l-378 -152v-2zM394 0h-390l5 28h390z" />
    <glyph glyph-name="greaterequal" unicode="&#x2265;" horiz-adv-x="495" 
d="M457 296l-423 -169l6 32l383 153v1l-323 153l6 32l357 -170zM399 0h-390l5 28h390z" />
    <glyph glyph-name="uni2266" unicode="&#x2266;" horiz-adv-x="531" 
d="M460 223l-6 -29l-371 155l8 40l435 157l-6 -35l-402 -144v-2zM444 141h-402l6 28h402zM417 0h-402l6 28h402z" />
    <glyph glyph-name="uni2267" unicode="&#x2267;" horiz-adv-x="532" 
d="M494 348l-448 -165l6 33l412 152l1 2l-353 154l6 31l383 -167zM453 141h-416l6 28h416zM426 0h-416l5 28h416z" />
    <glyph glyph-name="uni2460" unicode="&#x2460;" horiz-adv-x="850" 
d="M215 26q-70 37 -108 106t-38 164q0 120 59.5 218.5t160.5 155t220 56.5q95 0 165 -36.5t108 -106t38 -163.5q0 -120 -59.5 -219t-160.5 -155.5t-220 -56.5q-95 0 -165 37zM587.5 69.5q93.5 52.5 148 144.5t54.5 205q0 132 -74.5 205.5t-206.5 73.5q-112 0 -206 -52.5
t-148.5 -144.5t-54.5 -205q0 -131 74 -205t207 -74q113 0 206.5 52.5zM466 492q-20 -18 -39.5 -23.5t-49.5 -5.5l4 23q44 0 67.5 17t33.5 58h24l-79 -406h-27z" />
    <glyph glyph-name="uni2461" unicode="&#x2461;" horiz-adv-x="850" 
d="M215 26q-70 37 -108 106t-38 164q0 120 59.5 218.5t160.5 155t220 56.5q95 0 165 -36.5t108 -106t38 -163.5q0 -120 -59.5 -219t-160.5 -155.5t-220 -56.5q-95 0 -165 37zM587.5 69.5q93.5 52.5 148 144.5t54.5 205q0 132 -74.5 205.5t-206.5 73.5q-112 0 -206 -52.5
t-148.5 -144.5t-54.5 -205q0 -131 74 -205t207 -74q113 0 206.5 52.5zM271 155q10 59 49 99.5t102 70.5q51 24 77.5 39.5t48 42t21.5 63.5q0 34 -18.5 54t-56.5 20q-49 0 -85.5 -32t-45.5 -79h-28q11 56 55 95.5t107 39.5q46 0 73.5 -25.5t27.5 -72.5q0 -41 -21 -70.5
t-47.5 -46t-72.5 -38.5q-43 -21 -69 -36.5t-48 -40t-33 -58.5l1 -2h232l-4 -23h-265z" />
    <glyph glyph-name="uni2462" unicode="&#x2462;" horiz-adv-x="850" 
d="M215 26q-70 37 -108 106t-38 164q0 120 59.5 218.5t160.5 155t220 56.5q95 0 165 -36.5t108 -106t38 -163.5q0 -120 -59.5 -219t-160.5 -155.5t-220 -56.5q-95 0 -165 37zM587.5 69.5q93.5 52.5 148 144.5t54.5 205q0 132 -74.5 205.5t-206.5 73.5q-112 0 -206 -52.5
t-148.5 -144.5t-54.5 -205q0 -131 74 -205t207 -74q113 0 206.5 52.5zM311 177q-33 29 -33 79q0 15 3 31h28q-3 -15 -3 -29q0 -40 24 -63.5t72 -23.5q57 0 93.5 31t36.5 77q0 38 -23.5 56.5t-56.5 18.5h-44l5 25h42q42 0 71.5 29t29.5 69q0 30 -19.5 48t-61.5 18
q-56 0 -86.5 -30.5t-36.5 -68.5h-28q9 52 51.5 87.5t103.5 35.5q48 0 77 -23t29 -64q0 -36 -23 -67.5t-64 -46.5v-1q64 -21 64 -82q0 -38 -20.5 -68.5t-57.5 -48.5t-83 -18q-57 0 -90 29z" />
    <glyph glyph-name="uni2463" unicode="&#x2463;" horiz-adv-x="850" 
d="M215 26q-70 37 -108 106t-38 164q0 120 59.5 218.5t160.5 155t220 56.5q95 0 165 -36.5t108 -106t38 -163.5q0 -120 -59.5 -219t-160.5 -155.5t-220 -56.5q-95 0 -165 37zM587.5 69.5q93.5 52.5 148 144.5t54.5 205q0 132 -74.5 205.5t-206.5 73.5q-112 0 -206 -52.5
t-148.5 -144.5t-54.5 -205q0 -131 74 -205t207 -74q113 0 206.5 52.5zM472 154h-27l20 104h-203l5 24l257 278h27l-54 -278h61l-5 -24h-61zM516 520l-219 -238h173z" />
    <glyph glyph-name="uni2464" unicode="&#x2464;" horiz-adv-x="850" 
d="M215 26q-70 37 -108 106t-38 164q0 120 59.5 218.5t160.5 155t220 56.5q95 0 165 -36.5t108 -106t38 -163.5q0 -120 -59.5 -219t-160.5 -155.5t-220 -56.5q-95 0 -165 37zM587.5 69.5q93.5 52.5 148 144.5t54.5 205q0 132 -74.5 205.5t-206.5 73.5q-112 0 -206 -52.5
t-148.5 -144.5t-54.5 -205q0 -131 74 -205t207 -74q113 0 206.5 52.5zM317 176q-27 28 -27 67q0 7 2 21h27q-1 -6 -1 -18q0 -35 21.5 -55t61.5 -20t72 20t50 52.5t18 70.5q0 43 -23 63t-62 20q-33 0 -62.5 -13.5t-49.5 -35.5h-28l85 212h198l-5 -23h-176l-63 -156v-1
q22 20 50.5 30.5t58.5 10.5q50 0 77.5 -27.5t27.5 -76.5q0 -44 -22 -83t-61 -62.5t-88 -23.5q-54 0 -81 28z" />
    <glyph glyph-name="uni2465" unicode="&#x2465;" horiz-adv-x="850" 
d="M215 26q-70 37 -108 106t-38 164q0 120 59.5 218.5t160.5 155t220 56.5q95 0 165 -36.5t108 -106t38 -163.5q0 -120 -59.5 -219t-160.5 -155.5t-220 -56.5q-95 0 -165 37zM587.5 69.5q93.5 52.5 148 144.5t54.5 205q0 132 -74.5 205.5t-206.5 73.5q-112 0 -206 -52.5
t-148.5 -144.5t-54.5 -205q0 -131 74 -205t207 -74q113 0 206.5 52.5zM297 289q0 71 27 135t73 103.5t100 39.5q47 0 74 -29t21 -76h-27q1 5 1 14q0 29 -18.5 48t-52.5 19q-61 0 -107 -58.5t-61 -142.5l-3 -17h2q20 46 56 68.5t81 22.5q49 0 79.5 -27.5t30.5 -78.5
q0 -43 -21.5 -80t-58.5 -59.5t-83 -22.5q-113 0 -113 141zM478 189.5q31 18.5 48.5 49.5t17.5 68q0 41 -21.5 63.5t-60.5 22.5q-36 0 -67.5 -18.5t-50 -50t-18.5 -68.5q0 -39 21.5 -62t61.5 -23q38 0 69 18.5z" />
    <glyph glyph-name="uni2466" unicode="&#x2466;" horiz-adv-x="850" 
d="M215 26q-70 37 -108 106t-38 164q0 120 59.5 218.5t160.5 155t220 56.5q95 0 165 -36.5t108 -106t38 -163.5q0 -120 -59.5 -219t-160.5 -155.5t-220 -56.5q-95 0 -165 37zM587.5 69.5q93.5 52.5 148 144.5t54.5 205q0 132 -74.5 205.5t-206.5 73.5q-112 0 -206 -52.5
t-148.5 -144.5t-54.5 -205q0 -131 74 -205t207 -74q113 0 206.5 52.5zM348 143q20 102 79.5 208.5t152.5 173.5v1h-231l5 23h269l-4 -20q-101 -68 -161.5 -174t-81.5 -212h-28z" />
    <glyph glyph-name="uni2467" unicode="&#x2467;" horiz-adv-x="850" 
d="M215 26q-70 37 -108 106t-38 164q0 120 59.5 218.5t160.5 155t220 56.5q95 0 165 -36.5t108 -106t38 -163.5q0 -120 -59.5 -219t-160.5 -155.5t-220 -56.5q-95 0 -165 37zM587.5 69.5q93.5 52.5 148 144.5t54.5 205q0 132 -74.5 205.5t-206.5 73.5q-112 0 -206 -52.5
t-148.5 -144.5t-54.5 -205q0 -131 74 -205t207 -74q113 0 206.5 52.5zM324 173.5q-35 25.5 -35 72.5q0 42 28.5 76.5t78.5 51.5v1q-49 24 -49 72q0 33 19.5 60.5t53 43.5t74.5 16q47 0 76.5 -22t29.5 -62q0 -35 -22 -63.5t-62 -44.5v-1q65 -27 65 -87q0 -37 -22.5 -69
t-61.5 -51t-85 -19q-53 0 -88 25.5zM540 412.5q33 26.5 33 65.5q0 32 -23 48.5t-60 16.5q-50 0 -83 -26.5t-33 -65.5q0 -32 22.5 -48.5t60.5 -16.5q50 0 83 26.5zM484.5 186.5q31.5 15.5 50 41.5t18.5 56q0 37 -27.5 58t-71.5 21q-38 0 -69.5 -15.5t-49.5 -41.5t-18 -57
q0 -36 27 -57t71 -21q38 0 69.5 15.5z" />
    <glyph glyph-name="uni2468" unicode="&#x2468;" horiz-adv-x="850" 
d="M215 26q-70 37 -108 106t-38 164q0 120 59.5 218.5t160.5 155t220 56.5q95 0 165 -36.5t108 -106t38 -163.5q0 -120 -59.5 -219t-160.5 -155.5t-220 -56.5q-95 0 -165 37zM587.5 69.5q93.5 52.5 148 144.5t54.5 205q0 132 -74.5 205.5t-206.5 73.5q-112 0 -206 -52.5
t-148.5 -144.5t-54.5 -205q0 -131 74 -205t207 -74q113 0 206.5 52.5zM318 177q-27 29 -21 76h27q-1 -5 -1 -14q0 -29 18.5 -48t52.5 -19q41 0 77.5 29t61 77.5t31.5 103.5l1 8h-2q-20 -46 -57.5 -68.5t-85.5 -22.5q-46 0 -75 27t-29 78q0 44 21.5 81.5t59 59.5t83.5 22
q53 0 82.5 -34.5t29.5 -103.5q0 -73 -27 -137.5t-73 -104t-100 -39.5q-47 0 -74 29zM494 340.5q31 18.5 50 49.5t19 65q0 42 -21.5 65.5t-61.5 23.5q-38 0 -69 -18.5t-48.5 -49.5t-17.5 -68q0 -41 21.5 -63.5t60.5 -22.5q36 0 67 18.5z" />
    <glyph glyph-name="uni24EA" unicode="&#x24ea;" horiz-adv-x="850" 
d="M215 26q-70 37 -108 106t-38 164q0 120 59.5 218.5t160.5 155t220 56.5q95 0 165 -36.5t108 -106t38 -163.5q0 -120 -59.5 -219t-160.5 -155.5t-220 -56.5q-95 0 -165 37zM587.5 69.5q93.5 52.5 148 144.5t54.5 205q0 132 -74.5 205.5t-206.5 73.5q-112 0 -206 -52.5
t-148.5 -144.5t-54.5 -205q0 -131 74 -205t207 -74q113 0 206.5 52.5zM320 189q-32 41 -32 114q0 66 26.5 127.5t72.5 99t102 37.5t84.5 -40t28.5 -112q0 -69 -24.5 -130.5t-68.5 -99t-100 -37.5q-57 0 -89 41zM496 206q37 33 57.5 89t20.5 122q0 65 -21 95t-66 30
q-48 0 -87.5 -33t-61.5 -88t-22 -119q0 -129 94 -129q49 0 86 33z" />
    <glyph glyph-name="upblock" unicode="&#x2580;" horiz-adv-x="854" 
d="M803 357h-715l70 358h715z" />
    <glyph glyph-name="dnblock" unicode="&#x2584;" horiz-adv-x="857" 
d="M736 0h-715l70 358h715z" />
    <glyph glyph-name="block" unicode="&#x2588;" horiz-adv-x="881" 
d="M748 0h-715l139 715h715z" />
    <glyph glyph-name="filledbox" unicode="&#x25a0;" horiz-adv-x="881" 
d="M748 0h-715l139 715h715z" />
    <glyph glyph-name="uni25A1" unicode="&#x25a1;" horiz-adv-x="881" 
d="M748 0h-715l139 715h715zM196 685l-127 -655h655l127 655h-655z" />
    <glyph glyph-name="uni25AA" unicode="&#x25aa;" horiz-adv-x="251" 
d="M185 260h-120l23 120h120z" />
    <glyph glyph-name="uni25AB" unicode="&#x25ab;" horiz-adv-x="323" 
d="M246 230h-180l35 180h180zM125 380l-23 -120h120l23 120h-120z" />
    <glyph glyph-name="triagup" unicode="&#x25b2;" horiz-adv-x="835" 
d="M768 0h-800l539 715z" />
    <glyph glyph-name="triagrt" unicode="&#x25ba;" horiz-adv-x="851" 
d="M830 358l-792 -400l155 800z" />
    <glyph glyph-name="triagdn" unicode="&#x25bc;" horiz-adv-x="835" 
d="M906 715l-539 -715l-261 715h800z" />
    <glyph glyph-name="triaglf" unicode="&#x25c4;" horiz-adv-x="852" 
d="M854 757l-156 -800l-637 400z" />
    <glyph glyph-name="lozenge" unicode="&#x25ca;" horiz-adv-x="532" 
d="M237 0h-36l-135 358l270 357h36l134 -357zM98 358l125 -329h1l250 329l-124 328h-1z" />
    <glyph glyph-name="circle" unicode="&#x25cb;" horiz-adv-x="850" 
d="M215 26q-70 37 -108 106t-38 164q0 120 59.5 218.5t160.5 155t220 56.5q95 0 165 -36.5t108 -106t38 -163.5q0 -120 -59.5 -219t-160.5 -155.5t-220 -56.5q-95 0 -165 37zM587.5 69.5q93.5 52.5 148 144.5t54.5 205q0 132 -74.5 205.5t-206.5 73.5q-112 0 -206 -52.5
t-148.5 -144.5t-54.5 -205q0 -131 74 -205t207 -74q113 0 206.5 52.5z" />
    <glyph glyph-name="uni25CF" unicode="&#x25cf;" horiz-adv-x="846" 
d="M213.5 28q-69.5 39 -108 107t-38.5 152q0 111 63.5 212.5t167 164t216.5 62.5q88 0 157.5 -39t108 -107.5t38.5 -153.5q0 -110 -63.5 -211.5t-167 -163.5t-216.5 -62q-88 0 -157.5 39z" />
    <glyph glyph-name="uni2B0E" unicode="&#x2b0e;" horiz-adv-x="647" 
d="M312 55l275 214l16 -21l-318 -250l-222 250l26 21l191 -214l83 425h-294l6 32h326z" />
    <glyph glyph-name="uni2B0F" unicode="&#x2b0f;" horiz-adv-x="664" 
d="M80 264l319 250l221 -250l-25 -21l-191 214l-89 -457h-326l6 32h294l83 425l-275 -214z" />
    <glyph glyph-name="uni2B10" unicode="&#x2b10;" horiz-adv-x="660" 
d="M671 508l-6 -32h-294l-83 -425l275 214l17 -21l-319 -250l-221 250l25 21l191 -214l89 457h326z" />
    <glyph glyph-name="uni2B11" unicode="&#x2b11;" horiz-adv-x="649" 
d="M557 241l-191 214l-83 -425h294l-6 -32h-326l89 457l-275 -214l-16 21l318 250l222 -250z" />
    <glyph glyph-name="uni2BA0" unicode="&#x2ba0;" horiz-adv-x="613" 
d="M584 564h32l-58 -300l-5 -26h-457l168 -233l-25 -21l-197 270l302 270l17 -21l-259 -233h425z" />
    <glyph glyph-name="uni2BA1" unicode="&#x2ba1;" horiz-adv-x="609" 
d="M348 506l25 21l193 -270l-308 -270l-16 21l263 233h-457l7 32l63 294h32l-63 -294h425z" />
    <glyph glyph-name="uni2BA2" unicode="&#x2ba2;" horiz-adv-x="612" 
d="M106 281h457l-6 -32l-57 -294h-32l57 294h-425l168 -233l-25 -21l-197 270l302 270l17 -21z" />
    <glyph glyph-name="uni2BA3" unicode="&#x2ba3;" horiz-adv-x="613" 
d="M349 514l25 21l197 -270l-302 -270l-17 21l259 233h-425l-57 -294h-32l58 300l5 26h457z" />
    <glyph glyph-name="uni2BA4" unicode="&#x2ba4;" horiz-adv-x="649" 
d="M557 241l-191 214l-83 -425h294l-6 -32h-326l89 457l-275 -214l-16 21l318 250l222 -250z" />
    <glyph glyph-name="uni2BA5" unicode="&#x2ba5;" horiz-adv-x="664" 
d="M80 264l319 250l221 -250l-25 -21l-191 214l-89 -457h-326l6 32h294l83 425l-275 -214z" />
    <glyph glyph-name="uni2BA6" unicode="&#x2ba6;" horiz-adv-x="660" 
d="M671 508l-6 -32h-294l-83 -425l275 214l17 -21l-319 -250l-221 250l25 21l191 -214l89 457h326z" />
    <glyph glyph-name="uni2BA7" unicode="&#x2ba7;" horiz-adv-x="647" 
d="M312 55l275 214l16 -21l-318 -250l-222 250l26 21l191 -214l83 425h-294l6 32h326z" />
    <glyph glyph-name="fi" unicode="&#xfb01;" horiz-adv-x="395" 
d="M232.5 687q-17.5 -8 -28.5 -29.5t-19 -63.5l-16 -84h112l-5 -26h-112l-94 -484h-30l94 484h-72l5 26h72l17 89q14 71 42 96.5t83 25.5q17 0 40 -3l-5 -25q-26 2 -36 2q-30 0 -47.5 -8zM279 0h-30l99 510h30zM412 618h-56l11 55h56z" />
    <glyph glyph-name="fl" unicode="&#xfb02;" horiz-adv-x="394" 
d="M232.5 687q-17.5 -8 -28.5 -29.5t-19 -63.5l-16 -84h112l-5 -26h-112l-94 -484h-30l94 484h-72l5 26h72l17 89q14 71 42 96.5t83 25.5q17 0 40 -3l-5 -25q-26 2 -36 2q-30 0 -47.5 -8zM278 0h-30l139 715h30z" />
    <glyph glyph-name="uniFEFF" unicode="&#xfeff;" 
 />
    <glyph glyph-name="u1F150" unicode="&#x1f150;" horiz-adv-x="558" 
d="M192.5 315q-41.5 22 -64.5 62t-23 91q0 68 37 129t98.5 97.5t130.5 36.5q52 0 93.5 -22t64.5 -62t23 -91q0 -68 -37 -129t-98.5 -97.5t-130.5 -36.5q-52 0 -93.5 22z" />
    <glyph glyph-name="Adieresis.ss02" horiz-adv-x="613" 
d="M-2 0h-35l413 715h37l139 -715h-34l-44 243h-337zM388 679l-235 -408h316l-79 408h-2zM327 826q-7 7 -7 18q0 16 11 27.5t28 11.5q13 0 20.5 -7t7.5 -19q0 -15 -11.5 -26.5t-28.5 -11.5q-13 0 -20 7zM462 826q-7 7 -7 18q0 16 11 27.5t28 11.5q13 0 20.5 -7t7.5 -19
q0 -15 -11.5 -26.5t-28.5 -11.5q-13 0 -20 7z" />
    <glyph glyph-name="Cdotaccent.ss02" horiz-adv-x="681" 
d="M123.5 63q-68.5 74 -68.5 207q0 119 54 224.5t147 168.5t204 63q109 0 169.5 -61t58.5 -161h-33q2 53 -18.5 97t-65.5 70.5t-111 26.5q-100 0 -185.5 -58.5t-136 -157t-50.5 -211.5q0 -119 58 -186.5t168 -67.5q74 0 135.5 31t103.5 83t61 115h34q-37 -116 -128 -186.5
t-209 -70.5q-119 0 -187.5 74zM464.5 829.5q-8.5 9.5 -8.5 22.5t8.5 22.5t23.5 9.5t24 -9.5t9 -22.5t-9 -22.5t-24 -9.5t-23.5 9.5z" />
    <glyph glyph-name="Edieresis.ss02" horiz-adv-x="581" 
d="M503 0h-470l139 715h460l-5 -28h-428l-57 -293h393l-6 -28h-393l-66 -338h438zM344 826q-7 7 -7 18q0 16 11 27.5t28 11.5q13 0 20.5 -7t7.5 -19q0 -15 -11.5 -26.5t-28.5 -11.5q-13 0 -20 7zM479 826q-7 7 -7 18q0 16 11 27.5t28 11.5q13 0 20.5 -7t7.5 -19
q0 -15 -11.5 -26.5t-28.5 -11.5q-13 0 -20 7z" />
    <glyph glyph-name="Edotaccent.ss02" horiz-adv-x="581" 
d="M503 0h-470l139 715h460l-5 -28h-428l-57 -293h393l-6 -28h-393l-66 -338h438zM414.5 829.5q-8.5 9.5 -8.5 22.5t8.5 22.5t23.5 9.5t24 -9.5t9 -22.5t-9 -22.5t-24 -9.5t-23.5 9.5z" />
    <glyph glyph-name="uni0122.ss02" horiz-adv-x="721" 
d="M121 63q-66 74 -66 205q0 122 54.5 227.5t148.5 168t207 62.5q72 0 126.5 -26t84 -74.5t29.5 -114.5h-31q-1 85 -55 136t-155 51q-102 0 -188.5 -59t-136.5 -157.5t-50 -213.5q0 -116 56 -183.5t170 -67.5q84 0 153 37.5t116 107.5t65 164h-248l6 28h280l-69 -354h-26
l33 189h-2q-37 -88 -116.5 -144t-192.5 -56q-127 0 -193 74zM271 -175q38 18 49 63q-17 -2 -25.5 4.5t-8.5 18.5q0 17 10.5 29.5t27.5 12.5q25 0 25 -30q0 -12 -2 -19q-8 -36 -30 -66t-51 -39z" />
    <glyph glyph-name="Gdotaccent.ss02" horiz-adv-x="721" 
d="M121 63q-66 74 -66 205q0 122 54.5 227.5t148.5 168t207 62.5q72 0 126.5 -26t84 -74.5t29.5 -114.5h-31q-1 85 -55 136t-155 51q-102 0 -188.5 -59t-136.5 -157.5t-50 -213.5q0 -116 56 -183.5t170 -67.5q84 0 153 37.5t116 107.5t65 164h-248l6 28h280l-69 -354h-26
l33 189h-2q-37 -88 -116.5 -144t-192.5 -56q-127 0 -193 74zM468.5 829.5q-8.5 9.5 -8.5 22.5t8.5 22.5t23.5 9.5t24 -9.5t9 -22.5t-9 -22.5t-24 -9.5t-23.5 9.5z" />
    <glyph glyph-name="Idieresis.ss02" horiz-adv-x="198" 
d="M65 0h-32l139 715h32zM120 826q-7 7 -7 18q0 16 11 27.5t28 11.5q13 0 20.5 -7t7.5 -19q0 -15 -11.5 -26.5t-28.5 -11.5q-13 0 -20 7zM255 826q-7 7 -7 18q0 16 11 27.5t28 11.5q13 0 20.5 -7t7.5 -19q0 -15 -11.5 -26.5t-28.5 -11.5q-13 0 -20 7z" />
    <glyph glyph-name="Idotaccent.ss02" horiz-adv-x="198" 
d="M65 0h-32l139 715h32zM190.5 829.5q-8.5 9.5 -8.5 22.5t8.5 22.5t23.5 9.5t24 -9.5t9 -22.5t-9 -22.5t-24 -9.5t-23.5 9.5z" />
    <glyph glyph-name="uni0136.ss02" horiz-adv-x="604" 
d="M643 715h40l-352 -308l232 -407h-35l-221 386l-201 -177l-41 -209h-32l139 715h32l-90 -461zM220 -175q38 18 49 63q-17 -2 -25.5 4.5t-8.5 18.5q0 17 10.5 29.5t27.5 12.5q25 0 25 -30q0 -12 -2 -19q-8 -36 -30 -66t-51 -39z" />
    <glyph glyph-name="uni013B.ss02" horiz-adv-x="537" 
d="M475 0h-442l139 715h32l-134 -687h410zM191 -175q38 18 49 63q-17 -2 -25.5 4.5t-8.5 18.5q0 17 10.5 29.5t27.5 12.5q25 0 25 -30q0 -12 -2 -19q-8 -36 -30 -66t-51 -39z" />
    <glyph glyph-name="uni0145.ss02" horiz-adv-x="694" 
d="M65 0h-32l139 715h37l325 -672h3l131 672h32l-139 -715h-37l-326 670h-3zM223 -175q38 18 49 63q-17 -2 -25.5 4.5t-8.5 18.5q0 17 10.5 29.5t27.5 12.5q25 0 25 -30q0 -12 -2 -19q-8 -36 -30 -66t-51 -39z" />
    <glyph glyph-name="Odieresis.ss02" horiz-adv-x="746" 
d="M178 23.5q-59 34.5 -91 98.5t-32 152q0 119 56 223t150.5 166.5t205.5 62.5q80 0 139.5 -34.5t91.5 -98.5t32 -152q0 -118 -56 -222.5t-151 -167t-206 -62.5q-80 0 -139 34.5zM505 75.5q87 58.5 139 156.5t52 208q0 121 -61 189.5t-170 68.5q-99 0 -185.5 -58
t-138.5 -155.5t-52 -208.5q0 -121 60.5 -190t169.5 -69q99 0 186 58.5zM414 826q-7 7 -7 18q0 16 11 27.5t28 11.5q13 0 20.5 -7t7.5 -19q0 -15 -11.5 -26.5t-28.5 -11.5q-13 0 -20 7zM549 826q-7 7 -7 18q0 16 11 27.5t28 11.5q13 0 20.5 -7t7.5 -19q0 -15 -11.5 -26.5
t-28.5 -11.5q-13 0 -20 7z" />
    <glyph glyph-name="uni0156.ss02" horiz-adv-x="626" 
d="M33 0l139 715h263q90 0 140 -39.5t50 -117.5q0 -84 -53.5 -142t-142.5 -78v-2q64 -13 87.5 -59.5t23.5 -114.5q0 -37 -5 -77q-1 -10 -2 -22.5t-1 -25.5q0 -28 11 -31l-1 -6h-33q-7 6 -7 28q0 13 1 25.5t2 22.5q5 60 5 79q0 76 -31.5 122.5t-117.5 46.5h-233l-63 -324h-32
zM347 352q72 0 128 26.5t87 73t31 106.5q0 67 -40.5 98t-124.5 31h-229l-65 -335h213zM215 -175q38 18 49 63q-17 -2 -25.5 4.5t-8.5 18.5q0 17 10.5 29.5t27.5 12.5q25 0 25 -30q0 -12 -2 -19q-8 -36 -30 -66t-51 -39z" />
    <glyph glyph-name="uni0218.ss02" horiz-adv-x="590" 
d="M160.5 13.5q-60.5 24.5 -96.5 73.5t-36 118q0 16 1 25h32q-1 -7 -1 -21q0 -62 31 -105.5t83.5 -65t117.5 -21.5q94 0 158 40.5t64 123.5q0 46 -21.5 75.5t-62.5 52.5t-135 64q-98 43 -140.5 83t-42.5 104q0 84 65 125t157 41q103 0 164.5 -49t61.5 -140q0 -16 -1 -24h-31
q6 92 -46 138.5t-149 46.5q-81 0 -134.5 -33.5t-53.5 -105.5q0 -43 20.5 -71t57.5 -48.5t110 -51.5q78 -33 122.5 -60.5t68 -63.5t23.5 -87q0 -90 -71 -139t-182 -49q-73 0 -133.5 24.5zM209 -175q38 18 49 63q-17 -2 -25.5 4.5t-8.5 18.5q0 17 10.5 29.5t27.5 12.5
q25 0 25 -30q0 -12 -2 -19q-8 -36 -30 -66t-51 -39z" />
    <glyph glyph-name="uni021A.ss02" horiz-adv-x="567" 
d="M249 0h-32l134 687h-255l5 28h542l-5 -28h-255zM170 -175q38 18 49 63q-17 -2 -25.5 4.5t-8.5 18.5q0 17 10.5 29.5t27.5 12.5q25 0 25 -30q0 -12 -2 -19q-8 -36 -30 -66t-51 -39z" />
    <glyph glyph-name="Udieresis.ss02" horiz-adv-x="668" 
d="M67 170q0 33 8 78l91 467h32l-91 -467q-9 -43 -9 -79q0 -77 44.5 -114.5t139.5 -37.5q114 0 183.5 57.5t91.5 173.5l91 467h32l-91 -467q-50 -259 -307 -259q-215 0 -215 181zM355 826q-7 7 -7 18q0 16 11 27.5t28 11.5q13 0 20.5 -7t7.5 -19q0 -15 -11.5 -26.5
t-28.5 -11.5q-13 0 -20 7zM490 826q-7 7 -7 18q0 16 11 27.5t28 11.5q13 0 20.5 -7t7.5 -19q0 -15 -11.5 -26.5t-28.5 -11.5q-13 0 -20 7z" />
    <glyph glyph-name="Wdieresis.ss02" horiz-adv-x="836" 
d="M176 0h-37l-24 715h33l18 -670h2l317 670h38l60 -670h2l277 670h34l-302 -715h-35l-61 670h-2zM437 826q-7 7 -7 18q0 16 11 27.5t28 11.5q13 0 20.5 -7t7.5 -19q0 -15 -11.5 -26.5t-28.5 -11.5q-13 0 -20 7zM572 826q-7 7 -7 18q0 16 11 27.5t28 11.5q13 0 20.5 -7
t7.5 -19q0 -15 -11.5 -26.5t-28.5 -11.5q-13 0 -20 7z" />
    <glyph glyph-name="Ydieresis.ss02" horiz-adv-x="591" 
d="M261 0h-32l57 293l-181 422h35l166 -392h2l320 392h37l-347 -422zM317 826q-7 7 -7 18q0 16 11 27.5t28 11.5q13 0 20.5 -7t7.5 -19q0 -15 -11.5 -26.5t-28.5 -11.5q-13 0 -20 7zM452 826q-7 7 -7 18q0 16 11 27.5t28 11.5q13 0 20.5 -7t7.5 -19q0 -15 -11.5 -26.5
t-28.5 -11.5q-13 0 -20 7z" />
    <glyph glyph-name="Zdotaccent.ss02" horiz-adv-x="554" 
d="M490 0h-528l5 28l606 657l1 2h-459l5 28h500l-5 -28l-607 -657l-1 -2h488zM377.5 829.5q-8.5 9.5 -8.5 22.5t8.5 22.5t23.5 9.5t24 -9.5t9 -22.5t-9 -22.5t-24 -9.5t-23.5 9.5z" />
    <glyph glyph-name="i.latn_TRK" horiz-adv-x="162" 
d="M46 0h-30l99 510h30zM179 618h-56l11 55h56z" />
    <glyph glyph-name="a.ss01" horiz-adv-x="553" 
d="M502 510h30l-99 -510h-30l25 128h-2q-38 -64 -97 -101.5t-126 -37.5q-79 0 -126 53.5t-47 151.5q0 87 37 161.5t100.5 118.5t140.5 44q73 0 114 -39t52 -103h2zM309.5 44.5q50.5 29.5 87.5 80.5t52 113l7 36q3 21 3 42q0 82 -41 129t-114 47q-67 0 -122.5 -40t-87.5 -108
t-32 -148q0 -86 37.5 -133.5t105.5 -47.5q54 0 104.5 29.5z" />
    <glyph glyph-name="aacute.ss01" horiz-adv-x="553" 
d="M502 510h30l-99 -510h-30l25 128h-2q-38 -64 -97 -101.5t-126 -37.5q-79 0 -126 53.5t-47 151.5q0 87 37 161.5t100.5 118.5t140.5 44q73 0 114 -39t52 -103h2zM309.5 44.5q50.5 29.5 87.5 80.5t52 113l7 36q3 21 3 42q0 82 -41 129t-114 47q-67 0 -122.5 -40t-87.5 -108
t-32 -148q0 -86 37.5 -133.5t105.5 -47.5q54 0 104.5 29.5zM351 598h-29l89 127h41z" />
    <glyph glyph-name="abreve.ss01" horiz-adv-x="553" 
d="M502 510h30l-99 -510h-30l25 128h-2q-38 -64 -97 -101.5t-126 -37.5q-79 0 -126 53.5t-47 151.5q0 87 37 161.5t100.5 118.5t140.5 44q73 0 114 -39t52 -103h2zM309.5 44.5q50.5 29.5 87.5 80.5t52 113l7 36q3 21 3 42q0 82 -41 129t-114 47q-67 0 -122.5 -40t-87.5 -108
t-32 -148q0 -86 37.5 -133.5t105.5 -47.5q54 0 104.5 29.5zM267.5 630q-25.5 27 -25.5 68q0 11 1 17h25q-2 -36 16 -61t55 -25q38 0 65.5 24.5t40.5 61.5h31q-13 -48 -50.5 -80t-88.5 -32q-44 0 -69.5 27z" />
    <glyph glyph-name="acircumflex.ss01" horiz-adv-x="553" 
d="M502 510h30l-99 -510h-30l25 128h-2q-38 -64 -97 -101.5t-126 -37.5q-79 0 -126 53.5t-47 151.5q0 87 37 161.5t100.5 118.5t140.5 44q73 0 114 -39t52 -103h2zM309.5 44.5q50.5 29.5 87.5 80.5t52 113l7 36q3 21 3 42q0 82 -41 129t-114 47q-67 0 -122.5 -40t-87.5 -108
t-32 -148q0 -86 37.5 -133.5t105.5 -47.5q54 0 104.5 29.5zM264 604h-40l112 121h37l63 -121h-36l-48 98h-1z" />
    <glyph glyph-name="adieresis.ss01" horiz-adv-x="553" 
d="M502 510h30l-99 -510h-30l25 128h-2q-38 -64 -97 -101.5t-126 -37.5q-79 0 -126 53.5t-47 151.5q0 87 37 161.5t100.5 118.5t140.5 44q73 0 114 -39t52 -103h2zM309.5 44.5q50.5 29.5 87.5 80.5t52 113l7 36q3 21 3 42q0 82 -41 129t-114 47q-67 0 -122.5 -40t-87.5 -108
t-32 -148q0 -86 37.5 -133.5t105.5 -47.5q54 0 104.5 29.5zM301 618h-56l11 55h56zM431 618h-56l11 55h56z" />
    <glyph glyph-name="agrave.ss01" horiz-adv-x="553" 
d="M502 510h30l-99 -510h-30l25 128h-2q-38 -64 -97 -101.5t-126 -37.5q-79 0 -126 53.5t-47 151.5q0 87 37 161.5t100.5 118.5t140.5 44q73 0 114 -39t52 -103h2zM309.5 44.5q50.5 29.5 87.5 80.5t52 113l7 36q3 21 3 42q0 82 -41 129t-114 47q-67 0 -122.5 -40t-87.5 -108
t-32 -148q0 -86 37.5 -133.5t105.5 -47.5q54 0 104.5 29.5zM334 598h-26l-64 127h45z" />
    <glyph glyph-name="amacron.ss01" horiz-adv-x="553" 
d="M502 510h30l-99 -510h-30l25 128h-2q-38 -64 -97 -101.5t-126 -37.5q-79 0 -126 53.5t-47 151.5q0 87 37 161.5t100.5 118.5t140.5 44q73 0 114 -39t52 -103h2zM309.5 44.5q50.5 29.5 87.5 80.5t52 113l7 36q3 21 3 42q0 82 -41 129t-114 47q-67 0 -122.5 -40t-87.5 -108
t-32 -148q0 -86 37.5 -133.5t105.5 -47.5q54 0 104.5 29.5zM449 631h-228l5 28h228z" />
    <glyph glyph-name="aogonek.ss01" horiz-adv-x="553" 
d="M341.5 -137.5q13.5 -10.5 39.5 -10.5q27 0 54 10l-5 -24q-24 -11 -56 -11q-39 0 -58.5 16t-19.5 43q0 36 30 65t77 49l25 128h-2q-38 -64 -97 -101.5t-126 -37.5q-79 0 -126 53.5t-47 151.5q0 87 37 161.5t100.5 118.5t140.5 44q73 0 114 -39t52 -103h2l26 134h30
l-99 -510q-105 -51 -105 -108q0 -19 13.5 -29.5zM309.5 44.5q50.5 29.5 87.5 80.5t52 113l7 36q3 21 3 42q0 82 -41 129t-114 47q-67 0 -122.5 -40t-87.5 -108t-32 -148q0 -86 37.5 -133.5t105.5 -47.5q54 0 104.5 29.5z" />
    <glyph glyph-name="aring.ss01" horiz-adv-x="553" 
d="M502 510h30l-99 -510h-30l25 128h-2q-38 -64 -97 -101.5t-126 -37.5q-79 0 -126 53.5t-47 151.5q0 87 37 161.5t100.5 118.5t140.5 44q73 0 114 -39t52 -103h2zM309.5 44.5q50.5 29.5 87.5 80.5t52 113l7 36q3 21 3 42q0 82 -41 129t-114 47q-67 0 -122.5 -40t-87.5 -108
t-32 -148q0 -86 37.5 -133.5t105.5 -47.5q54 0 104.5 29.5zM278 580.5q-19 17.5 -19 45.5q0 40 29.5 68.5t69.5 28.5q31 0 49.5 -17.5t18.5 -45.5q0 -40 -29 -68.5t-70 -28.5q-30 0 -49 17.5zM380.5 607q19.5 20 19.5 50q0 19 -12 30.5t-34 11.5q-29 0 -49 -20t-20 -50
q0 -19 12 -30.5t35 -11.5q29 0 48.5 20z" />
    <glyph glyph-name="atilde.ss01" horiz-adv-x="553" 
d="M502 510h30l-99 -510h-30l25 128h-2q-38 -64 -97 -101.5t-126 -37.5q-79 0 -126 53.5t-47 151.5q0 87 37 161.5t100.5 118.5t140.5 44q73 0 114 -39t52 -103h2zM309.5 44.5q50.5 29.5 87.5 80.5t52 113l7 36q3 21 3 42q0 82 -41 129t-114 47q-67 0 -122.5 -40t-87.5 -108
t-32 -148q0 -86 37.5 -133.5t105.5 -47.5q54 0 104.5 29.5zM191 593q10 38 31.5 58.5t50.5 20.5q20 0 35 -7.5t35 -22.5q15 -12 26 -17.5t23 -5.5q33 0 47 53h30q-10 -39 -31 -59t-50 -20q-19 0 -33 7.5t-32 21.5q-17 12 -27.5 18t-24.5 6q-18 0 -30 -12.5t-20 -40.5h-30z
" />
    <glyph glyph-name="adieresis.ss02" horiz-adv-x="502" 
d="M47 19.5q-37 30.5 -37 89.5q0 51 28 80.5t69 42.5t108 26q66 13 106.5 25.5t68 39.5t27.5 74q0 50 -32 72.5t-91 22.5q-77 0 -121.5 -33t-59.5 -93h-32q16 64 67 108t146 44q73 0 112 -30.5t39 -90.5q0 -17 -5 -44l-49 -253q-6 -27 -6 -46q0 -17 8.5 -26t29.5 -9
q7 0 22 3l-5 -26q-13 -3 -26 -3q-59 0 -59 59q0 14 3 32h-2q-37 -47 -91 -71t-113 -24q-68 0 -105 30.5zM261.5 37.5q47.5 22.5 76.5 56t35 65.5l29 147q-26 -31 -68.5 -46.5t-118.5 -28.5q-60 -10 -94.5 -21t-57.5 -34.5t-23 -66.5q0 -94 115 -94q59 0 106.5 22.5zM232 621
q-7 7 -7 18q0 16 11 27.5t28 11.5q13 0 20.5 -7t7.5 -19q0 -15 -11.5 -26.5t-28.5 -11.5q-13 0 -20 7zM367 621q-7 7 -7 18q0 16 11 27.5t28 11.5q13 0 20.5 -7t7.5 -19q0 -15 -11.5 -26.5t-28.5 -11.5q-13 0 -20 7z" />
    <glyph glyph-name="cdotaccent.ss02" horiz-adv-x="511" 
d="M82 45q-52 56 -52 156q0 87 38 160t104.5 115t148.5 42q89 0 135 -49.5t41 -125.5h-32q1 5 1 16q0 53 -35.5 93t-110.5 40q-71 0 -130.5 -38t-94.5 -104t-35 -146q0 -89 42.5 -139t124.5 -50q55 0 99 23t71 58t37 71h32q-13 -49 -47.5 -89.5t-85 -64.5t-109.5 -24
q-90 0 -142 56zM324.5 624.5q-8.5 9.5 -8.5 22.5t8.5 22.5t23.5 9.5t24 -9.5t9 -22.5t-9 -22.5t-24 -9.5t-23.5 9.5z" />
    <glyph glyph-name="edieresis.ss02" horiz-adv-x="519" 
d="M450.5 469q44.5 -49 44.5 -133q0 -32 -8 -74v-2h-419q-4 -27 -4 -61q0 -84 36 -134.5t117 -50.5q53 0 96.5 21.5t72 54t41.5 64.5h31q-31 -74 -95 -120t-147 -46q-89 0 -136.5 56.5t-47.5 154.5q0 88 37 161t102 115.5t147 42.5q88 0 132.5 -49zM461 286q4 32 4 49
q0 69 -35 113t-115 44q-91 0 -155 -56.5t-86 -149.5h387zM276 622q-7 7 -7 18q0 16 11 27.5t28 11.5q13 0 20.5 -7t7.5 -19q0 -15 -11.5 -26.5t-28.5 -11.5q-13 0 -20 7zM411 622q-7 7 -7 18q0 16 11 27.5t28 11.5q13 0 20.5 -7t7.5 -19q0 -15 -11.5 -26.5t-28.5 -11.5
q-13 0 -20 7z" />
    <glyph glyph-name="edotaccent.ss02" horiz-adv-x="519" 
d="M450.5 469q44.5 -49 44.5 -133q0 -32 -8 -74v-2h-419q-4 -27 -4 -61q0 -84 36 -134.5t117 -50.5q53 0 96.5 21.5t72 54t41.5 64.5h31q-31 -74 -95 -120t-147 -46q-89 0 -136.5 56.5t-47.5 154.5q0 88 37 161t102 115.5t147 42.5q88 0 132.5 -49zM461 286q4 32 4 49
q0 69 -35 113t-115 44q-91 0 -155 -56.5t-86 -149.5h387zM346.5 625.5q-8.5 9.5 -8.5 22.5t8.5 22.5t23.5 9.5t24 -9.5t9 -22.5t-9 -22.5t-24 -9.5t-23.5 9.5z" />
    <glyph glyph-name="uni0123.ss02" horiz-adv-x="546" 
d="M500 511h30l-94 -483q-20 -105 -88.5 -158t-170.5 -53q-62 0 -103.5 22t-61 57.5t-17.5 77.5h30q-2 -59 35.5 -95t118.5 -36q88 0 148 45t77 134l24 123h-2q-34 -56 -92.5 -90.5t-125.5 -34.5q-76 0 -125.5 47t-49.5 137q0 86 36.5 158t98.5 114t137 42q67 0 112.5 -34.5
t55.5 -93.5h3zM333.5 85q56.5 39 90.5 104.5t34 139.5q0 53 -21 89.5t-55.5 55t-74.5 18.5q-68 0 -123 -37.5t-87 -103t-32 -145.5q0 -81 38.5 -120.5t110.5 -39.5q63 0 119.5 39zM314 641q0 34 21 63t54 42l-5 -25q-15 -5 -27.5 -21t-16.5 -37q4 1 11 1q24 0 24 -20
q0 -15 -9.5 -24t-23.5 -9q-28 0 -28 30z" />
    <glyph glyph-name="gdotaccent.ss02" horiz-adv-x="546" 
d="M500 511h30l-94 -483q-20 -105 -88.5 -158t-170.5 -53q-62 0 -103.5 22t-61 57.5t-17.5 77.5h30q-2 -59 35.5 -95t118.5 -36q88 0 148 45t77 134l24 123h-2q-34 -56 -92.5 -90.5t-125.5 -34.5q-76 0 -125.5 47t-49.5 137q0 86 36.5 158t98.5 114t137 42q67 0 112.5 -34.5
t55.5 -93.5h3zM333.5 85q56.5 39 90.5 104.5t34 139.5q0 53 -21 89.5t-55.5 55t-74.5 18.5q-68 0 -123 -37.5t-87 -103t-32 -145.5q0 -81 38.5 -120.5t110.5 -39.5q63 0 119.5 39zM320.5 624.5q-8.5 9.5 -8.5 22.5t8.5 22.5t23.5 9.5t24 -9.5t9 -22.5t-9 -22.5t-24 -9.5
t-23.5 9.5z" />
    <glyph glyph-name="i.ss02" horiz-adv-x="162" 
d="M132.5 624.5q-8.5 9.5 -8.5 22.5t8.5 22.5t23.5 9.5t24 -9.5t9 -22.5t-9 -22.5t-24 -9.5t-23.5 9.5zM46 0h-30l99 510h30z" />
    <glyph glyph-name="idieresis.ss02" horiz-adv-x="162" 
d="M46 0h-30l99 510h30zM62 621q-7 7 -7 18q0 16 11 27.5t28 11.5q13 0 20.5 -7t7.5 -19q0 -15 -11.5 -26.5t-28.5 -11.5q-13 0 -20 7zM197 621q-7 7 -7 18q0 16 11 27.5t28 11.5q13 0 20.5 -7t7.5 -19q0 -15 -11.5 -26.5t-28.5 -11.5q-13 0 -20 7z" />
    <glyph glyph-name="iogonek.ss02" horiz-adv-x="162" 
d="M46 0h-30l99 510h30zM132.5 624.5q-8.5 9.5 -8.5 22.5t8.5 22.5t23.5 9.5t24 -9.5t9 -22.5t-9 -22.5t-24 -9.5t-23.5 9.5zM-71.5 -157q-19.5 16 -19.5 43q0 36 30 65t77 49h30q-105 -51 -105 -108q0 -19 13.5 -29.5t39.5 -10.5q27 0 54 10l-5 -24q-24 -11 -56 -11
q-39 0 -58.5 16z" />
    <glyph glyph-name="j.ss02" horiz-adv-x="162" 
d="M-104 -177l5 25q24 -2 32 -2q29 0 43.5 17t24.5 65l114 582h30l-113 -579q-12 -61 -36.5 -86t-60.5 -25q-18 0 -39 3zM132.5 624.5q-8.5 9.5 -8.5 22.5t8.5 22.5t23.5 9.5t24 -9.5t9 -22.5t-9 -22.5t-24 -9.5t-23.5 9.5z" />
    <glyph glyph-name="uni0137.ss02" horiz-adv-x="446" 
d="M435 510h41l-240 -193l176 -317h-34l-164 300l-130 -105l-38 -195h-30l139 715h30l-93 -480zM134 -175q38 18 49 63q-17 -2 -25.5 4.5t-8.5 18.5q0 17 10.5 29.5t27.5 12.5q25 0 25 -30q0 -12 -2 -19q-8 -36 -30 -66t-51 -39z" />
    <glyph glyph-name="uni013C.ss02" horiz-adv-x="162" 
d="M46 0h-30l139 715h30zM-32 -175q38 18 49 63q-17 -2 -25.5 4.5t-8.5 18.5q0 17 10.5 29.5t27.5 12.5q25 0 25 -30q0 -12 -2 -19q-8 -36 -30 -66t-51 -39z" />
    <glyph glyph-name="uni0146.ss02" horiz-adv-x="507" 
d="M432.5 488q36.5 -30 36.5 -89q0 -17 -5 -44l-69 -355h-30l67 347q5 27 5 45q0 100 -111 100q-53 0 -98.5 -24t-76.5 -60.5t-40 -72.5l-65 -335h-30l99 510h30l-19 -96h2q83 104 204 104q64 0 100.5 -30zM143 -175q38 18 49 63q-17 -2 -25.5 4.5t-8.5 18.5q0 17 10.5 29.5
t27.5 12.5q25 0 25 -30q0 -12 -2 -19q-8 -36 -30 -66t-51 -39z" />
    <glyph glyph-name="odieresis.ss02" horiz-adv-x="544" 
d="M79.5 42.5q-50.5 53.5 -50.5 149.5q0 85 37.5 160t104.5 120.5t153 45.5q88 0 138.5 -53.5t50.5 -149.5q0 -85 -37.5 -160t-104.5 -120.5t-153 -45.5q-88 0 -138.5 53.5zM357.5 57.5q59.5 42.5 91.5 111.5t32 147q0 82 -40.5 129t-118.5 47q-77 0 -136.5 -42.5t-92 -112
t-32.5 -147.5q0 -82 40.5 -128.5t118.5 -46.5t137.5 42.5zM267 621q-7 7 -7 18q0 16 11 27.5t28 11.5q13 0 20.5 -7t7.5 -19q0 -15 -11.5 -26.5t-28.5 -11.5q-13 0 -20 7zM402 621q-7 7 -7 18q0 16 11 27.5t28 11.5q13 0 20.5 -7t7.5 -19q0 -15 -11.5 -26.5t-28.5 -11.5
q-13 0 -20 7z" />
    <glyph glyph-name="uni0157.ss02" horiz-adv-x="302" 
d="M344 513l-5 -26q-24 3 -37 3q-41 0 -81.5 -21t-70.5 -58.5t-41 -85.5l-63 -325h-30l99 510h30l-20 -103h1q27 49 74.5 79.5t102.5 30.5q26 0 41 -4zM-32 -175q38 18 49 63q-17 -2 -25.5 4.5t-8.5 18.5q0 17 10.5 29.5t27.5 12.5q25 0 25 -30q0 -12 -2 -19q-8 -36 -30 -66
t-51 -39z" />
    <glyph glyph-name="uni0219.ss02" horiz-adv-x="457" 
d="M113 9.5q-49 20.5 -77 59.5t-28 91h30q0 -45 25.5 -78t67.5 -50t92 -17q67 0 111 30.5t44 86.5q0 31 -19 53t-50.5 37.5t-85.5 34.5q-56 20 -86 34.5t-49.5 38.5t-19.5 62q0 61 49.5 93.5t120.5 32.5q55 0 97 -19.5t65 -52t23 -72.5h-30q0 53 -44.5 85.5t-109.5 32.5
q-57 0 -99.5 -25t-42.5 -74q0 -32 17.5 -51.5t40.5 -29.5t79 -30q66 -24 102 -43t53.5 -44t17.5 -61q0 -71 -52 -108t-133 -37q-60 0 -109 20.5zM134 -175q38 18 49 63q-17 -2 -25.5 4.5t-8.5 18.5q0 17 10.5 29.5t27.5 12.5q25 0 25 -30q0 -12 -2 -19q-8 -36 -30 -66
t-51 -39z" />
    <glyph glyph-name="uni021B.ss02" horiz-adv-x="246" 
d="M160 484l-70 -359q-6 -31 -6 -52q0 -28 15 -38.5t52 -10.5q9 0 33 2l-5 -25q-21 -3 -37 -3q-47 0 -68 15.5t-21 55.5q0 21 6 51l71 364h-75l5 26h75l33 170h30l-33 -170h113l-5 -26h-113zM65 -163q38 18 49 63q-17 -2 -25.5 4.5t-8.5 18.5q0 17 10.5 29.5t27.5 12.5
q25 0 25 -30q0 -12 -2 -19q-8 -36 -30 -66t-51 -39z" />
    <glyph glyph-name="udieresis.ss02" horiz-adv-x="511" 
d="M460 510h30l-99 -510h-30l20 101h-2q-36 -48 -89 -78.5t-122 -30.5q-59 0 -95 30.5t-36 87.5q0 19 4 38l70 362h30l-70 -362q-4 -24 -4 -36q0 -42 25 -68t84 -26q53 0 99.5 24t78.5 60.5t41 70.5zM240 621q-7 7 -7 18q0 16 11 27.5t28 11.5q13 0 20.5 -7t7.5 -19
q0 -15 -11.5 -26.5t-28.5 -11.5q-13 0 -20 7zM375 621q-7 7 -7 18q0 16 11 27.5t28 11.5q13 0 20.5 -7t7.5 -19q0 -15 -11.5 -26.5t-28.5 -11.5q-13 0 -20 7z" />
    <glyph glyph-name="wdieresis.ss02" horiz-adv-x="700" 
d="M152 0h-40l-43 510h31l38 -473h2l237 473h40l45 -474h2l242 474h31l-261 -510h-39l-46 471h-3zM330 621q-7 7 -7 18q0 16 11 27.5t28 11.5q13 0 20.5 -7t7.5 -19q0 -15 -11.5 -26.5t-28.5 -11.5q-13 0 -20 7zM465 621q-7 7 -7 18q0 16 11 27.5t28 11.5q13 0 20.5 -7
t7.5 -19q0 -15 -11.5 -26.5t-28.5 -11.5q-13 0 -20 7z" />
    <glyph glyph-name="ydieresis.ss02" horiz-adv-x="453" 
d="M-34 -177l5 27q22 -2 36 -2q42 0 74.5 32.5t80.5 117.5l-103 512h30l94 -471h2l271 471h33l-303 -524q-37 -65 -64.5 -99.5t-54.5 -50t-62 -15.5q-22 0 -39 2zM208 621q-7 7 -7 18q0 16 11 27.5t28 11.5q13 0 20.5 -7t7.5 -19q0 -15 -11.5 -26.5t-28.5 -11.5q-13 0 -20 7
zM343 621q-7 7 -7 18q0 16 11 27.5t28 11.5q13 0 20.5 -7t7.5 -19q0 -15 -11.5 -26.5t-28.5 -11.5q-13 0 -20 7z" />
    <glyph glyph-name="zdotaccent.ss02" horiz-adv-x="415" 
d="M350 0h-386l5 26l427 456v2h-322l5 26h360l-5 -26l-427 -456v-2h348zM258.5 624.5q-8.5 9.5 -8.5 22.5t8.5 22.5t23.5 9.5t24 -9.5t9 -22.5t-9 -22.5t-24 -9.5t-23.5 9.5z" />
    <glyph glyph-name="i.latn_TRK.ss02" horiz-adv-x="162" 
d="M132.5 624.5q-8.5 9.5 -8.5 22.5t8.5 22.5t23.5 9.5t24 -9.5t9 -22.5t-9 -22.5t-24 -9.5t-23.5 9.5zM46 0h-30l99 510h30z" />
    <glyph glyph-name="adieresis.ss01.ss02" horiz-adv-x="553" 
d="M502 510h30l-99 -510h-30l25 128h-2q-38 -64 -97 -101.5t-126 -37.5q-79 0 -126 53.5t-47 151.5q0 87 37 161.5t100.5 118.5t140.5 44q73 0 114 -39t52 -103h2zM309.5 44.5q50.5 29.5 87.5 80.5t52 113l7 36q3 21 3 42q0 82 -41 129t-114 47q-67 0 -122.5 -40t-87.5 -108
t-32 -148q0 -86 37.5 -133.5t105.5 -47.5q54 0 104.5 29.5zM250 621q-7 7 -7 18q0 16 11 27.5t28 11.5q13 0 20.5 -7t7.5 -19q0 -15 -11.5 -26.5t-28.5 -11.5q-13 0 -20 7zM385 621q-7 7 -7 18q0 16 11 27.5t28 11.5q13 0 20.5 -7t7.5 -19q0 -15 -11.5 -26.5t-28.5 -11.5
q-13 0 -20 7z" />
    <glyph glyph-name="s_s" horiz-adv-x="916" 
d="M113 9.5q-49 20.5 -77 59.5t-28 91h30q0 -45 25.5 -78t67.5 -50t91 -17q67 0 111.5 30.5t44.5 83.5q0 33 -18.5 55.5t-50 38t-86.5 34.5q-56 20 -86.5 34.5t-49.5 38.5t-19 61q0 62 50 94.5t126 32.5q65 0 108.5 -26.5t72.5 -82t52 -149.5q22 -90 40.5 -137.5t57 -77.5
t108.5 -30q74 0 114 32t40 82q0 33 -18.5 55.5t-50 38t-86.5 34.5q-56 20 -86.5 34.5t-49.5 38.5t-19 61q0 62 49.5 94.5t120.5 32.5q55 0 97 -19.5t65 -52t23 -72.5h-30q0 53 -44.5 85.5t-109.5 32.5q-57 0 -99.5 -25.5t-42.5 -74.5q0 -31 17.5 -50.5t41.5 -30t78 -29.5
q66 -23 102 -42.5t53.5 -45.5t17.5 -64q0 -69 -50.5 -105t-134.5 -36q-74 0 -118 29.5t-68.5 85.5t-47.5 156q-29 128 -77 180t-127 52q-61 0 -103.5 -25t-42.5 -75q0 -31 17.5 -50.5t40.5 -29.5t79 -30q65 -23 101 -42t54 -44.5t18 -63.5q0 -69 -52 -106t-133 -37
q-60 0 -109 20.5z" />
    <glyph glyph-name="w_w_w" horiz-adv-x="2015" 
d="M1779 36l242 474h31l-261 -510h-39l-46 471h-3l-236 -471h-40l-42 493l-252 -493h-39l-46 471h-3l-236 -471h-40l-42 493l-252 -493h-39l-46 471h-3l-236 -471h-40l-43 510h31l38 -473h2l237 473h40l45 -474h2l242 474h52l38 -473h2l237 473h40l45 -474h2l242 474h52
l38 -473h2l237 473h40l45 -474h2z" />
    <glyph glyph-name="f_f_i.ss02" horiz-adv-x="608" 
d="M40 0l94 484h-72l5 26h72l17 89q14 71 42 96.5t83 25.5q17 0 40 -3l-5 -25q-26 2 -36 2q-30 0 -47.5 -8t-28.5 -29.5t-19 -63.5l-16 -84h184l17 89q14 71 42 96.5t83 25.5q18 0 40 -3l-5 -25q-26 2 -36 2q-30 0 -47.5 -8t-28.5 -29.5t-19 -63.5l-16 -84h112l-5 -26h-112
l-94 -484h-30l94 484h-184l-94 -484h-30zM578.5 624.5q-8.5 9.5 -8.5 22.5t8.5 22.5t23.5 9.5t24 -9.5t9 -22.5t-9 -22.5t-24 -9.5t-23.5 9.5zM492 0h-30l99 510h30z" />
    <glyph glyph-name="f_i.ss02" horiz-adv-x="395" 
d="M232.5 687q-17.5 -8 -28.5 -29.5t-19 -63.5l-16 -84h112l-5 -26h-112l-94 -484h-30l94 484h-72l5 26h72l17 89q14 71 42 96.5t83 25.5q17 0 40 -3l-5 -25q-26 2 -36 2q-30 0 -47.5 -8zM365.5 624.5q-8.5 9.5 -8.5 22.5t8.5 22.5t23.5 9.5t24 -9.5t9 -22.5t-9 -22.5
t-24 -9.5t-23.5 9.5zM279 0h-30l99 510h30z" />
    <glyph glyph-name="zero.zero" horiz-adv-x="598" 
d="M528 637.5q47 -64.5 47 -173.5q0 -117 -41 -227t-115.5 -179t-170.5 -69t-143.5 64.5t-47.5 173.5q0 117 41 227t115.5 179t171.5 69q96 0 143 -64.5zM147 53l346 576q-40 45 -111 45q-86 0 -153 -66.5t-104 -170t-37 -208.5q0 -120 59 -176zM403 83.5q67 66.5 104 170
t37 208.5q0 90 -33 143l-341 -568q34 -20 80 -20q86 0 153 66.5z" />
    <glyph glyph-name="zero.slash" horiz-adv-x="598" 
d="M528 637.5q47 -64.5 47 -173.5q0 -117 -41 -227t-115.5 -179t-170.5 -69t-143.5 64.5t-47.5 173.5q0 117 41 227t115.5 179t171.5 69q96 0 143 -64.5zM147 53l346 576q-40 45 -111 45q-86 0 -153 -66.5t-104 -170t-37 -208.5q0 -120 59 -176zM403 83.5q67 66.5 104 170
t37 208.5q0 90 -33 143l-341 -568q34 -20 80 -20q86 0 153 66.5z" />
    <glyph glyph-name="zero.tf" horiz-adv-x="600" 
d="M105.5 53.5q-47.5 64.5 -47.5 173.5q0 117 41 227t115.5 179t171.5 69q96 0 143 -64.5t47 -173.5q0 -117 -41 -227t-115.5 -179t-170.5 -69t-143.5 64.5zM404 83.5q67 66.5 104 170t37 208.5q0 97 -40.5 154.5t-121.5 57.5q-86 0 -153 -66.5t-104 -170t-37 -208.5
q0 -97 40.5 -154.5t121.5 -57.5q86 0 153 66.5z" />
    <glyph glyph-name="one.tf" horiz-adv-x="600" 
d="M296 28h141l-5 -28h-314l5 28h141l109 558q-29 -39 -66.5 -51t-94.5 -12l5 28q79 0 121 34.5t56 105.5h32z" />
    <glyph glyph-name="two.tf" horiz-adv-x="600" 
d="M27 0q19 97 83.5 166t169.5 119q95 46 142.5 74t82 73t34.5 109q0 58 -38 95.5t-106 37.5q-57 0 -104.5 -26.5t-79 -71t-42.5 -97.5h-32q11 59 45.5 110t89 82t123.5 31q78 0 127.5 -44t49.5 -116q0 -67 -31 -114.5t-79.5 -80t-124.5 -69.5q-78 -37 -124 -65t-86.5 -73
t-59.5 -110v-2h408l-5 -28h-443z" />
    <glyph glyph-name="three.tf" horiz-adv-x="600" 
d="M109 41q-61 52 -61 140q0 13 4 43h32q-4 -20 -4 -42q0 -75 52 -120t139 -45q61 0 110 23.5t77 65t28 95.5q0 47 -21 80t-54.5 49.5t-69.5 16.5h-75l6 28h71q49 0 91 22.5t66 60t24 80.5q0 57 -41.5 96.5t-118.5 39.5q-89 0 -141.5 -52.5t-66.5 -127.5h-32q18 93 81 150.5
t157 57.5q55 0 99 -20.5t69.5 -57t25.5 -84.5q0 -62 -41 -110.5t-106 -67.5v-2q52 -17 80.5 -58t28.5 -100q0 -62 -32 -110.5t-88 -75.5t-127 -27q-101 0 -162 52z" />
    <glyph glyph-name="four.tf" horiz-adv-x="600" 
d="M391 0h-32l35 182h-349l5 28l443 481h32l-94 -481h105l-5 -28h-105zM483 640l-396 -430h312z" />
    <glyph glyph-name="five.tf" horiz-adv-x="600" 
d="M108.5 31.5q-50.5 42.5 -50.5 115.5q0 18 3 37h32q-3 -18 -3 -34q0 -63 40 -98t115 -35q74 0 129 33.5t84 89t29 119.5q0 78 -41.5 116t-109.5 38q-62 0 -116.5 -27.5t-82.5 -63.5h-35l146 369h323l-5 -28h-298l-114 -286l3 -3q38 35 86.5 51t93.5 16q92 0 137 -49.5
t45 -132.5q0 -75 -35 -136.5t-97.5 -97.5t-141.5 -36q-86 0 -136.5 42.5z" />
    <glyph glyph-name="six.tf" horiz-adv-x="600" 
d="M121 43.5q-48 54.5 -48 157.5q0 137 43.5 252t120.5 182t172 67q72 0 116.5 -39.5t44.5 -109.5q0 -9 -2 -27h-32q1 8 1 23q0 58 -35.5 91.5t-93.5 33.5q-75 0 -135.5 -48t-100.5 -125.5t-56 -166.5l-12 -69l2 -1q34 87 102.5 133.5t145.5 46.5q85 0 133 -47t48 -125
q0 -77 -36.5 -142t-99.5 -103t-137 -38q-93 0 -141 54.5zM384 50.5q54 33.5 85 91.5t31 127q0 68 -39 107.5t-112 39.5q-62 0 -117.5 -34.5t-89 -92t-33.5 -122.5q0 -63 40 -106.5t116 -43.5q65 0 119 33.5z" />
    <glyph glyph-name="seven.tf" horiz-adv-x="600" 
d="M143 0q35 181 130 359.5t274 303.5v1h-406l5 27h450l-4 -24q-168 -111 -271.5 -283t-145.5 -384h-32z" />
    <glyph glyph-name="eight.tf" horiz-adv-x="600" 
d="M102.5 32.5q-58.5 43.5 -58.5 123.5q0 73 50.5 134t136.5 88v2q-89 38 -89 126q0 53 32 98t88 71.5t124 26.5q79 0 128.5 -37t49.5 -103q0 -61 -39 -110t-110 -76v-2q54 -17 84.5 -54.5t30.5 -92.5q0 -63 -38.5 -118t-103.5 -87.5t-140 -32.5q-87 0 -145.5 43.5zM430 413
q47 22 73.5 60t26.5 84q0 57 -40.5 87t-107.5 30q-58 0 -105 -22t-74 -60t-27 -83q0 -56 41 -87t108 -31q58 0 105 22zM372.5 45q56.5 28 90 75t33.5 101q0 66 -49.5 104t-126.5 38q-65 0 -121 -27.5t-88.5 -74t-32.5 -100.5q0 -67 48.5 -105.5t124.5 -38.5q65 0 121.5 28z
" />
    <glyph glyph-name="nine.tf" horiz-adv-x="600" 
d="M109.5 28.5q-44.5 39.5 -44.5 109.5q0 9 2 27h32q-1 -8 -1 -23q0 -58 35.5 -91.5t93.5 -33.5q75 0 135.5 48t100.5 125.5t56 166.5l12 69l-2 1q-34 -87 -102.5 -133.5t-145.5 -46.5q-85 0 -133 47t-48 125q0 77 36.5 142t99.5 103t137 38q93 0 141 -54.5t48 -157.5
q0 -137 -43.5 -252t-120.5 -182t-172 -67q-72 0 -116.5 39.5zM403.5 309.5q55.5 34.5 89 92t33.5 122.5q0 63 -40 106.5t-116 43.5q-65 0 -119 -33.5t-85 -91.5t-31 -127q0 -68 39 -107.5t112 -39.5q62 0 117.5 34.5z" />
    <glyph glyph-name="zero.tf.zero" horiz-adv-x="600" 
d="M529 637.5q47 -64.5 47 -173.5q0 -117 -41 -227t-115.5 -179t-170.5 -69t-143.5 64.5t-47.5 173.5q0 117 41 227t115.5 179t171.5 69q96 0 143 -64.5zM148 53l346 576q-40 45 -111 45q-86 0 -153 -66.5t-104 -170t-37 -208.5q0 -120 59 -176zM404 83.5q67 66.5 104 170
t37 208.5q0 90 -33 143l-341 -568q34 -20 80 -20q86 0 153 66.5z" />
    <glyph glyph-name="zero.dnom" horiz-adv-x="368" 
d="M48 35q-32 41 -32 114q0 66 26.5 127.5t72.5 99t102 37.5t84.5 -40t28.5 -112q0 -69 -24.5 -130.5t-68.5 -99t-100 -37.5q-57 0 -89 41zM224 52q37 33 57.5 89t20.5 122q0 65 -21 95t-66 30q-48 0 -87.5 -33t-61.5 -88t-22 -119q0 -129 94 -129q49 0 86 33z" />
    <glyph glyph-name="one.dnom" horiz-adv-x="171" 
d="M107 337q-20 -18 -39.5 -23.5t-49.5 -5.5l4 23q44 0 67.5 17t33.5 58h24l-79 -406h-27z" />
    <glyph glyph-name="two.dnom" horiz-adv-x="319" 
d="M-25 0q10 59 49 99.5t102 70.5q51 24 77.5 39.5t48 42t21.5 63.5q0 34 -18.5 54t-56.5 20q-49 0 -85.5 -32t-45.5 -79h-28q11 56 55 95.5t107 39.5q46 0 73.5 -25.5t27.5 -72.5q0 -41 -21 -70.5t-47.5 -46t-72.5 -38.5q-43 -21 -69 -36.5t-48 -40t-33 -58.5l1 -2h232
l-4 -23h-265z" />
    <glyph glyph-name="three.dnom" horiz-adv-x="338" 
d="M30 23q-33 29 -33 79q0 15 3 31h28q-3 -15 -3 -29q0 -40 24 -63.5t72 -23.5q57 0 93.5 31t36.5 77q0 38 -23.5 56.5t-56.5 18.5h-44l5 25h42q42 0 71.5 29t29.5 69q0 30 -19.5 48t-61.5 18q-56 0 -86.5 -30.5t-36.5 -68.5h-28q9 52 51.5 87.5t103.5 35.5q48 0 77 -23
t29 -64q0 -36 -23 -67.5t-64 -46.5v-1q64 -21 64 -82q0 -38 -20.5 -68.5t-57.5 -48.5t-83 -18q-57 0 -90 29z" />
    <glyph glyph-name="four.dnom" horiz-adv-x="327" 
d="M199 0h-27l20 104h-203l5 24l257 278h27l-54 -278h61l-5 -24h-61zM243 366l-219 -238h173z" />
    <glyph glyph-name="five.dnom" horiz-adv-x="321" 
d="M22 22q-27 28 -27 67q0 7 2 21h27q-1 -6 -1 -18q0 -35 21.5 -55t61.5 -20t72 20t50 52.5t18 70.5q0 43 -23 63t-62 20q-33 0 -62.5 -13.5t-49.5 -35.5h-28l85 212h198l-5 -23h-176l-63 -156v-1q22 20 50.5 30.5t58.5 10.5q50 0 77.5 -27.5t27.5 -76.5q0 -44 -22 -83
t-61 -62.5t-88 -23.5q-54 0 -81 28z" />
    <glyph glyph-name="six.dnom" horiz-adv-x="341" 
d="M14 135q0 71 27 135t73 103.5t100 39.5q47 0 74 -29t21 -76h-27q1 5 1 14q0 29 -18.5 48t-52.5 19q-61 0 -107 -58.5t-61 -142.5l-3 -17h2q20 46 56 68.5t81 22.5q49 0 79.5 -27.5t30.5 -78.5q0 -43 -21.5 -80t-58.5 -59.5t-83 -22.5q-113 0 -113 141zM195 35.5
q31 18.5 48.5 49.5t17.5 68q0 41 -21.5 63.5t-60.5 22.5q-36 0 -67.5 -18.5t-50 -50t-18.5 -68.5q0 -39 21.5 -62t61.5 -23q38 0 69 18.5z" />
    <glyph glyph-name="seven.dnom" horiz-adv-x="282" 
d="M21 0q20 102 79.5 208.5t152.5 173.5v1h-231l5 23h269l-4 -20q-101 -68 -161.5 -174t-81.5 -212h-28z" />
    <glyph glyph-name="eight.dnom" horiz-adv-x="346" 
d="M34 19.5q-35 25.5 -35 72.5q0 42 28.5 76.5t78.5 51.5v1q-49 24 -49 72q0 33 19.5 60.5t53 43.5t74.5 16q47 0 76.5 -22t29.5 -62q0 -35 -22 -63.5t-62 -44.5v-1q65 -27 65 -87q0 -37 -22.5 -69t-61.5 -51t-85 -19q-53 0 -88 25.5zM250 258.5q33 26.5 33 65.5
q0 32 -23 48.5t-60 16.5q-50 0 -83 -26.5t-33 -65.5q0 -32 22.5 -48.5t60.5 -16.5q50 0 83 26.5zM194.5 32.5q31.5 15.5 50 41.5t18.5 56q0 37 -27.5 58t-71.5 21q-38 0 -69.5 -15.5t-49.5 -41.5t-18 -57q0 -36 27 -57t71 -21q38 0 69.5 15.5z" />
    <glyph glyph-name="nine.dnom" horiz-adv-x="342" 
d="M32 23q-27 29 -21 76h27q-1 -5 -1 -14q0 -29 18.5 -48t52.5 -19q41 0 77.5 29t61 77.5t31.5 103.5l1 8h-2q-20 -46 -57.5 -68.5t-85.5 -22.5q-46 0 -75 27t-29 78q0 44 21.5 81.5t59 59.5t83.5 22q53 0 82.5 -34.5t29.5 -103.5q0 -73 -27 -137.5t-73 -104t-100 -39.5
q-47 0 -74 29zM208 186.5q31 18.5 50 49.5t19 65q0 42 -21.5 65.5t-61.5 23.5q-38 0 -69 -18.5t-48.5 -49.5t-17.5 -68q0 -41 21.5 -63.5t60.5 -22.5q36 0 67 18.5z" />
    <glyph glyph-name="zero.numr" horiz-adv-x="368" 
d="M108 344q-32 41 -32 114q0 66 26.5 127.5t72.5 99t102 37.5t84.5 -40t28.5 -112q0 -69 -24.5 -130.5t-68.5 -99t-100 -37.5q-57 0 -89 41zM284 361q37 33 57.5 89t20.5 122q0 65 -21 95t-66 30q-48 0 -87.5 -33t-61.5 -88t-22 -119q0 -129 94 -129q49 0 86 33z" />
    <glyph glyph-name="one.numr" horiz-adv-x="171" 
d="M167 646q-20 -18 -39.5 -23.5t-49.5 -5.5l4 23q44 0 67.5 17t33.5 58h24l-79 -406h-27z" />
    <glyph glyph-name="two.numr" horiz-adv-x="319" 
d="M35 309q10 59 49 99.5t102 70.5q51 24 77.5 39.5t48 42t21.5 63.5q0 34 -18.5 54t-56.5 20q-49 0 -85.5 -32t-45.5 -79h-28q11 56 55 95.5t107 39.5q46 0 73.5 -25.5t27.5 -72.5q0 -41 -21 -70.5t-47.5 -46t-72.5 -38.5q-43 -21 -69 -36.5t-48 -40t-33 -58.5l1 -2h232
l-4 -23h-265z" />
    <glyph glyph-name="three.numr" horiz-adv-x="338" 
d="M90 332q-33 29 -33 79q0 15 3 31h28q-3 -15 -3 -29q0 -40 24 -63.5t72 -23.5q57 0 93.5 31t36.5 77q0 38 -23.5 56.5t-56.5 18.5h-44l5 25h42q42 0 71.5 29t29.5 69q0 30 -19.5 48t-61.5 18q-56 0 -86.5 -30.5t-36.5 -68.5h-28q9 52 51.5 87.5t103.5 35.5q48 0 77 -23
t29 -64q0 -36 -23 -67.5t-64 -46.5v-1q64 -21 64 -82q0 -38 -20.5 -68.5t-57.5 -48.5t-83 -18q-57 0 -90 29z" />
    <glyph glyph-name="four.numr" horiz-adv-x="327" 
d="M259 310h-27l20 104h-203l5 24l257 278h27l-54 -278h61l-5 -24h-61zM303 676l-219 -238h173z" />
    <glyph glyph-name="five.numr" horiz-adv-x="321" 
d="M82 331q-27 28 -27 67q0 7 2 21h27q-1 -6 -1 -18q0 -35 21.5 -55t61.5 -20t72 20t50 52.5t18 70.5q0 43 -23 63t-62 20q-33 0 -62.5 -13.5t-49.5 -35.5h-28l85 212h198l-5 -23h-176l-63 -156v-1q22 20 50.5 30.5t58.5 10.5q50 0 77.5 -27.5t27.5 -76.5q0 -44 -22 -83
t-61 -62.5t-88 -23.5q-54 0 -81 28z" />
    </font>
</defs>
</svg>
