<?xml version="1.0" standalone="no"?>
<!DOCTYPE svg PUBLIC "-//W3C//DTD SVG 1.1//EN" "http://www.w3.org/Graphics/SVG/1.1/DTD/svg11.dtd" >
<svg xmlns="http://www.w3.org/2000/svg" xmlns:xlink="http://www.w3.org/1999/xlink" version="1.1">
<metadata>
Created by FontForge 20201107 at Mon Sep  5 16:39:32 2022
 By 
Copyright by Pangram Pangram Foundry. All rights reserved.
</metadata>
<defs>
<font id="PPNeueMontreal-Italic" horiz-adv-x="0" >
  <font-face 
    font-family="PP Neue Montreal"
    font-weight="400"
    font-style="italic"
    font-stretch="normal"
    units-per-em="1000"
    panose-1="0 0 5 0 0 0 0 0 0 0"
    ascent="800"
    descent="-200"
    x-height="510"
    cap-height="715"
    bbox="-224 -232 2139 940"
    underline-thickness="60"
    underline-position="-30"
    slope="-11"
    unicode-range="U+000D-1F150"
  />
<missing-glyph horiz-adv-x="658" 
 />
    <glyph glyph-name="f_f" unicode="ff" horiz-adv-x="525" 
d="M43 0l86 440h-71l13 70h72l13 69q15 82 52 112t99 30q21 0 52 -5l-13 -68q-30 3 -41 3q-35 0 -48 -14t-21 -54l-14 -73h169l13 69q15 82 52 112t99 30q21 0 52 -5l-13 -68q-30 3 -41 3q-35 0 -48 -14t-21 -54l-14 -73h97l-13 -70h-98l-85 -440h-80l86 440h-169l-85 -440
h-80z" />
    <glyph glyph-name="f_f_i" unicode="ffi" horiz-adv-x="724" 
d="M43 0l86 440h-71l13 70h72l13 69q15 82 52 112t99 30q21 0 52 -5l-13 -68q-30 3 -41 3q-35 0 -48 -14t-21 -54l-14 -73h169l13 69q15 82 52 112t99 30q21 0 52 -5l-13 -68q-30 3 -41 3q-35 0 -48 -14t-21 -54l-14 -73h97l-13 -70h-98l-85 -440h-80l86 440h-169l-85 -440
h-80zM616 0h-80l99 510h80zM742 609h-96l19 96h96z" />
    <glyph glyph-name="f_i" unicode="fi" horiz-adv-x="479" 
d="M257 637q-13 -14 -21 -54l-14 -73h97l-13 -70h-98l-85 -440h-80l86 440h-71l13 70h72l13 69q16 82 52.5 112t98.5 30q21 0 52 -5l-13 -68q-30 3 -41 3q-35 0 -48 -14zM371 0h-80l99 510h80zM497 609h-96l19 96h96z" />
    <glyph glyph-name="f_l" unicode="fl" horiz-adv-x="478" 
d="M257 637q-13 -14 -21 -54l-14 -73h97l-13 -70h-98l-85 -440h-80l86 440h-71l13 70h72l13 69q16 82 52.5 112t98.5 30q21 0 52 -5l-13 -68q-30 3 -41 3q-35 0 -48 -14zM370 0h-80l139 715h80z" />
    <glyph glyph-name=".notdef" horiz-adv-x="658" 
 />
    <glyph glyph-name=".null" 
 />
    <glyph glyph-name="nonmarkingreturn" unicode="&#xd;" horiz-adv-x="214" 
 />
    <glyph glyph-name="space" unicode=" " horiz-adv-x="214" 
 />
    <glyph glyph-name="exclam" unicode="!" horiz-adv-x="217" 
d="M119 184h-50l43 326l40 205h90l-40 -205zM106 0h-96l19 96h96z" />
    <glyph glyph-name="quotedbl" unicode="&#x22;" horiz-adv-x="314" 
d="M155 471h-60l37 244h80zM300 471h-60l37 244h80z" />
    <glyph glyph-name="numbersign" unicode="#" horiz-adv-x="580" 
d="M598 501l-26 -70h-105l-60 -154h117l-25 -70h-119l-81 -207h-70l81 207h-120l-81 -207h-70l81 207h-96l26 70h97l60 154h-108l25 70h111l74 190h70l-74 -190h120l74 190h70l-74 -190h103zM217 277h120l60 154h-120z" />
    <glyph glyph-name="dollar" unicode="$" horiz-adv-x="590" 
d="M495 476l1 19q0 102 -95 123l-47 -243q60 -24 98 -45.5t64 -57t26 -88.5q0 -58 -32 -102.5t-91.5 -69.5t-139.5 -26l-17 -87h-58l17 90q-95 11 -149.5 65t-54.5 139q0 24 2 36h85q-1 -8 -1 -24q0 -122 133 -139l49 250q-86 35 -135 77.5t-49 115.5q0 56 32.5 99t90 67
t131.5 24h4l14 71h58l-15 -76q76 -13 121 -58.5t45 -124.5q0 -11 -2 -35h-85zM217 449q28 -26 84 -52l43 226q-71 -1 -113 -29t-42 -77q0 -42 28 -68zM427 243.5q-28 25.5 -88 50.5l-45 -231q82 2 121.5 32.5t39.5 80.5q0 42 -28 67.5z" />
    <glyph glyph-name="percent" unicode="%" horiz-adv-x="813" 
d="M99 350q-34 41 -34 107q0 65 25.5 122t71.5 91.5t105 34.5q66 0 100 -41t34 -107q0 -65 -25.5 -122t-71.5 -91.5t-105 -34.5q-66 0 -100 41zM202 0h-80l519 691h80zM270.5 403.5q28.5 26.5 44 68t15.5 84.5q0 38 -16.5 59.5t-50.5 21.5q-39 0 -67.5 -26.5t-44 -68
t-15.5 -84.5q0 -38 16.5 -59.5t50.5 -21.5q39 0 67.5 26.5zM481 27q-34 41 -34 107q0 65 25.5 122t71.5 91.5t105 34.5q66 0 100 -41t34 -107q0 -65 -25.5 -122t-71.5 -91.5t-105 -34.5q-66 0 -100 41zM652.5 80.5q28.5 26.5 44 68t15.5 84.5q0 38 -16.5 59.5t-50.5 21.5
q-39 0 -67.5 -26.5t-44 -68t-15.5 -84.5q0 -38 16.5 -59.5t50.5 -21.5q39 0 67.5 26.5z" />
    <glyph glyph-name="ampersand" unicode="&#x26;" horiz-adv-x="592" 
d="M579 348q-43 -130 -112 -216l82 -132h-95l-44 70q-96 -84 -212 -84q-89 0 -137 44.5t-48 117.5q0 82 56 138t145 103q-27 45 -40 80t-13 71q0 52 25 95t69.5 68.5t101.5 25.5q71 0 109 -39t38 -101q0 -48 -23 -85t-62 -65t-103 -63l112 -181q37 57 71 153h80zM269.5 623
q-26.5 -29 -26.5 -72q0 -49 43 -126q68 36 102 71t34 79q0 35 -20.5 56t-59.5 21q-46 0 -72.5 -29zM373 130l-127 207q-72 -41 -111 -81t-39 -92q0 -47 27.5 -72.5t79.5 -25.5q99 0 170 64z" />
    <glyph glyph-name="quotesingle" unicode="'" horiz-adv-x="169" 
d="M155 471h-60l37 244h80z" />
    <glyph glyph-name="parenleft" unicode="(" horiz-adv-x="263" 
d="M104 -117q-33 58 -52.5 131.5t-19.5 158.5q0 151 64 308t177 274h70q-117 -153 -170 -291.5t-53 -292.5q0 -136 54 -288h-70z" />
    <glyph glyph-name="parenright" unicode=")" horiz-adv-x="263" 
d="M-56 -117q117 153 170 291.5t53 292.5q0 136 -54 288h70q33 -58 52.5 -131.5t19.5 -158.5q0 -151 -64 -308t-177 -274h-70z" />
    <glyph glyph-name="asterisk" unicode="*" horiz-adv-x="454" 
d="M273 493l-108 -113l-46 36l106 108l-125 40l31 54l126 -38l25 135h66l-26 -135l138 38l11 -54l-142 -40l64 -108l-55 -36z" />
    <glyph glyph-name="plus" unicode="+" horiz-adv-x="555" 
d="M285 93h-80l38 193h-187l15 79h187l38 193h80l-38 -193h187l-15 -79h-187z" />
    <glyph glyph-name="comma" unicode="," horiz-adv-x="195" 
d="M-14 -77q28 9 41.5 25.5t19.5 51.5h-46l19 96h96l-19 -96q-10 -52 -35 -83.5t-86 -43.5z" />
    <glyph glyph-name="hyphen" unicode="-" horiz-adv-x="355" 
d="M303 215h-268l16 80h268z" />
    <glyph glyph-name="period" unicode="." horiz-adv-x="189" 
d="M94 0h-96l19 96h96z" />
    <glyph glyph-name="slash" unicode="/" horiz-adv-x="406" 
d="M48 0h-80l428 715h80z" />
    <glyph glyph-name="zero" unicode="0" horiz-adv-x="626" 
d="M104 53.5q-52 67.5 -52 181.5q0 121 43 229.5t121.5 174.5t178.5 66q108 0 160 -67.5t52 -181.5q0 -122 -42 -230t-120 -174t-181 -66q-108 0 -160 67.5zM403 123q57 57 87 147t30 184q0 81 -30 126t-101 45q-76 0 -133 -57t-87 -147t-30 -184q0 -81 30 -126t101 -45
q76 0 133 57z" />
    <glyph glyph-name="one" unicode="1" horiz-adv-x="324" 
d="M208 527q-25 -20 -61.5 -27t-89.5 -7l15 75q59 1 95 15t56.5 40t35.5 68h70l-134 -691h-90z" />
    <glyph glyph-name="two" unicode="2" horiz-adv-x="560" 
d="M-18 0q20 96 84 167t180 132l43 22q65 33 103 57.5t63.5 61.5t25.5 88q0 45 -24.5 71t-87.5 26q-153 0 -188 -176h-92q13 71 50.5 129.5t98.5 92.5t139 34q89 0 142 -44.5t53 -126.5q0 -73 -42.5 -128.5t-93 -88t-128.5 -72.5q-79 -41 -126.5 -78.5t-69.5 -84.5v-2h365
l-16 -80h-479z" />
    <glyph glyph-name="three" unicode="3" horiz-adv-x="599" 
d="M138.5 10.5q-55.5 24.5 -85 68.5t-29.5 102q0 26 6 53h94q-4 -20 -4 -44q0 -59 38 -91.5t119 -32.5q91 0 132.5 40t41.5 105q0 61 -33.5 85.5t-97.5 24.5h-64l15 80h70q65 0 106.5 37t41.5 94q0 93 -123 93q-151 0 -175 -141h-94q11 64 47 114t95 78.5t135 28.5
q97 0 152.5 -44t55.5 -118q0 -61 -37.5 -107t-100.5 -69v-3q53 -16 77.5 -51.5t24.5 -91.5q0 -66 -31.5 -119.5t-93.5 -84.5t-150 -31q-77 0 -132.5 24.5z" />
    <glyph glyph-name="four" unicode="4" horiz-adv-x="574" 
d="M399 0h-90l31 162h-333l16 80l420 449h90l-87 -449h95l-16 -80h-95zM419 564l-301 -322h238z" />
    <glyph glyph-name="five" unicode="5" horiz-adv-x="571" 
d="M118 11q-48 25 -72 66t-24 89q0 17 3 33h92l-1 -17q0 -52 29.5 -84t93.5 -32q60 0 106.5 29t72 76t25.5 100q0 58 -31.5 85.5t-87.5 27.5q-108 0 -170 -65h-96l145 372h377l-16 -80h-304l-82 -209v-2q31 29 74 46.5t95 17.5q89 0 138 -49.5t49 -134.5q0 -77 -38 -145
t-106.5 -108.5t-155.5 -40.5q-68 0 -116 25z" />
    <glyph glyph-name="six" unicode="6" horiz-adv-x="598" 
d="M110 49q-57 63 -57 185q0 123 43 231.5t121 174t179 65.5q64 0 108.5 -25.5t65 -69t15.5 -94.5h-92q3 52 -24.5 80.5t-88.5 28.5q-89 0 -146.5 -74t-76.5 -187l-2 -12l2 -1q36 50 88.5 75t113.5 25q90 0 142.5 -51.5t52.5 -141.5q0 -73 -35.5 -135.5t-99.5 -99.5
t-145 -37q-107 0 -164 63zM371.5 91q41.5 25 64 67.5t22.5 93.5q0 60 -32.5 89.5t-92.5 29.5q-52 0 -94.5 -21.5t-67.5 -61.5t-25 -93q0 -61 34 -95t97 -34q53 0 94.5 25z" />
    <glyph glyph-name="seven" unicode="7" horiz-adv-x="510" 
d="M58 0q21 109 87 229t150.5 221t159.5 159l1 2h-379l15 80h479l-13 -70q-91 -66 -176 -170t-146.5 -223t-82.5 -228h-95z" />
    <glyph glyph-name="eight" unicode="8" horiz-adv-x="601" 
d="M87 30q-62 44 -62 131q0 59 29 102t70 68.5t77 34.5v2q-77 43 -77 130q0 56 32 103.5t90 75.5t133 28q91 0 145.5 -42t54.5 -120q0 -63 -35 -109.5t-94 -68.5v-2q101 -39 101 -140q0 -63 -36.5 -117.5t-105 -87t-158.5 -32.5q-102 0 -164 44zM446 441.5q43 34.5 43 90.5
q0 47 -32.5 70t-89.5 23q-76 0 -114.5 -36t-38.5 -88q0 -46 31 -70t88 -24q70 0 113 34.5zM367.5 86q44.5 20 68.5 55t24 79q0 54 -38.5 80.5t-108.5 26.5q-60 0 -105 -20.5t-68.5 -55.5t-23.5 -78q0 -107 150 -107q57 0 101.5 20z" />
    <glyph glyph-name="nine" unicode="9" horiz-adv-x="598" 
d="M128.5 11.5q-44.5 25.5 -65 69t-15.5 94.5h92q-3 -52 24.5 -80.5t88.5 -28.5q89 0 146.5 74t76.5 187l2 12l-2 1q-36 -50 -88.5 -75t-113.5 -25q-90 0 -142.5 51.5t-52.5 141.5q0 73 35.5 135.5t99.5 99.5t145 37q107 0 164 -63t57 -185q0 -123 -43 -231.5t-121 -174
t-179 -65.5q-64 0 -108.5 25.5zM394.5 341.5q42.5 21.5 67.5 61.5t25 93q0 61 -34 95t-97 34q-53 0 -94.5 -25t-64 -67.5t-22.5 -93.5q0 -60 32.5 -89.5t92.5 -29.5q52 0 94.5 21.5z" />
    <glyph glyph-name="colon" unicode=":" horiz-adv-x="200" 
d="M157 305h-96l19 96h96zM98 0h-96l19 96h96z" />
    <glyph glyph-name="semicolon" unicode=";" horiz-adv-x="200" 
d="M157 305h-96l19 96h96zM-13 -77q28 9 41.5 25.5t19.5 51.5h-46l19 96h96l-19 -96q-10 -52 -35 -83.5t-86 -43.5z" />
    <glyph glyph-name="less" unicode="&#x3c;" horiz-adv-x="509" 
d="M437 171l-15 -74l-374 170l17 90l440 169l-16 -86l-367 -133l-1 -2z" />
    <glyph glyph-name="equal" unicode="=" horiz-adv-x="556" 
d="M521 357h-445l14 79h445zM492 216h-445l14 79h445z" />
    <glyph glyph-name="greater" unicode="&#x3e;" horiz-adv-x="508" 
d="M463 266l-440 -169l16 86l367 133l1 2l-316 134l15 74l374 -170z" />
    <glyph glyph-name="question" unicode="?" horiz-adv-x="493" 
d="M160 183q12 62 36.5 104.5t52 67.5t73.5 59q12 8 18 13q47 32 74 62t27 78q0 39 -28 60.5t-79 21.5q-68 0 -118.5 -39.5t-64.5 -126.5h-90q12 71 49.5 127t96.5 87.5t133 31.5q91 0 141.5 -42.5t50.5 -115.5q0 -64 -33.5 -104t-65 -61.5t-39.5 -26.5q-8 -6 -47.5 -33.5
t-63 -67.5t-33.5 -95h-90zM219 0h-96l19 96h96z" />
    <glyph glyph-name="at" unicode="@" horiz-adv-x="878" 
d="M123 -18.5q-88 87.5 -88 248.5q0 135 65.5 245.5t177.5 174t245 63.5q107 0 183.5 -39t116.5 -109.5t40 -163.5q0 -85 -30 -159.5t-82 -118.5t-113 -44q-46 0 -74 20.5t-42 60.5h-2q-63 -77 -154 -77q-65 0 -101.5 42.5t-36.5 120.5q0 73 33 135.5t88 99t116 36.5
q50 0 83 -25.5t40 -64.5h2l28 83h71l-81 -251q-10 -30 -10 -56q0 -54 50 -54q39 0 71.5 33t52 88t19.5 118q0 123 -74 189t-198 66q-113 0 -207.5 -51.5t-149.5 -145t-55 -213.5q0 -127 70 -198t211 -71q95 0 174 30l14 -57q-90 -43 -205 -43q-160 0 -248 87.5zM468.5 181
q39.5 28 62.5 73.5t23 93.5q0 50 -24.5 74.5t-64.5 24.5q-44 0 -83 -27.5t-62 -73t-23 -95.5q0 -46 21.5 -72t64.5 -26q46 0 85.5 28z" />
    <glyph glyph-name="A" unicode="A" horiz-adv-x="646" 
d="M53 0h-95l403 715h101l127 -715h-95l-28 179h-315zM396 632l-200 -373h256l-54 373h-2z" />
    <glyph glyph-name="B" unicode="B" horiz-adv-x="662" 
d="M25 0l139 715h284q99 0 153 -39.5t54 -112.5q0 -62 -38 -110t-106 -69v-3q109 -23 109 -137q0 -69 -36.5 -125t-102 -87.5t-148.5 -31.5h-308zM404 416q75 0 116.5 36.5t41.5 95.5q0 45 -25.5 66t-80.5 21h-218l-42 -219h208zM345 80q85 0 134.5 44t49.5 113
q0 50 -27.5 74.5t-78.5 24.5h-243l-49 -256h214z" />
    <glyph glyph-name="C" unicode="C" horiz-adv-x="707" 
d="M124 63.5q-73 77.5 -73 215.5q0 121 54.5 224.5t149 164.5t208.5 61q85 0 145 -35t88 -92.5t23 -122.5h-90q0 74 -43.5 122t-133.5 48q-89 0 -160 -48.5t-111 -132t-40 -186.5q0 -216 195 -216q104 0 166 56.5t84 135.5h92q-23 -79 -73 -141t-122 -96.5t-157 -34.5
q-129 0 -202 77.5z" />
    <glyph glyph-name="D" unicode="D" horiz-adv-x="695" 
d="M25 0l139 715h245q274 0 274 -272q0 -121 -50.5 -222.5t-139.5 -161t-199 -59.5h-269zM307 80q82 0 147 48.5t101.5 131.5t36.5 181q0 95 -43.5 144.5t-155.5 49.5h-155l-107 -555h176z" />
    <glyph glyph-name="E" unicode="E" horiz-adv-x="613" 
d="M532 0h-507l139 715h495l-16 -80h-405l-43 -225h357l-16 -80h-357l-48 -250h417z" />
    <glyph glyph-name="F" unicode="F" horiz-adv-x="578" 
d="M115 0h-90l139 715h485l-16 -80h-395l-45 -232h319l-15 -80h-319z" />
    <glyph glyph-name="G" unicode="G" horiz-adv-x="735" 
d="M116.5 60.5q-66.5 74.5 -66.5 207.5q0 122 54 228t149.5 169.5t216.5 63.5q83 0 140 -31t84 -83t25 -116h-92q0 74 -45 112t-129 38q-89 0 -160.5 -50.5t-111.5 -136t-40 -186.5q0 -96 42 -153t139 -57q66 0 125.5 28.5t101 80t54.5 117.5h-233l15 80h323l-72 -372h-60
l-10 101h-2q-54 -58 -113 -86.5t-138 -28.5q-130 0 -196.5 74.5z" />
    <glyph glyph-name="H" unicode="H" horiz-adv-x="712" 
d="M115 0h-90l139 715h90l-59 -304h382l59 304h90l-139 -715h-90l64 331h-382z" />
    <glyph glyph-name="I" unicode="I" horiz-adv-x="240" 
d="M115 0h-90l139 715h90z" />
    <glyph glyph-name="J" unicode="J" horiz-adv-x="504" 
d="M43.5 30.5q-41.5 44.5 -41.5 118.5q0 37 7 69l4 20h90l-4 -20q-9 -49 -9 -72q0 -40 22 -60t75 -20q71 0 103 40.5t46 111.5l97 497h90l-101 -517q-20 -100 -76.5 -156t-164.5 -56q-96 0 -137.5 44.5z" />
    <glyph glyph-name="K" unicode="K" horiz-adv-x="639" 
d="M614 715h107l-338 -295l221 -420h-102l-186 361l-157 -137l-44 -224h-90l139 715h90l-74 -380z" />
    <glyph glyph-name="L" unicode="L" horiz-adv-x="554" 
d="M490 0h-465l139 715h90l-123 -635h375z" />
    <glyph glyph-name="M" unicode="M" horiz-adv-x="846" 
d="M115 0h-90l139 715h123l108 -598h2l330 598h133l-139 -715h-90l114 588h-2l-330 -588h-80l-102 588h-2z" />
    <glyph glyph-name="N" unicode="N" horiz-adv-x="709" 
d="M115 0h-90l139 715h108l243 -587h4l114 587h90l-139 -715h-108l-243 587h-4z" />
    <glyph glyph-name="O" unicode="O" horiz-adv-x="776" 
d="M185 22.5q-66 36.5 -100.5 102t-34.5 151.5q0 120 56 224.5t153.5 166.5t215.5 62q89 0 155 -36.5t100.5 -102t34.5 -151.5q0 -120 -56 -224.5t-153.5 -166.5t-215.5 -62q-89 0 -155 36.5zM516.5 117.5q74.5 51.5 116 137t41.5 184.5q0 95 -50.5 152.5t-155.5 57.5
q-95 0 -169.5 -51.5t-116 -137t-41.5 -184.5q0 -95 50.5 -152.5t155.5 -57.5q95 0 169.5 51.5z" />
    <glyph glyph-name="P" unicode="P" horiz-adv-x="614" 
d="M25 0l139 715h275q96 0 151 -39t55 -130q0 -70 -34 -126.5t-96 -88.5t-142 -32h-200l-58 -299h-90zM388 379q76 0 121 45.5t45 115.5q0 51 -27.5 73t-97.5 22h-191l-49 -256h199z" />
    <glyph glyph-name="Q" unicode="Q" horiz-adv-x="776" 
d="M726 249.5q-39 -89.5 -109 -153.5l69 -85l-65 -53l-70 87q-99 -59 -211 -59q-89 0 -155 36.5t-100.5 102t-34.5 151.5q0 120 56 224.5t153.5 166.5t215.5 62q89 0 155 -36.5t100.5 -102t34.5 -151.5q0 -100 -39 -189.5zM500 107l-80 100l65 53l81 -101q51 53 79.5 126
t28.5 154q0 95 -50.5 152.5t-155.5 57.5q-95 0 -169.5 -51.5t-116 -137t-41.5 -184.5q0 -95 50.5 -152.5t155.5 -57.5q84 0 153 41z" />
    <glyph glyph-name="R" unicode="R" horiz-adv-x="647" 
d="M25 0l139 715h277q105 0 159.5 -43t54.5 -123t-47.5 -141t-122.5 -77v-3q46 -10 64.5 -47t18.5 -93q0 -32 -9 -102q-1 -11 -3 -29t-2 -28q0 -20 8 -23l-1 -6h-97q-4 4 -4 16q0 16 7 56q12 62 12 101q0 53 -23 84.5t-80 31.5h-205l-56 -289h-90zM380 369q54 0 96 22
t64.5 60t22.5 86q0 51 -33.5 74.5t-112.5 23.5h-179l-51 -266h193z" />
    <glyph glyph-name="S" unicode="S" horiz-adv-x="624" 
d="M148.5 16.5q-66.5 30.5 -100.5 87t-28 133.5h88q-1 -83 51 -127t147 -44q86 0 136 33t50 103q0 36 -17 57.5t-53.5 38.5t-113.5 43q-74 25 -117 48.5t-64.5 57t-21.5 82.5q0 96 75.5 148t191.5 52q114 0 178.5 -48.5t64.5 -146.5q0 -18 -1 -28h-88q4 73 -35 108t-127 35
q-74 0 -121.5 -25.5t-47.5 -84.5q0 -34 15 -54.5t47 -35.5t100 -38q86 -30 130.5 -52t70 -57.5t25.5 -93.5q0 -106 -76.5 -164t-202.5 -58q-89 0 -155.5 30.5z" />
    <glyph glyph-name="T" unicode="T" horiz-adv-x="594" 
d="M292 0h-90l123 635h-238l16 80h566l-16 -80h-238z" />
    <glyph glyph-name="U" unicode="U" horiz-adv-x="686" 
d="M118 37.5q-59 51.5 -59 140.5q0 29 6 60l93 477h90l-93 -477q-6 -30 -6 -54q0 -62 37.5 -90t113.5 -28q189 0 223 172l93 477h90l-93 -477q-22 -116 -101.5 -184t-221.5 -68q-113 0 -172 51.5z" />
    <glyph glyph-name="V" unicode="V" horiz-adv-x="623" 
d="M312 0h-98l-117 715h98l83 -623h1l326 623h96z" />
    <glyph glyph-name="W" unicode="W" horiz-adv-x="917" 
d="M249 0h-100l-48 715h95l29 -586h2l261 586h104l48 -586h2l250 586h95l-316 -715h-100l-46 613h-2z" />
    <glyph glyph-name="X" unicode="X" horiz-adv-x="581" 
d="M57 0h-109l315 368l-159 347h100l120 -284h1l233 284h102l-300 -348l171 -367h-100l-131 301h-1z" />
    <glyph glyph-name="Y" unicode="Y" horiz-adv-x="630" 
d="M310 0h-90l57 293l-178 422h95l138 -353h2l277 353h99l-343 -422z" />
    <glyph glyph-name="Z" unicode="Z" horiz-adv-x="601" 
d="M527 0h-556l16 80l543 553v2h-416l16 80h526l-16 -80l-543 -553v-2h446z" />
    <glyph glyph-name="bracketleft" unicode="[" horiz-adv-x="282" 
d="M186 -117h-189l169 872h189l-15 -80h-99l-138 -712h99z" />
    <glyph glyph-name="backslash" unicode="\" horiz-adv-x="380" 
d="M319 0h-80l-138 715h80z" />
    <glyph glyph-name="bracketright" unicode="]" horiz-adv-x="282" 
d="M140 -117h-189l15 80h99l138 712h-99l16 80h189z" />
    <glyph glyph-name="asciicircum" unicode="^" horiz-adv-x="474" 
d="M153 440h-93l229 275h80l122 -275h-86l-87 202h-1z" />
    <glyph glyph-name="underscore" unicode="_" horiz-adv-x="570" 
d="M468 -146h-520l16 80h520z" />
    <glyph glyph-name="grave" unicode="`" horiz-adv-x="218" 
d="M198 591h-65l-62 134h95z" />
    <glyph glyph-name="a" unicode="a" horiz-adv-x="539" 
d="M50 20.5q-39 34.5 -39 99.5q0 78 57.5 116.5t171.5 61.5q71 14 100.5 22t49.5 25t20 49q0 29 -21.5 45t-75.5 16q-64 0 -99.5 -25t-49.5 -81h-82q18 83 79 129.5t159 46.5q81 0 124.5 -32.5t43.5 -95.5q0 -21 -4 -41l-47 -241q-4 -24 -4 -32q0 -14 5.5 -21t19.5 -7
q5 0 17 2l-11 -52q-25 -10 -48 -10q-34 0 -50 18.5t-15 60.5h-3q-33 -42 -80.5 -65t-105.5 -23q-73 0 -112 34.5zM309.5 95q52.5 39 66.5 109l15 74q-16 -15 -36.5 -21.5t-85.5 -20.5q-66 -14 -102 -26t-55 -31t-19 -51q0 -72 92 -72q72 0 124.5 39z" />
    <glyph glyph-name="b" unicode="b" horiz-adv-x="564" 
d="M488 470.5q50 -53.5 50 -153.5q0 -92 -38 -168t-103.5 -119.5t-145.5 -43.5q-103 0 -144 80h-6l-13 -66h-80l139 715h80l-52 -268h3q71 77 176 77q84 0 134 -53.5zM358 89q46 33 72.5 91t26.5 130q0 67 -28 105.5t-95 38.5q-55 0 -101 -35t-73 -93t-27 -124
q0 -70 32.5 -108t92.5 -38q54 0 100 33z" />
    <glyph glyph-name="c" unicode="c" horiz-adv-x="526" 
d="M78.5 41.5q-54.5 55.5 -54.5 150.5q0 88 39 164.5t107.5 122t154.5 45.5q63 0 107.5 -26t65.5 -72t16 -103h-78q1 7 1 20q0 54 -29.5 82.5t-87.5 28.5q-62 0 -111.5 -36t-76.5 -94.5t-27 -124.5q0 -62 31 -102.5t98 -40.5q71 0 115.5 39.5t58.5 89.5h80
q-15 -58 -52.5 -103t-91.5 -70.5t-115 -25.5q-96 0 -150.5 55.5z" />
    <glyph glyph-name="d" unicode="d" horiz-adv-x="563" 
d="M514 715h80l-139 -715h-80l12 63h-2q-71 -77 -176 -77q-84 0 -134 53.5t-50 153.5q0 92 38 168t103.5 119.5t145.5 43.5q103 0 144 -80h5zM347.5 105.5q52.5 49.5 72.5 125.5l8 40q2 24 2 37q0 70 -32.5 108t-92.5 38q-54 0 -100 -33t-72.5 -91t-26.5 -130
q0 -67 28 -105.5t95 -38.5q66 0 118.5 49.5z" />
    <glyph glyph-name="e" unicode="e" horiz-adv-x="548" 
d="M111 234q-2 -22 -2 -34q0 -71 31 -108t101 -37q68 0 112 32.5t60 69.5h83q-37 -79 -103 -125.5t-158 -46.5q-101 0 -155 56.5t-54 157.5q0 91 39 165.5t108 117.5t154 43q100 0 149.5 -51t49.5 -139q0 -39 -12 -101h-403zM194 415.5q-51 -40.5 -71 -111.5h318q3 18 3 36
q0 52 -31 84t-93 32q-75 0 -126 -40.5z" />
    <glyph glyph-name="f" unicode="f" horiz-adv-x="277" 
d="M257 637q-13 -14 -21 -54l-14 -73h97l-13 -70h-98l-85 -440h-80l86 440h-71l13 70h72l13 69q16 82 52.5 112t98.5 30q21 0 52 -5l-13 -68q-30 3 -41 3q-35 0 -48 -14z" />
    <glyph glyph-name="g" unicode="g" horiz-adv-x="565" 
d="M477 510h80l-92 -473q-21 -107 -90 -162t-173 -55q-62 0 -109.5 20.5t-72.5 57t-23 83.5h78q0 -91 127 -91q154 0 184 154l12 62h-2q-69 -80 -177 -80q-85 0 -136 50.5t-51 151.5q0 81 37 148.5t101 107.5t141 40q105 0 152 -77h2zM341.5 128.5q45.5 32.5 70 86.5
t24.5 116q0 123 -119 123q-60 0 -106 -31t-71.5 -82.5t-25.5 -110.5q0 -63 30.5 -98.5t92.5 -35.5q59 0 104.5 32.5z" />
    <glyph glyph-name="h" unicode="h" horiz-adv-x="533" 
d="M460.5 489q38.5 -36 38.5 -102q0 -28 -5 -51l-65 -336h-80l65 336q4 24 4 36q0 83 -93 83q-62 0 -111.5 -39t-63.5 -96l-62 -320h-80l139 715h80l-52 -270q30 36 77.5 58t105.5 22q64 0 102.5 -36z" />
    <glyph glyph-name="i" unicode="i" horiz-adv-x="196" 
d="M88 0h-80l99 510h80zM214 609h-96l19 96h96z" />
    <glyph glyph-name="j" unicode="j" horiz-adv-x="196" 
d="M-110 -175l13 68q26 -3 40 -3q23 0 37 17.5t22 60.5l105 542h80l-107 -550q-14 -73 -52 -106.5t-86 -33.5q-25 0 -52 5zM214 609h-96l19 96h96z" />
    <glyph glyph-name="k" unicode="k" horiz-adv-x="478" 
d="M419 510h102l-237 -185l159 -325h-93l-128 276l-95 -73l-39 -203h-80l139 715h80l-82 -420z" />
    <glyph glyph-name="l" unicode="l" horiz-adv-x="196" 
d="M88 0h-80l139 715h80z" />
    <glyph glyph-name="m" unicode="m" horiz-adv-x="799" 
d="M737 495q31 -30 31 -87q0 -28 -5 -52l-69 -356h-80l65 336q6 36 6 49q0 34 -17 52t-56 18q-60 0 -104 -40.5t-55 -96.5l-62 -318h-80l65 336q6 36 6 50q0 33 -16.5 51t-56.5 18q-61 0 -105 -41.5t-56 -104.5l-60 -309h-80l99 510h80l-12 -64q64 79 165 79q54 0 82.5 -22
t36.5 -68h2q76 90 185 90q60 0 91 -30z" />
    <glyph glyph-name="n" unicode="n" horiz-adv-x="533" 
d="M460.5 489q38.5 -36 38.5 -102q0 -28 -5 -51l-65 -336h-80l65 336q4 24 4 36q0 83 -93 83q-63 0 -112 -39t-63 -98l-62 -318h-80l99 510h80l-13 -65h1q30 36 77.5 58t105.5 22q64 0 102.5 -36z" />
    <glyph glyph-name="o" unicode="o" horiz-adv-x="555" 
d="M75.5 40.5q-51.5 54.5 -51.5 146.5q0 91 40 168t110.5 123t159.5 46q94 0 145.5 -54.5t51.5 -146.5q0 -91 -40 -168t-110.5 -123t-159.5 -46q-94 0 -145.5 54.5zM345.5 92.5q49.5 36.5 77 96t27.5 126.5q0 63 -32 101t-95 38q-64 0 -113.5 -36.5t-77 -96t-27.5 -126.5
q0 -63 32 -101t95 -38q64 0 113.5 36.5z" />
    <glyph glyph-name="p" unicode="p" horiz-adv-x="563" 
d="M487 470.5q50 -53.5 50 -153.5q0 -92 -38 -168t-103.5 -119.5t-145.5 -43.5q-103 0 -144 80h-6l-47 -243h-80l134 687h80l-12 -63h2q71 77 176 77q84 0 134 -53.5zM357 89q46 33 72.5 91t26.5 130q0 67 -28 105.5t-95 38.5q-66 0 -119 -50t-72 -127l-7 -36q-3 -19 -3 -39
q0 -70 32.5 -108t92.5 -38q54 0 100 33z" />
    <glyph glyph-name="q" unicode="q" horiz-adv-x="563" 
d="M475 510h80l-134 -687h-80l47 240h-3q-71 -77 -176 -77q-84 0 -134 53.5t-50 153.5q0 92 38 168t103.5 119.5t145.5 43.5q103 0 144 -80h6zM352 110.5q54 54.5 72 135.5l1 9q5 28 5 53q0 70 -32.5 108t-92.5 38q-54 0 -100 -33t-72.5 -91t-26.5 -130q0 -67 28 -105.5
t95 -38.5q69 0 123 54.5z" />
    <glyph glyph-name="r" unicode="r" horiz-adv-x="332" 
d="M375 519l-16 -78q-17 3 -31 3q-69 0 -121 -48t-66 -123l-53 -273h-80l99 510h80l-19 -96h2q31 53 70 80.5t95 27.5q22 0 40 -3z" />
    <glyph glyph-name="s" unicode="s" horiz-adv-x="479" 
d="M106.5 9.5q-50.5 23.5 -76.5 64.5t-26 93h79q0 -47 36 -79t110 -32q58 0 91.5 21t33.5 64q0 26 -14.5 42t-38 26t-67.5 23q-60 18 -92 31t-57.5 41.5t-25.5 76.5q0 70 55 106.5t139 36.5q64 0 109 -22t67.5 -59t22.5 -80h-80q0 37 -28.5 64t-91.5 27q-50 0 -82 -17.5
t-32 -54.5q0 -24 14.5 -38t35.5 -22t76 -25q57 -17 91 -33t57 -45t23 -75q0 -76 -58 -117t-151 -41q-69 0 -119.5 23.5z" />
    <glyph glyph-name="t" unicode="t" horiz-adv-x="298" 
d="M205 440l-60 -307q-3 -16 -3 -28q0 -21 12 -30.5t40 -9.5q14 0 44 3l-14 -68q-31 -5 -55 -5q-52 0 -80 21.5t-28 73.5q0 17 5 47l59 303h-75l14 70h75l33 170h80l-33 -170h100l-14 -70h-100z" />
    <glyph glyph-name="u" unicode="u" horiz-adv-x="533" 
d="M444 510h80l-99 -510h-80l12 61h-2q-30 -31 -76 -53t-104 -22q-65 0 -103.5 32.5t-38.5 102.5q0 27 6 60l64 329h80l-64 -331q-4 -26 -4 -37q0 -40 21.5 -63t65.5 -23q68 0 118.5 40t63.5 105z" />
    <glyph glyph-name="v" unicode="v" horiz-adv-x="473" 
d="M232 0h-91l-84 510h86l59 -430h1l223 430h88z" />
    <glyph glyph-name="w" unicode="w" horiz-adv-x="737" 
d="M203 0h-89l-53 510h88l25 -420h2l194 420h87l30 -420h2l200 420h89l-262 -510h-85l-33 414h-2z" />
    <glyph glyph-name="x" unicode="x" horiz-adv-x="477" 
d="M39 0h-95l249 261l-138 249h96l101 -195h2l167 195h95l-228 -249l148 -261h-96l-111 208h-2z" />
    <glyph glyph-name="y" unicode="y" horiz-adv-x="493" 
d="M-26 -174l13 68q25 -3 36 -3q85 0 136 114l-109 505h88l77 -413h2l230 413h88l-305 -525q-55 -94 -101.5 -129t-105.5 -35q-21 0 -49 5z" />
    <glyph glyph-name="z" unicode="z" horiz-adv-x="451" 
d="M381 0h-412l12 60l361 378l1 2h-271l13 70h384l-9 -48l-373 -390v-2h308z" />
    <glyph glyph-name="braceleft" unicode="{" horiz-adv-x="291" 
d="M175 -117q-71 0 -103.5 22.5t-32.5 86.5q0 39 10 89l20 103q5 25 5 43q0 52 -45 52l16 80q33 -1 50 24.5t26 69.5l21 108q16 82 41.5 124t62.5 56t99 14h19l-16 -80h-19q-39 0 -61 -20.5t-32 -72.5l-30 -155q-14 -73 -80 -107v-2q20 -14 31 -32t11 -44q0 -8 -4 -32
l-30 -150q-5 -27 -5 -40q0 -32 15.5 -44.5t46.5 -12.5h19l-16 -80h-19z" />
    <glyph glyph-name="bar" unicode="|" horiz-adv-x="221" 
d="M71 -128h-70l169 872h70z" />
    <glyph glyph-name="braceright" unicode="}" horiz-adv-x="291" 
d="M-49 -117l16 80h19q39 0 61 20.5t32 72.5l30 155q14 73 80 107v2q-20 14 -31 32t-11 44q0 8 4 32l30 150q5 27 5 40q0 32 -15.5 44.5t-46.5 12.5h-19l16 80h19q71 0 103.5 -22.5t32.5 -86.5q0 -39 -10 -89l-20 -103q-5 -25 -5 -43q0 -52 45 -52l-16 -80q-33 1 -50 -24.5
t-26 -69.5l-21 -108q-16 -82 -41.5 -124t-62.5 -56t-99 -14h-19z" />
    <glyph glyph-name="asciitilde" unicode="~" horiz-adv-x="430" 
d="M57 270q10 52 40.5 85t71.5 33q23 0 40 -7t36 -19q14 -9 22.5 -13t17.5 -4q20 0 31.5 13.5t14.5 29.5h70q-10 -52 -40.5 -85t-71.5 -33q-22 0 -39 7t-36 19q-11 7 -21.5 12t-19.5 5q-20 0 -31.5 -13.5t-14.5 -29.5h-70z" />
    <glyph glyph-name="uni00A0" unicode="&#xa0;" horiz-adv-x="214" 
 />
    <glyph glyph-name="exclamdown" unicode="&#xa1;" horiz-adv-x="214" 
d="M200 489h-96l19 96h96zM77 -130h-90l40 205l83 326h50l-43 -326z" />
    <glyph glyph-name="cent" unicode="&#xa2;" horiz-adv-x="558" 
d="M474 428q1 7 1 21q0 51 -27 79t-79 31l-77 -397q63 6 102 44t52 84h80q-22 -85 -90 -140t-157 -59l-17 -86h-60l17 90q-74 13 -115.5 66.5t-41.5 135.5q0 81 33 152.5t92.5 119t135.5 57.5l15 80h60l-15 -78q85 -6 130.5 -61.5t38.5 -138.5h-78zM165 214.5
q22 -37.5 68 -49.5l75 388q-49 -14 -86.5 -51t-58 -89t-20.5 -109q0 -52 22 -89.5z" />
    <glyph glyph-name="sterling" unicode="&#xa3;" horiz-adv-x="575" 
d="M478 464q5 23 5 50q0 105 -119 105q-72 0 -116.5 -43t-44.5 -111q0 -23 3.5 -41.5t10.5 -47.5l6 -25h159l-14 -75h-140q-6 -54 -38.5 -105.5t-78.5 -80.5v-2q6 3 24.5 11.5t39 14t41.5 5.5q24 0 39.5 -5.5t39.5 -17.5q20 -11 35 -16.5t36 -5.5q29 0 56 11t61 34l24 -73
q-45 -31 -78 -45.5t-74 -14.5q-31 0 -53 8t-50 24q-26 15 -44 22t-43 7q-26 0 -52 -10t-74 -37l-35 66q50 28 89 90t45 120h-83l14 75h62q-1 5 -6.5 25.5t-8.5 41t-3 39.5q0 63 31.5 118.5t90.5 89.5t137 34q104 0 153.5 -47t49.5 -126q0 -25 -7 -62h-90z" />
    <glyph glyph-name="currency" unicode="&#xa4;" horiz-adv-x="528" 
d="M461 460q18 -34 18 -80q0 -43 -16 -82.5t-44 -71.5l51 -63l-51 -43l-51 63q-57 -38 -122 -38q-32 0 -62 10.5t-52 29.5l-77 -65l-35 42l79 66q-18 33 -18 79q0 43 16.5 83.5t45.5 72.5l-52 64l51 42l51 -63q58 37 122 37q67 0 113 -40l77 65l36 -42zM186 239
q25 -24 67 -24t75 22t51.5 59t18.5 80q0 50 -24.5 73.5t-66.5 23.5t-75.5 -22t-52 -58.5t-18.5 -79.5q0 -50 25 -74z" />
    <glyph glyph-name="yen" unicode="&#xa5;" horiz-adv-x="596" 
d="M552 686h99l-288 -381h163l-11 -60h-176l-11 -57h176l-12 -60h-175l-25 -128h-90l25 128h-175l12 60h174l11 57h-174l11 60h163l-140 381h95l109 -330h2z" />
    <glyph glyph-name="brokenbar" unicode="&#xa6;" horiz-adv-x="221" 
d="M171 384h-70l69 360h70zM71 -128h-70l73 373h70z" />
    <glyph glyph-name="section" unicode="&#xa7;" horiz-adv-x="589" 
d="M463 544l1 14q0 43 -26.5 68t-80.5 25t-85.5 -26t-31.5 -67q0 -28 10 -47t28.5 -34t56.5 -39l43 -27q66 -41 96 -64t46.5 -49t16.5 -63q0 -55 -35.5 -97t-94.5 -59q28 -38 28 -90q0 -51 -25 -91.5t-71 -63.5t-106 -23q-94 0 -140 43t-46 106q0 19 2 28h80l-1 -14
q0 -43 26.5 -68t80.5 -25t85.5 26t31.5 67q0 38 -25 65t-70 55l-43 27q-66 41 -96 64t-46.5 49t-16.5 63q0 55 35.5 97t94.5 59q-28 38 -28 90q0 51 25 91.5t71 63.5t106 23q94 0 140 -43t46 -106q0 -19 -2 -28h-80zM268 382l-34 23q-44 -4 -69.5 -29t-25.5 -62
q0 -24 12 -41.5t37 -35.5t83 -54l53 -33l34 -23q44 4 69.5 29t25.5 62q0 24 -12 41.5t-37 35.5t-83 54z" />
    <glyph glyph-name="dieresis" unicode="&#xa8;" horiz-adv-x="342" 
d="M206 609h-96l19 96h96zM362 609h-96l19 96h96z" />
    <glyph glyph-name="copyright" unicode="&#xa9;" horiz-adv-x="855" 
d="M218.5 22.5q-73.5 36.5 -114 106.5t-40.5 169q0 118 57 216.5t157.5 156.5t226.5 58q98 0 171.5 -36.5t114 -106.5t40.5 -169q0 -118 -57 -216.5t-157.5 -156.5t-226.5 -58q-98 0 -171.5 36.5zM586 98q83 50 128 134.5t45 185.5q0 121 -67.5 185t-192.5 64
q-107 0 -189.5 -50t-128 -134.5t-45.5 -185.5q0 -121 68 -185t192 -64q107 0 190 50zM281.5 179.5q-43.5 46.5 -43.5 129.5q0 74 33 136.5t90.5 99.5t126.5 37q53 0 90.5 -21.5t55.5 -58t14 -81.5h-70q1 31 -20 62t-80 31q-50 0 -88 -26.5t-59 -72t-21 -100.5
q0 -54 24.5 -84t81.5 -30q62 0 94.5 30.5t42.5 63.5h70q-19 -71 -76.5 -116.5t-140.5 -45.5q-81 0 -124.5 46.5z" />
    <glyph glyph-name="ordfeminine" unicode="&#xaa;" horiz-adv-x="434" 
d="M89.5 332.5q-28.5 27.5 -28.5 76.5q0 59 43 90t126 46q69 13 99 26.5t30 45.5q0 44 -68 44q-43 0 -66.5 -18.5t-32.5 -57.5h-77q14 64 61 100.5t125 36.5q63 0 96.5 -25.5t33.5 -77.5q0 -19 -4 -38l-34 -174q-2 -14 -2 -18q0 -12 6 -17.5t19 -5.5h9l-9 -47q-28 -7 -47 -7
q-59 0 -56 60h-1q-26 -31 -62 -49t-80 -18q-52 0 -80.5 27.5zM287 398q36 29 46 77l10 48q-15 -11 -27.5 -15t-63.5 -15q-44 -10 -66 -17.5t-34.5 -20.5t-12.5 -37q0 -49 62 -49q50 0 86 29z" />
    <glyph glyph-name="guillemotleft" unicode="&#xab;" horiz-adv-x="468" 
d="M221 129l-17 -84l-168 162l18 95l231 161l-18 -97l-174 -118v-2zM392 129l-17 -84l-168 162l18 95l231 161l-18 -97l-174 -118v-2z" />
    <glyph glyph-name="logicalnot" unicode="&#xac;" horiz-adv-x="515" 
d="M430 144h-90l34 174h-324l16 80h414z" />
    <glyph glyph-name="uni00AD" unicode="&#xad;" horiz-adv-x="355" 
d="M303 215h-268l16 80h268z" />
    <glyph glyph-name="registered" unicode="&#xae;" horiz-adv-x="571" 
d="M188.5 271.5q-47.5 24.5 -74.5 69t-27 103.5q0 78 35.5 143.5t99 104.5t143.5 39q59 0 106.5 -24.5t74.5 -69t27 -103.5q0 -78 -35.5 -143.5t-99 -104.5t-143.5 -39q-59 0 -106.5 24.5zM416 318q53 32 82.5 88t29.5 126q0 72 -44 116t-119 44q-68 0 -121 -32t-82.5 -88
t-29.5 -126q0 -72 44 -116t119 -44q68 0 121 32zM205 356l52 267h96q93 0 93 -71q0 -28 -19.5 -48t-52.5 -27l-1 -2q40 -7 40 -61q0 -14 -1 -25.5t-1 -18.5q0 -10 3 -11l-1 -3h-63q-2 2 -2 9q0 8 2 21t2 22q0 20 -8.5 31.5t-30.5 11.5h-26l-19 -95h-63zM325 502
q28 0 44.5 11t16.5 31q0 18 -12 23.5t-36 5.5h-28l-13 -71h28z" />
    <glyph glyph-name="macron" unicode="&#xaf;" horiz-adv-x="338" 
d="M366 609h-258l14 70h258z" />
    <glyph glyph-name="degree" unicode="&#xb0;" horiz-adv-x="385" 
d="M129 465.5q-32 36.5 -32 88.5q0 47 26 87t69 64t91 24q64 0 96 -36.5t32 -88.5q0 -47 -26 -87t-69 -64t-91 -24q-64 0 -96 36.5zM314 521.5q32 32.5 32 77.5q0 32 -19.5 51t-54.5 19q-46 0 -78 -32.5t-32 -77.5q0 -32 19.5 -51t54.5 -19q46 0 78 32.5z" />
    <glyph glyph-name="plusminus" unicode="&#xb1;" horiz-adv-x="555" 
d="M292 121h-80l38 193h-187l15 79h187l38 193h80l-38 -193h187l-15 -79h-187zM455 -8h-454l15 79h454z" />
    <glyph glyph-name="uni00B2" unicode="&#xb2;" horiz-adv-x="350" 
d="M42 363q9 45 32 77t51.5 52t73.5 46l20 12q53 31 77.5 56.5t24.5 59.5q0 48 -51 48q-75 0 -91 -90h-77q13 70 60 112.5t120 42.5q56 0 88.5 -26t32.5 -75q0 -56 -37.5 -94.5t-92.5 -71.5q-51 -31 -75 -48t-37 -35v-1h193l-13 -65h-299z" />
    <glyph glyph-name="uni00B3" unicode="&#xb3;" horiz-adv-x="368" 
d="M105.5 392q-38.5 31 -38.5 86q0 15 3 33h78q-3 -15 -3 -27q0 -29 16.5 -43.5t52.5 -14.5q44 0 68 20t24 54q0 28 -17 39.5t-50 11.5h-31l11 59h29q37 0 58 17.5t21 45.5q0 48 -55 48q-37 0 -58.5 -18.5t-26.5 -49.5h-77q10 57 58 95t118 38q57 0 89.5 -26.5t32.5 -72.5
q0 -37 -20.5 -62.5t-58.5 -39.5v-1q58 -20 58 -82q0 -40 -22 -72t-61.5 -50.5t-90.5 -18.5q-69 0 -107.5 31z" />
    <glyph glyph-name="acute" unicode="&#xb4;" horiz-adv-x="218" 
d="M192 591h-65l66 134h95z" />
    <glyph glyph-name="uni00B5" unicode="&#xb5;" horiz-adv-x="558" 
d="M459 510h80l-99 -510h-80l12 61h-2q-27 -31 -71 -53t-94 -22q-32 0 -58.5 10t-43.5 30l-39 -203h-80l134 687h80l-64 -331q-4 -19 -4 -39q0 -84 91 -84q66 0 116 41.5t62 103.5z" />
    <glyph glyph-name="paragraph" unicode="&#xb6;" horiz-adv-x="551" 
d="M207 0l65 335h-46q-80 0 -120 34.5t-40 100.5q0 71 29.5 127t82.5 87t122 31h262l-139 -715h-70l123 635h-76l-123 -635h-70z" />
    <glyph glyph-name="periodcentered" unicode="&#xb7;" horiz-adv-x="200" 
d="M137 202h-96l19 96h96z" />
    <glyph glyph-name="cedilla" unicode="&#xb8;" horiz-adv-x="291" 
d="M3.5 -189.5q-26.5 8.5 -45.5 22.5l26 25q37 -15 67 -15q26 0 42 12.5t16 32.5q0 23 -34 23q-10 0 -22.5 -2t-19.5 -5l-9 19l78 77h50l-57 -55l-1 -2q6 1 18 1q29 0 48 -13t19 -38q0 -40 -33.5 -65.5t-86.5 -25.5q-29 0 -55.5 8.5z" />
    <glyph glyph-name="uni00B9" unicode="&#xb9;" horiz-adv-x="223" 
d="M174 652q-24 -16 -89 -16l12 63q49 1 77.5 18t36.5 53h64l-79 -406h-78z" />
    <glyph glyph-name="ordmasculine" unicode="&#xba;" horiz-adv-x="444" 
d="M114 347.5q-40 42.5 -40 118.5q0 67 31 126t86.5 94.5t123.5 35.5q74 0 114 -42.5t40 -118.5q0 -67 -31 -126t-86.5 -94.5t-123.5 -35.5q-74 0 -114 42.5zM320 396.5q35 26.5 54 68.5t19 88q0 48 -22.5 76t-67.5 28t-80 -26.5t-54 -68.5t-19 -88q0 -48 22.5 -76t67.5 -28
t80 26.5z" />
    <glyph glyph-name="guillemotright" unicode="&#xbb;" horiz-adv-x="468" 
d="M242 206l-231 -161l18 97l174 118v2l-128 117l17 84l168 -162zM413 206l-231 -161l18 97l174 118v2l-128 117l17 84l168 -162z" />
    <glyph glyph-name="onequarter" unicode="&#xbc;" horiz-adv-x="781" 
d="M172 597q-24 -16 -89 -16l12 63q49 1 77.5 18t36.5 53h64l-79 -406h-78zM106 0h-92l592 715h92zM657 0h-79l17 90h-189l15 75l235 241h79l-48 -251h58l-13 -65h-58zM639 314l-155 -159h124z" />
    <glyph glyph-name="onehalf" unicode="&#xbd;" horiz-adv-x="789" 
d="M174 597q-24 -16 -89 -16l12 63q49 1 77.5 18t36.5 53h64l-79 -406h-78zM108 0h-92l592 715h92zM404 0q9 45 32 77t51.5 52t73.5 46l20 12q53 31 77.5 56.5t24.5 59.5q0 48 -51 48q-75 0 -91 -90h-77q13 70 60 112.5t120 42.5q56 0 88.5 -26t32.5 -75q0 -56 -37.5 -94.5
t-92.5 -71.5q-51 -31 -75 -48t-37 -35v-1h193l-13 -65h-299z" />
    <glyph glyph-name="threequarters" unicode="&#xbe;" horiz-adv-x="924" 
d="M101.5 332q-38.5 31 -38.5 86q0 15 3 33h78q-3 -15 -3 -27q0 -29 16.5 -43.5t52.5 -14.5q44 0 68 20t24 54q0 28 -17 39.5t-50 11.5h-31l11 59h29q37 0 58 17.5t21 45.5q0 48 -55 48q-37 0 -58.5 -18.5t-26.5 -49.5h-77q10 57 58 95t118 38q57 0 89.5 -26.5t32.5 -72.5
q0 -37 -20.5 -62.5t-58.5 -39.5v-1q58 -20 58 -82q0 -40 -22 -72t-61.5 -50.5t-90.5 -18.5q-69 0 -107.5 31zM265 0h-92l592 715h92zM796 0h-79l17 90h-189l15 75l235 241h79l-48 -251h58l-13 -65h-58zM778 314l-155 -159h124z" />
    <glyph glyph-name="questiondown" unicode="&#xbf;" horiz-adv-x="493" 
d="M365 488h-96l19 96h96zM24.5 -102.5q-50.5 42.5 -50.5 115.5q0 64 33.5 104t65 61.5t39.5 26.5q8 6 47.5 33.5t63 67.5t33.5 95h90q-12 -62 -36.5 -104.5t-52 -67.5t-73.5 -59q-12 -8 -18 -13q-47 -32 -74 -62t-27 -78q0 -39 28 -60.5t79 -21.5q68 0 118.5 39.5
t64.5 126.5h90q-12 -71 -49.5 -127t-96.5 -87.5t-133 -31.5q-91 0 -141.5 42.5z" />
    <glyph glyph-name="Agrave" unicode="&#xc0;" horiz-adv-x="646" 
d="M53 0h-95l403 715h101l127 -715h-95l-28 179h-315zM396 632l-200 -373h256l-54 373h-2zM451 796h-65l-62 134h95z" />
    <glyph glyph-name="Aacute" unicode="&#xc1;" horiz-adv-x="646" 
d="M53 0h-95l403 715h101l127 -715h-95l-28 179h-315zM396 632l-200 -373h256l-54 373h-2zM460 796h-65l66 134h95z" />
    <glyph glyph-name="Acircumflex" unicode="&#xc2;" horiz-adv-x="646" 
d="M53 0h-95l403 715h101l127 -715h-95l-28 179h-315zM396 632l-200 -373h256l-54 373h-2zM373 796h-83l118 134h90l66 -134h-80l-35 91h-2z" />
    <glyph glyph-name="Atilde" unicode="&#xc3;" horiz-adv-x="646" 
d="M53 0h-95l403 715h101l127 -715h-95l-28 179h-315zM396 632l-200 -373h256l-54 373h-2zM289 808q9 47 35.5 70.5t56.5 23.5q19 0 35.5 -5.5t38.5 -16.5q4 -2 17.5 -8t23.5 -6q23 0 30 34h60q-9 -47 -35 -70.5t-57 -23.5q-19 0 -35.5 5.5t-38.5 16.5q-4 2 -17.5 8t-23.5 6
q-14 0 -21 -10.5t-9 -23.5h-60z" />
    <glyph glyph-name="Adieresis" unicode="&#xc4;" horiz-adv-x="646" 
d="M53 0h-95l403 715h101l127 -715h-95l-28 179h-315zM396 632l-200 -373h256l-54 373h-2zM400 814h-96l19 96h96zM556 814h-96l19 96h96z" />
    <glyph glyph-name="Aring" unicode="&#xc5;" horiz-adv-x="646" 
d="M53 0h-95l403 715h101l127 -715h-95l-28 179h-315zM396 632l-200 -373h256l-54 373h-2zM365.5 785q-19.5 20 -19.5 51q0 43 31 73.5t75 30.5q33 0 53 -20t20 -51q0 -44 -31 -74t-76 -30q-33 0 -52.5 20zM466 821.5q17 17.5 17 40.5q0 18 -10.5 28.5t-27.5 10.5
q-24 0 -40.5 -16t-16.5 -42q0 -17 9.5 -28t28.5 -11q23 0 40 17.5z" />
    <glyph glyph-name="AE" unicode="&#xc6;" horiz-adv-x="970" 
d="M1016 715l-16 -80h-405l-43 -225h357l-16 -80h-357l-48 -250h417l-16 -80h-507l35 179h-259l-104 -179h-98l434 715h626zM418 632l-215 -373h229l73 373h-87z" />
    <glyph glyph-name="Ccedilla" unicode="&#xc7;" horiz-adv-x="707" 
d="M292 600.5q-71 -48.5 -111 -132t-40 -186.5q0 -216 195 -216q104 0 166 56.5t84 135.5h92q-23 -78 -71.5 -138.5t-118 -96t-151.5 -37.5l-43 -41l-1 -2q6 1 18 1q29 0 48 -13t19 -38q0 -40 -33.5 -65.5t-86.5 -25.5q-29 0 -55.5 8.5t-45.5 22.5l26 25q37 -15 67 -15
q26 0 42 12.5t16 32.5q0 23 -34 23q-10 0 -22.5 -2t-19.5 -5l-9 19l66 65q-112 11 -175 87.5t-63 203.5q0 121 54.5 224.5t149 164.5t208.5 61q85 0 145 -35t88 -92.5t23 -122.5h-90q0 74 -43.5 122t-133.5 48q-89 0 -160 -48.5z" />
    <glyph glyph-name="Egrave" unicode="&#xc8;" horiz-adv-x="613" 
d="M532 0h-507l139 715h495l-16 -80h-405l-43 -225h357l-16 -80h-357l-48 -250h417zM448 796h-65l-62 134h95z" />
    <glyph glyph-name="Eacute" unicode="&#xc9;" horiz-adv-x="613" 
d="M532 0h-507l139 715h495l-16 -80h-405l-43 -225h357l-16 -80h-357l-48 -250h417zM457 796h-65l66 134h95z" />
    <glyph glyph-name="Ecircumflex" unicode="&#xca;" horiz-adv-x="613" 
d="M532 0h-507l139 715h495l-16 -80h-405l-43 -225h357l-16 -80h-357l-48 -250h417zM370 796h-83l118 134h90l66 -134h-80l-35 91h-2z" />
    <glyph glyph-name="Edieresis" unicode="&#xcb;" horiz-adv-x="613" 
d="M532 0h-507l139 715h495l-16 -80h-405l-43 -225h357l-16 -80h-357l-48 -250h417zM397 814h-96l19 96h96zM553 814h-96l19 96h96z" />
    <glyph glyph-name="Igrave" unicode="&#xcc;" horiz-adv-x="240" 
d="M115 0h-90l139 715h90zM249 796h-65l-62 134h95z" />
    <glyph glyph-name="Iacute" unicode="&#xcd;" horiz-adv-x="240" 
d="M115 0h-90l139 715h90zM258 796h-65l66 134h95z" />
    <glyph glyph-name="Icircumflex" unicode="&#xce;" horiz-adv-x="240" 
d="M115 0h-90l139 715h90zM171 796h-83l118 134h90l66 -134h-80l-35 91h-2z" />
    <glyph glyph-name="Idieresis" unicode="&#xcf;" horiz-adv-x="240" 
d="M115 0h-90l139 715h90zM198 814h-96l19 96h96zM354 814h-96l19 96h96z" />
    <glyph glyph-name="Eth" unicode="&#xd0;" horiz-adv-x="705" 
d="M419 715q274 0 274 -272q0 -121 -50.5 -222.5t-139.5 -161t-199 -59.5h-269l65 335h-70l13 70h71l60 310h245zM317 80q82 0 147 48.5t101.5 131.5t36.5 181q0 95 -43.5 144.5t-155.5 49.5h-155l-44 -230h228l-14 -70h-228l-49 -255h176z" />
    <glyph glyph-name="Ntilde" unicode="&#xd1;" horiz-adv-x="709" 
d="M115 0h-90l139 715h108l243 -587h4l114 587h90l-139 -715h-108l-243 587h-4zM322 808q9 47 35.5 70.5t56.5 23.5q19 0 35.5 -5.5t38.5 -16.5q4 -2 17.5 -8t23.5 -6q23 0 30 34h60q-9 -47 -35 -70.5t-57 -23.5q-19 0 -35.5 5.5t-38.5 16.5q-4 2 -17.5 8t-23.5 6
q-14 0 -21 -10.5t-9 -23.5h-60z" />
    <glyph glyph-name="Ograve" unicode="&#xd2;" horiz-adv-x="776" 
d="M185 22.5q-66 36.5 -100.5 102t-34.5 151.5q0 120 56 224.5t153.5 166.5t215.5 62q89 0 155 -36.5t100.5 -102t34.5 -151.5q0 -120 -56 -224.5t-153.5 -166.5t-215.5 -62q-89 0 -155 36.5zM516.5 117.5q74.5 51.5 116 137t41.5 184.5q0 95 -50.5 152.5t-155.5 57.5
q-95 0 -169.5 -51.5t-116 -137t-41.5 -184.5q0 -95 50.5 -152.5t155.5 -57.5q95 0 169.5 51.5zM517 796h-65l-62 134h95z" />
    <glyph glyph-name="Oacute" unicode="&#xd3;" horiz-adv-x="776" 
d="M185 22.5q-66 36.5 -100.5 102t-34.5 151.5q0 120 56 224.5t153.5 166.5t215.5 62q89 0 155 -36.5t100.5 -102t34.5 -151.5q0 -120 -56 -224.5t-153.5 -166.5t-215.5 -62q-89 0 -155 36.5zM516.5 117.5q74.5 51.5 116 137t41.5 184.5q0 95 -50.5 152.5t-155.5 57.5
q-95 0 -169.5 -51.5t-116 -137t-41.5 -184.5q0 -95 50.5 -152.5t155.5 -57.5q95 0 169.5 51.5zM526 796h-65l66 134h95z" />
    <glyph glyph-name="Ocircumflex" unicode="&#xd4;" horiz-adv-x="776" 
d="M185 22.5q-66 36.5 -100.5 102t-34.5 151.5q0 120 56 224.5t153.5 166.5t215.5 62q89 0 155 -36.5t100.5 -102t34.5 -151.5q0 -120 -56 -224.5t-153.5 -166.5t-215.5 -62q-89 0 -155 36.5zM516.5 117.5q74.5 51.5 116 137t41.5 184.5q0 95 -50.5 152.5t-155.5 57.5
q-95 0 -169.5 -51.5t-116 -137t-41.5 -184.5q0 -95 50.5 -152.5t155.5 -57.5q95 0 169.5 51.5zM439 796h-83l118 134h90l66 -134h-80l-35 91h-2z" />
    <glyph glyph-name="Otilde" unicode="&#xd5;" horiz-adv-x="776" 
d="M185 22.5q-66 36.5 -100.5 102t-34.5 151.5q0 120 56 224.5t153.5 166.5t215.5 62q89 0 155 -36.5t100.5 -102t34.5 -151.5q0 -120 -56 -224.5t-153.5 -166.5t-215.5 -62q-89 0 -155 36.5zM516.5 117.5q74.5 51.5 116 137t41.5 184.5q0 95 -50.5 152.5t-155.5 57.5
q-95 0 -169.5 -51.5t-116 -137t-41.5 -184.5q0 -95 50.5 -152.5t155.5 -57.5q95 0 169.5 51.5zM355 808q9 47 35.5 70.5t56.5 23.5q19 0 35.5 -5.5t38.5 -16.5q4 -2 17.5 -8t23.5 -6q23 0 30 34h60q-9 -47 -35 -70.5t-57 -23.5q-19 0 -35.5 5.5t-38.5 16.5q-4 2 -17.5 8
t-23.5 6q-14 0 -21 -10.5t-9 -23.5h-60z" />
    <glyph glyph-name="Odieresis" unicode="&#xd6;" horiz-adv-x="776" 
d="M185 22.5q-66 36.5 -100.5 102t-34.5 151.5q0 120 56 224.5t153.5 166.5t215.5 62q89 0 155 -36.5t100.5 -102t34.5 -151.5q0 -120 -56 -224.5t-153.5 -166.5t-215.5 -62q-89 0 -155 36.5zM516.5 117.5q74.5 51.5 116 137t41.5 184.5q0 95 -50.5 152.5t-155.5 57.5
q-95 0 -169.5 -51.5t-116 -137t-41.5 -184.5q0 -95 50.5 -152.5t155.5 -57.5q95 0 169.5 51.5zM466 814h-96l19 96h96zM622 814h-96l19 96h96z" />
    <glyph glyph-name="multiply" unicode="&#xd7;" horiz-adv-x="555" 
d="M279 268l-180 -151l-46 57l180 151l-121 151l68 57l121 -151l181 151l46 -57l-181 -151l122 -151l-68 -57z" />
    <glyph glyph-name="Oslash" unicode="&#xd8;" horiz-adv-x="781" 
d="M825 677l-95 -80q38 -67 38 -158q0 -120 -56 -224.5t-153.5 -166.5t-215.5 -62q-74 0 -132 25t-96 71l-92 -77l-27 35l94 79q-37 68 -37 157q0 120 56 224.5t153.5 166.5t215.5 62q73 0 130.5 -24.5t95.5 -70.5l91 77zM161 178l476 400q-52 71 -166 71
q-95 0 -169.5 -51.5t-116 -137t-41.5 -184.5q0 -57 17 -98zM660 538l-478 -399q54 -73 168 -73q95 0 169.5 51.5t116 137t41.5 184.5q0 54 -17 99z" />
    <glyph glyph-name="Ugrave" unicode="&#xd9;" horiz-adv-x="686" 
d="M118 37.5q-59 51.5 -59 140.5q0 29 6 60l93 477h90l-93 -477q-6 -30 -6 -54q0 -62 37.5 -90t113.5 -28q189 0 223 172l93 477h90l-93 -477q-22 -116 -101.5 -184t-221.5 -68q-113 0 -172 51.5zM462 796h-65l-62 134h95z" />
    <glyph glyph-name="Uacute" unicode="&#xda;" horiz-adv-x="686" 
d="M118 37.5q-59 51.5 -59 140.5q0 29 6 60l93 477h90l-93 -477q-6 -30 -6 -54q0 -62 37.5 -90t113.5 -28q189 0 223 172l93 477h90l-93 -477q-22 -116 -101.5 -184t-221.5 -68q-113 0 -172 51.5zM471 796h-65l66 134h95z" />
    <glyph glyph-name="Ucircumflex" unicode="&#xdb;" horiz-adv-x="686" 
d="M118 37.5q-59 51.5 -59 140.5q0 29 6 60l93 477h90l-93 -477q-6 -30 -6 -54q0 -62 37.5 -90t113.5 -28q189 0 223 172l93 477h90l-93 -477q-22 -116 -101.5 -184t-221.5 -68q-113 0 -172 51.5zM384 796h-83l118 134h90l66 -134h-80l-35 91h-2z" />
    <glyph glyph-name="Udieresis" unicode="&#xdc;" horiz-adv-x="686" 
d="M118 37.5q-59 51.5 -59 140.5q0 29 6 60l93 477h90l-93 -477q-6 -30 -6 -54q0 -62 37.5 -90t113.5 -28q189 0 223 172l93 477h90l-93 -477q-22 -116 -101.5 -184t-221.5 -68q-113 0 -172 51.5zM411 814h-96l19 96h96zM567 814h-96l19 96h96z" />
    <glyph glyph-name="Yacute" unicode="&#xdd;" horiz-adv-x="630" 
d="M310 0h-90l57 293l-178 422h95l138 -353h2l277 353h99l-343 -422zM444 796h-65l66 134h95z" />
    <glyph glyph-name="Thorn" unicode="&#xde;" horiz-adv-x="614" 
d="M25 0l139 715h90l-23 -120h181q98 0 154 -38.5t56 -128.5q0 -70 -34 -126.5t-96 -89.5t-143 -33h-199l-35 -179h-90zM369 259q75 0 118.5 45t43.5 116q0 51 -27.5 73t-92.5 22h-196l-50 -256h204z" />
    <glyph glyph-name="germandbls" unicode="&#xdf;" horiz-adv-x="518" 
d="M148 0l14 70q37 -16 75 -16q49 0 84.5 24.5t54.5 65.5t19 88q0 74 -41 101.5t-96 27.5h-30l14 70h27q46 0 83.5 18.5t58.5 51.5t21 73q0 85 -99 85q-65 0 -98 -37.5t-49 -117.5l-98 -504h-80l99 510q21 110 83 164.5t157 54.5q80 0 124.5 -37t44.5 -106q0 -72 -46.5 -122
t-113.5 -68v-2q64 -21 94 -58t30 -101t-28.5 -121.5t-83.5 -92.5t-129 -35q-42 0 -91 14z" />
    <glyph glyph-name="agrave" unicode="&#xe0;" horiz-adv-x="539" 
d="M50 20.5q-39 34.5 -39 99.5q0 78 57.5 116.5t171.5 61.5q71 14 100.5 22t49.5 25t20 49q0 29 -21.5 45t-75.5 16q-64 0 -99.5 -25t-49.5 -81h-82q18 83 79 129.5t159 46.5q81 0 124.5 -32.5t43.5 -95.5q0 -21 -4 -41l-47 -241q-4 -24 -4 -32q0 -14 5.5 -21t19.5 -7
q5 0 17 2l-11 -52q-25 -10 -48 -10q-34 0 -50 18.5t-15 60.5h-3q-33 -42 -80.5 -65t-105.5 -23q-73 0 -112 34.5zM309.5 95q52.5 39 66.5 109l15 74q-16 -15 -36.5 -21.5t-85.5 -20.5q-66 -14 -102 -26t-55 -31t-19 -51q0 -72 92 -72q72 0 124.5 39zM370 591h-65l-62 134h95
z" />
    <glyph glyph-name="aacute" unicode="&#xe1;" horiz-adv-x="539" 
d="M50 20.5q-39 34.5 -39 99.5q0 78 57.5 116.5t171.5 61.5q71 14 100.5 22t49.5 25t20 49q0 29 -21.5 45t-75.5 16q-64 0 -99.5 -25t-49.5 -81h-82q18 83 79 129.5t159 46.5q81 0 124.5 -32.5t43.5 -95.5q0 -21 -4 -41l-47 -241q-4 -24 -4 -32q0 -14 5.5 -21t19.5 -7
q5 0 17 2l-11 -52q-25 -10 -48 -10q-34 0 -50 18.5t-15 60.5h-3q-33 -42 -80.5 -65t-105.5 -23q-73 0 -112 34.5zM309.5 95q52.5 39 66.5 109l15 74q-16 -15 -36.5 -21.5t-85.5 -20.5q-66 -14 -102 -26t-55 -31t-19 -51q0 -72 92 -72q72 0 124.5 39zM379 591h-65l66 134h95z
" />
    <glyph glyph-name="acircumflex" unicode="&#xe2;" horiz-adv-x="539" 
d="M50 20.5q-39 34.5 -39 99.5q0 78 57.5 116.5t171.5 61.5q71 14 100.5 22t49.5 25t20 49q0 29 -21.5 45t-75.5 16q-64 0 -99.5 -25t-49.5 -81h-82q18 83 79 129.5t159 46.5q81 0 124.5 -32.5t43.5 -95.5q0 -21 -4 -41l-47 -241q-4 -24 -4 -32q0 -14 5.5 -21t19.5 -7
q5 0 17 2l-11 -52q-25 -10 -48 -10q-34 0 -50 18.5t-15 60.5h-3q-33 -42 -80.5 -65t-105.5 -23q-73 0 -112 34.5zM309.5 95q52.5 39 66.5 109l15 74q-16 -15 -36.5 -21.5t-85.5 -20.5q-66 -14 -102 -26t-55 -31t-19 -51q0 -72 92 -72q72 0 124.5 39zM292 591h-83l118 134h90
l66 -134h-80l-35 91h-2z" />
    <glyph glyph-name="atilde" unicode="&#xe3;" horiz-adv-x="539" 
d="M50 20.5q-39 34.5 -39 99.5q0 78 57.5 116.5t171.5 61.5q71 14 100.5 22t49.5 25t20 49q0 29 -21.5 45t-75.5 16q-64 0 -99.5 -25t-49.5 -81h-82q18 83 79 129.5t159 46.5q81 0 124.5 -32.5t43.5 -95.5q0 -21 -4 -41l-47 -241q-4 -24 -4 -32q0 -14 5.5 -21t19.5 -7
q5 0 17 2l-11 -52q-25 -10 -48 -10q-34 0 -50 18.5t-15 60.5h-3q-33 -42 -80.5 -65t-105.5 -23q-73 0 -112 34.5zM309.5 95q52.5 39 66.5 109l15 74q-16 -15 -36.5 -21.5t-85.5 -20.5q-66 -14 -102 -26t-55 -31t-19 -51q0 -72 92 -72q72 0 124.5 39zM208 603q9 47 35.5 70.5
t56.5 23.5q19 0 35.5 -5.5t38.5 -16.5q4 -2 17.5 -8t23.5 -6q23 0 30 34h60q-9 -47 -35 -70.5t-57 -23.5q-19 0 -35.5 5.5t-38.5 16.5q-4 2 -17.5 8t-23.5 6q-14 0 -21 -10.5t-9 -23.5h-60z" />
    <glyph glyph-name="adieresis" unicode="&#xe4;" horiz-adv-x="539" 
d="M50 20.5q-39 34.5 -39 99.5q0 78 57.5 116.5t171.5 61.5q71 14 100.5 22t49.5 25t20 49q0 29 -21.5 45t-75.5 16q-64 0 -99.5 -25t-49.5 -81h-82q18 83 79 129.5t159 46.5q81 0 124.5 -32.5t43.5 -95.5q0 -21 -4 -41l-47 -241q-4 -24 -4 -32q0 -14 5.5 -21t19.5 -7
q5 0 17 2l-11 -52q-25 -10 -48 -10q-34 0 -50 18.5t-15 60.5h-3q-33 -42 -80.5 -65t-105.5 -23q-73 0 -112 34.5zM309.5 95q52.5 39 66.5 109l15 74q-16 -15 -36.5 -21.5t-85.5 -20.5q-66 -14 -102 -26t-55 -31t-19 -51q0 -72 92 -72q72 0 124.5 39zM319 609h-96l19 96h96z
M475 609h-96l19 96h96z" />
    <glyph glyph-name="aring" unicode="&#xe5;" horiz-adv-x="539" 
d="M50 20.5q-39 34.5 -39 99.5q0 78 57.5 116.5t171.5 61.5q71 14 100.5 22t49.5 25t20 49q0 29 -21.5 45t-75.5 16q-64 0 -99.5 -25t-49.5 -81h-82q18 83 79 129.5t159 46.5q81 0 124.5 -32.5t43.5 -95.5q0 -21 -4 -41l-47 -241q-4 -24 -4 -32q0 -14 5.5 -21t19.5 -7
q5 0 17 2l-11 -52q-25 -10 -48 -10q-34 0 -50 18.5t-15 60.5h-3q-33 -42 -80.5 -65t-105.5 -23q-73 0 -112 34.5zM309.5 95q52.5 39 66.5 109l15 74q-16 -15 -36.5 -21.5t-85.5 -20.5q-66 -14 -102 -26t-55 -31t-19 -51q0 -72 92 -72q72 0 124.5 39zM284.5 580
q-19.5 20 -19.5 51q0 43 31 73.5t75 30.5q33 0 53 -20t20 -51q0 -44 -31 -74t-76 -30q-33 0 -52.5 20zM385 616.5q17 17.5 17 40.5q0 18 -10.5 28.5t-27.5 10.5q-24 0 -40.5 -16t-16.5 -42q0 -17 9.5 -28t28.5 -11q23 0 40 17.5z" />
    <glyph glyph-name="ae" unicode="&#xe6;" horiz-adv-x="905" 
d="M468 234q-2 -22 -2 -34q0 -71 31 -108t101 -37q68 0 112 32.5t60 69.5h83q-37 -79 -103 -125.5t-158 -46.5q-70 0 -117 27t-70 77q-33 -48 -90 -75.5t-136 -27.5q-83 0 -125.5 34t-42.5 100q0 78 57.5 116.5t171.5 61.5q71 14 100.5 22t49.5 25t20 49q0 30 -21 45.5
t-75 15.5q-65 0 -100 -25t-49 -81h-82q17 79 76.5 127.5t161.5 48.5q65 0 105.5 -20.5t53.5 -61.5q40 39 92 60.5t112 21.5q100 0 149.5 -51t49.5 -139q0 -39 -12 -101h-403zM551 415.5q-51 -40.5 -71 -111.5h318q3 18 3 36q0 52 -31 84t-93 32q-75 0 -126 -40.5zM387 255
q1 10 5 25q-16 -15 -38.5 -23t-84.5 -21q-65 -14 -101 -26t-55 -32t-19 -52q0 -70 91 -70q70 0 124 38t68 110z" />
    <glyph glyph-name="ccedilla" unicode="&#xe7;" horiz-adv-x="526" 
d="M436 323q1 7 1 20q0 54 -29.5 82.5t-87.5 28.5q-62 0 -111.5 -36t-76.5 -94.5t-27 -124.5q0 -62 31 -102.5t98 -40.5q71 0 115.5 39.5t58.5 89.5h80q-21 -82 -86.5 -136.5t-151.5 -61.5l-43 -42l-1 -2q6 1 18 1q29 0 48 -13t19 -38q0 -40 -33.5 -65.5t-86.5 -25.5
q-29 0 -55.5 8.5t-45.5 22.5l26 25q37 -15 67 -15q26 0 42 12.5t16 32.5q0 23 -34 23q-10 0 -22.5 -2t-19.5 -5l-9 19l65 64q-84 8 -130.5 63t-46.5 142q0 88 39 164.5t107.5 122t154.5 45.5q63 0 107.5 -26t65.5 -72t16 -103h-78z" />
    <glyph glyph-name="egrave" unicode="&#xe8;" horiz-adv-x="548" 
d="M111 234q-2 -22 -2 -34q0 -71 31 -108t101 -37q68 0 112 32.5t60 69.5h83q-37 -79 -103 -125.5t-158 -46.5q-101 0 -155 56.5t-54 157.5q0 91 39 165.5t108 117.5t154 43q100 0 149.5 -51t49.5 -139q0 -39 -12 -101h-403zM194 415.5q-51 -40.5 -71 -111.5h318q3 18 3 36
q0 52 -31 84t-93 32q-75 0 -126 -40.5zM377 593h-65l-62 134h95z" />
    <glyph glyph-name="eacute" unicode="&#xe9;" horiz-adv-x="548" 
d="M111 234q-2 -22 -2 -34q0 -71 31 -108t101 -37q68 0 112 32.5t60 69.5h83q-37 -79 -103 -125.5t-158 -46.5q-101 0 -155 56.5t-54 157.5q0 91 39 165.5t108 117.5t154 43q100 0 149.5 -51t49.5 -139q0 -39 -12 -101h-403zM194 415.5q-51 -40.5 -71 -111.5h318q3 18 3 36
q0 52 -31 84t-93 32q-75 0 -126 -40.5zM386 593h-65l66 134h95z" />
    <glyph glyph-name="ecircumflex" unicode="&#xea;" horiz-adv-x="548" 
d="M111 234q-2 -22 -2 -34q0 -71 31 -108t101 -37q68 0 112 32.5t60 69.5h83q-37 -79 -103 -125.5t-158 -46.5q-101 0 -155 56.5t-54 157.5q0 91 39 165.5t108 117.5t154 43q100 0 149.5 -51t49.5 -139q0 -39 -12 -101h-403zM194 415.5q-51 -40.5 -71 -111.5h318q3 18 3 36
q0 52 -31 84t-93 32q-75 0 -126 -40.5zM299 593h-83l118 134h90l66 -134h-80l-35 91h-2z" />
    <glyph glyph-name="edieresis" unicode="&#xeb;" horiz-adv-x="548" 
d="M111 234q-2 -22 -2 -34q0 -71 31 -108t101 -37q68 0 112 32.5t60 69.5h83q-37 -79 -103 -125.5t-158 -46.5q-101 0 -155 56.5t-54 157.5q0 91 39 165.5t108 117.5t154 43q100 0 149.5 -51t49.5 -139q0 -39 -12 -101h-403zM194 415.5q-51 -40.5 -71 -111.5h318q3 18 3 36
q0 52 -31 84t-93 32q-75 0 -126 -40.5zM326 611h-96l19 96h96zM482 611h-96l19 96h96z" />
    <glyph glyph-name="igrave" unicode="&#xec;" horiz-adv-x="196" 
d="M88 0h-80l99 510h80zM187 591h-65l-62 134h95z" />
    <glyph glyph-name="iacute" unicode="&#xed;" horiz-adv-x="196" 
d="M88 0h-80l99 510h80zM196 591h-65l66 134h95z" />
    <glyph glyph-name="icircumflex" unicode="&#xee;" horiz-adv-x="196" 
d="M88 0h-80l99 510h80zM109 591h-83l118 134h90l66 -134h-80l-35 91h-2z" />
    <glyph glyph-name="idieresis" unicode="&#xef;" horiz-adv-x="196" 
d="M88 0h-80l99 510h80zM136 609h-96l19 96h96zM292 609h-96l19 96h96z" />
    <glyph glyph-name="eth" unicode="&#xf0;" horiz-adv-x="567" 
d="M581 641l-107 -27q73 -104 73 -243q0 -104 -39 -193t-110 -141.5t-163 -52.5q-99 0 -154.5 57t-55.5 158q0 85 39 160t106 120t147 45q57 0 96 -23.5t58 -65.5q-10 81 -73 160l-172 -44l-2 60l129 33q-30 30 -87 71h102q33 -21 63 -51l147 37zM348.5 88.5
q50.5 34.5 79.5 91.5t29 122q0 72 -36.5 114t-104.5 42q-60 0 -107.5 -33t-74.5 -90t-27 -125q0 -73 32.5 -114.5t98.5 -41.5q60 0 110.5 34.5z" />
    <glyph glyph-name="ntilde" unicode="&#xf1;" horiz-adv-x="533" 
d="M460.5 489q38.5 -36 38.5 -102q0 -28 -5 -51l-65 -336h-80l65 336q4 24 4 36q0 83 -93 83q-63 0 -112 -39t-63 -98l-62 -318h-80l99 510h80l-13 -65h1q30 36 77.5 58t105.5 22q64 0 102.5 -36zM196 603q9 47 35.5 70.5t56.5 23.5q19 0 35.5 -5.5t38.5 -16.5q4 -2 17.5 -8
t23.5 -6q23 0 30 34h60q-9 -47 -35 -70.5t-57 -23.5q-19 0 -35.5 5.5t-38.5 16.5q-4 2 -17.5 8t-23.5 6q-14 0 -21 -10.5t-9 -23.5h-60z" />
    <glyph glyph-name="ograve" unicode="&#xf2;" horiz-adv-x="555" 
d="M75.5 40.5q-51.5 54.5 -51.5 146.5q0 91 40 168t110.5 123t159.5 46q94 0 145.5 -54.5t51.5 -146.5q0 -91 -40 -168t-110.5 -123t-159.5 -46q-94 0 -145.5 54.5zM345.5 92.5q49.5 36.5 77 96t27.5 126.5q0 63 -32 101t-95 38q-64 0 -113.5 -36.5t-77 -96t-27.5 -126.5
q0 -63 32 -101t95 -38q64 0 113.5 36.5zM370 591h-65l-62 134h95z" />
    <glyph glyph-name="oacute" unicode="&#xf3;" horiz-adv-x="555" 
d="M75.5 40.5q-51.5 54.5 -51.5 146.5q0 91 40 168t110.5 123t159.5 46q94 0 145.5 -54.5t51.5 -146.5q0 -91 -40 -168t-110.5 -123t-159.5 -46q-94 0 -145.5 54.5zM345.5 92.5q49.5 36.5 77 96t27.5 126.5q0 63 -32 101t-95 38q-64 0 -113.5 -36.5t-77 -96t-27.5 -126.5
q0 -63 32 -101t95 -38q64 0 113.5 36.5zM379 591h-65l66 134h95z" />
    <glyph glyph-name="ocircumflex" unicode="&#xf4;" horiz-adv-x="555" 
d="M75.5 40.5q-51.5 54.5 -51.5 146.5q0 91 40 168t110.5 123t159.5 46q94 0 145.5 -54.5t51.5 -146.5q0 -91 -40 -168t-110.5 -123t-159.5 -46q-94 0 -145.5 54.5zM345.5 92.5q49.5 36.5 77 96t27.5 126.5q0 63 -32 101t-95 38q-64 0 -113.5 -36.5t-77 -96t-27.5 -126.5
q0 -63 32 -101t95 -38q64 0 113.5 36.5zM292 591h-83l118 134h90l66 -134h-80l-35 91h-2z" />
    <glyph glyph-name="otilde" unicode="&#xf5;" horiz-adv-x="555" 
d="M75.5 40.5q-51.5 54.5 -51.5 146.5q0 91 40 168t110.5 123t159.5 46q94 0 145.5 -54.5t51.5 -146.5q0 -91 -40 -168t-110.5 -123t-159.5 -46q-94 0 -145.5 54.5zM345.5 92.5q49.5 36.5 77 96t27.5 126.5q0 63 -32 101t-95 38q-64 0 -113.5 -36.5t-77 -96t-27.5 -126.5
q0 -63 32 -101t95 -38q64 0 113.5 36.5zM208 603q9 47 35.5 70.5t56.5 23.5q19 0 35.5 -5.5t38.5 -16.5q4 -2 17.5 -8t23.5 -6q23 0 30 34h60q-9 -47 -35 -70.5t-57 -23.5q-19 0 -35.5 5.5t-38.5 16.5q-4 2 -17.5 8t-23.5 6q-14 0 -21 -10.5t-9 -23.5h-60z" />
    <glyph glyph-name="odieresis" unicode="&#xf6;" horiz-adv-x="555" 
d="M75.5 40.5q-51.5 54.5 -51.5 146.5q0 91 40 168t110.5 123t159.5 46q94 0 145.5 -54.5t51.5 -146.5q0 -91 -40 -168t-110.5 -123t-159.5 -46q-94 0 -145.5 54.5zM345.5 92.5q49.5 36.5 77 96t27.5 126.5q0 63 -32 101t-95 38q-64 0 -113.5 -36.5t-77 -96t-27.5 -126.5
q0 -63 32 -101t95 -38q64 0 113.5 36.5zM319 609h-96l19 96h96zM475 609h-96l19 96h96z" />
    <glyph glyph-name="divide" unicode="&#xf7;" horiz-adv-x="555" 
d="M362 445h-96l19 96h96zM297 112h-96l19 96h96zM510 287h-454l15 79h454z" />
    <glyph glyph-name="oslash" unicode="&#xf8;" horiz-adv-x="566" 
d="M591 485l-75 -63q20 -43 20 -99q0 -91 -40 -168t-110.5 -123t-159.5 -46q-101 0 -154 64l-71 -60l-27 35l75 63q-20 43 -20 99q0 91 40 168t110.5 123t159.5 46q101 0 153 -63l71 59zM116 144l313 264q-32 46 -101 46q-64 0 -113.5 -36.5t-77 -96t-27.5 -126.5
q0 -27 6 -51zM449 366l-314 -263q34 -47 102 -47q64 0 113.5 36.5t77 96t27.5 126.5q0 27 -6 51z" />
    <glyph glyph-name="ugrave" unicode="&#xf9;" horiz-adv-x="533" 
d="M444 510h80l-99 -510h-80l12 61h-2q-30 -31 -76 -53t-104 -22q-65 0 -103.5 32.5t-38.5 102.5q0 27 6 60l64 329h80l-64 -331q-4 -26 -4 -37q0 -40 21.5 -63t65.5 -23q68 0 118.5 40t63.5 105zM349 591h-65l-62 134h95z" />
    <glyph glyph-name="uacute" unicode="&#xfa;" horiz-adv-x="533" 
d="M444 510h80l-99 -510h-80l12 61h-2q-30 -31 -76 -53t-104 -22q-65 0 -103.5 32.5t-38.5 102.5q0 27 6 60l64 329h80l-64 -331q-4 -26 -4 -37q0 -40 21.5 -63t65.5 -23q68 0 118.5 40t63.5 105zM358 591h-65l66 134h95z" />
    <glyph glyph-name="ucircumflex" unicode="&#xfb;" horiz-adv-x="533" 
d="M444 510h80l-99 -510h-80l12 61h-2q-30 -31 -76 -53t-104 -22q-65 0 -103.5 32.5t-38.5 102.5q0 27 6 60l64 329h80l-64 -331q-4 -26 -4 -37q0 -40 21.5 -63t65.5 -23q68 0 118.5 40t63.5 105zM271 591h-83l118 134h90l66 -134h-80l-35 91h-2z" />
    <glyph glyph-name="udieresis" unicode="&#xfc;" horiz-adv-x="533" 
d="M444 510h80l-99 -510h-80l12 61h-2q-30 -31 -76 -53t-104 -22q-65 0 -103.5 32.5t-38.5 102.5q0 27 6 60l64 329h80l-64 -331q-4 -26 -4 -37q0 -40 21.5 -63t65.5 -23q68 0 118.5 40t63.5 105zM298 609h-96l19 96h96zM454 609h-96l19 96h96z" />
    <glyph glyph-name="yacute" unicode="&#xfd;" horiz-adv-x="493" 
d="M-26 -174l13 68q25 -3 36 -3q85 0 136 114l-109 505h88l77 -413h2l230 413h88l-305 -525q-55 -94 -101.5 -129t-105.5 -35q-21 0 -49 5zM336 591h-65l66 134h95z" />
    <glyph glyph-name="thorn" unicode="&#xfe;" horiz-adv-x="564" 
d="M488 470.5q50 -53.5 50 -153.5q0 -92 -38 -168t-103.5 -119.5t-145.5 -43.5q-103 0 -144 80h-6l-47 -243h-80l173 892h80l-52 -268h3q71 77 176 77q84 0 134 -53.5zM358 89q46 33 72.5 91t26.5 130q0 67 -28 105.5t-95 38.5q-69 0 -122.5 -53.5t-71.5 -134.5l-3 -14
q-4 -21 -4 -50q0 -70 32.5 -108t92.5 -38q54 0 100 33z" />
    <glyph glyph-name="ydieresis" unicode="&#xff;" horiz-adv-x="493" 
d="M-26 -174l13 68q25 -3 36 -3q85 0 136 114l-109 505h88l77 -413h2l230 413h88l-305 -525q-55 -94 -101.5 -129t-105.5 -35q-21 0 -49 5zM276 609h-96l19 96h96zM432 609h-96l19 96h96z" />
    <glyph glyph-name="Amacron" unicode="&#x100;" horiz-adv-x="646" 
d="M53 0h-95l403 715h101l127 -715h-95l-28 179h-315zM396 632l-200 -373h256l-54 373h-2zM559 814h-258l14 70h258z" />
    <glyph glyph-name="amacron" unicode="&#x101;" horiz-adv-x="539" 
d="M50 20.5q-39 34.5 -39 99.5q0 78 57.5 116.5t171.5 61.5q71 14 100.5 22t49.5 25t20 49q0 29 -21.5 45t-75.5 16q-64 0 -99.5 -25t-49.5 -81h-82q18 83 79 129.5t159 46.5q81 0 124.5 -32.5t43.5 -95.5q0 -21 -4 -41l-47 -241q-4 -24 -4 -32q0 -14 5.5 -21t19.5 -7
q5 0 17 2l-11 -52q-25 -10 -48 -10q-34 0 -50 18.5t-15 60.5h-3q-33 -42 -80.5 -65t-105.5 -23q-73 0 -112 34.5zM309.5 95q52.5 39 66.5 109l15 74q-16 -15 -36.5 -21.5t-85.5 -20.5q-66 -14 -102 -26t-55 -31t-19 -51q0 -72 92 -72q72 0 124.5 39zM478 609h-258l14 70h258
z" />
    <glyph glyph-name="Abreve" unicode="&#x102;" horiz-adv-x="646" 
d="M53 0h-95l403 715h101l127 -715h-95l-28 179h-315zM396 632l-200 -373h256l-54 373h-2zM346 811.5q-28 25.5 -28 75.5q0 15 3 33h60q-2 -18 -2 -25q0 -26 12 -37.5t38 -11.5q68 0 86 74h60q-15 -65 -56 -99.5t-97 -34.5q-48 0 -76 25.5z" />
    <glyph glyph-name="abreve" unicode="&#x103;" horiz-adv-x="539" 
d="M50 20.5q-39 34.5 -39 99.5q0 78 57.5 116.5t171.5 61.5q71 14 100.5 22t49.5 25t20 49q0 29 -21.5 45t-75.5 16q-64 0 -99.5 -25t-49.5 -81h-82q18 83 79 129.5t159 46.5q81 0 124.5 -32.5t43.5 -95.5q0 -21 -4 -41l-47 -241q-4 -24 -4 -32q0 -14 5.5 -21t19.5 -7
q5 0 17 2l-11 -52q-25 -10 -48 -10q-34 0 -50 18.5t-15 60.5h-3q-33 -42 -80.5 -65t-105.5 -23q-73 0 -112 34.5zM309.5 95q52.5 39 66.5 109l15 74q-16 -15 -36.5 -21.5t-85.5 -20.5q-66 -14 -102 -26t-55 -31t-19 -51q0 -72 92 -72q72 0 124.5 39zM265 606.5
q-28 25.5 -28 75.5q0 15 3 33h60q-2 -18 -2 -25q0 -26 12 -37.5t38 -11.5q68 0 86 74h60q-15 -65 -56 -99.5t-97 -34.5q-48 0 -76 25.5z" />
    <glyph glyph-name="Aogonek" unicode="&#x104;" horiz-adv-x="646" 
d="M53 0h-95l403 715h101l127 -715h-95l-28 179h-315zM396 632l-200 -373h256l-54 373h-2zM442 -161.5q-20 15.5 -20 42.5q0 36 29.5 68.5t68.5 50.5h60q-84 -57 -84 -92q0 -12 9 -18.5t23 -6.5q26 0 51 10l-12 -60q-33 -10 -67 -10q-38 0 -58 15.5z" />
    <glyph glyph-name="aogonek" unicode="&#x105;" horiz-adv-x="539" 
d="M437 115q-4 -24 -4 -32q0 -14 5.5 -21t19.5 -7q5 0 17 2l-11 -52l-11 -4q-84 -57 -84 -92q0 -12 9 -18.5t23 -6.5q26 0 51 10l-12 -60q-33 -10 -67 -10q-38 0 -58 15.5t-20 42.5q0 35 28 66.5t66 50.5q-41 13 -38 75h-3q-33 -42 -80.5 -65t-105.5 -23q-73 0 -112 34.5
t-39 99.5q0 78 57.5 116.5t171.5 61.5q71 14 100.5 22t49.5 25t20 49q0 29 -21.5 45t-75.5 16q-64 0 -99.5 -25t-49.5 -81h-82q18 83 79 129.5t159 46.5q81 0 124.5 -32.5t43.5 -95.5q0 -21 -4 -41zM309.5 95q52.5 39 66.5 109l15 74q-16 -15 -36.5 -21.5t-85.5 -20.5
q-66 -14 -102 -26t-55 -31t-19 -51q0 -72 92 -72q72 0 124.5 39z" />
    <glyph glyph-name="Cacute" unicode="&#x106;" horiz-adv-x="707" 
d="M124 63.5q-73 77.5 -73 215.5q0 121 54.5 224.5t149 164.5t208.5 61q85 0 145 -35t88 -92.5t23 -122.5h-90q0 74 -43.5 122t-133.5 48q-89 0 -160 -48.5t-111 -132t-40 -186.5q0 -216 195 -216q104 0 166 56.5t84 135.5h92q-23 -79 -73 -141t-122 -96.5t-157 -34.5
q-129 0 -202 77.5zM512 796h-65l66 134h95z" />
    <glyph glyph-name="cacute" unicode="&#x107;" horiz-adv-x="526" 
d="M78.5 41.5q-54.5 55.5 -54.5 150.5q0 88 39 164.5t107.5 122t154.5 45.5q63 0 107.5 -26t65.5 -72t16 -103h-78q1 7 1 20q0 54 -29.5 82.5t-87.5 28.5q-62 0 -111.5 -36t-76.5 -94.5t-27 -124.5q0 -62 31 -102.5t98 -40.5q71 0 115.5 39.5t58.5 89.5h80
q-15 -58 -52.5 -103t-91.5 -70.5t-115 -25.5q-96 0 -150.5 55.5zM376 591h-65l66 134h95z" />
    <glyph glyph-name="Ccircumflex" unicode="&#x108;" horiz-adv-x="707" 
d="M124 63.5q-73 77.5 -73 215.5q0 121 54.5 224.5t149 164.5t208.5 61q85 0 145 -35t88 -92.5t23 -122.5h-90q0 74 -43.5 122t-133.5 48q-89 0 -160 -48.5t-111 -132t-40 -186.5q0 -216 195 -216q104 0 166 56.5t84 135.5h92q-23 -79 -73 -141t-122 -96.5t-157 -34.5
q-129 0 -202 77.5zM425 796h-83l118 134h90l66 -134h-80l-35 91h-2z" />
    <glyph glyph-name="ccircumflex" unicode="&#x109;" horiz-adv-x="526" 
d="M78.5 41.5q-54.5 55.5 -54.5 150.5q0 88 39 164.5t107.5 122t154.5 45.5q63 0 107.5 -26t65.5 -72t16 -103h-78q1 7 1 20q0 54 -29.5 82.5t-87.5 28.5q-62 0 -111.5 -36t-76.5 -94.5t-27 -124.5q0 -62 31 -102.5t98 -40.5q71 0 115.5 39.5t58.5 89.5h80
q-15 -58 -52.5 -103t-91.5 -70.5t-115 -25.5q-96 0 -150.5 55.5zM289 591h-83l118 134h90l66 -134h-80l-35 91h-2z" />
    <glyph glyph-name="Cdotaccent" unicode="&#x10a;" horiz-adv-x="707" 
d="M124 63.5q-73 77.5 -73 215.5q0 121 54.5 224.5t149 164.5t208.5 61q85 0 145 -35t88 -92.5t23 -122.5h-90q0 74 -43.5 122t-133.5 48q-89 0 -160 -48.5t-111 -132t-40 -186.5q0 -216 195 -216q104 0 166 56.5t84 135.5h92q-23 -79 -73 -141t-122 -96.5t-157 -34.5
q-129 0 -202 77.5zM530 814h-96l19 96h96z" />
    <glyph glyph-name="cdotaccent" unicode="&#x10b;" horiz-adv-x="526" 
d="M78.5 41.5q-54.5 55.5 -54.5 150.5q0 88 39 164.5t107.5 122t154.5 45.5q63 0 107.5 -26t65.5 -72t16 -103h-78q1 7 1 20q0 54 -29.5 82.5t-87.5 28.5q-62 0 -111.5 -36t-76.5 -94.5t-27 -124.5q0 -62 31 -102.5t98 -40.5q71 0 115.5 39.5t58.5 89.5h80
q-15 -58 -52.5 -103t-91.5 -70.5t-115 -25.5q-96 0 -150.5 55.5zM394 609h-96l19 96h96z" />
    <glyph glyph-name="Ccaron" unicode="&#x10c;" horiz-adv-x="707" 
d="M124 63.5q-73 77.5 -73 215.5q0 121 54.5 224.5t149 164.5t208.5 61q85 0 145 -35t88 -92.5t23 -122.5h-90q0 74 -43.5 122t-133.5 48q-89 0 -160 -48.5t-111 -132t-40 -186.5q0 -216 195 -216q104 0 166 56.5t84 135.5h92q-23 -79 -73 -141t-122 -96.5t-157 -34.5
q-129 0 -202 77.5zM524 796h-90l-66 134h77l37 -91h2l71 91h87z" />
    <glyph glyph-name="ccaron" unicode="&#x10d;" horiz-adv-x="526" 
d="M78.5 41.5q-54.5 55.5 -54.5 150.5q0 88 39 164.5t107.5 122t154.5 45.5q63 0 107.5 -26t65.5 -72t16 -103h-78q1 7 1 20q0 54 -29.5 82.5t-87.5 28.5q-62 0 -111.5 -36t-76.5 -94.5t-27 -124.5q0 -62 31 -102.5t98 -40.5q71 0 115.5 39.5t58.5 89.5h80
q-15 -58 -52.5 -103t-91.5 -70.5t-115 -25.5q-96 0 -150.5 55.5zM388 591h-90l-66 134h77l37 -91h2l71 91h87z" />
    <glyph glyph-name="Dcaron" unicode="&#x10e;" horiz-adv-x="695" 
d="M25 0l139 715h245q274 0 274 -272q0 -121 -50.5 -222.5t-139.5 -161t-199 -59.5h-269zM307 80q82 0 147 48.5t101.5 131.5t36.5 181q0 95 -43.5 144.5t-155.5 49.5h-155l-107 -555h176zM424 796h-90l-66 134h77l37 -91h2l71 91h87z" />
    <glyph glyph-name="dcaron" unicode="&#x10f;" horiz-adv-x="579" 
d="M514 715h80l-139 -715h-80l12 63h-2q-71 -77 -176 -77q-84 0 -134 53.5t-50 153.5q0 92 38 168t103.5 119.5t145.5 43.5q103 0 144 -80h5zM347.5 105.5q52.5 49.5 72.5 125.5l8 40q2 24 2 37q0 70 -32.5 108t-92.5 38q-54 0 -100 -33t-72.5 -91t-26.5 -130
q0 -67 28 -105.5t95 -38.5q66 0 118.5 49.5zM659 523h-62l60 192h94z" />
    <glyph glyph-name="Dcroat" unicode="&#x110;" horiz-adv-x="705" 
d="M419 715q274 0 274 -272q0 -121 -50.5 -222.5t-139.5 -161t-199 -59.5h-269l65 335h-70l13 70h71l60 310h245zM317 80q82 0 147 48.5t101.5 131.5t36.5 181q0 95 -43.5 144.5t-155.5 49.5h-155l-44 -230h228l-14 -70h-228l-49 -255h176z" />
    <glyph glyph-name="dcroat" unicode="&#x111;" horiz-adv-x="563" 
d="M648 647l-12 -60h-67l-114 -587h-80l12 63h-2q-71 -77 -176 -77q-84 0 -134 53.5t-50 153.5q0 92 38 168t103.5 119.5t145.5 43.5q103 0 144 -80h5l28 143h-151l12 60h151l13 68h80l-13 -68h67zM347.5 105.5q52.5 49.5 72.5 125.5l8 40q2 24 2 37q0 70 -32.5 108
t-92.5 38q-54 0 -100 -33t-72.5 -91t-26.5 -130q0 -67 28 -105.5t95 -38.5q66 0 118.5 49.5z" />
    <glyph glyph-name="Emacron" unicode="&#x112;" horiz-adv-x="613" 
d="M532 0h-507l139 715h495l-16 -80h-405l-43 -225h357l-16 -80h-357l-48 -250h417zM556 814h-258l14 70h258z" />
    <glyph glyph-name="emacron" unicode="&#x113;" horiz-adv-x="548" 
d="M111 234q-2 -22 -2 -34q0 -71 31 -108t101 -37q68 0 112 32.5t60 69.5h83q-37 -79 -103 -125.5t-158 -46.5q-101 0 -155 56.5t-54 157.5q0 91 39 165.5t108 117.5t154 43q100 0 149.5 -51t49.5 -139q0 -39 -12 -101h-403zM194 415.5q-51 -40.5 -71 -111.5h318q3 18 3 36
q0 52 -31 84t-93 32q-75 0 -126 -40.5zM485 611h-258l14 70h258z" />
    <glyph glyph-name="Edotaccent" unicode="&#x116;" horiz-adv-x="613" 
d="M532 0h-507l139 715h495l-16 -80h-405l-43 -225h357l-16 -80h-357l-48 -250h417zM475 814h-96l19 96h96z" />
    <glyph glyph-name="edotaccent" unicode="&#x117;" horiz-adv-x="548" 
d="M111 234q-2 -22 -2 -34q0 -71 31 -108t101 -37q68 0 112 32.5t60 69.5h83q-37 -79 -103 -125.5t-158 -46.5q-101 0 -155 56.5t-54 157.5q0 91 39 165.5t108 117.5t154 43q100 0 149.5 -51t49.5 -139q0 -39 -12 -101h-403zM194 415.5q-51 -40.5 -71 -111.5h318q3 18 3 36
q0 52 -31 84t-93 32q-75 0 -126 -40.5zM404 611h-96l19 96h96z" />
    <glyph glyph-name="Eogonek" unicode="&#x118;" horiz-adv-x="613" 
d="M532 0h-507l139 715h495l-16 -80h-405l-43 -225h357l-16 -80h-357l-48 -250h417zM383 -161.5q-20 15.5 -20 42.5q0 36 29.5 68.5t68.5 50.5h60q-84 -57 -84 -92q0 -12 9 -18.5t23 -6.5q26 0 51 10l-12 -60q-33 -10 -67 -10q-38 0 -58 15.5z" />
    <glyph glyph-name="eogonek" unicode="&#x119;" horiz-adv-x="548" 
d="M111 234q-2 -22 -2 -34q0 -71 31 -108t101 -37q68 0 112 32.5t60 69.5h83q-29 -62 -75.5 -104t-109.5 -59q-76 -53 -76 -86q0 -12 9 -18.5t23 -6.5q26 0 51 10l-12 -60q-33 -10 -67 -10q-38 0 -58 15.5t-20 42.5q0 30 20 57t51 47q-100 1 -153 57.5t-53 156.5
q0 91 39 165.5t108 117.5t154 43q100 0 149.5 -51t49.5 -139q0 -39 -12 -101h-403zM194 415.5q-51 -40.5 -71 -111.5h318q3 18 3 36q0 52 -31 84t-93 32q-75 0 -126 -40.5z" />
    <glyph glyph-name="Ecaron" unicode="&#x11a;" horiz-adv-x="613" 
d="M532 0h-507l139 715h495l-16 -80h-405l-43 -225h357l-16 -80h-357l-48 -250h417zM469 796h-90l-66 134h77l37 -91h2l71 91h87z" />
    <glyph glyph-name="ecaron" unicode="&#x11b;" horiz-adv-x="548" 
d="M111 234q-2 -22 -2 -34q0 -71 31 -108t101 -37q68 0 112 32.5t60 69.5h83q-37 -79 -103 -125.5t-158 -46.5q-101 0 -155 56.5t-54 157.5q0 91 39 165.5t108 117.5t154 43q100 0 149.5 -51t49.5 -139q0 -39 -12 -101h-403zM194 415.5q-51 -40.5 -71 -111.5h318q3 18 3 36
q0 52 -31 84t-93 32q-75 0 -126 -40.5zM398 593h-90l-66 134h77l37 -91h2l71 91h87z" />
    <glyph glyph-name="Gcircumflex" unicode="&#x11c;" horiz-adv-x="735" 
d="M116.5 60.5q-66.5 74.5 -66.5 207.5q0 122 54 228t149.5 169.5t216.5 63.5q83 0 140 -31t84 -83t25 -116h-92q0 74 -45 112t-129 38q-89 0 -160.5 -50.5t-111.5 -136t-40 -186.5q0 -96 42 -153t139 -57q66 0 125.5 28.5t101 80t54.5 117.5h-233l15 80h323l-72 -372h-60
l-10 101h-2q-54 -58 -113 -86.5t-138 -28.5q-130 0 -196.5 74.5zM419 796h-83l118 134h90l66 -134h-80l-35 91h-2z" />
    <glyph glyph-name="gcircumflex" unicode="&#x11d;" horiz-adv-x="565" 
d="M477 510h80l-92 -473q-21 -107 -90 -162t-173 -55q-62 0 -109.5 20.5t-72.5 57t-23 83.5h78q0 -91 127 -91q154 0 184 154l12 62h-2q-69 -80 -177 -80q-85 0 -136 50.5t-51 151.5q0 81 37 148.5t101 107.5t141 40q105 0 152 -77h2zM341.5 128.5q45.5 32.5 70 86.5
t24.5 116q0 123 -119 123q-60 0 -106 -31t-71.5 -82.5t-25.5 -110.5q0 -63 30.5 -98.5t92.5 -35.5q59 0 104.5 32.5zM283 591h-83l118 134h90l66 -134h-80l-35 91h-2z" />
    <glyph glyph-name="Gbreve" unicode="&#x11e;" horiz-adv-x="735" 
d="M116.5 60.5q-66.5 74.5 -66.5 207.5q0 122 54 228t149.5 169.5t216.5 63.5q83 0 140 -31t84 -83t25 -116h-92q0 74 -45 112t-129 38q-89 0 -160.5 -50.5t-111.5 -136t-40 -186.5q0 -96 42 -153t139 -57q66 0 125.5 28.5t101 80t54.5 117.5h-233l15 80h323l-72 -372h-60
l-10 101h-2q-54 -58 -113 -86.5t-138 -28.5q-130 0 -196.5 74.5zM392 811.5q-28 25.5 -28 75.5q0 15 3 33h60q-2 -18 -2 -25q0 -26 12 -37.5t38 -11.5q68 0 86 74h60q-15 -65 -56 -99.5t-97 -34.5q-48 0 -76 25.5z" />
    <glyph glyph-name="gbreve" unicode="&#x11f;" horiz-adv-x="565" 
d="M477 510h80l-92 -473q-21 -107 -90 -162t-173 -55q-62 0 -109.5 20.5t-72.5 57t-23 83.5h78q0 -91 127 -91q154 0 184 154l12 62h-2q-69 -80 -177 -80q-85 0 -136 50.5t-51 151.5q0 81 37 148.5t101 107.5t141 40q105 0 152 -77h2zM341.5 128.5q45.5 32.5 70 86.5
t24.5 116q0 123 -119 123q-60 0 -106 -31t-71.5 -82.5t-25.5 -110.5q0 -63 30.5 -98.5t92.5 -35.5q59 0 104.5 32.5zM256 606.5q-28 25.5 -28 75.5q0 15 3 33h60q-2 -18 -2 -25q0 -26 12 -37.5t38 -11.5q68 0 86 74h60q-15 -65 -56 -99.5t-97 -34.5q-48 0 -76 25.5z" />
    <glyph glyph-name="Gdotaccent" unicode="&#x120;" horiz-adv-x="735" 
d="M116.5 60.5q-66.5 74.5 -66.5 207.5q0 122 54 228t149.5 169.5t216.5 63.5q83 0 140 -31t84 -83t25 -116h-92q0 74 -45 112t-129 38q-89 0 -160.5 -50.5t-111.5 -136t-40 -186.5q0 -96 42 -153t139 -57q66 0 125.5 28.5t101 80t54.5 117.5h-233l15 80h323l-72 -372h-60
l-10 101h-2q-54 -58 -113 -86.5t-138 -28.5q-130 0 -196.5 74.5zM524 814h-96l19 96h96z" />
    <glyph glyph-name="gdotaccent" unicode="&#x121;" horiz-adv-x="565" 
d="M477 510h80l-92 -473q-21 -107 -90 -162t-173 -55q-62 0 -109.5 20.5t-72.5 57t-23 83.5h78q0 -91 127 -91q154 0 184 154l12 62h-2q-69 -80 -177 -80q-85 0 -136 50.5t-51 151.5q0 81 37 148.5t101 107.5t141 40q105 0 152 -77h2zM341.5 128.5q45.5 32.5 70 86.5
t24.5 116q0 123 -119 123q-60 0 -106 -31t-71.5 -82.5t-25.5 -110.5q0 -63 30.5 -98.5t92.5 -35.5q59 0 104.5 32.5zM388 609h-96l19 96h96z" />
    <glyph glyph-name="uni0122" unicode="&#x122;" horiz-adv-x="735" 
d="M116.5 60.5q-66.5 74.5 -66.5 207.5q0 122 54 228t149.5 169.5t216.5 63.5q83 0 140 -31t84 -83t25 -116h-92q0 74 -45 112t-129 38q-89 0 -160.5 -50.5t-111.5 -136t-40 -186.5q0 -96 42 -153t139 -57q66 0 125.5 28.5t101 80t54.5 117.5h-233l15 80h323l-72 -372h-60
l-10 101h-2q-54 -58 -113 -86.5t-138 -28.5q-130 0 -196.5 74.5zM272 -49h96l-15 -78q-8 -40 -35 -65.5t-81 -37.5l8 40q28 8 41 21.5t17 41.5h-46z" />
    <glyph glyph-name="uni0123" unicode="&#x123;" horiz-adv-x="565" 
d="M477 510h80l-92 -473q-21 -107 -90 -162t-173 -55q-62 0 -109.5 20.5t-72.5 57t-23 83.5h78q0 -91 127 -91q154 0 184 154l12 62h-2q-69 -80 -177 -80q-85 0 -136 50.5t-51 151.5q0 81 37 148.5t101 107.5t141 40q105 0 152 -77h2zM341.5 128.5q45.5 32.5 70 86.5
t24.5 116q0 123 -119 123q-60 0 -106 -31t-71.5 -82.5t-25.5 -110.5q0 -63 30.5 -98.5t92.5 -35.5q59 0 104.5 32.5zM420 749q-28 -8 -41.5 -23t-18.5 -47h46l-17 -88h-96l17 88q9 46 37.5 74.5t81.5 41.5z" />
    <glyph glyph-name="Hcircumflex" unicode="&#x124;" horiz-adv-x="712" 
d="M115 0h-90l139 715h90l-59 -304h382l59 304h90l-139 -715h-90l64 331h-382zM407 796h-83l118 134h90l66 -134h-80l-35 91h-2z" />
    <glyph glyph-name="hcircumflex" unicode="&#x125;" horiz-adv-x="533" 
d="M460.5 489q38.5 -36 38.5 -102q0 -28 -5 -51l-65 -336h-80l65 336q4 24 4 36q0 83 -93 83q-62 0 -111.5 -39t-63.5 -96l-62 -320h-80l139 715h80l-52 -270q30 36 77.5 58t105.5 22q64 0 102.5 -36zM140 751h-83l118 134h90l66 -134h-80l-35 91h-2z" />
    <glyph glyph-name="Hbar" unicode="&#x126;" horiz-adv-x="736" 
d="M716 605h71l-14 -70h-71l-104 -535h-90l64 331h-382l-64 -331h-90l104 535h-69l14 70h69l21 110h90l-21 -110h382l21 110h90zM206 411h382l24 124h-382z" />
    <glyph glyph-name="hbar" unicode="&#x127;" horiz-adv-x="533" 
d="M460.5 489q38.5 -36 38.5 -102q0 -28 -5 -51l-65 -336h-80l65 336q4 24 4 36q0 83 -93 83q-62 0 -111.5 -39t-63.5 -96l-62 -320h-80l114 587h-60l12 60h60l13 68h80l-13 -68h158l-12 -60h-158l-27 -142q30 36 77.5 58t105.5 22q64 0 102.5 -36z" />
    <glyph glyph-name="Itilde" unicode="&#x128;" horiz-adv-x="240" 
d="M115 0h-90l139 715h90zM87 808q9 47 35.5 70.5t56.5 23.5q19 0 35.5 -5.5t38.5 -16.5q4 -2 17.5 -8t23.5 -6q23 0 30 34h60q-9 -47 -35 -70.5t-57 -23.5q-19 0 -35.5 5.5t-38.5 16.5q-4 2 -17.5 8t-23.5 6q-14 0 -21 -10.5t-9 -23.5h-60z" />
    <glyph glyph-name="itilde" unicode="&#x129;" horiz-adv-x="196" 
d="M88 0h-80l99 510h80zM25 603q9 47 35.5 70.5t56.5 23.5q19 0 35.5 -5.5t38.5 -16.5q4 -2 17.5 -8t23.5 -6q23 0 30 34h60q-9 -47 -35 -70.5t-57 -23.5q-19 0 -35.5 5.5t-38.5 16.5q-4 2 -17.5 8t-23.5 6q-14 0 -21 -10.5t-9 -23.5h-60z" />
    <glyph glyph-name="Imacron" unicode="&#x12a;" horiz-adv-x="240" 
d="M115 0h-90l139 715h90zM357 814h-258l14 70h258z" />
    <glyph glyph-name="imacron" unicode="&#x12b;" horiz-adv-x="196" 
d="M88 0h-80l99 510h80zM295 609h-258l14 70h258z" />
    <glyph glyph-name="Iogonek" unicode="&#x12e;" horiz-adv-x="240" 
d="M115 0h-90l139 715h90zM-24 -161.5q-20 15.5 -20 42.5q0 36 29.5 68.5t68.5 50.5h60q-84 -57 -84 -92q0 -12 9 -18.5t23 -6.5q26 0 51 10l-12 -60q-33 -10 -67 -10q-38 0 -58 15.5z" />
    <glyph glyph-name="iogonek" unicode="&#x12f;" horiz-adv-x="196" 
d="M88 0h-80l99 510h80zM214 609h-96l19 96h96zM-57 -161.5q-20 15.5 -20 42.5q0 36 29.5 68.5t68.5 50.5h60q-84 -57 -84 -92q0 -12 9 -18.5t23 -6.5q26 0 51 10l-12 -60q-33 -10 -67 -10q-38 0 -58 15.5z" />
    <glyph glyph-name="Idotaccent" unicode="&#x130;" horiz-adv-x="240" 
d="M115 0h-90l139 715h90zM276 814h-96l19 96h96z" />
    <glyph glyph-name="dotlessi" unicode="&#x131;" horiz-adv-x="196" 
d="M88 0h-80l99 510h80z" />
    <glyph glyph-name="Jcircumflex" unicode="&#x134;" horiz-adv-x="504" 
d="M43.5 30.5q-41.5 44.5 -41.5 118.5q0 37 7 69l4 20h90l-4 -20q-9 -49 -9 -72q0 -40 22 -60t75 -20q71 0 103 40.5t46 111.5l97 497h90l-101 -517q-20 -100 -76.5 -156t-164.5 -56q-96 0 -137.5 44.5zM440 796h-83l118 134h90l66 -134h-80l-35 91h-2z" />
    <glyph glyph-name="jcircumflex" unicode="&#x135;" horiz-adv-x="196" 
d="M-110 -175l13 68q26 -3 40 -3q23 0 37 17.5t22 60.5l105 542h80l-107 -550q-14 -73 -52 -106.5t-86 -33.5q-25 0 -52 5zM109 591h-83l118 134h90l66 -134h-80l-35 91h-2z" />
    <glyph glyph-name="uni0136" unicode="&#x136;" horiz-adv-x="639" 
d="M614 715h107l-338 -295l221 -420h-102l-186 361l-157 -137l-44 -224h-90l139 715h90l-74 -380zM247 -49h96l-15 -78q-8 -40 -35 -65.5t-81 -37.5l8 40q28 8 41 21.5t17 41.5h-46z" />
    <glyph glyph-name="uni0137" unicode="&#x137;" horiz-adv-x="478" 
d="M419 510h102l-237 -185l159 -325h-93l-128 276l-95 -73l-39 -203h-80l139 715h80l-82 -420zM158 -49h96l-15 -78q-8 -40 -35 -65.5t-81 -37.5l8 40q28 8 41 21.5t17 41.5h-46z" />
    <glyph glyph-name="kgreenlandic" unicode="&#x138;" horiz-adv-x="484" 
d="M434 510h102l-247 -196l154 -314h-93l-123 265l-104 -83l-35 -182h-80l99 510h80l-45 -231z" />
    <glyph glyph-name="Lacute" unicode="&#x139;" horiz-adv-x="554" 
d="M490 0h-465l139 715h90l-123 -635h375zM258 796h-65l66 134h95z" />
    <glyph glyph-name="lacute" unicode="&#x13a;" horiz-adv-x="196" 
d="M88 0h-80l139 715h80zM227 751h-65l66 134h95z" />
    <glyph glyph-name="uni013B" unicode="&#x13b;" horiz-adv-x="554" 
d="M490 0h-465l139 715h90l-123 -635h375zM200 -49h96l-15 -78q-8 -40 -35 -65.5t-81 -37.5l8 40q28 8 41 21.5t17 41.5h-46z" />
    <glyph glyph-name="uni013C" unicode="&#x13c;" horiz-adv-x="196" 
d="M88 0h-80l139 715h80zM-10 -49h96l-15 -78q-8 -40 -35 -65.5t-81 -37.5l8 40q28 8 41 21.5t17 41.5h-46z" />
    <glyph glyph-name="Lcaron" unicode="&#x13d;" horiz-adv-x="554" 
d="M490 0h-465l139 715h90l-123 -635h375zM395 523h-62l60 192h94z" />
    <glyph glyph-name="lcaron" unicode="&#x13e;" horiz-adv-x="212" 
d="M88 0h-80l139 715h80zM292 523h-62l60 192h94z" />
    <glyph glyph-name="Lslash" unicode="&#x141;" horiz-adv-x="579" 
d="M199 302l-43 -222h375l-16 -80h-465l46 236l-79 -50l15 82l80 51l77 396h90l-64 -331l194 124l-15 -82z" />
    <glyph glyph-name="lslash" unicode="&#x142;" horiz-adv-x="275" 
d="M215 449l85 53l-15 -77l-85 -53l-72 -372h-80l61 314l-84 -53l15 77l84 53l63 324h80z" />
    <glyph glyph-name="Nacute" unicode="&#x143;" horiz-adv-x="709" 
d="M115 0h-90l139 715h108l243 -587h4l114 587h90l-139 -715h-108l-243 587h-4zM493 796h-65l66 134h95z" />
    <glyph glyph-name="nacute" unicode="&#x144;" horiz-adv-x="533" 
d="M460.5 489q38.5 -36 38.5 -102q0 -28 -5 -51l-65 -336h-80l65 336q4 24 4 36q0 83 -93 83q-63 0 -112 -39t-63 -98l-62 -318h-80l99 510h80l-13 -65h1q30 36 77.5 58t105.5 22q64 0 102.5 -36zM367 591h-65l66 134h95z" />
    <glyph glyph-name="uni0145" unicode="&#x145;" horiz-adv-x="709" 
d="M115 0h-90l139 715h108l243 -587h4l114 587h90l-139 -715h-108l-243 587h-4zM247 -49h96l-15 -78q-8 -40 -35 -65.5t-81 -37.5l8 40q28 8 41 21.5t17 41.5h-46z" />
    <glyph glyph-name="uni0146" unicode="&#x146;" horiz-adv-x="533" 
d="M460.5 489q38.5 -36 38.5 -102q0 -28 -5 -51l-65 -336h-80l65 336q4 24 4 36q0 83 -93 83q-63 0 -112 -39t-63 -98l-62 -318h-80l99 510h80l-13 -65h1q30 36 77.5 58t105.5 22q64 0 102.5 -36zM161 -49h96l-15 -78q-8 -40 -35 -65.5t-81 -37.5l8 40q28 8 41 21.5t17 41.5
h-46z" />
    <glyph glyph-name="Ncaron" unicode="&#x147;" horiz-adv-x="709" 
d="M115 0h-90l139 715h108l243 -587h4l114 587h90l-139 -715h-108l-243 587h-4zM505 796h-90l-66 134h77l37 -91h2l71 91h87z" />
    <glyph glyph-name="ncaron" unicode="&#x148;" horiz-adv-x="533" 
d="M460.5 489q38.5 -36 38.5 -102q0 -28 -5 -51l-65 -336h-80l65 336q4 24 4 36q0 83 -93 83q-63 0 -112 -39t-63 -98l-62 -318h-80l99 510h80l-13 -65h1q30 36 77.5 58t105.5 22q64 0 102.5 -36zM379 591h-90l-66 134h77l37 -91h2l71 91h87z" />
    <glyph glyph-name="Eng" unicode="&#x14a;" horiz-adv-x="709" 
d="M318 -172l13 70q22 -2 33 -2q100 0 118 85l-251 606h-2l-114 -587h-90l139 715h110l242 -589h2l115 589h90l-139 -715q-18 -92 -74.5 -135t-137.5 -43q-34 0 -54 6z" />
    <glyph glyph-name="eng" unicode="&#x14b;" horiz-adv-x="533" 
d="M460.5 489q38.5 -36 38.5 -102q0 -28 -5 -51l-72 -371q-14 -73 -51.5 -102t-93.5 -29q-33 0 -59 6l14 70q9 -1 27 -1q38 0 58 14t27 50l70 363q4 24 4 36q0 83 -93 83q-63 0 -112 -39t-63 -98l-62 -318h-80l99 510h80l-13 -65h1q30 36 77.5 58t105.5 22q64 0 102.5 -36z
" />
    <glyph glyph-name="Omacron" unicode="&#x14c;" horiz-adv-x="776" 
d="M185 22.5q-66 36.5 -100.5 102t-34.5 151.5q0 120 56 224.5t153.5 166.5t215.5 62q89 0 155 -36.5t100.5 -102t34.5 -151.5q0 -120 -56 -224.5t-153.5 -166.5t-215.5 -62q-89 0 -155 36.5zM516.5 117.5q74.5 51.5 116 137t41.5 184.5q0 95 -50.5 152.5t-155.5 57.5
q-95 0 -169.5 -51.5t-116 -137t-41.5 -184.5q0 -95 50.5 -152.5t155.5 -57.5q95 0 169.5 51.5zM625 814h-258l14 70h258z" />
    <glyph glyph-name="omacron" unicode="&#x14d;" horiz-adv-x="555" 
d="M75.5 40.5q-51.5 54.5 -51.5 146.5q0 91 40 168t110.5 123t159.5 46q94 0 145.5 -54.5t51.5 -146.5q0 -91 -40 -168t-110.5 -123t-159.5 -46q-94 0 -145.5 54.5zM345.5 92.5q49.5 36.5 77 96t27.5 126.5q0 63 -32 101t-95 38q-64 0 -113.5 -36.5t-77 -96t-27.5 -126.5
q0 -63 32 -101t95 -38q64 0 113.5 36.5zM478 609h-258l14 70h258z" />
    <glyph glyph-name="Ohungarumlaut" unicode="&#x150;" horiz-adv-x="776" 
d="M185 22.5q-66 36.5 -100.5 102t-34.5 151.5q0 120 56 224.5t153.5 166.5t215.5 62q89 0 155 -36.5t100.5 -102t34.5 -151.5q0 -120 -56 -224.5t-153.5 -166.5t-215.5 -62q-89 0 -155 36.5zM516.5 117.5q74.5 51.5 116 137t41.5 184.5q0 95 -50.5 152.5t-155.5 57.5
q-95 0 -169.5 -51.5t-116 -137t-41.5 -184.5q0 -95 50.5 -152.5t155.5 -57.5q95 0 169.5 51.5zM458 796h-65l87 134h95zM600 796h-65l87 134h95z" />
    <glyph glyph-name="ohungarumlaut" unicode="&#x151;" horiz-adv-x="555" 
d="M75.5 40.5q-51.5 54.5 -51.5 146.5q0 91 40 168t110.5 123t159.5 46q94 0 145.5 -54.5t51.5 -146.5q0 -91 -40 -168t-110.5 -123t-159.5 -46q-94 0 -145.5 54.5zM345.5 92.5q49.5 36.5 77 96t27.5 126.5q0 63 -32 101t-95 38q-64 0 -113.5 -36.5t-77 -96t-27.5 -126.5
q0 -63 32 -101t95 -38q64 0 113.5 36.5zM311 591h-65l87 134h95zM453 591h-65l87 134h95z" />
    <glyph glyph-name="OE" unicode="&#x152;" horiz-adv-x="1105" 
d="M1135 635h-405l-43 -225h357l-16 -80h-357l-48 -250h417l-16 -80h-507l31 160q-49 -81 -119.5 -127.5t-152.5 -46.5q-70 0 -121 34t-78.5 96.5t-27.5 147.5q0 117 51 224.5t138.5 174t193.5 66.5q164 0 193 -174l31 160h495zM451 121q65 55 100 143t35 182
q0 106 -43.5 154.5t-116.5 48.5q-80 0 -145.5 -51.5t-103 -138.5t-37.5 -187q0 -96 39.5 -151t123.5 -55q83 0 148 55z" />
    <glyph glyph-name="oe" unicode="&#x153;" horiz-adv-x="967" 
d="M530 234q-2 -22 -2 -34q0 -71 31 -108t101 -37q68 0 112 32.5t60 69.5h83q-37 -79 -103 -125.5t-158 -46.5q-75 0 -124 31t-70 89q-42 -56 -104 -87.5t-135 -31.5q-94 0 -145.5 54.5t-51.5 146.5q0 91 40 168t110.5 123t159.5 46q68 0 114 -29t67 -82q41 53 100.5 82.5
t130.5 29.5q100 0 149.5 -51t49.5 -139q0 -39 -12 -101h-403zM613 415.5q-51 -40.5 -71 -111.5h318q3 18 3 36q0 52 -31 84t-93 32q-75 0 -126 -40.5zM345.5 92.5q49.5 36.5 77 96t27.5 126.5q0 63 -32 101t-95 38q-64 0 -113.5 -36.5t-77 -96t-27.5 -126.5q0 -63 32 -101
t95 -38q64 0 113.5 36.5z" />
    <glyph glyph-name="Racute" unicode="&#x154;" horiz-adv-x="647" 
d="M25 0l139 715h277q105 0 159.5 -43t54.5 -123t-47.5 -141t-122.5 -77v-3q46 -10 64.5 -47t18.5 -93q0 -32 -9 -102q-1 -11 -3 -29t-2 -28q0 -20 8 -23l-1 -6h-97q-4 4 -4 16q0 16 7 56q12 62 12 101q0 53 -23 84.5t-80 31.5h-205l-56 -289h-90zM380 369q54 0 96 22
t64.5 60t22.5 86q0 51 -33.5 74.5t-112.5 23.5h-179l-51 -266h193zM451 796h-65l66 134h95z" />
    <glyph glyph-name="racute" unicode="&#x155;" horiz-adv-x="332" 
d="M375 519l-16 -78q-17 3 -31 3q-69 0 -121 -48t-66 -123l-53 -273h-80l99 510h80l-19 -96h2q31 53 70 80.5t95 27.5q22 0 40 -3zM291 591h-65l66 134h95z" />
    <glyph glyph-name="uni0156" unicode="&#x156;" horiz-adv-x="647" 
d="M25 0l139 715h277q105 0 159.5 -43t54.5 -123t-47.5 -141t-122.5 -77v-3q46 -10 64.5 -47t18.5 -93q0 -32 -9 -102q-1 -11 -3 -29t-2 -28q0 -20 8 -23l-1 -6h-97q-4 4 -4 16q0 16 7 56q12 62 12 101q0 53 -23 84.5t-80 31.5h-205l-56 -289h-90zM380 369q54 0 96 22
t64.5 60t22.5 86q0 51 -33.5 74.5t-112.5 23.5h-179l-51 -266h193zM225 -49h96l-15 -78q-8 -40 -35 -65.5t-81 -37.5l8 40q28 8 41 21.5t17 41.5h-46z" />
    <glyph glyph-name="uni0157" unicode="&#x157;" horiz-adv-x="332" 
d="M375 519l-16 -78q-17 3 -31 3q-69 0 -121 -48t-66 -123l-53 -273h-80l99 510h80l-19 -96h2q31 53 70 80.5t95 27.5q22 0 40 -3zM-10 -49h96l-15 -78q-8 -40 -35 -65.5t-81 -37.5l8 40q28 8 41 21.5t17 41.5h-46z" />
    <glyph glyph-name="Rcaron" unicode="&#x158;" horiz-adv-x="647" 
d="M25 0l139 715h277q105 0 159.5 -43t54.5 -123t-47.5 -141t-122.5 -77v-3q46 -10 64.5 -47t18.5 -93q0 -32 -9 -102q-1 -11 -3 -29t-2 -28q0 -20 8 -23l-1 -6h-97q-4 4 -4 16q0 16 7 56q12 62 12 101q0 53 -23 84.5t-80 31.5h-205l-56 -289h-90zM380 369q54 0 96 22
t64.5 60t22.5 86q0 51 -33.5 74.5t-112.5 23.5h-179l-51 -266h193zM463 796h-90l-66 134h77l37 -91h2l71 91h87z" />
    <glyph glyph-name="rcaron" unicode="&#x159;" horiz-adv-x="332" 
d="M375 519l-16 -78q-17 3 -31 3q-69 0 -121 -48t-66 -123l-53 -273h-80l99 510h80l-19 -96h2q31 53 70 80.5t95 27.5q22 0 40 -3zM303 591h-90l-66 134h77l37 -91h2l71 91h87z" />
    <glyph glyph-name="Sacute" unicode="&#x15a;" horiz-adv-x="624" 
d="M148.5 16.5q-66.5 30.5 -100.5 87t-28 133.5h88q-1 -83 51 -127t147 -44q86 0 136 33t50 103q0 36 -17 57.5t-53.5 38.5t-113.5 43q-74 25 -117 48.5t-64.5 57t-21.5 82.5q0 96 75.5 148t191.5 52q114 0 178.5 -48.5t64.5 -146.5q0 -18 -1 -28h-88q4 73 -35 108t-127 35
q-74 0 -121.5 -25.5t-47.5 -84.5q0 -34 15 -54.5t47 -35.5t100 -38q86 -30 130.5 -52t70 -57.5t25.5 -93.5q0 -106 -76.5 -164t-202.5 -58q-89 0 -155.5 30.5zM439 796h-65l66 134h95z" />
    <glyph glyph-name="sacute" unicode="&#x15b;" horiz-adv-x="479" 
d="M106.5 9.5q-50.5 23.5 -76.5 64.5t-26 93h79q0 -47 36 -79t110 -32q58 0 91.5 21t33.5 64q0 26 -14.5 42t-38 26t-67.5 23q-60 18 -92 31t-57.5 41.5t-25.5 76.5q0 70 55 106.5t139 36.5q64 0 109 -22t67.5 -59t22.5 -80h-80q0 37 -28.5 64t-91.5 27q-50 0 -82 -17.5
t-32 -54.5q0 -24 14.5 -38t35.5 -22t76 -25q57 -17 91 -33t57 -45t23 -75q0 -76 -58 -117t-151 -41q-69 0 -119.5 23.5zM339 591h-65l66 134h95z" />
    <glyph glyph-name="Scircumflex" unicode="&#x15c;" horiz-adv-x="624" 
d="M148.5 16.5q-66.5 30.5 -100.5 87t-28 133.5h88q-1 -83 51 -127t147 -44q86 0 136 33t50 103q0 36 -17 57.5t-53.5 38.5t-113.5 43q-74 25 -117 48.5t-64.5 57t-21.5 82.5q0 96 75.5 148t191.5 52q114 0 178.5 -48.5t64.5 -146.5q0 -18 -1 -28h-88q4 73 -35 108t-127 35
q-74 0 -121.5 -25.5t-47.5 -84.5q0 -34 15 -54.5t47 -35.5t100 -38q86 -30 130.5 -52t70 -57.5t25.5 -93.5q0 -106 -76.5 -164t-202.5 -58q-89 0 -155.5 30.5zM352 796h-83l118 134h90l66 -134h-80l-35 91h-2z" />
    <glyph glyph-name="scircumflex" unicode="&#x15d;" horiz-adv-x="479" 
d="M106.5 9.5q-50.5 23.5 -76.5 64.5t-26 93h79q0 -47 36 -79t110 -32q58 0 91.5 21t33.5 64q0 26 -14.5 42t-38 26t-67.5 23q-60 18 -92 31t-57.5 41.5t-25.5 76.5q0 70 55 106.5t139 36.5q64 0 109 -22t67.5 -59t22.5 -80h-80q0 37 -28.5 64t-91.5 27q-50 0 -82 -17.5
t-32 -54.5q0 -24 14.5 -38t35.5 -22t76 -25q57 -17 91 -33t57 -45t23 -75q0 -76 -58 -117t-151 -41q-69 0 -119.5 23.5zM252 591h-83l118 134h90l66 -134h-80l-35 91h-2z" />
    <glyph glyph-name="Scedilla" unicode="&#x15e;" horiz-adv-x="624" 
d="M526 506q4 73 -35 108t-127 35q-74 0 -121.5 -25.5t-47.5 -84.5q0 -34 15 -54.5t47 -35.5t100 -38q86 -30 130.5 -52t70 -57.5t25.5 -93.5q0 -105 -75 -163t-199 -59l-43 -41l-1 -2q6 1 18 1q29 0 48 -13t19 -38q0 -40 -33.5 -65.5t-86.5 -25.5q-29 0 -55.5 8.5
t-45.5 22.5l26 25q37 -15 67 -15q26 0 42 12.5t16 32.5q0 23 -34 23q-10 0 -22.5 -2t-19.5 -5l-9 19l66 65q-117 11 -183 77t-58 172h88q-1 -83 51 -127t147 -44q86 0 136 33t50 103q0 36 -17 57.5t-53.5 38.5t-113.5 43q-74 25 -117 48.5t-64.5 57t-21.5 82.5
q0 96 75.5 148t191.5 52q114 0 178.5 -48.5t64.5 -146.5q0 -18 -1 -28h-88z" />
    <glyph glyph-name="scedilla" unicode="&#x15f;" horiz-adv-x="479" 
d="M355 264q34 -16 57 -45t23 -75q0 -76 -58 -117t-151 -41h-2l-43 -41l-1 -2q6 1 18 1q29 0 48 -13t19 -38q0 -40 -33.5 -65.5t-86.5 -25.5q-29 0 -55.5 8.5t-45.5 22.5l26 25q37 -15 67 -15q26 0 42 12.5t16 32.5q0 23 -34 23q-10 0 -22.5 -2t-19.5 -5l-9 19l67 66
q-82 12 -127.5 60t-45.5 118h79q0 -47 36 -79t110 -32q58 0 91.5 21t33.5 64q0 26 -14.5 42t-38 26t-67.5 23q-60 18 -92 31t-57.5 41.5t-25.5 76.5q0 70 55 106.5t139 36.5q64 0 109 -22t67.5 -59t22.5 -80h-80q0 37 -28.5 64t-91.5 27q-50 0 -82 -17.5t-32 -54.5
q0 -24 14.5 -38t35.5 -22t76 -25q57 -17 91 -33z" />
    <glyph glyph-name="Scaron" unicode="&#x160;" horiz-adv-x="624" 
d="M148.5 16.5q-66.5 30.5 -100.5 87t-28 133.5h88q-1 -83 51 -127t147 -44q86 0 136 33t50 103q0 36 -17 57.5t-53.5 38.5t-113.5 43q-74 25 -117 48.5t-64.5 57t-21.5 82.5q0 96 75.5 148t191.5 52q114 0 178.5 -48.5t64.5 -146.5q0 -18 -1 -28h-88q4 73 -35 108t-127 35
q-74 0 -121.5 -25.5t-47.5 -84.5q0 -34 15 -54.5t47 -35.5t100 -38q86 -30 130.5 -52t70 -57.5t25.5 -93.5q0 -106 -76.5 -164t-202.5 -58q-89 0 -155.5 30.5zM451 796h-90l-66 134h77l37 -91h2l71 91h87z" />
    <glyph glyph-name="scaron" unicode="&#x161;" horiz-adv-x="479" 
d="M106.5 9.5q-50.5 23.5 -76.5 64.5t-26 93h79q0 -47 36 -79t110 -32q58 0 91.5 21t33.5 64q0 26 -14.5 42t-38 26t-67.5 23q-60 18 -92 31t-57.5 41.5t-25.5 76.5q0 70 55 106.5t139 36.5q64 0 109 -22t67.5 -59t22.5 -80h-80q0 37 -28.5 64t-91.5 27q-50 0 -82 -17.5
t-32 -54.5q0 -24 14.5 -38t35.5 -22t76 -25q57 -17 91 -33t57 -45t23 -75q0 -76 -58 -117t-151 -41q-69 0 -119.5 23.5zM351 591h-90l-66 134h77l37 -91h2l71 91h87z" />
    <glyph glyph-name="uni0162" unicode="&#x162;" horiz-adv-x="594" 
d="M292 0h-90l123 635h-238l16 80h566l-16 -80h-238zM125.5 -189.5q-26.5 8.5 -45.5 22.5l26 25q37 -15 67 -15q26 0 42 12.5t16 32.5q0 23 -34 23q-10 0 -22.5 -2t-19.5 -5l-9 19l78 77h50l-57 -55l-1 -2q6 1 18 1q29 0 48 -13t19 -38q0 -40 -33.5 -65.5t-86.5 -25.5
q-29 0 -55.5 8.5z" />
    <glyph glyph-name="uni0163" unicode="&#x163;" horiz-adv-x="298" 
d="M205 440l-60 -307q-3 -16 -3 -28q0 -21 12 -30.5t40 -9.5q14 0 44 3l-14 -68q-31 -5 -55 -5h-11l-38 -36l-1 -2q6 1 18 1q29 0 48 -13t19 -38q0 -40 -33.5 -65.5t-86.5 -25.5q-29 0 -55.5 8.5t-45.5 22.5l26 25q37 -15 67 -15q26 0 42 12.5t16 32.5q0 23 -34 23
q-10 0 -22.5 -2t-19.5 -5l-9 19l66 65q-54 19 -54 88q0 17 5 47l59 303h-75l14 70h75l33 170h80l-33 -170h100l-14 -70h-100z" />
    <glyph glyph-name="Tcaron" unicode="&#x164;" horiz-adv-x="594" 
d="M292 0h-90l123 635h-238l16 80h566l-16 -80h-238zM447 796h-90l-66 134h77l37 -91h2l71 91h87z" />
    <glyph glyph-name="tcaron" unicode="&#x165;" horiz-adv-x="298" 
d="M264 561l60 154h94l-92 -154h-62zM252 680l-33 -170h100l-14 -70h-100l-60 -307q-3 -16 -3 -28q0 -21 12 -30.5t40 -9.5q14 0 44 3l-14 -68q-31 -5 -55 -5q-52 0 -80 21.5t-28 73.5q0 17 5 47l59 303h-75l14 70h75l33 170h80z" />
    <glyph glyph-name="Tbar" unicode="&#x166;" horiz-adv-x="594" 
d="M669 715l-16 -80h-238l-45 -230h165l-14 -70h-164l-65 -335h-90l65 335h-154l14 70h153l45 230h-238l16 80h566z" />
    <glyph glyph-name="tbar" unicode="&#x167;" horiz-adv-x="303" 
d="M308 440h-100l-18 -93h100l-14 -70h-100l-28 -144q-3 -16 -3 -28q0 -21 12 -30.5t40 -9.5q14 0 44 3l-14 -68q-31 -5 -55 -5q-52 0 -80 21.5t-28 73.5q0 17 5 47l27 140h-75l14 70h75l18 93h-75l14 70h75l33 170h80l-33 -170h100z" />
    <glyph glyph-name="Utilde" unicode="&#x168;" horiz-adv-x="686" 
d="M118 37.5q-59 51.5 -59 140.5q0 29 6 60l93 477h90l-93 -477q-6 -30 -6 -54q0 -62 37.5 -90t113.5 -28q189 0 223 172l93 477h90l-93 -477q-22 -116 -101.5 -184t-221.5 -68q-113 0 -172 51.5zM300 808q9 47 35.5 70.5t56.5 23.5q19 0 35.5 -5.5t38.5 -16.5q4 -2 17.5 -8
t23.5 -6q23 0 30 34h60q-9 -47 -35 -70.5t-57 -23.5q-19 0 -35.5 5.5t-38.5 16.5q-4 2 -17.5 8t-23.5 6q-14 0 -21 -10.5t-9 -23.5h-60z" />
    <glyph glyph-name="utilde" unicode="&#x169;" horiz-adv-x="533" 
d="M444 510h80l-99 -510h-80l12 61h-2q-30 -31 -76 -53t-104 -22q-65 0 -103.5 32.5t-38.5 102.5q0 27 6 60l64 329h80l-64 -331q-4 -26 -4 -37q0 -40 21.5 -63t65.5 -23q68 0 118.5 40t63.5 105zM187 603q9 47 35.5 70.5t56.5 23.5q19 0 35.5 -5.5t38.5 -16.5q4 -2 17.5 -8
t23.5 -6q23 0 30 34h60q-9 -47 -35 -70.5t-57 -23.5q-19 0 -35.5 5.5t-38.5 16.5q-4 2 -17.5 8t-23.5 6q-14 0 -21 -10.5t-9 -23.5h-60z" />
    <glyph glyph-name="Umacron" unicode="&#x16a;" horiz-adv-x="686" 
d="M118 37.5q-59 51.5 -59 140.5q0 29 6 60l93 477h90l-93 -477q-6 -30 -6 -54q0 -62 37.5 -90t113.5 -28q189 0 223 172l93 477h90l-93 -477q-22 -116 -101.5 -184t-221.5 -68q-113 0 -172 51.5zM570 814h-258l14 70h258z" />
    <glyph glyph-name="umacron" unicode="&#x16b;" horiz-adv-x="533" 
d="M444 510h80l-99 -510h-80l12 61h-2q-30 -31 -76 -53t-104 -22q-65 0 -103.5 32.5t-38.5 102.5q0 27 6 60l64 329h80l-64 -331q-4 -26 -4 -37q0 -40 21.5 -63t65.5 -23q68 0 118.5 40t63.5 105zM457 609h-258l14 70h258z" />
    <glyph glyph-name="Ubreve" unicode="&#x16c;" horiz-adv-x="686" 
d="M118 37.5q-59 51.5 -59 140.5q0 29 6 60l93 477h90l-93 -477q-6 -30 -6 -54q0 -62 37.5 -90t113.5 -28q189 0 223 172l93 477h90l-93 -477q-22 -116 -101.5 -184t-221.5 -68q-113 0 -172 51.5zM357 811.5q-28 25.5 -28 75.5q0 15 3 33h60q-2 -18 -2 -25q0 -26 12 -37.5
t38 -11.5q68 0 86 74h60q-15 -65 -56 -99.5t-97 -34.5q-48 0 -76 25.5z" />
    <glyph glyph-name="ubreve" unicode="&#x16d;" horiz-adv-x="533" 
d="M444 510h80l-99 -510h-80l12 61h-2q-30 -31 -76 -53t-104 -22q-65 0 -103.5 32.5t-38.5 102.5q0 27 6 60l64 329h80l-64 -331q-4 -26 -4 -37q0 -40 21.5 -63t65.5 -23q68 0 118.5 40t63.5 105zM244 606.5q-28 25.5 -28 75.5q0 15 3 33h60q-2 -18 -2 -25q0 -26 12 -37.5
t38 -11.5q68 0 86 74h60q-15 -65 -56 -99.5t-97 -34.5q-48 0 -76 25.5z" />
    <glyph glyph-name="Uring" unicode="&#x16e;" horiz-adv-x="686" 
d="M118 37.5q-59 51.5 -59 140.5q0 29 6 60l93 477h90l-93 -477q-6 -30 -6 -54q0 -62 37.5 -90t113.5 -28q189 0 223 172l93 477h90l-93 -477q-22 -116 -101.5 -184t-221.5 -68q-113 0 -172 51.5zM376.5 785q-19.5 20 -19.5 51q0 43 31 73.5t75 30.5q33 0 53 -20t20 -51
q0 -44 -31 -74t-76 -30q-33 0 -52.5 20zM477 821.5q17 17.5 17 40.5q0 18 -10.5 28.5t-27.5 10.5q-24 0 -40.5 -16t-16.5 -42q0 -17 9.5 -28t28.5 -11q23 0 40 17.5z" />
    <glyph glyph-name="uring" unicode="&#x16f;" horiz-adv-x="533" 
d="M444 510h80l-99 -510h-80l12 61h-2q-30 -31 -76 -53t-104 -22q-65 0 -103.5 32.5t-38.5 102.5q0 27 6 60l64 329h80l-64 -331q-4 -26 -4 -37q0 -40 21.5 -63t65.5 -23q68 0 118.5 40t63.5 105zM263.5 580q-19.5 20 -19.5 51q0 43 31 73.5t75 30.5q33 0 53 -20t20 -51
q0 -44 -31 -74t-76 -30q-33 0 -52.5 20zM364 616.5q17 17.5 17 40.5q0 18 -10.5 28.5t-27.5 10.5q-24 0 -40.5 -16t-16.5 -42q0 -17 9.5 -28t28.5 -11q23 0 40 17.5z" />
    <glyph glyph-name="Uhungarumlaut" unicode="&#x170;" horiz-adv-x="686" 
d="M118 37.5q-59 51.5 -59 140.5q0 29 6 60l93 477h90l-93 -477q-6 -30 -6 -54q0 -62 37.5 -90t113.5 -28q189 0 223 172l93 477h90l-93 -477q-22 -116 -101.5 -184t-221.5 -68q-113 0 -172 51.5zM403 796h-65l87 134h95zM545 796h-65l87 134h95z" />
    <glyph glyph-name="uhungarumlaut" unicode="&#x171;" horiz-adv-x="533" 
d="M444 510h80l-99 -510h-80l12 61h-2q-30 -31 -76 -53t-104 -22q-65 0 -103.5 32.5t-38.5 102.5q0 27 6 60l64 329h80l-64 -331q-4 -26 -4 -37q0 -40 21.5 -63t65.5 -23q68 0 118.5 40t63.5 105zM290 591h-65l87 134h95zM432 591h-65l87 134h95z" />
    <glyph glyph-name="Uogonek" unicode="&#x172;" horiz-adv-x="686" 
d="M616 715h90l-93 -477q-17 -91 -70 -153t-144 -86q-82 -57 -82 -91q0 -12 9 -18.5t23 -6.5q26 0 51 10l-12 -60q-33 -10 -67 -10q-38 0 -58 15.5t-20 42.5q0 30 21 57.5t53 48.5q-9 -1 -27 -1q-113 0 -172 51.5t-59 140.5q0 29 6 60l93 477h90l-93 -477q-6 -30 -6 -54
q0 -62 37.5 -90t113.5 -28q189 0 223 172z" />
    <glyph glyph-name="uogonek" unicode="&#x173;" horiz-adv-x="533" 
d="M444 510h80l-99 -510h-10q-84 -57 -84 -92q0 -12 9 -18.5t23 -6.5q26 0 51 10l-12 -60q-33 -10 -67 -10q-38 0 -58 15.5t-20 42.5q0 36 29.5 68.5t68.5 50.5h-10l12 61h-2q-30 -31 -76 -53t-104 -22q-65 0 -103.5 32.5t-38.5 102.5q0 27 6 60l64 329h80l-64 -331
q-4 -26 -4 -37q0 -40 21.5 -63t65.5 -23q68 0 118.5 40t63.5 105z" />
    <glyph glyph-name="Wcircumflex" unicode="&#x174;" horiz-adv-x="917" 
d="M249 0h-100l-48 715h95l29 -586h2l261 586h104l48 -586h2l250 586h95l-316 -715h-100l-46 613h-2zM506 796h-83l118 134h90l66 -134h-80l-35 91h-2z" />
    <glyph glyph-name="wcircumflex" unicode="&#x175;" horiz-adv-x="737" 
d="M203 0h-89l-53 510h88l25 -420h2l194 420h87l30 -420h2l200 420h89l-262 -510h-85l-33 414h-2zM376 591h-83l118 134h90l66 -134h-80l-35 91h-2z" />
    <glyph glyph-name="Ycircumflex" unicode="&#x176;" horiz-adv-x="630" 
d="M310 0h-90l57 293l-178 422h95l138 -353h2l277 353h99l-343 -422zM357 796h-83l118 134h90l66 -134h-80l-35 91h-2z" />
    <glyph glyph-name="ycircumflex" unicode="&#x177;" horiz-adv-x="493" 
d="M-26 -174l13 68q25 -3 36 -3q85 0 136 114l-109 505h88l77 -413h2l230 413h88l-305 -525q-55 -94 -101.5 -129t-105.5 -35q-21 0 -49 5zM249 591h-83l118 134h90l66 -134h-80l-35 91h-2z" />
    <glyph glyph-name="Ydieresis" unicode="&#x178;" horiz-adv-x="630" 
d="M310 0h-90l57 293l-178 422h95l138 -353h2l277 353h99l-343 -422zM384 814h-96l19 96h96zM540 814h-96l19 96h96z" />
    <glyph glyph-name="Zacute" unicode="&#x179;" horiz-adv-x="601" 
d="M527 0h-556l16 80l543 553v2h-416l16 80h526l-16 -80l-543 -553v-2h446zM427 796h-65l66 134h95z" />
    <glyph glyph-name="zacute" unicode="&#x17a;" horiz-adv-x="451" 
d="M381 0h-412l12 60l361 378l1 2h-271l13 70h384l-9 -48l-373 -390v-2h308zM319 591h-65l66 134h95z" />
    <glyph glyph-name="Zdotaccent" unicode="&#x17b;" horiz-adv-x="601" 
d="M527 0h-556l16 80l543 553v2h-416l16 80h526l-16 -80l-543 -553v-2h446zM445 814h-96l19 96h96z" />
    <glyph glyph-name="zdotaccent" unicode="&#x17c;" horiz-adv-x="451" 
d="M381 0h-412l12 60l361 378l1 2h-271l13 70h384l-9 -48l-373 -390v-2h308zM337 609h-96l19 96h96z" />
    <glyph glyph-name="Zcaron" unicode="&#x17d;" horiz-adv-x="601" 
d="M527 0h-556l16 80l543 553v2h-416l16 80h526l-16 -80l-543 -553v-2h446zM439 796h-90l-66 134h77l37 -91h2l71 91h87z" />
    <glyph glyph-name="zcaron" unicode="&#x17e;" horiz-adv-x="451" 
d="M381 0h-412l12 60l361 378l1 2h-271l13 70h384l-9 -48l-373 -390v-2h308zM331 591h-90l-66 134h77l37 -91h2l71 91h87z" />
    <glyph glyph-name="florin" unicode="&#x192;" horiz-adv-x="343" 
d="M294 635.5q-13 -15.5 -22 -60.5l-23 -115h98l-3 -70h-109l-69 -350q-16 -82 -50.5 -112t-92.5 -30q-20 0 -50 6l-4 68q31 -4 45 -4q26 0 39.5 6.5t20 20t12.5 41.5l70 354h-80l3 70h91l24 119q16 82 52.5 112t98.5 30q20 0 55 -4l-16 -69q-30 3 -41 3q-36 0 -49 -15.5z
" />
    <glyph glyph-name="uni0218" unicode="&#x218;" horiz-adv-x="624" 
d="M148.5 16.5q-66.5 30.5 -100.5 87t-28 133.5h88q-1 -83 51 -127t147 -44q86 0 136 33t50 103q0 36 -17 57.5t-53.5 38.5t-113.5 43q-74 25 -117 48.5t-64.5 57t-21.5 82.5q0 96 75.5 148t191.5 52q114 0 178.5 -48.5t64.5 -146.5q0 -18 -1 -28h-88q4 73 -35 108t-127 35
q-74 0 -121.5 -25.5t-47.5 -84.5q0 -34 15 -54.5t47 -35.5t100 -38q86 -30 130.5 -52t70 -57.5t25.5 -93.5q0 -106 -76.5 -164t-202.5 -58q-89 0 -155.5 30.5zM238 -49h96l-15 -78q-8 -40 -35 -65.5t-81 -37.5l8 40q28 8 41 21.5t17 41.5h-46z" />
    <glyph glyph-name="uni0219" unicode="&#x219;" horiz-adv-x="479" 
d="M106.5 9.5q-50.5 23.5 -76.5 64.5t-26 93h79q0 -47 36 -79t110 -32q58 0 91.5 21t33.5 64q0 26 -14.5 42t-38 26t-67.5 23q-60 18 -92 31t-57.5 41.5t-25.5 76.5q0 70 55 106.5t139 36.5q64 0 109 -22t67.5 -59t22.5 -80h-80q0 37 -28.5 64t-91.5 27q-50 0 -82 -17.5
t-32 -54.5q0 -24 14.5 -38t35.5 -22t76 -25q57 -17 91 -33t57 -45t23 -75q0 -76 -58 -117t-151 -41q-69 0 -119.5 23.5zM153 -49h96l-15 -78q-8 -40 -35 -65.5t-81 -37.5l8 40q28 8 41 21.5t17 41.5h-46z" />
    <glyph glyph-name="uni021A" unicode="&#x21a;" horiz-adv-x="594" 
d="M292 0h-90l123 635h-238l16 80h566l-16 -80h-238zM189 -49h96l-15 -78q-8 -40 -35 -65.5t-81 -37.5l8 40q28 8 41 21.5t17 41.5h-46z" />
    <glyph glyph-name="uni021B" unicode="&#x21b;" horiz-adv-x="298" 
d="M205 440l-60 -307q-3 -16 -3 -28q0 -21 12 -30.5t40 -9.5q14 0 44 3l-14 -68q-31 -5 -55 -5q-52 0 -80 21.5t-28 73.5q0 17 5 47l59 303h-75l14 70h75l33 170h80l-33 -170h100l-14 -70h-100zM92 -35h96l-15 -78q-8 -40 -35 -65.5t-81 -37.5l8 40q28 8 41 21.5t17 41.5
h-46z" />
    <glyph glyph-name="uni0237" unicode="&#x237;" horiz-adv-x="196" 
d="M-110 -175l13 68q26 -3 40 -3q23 0 37 17.5t22 60.5l105 542h80l-107 -550q-14 -73 -52 -106.5t-86 -33.5q-25 0 -52 5z" />
    <glyph glyph-name="circumflex" unicode="&#x2c6;" horiz-adv-x="354" 
d="M188 591h-83l118 134h90l66 -134h-80l-35 91h-2z" />
    <glyph glyph-name="caron" unicode="&#x2c7;" horiz-adv-x="354" 
d="M287 591h-90l-66 134h77l37 -91h2l71 91h87z" />
    <glyph glyph-name="breve" unicode="&#x2d8;" horiz-adv-x="334" 
d="M151 606.5q-28 25.5 -28 75.5q0 15 3 33h60q-2 -18 -2 -25q0 -26 12 -37.5t38 -11.5q68 0 86 74h60q-15 -65 -56 -99.5t-97 -34.5q-48 0 -76 25.5z" />
    <glyph glyph-name="dotaccent" unicode="&#x2d9;" horiz-adv-x="177" 
d="M205 609h-96l19 96h96z" />
    <glyph glyph-name="ring" unicode="&#x2da;" horiz-adv-x="255" 
d="M131.5 570q-19.5 20 -19.5 51q0 43 31 73.5t75 30.5q33 0 53 -20t20 -51q0 -44 -31 -74t-76 -30q-33 0 -52.5 20zM232 606.5q17 17.5 17 40.5q0 18 -10.5 28.5t-27.5 10.5q-24 0 -40.5 -16t-16.5 -42q0 -17 9.5 -28t28.5 -11q23 0 40 17.5z" />
    <glyph glyph-name="ogonek" unicode="&#x2db;" horiz-adv-x="236" 
d="M-11 -161.5q-20 15.5 -20 42.5q0 36 29.5 68.5t68.5 50.5h60q-84 -57 -84 -92q0 -12 9 -18.5t23 -6.5q26 0 51 10l-12 -60q-33 -10 -67 -10q-38 0 -58 15.5z" />
    <glyph glyph-name="tilde" unicode="&#x2dc;" horiz-adv-x="359" 
d="M107 603q9 47 35.5 70.5t56.5 23.5q19 0 35.5 -5.5t38.5 -16.5q4 -2 17.5 -8t23.5 -6q23 0 30 34h60q-9 -47 -35 -70.5t-57 -23.5q-19 0 -35.5 5.5t-38.5 16.5q-4 2 -17.5 8t-23.5 6q-14 0 -21 -10.5t-9 -23.5h-60z" />
    <glyph glyph-name="hungarumlaut" unicode="&#x2dd;" horiz-adv-x="360" 
d="M160 591h-65l87 134h95zM302 591h-65l87 134h95z" />
    <glyph glyph-name="gravecomb" unicode="&#x300;" 
d="M198 591h-65l-62 134h95z" />
    <glyph glyph-name="acutecomb" unicode="&#x301;" 
d="M192 591h-65l66 134h95z" />
    <glyph glyph-name="uni0302" unicode="&#x302;" 
d="M188 591h-83l118 134h90l66 -134h-80l-35 91h-2z" />
    <glyph glyph-name="tildecomb" unicode="&#x303;" 
d="M107 603q9 47 35.5 70.5t56.5 23.5q19 0 35.5 -5.5t38.5 -16.5q4 -2 17.5 -8t23.5 -6q23 0 30 34h60q-9 -47 -35 -70.5t-57 -23.5q-19 0 -35.5 5.5t-38.5 16.5q-4 2 -17.5 8t-23.5 6q-14 0 -21 -10.5t-9 -23.5h-60z" />
    <glyph glyph-name="uni0304" unicode="&#x304;" 
d="M366 609h-258l14 70h258z" />
    <glyph glyph-name="uni0306" unicode="&#x306;" 
d="M151 606.5q-28 25.5 -28 75.5q0 15 3 33h60q-2 -18 -2 -25q0 -26 12 -37.5t38 -11.5q68 0 86 74h60q-15 -65 -56 -99.5t-97 -34.5q-48 0 -76 25.5z" />
    <glyph glyph-name="uni0307" unicode="&#x307;" 
d="M205 609h-96l19 96h96z" />
    <glyph glyph-name="uni0308" unicode="&#x308;" 
d="M206 609h-96l19 96h96zM362 609h-96l19 96h96z" />
    <glyph glyph-name="uni030A" unicode="&#x30a;" 
d="M131.5 580q-19.5 20 -19.5 51q0 43 31 73.5t75 30.5q33 0 53 -20t20 -51q0 -44 -31 -74t-76 -30q-33 0 -52.5 20zM232 616.5q17 17.5 17 40.5q0 18 -10.5 28.5t-27.5 10.5q-24 0 -40.5 -16t-16.5 -42q0 -17 9.5 -28t28.5 -11q23 0 40 17.5z" />
    <glyph glyph-name="uni030B" unicode="&#x30b;" 
d="M160 591h-65l87 134h95zM302 591h-65l87 134h95z" />
    <glyph glyph-name="uni030C" unicode="&#x30c;" 
d="M287 591h-90l-66 134h77l37 -91h2l71 91h87z" />
    <glyph glyph-name="uni0312" unicode="&#x312;" 
d="M236 749q-28 -8 -41.5 -23t-18.5 -47h46l-17 -88h-96l17 88q9 46 37.5 74.5t81.5 41.5z" />
    <glyph glyph-name="uni0326" unicode="&#x326;" 
d="M-20 -49h96l-15 -78q-8 -40 -35 -65.5t-81 -37.5l8 40q28 8 41 21.5t17 41.5h-46z" />
    <glyph glyph-name="uni0327" unicode="&#x327;" 
d="M3.5 -189.5q-26.5 8.5 -45.5 22.5l26 25q37 -15 67 -15q26 0 42 12.5t16 32.5q0 23 -34 23q-10 0 -22.5 -2t-19.5 -5l-9 19l78 77h50l-57 -55l-1 -2q6 1 18 1q29 0 48 -13t19 -38q0 -40 -33.5 -65.5t-86.5 -25.5q-29 0 -55.5 8.5z" />
    <glyph glyph-name="uni0328" unicode="&#x328;" 
d="M-11 -161.5q-20 15.5 -20 42.5q0 36 29.5 68.5t68.5 50.5h60q-84 -57 -84 -92q0 -12 9 -18.5t23 -6.5q26 0 51 10l-12 -60q-33 -10 -67 -10q-38 0 -58 15.5z" />
    <glyph glyph-name="uni0335" unicode="&#x335;" 
d="M463 335h-408l14 70h408z" />
    <glyph glyph-name="uni0336" unicode="&#x336;" 
d="M551 315h-500l17 90h500z" />
    <glyph glyph-name="uni0337" unicode="&#x337;" 
d="M612 486l-590 -495l-27 35l589 495z" />
    <glyph glyph-name="uni0338" unicode="&#x338;" 
d="M612 486l-590 -495l-27 35l589 495z" />
    <glyph glyph-name="uni0394" unicode="&#x394;" horiz-adv-x="636" 
d="M351 715h107l121 -637l-15 -78h-593l15 78zM393 632h-8l-305 -552h404z" />
    <glyph glyph-name="uni03A9" unicode="&#x3a9;" horiz-adv-x="794" 
d="M-13 0l16 80h164q-46 35 -72.5 89.5t-26.5 127.5q0 112 55.5 211.5t151.5 160t210 60.5q87 0 151 -35.5t98 -99.5t34 -147q0 -106 -52.5 -208t-138.5 -159h144l-16 -80h-289l14 67q115 54 180.5 148t65.5 214q0 106 -52 162t-148 56q-93 0 -165.5 -50.5t-111.5 -133
t-39 -174.5q0 -84 32.5 -133t95.5 -89l-12 -67h-289z" />
    <glyph glyph-name="uni03BC" unicode="&#x3bc;" horiz-adv-x="538" 
d="M449 510h80l-99 -510h-80l12 61h-2q-27 -31 -71 -53t-94 -22q-32 0 -58.5 10t-43.5 30l-39 -203h-80l134 687h80l-64 -331q-4 -19 -4 -39q0 -84 91 -84q66 0 116 41.5t62 103.5z" />
    <glyph glyph-name="pi" unicode="&#x3c0;" horiz-adv-x="550" 
d="M480 440l-59 -307q-4 -20 -4 -36q0 -18 8.5 -25t29.5 -7q12 0 27 3l-13 -68q-21 -7 -57 -7q-40 0 -59 16.5t-19 58.5q0 29 7 65l59 307h-189l-85 -440h-80l85 440h-80l13 70h505l-13 -70h-76z" />
    <glyph glyph-name="uni0400" unicode="&#x400;" horiz-adv-x="613" 
d="M532 0h-507l139 715h495l-16 -80h-405l-43 -225h357l-16 -80h-357l-48 -250h417zM448 796h-65l-62 134h95z" />
    <glyph glyph-name="uni0401" unicode="&#x401;" horiz-adv-x="613" 
d="M532 0h-507l139 715h495l-16 -80h-405l-43 -225h357l-16 -80h-357l-48 -250h417zM397 814h-96l19 96h96zM553 814h-96l19 96h96z" />
    <glyph glyph-name="uni0402" unicode="&#x402;" horiz-adv-x="719" 
d="M403 -176l15 78q22 -7 51 -7q20 0 35.5 13t20.5 40l61 318q5 28 5 45q0 97 -107 97q-79 0 -133.5 -44.5t-70.5 -127.5l-46 -236h-90l124 635h-180l15 80h490l-15 -80h-220l-45 -230h2q89 83 204 83q79 0 122.5 -39t43.5 -111q0 -26 -6 -56l-66 -342q-12 -62 -51.5 -92.5
t-94.5 -30.5q-44 0 -64 7z" />
    <glyph glyph-name="uni0403" unicode="&#x403;" horiz-adv-x="496" 
d="M114 0h-89l139 715h406l-16 -80h-316zM431 796h-65l66 134h95z" />
    <glyph glyph-name="uni0404" unicode="&#x404;" horiz-adv-x="687" 
d="M261 577.5q-73 -71.5 -103 -179.5h281l-16 -80h-280q-2 -30 -2 -43q0 -62 26 -109.5t70 -73.5t97 -26q88 0 145.5 43t78.5 119h94q-27 -115 -113 -178.5t-220 -63.5q-78 0 -139.5 33t-95.5 94.5t-34 144.5q0 125 49.5 233t143.5 173t220 65q78 0 134.5 -28t84.5 -78
t24 -114h-94q-1 66 -42.5 103t-121.5 37q-114 0 -187 -71.5z" />
    <glyph glyph-name="uni0405" unicode="&#x405;" horiz-adv-x="624" 
d="M148.5 16.5q-66.5 30.5 -100.5 87t-28 133.5h88q-1 -83 51 -127t147 -44q86 0 136 33t50 103q0 36 -17 57.5t-53.5 38.5t-113.5 43q-74 25 -117 48.5t-64.5 57t-21.5 82.5q0 96 75.5 148t191.5 52q114 0 178.5 -48.5t64.5 -146.5q0 -18 -1 -28h-88q4 73 -35 108t-127 35
q-74 0 -121.5 -25.5t-47.5 -84.5q0 -34 15 -54.5t47 -35.5t100 -38q86 -30 130.5 -52t70 -57.5t25.5 -93.5q0 -106 -76.5 -164t-202.5 -58q-89 0 -155.5 30.5z" />
    <glyph glyph-name="uni0406" unicode="&#x406;" horiz-adv-x="240" 
d="M115 0h-90l139 715h90z" />
    <glyph glyph-name="uni0407" unicode="&#x407;" horiz-adv-x="240" 
d="M115 0h-90l139 715h90zM198 814h-96l19 96h96zM354 814h-96l19 96h96z" />
    <glyph glyph-name="uni0408" unicode="&#x408;" horiz-adv-x="504" 
d="M43.5 30.5q-41.5 44.5 -41.5 118.5q0 37 7 69l4 20h90l-4 -20q-9 -49 -9 -72q0 -40 22 -60t75 -20q71 0 103 40.5t46 111.5l97 497h90l-101 -517q-20 -100 -76.5 -156t-164.5 -56q-96 0 -137.5 44.5z" />
    <glyph glyph-name="uni0409" unicode="&#x409;" horiz-adv-x="945" 
d="M-21 -12q-18 3 -27 9l15 78q26 -10 51 -10q43 0 68.5 24.5t41.5 90.5l124 535h387l-56 -288h143q92 0 143.5 -42.5t51.5 -118.5q0 -78 -37.5 -138.5t-103 -94t-147.5 -33.5h-223l123 635h-209l-104 -446q-27 -113 -77 -158.5t-130 -45.5q-16 0 -34 3zM654 80q54 0 94 23
t61 62t21 85q0 47 -31 72t-84 25h-148l-52 -267h139z" />
    <glyph glyph-name="uni040A" unicode="&#x40a;" horiz-adv-x="953" 
d="M25 0l139 715h90l-56 -288h303l56 288h90l-56 -288h143q92 0 143.5 -42.5t51.5 -118.5q0 -78 -37.5 -138.5t-103 -94t-147.5 -33.5h-223l68 347h-304l-68 -347h-89zM662 80q54 0 94 23t61 62t21 85q0 47 -31 72t-84 25h-147l-53 -267h139z" />
    <glyph glyph-name="uni040B" unicode="&#x40b;" horiz-adv-x="718" 
d="M144 0l124 635h-180l16 80h490l-16 -80h-220l-49 -250h2q89 83 204 83q79 0 122.5 -39t43.5 -111q0 -26 -6 -56l-51 -262h-90l48 246q5 28 5 45q0 97 -107 97q-79 0 -133.5 -44.5t-70.5 -127.5l-42 -216h-90z" />
    <glyph glyph-name="uni040C" unicode="&#x40c;" horiz-adv-x="631" 
d="M611 715h113l-372 -371l236 -344h-110l-212 309h-91l-60 -309h-90l139 715h90l-63 -326h93zM464 796h-65l66 134h95z" />
    <glyph glyph-name="uni040D" unicode="&#x40d;" horiz-adv-x="732" 
d="M115 0h-90l139 715h90l-111 -567h2l511 567h90l-139 -715h-90l111 567h-2zM499 796h-65l-62 134h95z" />
    <glyph glyph-name="uni040E" unicode="&#x40e;" horiz-adv-x="597" 
d="M196 0h-100l138 207l-135 508h96l105 -410h2l273 410h101zM316 811.5q-28 25.5 -28 75.5q0 15 3 33h60q-2 -18 -2 -25q0 -26 12 -37.5t38 -11.5q68 0 86 74h60q-15 -65 -56 -99.5t-97 -34.5q-48 0 -76 25.5z" />
    <glyph glyph-name="uni040F" unicode="&#x40f;" horiz-adv-x="692" 
d="M323 -130h-81l24 130h-241l139 715h90l-123 -635h362l123 635h90l-139 -715h-219z" />
    <glyph glyph-name="uni0410" unicode="&#x410;" horiz-adv-x="646" 
d="M53 0h-95l403 715h101l127 -715h-95l-28 179h-315zM396 632l-200 -373h256l-54 373h-2z" />
    <glyph glyph-name="uni0411" unicode="&#x411;" horiz-adv-x="632" 
d="M25 0l139 715h476l-16 -80h-386l-37 -189h209q93 0 143.5 -42t50.5 -122q0 -74 -35 -139t-101 -104t-155 -39h-288zM336 80q54 0 94.5 27t61.5 69t21 86q0 49 -29.5 76.5t-82.5 27.5h-215l-56 -286h206z" />
    <glyph glyph-name="uni0412" unicode="&#x412;" horiz-adv-x="662" 
d="M25 0l139 715h284q99 0 153 -39.5t54 -112.5q0 -62 -38 -110t-106 -69v-3q109 -23 109 -137q0 -69 -36.5 -125t-102 -87.5t-148.5 -31.5h-308zM404 416q75 0 116.5 36.5t41.5 95.5q0 45 -25.5 66t-80.5 21h-218l-42 -219h208zM345 80q85 0 134.5 44t49.5 113
q0 50 -27.5 74.5t-78.5 24.5h-243l-49 -256h214z" />
    <glyph glyph-name="uni0413" unicode="&#x413;" horiz-adv-x="496" 
d="M114 0h-89l139 715h406l-16 -80h-316z" />
    <glyph glyph-name="uni0414" unicode="&#x414;" horiz-adv-x="671" 
d="M-70 -130l41 209h49q28 0 47.5 18t35 56t31.5 106l108 456h410l-123 -636h81l-41 -209h-81l25 129h-476l-25 -129h-82zM147 79h292l108 556h-233l-99 -417q-12 -51 -28.5 -83t-39.5 -54v-2z" />
    <glyph glyph-name="uni0415" unicode="&#x415;" horiz-adv-x="613" 
d="M532 0h-507l139 715h495l-16 -80h-405l-43 -225h357l-16 -80h-357l-48 -250h417z" />
    <glyph glyph-name="uni0416" unicode="&#x416;" horiz-adv-x="936" 
d="M916 715h108l-339 -375l197 -340h-100l-177 309h-81l-60 -309h-90l60 309h-81l-297 -309h-114l348 359l-182 356h95l167 -326h80l63 326h90l-63 -326h83z" />
    <glyph glyph-name="uni0417" unicode="&#x417;" horiz-adv-x="586" 
d="M72.5 24q-62.5 38 -62.5 120q0 28 5 50h90q-3 -16 -3 -30q0 -51 41 -74.5t110 -23.5q54 0 98.5 21.5t70.5 58.5t26 81q0 43 -33.5 68.5t-90.5 25.5h-85l15 80h81q47 0 82.5 21t55 55.5t19.5 71.5q0 44 -37 70t-96 26q-74 0 -122.5 -33t-59.5 -88h-90q18 92 94.5 146.5
t192.5 54.5q96 0 152.5 -42.5t56.5 -115.5q0 -65 -39 -121.5t-107 -82.5v-2q49 -17 75.5 -50t26.5 -79q0 -65 -40 -121.5t-108 -90.5t-146 -34q-110 0 -172.5 38z" />
    <glyph glyph-name="uni0418" unicode="&#x418;" horiz-adv-x="732" 
d="M115 0h-90l139 715h90l-111 -567h2l511 567h90l-139 -715h-90l111 567h-2z" />
    <glyph glyph-name="uni0419" unicode="&#x419;" horiz-adv-x="732" 
d="M115 0h-90l139 715h90l-111 -567h2l511 567h90l-139 -715h-90l111 567h-2zM394 811.5q-28 25.5 -28 75.5q0 15 3 33h60q-2 -18 -2 -25q0 -26 12 -37.5t38 -11.5q68 0 86 74h60q-15 -65 -56 -99.5t-97 -34.5q-48 0 -76 25.5z" />
    <glyph glyph-name="uni041A" unicode="&#x41a;" horiz-adv-x="631" 
d="M611 715h113l-372 -371l236 -344h-110l-212 309h-91l-60 -309h-90l139 715h90l-63 -326h93z" />
    <glyph glyph-name="uni041B" unicode="&#x41b;" horiz-adv-x="658" 
d="M-21 -12q-18 3 -27 9l15 78q26 -10 51 -10q43 0 68.5 24.5t41.5 90.5l124 535h420l-139 -715h-90l124 635h-243l-104 -446q-27 -113 -77 -158.5t-130 -45.5q-16 0 -34 3z" />
    <glyph glyph-name="uni041C" unicode="&#x41c;" horiz-adv-x="846" 
d="M115 0h-90l139 715h123l108 -598h2l330 598h133l-139 -715h-90l114 588h-2l-330 -588h-80l-102 588h-2z" />
    <glyph glyph-name="uni041D" unicode="&#x41d;" horiz-adv-x="712" 
d="M115 0h-90l139 715h90l-59 -304h382l59 304h90l-139 -715h-90l64 331h-382z" />
    <glyph glyph-name="uni041E" unicode="&#x41e;" horiz-adv-x="776" 
d="M185 22.5q-66 36.5 -100.5 102t-34.5 151.5q0 120 56 224.5t153.5 166.5t215.5 62q89 0 155 -36.5t100.5 -102t34.5 -151.5q0 -120 -56 -224.5t-153.5 -166.5t-215.5 -62q-89 0 -155 36.5zM516.5 117.5q74.5 51.5 116 137t41.5 184.5q0 95 -50.5 152.5t-155.5 57.5
q-95 0 -169.5 -51.5t-116 -137t-41.5 -184.5q0 -95 50.5 -152.5t155.5 -57.5q95 0 169.5 51.5z" />
    <glyph glyph-name="uni041F" unicode="&#x41f;" horiz-adv-x="692" 
d="M115 0h-90l139 715h542l-139 -715h-90l123 635h-362z" />
    <glyph glyph-name="uni0420" unicode="&#x420;" horiz-adv-x="614" 
d="M25 0l139 715h275q96 0 151 -39t55 -130q0 -70 -34 -126.5t-96 -88.5t-142 -32h-200l-58 -299h-90zM388 379q76 0 121 45.5t45 115.5q0 51 -27.5 73t-97.5 22h-191l-49 -256h199z" />
    <glyph glyph-name="uni0421" unicode="&#x421;" horiz-adv-x="707" 
d="M124 63.5q-73 77.5 -73 215.5q0 121 54.5 224.5t149 164.5t208.5 61q85 0 145 -35t88 -92.5t23 -122.5h-90q0 74 -43.5 122t-133.5 48q-89 0 -160 -48.5t-111 -132t-40 -186.5q0 -216 195 -216q104 0 166 56.5t84 135.5h92q-23 -79 -73 -141t-122 -96.5t-157 -34.5
q-129 0 -202 77.5z" />
    <glyph glyph-name="uni0422" unicode="&#x422;" horiz-adv-x="594" 
d="M292 0h-90l123 635h-238l16 80h566l-16 -80h-238z" />
    <glyph glyph-name="uni0423" unicode="&#x423;" horiz-adv-x="597" 
d="M196 0h-100l138 207l-135 508h96l105 -410h2l273 410h101z" />
    <glyph glyph-name="uni0424" unicode="&#x424;" horiz-adv-x="727" 
d="M673 250q-45 -70 -123.5 -112t-176.5 -50l-17 -88h-90l17 88q-108 9 -172.5 63t-64.5 146q0 26 6 56q22 112 111 182.5t223 81.5l19 98h90l-19 -98q114 -8 178 -63.5t64 -145.5q0 -88 -45 -158zM387 158q70 8 124.5 40t85 82.5t30.5 112.5q0 65 -43 105t-122 49zM137 313
q0 -65 43 -105t117 -49l75 387q-93 -11 -154.5 -62t-76.5 -131q-4 -19 -4 -40z" />
    <glyph glyph-name="uni0425" unicode="&#x425;" horiz-adv-x="581" 
d="M57 0h-109l315 368l-159 347h100l120 -284h1l233 284h102l-300 -348l171 -367h-100l-131 301h-1z" />
    <glyph glyph-name="uni0426" unicode="&#x426;" horiz-adv-x="725" 
d="M624 -130h-81l24 130h-542l139 715h90l-123 -635h362l123 635h90l-123 -635h81z" />
    <glyph glyph-name="uni0427" unicode="&#x427;" horiz-adv-x="599" 
d="M384 0l61 310h-2q-39 -36 -89.5 -59.5t-103.5 -23.5q-81 0 -127.5 43t-46.5 122q0 27 6 57l51 266h90l-51 -266q-4 -19 -4 -39q0 -51 30 -77t87 -26q52 0 88.5 18.5t86.5 63.5l63 326h90l-139 -715h-90z" />
    <glyph glyph-name="uni0428" unicode="&#x428;" horiz-adv-x="882" 
d="M757 0h-732l139 715h90l-123 -635h231l123 635h90l-123 -635h231l123 635h90z" />
    <glyph glyph-name="uni0429" unicode="&#x429;" horiz-adv-x="915" 
d="M814 -130h-81l24 130h-732l139 715h90l-123 -635h231l123 635h90l-123 -635h231l123 635h90l-123 -635h81z" />
    <glyph glyph-name="uni042A" unicode="&#x42a;" horiz-adv-x="682" 
d="M94 0l123 635h-140l16 80h230l-53 -269h196q94 0 144 -42t50 -122q0 -74 -35 -139t-101 -104t-155 -39h-275zM392 80q56 0 96.5 27t60.5 68.5t20 86.5q0 49 -28.5 76.5t-83.5 27.5h-202l-56 -286h193z" />
    <glyph glyph-name="uni042B" unicode="&#x42b;" horiz-adv-x="791" 
d="M25 0l139 715h90l-53 -269h169q93 0 143.5 -42t50.5 -122q0 -74 -35 -139t-101 -104t-155 -39h-248zM666 0h-90l139 715h90zM296 80q54 0 93.5 27t60 69t20.5 86q0 49 -28.5 76.5t-80.5 27.5h-175l-56 -286h166z" />
    <glyph glyph-name="uni042C" unicode="&#x42c;" horiz-adv-x="613" 
d="M25 0l139 715h90l-53 -269h199q93 0 142 -42t49 -122q0 -75 -34 -139.5t-99.5 -103.5t-154.5 -39h-278zM326 80q54 0 93.5 27t60 69t20.5 86q0 49 -28.5 76.5t-80.5 27.5h-205l-56 -286h196z" />
    <glyph glyph-name="uni042D" unicode="&#x42d;" horiz-adv-x="686" 
d="M608 660q68 -69 68 -196q0 -115 -45.5 -225.5t-135 -181.5t-212.5 -71q-120 0 -191 51.5t-71 149.5q0 20 3 41h94q-1 -7 -1 -20q0 -69 49 -105.5t132 -36.5q97 0 167.5 72t101.5 180h-280l16 80h279q3 24 3 48q0 97 -51.5 150t-139.5 53q-80 0 -137.5 -37t-84.5 -103h-94
q34 105 121.5 162.5t219.5 57.5q121 0 189 -69z" />
    <glyph glyph-name="uni042E" unicode="&#x42e;" horiz-adv-x="943" 
d="M868 659.5q65 -69.5 65 -195.5q0 -120 -47 -230.5t-135.5 -179t-206.5 -68.5t-181.5 70t-63.5 196q0 38 4 69h-125l-63 -321h-90l139 715h90l-61 -314h125q24 92 74 166t123 118t163 44q125 0 190 -69.5zM716 129q64 63 95 152.5t31 169.5q0 93 -44 145.5t-125 52.5
q-93 0 -157 -62t-95 -151.5t-31 -170.5q0 -94 44 -146.5t125 -52.5q93 0 157 63z" />
    <glyph glyph-name="uni042F" unicode="&#x42f;" horiz-adv-x="644" 
d="M-15 6q9 4 16.5 24t18.5 60q19 67 38.5 114.5t54.5 87.5t87 50v2q-47 12 -74.5 47.5t-27.5 92.5q0 66 35.5 119t97.5 82.5t140 29.5h287l-139 -715h-90l59 299h-195q-59 0 -96 -34t-54.5 -78.5t-34.5 -110.5q-8 -32 -14 -50t-14 -26h-97zM503 379l50 256h-189
q-87 0 -131 -36t-44 -106q0 -114 148 -114h166z" />
    <glyph glyph-name="uni0430" unicode="&#x430;" horiz-adv-x="539" 
d="M50 20.5q-39 34.5 -39 99.5q0 78 57.5 116.5t171.5 61.5q71 14 100.5 22t49.5 25t20 49q0 29 -21.5 45t-75.5 16q-64 0 -99.5 -25t-49.5 -81h-82q18 83 79 129.5t159 46.5q81 0 124.5 -32.5t43.5 -95.5q0 -21 -4 -41l-47 -241q-4 -24 -4 -32q0 -14 5.5 -21t19.5 -7
q5 0 17 2l-11 -52q-25 -10 -48 -10q-34 0 -50 18.5t-15 60.5h-3q-33 -42 -80.5 -65t-105.5 -23q-73 0 -112 34.5zM309.5 95q52.5 39 66.5 109l15 74q-16 -15 -36.5 -21.5t-85.5 -20.5q-66 -14 -102 -26t-55 -31t-19 -51q0 -72 92 -72q72 0 124.5 39z" />
    <glyph glyph-name="uni0431" unicode="&#x431;" horiz-adv-x="544" 
d="M88.5 41.5q-48.5 56.5 -48.5 178.5q0 79 29 173.5t94 170t168 93.5l84 15q83 15 89 44h89q-17 -85 -137 -109l-119 -23q-68 -13 -119.5 -59.5t-74.5 -107.5h2q31 45 87 76.5t123 31.5q81 0 124 -48.5t43 -133.5q0 -88 -35.5 -171t-101.5 -135t-154 -52q-94 0 -142.5 56.5
zM352.5 100q43.5 45 64.5 108.5t21 118.5q0 60 -28.5 94t-86.5 34q-66 0 -109.5 -43.5t-63.5 -105.5t-20 -119q0 -61 27.5 -96.5t86.5 -35.5q65 0 108.5 45z" />
    <glyph glyph-name="uni0432" unicode="&#x432;" horiz-adv-x="491" 
d="M8 0l100 510h224q66 0 100.5 -27.5t34.5 -75.5q0 -50 -31 -87.5t-75 -51.5v-2q37 -7 59.5 -33t22.5 -64q0 -41 -23 -80t-68 -64t-108 -25h-236zM285 293q39 0 67 29t28 65q0 26 -17 39.5t-49 13.5h-139l-29 -147h139zM249 70q51 0 80.5 26t29.5 69q0 30 -19 46.5
t-51 16.5h-155l-31 -158h146z" />
    <glyph glyph-name="uni0433" unicode="&#x433;" horiz-adv-x="410" 
d="M88 0h-80l100 510h339l-14 -70h-259z" />
    <glyph glyph-name="uni0434" unicode="&#x434;" horiz-adv-x="556" 
d="M427 70h71l-39 -200h-71l25 130h-384l-26 -130h-71l39 200h40q23 0 43.5 25.5t29.5 62.5l89 352h340zM345 70l72 370h-179l-70 -278q-15 -60 -49 -90v-2h226z" />
    <glyph glyph-name="uni0435" unicode="&#x435;" horiz-adv-x="548" 
d="M111 234q-2 -22 -2 -34q0 -71 31 -108t101 -37q68 0 112 32.5t60 69.5h83q-37 -79 -103 -125.5t-158 -46.5q-101 0 -155 56.5t-54 157.5q0 91 39 165.5t108 117.5t154 43q100 0 149.5 -51t49.5 -139q0 -39 -12 -101h-403zM194 415.5q-51 -40.5 -71 -111.5h318q3 18 3 36
q0 52 -31 84t-93 32q-75 0 -126 -40.5z" />
    <glyph glyph-name="uni0436" unicode="&#x436;" horiz-adv-x="663" 
d="M46 0h-95l226 258l-125 252h89l109 -221h50l43 221h82l-43 -221h59l173 221h91l-210 -262l115 -248h-86l-100 219h-56l-43 -219h-82l43 219h-49z" />
    <glyph glyph-name="uni0437" unicode="&#x437;" horiz-adv-x="453" 
d="M46.5 20q-49.5 34 -49.5 94q0 18 4 34h80q-2 -12 -2 -18q0 -35 31.5 -54.5t84.5 -19.5q54 0 88 25.5t34 70.5q0 36 -22 53.5t-61 17.5h-81l13 70h78q55 0 81 31.5t26 68.5q0 29 -26 45.5t-66 16.5q-56 0 -83.5 -24t-45.5 -74h-80q14 73 73.5 120.5t148.5 47.5
q69 0 115 -31.5t46 -86.5q0 -48 -33 -91t-76 -57v-1q33 -9 55 -36t22 -66q0 -53 -29.5 -91.5t-80 -58.5t-111.5 -20q-84 0 -133.5 34z" />
    <glyph glyph-name="uni0438" unicode="&#x438;" horiz-adv-x="553" 
d="M88 0h-82l104 510h81l-77 -376l349 376h83l-104 -510h-82l79 380z" />
    <glyph glyph-name="uni0439" unicode="&#x439;" horiz-adv-x="553" 
d="M88 0h-82l104 510h81l-77 -376l349 376h83l-104 -510h-82l79 380zM268 606.5q-28 25.5 -28 75.5q0 15 3 33h60q-2 -18 -2 -25q0 -26 12 -37.5t38 -11.5q68 0 86 74h60q-15 -65 -56 -99.5t-97 -34.5q-48 0 -76 25.5z" />
    <glyph glyph-name="uni043A" unicode="&#x43a;" horiz-adv-x="468" 
d="M427 510h97l-252 -261l151 -249h-94l-132 219h-64l-43 -219h-82l100 510h82l-43 -221h67z" />
    <glyph glyph-name="uni043B" unicode="&#x43b;" horiz-adv-x="501" 
d="M-43 -6l14 77q20 -7 39 -7q23 0 36 16t22 53l94 377h330l-100 -510h-80l86 440h-173l-85 -343q-14 -55 -49.5 -83.5t-81.5 -28.5q-29 0 -52 9z" />
    <glyph glyph-name="uni043C" unicode="&#x43c;" horiz-adv-x="674" 
d="M86 0h-81l106 510h108l78 -392h2l264 392h112l-121 -510h-82l89 377h-2l-251 -376h-70l-70 386h-2z" />
    <glyph glyph-name="uni043D" unicode="&#x43d;" horiz-adv-x="551" 
d="M418 295l42 215h82l-99 -510h-82l44 225h-271l-44 -225h-82l99 510h82l-42 -215h271z" />
    <glyph glyph-name="uni043E" unicode="&#x43e;" horiz-adv-x="555" 
d="M75.5 40.5q-51.5 54.5 -51.5 146.5q0 91 40 168t110.5 123t159.5 46q94 0 145.5 -54.5t51.5 -146.5q0 -91 -40 -168t-110.5 -123t-159.5 -46q-94 0 -145.5 54.5zM345.5 92.5q49.5 36.5 77 96t27.5 126.5q0 63 -32 101t-95 38q-64 0 -113.5 -36.5t-77 -96t-27.5 -126.5
q0 -63 32 -101t95 -38q64 0 113.5 36.5z" />
    <glyph glyph-name="uni043F" unicode="&#x43f;" horiz-adv-x="531" 
d="M90 0h-82l99 510h415l-99 -510h-82l85 440h-251z" />
    <glyph glyph-name="uni0440" unicode="&#x440;" horiz-adv-x="563" 
d="M487 470.5q50 -53.5 50 -153.5q0 -92 -38 -168t-103.5 -119.5t-145.5 -43.5q-103 0 -144 80h-6l-47 -243h-80l134 687h80l-12 -63h2q71 77 176 77q84 0 134 -53.5zM357 89q46 33 72.5 91t26.5 130q0 67 -28 105.5t-95 38.5q-66 0 -119 -50t-72 -127l-7 -36q-3 -19 -3 -39
q0 -70 32.5 -108t92.5 -38q54 0 100 33z" />
    <glyph glyph-name="uni0441" unicode="&#x441;" horiz-adv-x="526" 
d="M78.5 41.5q-54.5 55.5 -54.5 150.5q0 88 39 164.5t107.5 122t154.5 45.5q63 0 107.5 -26t65.5 -72t16 -103h-78q1 7 1 20q0 54 -29.5 82.5t-87.5 28.5q-62 0 -111.5 -36t-76.5 -94.5t-27 -124.5q0 -62 31 -102.5t98 -40.5q71 0 115.5 39.5t58.5 89.5h80
q-15 -58 -52.5 -103t-91.5 -70.5t-115 -25.5q-96 0 -150.5 55.5z" />
    <glyph glyph-name="uni0442" unicode="&#x442;" horiz-adv-x="449" 
d="M222 0h-82l85 440h-178l14 70h426l-14 -70h-166z" />
    <glyph glyph-name="uni0443" unicode="&#x443;" horiz-adv-x="493" 
d="M-26 -174l13 68q25 -3 36 -3q85 0 136 114l-109 505h88l77 -413h2l230 413h88l-305 -525q-55 -94 -101.5 -129t-105.5 -35q-21 0 -49 5z" />
    <glyph glyph-name="uni0444" unicode="&#x444;" horiz-adv-x="620" 
d="M559.5 164.5q-35.5 -72.5 -103.5 -120.5t-159 -57l-32 -164h-80l32 164q-94 10 -143.5 64.5t-49.5 140.5q0 30 6 63q22 114 99.5 185.5t191.5 82.5l37 192h80l-37 -192q93 -10 143.5 -63.5t50.5 -140.5q0 -82 -35.5 -154.5zM311 58q61 9 106 45t69 89.5t24 113.5
q0 61 -32 99t-91 47zM109 207q0 -57 30 -97.5t92 -51.5l76 394q-75 -12 -126 -64t-67 -133q-5 -27 -5 -48z" />
    <glyph glyph-name="uni0445" unicode="&#x445;" horiz-adv-x="477" 
d="M39 0h-95l249 261l-138 249h96l101 -195h2l167 195h95l-228 -249l148 -261h-96l-111 208h-2z" />
    <glyph glyph-name="uni0446" unicode="&#x446;" horiz-adv-x="561" 
d="M463 -130h-71l25 130h-409l99 510h82l-85 -440h246l85 440h82l-85 -440h71z" />
    <glyph glyph-name="uni0447" unicode="&#x447;" horiz-adv-x="495" 
d="M304 0l45 227h-2q-29 -31 -73.5 -52t-99.5 -21q-58 0 -96 28.5t-38 88.5q0 21 4 41l39 198h81l-35 -178q-4 -24 -4 -33q0 -38 22 -56.5t62 -18.5q88 0 156 87l39 199h82l-100 -510h-82z" />
    <glyph glyph-name="uni0448" unicode="&#x448;" horiz-adv-x="724" 
d="M616 0h-608l99 510h81l-85 -440h182l85 440h81l-85 -440h182l85 440h81z" />
    <glyph glyph-name="uni0449" unicode="&#x449;" horiz-adv-x="759" 
d="M661 -130h-71l25 130h-607l99 510h81l-85 -440h182l85 440h81l-85 -440h182l85 440h81l-85 -440h72z" />
    <glyph glyph-name="uni044A" unicode="&#x44a;" horiz-adv-x="525" 
d="M83 0l86 439h-120l14 71h201l-37 -192h109q72 0 112.5 -38.5t40.5 -110.5q0 -78 -53.5 -123.5t-145.5 -45.5h-207zM295 70q51 0 82 26t31 69q0 38 -24.5 60.5t-63.5 22.5h-107l-34 -178h116z" />
    <glyph glyph-name="uni044B" unicode="&#x44b;" horiz-adv-x="617" 
d="M8 0l100 510h81l-37 -192h99q72 0 112.5 -38.5t40.5 -110.5q0 -78 -53.5 -123.5t-145.5 -45.5h-197zM509 0h-82l99 510h82zM210 70q51 0 82 26t31 69q0 38 -24.5 60.5t-63.5 22.5h-97l-34 -178h106z" />
    <glyph glyph-name="uni044C" unicode="&#x44c;" horiz-adv-x="450" 
d="M8 0l100 510h81l-37 -192h109q72 0 112.5 -38.5t40.5 -110.5q0 -78 -53.5 -123.5t-145.5 -45.5h-207zM220 70q51 0 82 26t31 69q0 38 -24.5 60.5t-63.5 22.5h-107l-34 -178h116z" />
    <glyph glyph-name="uni044D" unicode="&#x44d;" horiz-adv-x="508" 
d="M434 471.5q49 -52.5 49 -141.5q0 -88 -32.5 -166.5t-98 -128t-157.5 -49.5q-85 0 -138.5 40t-53.5 109q0 7 2 23h80q-2 -44 31 -73t92 -29q68 0 113 47.5t66 118.5h-197l13 70h198q2 24 2 34q0 63 -32.5 95.5t-91.5 32.5q-62 0 -102.5 -27t-54.5 -71h-80
q24 77 89.5 122.5t160.5 45.5q93 0 142 -52.5z" />
    <glyph glyph-name="uni044E" unicode="&#x44e;" horiz-adv-x="698" 
d="M633 474.5q42 -50.5 42 -140.5q0 -85 -35 -166t-99.5 -132t-149.5 -51q-83 0 -127 50.5t-44 140.5q0 14 2 44h-89l-43 -220h-82l99 510h82l-43 -220h90q30 102 103 168.5t176 66.5q76 0 118 -50.5zM506 99q42 44 63 107t21 118q0 63 -25 97t-74 34q-56 0 -98.5 -41
t-65 -103.5t-22.5 -123.5q0 -63 25 -97.5t74 -34.5q60 0 102 44z" />
    <glyph glyph-name="uni044F" unicode="&#x44f;" horiz-adv-x="480" 
d="M-27 4q7 3 12 16t14 41q20 68 46.5 113.5t79.5 55.5v1q-33 8 -52.5 34t-19.5 63q0 13 3 26q15 72 71.5 114t146.5 42h197l-99 -510h-81l37 194h-119q-42 0 -68 -22t-38 -50.5t-23 -70.5q-4 -17 -9 -31.5t-10 -19.5h-89zM342 264l34 176h-120q-60 0 -88.5 -32t-28.5 -71
q0 -32 20 -52.5t65 -20.5h118z" />
    <glyph glyph-name="uni0450" unicode="&#x450;" horiz-adv-x="548" 
d="M111 234q-2 -22 -2 -34q0 -71 31 -108t101 -37q68 0 112 32.5t60 69.5h83q-37 -79 -103 -125.5t-158 -46.5q-101 0 -155 56.5t-54 157.5q0 91 39 165.5t108 117.5t154 43q100 0 149.5 -51t49.5 -139q0 -39 -12 -101h-403zM194 415.5q-51 -40.5 -71 -111.5h318q3 18 3 36
q0 52 -31 84t-93 32q-75 0 -126 -40.5zM377 593h-65l-62 134h95z" />
    <glyph glyph-name="uni0451" unicode="&#x451;" horiz-adv-x="548" 
d="M111 234q-2 -22 -2 -34q0 -71 31 -108t101 -37q68 0 112 32.5t60 69.5h83q-37 -79 -103 -125.5t-158 -46.5q-101 0 -155 56.5t-54 157.5q0 91 39 165.5t108 117.5t154 43q100 0 149.5 -51t49.5 -139q0 -39 -12 -101h-403zM194 415.5q-51 -40.5 -71 -111.5h318q3 18 3 36
q0 52 -31 84t-93 32q-75 0 -126 -40.5zM326 611h-96l19 96h96zM482 611h-96l19 96h96z" />
    <glyph glyph-name="uni0452" unicode="&#x452;" horiz-adv-x="534" 
d="M219 -173l10 71q27 -5 52 -5q48 0 58 55l75 388q4 24 4 36q0 83 -93 83q-62 0 -111.5 -39t-63.5 -96l-62 -320h-80l114 587h-60l12 60h60l13 68h80l-13 -68h158l-12 -60h-158l-27 -142h2q30 36 76.5 58t104.5 22q65 0 103.5 -36t38.5 -103q0 -20 -5 -50l-78 -406
q-10 -53 -48.5 -81.5t-85.5 -28.5q-33 0 -64 7z" />
    <glyph glyph-name="uni0453" unicode="&#x453;" horiz-adv-x="410" 
d="M88 0h-80l100 510h339l-14 -70h-259zM325 591h-65l66 134h95z" />
    <glyph glyph-name="uni0454" unicode="&#x454;" horiz-adv-x="502" 
d="M417 356q2 44 -25 71t-83 27q-73 0 -120 -46.5t-69 -117.5h185l-14 -70h-185q-2 -24 -2 -35q0 -63 31 -96t90 -33q57 0 99.5 29t57.5 73h80q-22 -77 -89.5 -124.5t-160.5 -47.5q-92 0 -140.5 53.5t-48.5 143.5q0 88 38 166.5t106 126.5t155 48q90 0 135 -46t40 -122h-80z
" />
    <glyph glyph-name="uni0455" unicode="&#x455;" horiz-adv-x="479" 
d="M106.5 9.5q-50.5 23.5 -76.5 64.5t-26 93h79q0 -47 36 -79t110 -32q58 0 91.5 21t33.5 64q0 26 -14.5 42t-38 26t-67.5 23q-60 18 -92 31t-57.5 41.5t-25.5 76.5q0 70 55 106.5t139 36.5q64 0 109 -22t67.5 -59t22.5 -80h-80q0 37 -28.5 64t-91.5 27q-50 0 -82 -17.5
t-32 -54.5q0 -24 14.5 -38t35.5 -22t76 -25q57 -17 91 -33t57 -45t23 -75q0 -76 -58 -117t-151 -41q-69 0 -119.5 23.5z" />
    <glyph glyph-name="uni0456" unicode="&#x456;" horiz-adv-x="196" 
d="M88 0h-80l99 510h80zM214 609h-96l19 96h96z" />
    <glyph glyph-name="uni0457" unicode="&#x457;" horiz-adv-x="196" 
d="M156 609h-86l19 96h86zM262 609h-86l19 96h86zM88 0h-80l99 510h80z" />
    <glyph glyph-name="uni0458" unicode="&#x458;" horiz-adv-x="196" 
d="M-110 -175l13 68q26 -3 40 -3q23 0 37 17.5t22 60.5l105 542h80l-107 -550q-14 -73 -52 -106.5t-86 -33.5q-25 0 -52 5zM214 609h-96l19 96h96z" />
    <glyph glyph-name="uni0459" unicode="&#x459;" horiz-adv-x="719" 
d="M-43 -6l14 77q20 -7 39 -7q23 0 36 16t22 53l94 377h306l-37 -192h99q72 0 112.5 -38.5t40.5 -110.5q0 -78 -53.5 -123.5t-145.5 -45.5h-197l86 440h-148l-85 -343q-14 -55 -49.5 -83.5t-81.5 -28.5q-29 0 -52 9zM489 70q51 0 82 26t31 69q0 38 -24.5 60.5t-63.5 22.5
h-97l-34 -178h106z" />
    <glyph glyph-name="uni045A" unicode="&#x45a;" horiz-adv-x="735" 
d="M546 318q72 0 112.5 -38.5t40.5 -110.5q0 -78 -53.5 -123.5t-145.5 -45.5h-197l49 249h-214l-48 -249h-82l99 510h82l-37 -191h214l37 191h81l-37 -192h99zM505 70q51 0 82 26t31 69q0 38 -24.5 60.5t-63.5 22.5h-97l-34 -178h106z" />
    <glyph glyph-name="uni045B" unicode="&#x45b;" horiz-adv-x="533" 
d="M460.5 489q38.5 -36 38.5 -102q0 -28 -5 -51l-65 -336h-80l65 336q4 24 4 36q0 83 -93 83q-62 0 -111.5 -39t-63.5 -96l-62 -320h-80l114 587h-60l12 60h60l13 68h80l-13 -68h158l-12 -60h-158l-27 -142q30 36 77.5 58t105.5 22q64 0 102.5 -36z" />
    <glyph glyph-name="uni045C" unicode="&#x45c;" horiz-adv-x="468" 
d="M427 510h97l-252 -261l151 -249h-94l-132 219h-64l-43 -219h-82l100 510h82l-43 -221h67zM342 591h-65l66 134h95z" />
    <glyph glyph-name="uni045D" unicode="&#x45d;" horiz-adv-x="553" 
d="M88 0h-82l104 510h81l-77 -376l349 376h83l-104 -510h-82l79 380zM373 591h-65l-62 134h95z" />
    <glyph glyph-name="uni045E" unicode="&#x45e;" horiz-adv-x="493" 
d="M-26 -174l13 68q25 -3 36 -3q85 0 136 114l-109 505h88l77 -413h2l230 413h88l-305 -525q-55 -94 -101.5 -129t-105.5 -35q-21 0 -49 5zM222 606.5q-28 25.5 -28 75.5q0 15 3 33h60q-2 -18 -2 -25q0 -26 12 -37.5t38 -11.5q68 0 86 74h60q-15 -65 -56 -99.5t-97 -34.5
q-48 0 -76 25.5z" />
    <glyph glyph-name="uni045F" unicode="&#x45f;" horiz-adv-x="526" 
d="M233 -130h-71l25 130h-179l99 510h82l-85 -440h246l85 440h82l-99 -510h-159z" />
    <glyph glyph-name="uni0490" unicode="&#x490;" horiz-adv-x="470" 
d="M114 0h-89l139 715h298l19 99h82l-35 -179h-290z" />
    <glyph glyph-name="uni0491" unicode="&#x491;" horiz-adv-x="404" 
d="M88 0h-80l100 510h262l21 110h71l-35 -180h-253z" />
    <glyph glyph-name="uni0492" unicode="&#x492;" horiz-adv-x="548" 
d="M618 715l-16 -80h-316l-49 -251h213l-16 -70h-211l-61 -314h-89l61 314h-124l16 70h122l64 331h406z" />
    <glyph glyph-name="uni0493" unicode="&#x493;" horiz-adv-x="444" 
d="M481 510l-14 -70h-259l-30 -152h173l-14 -60h-170l-45 -228h-80l45 228h-90l14 60h87l44 222h339z" />
    <glyph glyph-name="uni0496" unicode="&#x496;" horiz-adv-x="936" 
d="M1024 715l-339 -375l166 -286h69l-36 -184h-82l25 130h-45l-177 309h-81l-60 -309h-90l60 309h-81l-297 -309h-114l348 359l-182 356h95l167 -326h80l63 326h90l-63 -326h83l293 326h108z" />
    <glyph glyph-name="uni0497" unicode="&#x497;" horiz-adv-x="663" 
d="M705 510l-210 -262l87 -188h42l-37 -190h-70l25 130h-18l-100 219h-56l-43 -219h-82l43 219h-49l-191 -219h-95l226 258l-125 252h89l109 -221h50l43 221h82l-43 -221h59l173 221h91z" />
    <glyph glyph-name="uni049A" unicode="&#x49a;" horiz-adv-x="631" 
d="M724 715l-372 -371l199 -290h58l-36 -184h-82l25 130h-38l-212 309h-91l-60 -309h-90l139 715h90l-63 -326h93l327 326h113z" />
    <glyph glyph-name="uni049B" unicode="&#x49b;" horiz-adv-x="468" 
d="M524 510l-252 -261l115 -189h60l-37 -190h-70l25 130h-36l-132 219h-64l-43 -219h-82l100 510h82l-43 -221h67l213 221h97z" />
    <glyph glyph-name="uni04A2" unicode="&#x4a2;" horiz-adv-x="712" 
d="M636 715h90l-129 -661h37l-36 -184h-82l25 130h-44l64 331h-382l-64 -331h-90l139 715h90l-59 -304h382z" />
    <glyph glyph-name="uni04A3" unicode="&#x4a3;" horiz-adv-x="551" 
d="M460 510h82l-87 -450h41l-37 -190h-70l25 130h-53l44 225h-271l-44 -225h-82l99 510h82l-42 -215h271z" />
    <glyph glyph-name="uni04AE" unicode="&#x4ae;" horiz-adv-x="630" 
d="M310 0h-90l57 293l-178 422h95l138 -353h2l277 353h99l-343 -422z" />
    <glyph glyph-name="uni04AF" unicode="&#x4af;" horiz-adv-x="490" 
d="M204 -177h-81l41 212l-114 475h84l89 -352h2l218 352h92l-290 -475z" />
    <glyph glyph-name="uni04B0" unicode="&#x4b0;" horiz-adv-x="622" 
d="M706 715l-343 -422l-6 -31h160l-16 -70h-158l-37 -192h-90l37 192h-170l16 70h168l6 31l-178 422h95l138 -353h2l277 353h99z" />
    <glyph glyph-name="uni04B1" unicode="&#x4b1;" horiz-adv-x="490" 
d="M535 510l-290 -475l-10 -50h131l-12 -60h-130l-20 -102h-81l20 102h-129l12 60h128l10 50l-114 475h84l89 -352h2l218 352h92z" />
    <glyph glyph-name="uni04B2" unicode="&#x4b2;" horiz-adv-x="581" 
d="M660 715l-300 -348l146 -313h61l-36 -184h-82l25 130h-43l-131 301h-1l-242 -301h-109l315 368l-159 347h100l120 -284h1l233 284h102z" />
    <glyph glyph-name="uni04B3" unicode="&#x4b3;" horiz-adv-x="477" 
d="M516 510l-228 -249l114 -201h55l-37 -190h-70l25 130h-35l-111 208h-2l-188 -208h-95l249 261l-138 249h96l101 -195h2l167 195h95z" />
    <glyph glyph-name="uni04B6" unicode="&#x4b6;" horiz-adv-x="599" 
d="M613 715l-129 -661h34l-36 -184h-82l25 130h-41l61 310h-2q-39 -36 -89.5 -59.5t-103.5 -23.5q-81 0 -127.5 43t-46.5 122q0 27 6 57l51 266h90l-51 -266q-4 -19 -4 -39q0 -51 30 -77t87 -26q52 0 88.5 18.5t86.5 63.5l63 326h90z" />
    <glyph glyph-name="uni04B7" unicode="&#x4b7;" horiz-adv-x="495" 
d="M486 510l-88 -450h32l-37 -190h-70l25 130h-44l45 227h-2q-29 -31 -73.5 -52t-99.5 -21q-58 0 -96 28.5t-38 88.5q0 21 4 41l39 198h81l-35 -178q-4 -24 -4 -33q0 -38 22 -56.5t62 -18.5q88 0 156 87l39 199h82z" />
    <glyph glyph-name="uni04BA" unicode="&#x4ba;" horiz-adv-x="599" 
d="M25 0l140 715h90l-65 -330h2q89 83 204 83q79 0 122.5 -39t43.5 -111q0 -26 -6 -56l-51 -262h-90l48 246q5 28 5 45q0 97 -107 97q-79 0 -133.5 -44.5t-70.5 -127.5l-42 -216h-90z" />
    <glyph glyph-name="uni04BB" unicode="&#x4bb;" horiz-adv-x="533" 
d="M460.5 489q38.5 -36 38.5 -102q0 -28 -5 -51l-65 -336h-80l65 336q4 24 4 36q0 83 -93 83q-62 0 -111.5 -39t-63.5 -96l-62 -320h-80l139 715h80l-52 -270q30 36 77.5 58t105.5 22q64 0 102.5 -36z" />
    <glyph glyph-name="uni04D8" unicode="&#x4d8;" horiz-adv-x="725" 
d="M596.5 693.5q57.5 -35.5 88 -99t30.5 -144.5q0 -43 -9 -91q-21 -108 -78.5 -193.5t-141 -133t-178.5 -47.5q-81 0 -141 33.5t-92.5 93.5t-32.5 137q0 34 8 76q6 33 13 54h556q5 35 5 60q0 97 -51 153.5t-138 56.5q-91 0 -155.5 -38.5t-88.5 -107.5h-90q37 108 135 167
t225 59q78 0 135.5 -35.5zM494 129q71 64 106 170h-459q-5 -24 -5 -54q0 -81 50.5 -130.5t142.5 -49.5q94 0 165 64z" />
    <glyph glyph-name="uni04D9" unicode="&#x4d9;" horiz-adv-x="525" 
d="M452 471.5q49 -52.5 49 -141.5q0 -84 -35 -163.5t-101 -130t-155 -50.5q-97 0 -142.5 54.5t-45.5 139.5q0 29 7 69q3 17 11 41h378q2 22 2 31q0 65 -33 99t-90 34q-59 0 -102.5 -24.5t-59.5 -65.5h-78q29 74 97 117t156 43q93 0 142 -52.5zM339 103q45 47 66 117h-298
q-5 -25 -5 -45q0 -52 28.5 -85.5t92.5 -33.5q71 0 116 47z" />
    <glyph glyph-name="uni04E2" unicode="&#x4e2;" horiz-adv-x="732" 
d="M115 0h-90l139 715h90l-111 -567h2l511 567h90l-139 -715h-90l111 567h-2zM607 814h-258l14 70h258z" />
    <glyph glyph-name="uni04E3" unicode="&#x4e3;" horiz-adv-x="553" 
d="M88 0h-82l104 510h81l-77 -376l349 376h83l-104 -510h-82l79 380zM481 609h-258l14 70h258z" />
    <glyph glyph-name="uni04E8" unicode="&#x4e8;" horiz-adv-x="776" 
d="M630 692.5q66 -36.5 100.5 -102t34.5 -151.5q0 -120 -56 -224.5t-153.5 -166.5t-215.5 -62q-89 0 -155 36.5t-100.5 102t-34.5 151.5q0 120 56 224.5t153.5 166.5t215.5 62q89 0 155 -36.5zM331 616.5q-63 -32.5 -107.5 -89.5t-65.5 -129h514q2 28 2 41q0 95 -50.5 152.5
t-155.5 57.5q-74 0 -137 -32.5zM485 98.5q63 32.5 107 89.5t65 130h-514q-2 -28 -2 -42q0 -95 50.5 -152.5t155.5 -57.5q75 0 138 32.5z" />
    <glyph glyph-name="uni04E9" unicode="&#x4e9;" horiz-adv-x="555" 
d="M479.5 469.5q51.5 -54.5 51.5 -146.5q0 -91 -40 -168t-110.5 -123t-159.5 -46q-94 0 -145.5 54.5t-51.5 146.5q0 91 40 168t110.5 123t159.5 46q94 0 145.5 -54.5zM197.5 408q-53.5 -46 -77.5 -118h329q1 8 1 25q0 63 -32 101t-95 38q-72 0 -125.5 -46zM357.5 102
q53.5 46 77.5 118h-329q-1 -8 -1 -25q0 -63 32 -101t95 -38q72 0 125.5 46z" />
    <glyph glyph-name="uni04EE" unicode="&#x4ee;" horiz-adv-x="597" 
d="M196 0h-100l138 207l-135 508h96l105 -410h2l273 410h101zM529 814h-258l14 70h258z" />
    <glyph glyph-name="uni04EF" unicode="&#x4ef;" horiz-adv-x="493" 
d="M-26 -174l13 68q25 -3 36 -3q85 0 136 114l-109 505h88l77 -413h2l230 413h88l-305 -525q-55 -94 -101.5 -129t-105.5 -35q-21 0 -49 5zM435 609h-258l14 70h258z" />
    <glyph glyph-name="uni139A" unicode="&#x139a;" horiz-adv-x="658" 
 />
    <glyph glyph-name="Wgrave" unicode="&#x1e80;" horiz-adv-x="917" 
d="M249 0h-100l-48 715h95l29 -586h2l261 586h104l48 -586h2l250 586h95l-316 -715h-100l-46 613h-2zM584 796h-65l-62 134h95z" />
    <glyph glyph-name="wgrave" unicode="&#x1e81;" horiz-adv-x="737" 
d="M203 0h-89l-53 510h88l25 -420h2l194 420h87l30 -420h2l200 420h89l-262 -510h-85l-33 414h-2zM454 591h-65l-62 134h95z" />
    <glyph glyph-name="Wacute" unicode="&#x1e82;" horiz-adv-x="917" 
d="M249 0h-100l-48 715h95l29 -586h2l261 586h104l48 -586h2l250 586h95l-316 -715h-100l-46 613h-2zM593 796h-65l66 134h95z" />
    <glyph glyph-name="wacute" unicode="&#x1e83;" horiz-adv-x="737" 
d="M203 0h-89l-53 510h88l25 -420h2l194 420h87l30 -420h2l200 420h89l-262 -510h-85l-33 414h-2zM463 591h-65l66 134h95z" />
    <glyph glyph-name="Wdieresis" unicode="&#x1e84;" horiz-adv-x="917" 
d="M249 0h-100l-48 715h95l29 -586h2l261 586h104l48 -586h2l250 586h95l-316 -715h-100l-46 613h-2zM533 814h-96l19 96h96zM689 814h-96l19 96h96z" />
    <glyph glyph-name="wdieresis" unicode="&#x1e85;" horiz-adv-x="737" 
d="M203 0h-89l-53 510h88l25 -420h2l194 420h87l30 -420h2l200 420h89l-262 -510h-85l-33 414h-2zM403 609h-96l19 96h96zM559 609h-96l19 96h96z" />
    <glyph glyph-name="Ygrave" unicode="&#x1ef2;" horiz-adv-x="630" 
d="M310 0h-90l57 293l-178 422h95l138 -353h2l277 353h99l-343 -422zM435 796h-65l-62 134h95z" />
    <glyph glyph-name="ygrave" unicode="&#x1ef3;" horiz-adv-x="493" 
d="M-26 -174l13 68q25 -3 36 -3q85 0 136 114l-109 505h88l77 -413h2l230 413h88l-305 -525q-55 -94 -101.5 -129t-105.5 -35q-21 0 -49 5zM327 591h-65l-62 134h95z" />
    <glyph glyph-name="uni2000" unicode="&#x2000;" horiz-adv-x="500" 
 />
    <glyph glyph-name="uni2001" unicode="&#x2001;" horiz-adv-x="1000" 
 />
    <glyph glyph-name="uni2002" unicode="&#x2002;" horiz-adv-x="500" 
 />
    <glyph glyph-name="uni2003" unicode="&#x2003;" horiz-adv-x="1000" 
 />
    <glyph glyph-name="uni2004" unicode="&#x2004;" horiz-adv-x="333" 
 />
    <glyph glyph-name="uni2005" unicode="&#x2005;" horiz-adv-x="250" 
 />
    <glyph glyph-name="uni2006" unicode="&#x2006;" horiz-adv-x="167" 
 />
    <glyph glyph-name="uni2007" unicode="&#x2007;" horiz-adv-x="700" 
 />
    <glyph glyph-name="uni2008" unicode="&#x2008;" horiz-adv-x="189" 
 />
    <glyph glyph-name="uni2009" unicode="&#x2009;" horiz-adv-x="125" 
 />
    <glyph glyph-name="uni200A" unicode="&#x200a;" horiz-adv-x="42" 
 />
    <glyph glyph-name="uni200B" unicode="&#x200b;" 
 />
    <glyph glyph-name="endash" unicode="&#x2013;" horiz-adv-x="587" 
d="M535 215h-500l16 80h500z" />
    <glyph glyph-name="emdash" unicode="&#x2014;" horiz-adv-x="1083" 
d="M1033 214h-1000l16 80h1000z" />
    <glyph glyph-name="quoteleft" unicode="&#x2018;" horiz-adv-x="187" 
d="M218 665q-28 -9 -41.5 -25.5t-19.5 -51.5h46l-19 -96h-96l19 96q11 52 35.5 83.5t85.5 43.5z" />
    <glyph glyph-name="quoteright" unicode="&#x2019;" horiz-adv-x="180" 
d="M101 542q28 9 41.5 25.5t19.5 51.5h-46l19 96h96l-19 -96q-10 -52 -35 -83.5t-86 -43.5z" />
    <glyph glyph-name="quotesinglbase" unicode="&#x201a;" horiz-adv-x="195" 
d="M-14 -77q28 9 41.5 25.5t19.5 51.5h-46l19 96h96l-19 -96q-10 -52 -35 -83.5t-86 -43.5z" />
    <glyph glyph-name="quotedblleft" unicode="&#x201c;" horiz-adv-x="334" 
d="M107 588q11 52 35.5 83.5t85.5 43.5l-10 -50q-28 -9 -41.5 -25.5t-19.5 -51.5h46l-19 -96h-96zM365 665q-28 -9 -41.5 -25.5t-19.5 -51.5h46l-19 -96h-96l19 96q11 52 35.5 83.5t85.5 43.5z" />
    <glyph glyph-name="quotedblright" unicode="&#x201d;" horiz-adv-x="327" 
d="M101 542q28 9 41.5 25.5t19.5 51.5h-46l19 96h96l-19 -96q-10 -52 -35 -83.5t-86 -43.5zM248 542q28 9 41.5 25.5t19.5 51.5h-46l19 96h96l-19 -96q-10 -52 -35 -83.5t-86 -43.5z" />
    <glyph glyph-name="quotedblbase" unicode="&#x201e;" horiz-adv-x="343" 
d="M134 -77q28 9 41.5 25.5t19.5 51.5h-46l19 96h96l-19 -96q-10 -52 -35 -83.5t-86 -43.5zM-14 -77q28 9 41.5 25.5t19.5 51.5h-46l19 96h96l-19 -96q-10 -52 -35 -83.5t-86 -43.5z" />
    <glyph glyph-name="dagger" unicode="&#x2020;" horiz-adv-x="468" 
d="M195 -177h-90l118 609h-176l16 80h176l39 203h90l-39 -203h175l-16 -80h-175z" />
    <glyph glyph-name="daggerdbl" unicode="&#x2021;" horiz-adv-x="502" 
d="M212 -177h-90l56 289h-176l16 80h176l46 240h-176l16 80h176l39 203h90l-39 -203h175l-16 -80h-175l-46 -240h175l-16 -80h-175z" />
    <glyph glyph-name="bullet" unicode="&#x2022;" horiz-adv-x="377" 
d="M285 190h-220l43 220h220z" />
    <glyph glyph-name="ellipsis" unicode="&#x2026;" horiz-adv-x="581" 
d="M94 0h-96l19 96h96zM290 0h-96l19 96h96zM486 0h-96l19 96h96z" />
    <glyph glyph-name="perthousand" unicode="&#x2030;" horiz-adv-x="1174" 
d="M99 350q-34 41 -34 107q0 65 25.5 122t71.5 91.5t105 34.5q66 0 100 -41t34 -107q0 -65 -25.5 -122t-71.5 -91.5t-105 -34.5q-66 0 -100 41zM202 0h-80l519 691h80zM270.5 403.5q28.5 26.5 44 68t15.5 84.5q0 38 -16.5 59.5t-50.5 21.5q-39 0 -67.5 -26.5t-44 -68
t-15.5 -84.5q0 -38 16.5 -59.5t50.5 -21.5q39 0 67.5 26.5zM481 27q-34 41 -34 107q0 65 25.5 122t71.5 91.5t105 34.5q66 0 100 -41t34 -107q0 -65 -25.5 -122t-71.5 -91.5t-105 -34.5q-66 0 -100 41zM843 27q-34 41 -34 107q0 65 25.5 122t71.5 91.5t105 34.5
q66 0 100 -41t34 -107q0 -65 -25.5 -122t-71.5 -91.5t-105 -34.5q-66 0 -100 41zM652.5 80.5q28.5 26.5 44 68t15.5 84.5q0 38 -16.5 59.5t-50.5 21.5q-39 0 -67.5 -26.5t-44 -68t-15.5 -84.5q0 -38 16.5 -59.5t50.5 -21.5q39 0 67.5 26.5zM1014.5 80.5q28.5 26.5 44 68
t15.5 84.5q0 38 -16.5 59.5t-50.5 21.5q-39 0 -67.5 -26.5t-44 -68t-15.5 -84.5q0 -38 16.5 -59.5t50.5 -21.5q39 0 67.5 26.5z" />
    <glyph glyph-name="guilsinglleft" unicode="&#x2039;" horiz-adv-x="297" 
d="M221 129l-17 -84l-168 162l18 95l231 161l-18 -97l-174 -118v-2z" />
    <glyph glyph-name="guilsinglright" unicode="&#x203a;" horiz-adv-x="297" 
d="M242 206l-231 -161l18 97l174 118v2l-128 117l17 84l168 -162z" />
    <glyph glyph-name="fraction" unicode="&#x2044;" horiz-adv-x="200" 
d="M-132 0h-92l592 715h92z" />
    <glyph glyph-name="uni2070" unicode="&#x2070;" horiz-adv-x="399" 
d="M118.5 402.5q-34.5 41.5 -34.5 113.5q0 70 28.5 132t79 99t112.5 37q67 0 100.5 -42t33.5 -113q0 -70 -27.5 -132t-77 -99t-112.5 -37q-68 0 -102.5 41.5zM298 453.5q29 30.5 44.5 78t15.5 96.5q0 94 -64 94q-39 0 -68.5 -30.5t-45.5 -78t-16 -96.5q0 -94 65 -94
q40 0 69 30.5z" />
    <glyph glyph-name="uni2074" unicode="&#x2074;" horiz-adv-x="369" 
d="M311 364h-79l17 90h-189l15 75l235 241h79l-48 -251h58l-13 -65h-58zM293 678l-155 -159h124z" />
    <glyph glyph-name="uni2075" unicode="&#x2075;" horiz-adv-x="365" 
d="M102.5 387.5q-36.5 32.5 -36.5 81.5q0 11 1 17h80q-3 -31 12.5 -48.5t52.5 -17.5q43 0 69 27t26 68q0 32 -16 48.5t-46 16.5q-22 0 -43 -8.5t-38 -24.5h-76l87 223h242l-12 -65h-184l-39 -98l-1 -1q41 33 96 33q52 0 81.5 -31t29.5 -85q0 -48 -23 -86.5t-64.5 -60
t-94.5 -21.5q-67 0 -103.5 32.5z" />
    <glyph glyph-name="uni2076" unicode="&#x2076;" horiz-adv-x="376" 
d="M119 398.5q-35 40.5 -35 113.5q0 71 26.5 133.5t75.5 100t113 37.5q56 0 88.5 -32t30.5 -80h-81q1 23 -11.5 36t-38.5 13q-41 0 -71.5 -36t-40.5 -85l-1 -5l4 -1q20 22 47.5 34t60.5 12q53 0 83 -30t30 -81q0 -45 -22.5 -84t-63.5 -62.5t-93 -23.5q-66 0 -101 40.5z
M291.5 447.5q27.5 27.5 27.5 67.5q0 30 -17.5 45.5t-49.5 15.5q-41 0 -67 -24t-26 -65q0 -31 17 -49t47 -18q41 0 68.5 27.5z" />
    <glyph glyph-name="uni2077" unicode="&#x2077;" horiz-adv-x="315" 
d="M91 364q12 63 46 130t77.5 122.5t86.5 87.5v1h-206l13 65h291l-12 -59q-78 -56 -135.5 -151.5t-77.5 -195.5h-83z" />
    <glyph glyph-name="uni2078" unicode="&#x2078;" horiz-adv-x="376" 
d="M107.5 387.5q-38.5 27.5 -38.5 78.5q0 50 31.5 78.5t67.5 41.5v1q-43 25 -43 68q0 36 22 66t60 47t84 17q55 0 89 -24t34 -66q0 -44 -25.5 -70t-51.5 -38v-1q60 -28 60 -81q0 -41 -24.5 -74.5t-67.5 -52t-97 -18.5q-62 0 -100.5 27.5zM315 631.5q22 19.5 22 50.5
q0 21 -15 32.5t-42 11.5q-36 0 -58.5 -19.5t-22.5 -50.5q0 -21 15 -32.5t43 -11.5q36 0 58 19.5zM289.5 445.5q27.5 23.5 27.5 58.5q0 24 -18.5 38.5t-51.5 14.5q-43 0 -70.5 -23t-27.5 -59q0 -24 19 -38.5t52 -14.5q42 0 69.5 23.5z" />
    <glyph glyph-name="uni2079" unicode="&#x2079;" horiz-adv-x="377" 
d="M113.5 392q-32.5 31 -31.5 81h81q-1 -23 11 -36t37 -13q41 0 71.5 36t40.5 85l1 5l-2 1q-20 -22 -47.5 -34t-60.5 -12q-53 0 -83 31.5t-30 87.5q0 42 22.5 79.5t63.5 60t93 22.5q67 0 101.5 -40.5t34.5 -117.5q0 -68 -26.5 -129.5t-75 -99.5t-111.5 -38q-57 0 -89.5 31z
M312.5 595.5q28.5 27.5 28.5 66.5q0 29 -17 45.5t-47 16.5q-41 0 -68.5 -27.5t-27.5 -67.5q0 -30 16 -45.5t45 -15.5q42 0 70.5 27.5z" />
    <glyph glyph-name="uni2080" unicode="&#x2080;" horiz-adv-x="399" 
d="M27.5 -66.5q-34.5 41.5 -34.5 113.5q0 70 28.5 132t79 99t112.5 37q67 0 100.5 -42t33.5 -113q0 -70 -27.5 -132t-77 -99t-112.5 -37q-68 0 -102.5 41.5zM207 -15.5q29 30.5 44.5 78t15.5 96.5q0 94 -64 94q-39 0 -68.5 -30.5t-45.5 -78t-16 -96.5q0 -94 65 -94
q40 0 69 30.5z" />
    <glyph glyph-name="uni2081" unicode="&#x2081;" horiz-adv-x="223" 
d="M84 188q-24 -16 -89 -16l12 63q49 1 77.5 18t36.5 53h64l-79 -406h-78z" />
    <glyph glyph-name="uni2082" unicode="&#x2082;" horiz-adv-x="350" 
d="M-48 -100q9 45 32 77t51.5 52t73.5 46l20 12q53 31 77.5 56.5t24.5 59.5q0 48 -51 48q-75 0 -91 -90h-77q13 70 60 112.5t120 42.5q56 0 88.5 -26t32.5 -75q0 -56 -37.5 -94.5t-92.5 -71.5q-51 -31 -75 -48t-37 -35v-1h193l-13 -65h-299z" />
    <glyph glyph-name="uni2083" unicode="&#x2083;" horiz-adv-x="368" 
d="M14.5 -78q-38.5 31 -38.5 86q0 15 3 33h78q-3 -15 -3 -27q0 -29 16.5 -43.5t52.5 -14.5q44 0 68 20t24 54q0 28 -17 39.5t-50 11.5h-31l11 59h29q37 0 58 17.5t21 45.5q0 48 -55 48q-37 0 -58.5 -18.5t-26.5 -49.5h-77q10 57 58 95t118 38q57 0 89.5 -26.5t32.5 -72.5
q0 -37 -20.5 -62.5t-58.5 -39.5v-1q58 -20 58 -82q0 -40 -22 -72t-61.5 -50.5t-90.5 -18.5q-69 0 -107.5 31z" />
    <glyph glyph-name="uni2084" unicode="&#x2084;" horiz-adv-x="369" 
d="M221 -100h-79l17 90h-189l15 75l235 241h79l-48 -251h58l-13 -65h-58zM203 214l-155 -159h124z" />
    <glyph glyph-name="uni2085" unicode="&#x2085;" horiz-adv-x="365" 
d="M12.5 -76.5q-36.5 32.5 -36.5 81.5q0 11 1 17h80q-3 -31 12.5 -48.5t52.5 -17.5q43 0 69 27t26 68q0 32 -16 48.5t-46 16.5q-22 0 -43 -8.5t-38 -24.5h-76l87 223h242l-12 -65h-184l-39 -98l-1 -1q41 33 96 33q52 0 81.5 -31t29.5 -85q0 -48 -23 -86.5t-64.5 -60
t-94.5 -21.5q-67 0 -103.5 32.5z" />
    <glyph glyph-name="uni2086" unicode="&#x2086;" horiz-adv-x="376" 
d="M29 -68.5q-35 40.5 -35 113.5q0 71 26.5 133.5t75.5 100t113 37.5q56 0 88.5 -32t30.5 -80h-81q1 23 -11.5 36t-38.5 13q-41 0 -71.5 -36t-40.5 -85l-1 -5l4 -1q20 22 47.5 34t60.5 12q53 0 83 -30t30 -81q0 -45 -22.5 -84t-63.5 -62.5t-93 -23.5q-66 0 -101 40.5z
M201.5 -19.5q27.5 27.5 27.5 67.5q0 30 -17.5 45.5t-49.5 15.5q-41 0 -67 -24t-26 -65q0 -31 17 -49t47 -18q41 0 68.5 27.5z" />
    <glyph glyph-name="uni2087" unicode="&#x2087;" horiz-adv-x="315" 
d="M1 -100q12 63 46 130t77.5 122.5t86.5 87.5v1h-206l13 65h291l-12 -59q-78 -56 -135.5 -151.5t-77.5 -195.5h-83z" />
    <glyph glyph-name="uni2088" unicode="&#x2088;" horiz-adv-x="376" 
d="M16.5 -81.5q-38.5 27.5 -38.5 78.5q0 50 31.5 78.5t67.5 41.5v1q-43 25 -43 68q0 36 22 66t60 47t84 17q55 0 89 -24t34 -66q0 -44 -25.5 -70t-51.5 -38v-1q60 -28 60 -81q0 -41 -24.5 -74.5t-67.5 -52t-97 -18.5q-62 0 -100.5 27.5zM224 162.5q22 19.5 22 50.5
q0 21 -15 32.5t-42 11.5q-36 0 -58.5 -19.5t-22.5 -50.5q0 -21 15 -32.5t43 -11.5q36 0 58 19.5zM198.5 -23.5q27.5 23.5 27.5 58.5q0 24 -18.5 38.5t-51.5 14.5q-43 0 -70.5 -23t-27.5 -59q0 -24 19 -38.5t52 -14.5q42 0 69.5 23.5z" />
    <glyph glyph-name="uni2089" unicode="&#x2089;" horiz-adv-x="377" 
d="M22.5 -78q-32.5 31 -31.5 81h81q-1 -23 11 -36t37 -13q41 0 71.5 36t40.5 85l1 5l-2 1q-20 -22 -47.5 -34t-60.5 -12q-53 0 -83 31.5t-30 87.5q0 42 22.5 79.5t63.5 60t93 22.5q67 0 101.5 -40.5t34.5 -117.5q0 -68 -26.5 -129.5t-75 -99.5t-111.5 -38q-57 0 -89.5 31z
M221.5 125.5q28.5 27.5 28.5 66.5q0 29 -17 45.5t-47 16.5q-41 0 -68.5 -27.5t-27.5 -67.5q0 -30 16 -45.5t45 -15.5q42 0 70.5 27.5z" />
    <glyph glyph-name="Euro" unicode="&#x20ac;" horiz-adv-x="656" 
d="M324 567q-56 -52 -89 -137h200l-11 -60h-207q-5 -21 -11 -61h207l-12 -60h-198q0 -183 133 -183q70 0 117 47.5t70 134.5h91q-36 -122 -111 -192t-182 -70q-101 0 -154.5 67t-54.5 196h-63l12 60h54q3 34 10 61h-53l11 60h58q41 119 126 194t188 75q93 0 146 -56.5
t53 -155.5q0 -19 -1 -28h-88q0 66 -23.5 113t-93.5 47q-68 0 -124 -52z" />
    <glyph glyph-name="trademark" unicode="&#x2122;" horiz-adv-x="651" 
d="M201 435h-62l44 226h-88l10 54h238l-10 -54h-88zM383 435h-59l54 280h89l21 -201h2l100 201h88l-54 -280h-59l40 207h-2l-102 -207h-55l-21 207h-2z" />
    <glyph glyph-name="uni2126" unicode="&#x2126;" horiz-adv-x="794" 
d="M-13 0l16 80h164q-46 35 -72.5 89.5t-26.5 127.5q0 112 55.5 211.5t151.5 160t210 60.5q87 0 151 -35.5t98 -99.5t34 -147q0 -106 -52.5 -208t-138.5 -159h144l-16 -80h-289l14 67q115 54 180.5 148t65.5 214q0 106 -52 162t-148 56q-93 0 -165.5 -50.5t-111.5 -133
t-39 -174.5q0 -84 32.5 -133t95.5 -89l-12 -67h-289z" />
    <glyph glyph-name="oneeighth" unicode="&#x215b;" horiz-adv-x="788" 
d="M172 597q-24 -16 -89 -16l12 63q49 1 77.5 18t36.5 53h64l-79 -406h-78zM106 0h-92l592 715h92zM449.5 18.5q-38.5 27.5 -38.5 78.5q0 50 31.5 78.5t67.5 41.5v1q-43 25 -43 68q0 36 22 66t60 47t84 17q55 0 89 -24t34 -66q0 -44 -25.5 -70t-51.5 -38v-1q60 -28 60 -81
q0 -41 -24.5 -74.5t-67.5 -52t-97 -18.5q-62 0 -100.5 27.5zM657 262.5q22 19.5 22 50.5q0 21 -15 32.5t-42 11.5q-36 0 -58.5 -19.5t-22.5 -50.5q0 -21 15 -32.5t43 -11.5q36 0 58 19.5zM631.5 76.5q27.5 23.5 27.5 58.5q0 24 -18.5 38.5t-51.5 14.5q-43 0 -70.5 -23
t-27.5 -59q0 -24 19 -38.5t52 -14.5q42 0 69.5 23.5z" />
    <glyph glyph-name="threeeighths" unicode="&#x215c;" horiz-adv-x="909" 
d="M100.5 332q-38.5 31 -38.5 86q0 15 3 33h78q-3 -15 -3 -27q0 -29 16.5 -43.5t52.5 -14.5q44 0 68 20t24 54q0 28 -17 39.5t-50 11.5h-31l11 59h29q37 0 58 17.5t21 45.5q0 48 -55 48q-37 0 -58.5 -18.5t-26.5 -49.5h-77q10 57 58 95t118 38q57 0 89.5 -26.5t32.5 -72.5
q0 -37 -20.5 -62.5t-58.5 -39.5v-1q58 -20 58 -82q0 -40 -22 -72t-61.5 -50.5t-90.5 -18.5q-69 0 -107.5 31zM244 0h-92l592 715h92zM567.5 18.5q-38.5 27.5 -38.5 78.5q0 50 31.5 78.5t67.5 41.5v1q-43 25 -43 68q0 36 22 66t60 47t84 17q55 0 89 -24t34 -66
q0 -44 -25.5 -70t-51.5 -38v-1q60 -28 60 -81q0 -41 -24.5 -74.5t-67.5 -52t-97 -18.5q-62 0 -100.5 27.5zM775 262.5q22 19.5 22 50.5q0 21 -15 32.5t-42 11.5q-36 0 -58.5 -19.5t-22.5 -50.5q0 -21 15 -32.5t43 -11.5q36 0 58 19.5zM749.5 76.5q27.5 23.5 27.5 58.5
q0 24 -18.5 38.5t-51.5 14.5q-43 0 -70.5 -23t-27.5 -59q0 -24 19 -38.5t52 -14.5q42 0 69.5 23.5z" />
    <glyph glyph-name="fiveeighths" unicode="&#x215d;" horiz-adv-x="887" 
d="M90.5 332.5q-36.5 32.5 -36.5 81.5q0 11 1 17h80q-3 -31 12.5 -48.5t52.5 -17.5q43 0 69 27t26 68q0 32 -16 48.5t-46 16.5q-22 0 -43 -8.5t-38 -24.5h-76l87 223h242l-12 -65h-184l-39 -98l-1 -1q41 33 96 33q52 0 81.5 -31t29.5 -85q0 -48 -23 -86.5t-64.5 -60
t-94.5 -21.5q-67 0 -103.5 32.5zM224 0h-92l592 715h92zM547.5 18.5q-38.5 27.5 -38.5 78.5q0 50 31.5 78.5t67.5 41.5v1q-43 25 -43 68q0 36 22 66t60 47t84 17q55 0 89 -24t34 -66q0 -44 -25.5 -70t-51.5 -38v-1q60 -28 60 -81q0 -41 -24.5 -74.5t-67.5 -52t-97 -18.5
q-62 0 -100.5 27.5zM755 262.5q22 19.5 22 50.5q0 21 -15 32.5t-42 11.5q-36 0 -58.5 -19.5t-22.5 -50.5q0 -21 15 -32.5t43 -11.5q36 0 58 19.5zM729.5 76.5q27.5 23.5 27.5 58.5q0 24 -18.5 38.5t-51.5 14.5q-43 0 -70.5 -23t-27.5 -59q0 -24 19 -38.5t52 -14.5
q42 0 69.5 23.5z" />
    <glyph glyph-name="seveneighths" unicode="&#x215e;" horiz-adv-x="805" 
d="M87 309q12 63 46 130t77.5 122.5t86.5 87.5v1h-206l13 65h291l-12 -59q-78 -56 -135.5 -151.5t-77.5 -195.5h-83zM123 0h-92l592 715h92zM466.5 18.5q-38.5 27.5 -38.5 78.5q0 50 31.5 78.5t67.5 41.5v1q-43 25 -43 68q0 36 22 66t60 47t84 17q55 0 89 -24t34 -66
q0 -44 -25.5 -70t-51.5 -38v-1q60 -28 60 -81q0 -41 -24.5 -74.5t-67.5 -52t-97 -18.5q-62 0 -100.5 27.5zM674 262.5q22 19.5 22 50.5q0 21 -15 32.5t-42 11.5q-36 0 -58.5 -19.5t-22.5 -50.5q0 -21 15 -32.5t43 -11.5q36 0 58 19.5zM648.5 76.5q27.5 23.5 27.5 58.5
q0 24 -18.5 38.5t-51.5 14.5q-43 0 -70.5 -23t-27.5 -59q0 -24 19 -38.5t52 -14.5q42 0 69.5 23.5z" />
    <glyph glyph-name="arrowleft" unicode="&#x2190;" horiz-adv-x="783" 
d="M316 98l-63 -49l-198 270l302 270l45 -49l-211 -186h562l-14 -70h-562z" />
    <glyph glyph-name="arrowup" unicode="&#x2191;" horiz-adv-x="582" 
d="M275 0h-70l110 562l-220 -175l-39 54l319 250l221 -250l-59 -54l-152 175z" />
    <glyph glyph-name="arrowright" unicode="&#x2192;" horiz-adv-x="782" 
d="M751 319l-303 -270l-44 49l211 186h-561l14 70h561l-139 186l63 49z" />
    <glyph glyph-name="arrowdown" unicode="&#x2193;" horiz-adv-x="588" 
d="M556 210l-319 -250l-221 250l59 54l152 -175l110 562h70l-110 -562l220 175z" />
    <glyph glyph-name="arrowboth" unicode="&#x2194;" horiz-adv-x="1162" 
d="M314 98l-63 -49l-198 270l302 270l45 -49l-211 -186h822l-139 186l63 49l198 -270l-302 -270l-45 49l211 186h-822z" />
    <glyph glyph-name="arrowupdn" unicode="&#x2195;" horiz-adv-x="590" 
d="M529 73l-319 -250l-221 250l59 54l152 -175l138 705l-220 -175l-39 54l319 250l221 -250l-59 -54l-152 175l-138 -705l220 175z" />
    <glyph glyph-name="uni2196" unicode="&#x2196;" horiz-adv-x="593" 
d="M541 120l-59 -50l-320 398l-49 -251h-70l72 370h370l-13 -70h-251z" />
    <glyph glyph-name="uni2197" unicode="&#x2197;" horiz-adv-x="593" 
d="M513 468l-475 -398l-39 50l474 397h-251l14 70h370l-72 -370h-70z" />
    <glyph glyph-name="uni2198" unicode="&#x2198;" horiz-adv-x="607" 
d="M506 57h-370l13 70h251l-320 397l59 50l320 -398l49 251h70z" />
    <glyph glyph-name="uni2199" unicode="&#x2199;" horiz-adv-x="606" 
d="M392 57h-370l72 370h70l-49 -251l475 398l40 -50l-475 -397h251z" />
    <glyph glyph-name="partialdiff" unicode="&#x2202;" horiz-adv-x="530" 
d="M64.5 34q-50.5 48 -50.5 137q0 80 39.5 149t105 110t141.5 41q104 0 135 -83q-1 117 -53.5 175.5t-157.5 81.5l13 70q137 -26 205 -103t68 -211q0 -109 -41 -204.5t-112.5 -153t-159.5 -57.5q-82 0 -132.5 48zM306 88q48 32 76.5 84.5t28.5 109.5q0 55 -28.5 87t-83.5 32
q-54 0 -101 -31t-75 -82.5t-28 -110.5q0 -61 29.5 -91t79.5 -30q54 0 102 32z" />
    <glyph glyph-name="emptyset" unicode="&#x2205;" horiz-adv-x="843" 
d="M841 652l-77 -65q51 -71 51 -173q0 -112 -61 -211t-163.5 -158t-220.5 -59q-69 0 -127 21.5t-99 61.5l-78 -65l-28 35l77 64q-52 74 -52 175q0 112 61.5 210.5t164 157.5t220.5 59q69 0 126.5 -21.5t98.5 -61.5l79 66zM156 138l537 450q-70 67 -190 67
q-104 0 -193.5 -51.5t-142.5 -137t-53 -183.5q0 -84 42 -145zM723 553l-538 -450q70 -67 190 -67q105 0 194.5 51.5t142 137t52.5 182.5q0 85 -41 146z" />
    <glyph glyph-name="uni2206" unicode="&#x2206;" horiz-adv-x="632" 
d="M349 715h107l121 -637l-15 -78h-593l15 78zM391 632h-8l-305 -552h404z" />
    <glyph glyph-name="product" unicode="&#x220f;" horiz-adv-x="711" 
d="M96 -100h-90l158 815h561l-158 -815h-90l143 735h-381z" />
    <glyph glyph-name="summation" unicode="&#x2211;" horiz-adv-x="599" 
d="M501 -100h-538l16 83l342 332v2l-216 316l16 82h528l-15 -80h-423l-1 -2l192 -289l-9 -50l-316 -312v-2h440z" />
    <glyph glyph-name="minus" unicode="&#x2212;" horiz-adv-x="555" 
d="M510 286h-454l15 79h454z" />
    <glyph glyph-name="uni2219" unicode="&#x2219;" horiz-adv-x="294" 
d="M202 298h-96l19 96h96z" />
    <glyph glyph-name="radical" unicode="&#x221a;" horiz-adv-x="623" 
d="M248 -100h-80l-54 334h-74l16 80h130l43 -302h2l367 703h90z" />
    <glyph glyph-name="infinity" unicode="&#x221e;" horiz-adv-x="737" 
d="M82 165.5q-32 34.5 -32 104.5q0 54 24.5 102t67 77t93.5 29q40 0 70.5 -18t47 -38t37.5 -52h2q52 49 96.5 78.5t100.5 29.5q52 0 84 -34.5t32 -104.5q0 -55 -25 -103t-67 -76.5t-92 -28.5t-81 27.5t-49 55t-23 35.5h-2q-6 -6 -41.5 -40.5t-78 -56t-82.5 -21.5
q-50 0 -82 34.5zM258 233q30 21 51.5 43.5t27.5 28.5q-3 5 -19 32.5t-38.5 44.5t-48.5 17q-42 0 -70.5 -35t-28.5 -84q0 -35 16.5 -51.5t44.5 -16.5q35 0 65 21zM595 246.5q28 34.5 28 82.5q0 35 -16.5 52.5t-44.5 17.5q-35 0 -64.5 -21.5t-51.5 -44t-28 -28.5
q3 -4 19 -31.5t39 -44.5t50 -17q41 0 69 34.5z" />
    <glyph glyph-name="integral" unicode="&#x222b;" horiz-adv-x="368" 
d="M-66 -165l16 80q16 -4 34 -4q48 0 74 29t36 85l106 547q14 75 60.5 121t118.5 46q37 0 65 -10l-16 -80q-16 4 -34 4q-88 0 -110 -114l-106 -547q-16 -83 -59.5 -125t-119.5 -42q-37 0 -65 10z" />
    <glyph glyph-name="approxequal" unicode="&#x2248;" horiz-adv-x="587" 
d="M73 327q8 45 41.5 80t94.5 35q24 0 54 -5.5t58 -11.5q39 -9 63 -13.5t49 -4.5q31 0 45.5 10.5t19.5 34.5h70q-9 -46 -42.5 -80.5t-94.5 -34.5q-24 0 -53.5 5.5t-57.5 11.5q-38 9 -63 13.5t-50 4.5q-32 0 -45.5 -10t-18.5 -35h-70zM42 170q8 45 41.5 80t94.5 35
q22 0 49 -4.5t42.5 -8t21.5 -4.5q36 -9 61.5 -13.5t50.5 -4.5q30 0 45 10t19 35h70q-8 -45 -41.5 -80t-94.5 -35q-24 0 -53.5 5.5t-57.5 11.5q-38 9 -63 13.5t-50 4.5q-32 0 -46 -10.5t-19 -34.5h-70z" />
    <glyph glyph-name="notequal" unicode="&#x2260;" horiz-adv-x="556" 
d="M539 436l-14 -79h-174l-41 -62h200l-14 -79h-239l-74 -112h-70l74 112h-136l14 79h175l41 62h-201l14 79h239l75 113h70l-75 -113h136z" />
    <glyph glyph-name="lessequal" unicode="&#x2264;" horiz-adv-x="502" 
d="M438 182l-15 -75l-375 165l17 90l439 164l-15 -85l-367 -128l-1 -2zM402 0h-407l14 70h407z" />
    <glyph glyph-name="greaterequal" unicode="&#x2265;" horiz-adv-x="498" 
d="M460 271l-439 -164l15 85l367 128l1 2l-317 129l15 75l375 -165zM407 0h-407l14 70h407z" />
    <glyph glyph-name="uni2266" unicode="&#x2266;" horiz-adv-x="564" 
d="M518 345l-16 -84l-414 159l19 98l476 160l-17 -84l-393 -124v-2zM478 141h-445l16 79h445zM451 0h-445l15 79h445z" />
    <glyph glyph-name="uni2267" unicode="&#x2267;" horiz-adv-x="561" 
d="M539 420l-476 -159l16 84l393 123l1 2l-345 124l16 84l414 -160zM485 141h-445l15 79h445zM457 0h-445l16 79h445z" />
    <glyph glyph-name="uni2460" unicode="&#x2460;" horiz-adv-x="855" 
d="M217.5 22.5q-73.5 36.5 -114 106.5t-40.5 169q0 118 57 216.5t157.5 156.5t226.5 58q98 0 171.5 -36.5t114 -106.5t40.5 -169q0 -118 -57 -216.5t-157.5 -156.5t-226.5 -58q-98 0 -171.5 36.5zM581 105q81 49 125 131t44 180q0 118 -65.5 180.5t-184.5 62.5
q-107 0 -188 -49t-125 -131t-44 -180q0 -118 65.5 -180.5t184.5 -62.5q107 0 188 49zM431 443q-24 -16 -89 -16l12 63q49 1 77.5 18t36.5 53h64l-79 -406h-78z" />
    <glyph glyph-name="uni2461" unicode="&#x2461;" horiz-adv-x="855" 
d="M217.5 22.5q-73.5 36.5 -114 106.5t-40.5 169q0 118 57 216.5t157.5 156.5t226.5 58q98 0 171.5 -36.5t114 -106.5t40.5 -169q0 -118 -57 -216.5t-157.5 -156.5t-226.5 -58q-98 0 -171.5 36.5zM581 105q81 49 125 131t44 180q0 118 -65.5 180.5t-184.5 62.5
q-107 0 -188 -49t-125 -131t-44 -180q0 -118 65.5 -180.5t184.5 -62.5q107 0 188 49zM260 155q9 45 32 77t51.5 52t73.5 46l20 12q53 31 77.5 56.5t24.5 59.5q0 48 -51 48q-75 0 -91 -90h-77q13 70 60 112.5t120 42.5q56 0 88.5 -26t32.5 -75q0 -56 -37.5 -94.5t-92.5 -71.5
q-51 -31 -75 -48t-37 -35v-1h193l-13 -65h-299z" />
    <glyph glyph-name="uni2462" unicode="&#x2462;" horiz-adv-x="855" 
d="M217.5 22.5q-73.5 36.5 -114 106.5t-40.5 169q0 118 57 216.5t157.5 156.5t226.5 58q98 0 171.5 -36.5t114 -106.5t40.5 -169q0 -118 -57 -216.5t-157.5 -156.5t-226.5 -58q-98 0 -171.5 36.5zM581 105q81 49 125 131t44 180q0 118 -65.5 180.5t-184.5 62.5
q-107 0 -188 -49t-125 -131t-44 -180q0 -118 65.5 -180.5t184.5 -62.5q107 0 188 49zM314.5 176q-38.5 31 -38.5 86q0 15 3 33h78q-3 -15 -3 -27q0 -29 16.5 -43.5t52.5 -14.5q44 0 68 20t24 54q0 28 -17 39.5t-50 11.5h-31l11 59h29q37 0 58 17.5t21 45.5q0 48 -55 48
q-37 0 -58.5 -18.5t-26.5 -49.5h-77q10 57 58 95t118 38q57 0 89.5 -26.5t32.5 -72.5q0 -37 -20.5 -62.5t-58.5 -39.5v-1q58 -20 58 -82q0 -40 -22 -72t-61.5 -50.5t-90.5 -18.5q-69 0 -107.5 31z" />
    <glyph glyph-name="uni2463" unicode="&#x2463;" horiz-adv-x="855" 
d="M217.5 22.5q-73.5 36.5 -114 106.5t-40.5 169q0 118 57 216.5t157.5 156.5t226.5 58q98 0 171.5 -36.5t114 -106.5t40.5 -169q0 -118 -57 -216.5t-157.5 -156.5t-226.5 -58q-98 0 -171.5 36.5zM581 105q81 49 125 131t44 180q0 118 -65.5 180.5t-184.5 62.5
q-107 0 -188 -49t-125 -131t-44 -180q0 -118 65.5 -180.5t184.5 -62.5q107 0 188 49zM508 154h-79l17 90h-189l15 75l235 241h79l-48 -251h58l-13 -65h-58zM490 468l-155 -159h124z" />
    <glyph glyph-name="uni2464" unicode="&#x2464;" horiz-adv-x="855" 
d="M217.5 22.5q-73.5 36.5 -114 106.5t-40.5 169q0 118 57 216.5t157.5 156.5t226.5 58q98 0 171.5 -36.5t114 -106.5t40.5 -169q0 -118 -57 -216.5t-157.5 -156.5t-226.5 -58q-98 0 -171.5 36.5zM581 105q81 49 125 131t44 180q0 118 -65.5 180.5t-184.5 62.5
q-107 0 -188 -49t-125 -131t-44 -180q0 -118 65.5 -180.5t184.5 -62.5q107 0 188 49zM307.5 177.5q-36.5 32.5 -36.5 81.5q0 11 1 17h80q-3 -31 12.5 -48.5t52.5 -17.5q43 0 69 27t26 68q0 32 -16 48.5t-46 16.5q-22 0 -43 -8.5t-38 -24.5h-76l87 223h242l-12 -65h-184
l-39 -98l-1 -1q41 33 96 33q52 0 81.5 -31t29.5 -85q0 -48 -23 -86.5t-64.5 -60t-94.5 -21.5q-67 0 -103.5 32.5z" />
    <glyph glyph-name="uni2465" unicode="&#x2465;" horiz-adv-x="855" 
d="M217.5 22.5q-73.5 36.5 -114 106.5t-40.5 169q0 118 57 216.5t157.5 156.5t226.5 58q98 0 171.5 -36.5t114 -106.5t40.5 -169q0 -118 -57 -216.5t-157.5 -156.5t-226.5 -58q-98 0 -171.5 36.5zM581 105q81 49 125 131t44 180q0 118 -65.5 180.5t-184.5 62.5
q-107 0 -188 -49t-125 -131t-44 -180q0 -118 65.5 -180.5t184.5 -62.5q107 0 188 49zM314 185.5q-35 40.5 -35 113.5q0 71 26.5 133.5t75.5 100t113 37.5q56 0 88.5 -32t30.5 -80h-81q1 23 -11.5 36t-38.5 13q-41 0 -71.5 -36t-40.5 -85l-1 -5l4 -1q20 22 47.5 34t60.5 12
q53 0 83 -30t30 -81q0 -45 -22.5 -84t-63.5 -62.5t-93 -23.5q-66 0 -101 40.5zM486.5 234.5q27.5 27.5 27.5 67.5q0 30 -17.5 45.5t-49.5 15.5q-41 0 -67 -24t-26 -65q0 -31 17 -49t47 -18q41 0 68.5 27.5z" />
    <glyph glyph-name="uni2466" unicode="&#x2466;" horiz-adv-x="855" 
d="M217.5 22.5q-73.5 36.5 -114 106.5t-40.5 169q0 118 57 216.5t157.5 156.5t226.5 58q98 0 171.5 -36.5t114 -106.5t40.5 -169q0 -118 -57 -216.5t-157.5 -156.5t-226.5 -58q-98 0 -171.5 36.5zM581 105q81 49 125 131t44 180q0 118 -65.5 180.5t-184.5 62.5
q-107 0 -188 -49t-125 -131t-44 -180q0 -118 65.5 -180.5t184.5 -62.5q107 0 188 49zM315 143q12 63 46 130t77.5 122.5t86.5 87.5v1h-206l13 65h291l-12 -59q-78 -56 -135.5 -151.5t-77.5 -195.5h-83z" />
    <glyph glyph-name="uni2467" unicode="&#x2467;" horiz-adv-x="855" 
d="M217.5 22.5q-73.5 36.5 -114 106.5t-40.5 169q0 118 57 216.5t157.5 156.5t226.5 58q98 0 171.5 -36.5t114 -106.5t40.5 -169q0 -118 -57 -216.5t-157.5 -156.5t-226.5 -58q-98 0 -171.5 36.5zM581 105q81 49 125 131t44 180q0 118 -65.5 180.5t-184.5 62.5
q-107 0 -188 -49t-125 -131t-44 -180q0 -118 65.5 -180.5t184.5 -62.5q107 0 188 49zM300.5 172.5q-38.5 27.5 -38.5 78.5q0 50 31.5 78.5t67.5 41.5v1q-43 25 -43 68q0 36 22 66t60 47t84 17q55 0 89 -24t34 -66q0 -44 -25.5 -70t-51.5 -38v-1q60 -28 60 -81
q0 -41 -24.5 -74.5t-67.5 -52t-97 -18.5q-62 0 -100.5 27.5zM508 416.5q22 19.5 22 50.5q0 21 -15 32.5t-42 11.5q-36 0 -58.5 -19.5t-22.5 -50.5q0 -21 15 -32.5t43 -11.5q36 0 58 19.5zM482.5 230.5q27.5 23.5 27.5 58.5q0 24 -18.5 38.5t-51.5 14.5q-43 0 -70.5 -23
t-27.5 -59q0 -24 19 -38.5t52 -14.5q42 0 69.5 23.5z" />
    <glyph glyph-name="uni2468" unicode="&#x2468;" horiz-adv-x="855" 
d="M217.5 22.5q-73.5 36.5 -114 106.5t-40.5 169q0 118 57 216.5t157.5 156.5t226.5 58q98 0 171.5 -36.5t114 -106.5t40.5 -169q0 -118 -57 -216.5t-157.5 -156.5t-226.5 -58q-98 0 -171.5 36.5zM581 105q81 49 125 131t44 180q0 118 -65.5 180.5t-184.5 62.5
q-107 0 -188 -49t-125 -131t-44 -180q0 -118 65.5 -180.5t184.5 -62.5q107 0 188 49zM311.5 176q-32.5 31 -31.5 81h81q-1 -23 11 -36t37 -13q41 0 71.5 36t40.5 85l1 5l-2 1q-20 -22 -47.5 -34t-60.5 -12q-53 0 -83 31.5t-30 87.5q0 42 22.5 79.5t63.5 60t93 22.5
q67 0 101.5 -40.5t34.5 -117.5q0 -68 -26.5 -129.5t-75 -99.5t-111.5 -38q-57 0 -89.5 31zM510.5 379.5q28.5 27.5 28.5 66.5q0 29 -17 45.5t-47 16.5q-41 0 -68.5 -27.5t-27.5 -67.5q0 -30 16 -45.5t45 -15.5q42 0 70.5 27.5z" />
    <glyph glyph-name="uni24EA" unicode="&#x24ea;" horiz-adv-x="855" 
d="M217.5 22.5q-73.5 36.5 -114 106.5t-40.5 169q0 118 57 216.5t157.5 156.5t226.5 58q98 0 171.5 -36.5t114 -106.5t40.5 -169q0 -118 -57 -216.5t-157.5 -156.5t-226.5 -58q-98 0 -171.5 36.5zM581 105q81 49 125 131t44 180q0 118 -65.5 180.5t-184.5 62.5
q-107 0 -188 -49t-125 -131t-44 -180q0 -118 65.5 -180.5t184.5 -62.5q107 0 188 49zM304.5 187.5q-34.5 41.5 -34.5 113.5q0 70 28.5 132t79 99t112.5 37q67 0 100.5 -42t33.5 -113q0 -70 -27.5 -132t-77 -99t-112.5 -37q-68 0 -102.5 41.5zM484 238.5q29 30.5 44.5 78
t15.5 96.5q0 94 -64 94q-39 0 -68.5 -30.5t-45.5 -78t-16 -96.5q0 -94 65 -94q40 0 69 30.5z" />
    <glyph glyph-name="upblock" unicode="&#x2580;" horiz-adv-x="840" 
d="M796 357h-715l70 358h715z" />
    <glyph glyph-name="dnblock" unicode="&#x2584;" horiz-adv-x="842" 
d="M729 0h-715l70 358h715z" />
    <glyph glyph-name="block" unicode="&#x2588;" horiz-adv-x="865" 
d="M740 0h-715l139 715h715z" />
    <glyph glyph-name="filledbox" unicode="&#x25a0;" horiz-adv-x="865" 
d="M740 0h-715l139 715h715z" />
    <glyph glyph-name="uni25A1" unicode="&#x25a1;" horiz-adv-x="865" 
d="M740 0h-715l139 715h715zM228 635l-107 -555h555l107 555h-555z" />
    <glyph glyph-name="uni25AA" unicode="&#x25aa;" horiz-adv-x="336" 
d="M268 210h-220l43 220h220z" />
    <glyph glyph-name="uni25AB" unicode="&#x25ab;" horiz-adv-x="376" 
d="M304 190h-260l51 260h260zM159 370l-19 -100h100l19 100h-100z" />
    <glyph glyph-name="triagup" unicode="&#x25b2;" horiz-adv-x="831" 
d="M766 0h-800l539 715z" />
    <glyph glyph-name="triagrt" unicode="&#x25ba;" horiz-adv-x="838" 
d="M822 358l-792 -400l155 800z" />
    <glyph glyph-name="triagdn" unicode="&#x25bc;" horiz-adv-x="831" 
d="M904 715l-539 -715l-261 715h800z" />
    <glyph glyph-name="triaglf" unicode="&#x25c4;" horiz-adv-x="838" 
d="M848 757l-156 -800l-637 400z" />
    <glyph glyph-name="lozenge" unicode="&#x25ca;" horiz-adv-x="574" 
d="M282 0h-90l-132 358l271 357h90l132 -358zM150 360l103 -280h2l208 274l-102 281h-2z" />
    <glyph glyph-name="circle" unicode="&#x25cb;" horiz-adv-x="855" 
d="M217.5 22.5q-73.5 36.5 -114 106.5t-40.5 169q0 118 57 216.5t157.5 156.5t226.5 58q98 0 171.5 -36.5t114 -106.5t40.5 -169q0 -118 -57 -216.5t-157.5 -156.5t-226.5 -58q-98 0 -171.5 36.5zM581 105q81 49 125 131t44 180q0 118 -65.5 180.5t-184.5 62.5
q-107 0 -188 -49t-125 -131t-44 -180q0 -118 65.5 -180.5t184.5 -62.5q107 0 188 49z" />
    <glyph glyph-name="uni25CF" unicode="&#x25cf;" horiz-adv-x="841" 
d="M209 25q-70 39 -109 107.5t-39 153.5q0 112 64 214.5t168.5 165.5t218.5 63q89 0 158.5 -39.5t108.5 -108t39 -153.5q0 -112 -64 -214t-168 -165t-218 -63q-89 0 -159 39z" />
    <glyph glyph-name="uni2B0E" unicode="&#x2b0e;" horiz-adv-x="639" 
d="M346 135l215 171l39 -54l-319 -250l-221 250l59 54l147 -171l60 307h-269l13 70h350z" />
    <glyph glyph-name="uni2B0F" unicode="&#x2b0f;" horiz-adv-x="646" 
d="M69 260l318 250l222 -250l-60 -54l-148 171l-73 -377h-350l14 70h270l59 307l-214 -171z" />
    <glyph glyph-name="uni2B10" unicode="&#x2b10;" horiz-adv-x="647" 
d="M666 508l-14 -70h-270l-59 -307l214 171l38 -54l-318 -250l-222 250l60 54l148 -171l73 377h350z" />
    <glyph glyph-name="uni2B11" unicode="&#x2b11;" horiz-adv-x="639" 
d="M370 375l-60 -307h269l-13 -70h-350l74 377l-215 -171l-39 54l319 250l221 -250l-59 -54z" />
    <glyph glyph-name="uni2BA0" unicode="&#x2ba0;" horiz-adv-x="600" 
d="M536 563h70l-53 -270l-15 -80h-377l136 -181l-64 -49l-197 270l303 270l44 -49l-207 -181h307z" />
    <glyph glyph-name="uni2BA1" unicode="&#x2ba1;" horiz-adv-x="599" 
d="M300 477l63 49l198 -270l-303 -270l-44 49l206 181h-377l10 50l58 300h70l-52 -270h307z" />
    <glyph glyph-name="uni2BA2" unicode="&#x2ba2;" horiz-adv-x="600" 
d="M387 487l-206 -181h377l-10 -50l-58 -300h-70l52 270h-307l136 -181l-63 -49l-198 270l302 270z" />
    <glyph glyph-name="uni2BA3" unicode="&#x2ba3;" horiz-adv-x="600" 
d="M303 487l64 49l197 -270l-303 -270l-44 49l207 181h-307l-53 -270h-70l53 270l15 80h377z" />
    <glyph glyph-name="uni2BA4" unicode="&#x2ba4;" horiz-adv-x="639" 
d="M370 375l-60 -307h269l-13 -70h-350l74 377l-215 -171l-39 54l319 250l221 -250l-59 -54z" />
    <glyph glyph-name="uni2BA5" unicode="&#x2ba5;" horiz-adv-x="646" 
d="M69 260l318 250l222 -250l-60 -54l-148 171l-73 -377h-350l14 70h270l59 307l-214 -171z" />
    <glyph glyph-name="uni2BA6" unicode="&#x2ba6;" horiz-adv-x="647" 
d="M666 508l-14 -70h-270l-59 -307l214 171l38 -54l-318 -250l-222 250l60 54l148 -171l73 377h350z" />
    <glyph glyph-name="uni2BA7" unicode="&#x2ba7;" horiz-adv-x="639" 
d="M346 135l215 171l39 -54l-319 -250l-221 250l59 54l147 -171l60 307h-269l13 70h350z" />
    <glyph glyph-name="fi" unicode="&#xfb01;" horiz-adv-x="473" 
d="M257 637q-13 -14 -21 -54l-14 -73h97l-13 -70h-98l-85 -440h-80l86 440h-71l13 70h72l13 69q16 82 52.5 112t98.5 30q21 0 52 -5l-13 -68q-30 3 -41 3q-35 0 -48 -14zM365 0h-80l99 510h80zM491 609h-96l19 96h96z" />
    <glyph glyph-name="fl" unicode="&#xfb02;" horiz-adv-x="473" 
d="M257 637q-13 -14 -21 -54l-14 -73h97l-13 -70h-98l-85 -440h-80l86 440h-71l13 70h72l13 69q16 82 52.5 112t98.5 30q21 0 52 -5l-13 -68q-30 3 -41 3q-35 0 -48 -14zM365 0h-80l139 715h80z" />
    <glyph glyph-name="uniFEFF" unicode="&#xfeff;" 
 />
    <glyph glyph-name="u1F150" unicode="&#x1f150;" horiz-adv-x="558" 
d="M192.5 315q-41.5 22 -64.5 62t-23 91q0 68 37 129t98.5 97.5t130.5 36.5q52 0 93.5 -22t64.5 -62t23 -91q0 -68 -37 -129t-98.5 -97.5t-130.5 -36.5q-52 0 -93.5 22z" />
    <glyph glyph-name="Adieresis.ss02" horiz-adv-x="646" 
d="M53 0h-95l403 715h101l127 -715h-95l-28 179h-315zM396 632l-200 -373h256l-54 373h-2zM320.5 821.5q-10.5 10.5 -10.5 27.5q0 25 17.5 43t43.5 18q20 0 30.5 -11t10.5 -28q0 -23 -17.5 -41.5t-43.5 -18.5q-20 0 -30.5 10.5zM476.5 821.5q-10.5 10.5 -10.5 27.5
q0 25 17.5 43t43.5 18q20 0 30.5 -11t10.5 -28q0 -23 -17.5 -41.5t-43.5 -18.5q-20 0 -30.5 10.5z" />
    <glyph glyph-name="Cdotaccent.ss02" horiz-adv-x="707" 
d="M124 63.5q-73 77.5 -73 215.5q0 121 54.5 224.5t149 164.5t208.5 61q85 0 145 -35t88 -92.5t23 -122.5h-90q0 74 -43.5 122t-133.5 48q-89 0 -160 -48.5t-111 -132t-40 -186.5q0 -216 195 -216q104 0 166 56.5t84 135.5h92q-23 -79 -73 -141t-122 -96.5t-157 -34.5
q-129 0 -202 77.5zM450.5 821.5q-10.5 10.5 -10.5 27.5q0 25 17.5 43t43.5 18q20 0 30.5 -11t10.5 -28q0 -23 -17.5 -41.5t-43.5 -18.5q-20 0 -30.5 10.5z" />
    <glyph glyph-name="Edieresis.ss02" horiz-adv-x="613" 
d="M532 0h-507l139 715h495l-16 -80h-405l-43 -225h357l-16 -80h-357l-48 -250h417zM317.5 821.5q-10.5 10.5 -10.5 27.5q0 25 17.5 43t43.5 18q20 0 30.5 -11t10.5 -28q0 -23 -17.5 -41.5t-43.5 -18.5q-20 0 -30.5 10.5zM473.5 821.5q-10.5 10.5 -10.5 27.5q0 25 17.5 43
t43.5 18q20 0 30.5 -11t10.5 -28q0 -23 -17.5 -41.5t-43.5 -18.5q-20 0 -30.5 10.5z" />
    <glyph glyph-name="Edotaccent.ss02" horiz-adv-x="613" 
d="M532 0h-507l139 715h495l-16 -80h-405l-43 -225h357l-16 -80h-357l-48 -250h417zM395.5 821.5q-10.5 10.5 -10.5 27.5q0 25 17.5 43t43.5 18q20 0 30.5 -11t10.5 -28q0 -23 -17.5 -41.5t-43.5 -18.5q-20 0 -30.5 10.5z" />
    <glyph glyph-name="uni0122.ss02" horiz-adv-x="735" 
d="M116.5 60.5q-66.5 74.5 -66.5 207.5q0 122 54 228t149.5 169.5t216.5 63.5q83 0 140 -31t84 -83t25 -116h-92q0 74 -45 112t-129 38q-89 0 -160.5 -50.5t-111.5 -136t-40 -186.5q0 -96 42 -153t139 -57q66 0 125.5 28.5t101 80t54.5 117.5h-233l15 80h323l-72 -372h-60
l-10 101h-2q-54 -58 -113 -86.5t-138 -28.5q-130 0 -196.5 74.5zM243 -191q28 6 47.5 18.5t23.5 31.5q-14 -4 -22 -4q-17 0 -27 9t-10 27q0 29 18 46t45 17q23 0 34.5 -13.5t11.5 -36.5q0 -6 -2 -22q-8 -41 -38.5 -71t-88.5 -43z" />
    <glyph glyph-name="Gdotaccent.ss02" horiz-adv-x="735" 
d="M116.5 60.5q-66.5 74.5 -66.5 207.5q0 122 54 228t149.5 169.5t216.5 63.5q83 0 140 -31t84 -83t25 -116h-92q0 74 -45 112t-129 38q-89 0 -160.5 -50.5t-111.5 -136t-40 -186.5q0 -96 42 -153t139 -57q66 0 125.5 28.5t101 80t54.5 117.5h-233l15 80h323l-72 -372h-60
l-10 101h-2q-54 -58 -113 -86.5t-138 -28.5q-130 0 -196.5 74.5zM444.5 821.5q-10.5 10.5 -10.5 27.5q0 25 17.5 43t43.5 18q20 0 30.5 -11t10.5 -28q0 -23 -17.5 -41.5t-43.5 -18.5q-20 0 -30.5 10.5z" />
    <glyph glyph-name="Idieresis.ss02" horiz-adv-x="240" 
d="M115 0h-90l139 715h90zM118.5 821.5q-10.5 10.5 -10.5 27.5q0 25 17.5 43t43.5 18q20 0 30.5 -11t10.5 -28q0 -23 -17.5 -41.5t-43.5 -18.5q-20 0 -30.5 10.5zM274.5 821.5q-10.5 10.5 -10.5 27.5q0 25 17.5 43t43.5 18q20 0 30.5 -11t10.5 -28q0 -23 -17.5 -41.5
t-43.5 -18.5q-20 0 -30.5 10.5z" />
    <glyph glyph-name="Idotaccent.ss02" horiz-adv-x="240" 
d="M115 0h-90l139 715h90zM196.5 821.5q-10.5 10.5 -10.5 27.5q0 25 17.5 43t43.5 18q20 0 30.5 -11t10.5 -28q0 -23 -17.5 -41.5t-43.5 -18.5q-20 0 -30.5 10.5z" />
    <glyph glyph-name="uni0136.ss02" horiz-adv-x="639" 
d="M614 715h107l-338 -295l221 -420h-102l-186 361l-157 -137l-44 -224h-90l139 715h90l-74 -380zM218 -191q28 6 47.5 18.5t23.5 31.5q-14 -4 -22 -4q-17 0 -27 9t-10 27q0 29 18 46t45 17q23 0 34.5 -13.5t11.5 -36.5q0 -6 -2 -22q-8 -41 -38.5 -71t-88.5 -43z" />
    <glyph glyph-name="uni013B.ss02" horiz-adv-x="554" 
d="M490 0h-465l139 715h90l-123 -635h375zM171 -191q28 6 47.5 18.5t23.5 31.5q-14 -4 -22 -4q-17 0 -27 9t-10 27q0 29 18 46t45 17q23 0 34.5 -13.5t11.5 -36.5q0 -6 -2 -22q-8 -41 -38.5 -71t-88.5 -43z" />
    <glyph glyph-name="uni0145.ss02" horiz-adv-x="709" 
d="M115 0h-90l139 715h108l243 -587h4l114 587h90l-139 -715h-108l-243 587h-4zM218 -191q28 6 47.5 18.5t23.5 31.5q-14 -4 -22 -4q-17 0 -27 9t-10 27q0 29 18 46t45 17q23 0 34.5 -13.5t11.5 -36.5q0 -6 -2 -22q-8 -41 -38.5 -71t-88.5 -43z" />
    <glyph glyph-name="Odieresis.ss02" horiz-adv-x="776" 
d="M185 22.5q-66 36.5 -100.5 102t-34.5 151.5q0 120 56 224.5t153.5 166.5t215.5 62q89 0 155 -36.5t100.5 -102t34.5 -151.5q0 -120 -56 -224.5t-153.5 -166.5t-215.5 -62q-89 0 -155 36.5zM516.5 117.5q74.5 51.5 116 137t41.5 184.5q0 95 -50.5 152.5t-155.5 57.5
q-95 0 -169.5 -51.5t-116 -137t-41.5 -184.5q0 -95 50.5 -152.5t155.5 -57.5q95 0 169.5 51.5zM386.5 821.5q-10.5 10.5 -10.5 27.5q0 25 17.5 43t43.5 18q20 0 30.5 -11t10.5 -28q0 -23 -17.5 -41.5t-43.5 -18.5q-20 0 -30.5 10.5zM542.5 821.5q-10.5 10.5 -10.5 27.5
q0 25 17.5 43t43.5 18q20 0 30.5 -11t10.5 -28q0 -23 -17.5 -41.5t-43.5 -18.5q-20 0 -30.5 10.5z" />
    <glyph glyph-name="uni0156.ss02" horiz-adv-x="647" 
d="M25 0l139 715h277q105 0 159.5 -43t54.5 -123t-47.5 -141t-122.5 -77v-3q46 -10 64.5 -47t18.5 -93q0 -32 -9 -102q-1 -11 -3 -29t-2 -28q0 -20 8 -23l-1 -6h-97q-4 4 -4 16q0 16 7 56q12 62 12 101q0 53 -23 84.5t-80 31.5h-205l-56 -289h-90zM380 369q54 0 96 22
t64.5 60t22.5 86q0 51 -33.5 74.5t-112.5 23.5h-179l-51 -266h193zM196 -191q28 6 47.5 18.5t23.5 31.5q-14 -4 -22 -4q-17 0 -27 9t-10 27q0 29 18 46t45 17q23 0 34.5 -13.5t11.5 -36.5q0 -6 -2 -22q-8 -41 -38.5 -71t-88.5 -43z" />
    <glyph glyph-name="uni0218.ss02" horiz-adv-x="624" 
d="M148.5 16.5q-66.5 30.5 -100.5 87t-28 133.5h88q-1 -83 51 -127t147 -44q86 0 136 33t50 103q0 36 -17 57.5t-53.5 38.5t-113.5 43q-74 25 -117 48.5t-64.5 57t-21.5 82.5q0 96 75.5 148t191.5 52q114 0 178.5 -48.5t64.5 -146.5q0 -18 -1 -28h-88q4 73 -35 108t-127 35
q-74 0 -121.5 -25.5t-47.5 -84.5q0 -34 15 -54.5t47 -35.5t100 -38q86 -30 130.5 -52t70 -57.5t25.5 -93.5q0 -106 -76.5 -164t-202.5 -58q-89 0 -155.5 30.5zM209 -191q28 6 47.5 18.5t23.5 31.5q-14 -4 -22 -4q-17 0 -27 9t-10 27q0 29 18 46t45 17q23 0 34.5 -13.5
t11.5 -36.5q0 -6 -2 -22q-8 -41 -38.5 -71t-88.5 -43z" />
    <glyph glyph-name="uni021A.ss02" horiz-adv-x="594" 
d="M292 0h-90l123 635h-238l16 80h566l-16 -80h-238zM160 -191q28 6 47.5 18.5t23.5 31.5q-14 -4 -22 -4q-17 0 -27 9t-10 27q0 29 18 46t45 17q23 0 34.5 -13.5t11.5 -36.5q0 -6 -2 -22q-8 -41 -38.5 -71t-88.5 -43z" />
    <glyph glyph-name="Udieresis.ss02" horiz-adv-x="686" 
d="M118 37.5q-59 51.5 -59 140.5q0 29 6 60l93 477h90l-93 -477q-6 -30 -6 -54q0 -62 37.5 -90t113.5 -28q189 0 223 172l93 477h90l-93 -477q-22 -116 -101.5 -184t-221.5 -68q-113 0 -172 51.5zM331.5 821.5q-10.5 10.5 -10.5 27.5q0 25 17.5 43t43.5 18q20 0 30.5 -11
t10.5 -28q0 -23 -17.5 -41.5t-43.5 -18.5q-20 0 -30.5 10.5zM487.5 821.5q-10.5 10.5 -10.5 27.5q0 25 17.5 43t43.5 18q20 0 30.5 -11t10.5 -28q0 -23 -17.5 -41.5t-43.5 -18.5q-20 0 -30.5 10.5z" />
    <glyph glyph-name="Wdieresis.ss02" horiz-adv-x="917" 
d="M249 0h-100l-48 715h95l29 -586h2l261 586h104l48 -586h2l250 586h95l-316 -715h-100l-46 613h-2zM453.5 821.5q-10.5 10.5 -10.5 27.5q0 25 17.5 43t43.5 18q20 0 30.5 -11t10.5 -28q0 -23 -17.5 -41.5t-43.5 -18.5q-20 0 -30.5 10.5zM609.5 821.5
q-10.5 10.5 -10.5 27.5q0 25 17.5 43t43.5 18q20 0 30.5 -11t10.5 -28q0 -23 -17.5 -41.5t-43.5 -18.5q-20 0 -30.5 10.5z" />
    <glyph glyph-name="Ydieresis.ss02" horiz-adv-x="630" 
d="M310 0h-90l57 293l-178 422h95l138 -353h2l277 353h99l-343 -422zM304.5 821.5q-10.5 10.5 -10.5 27.5q0 25 17.5 43t43.5 18q20 0 30.5 -11t10.5 -28q0 -23 -17.5 -41.5t-43.5 -18.5q-20 0 -30.5 10.5zM460.5 821.5q-10.5 10.5 -10.5 27.5q0 25 17.5 43t43.5 18
q20 0 30.5 -11t10.5 -28q0 -23 -17.5 -41.5t-43.5 -18.5q-20 0 -30.5 10.5z" />
    <glyph glyph-name="Zdotaccent.ss02" horiz-adv-x="601" 
d="M527 0h-556l16 80l543 553v2h-416l16 80h526l-16 -80l-543 -553v-2h446zM365.5 821.5q-10.5 10.5 -10.5 27.5q0 25 17.5 43t43.5 18q20 0 30.5 -11t10.5 -28q0 -23 -17.5 -41.5t-43.5 -18.5q-20 0 -30.5 10.5z" />
    <glyph glyph-name="i.latn_TRK" horiz-adv-x="196" 
d="M88 0h-80l99 510h80zM214 609h-96l19 96h96z" />
    <glyph glyph-name="a.ss01" horiz-adv-x="563" 
d="M474 510h80l-99 -510h-80l12 63h-2q-71 -77 -176 -77q-84 0 -134 53.5t-50 153.5q0 92 38 168t103.5 119.5t145.5 43.5q103 0 144 -80h5zM346.5 105.5q52.5 49.5 73.5 124.5l8 42q2 24 2 36q0 70 -32.5 108t-92.5 38q-54 0 -100 -33t-72.5 -91t-26.5 -130
q0 -67 28 -105.5t95 -38.5q65 0 117.5 49.5z" />
    <glyph glyph-name="aacute.ss01" horiz-adv-x="563" 
d="M474 510h80l-99 -510h-80l12 63h-2q-71 -77 -176 -77q-84 0 -134 53.5t-50 153.5q0 92 38 168t103.5 119.5t145.5 43.5q103 0 144 -80h5zM346.5 105.5q52.5 49.5 73.5 124.5l8 42q2 24 2 36q0 70 -32.5 108t-92.5 38q-54 0 -100 -33t-72.5 -91t-26.5 -130
q0 -67 28 -105.5t95 -38.5q65 0 117.5 49.5zM375 591h-65l66 134h95z" />
    <glyph glyph-name="abreve.ss01" horiz-adv-x="563" 
d="M474 510h80l-99 -510h-80l12 63h-2q-71 -77 -176 -77q-84 0 -134 53.5t-50 153.5q0 92 38 168t103.5 119.5t145.5 43.5q103 0 144 -80h5zM346.5 105.5q52.5 49.5 73.5 124.5l8 42q2 24 2 36q0 70 -32.5 108t-92.5 38q-54 0 -100 -33t-72.5 -91t-26.5 -130
q0 -67 28 -105.5t95 -38.5q65 0 117.5 49.5zM261 606.5q-28 25.5 -28 75.5q0 15 3 33h60q-2 -18 -2 -25q0 -26 12 -37.5t38 -11.5q68 0 86 74h60q-15 -65 -56 -99.5t-97 -34.5q-48 0 -76 25.5z" />
    <glyph glyph-name="acircumflex.ss01" horiz-adv-x="563" 
d="M474 510h80l-99 -510h-80l12 63h-2q-71 -77 -176 -77q-84 0 -134 53.5t-50 153.5q0 92 38 168t103.5 119.5t145.5 43.5q103 0 144 -80h5zM346.5 105.5q52.5 49.5 73.5 124.5l8 42q2 24 2 36q0 70 -32.5 108t-92.5 38q-54 0 -100 -33t-72.5 -91t-26.5 -130
q0 -67 28 -105.5t95 -38.5q65 0 117.5 49.5zM288 591h-83l118 134h90l66 -134h-80l-35 91h-2z" />
    <glyph glyph-name="adieresis.ss01" horiz-adv-x="563" 
d="M474 510h80l-99 -510h-80l12 63h-2q-71 -77 -176 -77q-84 0 -134 53.5t-50 153.5q0 92 38 168t103.5 119.5t145.5 43.5q103 0 144 -80h5zM346.5 105.5q52.5 49.5 73.5 124.5l8 42q2 24 2 36q0 70 -32.5 108t-92.5 38q-54 0 -100 -33t-72.5 -91t-26.5 -130
q0 -67 28 -105.5t95 -38.5q65 0 117.5 49.5zM315 609h-96l19 96h96zM471 609h-96l19 96h96z" />
    <glyph glyph-name="agrave.ss01" horiz-adv-x="563" 
d="M474 510h80l-99 -510h-80l12 63h-2q-71 -77 -176 -77q-84 0 -134 53.5t-50 153.5q0 92 38 168t103.5 119.5t145.5 43.5q103 0 144 -80h5zM346.5 105.5q52.5 49.5 73.5 124.5l8 42q2 24 2 36q0 70 -32.5 108t-92.5 38q-54 0 -100 -33t-72.5 -91t-26.5 -130
q0 -67 28 -105.5t95 -38.5q65 0 117.5 49.5zM366 591h-65l-62 134h95z" />
    <glyph glyph-name="amacron.ss01" horiz-adv-x="563" 
d="M474 510h80l-99 -510h-80l12 63h-2q-71 -77 -176 -77q-84 0 -134 53.5t-50 153.5q0 92 38 168t103.5 119.5t145.5 43.5q103 0 144 -80h5zM346.5 105.5q52.5 49.5 73.5 124.5l8 42q2 24 2 36q0 70 -32.5 108t-92.5 38q-54 0 -100 -33t-72.5 -91t-26.5 -130
q0 -67 28 -105.5t95 -38.5q65 0 117.5 49.5zM474 609h-258l14 70h258z" />
    <glyph glyph-name="aogonek.ss01" horiz-adv-x="563" 
d="M474 510h80l-99 -510h-7q-84 -57 -84 -92q0 -12 9 -18.5t23 -6.5q26 0 51 10l-12 -60q-33 -10 -67 -10q-38 0 -58 15.5t-20 42.5q0 36 29.5 68.5t68.5 50.5h-13l12 63h-2q-71 -77 -176 -77q-84 0 -134 53.5t-50 153.5q0 92 38 168t103.5 119.5t145.5 43.5q103 0 144 -80
h5zM346.5 105.5q52.5 49.5 73.5 124.5l8 42q2 24 2 36q0 70 -32.5 108t-92.5 38q-54 0 -100 -33t-72.5 -91t-26.5 -130q0 -67 28 -105.5t95 -38.5q65 0 117.5 49.5z" />
    <glyph glyph-name="aring.ss01" horiz-adv-x="563" 
d="M474 510h80l-99 -510h-80l12 63h-2q-71 -77 -176 -77q-84 0 -134 53.5t-50 153.5q0 92 38 168t103.5 119.5t145.5 43.5q103 0 144 -80h5zM346.5 105.5q52.5 49.5 73.5 124.5l8 42q2 24 2 36q0 70 -32.5 108t-92.5 38q-54 0 -100 -33t-72.5 -91t-26.5 -130
q0 -67 28 -105.5t95 -38.5q65 0 117.5 49.5zM280.5 580q-19.5 20 -19.5 51q0 43 31 73.5t75 30.5q33 0 53 -20t20 -51q0 -44 -31 -74t-76 -30q-33 0 -52.5 20zM381 616.5q17 17.5 17 40.5q0 18 -10.5 28.5t-27.5 10.5q-24 0 -40.5 -16t-16.5 -42q0 -17 9.5 -28t28.5 -11
q23 0 40 17.5z" />
    <glyph glyph-name="atilde.ss01" horiz-adv-x="563" 
d="M474 510h80l-99 -510h-80l12 63h-2q-71 -77 -176 -77q-84 0 -134 53.5t-50 153.5q0 92 38 168t103.5 119.5t145.5 43.5q103 0 144 -80h5zM346.5 105.5q52.5 49.5 73.5 124.5l8 42q2 24 2 36q0 70 -32.5 108t-92.5 38q-54 0 -100 -33t-72.5 -91t-26.5 -130
q0 -67 28 -105.5t95 -38.5q65 0 117.5 49.5zM204 603q9 47 35.5 70.5t56.5 23.5q19 0 35.5 -5.5t38.5 -16.5q4 -2 17.5 -8t23.5 -6q23 0 30 34h60q-9 -47 -35 -70.5t-57 -23.5q-19 0 -35.5 5.5t-38.5 16.5q-4 2 -17.5 8t-23.5 6q-14 0 -21 -10.5t-9 -23.5h-60z" />
    <glyph glyph-name="adieresis.ss02" horiz-adv-x="539" 
d="M50 20.5q-39 34.5 -39 99.5q0 78 57.5 116.5t171.5 61.5q71 14 100.5 22t49.5 25t20 49q0 29 -21.5 45t-75.5 16q-64 0 -99.5 -25t-49.5 -81h-82q18 83 79 129.5t159 46.5q81 0 124.5 -32.5t43.5 -95.5q0 -21 -4 -41l-47 -241q-4 -24 -4 -32q0 -14 5.5 -21t19.5 -7
q5 0 17 2l-11 -52q-25 -10 -48 -10q-34 0 -50 18.5t-15 60.5h-3q-33 -42 -80.5 -65t-105.5 -23q-73 0 -112 34.5zM309.5 95q52.5 39 66.5 109l15 74q-16 -15 -36.5 -21.5t-85.5 -20.5q-66 -14 -102 -26t-55 -31t-19 -51q0 -72 92 -72q72 0 124.5 39zM239.5 616.5
q-10.5 10.5 -10.5 27.5q0 25 17.5 43t43.5 18q20 0 30.5 -11t10.5 -28q0 -23 -17.5 -41.5t-43.5 -18.5q-20 0 -30.5 10.5zM395.5 616.5q-10.5 10.5 -10.5 27.5q0 25 17.5 43t43.5 18q20 0 30.5 -11t10.5 -28q0 -23 -17.5 -41.5t-43.5 -18.5q-20 0 -30.5 10.5z" />
    <glyph glyph-name="cdotaccent.ss02" horiz-adv-x="526" 
d="M78.5 41.5q-54.5 55.5 -54.5 150.5q0 88 39 164.5t107.5 122t154.5 45.5q63 0 107.5 -26t65.5 -72t16 -103h-78q1 7 1 20q0 54 -29.5 82.5t-87.5 28.5q-62 0 -111.5 -36t-76.5 -94.5t-27 -124.5q0 -62 31 -102.5t98 -40.5q71 0 115.5 39.5t58.5 89.5h80
q-15 -58 -52.5 -103t-91.5 -70.5t-115 -25.5q-96 0 -150.5 55.5zM314.5 616.5q-10.5 10.5 -10.5 27.5q0 25 17.5 43t43.5 18q20 0 30.5 -11t10.5 -28q0 -23 -17.5 -41.5t-43.5 -18.5q-20 0 -30.5 10.5z" />
    <glyph glyph-name="edieresis.ss02" horiz-adv-x="548" 
d="M111 234q-2 -22 -2 -34q0 -71 31 -108t101 -37q68 0 112 32.5t60 69.5h83q-37 -79 -103 -125.5t-158 -46.5q-101 0 -155 56.5t-54 157.5q0 91 39 165.5t108 117.5t154 43q100 0 149.5 -51t49.5 -139q0 -39 -12 -101h-403zM194 415.5q-51 -40.5 -71 -111.5h318q3 18 3 36
q0 52 -31 84t-93 32q-75 0 -126 -40.5zM246.5 618.5q-10.5 10.5 -10.5 27.5q0 25 17.5 43t43.5 18q20 0 30.5 -11t10.5 -28q0 -23 -17.5 -41.5t-43.5 -18.5q-20 0 -30.5 10.5zM402.5 618.5q-10.5 10.5 -10.5 27.5q0 25 17.5 43t43.5 18q20 0 30.5 -11t10.5 -28
q0 -23 -17.5 -41.5t-43.5 -18.5q-20 0 -30.5 10.5z" />
    <glyph glyph-name="edotaccent.ss02" horiz-adv-x="548" 
d="M111 234q-2 -22 -2 -34q0 -71 31 -108t101 -37q68 0 112 32.5t60 69.5h83q-37 -79 -103 -125.5t-158 -46.5q-101 0 -155 56.5t-54 157.5q0 91 39 165.5t108 117.5t154 43q100 0 149.5 -51t49.5 -139q0 -39 -12 -101h-403zM194 415.5q-51 -40.5 -71 -111.5h318q3 18 3 36
q0 52 -31 84t-93 32q-75 0 -126 -40.5zM324.5 618.5q-10.5 10.5 -10.5 27.5q0 25 17.5 43t43.5 18q20 0 30.5 -11t10.5 -28q0 -23 -17.5 -41.5t-43.5 -18.5q-20 0 -30.5 10.5z" />
    <glyph glyph-name="uni0123.ss02" horiz-adv-x="565" 
d="M477 510h80l-92 -473q-21 -107 -90 -162t-173 -55q-62 0 -109.5 20.5t-72.5 57t-23 83.5h78q0 -91 127 -91q154 0 184 154l12 62h-2q-69 -80 -177 -80q-85 0 -136 50.5t-51 151.5q0 81 37 148.5t101 107.5t141 40q105 0 152 -77h2zM341.5 128.5q45.5 32.5 70 86.5
t24.5 116q0 123 -119 123q-60 0 -106 -31t-71.5 -82.5t-25.5 -110.5q0 -63 30.5 -98.5t92.5 -35.5q59 0 104.5 32.5zM305 606.5q-12 12.5 -12 36.5q0 11 3 23q8 41 37.5 72.5t84.5 45.5l-7 -40q-29 -7 -46 -21t-22 -41q12 3 23 3q17 0 26.5 -8t9.5 -25q0 -27 -17.5 -42.5
t-43.5 -15.5q-24 0 -36 12.5z" />
    <glyph glyph-name="gdotaccent.ss02" horiz-adv-x="565" 
d="M477 510h80l-92 -473q-21 -107 -90 -162t-173 -55q-62 0 -109.5 20.5t-72.5 57t-23 83.5h78q0 -91 127 -91q154 0 184 154l12 62h-2q-69 -80 -177 -80q-85 0 -136 50.5t-51 151.5q0 81 37 148.5t101 107.5t141 40q105 0 152 -77h2zM341.5 128.5q45.5 32.5 70 86.5
t24.5 116q0 123 -119 123q-60 0 -106 -31t-71.5 -82.5t-25.5 -110.5q0 -63 30.5 -98.5t92.5 -35.5q59 0 104.5 32.5zM308.5 616.5q-10.5 10.5 -10.5 27.5q0 25 17.5 43t43.5 18q20 0 30.5 -11t10.5 -28q0 -23 -17.5 -41.5t-43.5 -18.5q-20 0 -30.5 10.5z" />
    <glyph glyph-name="i.ss02" horiz-adv-x="196" 
d="M134.5 616.5q-10.5 10.5 -10.5 27.5q0 25 17.5 43t43.5 18q20 0 30.5 -11t10.5 -28q0 -23 -17.5 -41.5t-43.5 -18.5q-20 0 -30.5 10.5zM88 0h-80l99 510h80z" />
    <glyph glyph-name="idieresis.ss02" horiz-adv-x="196" 
d="M88 0h-80l99 510h80zM56.5 616.5q-10.5 10.5 -10.5 27.5q0 25 17.5 43t43.5 18q20 0 30.5 -11t10.5 -28q0 -23 -17.5 -41.5t-43.5 -18.5q-20 0 -30.5 10.5zM212.5 616.5q-10.5 10.5 -10.5 27.5q0 25 17.5 43t43.5 18q20 0 30.5 -11t10.5 -28q0 -23 -17.5 -41.5
t-43.5 -18.5q-20 0 -30.5 10.5z" />
    <glyph glyph-name="iogonek.ss02" horiz-adv-x="196" 
d="M88 0h-80l99 510h80zM134.5 616.5q-10.5 10.5 -10.5 27.5q0 25 17.5 43t43.5 18q20 0 30.5 -11t10.5 -28q0 -23 -17.5 -41.5t-43.5 -18.5q-20 0 -30.5 10.5zM-57 -161.5q-20 15.5 -20 42.5q0 36 29.5 68.5t68.5 50.5h60q-84 -57 -84 -92q0 -12 9 -18.5t23 -6.5
q26 0 51 10l-12 -60q-33 -10 -67 -10q-38 0 -58 15.5z" />
    <glyph glyph-name="j.ss02" horiz-adv-x="196" 
d="M-110 -175l13 68q26 -3 40 -3q23 0 37 17.5t22 60.5l105 542h80l-107 -550q-14 -73 -52 -106.5t-86 -33.5q-25 0 -52 5zM134.5 616.5q-10.5 10.5 -10.5 27.5q0 25 17.5 43t43.5 18q20 0 30.5 -11t10.5 -28q0 -23 -17.5 -41.5t-43.5 -18.5q-20 0 -30.5 10.5z" />
    <glyph glyph-name="uni0137.ss02" horiz-adv-x="478" 
d="M419 510h102l-237 -185l159 -325h-93l-128 276l-95 -73l-39 -203h-80l139 715h80l-82 -420zM129 -191q28 6 47.5 18.5t23.5 31.5q-14 -4 -22 -4q-17 0 -27 9t-10 27q0 29 18 46t45 17q23 0 34.5 -13.5t11.5 -36.5q0 -6 -2 -22q-8 -41 -38.5 -71t-88.5 -43z" />
    <glyph glyph-name="uni013C.ss02" horiz-adv-x="196" 
d="M88 0h-80l139 715h80zM-39 -191q28 6 47.5 18.5t23.5 31.5q-14 -4 -22 -4q-17 0 -27 9t-10 27q0 29 18 46t45 17q23 0 34.5 -13.5t11.5 -36.5q0 -6 -2 -22q-8 -41 -38.5 -71t-88.5 -43z" />
    <glyph glyph-name="uni0146.ss02" horiz-adv-x="533" 
d="M460.5 489q38.5 -36 38.5 -102q0 -28 -5 -51l-65 -336h-80l65 336q4 24 4 36q0 83 -93 83q-63 0 -112 -39t-63 -98l-62 -318h-80l99 510h80l-13 -65h1q30 36 77.5 58t105.5 22q64 0 102.5 -36zM132 -191q28 6 47.5 18.5t23.5 31.5q-14 -4 -22 -4q-17 0 -27 9t-10 27
q0 29 18 46t45 17q23 0 34.5 -13.5t11.5 -36.5q0 -6 -2 -22q-8 -41 -38.5 -71t-88.5 -43z" />
    <glyph glyph-name="odieresis.ss02" horiz-adv-x="555" 
d="M75.5 40.5q-51.5 54.5 -51.5 146.5q0 91 40 168t110.5 123t159.5 46q94 0 145.5 -54.5t51.5 -146.5q0 -91 -40 -168t-110.5 -123t-159.5 -46q-94 0 -145.5 54.5zM345.5 92.5q49.5 36.5 77 96t27.5 126.5q0 63 -32 101t-95 38q-64 0 -113.5 -36.5t-77 -96t-27.5 -126.5
q0 -63 32 -101t95 -38q64 0 113.5 36.5zM239.5 616.5q-10.5 10.5 -10.5 27.5q0 25 17.5 43t43.5 18q20 0 30.5 -11t10.5 -28q0 -23 -17.5 -41.5t-43.5 -18.5q-20 0 -30.5 10.5zM395.5 616.5q-10.5 10.5 -10.5 27.5q0 25 17.5 43t43.5 18q20 0 30.5 -11t10.5 -28
q0 -23 -17.5 -41.5t-43.5 -18.5q-20 0 -30.5 10.5z" />
    <glyph glyph-name="uni0157.ss02" horiz-adv-x="332" 
d="M375 519l-16 -78q-17 3 -31 3q-69 0 -121 -48t-66 -123l-53 -273h-80l99 510h80l-19 -96h2q31 53 70 80.5t95 27.5q22 0 40 -3zM-39 -191q28 6 47.5 18.5t23.5 31.5q-14 -4 -22 -4q-17 0 -27 9t-10 27q0 29 18 46t45 17q23 0 34.5 -13.5t11.5 -36.5q0 -6 -2 -22
q-8 -41 -38.5 -71t-88.5 -43z" />
    <glyph glyph-name="uni0219.ss02" horiz-adv-x="479" 
d="M106.5 9.5q-50.5 23.5 -76.5 64.5t-26 93h79q0 -47 36 -79t110 -32q58 0 91.5 21t33.5 64q0 26 -14.5 42t-38 26t-67.5 23q-60 18 -92 31t-57.5 41.5t-25.5 76.5q0 70 55 106.5t139 36.5q64 0 109 -22t67.5 -59t22.5 -80h-80q0 37 -28.5 64t-91.5 27q-50 0 -82 -17.5
t-32 -54.5q0 -24 14.5 -38t35.5 -22t76 -25q57 -17 91 -33t57 -45t23 -75q0 -76 -58 -117t-151 -41q-69 0 -119.5 23.5zM124 -191q28 6 47.5 18.5t23.5 31.5q-14 -4 -22 -4q-17 0 -27 9t-10 27q0 29 18 46t45 17q23 0 34.5 -13.5t11.5 -36.5q0 -6 -2 -22q-8 -41 -38.5 -71
t-88.5 -43z" />
    <glyph glyph-name="uni021B.ss02" horiz-adv-x="298" 
d="M205 440l-60 -307q-3 -16 -3 -28q0 -21 12 -30.5t40 -9.5q14 0 44 3l-14 -68q-31 -5 -55 -5q-52 0 -80 21.5t-28 73.5q0 17 5 47l59 303h-75l14 70h75l33 170h80l-33 -170h100l-14 -70h-100zM63 -177q28 6 47.5 18.5t23.5 31.5q-14 -4 -22 -4q-17 0 -27 9t-10 27
q0 29 18 46t45 17q23 0 34.5 -13.5t11.5 -36.5q0 -6 -2 -22q-8 -41 -38.5 -71t-88.5 -43z" />
    <glyph glyph-name="udieresis.ss02" horiz-adv-x="533" 
d="M444 510h80l-99 -510h-80l12 61h-2q-30 -31 -76 -53t-104 -22q-65 0 -103.5 32.5t-38.5 102.5q0 27 6 60l64 329h80l-64 -331q-4 -26 -4 -37q0 -40 21.5 -63t65.5 -23q68 0 118.5 40t63.5 105zM218.5 616.5q-10.5 10.5 -10.5 27.5q0 25 17.5 43t43.5 18q20 0 30.5 -11
t10.5 -28q0 -23 -17.5 -41.5t-43.5 -18.5q-20 0 -30.5 10.5zM374.5 616.5q-10.5 10.5 -10.5 27.5q0 25 17.5 43t43.5 18q20 0 30.5 -11t10.5 -28q0 -23 -17.5 -41.5t-43.5 -18.5q-20 0 -30.5 10.5z" />
    <glyph glyph-name="wdieresis.ss02" horiz-adv-x="737" 
d="M203 0h-89l-53 510h88l25 -420h2l194 420h87l30 -420h2l200 420h89l-262 -510h-85l-33 414h-2zM323.5 616.5q-10.5 10.5 -10.5 27.5q0 25 17.5 43t43.5 18q20 0 30.5 -11t10.5 -28q0 -23 -17.5 -41.5t-43.5 -18.5q-20 0 -30.5 10.5zM479.5 616.5q-10.5 10.5 -10.5 27.5
q0 25 17.5 43t43.5 18q20 0 30.5 -11t10.5 -28q0 -23 -17.5 -41.5t-43.5 -18.5q-20 0 -30.5 10.5z" />
    <glyph glyph-name="ydieresis.ss02" horiz-adv-x="493" 
d="M-26 -174l13 68q25 -3 36 -3q85 0 136 114l-109 505h88l77 -413h2l230 413h88l-305 -525q-55 -94 -101.5 -129t-105.5 -35q-21 0 -49 5zM196.5 616.5q-10.5 10.5 -10.5 27.5q0 25 17.5 43t43.5 18q20 0 30.5 -11t10.5 -28q0 -23 -17.5 -41.5t-43.5 -18.5
q-20 0 -30.5 10.5zM352.5 616.5q-10.5 10.5 -10.5 27.5q0 25 17.5 43t43.5 18q20 0 30.5 -11t10.5 -28q0 -23 -17.5 -41.5t-43.5 -18.5q-20 0 -30.5 10.5z" />
    <glyph glyph-name="zdotaccent.ss02" horiz-adv-x="451" 
d="M381 0h-412l12 60l361 378l1 2h-271l13 70h384l-9 -48l-373 -390v-2h308zM257.5 616.5q-10.5 10.5 -10.5 27.5q0 25 17.5 43t43.5 18q20 0 30.5 -11t10.5 -28q0 -23 -17.5 -41.5t-43.5 -18.5q-20 0 -30.5 10.5z" />
    <glyph glyph-name="i.latn_TRK.ss02" horiz-adv-x="196" 
d="M134.5 616.5q-10.5 10.5 -10.5 27.5q0 25 17.5 43t43.5 18q20 0 30.5 -11t10.5 -28q0 -23 -17.5 -41.5t-43.5 -18.5q-20 0 -30.5 10.5zM88 0h-80l99 510h80z" />
    <glyph glyph-name="adieresis.ss01.ss02" horiz-adv-x="563" 
d="M474 510h80l-99 -510h-80l12 63h-2q-71 -77 -176 -77q-84 0 -134 53.5t-50 153.5q0 92 38 168t103.5 119.5t145.5 43.5q103 0 144 -80h5zM346.5 105.5q52.5 49.5 73.5 124.5l8 42q2 24 2 36q0 70 -32.5 108t-92.5 38q-54 0 -100 -33t-72.5 -91t-26.5 -130
q0 -67 28 -105.5t95 -38.5q65 0 117.5 49.5zM235.5 616.5q-10.5 10.5 -10.5 27.5q0 25 17.5 43t43.5 18q20 0 30.5 -11t10.5 -28q0 -23 -17.5 -41.5t-43.5 -18.5q-20 0 -30.5 10.5zM391.5 616.5q-10.5 10.5 -10.5 27.5q0 25 17.5 43t43.5 18q20 0 30.5 -11t10.5 -28
q0 -23 -17.5 -41.5t-43.5 -18.5q-20 0 -30.5 10.5z" />
    <glyph glyph-name="s_s" horiz-adv-x="958" 
d="M106.5 9.5q-50.5 23.5 -76.5 64.5t-26 93h79q0 -47 36 -79t110 -32q58 0 91.5 21t33.5 64q0 26 -14.5 42t-38 26t-67.5 23q-59 18 -91.5 31t-58 42t-25.5 77q0 70 56 106t150 36q89 0 139.5 -32.5t76 -90.5t46.5 -158q16 -74 30 -110t46.5 -56.5t94.5 -20.5q64 0 99.5 21
t35.5 63q0 27 -14.5 43t-38 26t-67.5 23q-60 18 -92 31t-57.5 41.5t-25.5 76.5q0 70 55 106.5t139 36.5q65 0 110.5 -21.5t68 -57.5t22.5 -78h-78q0 35 -30 61t-94 26q-50 0 -82 -17.5t-32 -54.5q0 -24 14.5 -38t35.5 -22t76 -25q56 -17 90 -32.5t57.5 -44.5t23.5 -76
q0 -75 -60 -116.5t-161 -41.5q-85 0 -129.5 30t-63 78.5t-38.5 142.5q-17 85 -42.5 132t-62.5 66t-93 19q-58 0 -92 -18t-34 -55q0 -23 13.5 -36.5t37 -22.5t75.5 -25q57 -17 91 -33t57 -45t23 -75q0 -76 -58 -117t-151 -41q-69 0 -119.5 23.5z" />
    <glyph glyph-name="w_w_w" horiz-adv-x="2098" 
d="M1850 90l200 420h89l-262 -510h-85l-33 414h-2l-193 -414h-89l-47 452l-232 -452h-85l-33 414h-2l-193 -414h-89l-47 452l-232 -452h-85l-33 414h-2l-193 -414h-89l-53 510h88l25 -420h2l194 420h87l30 -420h2l200 420h141l25 -420h2l194 420h87l30 -420h2l200 420h141
l25 -420h2l194 420h87l30 -420h2z" />
    <glyph glyph-name="f_f_i.ss02" horiz-adv-x="724" 
d="M43 0l86 440h-71l13 70h72l13 69q15 82 52 112t99 30q21 0 52 -5l-13 -68q-30 3 -41 3q-35 0 -48 -14t-21 -54l-14 -73h169l13 69q15 82 52 112t99 30q21 0 52 -5l-13 -68q-30 3 -41 3q-35 0 -48 -14t-21 -54l-14 -73h97l-13 -70h-98l-85 -440h-80l86 440h-169l-85 -440
h-80zM662.5 616.5q-10.5 10.5 -10.5 27.5q0 25 17.5 43t43.5 18q20 0 30.5 -11t10.5 -28q0 -23 -17.5 -41.5t-43.5 -18.5q-20 0 -30.5 10.5zM616 0h-80l99 510h80z" />
    <glyph glyph-name="f_i.ss02" horiz-adv-x="473" 
d="M257 637q-13 -14 -21 -54l-14 -73h97l-13 -70h-98l-85 -440h-80l86 440h-71l13 70h72l13 69q16 82 52.5 112t98.5 30q21 0 52 -5l-13 -68q-30 3 -41 3q-35 0 -48 -14zM411.5 616.5q-10.5 10.5 -10.5 27.5q0 25 17.5 43t43.5 18q20 0 30.5 -11t10.5 -28q0 -23 -17.5 -41.5
t-43.5 -18.5q-20 0 -30.5 10.5zM365 0h-80l99 510h80z" />
    <glyph glyph-name="zero.zero" horiz-adv-x="626" 
d="M555 637.5q52 -67.5 52 -181.5q0 -122 -42 -230t-120 -174t-181 -66q-108 0 -160 67.5t-52 181.5q0 121 43 229.5t121.5 174.5t178.5 66q108 0 160 -67.5zM256 568q-57 -57 -87 -147t-30 -184q0 -79 26 -120l295 491q-29 17 -71 17q-76 0 -133 -57zM403 123q57 57 87 147
t30 184q0 60 -15 97l-286 -477q24 -8 51 -8q76 0 133 57z" />
    <glyph glyph-name="zero.slash" horiz-adv-x="626" 
d="M555 637.5q52 -67.5 52 -181.5q0 -122 -42 -230t-120 -174t-181 -66q-108 0 -160 67.5t-52 181.5q0 121 43 229.5t121.5 174.5t178.5 66q108 0 160 -67.5zM256 568q-57 -57 -87 -147t-30 -184q0 -79 26 -120l295 491q-29 17 -71 17q-76 0 -133 -57zM403 123q57 57 87 147
t30 184q0 60 -15 97l-286 -477q24 -8 51 -8q76 0 133 57z" />
    <glyph glyph-name="zero.tf" horiz-adv-x="700" 
d="M141 53.5q-52 67.5 -52 181.5q0 121 43 229.5t121.5 174.5t178.5 66q108 0 160 -67.5t52 -181.5q0 -122 -42 -230t-120 -174t-181 -66q-108 0 -160 67.5zM440 123q57 57 87 147t30 184q0 81 -30 126t-101 45q-76 0 -133 -57t-87 -147t-30 -184q0 -81 30 -126t101 -45
q76 0 133 57z" />
    <glyph glyph-name="one.tf" horiz-adv-x="700" 
d="M374 80h154l-16 -80h-378l16 80h134l87 447q-25 -20 -61.5 -27t-89.5 -7l15 75q59 1 95 15t56.5 40t35.5 68h70z" />
    <glyph glyph-name="two.tf" horiz-adv-x="700" 
d="M52 0q20 96 84 167t180 132l43 22q65 33 103 57.5t63.5 61.5t25.5 88q0 45 -24.5 71t-87.5 26q-153 0 -188 -176h-92q13 71 50.5 129.5t98.5 92.5t139 34q89 0 142 -44.5t53 -126.5q0 -73 -42.5 -128.5t-93 -88t-128.5 -72.5q-79 -41 -126.5 -78.5t-69.5 -84.5v-2h365
l-16 -80h-479z" />
    <glyph glyph-name="three.tf" horiz-adv-x="700" 
d="M188.5 10.5q-55.5 24.5 -85 68.5t-29.5 102q0 26 6 53h94q-4 -20 -4 -44q0 -59 38 -91.5t119 -32.5q91 0 132.5 40t41.5 105q0 61 -33.5 85.5t-97.5 24.5h-64l15 80h70q65 0 106.5 37t41.5 94q0 93 -123 93q-151 0 -175 -141h-94q11 64 47 114t95 78.5t135 28.5
q97 0 152.5 -44t55.5 -118q0 -61 -37.5 -107t-100.5 -69v-3q53 -16 77.5 -51.5t24.5 -91.5q0 -66 -31.5 -119.5t-93.5 -84.5t-150 -31q-77 0 -132.5 24.5z" />
    <glyph glyph-name="four.tf" horiz-adv-x="700" 
d="M462 0h-90l31 162h-333l16 80l420 449h90l-87 -449h95l-16 -80h-95zM482 564l-301 -322h238z" />
    <glyph glyph-name="five.tf" horiz-adv-x="700" 
d="M182 11q-48 25 -72 66t-24 89q0 17 3 33h92l-1 -17q0 -52 29.5 -84t93.5 -32q60 0 106.5 29t72 76t25.5 100q0 58 -31.5 85.5t-87.5 27.5q-108 0 -170 -65h-96l145 372h377l-16 -80h-304l-82 -209v-2q31 29 74 46.5t95 17.5q89 0 138 -49.5t49 -134.5q0 -77 -38 -145
t-106.5 -108.5t-155.5 -40.5q-68 0 -116 25z" />
    <glyph glyph-name="six.tf" horiz-adv-x="700" 
d="M161 49q-57 63 -57 185q0 123 43 231.5t121 174t179 65.5q64 0 108.5 -25.5t65 -69t15.5 -94.5h-92q3 52 -24.5 80.5t-88.5 28.5q-89 0 -146.5 -74t-76.5 -187l-2 -12l2 -1q36 50 88.5 75t113.5 25q90 0 142.5 -51.5t52.5 -141.5q0 -73 -35.5 -135.5t-99.5 -99.5
t-145 -37q-107 0 -164 63zM422.5 91q41.5 25 64 67.5t22.5 93.5q0 60 -32.5 89.5t-92.5 29.5q-52 0 -94.5 -21.5t-67.5 -61.5t-25 -93q0 -61 34 -95t97 -34q53 0 94.5 25z" />
    <glyph glyph-name="seven.tf" horiz-adv-x="700" 
d="M153 0q21 109 87 229t150.5 221t159.5 159l1 2h-379l15 80h479l-13 -70q-91 -66 -176 -170t-146.5 -223t-82.5 -228h-95z" />
    <glyph glyph-name="eight.tf" horiz-adv-x="700" 
d="M136 30q-62 44 -62 131q0 59 29 102t70 68.5t77 34.5v2q-77 43 -77 130q0 56 32 103.5t90 75.5t133 28q91 0 145.5 -42t54.5 -120q0 -63 -35 -109.5t-94 -68.5v-2q101 -39 101 -140q0 -63 -36.5 -117.5t-105 -87t-158.5 -32.5q-102 0 -164 44zM495 441.5q43 34.5 43 90.5
q0 47 -32.5 70t-89.5 23q-76 0 -114.5 -36t-38.5 -88q0 -46 31 -70t88 -24q70 0 113 34.5zM416.5 86q44.5 20 68.5 55t24 79q0 54 -38.5 80.5t-108.5 26.5q-60 0 -105 -20.5t-68.5 -55.5t-23.5 -78q0 -107 150 -107q57 0 101.5 20z" />
    <glyph glyph-name="nine.tf" horiz-adv-x="700" 
d="M179.5 11.5q-44.5 25.5 -65 69t-15.5 94.5h92q-3 -52 24.5 -80.5t88.5 -28.5q89 0 146.5 74t76.5 187l2 12l-2 1q-36 -50 -88.5 -75t-113.5 -25q-90 0 -142.5 51.5t-52.5 141.5q0 73 35.5 135.5t99.5 99.5t145 37q107 0 164 -63t57 -185q0 -123 -43 -231.5t-121 -174
t-179 -65.5q-64 0 -108.5 25.5zM445.5 341.5q42.5 21.5 67.5 61.5t25 93q0 61 -34 95t-97 34q-53 0 -94.5 -25t-64 -67.5t-22.5 -93.5q0 -60 32.5 -89.5t92.5 -29.5q52 0 94.5 21.5z" />
    <glyph glyph-name="zero.tf.zero" horiz-adv-x="700" 
d="M592 637.5q52 -67.5 52 -181.5q0 -122 -42 -230t-120 -174t-181 -66q-108 0 -160 67.5t-52 181.5q0 121 43 229.5t121.5 174.5t178.5 66q108 0 160 -67.5zM293 568q-57 -57 -87 -147t-30 -184q0 -79 26 -120l295 491q-29 17 -71 17q-76 0 -133 -57zM440 123q57 57 87 147
t30 184q0 60 -15 97l-286 -477q24 -8 51 -8q76 0 133 57z" />
    <glyph glyph-name="zero.dnom" horiz-adv-x="399" 
d="M46.5 33.5q-34.5 41.5 -34.5 113.5q0 70 28.5 132t79 99t112.5 37q67 0 100.5 -42t33.5 -113q0 -70 -27.5 -132t-77 -99t-112.5 -37q-68 0 -102.5 41.5zM226 84.5q29 30.5 44.5 78t15.5 96.5q0 94 -64 94q-39 0 -68.5 -30.5t-45.5 -78t-16 -96.5q0 -94 65 -94
q40 0 69 30.5z" />
    <glyph glyph-name="one.dnom" horiz-adv-x="223" 
d="M103 288q-24 -16 -89 -16l12 63q49 1 77.5 18t36.5 53h64l-79 -406h-78z" />
    <glyph glyph-name="two.dnom" horiz-adv-x="350" 
d="M-29 0q9 45 32 77t51.5 52t73.5 46l20 12q53 31 77.5 56.5t24.5 59.5q0 48 -51 48q-75 0 -91 -90h-77q13 70 60 112.5t120 42.5q56 0 88.5 -26t32.5 -75q0 -56 -37.5 -94.5t-92.5 -71.5q-51 -31 -75 -48t-37 -35v-1h193l-13 -65h-299z" />
    <glyph glyph-name="three.dnom" horiz-adv-x="368" 
d="M33.5 22q-38.5 31 -38.5 86q0 15 3 33h78q-3 -15 -3 -27q0 -29 16.5 -43.5t52.5 -14.5q44 0 68 20t24 54q0 28 -17 39.5t-50 11.5h-31l11 59h29q37 0 58 17.5t21 45.5q0 48 -55 48q-37 0 -58.5 -18.5t-26.5 -49.5h-77q10 57 58 95t118 38q57 0 89.5 -26.5t32.5 -72.5
q0 -37 -20.5 -62.5t-58.5 -39.5v-1q58 -20 58 -82q0 -40 -22 -72t-61.5 -50.5t-90.5 -18.5q-69 0 -107.5 31z" />
    <glyph glyph-name="four.dnom" horiz-adv-x="369" 
d="M240 0h-79l17 90h-189l15 75l235 241h79l-48 -251h58l-13 -65h-58zM222 314l-155 -159h124z" />
    <glyph glyph-name="five.dnom" horiz-adv-x="365" 
d="M31.5 23.5q-36.5 32.5 -36.5 81.5q0 11 1 17h80q-3 -31 12.5 -48.5t52.5 -17.5q43 0 69 27t26 68q0 32 -16 48.5t-46 16.5q-22 0 -43 -8.5t-38 -24.5h-76l87 223h242l-12 -65h-184l-39 -98l-1 -1q41 33 96 33q52 0 81.5 -31t29.5 -85q0 -48 -23 -86.5t-64.5 -60
t-94.5 -21.5q-67 0 -103.5 32.5z" />
    <glyph glyph-name="six.dnom" horiz-adv-x="376" 
d="M48 31.5q-35 40.5 -35 113.5q0 71 26.5 133.5t75.5 100t113 37.5q56 0 88.5 -32t30.5 -80h-81q1 23 -11.5 36t-38.5 13q-41 0 -71.5 -36t-40.5 -85l-1 -5l4 -1q20 22 47.5 34t60.5 12q53 0 83 -30t30 -81q0 -45 -22.5 -84t-63.5 -62.5t-93 -23.5q-66 0 -101 40.5z
M220.5 80.5q27.5 27.5 27.5 67.5q0 30 -17.5 45.5t-49.5 15.5q-41 0 -67 -24t-26 -65q0 -31 17 -49t47 -18q41 0 68.5 27.5z" />
    <glyph glyph-name="seven.dnom" horiz-adv-x="315" 
d="M20 0q12 63 46 130t77.5 122.5t86.5 87.5v1h-206l13 65h291l-12 -59q-78 -56 -135.5 -151.5t-77.5 -195.5h-83z" />
    <glyph glyph-name="eight.dnom" horiz-adv-x="376" 
d="M35.5 18.5q-38.5 27.5 -38.5 78.5q0 50 31.5 78.5t67.5 41.5v1q-43 25 -43 68q0 36 22 66t60 47t84 17q55 0 89 -24t34 -66q0 -44 -25.5 -70t-51.5 -38v-1q60 -28 60 -81q0 -41 -24.5 -74.5t-67.5 -52t-97 -18.5q-62 0 -100.5 27.5zM243 262.5q22 19.5 22 50.5
q0 21 -15 32.5t-42 11.5q-36 0 -58.5 -19.5t-22.5 -50.5q0 -21 15 -32.5t43 -11.5q36 0 58 19.5zM217.5 76.5q27.5 23.5 27.5 58.5q0 24 -18.5 38.5t-51.5 14.5q-43 0 -70.5 -23t-27.5 -59q0 -24 19 -38.5t52 -14.5q42 0 69.5 23.5z" />
    <glyph glyph-name="nine.dnom" horiz-adv-x="377" 
d="M41.5 22q-32.5 31 -31.5 81h81q-1 -23 11 -36t37 -13q41 0 71.5 36t40.5 85l1 5l-2 1q-20 -22 -47.5 -34t-60.5 -12q-53 0 -83 31.5t-30 87.5q0 42 22.5 79.5t63.5 60t93 22.5q67 0 101.5 -40.5t34.5 -117.5q0 -68 -26.5 -129.5t-75 -99.5t-111.5 -38q-57 0 -89.5 31z
M240.5 225.5q28.5 27.5 28.5 66.5q0 29 -17 45.5t-47 16.5q-41 0 -68.5 -27.5t-27.5 -67.5q0 -30 16 -45.5t45 -15.5q42 0 70.5 27.5z" />
    <glyph glyph-name="zero.numr" horiz-adv-x="399" 
d="M106.5 344.5q-34.5 41.5 -34.5 113.5q0 70 28.5 132t79 99t112.5 37q67 0 100.5 -42t33.5 -113q0 -70 -27.5 -132t-77 -99t-112.5 -37q-68 0 -102.5 41.5zM286 395.5q29 30.5 44.5 78t15.5 96.5q0 94 -64 94q-39 0 -68.5 -30.5t-45.5 -78t-16 -96.5q0 -94 65 -94
q40 0 69 30.5z" />
    <glyph glyph-name="one.numr" horiz-adv-x="223" 
d="M163 597q-24 -16 -89 -16l12 63q49 1 77.5 18t36.5 53h64l-79 -406h-78z" />
    <glyph glyph-name="two.numr" horiz-adv-x="350" 
d="M31 310q9 45 32 77t51.5 52t73.5 46l20 12q53 31 77.5 56.5t24.5 59.5q0 48 -51 48q-75 0 -91 -90h-77q13 70 60 112.5t120 42.5q56 0 88.5 -26t32.5 -75q0 -56 -37.5 -94.5t-92.5 -71.5q-51 -31 -75 -48t-37 -35v-1h193l-13 -65h-299z" />
    <glyph glyph-name="three.numr" horiz-adv-x="368" 
d="M93.5 332q-38.5 31 -38.5 86q0 15 3 33h78q-3 -15 -3 -27q0 -29 16.5 -43.5t52.5 -14.5q44 0 68 20t24 54q0 28 -17 39.5t-50 11.5h-31l11 59h29q37 0 58 17.5t21 45.5q0 48 -55 48q-37 0 -58.5 -18.5t-26.5 -49.5h-77q10 57 58 95t118 38q57 0 89.5 -26.5t32.5 -72.5
q0 -37 -20.5 -62.5t-58.5 -39.5v-1q58 -20 58 -82q0 -40 -22 -72t-61.5 -50.5t-90.5 -18.5q-69 0 -107.5 31z" />
    <glyph glyph-name="four.numr" horiz-adv-x="369" 
d="M300 310h-79l17 90h-189l15 75l235 241h79l-48 -251h58l-13 -65h-58zM282 624l-155 -159h124z" />
    <glyph glyph-name="five.numr" horiz-adv-x="365" 
d="M91.5 332.5q-36.5 32.5 -36.5 81.5q0 11 1 17h80q-3 -31 12.5 -48.5t52.5 -17.5q43 0 69 27t26 68q0 32 -16 48.5t-46 16.5q-22 0 -43 -8.5t-38 -24.5h-76l87 223h242l-12 -65h-184l-39 -98l-1 -1q41 33 96 33q52 0 81.5 -31t29.5 -85q0 -48 -23 -86.5t-64.5 -60
t-94.5 -21.5q-67 0 -103.5 32.5z" />
    <glyph glyph-name="six.numr" horiz-adv-x="376" 
d="M108 341.5q-35 40.5 -35 113.5q0 71 26.5 133.5t75.5 100t113 37.5q56 0 88.5 -32t30.5 -80h-81q1 23 -11.5 36t-38.5 13q-41 0 -71.5 -36t-40.5 -85l-1 -5l4 -1q20 22 47.5 34t60.5 12q53 0 83 -30t30 -81q0 -45 -22.5 -84t-63.5 -62.5t-93 -23.5q-66 0 -101 40.5z
M280.5 390.5q27.5 27.5 27.5 67.5q0 30 -17.5 45.5t-49.5 15.5q-41 0 -67 -24t-26 -65q0 -31 17 -49t47 -18q41 0 68.5 27.5z" />
    <glyph glyph-name="seven.numr" horiz-adv-x="315" 
d="M80 309q12 63 46 130t77.5 122.5t86.5 87.5v1h-206l13 65h291l-12 -59q-78 -56 -135.5 -151.5t-77.5 -195.5h-83z" />
    <glyph glyph-name="eight.numr" horiz-adv-x="376" 
d="M95.5 328.5q-38.5 27.5 -38.5 78.5q0 50 31.5 78.5t67.5 41.5v1q-43 25 -43 68q0 36 22 66t60 47t84 17q55 0 89 -24t34 -66q0 -44 -25.5 -70t-51.5 -38v-1q60 -28 60 -81q0 -41 -24.5 -74.5t-67.5 -52t-97 -18.5q-62 0 -100.5 27.5zM303 572.5q22 19.5 22 50.5
q0 21 -15 32.5t-42 11.5q-36 0 -58.5 -19.5t-22.5 -50.5q0 -21 15 -32.5t43 -11.5q36 0 58 19.5zM277.5 386.5q27.5 23.5 27.5 58.5q0 24 -18.5 38.5t-51.5 14.5q-43 0 -70.5 -23t-27.5 -59q0 -24 19 -38.5t52 -14.5q42 0 69.5 23.5z" />
    </font>
</defs>
</svg>
