<?xml version="1.0" standalone="no"?>
<!DOCTYPE svg PUBLIC "-//W3C//DTD SVG 1.1//EN" "http://www.w3.org/Graphics/SVG/1.1/DTD/svg11.dtd" >
<svg xmlns="http://www.w3.org/2000/svg" xmlns:xlink="http://www.w3.org/1999/xlink" version="1.1">
<metadata>
Created by FontForge 20201107 at Mon Sep  5 16:39:30 2022
 By 
Copyright by Pangram Pangram Foundry. All rights reserved.
</metadata>
<defs>
<font id="PPNeueMontreal-Light" horiz-adv-x="0" >
  <font-face 
    font-family="PP Neue Montreal Light"
    font-weight="300"
    font-stretch="normal"
    units-per-em="1000"
    panose-1="0 0 4 0 0 0 0 0 0 0"
    ascent="800"
    descent="-200"
    x-height="510"
    cap-height="715"
    bbox="-168 -217 2046 933"
    underline-thickness="38"
    underline-position="-30"
    unicode-range="U+000D-1F150"
  />
<missing-glyph horiz-adv-x="660" 
 />
    <glyph glyph-name="f_f" unicode="ff" horiz-adv-x="477" 
d="M90 0v466h-73v44h73v81q0 76 26 103t84 27q20 0 45 -4v-42q-32 2 -38 2q-28 0 -42 -7t-19.5 -25t-5.5 -55v-80h177v81q0 75 26.5 102.5t83.5 27.5q19 0 46 -4v-42q-32 2 -39 2q-28 0 -42 -7t-19.5 -25t-5.5 -55v-80h106v-44h-106v-466h-50v466h-177v-466h-50z" />
    <glyph glyph-name="f_f_i" unicode="ffi" horiz-adv-x="652" 
d="M90 0v466h-73v44h73v81q0 76 26 103t84 27q20 0 45 -4v-42q-32 2 -38 2q-28 0 -42 -7t-19.5 -25t-5.5 -55v-80h177v81q0 75 26.5 102.5t83.5 27.5q19 0 46 -4v-42q-32 2 -39 2q-28 0 -42 -7t-19.5 -25t-5.5 -55v-80h106v-44h-106v-466h-50v466h-177v-466h-50zM589 0h-50
v510h50v-510zM600 614h-72v72h72v-72z" />
    <glyph glyph-name="f_i" unicode="fi" horiz-adv-x="425" 
d="M165 670q-14 -7 -19.5 -25t-5.5 -55v-80h105v-44h-105v-466h-50v466h-73v44h73v81q0 76 26 103t84 27q20 0 45 -4v-42q-32 2 -38 2q-28 0 -42 -7zM363 0h-50v510h50v-510zM374 614h-72v72h72v-72z" />
    <glyph glyph-name="f_l" unicode="fl" horiz-adv-x="425" 
d="M165 670q-14 -7 -19.5 -25t-5.5 -55v-80h105v-44h-105v-466h-50v466h-73v44h73v81q0 76 26 103t84 27q20 0 45 -4v-42q-32 2 -38 2q-28 0 -42 -7zM363 0h-50v715h50v-715z" />
    <glyph glyph-name=".notdef" horiz-adv-x="660" 
 />
    <glyph glyph-name=".null" 
 />
    <glyph glyph-name="nonmarkingreturn" unicode="&#xd;" horiz-adv-x="224" 
 />
    <glyph glyph-name="space" unicode=" " horiz-adv-x="224" 
 />
    <glyph glyph-name="exclam" unicode="!" horiz-adv-x="199" 
d="M116 184h-32l-14 304v227h60v-227zM136 0h-72v72h72v-72z" />
    <glyph glyph-name="quotedbl" unicode="&#x22;" horiz-adv-x="284" 
d="M98 485h-41l-5 230h52zM226 485h-41l-5 230h52z" />
    <glyph glyph-name="numbersign" unicode="#" horiz-adv-x="557" 
d="M525 482l-8 -45h-110l-32 -173h117l-7 -44h-118l-41 -220h-47l41 220h-143l-41 -220h-47l41 220h-94l7 44h95l32 173h-103l8 45h104l38 205h47l-38 -205h143l38 205h47l-38 -205h109zM185 264h143l32 173h-143z" />
    <glyph glyph-name="dollar" unicode="$" horiz-adv-x="574" 
d="M482 44.5q-58 -53.5 -166 -56.5v-88h-42v89q-107 8 -172.5 69t-72.5 166h54q6 -82 53.5 -131.5t137.5 -56.5v298q-99 21 -157.5 62.5t-58.5 116.5q0 80 58.5 128.5t157.5 51.5v77h42v-78q90 -8 144.5 -58.5t59.5 -133.5h-53q-7 63 -44.5 100.5t-106.5 44.5v-272
q81 -19 129.5 -42.5t71.5 -59t23 -90.5q0 -83 -58 -136.5zM151 431.5q40 -28.5 123 -48.5v263q-76 -3 -119.5 -38t-43.5 -92q0 -56 40 -84.5zM447.5 272.5q-38.5 30.5 -131.5 52.5v-290q88 2 129 41.5t41 106.5q0 59 -38.5 89.5z" />
    <glyph glyph-name="percent" unicode="%" horiz-adv-x="751" 
d="M63.5 369.5q-38.5 53.5 -38.5 136.5q0 82 38 135.5t112 53.5q73 0 111.5 -53.5t38.5 -135.5q0 -83 -38 -136.5t-112 -53.5q-73 0 -111.5 53.5zM203 0h-53l399 687h53zM251.5 401q24.5 41 24.5 105t-24.5 105t-76.5 41q-53 0 -77.5 -41t-24.5 -105t24.5 -105t77.5 -41
q52 0 76.5 41zM466.5 41.5q-38.5 53.5 -38.5 135.5q0 83 38 136.5t112 53.5q73 0 111 -53.5t38 -136.5t-37.5 -136t-111.5 -53q-73 0 -111.5 53.5zM654.5 72.5q24.5 41.5 24.5 104.5q0 64 -24.5 105t-76.5 41q-53 0 -77.5 -41t-24.5 -105q0 -63 24.5 -104.5t77.5 -41.5
q52 0 76.5 41.5z" />
    <glyph glyph-name="ampersand" unicode="&#x26;" horiz-adv-x="584" 
d="M585 0h-62l-71 90q-82 -102 -209 -102q-63 0 -110.5 24.5t-73.5 67.5t-26 98t25 96.5t61.5 69t89.5 57.5q-46 57 -67.5 96t-21.5 83q0 38 16.5 71.5t51 54.5t84.5 21q48 0 83 -20.5t53.5 -54.5t18.5 -74q0 -58 -36.5 -99.5t-113.5 -87.5l171 -217q35 68 43 156h52
q-12 -112 -62 -198zM197 651q-26 -29 -26 -71q0 -37 19.5 -70.5t60.5 -85.5q61 34 93 68t32 83q0 46 -28 75.5t-76 29.5q-49 0 -75 -29zM421 130l-185 236l-1 1q-48 -28 -78.5 -51t-51 -56t-20.5 -78q0 -66 43.5 -105.5t115.5 -39.5q108 0 177 93z" />
    <glyph glyph-name="quotesingle" unicode="'" horiz-adv-x="156" 
d="M98 485h-41l-5 230h52z" />
    <glyph glyph-name="parenleft" unicode="(" horiz-adv-x="236" 
d="M171 -117q-58 85 -95 196.5t-37 237.5q0 130 37 241.5t95 196.5h47q-59 -103 -91.5 -206t-32.5 -232q0 -126 32.5 -228.5t91.5 -205.5h-47z" />
    <glyph glyph-name="parenright" unicode=")" horiz-adv-x="236" 
d="M18 -117q59 102 91 205.5t32 232.5q0 126 -32 229t-91 205h47q58 -85 95 -196.5t37 -237.5q0 -130 -37 -241.5t-95 -196.5h-47z" />
    <glyph glyph-name="asterisk" unicode="*" horiz-adv-x="428" 
d="M213 513l-91 -119l-32 24l90 114l-140 47l14 34l138 -45v147h42v-147l140 45l14 -34l-140 -47l91 -114l-33 -24z" />
    <glyph glyph-name="plus" unicode="+" horiz-adv-x="533" 
d="M292 103h-51v199h-190v48h190v198h51l-1 -198h191v-48h-191z" />
    <glyph glyph-name="comma" unicode="," horiz-adv-x="170" 
d="M49 -78q21 8 28.5 25t7.5 53h-37v72h72v-72q0 -46 -14 -73t-57 -41v36z" />
    <glyph glyph-name="hyphen" unicode="-" horiz-adv-x="350" 
d="M309 231h-268v48h268v-48z" />
    <glyph glyph-name="period" unicode="." horiz-adv-x="176" 
d="M124 0h-72v72h72v-72z" />
    <glyph glyph-name="slash" unicode="/" horiz-adv-x="365" 
d="M65 0h-52l286 715h51z" />
    <glyph glyph-name="zero" unicode="0" horiz-adv-x="607" 
d="M161.5 35q-57.5 47 -85 128t-27.5 182q0 102 27.5 182.5t85 128t142.5 47.5t142 -47.5t84.5 -128t27.5 -182.5t-27.5 -182.5t-84.5 -127.5t-142 -47t-142.5 47zM452 123q48 86 48 222q0 137 -48 223t-148 86t-148.5 -86.5t-48.5 -222.5t48.5 -222t148.5 -86t148 86z" />
    <glyph glyph-name="one" unicode="1" horiz-adv-x="292" 
d="M154 562q-25 -28 -57.5 -36.5t-84.5 -8.5v47q81 1 114 31t36 96h47v-691h-55v562z" />
    <glyph glyph-name="two" unicode="2" horiz-adv-x="539" 
d="M34 0q0 94 52 165t149 125q14 8 21 11q69 38 104 62t56 58t21 83q0 63 -38 106.5t-113 43.5q-85 0 -131 -53.5t-46 -133.5h-57q0 64 27 118t80 86t128 32q60 0 107 -23.5t74 -68.5t27 -107q0 -60 -27 -103.5t-66.5 -71.5t-105.5 -65q-67 -37 -102.5 -61.5t-64 -62
t-31.5 -89.5v-2h393v-49h-457z" />
    <glyph glyph-name="three" unicode="3" horiz-adv-x="574" 
d="M106 52q-69 64 -69 176h58q0 -87 50 -139t147 -52q88 0 133 40t45 111q0 50 -23.5 83.5t-60 49.5t-75.5 16h-75v48h71q60 0 98 36t38 99q0 56 -37.5 95t-111.5 39q-97 0 -138 -47t-41 -117h-58q0 62 27 110t80.5 75.5t129.5 27.5q55 0 102.5 -22t76 -63.5t28.5 -97.5
q0 -59 -28 -96.5t-81 -59.5v-2q68 -21 102 -65.5t34 -108.5q0 -94 -63.5 -147t-169.5 -53q-120 0 -189 64z" />
    <glyph glyph-name="four" unicode="4" horiz-adv-x="548" 
d="M422 0h-55v174h-343v49l343 468h55v-468h101v-49h-101v-174zM367 610l-284 -387h284v387z" />
    <glyph glyph-name="five" unicode="5" horiz-adv-x="543" 
d="M144 16.5q-52 28.5 -78.5 74.5t-28.5 99h57q5 -69 49 -111t125 -42q80 0 129 49.5t49 144.5q0 89 -47 132.5t-124 43.5q-58 0 -101 -23.5t-65 -56.5h-60l74 364h346v-49h-302l-52 -252v-2q30 34 74.5 51t98.5 17q65 0 114 -29.5t75.5 -80.5t26.5 -115q0 -72 -29.5 -127
t-82.5 -85.5t-122 -30.5q-74 0 -126 28.5z" />
    <glyph glyph-name="six" unicode="6" horiz-adv-x="571" 
d="M112 76q-62 88 -62 252q0 182 66 278.5t189 96.5q84 0 140 -50t63 -131h-57q-6 62 -45 97t-101 35q-104 0 -152 -85t-48 -236v-31l2 -1q19 71 75.5 108.5t124.5 37.5q66 0 116 -28.5t77.5 -80t27.5 -117.5t-28 -119t-80 -83.5t-122 -30.5q-124 0 -186 88zM424.5 86.5
q45.5 49.5 45.5 131.5t-45 131t-122 49q-48 0 -89 -22t-66.5 -65t-25.5 -103q0 -46 20.5 -85t60.5 -62.5t95 -23.5q81 0 126.5 49.5z" />
    <glyph glyph-name="seven" unicode="7" horiz-adv-x="490" 
d="M124 0q0 108 31 227.5t94 229.5t152 184v2h-395v48h461v-42q-99 -78 -163 -190t-93 -231.5t-29 -227.5h-58z" />
    <glyph glyph-name="eight" unicode="8" horiz-adv-x="582" 
d="M167.5 12q-56.5 24 -90 70t-33.5 111q0 67 37.5 111t100.5 68v2q-48 21 -76.5 58.5t-28.5 92.5q0 83 60 130.5t154 47.5q95 0 155 -47.5t60 -130.5q0 -55 -29.5 -92t-76.5 -59v-2q63 -24 100.5 -68t37.5 -111q0 -65 -33.5 -111t-90 -70t-123.5 -24t-123.5 24zM405 430.5
q43 33.5 43 94.5q0 62 -43 95.5t-114 33.5q-70 0 -113 -33.5t-43 -95.5q0 -61 43 -94.5t113 -33.5q71 0 114 33.5zM426.5 79.5q53.5 42.5 53.5 114.5q0 71 -53.5 113t-135.5 42t-135.5 -42t-53.5 -113q0 -72 53.5 -114.5t135.5 -42.5t135.5 42.5z" />
    <glyph glyph-name="nine" unicode="9" horiz-adv-x="572" 
d="M126 38.5q-56 50.5 -62 130.5h56q6 -62 45 -97t102 -35q103 0 151 85t48 236v31l-1 1q-20 -71 -76.5 -108.5t-123.5 -37.5q-66 0 -116 28.5t-77.5 80t-27.5 117.5t28 119t80 83.5t122 30.5q124 0 185.5 -88t61.5 -252q0 -182 -65.5 -278.5t-188.5 -96.5q-85 0 -141 50.5z
M357.5 315q41.5 22 66.5 65t25 103q0 46 -20.5 85t-60 62.5t-94.5 23.5q-81 0 -126.5 -49.5t-45.5 -131.5t44.5 -131t121.5 -49q48 0 89.5 22z" />
    <glyph glyph-name="colon" unicode=":" horiz-adv-x="184" 
d="M128 304h-72v72h72v-72zM128 0h-72v72h72v-72z" />
    <glyph glyph-name="semicolon" unicode=";" horiz-adv-x="184" 
d="M128 305h-72v72h72v-72zM57 -78q21 8 28.5 25t7.5 53h-37v72h72v-72q0 -46 -14 -73t-57 -41v36z" />
    <glyph glyph-name="less" unicode="&#x3c;" horiz-adv-x="504" 
d="M444 166v-52l-397 169v60l397 166v-51l-351 -144v-2z" />
    <glyph glyph-name="equal" unicode="=" horiz-adv-x="532" 
d="M480 372h-428v48h428v-48zM480 231h-428v48h428v-48z" />
    <glyph glyph-name="greater" unicode="&#x3e;" horiz-adv-x="504" 
d="M457 281l-397 -167v52l351 144v2l-351 146v51l397 -168v-60z" />
    <glyph glyph-name="question" unicode="?" horiz-adv-x="463" 
d="M179 177q0 62 13 101.5t36 66t67 63.5q34 29 50.5 46t29 42t12.5 58q0 55 -38 89t-105 34q-78 0 -125 -46t-47 -132h-55q0 64 26.5 115.5t77 82t121.5 30.5q90 0 145.5 -47t55.5 -125q0 -43 -17 -76t-37.5 -53t-57.5 -50q-36 -31 -55 -53t-30.5 -56.5t-11.5 -89.5h-55z
M246 0h-72v72h72v-72z" />
    <glyph glyph-name="at" unicode="@" horiz-adv-x="863" 
d="M634.5 663.5q87.5 -45.5 138.5 -130t51 -196.5q0 -79 -23.5 -136t-63 -86t-86.5 -29q-52 0 -79 30t-28 78q-21 -51 -58.5 -80.5t-90.5 -29.5q-50 0 -88 25t-59.5 71.5t-21.5 107.5q0 63 24 115.5t67.5 83.5t100.5 31q51 0 89.5 -29.5t52.5 -79.5h1l12 100h44l-34 -270
q-2 -18 -2 -26q0 -40 18 -61.5t55 -21.5q56 0 89.5 57t33.5 149q0 100 -44.5 175t-121 114.5t-171.5 39.5q-101 0 -182.5 -48.5t-128.5 -134t-47 -191.5q0 -103 43.5 -181.5t121 -122t178.5 -43.5q103 0 187 37l17 -38q-88 -44 -205 -44q-114 0 -202.5 48.5t-137.5 137.5
t-49 206q0 122 54 217.5t147 148t204 52.5q107 0 194.5 -45.5zM506 184.5q39 56.5 39 140.5q0 70 -34.5 109t-87.5 39q-48 0 -81.5 -26t-50.5 -68.5t-17 -91.5q0 -71 33 -115t93 -44q67 0 106 56.5z" />
    <glyph glyph-name="A" unicode="A" horiz-adv-x="625" 
d="M68 0h-57l270 715h62l273 -715h-59l-81 217h-327zM311 660l-144 -394h291l-145 394h-2z" />
    <glyph glyph-name="B" unicode="B" horiz-adv-x="648" 
d="M79 0v715h282q102 0 160 -47.5t58 -131.5q0 -59 -30.5 -97.5t-85.5 -56.5v-2q66 -14 105.5 -60t39.5 -118q0 -100 -62 -151t-168 -51h-299zM378 400q69 0 106 36t37 96q0 62 -39 98t-113 36h-235v-266h244zM378 49q85 0 128.5 39t43.5 114q0 68 -42.5 108.5t-113.5 40.5
h-260v-302h244z" />
    <glyph glyph-name="C" unicode="C" horiz-adv-x="690" 
d="M197.5 34.5q-73.5 46.5 -114.5 130.5t-41 192q0 107 41 191t115 131.5t170 47.5q78 0 139 -30t98.5 -82.5t48.5 -120.5h-58q-13 78 -71 131t-157 53q-85 0 -146 -43t-92 -116t-31 -162t31 -162t91.5 -115.5t144.5 -42.5q108 0 167.5 61.5t67.5 152.5h58
q-9 -78 -47 -137.5t-101.5 -92.5t-144.5 -33q-95 0 -168.5 46.5z" />
    <glyph glyph-name="D" unicode="D" horiz-adv-x="684" 
d="M79 0v715h257q99 0 167.5 -45t102.5 -126t34 -189q0 -107 -35 -187t-104.5 -124t-168.5 -44h-253zM331 49q127 0 189 83t62 223q0 142 -60.5 226.5t-186.5 84.5h-201v-617h197z" />
    <glyph glyph-name="E" unicode="E" horiz-adv-x="593" 
d="M564 0h-485v715h474v-49h-419v-266h379v-48h-379v-303h430v-49z" />
    <glyph glyph-name="F" unicode="F" horiz-adv-x="558" 
d="M134 0h-55v715h470v-49h-415v-273h348v-48h-348v-345z" />
    <glyph glyph-name="G" unicode="G" horiz-adv-x="726" 
d="M190.5 35.5q-72.5 47.5 -110 131t-37.5 190.5q0 105 40 189t115 132.5t177 48.5q119 0 193.5 -59t93.5 -162h-56q-17 80 -78.5 126t-152.5 46q-90 0 -151.5 -45t-92 -118t-30.5 -158q0 -88 27.5 -160.5t87 -116t150.5 -43.5q75 0 132.5 34.5t89 96.5t31.5 144h-242v49
h297v-361h-40l-14 154h-2q-29 -76 -92 -121t-160 -45q-103 0 -175.5 47.5z" />
    <glyph glyph-name="H" unicode="H" horiz-adv-x="695" 
d="M134 0h-55v715h55v-314h427v314h55v-715h-55v352h-427v-352z" />
    <glyph glyph-name="I" unicode="I" horiz-adv-x="213" 
d="M134 0h-55v715h55v-715z" />
    <glyph glyph-name="J" unicode="J" horiz-adv-x="486" 
d="M70 46.5q-48 58.5 -48 149.5v26h56v-26q0 -76 34 -117.5t104 -41.5q71 0 106 42t35 117v519h55v-519q0 -91 -48.5 -149.5t-147.5 -58.5q-98 0 -146 58.5z" />
    <glyph glyph-name="K" unicode="K" horiz-adv-x="619" 
d="M628 0h-64l-280 376l-150 -157v-219h-55v715h55v-430l410 430h63l-288 -302z" />
    <glyph glyph-name="L" unicode="L" horiz-adv-x="544" 
d="M530 0h-451v715h55v-666h396v-49z" />
    <glyph glyph-name="M" unicode="M" horiz-adv-x="834" 
d="M134 0h-55v715h77l260 -641h2l260 641h77v-715h-55v636h-2l-255 -636h-53l-254 636h-2v-636z" />
    <glyph glyph-name="N" unicode="N" horiz-adv-x="699" 
d="M134 0h-55v715h68l416 -638h2v638h55v-715h-68l-416 637h-2v-637z" />
    <glyph glyph-name="O" unicode="O" horiz-adv-x="758" 
d="M203 35.5q-77 47.5 -119 131.5t-42 191t42 191t119 131t176 47t176 -47t119 -131t42 -191t-42 -191t-119 -131.5t-176 -47.5t-176 47.5zM527 78.5q63 41.5 97 114.5t34 165t-34 165t-97 114t-148 41t-148 -41t-97 -114t-34 -165t34 -165t97 -114.5t148 -41.5t148 41.5z
" />
    <glyph glyph-name="P" unicode="P" horiz-adv-x="599" 
d="M79 0v715h266q105 0 166.5 -49t61.5 -156t-61.5 -156t-166.5 -49h-211v-305h-55zM353 354q162 0 162 156t-162 156h-219v-312h219z" />
    <glyph glyph-name="Q" unicode="Q" horiz-adv-x="758" 
d="M690 203.5q-26 -70.5 -75 -120.5l88 -88l-35 -35l-91 91q-83 -63 -198 -63q-99 0 -176 47.5t-119 131.5t-42 191t42 191t119 131t176 47t176 -47t119 -131t42 -191q0 -84 -26 -154.5zM540 88l-98 98l35 35l100 -100q39 44 60 104.5t21 132.5q0 92 -34 165t-97 114
t-148 41t-148 -41t-97 -114t-34 -165t34 -165t97 -114.5t148 -41.5q95 0 161 51z" />
    <glyph glyph-name="R" unicode="R" horiz-adv-x="633" 
d="M79 0v715h271q112 0 172 -50.5t60 -147.5q0 -74 -37 -121.5t-100 -63.5v-2q52 -11 80 -50.5t37.5 -86t15.5 -110.5q4 -39 7.5 -56.5t11.5 -20.5v-6h-58q-7 6 -9.5 22t-5.5 52q-4 66 -14.5 113t-44.5 82.5t-100 35.5h-231v-305h-55zM336 353q91 0 141 41t50 122
q0 76 -45 113t-139 37h-209v-313h202z" />
    <glyph glyph-name="S" unicode="S" horiz-adv-x="607" 
d="M118.5 52q-81.5 64 -88.5 182h58q7 -93 67.5 -145.5t170.5 -52.5q96 0 142.5 43t47.5 111q0 55 -25 85.5t-71.5 47t-136.5 35.5q-71 15 -119 35.5t-76.5 58t-28.5 96.5q0 84 63.5 131.5t169.5 47.5q113 0 181 -55.5t75 -156.5h-58q-18 163 -197 163q-83 0 -129.5 -34
t-46.5 -95q0 -48 24.5 -76t65 -42.5t112.5 -29.5q87 -18 140.5 -40.5t84 -63t30.5 -106.5q0 -57 -28 -103t-83.5 -73t-134.5 -27q-128 0 -209.5 64z" />
    <glyph glyph-name="T" unicode="T" horiz-adv-x="580" 
d="M318 0h-55v666h-249v49h552v-49h-248v-666z" />
    <glyph glyph-name="U" unicode="U" horiz-adv-x="674" 
d="M138 55q-65 67 -65 189v471h55v-471q0 -105 52 -156t157 -51t157 51t52 156v471h55v-471q0 -122 -65 -189t-199 -67t-199 67z" />
    <glyph glyph-name="V" unicode="V" horiz-adv-x="609" 
d="M332 0h-54l-267 715h61l233 -654h1l232 654h58z" />
    <glyph glyph-name="W" unicode="W" horiz-adv-x="884" 
d="M261 0h-61l-182 715h58l157 -636h2l176 636h63l176 -636h2l157 636h57l-182 -715h-61l-179 645h-3z" />
    <glyph glyph-name="X" unicode="X" horiz-adv-x="565" 
d="M67 0h-66l249 368l-233 347h64l202 -306h1l203 306h63l-236 -349l250 -366h-65l-220 326h-1z" />
    <glyph glyph-name="Y" unicode="Y" horiz-adv-x="607" 
d="M331 0h-55v293l-262 422h61l227 -376h3l229 376h60l-263 -422v-293z" />
    <glyph glyph-name="Z" unicode="Z" horiz-adv-x="574" 
d="M555 0h-539v49l461 615v2h-442v49h510v-49l-461 -615v-2h471v-49z" />
    <glyph glyph-name="bracketleft" unicode="[" horiz-adv-x="250" 
d="M234 -117h-161v872h161v-49h-105v-774h105v-49z" />
    <glyph glyph-name="backslash" unicode="\" horiz-adv-x="365" 
d="M351 0h-51l-286 715h51z" />
    <glyph glyph-name="bracketright" unicode="]" horiz-adv-x="250" 
d="M176 -117h-161v49h106v774h-106v49h161v-872z" />
    <glyph glyph-name="asciicircum" unicode="^" horiz-adv-x="445" 
d="M86 440h-57l167 275h53l167 -275h-56l-137 228h-1z" />
    <glyph glyph-name="underscore" unicode="_" horiz-adv-x="541" 
d="M525 -134h-509v49h509v-49z" />
    <glyph glyph-name="grave" unicode="`" horiz-adv-x="201" 
d="M160 595h-43l-78 130h62z" />
    <glyph glyph-name="a" unicode="a" horiz-adv-x="507" 
d="M79.5 26q-45.5 38 -45.5 101q0 74 48 109.5t154 53.5l22 3q45 7 70 14t41 24t16 48q0 47 -32.5 72.5t-92.5 25.5q-74 0 -109.5 -29.5t-39.5 -87.5h-53q4 69 52.5 115t150.5 46q78 0 125.5 -37.5t47.5 -121.5v-266q0 -32 6.5 -46t25.5 -14q2 0 16 2v-38q-15 -3 -30 -3
q-33 0 -49.5 18t-17.5 64h-2q-55 -91 -183 -91q-75 0 -120.5 38zM338 74.5q47 43.5 47 110.5v110q-10 -18 -46 -28.5t-94 -18.5q-80 -13 -119 -38t-39 -76t30.5 -77t90.5 -26q83 0 130 43.5z" />
    <glyph glyph-name="b" unicode="b" horiz-adv-x="552" 
d="M410 491q50 -32 79 -92.5t29 -142.5q0 -81 -29 -141.5t-79.5 -92.5t-111.5 -32q-68 0 -114 32t-70 85h-2v-107h-50v715h50v-306h2q25 50 71 82t114 32q61 0 111 -32zM418 96q47 62 47 160q0 99 -47 161t-127 62q-51 0 -91.5 -27t-64 -78t-23.5 -118t23.5 -117.5t64 -77.5
t91.5 -27q80 0 127 62z" />
    <glyph glyph-name="c" unicode="c" horiz-adv-x="518" 
d="M150 20.5q-55 33.5 -85.5 94t-30.5 139.5t30.5 139t85.5 93.5t126 33.5q59 0 105.5 -24.5t74.5 -66.5t34 -93h-53q-2 32 -20 64.5t-54 54.5t-87 22q-62 0 -105 -31t-64 -82t-21 -110t21 -110t64 -82t105 -31q52 0 87.5 22t53.5 55t20 67h53q-4 -52 -31.5 -95t-75 -68
t-107.5 -25q-71 0 -126 33.5z" />
    <glyph glyph-name="d" unicode="d" horiz-adv-x="552" 
d="M440 715h50v-715h-50v102h-2q-25 -50 -71 -82t-114 -32q-61 0 -111 32t-79 92.5t-29 142.5q0 81 29 141t79.5 92t111.5 32q68 0 114 -32t70 -85h2v312zM352.5 58.5q40.5 27.5 64 78.5t23.5 118q0 66 -23.5 116.5t-64 78t-91.5 27.5q-53 0 -92.5 -28.5t-60.5 -79
t-21 -114.5q0 -99 47 -161.5t127 -62.5q51 0 91.5 27.5z" />
    <glyph glyph-name="e" unicode="e" horiz-adv-x="529" 
d="M87 250v-2q0 -93 48 -155.5t138 -62.5q75 0 115 39t50 86h52q-19 -75 -74 -121.5t-144 -46.5q-74 0 -127.5 34t-82 94.5t-28.5 138.5q0 81 29.5 141t84 93t126.5 33q70 0 120 -31t76.5 -85.5t26.5 -123.5q0 -23 -1 -31h-409zM177 453q-41 -25 -64 -67t-26 -93h357
q0 51 -19.5 93t-59 67t-94.5 25q-53 0 -94 -25z" />
    <glyph glyph-name="f" unicode="f" horiz-adv-x="249" 
d="M165 670q-14 -7 -19.5 -25t-5.5 -55v-80h105v-44h-105v-466h-50v466h-73v44h73v81q0 76 26 103t84 27q20 0 45 -4v-42q-32 2 -38 2q-28 0 -42 -7z" />
    <glyph glyph-name="g" unicode="g" horiz-adv-x="551" 
d="M440 511h50v-481q0 -105 -59.5 -159t-164.5 -54q-97 0 -153.5 42.5t-62.5 108.5h52q9 -47 49.5 -77t115.5 -30q83 0 128 39.5t45 120.5v108h-2q-23 -48 -70 -77.5t-111 -29.5q-61 0 -111 28t-80 84.5t-30 138.5q0 81 30 136.5t80 83t111 27.5q64 0 111 -29t70 -78h2v98z
M352.5 89q39.5 23 63.5 69.5t24 114.5q0 66 -24 112t-63.5 69t-86.5 23q-80 0 -128.5 -54t-48.5 -150q0 -98 48.5 -152.5t128.5 -54.5q47 0 86.5 23z" />
    <glyph glyph-name="h" unicode="h" horiz-adv-x="516" 
d="M412 479q46 -41 46 -119v-360h-50v352q0 54 -29 89.5t-96 35.5q-49 0 -88 -22.5t-61 -57.5t-22 -71v-326h-50v715h50v-289h2q26 41 71 67.5t110 26.5q71 0 117 -41z" />
    <glyph glyph-name="i" unicode="i" horiz-adv-x="174" 
d="M112 0h-50v510h50v-510zM123 614h-72v72h72v-72z" />
    <glyph glyph-name="j" unicode="j" horiz-adv-x="174" 
d="M-22 -176v42q28 -2 35 -2q27 0 38 17t11 63v566h50v-567q0 -123 -89 -123q-22 0 -45 4zM123 614h-72v72h72v-72z" />
    <glyph glyph-name="k" unicode="k" horiz-adv-x="461" 
d="M474 0h-60l-206 289l-96 -91v-198h-50v715h50v-462l269 257h63l-202 -190z" />
    <glyph glyph-name="l" unicode="l" horiz-adv-x="174" 
d="M112 0h-50v715h50v-715z" />
    <glyph glyph-name="m" unicode="m" horiz-adv-x="794" 
d="M697 478.5q39 -41.5 39 -119.5v-359h-50v351q0 57 -22.5 91t-83.5 34q-47 0 -82.5 -22.5t-54.5 -57t-19 -71.5v-325h-50v351q0 57 -22.5 91t-83.5 34q-47 0 -82.5 -22.5t-54.5 -57t-19 -71.5v-325h-50v510h50v-83h2q22 40 63 66.5t99 26.5q53 0 89 -25.5t49 -74.5h2
q26 44 69.5 72t102.5 28q70 0 109 -41.5z" />
    <glyph glyph-name="n" unicode="n" horiz-adv-x="516" 
d="M412 479q46 -41 46 -119v-360h-50v352q0 54 -29 89.5t-96 35.5q-49 0 -88 -22.5t-61 -57.5t-22 -71v-326h-50v510h50v-84h2q26 41 71 67.5t110 26.5q71 0 117 -41z" />
    <glyph glyph-name="o" unicode="o" horiz-adv-x="549" 
d="M146.5 20.5q-54.5 33.5 -83.5 94t-29 139.5t29 139.5t83.5 94t128.5 33.5q73 0 127.5 -33.5t83.5 -94t29 -139.5t-29 -139.5t-83.5 -94t-127.5 -33.5q-74 0 -128.5 33.5zM413.5 92.5q48.5 62.5 48.5 161.5t-48.5 161t-138.5 62q-91 0 -140 -62t-49 -161t49.5 -161.5
t139.5 -62.5t138.5 62.5z" />
    <glyph glyph-name="p" unicode="p" horiz-adv-x="552" 
d="M410 490q50 -32 79 -92.5t29 -142.5q0 -81 -29 -141t-79.5 -92t-111.5 -32q-68 0 -114 32t-70 85h-2v-284h-50v687h50v-102h2q25 50 71 82t114 32q61 0 111 -32zM383.5 61.5q39.5 28.5 60.5 79t21 114.5q0 99 -47 161.5t-127 62.5q-51 0 -91.5 -27.5t-64 -78.5
t-23.5 -118q0 -66 23.5 -116.5t64 -78t91.5 -27.5q53 0 92.5 28.5z" />
    <glyph glyph-name="q" unicode="q" horiz-adv-x="551" 
d="M440 511h50v-688h-50v279h-2q-25 -50 -71 -82t-114 -32q-61 0 -111 32t-79 92.5t-29 142.5q0 81 29 141t79.5 92t111.5 32q68 0 114 -32t70 -85h2v108zM352.5 58.5q40.5 27.5 64 78.5t23.5 118q0 66 -23.5 116.5t-64 78t-91.5 27.5q-53 0 -92.5 -28.5t-60.5 -79
t-21 -114.5q0 -99 47 -161.5t127 -62.5q51 0 91.5 27.5z" />
    <glyph glyph-name="r" unicode="r" horiz-adv-x="313" 
d="M305 517v-48q-13 3 -30 3q-45 0 -82 -22.5t-59 -62.5t-22 -89v-298h-50v510h50v-106h2q19 52 58.5 84t91.5 32q23 0 41 -3z" />
    <glyph glyph-name="s" unicode="s" horiz-adv-x="466" 
d="M128 11q-49 23 -75 63t-28 89h53q3 -60 46 -96t122 -36q69 0 104.5 29.5t35.5 76.5q0 34 -17 53.5t-43 29.5t-71 21l-27 7q-64 17 -100 31t-60 40.5t-24 69.5q0 61 46 96t130 35q93 0 142.5 -42t57.5 -107h-52q-23 106 -148 106q-57 0 -90 -21.5t-33 -62.5
q0 -32 19.5 -50t46 -26.5t89.5 -24.5q64 -17 101.5 -32.5t61.5 -44.5t24 -76q0 -69 -52 -110t-143 -41q-67 0 -116 23z" />
    <glyph glyph-name="t" unicode="t" horiz-adv-x="265" 
d="M244 466h-108v-338q0 -37 6 -55.5t21 -25.5t44 -7q16 0 37 3v-42q-24 -4 -44 -4q-59 0 -86.5 27.5t-27.5 102.5v339h-75v44h75v170h50v-170h108v-44z" />
    <glyph glyph-name="u" unicode="u" horiz-adv-x="516" 
d="M404 510h50v-510h-50v83h-2q-26 -41 -70.5 -67t-110.5 -26q-71 0 -117 41t-46 119v360h50v-352q0 -54 29 -89.5t96 -35.5q49 0 88 22.5t61 57.5t22 71v326z" />
    <glyph glyph-name="v" unicode="v" horiz-adv-x="461" 
d="M260 0h-58l-191 510h55l165 -458h1l165 458h53z" />
    <glyph glyph-name="w" unicode="w" horiz-adv-x="725" 
d="M235 0h-59l-162 510h55l136 -452h2l126 452h59l127 -452h2l137 452h54l-163 -510h-59l-127 448h-2z" />
    <glyph glyph-name="x" unicode="x" horiz-adv-x="458" 
d="M56 0h-61l202 261l-186 249h61l156 -214h2l155 214h60l-185 -249l203 -261h-61l-173 228h-2z" />
    <glyph glyph-name="y" unicode="y" horiz-adv-x="469" 
d="M53 -175v43q21 -3 40 -3q40 0 67.5 30.5t51.5 105.5l-206 509h56l174 -444h1l168 444h53l-203 -524q-25 -64 -47.5 -99.5t-48.5 -50.5t-61 -15q-18 0 -45 4z" />
    <glyph glyph-name="z" unicode="z" horiz-adv-x="430" 
d="M412 0h-396v40l318 424v2h-302v44h370v-35l-322 -429v-2h332v-44z" />
    <glyph glyph-name="braceleft" unicode="{" horiz-adv-x="261" 
d="M226 -117q-51 0 -79.5 18t-40.5 57t-12 105v133q0 47 -18.5 73t-51.5 26v48q33 -1 51.5 25t18.5 73v138q0 66 12 104t40.5 55t79.5 17h15v-49h-15q-30 0 -46.5 -11.5t-23 -39t-6.5 -79.5v-149q0 -40 -16 -65.5t-45 -41.5v-2q29 -16 45 -41.5t16 -66.5v-144q0 -53 7 -81.5
t23 -40.5t46 -12h15v-49h-15z" />
    <glyph glyph-name="bar" unicode="|" horiz-adv-x="205" 
d="M126 -128h-47v872h47v-872z" />
    <glyph glyph-name="braceright" unicode="}" horiz-adv-x="261" 
d="M21 -117v49h14q30 0 46.5 11.5t23.5 39t7 79.5v149q0 40 15.5 65.5t44.5 41.5v2q-29 16 -44.5 41.5t-15.5 66.5v144q0 53 -7 81.5t-23.5 40.5t-46.5 12h-14v49h14q51 0 79.5 -18t40.5 -57t12 -105v-133q0 -47 18.5 -73t51.5 -26v-48q-33 1 -51.5 -25t-18.5 -73v-138
q0 -66 -12 -104t-40.5 -55t-79.5 -17h-14z" />
    <glyph glyph-name="asciitilde" unicode="~" horiz-adv-x="426" 
d="M57 283q2 46 24 73.5t59 27.5q22 0 41 -8.5t42 -23.5q22 -13 33 -18.5t24 -5.5q21 0 31.5 15t11.5 38h47q-2 -46 -24 -73t-59 -27q-22 0 -39.5 8t-43.5 24q-19 12 -31 18t-25 6q-21 0 -31.5 -15.5t-12.5 -38.5h-47z" />
    <glyph glyph-name="uni00A0" unicode="&#xa0;" horiz-adv-x="224" 
 />
    <glyph glyph-name="exclamdown" unicode="&#xa1;" horiz-adv-x="197" 
d="M134 514h-71v71h71v-71zM128 -130h-60v227l14 304h32l14 -304v-227z" />
    <glyph glyph-name="cent" unicode="&#xa2;" horiz-adv-x="548" 
d="M311 136q68 5 104.5 48t39.5 95h53q-4 -50 -29.5 -91t-69 -67t-98.5 -29v-87h-44v87q-64 6 -112.5 41t-75.5 93t-27 132q0 73 27 131t75.5 93t112.5 41v83h44v-83q82 -5 135.5 -56.5t61.5 -126.5h-53q-2 30 -18.5 61t-48 53t-77.5 26v-444zM146 210q42 -63 121 -73v442
q-79 -10 -121 -73.5t-42 -147.5q0 -85 42 -148z" />
    <glyph glyph-name="sterling" unicode="&#xa3;" horiz-adv-x="559" 
d="M529 50q-34 -31 -61.5 -46.5t-69.5 -15.5q-28 0 -50 8t-54 24q-26 15 -45 22t-41 7q-60 0 -134 -49l-30 41q43 33 69 85.5t26 115.5q0 28 -9 53h-82v46h64q-4 9 -18 40t-21.5 62t-7.5 61q0 45 24 89.5t75 74t126 29.5q111 0 168 -62t57 -159h-56q0 82 -44 127t-125 45
q-75 0 -122.5 -40.5t-47.5 -110.5q0 -33 9.5 -62t27.5 -66l12 -28h172v-46h-155q8 -27 8 -55q0 -51 -19.5 -96.5t-54.5 -76.5l1 -2q54 30 100 30q26 0 48 -8t49 -22q25 -13 41 -19t35 -6q32 0 55.5 13t53.5 39z" />
    <glyph glyph-name="currency" unicode="&#xa4;" horiz-adv-x="517" 
d="M408 221l62 -65l-29 -29l-62 63q-54 -43 -121 -43q-69 0 -121 43l-62 -63l-28 28l61 64q-39 52 -39 125q0 74 40 125l-62 65l28 28l62 -64q52 43 121 43q32 0 63.5 -11t56.5 -32l62 64l30 -29l-63 -64q39 -52 39 -125q0 -72 -38 -123zM356 231.5q39 39.5 39 112.5
t-39 112.5t-98 39.5t-98.5 -39.5t-39.5 -112.5t39.5 -112.5t98.5 -39.5t98 39.5z" />
    <glyph glyph-name="yen" unicode="&#xa5;" horiz-adv-x="578" 
d="M489 686h61l-227 -390h186v-41h-193v-77h193v-40h-193v-138h-55v138h-192v40h192v77h-192v41h185l-225 390h59l200 -354h2z" />
    <glyph glyph-name="brokenbar" unicode="&#xa6;" horiz-adv-x="205" 
d="M126 384h-47v360h47v-360zM126 -128h-47v373h47v-373z" />
    <glyph glyph-name="section" unicode="&#xa7;" horiz-adv-x="575" 
d="M498.5 121q-29.5 -35 -81.5 -47q57 -49 57 -115q0 -64 -46 -105.5t-133 -41.5q-97 0 -144 47t-50 124h52q3 -58 34.5 -92t105.5 -34q64 0 97 26t33 71q0 31 -17.5 56t-44.5 43.5t-73 44.5l-24 14l-53 30q-63 36 -93.5 57.5t-50.5 52t-20 72.5q0 55 29.5 90.5t82.5 47.5
q-28 24 -43 51.5t-15 62.5q0 64 46 105.5t133 41.5q98 0 144.5 -47t49.5 -124h-52q-3 58 -33.5 92.5t-106.5 34.5q-64 0 -97 -26t-33 -71q0 -33 18 -58t44.5 -43t74.5 -45l24 -13l53 -30q58 -32 90.5 -55t52 -53.5t19.5 -73.5q0 -55 -29.5 -90zM450 135q27 25 27 70
q0 34 -19 59.5t-45.5 43.5t-75.5 45l-58 33q-54 30 -77 45q-104 -13 -104 -101q0 -34 18.5 -59t44.5 -42t79 -47l58 -32q47 -26 76 -45q49 5 76 30z" />
    <glyph glyph-name="dieresis" unicode="&#xa8;" horiz-adv-x="299" 
d="M114 614h-72v72h72v-72zM254 614h-72v72h72v-72z" />
    <glyph glyph-name="copyright" unicode="&#xa9;" horiz-adv-x="846" 
d="M229.5 34q-84.5 46 -131 130t-46.5 193t46.5 193t131 130.5t194.5 46.5q109 0 193 -46.5t130.5 -130.5t46.5 -193t-46.5 -193t-130.5 -130t-193 -46q-110 0 -194.5 46zM592 71q73 41 113.5 115.5t40.5 170.5q0 97 -40.5 171.5t-113.5 115.5t-168 41q-96 0 -169.5 -41
t-114 -115.5t-40.5 -171.5q0 -96 40.5 -170.5t114.5 -115.5t169 -41t168 41zM319.5 157q-46.5 29 -71.5 81t-25 118q0 67 24.5 119t70.5 81.5t108 29.5q78 0 126.5 -41.5t57.5 -105.5h-47q-7 40 -41.5 71t-94.5 31q-76 0 -115.5 -51.5t-39.5 -133.5q0 -81 39.5 -132
t115.5 -51q65 0 99.5 34t39.5 82h46q-5 -72 -54.5 -116.5t-128.5 -44.5q-63 0 -109.5 29z" />
    <glyph glyph-name="ordfeminine" unicode="&#xaa;" horiz-adv-x="418" 
d="M70.5 346.5q-33.5 28.5 -33.5 79.5q0 53 36.5 77t119.5 39q56 9 81.5 23t25.5 50q0 32 -24.5 50.5t-69.5 18.5q-98 0 -105 -89h-47q3 54 41 90.5t115 36.5q61 0 98.5 -29.5t37.5 -93.5v-197q0 -23 4 -33t16 -10q9 0 13 1v-32q-13 -4 -27 -4q-26 0 -38.5 14.5t-13.5 49.5
h-2q-21 -35 -57.5 -52.5t-79.5 -17.5q-57 0 -90.5 28.5zM264.5 389.5q35.5 32.5 35.5 79.5v79q-9 -15 -32 -23.5t-70 -16.5q-58 -11 -86 -27t-28 -53q0 -34 22 -52.5t65 -18.5q58 0 93.5 32.5z" />
    <glyph glyph-name="guillemotleft" unicode="&#xab;" horiz-adv-x="455" 
d="M235 135v-60l-192 160v62l192 159v-60l-161 -130v-2zM399 135v-60l-192 160v62l192 159v-60l-160 -130v-2z" />
    <glyph glyph-name="logicalnot" unicode="&#xac;" horiz-adv-x="508" 
d="M442 146h-55v194h-341v49h396v-243z" />
    <glyph glyph-name="uni00AD" unicode="&#xad;" horiz-adv-x="350" 
d="M309 231h-268v48h268v-48z" />
    <glyph glyph-name="registered" unicode="&#xae;" horiz-adv-x="572" 
d="M167 282q-54 31 -85.5 86t-31.5 123t31.5 122.5t85.5 86t119 31.5t119 -31.5t85.5 -86t31.5 -122.5t-31.5 -123t-85.5 -86t-119 -31t-119 31zM387 308q46 27 73 74.5t27 108.5q0 60 -27 107.5t-73 74.5t-101 27t-101 -27t-73 -74.5t-27 -107.5q0 -61 27 -108.5t73 -74.5
t101 -27t101 27zM192 362v262h109q41 0 64 -19.5t23 -54.5q0 -25 -15.5 -42t-43.5 -24v-1q27 -5 36.5 -26.5t15.5 -56.5q2 -16 4 -24.5t7 -10.5v-3h-44q-6 4 -8.5 13.5t-4.5 26.5q-3 31 -12 48t-37 17h-49v-105h-45zM291 504q27 0 40.5 10t13.5 33q0 22 -13.5 31t-40.5 9
h-54v-83h54z" />
    <glyph glyph-name="macron" unicode="&#xaf;" horiz-adv-x="320" 
d="M280 627h-240v45h240v-45z" />
    <glyph glyph-name="degree" unicode="&#xb0;" horiz-adv-x="383" 
d="M108 450.5q-34 22.5 -51 57t-17 70.5t17 70.5t51 57t84 22.5q49 0 83 -22.5t51 -57t17 -70.5t-17 -70.5t-51 -57t-83 -22.5q-50 0 -84 22.5zM270.5 499.5q29.5 30.5 29.5 78.5q0 47 -29.5 77.5t-78.5 30.5q-50 0 -79 -30t-29 -78t29 -78.5t79 -30.5q49 0 78.5 30.5z" />
    <glyph glyph-name="plusminus" unicode="&#xb1;" horiz-adv-x="533" 
d="M292 125h-51v199h-190v48h190v198h51l-1 -198h191v-48h-191zM482 -3h-431v48h431v-48z" />
    <glyph glyph-name="uni00B2" unicode="&#xb2;" horiz-adv-x="332" 
d="M22 363q0 53 28 92.5t81 71.5l26 16q51 30 74 53t23 61q0 34 -20 57t-60 23q-46 0 -70 -28.5t-24 -74.5h-48q0 61 37.5 102t106.5 41q56 0 91.5 -31.5t35.5 -85.5q0 -36 -15.5 -61.5t-38 -43t-61.5 -41.5q-6 -4 -36.5 -22t-48 -40.5t-20.5 -47.5v-1h218v-40h-279z" />
    <glyph glyph-name="uni00B3" unicode="&#xb3;" horiz-adv-x="352" 
d="M65.5 400q-41.5 38 -41.5 105h48q0 -48 26.5 -75.5t79.5 -27.5q46 0 70 21t24 58q0 41 -25.5 60.5t-62.5 19.5h-39v39h37q34 0 55.5 18.5t21.5 52.5q0 31 -21 51.5t-60 20.5q-49 0 -71.5 -24.5t-22.5 -62.5h-48q0 56 38 91.5t106 35.5q53 0 90.5 -29.5t37.5 -79.5
q0 -64 -64 -91v-1q39 -12 58.5 -38.5t19.5 -63.5q0 -56 -38.5 -87t-102.5 -31q-74 0 -115.5 38z" />
    <glyph glyph-name="acute" unicode="&#xb4;" horiz-adv-x="201" 
d="M81 595h-44l63 130h63z" />
    <glyph glyph-name="uni00B5" unicode="&#xb5;" horiz-adv-x="540" 
d="M418 510h50v-510h-50v83h-2q-25 -40 -69 -66.5t-107 -26.5q-75 0 -118 44v-211h-50v687h50v-352q0 -54 29 -89.5t97 -35.5q49 0 88 22.5t60.5 57.5t21.5 71v326z" />
    <glyph glyph-name="paragraph" unicode="&#xb6;" horiz-adv-x="496" 
d="M240 0v365h-42q-86 0 -132.5 43t-46.5 131t47 132t132 44h218v-715h-47v666h-81v-666h-48z" />
    <glyph glyph-name="periodcentered" unicode="&#xb7;" horiz-adv-x="181" 
d="M127 216h-72v72h72v-72z" />
    <glyph glyph-name="cedilla" unicode="&#xb8;" horiz-adv-x="278" 
d="M40 -162l16 21q36 -18 74 -18q29 0 45 11t16 32q0 35 -44 35q-25 0 -45 -9l-12 17l60 73h39l-44 -54v-2q8 2 23 2q31 0 50.5 -16.5t19.5 -45.5q0 -36 -27.5 -55t-70.5 -19q-55 0 -100 28z" />
    <glyph glyph-name="uni00B9" unicode="&#xb9;" horiz-adv-x="194" 
d="M95 681q-14 -14 -34 -18.5t-50 -4.5v39q46 0 68.5 17t23.5 56h40v-406h-48v317z" />
    <glyph glyph-name="ordmasculine" unicode="&#xba;" horiz-adv-x="437" 
d="M84 374q-50 56 -50 146t50 146t135 56q84 0 133.5 -56t49.5 -146t-49.5 -146t-133.5 -56q-85 0 -135 56zM320.5 403.5q35.5 45.5 35.5 116.5t-35.5 116.5t-101.5 45.5q-67 0 -103 -45.5t-36 -116.5t36 -116.5t103 -45.5q66 0 101.5 45.5z" />
    <glyph glyph-name="guillemotright" unicode="&#xbb;" horiz-adv-x="455" 
d="M248 234l-192 -159v60l161 129v2l-161 129v61l192 -160v-62zM413 234l-193 -159v60l161 129v2l-161 129v61l193 -160v-62z" />
    <glyph glyph-name="onequarter" unicode="&#xbc;" horiz-adv-x="697" 
d="M106 626q-14 -14 -34 -18.5t-50 -4.5v39q46 0 68.5 17t23.5 56h40v-406h-48v317zM110 0h-56l453 715h56zM621 0h-48v98h-197v45l197 263h48v-267h60v-41h-60v-98zM573 345l-153 -206h153v206z" />
    <glyph glyph-name="onehalf" unicode="&#xbd;" horiz-adv-x="739" 
d="M110 626q-14 -14 -34 -18.5t-50 -4.5v39q46 0 68.5 17t23.5 56h40v-406h-48v317zM114 0h-56l453 715h56zM418 0q0 53 28 92.5t81 71.5l26 16q51 30 74 53t23 61q0 34 -20 57t-60 23q-46 0 -70 -28.5t-24 -74.5h-48q0 61 37.5 102t106.5 41q56 0 91.5 -31.5t35.5 -85.5
q0 -36 -15.5 -61.5t-38 -43t-61.5 -41.5q-6 -4 -36.5 -22t-48 -40.5t-20.5 -47.5v-1h218v-40h-279z" />
    <glyph glyph-name="threequarters" unicode="&#xbe;" horiz-adv-x="845" 
d="M73.5 340q-41.5 38 -41.5 105h48q0 -48 26.5 -75.5t79.5 -27.5q46 0 70 21t24 58q0 41 -25.5 60.5t-62.5 19.5h-39v39h37q34 0 55.5 18.5t21.5 52.5q0 31 -21 51.5t-60 20.5q-49 0 -71.5 -24.5t-22.5 -62.5h-48q0 56 38 91.5t106 35.5q53 0 90.5 -29.5t37.5 -79.5
q0 -64 -64 -91v-1q39 -12 58.5 -38.5t19.5 -63.5q0 -56 -38.5 -87t-102.5 -31q-74 0 -115.5 38zM271 0h-56l453 715h56zM764 0h-48v98h-197v45l197 263h48v-267h60v-41h-60v-98zM716 345l-153 -206h153v206z" />
    <glyph glyph-name="questiondown" unicode="&#xbf;" horiz-adv-x="465" 
d="M289 512h-72v72h72v-72zM76 -96q-56 47 -56 125q0 43 17 76t38.5 53.5t57.5 49.5q36 31 55 53t30 56.5t11 89.5h56q0 -62 -13 -101.5t-36 -66t-67 -63.5q-33 -28 -50 -45.5t-29.5 -42.5t-12.5 -58q0 -55 37.5 -89t105.5 -34q78 0 124.5 46t46.5 132h56q0 -63 -26.5 -115
t-77.5 -82.5t-122 -30.5q-89 0 -145 47z" />
    <glyph glyph-name="Agrave" unicode="&#xc0;" horiz-adv-x="625" 
d="M68 0h-57l270 715h62l273 -715h-59l-81 217h-327zM311 660l-144 -394h291l-145 394h-2zM330 800h-43l-78 130h62z" />
    <glyph glyph-name="Aacute" unicode="&#xc1;" horiz-adv-x="625" 
d="M68 0h-57l270 715h62l273 -715h-59l-81 217h-327zM311 660l-144 -394h291l-145 394h-2zM331 800h-44l63 130h63z" />
    <glyph glyph-name="Acircumflex" unicode="&#xc2;" horiz-adv-x="625" 
d="M68 0h-57l270 715h62l273 -715h-59l-81 217h-327zM311 660l-144 -394h291l-145 394h-2zM249 804h-55l90 126h58l89 -126h-56l-62 95h-2z" />
    <glyph glyph-name="Atilde" unicode="&#xc3;" horiz-adv-x="625" 
d="M68 0h-57l270 715h62l273 -715h-59l-81 217h-327zM311 660l-144 -394h291l-145 394h-2zM177 802q1 42 20.5 63.5t49.5 21.5q19 0 36.5 -7t39.5 -20q34 -19 50 -19q29 0 31 46h42q-1 -43 -20 -64t-49 -21q-19 0 -36 6.5t-40 19.5q-33 20 -51 20q-28 0 -31 -46h-42z" />
    <glyph glyph-name="Adieresis" unicode="&#xc4;" horiz-adv-x="625" 
d="M68 0h-57l270 715h62l273 -715h-59l-81 217h-327zM311 660l-144 -394h291l-145 394h-2zM278 819h-72v72h72v-72zM418 819h-72v72h72v-72z" />
    <glyph glyph-name="Aring" unicode="&#xc5;" horiz-adv-x="625" 
d="M68 0h-57l270 715h62l273 -715h-59l-81 217h-327zM311 660l-144 -394h291l-145 394h-2zM251 790q-24 23 -24 60q0 36 24 59.5t60 23.5t60 -23.5t24 -59.5q0 -37 -24 -60t-60 -23t-60 23zM349 811.5q14 14.5 14 38.5t-14 38.5t-38 14.5t-38 -14.5t-14 -38.5t14 -38.5
t38 -14.5t38 14.5z" />
    <glyph glyph-name="AE" unicode="&#xc6;" horiz-adv-x="942" 
d="M482 352v-303h430v-49h-485v217h-278l-82 -217h-56l270 715h620v-49h-419v-266h379v-48h-379zM313 665l-146 -399h260v399h-114z" />
    <glyph glyph-name="Ccedilla" unicode="&#xc7;" horiz-adv-x="690" 
d="M350 -54v-2q8 2 23 2q31 0 50.5 -16.5t19.5 -45.5q0 -36 -27.5 -55t-70.5 -19q-54 0 -100 28l16 21q36 -18 74 -18q29 0 45 11t16 32q0 35 -44 35q-25 0 -45 -9l-12 17l51 62q-89 5 -158 52.5t-107.5 129.5t-38.5 186q0 107 41 191t115 131.5t170 47.5q78 0 139 -30
t98.5 -82.5t48.5 -120.5h-58q-13 78 -71 131t-157 53q-85 0 -146 -43t-92 -116t-31 -162t31 -162t91.5 -115.5t144.5 -42.5q108 0 167.5 61.5t67.5 152.5h58q-13 -113 -86 -185t-188 -78z" />
    <glyph glyph-name="Egrave" unicode="&#xc8;" horiz-adv-x="593" 
d="M564 0h-485v715h474v-49h-419v-266h379v-48h-379v-303h430v-49zM340 800h-43l-78 130h62z" />
    <glyph glyph-name="Eacute" unicode="&#xc9;" horiz-adv-x="593" 
d="M564 0h-485v715h474v-49h-419v-266h379v-48h-379v-303h430v-49zM341 800h-44l63 130h63z" />
    <glyph glyph-name="Ecircumflex" unicode="&#xca;" horiz-adv-x="593" 
d="M564 0h-485v715h474v-49h-419v-266h379v-48h-379v-303h430v-49zM259 804h-55l90 126h58l89 -126h-56l-62 95h-2z" />
    <glyph glyph-name="Edieresis" unicode="&#xcb;" horiz-adv-x="593" 
d="M564 0h-485v715h474v-49h-419v-266h379v-48h-379v-303h430v-49zM289 819h-72v72h72v-72zM429 819h-72v72h72v-72z" />
    <glyph glyph-name="Igrave" unicode="&#xcc;" horiz-adv-x="213" 
d="M134 0h-55v715h55v-715zM124 800h-43l-78 130h62z" />
    <glyph glyph-name="Iacute" unicode="&#xcd;" horiz-adv-x="213" 
d="M134 0h-55v715h55v-715zM125 800h-44l63 130h63z" />
    <glyph glyph-name="Icircumflex" unicode="&#xce;" horiz-adv-x="213" 
d="M134 0h-55v715h55v-715zM43 804h-55l90 126h58l89 -126h-56l-62 95h-2z" />
    <glyph glyph-name="Idieresis" unicode="&#xcf;" horiz-adv-x="213" 
d="M134 0h-55v715h55v-715zM73 819h-72v72h72v-72zM213 819h-72v72h72v-72z" />
    <glyph glyph-name="Eth" unicode="&#xd0;" horiz-adv-x="700" 
d="M352 715q99 0 167.5 -45t102.5 -126t34 -189q0 -107 -35 -187t-104.5 -124t-168.5 -44h-253v348h-79v44h79v323h257zM347 49q127 0 189 83t62 223q0 142 -60.5 226.5t-186.5 84.5h-201v-274h238v-44h-238v-299h197z" />
    <glyph glyph-name="Ntilde" unicode="&#xd1;" horiz-adv-x="699" 
d="M134 0h-55v715h68l416 -638h2v638h55v-715h-68l-416 637h-2v-637zM215 802q1 42 20.5 63.5t49.5 21.5q19 0 36.5 -7t39.5 -20q34 -19 50 -19q29 0 31 46h42q-1 -43 -20 -64t-49 -21q-19 0 -36 6.5t-40 19.5q-33 20 -51 20q-28 0 -31 -46h-42z" />
    <glyph glyph-name="Ograve" unicode="&#xd2;" horiz-adv-x="758" 
d="M203 35.5q-77 47.5 -119 131.5t-42 191t42 191t119 131t176 47t176 -47t119 -131t42 -191t-42 -191t-119 -131.5t-176 -47.5t-176 47.5zM527 78.5q63 41.5 97 114.5t34 165t-34 165t-97 114t-148 41t-148 -41t-97 -114t-34 -165t34 -165t97 -114.5t148 -41.5t148 41.5z
M397 800h-43l-78 130h62z" />
    <glyph glyph-name="Oacute" unicode="&#xd3;" horiz-adv-x="758" 
d="M203 35.5q-77 47.5 -119 131.5t-42 191t42 191t119 131t176 47t176 -47t119 -131t42 -191t-42 -191t-119 -131.5t-176 -47.5t-176 47.5zM527 78.5q63 41.5 97 114.5t34 165t-34 165t-97 114t-148 41t-148 -41t-97 -114t-34 -165t34 -165t97 -114.5t148 -41.5t148 41.5z
M398 800h-44l63 130h63z" />
    <glyph glyph-name="Ocircumflex" unicode="&#xd4;" horiz-adv-x="758" 
d="M203 35.5q-77 47.5 -119 131.5t-42 191t42 191t119 131t176 47t176 -47t119 -131t42 -191t-42 -191t-119 -131.5t-176 -47.5t-176 47.5zM527 78.5q63 41.5 97 114.5t34 165t-34 165t-97 114t-148 41t-148 -41t-97 -114t-34 -165t34 -165t97 -114.5t148 -41.5t148 41.5z
M316 804h-55l90 126h58l89 -126h-56l-62 95h-2z" />
    <glyph glyph-name="Otilde" unicode="&#xd5;" horiz-adv-x="758" 
d="M203 35.5q-77 47.5 -119 131.5t-42 191t42 191t119 131t176 47t176 -47t119 -131t42 -191t-42 -191t-119 -131.5t-176 -47.5t-176 47.5zM527 78.5q63 41.5 97 114.5t34 165t-34 165t-97 114t-148 41t-148 -41t-97 -114t-34 -165t34 -165t97 -114.5t148 -41.5t148 41.5z
M244 802q1 42 20.5 63.5t49.5 21.5q19 0 36.5 -7t39.5 -20q34 -19 50 -19q29 0 31 46h42q-1 -43 -20 -64t-49 -21q-19 0 -36 6.5t-40 19.5q-33 20 -51 20q-28 0 -31 -46h-42z" />
    <glyph glyph-name="Odieresis" unicode="&#xd6;" horiz-adv-x="758" 
d="M203 35.5q-77 47.5 -119 131.5t-42 191t42 191t119 131t176 47t176 -47t119 -131t42 -191t-42 -191t-119 -131.5t-176 -47.5t-176 47.5zM527 78.5q63 41.5 97 114.5t34 165t-34 165t-97 114t-148 41t-148 -41t-97 -114t-34 -165t34 -165t97 -114.5t148 -41.5t148 41.5z
M345 819h-72v72h72v-72zM485 819h-72v72h72v-72z" />
    <glyph glyph-name="multiply" unicode="&#xd7;" horiz-adv-x="533" 
d="M266 290l-156 -157l-35 36l156 156l-156 156l35 36l156 -157l157 157l35 -36l-156 -156l156 -156l-35 -36z" />
    <glyph glyph-name="Oslash" unicode="&#xd8;" horiz-adv-x="765" 
d="M726 685l-81 -83q36 -48 55.5 -110.5t19.5 -133.5q0 -107 -42 -191t-119 -131.5t-176 -47.5q-73 0 -134 25.5t-106 72.5l-79 -81l-26 27l81 83q-74 101 -74 243q0 107 42 191t119 131t177 47q72 0 132.5 -25t105.5 -72l78 81zM158 155l425 437q-37 41 -87.5 63.5
t-112.5 22.5q-85 0 -148.5 -41t-97.5 -114t-34 -165q0 -119 55 -203zM647.5 469q-14.5 52 -41.5 93l-425 -437q37 -42 88 -65t114 -23q85 0 148 41.5t97 114.5t34 165q0 59 -14.5 111z" />
    <glyph glyph-name="Ugrave" unicode="&#xd9;" horiz-adv-x="674" 
d="M138 55q-65 67 -65 189v471h55v-471q0 -105 52 -156t157 -51t157 51t52 156v471h55v-471q0 -122 -65 -189t-199 -67t-199 67zM355 800h-43l-78 130h62z" />
    <glyph glyph-name="Uacute" unicode="&#xda;" horiz-adv-x="674" 
d="M138 55q-65 67 -65 189v471h55v-471q0 -105 52 -156t157 -51t157 51t52 156v471h55v-471q0 -122 -65 -189t-199 -67t-199 67zM356 800h-44l63 130h63z" />
    <glyph glyph-name="Ucircumflex" unicode="&#xdb;" horiz-adv-x="674" 
d="M138 55q-65 67 -65 189v471h55v-471q0 -105 52 -156t157 -51t157 51t52 156v471h55v-471q0 -122 -65 -189t-199 -67t-199 67zM274 804h-55l90 126h58l89 -126h-56l-62 95h-2z" />
    <glyph glyph-name="Udieresis" unicode="&#xdc;" horiz-adv-x="674" 
d="M138 55q-65 67 -65 189v471h55v-471q0 -105 52 -156t157 -51t157 51t52 156v471h55v-471q0 -122 -65 -189t-199 -67t-199 67zM303 819h-72v72h72v-72zM443 819h-72v72h72v-72z" />
    <glyph glyph-name="Yacute" unicode="&#xdd;" horiz-adv-x="607" 
d="M331 0h-55v293l-262 422h61l227 -376h3l229 376h60l-263 -422v-293zM323 800h-44l63 130h63z" />
    <glyph glyph-name="Thorn" unicode="&#xde;" horiz-adv-x="601" 
d="M79 0v715h55v-114h211q105 0 166.5 -49t61.5 -156t-61.5 -156t-166.5 -49h-211v-191h-55zM354 240q164 0 164 156t-164 156h-220v-312h220z" />
    <glyph glyph-name="germandbls" unicode="&#xdf;" horiz-adv-x="503" 
d="M195 2v43q42 -13 79 -13q71 0 108 45.5t37 118.5q0 63 -28.5 103t-70.5 57.5t-87 17.5h-29v44h26q63 0 106.5 35t43.5 103q0 56 -32.5 92t-94.5 36q-78 0 -109.5 -47t-31.5 -133v-504h-50v524q0 96 48.5 149.5t141.5 53.5q78 0 128.5 -44.5t50.5 -125.5q0 -115 -108 -160
v-2q147 -47 147 -202q0 -91 -49.5 -148t-133.5 -57q-53 0 -92 14z" />
    <glyph glyph-name="agrave" unicode="&#xe0;" horiz-adv-x="507" 
d="M79.5 26q-45.5 38 -45.5 101q0 74 48 109.5t154 53.5l22 3q45 7 70 14t41 24t16 48q0 47 -32.5 72.5t-92.5 25.5q-74 0 -109.5 -29.5t-39.5 -87.5h-53q4 69 52.5 115t150.5 46q78 0 125.5 -37.5t47.5 -121.5v-266q0 -32 6.5 -46t25.5 -14q2 0 16 2v-38q-15 -3 -30 -3
q-33 0 -49.5 18t-17.5 64h-2q-55 -91 -183 -91q-75 0 -120.5 38zM338 74.5q47 43.5 47 110.5v110q-10 -18 -46 -28.5t-94 -18.5q-80 -13 -119 -38t-39 -76t30.5 -77t90.5 -26q83 0 130 43.5zM276 595h-43l-78 130h62z" />
    <glyph glyph-name="aacute" unicode="&#xe1;" horiz-adv-x="507" 
d="M79.5 26q-45.5 38 -45.5 101q0 74 48 109.5t154 53.5l22 3q45 7 70 14t41 24t16 48q0 47 -32.5 72.5t-92.5 25.5q-74 0 -109.5 -29.5t-39.5 -87.5h-53q4 69 52.5 115t150.5 46q78 0 125.5 -37.5t47.5 -121.5v-266q0 -32 6.5 -46t25.5 -14q2 0 16 2v-38q-15 -3 -30 -3
q-33 0 -49.5 18t-17.5 64h-2q-55 -91 -183 -91q-75 0 -120.5 38zM338 74.5q47 43.5 47 110.5v110q-10 -18 -46 -28.5t-94 -18.5q-80 -13 -119 -38t-39 -76t30.5 -77t90.5 -26q83 0 130 43.5zM277 595h-44l63 130h63z" />
    <glyph glyph-name="acircumflex" unicode="&#xe2;" horiz-adv-x="507" 
d="M79.5 26q-45.5 38 -45.5 101q0 74 48 109.5t154 53.5l22 3q45 7 70 14t41 24t16 48q0 47 -32.5 72.5t-92.5 25.5q-74 0 -109.5 -29.5t-39.5 -87.5h-53q4 69 52.5 115t150.5 46q78 0 125.5 -37.5t47.5 -121.5v-266q0 -32 6.5 -46t25.5 -14q2 0 16 2v-38q-15 -3 -30 -3
q-33 0 -49.5 18t-17.5 64h-2q-55 -91 -183 -91q-75 0 -120.5 38zM338 74.5q47 43.5 47 110.5v110q-10 -18 -46 -28.5t-94 -18.5q-80 -13 -119 -38t-39 -76t30.5 -77t90.5 -26q83 0 130 43.5zM195 599h-55l90 126h58l89 -126h-56l-62 95h-2z" />
    <glyph glyph-name="atilde" unicode="&#xe3;" horiz-adv-x="507" 
d="M79.5 26q-45.5 38 -45.5 101q0 74 48 109.5t154 53.5l22 3q45 7 70 14t41 24t16 48q0 47 -32.5 72.5t-92.5 25.5q-74 0 -109.5 -29.5t-39.5 -87.5h-53q4 69 52.5 115t150.5 46q78 0 125.5 -37.5t47.5 -121.5v-266q0 -32 6.5 -46t25.5 -14q2 0 16 2v-38q-15 -3 -30 -3
q-33 0 -49.5 18t-17.5 64h-2q-55 -91 -183 -91q-75 0 -120.5 38zM338 74.5q47 43.5 47 110.5v110q-10 -18 -46 -28.5t-94 -18.5q-80 -13 -119 -38t-39 -76t30.5 -77t90.5 -26q83 0 130 43.5zM123 597q1 42 20.5 63.5t49.5 21.5q19 0 36.5 -7t39.5 -20q34 -19 50 -19
q29 0 31 46h42q-1 -43 -20 -64t-49 -21q-19 0 -36 6.5t-40 19.5q-33 20 -51 20q-28 0 -31 -46h-42z" />
    <glyph glyph-name="adieresis" unicode="&#xe4;" horiz-adv-x="507" 
d="M79.5 26q-45.5 38 -45.5 101q0 74 48 109.5t154 53.5l22 3q45 7 70 14t41 24t16 48q0 47 -32.5 72.5t-92.5 25.5q-74 0 -109.5 -29.5t-39.5 -87.5h-53q4 69 52.5 115t150.5 46q78 0 125.5 -37.5t47.5 -121.5v-266q0 -32 6.5 -46t25.5 -14q2 0 16 2v-38q-15 -3 -30 -3
q-33 0 -49.5 18t-17.5 64h-2q-55 -91 -183 -91q-75 0 -120.5 38zM338 74.5q47 43.5 47 110.5v110q-10 -18 -46 -28.5t-94 -18.5q-80 -13 -119 -38t-39 -76t30.5 -77t90.5 -26q83 0 130 43.5zM224 614h-72v72h72v-72zM364 614h-72v72h72v-72z" />
    <glyph glyph-name="aring" unicode="&#xe5;" horiz-adv-x="507" 
d="M79.5 26q-45.5 38 -45.5 101q0 74 48 109.5t154 53.5l22 3q45 7 70 14t41 24t16 48q0 47 -32.5 72.5t-92.5 25.5q-74 0 -109.5 -29.5t-39.5 -87.5h-53q4 69 52.5 115t150.5 46q78 0 125.5 -37.5t47.5 -121.5v-266q0 -32 6.5 -46t25.5 -14q2 0 16 2v-38q-15 -3 -30 -3
q-33 0 -49.5 18t-17.5 64h-2q-55 -91 -183 -91q-75 0 -120.5 38zM338 74.5q47 43.5 47 110.5v110q-10 -18 -46 -28.5t-94 -18.5q-80 -13 -119 -38t-39 -76t30.5 -77t90.5 -26q83 0 130 43.5zM197 585q-24 23 -24 60q0 36 24 59.5t60 23.5t60 -23.5t24 -59.5q0 -37 -24 -60
t-60 -23t-60 23zM295 606.5q14 14.5 14 38.5t-14 38.5t-38 14.5t-38 -14.5t-14 -38.5t14 -38.5t38 -14.5t38 14.5z" />
    <glyph glyph-name="ae" unicode="&#xe6;" horiz-adv-x="880" 
d="M437 250v-2q0 -60 21 -109.5t63 -79t103 -29.5q74 0 114 39t51 86h52q-19 -75 -74 -121.5t-144 -46.5q-74 0 -128 33.5t-82 94.5q-27 -67 -86.5 -97t-126.5 -30q-75 0 -120.5 38t-45.5 101q0 74 48.5 109.5t153.5 53.5l22 3q45 7 70 14t41 24t16 48q0 47 -32 72.5
t-93 25.5q-74 0 -109.5 -29t-39.5 -88h-53q4 70 52 115.5t150 45.5q62 0 107 -25t60 -78q31 49 81.5 76t115.5 27q70 0 120.5 -31t77 -85.5t26.5 -123.5q0 -23 -1 -31h-410zM527 453q-41 -25 -64 -67t-26 -93h357q0 79 -45 132t-128 53q-53 0 -94 -25zM385 295
q-10 -18 -46 -28.5t-94 -18.5q-79 -13 -118.5 -38t-39.5 -74q0 -105 121 -105q86 0 131.5 44.5t45.5 109.5v110z" />
    <glyph glyph-name="ccedilla" unicode="&#xe7;" horiz-adv-x="518" 
d="M363.5 53q35.5 22 53.5 55t20 67h53q-4 -50 -29.5 -91t-69 -67t-98.5 -29l-34 -42v-2q8 2 23 2q31 0 50.5 -16.5t19.5 -45.5q0 -36 -27.5 -55t-70.5 -19q-54 0 -100 28l16 21q36 -18 74 -18q29 0 45 11t16 32q0 35 -44 35q-25 0 -45 -9l-12 17l50 61q-65 5 -115 39.5
t-77.5 93t-27.5 133.5q0 79 30.5 139t85.5 93.5t126 33.5q59 0 105.5 -24.5t74.5 -66.5t34 -93h-53q-2 32 -20 64.5t-54 54.5t-87 22q-62 0 -105 -31t-64 -82t-21 -110t21 -110t64 -82t105 -31q52 0 87.5 22z" />
    <glyph glyph-name="egrave" unicode="&#xe8;" horiz-adv-x="529" 
d="M87 250v-2q0 -93 48 -155.5t138 -62.5q75 0 115 39t50 86h52q-19 -75 -74 -121.5t-144 -46.5q-74 0 -127.5 34t-82 94.5t-28.5 138.5q0 81 29.5 141t84 93t126.5 33q70 0 120 -31t76.5 -85.5t26.5 -123.5q0 -23 -1 -31h-409zM177 453q-41 -25 -64 -67t-26 -93h357
q0 51 -19.5 93t-59 67t-94.5 25q-53 0 -94 -25zM288 596h-43l-78 130h62z" />
    <glyph glyph-name="eacute" unicode="&#xe9;" horiz-adv-x="529" 
d="M87 250v-2q0 -93 48 -155.5t138 -62.5q75 0 115 39t50 86h52q-19 -75 -74 -121.5t-144 -46.5q-74 0 -127.5 34t-82 94.5t-28.5 138.5q0 81 29.5 141t84 93t126.5 33q70 0 120 -31t76.5 -85.5t26.5 -123.5q0 -23 -1 -31h-409zM177 453q-41 -25 -64 -67t-26 -93h357
q0 51 -19.5 93t-59 67t-94.5 25q-53 0 -94 -25zM289 596h-44l63 130h63z" />
    <glyph glyph-name="ecircumflex" unicode="&#xea;" horiz-adv-x="529" 
d="M87 250v-2q0 -93 48 -155.5t138 -62.5q75 0 115 39t50 86h52q-19 -75 -74 -121.5t-144 -46.5q-74 0 -127.5 34t-82 94.5t-28.5 138.5q0 81 29.5 141t84 93t126.5 33q70 0 120 -31t76.5 -85.5t26.5 -123.5q0 -23 -1 -31h-409zM177 453q-41 -25 -64 -67t-26 -93h357
q0 51 -19.5 93t-59 67t-94.5 25q-53 0 -94 -25zM207 600h-55l90 126h58l89 -126h-56l-62 95h-2z" />
    <glyph glyph-name="edieresis" unicode="&#xeb;" horiz-adv-x="529" 
d="M87 250v-2q0 -93 48 -155.5t138 -62.5q75 0 115 39t50 86h52q-19 -75 -74 -121.5t-144 -46.5q-74 0 -127.5 34t-82 94.5t-28.5 138.5q0 81 29.5 141t84 93t126.5 33q70 0 120 -31t76.5 -85.5t26.5 -123.5q0 -23 -1 -31h-409zM177 453q-41 -25 -64 -67t-26 -93h357
q0 51 -19.5 93t-59 67t-94.5 25q-53 0 -94 -25zM236 615h-72v72h72v-72zM376 615h-72v72h72v-72z" />
    <glyph glyph-name="igrave" unicode="&#xec;" horiz-adv-x="174" 
d="M112 0h-50v510h50v-510zM105 595h-43l-78 130h62z" />
    <glyph glyph-name="iacute" unicode="&#xed;" horiz-adv-x="174" 
d="M112 0h-50v510h50v-510zM106 595h-44l63 130h63z" />
    <glyph glyph-name="icircumflex" unicode="&#xee;" horiz-adv-x="174" 
d="M112 0h-50v510h50v-510zM24 599h-55l90 126h58l89 -126h-56l-62 95h-2z" />
    <glyph glyph-name="idieresis" unicode="&#xef;" horiz-adv-x="174" 
d="M112 0h-50v510h50v-510zM53 614h-72v72h72v-72zM193 614h-72v72h72v-72z" />
    <glyph glyph-name="eth" unicode="&#xf0;" horiz-adv-x="551" 
d="M379 620q136 -148 136 -341q0 -80 -27 -146.5t-81.5 -105.5t-133.5 -39q-73 0 -127.5 34.5t-83.5 95.5t-29 138t30 137t84 93.5t122 33.5q55 0 102.5 -26t74.5 -72q-11 45 -42 92.5t-74 92.5l-165 -43l-10 39l140 37q-53 48 -95 75h69q45 -32 76 -61l147 39l10 -41z
M375 62q43 31 65.5 83t22.5 115q0 60 -23.5 110t-68 79t-102.5 29t-100 -30t-63.5 -80.5t-21.5 -111.5t22.5 -112.5t65 -82t101.5 -30.5t102 31z" />
    <glyph glyph-name="ntilde" unicode="&#xf1;" horiz-adv-x="516" 
d="M412 479q46 -41 46 -119v-360h-50v352q0 54 -29 89.5t-96 35.5q-49 0 -88 -22.5t-61 -57.5t-22 -71v-326h-50v510h50v-84h2q26 41 71 67.5t110 26.5q71 0 117 -41zM131 599q1 42 20.5 63.5t49.5 21.5q19 0 36.5 -7t39.5 -20q34 -19 50 -19q29 0 31 46h42q-1 -43 -20 -64
t-49 -21q-19 0 -36 6.5t-40 19.5q-33 20 -51 20q-28 0 -31 -46h-42z" />
    <glyph glyph-name="ograve" unicode="&#xf2;" horiz-adv-x="549" 
d="M146.5 20.5q-54.5 33.5 -83.5 94t-29 139.5t29 139.5t83.5 94t128.5 33.5q73 0 127.5 -33.5t83.5 -94t29 -139.5t-29 -139.5t-83.5 -94t-127.5 -33.5q-74 0 -128.5 33.5zM413.5 92.5q48.5 62.5 48.5 161.5t-48.5 161t-138.5 62q-91 0 -140 -62t-49 -161t49.5 -161.5
t139.5 -62.5t138.5 62.5zM292 596h-43l-78 130h62z" />
    <glyph glyph-name="oacute" unicode="&#xf3;" horiz-adv-x="549" 
d="M146.5 20.5q-54.5 33.5 -83.5 94t-29 139.5t29 139.5t83.5 94t128.5 33.5q73 0 127.5 -33.5t83.5 -94t29 -139.5t-29 -139.5t-83.5 -94t-127.5 -33.5q-74 0 -128.5 33.5zM413.5 92.5q48.5 62.5 48.5 161.5t-48.5 161t-138.5 62q-91 0 -140 -62t-49 -161t49.5 -161.5
t139.5 -62.5t138.5 62.5zM293 596h-44l63 130h63z" />
    <glyph glyph-name="ocircumflex" unicode="&#xf4;" horiz-adv-x="549" 
d="M146.5 20.5q-54.5 33.5 -83.5 94t-29 139.5t29 139.5t83.5 94t128.5 33.5q73 0 127.5 -33.5t83.5 -94t29 -139.5t-29 -139.5t-83.5 -94t-127.5 -33.5q-74 0 -128.5 33.5zM413.5 92.5q48.5 62.5 48.5 161.5t-48.5 161t-138.5 62q-91 0 -140 -62t-49 -161t49.5 -161.5
t139.5 -62.5t138.5 62.5zM211 600h-55l90 126h58l89 -126h-56l-62 95h-2z" />
    <glyph glyph-name="otilde" unicode="&#xf5;" horiz-adv-x="549" 
d="M146.5 20.5q-54.5 33.5 -83.5 94t-29 139.5t29 139.5t83.5 94t128.5 33.5q73 0 127.5 -33.5t83.5 -94t29 -139.5t-29 -139.5t-83.5 -94t-127.5 -33.5q-74 0 -128.5 33.5zM413.5 92.5q48.5 62.5 48.5 161.5t-48.5 161t-138.5 62q-91 0 -140 -62t-49 -161t49.5 -161.5
t139.5 -62.5t138.5 62.5zM139 597q1 42 20.5 63.5t49.5 21.5q19 0 36.5 -7t39.5 -20q34 -19 50 -19q29 0 31 46h42q-1 -43 -20 -64t-49 -21q-19 0 -36 6.5t-40 19.5q-33 20 -51 20q-28 0 -31 -46h-42z" />
    <glyph glyph-name="odieresis" unicode="&#xf6;" horiz-adv-x="549" 
d="M146.5 20.5q-54.5 33.5 -83.5 94t-29 139.5t29 139.5t83.5 94t128.5 33.5q73 0 127.5 -33.5t83.5 -94t29 -139.5t-29 -139.5t-83.5 -94t-127.5 -33.5q-74 0 -128.5 33.5zM413.5 92.5q48.5 62.5 48.5 161.5t-48.5 161t-138.5 62q-91 0 -140 -62t-49 -161t49.5 -161.5
t139.5 -62.5t138.5 62.5zM241 615h-72v72h72v-72zM381 615h-72v72h72v-72z" />
    <glyph glyph-name="divide" unicode="&#xf7;" horiz-adv-x="533" 
d="M303 454h-72v72h72v-72zM303 131h-72v72h72v-72zM482 303h-431v48h431v-48z" />
    <glyph glyph-name="oslash" unicode="&#xf8;" horiz-adv-x="560" 
d="M536 493l-64 -66q49 -69 49 -173q0 -79 -29 -139.5t-83.5 -94t-127.5 -33.5q-105 0 -170 67l-61 -64l-25 27l63 65q-48 70 -48 172q0 79 29 139.5t83.5 94t128.5 33.5q102 0 167 -65l61 64zM123 119l291 302q-50 56 -133 56q-91 0 -140 -62t-49 -161q0 -78 31 -135z
M436 390l-291 -302q50 -58 136 -58q90 0 138.5 62.5t48.5 161.5q0 80 -32 136z" />
    <glyph glyph-name="ugrave" unicode="&#xf9;" horiz-adv-x="516" 
d="M404 510h50v-510h-50v83h-2q-26 -41 -70.5 -67t-110.5 -26q-71 0 -117 41t-46 119v360h50v-352q0 -54 29 -89.5t96 -35.5q49 0 88 22.5t61 57.5t22 71v326zM268 595h-43l-78 130h62z" />
    <glyph glyph-name="uacute" unicode="&#xfa;" horiz-adv-x="516" 
d="M404 510h50v-510h-50v83h-2q-26 -41 -70.5 -67t-110.5 -26q-71 0 -117 41t-46 119v360h50v-352q0 -54 29 -89.5t96 -35.5q49 0 88 22.5t61 57.5t22 71v326zM270 595h-44l63 130h63z" />
    <glyph glyph-name="ucircumflex" unicode="&#xfb;" horiz-adv-x="516" 
d="M404 510h50v-510h-50v83h-2q-26 -41 -70.5 -67t-110.5 -26q-71 0 -117 41t-46 119v360h50v-352q0 -54 29 -89.5t96 -35.5q49 0 88 22.5t61 57.5t22 71v326zM187 599h-55l90 126h58l89 -126h-56l-62 95h-2z" />
    <glyph glyph-name="udieresis" unicode="&#xfc;" horiz-adv-x="516" 
d="M404 510h50v-510h-50v83h-2q-26 -41 -70.5 -67t-110.5 -26q-71 0 -117 41t-46 119v360h50v-352q0 -54 29 -89.5t96 -35.5q49 0 88 22.5t61 57.5t22 71v326zM217 614h-72v72h72v-72zM357 614h-72v72h72v-72z" />
    <glyph glyph-name="yacute" unicode="&#xfd;" horiz-adv-x="469" 
d="M53 -175v43q21 -3 40 -3q40 0 67.5 30.5t51.5 105.5l-206 509h56l174 -444h1l168 444h53l-203 -524q-25 -64 -47.5 -99.5t-48.5 -50.5t-61 -15q-18 0 -45 4zM251 595h-44l63 130h63z" />
    <glyph glyph-name="thorn" unicode="&#xfe;" horiz-adv-x="552" 
d="M410 490q50 -32 79 -92.5t29 -142.5q0 -81 -29 -141t-79.5 -92t-111.5 -32q-68 0 -114 32t-70 85h-2v-284h-50v892h50v-307h2q25 50 71 82t114 32q61 0 111 -32zM383.5 61.5q39.5 28.5 60.5 79t21 114.5q0 99 -47 161.5t-127 62.5q-51 0 -91.5 -27.5t-64 -78.5
t-23.5 -118q0 -66 23.5 -116.5t64 -78t91.5 -27.5q53 0 92.5 28.5z" />
    <glyph glyph-name="ydieresis" unicode="&#xff;" horiz-adv-x="469" 
d="M53 -175v43q21 -3 40 -3q40 0 67.5 30.5t51.5 105.5l-206 509h56l174 -444h1l168 444h53l-203 -524q-25 -64 -47.5 -99.5t-48.5 -50.5t-61 -15q-18 0 -45 4zM199 614h-72v72h72v-72zM339 614h-72v72h72v-72z" />
    <glyph glyph-name="Amacron" unicode="&#x100;" horiz-adv-x="625" 
d="M68 0h-57l270 715h62l273 -715h-59l-81 217h-327zM311 660l-144 -394h291l-145 394h-2zM432 830h-240v45h240v-45z" />
    <glyph glyph-name="amacron" unicode="&#x101;" horiz-adv-x="507" 
d="M79.5 26q-45.5 38 -45.5 101q0 74 48 109.5t154 53.5l22 3q45 7 70 14t41 24t16 48q0 47 -32.5 72.5t-92.5 25.5q-74 0 -109.5 -29.5t-39.5 -87.5h-53q4 69 52.5 115t150.5 46q78 0 125.5 -37.5t47.5 -121.5v-266q0 -32 6.5 -46t25.5 -14q2 0 16 2v-38q-15 -3 -30 -3
q-33 0 -49.5 18t-17.5 64h-2q-55 -91 -183 -91q-75 0 -120.5 38zM338 74.5q47 43.5 47 110.5v110q-10 -18 -46 -28.5t-94 -18.5q-80 -13 -119 -38t-39 -76t30.5 -77t90.5 -26q83 0 130 43.5zM378 625h-240v45h240v-45z" />
    <glyph glyph-name="Abreve" unicode="&#x102;" horiz-adv-x="625" 
d="M68 0h-57l270 715h62l273 -715h-59l-81 217h-327zM311 660l-144 -394h291l-145 394h-2zM226.5 832q-32.5 33 -35.5 88h41q4 -37 24 -59t55 -22q36 0 56 22t25 59h40q-3 -55 -35.5 -88t-85.5 -33q-52 0 -84.5 33z" />
    <glyph glyph-name="abreve" unicode="&#x103;" horiz-adv-x="507" 
d="M79.5 26q-45.5 38 -45.5 101q0 74 48 109.5t154 53.5l22 3q45 7 70 14t41 24t16 48q0 47 -32.5 72.5t-92.5 25.5q-74 0 -109.5 -29.5t-39.5 -87.5h-53q4 69 52.5 115t150.5 46q78 0 125.5 -37.5t47.5 -121.5v-266q0 -32 6.5 -46t25.5 -14q2 0 16 2v-38q-15 -3 -30 -3
q-33 0 -49.5 18t-17.5 64h-2q-55 -91 -183 -91q-75 0 -120.5 38zM338 74.5q47 43.5 47 110.5v110q-10 -18 -46 -28.5t-94 -18.5q-80 -13 -119 -38t-39 -76t30.5 -77t90.5 -26q83 0 130 43.5zM172.5 627q-32.5 33 -35.5 88h41q4 -37 24 -59t55 -22q36 0 56 22t25 59h40
q-3 -55 -35.5 -88t-85.5 -33q-52 0 -84.5 33z" />
    <glyph glyph-name="Aogonek" unicode="&#x104;" horiz-adv-x="625" 
d="M68 0h-57l270 715h62l273 -715h-59l-81 217h-327zM311 660l-144 -394h291l-145 394h-2zM506.5 -154.5q-23.5 20.5 -23.5 54.5q0 31 24 57.5t58 42.5h42q-77 -48 -77 -93q0 -19 13.5 -31t38.5 -12q26 0 50 10v-38q-26 -11 -58 -11q-44 0 -67.5 20.5z" />
    <glyph glyph-name="aogonek" unicode="&#x105;" horiz-adv-x="507" 
d="M506 -127v-38q-26 -11 -58 -11q-44 0 -67.5 20.5t-23.5 54.5q0 31 23.5 57t56.5 42q-25 3 -38 21.5t-14 59.5h-2q-55 -91 -183 -91q-75 0 -120.5 38t-45.5 101q0 74 48 109.5t154 53.5l22 3q45 7 70 14t41 24t16 48q0 47 -32.5 72.5t-92.5 25.5q-74 0 -109.5 -29.5
t-39.5 -87.5h-53q4 69 52.5 115t150.5 46q78 0 125.5 -37.5t47.5 -121.5v-266q0 -32 6.5 -46t25.5 -14q2 0 16 2v-38l-6 -1h5q-77 -48 -77 -93q0 -19 13.5 -31t38.5 -12q26 0 50 10zM385 295q-10 -18 -46 -28.5t-94 -18.5q-80 -13 -119 -38t-39 -76t30.5 -77t90.5 -26
q83 0 130 43.5t47 110.5v110z" />
    <glyph glyph-name="Cacute" unicode="&#x106;" horiz-adv-x="690" 
d="M197.5 34.5q-73.5 46.5 -114.5 130.5t-41 192q0 107 41 191t115 131.5t170 47.5q78 0 139 -30t98.5 -82.5t48.5 -120.5h-58q-13 78 -71 131t-157 53q-85 0 -146 -43t-92 -116t-31 -162t31 -162t91.5 -115.5t144.5 -42.5q108 0 167.5 61.5t67.5 152.5h58
q-9 -78 -47 -137.5t-101.5 -92.5t-144.5 -33q-95 0 -168.5 46.5zM390 800h-44l63 130h63z" />
    <glyph glyph-name="cacute" unicode="&#x107;" horiz-adv-x="518" 
d="M150 20.5q-55 33.5 -85.5 94t-30.5 139.5t30.5 139t85.5 93.5t126 33.5q59 0 105.5 -24.5t74.5 -66.5t34 -93h-53q-2 32 -20 64.5t-54 54.5t-87 22q-62 0 -105 -31t-64 -82t-21 -110t21 -110t64 -82t105 -31q52 0 87.5 22t53.5 55t20 67h53q-4 -52 -31.5 -95t-75 -68
t-107.5 -25q-71 0 -126 33.5zM295 596h-44l63 130h63z" />
    <glyph glyph-name="Ccircumflex" unicode="&#x108;" horiz-adv-x="690" 
d="M197.5 34.5q-73.5 46.5 -114.5 130.5t-41 192q0 107 41 191t115 131.5t170 47.5q78 0 139 -30t98.5 -82.5t48.5 -120.5h-58q-13 78 -71 131t-157 53q-85 0 -146 -43t-92 -116t-31 -162t31 -162t91.5 -115.5t144.5 -42.5q108 0 167.5 61.5t67.5 152.5h58
q-9 -78 -47 -137.5t-101.5 -92.5t-144.5 -33q-95 0 -168.5 46.5zM308 804h-55l90 126h58l89 -126h-56l-62 95h-2z" />
    <glyph glyph-name="ccircumflex" unicode="&#x109;" horiz-adv-x="518" 
d="M150 20.5q-55 33.5 -85.5 94t-30.5 139.5t30.5 139t85.5 93.5t126 33.5q59 0 105.5 -24.5t74.5 -66.5t34 -93h-53q-2 32 -20 64.5t-54 54.5t-87 22q-62 0 -105 -31t-64 -82t-21 -110t21 -110t64 -82t105 -31q52 0 87.5 22t53.5 55t20 67h53q-4 -52 -31.5 -95t-75 -68
t-107.5 -25q-71 0 -126 33.5zM212 600h-55l90 126h58l89 -126h-56l-62 95h-2z" />
    <glyph glyph-name="Cdotaccent" unicode="&#x10a;" horiz-adv-x="690" 
d="M197.5 34.5q-73.5 46.5 -114.5 130.5t-41 192q0 107 41 191t115 131.5t170 47.5q78 0 139 -30t98.5 -82.5t48.5 -120.5h-58q-13 78 -71 131t-157 53q-85 0 -146 -43t-92 -116t-31 -162t31 -162t91.5 -115.5t144.5 -42.5q108 0 167.5 61.5t67.5 152.5h58
q-9 -78 -47 -137.5t-101.5 -92.5t-144.5 -33q-95 0 -168.5 46.5zM407 819h-72v72h72v-72z" />
    <glyph glyph-name="cdotaccent" unicode="&#x10b;" horiz-adv-x="518" 
d="M150 20.5q-55 33.5 -85.5 94t-30.5 139.5t30.5 139t85.5 93.5t126 33.5q59 0 105.5 -24.5t74.5 -66.5t34 -93h-53q-2 32 -20 64.5t-54 54.5t-87 22q-62 0 -105 -31t-64 -82t-21 -110t21 -110t64 -82t105 -31q52 0 87.5 22t53.5 55t20 67h53q-4 -52 -31.5 -95t-75 -68
t-107.5 -25q-71 0 -126 33.5zM312 615h-72v72h72v-72z" />
    <glyph glyph-name="Ccaron" unicode="&#x10c;" horiz-adv-x="690" 
d="M197.5 34.5q-73.5 46.5 -114.5 130.5t-41 192q0 107 41 191t115 131.5t170 47.5q78 0 139 -30t98.5 -82.5t48.5 -120.5h-58q-13 78 -71 131t-157 53q-85 0 -146 -43t-92 -116t-31 -162t31 -162t91.5 -115.5t144.5 -42.5q108 0 167.5 61.5t67.5 152.5h58
q-9 -78 -47 -137.5t-101.5 -92.5t-144.5 -33q-95 0 -168.5 46.5zM400 802h-58l-89 126h56l62 -95h1l62 95h56z" />
    <glyph glyph-name="ccaron" unicode="&#x10d;" horiz-adv-x="518" 
d="M150 20.5q-55 33.5 -85.5 94t-30.5 139.5t30.5 139t85.5 93.5t126 33.5q59 0 105.5 -24.5t74.5 -66.5t34 -93h-53q-2 32 -20 64.5t-54 54.5t-87 22q-62 0 -105 -31t-64 -82t-21 -110t21 -110t64 -82t105 -31q52 0 87.5 22t53.5 55t20 67h53q-4 -52 -31.5 -95t-75 -68
t-107.5 -25q-71 0 -126 33.5zM304 597h-58l-89 126h56l62 -95h1l62 95h56z" />
    <glyph glyph-name="Dcaron" unicode="&#x10e;" horiz-adv-x="684" 
d="M79 0v715h257q99 0 167.5 -45t102.5 -126t34 -189q0 -107 -35 -187t-104.5 -124t-168.5 -44h-253zM331 49q127 0 189 83t62 223q0 142 -60.5 226.5t-186.5 84.5h-201v-617h197zM305 802h-58l-89 126h56l62 -95h1l62 95h56z" />
    <glyph glyph-name="dcaron" unicode="&#x10f;" horiz-adv-x="562" 
d="M440 715h50v-715h-50v102h-2q-25 -50 -71 -82t-114 -32q-61 0 -111 32t-79 92.5t-29 142.5q0 81 29 141t79.5 92t111.5 32q68 0 114 -32t70 -85h2v312zM352.5 58.5q40.5 27.5 64 78.5t23.5 118q0 66 -23.5 116.5t-64 78t-91.5 27.5q-53 0 -92.5 -28.5t-60.5 -79
t-21 -114.5q0 -99 47 -161.5t127 -62.5q51 0 91.5 27.5zM569 530h-39l24 185h59z" />
    <glyph glyph-name="Dcroat" unicode="&#x110;" horiz-adv-x="700" 
d="M352 715q99 0 167.5 -45t102.5 -126t34 -189q0 -107 -35 -187t-104.5 -124t-168.5 -44h-253v348h-79v44h79v323h257zM347 49q127 0 189 83t62 223q0 142 -60.5 226.5t-186.5 84.5h-201v-274h238v-44h-238v-299h197z" />
    <glyph glyph-name="dcroat" unicode="&#x111;" horiz-adv-x="552" 
d="M560 639v-40h-70v-599h-50v102h-2q-25 -50 -71 -82t-114 -32q-61 0 -111 32t-79 92.5t-29 142.5q0 81 29 141t79.5 92t111.5 32q68 0 114 -32t70 -85h2v196h-139v40h139v76h50v-76h70zM352.5 58.5q40.5 27.5 64 78.5t23.5 118q0 66 -23.5 116.5t-64 78t-91.5 27.5
q-53 0 -92.5 -28.5t-60.5 -79t-21 -114.5q0 -99 47 -161.5t127 -62.5q51 0 91.5 27.5z" />
    <glyph glyph-name="Emacron" unicode="&#x112;" horiz-adv-x="593" 
d="M564 0h-485v715h474v-49h-419v-266h379v-48h-379v-303h430v-49zM442 830h-240v45h240v-45z" />
    <glyph glyph-name="emacron" unicode="&#x113;" horiz-adv-x="529" 
d="M87 250v-2q0 -93 48 -155.5t138 -62.5q75 0 115 39t50 86h52q-19 -75 -74 -121.5t-144 -46.5q-74 0 -127.5 34t-82 94.5t-28.5 138.5q0 81 29.5 141t84 93t126.5 33q70 0 120 -31t76.5 -85.5t26.5 -123.5q0 -23 -1 -31h-409zM177 453q-41 -25 -64 -67t-26 -93h357
q0 51 -19.5 93t-59 67t-94.5 25q-53 0 -94 -25zM390 626h-240v45h240v-45z" />
    <glyph glyph-name="Edotaccent" unicode="&#x116;" horiz-adv-x="593" 
d="M564 0h-485v715h474v-49h-419v-266h379v-48h-379v-303h430v-49zM359 819h-72v72h72v-72z" />
    <glyph glyph-name="edotaccent" unicode="&#x117;" horiz-adv-x="529" 
d="M87 250v-2q0 -93 48 -155.5t138 -62.5q75 0 115 39t50 86h52q-19 -75 -74 -121.5t-144 -46.5q-74 0 -127.5 34t-82 94.5t-28.5 138.5q0 81 29.5 141t84 93t126.5 33q70 0 120 -31t76.5 -85.5t26.5 -123.5q0 -23 -1 -31h-409zM177 453q-41 -25 -64 -67t-26 -93h357
q0 51 -19.5 93t-59 67t-94.5 25q-53 0 -94 -25zM306 615h-72v72h72v-72z" />
    <glyph glyph-name="Eogonek" unicode="&#x118;" horiz-adv-x="593" 
d="M564 0h-485v715h474v-49h-419v-266h379v-48h-379v-303h430v-49zM447.5 -154.5q-23.5 20.5 -23.5 54.5q0 31 24 57.5t58 42.5h42q-77 -48 -77 -93q0 -19 13.5 -31t38.5 -12q26 0 50 10v-38q-26 -11 -58 -11q-44 0 -67.5 20.5z" />
    <glyph glyph-name="eogonek" unicode="&#x119;" horiz-adv-x="529" 
d="M87 250v-2q0 -93 48 -155.5t138 -62.5q75 0 115 39t50 86h52q-15 -59 -53 -101.5t-98 -58.5q-68 -45 -68 -87q0 -19 13.5 -31t38.5 -12q26 0 50 10v-38q-26 -11 -58 -11q-44 0 -67.5 20.5t-23.5 54.5q0 25 16 47.5t41 38.5h-9q-74 0 -127.5 34t-82 94.5t-28.5 138.5
q0 81 29.5 141t84 93t126.5 33q70 0 120 -31t76.5 -85.5t26.5 -123.5q0 -23 -1 -31h-409zM177 453q-41 -25 -64 -67t-26 -93h357q0 51 -19.5 93t-59 67t-94.5 25q-53 0 -94 -25z" />
    <glyph glyph-name="Ecaron" unicode="&#x11a;" horiz-adv-x="593" 
d="M564 0h-485v715h474v-49h-419v-266h379v-48h-379v-303h430v-49zM351 802h-58l-89 126h56l62 -95h1l62 95h56z" />
    <glyph glyph-name="ecaron" unicode="&#x11b;" horiz-adv-x="529" 
d="M87 250v-2q0 -93 48 -155.5t138 -62.5q75 0 115 39t50 86h52q-19 -75 -74 -121.5t-144 -46.5q-74 0 -127.5 34t-82 94.5t-28.5 138.5q0 81 29.5 141t84 93t126.5 33q70 0 120 -31t76.5 -85.5t26.5 -123.5q0 -23 -1 -31h-409zM177 453q-41 -25 -64 -67t-26 -93h357
q0 51 -19.5 93t-59 67t-94.5 25q-53 0 -94 -25zM299 598h-58l-89 126h56l62 -95h1l62 95h56z" />
    <glyph glyph-name="Gcircumflex" unicode="&#x11c;" horiz-adv-x="726" 
d="M190.5 35.5q-72.5 47.5 -110 131t-37.5 190.5q0 105 40 189t115 132.5t177 48.5q119 0 193.5 -59t93.5 -162h-56q-17 80 -78.5 126t-152.5 46q-90 0 -151.5 -45t-92 -118t-30.5 -158q0 -88 27.5 -160.5t87 -116t150.5 -43.5q75 0 132.5 34.5t89 96.5t31.5 144h-242v49
h297v-361h-40l-14 154h-2q-29 -76 -92 -121t-160 -45q-103 0 -175.5 47.5zM309 804h-55l90 126h58l89 -126h-56l-62 95h-2z" />
    <glyph glyph-name="gcircumflex" unicode="&#x11d;" horiz-adv-x="551" 
d="M440 511h50v-481q0 -105 -59.5 -159t-164.5 -54q-97 0 -153.5 42.5t-62.5 108.5h52q9 -47 49.5 -77t115.5 -30q83 0 128 39.5t45 120.5v108h-2q-23 -48 -70 -77.5t-111 -29.5q-61 0 -111 28t-80 84.5t-30 138.5q0 81 30 136.5t80 83t111 27.5q64 0 111 -29t70 -78h2v98z
M352.5 89q39.5 23 63.5 69.5t24 114.5q0 66 -24 112t-63.5 69t-86.5 23q-80 0 -128.5 -54t-48.5 -150q0 -98 48.5 -152.5t128.5 -54.5q47 0 86.5 23zM206 599h-55l90 126h58l89 -126h-56l-62 95h-2z" />
    <glyph glyph-name="Gbreve" unicode="&#x11e;" horiz-adv-x="726" 
d="M190.5 35.5q-72.5 47.5 -110 131t-37.5 190.5q0 105 40 189t115 132.5t177 48.5q119 0 193.5 -59t93.5 -162h-56q-17 80 -78.5 126t-152.5 46q-90 0 -151.5 -45t-92 -118t-30.5 -158q0 -88 27.5 -160.5t87 -116t150.5 -43.5q75 0 132.5 34.5t89 96.5t31.5 144h-242v49
h297v-361h-40l-14 154h-2q-29 -76 -92 -121t-160 -45q-103 0 -175.5 47.5zM286.5 832q-32.5 33 -35.5 88h41q4 -37 24 -59t55 -22q36 0 56 22t25 59h40q-3 -55 -35.5 -88t-85.5 -33q-52 0 -84.5 33z" />
    <glyph glyph-name="gbreve" unicode="&#x11f;" horiz-adv-x="551" 
d="M440 511h50v-481q0 -105 -59.5 -159t-164.5 -54q-97 0 -153.5 42.5t-62.5 108.5h52q9 -47 49.5 -77t115.5 -30q83 0 128 39.5t45 120.5v108h-2q-23 -48 -70 -77.5t-111 -29.5q-61 0 -111 28t-80 84.5t-30 138.5q0 81 30 136.5t80 83t111 27.5q64 0 111 -29t70 -78h2v98z
M352.5 89q39.5 23 63.5 69.5t24 114.5q0 66 -24 112t-63.5 69t-86.5 23q-80 0 -128.5 -54t-48.5 -150q0 -98 48.5 -152.5t128.5 -54.5q47 0 86.5 23zM183.5 627q-32.5 33 -35.5 88h41q4 -37 24 -59t55 -22q36 0 56 22t25 59h40q-3 -55 -35.5 -88t-85.5 -33q-52 0 -84.5 33z
" />
    <glyph glyph-name="Gdotaccent" unicode="&#x120;" horiz-adv-x="726" 
d="M190.5 35.5q-72.5 47.5 -110 131t-37.5 190.5q0 105 40 189t115 132.5t177 48.5q119 0 193.5 -59t93.5 -162h-56q-17 80 -78.5 126t-152.5 46q-90 0 -151.5 -45t-92 -118t-30.5 -158q0 -88 27.5 -160.5t87 -116t150.5 -43.5q75 0 132.5 34.5t89 96.5t31.5 144h-242v49
h297v-361h-40l-14 154h-2q-29 -76 -92 -121t-160 -45q-103 0 -175.5 47.5zM408 819h-72v72h72v-72z" />
    <glyph glyph-name="gdotaccent" unicode="&#x121;" horiz-adv-x="551" 
d="M440 511h50v-481q0 -105 -59.5 -159t-164.5 -54q-97 0 -153.5 42.5t-62.5 108.5h52q9 -47 49.5 -77t115.5 -30q83 0 128 39.5t45 120.5v108h-2q-23 -48 -70 -77.5t-111 -29.5q-61 0 -111 28t-80 84.5t-30 138.5q0 81 30 136.5t80 83t111 27.5q64 0 111 -29t70 -78h2v98z
M352.5 89q39.5 23 63.5 69.5t24 114.5q0 66 -24 112t-63.5 69t-86.5 23q-80 0 -128.5 -54t-48.5 -150q0 -98 48.5 -152.5t128.5 -54.5q47 0 86.5 23zM305 614h-72v72h72v-72z" />
    <glyph glyph-name="uni0122" unicode="&#x122;" horiz-adv-x="726" 
d="M190.5 35.5q-72.5 47.5 -110 131t-37.5 190.5q0 105 40 189t115 132.5t177 48.5q119 0 193.5 -59t93.5 -162h-56q-17 80 -78.5 126t-152.5 46q-90 0 -151.5 -45t-92 -118t-30.5 -158q0 -88 27.5 -160.5t87 -116t150.5 -43.5q75 0 132.5 34.5t89 96.5t31.5 144h-242v49
h297v-361h-40l-14 154h-2q-29 -76 -92 -121t-160 -45q-103 0 -175.5 47.5zM345 -48h71v-64q0 -43 -14 -67.5t-57 -37.5v32q21 7 28.5 23t6.5 50h-35v64z" />
    <glyph glyph-name="uni0123" unicode="&#x123;" horiz-adv-x="551" 
d="M440 511h50v-481q0 -105 -59.5 -159t-164.5 -54q-97 0 -153.5 42.5t-62.5 108.5h52q9 -47 49.5 -77t115.5 -30q83 0 128 39.5t45 120.5v108h-2q-23 -48 -70 -77.5t-111 -29.5q-61 0 -111 28t-80 84.5t-30 138.5q0 81 30 136.5t80 83t111 27.5q64 0 111 -29t70 -78h2v98z
M352.5 89q39.5 23 63.5 69.5t24 114.5q0 66 -24 112t-63.5 69t-86.5 23q-80 0 -128.5 -54t-48.5 -150q0 -98 48.5 -152.5t128.5 -54.5q47 0 86.5 23zM301 739q-21 -8 -28.5 -23.5t-7.5 -46.5h36v-68h-72v68q0 40 15 65.5t57 38.5v-34z" />
    <glyph glyph-name="Hcircumflex" unicode="&#x124;" horiz-adv-x="695" 
d="M134 0h-55v715h55v-314h427v314h55v-715h-55v352h-427v-352zM284 804h-55l90 126h58l89 -126h-56l-62 95h-2z" />
    <glyph glyph-name="hcircumflex" unicode="&#x125;" horiz-adv-x="516" 
d="M412 479q46 -41 46 -119v-360h-50v352q0 54 -29 89.5t-96 35.5q-49 0 -88 -22.5t-61 -57.5t-22 -71v-326h-50v715h50v-289h2q26 41 71 67.5t110 26.5q71 0 117 -41zM24 759h-55l90 126h58l89 -126h-56l-62 95h-2z" />
    <glyph glyph-name="Hbar" unicode="&#x126;" horiz-adv-x="711" 
d="M627 592h66v-44h-66v-548h-55v352h-427v-352h-55v548h-75v44h75v123h55v-123h427v123h55v-123zM145 401h427v147h-427v-147z" />
    <glyph glyph-name="hbar" unicode="&#x127;" horiz-adv-x="516" 
d="M412 479q46 -41 46 -119v-360h-50v352q0 54 -29 89.5t-96 35.5q-49 0 -88 -22.5t-61 -57.5t-22 -71v-326h-50v599h-66v40h66v76h50v-76h158v-40h-158v-173h2q26 41 71 67.5t110 26.5q71 0 117 -41z" />
    <glyph glyph-name="Itilde" unicode="&#x128;" horiz-adv-x="213" 
d="M134 0h-55v715h55v-715zM-29 802q1 42 20.5 63.5t49.5 21.5q19 0 36.5 -7t39.5 -20q34 -19 50 -19q29 0 31 46h42q-1 -43 -20 -64t-49 -21q-19 0 -36 6.5t-40 19.5q-33 20 -51 20q-28 0 -31 -46h-42z" />
    <glyph glyph-name="itilde" unicode="&#x129;" horiz-adv-x="174" 
d="M112 0h-50v510h50v-510zM-48 597q1 42 20.5 63.5t49.5 21.5q19 0 36.5 -7t39.5 -20q34 -19 50 -19q29 0 31 46h42q-1 -43 -20 -64t-49 -21q-19 0 -36 6.5t-40 19.5q-33 20 -51 20q-28 0 -31 -46h-42z" />
    <glyph glyph-name="Imacron" unicode="&#x12a;" horiz-adv-x="213" 
d="M134 0h-55v715h55v-715zM226 830h-240v45h240v-45z" />
    <glyph glyph-name="imacron" unicode="&#x12b;" horiz-adv-x="174" 
d="M112 0h-50v510h50v-510zM207 625h-240v45h240v-45z" />
    <glyph glyph-name="Iogonek" unicode="&#x12e;" horiz-adv-x="213" 
d="M134 0h-55v715h55v-715zM29.5 -154.5q-23.5 20.5 -23.5 54.5q0 31 24 57.5t58 42.5h42q-77 -48 -77 -93q0 -19 13.5 -31t38.5 -12q26 0 50 10v-38q-26 -11 -58 -11q-44 0 -67.5 20.5z" />
    <glyph glyph-name="iogonek" unicode="&#x12f;" horiz-adv-x="174" 
d="M51 686h72v-72h-72v72zM133 -125v-38q-26 -11 -58 -11q-44 0 -67.5 20.5t-23.5 54.5q0 31 23.5 57t56.5 42h-2v510h50v-510h-6q-38 -24 -56.5 -46.5t-18.5 -45.5q0 -19 13.5 -31t38.5 -12q26 0 50 10z" />
    <glyph glyph-name="Idotaccent" unicode="&#x130;" horiz-adv-x="213" 
d="M134 0h-55v715h55v-715zM143 819h-72v72h72v-72z" />
    <glyph glyph-name="dotlessi" unicode="&#x131;" horiz-adv-x="174" 
d="M112 0h-50v510h50v-510z" />
    <glyph glyph-name="Jcircumflex" unicode="&#x134;" horiz-adv-x="486" 
d="M70 46.5q-48 58.5 -48 149.5v26h56v-26q0 -76 34 -117.5t104 -41.5q71 0 106 42t35 117v519h55v-519q0 -91 -48.5 -149.5t-147.5 -58.5q-98 0 -146 58.5zM321 804h-55l90 126h58l89 -126h-56l-62 95h-2z" />
    <glyph glyph-name="jcircumflex" unicode="&#x135;" horiz-adv-x="174" 
d="M-22 -176v42q28 -2 35 -2q27 0 38 17t11 63v566h50v-567q0 -123 -89 -123q-22 0 -45 4zM24 599h-55l90 126h58l89 -126h-56l-62 95h-2z" />
    <glyph glyph-name="uni0136" unicode="&#x136;" horiz-adv-x="619" 
d="M628 0h-64l-280 376l-150 -157v-219h-55v715h55v-430l410 430h63l-288 -302zM296 -48h71v-64q0 -43 -14 -67.5t-57 -37.5v32q21 7 28.5 23t6.5 50h-35v64z" />
    <glyph glyph-name="uni0137" unicode="&#x137;" horiz-adv-x="461" 
d="M474 0h-60l-206 289l-96 -91v-198h-50v715h50v-462l269 257h63l-202 -190zM218 -48h71v-64q0 -43 -14 -67.5t-57 -37.5v32q21 7 28.5 23t6.5 50h-35v64z" />
    <glyph glyph-name="kgreenlandic" unicode="&#x138;" horiz-adv-x="466" 
d="M474 0h-60l-199 280l-103 -97v-183h-50v510h50v-271l284 271h65l-212 -199z" />
    <glyph glyph-name="Lacute" unicode="&#x139;" horiz-adv-x="544" 
d="M530 0h-451v715h55v-666h396v-49zM126 800h-44l63 130h63z" />
    <glyph glyph-name="lacute" unicode="&#x13a;" horiz-adv-x="174" 
d="M112 0h-50v715h50v-715zM106 755h-44l63 130h63z" />
    <glyph glyph-name="uni013B" unicode="&#x13b;" horiz-adv-x="544" 
d="M530 0h-451v715h55v-666h396v-49zM269 -48h71v-64q0 -43 -14 -67.5t-57 -37.5v32q21 7 28.5 23t6.5 50h-35v64z" />
    <glyph glyph-name="uni013C" unicode="&#x13c;" horiz-adv-x="174" 
d="M112 0h-50v715h50v-715zM52 -48h71v-64q0 -43 -14 -67.5t-57 -37.5v32q21 7 28.5 23t6.5 50h-35v64z" />
    <glyph glyph-name="Lcaron" unicode="&#x13d;" horiz-adv-x="544" 
d="M530 0h-451v715h55v-666h396v-49zM312 530h-39l24 185h59z" />
    <glyph glyph-name="lcaron" unicode="&#x13e;" horiz-adv-x="184" 
d="M112 0h-50v715h50v-715zM188 530h-39l24 185h59z" />
    <glyph glyph-name="Lslash" unicode="&#x141;" horiz-adv-x="587" 
d="M176 307v-258h396v-49h-451v273l-101 -62v52l101 62v390h55v-357l215 132v-51z" />
    <glyph glyph-name="lslash" unicode="&#x142;" horiz-adv-x="241" 
d="M147 414l72 56v-52l-72 -56v-362h-50v324l-73 -57v51l73 57v340h50v-301z" />
    <glyph glyph-name="Nacute" unicode="&#x143;" horiz-adv-x="699" 
d="M134 0h-55v715h68l416 -638h2v638h55v-715h-68l-416 637h-2v-637zM369 800h-44l63 130h63z" />
    <glyph glyph-name="nacute" unicode="&#x144;" horiz-adv-x="516" 
d="M412 479q46 -41 46 -119v-360h-50v352q0 54 -29 89.5t-96 35.5q-49 0 -88 -22.5t-61 -57.5t-22 -71v-326h-50v510h50v-84h2q26 41 71 67.5t110 26.5q71 0 117 -41zM285 597h-44l63 130h63z" />
    <glyph glyph-name="uni0145" unicode="&#x145;" horiz-adv-x="699" 
d="M134 0h-55v715h68l416 -638h2v638h55v-715h-68l-416 637h-2v-637zM308 -48h71v-64q0 -43 -14 -67.5t-57 -37.5v32q21 7 28.5 23t6.5 50h-35v64z" />
    <glyph glyph-name="uni0146" unicode="&#x146;" horiz-adv-x="516" 
d="M412 479q46 -41 46 -119v-360h-50v352q0 54 -29 89.5t-96 35.5q-49 0 -88 -22.5t-61 -57.5t-22 -71v-326h-50v510h50v-84h2q26 41 71 67.5t110 26.5q71 0 117 -41zM225 -48h71v-64q0 -43 -14 -67.5t-57 -37.5v32q21 7 28.5 23t6.5 50h-35v64z" />
    <glyph glyph-name="Ncaron" unicode="&#x147;" horiz-adv-x="699" 
d="M134 0h-55v715h68l416 -638h2v638h55v-715h-68l-416 637h-2v-637zM378 802h-58l-89 126h56l62 -95h1l62 95h56z" />
    <glyph glyph-name="ncaron" unicode="&#x148;" horiz-adv-x="516" 
d="M412 479q46 -41 46 -119v-360h-50v352q0 54 -29 89.5t-96 35.5q-49 0 -88 -22.5t-61 -57.5t-22 -71v-326h-50v510h50v-84h2q26 41 71 67.5t110 26.5q71 0 117 -41zM295 599h-58l-89 126h56l62 -95h1l62 95h56z" />
    <glyph glyph-name="Eng" unicode="&#x14a;" horiz-adv-x="699" 
d="M381 -169v44q33 -5 54 -5q122 0 122 122l-421 644h-2v-636h-55v715h68l416 -638h2v638h55v-703q0 -98 -48 -143.5t-126 -45.5q-39 0 -65 8z" />
    <glyph glyph-name="eng" unicode="&#x14b;" horiz-adv-x="516" 
d="M412 479q46 -41 46 -119v-401q0 -65 -24 -92t-70 -27q-29 0 -49 4v44q18 -3 33 -3q33 0 46.5 16.5t13.5 54.5v396q0 54 -29 89.5t-96 35.5q-49 0 -88 -22.5t-61 -57.5t-22 -71v-326h-50v510h50v-84h2q26 41 71 67.5t110 26.5q71 0 117 -41z" />
    <glyph glyph-name="Omacron" unicode="&#x14c;" horiz-adv-x="758" 
d="M203 35.5q-77 47.5 -119 131.5t-42 191t42 191t119 131t176 47t176 -47t119 -131t42 -191t-42 -191t-119 -131.5t-176 -47.5t-176 47.5zM527 78.5q63 41.5 97 114.5t34 165t-34 165t-97 114t-148 41t-148 -41t-97 -114t-34 -165t34 -165t97 -114.5t148 -41.5t148 41.5z
M499 830h-240v45h240v-45z" />
    <glyph glyph-name="omacron" unicode="&#x14d;" horiz-adv-x="549" 
d="M146.5 20.5q-54.5 33.5 -83.5 94t-29 139.5t29 139.5t83.5 94t128.5 33.5q73 0 127.5 -33.5t83.5 -94t29 -139.5t-29 -139.5t-83.5 -94t-127.5 -33.5q-74 0 -128.5 33.5zM413.5 92.5q48.5 62.5 48.5 161.5t-48.5 161t-138.5 62q-91 0 -140 -62t-49 -161t49.5 -161.5
t139.5 -62.5t138.5 62.5zM395 625h-240v45h240v-45z" />
    <glyph glyph-name="Ohungarumlaut" unicode="&#x150;" horiz-adv-x="758" 
d="M203 35.5q-77 47.5 -119 131.5t-42 191t42 191t119 131t176 47t176 -47t119 -131t42 -191t-42 -191t-119 -131.5t-176 -47.5t-176 47.5zM527 78.5q63 41.5 97 114.5t34 165t-34 165t-97 114t-148 41t-148 -41t-97 -114t-34 -165t34 -165t97 -114.5t148 -41.5t148 41.5z
M333 798h-44l63 130h63zM466 798h-44l63 130h63z" />
    <glyph glyph-name="ohungarumlaut" unicode="&#x151;" horiz-adv-x="549" 
d="M146.5 20.5q-54.5 33.5 -83.5 94t-29 139.5t29 139.5t83.5 94t128.5 33.5q73 0 127.5 -33.5t83.5 -94t29 -139.5t-29 -139.5t-83.5 -94t-127.5 -33.5q-74 0 -128.5 33.5zM413.5 92.5q48.5 62.5 48.5 161.5t-48.5 161t-138.5 62q-91 0 -140 -62t-49 -161t49.5 -161.5
t139.5 -62.5t138.5 62.5zM228 593h-44l63 130h63zM361 593h-44l63 130h63z" />
    <glyph glyph-name="OE" unicode="&#x152;" horiz-adv-x="1093" 
d="M633 49h430v-49h-485v170q-33 -88 -98 -135t-149 -47q-83 0 -148.5 47.5t-102.5 132t-37 190.5t37 190t102.5 131.5t148.5 47.5q84 0 149 -46.5t98 -134.5v169h474v-49h-419v-266h379v-48h-379v-303zM457 75.5q54 38.5 85.5 111t31.5 171.5t-31.5 171.5t-85.5 110.5
t-118 38q-73 0 -127 -41.5t-83.5 -114t-29.5 -164.5t29.5 -165t84 -114.5t126.5 -41.5q64 0 118 38.5z" />
    <glyph glyph-name="oe" unicode="&#x153;" horiz-adv-x="958" 
d="M515 250v-2q0 -60 21 -109.5t63 -79t103 -29.5q74 0 114 39t51 86h51q-19 -74 -73.5 -121t-143.5 -47q-76 0 -130.5 35t-82.5 98q-28 -62 -83 -97t-130 -35q-74 0 -128.5 33.5t-83.5 93.5t-29 139t29 139t83.5 93.5t128.5 33.5q75 0 130 -34.5t83 -97.5q29 63 84.5 98
t129.5 35q70 0 120.5 -31t76.5 -85.5t26 -123.5q0 -23 -1 -31h-409zM605 453q-41 -25 -64 -67t-26 -93h357q0 79 -45 132t-128 53q-53 0 -94 -25zM413.5 93q48.5 62 48.5 161t-48.5 161t-138.5 62q-91 0 -140 -62t-49 -161t49 -161t140 -62q90 0 138.5 62z" />
    <glyph glyph-name="Racute" unicode="&#x154;" horiz-adv-x="633" 
d="M79 0v715h271q112 0 172 -50.5t60 -147.5q0 -74 -37 -121.5t-100 -63.5v-2q52 -11 80 -50.5t37.5 -86t15.5 -110.5q4 -39 7.5 -56.5t11.5 -20.5v-6h-58q-7 6 -9.5 22t-5.5 52q-4 66 -14.5 113t-44.5 82.5t-100 35.5h-231v-305h-55zM336 353q91 0 141 41t50 122
q0 76 -45 113t-139 37h-209v-313h202zM328 800h-44l63 130h63z" />
    <glyph glyph-name="racute" unicode="&#x155;" horiz-adv-x="313" 
d="M305 517v-48q-13 3 -30 3q-45 0 -82 -22.5t-59 -62.5t-22 -89v-298h-50v510h50v-106h2q19 52 58.5 84t91.5 32q23 0 41 -3zM208 595h-44l63 130h63z" />
    <glyph glyph-name="uni0156" unicode="&#x156;" horiz-adv-x="633" 
d="M79 0v715h271q112 0 172 -50.5t60 -147.5q0 -74 -37 -121.5t-100 -63.5v-2q52 -11 80 -50.5t37.5 -86t15.5 -110.5q4 -39 7.5 -56.5t11.5 -20.5v-6h-58q-7 6 -9.5 22t-5.5 52q-4 66 -14.5 113t-44.5 82.5t-100 35.5h-231v-305h-55zM336 353q91 0 141 41t50 122
q0 76 -45 113t-139 37h-209v-313h202zM293 -48h71v-64q0 -43 -14 -67.5t-57 -37.5v32q21 7 28.5 23t6.5 50h-35v64z" />
    <glyph glyph-name="uni0157" unicode="&#x157;" horiz-adv-x="313" 
d="M305 517v-48q-13 3 -30 3q-45 0 -82 -22.5t-59 -62.5t-22 -89v-298h-50v510h50v-106h2q19 52 58.5 84t91.5 32q23 0 41 -3zM52 -48h71v-64q0 -43 -14 -67.5t-57 -37.5v32q21 7 28.5 23t6.5 50h-35v64z" />
    <glyph glyph-name="Rcaron" unicode="&#x158;" horiz-adv-x="633" 
d="M79 0v715h271q112 0 172 -50.5t60 -147.5q0 -74 -37 -121.5t-100 -63.5v-2q52 -11 80 -50.5t37.5 -86t15.5 -110.5q4 -39 7.5 -56.5t11.5 -20.5v-6h-58q-7 6 -9.5 22t-5.5 52q-4 66 -14.5 113t-44.5 82.5t-100 35.5h-231v-305h-55zM336 353q91 0 141 41t50 122
q0 76 -45 113t-139 37h-209v-313h202zM338 802h-58l-89 126h56l62 -95h1l62 95h56z" />
    <glyph glyph-name="rcaron" unicode="&#x159;" horiz-adv-x="313" 
d="M305 517v-48q-13 3 -30 3q-45 0 -82 -22.5t-59 -62.5t-22 -89v-298h-50v510h50v-106h2q19 52 58.5 84t91.5 32q23 0 41 -3zM218 597h-58l-89 126h56l62 -95h1l62 95h56z" />
    <glyph glyph-name="Sacute" unicode="&#x15a;" horiz-adv-x="607" 
d="M118.5 52q-81.5 64 -88.5 182h58q7 -93 67.5 -145.5t170.5 -52.5q96 0 142.5 43t47.5 111q0 55 -25 85.5t-71.5 47t-136.5 35.5q-71 15 -119 35.5t-76.5 58t-28.5 96.5q0 84 63.5 131.5t169.5 47.5q113 0 181 -55.5t75 -156.5h-58q-18 163 -197 163q-83 0 -129.5 -34
t-46.5 -95q0 -48 24.5 -76t65 -42.5t112.5 -29.5q87 -18 140.5 -40.5t84 -63t30.5 -106.5q0 -57 -28 -103t-83.5 -73t-134.5 -27q-128 0 -209.5 64zM319 800h-44l63 130h63z" />
    <glyph glyph-name="sacute" unicode="&#x15b;" horiz-adv-x="466" 
d="M128 11q-49 23 -75 63t-28 89h53q3 -60 46 -96t122 -36q69 0 104.5 29.5t35.5 76.5q0 34 -17 53.5t-43 29.5t-71 21l-27 7q-64 17 -100 31t-60 40.5t-24 69.5q0 61 46 96t130 35q93 0 142.5 -42t57.5 -107h-52q-23 106 -148 106q-57 0 -90 -21.5t-33 -62.5
q0 -32 19.5 -50t46 -26.5t89.5 -24.5q64 -17 101.5 -32.5t61.5 -44.5t24 -76q0 -69 -52 -110t-143 -41q-67 0 -116 23zM251 595h-44l63 130h63z" />
    <glyph glyph-name="Scircumflex" unicode="&#x15c;" horiz-adv-x="607" 
d="M118.5 52q-81.5 64 -88.5 182h58q7 -93 67.5 -145.5t170.5 -52.5q96 0 142.5 43t47.5 111q0 55 -25 85.5t-71.5 47t-136.5 35.5q-71 15 -119 35.5t-76.5 58t-28.5 96.5q0 84 63.5 131.5t169.5 47.5q113 0 181 -55.5t75 -156.5h-58q-18 163 -197 163q-83 0 -129.5 -34
t-46.5 -95q0 -48 24.5 -76t65 -42.5t112.5 -29.5q87 -18 140.5 -40.5t84 -63t30.5 -106.5q0 -57 -28 -103t-83.5 -73t-134.5 -27q-128 0 -209.5 64zM236 804h-55l90 126h58l89 -126h-56l-62 95h-2z" />
    <glyph glyph-name="scircumflex" unicode="&#x15d;" horiz-adv-x="466" 
d="M128 11q-49 23 -75 63t-28 89h53q3 -60 46 -96t122 -36q69 0 104.5 29.5t35.5 76.5q0 34 -17 53.5t-43 29.5t-71 21l-27 7q-64 17 -100 31t-60 40.5t-24 69.5q0 61 46 96t130 35q93 0 142.5 -42t57.5 -107h-52q-23 106 -148 106q-57 0 -90 -21.5t-33 -62.5
q0 -32 19.5 -50t46 -26.5t89.5 -24.5q64 -17 101.5 -32.5t61.5 -44.5t24 -76q0 -69 -52 -110t-143 -41q-67 0 -116 23zM169 599h-55l90 126h58l89 -126h-56l-62 95h-2z" />
    <glyph glyph-name="Scedilla" unicode="&#x15e;" horiz-adv-x="607" 
d="M310 -54v-2q8 2 23 2q31 0 50.5 -16.5t19.5 -45.5q0 -36 -27.5 -55t-70.5 -19q-54 0 -100 28l16 21q36 -18 74 -18q29 0 45 11t16 32q0 35 -44 35q-25 0 -45 -9l-12 17l51 62q-120 5 -194.5 68.5t-81.5 176.5h58q7 -93 67.5 -145.5t170.5 -52.5q96 0 142.5 43t47.5 111
q0 55 -25 85.5t-71.5 47t-136.5 35.5q-71 15 -119 35.5t-76.5 58t-28.5 96.5q0 84 63.5 131.5t169.5 47.5q113 0 181 -55.5t75 -156.5h-58q-18 163 -197 163q-83 0 -129.5 -34t-46.5 -95q0 -48 24.5 -76t65 -42.5t112.5 -29.5q87 -18 140.5 -40.5t84 -63t30.5 -106.5
q0 -55 -26 -100t-78 -72.5t-126 -30.5z" />
    <glyph glyph-name="scedilla" unicode="&#x15f;" horiz-adv-x="466" 
d="M224 -54v-2q8 2 23 2q31 0 50.5 -16.5t19.5 -45.5q0 -36 -27.5 -55t-70.5 -19q-54 0 -100 28l16 21q36 -18 74 -18q29 0 45 11t16 32q0 35 -44 35q-25 0 -45 -9l-12 17l51 62q-89 6 -141 54.5t-54 119.5h53q3 -60 46 -96t122 -36q69 0 104.5 29.5t35.5 76.5
q0 34 -17 53.5t-43 29.5t-71 21l-27 7q-64 17 -100 31t-60 40.5t-24 69.5q0 61 46 96t130 35q93 0 142.5 -42t57.5 -107h-52q-23 106 -148 106q-57 0 -90 -21.5t-33 -62.5q0 -32 19.5 -50t46 -26.5t89.5 -24.5q64 -17 101.5 -32.5t61.5 -44.5t24 -76q0 -66 -48 -106.5
t-133 -44.5z" />
    <glyph glyph-name="Scaron" unicode="&#x160;" horiz-adv-x="607" 
d="M118.5 52q-81.5 64 -88.5 182h58q7 -93 67.5 -145.5t170.5 -52.5q96 0 142.5 43t47.5 111q0 55 -25 85.5t-71.5 47t-136.5 35.5q-71 15 -119 35.5t-76.5 58t-28.5 96.5q0 84 63.5 131.5t169.5 47.5q113 0 181 -55.5t75 -156.5h-58q-18 163 -197 163q-83 0 -129.5 -34
t-46.5 -95q0 -48 24.5 -76t65 -42.5t112.5 -29.5q87 -18 140.5 -40.5t84 -63t30.5 -106.5q0 -57 -28 -103t-83.5 -73t-134.5 -27q-128 0 -209.5 64zM328 802h-58l-89 126h56l62 -95h1l62 95h56z" />
    <glyph glyph-name="scaron" unicode="&#x161;" horiz-adv-x="466" 
d="M128 11q-49 23 -75 63t-28 89h53q3 -60 46 -96t122 -36q69 0 104.5 29.5t35.5 76.5q0 34 -17 53.5t-43 29.5t-71 21l-27 7q-64 17 -100 31t-60 40.5t-24 69.5q0 61 46 96t130 35q93 0 142.5 -42t57.5 -107h-52q-23 106 -148 106q-57 0 -90 -21.5t-33 -62.5
q0 -32 19.5 -50t46 -26.5t89.5 -24.5q64 -17 101.5 -32.5t61.5 -44.5t24 -76q0 -69 -52 -110t-143 -41q-67 0 -116 23zM261 597h-58l-89 126h56l62 -95h1l62 95h56z" />
    <glyph glyph-name="uni0162" unicode="&#x162;" horiz-adv-x="580" 
d="M318 0h-55v666h-249v49h552v-49h-248v-666zM164 -162l16 21q36 -18 74 -18q29 0 45 11t16 32q0 35 -44 35q-25 0 -45 -9l-12 17l60 73h39l-44 -54v-2q8 2 23 2q31 0 50.5 -16.5t19.5 -45.5q0 -36 -27.5 -55t-70.5 -19q-55 0 -100 28z" />
    <glyph glyph-name="uni0163" unicode="&#x163;" horiz-adv-x="265" 
d="M162 -43q8 2 23 2q31 0 50.5 -16.5t19.5 -45.5q0 -36 -27.5 -55t-70.5 -19q-54 0 -100 28l16 21q36 -18 74 -18q29 0 45 11t16 32q0 35 -44 35q-25 0 -45 -9l-12 17l50 61q-36 8 -53.5 37t-17.5 89v339h-75v44h75v170h50v-170h108v-44h-108v-338q0 -37 6 -55.5t21 -25.5
t44 -7q16 0 37 3v-42q-24 -4 -44 -4h-7l-31 -38v-2z" />
    <glyph glyph-name="Tcaron" unicode="&#x164;" horiz-adv-x="580" 
d="M318 0h-55v666h-249v49h552v-49h-248v-666zM319 802h-58l-89 126h56l62 -95h1l62 95h56z" />
    <glyph glyph-name="tcaron" unicode="&#x165;" horiz-adv-x="265" 
d="M214 715h59l-44 -148h-39zM136 680v-170h108v-44h-108v-338q0 -37 6 -55.5t21 -25.5t44 -7q16 0 37 3v-42q-24 -4 -44 -4q-59 0 -86.5 27.5t-27.5 102.5v339h-75v44h75v170h50z" />
    <glyph glyph-name="Tbar" unicode="&#x166;" horiz-adv-x="580" 
d="M566 715v-49h-248v-274h188v-44h-188v-348h-55v348h-165v44h165v274h-249v49h552z" />
    <glyph glyph-name="tbar" unicode="&#x167;" horiz-adv-x="275" 
d="M248 466h-108v-121h108v-44h-108v-173q0 -37 6.5 -55.5t21 -25.5t43.5 -7q16 0 37 3v-42q-24 -4 -43 -4q-60 0 -87.5 27t-27.5 103v174h-75v44h75v121h-75v44h75v170h50v-170h108v-44z" />
    <glyph glyph-name="Utilde" unicode="&#x168;" horiz-adv-x="674" 
d="M138 55q-65 67 -65 189v471h55v-471q0 -105 52 -156t157 -51t157 51t52 156v471h55v-471q0 -122 -65 -189t-199 -67t-199 67zM202 802q1 42 20.5 63.5t49.5 21.5q19 0 36.5 -7t39.5 -20q34 -19 50 -19q29 0 31 46h42q-1 -43 -20 -64t-49 -21q-19 0 -36 6.5t-40 19.5
q-33 20 -51 20q-28 0 -31 -46h-42z" />
    <glyph glyph-name="utilde" unicode="&#x169;" horiz-adv-x="516" 
d="M404 510h50v-510h-50v83h-2q-26 -41 -70.5 -67t-110.5 -26q-71 0 -117 41t-46 119v360h50v-352q0 -54 29 -89.5t96 -35.5q49 0 88 22.5t61 57.5t22 71v326zM116 597q1 42 20.5 63.5t49.5 21.5q19 0 36.5 -7t39.5 -20q34 -19 50 -19q29 0 31 46h42q-1 -43 -20 -64t-49 -21
q-19 0 -36 6.5t-40 19.5q-33 20 -51 20q-28 0 -31 -46h-42z" />
    <glyph glyph-name="Umacron" unicode="&#x16a;" horiz-adv-x="674" 
d="M138 55q-65 67 -65 189v471h55v-471q0 -105 52 -156t157 -51t157 51t52 156v471h55v-471q0 -122 -65 -189t-199 -67t-199 67zM457 830h-240v45h240v-45z" />
    <glyph glyph-name="umacron" unicode="&#x16b;" horiz-adv-x="516" 
d="M404 510h50v-510h-50v83h-2q-26 -41 -70.5 -67t-110.5 -26q-71 0 -117 41t-46 119v360h50v-352q0 -54 29 -89.5t96 -35.5q49 0 88 22.5t61 57.5t22 71v326zM371 625h-240v45h240v-45z" />
    <glyph glyph-name="Ubreve" unicode="&#x16c;" horiz-adv-x="674" 
d="M138 55q-65 67 -65 189v471h55v-471q0 -105 52 -156t157 -51t157 51t52 156v471h55v-471q0 -122 -65 -189t-199 -67t-199 67zM251.5 832q-32.5 33 -35.5 88h41q4 -37 24 -59t55 -22q36 0 56 22t25 59h40q-3 -55 -35.5 -88t-85.5 -33q-52 0 -84.5 33z" />
    <glyph glyph-name="ubreve" unicode="&#x16d;" horiz-adv-x="516" 
d="M404 510h50v-510h-50v83h-2q-26 -41 -70.5 -67t-110.5 -26q-71 0 -117 41t-46 119v360h50v-352q0 -54 29 -89.5t96 -35.5q49 0 88 22.5t61 57.5t22 71v326zM165.5 627q-32.5 33 -35.5 88h41q4 -37 24 -59t55 -22q36 0 56 22t25 59h40q-3 -55 -35.5 -88t-85.5 -33
q-52 0 -84.5 33z" />
    <glyph glyph-name="Uring" unicode="&#x16e;" horiz-adv-x="674" 
d="M138 55q-65 67 -65 189v471h55v-471q0 -105 52 -156t157 -51t157 51t52 156v471h55v-471q0 -122 -65 -189t-199 -67t-199 67zM276 790q-24 23 -24 60q0 36 24 59.5t60 23.5t60 -23.5t24 -59.5q0 -37 -24 -60t-60 -23t-60 23zM374 811.5q14 14.5 14 38.5t-14 38.5
t-38 14.5t-38 -14.5t-14 -38.5t14 -38.5t38 -14.5t38 14.5z" />
    <glyph glyph-name="uring" unicode="&#x16f;" horiz-adv-x="516" 
d="M404 510h50v-510h-50v83h-2q-26 -41 -70.5 -67t-110.5 -26q-71 0 -117 41t-46 119v360h50v-352q0 -54 29 -89.5t96 -35.5q49 0 88 22.5t61 57.5t22 71v326zM190 585q-24 23 -24 60q0 36 24 59.5t60 23.5t60 -23.5t24 -59.5q0 -37 -24 -60t-60 -23t-60 23zM288 606.5
q14 14.5 14 38.5t-14 38.5t-38 14.5t-38 -14.5t-14 -38.5t14 -38.5t38 -14.5t38 14.5z" />
    <glyph glyph-name="Uhungarumlaut" unicode="&#x170;" horiz-adv-x="674" 
d="M138 55q-65 67 -65 189v471h55v-471q0 -105 52 -156t157 -51t157 51t52 156v471h55v-471q0 -122 -65 -189t-199 -67t-199 67zM291 798h-44l63 130h63zM424 798h-44l63 130h63z" />
    <glyph glyph-name="uhungarumlaut" unicode="&#x171;" horiz-adv-x="516" 
d="M404 510h50v-510h-50v83h-2q-26 -41 -70.5 -67t-110.5 -26q-71 0 -117 41t-46 119v360h50v-352q0 -54 29 -89.5t96 -35.5q49 0 88 22.5t61 57.5t22 71v326zM204 593h-44l63 130h63zM337 593h-44l63 130h63z" />
    <glyph glyph-name="Uogonek" unicode="&#x172;" horiz-adv-x="674" 
d="M546 715h55v-471q0 -100 -43.5 -163.5t-132.5 -83.5q-36 -24 -53.5 -45.5t-17.5 -43.5q0 -19 13.5 -31t38.5 -12q26 0 50 10v-38q-26 -11 -58 -11q-44 0 -67.5 20.5t-23.5 54.5q0 26 17 49t43 39q-10 -1 -30 -1q-134 0 -199 67t-65 189v471h55v-471q0 -105 52 -156
t157 -51t157 51t52 156v471z" />
    <glyph glyph-name="uogonek" unicode="&#x173;" horiz-adv-x="516" 
d="M471 -126v-38q-26 -11 -58 -11q-44 0 -67.5 20.5t-23.5 54.5q0 31 24 57.5t58 42.5v83h-2q-26 -41 -70.5 -67t-110.5 -26q-71 0 -117 41t-46 119v360h50v-352q0 -54 29 -89.5t96 -35.5q49 0 88 22.5t61 57.5t22 71v326h50v-510h-8q-77 -48 -77 -93q0 -19 13.5 -31
t38.5 -12q26 0 50 10z" />
    <glyph glyph-name="Wcircumflex" unicode="&#x174;" horiz-adv-x="884" 
d="M261 0h-61l-182 715h58l157 -636h2l176 636h63l176 -636h2l157 636h57l-182 -715h-61l-179 645h-3zM379 804h-55l90 126h58l89 -126h-56l-62 95h-2z" />
    <glyph glyph-name="wcircumflex" unicode="&#x175;" horiz-adv-x="725" 
d="M235 0h-59l-162 510h55l136 -452h2l126 452h59l127 -452h2l137 452h54l-163 -510h-59l-127 448h-2zM300 599h-55l90 126h58l89 -126h-56l-62 95h-2z" />
    <glyph glyph-name="Ycircumflex" unicode="&#x176;" horiz-adv-x="607" 
d="M331 0h-55v293l-262 422h61l227 -376h3l229 376h60l-263 -422v-293zM241 804h-55l90 126h58l89 -126h-56l-62 95h-2z" />
    <glyph glyph-name="ycircumflex" unicode="&#x177;" horiz-adv-x="469" 
d="M53 -175v43q21 -3 40 -3q40 0 67.5 30.5t51.5 105.5l-206 509h56l174 -444h1l168 444h53l-203 -524q-25 -64 -47.5 -99.5t-48.5 -50.5t-61 -15q-18 0 -45 4zM169 599h-55l90 126h58l89 -126h-56l-62 95h-2z" />
    <glyph glyph-name="Ydieresis" unicode="&#x178;" horiz-adv-x="607" 
d="M331 0h-55v293l-262 422h61l227 -376h3l229 376h60l-263 -422v-293zM270 819h-72v72h72v-72zM410 819h-72v72h72v-72z" />
    <glyph glyph-name="Zacute" unicode="&#x179;" horiz-adv-x="574" 
d="M555 0h-539v49l461 615v2h-442v49h510v-49l-461 -615v-2h471v-49zM310 800h-44l63 130h63z" />
    <glyph glyph-name="zacute" unicode="&#x17a;" horiz-adv-x="430" 
d="M412 0h-396v40l318 424v2h-302v44h370v-35l-322 -429v-2h332v-44zM233 595h-44l63 130h63z" />
    <glyph glyph-name="Zdotaccent" unicode="&#x17b;" horiz-adv-x="574" 
d="M555 0h-539v49l461 615v2h-442v49h510v-49l-461 -615v-2h471v-49zM327 819h-72v72h72v-72z" />
    <glyph glyph-name="zdotaccent" unicode="&#x17c;" horiz-adv-x="430" 
d="M412 0h-396v40l318 424v2h-302v44h370v-35l-322 -429v-2h332v-44zM250 614h-72v72h72v-72z" />
    <glyph glyph-name="Zcaron" unicode="&#x17d;" horiz-adv-x="574" 
d="M555 0h-539v49l461 615v2h-442v49h510v-49l-461 -615v-2h471v-49zM320 802h-58l-89 126h56l62 -95h1l62 95h56z" />
    <glyph glyph-name="zcaron" unicode="&#x17e;" horiz-adv-x="430" 
d="M412 0h-396v40l318 424v2h-302v44h370v-35l-322 -429v-2h332v-44zM243 597h-58l-89 126h56l62 -95h1l62 95h56z" />
    <glyph glyph-name="florin" unicode="&#x192;" horiz-adv-x="445" 
d="M430 718l-9 -43q-32 2 -38 2q-28 0 -43.5 -7.5t-25 -27t-16.5 -56.5l-25 -126h106l-1 -44h-113l-75 -380q-15 -77 -43 -104.5t-79 -27.5q-20 0 -45 6l-2 42q21 -4 43 -4q25 0 39 7.5t22 26t15 55.5l75 379h-85l2 44h91l26 131q15 76 46.5 103t88.5 27q18 0 46 -3z" />
    <glyph glyph-name="uni0218" unicode="&#x218;" horiz-adv-x="607" 
d="M118.5 52q-81.5 64 -88.5 182h58q7 -93 67.5 -145.5t170.5 -52.5q96 0 142.5 43t47.5 111q0 55 -25 85.5t-71.5 47t-136.5 35.5q-71 15 -119 35.5t-76.5 58t-28.5 96.5q0 84 63.5 131.5t169.5 47.5q113 0 181 -55.5t75 -156.5h-58q-18 163 -197 163q-83 0 -129.5 -34
t-46.5 -95q0 -48 24.5 -76t65 -42.5t112.5 -29.5q87 -18 140.5 -40.5t84 -63t30.5 -106.5q0 -57 -28 -103t-83.5 -73t-134.5 -27q-128 0 -209.5 64zM296 -48h71v-64q0 -43 -14 -67.5t-57 -37.5v32q21 7 28.5 23t6.5 50h-35v64z" />
    <glyph glyph-name="uni0219" unicode="&#x219;" horiz-adv-x="466" 
d="M128 11q-49 23 -75 63t-28 89h53q3 -60 46 -96t122 -36q69 0 104.5 29.5t35.5 76.5q0 34 -17 53.5t-43 29.5t-71 21l-27 7q-64 17 -100 31t-60 40.5t-24 69.5q0 61 46 96t130 35q93 0 142.5 -42t57.5 -107h-52q-23 106 -148 106q-57 0 -90 -21.5t-33 -62.5
q0 -32 19.5 -50t46 -26.5t89.5 -24.5q64 -17 101.5 -32.5t61.5 -44.5t24 -76q0 -69 -52 -110t-143 -41q-67 0 -116 23zM210 -48h71v-64q0 -43 -14 -67.5t-57 -37.5v32q21 7 28.5 23t6.5 50h-35v64z" />
    <glyph glyph-name="uni021A" unicode="&#x21a;" horiz-adv-x="580" 
d="M318 0h-55v666h-249v49h552v-49h-248v-666zM255 -48h71v-64q0 -43 -14 -67.5t-57 -37.5v32q21 7 28.5 23t6.5 50h-35v64z" />
    <glyph glyph-name="uni021B" unicode="&#x21b;" horiz-adv-x="265" 
d="M244 466h-108v-338q0 -37 6 -55.5t21 -25.5t44 -7q16 0 37 3v-42q-24 -4 -44 -4q-59 0 -86.5 27.5t-27.5 102.5v339h-75v44h75v170h50v-170h108v-44zM148 -35h71v-64q0 -43 -14 -67.5t-57 -37.5v32q21 7 28.5 23t6.5 50h-35v64z" />
    <glyph glyph-name="uni0237" unicode="&#x237;" horiz-adv-x="174" 
d="M-22 -176v42q28 -2 35 -2q27 0 38 17t11 63v566h50v-567q0 -123 -89 -123q-22 0 -45 4z" />
    <glyph glyph-name="circumflex" unicode="&#x2c6;" horiz-adv-x="317" 
d="M95 599h-55l90 126h58l89 -126h-56l-62 95h-2z" />
    <glyph glyph-name="caron" unicode="&#x2c7;" horiz-adv-x="317" 
d="M187 599h-58l-89 126h56l62 -95h1l62 95h56z" />
    <glyph glyph-name="breve" unicode="&#x2d8;" horiz-adv-x="321" 
d="M75.5 627q-32.5 33 -35.5 88h41q4 -37 24 -59t55 -22q36 0 56 22t25 59h40q-3 -55 -35.5 -88t-85.5 -33q-52 0 -84.5 33z" />
    <glyph glyph-name="dotaccent" unicode="&#x2d9;" horiz-adv-x="149" 
d="M111 614h-72v72h72v-72z" />
    <glyph glyph-name="ring" unicode="&#x2da;" horiz-adv-x="247" 
d="M63 581q-24 23 -24 60q0 36 24 59.5t60 23.5t60 -23.5t24 -59.5q0 -37 -24 -60t-60 -23t-60 23zM161 602.5q14 14.5 14 38.5t-14 38.5t-38 14.5t-38 -14.5t-14 -38.5t14 -38.5t38 -14.5t38 14.5z" />
    <glyph glyph-name="ogonek" unicode="&#x2db;" horiz-adv-x="229" 
d="M63.5 -154.5q-23.5 20.5 -23.5 54.5q0 31 24 57.5t58 42.5h42q-77 -48 -77 -93q0 -19 13.5 -31t38.5 -12q26 0 50 10v-38q-26 -11 -58 -11q-44 0 -67.5 20.5z" />
    <glyph glyph-name="tilde" unicode="&#x2dc;" horiz-adv-x="349" 
d="M40 599q1 42 20.5 63.5t49.5 21.5q19 0 36.5 -7t39.5 -20q34 -19 50 -19q29 0 31 46h42q-1 -43 -20 -64t-49 -21q-19 0 -36 6.5t-40 19.5q-33 20 -51 20q-28 0 -31 -46h-42z" />
    <glyph glyph-name="hungarumlaut" unicode="&#x2dd;" horiz-adv-x="334" 
d="M81 595h-44l63 130h63zM214 595h-44l63 130h63z" />
    <glyph glyph-name="gravecomb" unicode="&#x300;" 
d="M160 595h-43l-78 130h62z" />
    <glyph glyph-name="acutecomb" unicode="&#x301;" 
d="M81 595h-44l63 130h63z" />
    <glyph glyph-name="uni0302" unicode="&#x302;" 
d="M95 599h-55l90 126h58l89 -126h-56l-62 95h-2z" />
    <glyph glyph-name="tildecomb" unicode="&#x303;" 
d="M40 599q1 42 20.5 63.5t49.5 21.5q19 0 36.5 -7t39.5 -20q34 -19 50 -19q29 0 31 46h42q-1 -43 -20 -64t-49 -21q-19 0 -36 6.5t-40 19.5q-33 20 -51 20q-28 0 -31 -46h-42z" />
    <glyph glyph-name="uni0304" unicode="&#x304;" 
d="M280 627h-240v45h240v-45z" />
    <glyph glyph-name="uni0306" unicode="&#x306;" 
d="M75.5 627q-32.5 33 -35.5 88h41q4 -37 24 -59t55 -22q36 0 56 22t25 59h40q-3 -55 -35.5 -88t-85.5 -33q-52 0 -84.5 33z" />
    <glyph glyph-name="uni0307" unicode="&#x307;" 
d="M111 614h-72v72h72v-72z" />
    <glyph glyph-name="uni0308" unicode="&#x308;" 
d="M114 614h-72v72h72v-72zM254 614h-72v72h72v-72z" />
    <glyph glyph-name="uni030A" unicode="&#x30a;" 
d="M63 585q-24 23 -24 60q0 36 24 59.5t60 23.5t60 -23.5t24 -59.5q0 -37 -24 -60t-60 -23t-60 23zM161 606.5q14 14.5 14 38.5t-14 38.5t-38 14.5t-38 -14.5t-14 -38.5t14 -38.5t38 -14.5t38 14.5z" />
    <glyph glyph-name="uni030B" unicode="&#x30b;" 
d="M81 595h-44l63 130h63zM214 595h-44l63 130h63z" />
    <glyph glyph-name="uni030C" unicode="&#x30c;" 
d="M187 599h-58l-89 126h56l62 -95h1l62 95h56z" />
    <glyph glyph-name="uni0312" unicode="&#x312;" 
d="M106 741q-21 -8 -28.5 -23.5t-7.5 -46.5h36v-68h-72v68q0 40 15 65.5t57 38.5v-34z" />
    <glyph glyph-name="uni0326" unicode="&#x326;" 
d="M39 -48h71v-64q0 -43 -14 -67.5t-57 -37.5v32q21 7 28.5 23t6.5 50h-35v64z" />
    <glyph glyph-name="uni0327" unicode="&#x327;" 
d="M40 -162l16 21q36 -18 74 -18q29 0 45 11t16 32q0 35 -44 35q-25 0 -45 -9l-12 17l60 73h39l-44 -54v-2q8 2 23 2q31 0 50.5 -16.5t19.5 -45.5q0 -36 -27.5 -55t-70.5 -19q-55 0 -100 28z" />
    <glyph glyph-name="uni0328" unicode="&#x328;" 
d="M63.5 -154.5q-23.5 20.5 -23.5 54.5q0 31 24 57.5t58 42.5h42q-77 -48 -77 -93q0 -19 13.5 -31t38.5 -12q26 0 50 10v-38q-26 -11 -58 -11q-44 0 -67.5 20.5z" />
    <glyph glyph-name="uni0335" unicode="&#x335;" 
d="M448 348h-408v44h408v-44z" />
    <glyph glyph-name="uni0336" unicode="&#x336;" 
d="M540 334h-500v52h500v-52z" />
    <glyph glyph-name="uni0337" unicode="&#x337;" 
d="M551 494l-485 -503l-26 27l485 503z" />
    <glyph glyph-name="uni0338" unicode="&#x338;" 
d="M551 494l-485 -503l-26 27l485 503z" />
    <glyph glyph-name="uni0394" unicode="&#x394;" horiz-adv-x="628" 
d="M280 715h67l262 -668v-47h-590v47zM316 660h-5l-235 -611h475z" />
    <glyph glyph-name="uni03A9" unicode="&#x3a9;" horiz-adv-x="776" 
d="M39 0v49h179q-78 51 -122 134t-44 186q0 100 42 181.5t119 129t176 47.5t175 -47t118 -128.5t42 -181.5q0 -103 -43.5 -186t-122.5 -135h179v-49h-278v38q98 51 152.5 127t54.5 195q0 93 -34.5 165t-97.5 112.5t-146 40.5t-146 -40.5t-97.5 -112.5t-34.5 -165
q0 -119 54.5 -195t152.5 -127l1 -38h-279z" />
    <glyph glyph-name="uni03BC" unicode="&#x3bc;" horiz-adv-x="520" 
d="M408 510h50v-510h-50v83h-2q-25 -40 -69 -66.5t-107 -26.5q-75 0 -118 44v-211h-50v687h50v-352q0 -54 29 -89.5t97 -35.5q49 0 88 22.5t60.5 57.5t21.5 71v326z" />
    <glyph glyph-name="pi" unicode="&#x3c0;" horiz-adv-x="521" 
d="M495 466h-73v-365q0 -35 9.5 -48t35.5 -13q11 0 26 3v-43q-15 -4 -39 -4q-43 0 -62.5 22.5t-19.5 82.5v365h-231v-466h-50v466h-76v44h480v-44z" />
    <glyph glyph-name="uni0400" unicode="&#x400;" horiz-adv-x="593" 
d="M564 0h-485v715h474v-49h-419v-266h379v-48h-379v-303h430v-49zM340 800h-43l-78 130h62z" />
    <glyph glyph-name="uni0401" unicode="&#x401;" horiz-adv-x="593" 
d="M564 0h-485v715h474v-49h-419v-266h379v-48h-379v-303h430v-49zM289 819h-72v72h72v-72zM429 819h-72v72h72v-72z" />
    <glyph glyph-name="uni0402" unicode="&#x402;" horiz-adv-x="679" 
d="M483 -175v47q18 -5 45 -5q26 0 38 15t12 54v324q0 79 -40.5 123.5t-112.5 44.5q-84 0 -132.5 -48t-48.5 -132v-248h-55v666h-174v49h441v-49h-212v-281h2q24 39 74 65t113 26q93 0 146.5 -54.5t53.5 -155.5v-343q0 -53 -27 -78.5t-71 -25.5q-35 0 -52 6z" />
    <glyph glyph-name="uni0403" unicode="&#x403;" horiz-adv-x="479" 
d="M134 0h-55v715h386v-49h-331v-666zM285 800h-44l63 130h63z" />
    <glyph glyph-name="uni0404" unicode="&#x404;" horiz-adv-x="682" 
d="M652 227q-8 -69 -44.5 -123t-99 -85t-145.5 -31q-93 0 -166 45t-114 129t-41 196q0 111 40.5 194.5t113 129t167.5 45.5q78 0 138 -27t97 -74t48 -108h-58q-14 70 -72.5 115t-153.5 45q-75 0 -133.5 -37t-92 -104.5t-37.5 -156.5h303v-49h-302q4 -88 39 -155t93 -103
t131 -36q69 0 119 25.5t78 68.5t34 96h58z" />
    <glyph glyph-name="uni0405" unicode="&#x405;" horiz-adv-x="607" 
d="M118.5 52q-81.5 64 -88.5 182h58q7 -93 67.5 -145.5t170.5 -52.5q96 0 142.5 43t47.5 111q0 55 -25 85.5t-71.5 47t-136.5 35.5q-71 15 -119 35.5t-76.5 58t-28.5 96.5q0 84 63.5 131.5t169.5 47.5q113 0 181 -55.5t75 -156.5h-58q-18 163 -197 163q-83 0 -129.5 -34
t-46.5 -95q0 -48 24.5 -76t65 -42.5t112.5 -29.5q87 -18 140.5 -40.5t84 -63t30.5 -106.5q0 -57 -28 -103t-83.5 -73t-134.5 -27q-128 0 -209.5 64z" />
    <glyph glyph-name="uni0406" unicode="&#x406;" horiz-adv-x="213" 
d="M134 0h-55v715h55v-715z" />
    <glyph glyph-name="uni0407" unicode="&#x407;" horiz-adv-x="213" 
d="M134 0h-55v715h55v-715zM73 819h-72v72h72v-72zM213 819h-72v72h72v-72z" />
    <glyph glyph-name="uni0408" unicode="&#x408;" horiz-adv-x="486" 
d="M70 46.5q-48 58.5 -48 149.5v26h56v-26q0 -76 34 -117.5t104 -41.5q71 0 106 42t35 117v519h55v-519q0 -91 -48.5 -149.5t-147.5 -58.5q-98 0 -146 58.5z" />
    <glyph glyph-name="uni0409" unicode="&#x409;" horiz-adv-x="911" 
d="M0 -3v48q28 -10 62 -10q38 0 57.5 24t21.5 84l20 572h346v-285h156q105 0 163.5 -56.5t58.5 -156.5q0 -102 -61 -159.5t-169 -57.5h-203v666h-237l-20 -526q-3 -82 -35.5 -118.5t-96.5 -36.5q-39 0 -63 12zM655 49q81 0 126.5 44.5t45.5 123.5q0 75 -42 119.5t-118 44.5
h-160v-332h148z" />
    <glyph glyph-name="uni040A" unicode="&#x40a;" horiz-adv-x="947" 
d="M79 0v715h55v-301h355v301h55v-301h156q105 0 163.5 -54t58.5 -151q0 -101 -60.5 -155t-169.5 -54h-203v365h-355v-365h-55zM692 49q82 0 127 41t45 119q0 74 -42 115t-118 41h-160v-316h148z" />
    <glyph glyph-name="uni040B" unicode="&#x40b;" horiz-adv-x="678" 
d="M189 0v666h-174v49h441v-49h-212v-301h2q24 39 74 65t113 26q93 0 146.5 -54.5t53.5 -155.5v-246h-55v240q0 79 -40.5 123.5t-112.5 44.5q-84 0 -132.5 -48t-48.5 -132v-228h-55z" />
    <glyph glyph-name="uni040C" unicode="&#x40c;" horiz-adv-x="601" 
d="M595 715l-299 -364l314 -351h-70l-291 324h-115v-324h-55v715h55v-343h117l283 343h61zM326 800h-44l63 130h63z" />
    <glyph glyph-name="uni040D" unicode="&#x40d;" horiz-adv-x="715" 
d="M134 0h-55v715h55v-630h2l445 630h55v-715h-55v629h-2zM381 800h-43l-78 130h62z" />
    <glyph glyph-name="uni040E" unicode="&#x40e;" horiz-adv-x="569" 
d="M214 0h-56l95 202l-232 513h60l201 -450h2l213 450h56zM203.5 832q-32.5 33 -35.5 88h41q4 -37 24 -59t55 -22q36 0 56 22t25 59h40q-3 -55 -35.5 -88t-85.5 -33q-52 0 -84.5 33z" />
    <glyph glyph-name="uni040F" unicode="&#x40f;" horiz-adv-x="665" 
d="M360 -130h-52v130h-229v715h55v-667h397v667h55v-715h-226v-130z" />
    <glyph glyph-name="uni0410" unicode="&#x410;" horiz-adv-x="625" 
d="M68 0h-57l270 715h62l273 -715h-59l-81 217h-327zM311 660l-144 -394h291l-145 394h-2z" />
    <glyph glyph-name="uni0411" unicode="&#x411;" horiz-adv-x="612" 
d="M79 0v715h452v-49h-397v-236h226q105 0 163.5 -55t58.5 -155q0 -102 -61 -161t-169 -59h-273zM352 49q81 0 126.5 46t45.5 125q0 75 -42 118t-118 43h-230v-332h218z" />
    <glyph glyph-name="uni0412" unicode="&#x412;" horiz-adv-x="648" 
d="M79 0v715h282q102 0 160 -47.5t58 -131.5q0 -59 -30.5 -97.5t-85.5 -56.5v-2q66 -14 105.5 -60t39.5 -118q0 -100 -62 -151t-168 -51h-299zM378 400q69 0 106 36t37 96q0 62 -39 98t-113 36h-235v-266h244zM378 49q85 0 128.5 39t43.5 114q0 68 -42.5 108.5t-113.5 40.5
h-260v-302h244z" />
    <glyph glyph-name="uni0413" unicode="&#x413;" horiz-adv-x="479" 
d="M134 0h-55v715h386v-49h-331v-666z" />
    <glyph glyph-name="uni0414" unicode="&#x414;" horiz-adv-x="661" 
d="M4 -130v178h50q42 0 62 41t25 139l26 487h398v-667h65v-178h-52v129h-522v-129h-52zM148 48h362v618h-289l-26 -479q-6 -97 -47 -137v-2z" />
    <glyph glyph-name="uni0415" unicode="&#x415;" horiz-adv-x="593" 
d="M564 0h-485v715h474v-49h-419v-266h379v-48h-379v-303h430v-49z" />
    <glyph glyph-name="uni0416" unicode="&#x416;" horiz-adv-x="880" 
d="M867 715l-261 -365l275 -350h-68l-252 324h-93v-324h-56v324h-93l-252 -324h-69l277 350l-261 365h61l245 -343h92v343h56v-343h95l245 343h59z" />
    <glyph glyph-name="uni0417" unicode="&#x417;" horiz-adv-x="568" 
d="M99.5 41.5q-69.5 55.5 -69.5 152.5h58q0 -74 52.5 -116.5t140.5 -42.5q83 0 134.5 43t51.5 113q0 64 -44.5 103.5t-114.5 39.5h-91v49h87q64 0 103.5 41.5t39.5 106.5q0 66 -48 105.5t-125 39.5q-81 0 -129.5 -42t-48.5 -110h-58q0 59 29 104.5t82.5 71t124.5 25.5
q68 0 120.5 -24t81.5 -68t29 -102q0 -60 -30 -104t-83 -65v-2q62 -20 97.5 -62.5t35.5 -106.5q0 -59 -30 -105.5t-84 -73t-123 -26.5q-119 0 -188.5 55.5z" />
    <glyph glyph-name="uni0418" unicode="&#x418;" horiz-adv-x="715" 
d="M134 0h-55v715h55v-630h2l445 630h55v-715h-55v629h-2z" />
    <glyph glyph-name="uni0419" unicode="&#x419;" horiz-adv-x="715" 
d="M134 0h-55v715h55v-630h2l445 630h55v-715h-55v629h-2zM278.5 832q-32.5 33 -35.5 88h41q4 -37 24 -59t55 -22q36 0 56 22t25 59h40q-3 -55 -35.5 -88t-85.5 -33q-52 0 -84.5 33z" />
    <glyph glyph-name="uni041A" unicode="&#x41a;" horiz-adv-x="601" 
d="M595 715l-299 -364l314 -351h-70l-291 324h-115v-324h-55v715h55v-343h117l283 343h61z" />
    <glyph glyph-name="uni041B" unicode="&#x41b;" horiz-adv-x="630" 
d="M0 -3v48q28 -10 62 -10q38 0 57.5 24t21.5 84l20 572h390v-715h-55v666h-281l-20 -526q-3 -82 -35.5 -118.5t-96.5 -36.5q-39 0 -63 12z" />
    <glyph glyph-name="uni041C" unicode="&#x41c;" horiz-adv-x="834" 
d="M134 0h-55v715h77l260 -641h2l260 641h77v-715h-55v636h-2l-255 -636h-53l-254 636h-2v-636z" />
    <glyph glyph-name="uni041D" unicode="&#x41d;" horiz-adv-x="695" 
d="M134 0h-55v715h55v-314h427v314h55v-715h-55v352h-427v-352z" />
    <glyph glyph-name="uni041E" unicode="&#x41e;" horiz-adv-x="758" 
d="M203 35.5q-77 47.5 -119 131.5t-42 191t42 191t119 131t176 47t176 -47t119 -131t42 -191t-42 -191t-119 -131.5t-176 -47.5t-176 47.5zM527 78.5q63 41.5 97 114.5t34 165t-34 165t-97 114t-148 41t-148 -41t-97 -114t-34 -165t34 -165t97 -114.5t148 -41.5t148 41.5z
" />
    <glyph glyph-name="uni041F" unicode="&#x41f;" horiz-adv-x="675" 
d="M134 0h-55v715h517v-715h-55v666h-407v-666z" />
    <glyph glyph-name="uni0420" unicode="&#x420;" horiz-adv-x="599" 
d="M79 0v715h266q105 0 166.5 -49t61.5 -156t-61.5 -156t-166.5 -49h-211v-305h-55zM353 354q162 0 162 156t-162 156h-219v-312h219z" />
    <glyph glyph-name="uni0421" unicode="&#x421;" horiz-adv-x="690" 
d="M197.5 34.5q-73.5 46.5 -114.5 130.5t-41 192q0 107 41 191t115 131.5t170 47.5q78 0 139 -30t98.5 -82.5t48.5 -120.5h-58q-13 78 -71 131t-157 53q-85 0 -146 -43t-92 -116t-31 -162t31 -162t91.5 -115.5t144.5 -42.5q108 0 167.5 61.5t67.5 152.5h58
q-9 -78 -47 -137.5t-101.5 -92.5t-144.5 -33q-95 0 -168.5 46.5z" />
    <glyph glyph-name="uni0422" unicode="&#x422;" horiz-adv-x="580" 
d="M318 0h-55v666h-249v49h552v-49h-248v-666z" />
    <glyph glyph-name="uni0423" unicode="&#x423;" horiz-adv-x="569" 
d="M214 0h-56l95 202l-232 513h60l201 -450h2l213 450h56z" />
    <glyph glyph-name="uni0424" unicode="&#x424;" horiz-adv-x="697" 
d="M626 223q-35 -56 -99.5 -88t-152.5 -36v-99h-55v99q-131 8 -206.5 75.5t-75.5 178.5q0 113 75.5 182t206.5 77v103h55v-103q87 -4 152 -36.5t100 -90t35 -132.5q0 -74 -35 -130zM374 143q108 6 170 62t62 148q0 94 -62 151.5t-170 63.5v-425zM152 206.5
q61 -55.5 167 -63.5v425q-106 -8 -167 -65t-61 -150q0 -91 61 -146.5z" />
    <glyph glyph-name="uni0425" unicode="&#x425;" horiz-adv-x="565" 
d="M67 0h-66l249 368l-233 347h64l202 -306h1l203 306h63l-236 -349l250 -366h-65l-220 326h-1z" />
    <glyph glyph-name="uni0426" unicode="&#x426;" horiz-adv-x="681" 
d="M643 -130h-52v130h-512v715h55v-667h397v667h55v-667h57v-178z" />
    <glyph glyph-name="uni0427" unicode="&#x427;" horiz-adv-x="569" 
d="M435 0v330h-2q-24 -39 -74 -65t-108 -26q-94 0 -149.5 56t-55.5 160v260h55v-260q0 -79 42.5 -123.5t115.5 -44.5q66 0 106.5 27.5t69.5 76.5v324h55v-715h-55z" />
    <glyph glyph-name="uni0428" unicode="&#x428;" horiz-adv-x="835" 
d="M756 0h-677v715h55v-667h256v667h55v-667h256v667h55v-715z" />
    <glyph glyph-name="uni0429" unicode="&#x429;" horiz-adv-x="851" 
d="M813 -130h-52v130h-682v715h55v-667h256v667h55v-667h256v667h55v-667h57v-178z" />
    <glyph glyph-name="uni042A" unicode="&#x42a;" horiz-adv-x="645" 
d="M137 0v666h-130v49h185v-285h206q105 0 163.5 -56.5t58.5 -156.5q0 -101 -61 -159t-170 -58h-252zM390 49q81 0 126.5 44.5t45.5 123.5q0 75 -42.5 119.5t-117.5 44.5h-210v-332h198z" />
    <glyph glyph-name="uni042B" unicode="&#x42b;" horiz-adv-x="772" 
d="M79 0v715h55v-285h178q105 0 163.5 -56.5t58.5 -156.5q0 -102 -61 -159.5t-169 -57.5h-225zM693 0h-55v715h55v-715zM304 49q81 0 126.5 44.5t45.5 123.5q0 75 -42 119.5t-118 44.5h-182v-332h170z" />
    <glyph glyph-name="uni042C" unicode="&#x42c;" horiz-adv-x="587" 
d="M79 0v715h55v-285h206q105 0 163.5 -56.5t58.5 -156.5q0 -102 -61 -159.5t-169 -57.5h-253zM332 49q81 0 126.5 44.5t45.5 123.5q0 75 -42 119.5t-118 44.5h-210v-332h198z" />
    <glyph glyph-name="uni042D" unicode="&#x42d;" horiz-adv-x="682" 
d="M487 681.5q72 -45.5 112 -129t40 -194.5q0 -113 -39.5 -196.5t-110.5 -128.5t-164 -45q-83 0 -147.5 31t-102.5 85.5t-45 122.5h58q6 -52 35 -95.5t81 -69t121 -25.5q73 0 129.5 36t90 102.5t37.5 155.5h-302v49h303q-4 89 -37.5 156.5t-91.5 104.5t-133 37
q-95 0 -154.5 -45t-73.5 -115h-58q11 60 48.5 107.5t98 74.5t138.5 27q95 0 167 -45.5z" />
    <glyph glyph-name="uni042E" unicode="&#x42e;" horiz-adv-x="907" 
d="M726 681.5q66 -45.5 101.5 -128.5t35.5 -195t-35.5 -196t-101.5 -129.5t-155 -45.5q-86 0 -150.5 42.5t-101 121t-40.5 184.5h-145v-335h-55v715h55v-331h146q4 104 40.5 181.5t101 119.5t149.5 42q89 0 155 -45.5zM695 75q53 39 81.5 112t28.5 171t-28.5 170.5t-81 111
t-124.5 38.5t-124.5 -38.5t-81 -111t-28.5 -170.5t28.5 -171t81.5 -112t124 -39t124 39z" />
    <glyph glyph-name="uni042F" unicode="&#x42f;" horiz-adv-x="605" 
d="M37 6q6 7 9 25t7 55q7 67 17 114.5t39.5 87.5t83.5 50v2q-63 17 -99.5 62.5t-36.5 108.5q0 100 62 152t175 52h232v-715h-55v312h-207q-63 0 -95.5 -36.5t-43 -84t-16.5 -117.5q-2 -23 -4.5 -43.5t-6.5 -30.5h-61v6zM471 361v305h-181q-88 0 -132.5 -38.5t-44.5 -113.5
q0 -71 49.5 -112t136.5 -41h172z" />
    <glyph glyph-name="uni0430" unicode="&#x430;" horiz-adv-x="507" 
d="M79.5 26q-45.5 38 -45.5 101q0 74 48 109.5t154 53.5l22 3q45 7 70 14t41 24t16 48q0 47 -32.5 72.5t-92.5 25.5q-74 0 -109.5 -29.5t-39.5 -87.5h-53q4 69 52.5 115t150.5 46q78 0 125.5 -37.5t47.5 -121.5v-266q0 -32 6.5 -46t25.5 -14q2 0 16 2v-38q-15 -3 -30 -3
q-33 0 -49.5 18t-17.5 64h-2q-55 -91 -183 -91q-75 0 -120.5 38zM338 74.5q47 43.5 47 110.5v110q-10 -18 -46 -28.5t-94 -18.5q-80 -13 -119 -38t-39 -76t30.5 -77t90.5 -26q83 0 130 43.5z" />
    <glyph glyph-name="uni0431" unicode="&#x431;" horiz-adv-x="523" 
d="M103.5 64.5q-58.5 77.5 -58.5 224.5q0 150 43 239.5t141 108.5l100 21q42 8 67 24t25 34h54q0 -37 -30 -63t-80 -37l-126 -26q-65 -14 -98 -65t-46 -125h2q26 52 73 86.5t116 34.5q95 0 148.5 -69.5t53.5 -191.5q0 -124 -58 -198.5t-161 -74.5q-107 0 -165.5 77.5z
M391 92.5q44 62.5 44 167.5q0 100 -43.5 158.5t-119.5 58.5q-50 0 -88.5 -29t-59.5 -77t-21 -104q0 -109 43 -173t123 -64q78 0 122 62.5z" />
    <glyph glyph-name="uni0432" unicode="&#x432;" horiz-adv-x="463" 
d="M62 0v510h191q75 0 115.5 -35.5t40.5 -96.5q0 -40 -26 -72.5t-62 -42.5v-2q48 -7 79 -39.5t31 -81.5q0 -65 -43.5 -102.5t-117.5 -37.5h-208zM260 280q39 0 67.5 27.5t28.5 67.5q0 43 -27.5 67t-79.5 24h-137v-186h148zM267 44q52 0 81.5 26t29.5 71q0 46 -31.5 71.5
t-82.5 25.5h-152v-194h155z" />
    <glyph glyph-name="uni0433" unicode="&#x433;" horiz-adv-x="365" 
d="M112 0h-50v510h291v-44h-241v-466z" />
    <glyph glyph-name="uni0434" unicode="&#x434;" horiz-adv-x="505" 
d="M424 44h56v-174h-44v130h-386v-130h-44v174h28q23 0 38.5 25t17.5 63l26 378h308v-466zM107 44h269v422h-214l-23 -330q-3 -59 -32 -90v-2z" />
    <glyph glyph-name="uni0435" unicode="&#x435;" horiz-adv-x="529" 
d="M87 250v-2q0 -93 48 -155.5t138 -62.5q75 0 115 39t50 86h52q-19 -75 -74 -121.5t-144 -46.5q-74 0 -127.5 34t-82 94.5t-28.5 138.5q0 81 29.5 141t84 93t126.5 33q70 0 120 -31t76.5 -85.5t26.5 -123.5q0 -23 -1 -31h-409zM177 453q-41 -25 -64 -67t-26 -93h357
q0 51 -19.5 93t-59 67t-94.5 25q-53 0 -94 -25z" />
    <glyph glyph-name="uni0436" unicode="&#x436;" horiz-adv-x="611" 
d="M69 0h-61l169 254l-172 256h57l157 -236h62v236h50v-236h62l156 236h57l-172 -256l169 -254h-61l-152 230h-59v-230h-50v230h-60z" />
    <glyph glyph-name="uni0437" unicode="&#x437;" horiz-adv-x="441" 
d="M78 30.5q-51 43.5 -51 117.5h51q0 -53 39 -85t106 -32q62 0 97 29.5t35 81.5q0 43 -30 68.5t-80 25.5h-80v43h77q46 0 72.5 26t26.5 71q0 48 -33 74.5t-92 26.5q-62 0 -97.5 -29.5t-35.5 -80.5h-52q0 71 50.5 112.5t134.5 41.5q80 0 128 -38t48 -104q0 -42 -21.5 -72.5
t-58.5 -46.5v-1q42 -11 69 -43t27 -74q0 -72 -52 -113.5t-139 -41.5q-88 0 -139 43.5z" />
    <glyph glyph-name="uni0438" unicode="&#x438;" horiz-adv-x="544" 
d="M112 0h-50v510h50v-436l320 436h50v-510h-50v436z" />
    <glyph glyph-name="uni0439" unicode="&#x439;" horiz-adv-x="544" 
d="M112 0h-50v510h50v-436l320 436h50v-510h-50v436zM194.5 627q-32.5 33 -35.5 88h41q4 -37 24 -59t55 -22q36 0 56 22t25 59h40q-3 -55 -35.5 -88t-85.5 -33q-52 0 -84.5 33z" />
    <glyph glyph-name="uni043A" unicode="&#x43a;" horiz-adv-x="440" 
d="M439 510l-196 -257l198 -253h-64l-180 230h-85v-230h-50v510h50v-236h88l181 236h58z" />
    <glyph glyph-name="uni043B" unicode="&#x43b;" horiz-adv-x="475" 
d="M4 -6v43q23 -7 44 -7t31.5 14t12.5 46l20 420h301v-510h-50v466h-204l-19 -385q-2 -48 -25 -71t-60 -23q-30 0 -51 7z" />
    <glyph glyph-name="uni043C" unicode="&#x43c;" horiz-adv-x="642" 
d="M112 0h-50v510h61l198 -436h2l197 436h60v-510h-50v416h-2l-188 -415h-40l-186 415h-2v-416z" />
    <glyph glyph-name="uni043D" unicode="&#x43d;" horiz-adv-x="530" 
d="M418 281v229h50v-510h-50v238h-306v-238h-50v510h50v-229h306z" />
    <glyph glyph-name="uni043E" unicode="&#x43e;" horiz-adv-x="549" 
d="M146.5 20.5q-54.5 33.5 -83.5 94t-29 139.5t29 139.5t83.5 94t128.5 33.5q73 0 127.5 -33.5t83.5 -94t29 -139.5t-29 -139.5t-83.5 -94t-127.5 -33.5q-74 0 -128.5 33.5zM413.5 92.5q48.5 62.5 48.5 161.5t-48.5 161t-138.5 62q-91 0 -140 -62t-49 -161t49.5 -161.5
t139.5 -62.5t138.5 62.5z" />
    <glyph glyph-name="uni043F" unicode="&#x43f;" horiz-adv-x="520" 
d="M112 0h-50v510h396v-510h-50v466h-296v-466z" />
    <glyph glyph-name="uni0440" unicode="&#x440;" horiz-adv-x="552" 
d="M410 490q50 -32 79 -92.5t29 -142.5q0 -81 -29 -141t-79.5 -92t-111.5 -32q-68 0 -114 32t-70 85h-2v-284h-50v687h50v-102h2q25 50 71 82t114 32q61 0 111 -32zM383.5 61.5q39.5 28.5 60.5 79t21 114.5q0 99 -47 161.5t-127 62.5q-51 0 -91.5 -27.5t-64 -78.5
t-23.5 -118q0 -66 23.5 -116.5t64 -78t91.5 -27.5q53 0 92.5 28.5z" />
    <glyph glyph-name="uni0441" unicode="&#x441;" horiz-adv-x="518" 
d="M150 20.5q-55 33.5 -85.5 94t-30.5 139.5t30.5 139t85.5 93.5t126 33.5q59 0 105.5 -24.5t74.5 -66.5t34 -93h-53q-2 32 -20 64.5t-54 54.5t-87 22q-62 0 -105 -31t-64 -82t-21 -110t21 -110t64 -82t105 -31q52 0 87.5 22t53.5 55t20 67h53q-4 -52 -31.5 -95t-75 -68
t-107.5 -25q-71 0 -126 33.5z" />
    <glyph glyph-name="uni0442" unicode="&#x442;" horiz-adv-x="418" 
d="M234 0h-50v466h-172v44h394v-44h-172v-466z" />
    <glyph glyph-name="uni0443" unicode="&#x443;" horiz-adv-x="469" 
d="M53 -175v43q21 -3 40 -3q40 0 67.5 30.5t51.5 105.5l-206 509h56l174 -444h1l168 444h53l-203 -524q-25 -64 -47.5 -99.5t-48.5 -50.5t-61 -15q-18 0 -45 4z" />
    <glyph glyph-name="uni0444" unicode="&#x444;" horiz-adv-x="616" 
d="M552 118.5q-31 -58.5 -88.5 -92.5t-133.5 -38v-165h-50v165q-113 8 -179.5 79.5t-66.5 187.5t66.5 186.5t179.5 78.5v195h50v-195q76 -4 133.5 -37.5t88.5 -92t31 -135.5q0 -78 -31 -136.5zM330 31q92 8 146 67.5t54 156.5q0 96 -54 155t-146 66v-445zM138.5 99
q52.5 -60 141.5 -68v445q-89 -8 -141.5 -67t-52.5 -154q0 -96 52.5 -156z" />
    <glyph glyph-name="uni0445" unicode="&#x445;" horiz-adv-x="458" 
d="M56 0h-61l202 261l-186 249h61l156 -214h2l155 214h60l-185 -249l203 -261h-61l-173 228h-2z" />
    <glyph glyph-name="uni0446" unicode="&#x446;" horiz-adv-x="526" 
d="M494 -130h-46v130h-386v510h50v-466h286v466h50v-466h46v-174z" />
    <glyph glyph-name="uni0447" unicode="&#x447;" horiz-adv-x="473" 
d="M361 0v243l-2 -1q-26 -31 -65 -53t-86 -22q-79 0 -126 43t-47 134v166h50v-158q0 -74 34 -108t99 -34q83 0 143 84v216h50v-510h-50z" />
    <glyph glyph-name="uni0448" unicode="&#x448;" horiz-adv-x="681" 
d="M619 0h-557v510h50v-466h204v466h50v-466h203v466h50v-510z" />
    <glyph glyph-name="uni0449" unicode="&#x449;" horiz-adv-x="697" 
d="M665 -130h-46v130h-557v510h50v-466h204v466h50v-466h203v466h50v-466h46v-174z" />
    <glyph glyph-name="uni044A" unicode="&#x44a;" horiz-adv-x="473" 
d="M104 0v464h-94v46h144v-206h139q74 0 117 -42t43 -111q0 -68 -44 -109.5t-117 -41.5h-188zM292 44q50 0 79 28.5t29 78.5q0 51 -28 80t-81 29h-137v-216h138z" />
    <glyph glyph-name="uni044B" unicode="&#x44b;" horiz-adv-x="573" 
d="M62 0v510h50v-206h116q74 0 117 -42t43 -111q0 -68 -44.5 -109.5t-117.5 -41.5h-164zM511 0h-50v510h50v-510zM227 44q50 0 79 28.5t29 78.5q0 51 -28.5 80t-81.5 29h-113v-216h115z" />
    <glyph glyph-name="uni044C" unicode="&#x44c;" horiz-adv-x="432" 
d="M62 0v510h50v-206h140q74 0 117 -42t43 -111q0 -68 -44.5 -109.5t-117.5 -41.5h-188zM251 44q50 0 79 28.5t29 78.5q0 51 -28.5 80t-81.5 29h-137v-216h139z" />
    <glyph glyph-name="uni044D" unicode="&#x44d;" horiz-adv-x="503" 
d="M408 447q61 -73 61 -199q0 -74 -28 -133.5t-79 -93.5t-117 -34q-91 0 -150 45.5t-68 121.5h53q8 -56 51.5 -89.5t113.5 -33.5q75 0 121 55t51 145h-220v43h219q-5 96 -51.5 149.5t-126.5 53.5q-62 0 -106.5 -34t-52.5 -86h-53q11 72 70 117.5t142 45.5q109 0 170 -73z
" />
    <glyph glyph-name="uni044E" unicode="&#x44e;" horiz-adv-x="670" 
d="M580.5 451.5q54.5 -71.5 54.5 -196.5q0 -81 -24.5 -142t-71 -93.5t-108.5 -32.5q-90 0 -145 66t-60 180h-114v-233h-50v510h50v-233h114q5 115 60 180.5t145 65.5q95 0 149.5 -71.5zM541.5 91q40.5 61 40.5 164q0 105 -40.5 165t-110.5 60q-71 0 -112 -60t-41 -165
q0 -103 41.5 -164t111.5 -61t110.5 61z" />
    <glyph glyph-name="uni044F" unicode="&#x44f;" horiz-adv-x="460" 
d="M29 4q5 7 8 45q5 49 13 85t29.5 67.5t60.5 38.5v1q-43 10 -69 42.5t-26 79.5q0 69 46 108t135 39h172v-510h-50v218h-147q-46 0 -69.5 -28t-31 -64t-10.5 -84q-2 -35 -5 -42h-56v4zM348 262v204h-126q-63 0 -93.5 -26.5t-30.5 -72.5q0 -48 27.5 -76.5t80.5 -28.5h142z
" />
    <glyph glyph-name="uni0450" unicode="&#x450;" horiz-adv-x="529" 
d="M87 250v-2q0 -93 48 -155.5t138 -62.5q75 0 115 39t50 86h52q-19 -75 -74 -121.5t-144 -46.5q-74 0 -127.5 34t-82 94.5t-28.5 138.5q0 81 29.5 141t84 93t126.5 33q70 0 120 -31t76.5 -85.5t26.5 -123.5q0 -23 -1 -31h-409zM177 453q-41 -25 -64 -67t-26 -93h357
q0 51 -19.5 93t-59 67t-94.5 25q-53 0 -94 -25zM288 596h-43l-78 130h62z" />
    <glyph glyph-name="uni0451" unicode="&#x451;" horiz-adv-x="529" 
d="M87 250v-2q0 -93 48 -155.5t138 -62.5q75 0 115 39t50 86h52q-19 -75 -74 -121.5t-144 -46.5q-74 0 -127.5 34t-82 94.5t-28.5 138.5q0 81 29.5 141t84 93t126.5 33q70 0 120 -31t76.5 -85.5t26.5 -123.5q0 -23 -1 -31h-409zM177 453q-41 -25 -64 -67t-26 -93h357
q0 51 -19.5 93t-59 67t-94.5 25q-53 0 -94 -25zM236 615h-72v72h72v-72zM376 615h-72v72h72v-72z" />
    <glyph glyph-name="uni0452" unicode="&#x452;" horiz-adv-x="516" 
d="M297 -174v42q28 -4 54 -4q29 0 43 17.5t14 62.5v408q0 54 -29 89.5t-96 35.5q-49 0 -88 -22.5t-61 -57.5t-22 -71v-326h-50v599h-66v40h66v76h50v-76h158v-40h-158v-173h2q26 41 71 67.5t110 26.5q71 0 117 -41t46 -119v-419q0 -65 -27.5 -93t-73.5 -28q-36 0 -60 6z" />
    <glyph glyph-name="uni0453" unicode="&#x453;" horiz-adv-x="365" 
d="M112 0h-50v510h291v-44h-241v-466zM220 595h-44l63 130h63z" />
    <glyph glyph-name="uni0454" unicode="&#x454;" horiz-adv-x="502" 
d="M374 64q40 33 49 90h52q-9 -76 -64.5 -121.5t-143.5 -45.5q-70 0 -123 34.5t-82 94.5t-29 134q0 81 29.5 142t83.5 94.5t124 33.5q85 0 140.5 -45t66.5 -118h-53q-9 53 -49.5 86.5t-104.5 33.5q-82 0 -130.5 -53.5t-53.5 -149.5h220v-43h-220q5 -89 53.5 -144.5
t127.5 -55.5q67 0 107 33z" />
    <glyph glyph-name="uni0455" unicode="&#x455;" horiz-adv-x="466" 
d="M128 11q-49 23 -75 63t-28 89h53q3 -60 46 -96t122 -36q69 0 104.5 29.5t35.5 76.5q0 34 -17 53.5t-43 29.5t-71 21l-27 7q-64 17 -100 31t-60 40.5t-24 69.5q0 61 46 96t130 35q93 0 142.5 -42t57.5 -107h-52q-23 106 -148 106q-57 0 -90 -21.5t-33 -62.5
q0 -32 19.5 -50t46 -26.5t89.5 -24.5q64 -17 101.5 -32.5t61.5 -44.5t24 -76q0 -69 -52 -110t-143 -41q-67 0 -116 23z" />
    <glyph glyph-name="uni0456" unicode="&#x456;" horiz-adv-x="174" 
d="M112 0h-50v510h50v-510zM123 614h-72v72h72v-72z" />
    <glyph glyph-name="uni0457" unicode="&#x457;" horiz-adv-x="174" 
d="M73 614h-72v72h72v-72zM173 614h-72v72h72v-72zM112 0h-50v510h50v-510z" />
    <glyph glyph-name="uni0458" unicode="&#x458;" horiz-adv-x="174" 
d="M-22 -176v42q28 -2 35 -2q27 0 38 17t11 63v566h50v-567q0 -123 -89 -123q-22 0 -45 4zM123 614h-72v72h72v-72z" />
    <glyph glyph-name="uni0459" unicode="&#x459;" horiz-adv-x="675" 
d="M4 -6v43q23 -7 44 -7t31.5 14t12.5 46l20 420h267v-206h116q74 0 117 -42t43 -111q0 -68 -44.5 -109.5t-117.5 -41.5h-164v466h-170l-19 -385q-2 -48 -25 -71t-60 -23q-30 0 -51 7zM494 44q50 0 79 28.5t29 78.5q0 51 -28.5 80t-81.5 29h-113v-216h115z" />
    <glyph glyph-name="uni045A" unicode="&#x45a;" horiz-adv-x="694" 
d="M514 294q74 0 117 -39.5t43 -108.5q0 -67 -44.5 -106.5t-117.5 -39.5h-164v250h-236v-250h-50v510h50v-216h236v216h50v-216h116zM513 44q51 0 79.5 26.5t28.5 76.5t-28 76.5t-82 26.5h-113v-206h115z" />
    <glyph glyph-name="uni045B" unicode="&#x45b;" horiz-adv-x="516" 
d="M412 479q46 -41 46 -119v-360h-50v352q0 54 -29 89.5t-96 35.5q-49 0 -88 -22.5t-61 -57.5t-22 -71v-326h-50v599h-66v40h66v76h50v-76h158v-40h-158v-173h2q26 41 71 67.5t110 26.5q71 0 117 -41z" />
    <glyph glyph-name="uni045C" unicode="&#x45c;" horiz-adv-x="440" 
d="M439 510l-196 -257l198 -253h-64l-180 230h-85v-230h-50v510h50v-236h88l181 236h58zM252 595h-44l63 130h63z" />
    <glyph glyph-name="uni045D" unicode="&#x45d;" horiz-adv-x="544" 
d="M112 0h-50v510h50v-436l320 436h50v-510h-50v436zM297 595h-43l-78 130h62z" />
    <glyph glyph-name="uni045E" unicode="&#x45e;" horiz-adv-x="469" 
d="M53 -175v43q21 -3 40 -3q40 0 67.5 30.5t51.5 105.5l-206 509h56l174 -444h1l168 444h53l-203 -524q-25 -64 -47.5 -99.5t-48.5 -50.5t-61 -15q-18 0 -45 4zM147.5 627q-32.5 33 -35.5 88h41q4 -37 24 -59t55 -22q36 0 56 22t25 59h40q-3 -55 -35.5 -88t-85.5 -33
q-52 0 -84.5 33z" />
    <glyph glyph-name="uni045F" unicode="&#x45f;" horiz-adv-x="510" 
d="M280 -130h-46v130h-172v510h50v-466h286v466h50v-510h-168v-130z" />
    <glyph glyph-name="uni0490" unicode="&#x490;" horiz-adv-x="479" 
d="M134 0h-55v715h334v99h52v-148h-331v-666z" />
    <glyph glyph-name="uni0491" unicode="&#x491;" horiz-adv-x="365" 
d="M112 0h-50v510h248v110h43v-154h-241v-466z" />
    <glyph glyph-name="uni0492" unicode="&#x492;" horiz-adv-x="515" 
d="M499 715v-49h-331v-295h221v-43h-221v-328h-55v328h-112v43h112v344h386z" />
    <glyph glyph-name="uni0493" unicode="&#x493;" horiz-adv-x="387" 
d="M374 510v-44h-241v-188h166v-39h-166v-239h-50v239h-82v39h82v232h291z" />
    <glyph glyph-name="uni0496" unicode="&#x496;" horiz-adv-x="880" 
d="M606 350l244 -310h40v-170h-52v130h-25l-252 324h-93v-324h-56v324h-93l-252 -324h-69l277 350l-261 365h61l245 -343h92v343h56v-343h95l245 343h59z" />
    <glyph glyph-name="uni0497" unicode="&#x497;" horiz-adv-x="611" 
d="M434 254l141 -212h37v-172h-44v130h-26l-152 230h-59v-230h-50v230h-60l-152 -230h-61l169 254l-172 256h57l157 -236h62v236h50v-236h62l156 236h57z" />
    <glyph glyph-name="uni049A" unicode="&#x49a;" horiz-adv-x="601" 
d="M296 351l278 -311h42v-170h-52v130h-24l-291 324h-115v-324h-55v715h55v-343h117l283 343h61z" />
    <glyph glyph-name="uni049B" unicode="&#x49b;" horiz-adv-x="440" 
d="M243 253l165 -211h35v-172h-44v130h-22l-180 230h-85v-230h-50v510h50v-236h88l181 236h58z" />
    <glyph glyph-name="uni04A2" unicode="&#x4a2;" horiz-adv-x="695" 
d="M616 715v-675h27v-170h-52v130h-30v352h-427v-352h-55v715h55v-314h427v314h55z" />
    <glyph glyph-name="uni04A3" unicode="&#x4a3;" horiz-adv-x="530" 
d="M468 510v-468h24v-172h-44v130h-30v238h-306v-238h-50v510h50v-229h306v229h50z" />
    <glyph glyph-name="uni04AE" unicode="&#x4ae;" horiz-adv-x="607" 
d="M331 0h-55v293l-262 422h61l227 -376h3l229 376h60l-263 -422v-293z" />
    <glyph glyph-name="uni04AF" unicode="&#x4af;" horiz-adv-x="466" 
d="M262 -177h-50v215l-206 472h55l176 -408h2l165 408h54l-196 -472v-215z" />
    <glyph glyph-name="uni04B0" unicode="&#x4b0;" horiz-adv-x="606" 
d="M594 715l-263 -422v-45h169v-44h-169v-204h-55v204h-170v44h170v45l-262 422h61l227 -376h3l229 376h60z" />
    <glyph glyph-name="uni04B1" unicode="&#x4b1;" horiz-adv-x="466" 
d="M458 510l-196 -472v-61h136v-39h-136v-115h-50v115h-136v39h136v61l-206 472h55l176 -408h2l165 408h54z" />
    <glyph glyph-name="uni04B2" unicode="&#x4b2;" horiz-adv-x="565" 
d="M314 366l223 -326h39v-170h-52v130h-25l-220 326h-1l-211 -326h-66l249 368l-233 347h64l202 -306h1l203 306h63z" />
    <glyph glyph-name="uni04B3" unicode="&#x4b3;" horiz-adv-x="458" 
d="M260 261l170 -219h36v-172h-44v130h-20l-173 228h-2l-171 -228h-61l202 261l-186 249h61l156 -214h2l155 214h60z" />
    <glyph glyph-name="uni04B6" unicode="&#x4b6;" horiz-adv-x="569" 
d="M490 40h31v-170h-52v130h-34v330h-2q-24 -39 -74 -65t-108 -26q-94 0 -149.5 56t-55.5 160v260h55v-260q0 -79 42.5 -123.5t115.5 -44.5q66 0 106.5 27.5t69.5 76.5v324h55v-675z" />
    <glyph glyph-name="uni04B7" unicode="&#x4b7;" horiz-adv-x="473" 
d="M411 42h17v-172h-44v130h-23v243l-2 -1q-26 -31 -65 -53t-86 -22q-79 0 -126 43t-47 134v166h50v-158q0 -74 34 -108t99 -34q83 0 143 84v216h50v-468z" />
    <glyph glyph-name="uni04BA" unicode="&#x4ba;" horiz-adv-x="580" 
d="M79 0v716h55v-321h2q24 39 74 65t113 26q99 0 154.5 -54t55.5 -156v-276h-55v270q0 80 -42 124t-121 44q-84 0 -132.5 -48t-48.5 -132v-258h-55z" />
    <glyph glyph-name="uni04BB" unicode="&#x4bb;" horiz-adv-x="516" 
d="M412 479q46 -41 46 -119v-360h-50v352q0 54 -29 89.5t-96 35.5q-49 0 -88 -22.5t-61 -57.5t-22 -71v-326h-50v715h50v-289h2q26 41 71 67.5t110 26.5q71 0 117 -41z" />
    <glyph glyph-name="uni04D8" unicode="&#x4d8;" horiz-adv-x="711" 
d="M520.5 679.5q70.5 -47.5 109.5 -131t39 -189.5q0 -110 -39 -194.5t-110.5 -131t-164.5 -46.5q-94 0 -165.5 43t-110.5 120t-39 176q0 22 3 47h568q-2 91 -35 160t-90.5 107t-131.5 38q-62 0 -113 -22t-83.5 -60.5t-41.5 -86.5h-59q11 63 53.5 112.5t107 77.5t140.5 28
q92 0 162.5 -47.5zM485 71.5q55 35.5 87.5 101t37.5 151.5h-512q0 -87 31.5 -152t90 -100.5t137.5 -35.5q73 0 128 35.5z" />
    <glyph glyph-name="uni04D9" unicode="&#x4d9;" horiz-adv-x="520" 
d="M380.5 487q50.5 -33 77.5 -93t27 -139q0 -82 -28 -142.5t-79 -93t-119 -32.5q-66 0 -117.5 30.5t-80 85.5t-28.5 124q0 16 3 41h396q-3 97 -49.5 153t-119.5 56q-66 0 -111 -30.5t-59 -83.5h-53q14 70 75 113.5t148 43.5q67 0 117.5 -33zM378.5 80.5
q45.5 49.5 52.5 143.5h-346q0 -86 47.5 -139.5t126.5 -53.5q74 0 119.5 49.5z" />
    <glyph glyph-name="uni04E2" unicode="&#x4e2;" horiz-adv-x="715" 
d="M134 0h-55v715h55v-630h2l445 630h55v-715h-55v629h-2zM484 830h-240v45h240v-45z" />
    <glyph glyph-name="uni04E3" unicode="&#x4e3;" horiz-adv-x="544" 
d="M112 0h-50v510h50v-436l320 436h50v-510h-50v436zM400 625h-240v45h240v-45z" />
    <glyph glyph-name="uni04E8" unicode="&#x4e8;" horiz-adv-x="758" 
d="M555 680q77 -47 119 -131t42 -191t-42 -191t-119 -131.5t-176 -47.5t-176 47.5t-119 131.5t-42 191t42 191t119 131t176 47t176 -47zM236.5 640q-61.5 -38 -96.5 -105t-39 -153h556q-4 86 -39 153t-96.5 105t-142.5 38t-142.5 -38zM521.5 75q61.5 38 96.5 105.5t39 153.5
h-556q4 -86 39 -153.5t96.5 -105.5t142.5 -38t142.5 38z" />
    <glyph glyph-name="uni04E9" unicode="&#x4e9;" horiz-adv-x="549" 
d="M402.5 487.5q54.5 -33.5 83.5 -94t29 -139.5t-29 -139.5t-83.5 -94t-127.5 -33.5q-74 0 -128.5 33.5t-83.5 94t-29 139.5t29 139.5t83.5 94t128.5 33.5q73 0 127.5 -33.5zM141 421.5q-49 -55.5 -54 -145.5h374q-5 90 -53 145.5t-133 55.5t-134 -55.5zM408 86
q48 56 53 146h-374q5 -90 54 -146t134 -56t133 56z" />
    <glyph glyph-name="uni04EE" unicode="&#x4ee;" horiz-adv-x="569" 
d="M214 0h-56l95 202l-232 513h60l201 -450h2l213 450h56zM409 830h-240v45h240v-45z" />
    <glyph glyph-name="uni04EF" unicode="&#x4ef;" horiz-adv-x="469" 
d="M53 -175v43q21 -3 40 -3q40 0 67.5 30.5t51.5 105.5l-206 509h56l174 -444h1l168 444h53l-203 -524q-25 -64 -47.5 -99.5t-48.5 -50.5t-61 -15q-18 0 -45 4zM353 625h-240v45h240v-45z" />
    <glyph glyph-name="uni139A" unicode="&#x139a;" horiz-adv-x="660" 
 />
    <glyph glyph-name="Wgrave" unicode="&#x1e80;" horiz-adv-x="884" 
d="M261 0h-61l-182 715h58l157 -636h2l176 636h63l176 -636h2l157 636h57l-182 -715h-61l-179 645h-3zM460 800h-43l-78 130h62z" />
    <glyph glyph-name="wgrave" unicode="&#x1e81;" horiz-adv-x="725" 
d="M235 0h-59l-162 510h55l136 -452h2l126 452h59l127 -452h2l137 452h54l-163 -510h-59l-127 448h-2zM381 595h-43l-78 130h62z" />
    <glyph glyph-name="Wacute" unicode="&#x1e82;" horiz-adv-x="884" 
d="M261 0h-61l-182 715h58l157 -636h2l176 636h63l176 -636h2l157 636h57l-182 -715h-61l-179 645h-3zM461 800h-44l63 130h63z" />
    <glyph glyph-name="wacute" unicode="&#x1e83;" horiz-adv-x="725" 
d="M235 0h-59l-162 510h55l136 -452h2l126 452h59l127 -452h2l137 452h54l-163 -510h-59l-127 448h-2zM382 595h-44l63 130h63z" />
    <glyph glyph-name="Wdieresis" unicode="&#x1e84;" horiz-adv-x="884" 
d="M261 0h-61l-182 715h58l157 -636h2l176 636h63l176 -636h2l157 636h57l-182 -715h-61l-179 645h-3zM408 819h-72v72h72v-72zM548 819h-72v72h72v-72z" />
    <glyph glyph-name="wdieresis" unicode="&#x1e85;" horiz-adv-x="725" 
d="M235 0h-59l-162 510h55l136 -452h2l126 452h59l127 -452h2l137 452h54l-163 -510h-59l-127 448h-2zM329 614h-72v72h72v-72zM469 614h-72v72h72v-72z" />
    <glyph glyph-name="Ygrave" unicode="&#x1ef2;" horiz-adv-x="607" 
d="M331 0h-55v293l-262 422h61l227 -376h3l229 376h60l-263 -422v-293zM322 800h-43l-78 130h62z" />
    <glyph glyph-name="ygrave" unicode="&#x1ef3;" horiz-adv-x="469" 
d="M53 -175v43q21 -3 40 -3q40 0 67.5 30.5t51.5 105.5l-206 509h56l174 -444h1l168 444h53l-203 -524q-25 -64 -47.5 -99.5t-48.5 -50.5t-61 -15q-18 0 -45 4zM250 595h-43l-78 130h62z" />
    <glyph glyph-name="uni2000" unicode="&#x2000;" horiz-adv-x="500" 
 />
    <glyph glyph-name="uni2001" unicode="&#x2001;" horiz-adv-x="1000" 
 />
    <glyph glyph-name="uni2002" unicode="&#x2002;" horiz-adv-x="500" 
 />
    <glyph glyph-name="uni2003" unicode="&#x2003;" horiz-adv-x="1000" 
 />
    <glyph glyph-name="uni2004" unicode="&#x2004;" horiz-adv-x="333" 
 />
    <glyph glyph-name="uni2005" unicode="&#x2005;" horiz-adv-x="250" 
 />
    <glyph glyph-name="uni2006" unicode="&#x2006;" horiz-adv-x="167" 
 />
    <glyph glyph-name="uni2007" unicode="&#x2007;" horiz-adv-x="640" 
 />
    <glyph glyph-name="uni2008" unicode="&#x2008;" horiz-adv-x="176" 
 />
    <glyph glyph-name="uni2009" unicode="&#x2009;" horiz-adv-x="125" 
 />
    <glyph glyph-name="uni200A" unicode="&#x200a;" horiz-adv-x="42" 
 />
    <glyph glyph-name="uni200B" unicode="&#x200b;" 
 />
    <glyph glyph-name="endash" unicode="&#x2013;" horiz-adv-x="582" 
d="M541 231h-500v48h500v-48z" />
    <glyph glyph-name="emdash" unicode="&#x2014;" horiz-adv-x="1081" 
d="M1040 230h-1000v49h1000v-49z" />
    <glyph glyph-name="quoteleft" unicode="&#x2018;" horiz-adv-x="169" 
d="M119 679q-21 -8 -29 -25t-7 -53h36v-72h-72v72q0 46 14.5 73t57.5 41v-36z" />
    <glyph glyph-name="quoteright" unicode="&#x2019;" horiz-adv-x="162" 
d="M51 565q21 8 28.5 25t7.5 53h-37v72h72v-72q0 -46 -14 -73t-57 -41v36z" />
    <glyph glyph-name="quotesinglbase" unicode="&#x201a;" horiz-adv-x="170" 
d="M49 -78q21 8 28.5 25t7.5 53h-37v72h72v-72q0 -46 -14 -73t-57 -41v36z" />
    <glyph glyph-name="quotedblleft" unicode="&#x201c;" horiz-adv-x="289" 
d="M47 601q0 46 14.5 73t57.5 41v-36q-21 -8 -29 -25t-7 -53h36v-72h-72v72zM239 679q-21 -8 -29 -25t-7 -53h36v-72h-72v72q0 46 14.5 73t57.5 41v-36z" />
    <glyph glyph-name="quotedblright" unicode="&#x201d;" horiz-adv-x="282" 
d="M51 565q21 8 28.5 25t7.5 53h-37v72h72v-72q0 -46 -14 -73t-57 -41v36zM171 565q21 8 28.5 25t7.5 53h-37v72h72v-72q0 -46 -14 -73t-57 -41v36z" />
    <glyph glyph-name="quotedblbase" unicode="&#x201e;" horiz-adv-x="290" 
d="M169 -78q21 8 28.5 25t7.5 53h-37v72h72v-72q0 -46 -14 -73t-57 -41v36zM49 -78q21 8 28.5 25t7.5 53h-37v72h72v-72q0 -46 -14 -73t-57 -41v36z" />
    <glyph glyph-name="dagger" unicode="&#x2020;" horiz-adv-x="467" 
d="M262 -177h-56v625h-192v48h192v219h56v-219h191v-48h-191v-625z" />
    <glyph glyph-name="daggerdbl" unicode="&#x2021;" horiz-adv-x="510" 
d="M281 -177h-55v305h-191v48h191v272h-193v48h193v219h55v-219h192v-48h-192v-272h195v-48h-195v-305z" />
    <glyph glyph-name="bullet" unicode="&#x2022;" horiz-adv-x="322" 
d="M241 220h-160v160h160v-160z" />
    <glyph glyph-name="ellipsis" unicode="&#x2026;" horiz-adv-x="520" 
d="M124 0h-72v72h72v-72zM296 0h-72v72h72v-72zM468 0h-72v72h72v-72z" />
    <glyph glyph-name="perthousand" unicode="&#x2030;" horiz-adv-x="1095" 
d="M63.5 369.5q-38.5 53.5 -38.5 136.5q0 82 38 135.5t112 53.5q73 0 111.5 -53.5t38.5 -135.5q0 -83 -38 -136.5t-112 -53.5q-73 0 -111.5 53.5zM203 0h-53l399 687h53zM251.5 401q24.5 41 24.5 105t-24.5 105t-76.5 41q-53 0 -77.5 -41t-24.5 -105t24.5 -105t77.5 -41
q52 0 76.5 41zM466.5 41.5q-38.5 53.5 -38.5 135.5q0 83 38 136.5t112 53.5q73 0 111 -53.5t38 -136.5t-37.5 -136t-111.5 -53q-73 0 -111.5 53.5zM810.5 41.5q-38.5 53.5 -38.5 135.5q0 83 38.5 136.5t111.5 53.5t111.5 -53.5t38.5 -136.5q0 -82 -38 -135.5t-112 -53.5
q-73 0 -111.5 53.5zM654.5 72.5q24.5 41.5 24.5 104.5q0 64 -24.5 105t-76.5 41q-53 0 -77.5 -41t-24.5 -105q0 -63 24.5 -104.5t77.5 -41.5q52 0 76.5 41.5zM999.5 72.5q24.5 41.5 24.5 104.5q0 64 -24.5 105t-77.5 41q-52 0 -76.5 -41t-24.5 -105q0 -63 24.5 -104.5
t76.5 -41.5q53 0 77.5 41.5z" />
    <glyph glyph-name="guilsinglleft" unicode="&#x2039;" horiz-adv-x="291" 
d="M235 135v-60l-192 160v62l192 159v-60l-161 -130v-2z" />
    <glyph glyph-name="guilsinglright" unicode="&#x203a;" horiz-adv-x="291" 
d="M248 234l-192 -159v60l161 129v2l-161 129v61l192 -160v-62z" />
    <glyph glyph-name="fraction" unicode="&#x2044;" horiz-adv-x="176" 
d="M-112 0h-56l453 715h56z" />
    <glyph glyph-name="uni2070" unicode="&#x2070;" horiz-adv-x="376" 
d="M70.5 421q-40.5 59 -40.5 151t40.5 151.5t117.5 59.5q78 0 118 -59.5t40 -151.5q0 -91 -40 -150.5t-118 -59.5q-77 0 -117.5 59zM269 448.5q26 46.5 26 123.5t-26 124t-81 47t-81 -47.5t-26 -123.5t26 -123t81 -47t81 46.5z" />
    <glyph glyph-name="uni2074" unicode="&#x2074;" horiz-adv-x="343" 
d="M265 364h-48v98h-197v45l197 263h48v-267h60v-41h-60v-98zM217 709l-153 -206h153v206z" />
    <glyph glyph-name="uni2075" unicode="&#x2075;" horiz-adv-x="337" 
d="M63.5 391.5q-37.5 34.5 -39.5 87.5h48q3 -37 27 -59.5t68 -22.5q43 0 69 26.5t26 77.5q0 48 -24.5 71.5t-66.5 23.5q-29 0 -53 -11.5t-39 -30.5h-47l44 216h215v-40h-179l-28 -133v-1q35 38 98 38q59 0 94 -37.5t35 -96.5q0 -66 -39.5 -104.5t-102.5 -38.5
q-68 0 -105.5 34.5z" />
    <glyph glyph-name="uni2076" unicode="&#x2076;" horiz-adv-x="355" 
d="M69.5 413q-37.5 53 -37.5 148q0 107 40.5 163.5t115.5 56.5q52 0 86.5 -30t39.5 -78h-49q-3 32 -23.5 50.5t-54.5 18.5q-107 0 -107 -168v-14h2q13 35 44 54t68 19q60 0 96 -37.5t36 -97.5q0 -61 -38 -99.5t-103 -38.5q-78 0 -115.5 53zM253 426q25 27 25 71t-24.5 70.5
t-66.5 26.5q-41 0 -69.5 -27.5t-28.5 -74.5q0 -39 25.5 -66t69.5 -27t69 27z" />
    <glyph glyph-name="uni2077" unicode="&#x2077;" horiz-adv-x="297" 
d="M73 364q0 98 41.5 201.5t113.5 163.5v1h-223v40h277v-36q-79 -62 -119 -164.5t-40 -205.5h-50z" />
    <glyph glyph-name="uni2078" unicode="&#x2078;" horiz-adv-x="358" 
d="M71.5 394q-43.5 32 -43.5 89q0 73 82 105v1q-63 30 -63 88q0 49 37.5 77.5t94.5 28.5q58 0 94.5 -28.5t36.5 -77.5q0 -59 -61 -88v-1q80 -33 80 -105q0 -57 -43 -89t-107 -32t-107.5 32zM241 623.5q23 18.5 23 51.5t-23.5 51.5t-61.5 18.5q-39 0 -62 -18.5t-23 -51.5
t23 -51.5t62 -18.5t62 18.5zM252 423.5q28 23.5 28 62.5q0 38 -28 61t-73 23q-44 0 -73 -23t-29 -61q0 -39 28.5 -62.5t73.5 -23.5t73 23.5z" />
    <glyph glyph-name="uni2079" unicode="&#x2079;" horiz-adv-x="353" 
d="M80 391.5q-35 29.5 -40 77.5h50q3 -31 22.5 -50t54.5 -19q56 0 81.5 44.5t25.5 122.5v16h-1q-12 -35 -43.5 -54.5t-68.5 -19.5q-60 0 -96.5 37.5t-36.5 97.5q0 61 38.5 100t102.5 39q78 0 115.5 -53t37.5 -148q0 -107 -40.5 -163.5t-115.5 -56.5q-51 0 -86 29.5z
M237.5 576q28.5 27 28.5 74q0 40 -25.5 67t-70.5 27q-44 0 -68.5 -27t-24.5 -71q0 -45 24.5 -71t66.5 -26q41 0 69.5 27z" />
    <glyph glyph-name="uni2080" unicode="&#x2080;" horiz-adv-x="376" 
d="M70.5 -48q-40.5 59 -40.5 151t40.5 151.5t117.5 59.5q78 0 118 -59.5t40 -151.5q0 -91 -40 -150.5t-118 -59.5q-77 0 -117.5 59zM269 -20.5q26 46.5 26 123.5t-26 124t-81 47t-81 -47.5t-26 -123.5t26 -123t81 -47t81 46.5z" />
    <glyph glyph-name="uni2081" unicode="&#x2081;" horiz-adv-x="194" 
d="M95 217q-14 -14 -34 -18.5t-50 -4.5v39q46 0 68.5 17t23.5 56h40v-406h-48v317z" />
    <glyph glyph-name="uni2082" unicode="&#x2082;" horiz-adv-x="332" 
d="M22 -100q0 53 28 92.5t81 71.5l26 16q51 30 74 53t23 61q0 34 -20 57t-60 23q-46 0 -70 -28.5t-24 -74.5h-48q0 61 37.5 102t106.5 41q56 0 91.5 -31.5t35.5 -85.5q0 -36 -15.5 -61.5t-38 -43t-61.5 -41.5q-6 -4 -36.5 -22t-48 -40.5t-20.5 -47.5v-1h218v-40h-279z" />
    <glyph glyph-name="uni2083" unicode="&#x2083;" horiz-adv-x="352" 
d="M65.5 -69q-41.5 38 -41.5 105h48q0 -48 26.5 -75.5t79.5 -27.5q46 0 70 21t24 58q0 41 -25.5 60.5t-62.5 19.5h-39v39h37q34 0 55.5 18.5t21.5 52.5q0 31 -21 51.5t-60 20.5q-49 0 -71.5 -24.5t-22.5 -62.5h-48q0 56 38 91.5t106 35.5q53 0 90.5 -29.5t37.5 -79.5
q0 -64 -64 -91v-1q39 -12 58.5 -38.5t19.5 -63.5q0 -56 -38.5 -87t-102.5 -31q-74 0 -115.5 38z" />
    <glyph glyph-name="uni2084" unicode="&#x2084;" horiz-adv-x="343" 
d="M265 -100h-48v98h-197v45l197 263h48v-267h60v-41h-60v-98zM217 245l-153 -206h153v206z" />
    <glyph glyph-name="uni2085" unicode="&#x2085;" horiz-adv-x="337" 
d="M63.5 -72.5q-37.5 34.5 -39.5 87.5h48q3 -37 27 -59.5t68 -22.5q43 0 69 26.5t26 77.5q0 48 -24.5 71.5t-66.5 23.5q-29 0 -53 -11.5t-39 -30.5h-47l44 216h215v-40h-179l-28 -133v-1q35 38 98 38q59 0 94 -37.5t35 -96.5q0 -66 -39.5 -104.5t-102.5 -38.5
q-68 0 -105.5 34.5z" />
    <glyph glyph-name="uni2086" unicode="&#x2086;" horiz-adv-x="355" 
d="M69.5 -54q-37.5 53 -37.5 148q0 107 40.5 163.5t115.5 56.5q52 0 86.5 -30t39.5 -78h-49q-3 32 -23.5 50.5t-54.5 18.5q-107 0 -107 -168v-14h2q13 35 44 54t68 19q60 0 96 -37.5t36 -97.5q0 -61 -38 -99.5t-103 -38.5q-78 0 -115.5 53zM253 -41q25 27 25 71t-24.5 70.5
t-66.5 26.5q-41 0 -69.5 -27.5t-28.5 -74.5q0 -39 25.5 -66t69.5 -27t69 27z" />
    <glyph glyph-name="uni2087" unicode="&#x2087;" horiz-adv-x="297" 
d="M73 -100q0 98 41.5 201.5t113.5 163.5v1h-223v40h277v-36q-79 -62 -119 -164.5t-40 -205.5h-50z" />
    <glyph glyph-name="uni2088" unicode="&#x2088;" horiz-adv-x="358" 
d="M71.5 -75q-43.5 32 -43.5 89q0 73 82 105v1q-63 30 -63 88q0 49 37.5 77.5t94.5 28.5q58 0 94.5 -28.5t36.5 -77.5q0 -59 -61 -88v-1q80 -33 80 -105q0 -57 -43 -89t-107 -32t-107.5 32zM241 154.5q23 18.5 23 51.5t-23.5 51.5t-61.5 18.5q-39 0 -62 -18.5t-23 -51.5
t23 -51.5t62 -18.5t62 18.5zM252 -45.5q28 23.5 28 62.5q0 38 -28 61t-73 23q-44 0 -73 -23t-29 -61q0 -39 28.5 -62.5t73.5 -23.5t73 23.5z" />
    <glyph glyph-name="uni2089" unicode="&#x2089;" horiz-adv-x="353" 
d="M80 -77.5q-35 29.5 -40 77.5h50q3 -31 22.5 -50t54.5 -19q56 0 81.5 44.5t25.5 122.5v16h-1q-12 -35 -43.5 -54.5t-68.5 -19.5q-60 0 -96.5 37.5t-36.5 97.5q0 61 38.5 100t102.5 39q78 0 115.5 -53t37.5 -148q0 -107 -40.5 -163.5t-115.5 -56.5q-51 0 -86 29.5z
M237.5 107q28.5 27 28.5 74q0 40 -25.5 67t-70.5 27q-44 0 -68.5 -27t-24.5 -71q0 -45 24.5 -71t66.5 -26q41 0 69.5 27z" />
    <glyph glyph-name="Euro" unicode="&#x20ac;" horiz-adv-x="649" 
d="M498 95.5q45 58.5 50 146.5h56q-12 -118 -71.5 -186t-162.5 -68q-104 0 -170.5 73t-83.5 201h-64v41h60q-1 13 -1 40q0 26 1 39h-60v41h64q17 128 83.5 201t170.5 73q101 0 160.5 -63.5t73.5 -162.5h-56q-11 73 -54.5 125t-123.5 52q-84 0 -134.5 -60.5t-64.5 -164.5h227
v-41h-231q-1 -13 -1 -39q0 -27 1 -40h231v-41h-227q14 -104 64.5 -164.5t134.5 -60.5q83 0 128 58.5z" />
    <glyph glyph-name="trademark" unicode="&#x2122;" horiz-adv-x="656" 
d="M160 437h-44v240h-96v38h237v-38h-97v-240zM342 437h-43v278h66l79 -226h1l81 226h65v-278h-43v224h-2l-78 -224h-46l-78 224h-2v-224z" />
    <glyph glyph-name="uni2126" unicode="&#x2126;" horiz-adv-x="776" 
d="M39 0v49h179q-78 51 -122 134t-44 186q0 100 42 181.5t119 129t176 47.5t175 -47t118 -128.5t42 -181.5q0 -103 -43.5 -186t-122.5 -135h179v-49h-278v38q98 51 152.5 127t54.5 195q0 93 -34.5 165t-97.5 112.5t-146 40.5t-146 -40.5t-97.5 -112.5t-34.5 -165
q0 -119 54.5 -195t152.5 -127l1 -38h-279z" />
    <glyph glyph-name="oneeighth" unicode="&#x215b;" horiz-adv-x="719" 
d="M106 626q-14 -14 -34 -18.5t-50 -4.5v39q46 0 68.5 17t23.5 56h40v-406h-48v317zM111 0h-56l453 715h56zM435.5 25q-43.5 32 -43.5 89q0 73 82 105v1q-63 30 -63 88q0 49 37.5 77.5t94.5 28.5q58 0 94.5 -28.5t36.5 -77.5q0 -59 -61 -88v-1q80 -33 80 -105q0 -57 -43 -89
t-107 -32t-107.5 32zM605 254.5q23 18.5 23 51.5t-23.5 51.5t-61.5 18.5q-39 0 -62 -18.5t-23 -51.5t23 -51.5t62 -18.5t62 18.5zM616 54.5q28 23.5 28 62.5q0 38 -28 61t-73 23q-44 0 -73 -23t-29 -61q0 -39 28.5 -62.5t73.5 -23.5t73 23.5z" />
    <glyph glyph-name="threeeighths" unicode="&#x215c;" horiz-adv-x="848" 
d="M73.5 340q-41.5 38 -41.5 105h48q0 -48 26.5 -75.5t79.5 -27.5q46 0 70 21t24 58q0 41 -25.5 60.5t-62.5 19.5h-39v39h37q34 0 55.5 18.5t21.5 52.5q0 31 -21 51.5t-60 20.5q-49 0 -71.5 -24.5t-22.5 -62.5h-48q0 56 38 91.5t106 35.5q53 0 90.5 -29.5t37.5 -79.5
q0 -64 -64 -91v-1q39 -12 58.5 -38.5t19.5 -63.5q0 -56 -38.5 -87t-102.5 -31q-74 0 -115.5 38zM241 0h-56l453 715h56zM560.5 25q-43.5 32 -43.5 89q0 73 82 105v1q-63 30 -63 88q0 49 37.5 77.5t94.5 28.5q58 0 94.5 -28.5t36.5 -77.5q0 -59 -61 -88v-1q80 -33 80 -105
q0 -57 -43 -89t-107 -32t-107.5 32zM730 254.5q23 18.5 23 51.5t-23.5 51.5t-61.5 18.5q-39 0 -62 -18.5t-23 -51.5t23 -51.5t62 -18.5t62 18.5zM741 54.5q28 23.5 28 62.5q0 38 -28 61t-73 23q-44 0 -73 -23t-29 -61q0 -39 28.5 -62.5t73.5 -23.5t73 23.5z" />
    <glyph glyph-name="fiveeighths" unicode="&#x215d;" horiz-adv-x="823" 
d="M63.5 336.5q-37.5 34.5 -39.5 87.5h48q3 -37 27 -59.5t68 -22.5q43 0 69 26.5t26 77.5q0 48 -24.5 71.5t-66.5 23.5q-29 0 -53 -11.5t-39 -30.5h-47l44 216h215v-40h-179l-28 -133v-1q35 38 98 38q59 0 94 -37.5t35 -96.5q0 -66 -39.5 -104.5t-102.5 -38.5
q-68 0 -105.5 34.5zM221 0h-56l453 715h56zM539.5 25q-43.5 32 -43.5 89q0 73 82 105v1q-63 30 -63 88q0 49 37.5 77.5t94.5 28.5q58 0 94.5 -28.5t36.5 -77.5q0 -59 -61 -88v-1q80 -33 80 -105q0 -57 -43 -89t-107 -32t-107.5 32zM709 254.5q23 18.5 23 51.5t-23.5 51.5
t-61.5 18.5q-39 0 -62 -18.5t-23 -51.5t23 -51.5t62 -18.5t62 18.5zM720 54.5q28 23.5 28 62.5q0 38 -28 61t-73 23q-44 0 -73 -23t-29 -61q0 -39 28.5 -62.5t73.5 -23.5t73 23.5z" />
    <glyph glyph-name="seveneighths" unicode="&#x215e;" horiz-adv-x="755" 
d="M89 309q0 98 41.5 201.5t113.5 163.5v1h-223v40h277v-36q-79 -62 -119 -164.5t-40 -205.5h-50zM130 0h-56l453 715h56zM468.5 25q-43.5 32 -43.5 89q0 73 82 105v1q-63 30 -63 88q0 49 37.5 77.5t94.5 28.5q58 0 94.5 -28.5t36.5 -77.5q0 -59 -61 -88v-1q80 -33 80 -105
q0 -57 -43 -89t-107 -32t-107.5 32zM638 254.5q23 18.5 23 51.5t-23.5 51.5t-61.5 18.5q-39 0 -62 -18.5t-23 -51.5t23 -51.5t62 -18.5t62 18.5zM649 54.5q28 23.5 28 62.5q0 38 -28 61t-73 23q-44 0 -73 -23t-29 -61q0 -39 28.5 -62.5t73.5 -23.5t73 23.5z" />
    <glyph glyph-name="arrowleft" unicode="&#x2190;" horiz-adv-x="782" 
d="M330 82l-35 -32l-250 270l250 270l35 -32l-199 -214h605v-47h-605z" />
    <glyph glyph-name="arrowup" unicode="&#x2191;" horiz-adv-x="579" 
d="M313 0h-47v605l-214 -198l-33 34l270 250l270 -250l-32 -34l-214 198v-605z" />
    <glyph glyph-name="arrowright" unicode="&#x2192;" horiz-adv-x="782" 
d="M737 320l-250 -270l-35 32l199 215h-605v47h605l-199 214l35 32z" />
    <glyph glyph-name="arrowdown" unicode="&#x2193;" horiz-adv-x="578" 
d="M559 210l-270 -250l-270 250l32 34l215 -198v605h47v-605l214 198z" />
    <glyph glyph-name="arrowboth" unicode="&#x2194;" horiz-adv-x="1141" 
d="M329 82l-34 -32l-250 270l250 270l34 -32l-198 -214h879l-198 214l34 32l250 -270l-250 -270l-34 32l198 215h-879z" />
    <glyph glyph-name="arrowupdn" unicode="&#x2195;" horiz-adv-x="594" 
d="M567 73l-270 -250l-270 250l32 34l214 -198v791l-214 -198l-32 34l270 250l270 -250l-32 -34l-215 198v-791l215 198z" />
    <glyph glyph-name="uni2196" unicode="&#x2196;" horiz-adv-x="586" 
d="M559 123l-34 -34l-427 428l1 -290h-47v369h371v-46h-292z" />
    <glyph glyph-name="uni2197" unicode="&#x2197;" horiz-adv-x="586" 
d="M488 517l-427 -428l-34 34l429 427h-293v46h371v-369h-47z" />
    <glyph glyph-name="uni2198" unicode="&#x2198;" horiz-adv-x="587" 
d="M532 48h-370v46h292l-428 427l33 34l427 -428v290h46v-369z" />
    <glyph glyph-name="uni2199" unicode="&#x2199;" horiz-adv-x="587" 
d="M426 48h-371v369h47l-1 -290l427 428l34 -34l-429 -427h293v-46z" />
    <glyph glyph-name="partialdiff" unicode="&#x2202;" horiz-adv-x="509" 
d="M120 16q-45 28 -70 78.5t-25 115.5q0 70 28.5 129.5t80 94t116.5 34.5q58 0 100.5 -28t64.5 -79q-16 129 -82 207t-200 105v44q175 -30 254 -140t79 -274q0 -87 -27 -158.5t-81.5 -114t-133.5 -42.5q-59 0 -104 28zM329.5 65.5q41.5 32.5 62.5 82.5t21 102
q0 74 -42.5 123.5t-115.5 49.5q-53 0 -93.5 -28.5t-63 -78t-22.5 -109.5q0 -76 41.5 -125t111.5 -49q59 0 100.5 32.5z" />
    <glyph glyph-name="emptyset" unicode="&#x2205;" horiz-adv-x="842" 
d="M695 591q45 -48 69 -110.5t24 -135.5q0 -105 -48 -186t-131.5 -126t-186.5 -45q-71 0 -134 22t-112 63l-65 -65l-27 27l64 64q-45 48 -69 110.5t-24 135.5q0 105 48.5 186.5t132 126.5t186.5 45q71 0 134 -22t111 -63l66 66l27 -28zM115 224.5q21 -55.5 60 -98.5l464 464
q-43 36 -99 56t-118 20q-92 0 -167 -40.5t-118 -114t-43 -166.5q0 -65 21 -120.5zM588.5 65.5q74.5 40.5 117.5 113t43 166.5q0 65 -21.5 120.5t-60.5 98.5l-464 -464q44 -36 100 -55.5t119 -19.5q92 0 166.5 40.5z" />
    <glyph glyph-name="uni2206" unicode="&#x2206;" horiz-adv-x="626" 
d="M279 715h67l262 -668v-47h-590v47zM315 660h-5l-235 -611h475z" />
    <glyph glyph-name="product" unicode="&#x220f;" horiz-adv-x="693" 
d="M134 -100h-55v815h535v-815h-55v766h-425v-766z" />
    <glyph glyph-name="summation" unicode="&#x2211;" horiz-adv-x="575" 
d="M548 -100h-518v51l298 369v2l-298 343v50h511v-49h-445v-1l281 -326v-32l-285 -357v-1h456v-49z" />
    <glyph glyph-name="minus" unicode="&#x2212;" horiz-adv-x="533" 
d="M482 302h-431v48h431v-48z" />
    <glyph glyph-name="uni2219" unicode="&#x2219;" horiz-adv-x="287" 
d="M180 312h-72v72h72v-72z" />
    <glyph glyph-name="radical" unicode="&#x221a;" horiz-adv-x="606" 
d="M311 -100h-52l-135 356h-79v48h115l123 -333h2l243 744h56z" />
    <glyph glyph-name="infinity" unicode="&#x221e;" horiz-adv-x="739" 
d="M649 427.5q39 -46.5 39 -123.5q0 -76 -39 -122.5t-104 -46.5q-55 0 -95 36t-78 97q-41 -65 -80.5 -99t-96.5 -34q-67 0 -106 47.5t-39 121.5t39 122t105 48q57 0 98.5 -35t79.5 -95q40 63 78 96.5t94 33.5q66 0 105 -46.5zM276.5 214.5q31.5 30.5 68.5 89.5
q-34 57 -67.5 89t-76.5 32q-49 0 -74.5 -33.5t-25.5 -87.5q0 -53 25.5 -86.5t75.5 -33.5q43 0 74.5 30.5zM611.5 217.5q25.5 33.5 25.5 86.5q0 55 -25.5 88t-74.5 33q-42 0 -72 -30.5t-67 -90.5q35 -57 66.5 -88.5t73.5 -31.5q48 0 73.5 33.5z" />
    <glyph glyph-name="integral" unicode="&#x222b;" horiz-adv-x="355" 
d="M49.5 -170q-19.5 3 -30.5 7v49q29 -7 53 -7q43 0 60.5 29.5t17.5 100.5v561q0 167 119 167q38 0 68 -10v-49q-29 7 -53 7q-43 0 -61 -30.5t-18 -99.5v-561q0 -78 -27 -122.5t-92 -44.5q-17 0 -36.5 3z" />
    <glyph glyph-name="approxequal" unicode="&#x2248;" horiz-adv-x="569" 
d="M63 330q2 45 27.5 71t75.5 26q26 0 53.5 -5.5t66.5 -16.5q42 -10 66 -15t47 -5q33 0 47 11.5t16 40.5h47q-2 -45 -27.5 -70.5t-77.5 -25.5q-27 0 -56 5.5t-70 16.5q-74 19 -107 19q-31 0 -45 -12t-16 -40h-47zM63 184q2 45 27.5 71t75.5 26q26 0 51 -5t69 -16
q42 -10 66 -15t47 -5q33 0 47 11.5t16 40.5h47q-2 -45 -28 -71t-77 -26q-27 0 -56 5.5t-70 16.5t-64 15.5t-43 4.5q-31 0 -45 -12t-16 -41h-47z" />
    <glyph glyph-name="notequal" unicode="&#x2260;" horiz-adv-x="532" 
d="M481 420v-48h-168l-44 -93h212v-48h-235l-56 -117h-47l56 117h-146v48h168l45 93h-213v48h235l57 119h48l-57 -119h145z" />
    <glyph glyph-name="lessequal" unicode="&#x2264;" horiz-adv-x="500" 
d="M445 170v-52l-397 165v60l397 166v-51l-351 -144v-2zM445 0h-397v45h397v-45z" />
    <glyph glyph-name="greaterequal" unicode="&#x2265;" horiz-adv-x="500" 
d="M452 286l-397 -167v51l349 143v2l-349 143v51l397 -168v-55zM452 0h-397v45h397v-45z" />
    <glyph glyph-name="uni2266" unicode="&#x2266;" horiz-adv-x="546" 
d="M485 267v-53l-428 163v63l428 164v-53l-377 -142v-2zM485 141h-428v48h428v-48zM485 0h-428v48h428v-48z" />
    <glyph glyph-name="uni2267" unicode="&#x2267;" horiz-adv-x="546" 
d="M489 377l-428 -163v53l378 140v2l-378 142v53l428 -164v-63zM489 141h-428v48h428v-48zM489 0h-428v48h428v-48z" />
    <glyph glyph-name="uni2460" unicode="&#x2460;" horiz-adv-x="846" 
d="M229.5 34q-84.5 46 -131 130t-46.5 193t46.5 193t131 130.5t194.5 46.5q109 0 193 -46.5t130.5 -130.5t46.5 -193t-46.5 -193t-130.5 -130t-193 -46q-110 0 -194.5 46zM590.5 73.5q72.5 40.5 113 114.5t40.5 169q0 96 -40.5 169.5t-113 114.5t-166.5 41q-95 0 -168 -41
t-113.5 -114.5t-40.5 -169.5q0 -95 40.5 -169t113.5 -114.5t168 -40.5q94 0 166.5 40.5zM405 472q-14 -14 -34 -18.5t-50 -4.5v39q46 0 68.5 17t23.5 56h40v-406h-48v317z" />
    <glyph glyph-name="uni2461" unicode="&#x2461;" horiz-adv-x="846" 
d="M229.5 34q-84.5 46 -131 130t-46.5 193t46.5 193t131 130.5t194.5 46.5q109 0 193 -46.5t130.5 -130.5t46.5 -193t-46.5 -193t-130.5 -130t-193 -46q-110 0 -194.5 46zM590.5 73.5q72.5 40.5 113 114.5t40.5 169q0 96 -40.5 169.5t-113 114.5t-166.5 41q-95 0 -168 -41
t-113.5 -114.5t-40.5 -169.5q0 -95 40.5 -169t113.5 -114.5t168 -40.5q94 0 166.5 40.5zM279 155q0 53 28 92.5t81 71.5l26 16q51 30 74 53t23 61q0 34 -20 57t-60 23q-46 0 -70 -28.5t-24 -74.5h-48q0 61 37.5 102t106.5 41q56 0 91.5 -31.5t35.5 -85.5q0 -36 -15.5 -61.5
t-38 -43t-61.5 -41.5q-6 -4 -36.5 -22t-48 -40.5t-20.5 -47.5v-1h218v-40h-279z" />
    <glyph glyph-name="uni2462" unicode="&#x2462;" horiz-adv-x="846" 
d="M229.5 34q-84.5 46 -131 130t-46.5 193t46.5 193t131 130.5t194.5 46.5q109 0 193 -46.5t130.5 -130.5t46.5 -193t-46.5 -193t-130.5 -130t-193 -46q-110 0 -194.5 46zM590.5 73.5q72.5 40.5 113 114.5t40.5 169q0 96 -40.5 169.5t-113 114.5t-166.5 41q-95 0 -168 -41
t-113.5 -114.5t-40.5 -169.5q0 -95 40.5 -169t113.5 -114.5t168 -40.5q94 0 166.5 40.5zM313.5 185q-41.5 38 -41.5 105h48q0 -48 26.5 -75.5t79.5 -27.5q46 0 70 21t24 58q0 41 -25.5 60.5t-62.5 19.5h-39v39h37q34 0 55.5 18.5t21.5 52.5q0 31 -21 51.5t-60 20.5
q-49 0 -71.5 -24.5t-22.5 -62.5h-48q0 56 38 91.5t106 35.5q53 0 90.5 -29.5t37.5 -79.5q0 -64 -64 -91v-1q39 -12 58.5 -38.5t19.5 -63.5q0 -56 -38.5 -87t-102.5 -31q-74 0 -115.5 38z" />
    <glyph glyph-name="uni2463" unicode="&#x2463;" horiz-adv-x="846" 
d="M229.5 34q-84.5 46 -131 130t-46.5 193t46.5 193t131 130.5t194.5 46.5q109 0 193 -46.5t130.5 -130.5t46.5 -193t-46.5 -193t-130.5 -130t-193 -46q-110 0 -194.5 46zM590.5 73.5q72.5 40.5 113 114.5t40.5 169q0 96 -40.5 169.5t-113 114.5t-166.5 41q-95 0 -168 -41
t-113.5 -114.5t-40.5 -169.5q0 -95 40.5 -169t113.5 -114.5t168 -40.5q94 0 166.5 40.5zM495 154h-48v98h-197v45l197 263h48v-267h60v-41h-60v-98zM447 499l-153 -206h153v206z" />
    <glyph glyph-name="uni2464" unicode="&#x2464;" horiz-adv-x="846" 
d="M229.5 34q-84.5 46 -131 130t-46.5 193t46.5 193t131 130.5t194.5 46.5q109 0 193 -46.5t130.5 -130.5t46.5 -193t-46.5 -193t-130.5 -130t-193 -46q-110 0 -194.5 46zM590.5 73.5q72.5 40.5 113 114.5t40.5 169q0 96 -40.5 169.5t-113 114.5t-166.5 41q-95 0 -168 -41
t-113.5 -114.5t-40.5 -169.5q0 -95 40.5 -169t113.5 -114.5t168 -40.5q94 0 166.5 40.5zM319.5 181.5q-37.5 34.5 -39.5 87.5h48q3 -37 27 -59.5t68 -22.5q43 0 69 26.5t26 77.5q0 48 -24.5 71.5t-66.5 23.5q-29 0 -53 -11.5t-39 -30.5h-47l44 216h215v-40h-179l-28 -133v-1
q35 38 98 38q59 0 94 -37.5t35 -96.5q0 -66 -39.5 -104.5t-102.5 -38.5q-68 0 -105.5 34.5z" />
    <glyph glyph-name="uni2465" unicode="&#x2465;" horiz-adv-x="846" 
d="M229.5 34q-84.5 46 -131 130t-46.5 193t46.5 193t131 130.5t194.5 46.5q109 0 193 -46.5t130.5 -130.5t46.5 -193t-46.5 -193t-130.5 -130t-193 -46q-110 0 -194.5 46zM590.5 73.5q72.5 40.5 113 114.5t40.5 169q0 96 -40.5 169.5t-113 114.5t-166.5 41q-95 0 -168 -41
t-113.5 -114.5t-40.5 -169.5q0 -95 40.5 -169t113.5 -114.5t168 -40.5q94 0 166.5 40.5zM313.5 200q-37.5 53 -37.5 148q0 107 40.5 163.5t115.5 56.5q52 0 86.5 -30t39.5 -78h-49q-3 32 -23.5 50.5t-54.5 18.5q-107 0 -107 -168v-14h2q13 35 44 54t68 19q60 0 96 -37.5
t36 -97.5q0 -61 -38 -99.5t-103 -38.5q-78 0 -115.5 53zM497 213q25 27 25 71t-24.5 70.5t-66.5 26.5q-41 0 -69.5 -27.5t-28.5 -74.5q0 -39 25.5 -66t69.5 -27t69 27z" />
    <glyph glyph-name="uni2466" unicode="&#x2466;" horiz-adv-x="846" 
d="M229.5 34q-84.5 46 -131 130t-46.5 193t46.5 193t131 130.5t194.5 46.5q109 0 193 -46.5t130.5 -130.5t46.5 -193t-46.5 -193t-130.5 -130t-193 -46q-110 0 -194.5 46zM590.5 73.5q72.5 40.5 113 114.5t40.5 169q0 96 -40.5 169.5t-113 114.5t-166.5 41q-95 0 -168 -41
t-113.5 -114.5t-40.5 -169.5q0 -95 40.5 -169t113.5 -114.5t168 -40.5q94 0 166.5 40.5zM351 143q0 98 41.5 201.5t113.5 163.5v1h-223v40h277v-36q-79 -62 -119 -164.5t-40 -205.5h-50z" />
    <glyph glyph-name="uni2467" unicode="&#x2467;" horiz-adv-x="846" 
d="M229.5 34q-84.5 46 -131 130t-46.5 193t46.5 193t131 130.5t194.5 46.5q109 0 193 -46.5t130.5 -130.5t46.5 -193t-46.5 -193t-130.5 -130t-193 -46q-110 0 -194.5 46zM590.5 73.5q72.5 40.5 113 114.5t40.5 169q0 96 -40.5 169.5t-113 114.5t-166.5 41q-95 0 -168 -41
t-113.5 -114.5t-40.5 -169.5q0 -95 40.5 -169t113.5 -114.5t168 -40.5q94 0 166.5 40.5zM315.5 179q-43.5 32 -43.5 89q0 73 82 105v1q-63 30 -63 88q0 49 37.5 77.5t94.5 28.5q58 0 94.5 -28.5t36.5 -77.5q0 -59 -61 -88v-1q80 -33 80 -105q0 -57 -43 -89t-107 -32
t-107.5 32zM485 408.5q23 18.5 23 51.5t-23.5 51.5t-61.5 18.5q-39 0 -62 -18.5t-23 -51.5t23 -51.5t62 -18.5t62 18.5zM496 208.5q28 23.5 28 62.5q0 38 -28 61t-73 23q-44 0 -73 -23t-29 -61q0 -39 28.5 -62.5t73.5 -23.5t73 23.5z" />
    <glyph glyph-name="uni2468" unicode="&#x2468;" horiz-adv-x="846" 
d="M229.5 34q-84.5 46 -131 130t-46.5 193t46.5 193t131 130.5t194.5 46.5q109 0 193 -46.5t130.5 -130.5t46.5 -193t-46.5 -193t-130.5 -130t-193 -46q-110 0 -194.5 46zM590.5 73.5q72.5 40.5 113 114.5t40.5 169q0 96 -40.5 169.5t-113 114.5t-166.5 41q-95 0 -168 -41
t-113.5 -114.5t-40.5 -169.5q0 -95 40.5 -169t113.5 -114.5t168 -40.5q94 0 166.5 40.5zM326 176.5q-35 29.5 -40 77.5h50q3 -31 22.5 -50t54.5 -19q56 0 81.5 44.5t25.5 122.5v16h-1q-12 -35 -43.5 -54.5t-68.5 -19.5q-60 0 -96.5 37.5t-36.5 97.5q0 61 38.5 100t102.5 39
q78 0 115.5 -53t37.5 -148q0 -107 -40.5 -163.5t-115.5 -56.5q-51 0 -86 29.5zM483.5 361q28.5 27 28.5 74q0 40 -25.5 67t-70.5 27q-44 0 -68.5 -27t-24.5 -71q0 -45 24.5 -71t66.5 -26q41 0 69.5 27z" />
    <glyph glyph-name="uni24EA" unicode="&#x24ea;" horiz-adv-x="846" 
d="M229.5 34q-84.5 46 -131 130t-46.5 193t46.5 193t131 130.5t194.5 46.5q109 0 193 -46.5t130.5 -130.5t46.5 -193t-46.5 -193t-130.5 -130t-193 -46q-110 0 -194.5 46zM590.5 73.5q72.5 40.5 113 114.5t40.5 169q0 96 -40.5 169.5t-113 114.5t-166.5 41q-95 0 -168 -41
t-113.5 -114.5t-40.5 -169.5q0 -95 40.5 -169t113.5 -114.5t168 -40.5q94 0 166.5 40.5zM305.5 206q-40.5 59 -40.5 151t40.5 151.5t117.5 59.5q78 0 118 -59.5t40 -151.5q0 -91 -40 -150.5t-118 -59.5q-77 0 -117.5 59zM504 233.5q26 46.5 26 123.5t-26 124t-81 47
t-81 -47.5t-26 -123.5t26 -123t81 -47t81 46.5z" />
    <glyph glyph-name="upblock" unicode="&#x2580;" horiz-adv-x="847" 
d="M781 357h-715v358h715v-358z" />
    <glyph glyph-name="dnblock" unicode="&#x2584;" horiz-adv-x="849" 
d="M782 0h-715v358h715v-358z" />
    <glyph glyph-name="block" unicode="&#x2588;" horiz-adv-x="873" 
d="M794 0h-715v715h715v-715z" />
    <glyph glyph-name="filledbox" unicode="&#x25a0;" horiz-adv-x="873" 
d="M794 0h-715v715h715v-715z" />
    <glyph glyph-name="uni25A1" unicode="&#x25a1;" horiz-adv-x="873" 
d="M794 0h-715v715h715v-715zM129 665v-615h615v615h-615z" />
    <glyph glyph-name="uni25AA" unicode="&#x25aa;" horiz-adv-x="281" 
d="M221 240h-160v160h160v-160z" />
    <glyph glyph-name="uni25AB" unicode="&#x25ab;" horiz-adv-x="342" 
d="M277 214h-212v212h212v-212zM115 376v-112h112v112h-112z" />
    <glyph glyph-name="triagup" unicode="&#x25b2;" horiz-adv-x="828" 
d="M814 0h-800l400 715z" />
    <glyph glyph-name="triagrt" unicode="&#x25ba;" horiz-adv-x="843" 
d="M805 357l-715 -400v800z" />
    <glyph glyph-name="triagdn" unicode="&#x25bc;" horiz-adv-x="829" 
d="M815 715l-400 -715l-400 715h800z" />
    <glyph glyph-name="triaglf" unicode="&#x25c4;" horiz-adv-x="843" 
d="M753 757v-800l-715 400z" />
    <glyph glyph-name="lozenge" unicode="&#x25ca;" horiz-adv-x="549" 
d="M305 0h-59l-202 358l201 357h59l201 -357zM99 359l176 -310h1l174 307l-176 310h-1z" />
    <glyph glyph-name="circle" unicode="&#x25cb;" horiz-adv-x="846" 
d="M229.5 34q-84.5 46 -131 130t-46.5 193t46.5 193t131 130.5t194.5 46.5q109 0 193 -46.5t130.5 -130.5t46.5 -193t-46.5 -193t-130.5 -130t-193 -46q-110 0 -194.5 46zM590.5 73.5q72.5 40.5 113 114.5t40.5 169q0 96 -40.5 169.5t-113 114.5t-166.5 41q-95 0 -168 -41
t-113.5 -114.5t-40.5 -169.5q0 -95 40.5 -169t113.5 -114.5t168 -40.5q94 0 166.5 40.5z" />
    <glyph glyph-name="uni25CF" unicode="&#x25cf;" horiz-adv-x="843" 
d="M236 37.5q-85 49.5 -134.5 134.5t-49.5 185t49.5 185t134.5 135t186 50q100 0 185 -50t134.5 -135t49.5 -185t-49.5 -185t-134.5 -134.5t-185 -49.5q-101 0 -186 49.5z" />
    <glyph glyph-name="uni2B0E" unicode="&#x2b0e;" horiz-adv-x="646" 
d="M362 87l212 197l32 -34l-270 -250l-270 250l33 34l212 -197v378h-285v47h336v-425z" />
    <glyph glyph-name="uni2B0F" unicode="&#x2b0f;" horiz-adv-x="651" 
d="M70 262l270 250l270 -250l-32 -34l-213 197v-425h-335v47h284v378l-212 -197z" />
    <glyph glyph-name="uni2B10" unicode="&#x2b10;" horiz-adv-x="650" 
d="M621 508v-47h-285v-378l212 197l33 -34l-270 -250l-270 250l32 34l212 -197v425h336z" />
    <glyph glyph-name="uni2B11" unicode="&#x2b11;" horiz-adv-x="649" 
d="M336 423v-378h284v-47h-336v425l-212 -197l-32 34l270 250l270 -250l-32 -34z" />
    <glyph glyph-name="uni2BA0" unicode="&#x2ba0;" horiz-adv-x="606" 
d="M505 279v285h47v-336h-425l197 -212l-34 -32l-250 270l250 270l34 -33l-197 -212h378z" />
    <glyph glyph-name="uni2BA1" unicode="&#x2ba1;" horiz-adv-x="607" 
d="M282 494l34 33l250 -270l-250 -270l-34 32l197 212h-425v336h47v-285h378z" />
    <glyph glyph-name="uni2BA2" unicode="&#x2ba2;" horiz-adv-x="607" 
d="M326 503l-197 -212h425v-336h-47v285h-378l197 -212l-34 -33l-250 270l250 270z" />
    <glyph glyph-name="uni2BA3" unicode="&#x2ba3;" horiz-adv-x="607" 
d="M281 503l35 32l250 -270l-250 -270l-35 33l197 212h-378v-285h-47v336h425z" />
    <glyph glyph-name="uni2BA4" unicode="&#x2ba4;" horiz-adv-x="649" 
d="M336 423v-378h284v-47h-336v425l-212 -197l-32 34l270 250l270 -250l-32 -34z" />
    <glyph glyph-name="uni2BA5" unicode="&#x2ba5;" horiz-adv-x="651" 
d="M70 262l270 250l270 -250l-32 -34l-213 197v-425h-335v47h284v378l-212 -197z" />
    <glyph glyph-name="uni2BA6" unicode="&#x2ba6;" horiz-adv-x="650" 
d="M621 508v-47h-285v-378l212 197l33 -34l-270 -250l-270 250l32 34l212 -197v425h336z" />
    <glyph glyph-name="uni2BA7" unicode="&#x2ba7;" horiz-adv-x="646" 
d="M362 87l212 197l32 -34l-270 -250l-270 250l33 34l212 -197v378h-285v47h336v-425z" />
    <glyph glyph-name="fi" unicode="&#xfb01;" horiz-adv-x="423" 
d="M165 670q-14 -7 -19.5 -25t-5.5 -55v-80h105v-44h-105v-466h-50v466h-73v44h73v81q0 76 26 103t84 27q20 0 45 -4v-42q-32 2 -38 2q-28 0 -42 -7zM361 0h-50v510h50v-510zM372 614h-72v72h72v-72z" />
    <glyph glyph-name="fl" unicode="&#xfb02;" horiz-adv-x="423" 
d="M165 670q-14 -7 -19.5 -25t-5.5 -55v-80h105v-44h-105v-466h-50v466h-73v44h73v81q0 76 26 103t84 27q20 0 45 -4v-42q-32 2 -38 2q-28 0 -42 -7zM361 0h-50v715h50v-715z" />
    <glyph glyph-name="uniFEFF" unicode="&#xfeff;" 
 />
    <glyph glyph-name="u1F150" unicode="&#x1f150;" horiz-adv-x="570" 
d="M174 318q-51 29 -80.5 79.5t-29.5 112.5t29.5 112.5t80.5 79.5t111 29t111 -29t80.5 -79.5t29.5 -112.5t-29.5 -112.5t-80.5 -79.5t-111 -29t-111 29z" />
    <glyph glyph-name="Adieresis.ss02" horiz-adv-x="625" 
d="M68 0h-57l270 715h62l273 -715h-59l-81 217h-327zM311 660l-144 -394h291l-145 394h-2zM212.5 827q-10.5 11 -10.5 28t10.5 28t29.5 11q18 0 28.5 -11.5t10.5 -27.5t-10.5 -27.5t-28.5 -11.5q-19 0 -29.5 11zM352.5 827.5q-10.5 11.5 -10.5 27.5t10.5 27.5t28.5 11.5
q19 0 29.5 -11t10.5 -28t-10.5 -28t-29.5 -11q-18 0 -28.5 11.5z" />
    <glyph glyph-name="Cdotaccent.ss02" horiz-adv-x="690" 
d="M197.5 34.5q-73.5 46.5 -114.5 130.5t-41 192q0 107 41 191t115 131.5t170 47.5q78 0 139 -30t98.5 -82.5t48.5 -120.5h-58q-13 78 -71 131t-157 53q-85 0 -146 -43t-92 -116t-31 -162t31 -162t91.5 -115.5t144.5 -42.5q108 0 167.5 61.5t67.5 152.5h58
q-9 -78 -47 -137.5t-101.5 -92.5t-144.5 -33q-95 0 -168.5 46.5zM342.5 827.5q-10.5 11.5 -10.5 27.5q0 17 10 28t29 11q18 0 29 -11.5t11 -27.5t-11 -27.5t-29 -11.5t-28.5 11.5z" />
    <glyph glyph-name="Edieresis.ss02" horiz-adv-x="593" 
d="M564 0h-485v715h474v-49h-419v-266h379v-48h-379v-303h430v-49zM223.5 827q-10.5 11 -10.5 28t10.5 28t29.5 11q18 0 28.5 -11.5t10.5 -27.5t-10.5 -27.5t-28.5 -11.5q-19 0 -29.5 11zM363.5 827.5q-10.5 11.5 -10.5 27.5t10.5 27.5t28.5 11.5q19 0 29.5 -11t10.5 -28
t-10.5 -28t-29.5 -11q-18 0 -28.5 11.5z" />
    <glyph glyph-name="Edotaccent.ss02" horiz-adv-x="593" 
d="M564 0h-485v715h474v-49h-419v-266h379v-48h-379v-303h430v-49zM293.5 827.5q-10.5 11.5 -10.5 27.5q0 17 10 28t29 11q18 0 29 -11.5t11 -27.5t-11 -27.5t-29 -11.5t-28.5 11.5z" />
    <glyph glyph-name="uni0122.ss02" horiz-adv-x="726" 
d="M190.5 35.5q-72.5 47.5 -110 131t-37.5 190.5q0 105 40 189t115 132.5t177 48.5q119 0 193.5 -59t93.5 -162h-56q-17 80 -78.5 126t-152.5 46q-90 0 -151.5 -45t-92 -118t-30.5 -158q0 -88 27.5 -160.5t87 -116t150.5 -43.5q75 0 132.5 34.5t89 96.5t31.5 144h-242v49
h297v-361h-40l-14 154h-2q-29 -76 -92 -121t-160 -45q-103 0 -175.5 47.5zM342 -181q46 16 47 57q-10 -2 -13 -2q-17 0 -27.5 11t-10.5 28q0 18 10.5 29t29.5 11q20 0 31.5 -15t11.5 -43q0 -38 -20 -67.5t-59 -40.5v32z" />
    <glyph glyph-name="Gdotaccent.ss02" horiz-adv-x="726" 
d="M190.5 35.5q-72.5 47.5 -110 131t-37.5 190.5q0 105 40 189t115 132.5t177 48.5q119 0 193.5 -59t93.5 -162h-56q-17 80 -78.5 126t-152.5 46q-90 0 -151.5 -45t-92 -118t-30.5 -158q0 -88 27.5 -160.5t87 -116t150.5 -43.5q75 0 132.5 34.5t89 96.5t31.5 144h-242v49
h297v-361h-40l-14 154h-2q-29 -76 -92 -121t-160 -45q-103 0 -175.5 47.5zM343.5 827.5q-10.5 11.5 -10.5 27.5q0 17 10 28t29 11q18 0 29 -11.5t11 -27.5t-11 -27.5t-29 -11.5t-28.5 11.5z" />
    <glyph glyph-name="Idieresis.ss02" horiz-adv-x="213" 
d="M134 0h-55v715h55v-715zM7.5 827q-10.5 11 -10.5 28t10.5 28t29.5 11q18 0 28.5 -11.5t10.5 -27.5t-10.5 -27.5t-28.5 -11.5q-19 0 -29.5 11zM147.5 827.5q-10.5 11.5 -10.5 27.5t10.5 27.5t28.5 11.5q19 0 29.5 -11t10.5 -28t-10.5 -28t-29.5 -11q-18 0 -28.5 11.5z" />
    <glyph glyph-name="Idotaccent.ss02" horiz-adv-x="213" 
d="M134 0h-55v715h55v-715zM77.5 827.5q-10.5 11.5 -10.5 27.5q0 17 10 28t29 11q18 0 29 -11.5t11 -27.5t-11 -27.5t-29 -11.5t-28.5 11.5z" />
    <glyph glyph-name="uni0136.ss02" horiz-adv-x="619" 
d="M628 0h-64l-280 376l-150 -157v-219h-55v715h55v-430l410 430h63l-288 -302zM293 -181q46 16 47 57q-10 -2 -13 -2q-17 0 -27.5 11t-10.5 28q0 18 10.5 29t29.5 11q20 0 31.5 -15t11.5 -43q0 -38 -20 -67.5t-59 -40.5v32z" />
    <glyph glyph-name="uni013B.ss02" horiz-adv-x="544" 
d="M530 0h-451v715h55v-666h396v-49zM266 -181q46 16 47 57q-10 -2 -13 -2q-17 0 -27.5 11t-10.5 28q0 18 10.5 29t29.5 11q20 0 31.5 -15t11.5 -43q0 -38 -20 -67.5t-59 -40.5v32z" />
    <glyph glyph-name="uni0145.ss02" horiz-adv-x="699" 
d="M134 0h-55v715h68l416 -638h2v638h55v-715h-68l-416 637h-2v-637zM305 -181q46 16 47 57q-10 -2 -13 -2q-17 0 -27.5 11t-10.5 28q0 18 10.5 29t29.5 11q20 0 31.5 -15t11.5 -43q0 -38 -20 -67.5t-59 -40.5v32z" />
    <glyph glyph-name="Odieresis.ss02" horiz-adv-x="758" 
d="M203 35.5q-77 47.5 -119 131.5t-42 191t42 191t119 131t176 47t176 -47t119 -131t42 -191t-42 -191t-119 -131.5t-176 -47.5t-176 47.5zM527 78.5q63 41.5 97 114.5t34 165t-34 165t-97 114t-148 41t-148 -41t-97 -114t-34 -165t34 -165t97 -114.5t148 -41.5t148 41.5z
M279.5 827q-10.5 11 -10.5 28t10.5 28t29.5 11q18 0 28.5 -11.5t10.5 -27.5t-10.5 -27.5t-28.5 -11.5q-19 0 -29.5 11zM419.5 827.5q-10.5 11.5 -10.5 27.5t10.5 27.5t28.5 11.5q19 0 29.5 -11t10.5 -28t-10.5 -28t-29.5 -11q-18 0 -28.5 11.5z" />
    <glyph glyph-name="uni0156.ss02" horiz-adv-x="633" 
d="M79 0v715h271q112 0 172 -50.5t60 -147.5q0 -74 -37 -121.5t-100 -63.5v-2q52 -11 80 -50.5t37.5 -86t15.5 -110.5q4 -39 7.5 -56.5t11.5 -20.5v-6h-58q-7 6 -9.5 22t-5.5 52q-4 66 -14.5 113t-44.5 82.5t-100 35.5h-231v-305h-55zM336 353q91 0 141 41t50 122
q0 76 -45 113t-139 37h-209v-313h202zM290 -181q46 16 47 57q-10 -2 -13 -2q-17 0 -27.5 11t-10.5 28q0 18 10.5 29t29.5 11q20 0 31.5 -15t11.5 -43q0 -38 -20 -67.5t-59 -40.5v32z" />
    <glyph glyph-name="uni0218.ss02" horiz-adv-x="607" 
d="M118.5 52q-81.5 64 -88.5 182h58q7 -93 67.5 -145.5t170.5 -52.5q96 0 142.5 43t47.5 111q0 55 -25 85.5t-71.5 47t-136.5 35.5q-71 15 -119 35.5t-76.5 58t-28.5 96.5q0 84 63.5 131.5t169.5 47.5q113 0 181 -55.5t75 -156.5h-58q-18 163 -197 163q-83 0 -129.5 -34
t-46.5 -95q0 -48 24.5 -76t65 -42.5t112.5 -29.5q87 -18 140.5 -40.5t84 -63t30.5 -106.5q0 -57 -28 -103t-83.5 -73t-134.5 -27q-128 0 -209.5 64zM293 -181q46 16 47 57q-10 -2 -13 -2q-17 0 -27.5 11t-10.5 28q0 18 10.5 29t29.5 11q20 0 31.5 -15t11.5 -43
q0 -38 -20 -67.5t-59 -40.5v32z" />
    <glyph glyph-name="uni021A.ss02" horiz-adv-x="580" 
d="M318 0h-55v666h-249v49h552v-49h-248v-666zM252 -181q46 16 47 57q-10 -2 -13 -2q-17 0 -27.5 11t-10.5 28q0 18 10.5 29t29.5 11q20 0 31.5 -15t11.5 -43q0 -38 -20 -67.5t-59 -40.5v32z" />
    <glyph glyph-name="Udieresis.ss02" horiz-adv-x="674" 
d="M138 55q-65 67 -65 189v471h55v-471q0 -105 52 -156t157 -51t157 51t52 156v471h55v-471q0 -122 -65 -189t-199 -67t-199 67zM237.5 827q-10.5 11 -10.5 28t10.5 28t29.5 11q18 0 28.5 -11.5t10.5 -27.5t-10.5 -27.5t-28.5 -11.5q-19 0 -29.5 11zM377.5 827.5
q-10.5 11.5 -10.5 27.5t10.5 27.5t28.5 11.5q19 0 29.5 -11t10.5 -28t-10.5 -28t-29.5 -11q-18 0 -28.5 11.5z" />
    <glyph glyph-name="Wdieresis.ss02" horiz-adv-x="884" 
d="M261 0h-61l-182 715h58l157 -636h2l176 636h63l176 -636h2l157 636h57l-182 -715h-61l-179 645h-3zM342.5 827q-10.5 11 -10.5 28t10.5 28t29.5 11q18 0 28.5 -11.5t10.5 -27.5t-10.5 -27.5t-28.5 -11.5q-19 0 -29.5 11zM482.5 827.5q-10.5 11.5 -10.5 27.5t10.5 27.5
t28.5 11.5q19 0 29.5 -11t10.5 -28t-10.5 -28t-29.5 -11q-18 0 -28.5 11.5z" />
    <glyph glyph-name="Ydieresis.ss02" horiz-adv-x="607" 
d="M331 0h-55v293l-262 422h61l227 -376h3l229 376h60l-263 -422v-293zM204.5 827q-10.5 11 -10.5 28t10.5 28t29.5 11q18 0 28.5 -11.5t10.5 -27.5t-10.5 -27.5t-28.5 -11.5q-19 0 -29.5 11zM344.5 827.5q-10.5 11.5 -10.5 27.5t10.5 27.5t28.5 11.5q19 0 29.5 -11
t10.5 -28t-10.5 -28t-29.5 -11q-18 0 -28.5 11.5z" />
    <glyph glyph-name="Zdotaccent.ss02" horiz-adv-x="574" 
d="M555 0h-539v49l461 615v2h-442v49h510v-49l-461 -615v-2h471v-49zM262.5 827.5q-10.5 11.5 -10.5 27.5q0 17 10 28t29 11q18 0 29 -11.5t11 -27.5t-11 -27.5t-29 -11.5t-28.5 11.5z" />
    <glyph glyph-name="i.latn_TRK" horiz-adv-x="174" 
d="M112 0h-50v510h50v-510zM123 614h-72v72h72v-72z" />
    <glyph glyph-name="a.ss01" horiz-adv-x="552" 
d="M440 510h50v-510h-50v102h-2q-25 -50 -71 -82t-114 -32q-61 0 -111 32t-79 92.5t-29 142.5q0 81 29 141t79.5 92t111.5 32q68 0 114 -32t70 -85h2v107zM352.5 58.5q40.5 27.5 64 78.5t23.5 118q0 66 -23.5 116.5t-64 78t-91.5 27.5q-53 0 -92.5 -28.5t-60.5 -79
t-21 -114.5q0 -99 47 -161.5t127 -62.5q51 0 91.5 27.5z" />
    <glyph glyph-name="aacute.ss01" horiz-adv-x="552" 
d="M440 510h50v-510h-50v102h-2q-25 -50 -71 -82t-114 -32q-61 0 -111 32t-79 92.5t-29 142.5q0 81 29 141t79.5 92t111.5 32q68 0 114 -32t70 -85h2v107zM352.5 58.5q40.5 27.5 64 78.5t23.5 118q0 66 -23.5 116.5t-64 78t-91.5 27.5q-53 0 -92.5 -28.5t-60.5 -79
t-21 -114.5q0 -99 47 -161.5t127 -62.5q51 0 91.5 27.5zM289 595h-44l63 130h63z" />
    <glyph glyph-name="abreve.ss01" horiz-adv-x="552" 
d="M440 510h50v-510h-50v102h-2q-25 -50 -71 -82t-114 -32q-61 0 -111 32t-79 92.5t-29 142.5q0 81 29 141t79.5 92t111.5 32q68 0 114 -32t70 -85h2v107zM352.5 58.5q40.5 27.5 64 78.5t23.5 118q0 66 -23.5 116.5t-64 78t-91.5 27.5q-53 0 -92.5 -28.5t-60.5 -79
t-21 -114.5q0 -99 47 -161.5t127 -62.5q51 0 91.5 27.5zM184.5 627q-32.5 33 -35.5 88h41q4 -37 24 -59t55 -22q36 0 56 22t25 59h40q-3 -55 -35.5 -88t-85.5 -33q-52 0 -84.5 33z" />
    <glyph glyph-name="acircumflex.ss01" horiz-adv-x="552" 
d="M440 510h50v-510h-50v102h-2q-25 -50 -71 -82t-114 -32q-61 0 -111 32t-79 92.5t-29 142.5q0 81 29 141t79.5 92t111.5 32q68 0 114 -32t70 -85h2v107zM352.5 58.5q40.5 27.5 64 78.5t23.5 118q0 66 -23.5 116.5t-64 78t-91.5 27.5q-53 0 -92.5 -28.5t-60.5 -79
t-21 -114.5q0 -99 47 -161.5t127 -62.5q51 0 91.5 27.5zM207 599h-55l90 126h58l89 -126h-56l-62 95h-2z" />
    <glyph glyph-name="adieresis.ss01" horiz-adv-x="552" 
d="M440 510h50v-510h-50v102h-2q-25 -50 -71 -82t-114 -32q-61 0 -111 32t-79 92.5t-29 142.5q0 81 29 141t79.5 92t111.5 32q68 0 114 -32t70 -85h2v107zM352.5 58.5q40.5 27.5 64 78.5t23.5 118q0 66 -23.5 116.5t-64 78t-91.5 27.5q-53 0 -92.5 -28.5t-60.5 -79
t-21 -114.5q0 -99 47 -161.5t127 -62.5q51 0 91.5 27.5zM236 614h-72v72h72v-72zM376 614h-72v72h72v-72z" />
    <glyph glyph-name="agrave.ss01" horiz-adv-x="552" 
d="M440 510h50v-510h-50v102h-2q-25 -50 -71 -82t-114 -32q-61 0 -111 32t-79 92.5t-29 142.5q0 81 29 141t79.5 92t111.5 32q68 0 114 -32t70 -85h2v107zM352.5 58.5q40.5 27.5 64 78.5t23.5 118q0 66 -23.5 116.5t-64 78t-91.5 27.5q-53 0 -92.5 -28.5t-60.5 -79
t-21 -114.5q0 -99 47 -161.5t127 -62.5q51 0 91.5 27.5zM288 595h-43l-78 130h62z" />
    <glyph glyph-name="amacron.ss01" horiz-adv-x="552" 
d="M440 510h50v-510h-50v102h-2q-25 -50 -71 -82t-114 -32q-61 0 -111 32t-79 92.5t-29 142.5q0 81 29 141t79.5 92t111.5 32q68 0 114 -32t70 -85h2v107zM352.5 58.5q40.5 27.5 64 78.5t23.5 118q0 66 -23.5 116.5t-64 78t-91.5 27.5q-53 0 -92.5 -28.5t-60.5 -79
t-21 -114.5q0 -99 47 -161.5t127 -62.5q51 0 91.5 27.5zM390 625h-240v45h240v-45z" />
    <glyph glyph-name="aogonek.ss01" horiz-adv-x="552" 
d="M511 -126v-38q-26 -11 -58 -11q-44 0 -67.5 20.5t-23.5 54.5q0 31 24 57.5t58 42.5h-4v102h-2q-25 -50 -71 -82t-114 -32q-61 0 -111 32t-79 92.5t-29 142.5q0 81 29 141t79.5 92t111.5 32q68 0 114 -32t70 -85h2v107h50v-510h-4q-77 -48 -77 -93q0 -19 13.5 -31
t38.5 -12q26 0 50 10zM352.5 58.5q40.5 27.5 64 78.5t23.5 118q0 66 -23.5 116.5t-64 78t-91.5 27.5q-53 0 -92.5 -28.5t-60.5 -79t-21 -114.5q0 -99 47 -161.5t127 -62.5q51 0 91.5 27.5z" />
    <glyph glyph-name="aring.ss01" horiz-adv-x="552" 
d="M440 510h50v-510h-50v102h-2q-25 -50 -71 -82t-114 -32q-61 0 -111 32t-79 92.5t-29 142.5q0 81 29 141t79.5 92t111.5 32q68 0 114 -32t70 -85h2v107zM352.5 58.5q40.5 27.5 64 78.5t23.5 118q0 66 -23.5 116.5t-64 78t-91.5 27.5q-53 0 -92.5 -28.5t-60.5 -79
t-21 -114.5q0 -99 47 -161.5t127 -62.5q51 0 91.5 27.5zM209 585q-24 23 -24 60q0 36 24 59.5t60 23.5t60 -23.5t24 -59.5q0 -37 -24 -60t-60 -23t-60 23zM307 606.5q14 14.5 14 38.5t-14 38.5t-38 14.5t-38 -14.5t-14 -38.5t14 -38.5t38 -14.5t38 14.5z" />
    <glyph glyph-name="atilde.ss01" horiz-adv-x="552" 
d="M440 510h50v-510h-50v102h-2q-25 -50 -71 -82t-114 -32q-61 0 -111 32t-79 92.5t-29 142.5q0 81 29 141t79.5 92t111.5 32q68 0 114 -32t70 -85h2v107zM352.5 58.5q40.5 27.5 64 78.5t23.5 118q0 66 -23.5 116.5t-64 78t-91.5 27.5q-53 0 -92.5 -28.5t-60.5 -79
t-21 -114.5q0 -99 47 -161.5t127 -62.5q51 0 91.5 27.5zM135 597q1 42 20.5 63.5t49.5 21.5q19 0 36.5 -7t39.5 -20q34 -19 50 -19q29 0 31 46h42q-1 -43 -20 -64t-49 -21q-19 0 -36 6.5t-40 19.5q-33 20 -51 20q-28 0 -31 -46h-42z" />
    <glyph glyph-name="adieresis.ss02" horiz-adv-x="507" 
d="M79.5 26q-45.5 38 -45.5 101q0 74 48 109.5t154 53.5l22 3q45 7 70 14t41 24t16 48q0 47 -32.5 72.5t-92.5 25.5q-74 0 -109.5 -29.5t-39.5 -87.5h-53q4 69 52.5 115t150.5 46q78 0 125.5 -37.5t47.5 -121.5v-266q0 -32 6.5 -46t25.5 -14q2 0 16 2v-38q-15 -3 -30 -3
q-33 0 -49.5 18t-17.5 64h-2q-55 -91 -183 -91q-75 0 -120.5 38zM338 74.5q47 43.5 47 110.5v110q-10 -18 -46 -28.5t-94 -18.5q-80 -13 -119 -38t-39 -76t30.5 -77t90.5 -26q83 0 130 43.5zM158.5 622q-10.5 11 -10.5 28t10.5 28t29.5 11q18 0 28.5 -11.5t10.5 -27.5
t-10.5 -27.5t-28.5 -11.5q-19 0 -29.5 11zM298.5 622.5q-10.5 11.5 -10.5 27.5t10.5 27.5t28.5 11.5q19 0 29.5 -11t10.5 -28t-10.5 -28t-29.5 -11q-18 0 -28.5 11.5z" />
    <glyph glyph-name="cdotaccent.ss02" horiz-adv-x="518" 
d="M150 20.5q-55 33.5 -85.5 94t-30.5 139.5t30.5 139t85.5 93.5t126 33.5q59 0 105.5 -24.5t74.5 -66.5t34 -93h-53q-2 32 -20 64.5t-54 54.5t-87 22q-62 0 -105 -31t-64 -82t-21 -110t21 -110t64 -82t105 -31q52 0 87.5 22t53.5 55t20 67h53q-4 -52 -31.5 -95t-75 -68
t-107.5 -25q-71 0 -126 33.5zM246.5 623.5q-10.5 11.5 -10.5 27.5q0 17 10 28t29 11q18 0 29 -11.5t11 -27.5t-11 -27.5t-29 -11.5t-28.5 11.5z" />
    <glyph glyph-name="edieresis.ss02" horiz-adv-x="529" 
d="M87 250v-2q0 -93 48 -155.5t138 -62.5q75 0 115 39t50 86h52q-19 -75 -74 -121.5t-144 -46.5q-74 0 -127.5 34t-82 94.5t-28.5 138.5q0 81 29.5 141t84 93t126.5 33q70 0 120 -31t76.5 -85.5t26.5 -123.5q0 -23 -1 -31h-409zM177 453q-41 -25 -64 -67t-26 -93h357
q0 51 -19.5 93t-59 67t-94.5 25q-53 0 -94 -25zM170.5 623q-10.5 11 -10.5 28t10.5 28t29.5 11q18 0 28.5 -11.5t10.5 -27.5t-10.5 -27.5t-28.5 -11.5q-19 0 -29.5 11zM310.5 623.5q-10.5 11.5 -10.5 27.5t10.5 27.5t28.5 11.5q19 0 29.5 -11t10.5 -28t-10.5 -28t-29.5 -11
q-18 0 -28.5 11.5z" />
    <glyph glyph-name="edotaccent.ss02" horiz-adv-x="529" 
d="M87 250v-2q0 -93 48 -155.5t138 -62.5q75 0 115 39t50 86h52q-19 -75 -74 -121.5t-144 -46.5q-74 0 -127.5 34t-82 94.5t-28.5 138.5q0 81 29.5 141t84 93t126.5 33q70 0 120 -31t76.5 -85.5t26.5 -123.5q0 -23 -1 -31h-409zM177 453q-41 -25 -64 -67t-26 -93h357
q0 51 -19.5 93t-59 67t-94.5 25q-53 0 -94 -25zM241.5 623.5q-10.5 11.5 -10.5 27.5q0 17 10 28t29 11q18 0 29 -11.5t11 -27.5t-11 -27.5t-29 -11.5t-28.5 11.5z" />
    <glyph glyph-name="uni0123.ss02" horiz-adv-x="551" 
d="M440 511h50v-481q0 -105 -59.5 -159t-164.5 -54q-97 0 -153.5 42.5t-62.5 108.5h52q9 -47 49.5 -77t115.5 -30q83 0 128 39.5t45 120.5v108h-2q-23 -48 -70 -77.5t-111 -29.5q-61 0 -111 28t-80 84.5t-30 138.5q0 81 30 136.5t80 83t111 27.5q64 0 111 -29t70 -78h2v98z
M352.5 89q39.5 23 63.5 69.5t24 114.5q0 66 -24 112t-63.5 69t-86.5 23q-80 0 -128.5 -54t-48.5 -150q0 -98 48.5 -152.5t128.5 -54.5q47 0 86.5 23zM240.5 618.5q-11.5 14.5 -11.5 42.5q0 35 18.5 61.5t54.5 38.5v-31q-19 -6 -30.5 -21t-11.5 -38q10 2 16 2q15 0 24.5 -8.5
t9.5 -24.5q0 -17 -10 -26.5t-27 -9.5q-21 0 -32.5 14.5z" />
    <glyph glyph-name="gdotaccent.ss02" horiz-adv-x="551" 
d="M440 511h50v-481q0 -105 -59.5 -159t-164.5 -54q-97 0 -153.5 42.5t-62.5 108.5h52q9 -47 49.5 -77t115.5 -30q83 0 128 39.5t45 120.5v108h-2q-23 -48 -70 -77.5t-111 -29.5q-61 0 -111 28t-80 84.5t-30 138.5q0 81 30 136.5t80 83t111 27.5q64 0 111 -29t70 -78h2v98z
M352.5 89q39.5 23 63.5 69.5t24 114.5q0 66 -24 112t-63.5 69t-86.5 23q-80 0 -128.5 -54t-48.5 -150q0 -98 48.5 -152.5t128.5 -54.5q47 0 86.5 23zM240.5 622.5q-10.5 11.5 -10.5 27.5q0 17 10 28t29 11q18 0 29 -11.5t11 -27.5t-11 -27.5t-29 -11.5t-28.5 11.5z" />
    <glyph glyph-name="i.ss02" horiz-adv-x="174" 
d="M58.5 622.5q-10.5 11.5 -10.5 27.5t10.5 27.5t28.5 11.5q19 0 29.5 -11t10.5 -28q0 -16 -10.5 -27.5t-29.5 -11.5q-18 0 -28.5 11.5zM112 0h-50v510h50v-510z" />
    <glyph glyph-name="idieresis.ss02" horiz-adv-x="174" 
d="M112 0h-50v510h50v-510zM-12.5 622q-10.5 11 -10.5 28t10.5 28t29.5 11q18 0 28.5 -11.5t10.5 -27.5t-10.5 -27.5t-28.5 -11.5q-19 0 -29.5 11zM127.5 622.5q-10.5 11.5 -10.5 27.5t10.5 27.5t28.5 11.5q19 0 29.5 -11t10.5 -28t-10.5 -28t-29.5 -11q-18 0 -28.5 11.5z
" />
    <glyph glyph-name="iogonek.ss02" horiz-adv-x="174" 
d="M58.5 622.5q-10.5 11.5 -10.5 27.5q0 17 10 28t29 11q18 0 29 -11.5t11 -27.5t-11 -27.5t-29 -11.5t-28.5 11.5zM133 -125v-38q-26 -11 -58 -11q-44 0 -67.5 20.5t-23.5 54.5q0 31 23.5 57t56.5 42h-2v510h50v-510h-6q-38 -24 -56.5 -46.5t-18.5 -45.5q0 -19 13.5 -31
t38.5 -12q26 0 50 10z" />
    <glyph glyph-name="j.ss02" horiz-adv-x="174" 
d="M-22 -176v42q28 -2 35 -2q27 0 38 17t11 63v566h50v-567q0 -123 -89 -123q-22 0 -45 4zM58.5 622.5q-10.5 11.5 -10.5 27.5q0 17 10 28t29 11q18 0 29 -11.5t11 -27.5t-11 -27.5t-29 -11.5t-28.5 11.5z" />
    <glyph glyph-name="uni0137.ss02" horiz-adv-x="461" 
d="M474 0h-60l-206 289l-96 -91v-198h-50v715h50v-462l269 257h63l-202 -190zM215 -181q46 16 47 57q-10 -2 -13 -2q-17 0 -27.5 11t-10.5 28q0 18 10.5 29t29.5 11q20 0 31.5 -15t11.5 -43q0 -38 -20 -67.5t-59 -40.5v32z" />
    <glyph glyph-name="uni013C.ss02" horiz-adv-x="174" 
d="M112 0h-50v715h50v-715zM49 -181q46 16 47 57q-10 -2 -13 -2q-17 0 -27.5 11t-10.5 28q0 18 10.5 29t29.5 11q20 0 31.5 -15t11.5 -43q0 -38 -20 -67.5t-59 -40.5v32z" />
    <glyph glyph-name="uni0146.ss02" horiz-adv-x="516" 
d="M412 479q46 -41 46 -119v-360h-50v352q0 54 -29 89.5t-96 35.5q-49 0 -88 -22.5t-61 -57.5t-22 -71v-326h-50v510h50v-84h2q26 41 71 67.5t110 26.5q71 0 117 -41zM222 -181q46 16 47 57q-10 -2 -13 -2q-17 0 -27.5 11t-10.5 28q0 18 10.5 29t29.5 11q20 0 31.5 -15
t11.5 -43q0 -38 -20 -67.5t-59 -40.5v32z" />
    <glyph glyph-name="odieresis.ss02" horiz-adv-x="549" 
d="M146.5 20.5q-54.5 33.5 -83.5 94t-29 139.5t29 139.5t83.5 94t128.5 33.5q73 0 127.5 -33.5t83.5 -94t29 -139.5t-29 -139.5t-83.5 -94t-127.5 -33.5q-74 0 -128.5 33.5zM413.5 92.5q48.5 62.5 48.5 161.5t-48.5 161t-138.5 62q-91 0 -140 -62t-49 -161t49.5 -161.5
t139.5 -62.5t138.5 62.5zM175.5 623q-10.5 11 -10.5 28t10.5 28t29.5 11q18 0 28.5 -11.5t10.5 -27.5t-10.5 -27.5t-28.5 -11.5q-19 0 -29.5 11zM315.5 623.5q-10.5 11.5 -10.5 27.5t10.5 27.5t28.5 11.5q19 0 29.5 -11t10.5 -28t-10.5 -28t-29.5 -11q-18 0 -28.5 11.5z" />
    <glyph glyph-name="uni0157.ss02" horiz-adv-x="313" 
d="M305 517v-48q-13 3 -30 3q-45 0 -82 -22.5t-59 -62.5t-22 -89v-298h-50v510h50v-106h2q19 52 58.5 84t91.5 32q23 0 41 -3zM49 -181q46 16 47 57q-10 -2 -13 -2q-17 0 -27.5 11t-10.5 28q0 18 10.5 29t29.5 11q20 0 31.5 -15t11.5 -43q0 -38 -20 -67.5t-59 -40.5v32z" />
    <glyph glyph-name="uni0219.ss02" horiz-adv-x="466" 
d="M128 11q-49 23 -75 63t-28 89h53q3 -60 46 -96t122 -36q69 0 104.5 29.5t35.5 76.5q0 34 -17 53.5t-43 29.5t-71 21l-27 7q-64 17 -100 31t-60 40.5t-24 69.5q0 61 46 96t130 35q93 0 142.5 -42t57.5 -107h-52q-23 106 -148 106q-57 0 -90 -21.5t-33 -62.5
q0 -32 19.5 -50t46 -26.5t89.5 -24.5q64 -17 101.5 -32.5t61.5 -44.5t24 -76q0 -69 -52 -110t-143 -41q-67 0 -116 23zM207 -181q46 16 47 57q-10 -2 -13 -2q-17 0 -27.5 11t-10.5 28q0 18 10.5 29t29.5 11q20 0 31.5 -15t11.5 -43q0 -38 -20 -67.5t-59 -40.5v32z" />
    <glyph glyph-name="uni021B.ss02" horiz-adv-x="265" 
d="M244 466h-108v-338q0 -37 6 -55.5t21 -25.5t44 -7q16 0 37 3v-42q-24 -4 -44 -4q-59 0 -86.5 27.5t-27.5 102.5v339h-75v44h75v170h50v-170h108v-44zM145 -168q46 16 47 57q-10 -2 -13 -2q-17 0 -27.5 11t-10.5 28q0 18 10.5 29t29.5 11q20 0 31.5 -15t11.5 -43
q0 -38 -20 -67.5t-59 -40.5v32z" />
    <glyph glyph-name="udieresis.ss02" horiz-adv-x="516" 
d="M404 510h50v-510h-50v83h-2q-26 -41 -70.5 -67t-110.5 -26q-71 0 -117 41t-46 119v360h50v-352q0 -54 29 -89.5t96 -35.5q49 0 88 22.5t61 57.5t22 71v326zM151.5 622q-10.5 11 -10.5 28t10.5 28t29.5 11q18 0 28.5 -11.5t10.5 -27.5t-10.5 -27.5t-28.5 -11.5
q-19 0 -29.5 11zM291.5 622.5q-10.5 11.5 -10.5 27.5t10.5 27.5t28.5 11.5q19 0 29.5 -11t10.5 -28t-10.5 -28t-29.5 -11q-18 0 -28.5 11.5z" />
    <glyph glyph-name="wdieresis.ss02" horiz-adv-x="725" 
d="M235 0h-59l-162 510h55l136 -452h2l126 452h59l127 -452h2l137 452h54l-163 -510h-59l-127 448h-2zM263.5 622q-10.5 11 -10.5 28t10.5 28t29.5 11q18 0 28.5 -11.5t10.5 -27.5t-10.5 -27.5t-28.5 -11.5q-19 0 -29.5 11zM403.5 622.5q-10.5 11.5 -10.5 27.5t10.5 27.5
t28.5 11.5q19 0 29.5 -11t10.5 -28t-10.5 -28t-29.5 -11q-18 0 -28.5 11.5z" />
    <glyph glyph-name="ydieresis.ss02" horiz-adv-x="469" 
d="M53 -175v43q21 -3 40 -3q40 0 67.5 30.5t51.5 105.5l-206 509h56l174 -444h1l168 444h53l-203 -524q-25 -64 -47.5 -99.5t-48.5 -50.5t-61 -15q-18 0 -45 4zM133.5 622q-10.5 11 -10.5 28t10.5 28t29.5 11q18 0 28.5 -11.5t10.5 -27.5t-10.5 -27.5t-28.5 -11.5
q-19 0 -29.5 11zM273.5 622.5q-10.5 11.5 -10.5 27.5t10.5 27.5t28.5 11.5q19 0 29.5 -11t10.5 -28t-10.5 -28t-29.5 -11q-18 0 -28.5 11.5z" />
    <glyph glyph-name="zdotaccent.ss02" horiz-adv-x="430" 
d="M412 0h-396v40l318 424v2h-302v44h370v-35l-322 -429v-2h332v-44zM185.5 622.5q-10.5 11.5 -10.5 27.5q0 17 10 28t29 11q18 0 29 -11.5t11 -27.5t-11 -27.5t-29 -11.5t-28.5 11.5z" />
    <glyph glyph-name="i.latn_TRK.ss02" horiz-adv-x="174" 
d="M58.5 622.5q-10.5 11.5 -10.5 27.5t10.5 27.5t28.5 11.5q19 0 29.5 -11t10.5 -28q0 -16 -10.5 -27.5t-29.5 -11.5q-18 0 -28.5 11.5zM112 0h-50v510h50v-510z" />
    <glyph glyph-name="adieresis.ss01.ss02" horiz-adv-x="552" 
d="M440 510h50v-510h-50v102h-2q-25 -50 -71 -82t-114 -32q-61 0 -111 32t-79 92.5t-29 142.5q0 81 29 141t79.5 92t111.5 32q68 0 114 -32t70 -85h2v107zM352.5 58.5q40.5 27.5 64 78.5t23.5 118q0 66 -23.5 116.5t-64 78t-91.5 27.5q-53 0 -92.5 -28.5t-60.5 -79
t-21 -114.5q0 -99 47 -161.5t127 -62.5q51 0 91.5 27.5zM170.5 622q-10.5 11 -10.5 28t10.5 28t29.5 11q18 0 28.5 -11.5t10.5 -27.5t-10.5 -27.5t-28.5 -11.5q-19 0 -29.5 11zM310.5 622.5q-10.5 11.5 -10.5 27.5t10.5 27.5t28.5 11.5q19 0 29.5 -11t10.5 -28t-10.5 -28
t-29.5 -11q-18 0 -28.5 11.5z" />
    <glyph glyph-name="s_s" horiz-adv-x="929" 
d="M86 36.5q-58 48.5 -61 126.5h53q2 -56 44 -94t123 -38q70 0 105.5 29.5t35.5 77.5q0 33 -17 52t-44 29.5t-75 22.5l-22 6q-60 15 -97.5 30t-62 43.5t-24.5 73.5q0 58 42.5 91.5t122.5 33.5q72 0 123 -29t89.5 -86t76.5 -150q35 -84 60 -128t63 -70t99 -26q67 0 98.5 28.5
t31.5 74.5q0 35 -17 55.5t-43 30.5t-73 22l-25 6q-63 16 -100 30.5t-61 41t-24 69.5q0 61 46.5 96t130.5 35q93 0 142.5 -42t57.5 -107h-53q-21 106 -147 106q-57 0 -90.5 -21.5t-33.5 -62.5q0 -32 20 -50t45.5 -26.5t89.5 -24.5q63 -16 101.5 -32t62.5 -46t24 -79
q0 -68 -46.5 -107.5t-133.5 -39.5q-76 0 -123 31t-75.5 82t-68.5 149q-52 126 -109.5 176.5t-136.5 50.5q-54 0 -83.5 -20t-29.5 -59q0 -33 20 -52.5t48.5 -29.5t88.5 -25q62 -16 99.5 -32t61.5 -45t24 -76q0 -70 -51 -110t-143 -40q-101 0 -159 48.5z" />
    <glyph glyph-name="w_w_w" horiz-adv-x="2059" 
d="M1855 58l137 452h54l-163 -510h-59l-127 448h-2l-126 -448h-59l-147 463l-147 -463h-59l-127 448h-2l-126 -448h-59l-147 463l-147 -463h-59l-127 448h-2l-127 -448h-58l-162 510h54l137 -452h2l126 452h59l127 -452h2l137 452h77l137 -452h2l126 452h59l127 -452h2
l137 452h78l136 -452h2l126 452h59l127 -452h2z" />
    <glyph glyph-name="f_f_i.ss02" horiz-adv-x="649" 
d="M90 0v466h-73v44h73v81q0 76 26 103t84 27q20 0 45 -4v-42q-32 2 -38 2q-28 0 -42 -7t-19.5 -25t-5.5 -55v-80h177v81q0 75 26.5 102.5t83.5 27.5q19 0 46 -4v-42q-32 2 -39 2q-28 0 -42 -7t-19.5 -25t-5.5 -55v-80h106v-44h-106v-466h-50v466h-177v-466h-50z
M533.5 622.5q-10.5 11.5 -10.5 27.5t10.5 27.5t28.5 11.5q19 0 29.5 -11t10.5 -28q0 -16 -10.5 -27.5t-29.5 -11.5q-18 0 -28.5 11.5zM587 0h-50v510h50v-510z" />
    <glyph glyph-name="f_i.ss02" horiz-adv-x="421" 
d="M165 670q-14 -7 -19.5 -25t-5.5 -55v-80h105v-44h-105v-466h-50v466h-73v44h73v81q0 76 26 103t84 27q20 0 45 -4v-42q-32 2 -38 2q-28 0 -42 -7zM305.5 622.5q-10.5 11.5 -10.5 27.5t10.5 27.5t28.5 11.5q19 0 29.5 -11t10.5 -28q0 -16 -10.5 -27.5t-29.5 -11.5
q-18 0 -28.5 11.5zM359 0h-50v510h50v-510z" />
    <glyph glyph-name="zero.zero" horiz-adv-x="607" 
d="M446 655.5q57 -47.5 84.5 -128t27.5 -182.5t-27.5 -182.5t-84.5 -127.5t-142 -47t-142.5 47t-85 128t-27.5 182q0 102 27.5 182.5t85 128t142.5 47.5t142 -47.5zM125 195.5q18 -66.5 56 -107.5l216 539q-40 27 -93 27q-100 0 -148.5 -86.5t-48.5 -222.5q0 -83 18 -149.5z
M452 123q48 86 48 222q0 78 -16 142.5t-49 105.5l-214 -536q35 -20 83 -20q100 0 148 86z" />
    <glyph glyph-name="zero.slash" horiz-adv-x="607" 
d="M446 655.5q57 -47.5 84.5 -128t27.5 -182.5t-27.5 -182.5t-84.5 -127.5t-142 -47t-142.5 47t-85 128t-27.5 182q0 102 27.5 182.5t85 128t142.5 47.5t142 -47.5zM125 195.5q18 -66.5 56 -107.5l216 539q-40 27 -93 27q-100 0 -148.5 -86.5t-48.5 -222.5q0 -83 18 -149.5z
M452 123q48 86 48 222q0 78 -16 142.5t-49 105.5l-214 -536q35 -20 83 -20q100 0 148 86z" />
    <glyph glyph-name="zero.tf" horiz-adv-x="640" 
d="M177.5 35q-57.5 47 -85 128t-27.5 182q0 102 27.5 182.5t85 128t142.5 47.5t142 -47.5t84.5 -128t27.5 -182.5t-27.5 -182.5t-84.5 -127.5t-142 -47t-142.5 47zM468 123q48 86 48 222q0 137 -48 223t-148 86t-148.5 -86.5t-48.5 -222.5t48.5 -222t148.5 -86t148 86z" />
    <glyph glyph-name="one.tf" horiz-adv-x="640" 
d="M364 49h146v-49h-339v49h138v513q-25 -28 -57.5 -36.5t-84.5 -8.5v47q80 1 113 31t37 96h47v-642z" />
    <glyph glyph-name="two.tf" horiz-adv-x="640" 
d="M85 0q0 94 52 165t149 125q14 8 21 11q69 38 104 62t56 58t21 83q0 63 -38 106.5t-113 43.5q-85 0 -131 -53.5t-46 -133.5h-57q0 64 27 118t80 86t128 32q60 0 107 -23.5t74 -68.5t27 -107q0 -60 -27 -103.5t-66.5 -71.5t-105.5 -65q-67 -37 -102.5 -61.5t-64 -62
t-31.5 -89.5v-2h393v-49h-457z" />
    <glyph glyph-name="three.tf" horiz-adv-x="640" 
d="M139 52q-69 64 -69 176h58q0 -87 50 -139t147 -52q88 0 133 40t45 111q0 50 -23.5 83.5t-60 49.5t-75.5 16h-75v48h71q60 0 98 36t38 99q0 56 -37.5 95t-111.5 39q-97 0 -138 -47t-41 -117h-58q0 62 27 110t80.5 75.5t129.5 27.5q55 0 102.5 -22t76 -63.5t28.5 -97.5
q0 -59 -28 -96.5t-81 -59.5v-2q68 -21 102 -65.5t34 -108.5q0 -94 -63.5 -147t-169.5 -53q-120 0 -189 64z" />
    <glyph glyph-name="four.tf" horiz-adv-x="640" 
d="M468 0h-55v174h-343v49l343 468h55v-468h101v-49h-101v-174zM413 610l-284 -387h284v387z" />
    <glyph glyph-name="five.tf" horiz-adv-x="640" 
d="M193 16.5q-52 28.5 -78.5 74.5t-28.5 99h57q5 -69 49 -111t125 -42q80 0 129 49.5t49 144.5q0 89 -47 132.5t-124 43.5q-58 0 -101 -23.5t-65 -56.5h-60l74 364h346v-49h-302l-52 -252v-2q30 34 74.5 51t98.5 17q65 0 114 -29.5t75.5 -80.5t26.5 -115q0 -72 -29.5 -127
t-82.5 -85.5t-122 -30.5q-74 0 -126 28.5z" />
    <glyph glyph-name="six.tf" horiz-adv-x="640" 
d="M147 76q-62 88 -62 252q0 182 66 278.5t189 96.5q84 0 140 -50t63 -131h-57q-6 62 -45 97t-101 35q-104 0 -152 -85t-48 -236v-31l2 -1q19 71 75.5 108.5t124.5 37.5q66 0 116 -28.5t77.5 -80t27.5 -117.5t-28 -119t-80 -83.5t-122 -30.5q-124 0 -186 88zM459.5 86.5
q45.5 49.5 45.5 131.5t-45 131t-122 49q-48 0 -89 -22t-66.5 -65t-25.5 -103q0 -46 20.5 -85t60.5 -62.5t95 -23.5q81 0 126.5 49.5z" />
    <glyph glyph-name="seven.tf" horiz-adv-x="640" 
d="M199 0q0 108 31 227.5t94 229.5t152 184v2h-395v48h461v-42q-99 -78 -163 -190t-93 -231.5t-29 -227.5h-58z" />
    <glyph glyph-name="eight.tf" horiz-adv-x="640" 
d="M196.5 12q-56.5 24 -90 70t-33.5 111q0 67 37.5 111t100.5 68v2q-48 21 -76.5 58.5t-28.5 92.5q0 83 60 130.5t154 47.5q95 0 155 -47.5t60 -130.5q0 -55 -29.5 -92t-76.5 -59v-2q63 -24 100.5 -68t37.5 -111q0 -65 -33.5 -111t-90 -70t-123.5 -24t-123.5 24zM434 430.5
q43 33.5 43 94.5q0 62 -43 95.5t-114 33.5q-70 0 -113 -33.5t-43 -95.5q0 -61 43 -94.5t113 -33.5q71 0 114 33.5zM455.5 79.5q53.5 42.5 53.5 114.5q0 71 -53.5 113t-135.5 42t-135.5 -42t-53.5 -113q0 -72 53.5 -114.5t135.5 -42.5t135.5 42.5z" />
    <glyph glyph-name="nine.tf" horiz-adv-x="640" 
d="M161 38q-56 50 -63 131h57q6 -62 44.5 -97t101.5 -35q104 0 151.5 84.5t47.5 236.5v31l-1 1q-20 -71 -76.5 -108.5t-123.5 -37.5q-66 0 -116 28.5t-77.5 80t-27.5 117.5t28 119t80 83.5t122 30.5q124 0 186 -88t62 -252q0 -182 -66 -278.5t-189 -96.5q-84 0 -140 50z
M391.5 315q41.5 22 66.5 65t25 103q0 46 -20.5 85t-60 62.5t-94.5 23.5q-81 0 -126.5 -49.5t-45.5 -131.5t44.5 -131t121.5 -49q48 0 89.5 22z" />
    <glyph glyph-name="zero.tf.zero" horiz-adv-x="640" 
d="M462 655.5q57 -47.5 84.5 -128t27.5 -182.5t-27.5 -182.5t-84.5 -127.5t-142 -47t-142.5 47t-85 128t-27.5 182q0 102 27.5 182.5t85 128t142.5 47.5t142 -47.5zM141 195.5q18 -66.5 56 -107.5l216 539q-40 27 -93 27q-100 0 -148.5 -86.5t-48.5 -222.5q0 -83 18 -149.5z
M468 123q48 86 48 222q0 78 -16 142.5t-49 105.5l-214 -536q35 -20 83 -20q100 0 148 86z" />
    <glyph glyph-name="zero.dnom" horiz-adv-x="376" 
d="M70.5 52q-40.5 59 -40.5 151t40.5 151.5t117.5 59.5q78 0 118 -59.5t40 -151.5q0 -91 -40 -150.5t-118 -59.5q-77 0 -117.5 59zM269 79.5q26 46.5 26 123.5t-26 124t-81 47t-81 -47.5t-26 -123.5t26 -123t81 -47t81 46.5z" />
    <glyph glyph-name="one.dnom" horiz-adv-x="194" 
d="M95 317q-14 -14 -34 -18.5t-50 -4.5v39q46 0 68.5 17t23.5 56h40v-406h-48v317z" />
    <glyph glyph-name="two.dnom" horiz-adv-x="332" 
d="M22 0q0 53 28 92.5t81 71.5l26 16q51 30 74 53t23 61q0 34 -20 57t-60 23q-46 0 -70 -28.5t-24 -74.5h-48q0 61 37.5 102t106.5 41q56 0 91.5 -31.5t35.5 -85.5q0 -36 -15.5 -61.5t-38 -43t-61.5 -41.5q-6 -4 -36.5 -22t-48 -40.5t-20.5 -47.5v-1h218v-40h-279z" />
    <glyph glyph-name="three.dnom" horiz-adv-x="352" 
d="M65.5 31q-41.5 38 -41.5 105h48q0 -48 26.5 -75.5t79.5 -27.5q46 0 70 21t24 58q0 41 -25.5 60.5t-62.5 19.5h-39v39h37q34 0 55.5 18.5t21.5 52.5q0 31 -21 51.5t-60 20.5q-49 0 -71.5 -24.5t-22.5 -62.5h-48q0 56 38 91.5t106 35.5q53 0 90.5 -29.5t37.5 -79.5
q0 -64 -64 -91v-1q39 -12 58.5 -38.5t19.5 -63.5q0 -56 -38.5 -87t-102.5 -31q-74 0 -115.5 38z" />
    <glyph glyph-name="four.dnom" horiz-adv-x="343" 
d="M265 0h-48v98h-197v45l197 263h48v-267h60v-41h-60v-98zM217 345l-153 -206h153v206z" />
    <glyph glyph-name="five.dnom" horiz-adv-x="337" 
d="M63.5 27.5q-37.5 34.5 -39.5 87.5h48q3 -37 27 -59.5t68 -22.5q43 0 69 26.5t26 77.5q0 48 -24.5 71.5t-66.5 23.5q-29 0 -53 -11.5t-39 -30.5h-47l44 216h215v-40h-179l-28 -133v-1q35 38 98 38q59 0 94 -37.5t35 -96.5q0 -66 -39.5 -104.5t-102.5 -38.5
q-68 0 -105.5 34.5z" />
    <glyph glyph-name="six.dnom" horiz-adv-x="355" 
d="M69.5 46q-37.5 53 -37.5 148q0 107 40.5 163.5t115.5 56.5q52 0 86.5 -30t39.5 -78h-49q-3 32 -23.5 50.5t-54.5 18.5q-107 0 -107 -168v-14h2q13 35 44 54t68 19q60 0 96 -37.5t36 -97.5q0 -61 -38 -99.5t-103 -38.5q-78 0 -115.5 53zM253 59q25 27 25 71t-24.5 70.5
t-66.5 26.5q-41 0 -69.5 -27.5t-28.5 -74.5q0 -39 25.5 -66t69.5 -27t69 27z" />
    <glyph glyph-name="seven.dnom" horiz-adv-x="297" 
d="M73 0q0 98 41.5 201.5t113.5 163.5v1h-223v40h277v-36q-79 -62 -119 -164.5t-40 -205.5h-50z" />
    <glyph glyph-name="eight.dnom" horiz-adv-x="358" 
d="M71.5 25q-43.5 32 -43.5 89q0 73 82 105v1q-63 30 -63 88q0 49 37.5 77.5t94.5 28.5q58 0 94.5 -28.5t36.5 -77.5q0 -59 -61 -88v-1q80 -33 80 -105q0 -57 -43 -89t-107 -32t-107.5 32zM241 254.5q23 18.5 23 51.5t-23.5 51.5t-61.5 18.5q-39 0 -62 -18.5t-23 -51.5
t23 -51.5t62 -18.5t62 18.5zM252 54.5q28 23.5 28 62.5q0 38 -28 61t-73 23q-44 0 -73 -23t-29 -61q0 -39 28.5 -62.5t73.5 -23.5t73 23.5z" />
    <glyph glyph-name="nine.dnom" horiz-adv-x="353" 
d="M80 22.5q-35 29.5 -40 77.5h50q3 -31 22.5 -50t54.5 -19q56 0 81.5 44.5t25.5 122.5v16h-1q-12 -35 -43.5 -54.5t-68.5 -19.5q-60 0 -96.5 37.5t-36.5 97.5q0 61 38.5 100t102.5 39q78 0 115.5 -53t37.5 -148q0 -107 -40.5 -163.5t-115.5 -56.5q-51 0 -86 29.5z
M237.5 207q28.5 27 28.5 74q0 40 -25.5 67t-70.5 27q-44 0 -68.5 -27t-24.5 -71q0 -45 24.5 -71t66.5 -26q41 0 69.5 27z" />
    <glyph glyph-name="zero.numr" horiz-adv-x="376" 
d="M70.5 362q-40.5 59 -40.5 151t40.5 151.5t117.5 59.5q78 0 118 -59.5t40 -151.5q0 -91 -40 -150.5t-118 -59.5q-77 0 -117.5 59zM269 389.5q26 46.5 26 123.5t-26 124t-81 47t-81 -47.5t-26 -123.5t26 -123t81 -47t81 46.5z" />
    <glyph glyph-name="one.numr" horiz-adv-x="194" 
d="M95 626q-14 -14 -34 -18.5t-50 -4.5v39q46 0 68.5 17t23.5 56h40v-406h-48v317z" />
    <glyph glyph-name="two.numr" horiz-adv-x="332" 
d="M22 309q0 53 28 92.5t81 71.5l26 16q51 30 74 53t23 61q0 34 -20 57t-60 23q-46 0 -70 -28.5t-24 -74.5h-48q0 61 37.5 102t106.5 41q56 0 91.5 -31.5t35.5 -85.5q0 -36 -15.5 -61.5t-38 -43t-61.5 -41.5q-6 -4 -36.5 -22t-48 -40.5t-20.5 -47.5v-1h218v-40h-279z" />
    <glyph glyph-name="three.numr" horiz-adv-x="352" 
d="M65.5 340q-41.5 38 -41.5 105h48q0 -48 26.5 -75.5t79.5 -27.5q46 0 70 21t24 58q0 41 -25.5 60.5t-62.5 19.5h-39v39h37q34 0 55.5 18.5t21.5 52.5q0 31 -21 51.5t-60 20.5q-49 0 -71.5 -24.5t-22.5 -62.5h-48q0 56 38 91.5t106 35.5q53 0 90.5 -29.5t37.5 -79.5
q0 -64 -64 -91v-1q39 -12 58.5 -38.5t19.5 -63.5q0 -56 -38.5 -87t-102.5 -31q-74 0 -115.5 38z" />
    <glyph glyph-name="four.numr" horiz-adv-x="343" 
d="M265 310h-48v98h-197v45l197 263h48v-267h60v-41h-60v-98zM217 655l-153 -206h153v206z" />
    <glyph glyph-name="five.numr" horiz-adv-x="337" 
d="M63.5 336.5q-37.5 34.5 -39.5 87.5h48q3 -37 27 -59.5t68 -22.5q43 0 69 26.5t26 77.5q0 48 -24.5 71.5t-66.5 23.5q-29 0 -53 -11.5t-39 -30.5h-47l44 216h215v-40h-179l-28 -133v-1q35 38 98 38q59 0 94 -37.5t35 -96.5q0 -66 -39.5 -104.5t-102.5 -38.5
q-68 0 -105.5 34.5z" />
    <glyph glyph-name="six.numr" horiz-adv-x="355" 
d="M69.5 355q-37.5 53 -37.5 148q0 107 40.5 163.5t115.5 56.5q52 0 86.5 -30t39.5 -78h-49q-3 32 -23.5 50.5t-54.5 18.5q-107 0 -107 -168v-14h2q13 35 44 54t68 19q60 0 96 -37.5t36 -97.5q0 -61 -38 -99.5t-103 -38.5q-78 0 -115.5 53zM253 368q25 27 25 71t-24.5 70.5
t-66.5 26.5q-41 0 -69.5 -27.5t-28.5 -74.5q0 -39 25.5 -66t69.5 -27t69 27z" />
    <glyph glyph-name="seven.numr" horiz-adv-x="297" 
d="M73 309q0 98 41.5 201.5t113.5 163.5v1h-223v40h277v-36q-79 -62 -119 -164.5t-40 -205.5h-50z" />
    <glyph glyph-name="eight.numr" horiz-adv-x="358" 
d="M71.5 334q-43.5 32 -43.5 89q0 73 82 105v1q-63 30 -63 88q0 49 37.5 77.5t94.5 28.5q58 0 94.5 -28.5t36.5 -77.5q0 -59 -61 -88v-1q80 -33 80 -105q0 -57 -43 -89t-107 -32t-107.5 32zM241 563.5q23 18.5 23 51.5t-23.5 51.5t-61.5 18.5q-39 0 -62 -18.5t-23 -51.5
t23 -51.5t62 -18.5t62 18.5zM252 363.5q28 23.5 28 62.5q0 38 -28 61t-73 23q-44 0 -73 -23t-29 -61q0 -39 28.5 -62.5t73.5 -23.5t73 23.5z" />
    <glyph glyph-name="nine.numr" horiz-adv-x="353" 
d="M80 331.5q-35 29.5 -40 77.5h50q3 -31 22.5 -50t54.5 -19q56 0 81.5 44.5t25.5 122.5v16h-1q-12 -35 -43.5 -54.5t-68.5 -19.5q-60 0 -96.5 37.5t-36.5 97.5q0 61 38.5 100t102.5 39q78 0 115.5 -53t37.5 -148q0 -107 -40.5 -163.5t-115.5 -56.5q-51 0 -86 29.5z
M237.5 516q28.5 27 28.5 74q0 40 -25.5 67t-70.5 27q-44 0 -68.5 -27t-24.5 -71q0 -45 24.5 -71t66.5 -26q41 0 69.5 27z" />
    <glyph glyph-name="space.frac" horiz-adv-x="38" 
 />
    <glyph glyph-name="uni2007.tf" horiz-adv-x="640" 
 />
    <glyph glyph-name="periodcentered.case" horiz-adv-x="192" 
d="M132 321h-72v72h72v-72z" />
    <glyph glyph-name="bullet.case" horiz-adv-x="327" 
d="M244 278h-160v160h160v-160z" />
    <glyph glyph-name="period.ss02" horiz-adv-x="172" 
d="M56 7.5q-11 11.5 -11 28.5t11 28.5t30 11.5t29.5 -11.5t10.5 -28.5t-10.5 -28.5t-29.5 -11.5t-30 11.5z" />
    <glyph glyph-name="comma.ss02" horiz-adv-x="161" 
d="M43 -70q21 8 33.5 25.5t13.5 41.5q-10 -2 -13 -2q-17 0 -27.5 10.5t-10.5 28.5q0 19 10.5 30.5t28.5 11.5q21 0 32.5 -15.5t11.5 -45.5q0 -40 -20.5 -73t-58.5 -45v33z" />
    <glyph glyph-name="colon.ss02" horiz-adv-x="182" 
d="M61 311.5q-11 11.5 -11 28.5t11 28.5t30 11.5t29.5 -11.5t10.5 -28.5t-10.5 -28.5t-29.5 -11.5t-30 11.5zM61 7.5q-11 11.5 -11 28.5t11 28.5t30 11.5t29.5 -11.5t10.5 -28.5t-10.5 -28.5t-29.5 -11.5t-30 11.5z" />
    <glyph glyph-name="semicolon.ss02" horiz-adv-x="195" 
d="M66 312.5q-11 11.5 -11 28.5t11 28.5t30 11.5t29.5 -11.5t10.5 -28.5t-10.5 -28.5t-29.5 -11.5t-30 11.5zM64 -70q21 8 33.5 25.5t13.5 41.5q-10 -2 -13 -2q-17 0 -27.5 10.5t-10.5 28.5q0 19 10.5 30.5t28.5 11.5q21 0 32.5 -15.5t11.5 -45.5q0 -40 -20.5 -73t-58.5 -45
v33z" />
    <glyph glyph-name="ellipsis.ss02" horiz-adv-x="516" 
d="M56 7.5q-11 11.5 -11 28.5t11 28.5t30 11.5t29.5 -11.5t10.5 -28.5t-10.5 -28.5t-29.5 -11.5t-30 11.5zM228 7.5q-11 11.5 -11 28.5t11 28.5t30 11.5t29.5 -11.5t10.5 -28.5t-10.5 -28.5t-29.5 -11.5t-30 11.5zM400 7.5q-11 11.5 -11 28.5t11 28.5t30 11.5t29.5 -11.5
t10.5 -28.5t-10.5 -28.5t-29.5 -11.5t-30 11.5z" />
    <glyph glyph-name="exclam.ss02" horiz-adv-x="199" 
d="M116 184h-32l-14 304v227h60v-227zM70 7.5q-11 11.5 -11 28.5t11 28.5t30 11.5t29.5 -11.5t10.5 -28.5t-10.5 -28.5t-29.5 -11.5t-30 11.5z" />
    <glyph glyph-name="exclamdown.ss02" horiz-adv-x="197" 
d="M69 520.5q-11 11.5 -11 28.5t11 28.5t30 11.5t29.5 -11.5t10.5 -28.5t-10.5 -28.5t-29.5 -11.5t-30 11.5zM128 -130h-60v227l14 304h32l14 -304v-227z" />
    <glyph glyph-name="question.ss02" horiz-adv-x="463" 
d="M179 177q0 62 13 101.5t36 66t67 63.5q34 29 50.5 46t29 42t12.5 58q0 55 -38 89t-105 34q-78 0 -125 -46t-47 -132h-55q0 64 26.5 115.5t77 82t121.5 30.5q90 0 145.5 -47t55.5 -125q0 -43 -17 -76t-37.5 -53t-57.5 -50q-36 -31 -55 -53t-30.5 -56.5t-11.5 -89.5h-55z
M180.5 7.5q-10.5 11.5 -10.5 28.5t10.5 28.5t29.5 11.5t29.5 -11.5t10.5 -28.5t-10.5 -28.5t-29.5 -11.5t-29.5 11.5z" />
    <glyph glyph-name="questiondown.ss02" horiz-adv-x="465" 
d="M223.5 520.5q-10.5 11.5 -10.5 28.5t10.5 28.5t29.5 11.5t30 -11.5t11 -28.5t-11 -28.5t-30 -11.5t-29.5 11.5zM76 -96q-56 47 -56 125q0 43 17 76t38.5 53.5t57.5 49.5q36 31 55 53t30 56.5t11 89.5h56q0 -62 -13 -101.5t-36 -66t-67 -63.5q-33 -28 -50 -45.5
t-29.5 -42.5t-12.5 -58q0 -55 37.5 -89t105.5 -34q78 0 124.5 46t46.5 132h56q0 -63 -26.5 -115t-77.5 -82.5t-122 -30.5q-89 0 -145 47z" />
    <glyph glyph-name="periodcentered.ss02" horiz-adv-x="190" 
d="M65 223.5q-11 11.5 -11 28.5t11 28.5t30 11.5t29.5 -11.5t10.5 -28.5t-10.5 -28.5t-29.5 -11.5t-30 11.5z" />
    <glyph glyph-name="bullet.ss02" horiz-adv-x="327" 
d="M103 240.5q-24 23.5 -24 60.5t24 60.5t61 23.5t60 -23.5t23 -60.5t-23 -60.5t-60 -23.5t-61 23.5z" />
    <glyph glyph-name="periodcentered.case.ss02" horiz-adv-x="200" 
d="M70 328.5q-11 11.5 -11 28.5t11 28.5t30 11.5t29.5 -11.5t10.5 -28.5t-10.5 -28.5t-29.5 -11.5t-30 11.5z" />
    <glyph glyph-name="bullet.case.ss02" horiz-adv-x="320" 
d="M100 293.5q-24 23.5 -24 60.5t24 60.5t61 23.5t60 -23.5t23 -60.5t-23 -60.5t-60 -23.5t-61 23.5z" />
    <glyph glyph-name="hyphen.case" horiz-adv-x="363" 
d="M316 334h-268v48h268v-48z" />
    <glyph glyph-name="uni00AD.case" horiz-adv-x="363" 
d="M316 334h-268v48h268v-48z" />
    <glyph glyph-name="endash.case" horiz-adv-x="595" 
d="M548 334h-500v48h500v-48z" />
    <glyph glyph-name="emdash.case" horiz-adv-x="1095" 
d="M1047 333h-1000v49h1000v-49z" />
    <glyph glyph-name="parenleft.case" horiz-adv-x="247" 
d="M175 -78q-58 85 -95 196.5t-37 237.5q0 130 37 241.5t95 196.5h47q-59 -103 -91.5 -206t-32.5 -232q0 -126 32.5 -228.5t91.5 -205.5h-47z" />
    <glyph glyph-name="parenright.case" horiz-adv-x="247" 
d="M24 -78q59 102 91 205.5t32 232.5q0 126 -32 229t-91 205h47q58 -85 95 -196.5t37 -237.5q0 -130 -37 -241.5t-95 -196.5h-47z" />
    <glyph glyph-name="braceleft.case" horiz-adv-x="274" 
d="M230 -78q-51 0 -79.5 18t-40.5 57t-12 105v133q0 47 -18.5 73t-51.5 26v48q33 -1 51.5 25t18.5 73v138q0 66 12 104t40.5 55t79.5 17h15v-49h-15q-30 0 -46.5 -11.5t-23 -39t-6.5 -79.5v-149q0 -40 -16 -65.5t-45 -41.5v-2q29 -16 45 -41.5t16 -66.5v-144q0 -53 7 -81.5
t23 -40.5t46 -12h15v-49h-15z" />
    <glyph glyph-name="braceright.case" horiz-adv-x="274" 
d="M30 -78v49h14q30 0 46.5 11.5t23.5 39t7 79.5v149q0 40 15.5 65.5t44.5 41.5v2q-29 16 -44.5 41.5t-15.5 66.5v144q0 53 -7 81.5t-23.5 40.5t-46.5 12h-14v49h14q51 0 79.5 -18t40.5 -57t12 -105v-133q0 -47 18.5 -73t51.5 -26v-48q-33 1 -51.5 -25t-18.5 -73v-138
q0 -66 -12 -104t-40.5 -55t-79.5 -17h-14z" />
    <glyph glyph-name="bracketleft.case" horiz-adv-x="261" 
d="M239 -78h-161v872h161v-49h-105v-774h105v-49z" />
    <glyph glyph-name="bracketright.case" horiz-adv-x="261" 
d="M182 -78h-161v49h106v774h-106v49h161v-872z" />
    <glyph glyph-name="guillemotleft.case" horiz-adv-x="475" 
d="M246 228v-60l-192 160v62l192 159v-60l-161 -130v-2zM410 228v-60l-192 160v62l192 159v-60l-160 -130v-2z" />
    <glyph glyph-name="guillemotright.case" horiz-adv-x="475" 
d="M257 327l-192 -159v60l161 129v2l-161 129v61l192 -160v-62zM422 327l-193 -159v60l161 129v2l-161 129v61l193 -160v-62z" />
    <glyph glyph-name="guilsinglleft.case" horiz-adv-x="310" 
d="M246 228v-60l-192 160v62l192 159v-60l-161 -130v-2z" />
    <glyph glyph-name="guilsinglright.case" horiz-adv-x="310" 
d="M257 327l-192 -159v60l161 129v2l-161 129v61l192 -160v-62z" />
    <glyph glyph-name="quotesinglbase.ss02" horiz-adv-x="161" 
d="M43 -70q21 8 33.5 25.5t13.5 41.5q-10 -2 -13 -2q-17 0 -27.5 10.5t-10.5 28.5q0 19 10.5 30.5t28.5 11.5q21 0 32.5 -15.5t11.5 -45.5q0 -40 -20.5 -73t-58.5 -45v33z" />
    <glyph glyph-name="quotedblbase.ss02" horiz-adv-x="281" 
d="M163 -70q21 8 33.5 25.5t13.5 41.5q-10 -2 -13 -2q-17 0 -27.5 10.5t-10.5 28.5q0 19 10.5 30.5t28.5 11.5q21 0 32.5 -15.5t11.5 -45.5q0 -40 -20.5 -73t-58.5 -45v33zM43 -70q21 8 33.5 25.5t13.5 41.5q-10 -2 -13 -2q-17 0 -27.5 10.5t-10.5 28.5q0 19 10.5 30.5
t28.5 11.5q21 0 32.5 -15.5t11.5 -45.5q0 -40 -20.5 -73t-58.5 -45v33z" />
    <glyph glyph-name="quotedblleft.ss02" horiz-adv-x="285" 
d="M49 547.5q-12 16.5 -12 48.5q0 42 21.5 76t61.5 47v-34q-22 -9 -35 -27t-14 -43q10 2 13 2q18 0 29 -11t11 -30q0 -20 -11 -32.5t-30 -12.5q-22 0 -34 16.5zM169 547.5q-12 16.5 -12 48.5q0 42 21.5 76t61.5 47v-34q-22 -9 -35 -27t-14 -43q10 2 13 2q18 0 29 -11t11 -30
q0 -20 -11 -32.5t-30 -12.5q-22 0 -34 16.5z" />
    <glyph glyph-name="quotedblright.ss02" horiz-adv-x="286" 
d="M50 566q46 19 49 70q-10 -2 -13 -2q-18 0 -29 11t-11 30q0 20 11 32t30 12q22 0 33.5 -16.5t11.5 -47.5q0 -42 -21.5 -76.5t-60.5 -46.5v34zM170 566q46 19 49 70q-10 -2 -13 -2q-18 0 -29 11t-11 30q0 20 11 32t30 12q22 0 33.5 -16.5t11.5 -47.5q0 -42 -21.5 -76.5
t-60.5 -46.5v34z" />
    <glyph glyph-name="quoteleft.ss02" horiz-adv-x="165" 
d="M49 547.5q-12 16.5 -12 48.5q0 42 21.5 76t61.5 47v-34q-22 -9 -35 -27t-14 -43q10 2 13 2q18 0 29 -11t11 -30q0 -20 -11 -32.5t-30 -12.5q-22 0 -34 16.5z" />
    <glyph glyph-name="quoteright.ss02" horiz-adv-x="166" 
d="M50 566q46 19 49 70q-10 -2 -13 -2q-18 0 -29 11t-11 30q0 20 11 32t30 12q22 0 33.5 -16.5t11.5 -47.5q0 -42 -21.5 -76.5t-60.5 -46.5v34z" />
    <glyph glyph-name="uni2219.ss02" horiz-adv-x="287" 
d="M114 320.5q-11 11.5 -11 28.5t11 28.5t30 11.5t29.5 -11.5t10.5 -28.5t-10.5 -28.5t-29.5 -11.5t-30 11.5z" />
    <glyph glyph-name="divide.ss02" horiz-adv-x="533" 
d="M237 461.5q-11 11.5 -11 28.5t11 28.5t30 11.5t29.5 -11.5t10.5 -28.5t-10.5 -28.5t-29.5 -11.5t-30 11.5zM237 138.5q-11 11.5 -11 28.5t11 28.5t30 11.5t29.5 -11.5t10.5 -28.5t-10.5 -28.5t-29.5 -11.5t-30 11.5zM482 303h-431v48h431v-48z" />
    <glyph glyph-name="brevecombcy" 
d="M75.5 627q-32.5 33 -35.5 88h41q4 -37 24 -59t55 -22q36 0 56 22t25 59h40q-3 -55 -35.5 -88t-85.5 -33q-52 0 -84.5 33z" />
    <glyph glyph-name="uni030C.alt" 
d="M64 530h-39l24 185h59z" />
    <glyph glyph-name="uni0308.ss02" 
d="M48.5 622q-10.5 11 -10.5 28t10.5 28t29.5 11q18 0 28.5 -11.5t10.5 -27.5t-10.5 -27.5t-28.5 -11.5q-19 0 -29.5 11zM188.5 622.5q-10.5 11.5 -10.5 27.5t10.5 27.5t28.5 11.5q19 0 29.5 -11t10.5 -28t-10.5 -28t-29.5 -11q-18 0 -28.5 11.5z" />
    <glyph glyph-name="uni0307.ss02" 
d="M46.5 622.5q-10.5 11.5 -10.5 27.5q0 17 10 28t29 11q18 0 29 -11.5t11 -27.5t-11 -27.5t-29 -11.5t-28.5 11.5z" />
    <glyph glyph-name="uni0312.ss02" 
d="M45.5 618.5q-11.5 14.5 -11.5 42.5q0 35 18.5 61.5t54.5 38.5v-31q-19 -6 -30.5 -21t-11.5 -38q10 2 16 2q15 0 24.5 -8.5t9.5 -24.5q0 -17 -10 -26.5t-27 -9.5q-21 0 -32.5 14.5z" />
    <glyph glyph-name="uni0326.ss02" 
d="M36 -181q46 16 47 57q-10 -2 -13 -2q-17 0 -27.5 11t-10.5 28q0 18 10.5 29t29.5 11q20 0 31.5 -15t11.5 -43q0 -38 -20 -67.5t-59 -40.5v32z" />
    <glyph glyph-name="dieresis.ss02" horiz-adv-x="299" 
d="M49 621.5q-11 11.5 -11 28.5t11 28.5t30 11.5t29.5 -11.5t10.5 -28.5t-10.5 -28.5t-29.5 -11.5t-30 11.5zM190 621.5q-11 11.5 -11 28.5t11 28.5t30 11.5t29.5 -11.5t10.5 -28.5t-10.5 -28.5t-29.5 -11.5t-30 11.5z" />
    <glyph glyph-name="dotaccent.ss02" 
d="M46.5 622.5q-10.5 11.5 -10.5 27.5q0 17 10 28t29 11q18 0 29 -11.5t11 -27.5t-11 -27.5t-29 -11.5t-28.5 11.5z" />
    </font>
</defs>
</svg>
