<?xml version="1.0" standalone="no"?>
<!DOCTYPE svg PUBLIC "-//W3C//DTD SVG 1.1//EN" "http://www.w3.org/Graphics/SVG/1.1/DTD/svg11.dtd" >
<svg xmlns="http://www.w3.org/2000/svg" xmlns:xlink="http://www.w3.org/1999/xlink" version="1.1">
<metadata>
Created by FontForge 20201107 at Mon Sep  5 16:39:30 2022
 By 
Copyright by Pangram Pangram Foundry. All rights reserved.
</metadata>
<defs>
<font id="PPNeueMontreal-Book" horiz-adv-x="0" >
  <font-face 
    font-family="PP Neue Montreal Book"
    font-weight="400"
    font-stretch="normal"
    units-per-em="1000"
    panose-1="0 0 5 0 0 0 0 0 0 0"
    ascent="800"
    descent="-200"
    x-height="510"
    cap-height="715"
    bbox="-171 -223 2072 936"
    underline-thickness="49"
    underline-position="-29"
    unicode-range="U+000D-1F150"
  />
<missing-glyph horiz-adv-x="659" 
 />
    <glyph glyph-name="f_f" unicode="ff" horiz-adv-x="500" 
d="M91 0v453h-72v57h72v75q0 79 29 107.5t88 28.5q18 0 49 -4v-55q-36 2 -40 2q-25 0 -38 -6.5t-18 -23t-5 -48.5v-76h173v75q0 79 29 107.5t88 28.5q18 0 49 -4v-55q-36 2 -40 2q-25 0 -38 -6.5t-18 -23t-5 -48.5v-76h101v-57h-101v-453h-65v453h-173v-453h-65z" />
    <glyph glyph-name="f_f_i" unicode="ffi" horiz-adv-x="687" 
d="M91 0v453h-72v57h72v75q0 79 29 107.5t88 28.5q18 0 49 -4v-55q-36 2 -40 2q-25 0 -38 -6.5t-18 -23t-5 -48.5v-76h173v75q0 79 29 107.5t88 28.5q18 0 49 -4v-55q-36 2 -40 2q-25 0 -38 -6.5t-18 -23t-5 -48.5v-76h101v-57h-101v-453h-65v453h-173v-453h-65zM627 0h-65
v510h65v-510zM636 612h-84v84h84v-84z" />
    <glyph glyph-name="f_i" unicode="fi" horiz-adv-x="451" 
d="M179 657.5q-13 -6.5 -18 -23t-5 -48.5v-76h101v-57h-101v-453h-65v453h-72v57h72v75q0 79 29 107.5t88 28.5q18 0 49 -4v-55q-36 2 -40 2q-25 0 -38 -6.5zM391 0h-65v510h65v-510zM400 612h-84v84h84v-84z" />
    <glyph glyph-name="f_l" unicode="fl" horiz-adv-x="451" 
d="M179 657.5q-13 -6.5 -18 -23t-5 -48.5v-76h101v-57h-101v-453h-65v453h-72v57h72v75q0 79 29 107.5t88 28.5q18 0 49 -4v-55q-36 2 -40 2q-25 0 -38 -6.5zM391 0h-65v715h65v-715z" />
    <glyph glyph-name=".notdef" horiz-adv-x="659" 
 />
    <glyph glyph-name=".null" 
 />
    <glyph glyph-name="nonmarkingreturn" unicode="&#xd;" horiz-adv-x="219" 
 />
    <glyph glyph-name="space" unicode=" " horiz-adv-x="219" 
 />
    <glyph glyph-name="exclam" unicode="!" horiz-adv-x="208" 
d="M124 184h-41l-17 315v216h75v-216zM146 0h-84v84h84v-84z" />
    <glyph glyph-name="quotedbl" unicode="&#x22;" horiz-adv-x="299" 
d="M107 478h-51l-8 237h67zM244 478h-51l-8 237h67z" />
    <glyph glyph-name="numbersign" unicode="#" horiz-adv-x="565" 
d="M536 491l-11 -57h-107l-31 -163h117l-10 -58h-118l-41 -213h-59l41 213h-131l-41 -213h-59l41 213h-95l10 58h96l32 163h-106l10 57h107l38 198h58l-38 -198h132l38 198h58l-38 -198h107zM197 271h131l32 163h-132z" />
    <glyph glyph-name="dollar" unicode="$" horiz-adv-x="584" 
d="M492 44.5q-58 -53.5 -167 -57.5v-88h-50v90q-106 9 -173 71t-74 166h69q7 -76 50.5 -122t127.5 -54v280q-98 22 -157.5 63t-59.5 119q0 82 58.5 131.5t158.5 52.5v74h50v-76q89 -10 144 -63t61 -143h-69q-14 127 -136 143v-250q81 -22 128 -45t72 -60t25 -97
q0 -81 -58 -134.5zM163.5 441.5q36.5 -26.5 111.5 -47.5v240q-69 -2 -108.5 -33t-39.5 -83q0 -50 36.5 -76.5zM445.5 266.5q-34.5 29.5 -120.5 51.5v-270q155 5 155 133q0 56 -34.5 85.5z" />
    <glyph glyph-name="percent" unicode="%" horiz-adv-x="783" 
d="M64 367.5q-40 54.5 -40 138.5q0 85 40 139.5t117 54.5q76 0 116 -55t40 -139t-39.5 -138.5t-116.5 -54.5t-117 54.5zM229 0h-67l393 689h66zM253 406.5q24 38.5 24 99.5q0 62 -24 100.5t-72 38.5q-49 0 -73 -38.5t-24 -100.5t24 -100t73 -38q48 0 72 38.5zM487.5 42
q-40.5 55 -40.5 139t40 139t117 55q76 0 116.5 -55t40.5 -139t-40 -139t-117 -55q-76 0 -116.5 55zM676.5 80.5q23.5 38.5 23.5 100.5t-24 100t-72 38t-72 -38t-24 -100t23.5 -100.5t72.5 -38.5t72.5 38.5z" />
    <glyph glyph-name="ampersand" unicode="&#x26;" horiz-adv-x="594" 
d="M596 0h-78l-65 81q-82 -94 -208 -94q-65 0 -113.5 24.5t-74 67.5t-25.5 97q0 76 45.5 125t124.5 93q-44 55 -65 94t-21 84q0 40 18 76t54.5 58t88.5 22q50 0 86.5 -21.5t55.5 -57t19 -78.5q0 -59 -36 -99.5t-113 -87.5l157 -197q33 65 44 152h66q-14 -117 -66 -206z
M207 639q-25 -28 -25 -67q0 -34 19 -68.5t55 -78.5q59 34 87.5 66t28.5 76t-25.5 72t-69.5 28q-45 0 -70 -28zM412 132l-176 220q-68 -40 -103 -77.5t-35 -93.5q0 -58 40 -94t108 -36q102 0 166 81z" />
    <glyph glyph-name="quotesingle" unicode="'" horiz-adv-x="163" 
d="M107 478h-51l-8 237h67z" />
    <glyph glyph-name="parenleft" unicode="(" horiz-adv-x="250" 
d="M174 -117q-60 84 -98.5 195.5t-38.5 238.5q0 131 38 242.5t99 195.5h59q-59 -102 -91 -205.5t-32 -232.5q0 -126 32 -229t91 -205h-59z" />
    <glyph glyph-name="parenright" unicode=")" horiz-adv-x="250" 
d="M17 -117q59 102 91 205.5t32 232.5q0 126 -32 229t-91 205h59q60 -84 98.5 -195.5t38.5 -238.5q0 -131 -38 -242.5t-99 -195.5h-59z" />
    <glyph glyph-name="asterisk" unicode="*" horiz-adv-x="440" 
d="M220 503l-89 -116l-42 30l87 111l-136 44l18 44l135 -42l-1 141h55l-1 -141l136 42l18 -44l-136 -44l87 -111l-42 -30z" />
    <glyph glyph-name="plus" unicode="+" horiz-adv-x="542" 
d="M304 98h-66l1 196h-189v64h189l-1 195h66v-195h189v-64h-189v-196z" />
    <glyph glyph-name="comma" unicode="," horiz-adv-x="182" 
d="M49 -78q24 9 33 25.5t8 52.5h-41v84h84v-84q0 -47 -18 -76.5t-66 -44.5v43z" />
    <glyph glyph-name="hyphen" unicode="-" horiz-adv-x="351" 
d="M309 223h-268v64h268v-64z" />
    <glyph glyph-name="period" unicode="." horiz-adv-x="183" 
d="M133 0h-84v84h84v-84z" />
    <glyph glyph-name="slash" unicode="/" horiz-adv-x="373" 
d="M79 0h-66l281 715h66z" />
    <glyph glyph-name="zero" unicode="0" horiz-adv-x="615" 
d="M112 87q-65 100 -65 258t65 258.5t195 100.5q88 0 146.5 -47.5t86.5 -128.5t28 -183t-28 -182.5t-86.5 -128t-146.5 -47.5q-130 0 -195 100zM447.5 133q44.5 82 44.5 212q0 131 -44.5 213t-140.5 82t-140 -82.5t-44 -212.5t44 -212t140 -82t140.5 82z" />
    <glyph glyph-name="one" unicode="1" horiz-adv-x="309" 
d="M156 545q-23 -24 -57 -32t-87 -8v61q60 1 92.5 14.5t47 39.5t18.5 71h58v-691h-72v545z" />
    <glyph glyph-name="two" unicode="2" horiz-adv-x="549" 
d="M31 0q0 179 204 293l29 16q66 38 98 60.5t50 53.5t18 77q0 59 -33 99.5t-106 40.5q-85 0 -125 -51t-40 -131h-75q0 69 27 124.5t81 88.5t133 33q60 0 108.5 -24t77 -70t28.5 -109q0 -61 -28 -105.5t-69 -75t-107 -67.5q-59 -34 -92 -56.5t-59.5 -55t-32.5 -75.5v-2h381
v-64h-468z" />
    <glyph glyph-name="three" unicode="3" horiz-adv-x="585" 
d="M106 51.5q-70 64.5 -70 179.5h76q0 -84 45 -132t140 -48q168 0 168 140q0 72 -44.5 105t-106.5 33h-74v64h70q58 0 93.5 32t35.5 92q0 52 -34.5 87.5t-103.5 35.5q-95 0 -132.5 -43.5t-37.5 -109.5h-76q0 97 63.5 157t182.5 60q57 0 106 -22.5t78.5 -65t29.5 -99.5
q0 -56 -27 -92.5t-81 -58.5v-2q68 -21 101 -65.5t33 -107.5q0 -96 -65 -150t-174 -54q-126 0 -196 64.5z" />
    <glyph glyph-name="four" unicode="4" horiz-adv-x="561" 
d="M435 0h-72v168h-338v64l338 459h72v-459h98v-64h-98v-168zM363 588l-263 -356h263v356z" />
    <glyph glyph-name="five" unicode="5" horiz-adv-x="557" 
d="M149 16q-54 29 -82 76.5t-30 102.5h75q6 -64 45.5 -104t117.5 -40q76 0 122 47t46 136q0 82 -43 122t-116 40q-53 0 -94 -20t-65 -53h-78l73 368h363v-64h-304l-47 -231v-2q58 66 168 66q65 0 114.5 -29.5t77 -81t27.5 -115.5q0 -73 -31 -129t-86 -87t-124 -31
q-75 0 -129 29z" />
    <glyph glyph-name="six" unicode="6" horiz-adv-x="579" 
d="M109.5 78q-61.5 91 -61.5 259q0 175 67 271t192 96q59 0 105 -24.5t73 -66.5t32 -94h-75q-6 57 -41 89t-94 32q-100 0 -143 -80t-43 -213v-20l1 -1q23 60 75.5 91.5t116.5 31.5q65 0 115.5 -28.5t78.5 -80t28 -118.5q0 -65 -28.5 -119t-81.5 -85t-125 -31
q-130 0 -191.5 91zM418.5 96q41.5 45 41.5 122q0 78 -41 122.5t-111 44.5q-48 0 -87.5 -21t-62 -60t-22.5 -93q0 -69 43.5 -114.5t121.5 -45.5q76 0 117.5 45z" />
    <glyph glyph-name="seven" unicode="7" horiz-adv-x="501" 
d="M117 0q0 108 37 228.5t101 226t140 170.5v2h-387v64h470v-56q-89 -72 -153.5 -180t-98 -227.5t-33.5 -227.5h-76z" />
    <glyph glyph-name="eight" unicode="8" horiz-adv-x="590" 
d="M166.5 10.5q-57.5 23.5 -91 70t-33.5 112.5q0 122 133 176v2q-44 22 -71.5 59t-27.5 91q0 85 61 134t158 49t158 -49t61 -134q0 -54 -27.5 -91t-71.5 -59v-2q133 -55 133 -176q0 -66 -33.5 -112.5t-91 -70t-128.5 -23.5t-128.5 23.5zM399.5 432.5q38.5 30.5 38.5 88.5
t-38.5 88.5t-104.5 30.5t-104.5 -30.5t-38.5 -88.5t38.5 -88.5t104.5 -30.5t104.5 30.5zM423.5 89q48.5 38 48.5 107q0 66 -48.5 104t-128.5 38t-128.5 -38t-48.5 -104q0 -69 48.5 -107t128.5 -38t128.5 38z" />
    <glyph glyph-name="nine" unicode="9" horiz-adv-x="580" 
d="M167 11.5q-46 24.5 -73 66.5t-32 94h75q7 -57 41.5 -89t93.5 -32q100 0 143.5 80t43.5 213v20l-2 1q-23 -60 -75.5 -91.5t-116.5 -31.5q-65 0 -115.5 28.5t-78.5 80t-28 118.5q0 65 28.5 119t81.5 85t125 31q253 0 253 -350q0 -175 -67 -271t-192 -96q-59 0 -105 24.5z
M394 353.5q49 46.5 49 126.5q0 69 -43.5 114.5t-121.5 45.5q-76 0 -117.5 -45t-41.5 -122t41 -121.5t111 -44.5q74 0 123 46.5z" />
    <glyph glyph-name="colon" unicode=":" horiz-adv-x="192" 
d="M138 305h-84v84h84v-84zM138 0h-84v84h84v-84z" />
    <glyph glyph-name="semicolon" unicode=";" horiz-adv-x="192" 
d="M138 305h-84v84h84v-84zM54 -78q24 9 33 25.5t8 52.5h-41v84h84v-84q0 -47 -18 -76.5t-66 -44.5v43z" />
    <glyph glyph-name="less" unicode="&#x3c;" horiz-adv-x="507" 
d="M449 171v-65l-402 169v75l402 168v-66l-347 -139v-2z" />
    <glyph glyph-name="equal" unicode="=" horiz-adv-x="540" 
d="M488 365h-436v63h436v-63zM488 224h-436v63h436v-63z" />
    <glyph glyph-name="greater" unicode="&#x3e;" horiz-adv-x="507" 
d="M460 274l-403 -168v65l347 139v2l-347 140v66l403 -169v-75z" />
    <glyph glyph-name="question" unicode="?" horiz-adv-x="477" 
d="M175 180q0 62 15 102.5t38 66.5t65 60q35 29 51.5 44.5t28.5 39t12 55.5q0 53 -35.5 84t-99.5 31q-73 0 -117 -42.5t-44 -129.5h-73q0 68 27 121.5t79.5 84.5t125.5 31q95 0 152.5 -49t57.5 -130q0 -41 -15.5 -72t-35.5 -50t-58 -50q-41 -34 -58.5 -53t-30 -53.5
t-12.5 -90.5h-73zM257 0h-84v84h84v-84z" />
    <glyph glyph-name="at" unicode="@" horiz-adv-x="867" 
d="M221.5 -55.5q-89.5 48.5 -139 138.5t-49.5 210q0 118 53 213.5t145.5 150t207.5 54.5q113 0 202 -48.5t139 -135.5t50 -197q0 -84 -25.5 -139.5t-65.5 -82t-84 -26.5q-94 0 -116 98q-46 -97 -148 -97q-48 0 -86 25t-59.5 71.5t-21.5 108.5q0 65 24.5 117.5t67.5 82
t97 29.5q51 0 89.5 -27t52.5 -70h2l11 90h57l-33 -261q-2 -20 -2 -28q0 -39 17 -60t52 -21q52 0 82 50t30 138q0 97 -42.5 171t-118 114.5t-171.5 40.5q-101 0 -180 -49t-123 -131.5t-44 -180.5q0 -100 42.5 -177t118.5 -119.5t174 -42.5q103 0 183 33l21 -47
q-87 -44 -205 -44q-115 0 -204.5 48.5zM502 192q37 51 37 128q0 67 -33 103.5t-84 36.5q-67 0 -103.5 -50.5t-36.5 -123.5q0 -65 31 -105t88 -40q64 0 101 51z" />
    <glyph glyph-name="A" unicode="A" horiz-adv-x="635" 
d="M84 0h-75l267 715h82l269 -715h-78l-72 198h-321zM316 646l-136 -383h274l-136 383h-2z" />
    <glyph glyph-name="B" unicode="B" horiz-adv-x="654" 
d="M76 0v715h285q106 0 166 -48t60 -132q0 -112 -113 -151v-2q63 -12 102.5 -57.5t39.5 -119.5q0 -99 -63.5 -152t-172.5 -53h-304zM375 408q136 0 136 120q0 57 -34.5 90t-101.5 33h-226v-243h226zM383 64q81 0 119 37.5t38 103.5q0 63 -37.5 101t-101.5 38h-252v-280h234z
" />
    <glyph glyph-name="C" unicode="C" horiz-adv-x="697" 
d="M197.5 34q-74.5 47 -116 131.5t-41.5 191.5t41.5 191.5t116 132t171.5 47.5q81 0 144.5 -32t102 -86.5t47.5 -122.5h-76q-13 72 -66 124.5t-153 52.5q-83 0 -139.5 -42t-84.5 -112t-28 -153t28 -152.5t85 -111.5t139 -42q72 0 120 29t73 75t29 99h76q-9 -78 -47.5 -138.5
t-103 -94.5t-147.5 -34q-96 0 -170.5 47z" />
    <glyph glyph-name="D" unicode="D" horiz-adv-x="687" 
d="M76 0v715h259q148 0 229.5 -95.5t81.5 -263.5q0 -110 -37 -190t-107.5 -123t-169.5 -43h-256zM332 64q126 0 182 80.5t56 211.5q0 133 -55 214t-181 81h-185v-587h183z" />
    <glyph glyph-name="E" unicode="E" horiz-adv-x="603" 
d="M572 0h-496v715h485v-64h-412v-246h368v-64h-368v-277h423v-64z" />
    <glyph glyph-name="F" unicode="F" horiz-adv-x="567" 
d="M149 0h-73v715h478v-64h-405v-253h334v-64h-334v-334z" />
    <glyph glyph-name="G" unicode="G" horiz-adv-x="729" 
d="M189 34.5q-73 47.5 -110.5 131t-37.5 191.5q0 106 41 190.5t116.5 132.5t174.5 48q125 0 200 -60t94 -165h-75q-16 77 -74 119t-145 42q-85 0 -142.5 -44t-85.5 -114t-28 -149q0 -81 24.5 -150t79.5 -112.5t143 -43.5q69 0 124 31.5t86.5 88.5t31.5 131h-237v65h310v-367
h-50l-22 127h-2q-75 -140 -241 -140q-102 0 -175 47.5z" />
    <glyph glyph-name="H" unicode="H" horiz-adv-x="703" 
d="M149 0h-73v715h73v-309h405v309h72v-715h-72v342h-405v-342z" />
    <glyph glyph-name="I" unicode="I" horiz-adv-x="225" 
d="M149 0h-73v715h73v-715z" />
    <glyph glyph-name="J" unicode="J" horiz-adv-x="496" 
d="M68 49q-48 62 -48 158v23h73v-23q0 -75 28.5 -115.5t99.5 -40.5t100.5 41t29.5 115v508h73v-508q0 -95 -49 -157.5t-154 -62.5t-153 62z" />
    <glyph glyph-name="K" unicode="K" horiz-adv-x="629" 
d="M641 0h-85l-270 369l-137 -143v-226h-73v715h73v-404l386 404h83l-285 -297z" />
    <glyph glyph-name="L" unicode="L" horiz-adv-x="549" 
d="M535 0h-459v715h73v-651h386v-64z" />
    <glyph glyph-name="M" unicode="M" horiz-adv-x="839" 
d="M149 0h-73v715h101l241 -617h2l242 617h101v-715h-73v612h-2l-236 -612h-66l-235 612h-2v-612z" />
    <glyph glyph-name="N" unicode="N" horiz-adv-x="703" 
d="M149 0h-73v715h89l387 -612h2v612h73v-715h-89l-387 612h-2v-612z" />
    <glyph glyph-name="O" unicode="O" horiz-adv-x="767" 
d="M204 34.5q-78 47.5 -121 132t-43 191.5t43 191t121 131.5t180 47.5q101 0 179 -47.5t121 -131.5t43 -191t-43 -191.5t-121 -132t-179 -47.5q-102 0 -180 47.5zM529.5 91.5q60.5 40.5 91 110.5t30.5 156t-30.5 155.5t-91 110t-145.5 40.5q-86 0 -146.5 -40.5t-91 -110
t-30.5 -155.5t30.5 -156t91 -110.5t146.5 -40.5q85 0 145.5 40.5z" />
    <glyph glyph-name="P" unicode="P" horiz-adv-x="605" 
d="M76 0v715h275q106 0 168.5 -49.5t62.5 -156.5t-62.5 -157t-168.5 -50h-202v-302h-73zM358 366q148 0 148 143q0 142 -148 142h-209v-285h209z" />
    <glyph glyph-name="Q" unicode="Q" horiz-adv-x="767" 
d="M703.5 213q-23.5 -67 -66.5 -117l88 -88l-46 -46l-90 90q-87 -65 -205 -65q-102 0 -180 47.5t-121 132t-43 191.5t43 191t121 131.5t180 47.5q101 0 179 -47.5t121 -131.5t43 -191q0 -78 -23.5 -145zM541 100l-96 97l46 45l96 -96q31 41 47.5 95.5t16.5 116.5
q0 86 -30.5 155.5t-91 110t-145.5 40.5q-86 0 -146.5 -40.5t-91 -110t-30.5 -155.5t30.5 -156t91 -110.5t146.5 -40.5q92 0 157 49z" />
    <glyph glyph-name="R" unicode="R" horiz-adv-x="640" 
d="M76 0v715h280q114 0 174.5 -52t60.5 -150q0 -70 -36.5 -117.5t-96.5 -62.5v-2q51 -10 77.5 -49t36 -86t13.5 -110q4 -43 7 -60t12 -20v-6h-78q-7 6 -9 21.5t-4 51.5q-3 64 -12 109.5t-40 80t-94 34.5h-218v-297h-73zM338 361q86 0 133 38.5t47 112.5q0 70 -42 104.5
t-133 34.5h-194v-290h189z" />
    <glyph glyph-name="S" unicode="S" horiz-adv-x="616" 
d="M117.5 53q-83.5 66 -90.5 184h76q8 -87 63.5 -136.5t163.5 -49.5q94 0 135.5 39t41.5 105q0 50 -23.5 77.5t-66 42.5t-130.5 35q-72 17 -120 37t-79 58t-31 99q0 85 64 134.5t174 49.5q117 0 186.5 -57t77.5 -162h-76q-9 77 -54.5 116t-133.5 39q-78 0 -120 -30.5
t-42 -86.5q0 -45 24 -71.5t61.5 -39.5t104.5 -28q87 -19 141 -40.5t86.5 -62.5t32.5 -110q0 -60 -27.5 -107t-84 -74t-138.5 -27q-132 0 -215.5 66z" />
    <glyph glyph-name="T" unicode="T" horiz-adv-x="588" 
d="M330 0h-72v651h-243v64h559v-64h-244v-651z" />
    <glyph glyph-name="U" unicode="U" horiz-adv-x="680" 
d="M137.5 54.5q-66.5 67.5 -66.5 186.5v474h73v-474q0 -96 48.5 -143t147.5 -47t147.5 47t48.5 143v474h73v-474q0 -119 -66.5 -186.5t-202.5 -67.5t-202.5 67.5z" />
    <glyph glyph-name="V" unicode="V" horiz-adv-x="616" 
d="M347 0h-76l-261 715h79l220 -641h1l218 641h76z" />
    <glyph glyph-name="W" unicode="W" horiz-adv-x="901" 
d="M277 0h-80l-180 715h77l146 -611h2l168 611h81l168 -611h3l146 611h76l-179 -715h-81l-172 629h-3z" />
    <glyph glyph-name="X" unicode="X" horiz-adv-x="573" 
d="M86 0h-87l247 367l-230 348h82l190 -296h1l190 296h81l-231 -349l243 -366h-86l-202 313h-1z" />
    <glyph glyph-name="Y" unicode="Y" horiz-adv-x="618" 
d="M345 0h-73v293l-261 422h79l218 -365h2l219 365h78l-262 -422v-293z" />
    <glyph glyph-name="Z" unicode="Z" horiz-adv-x="588" 
d="M566 0h-548v64l449 585v2h-429v64h518v-64l-449 -585v-2h459v-64z" />
    <glyph glyph-name="bracketleft" unicode="[" horiz-adv-x="264" 
d="M246 -117h-175v872h175v-64h-103v-744h103v-64z" />
    <glyph glyph-name="backslash" unicode="\" horiz-adv-x="373" 
d="M361 0h-66l-281 715h65z" />
    <glyph glyph-name="bracketright" unicode="]" horiz-adv-x="264" 
d="M194 -117h-175v64h102v744h-102v64h175v-872z" />
    <glyph glyph-name="asciicircum" unicode="^" horiz-adv-x="460" 
d="M99 440h-73l171 275h67l170 -275h-72l-131 215h-1z" />
    <glyph glyph-name="underscore" unicode="_" horiz-adv-x="555" 
d="M535 -140h-514v64h514v-64z" />
    <glyph glyph-name="grave" unicode="`" horiz-adv-x="210" 
d="M169 593h-54l-80 132h79z" />
    <glyph glyph-name="a" unicode="a" horiz-adv-x="514" 
d="M78.5 26q-45.5 39 -45.5 103q0 53 24 86t69 51t117 31q57 10 81.5 16.5t40.5 21.5t16 44q0 41 -28.5 64t-87.5 23q-72 0 -103.5 -26t-35.5 -84h-69q4 74 55 120.5t155 46.5q78 0 127.5 -38.5t49.5 -123.5v-255q0 -32 6 -46t23 -14q8 0 14 1v-47q-22 -4 -34 -4
q-34 0 -51.5 17.5t-20.5 63.5h-2q-26 -44 -71.5 -67t-107.5 -23q-76 0 -121.5 39zM334 83.5q47 39.5 47 107.5v95q-10 -14 -43.5 -24t-86.5 -19q-79 -14 -114.5 -37.5t-35.5 -70.5q0 -91 107 -91q79 0 126 39.5z" />
    <glyph glyph-name="b" unicode="b" horiz-adv-x="557" 
d="M413 490.5q51 -32.5 81 -93t30 -142.5q0 -81 -30 -141.5t-81 -93t-114 -32.5q-118 0 -172 99h-2v-87h-65v715h65v-287h2q26 42 68 68.5t104 26.5q63 0 114 -32.5zM380.5 73q37.5 28 56.5 76t19 106t-19 106.5t-56.5 77t-88.5 28.5q-49 0 -87 -26t-59 -74t-21 -112
q0 -63 21 -110.5t59 -73.5t87 -26q51 0 88.5 28z" />
    <glyph glyph-name="c" unicode="c" horiz-adv-x="522" 
d="M148.5 20.5q-55.5 33.5 -86 94.5t-30.5 140t30.5 139.5t86 94t127.5 33.5q61 0 108.5 -25t76 -68.5t34.5 -97.5h-68q-2 32 -18.5 62.5t-49.5 51t-83 20.5q-59 0 -99 -29.5t-58.5 -77.5t-18.5 -103q0 -56 18.5 -104t58.5 -78t99 -30q73 0 110 42t41 97h68
q-3 -55 -32 -99.5t-77.5 -70t-109.5 -25.5q-72 0 -127.5 33.5z" />
    <glyph glyph-name="d" unicode="d" horiz-adv-x="557" 
d="M431 715h65v-715h-65v83h-2q-25 -42 -67.5 -69t-104.5 -27t-113.5 32.5t-81 93t-29.5 142.5q0 81 29.5 141.5t81 93t113.5 32.5q63 0 105 -26.5t67 -71.5h2v291zM351.5 70q37.5 26 58.5 73.5t21 111.5q0 63 -21 110.5t-58.5 73.5t-86.5 26q-51 0 -88.5 -28t-56.5 -76
t-19 -106q0 -90 43.5 -150.5t120.5 -60.5q49 0 86.5 26z" />
    <glyph glyph-name="e" unicode="e" horiz-adv-x="537" 
d="M505 242h-404q1 -54 20.5 -99.5t59 -73t96.5 -27.5q70 0 108 36t48 78h66q-20 -76 -76 -123t-147 -47q-76 0 -131 34.5t-83.5 95.5t-28.5 139q0 81 30 141.5t85 93.5t128 33q72 0 124 -31.5t79 -87t27 -126.5q0 -28 -1 -36zM437 299q0 46 -19.5 84.5t-56.5 61t-88 22.5
q-73 0 -120.5 -48t-51.5 -120h336z" />
    <glyph glyph-name="f" unicode="f" horiz-adv-x="262" 
d="M179 657.5q-13 -6.5 -18 -23t-5 -48.5v-76h101v-57h-101v-453h-65v453h-72v57h72v75q0 79 29 107.5t88 28.5q18 0 49 -4v-55q-36 2 -40 2q-25 0 -38 -6.5z" />
    <glyph glyph-name="g" unicode="g" horiz-adv-x="557" 
d="M433 510h65v-478q0 -106 -61 -160.5t-169 -54.5q-100 0 -156.5 43t-62.5 113h68q8 -45 45 -72t107 -27q164 0 164 149v95h-2q-24 -43 -67.5 -68.5t-104.5 -25.5q-63 0 -113.5 28t-80.5 84t-30 138q0 81 30 137t80.5 83.5t113.5 27.5q61 0 104.5 -25.5t67.5 -66.5h2v80z
M387.5 130q45.5 49 45.5 144q0 93 -45.5 142t-119.5 49q-78 0 -121.5 -52t-43.5 -139q0 -89 43.5 -141t121.5 -52q74 0 119.5 49z" />
    <glyph glyph-name="h" unicode="h" horiz-adv-x="525" 
d="M422 480.5q47 -41.5 47 -122.5v-358h-65v344q0 54 -28 87.5t-90 33.5q-47 0 -83.5 -20t-57 -52.5t-20.5 -70.5v-322h-65v715h65v-278h2q25 37 68.5 61t106.5 24q73 0 120 -41.5z" />
    <glyph glyph-name="i" unicode="i" horiz-adv-x="185" 
d="M125 0h-65v510h65v-510zM134 612h-84v84h84v-84z" />
    <glyph glyph-name="j" unicode="j" horiz-adv-x="185" 
d="M-24 -176v55q30 -2 38 -2q25 0 35.5 17.5t10.5 61.5v554h65v-559q0 -69 -27.5 -100t-72.5 -31q-22 0 -49 4zM134 612h-84v84h84v-84z" />
    <glyph glyph-name="k" unicode="k" horiz-adv-x="470" 
d="M483 0h-77l-193 282l-88 -82v-200h-65v715h65v-445l253 240h80l-201 -187z" />
    <glyph glyph-name="l" unicode="l" horiz-adv-x="185" 
d="M125 0h-65v715h65v-715z" />
    <glyph glyph-name="m" unicode="m" horiz-adv-x="796" 
d="M701.5 480q38.5 -42 38.5 -122v-358h-65v344q0 56 -20.5 88.5t-78.5 32.5q-43 0 -75.5 -20t-50 -52.5t-17.5 -70.5v-322h-65v344q0 56 -21 88.5t-79 32.5q-43 0 -75.5 -20t-50 -52.5t-17.5 -70.5v-322h-65v510h65v-72h2q24 36 62 60t93 24q108 0 137 -94h2q27 42 69.5 68
t99.5 26q73 0 111.5 -42z" />
    <glyph glyph-name="n" unicode="n" horiz-adv-x="525" 
d="M422 480.5q47 -41.5 47 -122.5v-358h-65v344q0 54 -28 87.5t-90 33.5q-47 0 -83.5 -20t-57 -52.5t-20.5 -70.5v-322h-65v510h65v-73h2q25 37 68.5 61t106.5 24q73 0 120 -41.5z" />
    <glyph glyph-name="o" unicode="o" horiz-adv-x="554" 
d="M146.5 20q-55.5 34 -85 94.5t-29.5 139.5t29.5 140t85 95t130.5 34t130.5 -34t85 -95t29.5 -140t-29.5 -139.5t-85 -94.5t-130.5 -34t-130.5 34zM408.5 102.5q45.5 59.5 45.5 151.5q0 93 -45.5 152.5t-131.5 59.5t-131.5 -59.5t-45.5 -152.5q0 -92 45.5 -151.5
t131.5 -59.5t131.5 59.5z" />
    <glyph glyph-name="p" unicode="p" horiz-adv-x="557" 
d="M413 490.5q51 -32.5 81 -93t30 -142.5q0 -81 -30 -141.5t-81 -93t-114 -32.5t-105 26.5t-67 71.5h-2v-263h-65v687h65v-82h2q26 42 68 68.5t104 26.5q63 0 114 -32.5zM380.5 73q37.5 28 56.5 76t19 106q0 90 -43.5 150.5t-120.5 60.5q-49 0 -87 -26t-59 -74t-21 -111
t21 -110.5t59 -73.5t87 -26q51 0 88.5 28z" />
    <glyph glyph-name="q" unicode="q" horiz-adv-x="556" 
d="M431 510h65v-687h-65v260h-2q-25 -42 -67.5 -69t-104.5 -27t-113.5 32.5t-81 93t-29.5 142.5q0 81 29.5 141.5t81 93t113.5 32.5q63 0 105 -26.5t67 -71.5h2v86zM351.5 70q37.5 26 58.5 73.5t21 111.5q0 63 -21 110.5t-58.5 73.5t-86.5 26q-51 0 -88.5 -28t-56.5 -76
t-19 -106q0 -90 43.5 -150.5t120.5 -60.5q49 0 86.5 26z" />
    <glyph glyph-name="r" unicode="r" horiz-adv-x="325" 
d="M316 519v-64q-15 3 -31 3q-45 0 -81.5 -22.5t-57.5 -62t-21 -88.5v-285h-65v510h65v-104h2q21 53 57.5 84.5t87.5 31.5q26 0 44 -3z" />
    <glyph glyph-name="s" unicode="s" horiz-adv-x="472" 
d="M85 37.5q-59 50.5 -61 129.5h68q3 -56 42 -89.5t115 -33.5q68 0 99 26.5t31 68.5q0 31 -16.5 49.5t-41.5 27.5t-66 18q-6 1 -23 5q-64 16 -101 30t-62.5 42t-25.5 74q0 63 48 100t133 37q94 0 145.5 -43.5t58.5 -111.5h-68q-20 98 -135 98q-55 0 -84.5 -20t-29.5 -56
q0 -27 16 -43t40.5 -25t66.5 -18l23 -6q61 -15 100 -30.5t65 -45.5t26 -80q0 -70 -53 -112t-147 -42q-104 0 -163 50.5z" />
    <glyph glyph-name="t" unicode="t" horiz-adv-x="280" 
d="M256 453h-103v-322q0 -47 13 -62.5t51 -15.5q9 0 39 2v-55q-27 -4 -48 -4q-61 0 -90.5 29t-29.5 107v321h-75v57h75v170h65v-170h103v-57z" />
    <glyph glyph-name="u" unicode="u" horiz-adv-x="525" 
d="M400 510h65v-510h-65v72h-2q-25 -36 -68.5 -60t-106.5 -24q-73 0 -120 41.5t-47 122.5v358h65v-344q0 -54 28 -87.5t90 -33.5q47 0 83.5 20t57 52.5t20.5 70.5v322z" />
    <glyph glyph-name="v" unicode="v" horiz-adv-x="468" 
d="M271 0h-74l-187 510h72l153 -444h1l152 444h70z" />
    <glyph glyph-name="w" unicode="w" horiz-adv-x="737" 
d="M247 0h-72l-162 510h72l127 -436h2l119 436h73l119 -436h2l128 436h70l-163 -510h-73l-120 431h-2z" />
    <glyph glyph-name="x" unicode="x" horiz-adv-x="467" 
d="M72 0h-78l200 261l-184 249h79l144 -203h2l143 203h78l-183 -249l201 -261h-79l-161 217h-2z" />
    <glyph glyph-name="y" unicode="y" horiz-adv-x="481" 
d="M56 -175v56q23 -3 39 -3q38 0 66.5 29t48.5 96l-206 507h72l166 -425h2l158 425h70l-204 -525q-36 -93 -73 -128.5t-90 -35.5q-21 0 -49 4z" />
    <glyph glyph-name="z" unicode="z" horiz-adv-x="441" 
d="M422 0h-404v50l303 401v2h-287v57h377v-41l-309 -410v-2h320v-57z" />
    <glyph glyph-name="braceleft" unicode="{" horiz-adv-x="276" 
d="M237 -117q-55 0 -87 16.5t-46.5 57t-14.5 115.5v118q0 45 -15.5 71t-49.5 26v64q34 -1 49.5 25t15.5 71v123q0 74 14.5 114t46 55.5t87.5 15.5h17v-64h-17q-41 0 -58.5 -24t-17.5 -88v-152q0 -40 -15.5 -65.5t-44.5 -41.5v-2q29 -16 44.5 -41.5t15.5 -66.5v-147
q0 -66 17.5 -91t58.5 -25h17v-64h-17z" />
    <glyph glyph-name="bar" unicode="|" horiz-adv-x="211" 
d="M135 -128h-59v872h59v-872z" />
    <glyph glyph-name="braceright" unicode="}" horiz-adv-x="276" 
d="M22 -117v64h16q42 0 59 24t17 88v152q0 40 15.5 65.5t44.5 41.5v2q-29 16 -44.5 41.5t-15.5 66.5v147q0 67 -17 91.5t-59 24.5h-16v64h16q56 0 87.5 -16.5t46.5 -57.5t15 -115v-118q0 -45 15.5 -71t48.5 -26v-64q-33 1 -48.5 -25t-15.5 -71v-123q0 -74 -15 -114
t-46.5 -55.5t-87.5 -15.5h-16z" />
    <glyph glyph-name="asciitilde" unicode="~" horiz-adv-x="427" 
d="M56 276q1 50 24 80t62 30q23 0 41.5 -8t40.5 -22q4 -2 14.5 -8t19 -9t15.5 -3q21 0 30.5 14.5t10.5 34.5h59q-2 -49 -24.5 -79.5t-61.5 -30.5q-22 0 -38.5 7t-43.5 22q-18 11 -28.5 16t-21.5 5q-21 0 -30.5 -14.5t-10.5 -34.5h-58z" />
    <glyph glyph-name="uni00A0" unicode="&#xa0;" horiz-adv-x="219" 
 />
    <glyph glyph-name="exclamdown" unicode="&#xa1;" horiz-adv-x="205" 
d="M144 501h-84v84h84v-84zM140 -130h-75v216l17 315h41l17 -315v-216z" />
    <glyph glyph-name="cent" unicode="&#xa2;" horiz-adv-x="553" 
d="M316 149q63 7 94.5 46.5t34.5 90.5h68q-3 -51 -29 -94t-69.5 -69.5t-98.5 -30.5v-87h-51v87q-65 7 -113.5 42t-75 93t-26.5 132q0 73 26.5 131t75.5 93.5t113 42.5v80h51v-80q82 -7 135.5 -60t61.5 -130h-68q-4 47 -36 86.5t-93 46.5v-420zM155 220.5q37 -59.5 110 -70.5
v418q-73 -11 -110 -70.5t-37 -138.5t37 -138.5z" />
    <glyph glyph-name="sterling" unicode="&#xa3;" horiz-adv-x="566" 
d="M537 48q-37 -30 -65 -45.5t-70 -15.5q-29 0 -53 8.5t-55 24.5q-28 14 -46 21t-39 7q-31 0 -59.5 -11t-68.5 -37l-40 54q43 30 69 83t26 117q0 17 -3 32h-85v60h63q-23 49 -33.5 80.5t-10.5 74.5q0 45 23.5 90.5t74.5 76t128 30.5q114 0 170.5 -63t56.5 -165h-72
q0 79 -39 121.5t-116 42.5q-69 0 -111 -38t-42 -102q0 -32 9 -60t26 -63l11 -25h166v-60h-147q3 -16 3 -35q0 -53 -20.5 -98.5t-56.5 -74.5l1 -2q25 14 47.5 22.5t50.5 8.5q26 0 45.5 -6.5t46.5 -20.5q24 -12 39.5 -17.5t33.5 -5.5q32 0 56.5 12t53.5 37z" />
    <glyph glyph-name="currency" unicode="&#xa4;" horiz-adv-x="522" 
d="M416 224l63 -64l-36 -37l-63 64q-25 -20 -56 -30.5t-63 -10.5t-63 10.5t-56 29.5l-63 -63l-36 36l63 64q-37 50 -37 121t38 122l-64 64l36 36l63 -64q25 19 56 29.5t63 10.5t63 -10.5t56 -30.5l63 64l36 -35l-64 -65q37 -50 37 -121q0 -69 -36 -120zM170.5 239.5
q35.5 -36.5 90.5 -36.5t90 36.5t35 104.5t-35 104.5t-90 36.5t-90.5 -36.5t-35.5 -104.5t35.5 -104.5z" />
    <glyph glyph-name="yen" unicode="&#xa5;" horiz-adv-x="585" 
d="M480 686h78l-219 -385h173v-51h-183v-67h183v-50h-183v-133h-73v133h-184v50h184v67h-184v51h174l-219 385h78l186 -342h2z" />
    <glyph glyph-name="brokenbar" unicode="&#xa6;" horiz-adv-x="211" 
d="M135 384h-59v360h59v-360zM135 -128h-59v373h59v-373z" />
    <glyph glyph-name="section" unicode="&#xa7;" horiz-adv-x="583" 
d="M509 123.5q-28 -34.5 -78 -46.5q49 -47 49 -113t-47 -109t-137 -43q-97 0 -144 47t-50 122h65q4 -112 128 -112q61 0 90 23.5t29 64.5q0 34 -18 58t-41.5 39.5t-76.5 45.5l-50 30l-23 13q-58 33 -89 55.5t-50.5 52.5t-19.5 71q0 54 28.5 88.5t78.5 46.5q-50 48 -50 113
q0 66 46.5 109t136.5 43q97 0 144.5 -47t50.5 -122h-66q-4 51 -29.5 81.5t-98.5 30.5q-61 0 -90 -24t-29 -65q0 -32 16 -55.5t39.5 -40t65.5 -39.5q6 -3 10.5 -5.5t8.5 -4.5l51 -28q68 -38 101 -60.5t55 -54.5t22 -76q0 -54 -28 -88.5zM448 143q23 22 23 58q0 31 -19.5 56.5
t-49.5 45.5t-81 48l-58 33q-40 22 -58 34q-47 -4 -70.5 -26t-23.5 -59q0 -31 19 -55.5t48 -43.5t87 -51l59 -33q34 -19 57 -34q44 5 67 27z" />
    <glyph glyph-name="dieresis" unicode="&#xa8;" horiz-adv-x="320" 
d="M125 612h-84v84h84v-84zM273 612h-84v84h84v-84z" />
    <glyph glyph-name="copyright" unicode="&#xa9;" horiz-adv-x="846" 
d="M228.5 33q-84.5 46 -131 129.5t-46.5 194.5t46.5 195t130.5 130t196 46q111 0 195.5 -46t130.5 -130t46 -195t-46 -194.5t-130.5 -129.5t-195.5 -46t-195.5 46zM587.5 79q70.5 39 109 111t38.5 167t-38.5 167t-109 111.5t-163.5 39.5t-164 -39.5t-110 -111.5t-39 -167
t39 -167t110 -111t164 -39t163.5 39zM278 193.5q-56 62.5 -56 163.5t54.5 164t149.5 63q80 0 129.5 -43.5t58.5 -110.5h-58q-7 36 -37.5 66.5t-90.5 30.5q-75 0 -110 -47.5t-35 -122.5t35 -122t110 -47q62 0 93 32t36 72h58q-5 -71 -54.5 -116t-129.5 -45q-97 0 -153 62.5z
" />
    <glyph glyph-name="ordfeminine" unicode="&#xaa;" horiz-adv-x="423" 
d="M68.5 341q-33.5 30 -33.5 82q0 55 38.5 81t119.5 40q37 7 56.5 13t32 19t12.5 36q0 28 -21 44.5t-64 16.5q-48 0 -70.5 -21t-24.5 -62h-62q2 57 42 94.5t120 37.5q64 0 102 -30t38 -98v-190q0 -21 4 -31t16 -10h12v-40q-22 -5 -34 -5q-28 0 -41.5 14.5t-15.5 47.5h-3
q-20 -33 -54.5 -51t-77.5 -18q-58 0 -91.5 30zM261 393q33 30 33 77v67q-7 -12 -28.5 -20t-63.5 -16q-51 -9 -77.5 -25.5t-26.5 -49.5q0 -63 78 -63q52 0 85 30z" />
    <glyph glyph-name="guillemotleft" unicode="&#xab;" horiz-adv-x="461" 
d="M240 136v-76l-196 161v78l196 160v-75l-157 -123v-2zM407 136v-76l-195 161v78l195 160v-75l-157 -123v-2z" />
    <glyph glyph-name="logicalnot" unicode="&#xac;" horiz-adv-x="512" 
d="M449 145h-73v184h-333v65h406v-249z" />
    <glyph glyph-name="uni00AD" unicode="&#xad;" horiz-adv-x="351" 
d="M309 223h-268v64h268v-64z" />
    <glyph glyph-name="registered" unicode="&#xae;" horiz-adv-x="572" 
d="M166.5 280.5q-54.5 31.5 -86 86.5t-31.5 123t31.5 123t86 86.5t119.5 31.5t119.5 -31.5t86 -86.5t31.5 -123t-31.5 -123t-86 -86.5t-119.5 -31.5t-119.5 31.5zM386 310.5q45 26.5 71.5 73.5t26.5 106t-26.5 106t-71.5 73.5t-100 26.5q-54 0 -99.5 -26.5t-72 -73.5
t-26.5 -106t26.5 -106t72 -73.5t99.5 -26.5q55 0 100 26.5zM190 359v265h107q45 0 68.5 -20t23.5 -57q0 -26 -15 -43t-43 -23v-2q29 -5 39 -27t14 -58q1 -12 3.5 -21.5t6.5 -10.5v-3h-54q-7 6 -9 33q-3 32 -12.5 49.5t-37.5 17.5h-38v-100h-53zM284 503q26 0 40 8.5t14 31.5
q0 21 -13.5 29t-39.5 8h-42v-77h41z" />
    <glyph glyph-name="macron" unicode="&#xaf;" horiz-adv-x="329" 
d="M289 618h-249v57h249v-57z" />
    <glyph glyph-name="degree" unicode="&#xb0;" horiz-adv-x="383" 
d="M107 450.5q-34 22.5 -51 57t-17 70.5t17 70.5t51 57t84 22.5q49 0 83.5 -22.5t52 -57t17.5 -70.5t-17.5 -70.5t-52 -57t-83.5 -22.5q-50 0 -84 22.5zM263 507q27 28 27 71q0 44 -26.5 72t-72.5 28q-45 0 -72 -28t-27 -72q0 -43 27 -71t72 -28t72 28z" />
    <glyph glyph-name="plusminus" unicode="&#xb1;" horiz-adv-x="542" 
d="M304 123h-66l1 196h-189v64h189l-1 195h66v-195h189v-64h-189v-196zM493 -5h-443v64h443v-64z" />
    <glyph glyph-name="uni00B2" unicode="&#xb2;" horiz-adv-x="341" 
d="M21 363q0 52 25.5 89.5t75.5 70.5l33 21q48 30 70 52.5t22 58.5q0 31 -17 50.5t-53 19.5q-42 0 -63 -25.5t-21 -70.5h-62q0 64 38 106.5t110 42.5q60 0 97 -31.5t37 -87.5q0 -36 -15.5 -62.5t-37.5 -44.5t-62 -44q-42 -26 -64 -45t-29 -46v-2h205v-52h-289z" />
    <glyph glyph-name="uni00B3" unicode="&#xb3;" horiz-adv-x="361" 
d="M65.5 400.5q-42.5 38.5 -42.5 108.5h63q0 -95 96 -95q42 0 63 18.5t21 52.5q0 37 -23.5 54.5t-59.5 17.5h-35v49h33q34 0 53 15.5t19 46.5q0 29 -18 46.5t-53 17.5q-44 0 -64 -21t-20 -56h-63q0 58 39.5 94t110.5 36q55 0 94 -30t39 -81q0 -63 -62 -89v-1q76 -24 76 -101
q0 -57 -40 -89t-106 -32q-78 0 -120.5 38.5z" />
    <glyph glyph-name="acute" unicode="&#xb4;" horiz-adv-x="210" 
d="M88 593h-54l62 132h78z" />
    <glyph glyph-name="uni00B5" unicode="&#xb5;" horiz-adv-x="549" 
d="M414 510h65v-510h-65v72h-2q-24 -36 -66 -60t-101 -24q-67 0 -110 37v-202h-65v687h65v-344q0 -54 28 -87.5t91 -33.5q46 0 82.5 20t57 52.5t20.5 70.5v322z" />
    <glyph glyph-name="paragraph" unicode="&#xb6;" horiz-adv-x="523" 
d="M248 0v350h-44q-90 0 -137.5 45.5t-47.5 134.5q0 90 48 137.5t137 47.5h240v-715h-58v651h-79v-651h-59z" />
    <glyph glyph-name="periodcentered" unicode="&#xb7;" horiz-adv-x="190" 
d="M136 209h-84v84h84v-84z" />
    <glyph glyph-name="cedilla" unicode="&#xb8;" horiz-adv-x="284" 
d="M40 -164l19 22q37 -16 72 -16q27 0 41 10.5t14 29.5q0 33 -42 33q-26 0 -42 -8l-12 18l61 75h44l-45 -54v-2q14 2 20 2q31 0 52.5 -17t21.5 -48q0 -37 -29 -56t-72 -19q-55 0 -103 30z" />
    <glyph glyph-name="uni00B9" unicode="&#xb9;" horiz-adv-x="210" 
d="M97 667q-13 -12 -34 -16t-51 -4v51q48 1 71.5 18t24.5 54h53v-406h-64v303z" />
    <glyph glyph-name="ordmasculine" unicode="&#xba;" horiz-adv-x="441" 
d="M83 368q-51 57 -51 149q0 91 51 148t138 57t137.5 -56.5t50.5 -148.5t-50.5 -149t-137.5 -57t-138 57zM315.5 407q32.5 43 32.5 110t-32.5 109.5t-94.5 42.5q-63 0 -95.5 -42.5t-32.5 -109.5t32.5 -110t95.5 -43q62 0 94.5 43z" />
    <glyph glyph-name="guillemotright" unicode="&#xbb;" horiz-adv-x="461" 
d="M249 220l-196 -160v75l157 124v2l-157 123v75l196 -160v-79zM417 220l-196 -160v75l157 124v2l-157 123v75l196 -160v-79z" />
    <glyph glyph-name="onequarter" unicode="&#xbc;" horiz-adv-x="718" 
d="M104 612q-13 -12 -34 -16t-51 -4v51q48 1 71.5 18t24.5 54h53v-406h-64v303zM131 0h-74l453 715h74zM642 0h-63v94h-193v60l193 252h63v-259h59v-53h-59v-94zM579 330l-139 -183h139v183z" />
    <glyph glyph-name="onehalf" unicode="&#xbd;" horiz-adv-x="763" 
d="M108 612q-13 -12 -34 -16t-51 -4v51q48 1 71.5 18t24.5 54h53v-406h-64v303zM135 0h-74l453 715h74zM435 0q0 52 25.5 89.5t75.5 70.5l33 21q48 30 70 52.5t22 58.5q0 31 -17 50.5t-53 19.5q-42 0 -63 -25.5t-21 -70.5h-62q0 64 38 106.5t110 42.5q60 0 97 -31.5
t37 -87.5q0 -36 -15.5 -62.5t-37.5 -44.5t-62 -44q-42 -26 -64 -45t-29 -46v-2h205v-52h-289z" />
    <glyph glyph-name="threequarters" unicode="&#xbe;" horiz-adv-x="875" 
d="M73.5 340.5q-42.5 38.5 -42.5 108.5h63q0 -95 96 -95q42 0 63 18.5t21 52.5q0 37 -23.5 54.5t-59.5 17.5h-35v49h33q34 0 53 15.5t19 46.5q0 29 -18 46.5t-53 17.5q-44 0 -64 -21t-20 -56h-63q0 58 39.5 94t110.5 36q55 0 94 -30t39 -81q0 -63 -62 -89v-1q76 -24 76 -101
q0 -57 -40 -89t-106 -32q-78 0 -120.5 38.5zM294 0h-74l453 715h74zM795 0h-63v94h-193v60l193 252h63v-259h59v-53h-59v-94zM732 330l-139 -183h139v183z" />
    <glyph glyph-name="questiondown" unicode="&#xbf;" horiz-adv-x="478" 
d="M305 500h-84v84h84v-84zM76.5 -95q-57.5 49 -57.5 130q0 41 15.5 71.5t35 49.5t58.5 51q41 35 59 53.5t30.5 53t12.5 90.5h72q0 -61 -15 -102t-38 -67t-65 -60q-5 -4 -34.5 -28.5t-43.5 -51.5t-14 -59q0 -53 35.5 -84t99.5 -31q73 0 117 42.5t44 129.5h73
q0 -68 -27 -121.5t-79.5 -84.5t-125.5 -31q-95 0 -152.5 49z" />
    <glyph glyph-name="Agrave" unicode="&#xc0;" horiz-adv-x="635" 
d="M84 0h-75l267 715h82l269 -715h-78l-72 198h-321zM316 646l-136 -383h274l-136 383h-2zM340 798h-54l-80 132h79z" />
    <glyph glyph-name="Aacute" unicode="&#xc1;" horiz-adv-x="635" 
d="M84 0h-75l267 715h82l269 -715h-78l-72 198h-321zM316 646l-136 -383h274l-136 383h-2zM337 798h-54l62 132h78z" />
    <glyph glyph-name="Acircumflex" unicode="&#xc2;" horiz-adv-x="635" 
d="M84 0h-75l267 715h82l269 -715h-78l-72 198h-321zM316 646l-136 -383h274l-136 383h-2zM257 800h-68l91 130h74l90 -130h-68l-59 93h-1z" />
    <glyph glyph-name="Atilde" unicode="&#xc3;" horiz-adv-x="635" 
d="M84 0h-75l267 715h82l269 -715h-78l-72 198h-321zM316 646l-136 -383h274l-136 383h-2zM179 805q1 45 21 67.5t51 22.5q19 0 35 -6t42 -18q13 -7 25.5 -12t21.5 -5q25 0 27 39h51q-1 -45 -21 -67t-51 -22q-19 0 -36 6t-40 18q-13 7 -26 12t-22 5q-25 0 -27 -40h-51z" />
    <glyph glyph-name="Adieresis" unicode="&#xc4;" horiz-adv-x="635" 
d="M84 0h-75l267 715h82l269 -715h-78l-72 198h-321zM316 646l-136 -383h274l-136 383h-2zM284 817h-84v84h84v-84zM433 817h-84v84h84v-84z" />
    <glyph glyph-name="Aring" unicode="&#xc5;" horiz-adv-x="635" 
d="M84 0h-75l267 715h82l269 -715h-78l-72 198h-321zM316 646l-136 -383h274l-136 383h-2zM254 790q-24 24 -24 61q0 38 24 61.5t62 23.5t62 -23.5t24 -61.5q0 -37 -24 -61t-62 -24t-62 24zM352 814q14 14 14 37q0 22 -14 36.5t-36 14.5t-35.5 -14.5t-13.5 -36.5
q0 -23 13.5 -37t35.5 -14t36 14z" />
    <glyph glyph-name="AE" unicode="&#xc6;" horiz-adv-x="956" 
d="M503 341v-277h423v-64h-496v198h-274l-72 -198h-75l267 715h639v-64h-412v-246h367v-64h-367zM316 649l-136 -386h250v386h-114z" />
    <glyph glyph-name="Ccedilla" unicode="&#xc7;" horiz-adv-x="697" 
d="M351 -54v-2q14 2 20 2q31 0 52.5 -17t21.5 -48q0 -37 -29 -56t-72 -19q-55 0 -103 30l19 22q37 -16 72 -16q27 0 41 10.5t14 29.5q0 33 -42 33q-26 0 -42 -8l-12 18l51 63q-89 6 -157.5 54.5t-106.5 130.5t-38 184q0 107 41.5 191.5t116 132t171.5 47.5q81 0 144.5 -32
t102 -86.5t47.5 -122.5h-76q-13 72 -66 124.5t-153 52.5q-83 0 -139.5 -42t-84.5 -112t-28 -153t28 -152.5t85 -111.5t139 -42q72 0 120 29t73 75t29 99h76q-8 -76 -44 -135t-97 -93.5t-140 -38.5z" />
    <glyph glyph-name="Egrave" unicode="&#xc8;" horiz-adv-x="603" 
d="M572 0h-496v715h485v-64h-412v-246h368v-64h-368v-277h423v-64zM346 798h-54l-80 132h79z" />
    <glyph glyph-name="Eacute" unicode="&#xc9;" horiz-adv-x="603" 
d="M572 0h-496v715h485v-64h-412v-246h368v-64h-368v-277h423v-64zM343 798h-54l62 132h78z" />
    <glyph glyph-name="Ecircumflex" unicode="&#xca;" horiz-adv-x="603" 
d="M572 0h-496v715h485v-64h-412v-246h368v-64h-368v-277h423v-64zM263 800h-68l91 130h74l90 -130h-68l-59 93h-1z" />
    <glyph glyph-name="Edieresis" unicode="&#xcb;" horiz-adv-x="603" 
d="M572 0h-496v715h485v-64h-412v-246h368v-64h-368v-277h423v-64zM290 817h-84v84h84v-84zM439 817h-84v84h84v-84z" />
    <glyph glyph-name="Igrave" unicode="&#xcc;" horiz-adv-x="225" 
d="M149 0h-73v715h73v-715zM136 798h-54l-80 132h79z" />
    <glyph glyph-name="Iacute" unicode="&#xcd;" horiz-adv-x="225" 
d="M149 0h-73v715h73v-715zM133 798h-54l62 132h78z" />
    <glyph glyph-name="Icircumflex" unicode="&#xce;" horiz-adv-x="225" 
d="M149 0h-73v715h73v-715zM53 800h-68l91 130h74l90 -130h-68l-59 93h-1z" />
    <glyph glyph-name="Idieresis" unicode="&#xcf;" horiz-adv-x="225" 
d="M149 0h-73v715h73v-715zM80 817h-84v84h84v-84zM229 817h-84v84h84v-84z" />
    <glyph glyph-name="Eth" unicode="&#xd0;" horiz-adv-x="709" 
d="M357 715q148 0 229.5 -95.5t81.5 -263.5q0 -110 -37 -190t-107.5 -123t-169.5 -43h-256v341h-84v58h84v316h259zM354 64q126 0 182 80.5t56 211.5q0 133 -55 214t-181 81h-185v-252h223v-58h-223v-277h183z" />
    <glyph glyph-name="Ntilde" unicode="&#xd1;" horiz-adv-x="703" 
d="M149 0h-73v715h89l387 -612h2v612h73v-715h-89l-387 612h-2v-612zM214 805q1 45 21 67.5t51 22.5q19 0 35 -6t42 -18q13 -7 25.5 -12t21.5 -5q25 0 27 39h51q-1 -45 -21 -67t-51 -22q-19 0 -36 6t-40 18q-13 7 -26 12t-22 5q-25 0 -27 -40h-51z" />
    <glyph glyph-name="Ograve" unicode="&#xd2;" horiz-adv-x="767" 
d="M204 34.5q-78 47.5 -121 132t-43 191.5t43 191t121 131.5t180 47.5q101 0 179 -47.5t121 -131.5t43 -191t-43 -191.5t-121 -132t-179 -47.5q-102 0 -180 47.5zM529.5 91.5q60.5 40.5 91 110.5t30.5 156t-30.5 155.5t-91 110t-145.5 40.5q-86 0 -146.5 -40.5t-91 -110
t-30.5 -155.5t30.5 -156t91 -110.5t146.5 -40.5q85 0 145.5 40.5zM407 798h-54l-80 132h79z" />
    <glyph glyph-name="Oacute" unicode="&#xd3;" horiz-adv-x="767" 
d="M204 34.5q-78 47.5 -121 132t-43 191.5t43 191t121 131.5t180 47.5q101 0 179 -47.5t121 -131.5t43 -191t-43 -191.5t-121 -132t-179 -47.5q-102 0 -180 47.5zM529.5 91.5q60.5 40.5 91 110.5t30.5 156t-30.5 155.5t-91 110t-145.5 40.5q-86 0 -146.5 -40.5t-91 -110
t-30.5 -155.5t30.5 -156t91 -110.5t146.5 -40.5q85 0 145.5 40.5zM404 798h-54l62 132h78z" />
    <glyph glyph-name="Ocircumflex" unicode="&#xd4;" horiz-adv-x="767" 
d="M204 34.5q-78 47.5 -121 132t-43 191.5t43 191t121 131.5t180 47.5q101 0 179 -47.5t121 -131.5t43 -191t-43 -191.5t-121 -132t-179 -47.5q-102 0 -180 47.5zM529.5 91.5q60.5 40.5 91 110.5t30.5 156t-30.5 155.5t-91 110t-145.5 40.5q-86 0 -146.5 -40.5t-91 -110
t-30.5 -155.5t30.5 -156t91 -110.5t146.5 -40.5q85 0 145.5 40.5zM324 800h-68l91 130h74l90 -130h-68l-59 93h-1z" />
    <glyph glyph-name="Otilde" unicode="&#xd5;" horiz-adv-x="767" 
d="M204 34.5q-78 47.5 -121 132t-43 191.5t43 191t121 131.5t180 47.5q101 0 179 -47.5t121 -131.5t43 -191t-43 -191.5t-121 -132t-179 -47.5q-102 0 -180 47.5zM529.5 91.5q60.5 40.5 91 110.5t30.5 156t-30.5 155.5t-91 110t-145.5 40.5q-86 0 -146.5 -40.5t-91 -110
t-30.5 -155.5t30.5 -156t91 -110.5t146.5 -40.5q85 0 145.5 40.5zM246 805q1 45 21 67.5t51 22.5q19 0 35 -6t42 -18q13 -7 25.5 -12t21.5 -5q25 0 27 39h51q-1 -45 -21 -67t-51 -22q-19 0 -36 6t-40 18q-13 7 -26 12t-22 5q-25 0 -27 -40h-51z" />
    <glyph glyph-name="Odieresis" unicode="&#xd6;" horiz-adv-x="767" 
d="M204 34.5q-78 47.5 -121 132t-43 191.5t43 191t121 131.5t180 47.5q101 0 179 -47.5t121 -131.5t43 -191t-43 -191.5t-121 -132t-179 -47.5q-102 0 -180 47.5zM529.5 91.5q60.5 40.5 91 110.5t30.5 156t-30.5 155.5t-91 110t-145.5 40.5q-86 0 -146.5 -40.5t-91 -110
t-30.5 -155.5t30.5 -156t91 -110.5t146.5 -40.5q85 0 145.5 40.5zM351 817h-84v84h84v-84zM500 817h-84v84h84v-84z" />
    <glyph glyph-name="multiply" unicode="&#xd7;" horiz-adv-x="542" 
d="M271 279l-153 -154l-47 46l154 154l-154 154l47 46l153 -154l154 154l46 -46l-154 -154l154 -154l-46 -46z" />
    <glyph glyph-name="Oslash" unicode="&#xd8;" horiz-adv-x="774" 
d="M735 681l-79 -80q36 -48 55.5 -110t19.5 -133q0 -107 -43 -191.5t-121.5 -132t-179.5 -47.5q-73 0 -134.5 25t-106.5 72l-78 -79l-30 31l79 81q-36 48 -55 109.5t-19 131.5q0 107 43 191t121.5 131.5t179.5 47.5q72 0 133 -24.5t107 -69.5l76 77zM168 168l411 417
q-73 79 -192 79q-86 0 -146.5 -40.5t-91 -110t-30.5 -155.5q0 -113 49 -190zM605 549l-411 -416q72 -82 193 -82q86 0 146.5 40.5t91 110.5t30.5 156q0 112 -50 191z" />
    <glyph glyph-name="Ugrave" unicode="&#xd9;" horiz-adv-x="680" 
d="M137.5 54.5q-66.5 67.5 -66.5 186.5v474h73v-474q0 -96 48.5 -143t147.5 -47t147.5 47t48.5 143v474h73v-474q0 -119 -66.5 -186.5t-202.5 -67.5t-202.5 67.5zM363 798h-54l-80 132h79z" />
    <glyph glyph-name="Uacute" unicode="&#xda;" horiz-adv-x="680" 
d="M137.5 54.5q-66.5 67.5 -66.5 186.5v474h73v-474q0 -96 48.5 -143t147.5 -47t147.5 47t48.5 143v474h73v-474q0 -119 -66.5 -186.5t-202.5 -67.5t-202.5 67.5zM360 798h-54l62 132h78z" />
    <glyph glyph-name="Ucircumflex" unicode="&#xdb;" horiz-adv-x="680" 
d="M137.5 54.5q-66.5 67.5 -66.5 186.5v474h73v-474q0 -96 48.5 -143t147.5 -47t147.5 47t48.5 143v474h73v-474q0 -119 -66.5 -186.5t-202.5 -67.5t-202.5 67.5zM280 800h-68l91 130h74l90 -130h-68l-59 93h-1z" />
    <glyph glyph-name="Udieresis" unicode="&#xdc;" horiz-adv-x="680" 
d="M137.5 54.5q-66.5 67.5 -66.5 186.5v474h73v-474q0 -96 48.5 -143t147.5 -47t147.5 47t48.5 143v474h73v-474q0 -119 -66.5 -186.5t-202.5 -67.5t-202.5 67.5zM308 817h-84v84h84v-84zM457 817h-84v84h84v-84z" />
    <glyph glyph-name="Yacute" unicode="&#xdd;" horiz-adv-x="618" 
d="M345 0h-73v293l-261 422h79l218 -365h2l219 365h78l-262 -422v-293zM330 798h-54l62 132h78z" />
    <glyph glyph-name="Thorn" unicode="&#xde;" horiz-adv-x="607" 
d="M76 0v715h73v-117h202q106 0 168.5 -49.5t62.5 -156.5t-62.5 -157t-168.5 -50h-202v-185h-73zM361 249q148 0 148 143q0 142 -148 142h-212v-285h212z" />
    <glyph glyph-name="germandbls" unicode="&#xdf;" horiz-adv-x="510" 
d="M197 1v57q38 -15 78 -15q65 0 100.5 43t35.5 112q0 59 -25.5 97t-65.5 55.5t-84 17.5h-30v56h27q58 0 100.5 33t42.5 97q0 50 -29.5 83.5t-90.5 33.5q-73 0 -102 -44t-29 -123v-504h-65v524q0 96 51.5 150t144.5 54q83 0 135.5 -46t52.5 -126q0 -60 -30 -98t-83 -61v-2
q148 -48 148 -203q0 -92 -50 -148.5t-138 -56.5q-47 0 -94 14z" />
    <glyph glyph-name="agrave" unicode="&#xe0;" horiz-adv-x="514" 
d="M78.5 26q-45.5 39 -45.5 103q0 53 24 86t69 51t117 31q57 10 81.5 16.5t40.5 21.5t16 44q0 41 -28.5 64t-87.5 23q-72 0 -103.5 -26t-35.5 -84h-69q4 74 55 120.5t155 46.5q78 0 127.5 -38.5t49.5 -123.5v-255q0 -32 6 -46t23 -14q8 0 14 1v-47q-22 -4 -34 -4
q-34 0 -51.5 17.5t-20.5 63.5h-2q-26 -44 -71.5 -67t-107.5 -23q-76 0 -121.5 39zM334 83.5q47 39.5 47 107.5v95q-10 -14 -43.5 -24t-86.5 -19q-79 -14 -114.5 -37.5t-35.5 -70.5q0 -91 107 -91q79 0 126 39.5zM287 593h-54l-80 132h79z" />
    <glyph glyph-name="aacute" unicode="&#xe1;" horiz-adv-x="514" 
d="M78.5 26q-45.5 39 -45.5 103q0 53 24 86t69 51t117 31q57 10 81.5 16.5t40.5 21.5t16 44q0 41 -28.5 64t-87.5 23q-72 0 -103.5 -26t-35.5 -84h-69q4 74 55 120.5t155 46.5q78 0 127.5 -38.5t49.5 -123.5v-255q0 -32 6 -46t23 -14q8 0 14 1v-47q-22 -4 -34 -4
q-34 0 -51.5 17.5t-20.5 63.5h-2q-26 -44 -71.5 -67t-107.5 -23q-76 0 -121.5 39zM334 83.5q47 39.5 47 107.5v95q-10 -14 -43.5 -24t-86.5 -19q-79 -14 -114.5 -37.5t-35.5 -70.5q0 -91 107 -91q79 0 126 39.5zM284 593h-54l62 132h78z" />
    <glyph glyph-name="acircumflex" unicode="&#xe2;" horiz-adv-x="514" 
d="M78.5 26q-45.5 39 -45.5 103q0 53 24 86t69 51t117 31q57 10 81.5 16.5t40.5 21.5t16 44q0 41 -28.5 64t-87.5 23q-72 0 -103.5 -26t-35.5 -84h-69q4 74 55 120.5t155 46.5q78 0 127.5 -38.5t49.5 -123.5v-255q0 -32 6 -46t23 -14q8 0 14 1v-47q-22 -4 -34 -4
q-34 0 -51.5 17.5t-20.5 63.5h-2q-26 -44 -71.5 -67t-107.5 -23q-76 0 -121.5 39zM334 83.5q47 39.5 47 107.5v95q-10 -14 -43.5 -24t-86.5 -19q-79 -14 -114.5 -37.5t-35.5 -70.5q0 -91 107 -91q79 0 126 39.5zM204 595h-68l91 130h74l90 -130h-68l-59 93h-1z" />
    <glyph glyph-name="atilde" unicode="&#xe3;" horiz-adv-x="514" 
d="M78.5 26q-45.5 39 -45.5 103q0 53 24 86t69 51t117 31q57 10 81.5 16.5t40.5 21.5t16 44q0 41 -28.5 64t-87.5 23q-72 0 -103.5 -26t-35.5 -84h-69q4 74 55 120.5t155 46.5q78 0 127.5 -38.5t49.5 -123.5v-255q0 -32 6 -46t23 -14q8 0 14 1v-47q-22 -4 -34 -4
q-34 0 -51.5 17.5t-20.5 63.5h-2q-26 -44 -71.5 -67t-107.5 -23q-76 0 -121.5 39zM334 83.5q47 39.5 47 107.5v95q-10 -14 -43.5 -24t-86.5 -19q-79 -14 -114.5 -37.5t-35.5 -70.5q0 -91 107 -91q79 0 126 39.5zM126 600q1 45 21 67.5t51 22.5q19 0 35 -6t42 -18
q13 -7 25.5 -12t21.5 -5q25 0 27 39h51q-1 -45 -21 -67t-51 -22q-19 0 -36 6t-40 18q-13 7 -26 12t-22 5q-25 0 -27 -40h-51z" />
    <glyph glyph-name="adieresis" unicode="&#xe4;" horiz-adv-x="514" 
d="M78.5 26q-45.5 39 -45.5 103q0 53 24 86t69 51t117 31q57 10 81.5 16.5t40.5 21.5t16 44q0 41 -28.5 64t-87.5 23q-72 0 -103.5 -26t-35.5 -84h-69q4 74 55 120.5t155 46.5q78 0 127.5 -38.5t49.5 -123.5v-255q0 -32 6 -46t23 -14q8 0 14 1v-47q-22 -4 -34 -4
q-34 0 -51.5 17.5t-20.5 63.5h-2q-26 -44 -71.5 -67t-107.5 -23q-76 0 -121.5 39zM334 83.5q47 39.5 47 107.5v95q-10 -14 -43.5 -24t-86.5 -19q-79 -14 -114.5 -37.5t-35.5 -70.5q0 -91 107 -91q79 0 126 39.5zM232 612h-84v84h84v-84zM381 612h-84v84h84v-84z" />
    <glyph glyph-name="aring" unicode="&#xe5;" horiz-adv-x="514" 
d="M78.5 26q-45.5 39 -45.5 103q0 53 24 86t69 51t117 31q57 10 81.5 16.5t40.5 21.5t16 44q0 41 -28.5 64t-87.5 23q-72 0 -103.5 -26t-35.5 -84h-69q4 74 55 120.5t155 46.5q78 0 127.5 -38.5t49.5 -123.5v-255q0 -32 6 -46t23 -14q8 0 14 1v-47q-22 -4 -34 -4
q-34 0 -51.5 17.5t-20.5 63.5h-2q-26 -44 -71.5 -67t-107.5 -23q-76 0 -121.5 39zM334 83.5q47 39.5 47 107.5v95q-10 -14 -43.5 -24t-86.5 -19q-79 -14 -114.5 -37.5t-35.5 -70.5q0 -91 107 -91q79 0 126 39.5zM201 585q-24 24 -24 61q0 38 24 61.5t62 23.5t62 -23.5
t24 -61.5q0 -37 -24 -61t-62 -24t-62 24zM299 609q14 14 14 37q0 22 -14 36.5t-36 14.5t-35.5 -14.5t-13.5 -36.5q0 -23 13.5 -37t35.5 -14t36 14z" />
    <glyph glyph-name="ae" unicode="&#xe6;" horiz-adv-x="885" 
d="M852 242h-404q1 -54 20.5 -99.5t59 -73t96.5 -27.5q71 0 108.5 36t47.5 78h66q-19 -75 -75.5 -122.5t-147.5 -47.5q-72 0 -125 31t-83 86q-31 -60 -89.5 -88t-125.5 -28q-76 0 -121.5 39t-45.5 103q0 53 24 86t69 51t117 31q57 10 81.5 16.5t40.5 21.5t16 44
q0 41 -28.5 64t-87.5 23q-73 0 -104 -26t-35 -84h-69q4 75 54 121t154 46q59 0 103.5 -22t63.5 -69q32 44 81 67.5t111 23.5q71 0 123 -31.5t79 -87t27 -126.5q0 -28 -1 -36zM784 299q0 46 -19.5 84.5t-56.5 61t-88 22.5q-73 0 -120.5 -48t-51.5 -120h336zM381 227
q-1 9 -1 28t1 28v3q-10 -14 -43.5 -24t-86.5 -19q-78 -14 -114 -37.5t-36 -68.5q0 -93 107 -93q85 0 129 40.5t44 106.5v36z" />
    <glyph glyph-name="ccedilla" unicode="&#xe7;" horiz-adv-x="522" 
d="M386 85q37 42 41 97h68q-5 -78 -59 -132.5t-136 -61.5l-35 -42v-2q14 2 20 2q31 0 52.5 -17t21.5 -48q0 -37 -29 -56t-72 -19q-55 0 -103 30l19 22q37 -16 72 -16q27 0 41 10.5t14 29.5q0 33 -42 33q-26 0 -42 -8l-12 18l51 63q-67 4 -117.5 38.5t-78.5 93.5t-28 135
q0 79 30.5 139.5t86 94t127.5 33.5q61 0 108.5 -25t76 -68.5t34.5 -97.5h-68q-2 32 -18.5 62.5t-49.5 51t-83 20.5q-59 0 -99 -29.5t-58.5 -77.5t-18.5 -103q0 -56 18.5 -104t58.5 -78t99 -30q73 0 110 42z" />
    <glyph glyph-name="egrave" unicode="&#xe8;" horiz-adv-x="537" 
d="M505 242h-404q1 -54 20.5 -99.5t59 -73t96.5 -27.5q70 0 108 36t48 78h66q-20 -76 -76 -123t-147 -47q-76 0 -131 34.5t-83.5 95.5t-28.5 139q0 81 30 141.5t85 93.5t128 33q72 0 124 -31.5t79 -87t27 -126.5q0 -28 -1 -36zM437 299q0 46 -19.5 84.5t-56.5 61t-88 22.5
q-73 0 -120.5 -48t-51.5 -120h336zM295 595h-54l-80 132h79z" />
    <glyph glyph-name="eacute" unicode="&#xe9;" horiz-adv-x="537" 
d="M505 242h-404q1 -54 20.5 -99.5t59 -73t96.5 -27.5q70 0 108 36t48 78h66q-20 -76 -76 -123t-147 -47q-76 0 -131 34.5t-83.5 95.5t-28.5 139q0 81 30 141.5t85 93.5t128 33q72 0 124 -31.5t79 -87t27 -126.5q0 -28 -1 -36zM437 299q0 46 -19.5 84.5t-56.5 61t-88 22.5
q-73 0 -120.5 -48t-51.5 -120h336zM292 595h-54l62 132h78z" />
    <glyph glyph-name="ecircumflex" unicode="&#xea;" horiz-adv-x="537" 
d="M505 242h-404q1 -54 20.5 -99.5t59 -73t96.5 -27.5q70 0 108 36t48 78h66q-20 -76 -76 -123t-147 -47q-76 0 -131 34.5t-83.5 95.5t-28.5 139q0 81 30 141.5t85 93.5t128 33q72 0 124 -31.5t79 -87t27 -126.5q0 -28 -1 -36zM437 299q0 46 -19.5 84.5t-56.5 61t-88 22.5
q-73 0 -120.5 -48t-51.5 -120h336zM212 597h-68l91 130h74l90 -130h-68l-59 93h-1z" />
    <glyph glyph-name="edieresis" unicode="&#xeb;" horiz-adv-x="537" 
d="M505 242h-404q1 -54 20.5 -99.5t59 -73t96.5 -27.5q70 0 108 36t48 78h66q-20 -76 -76 -123t-147 -47q-76 0 -131 34.5t-83.5 95.5t-28.5 139q0 81 30 141.5t85 93.5t128 33q72 0 124 -31.5t79 -87t27 -126.5q0 -28 -1 -36zM437 299q0 46 -19.5 84.5t-56.5 61t-88 22.5
q-73 0 -120.5 -48t-51.5 -120h336zM239 614h-84v84h84v-84zM388 614h-84v84h84v-84z" />
    <glyph glyph-name="igrave" unicode="&#xec;" horiz-adv-x="185" 
d="M125 0h-65v510h65v-510zM116 593h-54l-80 132h79z" />
    <glyph glyph-name="iacute" unicode="&#xed;" horiz-adv-x="185" 
d="M125 0h-65v510h65v-510zM113 593h-54l62 132h78z" />
    <glyph glyph-name="icircumflex" unicode="&#xee;" horiz-adv-x="185" 
d="M125 0h-65v510h65v-510zM33 595h-68l91 130h74l90 -130h-68l-59 93h-1z" />
    <glyph glyph-name="idieresis" unicode="&#xef;" horiz-adv-x="185" 
d="M125 0h-65v510h65v-510zM60 612h-84v84h84v-84zM209 612h-84v84h84v-84z" />
    <glyph glyph-name="eth" unicode="&#xf0;" horiz-adv-x="557" 
d="M391 617q58 -63 94.5 -145t36.5 -185q0 -80 -26.5 -148.5t-82.5 -110.5t-139 -42q-75 0 -129.5 34t-83.5 95.5t-29 140.5t31.5 139.5t86 93.5t122.5 33q51 0 96.5 -25.5t71.5 -68.5q-24 85 -111 173l-164 -44l-11 50l131 35q-49 43 -98 73h89q37 -24 73 -56l142 38
l12 -50zM371.5 72.5q41.5 29.5 63 79t21.5 107.5q0 57 -22.5 105t-64 76t-97.5 28q-55 0 -95 -29t-60 -77t-20 -106t20.5 -106.5t61 -77.5t95.5 -29q56 0 97.5 29.5z" />
    <glyph glyph-name="ntilde" unicode="&#xf1;" horiz-adv-x="525" 
d="M422 480.5q47 -41.5 47 -122.5v-358h-65v344q0 54 -28 87.5t-90 33.5q-47 0 -83.5 -20t-57 -52.5t-20.5 -70.5v-322h-65v510h65v-73h2q25 37 68.5 61t106.5 24q73 0 120 -41.5zM130 601q1 45 21 67.5t51 22.5q19 0 35 -6t42 -18q13 -7 25.5 -12t21.5 -5q25 0 27 39h51
q-1 -45 -21 -67t-51 -22q-19 0 -36 6t-40 18q-13 7 -26 12t-22 5q-25 0 -27 -40h-51z" />
    <glyph glyph-name="ograve" unicode="&#xf2;" horiz-adv-x="554" 
d="M146.5 20q-55.5 34 -85 94.5t-29.5 139.5t29.5 140t85 95t130.5 34t130.5 -34t85 -95t29.5 -140t-29.5 -139.5t-85 -94.5t-130.5 -34t-130.5 34zM408.5 102.5q45.5 59.5 45.5 151.5q0 93 -45.5 152.5t-131.5 59.5t-131.5 -59.5t-45.5 -152.5q0 -92 45.5 -151.5
t131.5 -59.5t131.5 59.5zM301 594h-54l-80 132h79z" />
    <glyph glyph-name="oacute" unicode="&#xf3;" horiz-adv-x="554" 
d="M146.5 20q-55.5 34 -85 94.5t-29.5 139.5t29.5 140t85 95t130.5 34t130.5 -34t85 -95t29.5 -140t-29.5 -139.5t-85 -94.5t-130.5 -34t-130.5 34zM408.5 102.5q45.5 59.5 45.5 151.5q0 93 -45.5 152.5t-131.5 59.5t-131.5 -59.5t-45.5 -152.5q0 -92 45.5 -151.5
t131.5 -59.5t131.5 59.5zM298 594h-54l62 132h78z" />
    <glyph glyph-name="ocircumflex" unicode="&#xf4;" horiz-adv-x="554" 
d="M146.5 20q-55.5 34 -85 94.5t-29.5 139.5t29.5 140t85 95t130.5 34t130.5 -34t85 -95t29.5 -140t-29.5 -139.5t-85 -94.5t-130.5 -34t-130.5 34zM408.5 102.5q45.5 59.5 45.5 151.5q0 93 -45.5 152.5t-131.5 59.5t-131.5 -59.5t-45.5 -152.5q0 -92 45.5 -151.5
t131.5 -59.5t131.5 59.5zM218 596h-68l91 130h74l90 -130h-68l-59 93h-1z" />
    <glyph glyph-name="otilde" unicode="&#xf5;" horiz-adv-x="554" 
d="M146.5 20q-55.5 34 -85 94.5t-29.5 139.5t29.5 140t85 95t130.5 34t130.5 -34t85 -95t29.5 -140t-29.5 -139.5t-85 -94.5t-130.5 -34t-130.5 34zM408.5 102.5q45.5 59.5 45.5 151.5q0 93 -45.5 152.5t-131.5 59.5t-131.5 -59.5t-45.5 -152.5q0 -92 45.5 -151.5
t131.5 -59.5t131.5 59.5zM140 601q1 45 21 67.5t51 22.5q19 0 35 -6t42 -18q13 -7 25.5 -12t21.5 -5q25 0 27 39h51q-1 -45 -21 -67t-51 -22q-19 0 -36 6t-40 18q-13 7 -26 12t-22 5q-25 0 -27 -40h-51z" />
    <glyph glyph-name="odieresis" unicode="&#xf6;" horiz-adv-x="554" 
d="M146.5 20q-55.5 34 -85 94.5t-29.5 139.5t29.5 140t85 95t130.5 34t130.5 -34t85 -95t29.5 -140t-29.5 -139.5t-85 -94.5t-130.5 -34t-130.5 34zM408.5 102.5q45.5 59.5 45.5 151.5q0 93 -45.5 152.5t-131.5 59.5t-131.5 -59.5t-45.5 -152.5q0 -92 45.5 -151.5
t131.5 -59.5t131.5 59.5zM245 613h-84v84h84v-84zM394 613h-84v84h84v-84z" />
    <glyph glyph-name="divide" unicode="&#xf7;" horiz-adv-x="542" 
d="M313 450h-84v84h84v-84zM313 122h-84v84h84v-84zM493 295h-443v64h443v-64z" />
    <glyph glyph-name="oslash" unicode="&#xf8;" horiz-adv-x="565" 
d="M542 489l-62 -63q48 -70 48 -172q0 -79 -29.5 -139.5t-85 -94.5t-130.5 -34q-52 0 -95.5 17t-74.5 48l-60 -61l-30 31l62 63q-47 68 -47 170q0 79 29.5 140t85 95t130.5 34q105 0 169 -64l60 61zM132 133l276 281q-47 52 -125 52q-86 0 -131.5 -59.5t-45.5 -152.5
q0 -69 26 -121zM433 378l-276 -282q47 -53 126 -53q86 0 131.5 59.5t45.5 151.5q0 71 -27 124z" />
    <glyph glyph-name="ugrave" unicode="&#xf9;" horiz-adv-x="525" 
d="M400 510h65v-510h-65v72h-2q-25 -36 -68.5 -60t-106.5 -24q-73 0 -120 41.5t-47 122.5v358h65v-344q0 -54 28 -87.5t90 -33.5q47 0 83.5 20t57 52.5t20.5 70.5v322zM276 593h-54l-80 132h79z" />
    <glyph glyph-name="uacute" unicode="&#xfa;" horiz-adv-x="525" 
d="M400 510h65v-510h-65v72h-2q-25 -36 -68.5 -60t-106.5 -24q-73 0 -120 41.5t-47 122.5v358h65v-344q0 -54 28 -87.5t90 -33.5q47 0 83.5 20t57 52.5t20.5 70.5v322zM273 593h-54l62 132h78z" />
    <glyph glyph-name="ucircumflex" unicode="&#xfb;" horiz-adv-x="525" 
d="M400 510h65v-510h-65v72h-2q-25 -36 -68.5 -60t-106.5 -24q-73 0 -120 41.5t-47 122.5v358h65v-344q0 -54 28 -87.5t90 -33.5q47 0 83.5 20t57 52.5t20.5 70.5v322zM193 595h-68l91 130h74l90 -130h-68l-59 93h-1z" />
    <glyph glyph-name="udieresis" unicode="&#xfc;" horiz-adv-x="525" 
d="M400 510h65v-510h-65v72h-2q-25 -36 -68.5 -60t-106.5 -24q-73 0 -120 41.5t-47 122.5v358h65v-344q0 -54 28 -87.5t90 -33.5q47 0 83.5 20t57 52.5t20.5 70.5v322zM221 612h-84v84h84v-84zM370 612h-84v84h84v-84z" />
    <glyph glyph-name="yacute" unicode="&#xfd;" horiz-adv-x="481" 
d="M56 -175v56q23 -3 39 -3q38 0 66.5 29t48.5 96l-206 507h72l166 -425h2l158 425h70l-204 -525q-36 -93 -73 -128.5t-90 -35.5q-21 0 -49 4zM259 593h-54l62 132h78z" />
    <glyph glyph-name="thorn" unicode="&#xfe;" horiz-adv-x="557" 
d="M413 490.5q51 -32.5 81 -93t30 -142.5q0 -81 -30 -141.5t-81 -93t-114 -32.5t-105 26.5t-67 71.5h-2v-263h-65v892h65v-287h2q26 42 68 68.5t104 26.5q63 0 114 -32.5zM380.5 73q37.5 28 56.5 76t19 106q0 90 -43.5 150.5t-120.5 60.5q-49 0 -87 -26t-59 -74t-21 -111
t21 -110.5t59 -73.5t87 -26q51 0 88.5 28z" />
    <glyph glyph-name="ydieresis" unicode="&#xff;" horiz-adv-x="481" 
d="M56 -175v56q23 -3 39 -3q38 0 66.5 29t48.5 96l-206 507h72l166 -425h2l158 425h70l-204 -525q-36 -93 -73 -128.5t-90 -35.5q-21 0 -49 4zM206 612h-84v84h84v-84zM355 612h-84v84h84v-84z" />
    <glyph glyph-name="Amacron" unicode="&#x100;" horiz-adv-x="635" 
d="M84 0h-75l267 715h82l269 -715h-78l-72 198h-321zM316 646l-136 -383h274l-136 383h-2zM441 822h-249v57h249v-57z" />
    <glyph glyph-name="amacron" unicode="&#x101;" horiz-adv-x="514" 
d="M78.5 26q-45.5 39 -45.5 103q0 53 24 86t69 51t117 31q57 10 81.5 16.5t40.5 21.5t16 44q0 41 -28.5 64t-87.5 23q-72 0 -103.5 -26t-35.5 -84h-69q4 74 55 120.5t155 46.5q78 0 127.5 -38.5t49.5 -123.5v-255q0 -32 6 -46t23 -14q8 0 14 1v-47q-22 -4 -34 -4
q-34 0 -51.5 17.5t-20.5 63.5h-2q-26 -44 -71.5 -67t-107.5 -23q-76 0 -121.5 39zM334 83.5q47 39.5 47 107.5v95q-10 -14 -43.5 -24t-86.5 -19q-79 -14 -114.5 -37.5t-35.5 -70.5q0 -91 107 -91q79 0 126 39.5zM389 617h-249v57h249v-57z" />
    <glyph glyph-name="Abreve" unicode="&#x102;" horiz-adv-x="635" 
d="M84 0h-75l267 715h82l269 -715h-78l-72 198h-321zM316 646l-136 -383h274l-136 383h-2zM228.5 826q-33.5 33 -35.5 94h50q8 -78 74 -78q67 0 73 78h51q-3 -60 -36 -93.5t-88 -33.5t-88.5 33z" />
    <glyph glyph-name="abreve" unicode="&#x103;" horiz-adv-x="514" 
d="M78.5 26q-45.5 39 -45.5 103q0 53 24 86t69 51t117 31q57 10 81.5 16.5t40.5 21.5t16 44q0 41 -28.5 64t-87.5 23q-72 0 -103.5 -26t-35.5 -84h-69q4 74 55 120.5t155 46.5q78 0 127.5 -38.5t49.5 -123.5v-255q0 -32 6 -46t23 -14q8 0 14 1v-47q-22 -4 -34 -4
q-34 0 -51.5 17.5t-20.5 63.5h-2q-26 -44 -71.5 -67t-107.5 -23q-76 0 -121.5 39zM334 83.5q47 39.5 47 107.5v95q-10 -14 -43.5 -24t-86.5 -19q-79 -14 -114.5 -37.5t-35.5 -70.5q0 -91 107 -91q79 0 126 39.5zM175.5 621q-33.5 33 -35.5 94h50q8 -78 74 -78q67 0 73 78h51
q-3 -60 -36 -93.5t-88 -33.5t-88.5 33z" />
    <glyph glyph-name="Aogonek" unicode="&#x104;" horiz-adv-x="635" 
d="M84 0h-75l267 715h82l269 -715h-78l-72 198h-321zM316 646l-136 -383h274l-136 383h-2zM507.5 -155.5q-23.5 20.5 -23.5 53.5q0 32 23.5 59.5t55.5 42.5h51q-72 -51 -72 -89q0 -17 12.5 -27t32.5 -10q27 0 50 10v-50q-28 -10 -62 -10q-44 0 -67.5 20.5z" />
    <glyph glyph-name="aogonek" unicode="&#x105;" horiz-adv-x="514" 
d="M510 -116v-50q-28 -10 -62 -10q-44 0 -67.5 20.5t-23.5 53.5q0 31 22 57.5t53 42.5q-24 5 -36.5 23t-14.5 56h-2q-26 -44 -71.5 -67t-107.5 -23q-76 0 -121.5 39t-45.5 103q0 53 24 86t69 51t117 31q57 10 81.5 16.5t40.5 21.5t16 44q0 41 -28.5 64t-87.5 23
q-72 0 -103.5 -26t-35.5 -84h-69q4 74 55 120.5t155 46.5q78 0 127.5 -38.5t49.5 -123.5v-255q0 -32 6 -46t23 -14q8 0 14 1v-47q-72 -51 -72 -89q0 -17 12.5 -27t32.5 -10q27 0 50 10zM381 286q-10 -14 -43.5 -24t-86.5 -19q-79 -14 -114.5 -37.5t-35.5 -70.5
q0 -91 107 -91q79 0 126 39.5t47 107.5v95z" />
    <glyph glyph-name="Cacute" unicode="&#x106;" horiz-adv-x="697" 
d="M197.5 34q-74.5 47 -116 131.5t-41.5 191.5t41.5 191.5t116 132t171.5 47.5q81 0 144.5 -32t102 -86.5t47.5 -122.5h-76q-13 72 -66 124.5t-153 52.5q-83 0 -139.5 -42t-84.5 -112t-28 -153t28 -152.5t85 -111.5t139 -42q72 0 120 29t73 75t29 99h76q-9 -78 -47.5 -138.5
t-103 -94.5t-147.5 -34q-96 0 -170.5 47zM390 798h-54l62 132h78z" />
    <glyph glyph-name="cacute" unicode="&#x107;" horiz-adv-x="522" 
d="M148.5 20.5q-55.5 33.5 -86 94.5t-30.5 140t30.5 139.5t86 94t127.5 33.5q61 0 108.5 -25t76 -68.5t34.5 -97.5h-68q-2 32 -18.5 62.5t-49.5 51t-83 20.5q-59 0 -99 -29.5t-58.5 -77.5t-18.5 -103q0 -56 18.5 -104t58.5 -78t99 -30q73 0 110 42t41 97h68
q-3 -55 -32 -99.5t-77.5 -70t-109.5 -25.5q-72 0 -127.5 33.5zM297 593h-54l62 132h78z" />
    <glyph glyph-name="Ccircumflex" unicode="&#x108;" horiz-adv-x="697" 
d="M197.5 34q-74.5 47 -116 131.5t-41.5 191.5t41.5 191.5t116 132t171.5 47.5q81 0 144.5 -32t102 -86.5t47.5 -122.5h-76q-13 72 -66 124.5t-153 52.5q-83 0 -139.5 -42t-84.5 -112t-28 -153t28 -152.5t85 -111.5t139 -42q72 0 120 29t73 75t29 99h76q-9 -78 -47.5 -138.5
t-103 -94.5t-147.5 -34q-96 0 -170.5 47zM310 800h-68l91 130h74l90 -130h-68l-59 93h-1z" />
    <glyph glyph-name="ccircumflex" unicode="&#x109;" horiz-adv-x="522" 
d="M148.5 20.5q-55.5 33.5 -86 94.5t-30.5 140t30.5 139.5t86 94t127.5 33.5q61 0 108.5 -25t76 -68.5t34.5 -97.5h-68q-2 32 -18.5 62.5t-49.5 51t-83 20.5q-59 0 -99 -29.5t-58.5 -77.5t-18.5 -103q0 -56 18.5 -104t58.5 -78t99 -30q73 0 110 42t41 97h68
q-3 -55 -32 -99.5t-77.5 -70t-109.5 -25.5q-72 0 -127.5 33.5zM217 595h-68l91 130h74l90 -130h-68l-59 93h-1z" />
    <glyph glyph-name="Cdotaccent" unicode="&#x10a;" horiz-adv-x="697" 
d="M197.5 34q-74.5 47 -116 131.5t-41.5 191.5t41.5 191.5t116 132t171.5 47.5q81 0 144.5 -32t102 -86.5t47.5 -122.5h-76q-13 72 -66 124.5t-153 52.5q-83 0 -139.5 -42t-84.5 -112t-28 -153t28 -152.5t85 -111.5t139 -42q72 0 120 29t73 75t29 99h76q-9 -78 -47.5 -138.5
t-103 -94.5t-147.5 -34q-96 0 -170.5 47zM411 817h-84v84h84v-84z" />
    <glyph glyph-name="cdotaccent" unicode="&#x10b;" horiz-adv-x="522" 
d="M148.5 20.5q-55.5 33.5 -86 94.5t-30.5 140t30.5 139.5t86 94t127.5 33.5q61 0 108.5 -25t76 -68.5t34.5 -97.5h-68q-2 32 -18.5 62.5t-49.5 51t-83 20.5q-59 0 -99 -29.5t-58.5 -77.5t-18.5 -103q0 -56 18.5 -104t58.5 -78t99 -30q73 0 110 42t41 97h68
q-3 -55 -32 -99.5t-77.5 -70t-109.5 -25.5q-72 0 -127.5 33.5zM318 612h-84v84h84v-84z" />
    <glyph glyph-name="Ccaron" unicode="&#x10c;" horiz-adv-x="697" 
d="M197.5 34q-74.5 47 -116 131.5t-41.5 191.5t41.5 191.5t116 132t171.5 47.5q81 0 144.5 -32t102 -86.5t47.5 -122.5h-76q-13 72 -66 124.5t-153 52.5q-83 0 -139.5 -42t-84.5 -112t-28 -153t28 -152.5t85 -111.5t139 -42q72 0 120 29t73 75t29 99h76q-9 -78 -47.5 -138.5
t-103 -94.5t-147.5 -34q-96 0 -170.5 47zM407 799h-74l-91 130h68l59 -93h2l59 93h67z" />
    <glyph glyph-name="ccaron" unicode="&#x10d;" horiz-adv-x="522" 
d="M148.5 20.5q-55.5 33.5 -86 94.5t-30.5 140t30.5 139.5t86 94t127.5 33.5q61 0 108.5 -25t76 -68.5t34.5 -97.5h-68q-2 32 -18.5 62.5t-49.5 51t-83 20.5q-59 0 -99 -29.5t-58.5 -77.5t-18.5 -103q0 -56 18.5 -104t58.5 -78t99 -30q73 0 110 42t41 97h68
q-3 -55 -32 -99.5t-77.5 -70t-109.5 -25.5q-72 0 -127.5 33.5zM314 594h-74l-91 130h68l59 -93h2l59 93h67z" />
    <glyph glyph-name="Dcaron" unicode="&#x10e;" horiz-adv-x="687" 
d="M76 0v715h259q148 0 229.5 -95.5t81.5 -263.5q0 -110 -37 -190t-107.5 -123t-169.5 -43h-256zM332 64q126 0 182 80.5t56 211.5q0 133 -55 214t-181 81h-185v-587h183zM312 799h-74l-91 130h68l59 -93h2l59 93h67z" />
    <glyph glyph-name="dcaron" unicode="&#x10f;" horiz-adv-x="567" 
d="M431 715h65v-715h-65v83h-2q-25 -42 -67.5 -69t-104.5 -27t-113.5 32.5t-81 93t-29.5 142.5q0 81 29.5 141.5t81 93t113.5 32.5q63 0 105 -26.5t67 -71.5h2v291zM351.5 70q37.5 26 58.5 73.5t21 111.5q0 63 -21 110.5t-58.5 73.5t-86.5 26q-51 0 -88.5 -28t-56.5 -76
t-19 -106q0 -90 43.5 -150.5t120.5 -60.5q49 0 86.5 26zM588 527h-51l24 188h77z" />
    <glyph glyph-name="Dcroat" unicode="&#x110;" horiz-adv-x="709" 
d="M357 715q148 0 229.5 -95.5t81.5 -263.5q0 -110 -37 -190t-107.5 -123t-169.5 -43h-256v341h-84v58h84v316h259zM354 64q126 0 182 80.5t56 211.5q0 133 -55 214t-181 81h-185v-252h223v-58h-223v-277h183z" />
    <glyph glyph-name="dcroat" unicode="&#x111;" horiz-adv-x="557" 
d="M568 643v-50h-72v-593h-65v83h-2q-25 -42 -67.5 -69t-104.5 -27t-113.5 32.5t-81 93t-29.5 142.5q0 81 29.5 141.5t81 93t113.5 32.5q63 0 105 -26.5t67 -71.5h2v169h-142v50h142v72h65v-72h72zM351.5 70q37.5 26 58.5 73.5t21 111.5q0 63 -21 110.5t-58.5 73.5t-86.5 26
q-51 0 -88.5 -28t-56.5 -76t-19 -106q0 -90 43.5 -150.5t120.5 -60.5q49 0 86.5 26z" />
    <glyph glyph-name="Emacron" unicode="&#x112;" horiz-adv-x="603" 
d="M572 0h-496v715h485v-64h-412v-246h368v-64h-368v-277h423v-64zM447 822h-249v57h249v-57z" />
    <glyph glyph-name="emacron" unicode="&#x113;" horiz-adv-x="537" 
d="M505 242h-404q1 -54 20.5 -99.5t59 -73t96.5 -27.5q70 0 108 36t48 78h66q-20 -76 -76 -123t-147 -47q-76 0 -131 34.5t-83.5 95.5t-28.5 139q0 81 30 141.5t85 93.5t128 33q72 0 124 -31.5t79 -87t27 -126.5q0 -28 -1 -36zM437 299q0 46 -19.5 84.5t-56.5 61t-88 22.5
q-73 0 -120.5 -48t-51.5 -120h336zM396 618h-249v57h249v-57z" />
    <glyph glyph-name="Edotaccent" unicode="&#x116;" horiz-adv-x="603" 
d="M572 0h-496v715h485v-64h-412v-246h368v-64h-368v-277h423v-64zM364 817h-84v84h84v-84z" />
    <glyph glyph-name="edotaccent" unicode="&#x117;" horiz-adv-x="537" 
d="M505 242h-404q1 -54 20.5 -99.5t59 -73t96.5 -27.5q70 0 108 36t48 78h66q-20 -76 -76 -123t-147 -47q-76 0 -131 34.5t-83.5 95.5t-28.5 139q0 81 30 141.5t85 93.5t128 33q72 0 124 -31.5t79 -87t27 -126.5q0 -28 -1 -36zM437 299q0 46 -19.5 84.5t-56.5 61t-88 22.5
q-73 0 -120.5 -48t-51.5 -120h336zM313 614h-84v84h84v-84z" />
    <glyph glyph-name="Eogonek" unicode="&#x118;" horiz-adv-x="603" 
d="M572 0h-496v715h485v-64h-412v-246h368v-64h-368v-277h423v-64zM453.5 -155.5q-23.5 20.5 -23.5 53.5q0 32 23.5 59.5t55.5 42.5h51q-72 -51 -72 -89q0 -17 12.5 -27t32.5 -10q27 0 50 10v-50q-28 -10 -62 -10q-44 0 -67.5 20.5z" />
    <glyph glyph-name="eogonek" unicode="&#x119;" horiz-adv-x="537" 
d="M505 242h-404q1 -54 20.5 -99.5t59 -73t96.5 -27.5q70 0 108 36t48 78h66q-16 -60 -55 -103t-100 -59q-64 -47 -64 -83q0 -17 12.5 -27t32.5 -10q27 0 50 10v-50q-28 -10 -62 -10q-44 0 -67.5 20.5t-23.5 53.5q0 26 15.5 49t39.5 39h-1q-76 0 -131 34.5t-83.5 95.5
t-28.5 139q0 81 30 141.5t85 93.5t128 33q72 0 124 -31.5t79 -87t27 -126.5q0 -28 -1 -36zM437 299q0 46 -19.5 84.5t-56.5 61t-88 22.5q-73 0 -120.5 -48t-51.5 -120h336z" />
    <glyph glyph-name="Ecaron" unicode="&#x11a;" horiz-adv-x="603" 
d="M572 0h-496v715h485v-64h-412v-246h368v-64h-368v-277h423v-64zM360 799h-74l-91 130h68l59 -93h2l59 93h67z" />
    <glyph glyph-name="ecaron" unicode="&#x11b;" horiz-adv-x="537" 
d="M505 242h-404q1 -54 20.5 -99.5t59 -73t96.5 -27.5q70 0 108 36t48 78h66q-20 -76 -76 -123t-147 -47q-76 0 -131 34.5t-83.5 95.5t-28.5 139q0 81 30 141.5t85 93.5t128 33q72 0 124 -31.5t79 -87t27 -126.5q0 -28 -1 -36zM437 299q0 46 -19.5 84.5t-56.5 61t-88 22.5
q-73 0 -120.5 -48t-51.5 -120h336zM309 595h-74l-91 130h68l59 -93h2l59 93h67z" />
    <glyph glyph-name="Gcircumflex" unicode="&#x11c;" horiz-adv-x="729" 
d="M189 34.5q-73 47.5 -110.5 131t-37.5 191.5q0 106 41 190.5t116.5 132.5t174.5 48q125 0 200 -60t94 -165h-75q-16 77 -74 119t-145 42q-85 0 -142.5 -44t-85.5 -114t-28 -149q0 -81 24.5 -150t79.5 -112.5t143 -43.5q69 0 124 31.5t86.5 88.5t31.5 131h-237v65h310v-367
h-50l-22 127h-2q-75 -140 -241 -140q-102 0 -175 47.5zM309 800h-68l91 130h74l90 -130h-68l-59 93h-1z" />
    <glyph glyph-name="gcircumflex" unicode="&#x11d;" horiz-adv-x="557" 
d="M433 510h65v-478q0 -106 -61 -160.5t-169 -54.5q-100 0 -156.5 43t-62.5 113h68q8 -45 45 -72t107 -27q164 0 164 149v95h-2q-24 -43 -67.5 -68.5t-104.5 -25.5q-63 0 -113.5 28t-80.5 84t-30 138q0 81 30 137t80.5 83.5t113.5 27.5q61 0 104.5 -25.5t67.5 -66.5h2v80z
M387.5 130q45.5 49 45.5 144q0 93 -45.5 142t-119.5 49q-78 0 -121.5 -52t-43.5 -139q0 -89 43.5 -141t121.5 -52q74 0 119.5 49zM209 595h-68l91 130h74l90 -130h-68l-59 93h-1z" />
    <glyph glyph-name="Gbreve" unicode="&#x11e;" horiz-adv-x="729" 
d="M189 34.5q-73 47.5 -110.5 131t-37.5 191.5q0 106 41 190.5t116.5 132.5t174.5 48q125 0 200 -60t94 -165h-75q-16 77 -74 119t-145 42q-85 0 -142.5 -44t-85.5 -114t-28 -149q0 -81 24.5 -150t79.5 -112.5t143 -43.5q69 0 124 31.5t86.5 88.5t31.5 131h-237v65h310v-367
h-50l-22 127h-2q-75 -140 -241 -140q-102 0 -175 47.5zM280.5 826q-33.5 33 -35.5 94h50q8 -78 74 -78q67 0 73 78h51q-3 -60 -36 -93.5t-88 -33.5t-88.5 33z" />
    <glyph glyph-name="gbreve" unicode="&#x11f;" horiz-adv-x="557" 
d="M433 510h65v-478q0 -106 -61 -160.5t-169 -54.5q-100 0 -156.5 43t-62.5 113h68q8 -45 45 -72t107 -27q164 0 164 149v95h-2q-24 -43 -67.5 -68.5t-104.5 -25.5q-63 0 -113.5 28t-80.5 84t-30 138q0 81 30 137t80.5 83.5t113.5 27.5q61 0 104.5 -25.5t67.5 -66.5h2v80z
M387.5 130q45.5 49 45.5 144q0 93 -45.5 142t-119.5 49q-78 0 -121.5 -52t-43.5 -139q0 -89 43.5 -141t121.5 -52q74 0 119.5 49zM180.5 621q-33.5 33 -35.5 94h50q8 -78 74 -78q67 0 73 78h51q-3 -60 -36 -93.5t-88 -33.5t-88.5 33z" />
    <glyph glyph-name="Gdotaccent" unicode="&#x120;" horiz-adv-x="729" 
d="M189 34.5q-73 47.5 -110.5 131t-37.5 191.5q0 106 41 190.5t116.5 132.5t174.5 48q125 0 200 -60t94 -165h-75q-16 77 -74 119t-145 42q-85 0 -142.5 -44t-85.5 -114t-28 -149q0 -81 24.5 -150t79.5 -112.5t143 -43.5q69 0 124 31.5t86.5 88.5t31.5 131h-237v65h310v-367
h-50l-22 127h-2q-75 -140 -241 -140q-102 0 -175 47.5zM411 817h-84v84h84v-84z" />
    <glyph glyph-name="gdotaccent" unicode="&#x121;" horiz-adv-x="557" 
d="M433 510h65v-478q0 -106 -61 -160.5t-169 -54.5q-100 0 -156.5 43t-62.5 113h68q8 -45 45 -72t107 -27q164 0 164 149v95h-2q-24 -43 -67.5 -68.5t-104.5 -25.5q-63 0 -113.5 28t-80.5 84t-30 138q0 81 30 137t80.5 83.5t113.5 27.5q61 0 104.5 -25.5t67.5 -66.5h2v80z
M387.5 130q45.5 49 45.5 144q0 93 -45.5 142t-119.5 49q-78 0 -121.5 -52t-43.5 -139q0 -89 43.5 -141t121.5 -52q74 0 119.5 49zM311 612h-84v84h84v-84z" />
    <glyph glyph-name="uni0122" unicode="&#x122;" horiz-adv-x="729" 
d="M189 34.5q-73 47.5 -110.5 131t-37.5 191.5q0 106 41 190.5t116.5 132.5t174.5 48q125 0 200 -60t94 -165h-75q-16 77 -74 119t-145 42q-85 0 -142.5 -44t-85.5 -114t-28 -149q0 -81 24.5 -150t79.5 -112.5t143 -43.5q69 0 124 31.5t86.5 88.5t31.5 131h-237v65h310v-367
h-50l-22 127h-2q-75 -140 -241 -140q-102 0 -175 47.5zM338 -48h84v-72q0 -40 -18 -65t-66 -38v36q24 7 32.5 21.5t8.5 45.5h-41v72z" />
    <glyph glyph-name="uni0123" unicode="&#x123;" horiz-adv-x="557" 
d="M433 510h65v-478q0 -106 -61 -160.5t-169 -54.5q-100 0 -156.5 43t-62.5 113h68q8 -45 45 -72t107 -27q164 0 164 149v95h-2q-24 -43 -67.5 -68.5t-104.5 -25.5q-63 0 -113.5 28t-80.5 84t-30 138q0 81 30 137t80.5 83.5t113.5 27.5q61 0 104.5 -25.5t67.5 -66.5h2v80z
M387.5 130q45.5 49 45.5 144q0 93 -45.5 142t-119.5 49q-78 0 -121.5 -52t-43.5 -139q0 -89 43.5 -141t121.5 -52q74 0 119.5 49zM311 744q-24 -8 -33 -23.5t-8 -46.5h41v-78h-84v78q0 42 18 69t66 41v-40z" />
    <glyph glyph-name="Hcircumflex" unicode="&#x124;" horiz-adv-x="703" 
d="M149 0h-73v715h73v-309h405v309h72v-715h-72v342h-405v-342zM292 800h-68l91 130h74l90 -130h-68l-59 93h-1z" />
    <glyph glyph-name="hcircumflex" unicode="&#x125;" horiz-adv-x="525" 
d="M422 480.5q47 -41.5 47 -122.5v-358h-65v344q0 54 -28 87.5t-90 33.5q-47 0 -83.5 -20t-57 -52.5t-20.5 -70.5v-322h-65v715h65v-278h2q25 37 68.5 61t106.5 24q73 0 120 -41.5zM33 755h-68l91 130h74l90 -130h-68l-59 93h-1z" />
    <glyph glyph-name="Hbar" unicode="&#x126;" horiz-adv-x="725" 
d="M643 599h62v-58h-62v-541h-73v342h-404v-342h-73v541h-77v58h77v116h73v-116h404v116h73v-116zM166 406h404v135h-404v-135z" />
    <glyph glyph-name="hbar" unicode="&#x127;" horiz-adv-x="525" 
d="M422 480.5q47 -41.5 47 -122.5v-358h-65v344q0 54 -28 87.5t-90 33.5q-47 0 -83.5 -20t-57 -52.5t-20.5 -70.5v-322h-65v593h-63v50h63v72h65v-72h158v-50h-158v-156h2q25 37 68.5 61t106.5 24q73 0 120 -41.5z" />
    <glyph glyph-name="Itilde" unicode="&#x128;" horiz-adv-x="225" 
d="M149 0h-73v715h73v-715zM-25 805q1 45 21 67.5t51 22.5q19 0 35 -6t42 -18q13 -7 25.5 -12t21.5 -5q25 0 27 39h51q-1 -45 -21 -67t-51 -22q-19 0 -36 6t-40 18q-13 7 -26 12t-22 5q-25 0 -27 -40h-51z" />
    <glyph glyph-name="itilde" unicode="&#x129;" horiz-adv-x="185" 
d="M125 0h-65v510h65v-510zM-45 600q1 45 21 67.5t51 22.5q19 0 35 -6t42 -18q13 -7 25.5 -12t21.5 -5q25 0 27 39h51q-1 -45 -21 -67t-51 -22q-19 0 -36 6t-40 18q-13 7 -26 12t-22 5q-25 0 -27 -40h-51z" />
    <glyph glyph-name="Imacron" unicode="&#x12a;" horiz-adv-x="225" 
d="M149 0h-73v715h73v-715zM237 822h-249v57h249v-57z" />
    <glyph glyph-name="imacron" unicode="&#x12b;" horiz-adv-x="185" 
d="M125 0h-65v510h65v-510zM217 617h-249v57h249v-57z" />
    <glyph glyph-name="Iogonek" unicode="&#x12e;" horiz-adv-x="225" 
d="M149 0h-73v715h73v-715zM35.5 -155.5q-23.5 20.5 -23.5 53.5q0 32 23.5 59.5t55.5 42.5h51q-72 -51 -72 -89q0 -17 12.5 -27t32.5 -10q27 0 50 10v-50q-28 -10 -62 -10q-44 0 -67.5 20.5z" />
    <glyph glyph-name="iogonek" unicode="&#x12f;" horiz-adv-x="185" 
d="M125 0h-65v510h65v-510zM134 612h-84v84h84v-84zM11.5 -155.5q-23.5 20.5 -23.5 53.5q0 32 23.5 59.5t55.5 42.5h51q-72 -51 -72 -89q0 -17 12.5 -27t32.5 -10q27 0 50 10v-50q-28 -10 -62 -10q-44 0 -67.5 20.5z" />
    <glyph glyph-name="Idotaccent" unicode="&#x130;" horiz-adv-x="225" 
d="M149 0h-73v715h73v-715zM154 817h-84v84h84v-84z" />
    <glyph glyph-name="dotlessi" unicode="&#x131;" horiz-adv-x="185" 
d="M125 0h-65v510h65v-510z" />
    <glyph glyph-name="Jcircumflex" unicode="&#x134;" horiz-adv-x="496" 
d="M68 49q-48 62 -48 158v23h73v-23q0 -75 28.5 -115.5t99.5 -40.5t100.5 41t29.5 115v508h73v-508q0 -95 -49 -157.5t-154 -62.5t-153 62zM328 800h-68l91 130h74l90 -130h-68l-59 93h-1z" />
    <glyph glyph-name="jcircumflex" unicode="&#x135;" horiz-adv-x="185" 
d="M-24 -176v55q30 -2 38 -2q25 0 35.5 17.5t10.5 61.5v554h65v-559q0 -69 -27.5 -100t-72.5 -31q-22 0 -49 4zM33 595h-68l91 130h74l90 -130h-68l-59 93h-1z" />
    <glyph glyph-name="uni0136" unicode="&#x136;" horiz-adv-x="629" 
d="M641 0h-85l-270 369l-137 -143v-226h-73v715h73v-404l386 404h83l-285 -297zM296 -48h84v-72q0 -40 -18 -65t-66 -38v36q24 7 32.5 21.5t8.5 45.5h-41v72z" />
    <glyph glyph-name="uni0137" unicode="&#x137;" horiz-adv-x="470" 
d="M483 0h-77l-193 282l-88 -82v-200h-65v715h65v-445l253 240h80l-201 -187zM218 -48h84v-72q0 -40 -18 -65t-66 -38v36q24 7 32.5 21.5t8.5 45.5h-41v72z" />
    <glyph glyph-name="kgreenlandic" unicode="&#x138;" horiz-adv-x="476" 
d="M483 0h-77l-186 273l-95 -88v-185h-65v510h65v-253l269 253h81l-212 -196z" />
    <glyph glyph-name="Lacute" unicode="&#x139;" horiz-adv-x="549" 
d="M535 0h-459v715h73v-651h386v-64zM134 798h-54l62 132h78z" />
    <glyph glyph-name="lacute" unicode="&#x13a;" horiz-adv-x="185" 
d="M125 0h-65v715h65v-715zM113 753h-54l62 132h78z" />
    <glyph glyph-name="uni013B" unicode="&#x13b;" horiz-adv-x="549" 
d="M535 0h-459v715h73v-651h386v-64zM264 -48h84v-72q0 -40 -18 -65t-66 -38v36q24 7 32.5 21.5t8.5 45.5h-41v72z" />
    <glyph glyph-name="uni013C" unicode="&#x13c;" horiz-adv-x="185" 
d="M125 0h-65v715h65v-715zM51 -48h84v-72q0 -40 -18 -65t-66 -38v36q24 7 32.5 21.5t8.5 45.5h-41v72z" />
    <glyph glyph-name="Lcaron" unicode="&#x13d;" horiz-adv-x="549" 
d="M535 0h-459v715h73v-651h386v-64zM328 527h-51l24 188h77z" />
    <glyph glyph-name="lcaron" unicode="&#x13e;" horiz-adv-x="196" 
d="M125 0h-65v715h65v-715zM209 527h-51l24 188h77z" />
    <glyph glyph-name="Lslash" unicode="&#x141;" horiz-adv-x="588" 
d="M188 310v-246h385v-64h-458v261l-90 -60v64l90 60v390h73v-341l187 126v-64z" />
    <glyph glyph-name="lslash" unicode="&#x142;" horiz-adv-x="258" 
d="M162 431l74 55v-64l-74 -55v-367h-65v318l-73 -54v64l73 54v333h65v-284z" />
    <glyph glyph-name="Nacute" unicode="&#x143;" horiz-adv-x="703" 
d="M149 0h-73v715h89l387 -612h2v612h73v-715h-89l-387 612h-2v-612zM372 798h-54l62 132h78z" />
    <glyph glyph-name="nacute" unicode="&#x144;" horiz-adv-x="525" 
d="M422 480.5q47 -41.5 47 -122.5v-358h-65v344q0 54 -28 87.5t-90 33.5q-47 0 -83.5 -20t-57 -52.5t-20.5 -70.5v-322h-65v510h65v-73h2q25 37 68.5 61t106.5 24q73 0 120 -41.5zM288 594h-54l62 132h78z" />
    <glyph glyph-name="uni0145" unicode="&#x145;" horiz-adv-x="703" 
d="M149 0h-73v715h89l387 -612h2v612h73v-715h-89l-387 612h-2v-612zM307 -48h84v-72q0 -40 -18 -65t-66 -38v36q24 7 32.5 21.5t8.5 45.5h-41v72z" />
    <glyph glyph-name="uni0146" unicode="&#x146;" horiz-adv-x="525" 
d="M422 480.5q47 -41.5 47 -122.5v-358h-65v344q0 54 -28 87.5t-90 33.5q-47 0 -83.5 -20t-57 -52.5t-20.5 -70.5v-322h-65v510h65v-73h2q25 37 68.5 61t106.5 24q73 0 120 -41.5zM223 -48h84v-72q0 -40 -18 -65t-66 -38v36q24 7 32.5 21.5t8.5 45.5h-41v72z" />
    <glyph glyph-name="Ncaron" unicode="&#x147;" horiz-adv-x="703" 
d="M149 0h-73v715h89l387 -612h2v612h73v-715h-89l-387 612h-2v-612zM389 799h-74l-91 130h68l59 -93h2l59 93h67z" />
    <glyph glyph-name="ncaron" unicode="&#x148;" horiz-adv-x="525" 
d="M422 480.5q47 -41.5 47 -122.5v-358h-65v344q0 54 -28 87.5t-90 33.5q-47 0 -83.5 -20t-57 -52.5t-20.5 -70.5v-322h-65v510h65v-73h2q25 37 68.5 61t106.5 24q73 0 120 -41.5zM305 595h-74l-91 130h68l59 -93h2l59 93h67z" />
    <glyph glyph-name="Eng" unicode="&#x14a;" horiz-adv-x="703" 
d="M391 -171v57q23 -3 43 -3q111 0 112 104l-395 624h-2v-611h-73v715h89l387 -613h2v613h73v-709q0 -95 -48.5 -139.5t-127.5 -44.5q-35 0 -60 7z" />
    <glyph glyph-name="eng" unicode="&#x14b;" horiz-adv-x="525" 
d="M422 480.5q47 -41.5 47 -122.5v-396q0 -69 -28 -97t-80 -28q-27 0 -54 5v57q24 -2 32 -2q35 0 50 15.5t15 51.5v380q0 54 -28 87.5t-90 33.5q-47 0 -83.5 -20t-57 -52.5t-20.5 -70.5v-322h-65v510h65v-73h2q25 37 68.5 61t106.5 24q73 0 120 -41.5z" />
    <glyph glyph-name="Omacron" unicode="&#x14c;" horiz-adv-x="767" 
d="M204 34.5q-78 47.5 -121 132t-43 191.5t43 191t121 131.5t180 47.5q101 0 179 -47.5t121 -131.5t43 -191t-43 -191.5t-121 -132t-179 -47.5q-102 0 -180 47.5zM529.5 91.5q60.5 40.5 91 110.5t30.5 156t-30.5 155.5t-91 110t-145.5 40.5q-86 0 -146.5 -40.5t-91 -110
t-30.5 -155.5t30.5 -156t91 -110.5t146.5 -40.5q85 0 145.5 40.5zM508 822h-249v57h249v-57z" />
    <glyph glyph-name="omacron" unicode="&#x14d;" horiz-adv-x="554" 
d="M146.5 20q-55.5 34 -85 94.5t-29.5 139.5t29.5 140t85 95t130.5 34t130.5 -34t85 -95t29.5 -140t-29.5 -139.5t-85 -94.5t-130.5 -34t-130.5 34zM408.5 102.5q45.5 59.5 45.5 151.5q0 93 -45.5 152.5t-131.5 59.5t-131.5 -59.5t-45.5 -152.5q0 -92 45.5 -151.5
t131.5 -59.5t131.5 59.5zM402 618h-249v57h249v-57z" />
    <glyph glyph-name="Ohungarumlaut" unicode="&#x150;" horiz-adv-x="767" 
d="M204 34.5q-78 47.5 -121 132t-43 191.5t43 191t121 131.5t180 47.5q101 0 179 -47.5t121 -131.5t43 -191t-43 -191.5t-121 -132t-179 -47.5q-102 0 -180 47.5zM529.5 91.5q60.5 40.5 91 110.5t30.5 156t-30.5 155.5t-91 110t-145.5 40.5q-86 0 -146.5 -40.5t-91 -110
t-30.5 -155.5t30.5 -156t91 -110.5t146.5 -40.5q85 0 145.5 40.5zM338 797h-54l62 132h78zM475 797h-54l62 132h79z" />
    <glyph glyph-name="ohungarumlaut" unicode="&#x151;" horiz-adv-x="554" 
d="M146.5 20q-55.5 34 -85 94.5t-29.5 139.5t29.5 140t85 95t130.5 34t130.5 -34t85 -95t29.5 -140t-29.5 -139.5t-85 -94.5t-130.5 -34t-130.5 34zM408.5 102.5q45.5 59.5 45.5 151.5q0 93 -45.5 152.5t-131.5 59.5t-131.5 -59.5t-45.5 -152.5q0 -92 45.5 -151.5
t131.5 -59.5t131.5 59.5zM232 593h-54l62 132h78zM369 593h-54l62 132h79z" />
    <glyph glyph-name="OE" unicode="&#x152;" horiz-adv-x="1098" 
d="M645 64h423v-64h-496v161q-33 -87 -96 -130.5t-146 -43.5t-149 48t-103 132.5t-37 190.5t37 190.5t103 132t149 47.5t146 -43t96 -130v160h485v-64h-412v-246h367v-64h-367v-277zM455.5 86q50.5 35 80 104.5t29.5 167.5t-29.5 167t-80 104t-111.5 35q-74 0 -125.5 -40.5
t-77 -109.5t-25.5 -156t25.5 -156.5t77 -110t125.5 -40.5q61 0 111.5 35z" />
    <glyph glyph-name="oe" unicode="&#x153;" horiz-adv-x="958" 
d="M926 242h-404q1 -54 20.5 -99.5t59 -73t96.5 -27.5q71 0 108.5 36t47.5 78h66q-20 -76 -76 -123t-147 -47q-73 0 -126.5 31.5t-82.5 88.5q-30 -56 -84.5 -87.5t-126.5 -31.5q-75 0 -130.5 33.5t-85 94.5t-29.5 140t29.5 139.5t85 94t130.5 33.5q72 0 126.5 -31.5
t84.5 -87.5q30 57 84.5 88.5t125.5 31.5t123 -31.5t79 -87t27 -126.5q0 -28 -1 -36zM858 299q0 46 -19.5 84.5t-56.5 61t-88 22.5q-73 0 -120.5 -48t-51.5 -120h336zM408.5 103q45.5 59 45.5 152q0 92 -45.5 151t-131.5 59t-131.5 -59t-45.5 -151q0 -93 45.5 -152t131.5 -59
t131.5 59z" />
    <glyph glyph-name="Racute" unicode="&#x154;" horiz-adv-x="640" 
d="M76 0v715h280q114 0 174.5 -52t60.5 -150q0 -70 -36.5 -117.5t-96.5 -62.5v-2q51 -10 77.5 -49t36 -86t13.5 -110q4 -43 7 -60t12 -20v-6h-78q-7 6 -9 21.5t-4 51.5q-3 64 -12 109.5t-40 80t-94 34.5h-218v-297h-73zM338 361q86 0 133 38.5t47 112.5q0 70 -42 104.5
t-133 34.5h-194v-290h189zM331 798h-54l62 132h78z" />
    <glyph glyph-name="racute" unicode="&#x155;" horiz-adv-x="325" 
d="M316 519v-64q-15 3 -31 3q-45 0 -81.5 -22.5t-57.5 -62t-21 -88.5v-285h-65v510h65v-104h2q21 53 57.5 84.5t87.5 31.5q26 0 44 -3zM212 593h-54l62 132h78z" />
    <glyph glyph-name="uni0156" unicode="&#x156;" horiz-adv-x="640" 
d="M76 0v715h280q114 0 174.5 -52t60.5 -150q0 -70 -36.5 -117.5t-96.5 -62.5v-2q51 -10 77.5 -49t36 -86t13.5 -110q4 -43 7 -60t12 -20v-6h-78q-7 6 -9 21.5t-4 51.5q-3 64 -12 109.5t-40 80t-94 34.5h-218v-297h-73zM338 361q86 0 133 38.5t47 112.5q0 70 -42 104.5
t-133 34.5h-194v-290h189zM289 -48h84v-72q0 -40 -18 -65t-66 -38v36q24 7 32.5 21.5t8.5 45.5h-41v72z" />
    <glyph glyph-name="uni0157" unicode="&#x157;" horiz-adv-x="325" 
d="M316 519v-64q-15 3 -31 3q-45 0 -81.5 -22.5t-57.5 -62t-21 -88.5v-285h-65v510h65v-104h2q21 53 57.5 84.5t87.5 31.5q26 0 44 -3zM51 -48h84v-72q0 -40 -18 -65t-66 -38v36q24 7 32.5 21.5t8.5 45.5h-41v72z" />
    <glyph glyph-name="Rcaron" unicode="&#x158;" horiz-adv-x="640" 
d="M76 0v715h280q114 0 174.5 -52t60.5 -150q0 -70 -36.5 -117.5t-96.5 -62.5v-2q51 -10 77.5 -49t36 -86t13.5 -110q4 -43 7 -60t12 -20v-6h-78q-7 6 -9 21.5t-4 51.5q-3 64 -12 109.5t-40 80t-94 34.5h-218v-297h-73zM338 361q86 0 133 38.5t47 112.5q0 70 -42 104.5
t-133 34.5h-194v-290h189zM348 799h-74l-91 130h68l59 -93h2l59 93h67z" />
    <glyph glyph-name="rcaron" unicode="&#x159;" horiz-adv-x="325" 
d="M316 519v-64q-15 3 -31 3q-45 0 -81.5 -22.5t-57.5 -62t-21 -88.5v-285h-65v510h65v-104h2q21 53 57.5 84.5t87.5 31.5q26 0 44 -3zM229 594h-74l-91 130h68l59 -93h2l59 93h67z" />
    <glyph glyph-name="Sacute" unicode="&#x15a;" horiz-adv-x="616" 
d="M117.5 53q-83.5 66 -90.5 184h76q8 -87 63.5 -136.5t163.5 -49.5q94 0 135.5 39t41.5 105q0 50 -23.5 77.5t-66 42.5t-130.5 35q-72 17 -120 37t-79 58t-31 99q0 85 64 134.5t174 49.5q117 0 186.5 -57t77.5 -162h-76q-9 77 -54.5 116t-133.5 39q-78 0 -120 -30.5
t-42 -86.5q0 -45 24 -71.5t61.5 -39.5t104.5 -28q87 -19 141 -40.5t86.5 -62.5t32.5 -110q0 -60 -27.5 -107t-84 -74t-138.5 -27q-132 0 -215.5 66zM322 798h-54l62 132h78z" />
    <glyph glyph-name="sacute" unicode="&#x15b;" horiz-adv-x="472" 
d="M85 37.5q-59 50.5 -61 129.5h68q3 -56 42 -89.5t115 -33.5q68 0 99 26.5t31 68.5q0 31 -16.5 49.5t-41.5 27.5t-66 18q-6 1 -23 5q-64 16 -101 30t-62.5 42t-25.5 74q0 63 48 100t133 37q94 0 145.5 -43.5t58.5 -111.5h-68q-20 98 -135 98q-55 0 -84.5 -20t-29.5 -56
q0 -27 16 -43t40.5 -25t66.5 -18l23 -6q61 -15 100 -30.5t65 -45.5t26 -80q0 -70 -53 -112t-147 -42q-104 0 -163 50.5zM256 593h-54l62 132h78z" />
    <glyph glyph-name="Scircumflex" unicode="&#x15c;" horiz-adv-x="616" 
d="M117.5 53q-83.5 66 -90.5 184h76q8 -87 63.5 -136.5t163.5 -49.5q94 0 135.5 39t41.5 105q0 50 -23.5 77.5t-66 42.5t-130.5 35q-72 17 -120 37t-79 58t-31 99q0 85 64 134.5t174 49.5q117 0 186.5 -57t77.5 -162h-76q-9 77 -54.5 116t-133.5 39q-78 0 -120 -30.5
t-42 -86.5q0 -45 24 -71.5t61.5 -39.5t104.5 -28q87 -19 141 -40.5t86.5 -62.5t32.5 -110q0 -60 -27.5 -107t-84 -74t-138.5 -27q-132 0 -215.5 66zM242 800h-68l91 130h74l90 -130h-68l-59 93h-1z" />
    <glyph glyph-name="scircumflex" unicode="&#x15d;" horiz-adv-x="472" 
d="M85 37.5q-59 50.5 -61 129.5h68q3 -56 42 -89.5t115 -33.5q68 0 99 26.5t31 68.5q0 31 -16.5 49.5t-41.5 27.5t-66 18q-6 1 -23 5q-64 16 -101 30t-62.5 42t-25.5 74q0 63 48 100t133 37q94 0 145.5 -43.5t58.5 -111.5h-68q-20 98 -135 98q-55 0 -84.5 -20t-29.5 -56
q0 -27 16 -43t40.5 -25t66.5 -18l23 -6q61 -15 100 -30.5t65 -45.5t26 -80q0 -70 -53 -112t-147 -42q-104 0 -163 50.5zM176 595h-68l91 130h74l90 -130h-68l-59 93h-1z" />
    <glyph glyph-name="Scedilla" unicode="&#x15e;" horiz-adv-x="616" 
d="M322 -54v-2q14 2 20 2q31 0 52.5 -17t21.5 -48q0 -37 -29 -56t-72 -19q-55 0 -103 30l19 22q37 -16 72 -16q27 0 41 10.5t14 29.5q0 33 -42 33q-26 0 -42 -8l-12 18l51 62q-124 5 -201.5 70.5t-84.5 179.5h76q8 -87 63.5 -136.5t163.5 -49.5q94 0 135.5 39t41.5 105
q0 50 -23.5 77.5t-66 42.5t-130.5 35q-72 17 -120 37t-79 58t-31 99q0 85 64 134.5t174 49.5q117 0 186.5 -57t77.5 -162h-76q-9 77 -54.5 116t-133.5 39q-78 0 -120 -30.5t-42 -86.5q0 -45 24 -71.5t61.5 -39.5t104.5 -28q87 -19 141 -40.5t86.5 -62.5t32.5 -110
q0 -87 -58 -144t-168 -63z" />
    <glyph glyph-name="scedilla" unicode="&#x15f;" horiz-adv-x="472" 
d="M224 -54v-2q14 2 20 2q31 0 52.5 -17t21.5 -48q0 -37 -29 -56t-72 -19q-55 0 -103 30l19 22q37 -16 72 -16q27 0 41 10.5t14 29.5q0 33 -42 33q-26 0 -42 -8l-12 18l52 63q-90 8 -140 57t-52 122h68q3 -56 42 -89.5t115 -33.5q68 0 99 26.5t31 68.5q0 31 -16.5 49.5
t-41.5 27.5t-66 18q-6 1 -23 5q-64 16 -101 30t-62.5 42t-25.5 74q0 63 48 100t133 37q94 0 145.5 -43.5t58.5 -111.5h-68q-20 98 -135 98q-55 0 -84.5 -20t-29.5 -56q0 -27 16 -43t40.5 -25t66.5 -18l23 -6q61 -15 100 -30.5t65 -45.5t26 -80q0 -68 -50.5 -110t-139.5 -44z
" />
    <glyph glyph-name="Scaron" unicode="&#x160;" horiz-adv-x="616" 
d="M117.5 53q-83.5 66 -90.5 184h76q8 -87 63.5 -136.5t163.5 -49.5q94 0 135.5 39t41.5 105q0 50 -23.5 77.5t-66 42.5t-130.5 35q-72 17 -120 37t-79 58t-31 99q0 85 64 134.5t174 49.5q117 0 186.5 -57t77.5 -162h-76q-9 77 -54.5 116t-133.5 39q-78 0 -120 -30.5
t-42 -86.5q0 -45 24 -71.5t61.5 -39.5t104.5 -28q87 -19 141 -40.5t86.5 -62.5t32.5 -110q0 -60 -27.5 -107t-84 -74t-138.5 -27q-132 0 -215.5 66zM339 799h-74l-91 130h68l59 -93h2l59 93h67z" />
    <glyph glyph-name="scaron" unicode="&#x161;" horiz-adv-x="472" 
d="M85 37.5q-59 50.5 -61 129.5h68q3 -56 42 -89.5t115 -33.5q68 0 99 26.5t31 68.5q0 31 -16.5 49.5t-41.5 27.5t-66 18q-6 1 -23 5q-64 16 -101 30t-62.5 42t-25.5 74q0 63 48 100t133 37q94 0 145.5 -43.5t58.5 -111.5h-68q-20 98 -135 98q-55 0 -84.5 -20t-29.5 -56
q0 -27 16 -43t40.5 -25t66.5 -18l23 -6q61 -15 100 -30.5t65 -45.5t26 -80q0 -70 -53 -112t-147 -42q-104 0 -163 50.5zM273 594h-74l-91 130h68l59 -93h2l59 93h67z" />
    <glyph glyph-name="uni0162" unicode="&#x162;" horiz-adv-x="588" 
d="M330 0h-72v651h-243v64h559v-64h-244v-651zM166 -164l19 22q37 -16 72 -16q27 0 41 10.5t14 29.5q0 33 -42 33q-26 0 -42 -8l-12 18l61 75h44l-45 -54v-2q14 2 20 2q31 0 52.5 -17t21.5 -48q0 -37 -29 -56t-72 -19q-55 0 -103 30z" />
    <glyph glyph-name="uni0163" unicode="&#x163;" horiz-adv-x="280" 
d="M172 -43q14 2 20 2q31 0 52.5 -17t21.5 -48q0 -37 -29 -56t-72 -19q-55 0 -103 30l19 22q37 -16 72 -16q27 0 41 10.5t14 29.5q0 33 -42 33q-26 0 -42 -8l-12 18l51 62q-37 9 -56 39.5t-19 92.5v321h-75v57h75v170h65v-170h103v-57h-103v-322q0 -47 13 -62.5t51 -15.5
q9 0 39 2v-55q-27 -4 -48 -4h-5l-31 -37v-2z" />
    <glyph glyph-name="Tcaron" unicode="&#x164;" horiz-adv-x="588" 
d="M330 0h-72v651h-243v64h559v-64h-244v-651zM331 799h-74l-91 130h68l59 -93h2l59 93h67z" />
    <glyph glyph-name="tcaron" unicode="&#x165;" horiz-adv-x="280" 
d="M224 715h77l-50 -151h-50zM153 680v-170h103v-57h-103v-322q0 -47 13 -62.5t51 -15.5q9 0 39 2v-55q-27 -4 -48 -4q-61 0 -90.5 29t-29.5 107v321h-75v57h75v170h65z" />
    <glyph glyph-name="Tbar" unicode="&#x166;" horiz-adv-x="588" 
d="M574 715v-64h-244v-252h182v-58h-182v-341h-72v341h-154v58h154v252h-243v64h559z" />
    <glyph glyph-name="tbar" unicode="&#x167;" horiz-adv-x="288" 
d="M260 453h-104v-107h104v-57h-104v-158q0 -47 13 -62.5t52 -15.5q7 0 39 2v-55q-27 -4 -48 -4q-61 0 -91 29t-30 107v157h-75v57h75v107h-75v57h75v170h65v-170h104v-57z" />
    <glyph glyph-name="Utilde" unicode="&#x168;" horiz-adv-x="680" 
d="M137.5 54.5q-66.5 67.5 -66.5 186.5v474h73v-474q0 -96 48.5 -143t147.5 -47t147.5 47t48.5 143v474h73v-474q0 -119 -66.5 -186.5t-202.5 -67.5t-202.5 67.5zM202 805q1 45 21 67.5t51 22.5q19 0 35 -6t42 -18q13 -7 25.5 -12t21.5 -5q25 0 27 39h51q-1 -45 -21 -67
t-51 -22q-19 0 -36 6t-40 18q-13 7 -26 12t-22 5q-25 0 -27 -40h-51z" />
    <glyph glyph-name="utilde" unicode="&#x169;" horiz-adv-x="525" 
d="M400 510h65v-510h-65v72h-2q-25 -36 -68.5 -60t-106.5 -24q-73 0 -120 41.5t-47 122.5v358h65v-344q0 -54 28 -87.5t90 -33.5q47 0 83.5 20t57 52.5t20.5 70.5v322zM115 600q1 45 21 67.5t51 22.5q19 0 35 -6t42 -18q13 -7 25.5 -12t21.5 -5q25 0 27 39h51
q-1 -45 -21 -67t-51 -22q-19 0 -36 6t-40 18q-13 7 -26 12t-22 5q-25 0 -27 -40h-51z" />
    <glyph glyph-name="Umacron" unicode="&#x16a;" horiz-adv-x="680" 
d="M137.5 54.5q-66.5 67.5 -66.5 186.5v474h73v-474q0 -96 48.5 -143t147.5 -47t147.5 47t48.5 143v474h73v-474q0 -119 -66.5 -186.5t-202.5 -67.5t-202.5 67.5zM465 822h-249v57h249v-57z" />
    <glyph glyph-name="umacron" unicode="&#x16b;" horiz-adv-x="525" 
d="M400 510h65v-510h-65v72h-2q-25 -36 -68.5 -60t-106.5 -24q-73 0 -120 41.5t-47 122.5v358h65v-344q0 -54 28 -87.5t90 -33.5q47 0 83.5 20t57 52.5t20.5 70.5v322zM377 617h-249v57h249v-57z" />
    <glyph glyph-name="Ubreve" unicode="&#x16c;" horiz-adv-x="680" 
d="M137.5 54.5q-66.5 67.5 -66.5 186.5v474h73v-474q0 -96 48.5 -143t147.5 -47t147.5 47t48.5 143v474h73v-474q0 -119 -66.5 -186.5t-202.5 -67.5t-202.5 67.5zM251.5 826q-33.5 33 -35.5 94h50q8 -78 74 -78q67 0 73 78h51q-3 -60 -36 -93.5t-88 -33.5t-88.5 33z" />
    <glyph glyph-name="ubreve" unicode="&#x16d;" horiz-adv-x="525" 
d="M400 510h65v-510h-65v72h-2q-25 -36 -68.5 -60t-106.5 -24q-73 0 -120 41.5t-47 122.5v358h65v-344q0 -54 28 -87.5t90 -33.5q47 0 83.5 20t57 52.5t20.5 70.5v322zM164.5 621q-33.5 33 -35.5 94h50q8 -78 74 -78q67 0 73 78h51q-3 -60 -36 -93.5t-88 -33.5t-88.5 33z
" />
    <glyph glyph-name="Uring" unicode="&#x16e;" horiz-adv-x="680" 
d="M137.5 54.5q-66.5 67.5 -66.5 186.5v474h73v-474q0 -96 48.5 -143t147.5 -47t147.5 47t48.5 143v474h73v-474q0 -119 -66.5 -186.5t-202.5 -67.5t-202.5 67.5zM277 790q-24 24 -24 61q0 38 24 61.5t62 23.5t62 -23.5t24 -61.5q0 -37 -24 -61t-62 -24t-62 24zM375 814
q14 14 14 37q0 22 -14 36.5t-36 14.5t-35.5 -14.5t-13.5 -36.5q0 -23 13.5 -37t35.5 -14t36 14z" />
    <glyph glyph-name="uring" unicode="&#x16f;" horiz-adv-x="525" 
d="M400 510h65v-510h-65v72h-2q-25 -36 -68.5 -60t-106.5 -24q-73 0 -120 41.5t-47 122.5v358h65v-344q0 -54 28 -87.5t90 -33.5q47 0 83.5 20t57 52.5t20.5 70.5v322zM190 585q-24 24 -24 61q0 38 24 61.5t62 23.5t62 -23.5t24 -61.5q0 -37 -24 -61t-62 -24t-62 24z
M288 609q14 14 14 37q0 22 -14 36.5t-36 14.5t-35.5 -14.5t-13.5 -36.5q0 -23 13.5 -37t35.5 -14t36 14z" />
    <glyph glyph-name="Uhungarumlaut" unicode="&#x170;" horiz-adv-x="680" 
d="M137.5 54.5q-66.5 67.5 -66.5 186.5v474h73v-474q0 -96 48.5 -143t147.5 -47t147.5 47t48.5 143v474h73v-474q0 -119 -66.5 -186.5t-202.5 -67.5t-202.5 67.5zM294 797h-54l62 132h78zM431 797h-54l62 132h79z" />
    <glyph glyph-name="uhungarumlaut" unicode="&#x171;" horiz-adv-x="525" 
d="M400 510h65v-510h-65v72h-2q-25 -36 -68.5 -60t-106.5 -24q-73 0 -120 41.5t-47 122.5v358h65v-344q0 -54 28 -87.5t90 -33.5q47 0 83.5 20t57 52.5t20.5 70.5v322zM207 592h-54l62 132h78zM344 592h-54l62 132h79z" />
    <glyph glyph-name="Uogonek" unicode="&#x172;" horiz-adv-x="680" 
d="M536 715h73v-474q0 -96 -44 -159.5t-134 -84.5q-67 -49 -67 -86q0 -17 12.5 -27t32.5 -10q27 0 50 10v-50q-28 -10 -62 -10q-44 0 -67.5 20.5t-23.5 53.5q0 26 16 49.5t41 40.5q-7 -1 -23 -1q-136 0 -202.5 67.5t-66.5 186.5v474h73v-474q0 -96 48.5 -143t147.5 -47
t147.5 47t48.5 143v474z" />
    <glyph glyph-name="uogonek" unicode="&#x173;" horiz-adv-x="525" 
d="M474 -116v-50q-28 -10 -62 -10q-44 0 -67.5 20.5t-23.5 53.5q0 32 23.5 59.5t55.5 42.5v72h-2q-25 -36 -68.5 -60t-106.5 -24q-73 0 -120 41.5t-47 122.5v358h65v-344q0 -54 28 -87.5t90 -33.5q47 0 83.5 20t57 52.5t20.5 70.5v322h65v-510h-14q-72 -51 -72 -89
q0 -17 12.5 -27t32.5 -10q27 0 50 10z" />
    <glyph glyph-name="Wcircumflex" unicode="&#x174;" horiz-adv-x="901" 
d="M277 0h-80l-180 715h77l146 -611h2l168 611h81l168 -611h3l146 611h76l-179 -715h-81l-172 629h-3zM391 800h-68l91 130h74l90 -130h-68l-59 93h-1z" />
    <glyph glyph-name="wcircumflex" unicode="&#x175;" horiz-adv-x="737" 
d="M247 0h-72l-162 510h72l127 -436h2l119 436h73l119 -436h2l128 436h70l-163 -510h-73l-120 431h-2zM309 595h-68l91 130h74l90 -130h-68l-59 93h-1z" />
    <glyph glyph-name="Ycircumflex" unicode="&#x176;" horiz-adv-x="618" 
d="M345 0h-73v293l-261 422h79l218 -365h2l219 365h78l-262 -422v-293zM250 800h-68l91 130h74l90 -130h-68l-59 93h-1z" />
    <glyph glyph-name="ycircumflex" unicode="&#x177;" horiz-adv-x="481" 
d="M56 -175v56q23 -3 39 -3q38 0 66.5 29t48.5 96l-206 507h72l166 -425h2l158 425h70l-204 -525q-36 -93 -73 -128.5t-90 -35.5q-21 0 -49 4zM179 595h-68l91 130h74l90 -130h-68l-59 93h-1z" />
    <glyph glyph-name="Ydieresis" unicode="&#x178;" horiz-adv-x="618" 
d="M345 0h-73v293l-261 422h79l218 -365h2l219 365h78l-262 -422v-293zM277 817h-84v84h84v-84zM426 817h-84v84h84v-84z" />
    <glyph glyph-name="Zacute" unicode="&#x179;" horiz-adv-x="588" 
d="M566 0h-548v64l449 585v2h-429v64h518v-64l-449 -585v-2h459v-64zM316 798h-54l62 132h78z" />
    <glyph glyph-name="zacute" unicode="&#x17a;" horiz-adv-x="441" 
d="M422 0h-404v50l303 401v2h-287v57h377v-41l-309 -410v-2h320v-57zM240 593h-54l62 132h78z" />
    <glyph glyph-name="Zdotaccent" unicode="&#x17b;" horiz-adv-x="588" 
d="M566 0h-548v64l449 585v2h-429v64h518v-64l-449 -585v-2h459v-64zM337 817h-84v84h84v-84z" />
    <glyph glyph-name="zdotaccent" unicode="&#x17c;" horiz-adv-x="441" 
d="M422 0h-404v50l303 401v2h-287v57h377v-41l-309 -410v-2h320v-57zM261 612h-84v84h84v-84z" />
    <glyph glyph-name="Zcaron" unicode="&#x17d;" horiz-adv-x="588" 
d="M566 0h-548v64l449 585v2h-429v64h518v-64l-449 -585v-2h459v-64zM332 799h-74l-91 130h68l59 -93h2l59 93h67z" />
    <glyph glyph-name="zcaron" unicode="&#x17e;" horiz-adv-x="441" 
d="M422 0h-404v50l303 401v2h-287v57h377v-41l-309 -410v-2h320v-57zM257 594h-74l-91 130h68l59 -93h2l59 93h67z" />
    <glyph glyph-name="florin" unicode="&#x192;" horiz-adv-x="454" 
d="M438 717l-12 -55q-36 2 -40 2q-38 0 -53.5 -17t-24.5 -66l-24 -121h102l-2 -57h-111l-72 -365q-16 -79 -47 -108t-85 -29q-23 0 -48 6l-3 55q25 -4 44 -4q26 0 39.5 7t21 23t13.5 49l73 366h-83l2 57h92l25 125q15 78 49 107t94 29q21 0 50 -4z" />
    <glyph glyph-name="uni0218" unicode="&#x218;" horiz-adv-x="616" 
d="M117.5 53q-83.5 66 -90.5 184h76q8 -87 63.5 -136.5t163.5 -49.5q94 0 135.5 39t41.5 105q0 50 -23.5 77.5t-66 42.5t-130.5 35q-72 17 -120 37t-79 58t-31 99q0 85 64 134.5t174 49.5q117 0 186.5 -57t77.5 -162h-76q-9 77 -54.5 116t-133.5 39q-78 0 -120 -30.5
t-42 -86.5q0 -45 24 -71.5t61.5 -39.5t104.5 -28q87 -19 141 -40.5t86.5 -62.5t32.5 -110q0 -60 -27.5 -107t-84 -74t-138.5 -27q-132 0 -215.5 66zM299 -48h84v-72q0 -40 -18 -65t-66 -38v36q24 7 32.5 21.5t8.5 45.5h-41v72z" />
    <glyph glyph-name="uni0219" unicode="&#x219;" horiz-adv-x="472" 
d="M85 37.5q-59 50.5 -61 129.5h68q3 -56 42 -89.5t115 -33.5q68 0 99 26.5t31 68.5q0 31 -16.5 49.5t-41.5 27.5t-66 18q-6 1 -23 5q-64 16 -101 30t-62.5 42t-25.5 74q0 63 48 100t133 37q94 0 145.5 -43.5t58.5 -111.5h-68q-20 98 -135 98q-55 0 -84.5 -20t-29.5 -56
q0 -27 16 -43t40.5 -25t66.5 -18l23 -6q61 -15 100 -30.5t65 -45.5t26 -80q0 -70 -53 -112t-147 -42q-104 0 -163 50.5zM201 -48h84v-72q0 -40 -18 -65t-66 -38v36q24 7 32.5 21.5t8.5 45.5h-41v72z" />
    <glyph glyph-name="uni021A" unicode="&#x21a;" horiz-adv-x="588" 
d="M330 0h-72v651h-243v64h559v-64h-244v-651zM252 -48h84v-72q0 -40 -18 -65t-66 -38v36q24 7 32.5 21.5t8.5 45.5h-41v72z" />
    <glyph glyph-name="uni021B" unicode="&#x21b;" horiz-adv-x="280" 
d="M256 453h-103v-322q0 -47 13 -62.5t51 -15.5q9 0 39 2v-55q-27 -4 -48 -4q-61 0 -90.5 29t-29.5 107v321h-75v57h75v170h65v-170h103v-57zM148 -35h84v-72q0 -40 -18 -65t-66 -38v36q24 7 32.5 21.5t8.5 45.5h-41v72z" />
    <glyph glyph-name="uni0237" unicode="&#x237;" horiz-adv-x="185" 
d="M-24 -176v55q30 -2 38 -2q25 0 35.5 17.5t10.5 61.5v554h65v-559q0 -69 -27.5 -100t-72.5 -31q-22 0 -49 4z" />
    <glyph glyph-name="circumflex" unicode="&#x2c6;" horiz-adv-x="335" 
d="M108 595h-68l91 130h74l90 -130h-68l-59 93h-1z" />
    <glyph glyph-name="caron" unicode="&#x2c7;" horiz-adv-x="335" 
d="M205 595h-74l-91 130h68l59 -93h2l59 93h67z" />
    <glyph glyph-name="breve" unicode="&#x2d8;" horiz-adv-x="328" 
d="M75.5 621q-33.5 33 -35.5 94h50q8 -78 74 -78q67 0 73 78h51q-3 -60 -36 -93.5t-88 -33.5t-88.5 33z" />
    <glyph glyph-name="dotaccent" unicode="&#x2d9;" horiz-adv-x="163" 
d="M123 612h-84v84h84v-84z" />
    <glyph glyph-name="ring" unicode="&#x2da;" horiz-adv-x="251" 
d="M63 578q-24 24 -24 61q0 38 24 61.5t62 23.5t62 -23.5t24 -61.5q0 -37 -24 -61t-62 -24t-62 24zM161 602q14 14 14 37q0 22 -14 36.5t-36 14.5t-35.5 -14.5t-13.5 -36.5q0 -23 13.5 -37t35.5 -14t36 14z" />
    <glyph glyph-name="ogonek" unicode="&#x2db;" horiz-adv-x="233" 
d="M63.5 -155.5q-23.5 20.5 -23.5 53.5q0 32 23.5 59.5t55.5 42.5h51q-72 -51 -72 -89q0 -17 12.5 -27t32.5 -10q27 0 50 10v-50q-28 -10 -62 -10q-44 0 -67.5 20.5z" />
    <glyph glyph-name="tilde" unicode="&#x2dc;" horiz-adv-x="354" 
d="M40 601q1 45 21 67.5t51 22.5q19 0 35 -6t42 -18q13 -7 25.5 -12t21.5 -5q25 0 27 39h51q-1 -45 -21 -67t-51 -22q-19 0 -36 6t-40 18q-13 7 -26 12t-22 5q-25 0 -27 -40h-51z" />
    <glyph glyph-name="hungarumlaut" unicode="&#x2dd;" horiz-adv-x="347" 
d="M88 593h-54l62 132h78zM225 593h-54l62 132h79z" />
    <glyph glyph-name="gravecomb" unicode="&#x300;" 
d="M169 593h-54l-80 132h79z" />
    <glyph glyph-name="acutecomb" unicode="&#x301;" 
d="M88 593h-54l62 132h78z" />
    <glyph glyph-name="uni0302" unicode="&#x302;" 
d="M108 595h-68l91 130h74l90 -130h-68l-59 93h-1z" />
    <glyph glyph-name="tildecomb" unicode="&#x303;" 
d="M40 601q1 45 21 67.5t51 22.5q19 0 35 -6t42 -18q13 -7 25.5 -12t21.5 -5q25 0 27 39h51q-1 -45 -21 -67t-51 -22q-19 0 -36 6t-40 18q-13 7 -26 12t-22 5q-25 0 -27 -40h-51z" />
    <glyph glyph-name="uni0304" unicode="&#x304;" 
d="M289 618h-249v57h249v-57z" />
    <glyph glyph-name="uni0306" unicode="&#x306;" 
d="M75.5 621q-33.5 33 -35.5 94h50q8 -78 74 -78q67 0 73 78h51q-3 -60 -36 -93.5t-88 -33.5t-88.5 33z" />
    <glyph glyph-name="uni0307" unicode="&#x307;" 
d="M123 612h-84v84h84v-84z" />
    <glyph glyph-name="uni0308" unicode="&#x308;" 
d="M125 612h-84v84h84v-84zM274 612h-84v84h84v-84z" />
    <glyph glyph-name="uni030A" unicode="&#x30a;" 
d="M63 585q-24 24 -24 61q0 38 24 61.5t62 23.5t62 -23.5t24 -61.5q0 -37 -24 -61t-62 -24t-62 24zM161 609q14 14 14 37q0 22 -14 36.5t-36 14.5t-35.5 -14.5t-13.5 -36.5q0 -23 13.5 -37t35.5 -14t36 14z" />
    <glyph glyph-name="uni030B" unicode="&#x30b;" 
d="M88 593h-54l62 132h78zM225 593h-54l62 132h79z" />
    <glyph glyph-name="uni030C" unicode="&#x30c;" 
d="M205 595h-74l-91 130h68l59 -93h2l59 93h67z" />
    <glyph glyph-name="uni0312" unicode="&#x312;" 
d="M123 745q-24 -8 -33 -23.5t-8 -46.5h41v-78h-84v78q0 42 18 69t66 41v-40z" />
    <glyph glyph-name="uni0326" unicode="&#x326;" 
d="M40 -48h84v-72q0 -40 -18 -65t-66 -38v36q24 7 32.5 21.5t8.5 45.5h-41v72z" />
    <glyph glyph-name="uni0327" unicode="&#x327;" 
d="M40 -164l19 22q37 -16 72 -16q27 0 41 10.5t14 29.5q0 33 -42 33q-26 0 -42 -8l-12 18l61 75h44l-45 -54v-2q14 2 20 2q31 0 52.5 -17t21.5 -48q0 -37 -29 -56t-72 -19q-55 0 -103 30z" />
    <glyph glyph-name="uni0328" unicode="&#x328;" 
d="M63.5 -155.5q-23.5 20.5 -23.5 53.5q0 32 23.5 59.5t55.5 42.5h51q-72 -51 -72 -89q0 -17 12.5 -27t32.5 -10q27 0 50 10v-50q-28 -10 -62 -10q-44 0 -67.5 20.5z" />
    <glyph glyph-name="uni0335" unicode="&#x335;" 
d="M448 341h-408v58h408v-58z" />
    <glyph glyph-name="uni0336" unicode="&#x336;" 
d="M540 324h-500v72h500v-72z" />
    <glyph glyph-name="uni0337" unicode="&#x337;" 
d="M560 490l-490 -499l-30 31l489 499z" />
    <glyph glyph-name="uni0338" unicode="&#x338;" 
d="M560 490l-490 -499l-30 31l489 499z" />
    <glyph glyph-name="uni0394" unicode="&#x394;" horiz-adv-x="631" 
d="M271 715h88l252 -652v-63h-591v63zM319 646h-7l-217 -582h439z" />
    <glyph glyph-name="uni03A9" unicode="&#x3a9;" horiz-adv-x="784" 
d="M38 0v64h167q-70 48 -111 127.5t-41 179.5t42.5 181.5t120 128.5t176.5 47t176.5 -47t120 -128.5t42.5 -181.5t-40.5 -179.5t-110.5 -127.5h166v-64h-284l1 52q91 49 141.5 120.5t50.5 186.5q0 91 -32 159.5t-91.5 106t-139.5 37.5t-139.5 -37.5t-91.5 -106.5t-32 -159
q0 -115 50.5 -186.5t141.5 -120.5l1 -52h-284z" />
    <glyph glyph-name="uni03BC" unicode="&#x3bc;" horiz-adv-x="529" 
d="M404 510h65v-510h-65v72h-2q-24 -36 -66 -60t-101 -24q-67 0 -110 37v-202h-65v687h65v-344q0 -54 28 -87.5t91 -33.5q46 0 82.5 20t57 52.5t20.5 70.5v322z" />
    <glyph glyph-name="pi" unicode="&#x3c0;" horiz-adv-x="535" 
d="M507 453h-74v-336q0 -38 9.5 -51t36.5 -13q8 0 26 2v-55q-18 -6 -47 -6q-48 0 -69 26t-21 97v336h-210v-453h-65v453h-78v57h492v-57z" />
    <glyph glyph-name="uni0400" unicode="&#x400;" horiz-adv-x="603" 
d="M572 0h-496v715h485v-64h-412v-246h368v-64h-368v-277h423v-64zM346 798h-54l-80 132h79z" />
    <glyph glyph-name="uni0401" unicode="&#x401;" horiz-adv-x="603" 
d="M572 0h-496v715h485v-64h-412v-246h368v-64h-368v-277h423v-64zM290 817h-84v84h84v-84zM439 817h-84v84h84v-84z" />
    <glyph glyph-name="uni0402" unicode="&#x402;" horiz-adv-x="701" 
d="M486 -176v63q24 -6 49 -6q47 0 47 61v321q0 75 -36.5 115t-105.5 40q-82 0 -128.5 -46.5t-46.5 -129.5v-242h-73v651h-176v64h465v-64h-216v-256h2q29 39 76.5 63t110.5 24q94 0 147 -54t53 -154v-343q0 -58 -30 -85.5t-79 -27.5q-36 0 -59 6z" />
    <glyph glyph-name="uni0403" unicode="&#x403;" horiz-adv-x="482" 
d="M149 0h-73v715h391v-64h-318v-651zM290 798h-54l62 132h78z" />
    <glyph glyph-name="uni0404" unicode="&#x404;" horiz-adv-x="685" 
d="M654 227q-5 -70 -41.5 -124.5t-100.5 -85t-148 -30.5q-97 0 -170 44.5t-113 128.5t-40 200q0 113 41 196t114.5 127.5t170.5 44.5q78 0 139 -27t98 -75.5t47 -111.5h-76q-14 68 -67.5 109t-140.5 41q-70 0 -124.5 -33.5t-87 -95.5t-37.5 -146h288v-64h-288
q9 -128 75.5 -201t170.5 -73q92 0 149.5 49.5t64.5 126.5h76z" />
    <glyph glyph-name="uni0405" unicode="&#x405;" horiz-adv-x="616" 
d="M117.5 53q-83.5 66 -90.5 184h76q8 -87 63.5 -136.5t163.5 -49.5q94 0 135.5 39t41.5 105q0 50 -23.5 77.5t-66 42.5t-130.5 35q-72 17 -120 37t-79 58t-31 99q0 85 64 134.5t174 49.5q117 0 186.5 -57t77.5 -162h-76q-9 77 -54.5 116t-133.5 39q-78 0 -120 -30.5
t-42 -86.5q0 -45 24 -71.5t61.5 -39.5t104.5 -28q87 -19 141 -40.5t86.5 -62.5t32.5 -110q0 -60 -27.5 -107t-84 -74t-138.5 -27q-132 0 -215.5 66z" />
    <glyph glyph-name="uni0406" unicode="&#x406;" horiz-adv-x="225" 
d="M149 0h-73v715h73v-715z" />
    <glyph glyph-name="uni0407" unicode="&#x407;" horiz-adv-x="225" 
d="M149 0h-73v715h73v-715zM80 817h-84v84h84v-84zM229 817h-84v84h84v-84z" />
    <glyph glyph-name="uni0408" unicode="&#x408;" horiz-adv-x="496" 
d="M68 49q-48 62 -48 158v23h73v-23q0 -75 28.5 -115.5t99.5 -40.5t100.5 41t29.5 115v508h73v-508q0 -95 -49 -157.5t-154 -62.5t-153 62z" />
    <glyph glyph-name="uni0409" unicode="&#x409;" horiz-adv-x="910" 
d="M29.5 -12q-17.5 3 -28.5 9v63q28 -10 57 -10q41 0 61.5 24.5t22.5 86.5l20 554h358v-277h139q106 0 166.5 -56.5t60.5 -159.5t-63.5 -162.5t-172.5 -59.5h-203v651h-213l-20 -487q-4 -97 -41 -138t-109 -41q-17 0 -34.5 3zM652 64q74 0 116 42.5t42 115.5q0 70 -39.5 111
t-107.5 41h-143v-310h132z" />
    <glyph glyph-name="uni040A" unicode="&#x40a;" horiz-adv-x="940" 
d="M76 0v715h73v-295h329v295h73v-295h139q106 0 166.5 -55t60.5 -152q0 -102 -62.5 -157.5t-173.5 -55.5h-203v356h-329v-356h-73zM683 64q75 0 116.5 38t41.5 111q0 69 -39 106t-108 37h-143v-292h132z" />
    <glyph glyph-name="uni040B" unicode="&#x40b;" horiz-adv-x="699" 
d="M192 0v651h-176v64h465v-64h-216v-276h2q29 39 76.5 63t110.5 24q94 0 147 -54t53 -154v-254h-72v243q0 75 -36.5 115t-105.5 40q-82 0 -128.5 -46.5t-46.5 -129.5v-222h-73z" />
    <glyph glyph-name="uni040C" unicode="&#x40c;" horiz-adv-x="614" 
d="M607 715l-295 -363l313 -352h-92l-281 317h-103v-317h-73v715h73v-335h105l273 335h80zM336 798h-54l62 132h78z" />
    <glyph glyph-name="uni040D" unicode="&#x40d;" horiz-adv-x="723" 
d="M149 0h-73v715h73v-604h2l423 604h72v-715h-72v603h-2zM388 798h-54l-80 132h79z" />
    <glyph glyph-name="uni040E" unicode="&#x40e;" horiz-adv-x="578" 
d="M225 0h-73l96 204l-233 511h78l193 -430h2l203 430h75zM206.5 826q-33.5 33 -35.5 94h50q8 -78 74 -78q67 0 73 78h51q-3 -60 -36 -93.5t-88 -33.5t-88.5 33z" />
    <glyph glyph-name="uni040F" unicode="&#x40f;" horiz-adv-x="673" 
d="M371 -130h-68v129h-227v715h73v-650h375v650h72v-715h-225v-129z" />
    <glyph glyph-name="uni0410" unicode="&#x410;" horiz-adv-x="635" 
d="M84 0h-75l267 715h82l269 -715h-78l-72 198h-321zM316 646l-136 -383h274l-136 383h-2z" />
    <glyph glyph-name="uni0411" unicode="&#x411;" horiz-adv-x="621" 
d="M76 0v715h464v-64h-391v-213h217q107 0 167 -56t60 -158q0 -103 -63 -163.5t-173 -60.5h-281zM360 64q73 0 115 43t42 117q0 69 -39 109.5t-108 40.5h-221v-310h211z" />
    <glyph glyph-name="uni0412" unicode="&#x412;" horiz-adv-x="654" 
d="M76 0v715h285q106 0 166 -48t60 -132q0 -112 -113 -151v-2q63 -12 102.5 -57.5t39.5 -119.5q0 -99 -63.5 -152t-172.5 -53h-304zM375 408q136 0 136 120q0 57 -34.5 90t-101.5 33h-226v-243h226zM383 64q81 0 119 37.5t38 103.5q0 63 -37.5 101t-101.5 38h-252v-280h234z
" />
    <glyph glyph-name="uni0413" unicode="&#x413;" horiz-adv-x="482" 
d="M149 0h-73v715h391v-64h-318v-651z" />
    <glyph glyph-name="uni0414" unicode="&#x414;" horiz-adv-x="669" 
d="M4 -130v193h51q42 0 60 40.5t23 139.5l23 472h404v-652h75v-193h-68v129h-499v-129h-69zM166 63h326v588h-259l-23 -449q-2 -50 -13 -83t-31 -54v-2z" />
    <glyph glyph-name="uni0415" unicode="&#x415;" horiz-adv-x="603" 
d="M572 0h-496v715h485v-64h-412v-246h368v-64h-368v-277h423v-64z" />
    <glyph glyph-name="uni0416" unicode="&#x416;" horiz-adv-x="904" 
d="M891 715l-257 -362l274 -353h-88l-245 317h-87v-317h-72v317h-87l-245 -317h-88l275 353l-257 362h78l237 -335h87v335h72v-335h89l238 335h76z" />
    <glyph glyph-name="uni0417" unicode="&#x417;" horiz-adv-x="577" 
d="M97.5 39.5q-68.5 53.5 -68.5 154.5h76q0 -70 48 -107t133 -37q78 0 126 40t48 107q0 59 -41 95t-109 36h-88v64h84q62 0 98 37.5t36 99.5q0 59 -45 95.5t-116 36.5q-77 0 -121.5 -37.5t-44.5 -99.5h-76q0 60 29.5 105.5t84 70.5t128.5 25q70 0 123.5 -24t83.5 -68.5
t30 -103.5q0 -57 -29 -101t-82 -66v-2q61 -18 96 -60.5t35 -102.5q0 -61 -30.5 -109t-85.5 -75t-127 -27q-127 0 -195.5 53.5z" />
    <glyph glyph-name="uni0418" unicode="&#x418;" horiz-adv-x="723" 
d="M149 0h-73v715h73v-604h2l423 604h72v-715h-72v603h-2z" />
    <glyph glyph-name="uni0419" unicode="&#x419;" horiz-adv-x="723" 
d="M149 0h-73v715h73v-604h2l423 604h72v-715h-72v603h-2zM275.5 826q-33.5 33 -35.5 94h50q8 -78 74 -78q67 0 73 78h51q-3 -60 -36 -93.5t-88 -33.5t-88.5 33z" />
    <glyph glyph-name="uni041A" unicode="&#x41a;" horiz-adv-x="614" 
d="M607 715l-295 -363l313 -352h-92l-281 317h-103v-317h-73v715h73v-335h105l273 335h80z" />
    <glyph glyph-name="uni041B" unicode="&#x41b;" horiz-adv-x="643" 
d="M29.5 -12q-17.5 3 -28.5 9v63q28 -10 57 -10q41 0 61.5 24.5t22.5 86.5l20 554h405v-715h-73v651h-260l-20 -487q-4 -97 -41 -138t-109 -41q-17 0 -34.5 3z" />
    <glyph glyph-name="uni041C" unicode="&#x41c;" horiz-adv-x="839" 
d="M149 0h-73v715h101l241 -617h2l242 617h101v-715h-73v612h-2l-236 -612h-66l-235 612h-2v-612z" />
    <glyph glyph-name="uni041D" unicode="&#x41d;" horiz-adv-x="703" 
d="M149 0h-73v715h73v-309h405v309h72v-715h-72v342h-405v-342z" />
    <glyph glyph-name="uni041E" unicode="&#x41e;" horiz-adv-x="767" 
d="M204 34.5q-78 47.5 -121 132t-43 191.5t43 191t121 131.5t180 47.5q101 0 179 -47.5t121 -131.5t43 -191t-43 -191.5t-121 -132t-179 -47.5q-102 0 -180 47.5zM529.5 91.5q60.5 40.5 91 110.5t30.5 156t-30.5 155.5t-91 110t-145.5 40.5q-86 0 -146.5 -40.5t-91 -110
t-30.5 -155.5t30.5 -156t91 -110.5t146.5 -40.5q85 0 145.5 40.5z" />
    <glyph glyph-name="uni041F" unicode="&#x41f;" horiz-adv-x="683" 
d="M149 0h-73v715h530v-715h-72v651h-385v-651z" />
    <glyph glyph-name="uni0420" unicode="&#x420;" horiz-adv-x="605" 
d="M76 0v715h275q106 0 168.5 -49.5t62.5 -156.5t-62.5 -157t-168.5 -50h-202v-302h-73zM358 366q148 0 148 143q0 142 -148 142h-209v-285h209z" />
    <glyph glyph-name="uni0421" unicode="&#x421;" horiz-adv-x="697" 
d="M197.5 34q-74.5 47 -116 131.5t-41.5 191.5t41.5 191.5t116 132t171.5 47.5q81 0 144.5 -32t102 -86.5t47.5 -122.5h-76q-13 72 -66 124.5t-153 52.5q-83 0 -139.5 -42t-84.5 -112t-28 -153t28 -152.5t85 -111.5t139 -42q72 0 120 29t73 75t29 99h76q-9 -78 -47.5 -138.5
t-103 -94.5t-147.5 -34q-96 0 -170.5 47z" />
    <glyph glyph-name="uni0422" unicode="&#x422;" horiz-adv-x="588" 
d="M330 0h-72v651h-243v64h559v-64h-244v-651z" />
    <glyph glyph-name="uni0423" unicode="&#x423;" horiz-adv-x="578" 
d="M225 0h-73l96 204l-233 511h78l193 -430h2l203 430h75z" />
    <glyph glyph-name="uni0424" unicode="&#x424;" horiz-adv-x="712" 
d="M600 170.5q-77 -69.5 -210 -77.5v-93h-72v93q-132 10 -207.5 79t-75.5 181t76 182t207 80v100h72v-100q133 -8 210 -78t77 -184q0 -113 -77 -182.5zM390 150q100 8 157.5 62.5t57.5 140.5q0 87 -57.5 142t-157.5 63v-408zM163.5 214q56.5 -54 154.5 -63v406
q-98 -9 -154.5 -63.5t-56.5 -140.5q0 -85 56.5 -139z" />
    <glyph glyph-name="uni0425" unicode="&#x425;" horiz-adv-x="573" 
d="M86 0h-87l247 367l-230 348h82l190 -296h1l190 296h81l-231 -349l243 -366h-86l-202 313h-1z" />
    <glyph glyph-name="uni0426" unicode="&#x426;" horiz-adv-x="698" 
d="M666 -130h-69v129h-521v715h73v-650h375v650h72v-650h70v-194z" />
    <glyph glyph-name="uni0427" unicode="&#x427;" horiz-adv-x="584" 
d="M435 0v320h-2q-28 -37 -76 -62t-104 -25q-94 0 -150.5 57.5t-56.5 161.5v263h72v-263q0 -74 39.5 -114.5t109.5 -40.5q59 0 95.5 23t72.5 70v325h73v-715h-73z" />
    <glyph glyph-name="uni0428" unicode="&#x428;" horiz-adv-x="847" 
d="M770 -1h-694v715h73v-650h238v650h73v-650h238v650h72v-715z" />
    <glyph glyph-name="uni0429" unicode="&#x429;" horiz-adv-x="871" 
d="M839 -130h-68v129h-695v715h73v-650h238v650h73v-650h238v650h72v-650h69v-194z" />
    <glyph glyph-name="uni042A" unicode="&#x42a;" horiz-adv-x="654" 
d="M133 0v651h-124v64h197v-277h197q106 0 166.5 -56.5t60.5 -159.5t-63 -162.5t-173 -59.5h-261zM397 64q73 0 115 42.5t42 115.5q0 70 -39.5 111t-107.5 41h-201v-310h191z" />
    <glyph glyph-name="uni042B" unicode="&#x42b;" horiz-adv-x="781" 
d="M76 0v715h73v-277h163q107 0 167 -56.5t60 -159.5t-63 -162.5t-173 -59.5h-227zM705 0h-73v715h73v-715zM306 64q73 0 115 42.5t42 115.5q0 70 -39.5 111t-107.5 41h-167v-310h157z" />
    <glyph glyph-name="uni042C" unicode="&#x42c;" horiz-adv-x="597" 
d="M76 0v715h73v-277h197q107 0 167 -56.5t60 -159.5t-63 -162.5t-173 -59.5h-261zM340 64q73 0 115 42.5t42 115.5q0 70 -39.5 111t-107.5 41h-201v-310h191z" />
    <glyph glyph-name="uni042D" unicode="&#x42d;" horiz-adv-x="684" 
d="M488.5 683.5q73.5 -44.5 114 -127.5t40.5 -196q0 -116 -39.5 -200t-112 -128.5t-168.5 -44.5q-84 0 -148.5 30.5t-102 85t-42.5 124.5h76q5 -50 32.5 -90t75 -63t109.5 -23q104 0 169.5 73t73.5 201h-288v64h288q-5 84 -37.5 146t-87 95.5t-124.5 33.5q-87 0 -140.5 -41
t-67.5 -109h-76q10 63 47.5 111.5t98.5 75.5t139 27q97 0 170.5 -44.5z" />
    <glyph glyph-name="uni042E" unicode="&#x42e;" horiz-adv-x="926" 
d="M743 683q68 -45 104.5 -128.5t36.5 -196.5t-36.5 -196.5t-104.5 -129t-160 -45.5q-88 0 -154 41.5t-103.5 118.5t-42.5 181h-134v-328h-73v715h73v-323h134q5 103 43 178.5t104 116.5t153 41q92 0 160 -45zM702 88.5q51 37.5 78.5 106.5t27.5 163t-27.5 163t-78 106
t-119.5 37t-119.5 -37t-78 -106t-27.5 -163t27.5 -163t78.5 -106.5t119 -37.5t119 37.5z" />
    <glyph glyph-name="uni042F" unicode="&#x42f;" horiz-adv-x="623" 
d="M34 6q7 6 10.5 24.5t7.5 57.5q7 67 17 114.5t38 87.5t80 50v2q-61 16 -97 60t-36 108q0 99 64 152t179 53h250v-715h-73v306h-201q-61 0 -92.5 -35t-41.5 -82t-14 -113q-1 -8 -2.5 -27.5t-3.5 -31t-6 -17.5h-79v6zM474 370v281h-175q-88 0 -129.5 -34.5t-41.5 -103.5
q0 -68 46.5 -105.5t130.5 -37.5h169z" />
    <glyph glyph-name="uni0430" unicode="&#x430;" horiz-adv-x="514" 
d="M78.5 26q-45.5 39 -45.5 103q0 53 24 86t69 51t117 31q57 10 81.5 16.5t40.5 21.5t16 44q0 41 -28.5 64t-87.5 23q-72 0 -103.5 -26t-35.5 -84h-69q4 74 55 120.5t155 46.5q78 0 127.5 -38.5t49.5 -123.5v-255q0 -32 6 -46t23 -14q8 0 14 1v-47q-22 -4 -34 -4
q-34 0 -51.5 17.5t-20.5 63.5h-2q-26 -44 -71.5 -67t-107.5 -23q-76 0 -121.5 39zM334 83.5q47 39.5 47 107.5v95q-10 -14 -43.5 -24t-86.5 -19q-79 -14 -114.5 -37.5t-35.5 -70.5q0 -91 107 -91q79 0 126 39.5z" />
    <glyph glyph-name="uni0431" unicode="&#x431;" horiz-adv-x="537" 
d="M105 64q-62 78 -62 228q0 149 43 241t147 112l100 20q44 8 65 22t21 29h71q0 -42 -30.5 -68t-81.5 -36l-135 -28q-112 -23 -138 -176h2q23 49 72 82t117 33q98 0 153 -71t55 -192q0 -79 -26.5 -141t-77.5 -97.5t-123 -35.5q-110 0 -172 78zM394.5 103.5
q41.5 60.5 41.5 156.5q0 93 -41 149.5t-116 56.5t-117.5 -59t-42.5 -146q0 -98 40.5 -158t117.5 -60q76 0 117.5 60.5z" />
    <glyph glyph-name="uni0432" unicode="&#x432;" horiz-adv-x="477" 
d="M60 0v510h207q75 0 116 -35.5t41 -96.5q0 -39 -25.5 -70t-63.5 -42v-2q49 -8 80 -40.5t31 -80.5q0 -67 -44 -105t-120 -38h-222zM269 286q37 0 62 25.5t25 61.5q0 38 -24.5 59t-68.5 21h-138v-167h144zM276 57q49 0 75.5 23t26.5 64q0 42 -27.5 65.5t-71.5 23.5h-154
v-176h151z" />
    <glyph glyph-name="uni0433" unicode="&#x433;" horiz-adv-x="387" 
d="M125 0h-65v510h315v-57h-250v-453z" />
    <glyph glyph-name="uni0434" unicode="&#x434;" horiz-adv-x="530" 
d="M444 57h62v-187h-56v130h-386v-130h-57v187h34q23 0 38 25t18 63l23 365h324v-453zM131 57h249v396h-200l-19 -304q-3 -61 -30 -90v-2z" />
    <glyph glyph-name="uni0435" unicode="&#x435;" horiz-adv-x="537" 
d="M505 242h-404q1 -54 20.5 -99.5t59 -73t96.5 -27.5q70 0 108 36t48 78h66q-20 -76 -76 -123t-147 -47q-76 0 -131 34.5t-83.5 95.5t-28.5 139q0 81 30 141.5t85 93.5t128 33q72 0 124 -31.5t79 -87t27 -126.5q0 -28 -1 -36zM437 299q0 46 -19.5 84.5t-56.5 61t-88 22.5
q-73 0 -120.5 -48t-51.5 -120h336z" />
    <glyph glyph-name="uni0436" unicode="&#x436;" horiz-adv-x="641" 
d="M83 0h-78l173 254l-174 256h73l155 -230h56v230h65v-230h56l155 230h72l-173 -256l173 -254h-80l-150 223h-53v-223h-65v223h-55z" />
    <glyph glyph-name="uni0437" unicode="&#x437;" horiz-adv-x="447" 
d="M76.5 31q-51.5 44 -51.5 117h65q0 -47 36 -76t98 -29q58 0 90 26.5t32 73.5q0 40 -28.5 63t-74.5 23h-71v57h68q45 0 69.5 24t24.5 66q0 43 -30.5 66.5t-85.5 23.5q-57 0 -89.5 -27.5t-32.5 -71.5h-66q0 70 52 113t136 43q82 0 132 -38.5t50 -105.5q0 -41 -22.5 -72.5
t-60.5 -46.5v-1q43 -11 70.5 -43t27.5 -73q0 -73 -53.5 -114.5t-146.5 -41.5q-87 0 -138.5 44z" />
    <glyph glyph-name="uni0438" unicode="&#x438;" horiz-adv-x="556" 
d="M125 0h-65v510h65v-416l306 416h65v-510h-65v416z" />
    <glyph glyph-name="uni0439" unicode="&#x439;" horiz-adv-x="556" 
d="M125 0h-65v510h65v-416l306 416h65v-510h-65v416zM193.5 621q-33.5 33 -35.5 94h50q8 -78 74 -78q67 0 73 78h51q-3 -60 -36 -93.5t-88 -33.5t-88.5 33z" />
    <glyph glyph-name="uni043A" unicode="&#x43a;" horiz-adv-x="455" 
d="M455 510l-196 -257l202 -253h-83l-177 223h-76v-223h-65v510h65v-230h79l175 230h76z" />
    <glyph glyph-name="uni043B" unicode="&#x43b;" horiz-adv-x="497" 
d="M5 -6v56q20 -7 42 -7t32 15.5t12 52.5l20 399h326v-510h-65v453h-199l-18 -350q-3 -61 -29 -89t-69 -28q-30 0 -52 8z" />
    <glyph glyph-name="uni043C" unicode="&#x43c;" horiz-adv-x="657" 
d="M125 0h-65v510h85l184 -417h2l184 417h82v-510h-65v399h-2l-175 -398h-55l-173 398h-2v-399z" />
    <glyph glyph-name="uni043D" unicode="&#x43d;" horiz-adv-x="539" 
d="M414 288v222h65v-510h-65v231h-289v-231h-65v510h65v-222h289z" />
    <glyph glyph-name="uni043E" unicode="&#x43e;" horiz-adv-x="554" 
d="M146.5 20q-55.5 34 -85 94.5t-29.5 139.5t29.5 140t85 95t130.5 34t130.5 -34t85 -95t29.5 -140t-29.5 -139.5t-85 -94.5t-130.5 -34t-130.5 34zM408.5 102.5q45.5 59.5 45.5 151.5q0 93 -45.5 152.5t-131.5 59.5t-131.5 -59.5t-45.5 -152.5q0 -92 45.5 -151.5
t131.5 -59.5t131.5 59.5z" />
    <glyph glyph-name="uni043F" unicode="&#x43f;" horiz-adv-x="529" 
d="M125 0h-65v510h409v-510h-65v453h-279v-453z" />
    <glyph glyph-name="uni0440" unicode="&#x440;" horiz-adv-x="557" 
d="M413 490.5q51 -32.5 81 -93t30 -142.5q0 -81 -30 -141.5t-81 -93t-114 -32.5t-105 26.5t-67 71.5h-2v-263h-65v687h65v-82h2q26 42 68 68.5t104 26.5q63 0 114 -32.5zM380.5 73q37.5 28 56.5 76t19 106q0 90 -43.5 150.5t-120.5 60.5q-49 0 -87 -26t-59 -74t-21 -111
t21 -110.5t59 -73.5t87 -26q51 0 88.5 28z" />
    <glyph glyph-name="uni0441" unicode="&#x441;" horiz-adv-x="522" 
d="M148.5 20.5q-55.5 33.5 -86 94.5t-30.5 140t30.5 139.5t86 94t127.5 33.5q61 0 108.5 -25t76 -68.5t34.5 -97.5h-68q-2 32 -18.5 62.5t-49.5 51t-83 20.5q-59 0 -99 -29.5t-58.5 -77.5t-18.5 -103q0 -56 18.5 -104t58.5 -78t99 -30q73 0 110 42t41 97h68
q-3 -55 -32 -99.5t-77.5 -70t-109.5 -25.5q-72 0 -127.5 33.5z" />
    <glyph glyph-name="uni0442" unicode="&#x442;" horiz-adv-x="436" 
d="M251 0h-65v453h-174v57h412v-57h-173v-453z" />
    <glyph glyph-name="uni0443" unicode="&#x443;" horiz-adv-x="481" 
d="M56 -175v56q23 -3 39 -3q38 0 66.5 29t48.5 96l-206 507h72l166 -425h2l158 425h70l-204 -525q-36 -93 -73 -128.5t-90 -35.5q-21 0 -49 4z" />
    <glyph glyph-name="uni0444" unicode="&#x444;" horiz-adv-x="628" 
d="M565 120.5q-31 -58.5 -88 -93t-132 -40.5v-164h-65v164q-113 10 -180.5 81.5t-67.5 186.5t67 186t181 81v193h65v-193q114 -10 182.5 -81.5t68.5 -185.5q0 -76 -31 -134.5zM345 45q83 9 132.5 65t49.5 145q0 88 -49.5 144t-132.5 65v-419zM149 111q49 -56 131 -66v419
q-82 -10 -131 -65.5t-49 -143.5t49 -144z" />
    <glyph glyph-name="uni0445" unicode="&#x445;" horiz-adv-x="467" 
d="M72 0h-78l200 261l-184 249h79l144 -203h2l143 203h78l-183 -249l201 -261h-79l-161 217h-2z" />
    <glyph glyph-name="uni0446" unicode="&#x446;" horiz-adv-x="543" 
d="M517 -130h-58v130h-399v510h65v-453h269v453h65v-453h58v-187z" />
    <glyph glyph-name="uni0447" unicode="&#x447;" horiz-adv-x="482" 
d="M357 0v235h-2q-24 -31 -62.5 -53t-86.5 -22q-75 0 -123.5 43.5t-48.5 139.5v167h65v-153q0 -74 31.5 -107t91.5 -33q46 0 79.5 23.5t55.5 57.5v212h65v-510h-65z" />
    <glyph glyph-name="uni0448" unicode="&#x448;" horiz-adv-x="699" 
d="M639 0h-579v510h65v-453h192v453h65v-453h192v453h65v-510z" />
    <glyph glyph-name="uni0449" unicode="&#x449;" horiz-adv-x="723" 
d="M697 -130h-58v130h-579v510h65v-453h192v453h65v-453h192v453h65v-453h58v-187z" />
    <glyph glyph-name="uni044A" unicode="&#x44a;" horiz-adv-x="486" 
d="M106 0v452h-97v58h162v-199h131q77 0 121 -42t44 -114q0 -71 -45 -113t-121 -42h-195zM302 57q45 0 70.5 26t25.5 72q0 47 -25 73t-72 26h-130v-197h131z" />
    <glyph glyph-name="uni044B" unicode="&#x44b;" horiz-adv-x="583" 
d="M60 0v510h65v-199h104q77 0 120.5 -42t43.5 -114q0 -71 -44.5 -113t-120.5 -42h-168zM523 0h-65v510h65v-510zM229 57q44 0 70 26t26 72q0 47 -25 73t-72 26h-103v-197h104z" />
    <glyph glyph-name="uni044C" unicode="&#x44c;" horiz-adv-x="440" 
d="M60 0v510h65v-199h131q77 0 120.5 -42t43.5 -114q0 -71 -44.5 -113t-120.5 -42h-195zM256 57q44 0 70 26t26 72q0 47 -25 73t-72 26h-130v-197h131z" />
    <glyph glyph-name="uni044D" unicode="&#x44d;" horiz-adv-x="505" 
d="M410.5 448.5q61.5 -73.5 61.5 -196.5q0 -76 -27 -136.5t-78.5 -94.5t-120.5 -34q-94 0 -153.5 46.5t-66.5 122.5h68q8 -50 48 -81.5t104 -31.5q70 0 111 48t46 134h-201v57h201q-6 89 -48.5 136t-115.5 47q-60 0 -99 -30.5t-47 -78.5h-68q10 74 68.5 120t145.5 46
q110 0 171.5 -73.5z" />
    <glyph glyph-name="uni044E" unicode="&#x44e;" horiz-adv-x="684" 
d="M594 452q57 -72 57 -197q0 -124 -57 -196.5t-155 -72.5q-91 0 -147.5 64.5t-63.5 176.5h-103v-227h-65v510h65v-227h103q7 113 63 177t148 64q98 0 155 -72zM544 100.5q39 57.5 39 154.5q0 98 -39 155t-105 57t-105 -57t-39 -155q0 -97 39 -154.5t105 -57.5t105 57.5z
" />
    <glyph glyph-name="uni044F" unicode="&#x44f;" horiz-adv-x="469" 
d="M26 4q4 3 6.5 18t4.5 33q7 72 26 120.5t72 59.5v1q-42 10 -68 43t-26 80q0 70 47.5 110.5t136.5 40.5h184v-510h-65v206h-133q-44 0 -66.5 -24.5t-29.5 -57t-10 -77.5q-2 -39 -7 -47h-72v4zM344 263v190h-123q-58 0 -85 -25t-27 -65q0 -43 26 -71.5t79 -28.5h130z" />
    <glyph glyph-name="uni0450" unicode="&#x450;" horiz-adv-x="537" 
d="M505 242h-404q1 -54 20.5 -99.5t59 -73t96.5 -27.5q70 0 108 36t48 78h66q-20 -76 -76 -123t-147 -47q-76 0 -131 34.5t-83.5 95.5t-28.5 139q0 81 30 141.5t85 93.5t128 33q72 0 124 -31.5t79 -87t27 -126.5q0 -28 -1 -36zM437 299q0 46 -19.5 84.5t-56.5 61t-88 22.5
q-73 0 -120.5 -48t-51.5 -120h336zM295 595h-54l-80 132h79z" />
    <glyph glyph-name="uni0451" unicode="&#x451;" horiz-adv-x="537" 
d="M505 242h-404q1 -54 20.5 -99.5t59 -73t96.5 -27.5q70 0 108 36t48 78h66q-20 -76 -76 -123t-147 -47q-76 0 -131 34.5t-83.5 95.5t-28.5 139q0 81 30 141.5t85 93.5t128 33q72 0 124 -31.5t79 -87t27 -126.5q0 -28 -1 -36zM437 299q0 46 -19.5 84.5t-56.5 61t-88 22.5
q-73 0 -120.5 -48t-51.5 -120h336zM239 614h-84v84h84v-84zM388 614h-84v84h84v-84z" />
    <glyph glyph-name="uni0452" unicode="&#x452;" horiz-adv-x="525" 
d="M299 -174v55q32 -4 54 -4q26 0 38.5 17.5t12.5 61.5v388q0 54 -28 87.5t-90 33.5q-47 0 -83.5 -20t-57 -52.5t-20.5 -70.5v-322h-65v593h-63v50h63v72h65v-72h158v-50h-158v-156h2q25 37 68.5 61t106.5 24q73 0 120 -41.5t47 -122.5v-408q0 -69 -29.5 -99.5t-77.5 -30.5
q-27 0 -63 6z" />
    <glyph glyph-name="uni0453" unicode="&#x453;" horiz-adv-x="387" 
d="M125 0h-65v510h315v-57h-250v-453zM238 593h-54l62 132h78z" />
    <glyph glyph-name="uni0454" unicode="&#x454;" horiz-adv-x="504" 
d="M365.5 74q37.5 31 44.5 82h69q-8 -77 -65.5 -123t-147.5 -46q-72 0 -125 34.5t-81 95t-28 136.5q0 79 29 140t83.5 95t126.5 34q88 0 143 -45.5t65 -120.5h-68q-8 49 -44 79t-96 30q-75 0 -119 -48t-51 -135h201v-57h-201q6 -85 49 -133.5t116 -48.5q62 0 99.5 31z" />
    <glyph glyph-name="uni0455" unicode="&#x455;" horiz-adv-x="472" 
d="M85 37.5q-59 50.5 -61 129.5h68q3 -56 42 -89.5t115 -33.5q68 0 99 26.5t31 68.5q0 31 -16.5 49.5t-41.5 27.5t-66 18q-6 1 -23 5q-64 16 -101 30t-62.5 42t-25.5 74q0 63 48 100t133 37q94 0 145.5 -43.5t58.5 -111.5h-68q-20 98 -135 98q-55 0 -84.5 -20t-29.5 -56
q0 -27 16 -43t40.5 -25t66.5 -18l23 -6q61 -15 100 -30.5t65 -45.5t26 -80q0 -70 -53 -112t-147 -42q-104 0 -163 50.5z" />
    <glyph glyph-name="uni0456" unicode="&#x456;" horiz-adv-x="185" 
d="M125 0h-65v510h65v-510zM134 612h-84v84h84v-84z" />
    <glyph glyph-name="uni0457" unicode="&#x457;" horiz-adv-x="185" 
d="M81 612h-84v84h84v-84zM189 612h-84v84h84v-84zM125 0h-65v510h65v-510z" />
    <glyph glyph-name="uni0458" unicode="&#x458;" horiz-adv-x="185" 
d="M-24 -176v55q30 -2 38 -2q25 0 35.5 17.5t10.5 61.5v554h65v-559q0 -69 -27.5 -100t-72.5 -31q-22 0 -49 4zM134 612h-84v84h84v-84z" />
    <glyph glyph-name="uni0459" unicode="&#x459;" horiz-adv-x="683" 
d="M5 -6v56q20 -7 42 -7t32 15.5t12 52.5l20 399h284v-199h104q77 0 120.5 -42t43.5 -114q0 -71 -44.5 -113t-120.5 -42h-168v453h-157l-18 -350q-3 -61 -29 -89t-69 -28q-30 0 -52 8zM499 57q44 0 70 26t26 72q0 47 -25 73t-72 26h-103v-197h104z" />
    <glyph glyph-name="uni045A" unicode="&#x45a;" horiz-adv-x="696" 
d="M512 301q77 0 120.5 -40t43.5 -111q0 -70 -44.5 -110t-120.5 -40h-168v244h-218v-244h-65v510h65v-209h218v209h65v-209h104zM512 57q45 0 70.5 24.5t25.5 68.5q0 46 -24.5 70t-72.5 24h-103v-187h104z" />
    <glyph glyph-name="uni045B" unicode="&#x45b;" horiz-adv-x="525" 
d="M422 480.5q47 -41.5 47 -122.5v-358h-65v344q0 54 -28 87.5t-90 33.5q-47 0 -83.5 -20t-57 -52.5t-20.5 -70.5v-322h-65v593h-63v50h63v72h65v-72h158v-50h-158v-156h2q25 37 68.5 61t106.5 24q73 0 120 -41.5z" />
    <glyph glyph-name="uni045C" unicode="&#x45c;" horiz-adv-x="455" 
d="M455 510l-196 -257l202 -253h-83l-177 223h-76v-223h-65v510h65v-230h79l175 230h76zM264 593h-54l62 132h78z" />
    <glyph glyph-name="uni045D" unicode="&#x45d;" horiz-adv-x="556" 
d="M125 0h-65v510h65v-416l306 416h65v-510h-65v416zM305 593h-54l-80 132h79z" />
    <glyph glyph-name="uni045E" unicode="&#x45e;" horiz-adv-x="481" 
d="M56 -175v56q23 -3 39 -3q38 0 66.5 29t48.5 96l-206 507h72l166 -425h2l158 425h70l-204 -525q-36 -93 -73 -128.5t-90 -35.5q-21 0 -49 4zM149.5 621q-33.5 33 -35.5 94h50q8 -78 74 -78q67 0 73 78h51q-3 -60 -36 -93.5t-88 -33.5t-88.5 33z" />
    <glyph glyph-name="uni045F" unicode="&#x45f;" horiz-adv-x="519" 
d="M290 -130h-58v130h-172v510h65v-453h269v453h65v-510h-169v-130z" />
    <glyph glyph-name="uni0490" unicode="&#x490;" horiz-adv-x="482" 
d="M149 0h-73v715h323v99h68v-163h-318v-651z" />
    <glyph glyph-name="uni0491" unicode="&#x491;" horiz-adv-x="387" 
d="M125 0h-65v510h258v110h57v-167h-250v-453z" />
    <glyph glyph-name="uni0492" unicode="&#x492;" horiz-adv-x="529" 
d="M512 715v-64h-318v-273h215v-57h-215v-321h-73v321h-118v57h118v337h391z" />
    <glyph glyph-name="uni0493" unicode="&#x493;" horiz-adv-x="414" 
d="M402 510v-57h-250v-170h170v-49h-170v-234h-65v234h-84v49h84v227h315z" />
    <glyph glyph-name="uni0496" unicode="&#x496;" horiz-adv-x="904" 
d="M634 353l237 -306h49v-177h-69v130h-31l-245 317h-87v-317h-72v317h-87l-245 -317h-88l275 353l-257 362h78l237 -335h87v335h72v-335h89l238 335h76z" />
    <glyph glyph-name="uni0497" unicode="&#x497;" horiz-adv-x="641" 
d="M463 254l138 -203h46v-181h-57v130h-34l-150 223h-53v-223h-65v223h-55l-150 -223h-78l173 254l-174 256h73l155 -230h56v230h65v-230h56l155 230h72z" />
    <glyph glyph-name="uni049A" unicode="&#x49a;" horiz-adv-x="614" 
d="M312 352l271 -305h53v-177h-69v130h-34l-281 317h-103v-317h-73v715h73v-335h105l273 335h80z" />
    <glyph glyph-name="uni049B" unicode="&#x49b;" horiz-adv-x="455" 
d="M259 253l161 -202h44v-181h-57v130h-29l-177 223h-76v-223h-65v510h65v-230h79l175 230h76z" />
    <glyph glyph-name="uni04A2" unicode="&#x4a2;" horiz-adv-x="703" 
d="M626 715v-668h33v-177h-69v130h-36v342h-405v-342h-73v715h73v-309h405v309h72z" />
    <glyph glyph-name="uni04A3" unicode="&#x4a3;" horiz-adv-x="539" 
d="M479 510v-459h29v-181h-57v130h-37v231h-289v-231h-65v510h65v-222h289v222h65z" />
    <glyph glyph-name="uni04AE" unicode="&#x4ae;" horiz-adv-x="618" 
d="M345 0h-73v293l-261 422h79l218 -365h2l219 365h78l-262 -422v-293z" />
    <glyph glyph-name="uni04AF" unicode="&#x4af;" horiz-adv-x="478" 
d="M275 -177h-65v214l-207 473h73l167 -392h2l157 392h70l-197 -473v-214z" />
    <glyph glyph-name="uni04B0" unicode="&#x4b0;" horiz-adv-x="614" 
d="M606 715l-263 -422v-38h165v-57h-165v-198h-72v198h-169v57h169v38l-261 422h79l217 -365h3l218 365h79z" />
    <glyph glyph-name="uni04B1" unicode="&#x4b1;" horiz-adv-x="478" 
d="M472 510l-197 -473v-56h133v-49h-133v-109h-65v109h-133v49h133v56l-207 473h73l167 -392h2l157 392h70z" />
    <glyph glyph-name="uni04B2" unicode="&#x4b2;" horiz-adv-x="573" 
d="M329 366l212 -319h46v-177h-69v130h-32l-202 313h-1l-197 -313h-87l247 367l-230 348h82l190 -296h1l190 296h81z" />
    <glyph glyph-name="uni04B3" unicode="&#x4b3;" horiz-adv-x="467" 
d="M273 261l162 -210h45v-181h-57v130h-28l-161 217h-2l-160 -217h-78l200 261l-184 249h79l144 -203h2l143 203h78z" />
    <glyph glyph-name="uni04B6" unicode="&#x4b6;" horiz-adv-x="584" 
d="M508 47h39v-177h-69v130h-43v320h-2q-28 -37 -76 -62t-104 -25q-94 0 -150.5 57.5t-56.5 161.5v263h72v-263q0 -74 39.5 -114.5t109.5 -40.5q59 0 95.5 23t72.5 70v325h73v-668z" />
    <glyph glyph-name="uni04B7" unicode="&#x4b7;" horiz-adv-x="482" 
d="M422 51h21v-181h-57v130h-29v235h-2q-24 -31 -62.5 -53t-86.5 -22q-75 0 -123.5 43.5t-48.5 139.5v167h65v-153q0 -74 31.5 -107t91.5 -33q46 0 79.5 23.5t55.5 57.5v212h65v-459z" />
    <glyph glyph-name="uni04BA" unicode="&#x4ba;" horiz-adv-x="595" 
d="M76 0v716h73v-311h2q29 39 76.5 63t110.5 24q100 0 155 -53.5t55 -154.5v-284h-72v273q0 75 -38 115t-114 40q-82 0 -128.5 -46.5t-46.5 -129.5v-252h-73z" />
    <glyph glyph-name="uni04BB" unicode="&#x4bb;" horiz-adv-x="525" 
d="M422 480.5q47 -41.5 47 -122.5v-358h-65v344q0 54 -28 87.5t-90 33.5q-47 0 -83.5 -20t-57 -52.5t-20.5 -70.5v-322h-65v715h65v-278h2q25 37 68.5 61t106.5 24q73 0 120 -41.5z" />
    <glyph glyph-name="uni04D8" unicode="&#x4d8;" horiz-adv-x="720" 
d="M528 680q72 -48 112 -132t40 -189q0 -109 -40.5 -194t-114 -132t-167.5 -47t-166.5 43.5t-112.5 121t-40 175.5q0 34 2 50h563q-3 86 -35 151.5t-87.5 101t-125.5 35.5q-59 0 -107 -20.5t-78.5 -56.5t-38.5 -81h-76q11 65 54.5 115.5t110 78.5t143.5 28q92 0 164 -48z
M527.5 121.5q63.5 71.5 74.5 190.5h-486q0 -77 29.5 -136.5t85 -92.5t131.5 -33q102 0 165.5 71.5z" />
    <glyph glyph-name="uni04D9" unicode="&#x4d9;" horiz-adv-x="522" 
d="M383.5 488.5q51.5 -33.5 79 -94t27.5 -139.5q0 -80 -27.5 -140.5t-79 -94t-122.5 -33.5q-69 0 -121 32t-80 89t-28 130q0 16 3 41h385q-5 89 -48 137.5t-111 48.5q-62 0 -102.5 -27t-51.5 -74h-68q14 72 74.5 115t147.5 43q71 0 122.5 -33.5zM372 88.5q41 45.5 48 133.5
h-320q0 -77 42 -128t119 -51q70 0 111 45.5z" />
    <glyph glyph-name="uni04E2" unicode="&#x4e2;" horiz-adv-x="723" 
d="M149 0h-73v715h73v-604h2l423 604h72v-715h-72v603h-2zM489 822h-249v57h249v-57z" />
    <glyph glyph-name="uni04E3" unicode="&#x4e3;" horiz-adv-x="556" 
d="M125 0h-65v510h65v-416l306 416h65v-510h-65v416zM406 617h-249v57h249v-57z" />
    <glyph glyph-name="uni04E8" unicode="&#x4e8;" horiz-adv-x="767" 
d="M563 680.5q78 -47.5 121 -131.5t43 -191t-43 -191.5t-121 -132t-179 -47.5q-102 0 -180 47.5t-121 132t-43 191.5t43 191t121 131.5t180 47.5q101 0 179 -47.5zM245.5 628.5q-58.5 -35.5 -90.5 -97.5t-38 -141h533q-6 79 -38 141t-90 97.5t-138 35.5t-138.5 -35.5z
M522 87q58 36 90 98t38 141h-533q6 -79 38 -141t90.5 -98t138.5 -36t138 36z" />
    <glyph glyph-name="uni04E9" unicode="&#x4e9;" horiz-adv-x="554" 
d="M407.5 489q55.5 -34 85 -95t29.5 -140t-29.5 -139.5t-85 -94.5t-130.5 -34t-130.5 34t-85 94.5t-29.5 139.5t29.5 140t85 95t130.5 34t130.5 -34zM153 415.5q-45 -50.5 -52 -132.5h352q-7 82 -52 132.5t-124 50.5t-124 -50.5zM401 93.5q45 50.5 52 132.5h-352
q7 -82 52 -132.5t124 -50.5t124 50.5z" />
    <glyph glyph-name="uni04EE" unicode="&#x4ee;" horiz-adv-x="578" 
d="M225 0h-73l96 204l-233 511h78l193 -430h2l203 430h75zM420 822h-249v57h249v-57z" />
    <glyph glyph-name="uni04EF" unicode="&#x4ef;" horiz-adv-x="481" 
d="M56 -175v56q23 -3 39 -3q38 0 66.5 29t48.5 96l-206 507h72l166 -425h2l158 425h70l-204 -525q-36 -93 -73 -128.5t-90 -35.5q-21 0 -49 4zM363 617h-249v57h249v-57z" />
    <glyph glyph-name="uni139A" unicode="&#x139a;" horiz-adv-x="659" 
 />
    <glyph glyph-name="Wgrave" unicode="&#x1e80;" horiz-adv-x="901" 
d="M277 0h-80l-180 715h77l146 -611h2l168 611h81l168 -611h3l146 611h76l-179 -715h-81l-172 629h-3zM474 798h-54l-80 132h79z" />
    <glyph glyph-name="wgrave" unicode="&#x1e81;" horiz-adv-x="737" 
d="M247 0h-72l-162 510h72l127 -436h2l119 436h73l119 -436h2l128 436h70l-163 -510h-73l-120 431h-2zM392 593h-54l-80 132h79z" />
    <glyph glyph-name="Wacute" unicode="&#x1e82;" horiz-adv-x="901" 
d="M277 0h-80l-180 715h77l146 -611h2l168 611h81l168 -611h3l146 611h76l-179 -715h-81l-172 629h-3zM471 798h-54l62 132h78z" />
    <glyph glyph-name="wacute" unicode="&#x1e83;" horiz-adv-x="737" 
d="M247 0h-72l-162 510h72l127 -436h2l119 436h73l119 -436h2l128 436h70l-163 -510h-73l-120 431h-2zM389 593h-54l62 132h78z" />
    <glyph glyph-name="Wdieresis" unicode="&#x1e84;" horiz-adv-x="901" 
d="M277 0h-80l-180 715h77l146 -611h2l168 611h81l168 -611h3l146 611h76l-179 -715h-81l-172 629h-3zM418 817h-84v84h84v-84zM567 817h-84v84h84v-84z" />
    <glyph glyph-name="wdieresis" unicode="&#x1e85;" horiz-adv-x="737" 
d="M247 0h-72l-162 510h72l127 -436h2l119 436h73l119 -436h2l128 436h70l-163 -510h-73l-120 431h-2zM337 612h-84v84h84v-84zM486 612h-84v84h84v-84z" />
    <glyph glyph-name="Ygrave" unicode="&#x1ef2;" horiz-adv-x="618" 
d="M345 0h-73v293l-261 422h79l218 -365h2l219 365h78l-262 -422v-293zM333 798h-54l-80 132h79z" />
    <glyph glyph-name="ygrave" unicode="&#x1ef3;" horiz-adv-x="481" 
d="M56 -175v56q23 -3 39 -3q38 0 66.5 29t48.5 96l-206 507h72l166 -425h2l158 425h70l-204 -525q-36 -93 -73 -128.5t-90 -35.5q-21 0 -49 4zM262 593h-54l-80 132h79z" />
    <glyph glyph-name="uni2000" unicode="&#x2000;" horiz-adv-x="500" 
 />
    <glyph glyph-name="uni2001" unicode="&#x2001;" horiz-adv-x="1000" 
 />
    <glyph glyph-name="uni2002" unicode="&#x2002;" horiz-adv-x="500" 
 />
    <glyph glyph-name="uni2003" unicode="&#x2003;" horiz-adv-x="1000" 
 />
    <glyph glyph-name="uni2004" unicode="&#x2004;" horiz-adv-x="333" 
 />
    <glyph glyph-name="uni2005" unicode="&#x2005;" horiz-adv-x="250" 
 />
    <glyph glyph-name="uni2006" unicode="&#x2006;" horiz-adv-x="167" 
 />
    <glyph glyph-name="uni2007" unicode="&#x2007;" horiz-adv-x="670" 
 />
    <glyph glyph-name="uni2008" unicode="&#x2008;" horiz-adv-x="183" 
 />
    <glyph glyph-name="uni2009" unicode="&#x2009;" horiz-adv-x="125" 
 />
    <glyph glyph-name="uni200A" unicode="&#x200a;" horiz-adv-x="42" 
 />
    <glyph glyph-name="uni200B" unicode="&#x200b;" 
 />
    <glyph glyph-name="endash" unicode="&#x2013;" horiz-adv-x="583" 
d="M541 223h-500v64h500v-64z" />
    <glyph glyph-name="emdash" unicode="&#x2014;" horiz-adv-x="1081" 
d="M1041 222h-1000v65h1000v-65z" />
    <glyph glyph-name="quoteleft" unicode="&#x2018;" horiz-adv-x="177" 
d="M129 672q-24 -8 -33 -25t-8 -53h41v-84h-84v84q0 47 18 76.5t66 44.5v-43z" />
    <glyph glyph-name="quoteright" unicode="&#x2019;" horiz-adv-x="170" 
d="M49 553q24 9 33 25.5t8 52.5h-41v84h84v-84q0 -47 -18 -76.5t-66 -44.5v43z" />
    <glyph glyph-name="quotesinglbase" unicode="&#x201a;" horiz-adv-x="182" 
d="M49 -78q24 9 33 25.5t8 52.5h-41v84h84v-84q0 -47 -18 -76.5t-66 -44.5v43z" />
    <glyph glyph-name="quotedblleft" unicode="&#x201c;" horiz-adv-x="311" 
d="M45 594q0 47 18 76.5t66 44.5v-43q-24 -8 -33 -25t-8 -53h41v-84h-84v84zM263 594v-84h-84v84q0 47 17.5 76.5t65.5 44.5v-43q-24 -8 -32.5 -25t-8.5 -53h42z" />
    <glyph glyph-name="quotedblright" unicode="&#x201d;" horiz-adv-x="303" 
d="M49 553q24 9 33 25.5t8 52.5h-41v84h84v-84q0 -47 -18 -76.5t-66 -44.5v43zM182 553q24 9 33 25.5t8 52.5h-41v84h84v-84q0 -47 -18 -76.5t-66 -44.5v43z" />
    <glyph glyph-name="quotedblbase" unicode="&#x201e;" horiz-adv-x="317" 
d="M183 -78q24 9 33 25.5t8 52.5h-41v84h84v-84q0 -47 -18 -76.5t-66 -44.5v43zM49 -78q24 9 33 25.5t8 52.5h-41v84h84v-84q0 -47 -18 -76.5t-66 -44.5v43z" />
    <glyph glyph-name="dagger" unicode="&#x2020;" horiz-adv-x="467" 
d="M270 -177h-72v617h-185v64h185v211h72v-211h184v-64h-184v-617z" />
    <glyph glyph-name="daggerdbl" unicode="&#x2021;" horiz-adv-x="506" 
d="M289 -177h-73v297h-183v64h183v256h-184v64h184v211h73v-211h183v-64h-183v-256h185v-64h-185v-297z" />
    <glyph glyph-name="bullet" unicode="&#x2022;" horiz-adv-x="349" 
d="M270 205h-190v190h190v-190z" />
    <glyph glyph-name="ellipsis" unicode="&#x2026;" horiz-adv-x="551" 
d="M133 0h-84v84h84v-84zM317 0h-84v84h84v-84zM501 0h-84v84h84v-84z" />
    <glyph glyph-name="perthousand" unicode="&#x2030;" horiz-adv-x="1136" 
d="M64 367.5q-40 54.5 -40 138.5q0 85 40 139.5t117 54.5q76 0 116 -55t40 -139t-39.5 -138.5t-116.5 -54.5t-117 54.5zM229 0h-67l393 689h66zM253 406.5q24 38.5 24 99.5q0 62 -24 100.5t-72 38.5q-49 0 -73 -38.5t-24 -100.5t24 -100t73 -38q48 0 72 38.5zM487.5 42
q-40.5 55 -40.5 139t40 139t117 55q76 0 116.5 -55t40.5 -139t-40 -139t-117 -55q-76 0 -116.5 55zM840.5 42q-40.5 55 -40.5 139t40 139t117 55q76 0 116.5 -55t40.5 -139t-40 -139t-117 -55q-76 0 -116.5 55zM676.5 80.5q23.5 38.5 23.5 100.5t-24 100t-72 38t-72 -38
t-24 -100t23.5 -100.5t72.5 -38.5t72.5 38.5zM1029.5 80.5q23.5 38.5 23.5 100.5t-24 100t-72 38t-72 -38t-24 -100t23.5 -100.5t72.5 -38.5t72.5 38.5z" />
    <glyph glyph-name="guilsinglleft" unicode="&#x2039;" horiz-adv-x="293" 
d="M240 136v-76l-196 161v78l196 160v-75l-157 -123v-2z" />
    <glyph glyph-name="guilsinglright" unicode="&#x203a;" horiz-adv-x="293" 
d="M249 220l-196 -160v75l157 124v2l-157 123v75l196 -160v-79z" />
    <glyph glyph-name="fraction" unicode="&#x2044;" horiz-adv-x="188" 
d="M-97 0h-74l453 715h74z" />
    <glyph glyph-name="uni2070" unicode="&#x2070;" horiz-adv-x="386" 
d="M70.5 421q-41.5 60 -41.5 151t41.5 151t122.5 60t122.5 -60t41.5 -151t-41.5 -151t-122.5 -60t-122.5 60zM268 456q23 43 23 116t-23 116.5t-75 43.5q-51 0 -74.5 -44t-23.5 -116q0 -73 23 -116t75 -43t75 43z" />
    <glyph glyph-name="uni2074" unicode="&#x2074;" horiz-adv-x="357" 
d="M277 364h-63v94h-193v60l193 252h63v-259h59v-53h-59v-94zM214 694l-139 -183h139v183z" />
    <glyph glyph-name="uni2075" unicode="&#x2075;" horiz-adv-x="351" 
d="M65.5 391.5q-40.5 35.5 -42.5 90.5h65q2 -33 24 -53.5t61 -20.5t62.5 24.5t23.5 69.5q0 42 -22 64t-61 22q-25 0 -47 -10t-36 -28h-61l43 220h229v-52h-181l-24 -116v-1q36 36 94 36q59 0 95 -38t36 -98q0 -67 -41 -106t-106 -39q-71 0 -111.5 35.5z" />
    <glyph glyph-name="uni2076" unicode="&#x2076;" horiz-adv-x="365" 
d="M69 414q-38 55 -38 151q0 105 42 161t118 56q55 0 91.5 -31t42.5 -79h-65q-3 28 -21 43.5t-48 15.5q-96 0 -96 -145v-9h1q15 28 43 43.5t63 15.5q60 0 97.5 -38t37.5 -98q0 -61 -40 -101t-106 -40q-84 0 -122 55zM251 434q23 24 23 63q0 41 -22.5 64.5t-60.5 23.5
q-39 0 -64 -24.5t-25 -65.5q0 -37 23 -61t63 -24t63 24z" />
    <glyph glyph-name="uni2077" unicode="&#x2077;" horiz-adv-x="307" 
d="M73 364q0 96 42.5 197t106.5 156v1h-215v52h285v-47q-74 -59 -113.5 -158.5t-39.5 -200.5h-66z" />
    <glyph glyph-name="uni2078" unicode="&#x2078;" horiz-adv-x="366" 
d="M71.5 393q-44.5 32 -44.5 90q0 72 79 104v1q-60 29 -60 88q0 50 39 79t98 29q60 0 98.5 -29t38.5 -79q0 -57 -59 -88v-1q78 -33 78 -104q0 -58 -44 -90t-112 -32q-67 0 -111.5 32zM238.5 625.5q20.5 16.5 20.5 46.5t-20.5 47t-55.5 17t-56 -17t-21 -47t20.5 -46.5
t56.5 -16.5q35 0 55.5 16.5zM250 432q25 21 25 56q0 34 -25 54.5t-67 20.5t-67 -20.5t-25 -54.5q0 -35 25.5 -56t66.5 -21q42 0 67 21z" />
    <glyph glyph-name="uni2079" unicode="&#x2079;" horiz-adv-x="363" 
d="M82.5 393q-36.5 31 -43.5 79h65q3 -26 20.5 -43t48.5 -17q51 0 74 38.5t23 104.5v12h-1q-15 -28 -43.5 -44t-63.5 -16q-60 0 -97 38t-37 98q0 62 39.5 102t106.5 40q82 0 120.5 -55.5t38.5 -150.5q0 -104 -42 -160.5t-118 -56.5q-54 0 -90.5 31zM238.5 583
q25.5 25 25.5 66q0 37 -23.5 61t-64.5 24q-40 0 -62.5 -24t-22.5 -64t22.5 -64t59.5 -24q40 0 65.5 25z" />
    <glyph glyph-name="uni2080" unicode="&#x2080;" horiz-adv-x="386" 
d="M70.5 -48q-41.5 60 -41.5 151t41.5 151t122.5 60t122.5 -60t41.5 -151t-41.5 -151t-122.5 -60t-122.5 60zM268 -13q23 43 23 116t-23 116.5t-75 43.5q-51 0 -74.5 -44t-23.5 -116q0 -73 23 -116t75 -43t75 43z" />
    <glyph glyph-name="uni2081" unicode="&#x2081;" horiz-adv-x="210" 
d="M97 203q-13 -12 -34 -16t-51 -4v51q48 1 71.5 18t24.5 54h53v-406h-64v303z" />
    <glyph glyph-name="uni2082" unicode="&#x2082;" horiz-adv-x="341" 
d="M21 -100q0 52 25.5 89.5t75.5 70.5l33 21q48 30 70 52.5t22 58.5q0 31 -17 50.5t-53 19.5q-42 0 -63 -25.5t-21 -70.5h-62q0 64 38 106.5t110 42.5q60 0 97 -31.5t37 -87.5q0 -36 -15.5 -62.5t-37.5 -44.5t-62 -44q-42 -26 -64 -45t-29 -46v-2h205v-52h-289z" />
    <glyph glyph-name="uni2083" unicode="&#x2083;" horiz-adv-x="361" 
d="M65.5 -69.5q-42.5 38.5 -42.5 108.5h63q0 -95 96 -95q42 0 63 18.5t21 52.5q0 37 -23.5 54.5t-59.5 17.5h-35v49h33q34 0 53 15.5t19 46.5q0 29 -18 46.5t-53 17.5q-44 0 -64 -21t-20 -56h-63q0 58 39.5 94t110.5 36q55 0 94 -30t39 -81q0 -63 -62 -89v-1q76 -24 76 -101
q0 -57 -40 -89t-106 -32q-78 0 -120.5 38.5z" />
    <glyph glyph-name="uni2084" unicode="&#x2084;" horiz-adv-x="357" 
d="M277 -100h-63v94h-193v60l193 252h63v-259h59v-53h-59v-94zM214 230l-139 -183h139v183z" />
    <glyph glyph-name="uni2085" unicode="&#x2085;" horiz-adv-x="351" 
d="M65.5 -72.5q-40.5 35.5 -42.5 90.5h65q2 -33 24 -53.5t61 -20.5t62.5 24.5t23.5 69.5q0 42 -22 64t-61 22q-25 0 -47 -10t-36 -28h-61l43 220h229v-52h-181l-24 -116v-1q36 36 94 36q59 0 95 -38t36 -98q0 -67 -41 -106t-106 -39q-71 0 -111.5 35.5z" />
    <glyph glyph-name="uni2086" unicode="&#x2086;" horiz-adv-x="365" 
d="M69 -53q-38 55 -38 151q0 105 42 161t118 56q55 0 91.5 -31t42.5 -79h-65q-3 28 -21 43.5t-48 15.5q-96 0 -96 -145v-9h1q15 28 43 43.5t63 15.5q60 0 97.5 -38t37.5 -98q0 -61 -40 -101t-106 -40q-84 0 -122 55zM251 -33q23 24 23 63q0 41 -22.5 64.5t-60.5 23.5
q-39 0 -64 -24.5t-25 -65.5q0 -37 23 -61t63 -24t63 24z" />
    <glyph glyph-name="uni2087" unicode="&#x2087;" horiz-adv-x="307" 
d="M73 -100q0 96 42.5 197t106.5 156v1h-215v52h285v-47q-74 -59 -113.5 -158.5t-39.5 -200.5h-66z" />
    <glyph glyph-name="uni2088" unicode="&#x2088;" horiz-adv-x="366" 
d="M71.5 -76q-44.5 32 -44.5 90q0 72 79 104v1q-60 29 -60 88q0 50 39 79t98 29q60 0 98.5 -29t38.5 -79q0 -57 -59 -88v-1q78 -33 78 -104q0 -58 -44 -90t-112 -32q-67 0 -111.5 32zM238.5 156.5q20.5 16.5 20.5 46.5t-20.5 47t-55.5 17t-56 -17t-21 -47t20.5 -46.5
t56.5 -16.5q35 0 55.5 16.5zM250 -37q25 21 25 56q0 34 -25 54.5t-67 20.5t-67 -20.5t-25 -54.5q0 -35 25.5 -56t66.5 -21q42 0 67 21z" />
    <glyph glyph-name="uni2089" unicode="&#x2089;" horiz-adv-x="363" 
d="M82.5 -77q-36.5 31 -43.5 79h65q3 -26 20.5 -43t48.5 -17q51 0 74 38.5t23 104.5v12h-1q-15 -28 -43.5 -44t-63.5 -16q-60 0 -97 38t-37 98q0 62 39.5 102t106.5 40q82 0 120.5 -55.5t38.5 -150.5q0 -104 -42 -160.5t-118 -56.5q-54 0 -90.5 31zM238.5 113
q25.5 25 25.5 66q0 37 -23.5 61t-64.5 24q-40 0 -62.5 -24t-22.5 -64t22.5 -64t59.5 -24q40 0 65.5 25z" />
    <glyph glyph-name="Euro" unicode="&#x20ac;" horiz-adv-x="652" 
d="M491.5 106.5q40.5 55.5 45.5 138.5h72q-12 -120 -72 -189t-165 -69q-104 0 -172 72.5t-85 198.5h-64v50h59q-1 11 -1 35q0 22 1 33h-59v50h63q17 127 85 199.5t173 72.5q103 0 163.5 -65t73.5 -168h-72q-12 71 -50.5 120t-114.5 49q-79 0 -124.5 -56.5t-59.5 -151.5h212
v-50h-217q-1 -11 -1 -33q0 -24 1 -35h217v-50h-212q13 -94 59.5 -150.5t124.5 -56.5q79 0 119.5 55.5z" />
    <glyph glyph-name="trademark" unicode="&#x2122;" horiz-adv-x="655" 
d="M165 436h-53v233h-92v46h237v-46h-92v-233zM347 436h-51v279h77l70 -213h1l72 213h76v-279h-51v216h-2l-70 -216h-50l-70 216h-2v-216z" />
    <glyph glyph-name="uni2126" unicode="&#x2126;" horiz-adv-x="784" 
d="M38 0v64h167q-70 48 -111 127.5t-41 179.5t42.5 181.5t120 128.5t176.5 47t176.5 -47t120 -128.5t42.5 -181.5t-40.5 -179.5t-110.5 -127.5h166v-64h-284l1 52q91 49 141.5 120.5t50.5 186.5q0 91 -32 159.5t-91.5 106t-139.5 37.5t-139.5 -37.5t-91.5 -106.5t-32 -159
q0 -115 50.5 -186.5t141.5 -120.5l1 -52h-284z" />
    <glyph glyph-name="oneeighth" unicode="&#x215b;" horiz-adv-x="742" 
d="M106 612q-13 -12 -34 -16t-51 -4v51q48 1 71.5 18t24.5 54h53v-406h-64v303zM133 0h-74l453 715h74zM450.5 24q-44.5 32 -44.5 90q0 72 79 104v1q-60 29 -60 88q0 50 39 79t98 29q60 0 98.5 -29t38.5 -79q0 -57 -59 -88v-1q78 -33 78 -104q0 -58 -44 -90t-112 -32
q-67 0 -111.5 32zM617.5 256.5q20.5 16.5 20.5 46.5t-20.5 47t-55.5 17t-56 -17t-21 -47t20.5 -46.5t56.5 -16.5q35 0 55.5 16.5zM629 63q25 21 25 56q0 34 -25 54.5t-67 20.5t-67 -20.5t-25 -54.5q0 -35 25.5 -56t66.5 -21q42 0 67 21z" />
    <glyph glyph-name="threeeighths" unicode="&#x215c;" horiz-adv-x="879" 
d="M73.5 340.5q-42.5 38.5 -42.5 108.5h63q0 -95 96 -95q42 0 63 18.5t21 52.5q0 37 -23.5 54.5t-59.5 17.5h-35v49h33q34 0 53 15.5t19 46.5q0 29 -18 46.5t-53 17.5q-44 0 -64 -21t-20 -56h-63q0 58 39.5 94t110.5 36q55 0 94 -30t39 -81q0 -63 -62 -89v-1q76 -24 76 -101
q0 -57 -40 -89t-106 -32q-78 0 -120.5 38.5zM269 0h-74l453 715h74zM583.5 24q-44.5 32 -44.5 90q0 72 79 104v1q-60 29 -60 88q0 50 39 79t98 29q60 0 98.5 -29t38.5 -79q0 -57 -59 -88v-1q78 -33 78 -104q0 -58 -44 -90t-112 -32q-67 0 -111.5 32zM750.5 256.5
q20.5 16.5 20.5 46.5t-20.5 47t-55.5 17t-56 -17t-21 -47t20.5 -46.5t56.5 -16.5q35 0 55.5 16.5zM762 63q25 21 25 56q0 34 -25 54.5t-67 20.5t-67 -20.5t-25 -54.5q0 -35 25.5 -56t66.5 -21q42 0 67 21z" />
    <glyph glyph-name="fiveeighths" unicode="&#x215d;" horiz-adv-x="855" 
d="M66.5 336.5q-40.5 35.5 -42.5 90.5h65q2 -33 24 -53.5t61 -20.5t62.5 24.5t23.5 69.5q0 42 -22 64t-61 22q-25 0 -47 -10t-36 -28h-61l43 220h229v-52h-181l-24 -116v-1q36 36 94 36q59 0 95 -38t36 -98q0 -67 -41 -106t-106 -39q-71 0 -111.5 35.5zM248 0h-74l453 715
h74zM563.5 24q-44.5 32 -44.5 90q0 72 79 104v1q-60 29 -60 88q0 50 39 79t98 29q60 0 98.5 -29t38.5 -79q0 -57 -59 -88v-1q78 -33 78 -104q0 -58 -44 -90t-112 -32q-67 0 -111.5 32zM730.5 256.5q20.5 16.5 20.5 46.5t-20.5 47t-55.5 17t-56 -17t-21 -47t20.5 -46.5
t56.5 -16.5q35 0 55.5 16.5zM742 63q25 21 25 56q0 34 -25 54.5t-67 20.5t-67 -20.5t-25 -54.5q0 -35 25.5 -56t66.5 -21q42 0 67 21z" />
    <glyph glyph-name="seveneighths" unicode="&#x215e;" horiz-adv-x="779" 
d="M84 309q0 96 42.5 197t106.5 156v1h-215v52h285v-47q-74 -59 -113.5 -158.5t-39.5 -200.5h-66zM151 0h-74l453 715h74zM486.5 24q-44.5 32 -44.5 90q0 72 79 104v1q-60 29 -60 88q0 50 39 79t98 29q60 0 98.5 -29t38.5 -79q0 -57 -59 -88v-1q78 -33 78 -104
q0 -58 -44 -90t-112 -32q-67 0 -111.5 32zM653.5 256.5q20.5 16.5 20.5 46.5t-20.5 47t-55.5 17t-56 -17t-21 -47t20.5 -46.5t56.5 -16.5q35 0 55.5 16.5zM665 63q25 21 25 56q0 34 -25 54.5t-67 20.5t-67 -20.5t-25 -54.5q0 -35 25.5 -56t66.5 -21q42 0 67 21z" />
    <glyph glyph-name="arrowleft" unicode="&#x2190;" horiz-adv-x="782" 
d="M338 90l-44 -40l-250 270l250 270l44 -41l-186 -200h583v-59h-583z" />
    <glyph glyph-name="arrowup" unicode="&#x2191;" horiz-adv-x="579" 
d="M319 0h-59v584l-200 -187l-40 44l270 250l270 -250l-41 -44l-200 187v-584z" />
    <glyph glyph-name="arrowright" unicode="&#x2192;" horiz-adv-x="782" 
d="M738 320l-250 -270l-44 40l186 200h-583v59h583l-186 200l44 41z" />
    <glyph glyph-name="arrowdown" unicode="&#x2193;" horiz-adv-x="580" 
d="M560 210l-270 -250l-270 250l41 44l200 -187v584h58v-584l201 187z" />
    <glyph glyph-name="arrowboth" unicode="&#x2194;" horiz-adv-x="1152" 
d="M337 90l-44 -40l-250 270l250 270l44 -41l-186 -200h850l-187 200l44 41l250 -270l-250 -270l-44 40l187 200h-850z" />
    <glyph glyph-name="arrowupdn" unicode="&#x2195;" horiz-adv-x="592" 
d="M566 73l-270 -250l-270 250l41 44l200 -187v749l-200 -187l-41 44l270 250l270 -250l-41 -44l-200 187v-749l200 187z" />
    <glyph glyph-name="uni2196" unicode="&#x2196;" horiz-adv-x="589" 
d="M562 122l-41 -42l-412 412l1 -270h-59v370h371v-58h-272z" />
    <glyph glyph-name="uni2197" unicode="&#x2197;" horiz-adv-x="589" 
d="M479 492l-412 -412l-41 42l413 412h-272v58h370v-370h-58v270z" />
    <glyph glyph-name="uni2198" unicode="&#x2198;" horiz-adv-x="595" 
d="M538 53h-371v58h272l-413 412l42 41l412 -412l-1 270h59v-369z" />
    <glyph glyph-name="uni2199" unicode="&#x2199;" horiz-adv-x="595" 
d="M428 53h-370v369h58v-270l412 412l41 -41l-413 -412h272v-58z" />
    <glyph glyph-name="partialdiff" unicode="&#x2202;" horiz-adv-x="515" 
d="M119 15q-46 28 -71 79t-25 119t29 127.5t81 94.5t117 35q111 0 158 -95q-20 122 -84.5 190.5t-186.5 93.5v57q172 -29 254.5 -137.5t82.5 -268.5q0 -88 -27 -161.5t-83 -117.5t-139 -44q-60 0 -106 28zM327.5 73.5q39.5 28.5 59.5 75.5t20 100q0 70 -39.5 116.5
t-107.5 46.5q-51 0 -90 -27t-60.5 -74t-21.5 -104q0 -73 40 -117.5t105 -44.5q55 0 94.5 28.5z" />
    <glyph glyph-name="emptyset" unicode="&#x2205;" horiz-adv-x="840" 
d="M697 590q44 -47 67.5 -109.5t23.5 -135.5q0 -105 -48.5 -186.5t-132 -126.5t-186.5 -45q-70 0 -133 21.5t-111 62.5l-65 -65l-31 31l64 64q-44 47 -68 109t-24 135q0 105 48.5 186.5t132.5 127t187 45.5q70 0 132.5 -21.5t110.5 -62.5l66 66l31 -32zM117.5 228.5
q20.5 -54.5 58.5 -96.5l456 456q-42 35 -96 54t-115 19q-90 0 -164 -40t-117 -112t-43 -164q0 -62 20.5 -116.5zM584.5 70q73.5 40 116 111.5t42.5 163.5q0 63 -20.5 117t-57.5 96l-457 -456q43 -35 97.5 -53.5t115.5 -18.5q90 0 163.5 40z" />
    <glyph glyph-name="uni2206" unicode="&#x2206;" horiz-adv-x="629" 
d="M270 715h88l252 -652v-63h-591v63zM318 646h-7l-217 -582h439z" />
    <glyph glyph-name="product" unicode="&#x220f;" horiz-adv-x="701" 
d="M149 -100h-73v815h549v-815h-73v751h-403v-751z" />
    <glyph glyph-name="summation" unicode="&#x2211;" horiz-adv-x="586" 
d="M559 -100h-529v67l288 351v1l-288 330v66h520v-64h-434v-2l264 -308v-41l-270 -334v-2h449v-64z" />
    <glyph glyph-name="minus" unicode="&#x2212;" horiz-adv-x="542" 
d="M493 294h-443v64h443v-64z" />
    <glyph glyph-name="uni2219" unicode="&#x2219;" horiz-adv-x="290" 
d="M187 305h-84v84h84v-84z" />
    <glyph glyph-name="radical" unicode="&#x221a;" horiz-adv-x="611" 
d="M313 -100h-65l-127 345h-77v64h123l112 -317h2l237 723h73z" />
    <glyph glyph-name="infinity" unicode="&#x221e;" horiz-adv-x="737" 
d="M648.5 430.5q40.5 -45.5 40.5 -126.5q0 -79 -40.5 -125t-101.5 -46q-40 0 -72 18.5t-54 43.5t-51 65q-29 -40 -52 -65.5t-55 -43.5t-72 -18q-62 0 -103 46.5t-41 124.5q0 79 40.5 125.5t103.5 46.5q58 0 99 -33t80 -88q40 57 79.5 89t96.5 32q62 0 102.5 -45.5zM272 226
q30 28 64 78q-32 49 -63 78.5t-70 29.5q-43 0 -66.5 -28.5t-23.5 -78.5t24 -78.5t66 -28.5q39 0 69 28zM600.5 226.5q23.5 28.5 23.5 78.5t-23.5 78.5t-66.5 28.5q-27 0 -50 -15.5t-39.5 -35.5t-41.5 -56q35 -51 64 -79t68 -28q42 0 65.5 28.5z" />
    <glyph glyph-name="integral" unicode="&#x222b;" horiz-adv-x="360" 
d="M16 -164v64q28 -5 44 -5q47 0 65.5 29t18.5 93v554q0 76 31.5 121.5t98.5 45.5q41 0 69 -10v-64q-27 5 -44 5q-45 0 -64 -31t-19 -91v-554q0 -76 -31.5 -121.5t-98.5 -45.5q-40 0 -70 10z" />
    <glyph glyph-name="approxequal" unicode="&#x2248;" horiz-adv-x="577" 
d="M61 329q2 45 27.5 75.5t81.5 30.5q25 0 51 -5t66 -15q44 -10 67.5 -14.5t47.5 -4.5q32 0 45 11t14 38h59q-2 -45 -27.5 -75.5t-82.5 -30.5q-25 0 -53 5t-68 15q-40 9 -64 13.5t-47 4.5q-32 0 -44.5 -11t-13.5 -37h-59zM61 177q2 45 27.5 75.5t81.5 30.5q24 0 55.5 -6
t61.5 -13q74 -19 115 -19q32 0 45 11t14 38h59q-2 -45 -27.5 -75.5t-82.5 -30.5q-25 0 -53 5t-68 15q-40 9 -64 13.5t-47 4.5q-32 0 -44.5 -11t-13.5 -38h-59z" />
    <glyph glyph-name="notequal" unicode="&#x2260;" horiz-adv-x="540" 
d="M491 428v-63h-170l-37 -78h207v-63h-237l-54 -115h-59l54 115h-140v63h170l37 78h-207v63h237l55 116h58l-55 -116h141z" />
    <glyph glyph-name="lessequal" unicode="&#x2264;" horiz-adv-x="500" 
d="M448 178v-65l-403 164v75l403 166v-66l-347 -136v-2zM448 0h-403v57h403v-57z" />
    <glyph glyph-name="greaterequal" unicode="&#x2265;" horiz-adv-x="499" 
d="M454 279l-402 -166v66l345 135v2l-345 136v66l402 -167v-72zM454 0h-402v57h402v-57z" />
    <glyph glyph-name="uni2266" unicode="&#x2266;" horiz-adv-x="555" 
d="M493 306v-68l-437 160v81l437 162v-68l-374 -133v-2zM493 141h-437v64h437v-64zM493 0h-437v64h437v-64z" />
    <glyph glyph-name="uni2267" unicode="&#x2267;" horiz-adv-x="555" 
d="M498 398l-436 -160v68l373 132v2l-373 133v68l436 -162v-81zM498 141h-436v64h436v-64zM498 0h-436v64h436v-64z" />
    <glyph glyph-name="uni2460" unicode="&#x2460;" horiz-adv-x="846" 
d="M228.5 33q-84.5 46 -131 129.5t-46.5 194.5t46.5 195t130.5 130t196 46q111 0 195.5 -46t130.5 -130t46 -195t-46 -194.5t-130.5 -129.5t-195.5 -46t-195.5 46zM584.5 83q69.5 39 108 110t38.5 164q0 94 -38.5 165t-108 110t-160.5 39q-92 0 -162 -39t-108 -110t-38 -165
t38 -164.5t108 -109.5t162 -39q91 0 160.5 39zM401 458q-13 -12 -34 -16t-51 -4v51q48 1 71.5 18t24.5 54h53v-406h-64v303z" />
    <glyph glyph-name="uni2461" unicode="&#x2461;" horiz-adv-x="846" 
d="M228.5 33q-84.5 46 -131 129.5t-46.5 194.5t46.5 195t130.5 130t196 46q111 0 195.5 -46t130.5 -130t46 -195t-46 -194.5t-130.5 -129.5t-195.5 -46t-195.5 46zM584.5 83q69.5 39 108 110t38.5 164q0 94 -38.5 165t-108 110t-160.5 39q-92 0 -162 -39t-108 -110t-38 -165
t38 -164.5t108 -109.5t162 -39q91 0 160.5 39zM275 155q0 52 25.5 89.5t75.5 70.5l33 21q48 30 70 52.5t22 58.5q0 31 -17 50.5t-53 19.5q-42 0 -63 -25.5t-21 -70.5h-62q0 64 38 106.5t110 42.5q60 0 97 -31.5t37 -87.5q0 -36 -15.5 -62.5t-37.5 -44.5t-62 -44
q-42 -26 -64 -45t-29 -46v-2h205v-52h-289z" />
    <glyph glyph-name="uni2462" unicode="&#x2462;" horiz-adv-x="846" 
d="M228.5 33q-84.5 46 -131 129.5t-46.5 194.5t46.5 195t130.5 130t196 46q111 0 195.5 -46t130.5 -130t46 -195t-46 -194.5t-130.5 -129.5t-195.5 -46t-195.5 46zM584.5 83q69.5 39 108 110t38.5 164q0 94 -38.5 165t-108 110t-160.5 39q-92 0 -162 -39t-108 -110t-38 -165
t38 -164.5t108 -109.5t162 -39q91 0 160.5 39zM310.5 184.5q-42.5 38.5 -42.5 108.5h63q0 -95 96 -95q42 0 63 18.5t21 52.5q0 37 -23.5 54.5t-59.5 17.5h-35v49h33q34 0 53 15.5t19 46.5q0 29 -18 46.5t-53 17.5q-44 0 -64 -21t-20 -56h-63q0 58 39.5 94t110.5 36
q55 0 94 -30t39 -81q0 -63 -62 -89v-1q76 -24 76 -101q0 -57 -40 -89t-106 -32q-78 0 -120.5 38.5z" />
    <glyph glyph-name="uni2463" unicode="&#x2463;" horiz-adv-x="846" 
d="M228.5 33q-84.5 46 -131 129.5t-46.5 194.5t46.5 195t130.5 130t196 46q111 0 195.5 -46t130.5 -130t46 -195t-46 -194.5t-130.5 -129.5t-195.5 -46t-195.5 46zM584.5 83q69.5 39 108 110t38.5 164q0 94 -38.5 165t-108 110t-160.5 39q-92 0 -162 -39t-108 -110t-38 -165
t38 -164.5t108 -109.5t162 -39q91 0 160.5 39zM506 154h-63v94h-193v60l193 252h63v-259h59v-53h-59v-94zM443 484l-139 -183h139v183z" />
    <glyph glyph-name="uni2464" unicode="&#x2464;" horiz-adv-x="846" 
d="M228.5 33q-84.5 46 -131 129.5t-46.5 194.5t46.5 195t130.5 130t196 46q111 0 195.5 -46t130.5 -130t46 -195t-46 -194.5t-130.5 -129.5t-195.5 -46t-195.5 46zM584.5 83q69.5 39 108 110t38.5 164q0 94 -38.5 165t-108 110t-160.5 39q-92 0 -162 -39t-108 -110t-38 -165
t38 -164.5t108 -109.5t162 -39q91 0 160.5 39zM315.5 181.5q-40.5 35.5 -42.5 90.5h65q2 -33 24 -53.5t61 -20.5t62.5 24.5t23.5 69.5q0 42 -22 64t-61 22q-25 0 -47 -10t-36 -28h-61l43 220h229v-52h-181l-24 -116v-1q36 36 94 36q59 0 95 -38t36 -98q0 -67 -41 -106
t-106 -39q-71 0 -111.5 35.5z" />
    <glyph glyph-name="uni2465" unicode="&#x2465;" horiz-adv-x="846" 
d="M228.5 33q-84.5 46 -131 129.5t-46.5 194.5t46.5 195t130.5 130t196 46q111 0 195.5 -46t130.5 -130t46 -195t-46 -194.5t-130.5 -129.5t-195.5 -46t-195.5 46zM584.5 83q69.5 39 108 110t38.5 164q0 94 -38.5 165t-108 110t-160.5 39q-92 0 -162 -39t-108 -110t-38 -165
t38 -164.5t108 -109.5t162 -39q91 0 160.5 39zM309 201q-38 55 -38 151q0 105 42 161t118 56q55 0 91.5 -31t42.5 -79h-65q-3 28 -21 43.5t-48 15.5q-96 0 -96 -145v-9h1q15 28 43 43.5t63 15.5q60 0 97.5 -38t37.5 -98q0 -61 -40 -101t-106 -40q-84 0 -122 55zM491 221
q23 24 23 63q0 41 -22.5 64.5t-60.5 23.5q-39 0 -64 -24.5t-25 -65.5q0 -37 23 -61t63 -24t63 24z" />
    <glyph glyph-name="uni2466" unicode="&#x2466;" horiz-adv-x="846" 
d="M228.5 33q-84.5 46 -131 129.5t-46.5 194.5t46.5 195t130.5 130t196 46q111 0 195.5 -46t130.5 -130t46 -195t-46 -194.5t-130.5 -129.5t-195.5 -46t-195.5 46zM584.5 83q69.5 39 108 110t38.5 164q0 94 -38.5 165t-108 110t-160.5 39q-92 0 -162 -39t-108 -110t-38 -165
t38 -164.5t108 -109.5t162 -39q91 0 160.5 39zM346 143q0 96 42.5 197t106.5 156v1h-215v52h285v-47q-74 -59 -113.5 -158.5t-39.5 -200.5h-66z" />
    <glyph glyph-name="uni2467" unicode="&#x2467;" horiz-adv-x="846" 
d="M228.5 33q-84.5 46 -131 129.5t-46.5 194.5t46.5 195t130.5 130t196 46q111 0 195.5 -46t130.5 -130t46 -195t-46 -194.5t-130.5 -129.5t-195.5 -46t-195.5 46zM584.5 83q69.5 39 108 110t38.5 164q0 94 -38.5 165t-108 110t-160.5 39q-92 0 -162 -39t-108 -110t-38 -165
t38 -164.5t108 -109.5t162 -39q91 0 160.5 39zM311.5 178q-44.5 32 -44.5 90q0 72 79 104v1q-60 29 -60 88q0 50 39 79t98 29q60 0 98.5 -29t38.5 -79q0 -57 -59 -88v-1q78 -33 78 -104q0 -58 -44 -90t-112 -32q-67 0 -111.5 32zM478.5 410.5q20.5 16.5 20.5 46.5t-20.5 47
t-55.5 17t-56 -17t-21 -47t20.5 -46.5t56.5 -16.5q35 0 55.5 16.5zM490 217q25 21 25 56q0 34 -25 54.5t-67 20.5t-67 -20.5t-25 -54.5q0 -35 25.5 -56t66.5 -21q42 0 67 21z" />
    <glyph glyph-name="uni2468" unicode="&#x2468;" horiz-adv-x="846" 
d="M228.5 33q-84.5 46 -131 129.5t-46.5 194.5t46.5 195t130.5 130t196 46q111 0 195.5 -46t130.5 -130t46 -195t-46 -194.5t-130.5 -129.5t-195.5 -46t-195.5 46zM584.5 83q69.5 39 108 110t38.5 164q0 94 -38.5 165t-108 110t-160.5 39q-92 0 -162 -39t-108 -110t-38 -165
t38 -164.5t108 -109.5t162 -39q91 0 160.5 39zM324.5 177q-36.5 31 -43.5 79h65q3 -26 20.5 -43t48.5 -17q51 0 74 38.5t23 104.5v12h-1q-15 -28 -43.5 -44t-63.5 -16q-60 0 -97 38t-37 98q0 62 39.5 102t106.5 40q82 0 120.5 -55.5t38.5 -150.5q0 -104 -42 -160.5
t-118 -56.5q-54 0 -90.5 31zM480.5 367q25.5 25 25.5 66q0 37 -23.5 61t-64.5 24q-40 0 -62.5 -24t-22.5 -64t22.5 -64t59.5 -24q40 0 65.5 25z" />
    <glyph glyph-name="uni24EA" unicode="&#x24ea;" horiz-adv-x="846" 
d="M228.5 33q-84.5 46 -131 129.5t-46.5 194.5t46.5 195t130.5 130t196 46q111 0 195.5 -46t130.5 -130t46 -195t-46 -194.5t-130.5 -129.5t-195.5 -46t-195.5 46zM584.5 83q69.5 39 108 110t38.5 164q0 94 -38.5 165t-108 110t-160.5 39q-92 0 -162 -39t-108 -110t-38 -165
t38 -164.5t108 -109.5t162 -39q91 0 160.5 39zM301.5 206q-41.5 60 -41.5 151t41.5 151t122.5 60t122.5 -60t41.5 -151t-41.5 -151t-122.5 -60t-122.5 60zM499 241q23 43 23 116t-23 116.5t-75 43.5q-51 0 -74.5 -44t-23.5 -116q0 -73 23 -116t75 -43t75 43z" />
    <glyph glyph-name="upblock" unicode="&#x2580;" horiz-adv-x="843" 
d="M779 357h-715v358h715v-358z" />
    <glyph glyph-name="dnblock" unicode="&#x2584;" horiz-adv-x="845" 
d="M780 0h-715v358h715v-358z" />
    <glyph glyph-name="block" unicode="&#x2588;" horiz-adv-x="868" 
d="M791 0h-715v715h715v-715z" />
    <glyph glyph-name="filledbox" unicode="&#x25a0;" horiz-adv-x="868" 
d="M791 0h-715v715h715v-715z" />
    <glyph glyph-name="uni25A1" unicode="&#x25a1;" horiz-adv-x="868" 
d="M791 0h-715v715h715v-715zM141 650v-585h585v585h-585z" />
    <glyph glyph-name="uni25AA" unicode="&#x25aa;" horiz-adv-x="308" 
d="M249 225h-190v190h190v-190z" />
    <glyph glyph-name="uni25AB" unicode="&#x25ab;" horiz-adv-x="358" 
d="M297 202h-236v236h236v-236zM126 373v-106h106v106h-106z" />
    <glyph glyph-name="triagup" unicode="&#x25b2;" horiz-adv-x="827" 
d="M814 0h-800l400 715z" />
    <glyph glyph-name="triagrt" unicode="&#x25ba;" horiz-adv-x="840" 
d="M803 357l-715 -400v800z" />
    <glyph glyph-name="triagdn" unicode="&#x25bc;" horiz-adv-x="829" 
d="M814 715l-400 -715l-400 715h800z" />
    <glyph glyph-name="triaglf" unicode="&#x25c4;" horiz-adv-x="840" 
d="M752 757v-800l-715 400z" />
    <glyph glyph-name="lozenge" unicode="&#x25ca;" horiz-adv-x="561" 
d="M319 0h-75l-202 358l202 357h74l202 -358zM114 359l167 -294h2l164 290l-166 295h-2z" />
    <glyph glyph-name="circle" unicode="&#x25cb;" horiz-adv-x="846" 
d="M228.5 33q-84.5 46 -131 129.5t-46.5 194.5t46.5 195t130.5 130t196 46q111 0 195.5 -46t130.5 -130t46 -195t-46 -194.5t-130.5 -129.5t-195.5 -46t-195.5 46zM584.5 83q69.5 39 108 110t38.5 164q0 94 -38.5 165t-108 110t-160.5 39q-92 0 -162 -39t-108 -110t-38 -165
t38 -164.5t108 -109.5t162 -39q91 0 160.5 39z" />
    <glyph glyph-name="uni25CF" unicode="&#x25cf;" horiz-adv-x="841" 
d="M235 37q-85 50 -135 135t-50 185t50 185.5t135 135.5t186 50q100 0 185 -50t135 -135.5t50 -185.5t-50 -185t-135 -135t-185 -50q-101 0 -186 50z" />
    <glyph glyph-name="uni2B0E" unicode="&#x2b0e;" horiz-adv-x="644" 
d="M368 111l197 184l40 -44l-270 -250l-270 250l41 44l196 -184v342h-277v59h343v-401z" />
    <glyph glyph-name="uni2B0F" unicode="&#x2b0f;" horiz-adv-x="647" 
d="M67 261l270 250l270 -250l-40 -44l-197 184v-401h-343v59h278v342l-197 -184z" />
    <glyph glyph-name="uni2B10" unicode="&#x2b10;" horiz-adv-x="647" 
d="M619 508v-59h-277v-342l196 184l41 -44l-270 -250l-270 250l40 44l197 -184v401h343z" />
    <glyph glyph-name="uni2B11" unicode="&#x2b11;" horiz-adv-x="645" 
d="M341 399v-342h278v-59h-343v401l-197 -184l-40 44l270 250l270 -250l-41 -44z" />
    <glyph glyph-name="uni2BA0" unicode="&#x2ba0;" horiz-adv-x="603" 
d="M490 286v277h59v-342h-401l184 -197l-44 -41l-250 270l250 270l44 -40l-184 -197h342z" />
    <glyph glyph-name="uni2BA1" unicode="&#x2ba1;" horiz-adv-x="603" 
d="M270 486l44 40l250 -270l-250 -270l-44 41l184 197h-401v342h59v-277h342z" />
    <glyph glyph-name="uni2BA2" unicode="&#x2ba2;" horiz-adv-x="604" 
d="M334 495l-184 -196h401v-343h-59v277h-342l184 -197l-44 -40l-250 270l250 270z" />
    <glyph glyph-name="uni2BA3" unicode="&#x2ba3;" horiz-adv-x="604" 
d="M270 495l44 41l250 -270l-250 -270l-44 40l184 197h-343v-277h-58v343h401z" />
    <glyph glyph-name="uni2BA4" unicode="&#x2ba4;" horiz-adv-x="645" 
d="M341 399v-342h278v-59h-343v401l-197 -184l-40 44l270 250l270 -250l-41 -44z" />
    <glyph glyph-name="uni2BA5" unicode="&#x2ba5;" horiz-adv-x="647" 
d="M67 261l270 250l270 -250l-40 -44l-197 184v-401h-343v59h278v342l-197 -184z" />
    <glyph glyph-name="uni2BA6" unicode="&#x2ba6;" horiz-adv-x="647" 
d="M619 508v-59h-277v-342l196 184l41 -44l-270 -250l-270 250l40 44l197 -184v401h343z" />
    <glyph glyph-name="uni2BA7" unicode="&#x2ba7;" horiz-adv-x="644" 
d="M368 111l197 184l40 -44l-270 -250l-270 250l41 44l196 -184v342h-277v59h343v-401z" />
    <glyph glyph-name="fi" unicode="&#xfb01;" horiz-adv-x="447" 
d="M179 657.5q-13 -6.5 -18 -23t-5 -48.5v-76h101v-57h-101v-453h-65v453h-72v57h72v75q0 79 29 107.5t88 28.5q18 0 49 -4v-55q-36 2 -40 2q-25 0 -38 -6.5zM387 0h-65v510h65v-510zM396 612h-84v84h84v-84z" />
    <glyph glyph-name="fl" unicode="&#xfb02;" horiz-adv-x="447" 
d="M179 657.5q-13 -6.5 -18 -23t-5 -48.5v-76h101v-57h-101v-453h-65v453h-72v57h72v75q0 79 29 107.5t88 28.5q18 0 49 -4v-55q-36 2 -40 2q-25 0 -38 -6.5zM387 0h-65v715h65v-715z" />
    <glyph glyph-name="uniFEFF" unicode="&#xfeff;" 
 />
    <glyph glyph-name="u1F150" unicode="&#x1f150;" horiz-adv-x="579" 
d="M177.5 315q-51.5 29 -81 80t-29.5 114t29.5 113.5t81 79.5t112.5 29t112 -29t80.5 -79.5t29.5 -113.5t-29.5 -114t-80.5 -80t-112 -29t-112.5 29z" />
    <glyph glyph-name="Adieresis.ss02" horiz-adv-x="635" 
d="M84 0h-75l267 715h82l269 -715h-78l-72 198h-321zM316 646l-136 -383h274l-136 383h-2zM210 826q-12 13 -12 31q0 19 12 32t32 13q21 0 33 -13t12 -32q0 -18 -12 -31t-33 -13q-20 0 -32 13zM358 826q-12 13 -12 31q0 19 12 32t32 13q21 0 33 -13t12 -32q0 -18 -12 -31
t-33 -13q-20 0 -32 13z" />
    <glyph glyph-name="Cdotaccent.ss02" horiz-adv-x="697" 
d="M197.5 34q-74.5 47 -116 131.5t-41.5 191.5t41.5 191.5t116 132t171.5 47.5q81 0 144.5 -32t102 -86.5t47.5 -122.5h-76q-13 72 -66 124.5t-153 52.5q-83 0 -139.5 -42t-84.5 -112t-28 -153t28 -152.5t85 -111.5t139 -42q72 0 120 29t73 75t29 99h76q-9 -78 -47.5 -138.5
t-103 -94.5t-147.5 -34q-96 0 -170.5 47zM337 826.5q-12 12.5 -12 31.5t12 31.5t32 12.5q21 0 33 -12.5t12 -31.5t-12 -31.5t-33 -12.5q-20 0 -32 12.5z" />
    <glyph glyph-name="Edieresis.ss02" horiz-adv-x="603" 
d="M572 0h-496v715h485v-64h-412v-246h368v-64h-368v-277h423v-64zM216 826q-12 13 -12 31q0 19 12 32t32 13q21 0 33 -13t12 -32q0 -18 -12 -31t-33 -13q-20 0 -32 13zM364 826q-12 13 -12 31q0 19 12 32t32 13q21 0 33 -13t12 -32q0 -18 -12 -31t-33 -13q-20 0 -32 13z
" />
    <glyph glyph-name="Edotaccent.ss02" horiz-adv-x="603" 
d="M572 0h-496v715h485v-64h-412v-246h368v-64h-368v-277h423v-64zM290 826.5q-12 12.5 -12 31.5t12 31.5t32 12.5q21 0 33 -12.5t12 -31.5t-12 -31.5t-33 -12.5q-20 0 -32 12.5z" />
    <glyph glyph-name="uni0122.ss02" horiz-adv-x="729" 
d="M189 34.5q-73 47.5 -110.5 131t-37.5 191.5q0 106 41 190.5t116.5 132.5t174.5 48q125 0 200 -60t94 -165h-75q-16 77 -74 119t-145 42q-85 0 -142.5 -44t-85.5 -114t-28 -149q0 -81 24.5 -150t79.5 -112.5t143 -43.5q69 0 124 31.5t86.5 88.5t31.5 131h-237v65h310v-367
h-50l-22 127h-2q-75 -140 -241 -140q-102 0 -175 47.5zM335 -186q24 6 38.5 20t15.5 34q-9 -3 -18 -3q-17 0 -28.5 11.5t-11.5 31.5q0 21 12.5 33.5t32.5 12.5q25 0 38 -17.5t13 -47.5q0 -40 -22 -70t-70 -42v37z" />
    <glyph glyph-name="Gdotaccent.ss02" horiz-adv-x="729" 
d="M189 34.5q-73 47.5 -110.5 131t-37.5 191.5q0 106 41 190.5t116.5 132.5t174.5 48q125 0 200 -60t94 -165h-75q-16 77 -74 119t-145 42q-85 0 -142.5 -44t-85.5 -114t-28 -149q0 -81 24.5 -150t79.5 -112.5t143 -43.5q69 0 124 31.5t86.5 88.5t31.5 131h-237v65h310v-367
h-50l-22 127h-2q-75 -140 -241 -140q-102 0 -175 47.5zM336 826.5q-12 12.5 -12 31.5t12 31.5t32 12.5q21 0 33 -12.5t12 -31.5t-12 -31.5t-33 -12.5q-20 0 -32 12.5z" />
    <glyph glyph-name="Idieresis.ss02" horiz-adv-x="225" 
d="M149 0h-73v715h73v-715zM6 826q-12 13 -12 31q0 19 12 32t32 13q21 0 33 -13t12 -32q0 -18 -12 -31t-33 -13q-20 0 -32 13zM154 826q-12 13 -12 31q0 19 12 32t32 13q21 0 33 -13t12 -32q0 -18 -12 -31t-33 -13q-20 0 -32 13z" />
    <glyph glyph-name="Idotaccent.ss02" horiz-adv-x="225" 
d="M149 0h-73v715h73v-715zM80 826.5q-12 12.5 -12 31.5t12 31.5t32 12.5q21 0 33 -12.5t12 -31.5t-12 -31.5t-33 -12.5q-20 0 -32 12.5z" />
    <glyph glyph-name="uni0136.ss02" horiz-adv-x="629" 
d="M641 0h-85l-270 369l-137 -143v-226h-73v715h73v-404l386 404h83l-285 -297zM293 -186q24 6 38.5 20t15.5 34q-9 -3 -18 -3q-17 0 -28.5 11.5t-11.5 31.5q0 21 12.5 33.5t32.5 12.5q25 0 38 -17.5t13 -47.5q0 -40 -22 -70t-70 -42v37z" />
    <glyph glyph-name="uni013B.ss02" horiz-adv-x="549" 
d="M535 0h-459v715h73v-651h386v-64zM261 -186q24 6 38.5 20t15.5 34q-9 -3 -18 -3q-17 0 -28.5 11.5t-11.5 31.5q0 21 12.5 33.5t32.5 12.5q25 0 38 -17.5t13 -47.5q0 -40 -22 -70t-70 -42v37z" />
    <glyph glyph-name="uni0145.ss02" horiz-adv-x="703" 
d="M149 0h-73v715h89l387 -612h2v612h73v-715h-89l-387 612h-2v-612zM304 -186q24 6 38.5 20t15.5 34q-9 -3 -18 -3q-17 0 -28.5 11.5t-11.5 31.5q0 21 12.5 33.5t32.5 12.5q25 0 38 -17.5t13 -47.5q0 -40 -22 -70t-70 -42v37z" />
    <glyph glyph-name="Odieresis.ss02" horiz-adv-x="767" 
d="M204 34.5q-78 47.5 -121 132t-43 191.5t43 191t121 131.5t180 47.5q101 0 179 -47.5t121 -131.5t43 -191t-43 -191.5t-121 -132t-179 -47.5q-102 0 -180 47.5zM529.5 91.5q60.5 40.5 91 110.5t30.5 156t-30.5 155.5t-91 110t-145.5 40.5q-86 0 -146.5 -40.5t-91 -110
t-30.5 -155.5t30.5 -156t91 -110.5t146.5 -40.5q85 0 145.5 40.5zM277 826q-12 13 -12 31q0 19 12 32t32 13q21 0 33 -13t12 -32q0 -18 -12 -31t-33 -13q-20 0 -32 13zM425 826q-12 13 -12 31q0 19 12 32t32 13q21 0 33 -13t12 -32q0 -18 -12 -31t-33 -13q-20 0 -32 13z" />
    <glyph glyph-name="uni0156.ss02" horiz-adv-x="640" 
d="M76 0v715h280q114 0 174.5 -52t60.5 -150q0 -70 -36.5 -117.5t-96.5 -62.5v-2q51 -10 77.5 -49t36 -86t13.5 -110q4 -43 7 -60t12 -20v-6h-78q-7 6 -9 21.5t-4 51.5q-3 64 -12 109.5t-40 80t-94 34.5h-218v-297h-73zM338 361q86 0 133 38.5t47 112.5q0 70 -42 104.5
t-133 34.5h-194v-290h189zM286 -186q24 6 38.5 20t15.5 34q-9 -3 -18 -3q-17 0 -28.5 11.5t-11.5 31.5q0 21 12.5 33.5t32.5 12.5q25 0 38 -17.5t13 -47.5q0 -40 -22 -70t-70 -42v37z" />
    <glyph glyph-name="uni0218.ss02" horiz-adv-x="616" 
d="M117.5 53q-83.5 66 -90.5 184h76q8 -87 63.5 -136.5t163.5 -49.5q94 0 135.5 39t41.5 105q0 50 -23.5 77.5t-66 42.5t-130.5 35q-72 17 -120 37t-79 58t-31 99q0 85 64 134.5t174 49.5q117 0 186.5 -57t77.5 -162h-76q-9 77 -54.5 116t-133.5 39q-78 0 -120 -30.5
t-42 -86.5q0 -45 24 -71.5t61.5 -39.5t104.5 -28q87 -19 141 -40.5t86.5 -62.5t32.5 -110q0 -60 -27.5 -107t-84 -74t-138.5 -27q-132 0 -215.5 66zM296 -186q24 6 38.5 20t15.5 34q-9 -3 -18 -3q-17 0 -28.5 11.5t-11.5 31.5q0 21 12.5 33.5t32.5 12.5q25 0 38 -17.5
t13 -47.5q0 -40 -22 -70t-70 -42v37z" />
    <glyph glyph-name="uni021A.ss02" horiz-adv-x="588" 
d="M330 0h-72v651h-243v64h559v-64h-244v-651zM249 -186q24 6 38.5 20t15.5 34q-9 -3 -18 -3q-17 0 -28.5 11.5t-11.5 31.5q0 21 12.5 33.5t32.5 12.5q25 0 38 -17.5t13 -47.5q0 -40 -22 -70t-70 -42v37z" />
    <glyph glyph-name="Udieresis.ss02" horiz-adv-x="680" 
d="M137.5 54.5q-66.5 67.5 -66.5 186.5v474h73v-474q0 -96 48.5 -143t147.5 -47t147.5 47t48.5 143v474h73v-474q0 -119 -66.5 -186.5t-202.5 -67.5t-202.5 67.5zM234 826q-12 13 -12 31q0 19 12 32t32 13q21 0 33 -13t12 -32q0 -18 -12 -31t-33 -13q-20 0 -32 13zM382 826
q-12 13 -12 31q0 19 12 32t32 13q21 0 33 -13t12 -32q0 -18 -12 -31t-33 -13q-20 0 -32 13z" />
    <glyph glyph-name="Wdieresis.ss02" horiz-adv-x="901" 
d="M277 0h-80l-180 715h77l146 -611h2l168 611h81l168 -611h3l146 611h76l-179 -715h-81l-172 629h-3zM344 826q-12 13 -12 31q0 19 12 32t32 13q21 0 33 -13t12 -32q0 -18 -12 -31t-33 -13q-20 0 -32 13zM492 826q-12 13 -12 31q0 19 12 32t32 13q21 0 33 -13t12 -32
q0 -18 -12 -31t-33 -13q-20 0 -32 13z" />
    <glyph glyph-name="Ydieresis.ss02" horiz-adv-x="618" 
d="M345 0h-73v293l-261 422h79l218 -365h2l219 365h78l-262 -422v-293zM203 826q-12 13 -12 31q0 19 12 32t32 13q21 0 33 -13t12 -32q0 -18 -12 -31t-33 -13q-20 0 -32 13zM351 826q-12 13 -12 31q0 19 12 32t32 13q21 0 33 -13t12 -32q0 -18 -12 -31t-33 -13q-20 0 -32 13
z" />
    <glyph glyph-name="Zdotaccent.ss02" horiz-adv-x="588" 
d="M566 0h-548v64l449 585v2h-429v64h518v-64l-449 -585v-2h459v-64zM262 826.5q-12 12.5 -12 31.5t12 31.5t32 12.5q21 0 33 -12.5t12 -31.5t-12 -31.5t-33 -12.5q-20 0 -32 12.5z" />
    <glyph glyph-name="i.latn_TRK" horiz-adv-x="185" 
d="M125 0h-65v510h65v-510zM134 612h-84v84h84v-84z" />
    <glyph glyph-name="a.ss01" horiz-adv-x="557" 
d="M431 510h65v-510h-65v83h-2q-25 -42 -67.5 -69t-104.5 -27t-113.5 32.5t-81 93t-29.5 142.5q0 81 29.5 141.5t81 93t113.5 32.5q63 0 105 -26.5t67 -71.5h2v86zM351.5 70q37.5 26 58.5 73.5t21 111.5q0 63 -21 110.5t-58.5 73.5t-86.5 26q-51 0 -88.5 -28t-56.5 -76
t-19 -106q0 -90 43.5 -150.5t120.5 -60.5q49 0 86.5 26z" />
    <glyph glyph-name="aacute.ss01" horiz-adv-x="557" 
d="M431 510h65v-510h-65v83h-2q-25 -42 -67.5 -69t-104.5 -27t-113.5 32.5t-81 93t-29.5 142.5q0 81 29.5 141.5t81 93t113.5 32.5q63 0 105 -26.5t67 -71.5h2v86zM351.5 70q37.5 26 58.5 73.5t21 111.5q0 63 -21 110.5t-58.5 73.5t-86.5 26q-51 0 -88.5 -28t-56.5 -76
t-19 -106q0 -90 43.5 -150.5t120.5 -60.5q49 0 86.5 26zM293 593h-54l62 132h78z" />
    <glyph glyph-name="abreve.ss01" horiz-adv-x="557" 
d="M431 510h65v-510h-65v83h-2q-25 -42 -67.5 -69t-104.5 -27t-113.5 32.5t-81 93t-29.5 142.5q0 81 29.5 141.5t81 93t113.5 32.5q63 0 105 -26.5t67 -71.5h2v86zM351.5 70q37.5 26 58.5 73.5t21 111.5q0 63 -21 110.5t-58.5 73.5t-86.5 26q-51 0 -88.5 -28t-56.5 -76
t-19 -106q0 -90 43.5 -150.5t120.5 -60.5q49 0 86.5 26zM184.5 621q-33.5 33 -35.5 94h50q8 -78 74 -78q67 0 73 78h51q-3 -60 -36 -93.5t-88 -33.5t-88.5 33z" />
    <glyph glyph-name="acircumflex.ss01" horiz-adv-x="557" 
d="M431 510h65v-510h-65v83h-2q-25 -42 -67.5 -69t-104.5 -27t-113.5 32.5t-81 93t-29.5 142.5q0 81 29.5 141.5t81 93t113.5 32.5q63 0 105 -26.5t67 -71.5h2v86zM351.5 70q37.5 26 58.5 73.5t21 111.5q0 63 -21 110.5t-58.5 73.5t-86.5 26q-51 0 -88.5 -28t-56.5 -76
t-19 -106q0 -90 43.5 -150.5t120.5 -60.5q49 0 86.5 26zM213 595h-68l91 130h74l90 -130h-68l-59 93h-1z" />
    <glyph glyph-name="adieresis.ss01" horiz-adv-x="557" 
d="M431 510h65v-510h-65v83h-2q-25 -42 -67.5 -69t-104.5 -27t-113.5 32.5t-81 93t-29.5 142.5q0 81 29.5 141.5t81 93t113.5 32.5q63 0 105 -26.5t67 -71.5h2v86zM351.5 70q37.5 26 58.5 73.5t21 111.5q0 63 -21 110.5t-58.5 73.5t-86.5 26q-51 0 -88.5 -28t-56.5 -76
t-19 -106q0 -90 43.5 -150.5t120.5 -60.5q49 0 86.5 26zM240 612h-84v84h84v-84zM389 612h-84v84h84v-84z" />
    <glyph glyph-name="agrave.ss01" horiz-adv-x="557" 
d="M431 510h65v-510h-65v83h-2q-25 -42 -67.5 -69t-104.5 -27t-113.5 32.5t-81 93t-29.5 142.5q0 81 29.5 141.5t81 93t113.5 32.5q63 0 105 -26.5t67 -71.5h2v86zM351.5 70q37.5 26 58.5 73.5t21 111.5q0 63 -21 110.5t-58.5 73.5t-86.5 26q-51 0 -88.5 -28t-56.5 -76
t-19 -106q0 -90 43.5 -150.5t120.5 -60.5q49 0 86.5 26zM296 593h-54l-80 132h79z" />
    <glyph glyph-name="amacron.ss01" horiz-adv-x="557" 
d="M431 510h65v-510h-65v83h-2q-25 -42 -67.5 -69t-104.5 -27t-113.5 32.5t-81 93t-29.5 142.5q0 81 29.5 141.5t81 93t113.5 32.5q63 0 105 -26.5t67 -71.5h2v86zM351.5 70q37.5 26 58.5 73.5t21 111.5q0 63 -21 110.5t-58.5 73.5t-86.5 26q-51 0 -88.5 -28t-56.5 -76
t-19 -106q0 -90 43.5 -150.5t120.5 -60.5q49 0 86.5 26zM397 617h-249v57h249v-57z" />
    <glyph glyph-name="aogonek.ss01" horiz-adv-x="557" 
d="M512 -116v-50q-28 -10 -62 -10q-44 0 -67.5 20.5t-23.5 53.5q0 32 23.5 59.5t55.5 42.5h-7v83h-2q-25 -42 -67.5 -69t-104.5 -27t-113.5 32.5t-81 93t-29.5 142.5q0 81 29.5 141.5t81 93t113.5 32.5q63 0 105 -26.5t67 -71.5h2v86h65v-510h-7q-72 -51 -72 -89
q0 -17 12.5 -27t32.5 -10q27 0 50 10zM351.5 70q37.5 26 58.5 73.5t21 111.5q0 63 -21 110.5t-58.5 73.5t-86.5 26q-51 0 -88.5 -28t-56.5 -76t-19 -106q0 -90 43.5 -150.5t120.5 -60.5q49 0 86.5 26z" />
    <glyph glyph-name="aring.ss01" horiz-adv-x="557" 
d="M431 510h65v-510h-65v83h-2q-25 -42 -67.5 -69t-104.5 -27t-113.5 32.5t-81 93t-29.5 142.5q0 81 29.5 141.5t81 93t113.5 32.5q63 0 105 -26.5t67 -71.5h2v86zM351.5 70q37.5 26 58.5 73.5t21 111.5q0 63 -21 110.5t-58.5 73.5t-86.5 26q-51 0 -88.5 -28t-56.5 -76
t-19 -106q0 -90 43.5 -150.5t120.5 -60.5q49 0 86.5 26zM210 585q-24 24 -24 61q0 38 24 61.5t62 23.5t62 -23.5t24 -61.5q0 -37 -24 -61t-62 -24t-62 24zM308 609q14 14 14 37q0 22 -14 36.5t-36 14.5t-35.5 -14.5t-13.5 -36.5q0 -23 13.5 -37t35.5 -14t36 14z" />
    <glyph glyph-name="atilde.ss01" horiz-adv-x="557" 
d="M431 510h65v-510h-65v83h-2q-25 -42 -67.5 -69t-104.5 -27t-113.5 32.5t-81 93t-29.5 142.5q0 81 29.5 141.5t81 93t113.5 32.5q63 0 105 -26.5t67 -71.5h2v86zM351.5 70q37.5 26 58.5 73.5t21 111.5q0 63 -21 110.5t-58.5 73.5t-86.5 26q-51 0 -88.5 -28t-56.5 -76
t-19 -106q0 -90 43.5 -150.5t120.5 -60.5q49 0 86.5 26zM135 600q1 45 21 67.5t51 22.5q19 0 35 -6t42 -18q13 -7 25.5 -12t21.5 -5q25 0 27 39h51q-1 -45 -21 -67t-51 -22q-19 0 -36 6t-40 18q-13 7 -26 12t-22 5q-25 0 -27 -40h-51z" />
    <glyph glyph-name="adieresis.ss02" horiz-adv-x="514" 
d="M78.5 26q-45.5 39 -45.5 103q0 53 24 86t69 51t117 31q57 10 81.5 16.5t40.5 21.5t16 44q0 41 -28.5 64t-87.5 23q-72 0 -103.5 -26t-35.5 -84h-69q4 74 55 120.5t155 46.5q78 0 127.5 -38.5t49.5 -123.5v-255q0 -32 6 -46t23 -14q8 0 14 1v-47q-22 -4 -34 -4
q-34 0 -51.5 17.5t-20.5 63.5h-2q-26 -44 -71.5 -67t-107.5 -23q-76 0 -121.5 39zM334 83.5q47 39.5 47 107.5v95q-10 -14 -43.5 -24t-86.5 -19q-79 -14 -114.5 -37.5t-35.5 -70.5q0 -91 107 -91q79 0 126 39.5zM158 621q-12 13 -12 31q0 19 12 32t32 13q21 0 33 -13t12 -32
q0 -18 -12 -31t-33 -13q-20 0 -32 13zM306 621q-12 13 -12 31q0 19 12 32t32 13q21 0 33 -13t12 -32q0 -18 -12 -31t-33 -13q-20 0 -32 13z" />
    <glyph glyph-name="cdotaccent.ss02" horiz-adv-x="522" 
d="M148.5 20.5q-55.5 33.5 -86 94.5t-30.5 140t30.5 139.5t86 94t127.5 33.5q61 0 108.5 -25t76 -68.5t34.5 -97.5h-68q-2 32 -18.5 62.5t-49.5 51t-83 20.5q-59 0 -99 -29.5t-58.5 -77.5t-18.5 -103q0 -56 18.5 -104t58.5 -78t99 -30q73 0 110 42t41 97h68
q-3 -55 -32 -99.5t-77.5 -70t-109.5 -25.5q-72 0 -127.5 33.5zM244 621.5q-12 12.5 -12 31.5t12 31.5t32 12.5q21 0 33 -12.5t12 -31.5t-12 -31.5t-33 -12.5q-20 0 -32 12.5z" />
    <glyph glyph-name="edieresis.ss02" horiz-adv-x="537" 
d="M505 242h-404q1 -54 20.5 -99.5t59 -73t96.5 -27.5q70 0 108 36t48 78h66q-20 -76 -76 -123t-147 -47q-76 0 -131 34.5t-83.5 95.5t-28.5 139q0 81 30 141.5t85 93.5t128 33q72 0 124 -31.5t79 -87t27 -126.5q0 -28 -1 -36zM437 299q0 46 -19.5 84.5t-56.5 61t-88 22.5
q-73 0 -120.5 -48t-51.5 -120h336zM165 623q-12 13 -12 31q0 19 12 32t32 13q21 0 33 -13t12 -32q0 -18 -12 -31t-33 -13q-20 0 -32 13zM313 623q-12 13 -12 31q0 19 12 32t32 13q21 0 33 -13t12 -32q0 -18 -12 -31t-33 -13q-20 0 -32 13z" />
    <glyph glyph-name="edotaccent.ss02" horiz-adv-x="537" 
d="M505 242h-404q1 -54 20.5 -99.5t59 -73t96.5 -27.5q70 0 108 36t48 78h66q-20 -76 -76 -123t-147 -47q-76 0 -131 34.5t-83.5 95.5t-28.5 139q0 81 30 141.5t85 93.5t128 33q72 0 124 -31.5t79 -87t27 -126.5q0 -28 -1 -36zM437 299q0 46 -19.5 84.5t-56.5 61t-88 22.5
q-73 0 -120.5 -48t-51.5 -120h336zM239 623.5q-12 12.5 -12 31.5t12 31.5t32 12.5q21 0 33 -12.5t12 -31.5t-12 -31.5t-33 -12.5q-20 0 -32 12.5z" />
    <glyph glyph-name="uni0123.ss02" horiz-adv-x="557" 
d="M433 510h65v-478q0 -106 -61 -160.5t-169 -54.5q-100 0 -156.5 43t-62.5 113h68q8 -45 45 -72t107 -27q164 0 164 149v95h-2q-24 -43 -67.5 -68.5t-104.5 -25.5q-63 0 -113.5 28t-80.5 84t-30 138q0 81 30 137t80.5 83.5t113.5 27.5q61 0 104.5 -25.5t67.5 -66.5h2v80z
M387.5 130q45.5 49 45.5 144q0 93 -45.5 142t-119.5 49q-78 0 -121.5 -52t-43.5 -139q0 -89 43.5 -141t121.5 -52q74 0 119.5 49zM234.5 616q-13.5 17 -13.5 47q0 38 21.5 67t65.5 43v-36q-49 -14 -49 -61q11 3 19 3q17 0 28 -9.5t11 -28.5q0 -20 -12 -31t-32 -11
q-25 0 -38.5 17z" />
    <glyph glyph-name="gdotaccent.ss02" horiz-adv-x="557" 
d="M433 510h65v-478q0 -106 -61 -160.5t-169 -54.5q-100 0 -156.5 43t-62.5 113h68q8 -45 45 -72t107 -27q164 0 164 149v95h-2q-24 -43 -67.5 -68.5t-104.5 -25.5q-63 0 -113.5 28t-80.5 84t-30 138q0 81 30 137t80.5 83.5t113.5 27.5q61 0 104.5 -25.5t67.5 -66.5h2v80z
M387.5 130q45.5 49 45.5 144q0 93 -45.5 142t-119.5 49q-78 0 -121.5 -52t-43.5 -139q0 -89 43.5 -141t121.5 -52q74 0 119.5 49zM236 621.5q-12 12.5 -12 31.5t12 31.5t32 12.5q21 0 33 -12.5t12 -31.5t-12 -31.5t-33 -12.5q-20 0 -32 12.5z" />
    <glyph glyph-name="i.ss02" horiz-adv-x="185" 
d="M60 621.5q-12 12.5 -12 31.5t12 31.5t33 12.5q20 0 32.5 -12.5t12.5 -31.5t-12.5 -31.5t-32.5 -12.5q-21 0 -33 12.5zM125 0h-65v510h65v-510z" />
    <glyph glyph-name="idieresis.ss02" horiz-adv-x="185" 
d="M125 0h-65v510h65v-510zM-14 621q-12 13 -12 31q0 19 12 32t32 13q21 0 33 -13t12 -32q0 -18 -12 -31t-33 -13q-20 0 -32 13zM134 621q-12 13 -12 31q0 19 12 32t32 13q21 0 33 -13t12 -32q0 -18 -12 -31t-33 -13q-20 0 -32 13z" />
    <glyph glyph-name="iogonek.ss02" horiz-adv-x="185" 
d="M125 0h-65v510h65v-510zM60 621.5q-12 12.5 -12 31.5t12 31.5t32 12.5q21 0 33 -12.5t12 -31.5t-12 -31.5t-33 -12.5q-20 0 -32 12.5zM11.5 -155.5q-23.5 20.5 -23.5 53.5q0 32 23.5 59.5t55.5 42.5h51q-72 -51 -72 -89q0 -17 12.5 -27t32.5 -10q27 0 50 10v-50
q-28 -10 -62 -10q-44 0 -67.5 20.5z" />
    <glyph glyph-name="j.ss02" horiz-adv-x="185" 
d="M-24 -176v55q30 -2 38 -2q25 0 35.5 17.5t10.5 61.5v554h65v-559q0 -69 -27.5 -100t-72.5 -31q-22 0 -49 4zM60 621.5q-12 12.5 -12 31.5t12 31.5t32 12.5q21 0 33 -12.5t12 -31.5t-12 -31.5t-33 -12.5q-20 0 -32 12.5z" />
    <glyph glyph-name="uni0137.ss02" horiz-adv-x="470" 
d="M483 0h-77l-193 282l-88 -82v-200h-65v715h65v-445l253 240h80l-201 -187zM215 -186q24 6 38.5 20t15.5 34q-9 -3 -18 -3q-17 0 -28.5 11.5t-11.5 31.5q0 21 12.5 33.5t32.5 12.5q25 0 38 -17.5t13 -47.5q0 -40 -22 -70t-70 -42v37z" />
    <glyph glyph-name="uni013C.ss02" horiz-adv-x="185" 
d="M125 0h-65v715h65v-715zM48 -186q24 6 38.5 20t15.5 34q-9 -3 -18 -3q-17 0 -28.5 11.5t-11.5 31.5q0 21 12.5 33.5t32.5 12.5q25 0 38 -17.5t13 -47.5q0 -40 -22 -70t-70 -42v37z" />
    <glyph glyph-name="uni0146.ss02" horiz-adv-x="525" 
d="M422 480.5q47 -41.5 47 -122.5v-358h-65v344q0 54 -28 87.5t-90 33.5q-47 0 -83.5 -20t-57 -52.5t-20.5 -70.5v-322h-65v510h65v-73h2q25 37 68.5 61t106.5 24q73 0 120 -41.5zM220 -186q24 6 38.5 20t15.5 34q-9 -3 -18 -3q-17 0 -28.5 11.5t-11.5 31.5q0 21 12.5 33.5
t32.5 12.5q25 0 38 -17.5t13 -47.5q0 -40 -22 -70t-70 -42v37z" />
    <glyph glyph-name="odieresis.ss02" horiz-adv-x="554" 
d="M146.5 20q-55.5 34 -85 94.5t-29.5 139.5t29.5 140t85 95t130.5 34t130.5 -34t85 -95t29.5 -140t-29.5 -139.5t-85 -94.5t-130.5 -34t-130.5 34zM408.5 102.5q45.5 59.5 45.5 151.5q0 93 -45.5 152.5t-131.5 59.5t-131.5 -59.5t-45.5 -152.5q0 -92 45.5 -151.5
t131.5 -59.5t131.5 59.5zM171 622q-12 13 -12 31q0 19 12 32t32 13q21 0 33 -13t12 -32q0 -18 -12 -31t-33 -13q-20 0 -32 13zM319 622q-12 13 -12 31q0 19 12 32t32 13q21 0 33 -13t12 -32q0 -18 -12 -31t-33 -13q-20 0 -32 13z" />
    <glyph glyph-name="uni0157.ss02" horiz-adv-x="325" 
d="M316 519v-64q-15 3 -31 3q-45 0 -81.5 -22.5t-57.5 -62t-21 -88.5v-285h-65v510h65v-104h2q21 53 57.5 84.5t87.5 31.5q26 0 44 -3zM48 -186q24 6 38.5 20t15.5 34q-9 -3 -18 -3q-17 0 -28.5 11.5t-11.5 31.5q0 21 12.5 33.5t32.5 12.5q25 0 38 -17.5t13 -47.5
q0 -40 -22 -70t-70 -42v37z" />
    <glyph glyph-name="uni0219.ss02" horiz-adv-x="472" 
d="M85 37.5q-59 50.5 -61 129.5h68q3 -56 42 -89.5t115 -33.5q68 0 99 26.5t31 68.5q0 31 -16.5 49.5t-41.5 27.5t-66 18q-6 1 -23 5q-64 16 -101 30t-62.5 42t-25.5 74q0 63 48 100t133 37q94 0 145.5 -43.5t58.5 -111.5h-68q-20 98 -135 98q-55 0 -84.5 -20t-29.5 -56
q0 -27 16 -43t40.5 -25t66.5 -18l23 -6q61 -15 100 -30.5t65 -45.5t26 -80q0 -70 -53 -112t-147 -42q-104 0 -163 50.5zM198 -186q24 6 38.5 20t15.5 34q-9 -3 -18 -3q-17 0 -28.5 11.5t-11.5 31.5q0 21 12.5 33.5t32.5 12.5q25 0 38 -17.5t13 -47.5q0 -40 -22 -70t-70 -42
v37z" />
    <glyph glyph-name="uni021B.ss02" horiz-adv-x="280" 
d="M256 453h-103v-322q0 -47 13 -62.5t51 -15.5q9 0 39 2v-55q-27 -4 -48 -4q-61 0 -90.5 29t-29.5 107v321h-75v57h75v170h65v-170h103v-57zM145 -173q24 6 38.5 20t15.5 34q-9 -3 -18 -3q-17 0 -28.5 11.5t-11.5 31.5q0 21 12.5 33.5t32.5 12.5q25 0 38 -17.5t13 -47.5
q0 -40 -22 -70t-70 -42v37z" />
    <glyph glyph-name="udieresis.ss02" horiz-adv-x="525" 
d="M400 510h65v-510h-65v72h-2q-25 -36 -68.5 -60t-106.5 -24q-73 0 -120 41.5t-47 122.5v358h65v-344q0 -54 28 -87.5t90 -33.5q47 0 83.5 20t57 52.5t20.5 70.5v322zM147 621q-12 13 -12 31q0 19 12 32t32 13q21 0 33 -13t12 -32q0 -18 -12 -31t-33 -13q-20 0 -32 13z
M295 621q-12 13 -12 31q0 19 12 32t32 13q21 0 33 -13t12 -32q0 -18 -12 -31t-33 -13q-20 0 -32 13z" />
    <glyph glyph-name="wdieresis.ss02" horiz-adv-x="737" 
d="M247 0h-72l-162 510h72l127 -436h2l119 436h73l119 -436h2l128 436h70l-163 -510h-73l-120 431h-2zM263 621q-12 13 -12 31q0 19 12 32t32 13q21 0 33 -13t12 -32q0 -18 -12 -31t-33 -13q-20 0 -32 13zM411 621q-12 13 -12 31q0 19 12 32t32 13q21 0 33 -13t12 -32
q0 -18 -12 -31t-33 -13q-20 0 -32 13z" />
    <glyph glyph-name="ydieresis.ss02" horiz-adv-x="481" 
d="M56 -175v56q23 -3 39 -3q38 0 66.5 29t48.5 96l-206 507h72l166 -425h2l158 425h70l-204 -525q-36 -93 -73 -128.5t-90 -35.5q-21 0 -49 4zM132 621q-12 13 -12 31q0 19 12 32t32 13q21 0 33 -13t12 -32q0 -18 -12 -31t-33 -13q-20 0 -32 13zM280 621q-12 13 -12 31
q0 19 12 32t32 13q21 0 33 -13t12 -32q0 -18 -12 -31t-33 -13q-20 0 -32 13z" />
    <glyph glyph-name="zdotaccent.ss02" horiz-adv-x="441" 
d="M422 0h-404v50l303 401v2h-287v57h377v-41l-309 -410v-2h320v-57zM187 621.5q-12 12.5 -12 31.5t12 31.5t32 12.5q21 0 33 -12.5t12 -31.5t-12 -31.5t-33 -12.5q-20 0 -32 12.5z" />
    <glyph glyph-name="i.latn_TRK.ss02" horiz-adv-x="185" 
d="M60 621.5q-12 12.5 -12 31.5t12 31.5t33 12.5q20 0 32.5 -12.5t12.5 -31.5t-12.5 -31.5t-32.5 -12.5q-21 0 -33 12.5zM125 0h-65v510h65v-510z" />
    <glyph glyph-name="adieresis.ss01.ss02" horiz-adv-x="557" 
d="M431 510h65v-510h-65v83h-2q-25 -42 -67.5 -69t-104.5 -27t-113.5 32.5t-81 93t-29.5 142.5q0 81 29.5 141.5t81 93t113.5 32.5q63 0 105 -26.5t67 -71.5h2v86zM351.5 70q37.5 26 58.5 73.5t21 111.5q0 63 -21 110.5t-58.5 73.5t-86.5 26q-51 0 -88.5 -28t-56.5 -76
t-19 -106q0 -90 43.5 -150.5t120.5 -60.5q49 0 86.5 26zM166 621q-12 13 -12 31q0 19 12 32t32 13q21 0 33 -13t12 -32q0 -18 -12 -31t-33 -13q-20 0 -32 13zM314 621q-12 13 -12 31q0 19 12 32t32 13q21 0 33 -13t12 -32q0 -18 -12 -31t-33 -13q-20 0 -32 13z" />
    <glyph glyph-name="s_s" horiz-adv-x="946" 
d="M85.5 35.5q-58.5 48.5 -61.5 131.5h68q3 -51 39 -87t116 -36q68 0 100 27t32 69q0 32 -17.5 50t-44.5 27t-85 22q-61 15 -98 29t-64 43t-27 77q0 62 46.5 98t130.5 36q77 0 129.5 -31.5t89.5 -89t75 -150.5q33 -80 55.5 -120t59.5 -63.5t98 -23.5q68 0 97 26t29 67
q0 32 -16.5 51t-41.5 28t-67 18l-22 5q-62 15 -99.5 29.5t-63.5 42.5t-26 74q0 63 48 100t133 37q94 0 145.5 -43.5t58.5 -111.5h-68q-10 43 -39.5 70.5t-96.5 27.5q-54 0 -83.5 -20t-29.5 -56q0 -27 15 -42.5t38 -23.5t66 -19l27 -7q62 -15 100 -30t64 -45.5t26 -82.5
q0 -70 -50 -111t-141 -41q-78 0 -125.5 30.5t-76 80.5t-67.5 146q-49 123 -104.5 172t-135.5 49q-54 0 -82 -19t-28 -55q0 -27 15.5 -43.5t39.5 -25t69 -19.5l23 -6q60 -15 99 -30.5t65 -46t26 -79.5q0 -71 -53.5 -112.5t-147.5 -41.5q-103 0 -161.5 48.5z" />
    <glyph glyph-name="w_w_w" horiz-adv-x="2084" 
d="M1875 74l127 436h70l-162 -510h-73l-120 431h-2l-120 -431h-73l-143 450l-143 -450h-73l-121 431h-2l-119 -431h-73l-143 450l-144 -450h-72l-121 431h-2l-119 -431h-73l-162 510h72l127 -436h2l119 436h73l119 -436h2l128 436h104l127 -436h2l119 436h73l119 -436h2
l128 436h104l127 -436h2l119 436h73l120 -436h2z" />
    <glyph glyph-name="f_f_i.ss02" horiz-adv-x="685" 
d="M91 0v453h-72v57h72v75q0 79 29 107.5t88 28.5q18 0 49 -4v-55q-36 2 -40 2q-25 0 -38 -6.5t-18 -23t-5 -48.5v-76h173v75q0 79 29 107.5t88 28.5q18 0 49 -4v-55q-36 2 -40 2q-25 0 -38 -6.5t-18 -23t-5 -48.5v-76h101v-57h-101v-453h-65v453h-173v-453h-65zM560 621.5
q-12 12.5 -12 31.5t12 31.5t33 12.5q20 0 32.5 -12.5t12.5 -31.5t-12.5 -31.5t-32.5 -12.5q-21 0 -33 12.5zM625 0h-65v510h65v-510z" />
    <glyph glyph-name="f_i.ss02" horiz-adv-x="446" 
d="M179 657.5q-13 -6.5 -18 -23t-5 -48.5v-76h101v-57h-101v-453h-65v453h-72v57h72v75q0 79 29 107.5t88 28.5q18 0 49 -4v-55q-36 2 -40 2q-25 0 -38 -6.5zM321 621.5q-12 12.5 -12 31.5t12 31.5t33 12.5q20 0 32.5 -12.5t12.5 -31.5t-12.5 -31.5t-32.5 -12.5
q-21 0 -33 12.5zM386 0h-65v510h65v-510z" />
    <glyph glyph-name="zero.zero" horiz-adv-x="615" 
d="M453.5 656.5q58.5 -47.5 86.5 -128.5t28 -183t-28 -182.5t-86.5 -128t-146.5 -47.5q-130 0 -195 100t-65 258t65 258.5t195 100.5q88 0 146.5 -47.5zM137.5 209q14.5 -61 46.5 -100l202 512q-36 19 -79 19q-96 0 -140 -82.5t-44 -212.5q0 -75 14.5 -136zM447.5 133
q44.5 82 44.5 212q0 157 -57 232l-201 -510q34 -16 73 -16q96 0 140.5 82z" />
    <glyph glyph-name="zero.slash" horiz-adv-x="615" 
d="M453.5 656.5q58.5 -47.5 86.5 -128.5t28 -183t-28 -182.5t-86.5 -128t-146.5 -47.5q-130 0 -195 100t-65 258t65 258.5t195 100.5q88 0 146.5 -47.5zM137.5 209q14.5 -61 46.5 -100l202 512q-36 19 -79 19q-96 0 -140 -82.5t-44 -212.5q0 -75 14.5 -136zM447.5 133
q44.5 82 44.5 212q0 157 -57 232l-201 -510q34 -16 73 -16q96 0 140.5 82z" />
    <glyph glyph-name="zero.tf" horiz-adv-x="670" 
d="M140 87q-65 100 -65 258t65 258.5t195 100.5q88 0 146.5 -47.5t86.5 -128.5t28 -183t-28 -182.5t-86.5 -128t-146.5 -47.5q-130 0 -195 100zM475.5 133q44.5 82 44.5 212q0 131 -44.5 213t-140.5 82t-140 -82.5t-44 -212.5t44 -212t140 -82t140.5 82z" />
    <glyph glyph-name="one.tf" horiz-adv-x="670" 
d="M385 64h150v-64h-359v64h136v481q-23 -24 -56.5 -32t-86.5 -8v61q60 1 92.5 14.5t46.5 39.5t18 71h59v-627z" />
    <glyph glyph-name="two.tf" horiz-adv-x="670" 
d="M92 0q0 179 204 293l29 16q66 38 98 60.5t50 53.5t18 77q0 59 -33 99.5t-106 40.5q-85 0 -125 -51t-40 -131h-75q0 69 27 124.5t81 88.5t133 33q60 0 108.5 -24t77 -70t28.5 -109q0 -61 -28 -105.5t-69 -75t-107 -67.5q-59 -34 -92 -56.5t-59.5 -55t-32.5 -75.5v-2h381
v-64h-468z" />
    <glyph glyph-name="three.tf" horiz-adv-x="670" 
d="M148 51.5q-70 64.5 -70 179.5h76q0 -84 45 -132t140 -48q168 0 168 140q0 72 -44.5 105t-106.5 33h-74v64h70q58 0 93.5 32t35.5 92q0 52 -34.5 87.5t-103.5 35.5q-95 0 -132.5 -43.5t-37.5 -109.5h-76q0 97 63.5 157t182.5 60q57 0 106 -22.5t78.5 -65t29.5 -99.5
q0 -56 -27 -92.5t-81 -58.5v-2q68 -21 101 -65.5t33 -107.5q0 -96 -65 -150t-174 -54q-126 0 -196 64.5z" />
    <glyph glyph-name="four.tf" horiz-adv-x="670" 
d="M490 0h-72v168h-338v64l338 459h72v-459h98v-64h-98v-168zM418 588l-263 -356h263v356z" />
    <glyph glyph-name="five.tf" horiz-adv-x="670" 
d="M206 16q-54 29 -82 76.5t-30 102.5h75q6 -64 45.5 -104t117.5 -40q76 0 122 47t46 136q0 82 -43 122t-116 40q-53 0 -94 -20t-65 -53h-78l73 368h363v-64h-304l-47 -231v-2q58 66 168 66q65 0 114.5 -29.5t77 -81t27.5 -115.5q0 -73 -31 -129t-86 -87t-124 -31
q-75 0 -129 29z" />
    <glyph glyph-name="six.tf" horiz-adv-x="670" 
d="M155.5 78q-61.5 91 -61.5 259q0 175 67 271t192 96q59 0 105 -24.5t73 -66.5t32 -94h-75q-6 57 -41 89t-94 32q-100 0 -143 -80t-43 -213v-20l1 -1q23 60 75.5 91.5t116.5 31.5q65 0 115.5 -28.5t78.5 -80t28 -118.5q0 -65 -28.5 -119t-81.5 -85t-125 -31
q-130 0 -191.5 91zM464.5 96q41.5 45 41.5 122q0 78 -41 122.5t-111 44.5q-48 0 -87.5 -21t-62 -60t-22.5 -93q0 -69 43.5 -114.5t121.5 -45.5q76 0 117.5 45z" />
    <glyph glyph-name="seven.tf" horiz-adv-x="670" 
d="M202 0q0 108 37 228.5t101 226t140 170.5v2h-387v64h470v-56q-89 -72 -153.5 -180t-98 -227.5t-33.5 -227.5h-76z" />
    <glyph glyph-name="eight.tf" horiz-adv-x="670" 
d="M206.5 10.5q-57.5 23.5 -91 70t-33.5 112.5q0 122 133 176v2q-44 22 -71.5 59t-27.5 91q0 85 61 134t158 49t158 -49t61 -134q0 -54 -27.5 -91t-71.5 -59v-2q133 -55 133 -176q0 -66 -33.5 -112.5t-91 -70t-128.5 -23.5t-128.5 23.5zM439.5 432.5q38.5 30.5 38.5 88.5
t-38.5 88.5t-104.5 30.5t-104.5 -30.5t-38.5 -88.5t38.5 -88.5t104.5 -30.5t104.5 30.5zM463.5 89q48.5 38 48.5 107q0 66 -48.5 104t-128.5 38t-128.5 -38t-48.5 -104q0 -69 48.5 -107t128.5 -38t128.5 38z" />
    <glyph glyph-name="nine.tf" horiz-adv-x="670" 
d="M212.5 11.5q-46.5 24.5 -73.5 66.5t-32 94h75q7 -57 41.5 -89t94.5 -32q100 0 143 80t43 213v20l-2 1q-23 -60 -75 -91.5t-116 -31.5q-66 0 -116.5 28.5t-78.5 80t-28 118.5q0 65 28.5 119t82 85t124.5 31q253 0 253 -350q0 -175 -67 -271t-191 -96q-59 0 -105.5 24.5z
M439.5 353.5q48.5 46.5 48.5 126.5q0 70 -43.5 115t-121.5 45q-75 0 -117 -45.5t-42 -121.5q0 -77 41 -121.5t111 -44.5q75 0 123.5 46.5z" />
    <glyph glyph-name="zero.tf.zero" horiz-adv-x="670" 
d="M481.5 656.5q58.5 -47.5 86.5 -128.5t28 -183t-28 -182.5t-86.5 -128t-146.5 -47.5q-130 0 -195 100t-65 258t65 258.5t195 100.5q88 0 146.5 -47.5zM165.5 209q14.5 -61 46.5 -100l202 512q-36 19 -79 19q-96 0 -140 -82.5t-44 -212.5q0 -75 14.5 -136zM475.5 133
q44.5 82 44.5 212q0 157 -57 232l-201 -510q34 -16 73 -16q96 0 140.5 82z" />
    <glyph glyph-name="zero.dnom" horiz-adv-x="386" 
d="M70.5 52q-41.5 60 -41.5 151t41.5 151t122.5 60t122.5 -60t41.5 -151t-41.5 -151t-122.5 -60t-122.5 60zM268 87q23 43 23 116t-23 116.5t-75 43.5q-51 0 -74.5 -44t-23.5 -116q0 -73 23 -116t75 -43t75 43z" />
    <glyph glyph-name="one.dnom" horiz-adv-x="210" 
d="M97 303q-13 -12 -34 -16t-51 -4v51q48 1 71.5 18t24.5 54h53v-406h-64v303z" />
    <glyph glyph-name="two.dnom" horiz-adv-x="341" 
d="M21 0q0 52 25.5 89.5t75.5 70.5l33 21q48 30 70 52.5t22 58.5q0 31 -17 50.5t-53 19.5q-42 0 -63 -25.5t-21 -70.5h-62q0 64 38 106.5t110 42.5q60 0 97 -31.5t37 -87.5q0 -36 -15.5 -62.5t-37.5 -44.5t-62 -44q-42 -26 -64 -45t-29 -46v-2h205v-52h-289z" />
    <glyph glyph-name="three.dnom" horiz-adv-x="361" 
d="M65.5 30.5q-42.5 38.5 -42.5 108.5h63q0 -95 96 -95q42 0 63 18.5t21 52.5q0 37 -23.5 54.5t-59.5 17.5h-35v49h33q34 0 53 15.5t19 46.5q0 29 -18 46.5t-53 17.5q-44 0 -64 -21t-20 -56h-63q0 58 39.5 94t110.5 36q55 0 94 -30t39 -81q0 -63 -62 -89v-1q76 -24 76 -101
q0 -57 -40 -89t-106 -32q-78 0 -120.5 38.5z" />
    <glyph glyph-name="four.dnom" horiz-adv-x="357" 
d="M277 0h-63v94h-193v60l193 252h63v-259h59v-53h-59v-94zM214 330l-139 -183h139v183z" />
    <glyph glyph-name="five.dnom" horiz-adv-x="351" 
d="M65.5 27.5q-40.5 35.5 -42.5 90.5h65q2 -33 24 -53.5t61 -20.5t62.5 24.5t23.5 69.5q0 42 -22 64t-61 22q-25 0 -47 -10t-36 -28h-61l43 220h229v-52h-181l-24 -116v-1q36 36 94 36q59 0 95 -38t36 -98q0 -67 -41 -106t-106 -39q-71 0 -111.5 35.5z" />
    <glyph glyph-name="six.dnom" horiz-adv-x="365" 
d="M69 47q-38 55 -38 151q0 105 42 161t118 56q55 0 91.5 -31t42.5 -79h-65q-3 28 -21 43.5t-48 15.5q-96 0 -96 -145v-9h1q15 28 43 43.5t63 15.5q60 0 97.5 -38t37.5 -98q0 -61 -40 -101t-106 -40q-84 0 -122 55zM251 67q23 24 23 63q0 41 -22.5 64.5t-60.5 23.5
q-39 0 -64 -24.5t-25 -65.5q0 -37 23 -61t63 -24t63 24z" />
    <glyph glyph-name="seven.dnom" horiz-adv-x="307" 
d="M73 0q0 96 42.5 197t106.5 156v1h-215v52h285v-47q-74 -59 -113.5 -158.5t-39.5 -200.5h-66z" />
    <glyph glyph-name="eight.dnom" horiz-adv-x="366" 
d="M71.5 24q-44.5 32 -44.5 90q0 72 79 104v1q-60 29 -60 88q0 50 39 79t98 29q60 0 98.5 -29t38.5 -79q0 -57 -59 -88v-1q78 -33 78 -104q0 -58 -44 -90t-112 -32q-67 0 -111.5 32zM238.5 256.5q20.5 16.5 20.5 46.5t-20.5 47t-55.5 17t-56 -17t-21 -47t20.5 -46.5
t56.5 -16.5q35 0 55.5 16.5zM250 63q25 21 25 56q0 34 -25 54.5t-67 20.5t-67 -20.5t-25 -54.5q0 -35 25.5 -56t66.5 -21q42 0 67 21z" />
    <glyph glyph-name="nine.dnom" horiz-adv-x="363" 
d="M82.5 23q-36.5 31 -43.5 79h65q3 -26 20.5 -43t48.5 -17q51 0 74 38.5t23 104.5v12h-1q-15 -28 -43.5 -44t-63.5 -16q-60 0 -97 38t-37 98q0 62 39.5 102t106.5 40q82 0 120.5 -55.5t38.5 -150.5q0 -104 -42 -160.5t-118 -56.5q-54 0 -90.5 31zM238.5 213
q25.5 25 25.5 66q0 37 -23.5 61t-64.5 24q-40 0 -62.5 -24t-22.5 -64t22.5 -64t59.5 -24q40 0 65.5 25z" />
    <glyph glyph-name="zero.numr" horiz-adv-x="386" 
d="M70.5 362q-41.5 60 -41.5 151t41.5 151t122.5 60t122.5 -60t41.5 -151t-41.5 -151t-122.5 -60t-122.5 60zM268 397q23 43 23 116t-23 116.5t-75 43.5q-51 0 -74.5 -44t-23.5 -116q0 -73 23 -116t75 -43t75 43z" />
    <glyph glyph-name="one.numr" horiz-adv-x="210" 
d="M97 612q-13 -12 -34 -16t-51 -4v51q48 1 71.5 18t24.5 54h53v-406h-64v303z" />
    <glyph glyph-name="two.numr" horiz-adv-x="341" 
d="M21 310q0 52 25.5 89.5t75.5 70.5l33 21q48 30 70 52.5t22 58.5q0 31 -17 50.5t-53 19.5q-42 0 -63 -25.5t-21 -70.5h-62q0 64 38 106.5t110 42.5q60 0 97 -31.5t37 -87.5q0 -36 -15.5 -62.5t-37.5 -44.5t-62 -44q-42 -26 -64 -45t-29 -46v-2h205v-52h-289z" />
    <glyph glyph-name="three.numr" horiz-adv-x="361" 
d="M65.5 340.5q-42.5 38.5 -42.5 108.5h63q0 -95 96 -95q42 0 63 18.5t21 52.5q0 37 -23.5 54.5t-59.5 17.5h-35v49h33q34 0 53 15.5t19 46.5q0 29 -18 46.5t-53 17.5q-44 0 -64 -21t-20 -56h-63q0 58 39.5 94t110.5 36q55 0 94 -30t39 -81q0 -63 -62 -89v-1q76 -24 76 -101
q0 -57 -40 -89t-106 -32q-78 0 -120.5 38.5z" />
    <glyph glyph-name="four.numr" horiz-adv-x="357" 
d="M277 310h-63v94h-193v60l193 252h63v-259h59v-53h-59v-94zM214 640l-139 -183h139v183z" />
    <glyph glyph-name="five.numr" horiz-adv-x="351" 
d="M65.5 336.5q-40.5 35.5 -42.5 90.5h65q2 -33 24 -53.5t61 -20.5t62.5 24.5t23.5 69.5q0 42 -22 64t-61 22q-25 0 -47 -10t-36 -28h-61l43 220h229v-52h-181l-24 -116v-1q36 36 94 36q59 0 95 -38t36 -98q0 -67 -41 -106t-106 -39q-71 0 -111.5 35.5z" />
    <glyph glyph-name="six.numr" horiz-adv-x="365" 
d="M69 357q-38 55 -38 151q0 105 42 161t118 56q55 0 91.5 -31t42.5 -79h-65q-3 28 -21 43.5t-48 15.5q-96 0 -96 -145v-9h1q15 28 43 43.5t63 15.5q60 0 97.5 -38t37.5 -98q0 -61 -40 -101t-106 -40q-84 0 -122 55zM251 377q23 24 23 63q0 41 -22.5 64.5t-60.5 23.5
q-39 0 -64 -24.5t-25 -65.5q0 -37 23 -61t63 -24t63 24z" />
    <glyph glyph-name="seven.numr" horiz-adv-x="307" 
d="M73 309q0 96 42.5 197t106.5 156v1h-215v52h285v-47q-74 -59 -113.5 -158.5t-39.5 -200.5h-66z" />
    <glyph glyph-name="eight.numr" horiz-adv-x="366" 
d="M71.5 334q-44.5 32 -44.5 90q0 72 79 104v1q-60 29 -60 88q0 50 39 79t98 29q60 0 98.5 -29t38.5 -79q0 -57 -59 -88v-1q78 -33 78 -104q0 -58 -44 -90t-112 -32q-67 0 -111.5 32zM238.5 566.5q20.5 16.5 20.5 46.5t-20.5 47t-55.5 17t-56 -17t-21 -47t20.5 -46.5
t56.5 -16.5q35 0 55.5 16.5zM250 373q25 21 25 56q0 34 -25 54.5t-67 20.5t-67 -20.5t-25 -54.5q0 -35 25.5 -56t66.5 -21q42 0 67 21z" />
    <glyph glyph-name="nine.numr" horiz-adv-x="363" 
d="M82.5 332q-36.5 31 -43.5 79h65q3 -26 20.5 -43t48.5 -17q51 0 74 38.5t23 104.5v12h-1q-15 -28 -43.5 -44t-63.5 -16q-60 0 -97 38t-37 98q0 62 39.5 102t106.5 40q82 0 120.5 -55.5t38.5 -150.5q0 -104 -42 -160.5t-118 -56.5q-54 0 -90.5 31zM238.5 522
q25.5 25 25.5 66q0 37 -23.5 61t-64.5 24q-40 0 -62.5 -24t-22.5 -64t22.5 -64t59.5 -24q40 0 65.5 25z" />
    <glyph glyph-name="space.frac" horiz-adv-x="38" 
 />
    <glyph glyph-name="uni2007.tf" horiz-adv-x="670" 
 />
    <glyph glyph-name="periodcentered.case" horiz-adv-x="201" 
d="M142 311h-84v84h84v-84z" />
    <glyph glyph-name="bullet.case" horiz-adv-x="351" 
d="M271 263h-190v190h190v-190z" />
    <glyph glyph-name="period.ss02" horiz-adv-x="176" 
d="M53.5 8.5q-12.5 13.5 -12.5 32.5q0 20 12.5 33.5t34.5 13.5t34.5 -13.5t12.5 -33.5q0 -19 -12.5 -32.5t-34.5 -13.5t-34.5 13.5z" />
    <glyph glyph-name="comma.ss02" horiz-adv-x="172" 
d="M43 -72q24 9 38.5 26.5t14.5 43.5q-9 -3 -16 -3q-18 0 -30 12t-12 33q0 22 12.5 35t32.5 13q51 0 51 -70q0 -43 -23 -78t-68 -49v37z" />
    <glyph glyph-name="colon.ss02" horiz-adv-x="189" 
d="M60.5 313.5q-12.5 13.5 -12.5 32.5q0 20 12.5 33.5t34.5 13.5t34.5 -13.5t12.5 -33.5q0 -19 -12.5 -32.5t-34.5 -13.5t-34.5 13.5zM60.5 8.5q-12.5 13.5 -12.5 32.5q0 20 12.5 33.5t34.5 13.5t34.5 -13.5t12.5 -33.5q0 -19 -12.5 -32.5t-34.5 -13.5t-34.5 13.5z" />
    <glyph glyph-name="semicolon.ss02" horiz-adv-x="200" 
d="M66.5 313.5q-12.5 13.5 -12.5 32.5q0 20 12.5 33.5t34.5 13.5t34.5 -13.5t12.5 -33.5q0 -19 -12.5 -32.5t-34.5 -13.5t-34.5 13.5zM58 -72q24 9 38.5 26.5t14.5 43.5q-9 -3 -16 -3q-18 0 -30 12t-12 33q0 22 12.5 35t32.5 13q51 0 51 -70q0 -43 -23 -78t-68 -49v37z" />
    <glyph glyph-name="ellipsis.ss02" horiz-adv-x="544" 
d="M53.5 8.5q-12.5 13.5 -12.5 32.5q0 20 12.5 33.5t34.5 13.5t34.5 -13.5t12.5 -33.5q0 -19 -12.5 -32.5t-34.5 -13.5t-34.5 13.5zM237.5 8.5q-12.5 13.5 -12.5 32.5q0 20 12.5 33.5t34.5 13.5t34.5 -13.5t12.5 -33.5q0 -19 -12.5 -32.5t-34.5 -13.5t-34.5 13.5zM421.5 8.5
q-12.5 13.5 -12.5 32.5q0 20 12.5 33.5t34.5 13.5t34.5 -13.5t12.5 -33.5q0 -19 -12.5 -32.5t-34.5 -13.5t-34.5 13.5z" />
    <glyph glyph-name="exclam.ss02" horiz-adv-x="208" 
d="M124 184h-41l-17 315v216h75v-216zM69.5 8.5q-12.5 13.5 -12.5 32.5q0 20 12.5 33.5t34.5 13.5t34.5 -13.5t12.5 -33.5q0 -19 -12.5 -32.5t-34.5 -13.5t-34.5 13.5z" />
    <glyph glyph-name="exclamdown.ss02" horiz-adv-x="205" 
d="M68.5 509.5q-12.5 13.5 -12.5 32.5q0 20 12 33.5t34 13.5t34.5 -13.5t12.5 -33.5q0 -19 -12.5 -32.5t-34.5 -13.5q-21 0 -33.5 13.5zM140 -130h-75v216l17 315h41l17 -315v-216z" />
    <glyph glyph-name="question.ss02" horiz-adv-x="477" 
d="M175 180q0 62 15 102.5t38 66.5t65 60q35 29 51.5 44.5t28.5 39t12 55.5q0 53 -35.5 84t-99.5 31q-73 0 -117 -42.5t-44 -129.5h-73q0 68 27 121.5t79.5 84.5t125.5 31q95 0 152.5 -49t57.5 -130q0 -41 -15.5 -72t-35.5 -50t-58 -50q-41 -34 -58.5 -53t-30 -53.5
t-12.5 -90.5h-73zM180.5 8.5q-12.5 13.5 -12.5 32.5q0 20 12.5 33.5t34.5 13.5t34 -13.5t12 -33.5q0 -19 -12.5 -32.5t-33.5 -13.5q-22 0 -34.5 13.5z" />
    <glyph glyph-name="questiondown.ss02" horiz-adv-x="478" 
d="M228.5 509.5q-12.5 13.5 -12.5 32.5q0 20 12.5 33.5t34.5 13.5t34 -13.5t12 -33.5q0 -19 -12.5 -32.5t-33.5 -13.5q-22 0 -34.5 13.5zM76.5 -95q-57.5 49 -57.5 130q0 41 15.5 71.5t35 49.5t58.5 51q41 35 59 53.5t30.5 53t12.5 90.5h72q0 -61 -15 -102t-38 -67t-65 -60
q-5 -4 -34.5 -28.5t-43.5 -51.5t-14 -59q0 -53 35.5 -84t99.5 -31q73 0 117 42.5t44 129.5h73q0 -68 -27 -121.5t-79.5 -84.5t-125.5 -31q-95 0 -152.5 49z" />
    <glyph glyph-name="periodcentered.ss02" horiz-adv-x="194" 
d="M62.5 217.5q-12.5 13.5 -12.5 32.5q0 20 12.5 33.5t34.5 13.5t34.5 -13.5t12.5 -33.5q0 -19 -12.5 -32.5t-34.5 -13.5t-34.5 13.5z" />
    <glyph glyph-name="bullet.ss02" horiz-adv-x="352" 
d="M105 229q-28 28 -28 72q0 43 27.5 70.5t71.5 27.5t71.5 -27.5t27.5 -70.5q0 -44 -28 -72t-71 -28t-71 28z" />
    <glyph glyph-name="periodcentered.case.ss02" horiz-adv-x="205" 
d="M68.5 319.5q-12.5 13.5 -12.5 32.5q0 20 12.5 33.5t34.5 13.5t34.5 -13.5t12.5 -33.5q0 -19 -12.5 -32.5t-34.5 -13.5t-34.5 13.5z" />
    <glyph glyph-name="bullet.case.ss02" horiz-adv-x="342" 
d="M100 283q-28 28 -28 72q0 43 27.5 70.5t71.5 27.5t71.5 -27.5t27.5 -70.5q0 -44 -28 -72t-71 -28t-71 28z" />
    <glyph glyph-name="hyphen.case" horiz-adv-x="363" 
d="M315 326h-268v64h268v-64z" />
    <glyph glyph-name="uni00AD.case" horiz-adv-x="363" 
d="M315 326h-268v64h268v-64z" />
    <glyph glyph-name="endash.case" horiz-adv-x="595" 
d="M547 326h-500v64h500v-64z" />
    <glyph glyph-name="emdash.case" horiz-adv-x="1095" 
d="M1048 326h-1000v65h1000v-65z" />
    <glyph glyph-name="parenleft.case" horiz-adv-x="260" 
d="M179 -78q-60 84 -98.5 195.5t-38.5 238.5q0 131 38 242.5t99 195.5h59q-59 -102 -91 -205.5t-32 -232.5q0 -126 32 -229t91 -205h-59z" />
    <glyph glyph-name="parenright.case" horiz-adv-x="260" 
d="M22 -78q59 102 91 205.5t32 232.5q0 126 -32 229t-91 205h59q60 -84 98.5 -195.5t38.5 -238.5q0 -131 -38 -242.5t-99 -195.5h-59z" />
    <glyph glyph-name="braceleft.case" horiz-adv-x="288" 
d="M241 -78q-55 0 -87 16.5t-46.5 57t-14.5 115.5v118q0 45 -15.5 71t-49.5 26v64q34 -1 49.5 25t15.5 71v123q0 74 14.5 114t46 55.5t87.5 15.5h17v-64h-17q-41 0 -58.5 -24t-17.5 -88v-152q0 -40 -15.5 -65.5t-44.5 -41.5v-2q29 -16 44.5 -41.5t15.5 -66.5v-147
q0 -66 17.5 -91t58.5 -25h17v-64h-17z" />
    <glyph glyph-name="braceright.case" horiz-adv-x="288" 
d="M30 -78v64h16q42 0 59 24t17 88v152q0 40 15.5 65.5t44.5 41.5v2q-29 16 -44.5 41.5t-15.5 66.5v147q0 67 -17 91.5t-59 24.5h-16v64h16q56 0 87.5 -16.5t46.5 -57.5t15 -115v-118q0 -45 15.5 -71t48.5 -26v-64q-33 1 -48.5 -25t-15.5 -71v-123q0 -74 -15 -114
t-46.5 -55.5t-87.5 -15.5h-16z" />
    <glyph glyph-name="bracketleft.case" horiz-adv-x="277" 
d="M252 -78h-175v872h175v-64h-103v-744h103v-64z" />
    <glyph glyph-name="bracketright.case" horiz-adv-x="277" 
d="M201 -78h-175v64h102v744h-102v64h175v-872z" />
    <glyph glyph-name="guillemotleft.case" horiz-adv-x="477" 
d="M248 234v-76l-196 161v78l196 160v-75l-157 -123v-2zM415 234v-76l-195 161v78l195 160v-75l-157 -123v-2z" />
    <glyph glyph-name="guillemotright.case" horiz-adv-x="477" 
d="M257 318l-196 -160v75l157 124v2l-157 123v75l196 -160v-79zM425 318l-196 -160v75l157 124v2l-157 123v75l196 -160v-79z" />
    <glyph glyph-name="guilsinglleft.case" horiz-adv-x="309" 
d="M248 234v-76l-196 161v78l196 160v-75l-157 -123v-2z" />
    <glyph glyph-name="guilsinglright.case" horiz-adv-x="309" 
d="M257 318l-196 -160v75l157 124v2l-157 123v75l196 -160v-79z" />
    <glyph glyph-name="quotesinglbase.ss02" horiz-adv-x="172" 
d="M43 -72q24 9 38.5 26.5t14.5 43.5q-9 -3 -16 -3q-18 0 -30 12t-12 33q0 22 12.5 35t32.5 13q51 0 51 -70q0 -43 -23 -78t-68 -49v37z" />
    <glyph glyph-name="quotedblbase.ss02" horiz-adv-x="306" 
d="M177 -72q24 9 38.5 26.5t14.5 43.5q-9 -3 -16 -3q-18 0 -30 12t-12 33q0 22 12.5 35t32.5 13q51 0 51 -70q0 -43 -23 -78t-68 -49v37zM43 -72q24 9 38.5 26.5t14.5 43.5q-9 -3 -16 -3q-18 0 -30 12t-12 33q0 22 12.5 35t32.5 13q51 0 51 -70q0 -43 -23 -78t-68 -49v37z
" />
    <glyph glyph-name="quotedblleft.ss02" horiz-adv-x="308" 
d="M35 585q0 46 24.5 82.5t72.5 51.5v-40q-26 -9 -41.5 -27.5t-16.5 -46.5q9 3 19 3q18 0 30.5 -12t12.5 -33q0 -24 -13 -38t-34 -14q-54 0 -54 74zM169 585q0 46 24.5 82.5t72.5 51.5v-40q-26 -9 -41.5 -27.5t-16.5 -46.5q9 3 19 3q18 0 30.5 -12t12.5 -33q0 -24 -13 -38
t-34 -14q-54 0 -54 74z" />
    <glyph glyph-name="quotedblright.ss02" horiz-adv-x="310" 
d="M49 551q25 9 40.5 27.5t15.5 46.5q-9 -3 -18 -3q-18 0 -30.5 12t-12.5 34q0 23 13 37t34 14q54 0 54 -74q0 -45 -24.5 -82t-71.5 -52v40zM182 551q25 9 40.5 27.5t16.5 46.5q-9 -3 -18 -3q-19 0 -31.5 12t-12.5 34q0 23 13 37t35 14q54 0 54 -74q0 -46 -24.5 -82.5
t-72.5 -51.5v40z" />
    <glyph glyph-name="quoteleft.ss02" horiz-adv-x="175" 
d="M35 585q0 46 24.5 82.5t72.5 51.5v-40q-26 -9 -41.5 -27.5t-16.5 -46.5q9 3 19 3q18 0 30.5 -12t12.5 -33q0 -24 -13 -38t-34 -14q-54 0 -54 74z" />
    <glyph glyph-name="quoteright.ss02" horiz-adv-x="177" 
d="M49 551q25 9 40.5 27.5t15.5 46.5q-9 -3 -18 -3q-18 0 -30.5 12t-12.5 34q0 23 13 37t34 14q54 0 54 -74q0 -45 -24.5 -82t-71.5 -52v40z" />
    <glyph glyph-name="uni2219.ss02" horiz-adv-x="290" 
d="M111.5 315.5q-12.5 13.5 -12.5 32.5q0 20 12.5 33.5t34.5 13.5t34.5 -13.5t12.5 -33.5q0 -19 -12.5 -32.5t-34.5 -13.5t-34.5 13.5z" />
    <glyph glyph-name="divide.ss02" horiz-adv-x="542" 
d="M236.5 458.5q-12.5 13.5 -12.5 32.5q0 20 12.5 33.5t34.5 13.5t34.5 -13.5t12.5 -33.5q0 -19 -12.5 -32.5t-34.5 -13.5t-34.5 13.5zM236.5 130.5q-12.5 13.5 -12.5 32.5q0 20 12.5 33.5t34.5 13.5t34.5 -13.5t12.5 -33.5q0 -19 -12.5 -32.5t-34.5 -13.5t-34.5 13.5z
M493 295h-443v64h443v-64z" />
    <glyph glyph-name="brevecombcy" 
d="M75.5 621q-33.5 33 -35.5 94h50q8 -78 74 -78q67 0 73 78h51q-3 -60 -36 -93.5t-88 -33.5t-88.5 33z" />
    <glyph glyph-name="uni030C.alt" 
d="M79 527h-51l24 188h77z" />
    <glyph glyph-name="uni0308.ss02" 
d="M51 621q-12 13 -12 31q0 19 12 32t32 13q21 0 33 -13t12 -32q0 -18 -12 -31t-33 -13q-20 0 -32 13zM199 621q-12 13 -12 31q0 19 12 32t32 13q21 0 33 -13t12 -32q0 -18 -12 -31t-33 -13q-20 0 -32 13z" />
    <glyph glyph-name="uni0307.ss02" 
d="M49 621.5q-12 12.5 -12 31.5t12 31.5t32 12.5q21 0 33 -12.5t12 -31.5t-12 -31.5t-33 -12.5q-20 0 -32 12.5z" />
    <glyph glyph-name="uni0312.ss02" 
d="M46.5 616q-13.5 17 -13.5 47q0 38 21.5 67t65.5 43v-36q-49 -14 -49 -61q11 3 19 3q17 0 28 -9.5t11 -28.5q0 -20 -12 -31t-32 -11q-25 0 -38.5 17z" />
    <glyph glyph-name="uni0326.ss02" 
d="M37 -186q24 6 38.5 20t15.5 34q-9 -3 -18 -3q-17 0 -28.5 11.5t-11.5 31.5q0 21 12.5 33.5t32.5 12.5q25 0 38 -17.5t13 -47.5q0 -40 -22 -70t-70 -42v37z" />
    <glyph glyph-name="dieresis.ss02" horiz-adv-x="320" 
d="M51.5 620.5q-12.5 13.5 -12.5 32.5q0 20 12.5 33.5t34.5 13.5t34.5 -13.5t12.5 -33.5q0 -19 -12.5 -32.5t-34.5 -13.5t-34.5 13.5zM199.5 620.5q-12.5 13.5 -12.5 32.5q0 20 12.5 33.5t34.5 13.5t34.5 -13.5t12.5 -33.5q0 -19 -12.5 -32.5t-34.5 -13.5t-34.5 13.5z" />
    <glyph glyph-name="dotaccent.ss02" 
d="M49 621.5q-12 12.5 -12 31.5t12 31.5t32 12.5q21 0 33 -12.5t12 -31.5t-12 -31.5t-33 -12.5q-20 0 -32 12.5z" />
    <glyph glyph-name="logo" horiz-adv-x="724" 
d="M665 322q13 -24 13 -50q0 -44 -31 -75t-75 -31q-3 0 -8 0.5t-8 -0.5l1 -15q2 -26 -12 -50.5t-39 -40t-55 -15.5q-27 0 -50.5 13t-38.5 35q-15 -22 -38.5 -35t-50.5 -13q-30 0 -55 15.5t-39 40t-12 50.5l1 15q-3 1 -8 0.5t-8 -0.5q-44 0 -75 31t-31 75q0 26 13 50t35 38
q-22 14 -35 38t-13 50q0 44 31 75t75 31q3 0 8 -0.5t8 0.5l-1 15q-2 26 12 50.5t39 40t55 15.5q27 0 50.5 -13t38.5 -35q15 22 38.5 35t50.5 13q30 0 55 -15.5t39 -40t12 -50.5l-1 -15q3 -1 8 -0.5t8 0.5q44 0 75 -31t31 -75q0 -26 -13 -50t-35 -38q22 -14 35 -38zM98.5 397
q19.5 -21 47.5 -21h162q15 0 26 11t11 26v162q0 28 -21.5 47.5t-49.5 19.5q-19 0 -35.5 -10t-26.5 -27q-9 -15 -9 -34q0 -17 9 -34q11 -17 23 -25q8 2 13 2q17 0 29 -12.5t12 -29.5t-12 -29t-29 -12t-29.5 12t-12.5 29q0 2 3 14q-10 15 -25.5 23.5t-33.5 8.5q-29 0 -50 -21
t-21 -50t19.5 -50zM379 413q0 -15 11 -26t26 -11h162q28 0 47.5 21t19.5 50t-21 50t-50 21q-18 0 -33.5 -8.5t-25.5 -23.5q3 -12 3 -14q0 -17 -12.5 -29t-29.5 -12t-29 12t-12 29t12 29.5t29 12.5q5 0 13 -2q12 8 23 25q9 17 9 34q0 19 -9 34q-10 17 -26.5 27t-35.5 10
q-28 0 -49.5 -19.5t-21.5 -47.5v-162zM345 307q0 15 -11 26t-26 11h-162q-28 0 -47.5 -21t-19.5 -50t21 -50t50 -21q18 0 33.5 8.5t25.5 23.5q-3 12 -3 14q0 17 12.5 29t29.5 12t29 -12t12 -29t-12 -29.5t-29 -12.5q-5 0 -13 2q-12 -8 -23 -25q-9 -16 -9 -34q0 -19 9 -34
q10 -17 26.5 -27t35.5 -10q28 0 49.5 19.5t21.5 47.5v162zM624 223q21 21 21 50t-19.5 50t-47.5 21h-162q-15 0 -26 -11t-11 -26v-162q0 -28 21.5 -47.5t49.5 -19.5q19 0 35.5 10t26.5 27q9 15 9 34q0 17 -9 34q-10 17 -23 25q-8 -2 -13 -2q-17 0 -29 12.5t-12 29.5t12 29
t29 12t29.5 -12t12.5 -29q0 -2 -3 -14q10 -15 25.5 -23.5t33.5 -8.5q29 0 50 21z" />
    </font>
</defs>
</svg>
