<?xml version="1.0" standalone="no"?>
<!DOCTYPE svg PUBLIC "-//W3C//DTD SVG 1.1//EN" "http://www.w3.org/Graphics/SVG/1.1/DTD/svg11.dtd" >
<svg xmlns="http://www.w3.org/2000/svg" xmlns:xlink="http://www.w3.org/1999/xlink" version="1.1">
<metadata>
Created by FontForge 20201107 at Mon Sep  5 16:39:32 2022
 By 
Copyright by Pangram Pangram Foundry. All rights reserved.
</metadata>
<defs>
<font id="PPNeueMontreal-SemiBolditalic" horiz-adv-x="567" >
  <font-face 
    font-family="PP Neue Montreal SemiBold"
    font-weight="600"
    font-style="italic"
    font-stretch="normal"
    units-per-em="1000"
    panose-1="0 0 7 0 0 0 0 0 0 0"
    ascent="800"
    descent="-200"
    x-height="511"
    cap-height="715"
    bbox="-228 -270 2241 961"
    underline-thickness="103"
    underline-position="-30"
    slope="-11"
    unicode-range="U+000D-1F150"
  />
<missing-glyph horiz-adv-x="654" 
 />
    <glyph glyph-name="f_f" unicode="ff" horiz-adv-x="616" 
d="M39 0l80 406h-70l21 105h69l9 46q18 90 59 128t117 38q39 0 83 -9l-20 -101q-20 4 -36 4q-34 0 -47.5 -17t-21.5 -60l-6 -29h152l9 46q17 90 58.5 128t117.5 38q39 0 83 -9l-21 -101q-20 4 -35 4q-34 0 -48 -17t-22 -60l-5 -29h91l-21 -105h-91l-79 -406h-137l80 406
h-153l-78 -406h-138z" />
    <glyph glyph-name="f_f_i" unicode="ffi" horiz-adv-x="851" 
d="M39 0l80 406h-70l21 105h69l9 46q18 90 59 128t117 38q39 0 83 -9l-20 -101q-20 4 -36 4q-34 0 -47.5 -17t-21.5 -60l-6 -29h152l9 46q17 90 58.5 128t117.5 38q39 0 83 -9l-21 -101q-20 4 -35 4q-34 0 -48 -17t-22 -60l-5 -29h91l-21 -105h-91l-79 -406h-137l80 406
h-153l-78 -406h-138zM752 0h-137l100 511h137zM868 583h-142l25 129h142z" />
    <glyph glyph-name="f_i" unicode="fi" horiz-adv-x="562" 
d="M303.5 600q-13.5 -17 -21.5 -60l-6 -29h92l-21 -105h-91l-79 -406h-138l79 406h-69l21 105h69l9 46q18 90 59 128t117 38q39 0 83 -9l-20 -101q-20 4 -36 4q-34 0 -47.5 -17zM463 0h-137l100 511h137zM579 583h-142l25 129h142z" />
    <glyph glyph-name="f_l" unicode="fl" horiz-adv-x="562" 
d="M303.5 600q-13.5 -17 -21.5 -60l-6 -29h92l-21 -105h-91l-79 -406h-138l79 406h-69l21 105h69l9 46q18 90 59 128t117 38q39 0 83 -9l-20 -101q-20 4 -36 4q-34 0 -47.5 -17zM463 0h-137l139 715h137z" />
    <glyph glyph-name=".notdef" horiz-adv-x="654" 
 />
    <glyph glyph-name=".null" horiz-adv-x="0" 
 />
    <glyph glyph-name="nonmarkingreturn" unicode="&#xd;" horiz-adv-x="197" 
 />
    <glyph glyph-name="space" unicode=" " horiz-adv-x="197" 
 />
    <glyph glyph-name="exclam" unicode="!" horiz-adv-x="243" 
d="M150 220h-72l25 325l33 170h147l-32 -170zM140 0h-136l26 136h136z" />
    <glyph glyph-name="quotedbl" unicode="&#x22;" horiz-adv-x="375" 
d="M176 453h-88l33 262h123zM360 453h-88l33 262h123z" />
    <glyph glyph-name="numbersign" unicode="#" horiz-adv-x="587" 
d="M615 509l-43 -106h-82l-53 -132h86l-42 -105h-86l-67 -166h-106l67 166h-99l-67 -166h-105l67 166h-82l42 105h82l53 132h-85l43 106h85l73 182h106l-73 -182h98l73 182h106l-73 -182h82zM232 271h99l53 132h-98z" />
    <glyph glyph-name="dollar" unicode="$" horiz-adv-x="624" 
d="M481 478q7 85 -70 105l-36 -182q73 -28 114 -50t67.5 -58.5t26.5 -92.5q-1 -62 -34.5 -111t-98.5 -76.5t-155 -27.5l-17 -85h-65l17 89q-106 15 -163 78.5t-50 162.5h146q-2 -9 -2 -27q0 -41 23.5 -66.5t67.5 -33.5l38 194q-65 24 -106.5 47.5t-67.5 59.5t-26 89
q0 63 35 110.5t98 73t144 25.5h2l13 68h65l-14 -73q96 -14 145.5 -70.5t47.5 -148.5h-145zM259.5 460q17.5 -18 55.5 -35l32 164q-50 -2 -78 -23.5t-28 -59.5q1 -28 18.5 -46zM411.5 238q-19.5 19 -60.5 36l-34 -174q56 4 85 28.5t29 61.5q0 29 -19.5 48z" />
    <glyph glyph-name="percent" unicode="%" horiz-adv-x="876" 
d="M106 352.5q-42 44.5 -42 121.5q0 61 26.5 114.5t76 85.5t114.5 32q75 0 117.5 -46.5t42.5 -119.5q0 -61 -26.5 -114.5t-75.5 -85.5t-114 -32q-77 0 -119 44.5zM243 0h-100l518 691h99zM300.5 445q23.5 45 23.5 102q0 67 -51 67q-43 0 -67 -45t-24 -102q0 -34 12.5 -50.5
t39.5 -16.5q43 0 66.5 45zM512 29.5q-42 44.5 -42 121.5q0 61 26.5 114.5t75.5 85.5t114 32q75 0 118 -46.5t43 -119.5q0 -61 -26.5 -114.5t-76 -85.5t-114.5 -32q-76 0 -118 44.5zM705.5 122q23.5 45 23.5 102q0 67 -50 67q-43 0 -67.5 -45t-24.5 -102q0 -67 52 -67
q43 0 66.5 45z" />
    <glyph glyph-name="ampersand" unicode="&#x26;" horiz-adv-x="653" 
d="M640 355q-39 -120 -116 -213l94 -142h-162l-32 51q-99 -66 -211 -66q-99 0 -151.5 47.5t-52.5 125.5q0 84 55.5 135.5t148.5 91.5q-28 45 -42 80t-14 72q0 53 28 97.5t78.5 70t114.5 25.5q86 0 134 -43.5t48 -113.5q0 -50 -24 -86.5t-63 -62.5t-99 -55l88 -135
q35 49 63 121h115zM310.5 594.5q-21.5 -20.5 -21.5 -54.5q0 -23 10 -48t30 -56q50 26 78 54.5t28 64.5q0 27 -16 43.5t-49 16.5q-38 0 -59.5 -20.5zM368 140l-109 172q-52 -29 -75.5 -57t-23.5 -65q0 -39 23.5 -62t69.5 -23q61 0 115 35z" />
    <glyph glyph-name="quotesingle" unicode="'" horiz-adv-x="191" 
d="M176 453h-88l33 262h123z" />
    <glyph glyph-name="parenleft" unicode="(" horiz-adv-x="297" 
d="M86 -131q-26 59 -42.5 138.5t-16.5 164.5q0 152 62 311t171 283h120q-80 -111 -145 -272.5t-65 -348.5q0 -135 36 -276h-120z" />
    <glyph glyph-name="parenright" unicode=")" horiz-adv-x="296" 
d="M-61 -131q80 111 145 272.5t65 348.5q0 135 -36 276h120q26 -60 42.5 -139t16.5 -164q0 -152 -62 -311t-171 -283h-120z" />
    <glyph glyph-name="asterisk" unicode="*" horiz-adv-x="445" 
d="M263 469l-92 -105l-63 53l94 99l-111 32l44 84l107 -43l24 126h91l-25 -126l121 43l12 -84l-125 -32l57 -99l-83 -53z" />
    <glyph glyph-name="plus" unicode="+" horiz-adv-x="571" 
d="M312 83h-121l36 184h-178l23 122h178l36 184h121l-35 -184h177l-23 -122h-178z" />
    <glyph glyph-name="comma" unicode="," horiz-adv-x="220" 
d="M-24 -91q34 6 55 27.5t30 63.5h-68l27 136h136l-27 -136q-27 -134 -166 -156z" />
    <glyph glyph-name="hyphen" unicode="-" horiz-adv-x="354" 
d="M299 193h-270l23 121h271z" />
    <glyph glyph-name="period" unicode="." horiz-adv-x="216" 
d="M127 0h-136l27 136h136z" />
    <glyph glyph-name="slash" unicode="/" horiz-adv-x="428" 
d="M81 0h-116l420 715h115z" />
    <glyph glyph-name="zero" unicode="0" horiz-adv-x="670" 
d="M113.5 56.5q-65.5 71.5 -65.5 199.5q0 115 45 219t127.5 167.5t188.5 63.5q119 0 183 -71t64 -200q0 -116 -44 -219.5t-125.5 -167t-188.5 -63.5q-119 0 -184.5 71.5zM413 157q45 50 68.5 127t23.5 156q0 70 -25.5 107t-82.5 37q-60 0 -105.5 -49.5t-69.5 -126.5
t-24 -156q0 -70 26 -107.5t83 -37.5q61 0 106 50z" />
    <glyph glyph-name="one" unicode="1" horiz-adv-x="373" 
d="M202 482q-43 -30 -152 -30l23 116q80 1 130.5 31.5t65.5 91.5h120l-135 -691h-147z" />
    <glyph glyph-name="two" unicode="2" horiz-adv-x="593" 
d="M-19 0q13 70 44.5 122t84 96t137.5 95l37 22q61 36 94 59t53 52t20 67q0 73 -86 73q-116 0 -145 -141h-143q22 116 101.5 188.5t207.5 72.5q104 0 159.5 -47t55.5 -128q0 -68 -36 -122.5t-85.5 -91.5t-124.5 -84l-20 -13q-54 -32 -83.5 -54t-43.5 -43v-2h313l-24 -121
h-516z" />
    <glyph glyph-name="three" unicode="3" horiz-adv-x="615" 
d="M82.5 37q-65.5 52 -65.5 144q0 23 7 60h144q-5 -25 -5 -41q0 -95 116 -95q68 0 104 31t36 83q0 46 -28.5 65t-87.5 19h-43l20 107h42q57 0 94 29t37 76q0 34 -22.5 52.5t-69.5 18.5q-54 0 -87 -27t-42 -79h-144q11 64 50 115t103 81t146 30q100 0 160.5 -44.5
t60.5 -121.5q0 -58 -36.5 -103.5t-101.5 -72.5l-1 -2q100 -32 100 -136q0 -69 -36.5 -124t-105 -86t-160.5 -31q-119 0 -184.5 52z" />
    <glyph glyph-name="four" unicode="4" horiz-adv-x="624" 
d="M445 0h-147l29 151h-319l28 142l396 398h147l-81 -420h100l-24 -120h-100zM400 517l-245 -246h196z" />
    <glyph glyph-name="five" unicode="5" horiz-adv-x="606" 
d="M124.5 10.5q-53.5 25.5 -80.5 68.5t-27 95q0 18 3 36h143q-4 -44 21.5 -74.5t80.5 -30.5q47 0 82.5 21.5t54.5 58t19 79.5q0 48 -25 72.5t-73 24.5q-38 0 -71 -13.5t-57 -40.5h-145l152 384h419l-23 -121h-313l-61 -154v-2q73 54 158 54q89 0 138.5 -50.5t49.5 -141.5
q0 -78 -37 -144.5t-108.5 -106.5t-168.5 -40q-78 0 -131.5 25.5z" />
    <glyph glyph-name="six" unicode="6" horiz-adv-x="636" 
d="M111 54q-64 69 -64 193q0 118 45.5 223.5t129 170.5t193.5 65q67 0 115.5 -24.5t73.5 -68t23 -97.5h-149q1 32 -19 54.5t-69 22.5q-68 0 -112.5 -51t-59.5 -134l-2 -12l4 -2q68 71 175 71q93 0 148 -53t55 -145q0 -76 -37 -140.5t-105 -103t-159 -38.5q-122 0 -186 69z
M377 119q34 21 53.5 56t19.5 76q0 49 -27.5 75t-77.5 26q-43 0 -78 -19t-55 -52.5t-20 -74.5q0 -50 29.5 -79t79.5 -29q42 0 76 21z" />
    <glyph glyph-name="seven" unicode="7" horiz-adv-x="531" 
d="M67 0q21 108 75 219.5t126 203.5t144 145v2h-341l23 121h499l-21 -111q-132 -92 -224 -250.5t-126 -329.5h-155z" />
    <glyph glyph-name="eight" unicode="8" horiz-adv-x="627" 
d="M88.5 31.5q-68.5 46.5 -68.5 134.5q0 76 48 128.5t122 75.5v4q-75 43 -75 126q0 60 37 107t101 73t140 26q98 0 159 -43t61 -121q0 -59 -36 -106t-94 -69v-3q47 -23 73 -55.5t26 -88.5q0 -69 -41 -122.5t-112.5 -83t-160.5 -29.5q-111 0 -179.5 46.5zM443.5 447.5
q34.5 31.5 34.5 74.5q0 37 -26.5 57.5t-73.5 20.5q-63 0 -96 -30.5t-33 -74.5q0 -37 26 -58t74 -21q60 0 94.5 31.5zM395.5 134.5q41.5 36.5 41.5 92.5q0 43 -29.5 67t-83.5 24q-44 0 -79 -17t-55 -46t-20 -64q0 -45 30 -69t84 -24q70 0 111.5 36.5z" />
    <glyph glyph-name="nine" unicode="9" horiz-adv-x="636" 
d="M140.5 9.5q-48.5 24.5 -74 68t-23.5 97.5h149q-1 -32 19 -54.5t69 -22.5q68 0 112.5 51t59.5 134l2 12l-4 2q-68 -71 -175 -71q-93 0 -147.5 53t-54.5 145q0 76 36.5 140.5t105 103t158.5 38.5q123 0 187 -69t64 -193q0 -118 -45.5 -223.5t-129 -170.5t-193.5 -65
q-67 0 -115.5 24.5zM403 358q35 19 55 52.5t20 74.5q0 50 -29.5 79t-79.5 29q-42 0 -76 -21t-53.5 -56t-19.5 -76q0 -49 27.5 -75t77.5 -26q43 0 78 19z" />
    <glyph glyph-name="colon" unicode=":" horiz-adv-x="229" 
d="M192 309h-136l27 136h136zM132 0h-136l27 136h136z" />
    <glyph glyph-name="semicolon" unicode=";" horiz-adv-x="229" 
d="M192 309h-136l27 136h136zM-21 -91q34 6 55 27.5t30 63.5h-68l27 136h136l-27 -136q-27 -134 -166 -156z" />
    <glyph glyph-name="less" unicode="&#x3c;" horiz-adv-x="503" 
d="M440 185l-24 -113l-377 171l26 133l444 171l-24 -128l-318 -116v-2z" />
    <glyph glyph-name="equal" unicode="=" horiz-adv-x="560" 
d="M533 363h-464l23 122h464zM495 172h-464l23 121h464z" />
    <glyph glyph-name="greater" unicode="&#x3e;" horiz-adv-x="501" 
d="M457 243l-444 -171l24 128l318 116v2l-273 116l23 113l378 -171z" />
    <glyph glyph-name="question" unicode="?" horiz-adv-x="530" 
d="M174 219q8 60 26.5 99.5t45.5 65.5t69 51q58 35 80.5 57t22.5 55q0 29 -19.5 46t-58.5 17q-52 0 -87.5 -32.5t-45.5 -98.5h-147q9 74 46.5 131t100.5 88.5t146 31.5q102 0 158.5 -46t56.5 -126q0 -61 -36.5 -104t-106.5 -82q-46 -26 -69.5 -44t-38.5 -43t-23 -66h-120z
M263 0h-136l26 136h136z" />
    <glyph glyph-name="at" unicode="@" horiz-adv-x="889" 
d="M118 -19q-90 88 -90 242q0 135 68.5 247.5t187 178t261.5 65.5q110 0 186.5 -39t115 -108t38.5 -159q0 -88 -34 -163t-93 -119t-129 -44q-50 0 -80 22.5t-37 65.5h-2q-21 -39 -60 -63t-88 -24q-59 0 -93.5 39.5t-34.5 114.5q0 73 32.5 137.5t86 103.5t114.5 39
q44 0 69.5 -20.5t34.5 -53.5h2l21 67h113l-80 -251q-10 -29 -10 -51q0 -21 10.5 -31.5t29.5 -10.5q36 0 67.5 33t49.5 87t18 113q0 112 -67.5 171.5t-189.5 59.5q-116 0 -209 -51.5t-146.5 -142.5t-53.5 -204q0 -121 67.5 -188t204.5 -67q90 0 171 31l23 -73
q-87 -42 -210 -42q-174 0 -264 88zM472.5 207q29.5 25 46 64.5t16.5 79.5q0 67 -59 67q-35 0 -65 -24.5t-47.5 -63.5t-17.5 -80q0 -68 60 -68q37 0 66.5 25z" />
    <glyph glyph-name="A" unicode="A" horiz-adv-x="689" 
d="M112 0h-160l400 715h160l128 -715h-161l-20 158h-265zM407 573l-152 -295h191l-37 295h-2z" />
    <glyph glyph-name="B" unicode="B" horiz-adv-x="683" 
d="M14 0l139 715h322q100 0 152.5 -40t52.5 -113q0 -67 -41.5 -115.5t-106.5 -64.5v-2q115 -26 115 -142q0 -69 -35 -123t-99.5 -84.5t-148.5 -30.5h-350zM396 423q57 0 91 26t34 73q0 35 -21.5 50t-66.5 15h-151l-31 -164h145zM344 128q71 0 111 30.5t40 85.5
q0 43 -25 60.5t-78 17.5h-161l-37 -194h150z" />
    <glyph glyph-name="C" unicode="C" horiz-adv-x="716" 
d="M118.5 62q-72.5 77 -72.5 216q0 123 54 226.5t149 164.5t214 61q87 0 147.5 -30.5t91 -85t30.5 -124.5q0 -10 -2 -32h-157q2 68 -29 106.5t-98 38.5q-75 0 -131.5 -44.5t-86.5 -118t-30 -156.5q0 -85 32.5 -128.5t107.5 -43.5q148 0 198 153h158q-37 -126 -134 -203
t-237 -77q-132 0 -204.5 77z" />
    <glyph glyph-name="D" unicode="D" horiz-adv-x="721" 
d="M14 0l139 715h290q132 0 201.5 -69t69.5 -203q0 -122 -48 -223.5t-136.5 -160.5t-204.5 -59h-311zM326 128q66 0 119 40.5t83 109.5t30 152q0 80 -34 118.5t-119 38.5h-123l-88 -459h132z" />
    <glyph glyph-name="E" unicode="E" horiz-adv-x="634" 
d="M551 0h-537l139 715h529l-25 -128h-375l-29 -155h325l-26 -128h-324l-34 -176h382z" />
    <glyph glyph-name="F" unicode="F" horiz-adv-x="604" 
d="M169 0h-155l139 715h519l-25 -128h-365l-34 -178h296l-25 -128h-296z" />
    <glyph glyph-name="G" unicode="G" horiz-adv-x="748" 
d="M112 61.5q-68 76.5 -68 207.5q0 127 55 232.5t151 167t214 61.5q93 0 155.5 -33t91.5 -89t25 -124h-158q-2 53 -33 86t-102 33t-127 -43t-88 -118.5t-32 -167.5q0 -162 147 -162q74 0 131.5 42t72.5 108h-164l22 116h322l-73 -378h-109l-3 94h-2q-85 -109 -234 -109
q-126 0 -194 76.5z" />
    <glyph glyph-name="H" unicode="H" horiz-adv-x="721" 
d="M169 0h-155l139 715h155l-56 -287h284l56 287h154l-139 -715h-154l58 300h-284z" />
    <glyph glyph-name="I" unicode="I" horiz-adv-x="283" 
d="M169 0h-155l139 715h155z" />
    <glyph glyph-name="J" unicode="J" horiz-adv-x="544" 
d="M50.5 32q-48.5 47 -48.5 128q0 32 8 72l10 49h140l-10 -49q-6 -30 -6 -53q0 -34 16 -50.5t54 -16.5q51 0 75.5 30.5t35.5 89.5l94 483h155l-96 -488q-22 -114 -83 -178t-188 -64q-108 0 -156.5 47z" />
    <glyph glyph-name="K" unicode="K" horiz-adv-x="679" 
d="M590 715h174l-333 -307l219 -408h-179l-153 303l-110 -101l-39 -202h-155l139 715h155l-62 -317z" />
    <glyph glyph-name="L" unicode="L" 
d="M503 0h-489l139 715h155l-114 -587h334z" />
    <glyph glyph-name="M" unicode="M" horiz-adv-x="853" 
d="M160 0h-146l139 715h191l70 -509h2l262 509h200l-139 -715h-146l94 486h-3l-252 -486h-110l-65 486h-3z" />
    <glyph glyph-name="N" unicode="N" horiz-adv-x="725" 
d="M169 0h-155l139 715h158l189 -471h4l92 471h154l-139 -715h-158l-189 471h-4z" />
    <glyph glyph-name="O" unicode="O" horiz-adv-x="773" 
d="M186.5 21.5q-68.5 36.5 -104.5 103.5t-36 157q0 122 51.5 224.5t145.5 163t216 60.5q96 0 165.5 -36.5t105.5 -103.5t36 -157q0 -121 -51.5 -223.5t-146 -163.5t-217.5 -61q-96 0 -164.5 36.5zM493.5 157q57.5 45 87.5 118t30 155q0 80 -39.5 126.5t-117.5 46.5
q-77 0 -134.5 -45t-88 -118t-30.5 -155q0 -80 40 -126.5t118 -46.5q77 0 134.5 45z" />
    <glyph glyph-name="P" unicode="P" horiz-adv-x="651" 
d="M14 0l139 715h312q219 0 219 -180q0 -74 -36.5 -134.5t-101.5 -95.5t-149 -35h-176l-52 -270h-155zM392 398q63 0 99.5 33t36.5 86q0 38 -23 54t-75 16h-148l-36 -189h146z" />
    <glyph glyph-name="Q" unicode="Q" horiz-adv-x="773" 
d="M729 241q-37 -90 -104 -152l59 -71l-94 -79l-68 82q-78 -36 -171 -36q-96 0 -164.5 36.5t-104.5 103.5t-36 157q0 122 51.5 224.5t145.5 163t216 60.5q96 0 165.5 -36.5t105.5 -103.5t36 -157q0 -102 -37 -192zM435 125l-76 92l93 79l82 -99q37 45 57 106.5t20 126.5
q0 80 -39.5 126.5t-117.5 46.5q-77 0 -134.5 -45t-88 -118t-30.5 -155q0 -80 40 -126.5t118 -46.5q39 0 76 13z" />
    <glyph glyph-name="R" unicode="R" horiz-adv-x="675" 
d="M14 0l139 715h312q110 0 168 -44t58 -128q0 -78 -51 -137t-131 -76l-1 -2q52 -10 72.5 -49.5t20.5 -98.5q0 -27 -7 -92q-4 -42 -4 -53q0 -23 9 -26l-2 -9h-161q-4 5 -4 18q0 17 7 54q10 56 10 89q0 99 -88 99h-142l-50 -260h-155zM386 388q68 0 107.5 34.5t39.5 90.5
q0 38 -26.5 56t-85.5 18h-139l-38 -199h142z" />
    <glyph glyph-name="S" unicode="S" horiz-adv-x="647" 
d="M149.5 16q-67.5 31 -102 88t-30.5 135h155q-1 -7 -1 -20q0 -53 38 -80.5t104 -27.5q65 0 102.5 24.5t37.5 67.5q0 27 -17 44.5t-46 30t-95 35.5q-69 24 -112 48.5t-67 61t-24 90.5q0 68 37 117t103 74.5t150 25.5q132 0 201 -60t67 -170h-153q7 106 -125 106
q-56 0 -89 -19.5t-33 -58.5q0 -25 13 -41t38 -27.5t80 -32.5q85 -31 130 -53.5t73 -59.5t28 -96q0 -69 -35.5 -121.5t-103.5 -82t-163 -29.5q-93 0 -160.5 31z" />
    <glyph glyph-name="T" unicode="T" horiz-adv-x="616" 
d="M336 0h-155l114 587h-217l26 128h586l-25 -128h-216z" />
    <glyph glyph-name="U" unicode="U" horiz-adv-x="701" 
d="M115.5 41.5q-64.5 56.5 -64.5 150.5q0 29 6 60l90 463h155l-91 -463q-5 -28 -5 -46q0 -49 28.5 -71.5t85.5 -22.5q71 0 111.5 33.5t55.5 106.5l90 463h154l-90 -463q-26 -132 -105 -199.5t-231 -67.5q-125 0 -189.5 56.5z" />
    <glyph glyph-name="V" unicode="V" horiz-adv-x="656" 
d="M361 0h-163l-105 715h168l51 -536h1l260 536h164z" />
    <glyph glyph-name="W" unicode="W" horiz-adv-x="946" 
d="M299 0h-157l-45 715h156l7 -514h2l221 514h151l26 -514h2l204 514h156l-320 -715h-157l-27 494h-2z" />
    <glyph glyph-name="X" unicode="X" horiz-adv-x="641" 
d="M117 0h-174l310 366l-152 349h164l98 -237h2l191 237h165l-291 -350l169 -365h-172l-106 252h-2z" />
    <glyph glyph-name="Y" unicode="Y" horiz-adv-x="658" 
d="M356 0h-154l53 272l-162 443h164l96 -318h2l222 318h165l-333 -443z" />
    <glyph glyph-name="Z" unicode="Z" horiz-adv-x="610" 
d="M531 0h-556l25 128l446 457v2h-338l26 128h526l-25 -128l-447 -457v-2h369z" />
    <glyph glyph-name="bracketleft" unicode="[" horiz-adv-x="352" 
d="M257 -131h-273l174 897h273l-22 -121h-127l-127 -656h126z" />
    <glyph glyph-name="backslash" unicode="\" horiz-adv-x="413" 
d="M353 0h-115l-138 715h115z" />
    <glyph glyph-name="bracketright" unicode="]" horiz-adv-x="352" 
d="M217 -131h-273l23 120h126l127 656h-126l24 121h273z" />
    <glyph glyph-name="asciicircum" unicode="^" horiz-adv-x="480" 
d="M188 440h-134l223 275h108l117 -275h-132l-61 154h-1z" />
    <glyph glyph-name="underscore" unicode="_" horiz-adv-x="571" 
d="M464 -165h-519l24 121h519z" />
    <glyph glyph-name="grave" unicode="`" horiz-adv-x="279" 
d="M244 578h-105l-98 147h156z" />
    <glyph glyph-name="a" unicode="a" horiz-adv-x="562" 
d="M43 19q-38 34 -38 97q0 82 61 123t171 65q56 11 85.5 19.5t48 23.5t18.5 39q0 45 -72 45q-49 0 -77 -20t-40 -64h-132q19 82 84.5 131.5t179.5 49.5q188 0 188 -147q0 -22 -7 -61l-42 -203q-3 -15 -3 -24q0 -11 5.5 -16t18.5 -5q6 0 11 1l-15 -73q-42 -9 -73 -9
q-86 0 -84 74h-2q-30 -37 -76 -58.5t-102 -21.5q-70 0 -108 34zM307 118q37 33 49 90l11 51q-18 -12 -36 -18t-69 -17q-63 -14 -90.5 -31t-27.5 -52q0 -28 17.5 -42t49.5 -14q59 0 96 33z" />
    <glyph glyph-name="b" unicode="b" horiz-adv-x="591" 
d="M523.5 472.5q48.5 -54.5 48.5 -152.5q0 -91 -38 -168t-103 -122t-142 -45q-53 0 -88.5 21t-51.5 49h-3l-11 -55h-137l139 715h137l-50 -258h3q25 28 68 49t96 21q84 0 132.5 -54.5zM354.5 120q35.5 30 55.5 80t20 106q0 115 -90 115q-45 0 -81.5 -30.5t-56.5 -80.5
t-20 -104q0 -58 24 -87t68 -29q45 0 80.5 30z" />
    <glyph glyph-name="c" unicode="c" horiz-adv-x="542" 
d="M78.5 40.5q-58.5 56.5 -58.5 157.5q0 89 36.5 164t106 120.5t163.5 45.5q71 0 120 -27t71.5 -74.5t17.5 -106.5h-133l1 15q0 40 -21.5 63.5t-65.5 23.5q-48 0 -84.5 -30.5t-56.5 -80.5t-20 -107q0 -53 24 -83.5t71 -30.5q54 0 83.5 28t43.5 73h134q-24 -93 -96.5 -150
t-174.5 -57q-103 0 -161.5 56.5z" />
    <glyph glyph-name="d" unicode="d" horiz-adv-x="591" 
d="M494 715h137l-139 -715h-137l10 54h-1q-25 -28 -68.5 -48.5t-96.5 -20.5q-84 0 -132 54.5t-48 152.5q0 90 37.5 167t102.5 122.5t142 45.5q53 0 88.5 -21t51.5 -50h3zM332.5 120.5q36.5 30.5 56.5 80.5t20 105q0 57 -24 86t-69 29t-80.5 -30t-55.5 -79.5t-20 -105.5
q0 -116 90 -116q46 0 82.5 30.5z" />
    <glyph glyph-name="e" unicode="e" horiz-adv-x="568" 
d="M155 219v-15q0 -60 27 -87.5t78 -27.5q49 0 80.5 22t39.5 49h140q-36 -84 -105.5 -130t-168.5 -46q-111 0 -167.5 58t-56.5 168q0 86 38.5 159t109 116t163.5 43q215 0 215 -212q0 -42 -10 -97h-383zM225 395q-39 -31 -56 -85h244q3 15 3 29q0 42 -24.5 64.5t-69.5 22.5
q-58 0 -97 -31z" />
    <glyph glyph-name="f" unicode="f" horiz-adv-x="328" 
d="M303.5 600q-13.5 -17 -21.5 -60l-6 -29h92l-21 -105h-91l-79 -406h-138l79 406h-69l21 105h69l9 46q18 90 59 128t117 38q39 0 83 -9l-20 -101q-20 4 -36 4q-34 0 -47.5 -17z" />
    <glyph glyph-name="g" unicode="g" horiz-adv-x="580" 
d="M446 511h137l-92 -467q-23 -119 -93.5 -172.5t-184.5 -53.5q-71 0 -121 23.5t-76.5 61.5t-29.5 81h138q5 -64 94 -64q60 0 92.5 32t46.5 104l8 39h-3q-64 -70 -158 -70q-83 0 -130.5 51t-47.5 146q0 80 34.5 150t95.5 112.5t136 42.5q54 0 88 -20.5t52 -49.5h3z
M332.5 157.5q33.5 27.5 51.5 71.5t18 93q0 99 -84 99q-47 0 -82 -26.5t-53.5 -70t-18.5 -91.5q0 -50 22.5 -76.5t66.5 -26.5q46 0 79.5 27.5z" />
    <glyph glyph-name="h" unicode="h" 
d="M505.5 493q36.5 -35 36.5 -107q0 -34 -7 -69l-62 -317h-138l60 307q4 17 4 36q0 71 -73 71q-51 0 -87 -33t-45 -81l-59 -300h-137l140 715h137l-53 -271h2q30 38 75 61t103 23q67 0 103.5 -35z" />
    <glyph glyph-name="i" unicode="i" horiz-adv-x="234" 
d="M135 0h-137l100 511h137zM251 583h-142l25 129h142z" />
    <glyph glyph-name="j" unicode="j" horiz-adv-x="235" 
d="M-123 -174l21 107q24 -3 37 -3q26 0 40.5 13.5t22.5 52.5l100 515h137l-99 -512q-35 -181 -182 -181q-38 0 -77 8zM251 583h-142l25 129h142z" />
    <glyph glyph-name="k" unicode="k" horiz-adv-x="525" 
d="M413 511h161l-224 -190l145 -321h-155l-97 229l-76 -64l-32 -165h-137l139 715h137l-76 -393z" />
    <glyph glyph-name="l" unicode="l" horiz-adv-x="235" 
d="M136 0h-137l139 715h137z" />
    <glyph glyph-name="m" unicode="m" horiz-adv-x="856" 
d="M832 394q0 -29 -8 -72l-63 -322h-138l59 307q5 28 5 45q0 31 -14 46.5t-45 15.5q-47 0 -79.5 -31.5t-41.5 -80.5l-60 -302h-137l60 307q5 28 5 46q0 30 -14 45.5t-46 15.5q-46 0 -78.5 -31t-42.5 -83l-59 -300h-137l100 511h137l-13 -68q26 36 72.5 60.5t99.5 24.5
q103 0 119 -95h2q41 46 86 70.5t103 24.5q128 0 128 -134z" />
    <glyph glyph-name="n" unicode="n" 
d="M505.5 493q36.5 -35 36.5 -107q0 -34 -7 -69l-62 -317h-138l60 307q4 17 4 36q0 71 -73 71q-51 0 -87 -33t-45 -81l-59 -300h-137l100 511h137l-13 -67h2q30 38 75 61t103 23q67 0 103.5 -35z" />
    <glyph glyph-name="o" unicode="o" horiz-adv-x="583" 
d="M80 41.5q-60 57.5 -60 159.5q0 91 39.5 165.5t111.5 118t163 43.5q109 0 168.5 -57.5t59.5 -160.5q0 -90 -39.5 -164.5t-110.5 -118t-162 -43.5q-110 0 -170 57.5zM348.5 120.5q37.5 30.5 57.5 80.5t20 107q0 55 -27 84.5t-77 29.5t-87.5 -30.5t-58 -80.5t-20.5 -107
q0 -55 27.5 -84.5t77.5 -29.5t87.5 30.5z" />
    <glyph glyph-name="p" unicode="p" horiz-adv-x="591" 
d="M523 472.5q48 -54.5 48 -152.5q0 -91 -37.5 -168t-102.5 -122t-142 -45q-53 0 -89 21t-51 49h-3l-45 -232h-137l134 688h137l-11 -54h2q25 28 68 49t97 21q84 0 132 -54.5zM354 120q36 30 56 80t20 106q0 115 -91 115q-45 0 -81.5 -30.5t-56.5 -80.5t-20 -104
q0 -58 24 -87t68 -29q45 0 81 30z" />
    <glyph glyph-name="q" unicode="q" horiz-adv-x="590" 
d="M455 511h137l-134 -688h-137l45 231h-2q-25 -28 -68.5 -48.5t-96.5 -20.5q-84 0 -132 54.5t-48 152.5q0 90 37.5 167t102.5 122.5t142 45.5q53 0 88.5 -21t51.5 -50h3zM332.5 120.5q36.5 30.5 56.5 80.5t20 105q0 57 -24 86t-69 29t-80.5 -30t-55.5 -79.5t-20 -105.5
q0 -116 90 -116q46 0 82.5 30.5z" />
    <glyph glyph-name="r" unicode="r" horiz-adv-x="370" 
d="M411 514l-25 -122q-20 3 -35 3q-65 0 -108 -37.5t-60 -110.5l-48 -247h-137l100 511h137l-17 -87h1q31 47 67.5 70.5t87.5 23.5q14 0 37 -4z" />
    <glyph glyph-name="s" unicode="s" horiz-adv-x="501" 
d="M95.5 10q-51.5 25 -74.5 67t-21 92h127q-2 -41 24 -63.5t80 -22.5q45 0 69.5 15.5t24.5 43.5q0 21 -15 34t-33 20t-67 22t-82 30.5t-55.5 43.5t-22.5 72q0 48 28.5 85t79.5 57.5t117 20.5q73 0 121.5 -24t70 -62.5t17.5 -82.5h-128q2 34 -19 53.5t-69 19.5
q-39 0 -61.5 -13t-22.5 -39q0 -24 20.5 -36t70.5 -28q18 -5 23 -7q52 -16 86.5 -33.5t56 -46t21.5 -72.5q0 -47 -26.5 -86t-79.5 -62t-129 -23q-80 0 -131.5 25z" />
    <glyph glyph-name="t" unicode="t" horiz-adv-x="347" 
d="M253 406l-48 -247q-3 -15 -3 -26q0 -21 11 -28.5t35 -7.5q17 0 44 4l-20 -100q-47 -10 -85 -10q-64 0 -95 26t-31 83q0 25 6 58l49 248h-72l20 105h72l30 151h137l-29 -151h91l-20 -105h-92z" />
    <glyph glyph-name="u" unicode="u" 
d="M430 511h138l-99 -511h-138l14 70h-2q-28 -37 -73 -61t-101 -24q-69 0 -107 34t-38 106q0 29 8 71l62 315h137l-60 -305q-4 -17 -4 -37q0 -72 71 -72q49 0 83 26.5t48 71.5z" />
    <glyph glyph-name="v" unicode="v" horiz-adv-x="517" 
d="M283 0h-151l-79 511h136l44 -367h1l184 367h145z" />
    <glyph glyph-name="w" unicode="w" horiz-adv-x="776" 
d="M236 0h-136l-46 511h138l18 -342h2l164 342h116l30 -342h3l155 342h142l-250 -511h-135l-32 350h-2z" />
    <glyph glyph-name="x" unicode="x" horiz-adv-x="507" 
d="M95 0h-156l235 263l-118 248h149l69 -159h2l125 159h149l-215 -251l135 -260h-156l-79 171h-2z" />
    <glyph glyph-name="y" unicode="y" horiz-adv-x="533" 
d="M-26 -169l21 107q24 -3 44 -3q34 0 64 14.5t49 56.5l-109 505h140l62 -358h2l186 358h145l-304 -540q-47 -82 -95 -115.5t-124 -33.5q-36 0 -81 9z" />
    <glyph glyph-name="z" unicode="z" horiz-adv-x="486" 
d="M415 0h-446l19 99l320 305v2h-241l21 105h416l-19 -95l-322 -308l-1 -2h273z" />
    <glyph glyph-name="braceleft" unicode="{" horiz-adv-x="358" 
d="M234 -131q-66 0 -107 10t-63 38t-22 79q0 28 8 71l23 116q4 22 4 30q0 22 -13 32.5t-42 10.5l24 122q38 -1 54.5 16t24.5 57l23 121q16 82 49 123.5t82.5 56t129.5 14.5h24l-24 -121h-24q-36 0 -59.5 -21.5t-33.5 -71.5l-25 -127q-8 -41 -29 -66.5t-58 -40.5l-1 -2
q25 -12 37 -29.5t12 -45.5q0 -15 -3 -33l-24 -122q-4 -19 -4 -36q0 -34 16 -47.5t44 -13.5h25l-24 -120h-24z" />
    <glyph glyph-name="bar" unicode="|" horiz-adv-x="228" 
d="M87 -135h-98l172 886h98z" />
    <glyph glyph-name="braceright" unicode="}" horiz-adv-x="358" 
d="M-52 -131l24 120h25q74 0 93 93l25 128q8 41 29 66.5t58 40.5l1 2q-25 13 -37.5 30.5t-12.5 44.5q0 17 4 33l23 121q4 19 4 37q0 33 -16 46.5t-44 13.5h-25l24 121h25q66 0 106.5 -10t62.5 -38t22 -79q0 -28 -8 -71l-23 -117q-4 -22 -4 -30q0 -22 13 -32.5t43 -10.5
l-24 -121q-38 1 -54.5 -16t-24.5 -57l-24 -121q-16 -82 -48.5 -123.5t-82 -56t-129.5 -14.5h-25z" />
    <glyph glyph-name="asciitilde" unicode="~" horiz-adv-x="474" 
d="M46 248q15 78 51 118.5t91 40.5q24 0 41 -6.5t38 -19.5q16 -10 26 -14.5t23 -4.5q22 0 33.5 13t15.5 32h91q-15 -78 -50.5 -118.5t-90.5 -40.5q-24 0 -41 6.5t-38 19.5q-18 10 -27 14t-22 4q-22 0 -34 -13t-15 -31h-92z" />
    <glyph glyph-name="uni00A0" unicode="&#xa0;" horiz-adv-x="197" 
 />
    <glyph glyph-name="exclamdown" unicode="&#xa1;" horiz-adv-x="243" 
d="M228 449h-136l26 136h136zM120 -130h-147l33 170l101 325h72l-26 -325z" />
    <glyph glyph-name="cent" unicode="&#xa2;" horiz-adv-x="577" 
d="M440 427q1 6 1 17q0 68 -57 82l-63 -326q69 16 94 98h135q-22 -87 -89 -143.5t-161 -62.5l-17 -87h-67l17 89q-82 12 -128.5 67t-46.5 144q0 84 33.5 157t97 119t149.5 53l14 72h67l-14 -73q87 -12 131 -68t38 -138h-134zM209 240q15 -28 45 -38l63 321
q-56 -17 -89.5 -76.5t-33.5 -135.5q0 -43 15 -71z" />
    <glyph glyph-name="sterling" unicode="&#xa3;" horiz-adv-x="615" 
d="M460 453q5 25 5 42q0 85 -91 85q-56 0 -90.5 -33t-34.5 -88q0 -30 15 -73l7 -22h148l-19 -97h-127q-12 -40 -40.5 -75.5t-61.5 -59.5v-2q30 12 50 17.5t46 5.5q21 0 35.5 -4.5t33.5 -13.5q21 -9 35.5 -13.5t35.5 -4.5q31 0 56 10t53 29l37 -110q-45 -31 -82 -46t-83 -15
q-37 0 -61.5 8t-53.5 24q-26 13 -43.5 19.5t-42.5 6.5q-28 0 -58.5 -10t-72.5 -33l-46 107q45 25 76.5 67t41.5 93h-78l19 97h57l-6 20q-8 27 -12 46.5t-4 43.5q0 60 33 111.5t97 83t152 31.5q115 0 171 -49t56 -136q0 -29 -6 -62h-147z" />
    <glyph glyph-name="currency" unicode="&#xa4;" horiz-adv-x="543" 
d="M485 451q10 -26 10 -60q0 -79 -49 -146l48 -61l-87 -73l-49 60q-49 -26 -106 -26q-60 0 -100 27l-73 -61l-59 72l74 62q-10 26 -10 60q0 40 12.5 77.5t36.5 67.5l-49 62l87 73l49 -61q54 26 108 26q57 0 99 -25l72 59l59 -72zM211 250q19 -21 55 -21q34 0 61.5 21
t43 56.5t15.5 78.5q0 39 -18.5 60t-54.5 21q-34 0 -61.5 -20.5t-43.5 -56.5t-16 -79q0 -39 19 -60z" />
    <glyph glyph-name="yen" unicode="&#xa5;" horiz-adv-x="654" 
d="M548 686h167l-286 -380h148l-13 -65h-168l-11 -58h168l-12 -65h-168l-23 -118h-147l23 118h-168l12 65h168l11 58h-168l13 65h148l-139 380h160l86 -288h2z" />
    <glyph glyph-name="brokenbar" unicode="&#xa6;" horiz-adv-x="228" 
d="M188 384h-98l71 367h98zM87 -135h-98l74 380h98z" />
    <glyph glyph-name="section" unicode="&#xa7;" horiz-adv-x="640" 
d="M562.5 163.5q-35.5 -41.5 -97.5 -61.5q26 -36 26 -86q0 -53 -27 -98t-79 -71.5t-124 -26.5q-104 0 -158 45t-54 117q0 15 3 32h133q-1 -8 -1 -22q0 -36 18 -55t60 -19q40 0 64 19.5t24 50.5q0 24 -13.5 41.5t-31.5 29t-56 32.5l-54 31q-56 32 -84 52t-45.5 47.5
t-17.5 66.5q0 52 35.5 93.5t97.5 61.5q-26 36 -26 86q0 53 27 98t79 71.5t124 26.5q104 0 158 -45t54 -117q0 -15 -3 -32h-132q1 7 1 20q0 37 -18.5 56.5t-60.5 19.5q-40 0 -64 -19.5t-24 -50.5q0 -24 12.5 -41t30 -28t58.5 -34l55 -31q56 -32 83.5 -52t45 -47.5t17.5 -66.5
q0 -52 -35.5 -93.5zM348 187q7 -4 16 -9t19 -11q33 3 53.5 21.5t20.5 44.5q0 24 -21 42t-79 50l-58 33l-36 20q-33 -3 -53 -21.5t-20 -44.5q0 -24 20.5 -42t78.5 -51z" />
    <glyph glyph-name="dieresis" unicode="&#xa8;" horiz-adv-x="428" 
d="M249 583h-141l28 130h141zM442 583h-141l28 130h141z" />
    <glyph glyph-name="copyright" unicode="&#xa9;" horiz-adv-x="831" 
d="M215.5 24.5q-74.5 39.5 -115 111.5t-40.5 168q0 119 54 216.5t150.5 153.5t217.5 56q99 0 173 -39.5t114.5 -111.5t40.5 -168q0 -119 -54 -216.5t-150 -153.5t-217 -56q-99 0 -173.5 39.5zM571.5 99q78.5 48 121.5 131t43 182q0 76 -31 133t-89 88t-136 31
q-102 0 -180.5 -48t-121.5 -130.5t-43 -182.5q0 -76 31 -133t89 -88t137 -31q101 0 179.5 48zM268.5 180q-46.5 48 -46.5 134q0 73 32 134t90 97t132 36q88 0 132 -47t38 -121h-112q2 34 -14 56t-53 22t-67 -23t-46.5 -63t-16.5 -88q0 -95 77 -95q73 0 98 79h112
q-19 -75 -78.5 -122t-145.5 -47q-85 0 -131.5 48z" />
    <glyph glyph-name="ordfeminine" unicode="&#xaa;" horiz-adv-x="475" 
d="M82.5 314.5q-30.5 27.5 -30.5 79.5q0 67 50 99.5t141 50.5q64 12 92 24t28 37q0 34 -55 34q-38 0 -58.5 -15.5t-29.5 -47.5h-116q15 65 71.5 105.5t151.5 40.5q76 0 114 -29.5t38 -91.5q0 -24 -6 -54l-31 -154q-3 -9 -3 -16q0 -15 22 -15h7l-13 -64q-44 -7 -64 -7
q-74 0 -74 58h-1q-25 -28 -63 -45t-84 -17q-56 0 -86.5 27.5zM302 399q29 25 37 67l7 35q-21 -10 -32.5 -13.5t-52.5 -12.5q-47 -10 -66 -22.5t-19 -36.5q0 -42 54 -42q43 0 72 25z" />
    <glyph glyph-name="guillemotleft" unicode="&#xab;" horiz-adv-x="478" 
d="M213 157l-25 -125l-161 156l27 140l222 156l-27 -144l-141 -90v-2zM412 157l-26 -125l-160 156l27 140l222 156l-27 -144l-141 -90v-2z" />
    <glyph glyph-name="logicalnot" unicode="&#xac;" horiz-adv-x="512" 
d="M434 137h-140l31 163h-284l24 121h424z" />
    <glyph glyph-name="uni00AD" unicode="&#xad;" horiz-adv-x="354" 
d="M299 193h-270l23 121h271z" />
    <glyph glyph-name="registered" unicode="&#xae;" horiz-adv-x="566" 
d="M184.5 272.5q-47.5 25.5 -74.5 71t-27 104.5q0 79 35 143.5t99 102t147 37.5q59 0 106.5 -25.5t74.5 -71t27 -104.5q0 -79 -35 -143.5t-99 -102t-147 -37.5q-59 0 -106.5 25.5zM463 358q59 66 59 178q0 68 -45.5 109t-118.5 41q-107 0 -165.5 -66t-58.5 -178
q0 -68 45 -109t118 -41q107 0 166 66zM199 359l52 265h109q42 0 64.5 -17.5t22.5 -51.5q0 -29 -19.5 -49t-52.5 -25v-2q42 -10 42 -59q0 -10 -1.5 -24t-1.5 -22q0 -10 4 -11v-4h-72q-3 3 -3 10q0 8 2 22t2 23q0 38 -34 38h-23l-18 -93h-73zM327 507q24 0 38 10t14 28
q0 15 -10.5 21t-29.5 6h-26l-12 -65h26z" />
    <glyph glyph-name="macron" unicode="&#xaf;" horiz-adv-x="358" 
d="M382 583h-278l17 92h278z" />
    <glyph glyph-name="degree" unicode="&#xb0;" horiz-adv-x="390" 
d="M133 462.5q-35 37.5 -35 92.5q0 47 24 87.5t66 64t94 23.5q63 0 98 -37.5t35 -92.5q0 -47 -24 -87t-66.5 -64t-94.5 -24q-62 0 -97 37.5zM305 529q26 29 26 69q0 28 -16 43t-45 15q-37 0 -63 -29t-26 -69q0 -29 16 -43.5t45 -14.5q37 0 63 29z" />
    <glyph glyph-name="plusminus" unicode="&#xb1;" horiz-adv-x="571" 
d="M556 417l-24 -122h-178l-34 -175h178l-24 -121h-477l24 121h178l34 175h-178l24 122h177l36 184h122l-36 -184h178z" />
    <glyph glyph-name="uni00B2" unicode="&#xb2;" horiz-adv-x="369" 
d="M42 364q7 48 31.5 81.5t52.5 54t77 48.5q45 27 63.5 39.5t31 29.5t12.5 40q0 38 -40 38q-28 0 -45.5 -17.5t-24.5 -58.5h-103q14 77 62 119.5t127 42.5q62 0 97.5 -28t35.5 -78q0 -43 -19 -74.5t-45.5 -52.5t-67.5 -46q-53 -31 -70 -49v-1h161l-17 -88h-319z" />
    <glyph glyph-name="uni00B3" unicode="&#xb3;" horiz-adv-x="382" 
d="M105.5 391q-40.5 31 -40.5 88q0 19 4 36h104q-2 -8 -2 -22q0 -48 55 -48q31 0 48 15t17 41q0 23 -14 32.5t-44 9.5h-22l14 70h24q32 0 48.5 13.5t16.5 37.5q0 37 -43 37q-26 0 -41.5 -14t-19.5 -36h-104q10 61 59 98.5t125 37.5q62 0 99.5 -28.5t37.5 -77.5
q0 -35 -23 -60.5t-59 -36.5v-1q58 -21 58 -80q0 -64 -50 -103.5t-134 -39.5q-73 0 -113.5 31z" />
    <glyph glyph-name="acute" unicode="&#xb4;" horiz-adv-x="279" 
d="M234 578h-104l78 147h156z" />
    <glyph glyph-name="uni00B5" unicode="&#xb5;" horiz-adv-x="592" 
d="M445 511h138l-99 -511h-138l14 70h-2q-23 -36 -59 -59.5t-80 -23.5q-50 0 -73 30l-37 -194h-134l134 688h137l-60 -305q-4 -19 -4 -37q0 -72 73 -72q47 0 81 27t48 71z" />
    <glyph glyph-name="paragraph" unicode="&#xb6;" horiz-adv-x="589" 
d="M214 0l66 335h-43q-85 0 -129 35.5t-44 103.5q0 70 31 125t87 85.5t128 30.5h298l-139 -715h-91l122 628h-72l-122 -628h-92z" />
    <glyph glyph-name="periodcentered" unicode="&#xb7;" horiz-adv-x="229" 
d="M168 182h-136l27 136h136z" />
    <glyph glyph-name="cedilla" unicode="&#xb8;" horiz-adv-x="314" 
d="M-48 -166l33 33q32 -15 62 -15q25 0 39.5 10.5t14.5 27.5q0 21 -30 21q-21 0 -40 -7l-11 30l69 66h66l-49 -50l-1 -2q6 1 18 1q32 0 52.5 -14t20.5 -40q0 -40 -39.5 -66.5t-100.5 -26.5t-104 32z" />
    <glyph glyph-name="uni00B9" unicode="&#xb9;" horiz-adv-x="254" 
d="M170 627q-22 -11 -89 -11l17 84q46 0 79.5 18.5t39.5 51.5h94l-79 -406h-113z" />
    <glyph glyph-name="ordmasculine" unicode="&#xba;" horiz-adv-x="486" 
d="M114 331.5q-48 45.5 -48 128.5q0 72 33.5 132t94 95t138.5 35q87 0 135 -45t48 -128q0 -72 -33.5 -132t-94 -95.5t-138.5 -35.5q-87 0 -135 45.5zM332.5 404.5q28.5 24.5 43.5 62t15 75.5q0 86 -73 86q-40 0 -69 -23.5t-44 -60.5t-15 -75q0 -89 74 -89q40 0 68.5 24.5z
" />
    <glyph glyph-name="guillemotright" unicode="&#xbb;" horiz-adv-x="478" 
d="M226 189l-222 -157l26 144l142 90v2l-106 92l26 124l161 -156zM424 189l-221 -157l26 144l141 90v2l-105 92l26 124l161 -156z" />
    <glyph glyph-name="onequarter" unicode="&#xbc;" horiz-adv-x="858" 
d="M162 572q-22 -11 -89 -11l17 84q46 0 79.5 18.5t39.5 51.5h94l-79 -406h-113zM166 0h-127l592 715h127zM734 0h-109l16 84h-181l20 102l224 220h109l-45 -235h59l-17 -87h-60zM683 285l-118 -114h94z" />
    <glyph glyph-name="onehalf" unicode="&#xbd;" horiz-adv-x="850" 
d="M163 572q-22 -11 -89 -11l17 84q46 0 79.5 18.5t39.5 51.5h94l-79 -406h-113zM166 0h-127l592 715h127zM453 0q7 48 31.5 81.5t52.5 54t77 48.5q45 27 63.5 39.5t31 29.5t12.5 40q0 38 -40 38q-28 0 -45.5 -17.5t-24.5 -58.5h-103q14 77 62 119.5t127 42.5q62 0 97.5 -28
t35.5 -78q0 -43 -19 -74.5t-45.5 -52.5t-67.5 -46q-53 -31 -70 -49v-1h161l-17 -88h-319z" />
    <glyph glyph-name="threequarters" unicode="&#xbe;" horiz-adv-x="933" 
d="M100.5 330q-40.5 31 -40.5 88q0 19 4 36h104q-2 -8 -2 -22q0 -48 55 -48q31 0 48 15t17 41q0 23 -14 32.5t-44 9.5h-22l14 70h24q32 0 48.5 13.5t16.5 37.5q0 37 -43 37q-26 0 -41.5 -14t-19.5 -36h-104q10 61 59 98.5t125 37.5q62 0 99.5 -28.5t37.5 -77.5
q0 -35 -23 -60.5t-59 -36.5v-1q58 -21 58 -80q0 -64 -50 -103.5t-134 -39.5q-73 0 -113.5 31zM277 0h-127l592 715h127zM804 0h-109l16 84h-181l20 102l224 220h109l-45 -235h59l-17 -87h-60zM753 285l-118 -114h94z" />
    <glyph glyph-name="questiondown" unicode="&#xbf;" horiz-adv-x="532" 
d="M391 450h-136l27 136h136zM33.5 -98q-56.5 46 -56.5 126q0 62 36 104.5t107 81.5q46 27 69.5 45t38 42.5t22.5 65.5h121q-9 -60 -27.5 -99.5t-45 -65t-68.5 -51.5q-58 -34 -81 -56.5t-23 -55.5q0 -29 20 -46t59 -17q52 0 87.5 32.5t45.5 98.5h147q-9 -74 -46.5 -131
t-100.5 -88.5t-146 -31.5q-102 0 -158.5 46z" />
    <glyph glyph-name="Agrave" unicode="&#xc0;" horiz-adv-x="689" 
d="M112 0h-160l400 715h160l128 -715h-161l-20 158h-265zM407 573l-152 -295h191l-37 295h-2zM491 782h-105l-98 147h156z" />
    <glyph glyph-name="Aacute" unicode="&#xc1;" horiz-adv-x="689" 
d="M112 0h-160l400 715h160l128 -715h-161l-20 158h-265zM407 573l-152 -295h191l-37 295h-2zM493 782h-104l78 147h156z" />
    <glyph glyph-name="Acircumflex" unicode="&#xc2;" horiz-adv-x="689" 
d="M112 0h-160l400 715h160l128 -715h-161l-20 158h-265zM407 573l-152 -295h191l-37 295h-2zM399 782h-126l136 147h132l78 -147h-121l-32 84h-2z" />
    <glyph glyph-name="Atilde" unicode="&#xc3;" horiz-adv-x="689" 
d="M112 0h-160l400 715h160l128 -715h-161l-20 158h-265zM407 573l-152 -295h191l-37 295h-2zM289 775q13 67 41.5 99.5t68.5 32.5q19 0 35 -5.5t39 -16.5q17 -9 28 -13t22 -4q32 0 40 38h78q-13 -67 -41.5 -99.5t-68.5 -32.5q-19 0 -36.5 6t-38.5 16q-13 6 -26 11t-24 5
q-31 0 -38 -37h-79z" />
    <glyph glyph-name="Adieresis" unicode="&#xc4;" horiz-adv-x="689" 
d="M112 0h-160l400 715h160l128 -715h-161l-20 158h-265zM407 573l-152 -295h191l-37 295h-2zM423 787h-142l28 129h142zM616 787h-142l28 129h142z" />
    <glyph glyph-name="Aring" unicode="&#xc5;" horiz-adv-x="689" 
d="M112 0h-160l400 715h160l128 -715h-161l-20 158h-265zM407 573l-152 -295h191l-37 295h-2zM379.5 783q-24.5 24 -24.5 65q0 49 34 81t82 32q44 0 68.5 -23.5t24.5 -64.5q0 -50 -34 -82t-83 -32q-43 0 -67.5 24zM490.5 830q15.5 17 15.5 41q0 17 -10.5 26.5t-27.5 9.5
q-24 0 -39.5 -16.5t-15.5 -40.5q0 -18 10 -27.5t28 -9.5q24 0 39.5 17z" />
    <glyph glyph-name="AE" unicode="&#xc6;" horiz-adv-x="1001" 
d="M1049 715l-25 -128h-375l-29 -155h325l-26 -128h-324l-34 -176h382l-25 -128h-537l30 156h-221l-83 -157h-157l416 716h683zM418 586l-166 -309h183l60 309h-77z" />
    <glyph glyph-name="Ccedilla" unicode="&#xc7;" horiz-adv-x="716" 
d="M573 458q2 68 -29 106.5t-98 38.5q-75 0 -131.5 -44.5t-86.5 -118t-30 -156.5q0 -85 32.5 -128.5t107.5 -43.5q148 0 198 153h158q-36 -121 -126.5 -197t-222.5 -82l-35 -36l-1 -2q6 1 18 1q32 0 52.5 -14t20.5 -40q0 -40 -39.5 -66.5t-100.5 -26.5t-104 32l33 33
q32 -15 62 -15q25 0 39.5 10.5t14.5 27.5q0 21 -30 21q-21 0 -40 -7l-11 30l56 53q-112 13 -173 89t-61 202q0 123 54 226.5t149 164.5t214 61q87 0 147.5 -30.5t91 -85t30.5 -124.5q0 -10 -2 -32h-157z" />
    <glyph glyph-name="Egrave" unicode="&#xc8;" horiz-adv-x="634" 
d="M551 0h-537l139 715h529l-25 -128h-375l-29 -155h325l-26 -128h-324l-34 -176h382zM474 782h-105l-98 147h156z" />
    <glyph glyph-name="Eacute" unicode="&#xc9;" horiz-adv-x="634" 
d="M551 0h-537l139 715h529l-25 -128h-375l-29 -155h325l-26 -128h-324l-34 -176h382zM475 782h-104l78 147h156z" />
    <glyph glyph-name="Ecircumflex" unicode="&#xca;" horiz-adv-x="634" 
d="M551 0h-537l139 715h529l-25 -128h-375l-29 -155h325l-26 -128h-324l-34 -176h382zM382 782h-126l136 147h132l78 -147h-121l-32 84h-2z" />
    <glyph glyph-name="Edieresis" unicode="&#xcb;" horiz-adv-x="634" 
d="M551 0h-537l139 715h529l-25 -128h-375l-29 -155h325l-26 -128h-324l-34 -176h382zM406 787h-142l28 129h142zM599 787h-142l28 129h142z" />
    <glyph glyph-name="Igrave" unicode="&#xcc;" horiz-adv-x="283" 
d="M169 0h-155l139 715h155zM286 782h-105l-98 147h156z" />
    <glyph glyph-name="Iacute" unicode="&#xcd;" horiz-adv-x="283" 
d="M169 0h-155l139 715h155zM287 782h-104l78 147h156z" />
    <glyph glyph-name="Icircumflex" unicode="&#xce;" horiz-adv-x="283" 
d="M169 0h-155l139 715h155zM193 782h-126l136 147h132l78 -147h-121l-32 84h-2z" />
    <glyph glyph-name="Idieresis" unicode="&#xcf;" horiz-adv-x="283" 
d="M169 0h-155l139 715h155zM218 787h-142l28 129h142zM411 787h-142l28 129h142z" />
    <glyph glyph-name="Eth" unicode="&#xd0;" horiz-adv-x="732" 
d="M454 715q132 0 201 -69t69 -203q0 -122 -48 -223.5t-136.5 -160.5t-204.5 -59h-310l64 328h-61l16 84h61l59 303h290zM337 128q66 0 119 40.5t83 109.5t30 152q0 80 -34 118.5t-119 38.5h-123l-34 -175h166l-16 -84h-166l-38 -200h132z" />
    <glyph glyph-name="Ntilde" unicode="&#xd1;" horiz-adv-x="725" 
d="M169 0h-155l139 715h158l189 -471h4l92 471h154l-139 -715h-158l-189 471h-4zM305 775q13 67 41.5 99.5t68.5 32.5q19 0 35 -5.5t39 -16.5q17 -9 28 -13t22 -4q32 0 40 38h78q-13 -67 -41.5 -99.5t-68.5 -32.5q-19 0 -36.5 6t-38.5 16q-13 6 -26 11t-24 5q-31 0 -38 -37
h-79z" />
    <glyph glyph-name="Ograve" unicode="&#xd2;" horiz-adv-x="773" 
d="M186.5 21.5q-68.5 36.5 -104.5 103.5t-36 157q0 122 51.5 224.5t145.5 163t216 60.5q96 0 165.5 -36.5t105.5 -103.5t36 -157q0 -121 -51.5 -223.5t-146 -163.5t-217.5 -61q-96 0 -164.5 36.5zM493.5 157q57.5 45 87.5 118t30 155q0 80 -39.5 126.5t-117.5 46.5
q-77 0 -134.5 -45t-88 -118t-30.5 -155q0 -80 40 -126.5t118 -46.5q77 0 134.5 45zM533 782h-105l-98 147h156z" />
    <glyph glyph-name="Oacute" unicode="&#xd3;" horiz-adv-x="773" 
d="M186.5 21.5q-68.5 36.5 -104.5 103.5t-36 157q0 122 51.5 224.5t145.5 163t216 60.5q96 0 165.5 -36.5t105.5 -103.5t36 -157q0 -121 -51.5 -223.5t-146 -163.5t-217.5 -61q-96 0 -164.5 36.5zM493.5 157q57.5 45 87.5 118t30 155q0 80 -39.5 126.5t-117.5 46.5
q-77 0 -134.5 -45t-88 -118t-30.5 -155q0 -80 40 -126.5t118 -46.5q77 0 134.5 45zM534 782h-104l78 147h156z" />
    <glyph glyph-name="Ocircumflex" unicode="&#xd4;" horiz-adv-x="773" 
d="M186.5 21.5q-68.5 36.5 -104.5 103.5t-36 157q0 122 51.5 224.5t145.5 163t216 60.5q96 0 165.5 -36.5t105.5 -103.5t36 -157q0 -121 -51.5 -223.5t-146 -163.5t-217.5 -61q-96 0 -164.5 36.5zM493.5 157q57.5 45 87.5 118t30 155q0 80 -39.5 126.5t-117.5 46.5
q-77 0 -134.5 -45t-88 -118t-30.5 -155q0 -80 40 -126.5t118 -46.5q77 0 134.5 45zM441 782h-126l136 147h132l78 -147h-121l-32 84h-2z" />
    <glyph glyph-name="Otilde" unicode="&#xd5;" horiz-adv-x="773" 
d="M186.5 21.5q-68.5 36.5 -104.5 103.5t-36 157q0 122 51.5 224.5t145.5 163t216 60.5q96 0 165.5 -36.5t105.5 -103.5t36 -157q0 -121 -51.5 -223.5t-146 -163.5t-217.5 -61q-96 0 -164.5 36.5zM493.5 157q57.5 45 87.5 118t30 155q0 80 -39.5 126.5t-117.5 46.5
q-77 0 -134.5 -45t-88 -118t-30.5 -155q0 -80 40 -126.5t118 -46.5q77 0 134.5 45zM330 775q13 67 41.5 99.5t68.5 32.5q19 0 35 -5.5t39 -16.5q17 -9 28 -13t22 -4q32 0 40 38h78q-13 -67 -41.5 -99.5t-68.5 -32.5q-19 0 -36.5 6t-38.5 16q-13 6 -26 11t-24 5
q-31 0 -38 -37h-79z" />
    <glyph glyph-name="Odieresis" unicode="&#xd6;" horiz-adv-x="773" 
d="M186.5 21.5q-68.5 36.5 -104.5 103.5t-36 157q0 122 51.5 224.5t145.5 163t216 60.5q96 0 165.5 -36.5t105.5 -103.5t36 -157q0 -121 -51.5 -223.5t-146 -163.5t-217.5 -61q-96 0 -164.5 36.5zM493.5 157q57.5 45 87.5 118t30 155q0 80 -39.5 126.5t-117.5 46.5
q-77 0 -134.5 -45t-88 -118t-30.5 -155q0 -80 40 -126.5t118 -46.5q77 0 134.5 45zM465 787h-142l28 129h142zM658 787h-142l28 129h142z" />
    <glyph glyph-name="multiply" unicode="&#xd7;" horiz-adv-x="571" 
d="M283 242l-175 -146l-69 86l175 146l-118 145l103 86l117 -146l175 146l68 -86l-174 -145l118 -146l-103 -86z" />
    <glyph glyph-name="Oslash" unicode="&#xd8;" horiz-adv-x="776" 
d="M824 674l-95 -80q38 -67 38 -161q0 -121 -51.5 -223.5t-145.5 -163.5t-217 -61q-78 0 -138.5 24t-99.5 70l-92 -77l-32 41l94 79q-37 69 -37 160q0 122 51.5 224.5t145.5 163t216 60.5q77 0 137.5 -24t100.5 -69l91 77zM209 226l375 315q-40 62 -129 62q-77 0 -134 -45
t-87.5 -118t-30.5 -155q0 -32 6 -59zM606 491l-376 -315q40 -64 131 -64q77 0 134 45t87.5 118.5t30.5 154.5q0 34 -7 61z" />
    <glyph glyph-name="Ugrave" unicode="&#xd9;" horiz-adv-x="701" 
d="M115.5 41.5q-64.5 56.5 -64.5 150.5q0 29 6 60l90 463h155l-91 -463q-5 -28 -5 -46q0 -49 28.5 -71.5t85.5 -22.5q71 0 111.5 33.5t55.5 106.5l90 463h154l-90 -463q-26 -132 -105 -199.5t-231 -67.5q-125 0 -189.5 56.5zM492 782h-105l-98 147h156z" />
    <glyph glyph-name="Uacute" unicode="&#xda;" horiz-adv-x="701" 
d="M115.5 41.5q-64.5 56.5 -64.5 150.5q0 29 6 60l90 463h155l-91 -463q-5 -28 -5 -46q0 -49 28.5 -71.5t85.5 -22.5q71 0 111.5 33.5t55.5 106.5l90 463h154l-90 -463q-26 -132 -105 -199.5t-231 -67.5q-125 0 -189.5 56.5zM493 782h-104l78 147h156z" />
    <glyph glyph-name="Ucircumflex" unicode="&#xdb;" horiz-adv-x="701" 
d="M115.5 41.5q-64.5 56.5 -64.5 150.5q0 29 6 60l90 463h155l-91 -463q-5 -28 -5 -46q0 -49 28.5 -71.5t85.5 -22.5q71 0 111.5 33.5t55.5 106.5l90 463h154l-90 -463q-26 -132 -105 -199.5t-231 -67.5q-125 0 -189.5 56.5zM399 782h-126l136 147h132l78 -147h-121l-32 84
h-2z" />
    <glyph glyph-name="Udieresis" unicode="&#xdc;" horiz-adv-x="701" 
d="M115.5 41.5q-64.5 56.5 -64.5 150.5q0 29 6 60l90 463h155l-91 -463q-5 -28 -5 -46q0 -49 28.5 -71.5t85.5 -22.5q71 0 111.5 33.5t55.5 106.5l90 463h154l-90 -463q-26 -132 -105 -199.5t-231 -67.5q-125 0 -189.5 56.5zM424 787h-142l28 129h142zM617 787h-142l28 129
h142z" />
    <glyph glyph-name="Yacute" unicode="&#xdd;" horiz-adv-x="658" 
d="M356 0h-154l53 272l-162 443h164l96 -318h2l222 318h165l-333 -443zM473 782h-104l78 147h156z" />
    <glyph glyph-name="Thorn" unicode="&#xde;" horiz-adv-x="651" 
d="M14 0l139 715h155l-21 -106h150q226 0 226 -182q0 -74 -36 -133.5t-101 -94t-149 -34.5h-176l-32 -165h-155zM375 293q62 0 97 32.5t35 86.5q0 38 -23 53.5t-74 15.5h-148l-37 -188h150z" />
    <glyph glyph-name="germandbls" unicode="&#xdf;" 
d="M188 0l20 106q32 -8 55 -8q61 0 97.5 42t36.5 106q0 102 -112 102h-26l17 92h23q55 0 91 34t36 84q0 67 -76 67q-52 0 -79.5 -34t-42.5 -112l-93 -479h-137l93 481q25 126 93.5 187.5t175.5 61.5q96 0 149.5 -45.5t53.5 -116.5q0 -61 -38 -108t-100 -66v-2
q110 -35 110 -156q0 -67 -33.5 -124.5t-92.5 -92t-132 -34.5q-47 0 -89 15z" />
    <glyph glyph-name="agrave" unicode="&#xe0;" horiz-adv-x="562" 
d="M43 19q-38 34 -38 97q0 82 61 123t171 65q56 11 85.5 19.5t48 23.5t18.5 39q0 45 -72 45q-49 0 -77 -20t-40 -64h-132q19 82 84.5 131.5t179.5 49.5q188 0 188 -147q0 -22 -7 -61l-42 -203q-3 -15 -3 -24q0 -11 5.5 -16t18.5 -5q6 0 11 1l-15 -73q-42 -9 -73 -9
q-86 0 -84 74h-2q-30 -37 -76 -58.5t-102 -21.5q-70 0 -108 34zM307 118q37 33 49 90l11 51q-18 -12 -36 -18t-69 -17q-63 -14 -90.5 -31t-27.5 -52q0 -28 17.5 -42t49.5 -14q59 0 96 33zM391 578h-105l-98 147h156z" />
    <glyph glyph-name="aacute" unicode="&#xe1;" horiz-adv-x="562" 
d="M43 19q-38 34 -38 97q0 82 61 123t171 65q56 11 85.5 19.5t48 23.5t18.5 39q0 45 -72 45q-49 0 -77 -20t-40 -64h-132q19 82 84.5 131.5t179.5 49.5q188 0 188 -147q0 -22 -7 -61l-42 -203q-3 -15 -3 -24q0 -11 5.5 -16t18.5 -5q6 0 11 1l-15 -73q-42 -9 -73 -9
q-86 0 -84 74h-2q-30 -37 -76 -58.5t-102 -21.5q-70 0 -108 34zM307 118q37 33 49 90l11 51q-18 -12 -36 -18t-69 -17q-63 -14 -90.5 -31t-27.5 -52q0 -28 17.5 -42t49.5 -14q59 0 96 33zM392 578h-104l78 147h156z" />
    <glyph glyph-name="acircumflex" unicode="&#xe2;" horiz-adv-x="562" 
d="M43 19q-38 34 -38 97q0 82 61 123t171 65q56 11 85.5 19.5t48 23.5t18.5 39q0 45 -72 45q-49 0 -77 -20t-40 -64h-132q19 82 84.5 131.5t179.5 49.5q188 0 188 -147q0 -22 -7 -61l-42 -203q-3 -15 -3 -24q0 -11 5.5 -16t18.5 -5q6 0 11 1l-15 -73q-42 -9 -73 -9
q-86 0 -84 74h-2q-30 -37 -76 -58.5t-102 -21.5q-70 0 -108 34zM307 118q37 33 49 90l11 51q-18 -12 -36 -18t-69 -17q-63 -14 -90.5 -31t-27.5 -52q0 -28 17.5 -42t49.5 -14q59 0 96 33zM299 578h-126l136 147h132l78 -147h-121l-32 84h-2z" />
    <glyph glyph-name="atilde" unicode="&#xe3;" horiz-adv-x="562" 
d="M43 19q-38 34 -38 97q0 82 61 123t171 65q56 11 85.5 19.5t48 23.5t18.5 39q0 45 -72 45q-49 0 -77 -20t-40 -64h-132q19 82 84.5 131.5t179.5 49.5q188 0 188 -147q0 -22 -7 -61l-42 -203q-3 -15 -3 -24q0 -11 5.5 -16t18.5 -5q6 0 11 1l-15 -73q-42 -9 -73 -9
q-86 0 -84 74h-2q-30 -37 -76 -58.5t-102 -21.5q-70 0 -108 34zM307 118q37 33 49 90l11 51q-18 -12 -36 -18t-69 -17q-63 -14 -90.5 -31t-27.5 -52q0 -28 17.5 -42t49.5 -14q59 0 96 33zM188 571q13 67 41.5 99.5t68.5 32.5q19 0 35 -5.5t39 -16.5q17 -9 28 -13t22 -4
q32 0 40 38h78q-13 -67 -41.5 -99.5t-68.5 -32.5q-19 0 -36.5 6t-38.5 16q-13 6 -26 11t-24 5q-31 0 -38 -37h-79z" />
    <glyph glyph-name="adieresis" unicode="&#xe4;" horiz-adv-x="562" 
d="M43 19q-38 34 -38 97q0 82 61 123t171 65q56 11 85.5 19.5t48 23.5t18.5 39q0 45 -72 45q-49 0 -77 -20t-40 -64h-132q19 82 84.5 131.5t179.5 49.5q188 0 188 -147q0 -22 -7 -61l-42 -203q-3 -15 -3 -24q0 -11 5.5 -16t18.5 -5q6 0 11 1l-15 -73q-42 -9 -73 -9
q-86 0 -84 74h-2q-30 -37 -76 -58.5t-102 -21.5q-70 0 -108 34zM307 118q37 33 49 90l11 51q-18 -12 -36 -18t-69 -17q-63 -14 -90.5 -31t-27.5 -52q0 -28 17.5 -42t49.5 -14q59 0 96 33zM323 583h-142l28 129h142zM516 583h-142l28 129h142z" />
    <glyph glyph-name="aring" unicode="&#xe5;" horiz-adv-x="562" 
d="M43 19q-38 34 -38 97q0 82 61 123t171 65q56 11 85.5 19.5t48 23.5t18.5 39q0 45 -72 45q-49 0 -77 -20t-40 -64h-132q19 82 84.5 131.5t179.5 49.5q188 0 188 -147q0 -22 -7 -61l-42 -203q-3 -15 -3 -24q0 -11 5.5 -16t18.5 -5q6 0 11 1l-15 -73q-42 -9 -73 -9
q-86 0 -84 74h-2q-30 -37 -76 -58.5t-102 -21.5q-70 0 -108 34zM307 118q37 33 49 90l11 51q-18 -12 -36 -18t-69 -17q-63 -14 -90.5 -31t-27.5 -52q0 -28 17.5 -42t49.5 -14q59 0 96 33zM279.5 579q-24.5 24 -24.5 65q0 49 34 81t82 32q44 0 68.5 -23.5t24.5 -64.5
q0 -50 -34 -82t-83 -32q-43 0 -67.5 24zM390.5 626q15.5 17 15.5 41q0 17 -10.5 26.5t-27.5 9.5q-24 0 -39.5 -16.5t-15.5 -40.5q0 -18 10 -27.5t28 -9.5q24 0 39.5 17z" />
    <glyph glyph-name="ae" unicode="&#xe6;" horiz-adv-x="910" 
d="M497 219v-15q0 -60 27 -87.5t78 -27.5q49 0 80.5 22t39.5 49h140q-36 -84 -105.5 -130t-168.5 -46q-137 0 -190 87q-81 -86 -220 -86q-173 0 -173 131q0 82 61 123t171 65q56 11 85.5 19.5t48 23.5t18.5 39q0 22 -17 33.5t-54 11.5q-49 0 -77.5 -20t-40.5 -64h-131
q17 79 82 129.5t174 50.5q115 0 159 -61q79 62 191 62q215 0 215 -212q0 -42 -10 -97h-383zM567 395q-39 -31 -56 -85h244q3 15 3 29q0 42 -24.5 64.5t-69.5 22.5q-58 0 -97 -31zM306.5 118q37.5 33 49.5 90l11 47v5q-18 -12 -37 -18.5t-68 -17.5q-62 -14 -89.5 -31.5
t-27.5 -52.5q0 -55 69 -55q55 0 92.5 33z" />
    <glyph glyph-name="ccedilla" unicode="&#xe7;" horiz-adv-x="542" 
d="M402 320l1 15q0 40 -21.5 63.5t-65.5 23.5q-48 0 -84.5 -30.5t-56.5 -80.5t-20 -107q0 -53 24 -83.5t71 -30.5q54 0 83.5 28t43.5 73h134q-22 -87 -87.5 -143t-159.5 -63l-34 -35l-1 -2q6 1 18 1q32 0 52.5 -14t20.5 -40q0 -40 -39.5 -66.5t-100.5 -26.5t-104 32l33 33
q32 -15 62 -15q25 0 39.5 10.5t14.5 27.5q0 21 -30 21q-21 0 -40 -7l-11 30l55 53q-85 11 -132 66t-47 145q0 89 36.5 164t106 120.5t163.5 45.5q71 0 120 -27t71.5 -74.5t17.5 -106.5h-133z" />
    <glyph glyph-name="egrave" unicode="&#xe8;" horiz-adv-x="568" 
d="M155 219v-15q0 -60 27 -87.5t78 -27.5q49 0 80.5 22t39.5 49h140q-36 -84 -105.5 -130t-168.5 -46q-111 0 -167.5 58t-56.5 168q0 86 38.5 159t109 116t163.5 43q215 0 215 -212q0 -42 -10 -97h-383zM225 395q-39 -31 -56 -85h244q3 15 3 29q0 42 -24.5 64.5t-69.5 22.5
q-58 0 -97 -31zM396 579h-105l-98 147h156z" />
    <glyph glyph-name="eacute" unicode="&#xe9;" horiz-adv-x="568" 
d="M155 219v-15q0 -60 27 -87.5t78 -27.5q49 0 80.5 22t39.5 49h140q-36 -84 -105.5 -130t-168.5 -46q-111 0 -167.5 58t-56.5 168q0 86 38.5 159t109 116t163.5 43q215 0 215 -212q0 -42 -10 -97h-383zM225 395q-39 -31 -56 -85h244q3 15 3 29q0 42 -24.5 64.5t-69.5 22.5
q-58 0 -97 -31zM397 579h-104l78 147h156z" />
    <glyph glyph-name="ecircumflex" unicode="&#xea;" horiz-adv-x="568" 
d="M155 219v-15q0 -60 27 -87.5t78 -27.5q49 0 80.5 22t39.5 49h140q-36 -84 -105.5 -130t-168.5 -46q-111 0 -167.5 58t-56.5 168q0 86 38.5 159t109 116t163.5 43q215 0 215 -212q0 -42 -10 -97h-383zM225 395q-39 -31 -56 -85h244q3 15 3 29q0 42 -24.5 64.5t-69.5 22.5
q-58 0 -97 -31zM304 579h-126l136 147h132l78 -147h-121l-32 84h-2z" />
    <glyph glyph-name="edieresis" unicode="&#xeb;" horiz-adv-x="568" 
d="M155 219v-15q0 -60 27 -87.5t78 -27.5q49 0 80.5 22t39.5 49h140q-36 -84 -105.5 -130t-168.5 -46q-111 0 -167.5 58t-56.5 168q0 86 38.5 159t109 116t163.5 43q215 0 215 -212q0 -42 -10 -97h-383zM225 395q-39 -31 -56 -85h244q3 15 3 29q0 42 -24.5 64.5t-69.5 22.5
q-58 0 -97 -31zM328 584h-142l28 129h142zM521 584h-142l28 129h142z" />
    <glyph glyph-name="igrave" unicode="&#xec;" horiz-adv-x="234" 
d="M135 0h-137l100 511h137zM222 578h-105l-98 147h156z" />
    <glyph glyph-name="iacute" unicode="&#xed;" horiz-adv-x="234" 
d="M135 0h-137l100 511h137zM223 578h-104l78 147h156z" />
    <glyph glyph-name="icircumflex" unicode="&#xee;" horiz-adv-x="234" 
d="M135 0h-137l100 511h137zM129 578h-126l136 147h132l78 -147h-121l-32 84h-2z" />
    <glyph glyph-name="idieresis" unicode="&#xef;" horiz-adv-x="234" 
d="M135 0h-137l100 511h137zM154 583h-142l28 129h142zM347 583h-142l28 129h142z" />
    <glyph glyph-name="eth" unicode="&#xf0;" horiz-adv-x="586" 
d="M592 647l-86 -22q69 -96 69 -233q0 -109 -41 -202.5t-117 -149.5t-178 -56q-104 0 -161.5 58t-57.5 161q0 85 36.5 159t101.5 118.5t146 44.5q94 0 134 -61q-8 69 -55 130l-145 -37l-4 58l105 27q-38 37 -94 73h164q34 -22 54 -42l125 32zM340.5 123.5q38.5 28.5 60.5 76
t22 100.5q0 57 -26.5 87t-75.5 30q-48 0 -85.5 -28t-58.5 -75t-21 -101q0 -58 25.5 -88t73.5 -30q47 0 85.5 28.5z" />
    <glyph glyph-name="ntilde" unicode="&#xf1;" 
d="M505.5 493q36.5 -35 36.5 -107q0 -34 -7 -69l-62 -317h-138l60 307q4 17 4 36q0 71 -73 71q-51 0 -87 -33t-45 -81l-59 -300h-137l100 511h137l-13 -67h2q30 38 75 61t103 23q67 0 103.5 -35zM201 571q13 67 41.5 99.5t68.5 32.5q19 0 35 -5.5t39 -16.5q17 -9 28 -13
t22 -4q32 0 40 38h78q-13 -67 -41.5 -99.5t-68.5 -32.5q-19 0 -36.5 6t-38.5 16q-13 6 -26 11t-24 5q-31 0 -38 -37h-79z" />
    <glyph glyph-name="ograve" unicode="&#xf2;" horiz-adv-x="583" 
d="M80 41.5q-60 57.5 -60 159.5q0 91 39.5 165.5t111.5 118t163 43.5q109 0 168.5 -57.5t59.5 -160.5q0 -90 -39.5 -164.5t-110.5 -118t-162 -43.5q-110 0 -170 57.5zM348.5 120.5q37.5 30.5 57.5 80.5t20 107q0 55 -27 84.5t-77 29.5t-87.5 -30.5t-58 -80.5t-20.5 -107
q0 -55 27.5 -84.5t77.5 -29.5t87.5 30.5zM402 578h-105l-98 147h156z" />
    <glyph glyph-name="oacute" unicode="&#xf3;" horiz-adv-x="583" 
d="M80 41.5q-60 57.5 -60 159.5q0 91 39.5 165.5t111.5 118t163 43.5q109 0 168.5 -57.5t59.5 -160.5q0 -90 -39.5 -164.5t-110.5 -118t-162 -43.5q-110 0 -170 57.5zM348.5 120.5q37.5 30.5 57.5 80.5t20 107q0 55 -27 84.5t-77 29.5t-87.5 -30.5t-58 -80.5t-20.5 -107
q0 -55 27.5 -84.5t77.5 -29.5t87.5 30.5zM404 578h-104l78 147h156z" />
    <glyph glyph-name="ocircumflex" unicode="&#xf4;" horiz-adv-x="583" 
d="M80 41.5q-60 57.5 -60 159.5q0 91 39.5 165.5t111.5 118t163 43.5q109 0 168.5 -57.5t59.5 -160.5q0 -90 -39.5 -164.5t-110.5 -118t-162 -43.5q-110 0 -170 57.5zM348.5 120.5q37.5 30.5 57.5 80.5t20 107q0 55 -27 84.5t-77 29.5t-87.5 -30.5t-58 -80.5t-20.5 -107
q0 -55 27.5 -84.5t77.5 -29.5t87.5 30.5zM310 578h-126l136 147h132l78 -147h-121l-32 84h-2z" />
    <glyph glyph-name="otilde" unicode="&#xf5;" horiz-adv-x="583" 
d="M80 41.5q-60 57.5 -60 159.5q0 91 39.5 165.5t111.5 118t163 43.5q109 0 168.5 -57.5t59.5 -160.5q0 -90 -39.5 -164.5t-110.5 -118t-162 -43.5q-110 0 -170 57.5zM348.5 120.5q37.5 30.5 57.5 80.5t20 107q0 55 -27 84.5t-77 29.5t-87.5 -30.5t-58 -80.5t-20.5 -107
q0 -55 27.5 -84.5t77.5 -29.5t87.5 30.5zM200 571q13 67 41.5 99.5t68.5 32.5q19 0 35 -5.5t39 -16.5q17 -9 28 -13t22 -4q32 0 40 38h78q-13 -67 -41.5 -99.5t-68.5 -32.5q-19 0 -36.5 6t-38.5 16q-13 6 -26 11t-24 5q-31 0 -38 -37h-79z" />
    <glyph glyph-name="odieresis" unicode="&#xf6;" horiz-adv-x="583" 
d="M80 41.5q-60 57.5 -60 159.5q0 91 39.5 165.5t111.5 118t163 43.5q109 0 168.5 -57.5t59.5 -160.5q0 -90 -39.5 -164.5t-110.5 -118t-162 -43.5q-110 0 -170 57.5zM348.5 120.5q37.5 30.5 57.5 80.5t20 107q0 55 -27 84.5t-77 29.5t-87.5 -30.5t-58 -80.5t-20.5 -107
q0 -55 27.5 -84.5t77.5 -29.5t87.5 30.5zM334 583h-142l28 129h142zM527 583h-142l28 129h142z" />
    <glyph glyph-name="divide" unicode="&#xf7;" horiz-adv-x="571" 
d="M391 450h-136l27 136h136zM316 70h-136l27 136h136zM526 267h-477l23 122h477z" />
    <glyph glyph-name="oslash" unicode="&#xf8;" horiz-adv-x="586" 
d="M603 483l-66 -56q27 -48 27 -117q0 -90 -39.5 -164.5t-111 -118t-162.5 -43.5q-111 0 -171 60l-67 -56l-32 41l67 57q-26 49 -26 115q0 91 39.5 165.5t111 118t162.5 43.5q109 0 170 -59l65 54zM160 179l246 207q-27 36 -82 36q-50 0 -88 -30.5t-58 -80.5t-20 -107
q0 -9 2 -25zM426 335l-247 -208q26 -37 83 -37q50 0 88 30.5t58 80.5t20 107q0 9 -2 27z" />
    <glyph glyph-name="ugrave" unicode="&#xf9;" 
d="M430 511h138l-99 -511h-138l14 70h-2q-28 -37 -73 -61t-101 -24q-69 0 -107 34t-38 106q0 29 8 71l62 315h137l-60 -305q-4 -17 -4 -37q0 -72 71 -72q49 0 83 26.5t48 71.5zM382 578h-105l-98 147h156z" />
    <glyph glyph-name="uacute" unicode="&#xfa;" 
d="M430 511h138l-99 -511h-138l14 70h-2q-28 -37 -73 -61t-101 -24q-69 0 -107 34t-38 106q0 29 8 71l62 315h137l-60 -305q-4 -17 -4 -37q0 -72 71 -72q49 0 83 26.5t48 71.5zM384 578h-104l78 147h156z" />
    <glyph glyph-name="ucircumflex" unicode="&#xfb;" 
d="M430 511h138l-99 -511h-138l14 70h-2q-28 -37 -73 -61t-101 -24q-69 0 -107 34t-38 106q0 29 8 71l62 315h137l-60 -305q-4 -17 -4 -37q0 -72 71 -72q49 0 83 26.5t48 71.5zM290 578h-126l136 147h132l78 -147h-121l-32 84h-2z" />
    <glyph glyph-name="udieresis" unicode="&#xfc;" 
d="M430 511h138l-99 -511h-138l14 70h-2q-28 -37 -73 -61t-101 -24q-69 0 -107 34t-38 106q0 29 8 71l62 315h137l-60 -305q-4 -17 -4 -37q0 -72 71 -72q49 0 83 26.5t48 71.5zM314 583h-142l28 129h142zM507 583h-142l28 129h142z" />
    <glyph glyph-name="yacute" unicode="&#xfd;" horiz-adv-x="533" 
d="M-26 -169l21 107q24 -3 44 -3q34 0 64 14.5t49 56.5l-109 505h140l62 -358h2l186 358h145l-304 -540q-47 -82 -95 -115.5t-124 -33.5q-36 0 -81 9zM366 578h-104l78 147h156z" />
    <glyph glyph-name="thorn" unicode="&#xfe;" horiz-adv-x="591" 
d="M523.5 472.5q48.5 -54.5 48.5 -152.5q0 -91 -38 -168t-103 -122t-142 -45q-53 0 -88.5 21t-51.5 49h-3l-45 -232h-137l173 892h137l-50 -258h3q25 28 68 49t96 21q84 0 132.5 -54.5zM354.5 120q35.5 30 55.5 80t20 106q0 115 -90 115q-45 0 -81.5 -30.5t-56.5 -80.5
t-20 -104q0 -58 24 -87t68 -29q45 0 80.5 30z" />
    <glyph glyph-name="ydieresis" unicode="&#xff;" horiz-adv-x="533" 
d="M-26 -169l21 107q24 -3 44 -3q34 0 64 14.5t49 56.5l-109 505h140l62 -358h2l186 358h145l-304 -540q-47 -82 -95 -115.5t-124 -33.5q-36 0 -81 9zM296 583h-142l28 129h142zM489 583h-142l28 129h142z" />
    <glyph glyph-name="Amacron" unicode="&#x100;" horiz-adv-x="689" 
d="M112 0h-160l400 715h160l128 -715h-161l-20 158h-265zM407 573l-152 -295h191l-37 295h-2zM589 787h-278l17 92h278z" />
    <glyph glyph-name="amacron" unicode="&#x101;" horiz-adv-x="562" 
d="M43 19q-38 34 -38 97q0 82 61 123t171 65q56 11 85.5 19.5t48 23.5t18.5 39q0 45 -72 45q-49 0 -77 -20t-40 -64h-132q19 82 84.5 131.5t179.5 49.5q188 0 188 -147q0 -22 -7 -61l-42 -203q-3 -15 -3 -24q0 -11 5.5 -16t18.5 -5q6 0 11 1l-15 -73q-42 -9 -73 -9
q-86 0 -84 74h-2q-30 -37 -76 -58.5t-102 -21.5q-70 0 -108 34zM307 118q37 33 49 90l11 51q-18 -12 -36 -18t-69 -17q-63 -14 -90.5 -31t-27.5 -52q0 -28 17.5 -42t49.5 -14q59 0 96 33zM489 583h-278l17 92h278z" />
    <glyph glyph-name="Abreve" unicode="&#x102;" horiz-adv-x="689" 
d="M112 0h-160l400 715h160l128 -715h-161l-20 158h-265zM407 573l-152 -295h191l-37 295h-2zM355.5 803.5q-34.5 30.5 -34.5 85.5q0 15 3 31h80q-6 -60 55 -60q31 0 52 15.5t29 44.5h85q-16 -68 -62 -107.5t-114 -39.5q-59 0 -93.5 30.5z" />
    <glyph glyph-name="abreve" unicode="&#x103;" horiz-adv-x="562" 
d="M43 19q-38 34 -38 97q0 82 61 123t171 65q56 11 85.5 19.5t48 23.5t18.5 39q0 45 -72 45q-49 0 -77 -20t-40 -64h-132q19 82 84.5 131.5t179.5 49.5q188 0 188 -147q0 -22 -7 -61l-42 -203q-3 -15 -3 -24q0 -11 5.5 -16t18.5 -5q6 0 11 1l-15 -73q-42 -9 -73 -9
q-86 0 -84 74h-2q-30 -37 -76 -58.5t-102 -21.5q-70 0 -108 34zM307 118q37 33 49 90l11 51q-18 -12 -36 -18t-69 -17q-63 -14 -90.5 -31t-27.5 -52q0 -28 17.5 -42t49.5 -14q59 0 96 33zM255.5 599.5q-34.5 30.5 -34.5 85.5q0 15 3 31h80q-6 -60 55 -60q31 0 52 15.5
t29 44.5h85q-16 -68 -62 -107.5t-114 -39.5q-59 0 -93.5 30.5z" />
    <glyph glyph-name="Aogonek" unicode="&#x104;" horiz-adv-x="689" 
d="M577 -92q14 0 44 8l-15 -81q-42 -11 -79 -11q-46 0 -69.5 17t-23.5 50q0 32 25 62t65 47h-45l-20 158h-265l-82 -158h-160l400 715h160l128 -715h-27q-28 -14 -46.5 -32.5t-18.5 -35.5q0 -24 29 -24zM407 573l-152 -295h191l-37 295h-2z" />
    <glyph glyph-name="aogonek" unicode="&#x105;" horiz-adv-x="562" 
d="M471 117q-3 -15 -3 -24q0 -11 5.5 -16t18.5 -5q6 0 11 1l-15 -73l-5 -1q-28 -14 -47.5 -32.5t-19.5 -36.5q0 -24 29 -24q14 0 44 8l-15 -81q-42 -11 -79 -11q-46 0 -69.5 17t-23.5 50q0 31 22.5 59t58.5 46q-54 12 -52 71h-2q-30 -37 -76 -58.5t-102 -21.5q-70 0 -108 34
t-38 97q0 82 61 123t171 65q56 11 85.5 19.5t48 23.5t18.5 39q0 45 -72 45q-49 0 -77 -20t-40 -64h-132q19 82 84.5 131.5t179.5 49.5q188 0 188 -147q0 -22 -7 -61zM367 259q-18 -12 -36 -18t-69 -17q-63 -14 -90.5 -31t-27.5 -52q0 -28 17.5 -42t49.5 -14q59 0 96 33
t49 90z" />
    <glyph glyph-name="Cacute" unicode="&#x106;" horiz-adv-x="716" 
d="M118.5 62q-72.5 77 -72.5 216q0 123 54 226.5t149 164.5t214 61q87 0 147.5 -30.5t91 -85t30.5 -124.5q0 -10 -2 -32h-157q2 68 -29 106.5t-98 38.5q-75 0 -131.5 -44.5t-86.5 -118t-30 -156.5q0 -85 32.5 -128.5t107.5 -43.5q148 0 198 153h158q-37 -126 -134 -203
t-237 -77q-132 0 -204.5 77zM529 782h-104l78 147h156z" />
    <glyph glyph-name="cacute" unicode="&#x107;" horiz-adv-x="542" 
d="M78.5 40.5q-58.5 56.5 -58.5 157.5q0 89 36.5 164t106 120.5t163.5 45.5q71 0 120 -27t71.5 -74.5t17.5 -106.5h-133l1 15q0 40 -21.5 63.5t-65.5 23.5q-48 0 -84.5 -30.5t-56.5 -80.5t-20 -107q0 -53 24 -83.5t71 -30.5q54 0 83.5 28t43.5 73h134q-24 -93 -96.5 -150
t-174.5 -57q-103 0 -161.5 56.5zM389 578h-104l78 147h156z" />
    <glyph glyph-name="Ccircumflex" unicode="&#x108;" horiz-adv-x="716" 
d="M118.5 62q-72.5 77 -72.5 216q0 123 54 226.5t149 164.5t214 61q87 0 147.5 -30.5t91 -85t30.5 -124.5q0 -10 -2 -32h-157q2 68 -29 106.5t-98 38.5q-75 0 -131.5 -44.5t-86.5 -118t-30 -156.5q0 -85 32.5 -128.5t107.5 -43.5q148 0 198 153h158q-37 -126 -134 -203
t-237 -77q-132 0 -204.5 77zM435 782h-126l136 147h132l78 -147h-121l-32 84h-2z" />
    <glyph glyph-name="ccircumflex" unicode="&#x109;" horiz-adv-x="542" 
d="M78.5 40.5q-58.5 56.5 -58.5 157.5q0 89 36.5 164t106 120.5t163.5 45.5q71 0 120 -27t71.5 -74.5t17.5 -106.5h-133l1 15q0 40 -21.5 63.5t-65.5 23.5q-48 0 -84.5 -30.5t-56.5 -80.5t-20 -107q0 -53 24 -83.5t71 -30.5q54 0 83.5 28t43.5 73h134q-24 -93 -96.5 -150
t-174.5 -57q-103 0 -161.5 56.5zM295 578h-126l136 147h132l78 -147h-121l-32 84h-2z" />
    <glyph glyph-name="Cdotaccent" unicode="&#x10a;" horiz-adv-x="716" 
d="M118.5 62q-72.5 77 -72.5 216q0 123 54 226.5t149 164.5t214 61q87 0 147.5 -30.5t91 -85t30.5 -124.5q0 -10 -2 -32h-157q2 68 -29 106.5t-98 38.5q-75 0 -131.5 -44.5t-86.5 -118t-30 -156.5q0 -85 32.5 -128.5t107.5 -43.5q148 0 198 153h158q-37 -126 -134 -203
t-237 -77q-132 0 -204.5 77zM557 787h-142l25 129h142z" />
    <glyph glyph-name="cdotaccent" unicode="&#x10b;" horiz-adv-x="542" 
d="M78.5 40.5q-58.5 56.5 -58.5 157.5q0 89 36.5 164t106 120.5t163.5 45.5q71 0 120 -27t71.5 -74.5t17.5 -106.5h-133l1 15q0 40 -21.5 63.5t-65.5 23.5q-48 0 -84.5 -30.5t-56.5 -80.5t-20 -107q0 -53 24 -83.5t71 -30.5q54 0 83.5 28t43.5 73h134q-24 -93 -96.5 -150
t-174.5 -57q-103 0 -161.5 56.5zM417 583h-142l25 129h142z" />
    <glyph glyph-name="Ccaron" unicode="&#x10c;" horiz-adv-x="716" 
d="M118.5 62q-72.5 77 -72.5 216q0 123 54 226.5t149 164.5t214 61q87 0 147.5 -30.5t91 -85t30.5 -124.5q0 -10 -2 -32h-157q2 68 -29 106.5t-98 38.5q-75 0 -131.5 -44.5t-86.5 -118t-30 -156.5q0 -85 32.5 -128.5t107.5 -43.5q148 0 198 153h158q-37 -126 -134 -203
t-237 -77q-132 0 -204.5 77zM553 782h-137l-74 147h118l32 -84h2l64 84h127z" />
    <glyph glyph-name="ccaron" unicode="&#x10d;" horiz-adv-x="542" 
d="M78.5 40.5q-58.5 56.5 -58.5 157.5q0 89 36.5 164t106 120.5t163.5 45.5q71 0 120 -27t71.5 -74.5t17.5 -106.5h-133l1 15q0 40 -21.5 63.5t-65.5 23.5q-48 0 -84.5 -30.5t-56.5 -80.5t-20 -107q0 -53 24 -83.5t71 -30.5q54 0 83.5 28t43.5 73h134q-24 -93 -96.5 -150
t-174.5 -57q-103 0 -161.5 56.5zM413 578h-137l-74 147h118l32 -84h2l64 84h127z" />
    <glyph glyph-name="Dcaron" unicode="&#x10e;" horiz-adv-x="721" 
d="M14 0l139 715h290q132 0 201.5 -69t69.5 -203q0 -122 -48 -223.5t-136.5 -160.5t-204.5 -59h-311zM326 128q66 0 119 40.5t83 109.5t30 152q0 80 -34 118.5t-119 38.5h-123l-88 -459h132zM483 782h-137l-74 147h118l32 -84h2l64 84h127z" />
    <glyph glyph-name="dcaron" unicode="&#x10f;" horiz-adv-x="656" 
d="M494 715h137l-139 -715h-137l10 54h-1q-25 -28 -68.5 -48.5t-96.5 -20.5q-84 0 -132 54.5t-48 152.5q0 90 37.5 167t102.5 122.5t142 45.5q53 0 88.5 -21t51.5 -50h3zM332.5 120.5q36.5 30.5 56.5 80.5t20 105q0 57 -24 86t-69 29t-80.5 -30t-55.5 -79.5t-20 -105.5
q0 -116 90 -116q46 0 82.5 30.5zM721 513h-96l63 202h148z" />
    <glyph glyph-name="Dcroat" unicode="&#x110;" horiz-adv-x="732" 
d="M454 715q132 0 201 -69t69 -203q0 -122 -48 -223.5t-136.5 -160.5t-204.5 -59h-310l64 328h-61l16 84h61l59 303h290zM337 128q66 0 119 40.5t83 109.5t30 152q0 80 -34 118.5t-119 38.5h-123l-34 -175h166l-16 -84h-166l-38 -200h132z" />
    <glyph glyph-name="dcroat" unicode="&#x111;" horiz-adv-x="591" 
d="M677 660l-16 -82h-57l-112 -578h-137l10 54h-1q-25 -28 -68.5 -48.5t-96.5 -20.5q-84 0 -132 54.5t-48 152.5q0 90 37.5 167t102.5 122.5t142 45.5q53 0 88.5 -21t51.5 -50h3l23 122h-140l16 82h140l11 55h137l-11 -55h57zM332.5 120.5q36.5 30.5 56.5 80.5t20 105
q0 57 -24 86t-69 29t-80.5 -30t-55.5 -79.5t-20 -105.5q0 -116 90 -116q46 0 82.5 30.5z" />
    <glyph glyph-name="Emacron" unicode="&#x112;" horiz-adv-x="634" 
d="M551 0h-537l139 715h529l-25 -128h-375l-29 -155h325l-26 -128h-324l-34 -176h382zM572 787h-278l17 92h278z" />
    <glyph glyph-name="emacron" unicode="&#x113;" horiz-adv-x="568" 
d="M155 219v-15q0 -60 27 -87.5t78 -27.5q49 0 80.5 22t39.5 49h140q-36 -84 -105.5 -130t-168.5 -46q-111 0 -167.5 58t-56.5 168q0 86 38.5 159t109 116t163.5 43q215 0 215 -212q0 -42 -10 -97h-383zM225 395q-39 -31 -56 -85h244q3 15 3 29q0 42 -24.5 64.5t-69.5 22.5
q-58 0 -97 -31zM494 584h-278l17 92h278z" />
    <glyph glyph-name="Edotaccent" unicode="&#x116;" horiz-adv-x="634" 
d="M551 0h-537l139 715h529l-25 -128h-375l-29 -155h325l-26 -128h-324l-34 -176h382zM504 787h-142l25 129h142z" />
    <glyph glyph-name="edotaccent" unicode="&#x117;" horiz-adv-x="568" 
d="M155 219v-15q0 -60 27 -87.5t78 -27.5q49 0 80.5 22t39.5 49h140q-36 -84 -105.5 -130t-168.5 -46q-111 0 -167.5 58t-56.5 168q0 86 38.5 159t109 116t163.5 43q215 0 215 -212q0 -42 -10 -97h-383zM225 395q-39 -31 -56 -85h244q3 15 3 29q0 42 -24.5 64.5t-69.5 22.5
q-58 0 -97 -31zM426 584h-142l25 129h142z" />
    <glyph glyph-name="Eogonek" unicode="&#x118;" horiz-adv-x="634" 
d="M657 587h-375l-29 -155h325l-26 -128h-324l-34 -176h382l-25 -128h-8q-28 -14 -46.5 -32.5t-18.5 -35.5q0 -24 29 -24q14 0 44 8l-15 -81q-42 -11 -79 -11q-46 0 -69.5 17t-23.5 50q0 32 25 62t65 47h-440l139 715h529z" />
    <glyph glyph-name="eogonek" unicode="&#x119;" horiz-adv-x="568" 
d="M155 219v-15q0 -60 27 -87.5t78 -27.5q49 0 80.5 22t39.5 49h140q-28 -65 -76.5 -108t-116.5 -59q-24 -14 -39 -30t-15 -32q0 -24 29 -24q15 0 45 8l-16 -81q-42 -11 -78 -11q-46 0 -70 17.5t-24 49.5q0 26 17 51t46 44q-99 6 -149.5 63.5t-50.5 161.5q0 86 38.5 159
t109 116t163.5 43q215 0 215 -212q0 -42 -10 -97h-383zM225 395q-39 -31 -56 -85h244q3 15 3 29q0 42 -24.5 64.5t-69.5 22.5q-58 0 -97 -31z" />
    <glyph glyph-name="Ecaron" unicode="&#x11a;" horiz-adv-x="634" 
d="M551 0h-537l139 715h529l-25 -128h-375l-29 -155h325l-26 -128h-324l-34 -176h382zM500 782h-137l-74 147h118l32 -84h2l64 84h127z" />
    <glyph glyph-name="ecaron" unicode="&#x11b;" horiz-adv-x="568" 
d="M155 219v-15q0 -60 27 -87.5t78 -27.5q49 0 80.5 22t39.5 49h140q-36 -84 -105.5 -130t-168.5 -46q-111 0 -167.5 58t-56.5 168q0 86 38.5 159t109 116t163.5 43q215 0 215 -212q0 -42 -10 -97h-383zM225 395q-39 -31 -56 -85h244q3 15 3 29q0 42 -24.5 64.5t-69.5 22.5
q-58 0 -97 -31zM422 579h-137l-74 147h118l32 -84h2l64 84h127z" />
    <glyph glyph-name="Gcircumflex" unicode="&#x11c;" horiz-adv-x="748" 
d="M112 61.5q-68 76.5 -68 207.5q0 127 55 232.5t151 167t214 61.5q93 0 155.5 -33t91.5 -89t25 -124h-158q-2 53 -33 86t-102 33t-127 -43t-88 -118.5t-32 -167.5q0 -162 147 -162q74 0 131.5 42t72.5 108h-164l22 116h322l-73 -378h-109l-3 94h-2q-85 -109 -234 -109
q-126 0 -194 76.5zM426 782h-126l136 147h132l78 -147h-121l-32 84h-2z" />
    <glyph glyph-name="gcircumflex" unicode="&#x11d;" horiz-adv-x="580" 
d="M446 511h137l-92 -467q-23 -119 -93.5 -172.5t-184.5 -53.5q-71 0 -121 23.5t-76.5 61.5t-29.5 81h138q5 -64 94 -64q60 0 92.5 32t46.5 104l8 39h-3q-64 -70 -158 -70q-83 0 -130.5 51t-47.5 146q0 80 34.5 150t95.5 112.5t136 42.5q54 0 88 -20.5t52 -49.5h3z
M332.5 157.5q33.5 27.5 51.5 71.5t18 93q0 99 -84 99q-47 0 -82 -26.5t-53.5 -70t-18.5 -91.5q0 -50 22.5 -76.5t66.5 -26.5q46 0 79.5 27.5zM287 578h-126l136 147h132l78 -147h-121l-32 84h-2z" />
    <glyph glyph-name="Gbreve" unicode="&#x11e;" horiz-adv-x="748" 
d="M112 61.5q-68 76.5 -68 207.5q0 127 55 232.5t151 167t214 61.5q93 0 155.5 -33t91.5 -89t25 -124h-158q-2 53 -33 86t-102 33t-127 -43t-88 -118.5t-32 -167.5q0 -162 147 -162q74 0 131.5 42t72.5 108h-164l22 116h322l-73 -378h-109l-3 94h-2q-85 -109 -234 -109
q-126 0 -194 76.5zM383.5 803.5q-34.5 30.5 -34.5 85.5q0 15 3 31h80q-6 -60 55 -60q31 0 52 15.5t29 44.5h85q-16 -68 -62 -107.5t-114 -39.5q-59 0 -93.5 30.5z" />
    <glyph glyph-name="gbreve" unicode="&#x11f;" horiz-adv-x="580" 
d="M446 511h137l-92 -467q-23 -119 -93.5 -172.5t-184.5 -53.5q-71 0 -121 23.5t-76.5 61.5t-29.5 81h138q5 -64 94 -64q60 0 92.5 32t46.5 104l8 39h-3q-64 -70 -158 -70q-83 0 -130.5 51t-47.5 146q0 80 34.5 150t95.5 112.5t136 42.5q54 0 88 -20.5t52 -49.5h3z
M332.5 157.5q33.5 27.5 51.5 71.5t18 93q0 99 -84 99q-47 0 -82 -26.5t-53.5 -70t-18.5 -91.5q0 -50 22.5 -76.5t66.5 -26.5q46 0 79.5 27.5zM243.5 599.5q-34.5 30.5 -34.5 85.5q0 15 3 31h80q-6 -60 55 -60q31 0 52 15.5t29 44.5h85q-16 -68 -62 -107.5t-114 -39.5
q-59 0 -93.5 30.5z" />
    <glyph glyph-name="Gdotaccent" unicode="&#x120;" horiz-adv-x="748" 
d="M112 61.5q-68 76.5 -68 207.5q0 127 55 232.5t151 167t214 61.5q93 0 155.5 -33t91.5 -89t25 -124h-158q-2 53 -33 86t-102 33t-127 -43t-88 -118.5t-32 -167.5q0 -162 147 -162q74 0 131.5 42t72.5 108h-164l22 116h322l-73 -378h-109l-3 94h-2q-85 -109 -234 -109
q-126 0 -194 76.5zM549 787h-142l25 129h142z" />
    <glyph glyph-name="gdotaccent" unicode="&#x121;" horiz-adv-x="580" 
d="M446 511h137l-92 -467q-23 -119 -93.5 -172.5t-184.5 -53.5q-71 0 -121 23.5t-76.5 61.5t-29.5 81h138q5 -64 94 -64q60 0 92.5 32t46.5 104l8 39h-3q-64 -70 -158 -70q-83 0 -130.5 51t-47.5 146q0 80 34.5 150t95.5 112.5t136 42.5q54 0 88 -20.5t52 -49.5h3z
M332.5 157.5q33.5 27.5 51.5 71.5t18 93q0 99 -84 99q-47 0 -82 -26.5t-53.5 -70t-18.5 -91.5q0 -50 22.5 -76.5t66.5 -26.5q46 0 79.5 27.5zM409 583h-142l25 129h142z" />
    <glyph glyph-name="uni0122" unicode="&#x122;" horiz-adv-x="748" 
d="M112 61.5q-68 76.5 -68 207.5q0 127 55 232.5t151 167t214 61.5q93 0 155.5 -33t91.5 -89t25 -124h-158q-2 53 -33 86t-102 33t-127 -43t-88 -118.5t-32 -167.5q0 -162 147 -162q74 0 131.5 42t72.5 108h-164l22 116h322l-73 -378h-109l-3 94h-2q-85 -109 -234 -109
q-126 0 -194 76.5zM236 -49h136l-19 -95q-8 -44 -48.5 -72.5t-108.5 -37.5l8 45q34 6 53 20.5t25 44.5h-65z" />
    <glyph glyph-name="uni0123" unicode="&#x123;" horiz-adv-x="580" 
d="M446 511h137l-92 -467q-23 -119 -93.5 -172.5t-184.5 -53.5q-71 0 -121 23.5t-76.5 61.5t-29.5 81h138q5 -64 94 -64q60 0 92.5 32t46.5 104l8 39h-3q-64 -70 -158 -70q-83 0 -130.5 51t-47.5 146q0 80 34.5 150t95.5 112.5t136 42.5q54 0 88 -20.5t52 -49.5h3z
M332.5 157.5q33.5 27.5 51.5 71.5t18 93q0 99 -84 99q-47 0 -82 -26.5t-53.5 -70t-18.5 -91.5q0 -50 22.5 -76.5t66.5 -26.5q46 0 79.5 27.5zM439 744q-33 -6 -52.5 -21t-25.5 -46h64l-19 -99h-136l19 99q9 46 49.5 75.5t109.5 38.5z" />
    <glyph glyph-name="Hcircumflex" unicode="&#x124;" horiz-adv-x="721" 
d="M169 0h-155l139 715h155l-56 -287h284l56 287h154l-139 -715h-154l58 300h-284zM413 782h-126l136 147h132l78 -147h-121l-32 84h-2z" />
    <glyph glyph-name="hcircumflex" unicode="&#x125;" 
d="M505.5 493q36.5 -35 36.5 -107q0 -34 -7 -69l-62 -317h-138l60 307q4 17 4 36q0 71 -73 71q-51 0 -87 -33t-45 -81l-59 -300h-137l140 715h137l-53 -271h2q30 38 75 61t103 23q67 0 103.5 -35zM160 744h-126l136 147h132l78 -147h-121l-32 84h-2z" />
    <glyph glyph-name="Hbar" unicode="&#x126;" horiz-adv-x="742" 
d="M737 613h58l-16 -84h-58l-103 -529h-154l58 300h-284l-58 -300h-155l103 529h-59l16 84h59l20 102h155l-20 -102h284l20 102h154zM263 428h284l20 101h-284z" />
    <glyph glyph-name="hbar" unicode="&#x127;" 
d="M505.5 493q36.5 -35 36.5 -107q0 -34 -7 -69l-62 -317h-138l60 307q4 17 4 36q0 71 -73 71q-51 0 -87 -33t-45 -81l-59 -300h-137l113 578h-54l16 82h54l11 55h137l-11 -55h162l-15 -82h-163l-26 -134h2q30 38 75 61t103 23q67 0 103.5 -35z" />
    <glyph glyph-name="Itilde" unicode="&#x128;" horiz-adv-x="283" 
d="M169 0h-155l139 715h155zM83 775q13 67 41.5 99.5t68.5 32.5q19 0 35 -5.5t39 -16.5q17 -9 28 -13t22 -4q32 0 40 38h78q-13 -67 -41.5 -99.5t-68.5 -32.5q-19 0 -36.5 6t-38.5 16q-13 6 -26 11t-24 5q-31 0 -38 -37h-79z" />
    <glyph glyph-name="itilde" unicode="&#x129;" horiz-adv-x="234" 
d="M135 0h-137l100 511h137zM19 571q13 67 41.5 99.5t68.5 32.5q19 0 35 -5.5t39 -16.5q17 -9 28 -13t22 -4q32 0 40 38h78q-13 -67 -41.5 -99.5t-68.5 -32.5q-19 0 -36.5 6t-38.5 16q-13 6 -26 11t-24 5q-31 0 -38 -37h-79z" />
    <glyph glyph-name="Imacron" unicode="&#x12a;" horiz-adv-x="283" 
d="M169 0h-155l139 715h155zM384 787h-278l17 92h278z" />
    <glyph glyph-name="imacron" unicode="&#x12b;" horiz-adv-x="234" 
d="M135 0h-137l100 511h137zM320 583h-278l17 92h278z" />
    <glyph glyph-name="Iogonek" unicode="&#x12e;" horiz-adv-x="283" 
d="M156 0q-28 -14 -46.5 -32.5t-18.5 -35.5q0 -24 29 -24q14 0 44 8l-15 -81q-42 -11 -79 -11q-46 0 -69.5 17t-23.5 50q0 32 25 62t65 47h-53l139 715h155l-139 -715h-13z" />
    <glyph glyph-name="iogonek" unicode="&#x12f;" horiz-adv-x="234" 
d="M109 583l25 129h142l-25 -129h-142zM129 0q-28 -14 -46.5 -32.5t-18.5 -35.5q0 -24 29 -24q14 0 44 8l-15 -81q-42 -11 -79 -11q-46 0 -69.5 17t-23.5 50q0 32 25 62t65 47h-42l100 511h137l-100 -511h-6z" />
    <glyph glyph-name="Idotaccent" unicode="&#x130;" horiz-adv-x="283" 
d="M343 787h-153l27 129h154zM169 0h-155l139 715h155z" />
    <glyph glyph-name="dotlessi" unicode="&#x131;" horiz-adv-x="234" 
d="M135 0h-137l100 511h137z" />
    <glyph glyph-name="Jcircumflex" unicode="&#x134;" horiz-adv-x="544" 
d="M50.5 32q-48.5 47 -48.5 128q0 32 8 72l10 49h140l-10 -49q-6 -30 -6 -53q0 -34 16 -50.5t54 -16.5q51 0 75.5 30.5t35.5 89.5l94 483h155l-96 -488q-22 -114 -83 -178t-188 -64q-108 0 -156.5 47zM460 782h-126l136 147h132l78 -147h-121l-32 84h-2z" />
    <glyph glyph-name="jcircumflex" unicode="&#x135;" horiz-adv-x="235" 
d="M-123 -174l21 107q24 -3 37 -3q26 0 40.5 13.5t22.5 52.5l100 515h137l-99 -512q-35 -181 -182 -181q-38 0 -77 8zM129 578h-126l136 147h132l78 -147h-121l-32 84h-2z" />
    <glyph glyph-name="uni0136" unicode="&#x136;" horiz-adv-x="679" 
d="M590 715h174l-333 -307l219 -408h-179l-153 303l-110 -101l-39 -202h-155l139 715h155l-62 -317zM235 -49h136l-19 -95q-8 -44 -48.5 -72.5t-108.5 -37.5l8 45q34 6 53 20.5t25 44.5h-65z" />
    <glyph glyph-name="uni0137" unicode="&#x137;" horiz-adv-x="525" 
d="M413 511h161l-224 -190l145 -321h-155l-97 229l-76 -64l-32 -165h-137l139 715h137l-76 -393zM167 -49h136l-19 -95q-8 -44 -48.5 -72.5t-108.5 -37.5l8 45q34 6 53 20.5t25 44.5h-65z" />
    <glyph glyph-name="kgreenlandic" unicode="&#x138;" horiz-adv-x="530" 
d="M425 511h160l-231 -198l141 -313h-155l-93 221l-83 -70l-29 -151h-137l100 511h137l-39 -198z" />
    <glyph glyph-name="Lacute" unicode="&#x139;" 
d="M503 0h-489l139 715h155l-114 -587h334zM289 782h-104l78 147h156z" />
    <glyph glyph-name="lacute" unicode="&#x13a;" horiz-adv-x="235" 
d="M136 0h-137l139 715h137zM254 744h-104l78 147h156z" />
    <glyph glyph-name="uni013B" unicode="&#x13b;" 
d="M503 0h-489l139 715h155l-114 -587h334zM182 -49h136l-19 -95q-8 -44 -48.5 -72.5t-108.5 -37.5l8 45q34 6 53 20.5t25 44.5h-65z" />
    <glyph glyph-name="uni013C" unicode="&#x13c;" horiz-adv-x="235" 
d="M136 0h-137l139 715h137zM-10 -49h136l-19 -95q-8 -44 -48.5 -72.5t-108.5 -37.5l8 45q34 6 53 20.5t25 44.5h-65z" />
    <glyph glyph-name="Lcaron" unicode="&#x13d;" 
d="M503 0h-489l139 715h155l-114 -587h334zM467 513h-96l63 202h148z" />
    <glyph glyph-name="lcaron" unicode="&#x13e;" horiz-adv-x="300" 
d="M136 0h-137l139 715h137zM365 520h-96l63 202h148z" />
    <glyph glyph-name="Lslash" unicode="&#x141;" horiz-adv-x="594" 
d="M260 334l-40 -206h335l-26 -128h-488l43 221l-71 -46l19 107l73 47l75 386h154l-53 -273l202 130l-19 -107z" />
    <glyph glyph-name="lslash" unicode="&#x142;" horiz-adv-x="305" 
d="M266 484l73 47l-20 -105l-73 -47l-74 -379h-137l54 278l-72 -46l21 106l72 46l64 331h137z" />
    <glyph glyph-name="Nacute" unicode="&#x143;" horiz-adv-x="725" 
d="M169 0h-155l139 715h158l189 -471h4l92 471h154l-139 -715h-158l-189 471h-4zM509 782h-104l78 147h156z" />
    <glyph glyph-name="nacute" unicode="&#x144;" 
d="M505.5 493q36.5 -35 36.5 -107q0 -34 -7 -69l-62 -317h-138l60 307q4 17 4 36q0 71 -73 71q-51 0 -87 -33t-45 -81l-59 -300h-137l100 511h137l-13 -67h2q30 38 75 61t103 23q67 0 103.5 -35zM405 578h-104l78 147h156z" />
    <glyph glyph-name="uni0145" unicode="&#x145;" horiz-adv-x="725" 
d="M169 0h-155l139 715h158l189 -471h4l92 471h154l-139 -715h-158l-189 471h-4zM236 -49h136l-19 -95q-8 -44 -48.5 -72.5t-108.5 -37.5l8 45q34 6 53 20.5t25 44.5h-65z" />
    <glyph glyph-name="uni0146" unicode="&#x146;" 
d="M505.5 493q36.5 -35 36.5 -107q0 -34 -7 -69l-62 -317h-138l60 307q4 17 4 36q0 71 -73 71q-51 0 -87 -33t-45 -81l-59 -300h-137l100 511h137l-13 -67h2q30 38 75 61t103 23q67 0 103.5 -35zM158 -49h136l-19 -95q-8 -44 -48.5 -72.5t-108.5 -37.5l8 45q34 6 53 20.5
t25 44.5h-65z" />
    <glyph glyph-name="Ncaron" unicode="&#x147;" horiz-adv-x="725" 
d="M169 0h-155l139 715h158l189 -471h4l92 471h154l-139 -715h-158l-189 471h-4zM533 782h-137l-74 147h118l32 -84h2l64 84h127z" />
    <glyph glyph-name="ncaron" unicode="&#x148;" 
d="M505.5 493q36.5 -35 36.5 -107q0 -34 -7 -69l-62 -317h-138l60 307q4 17 4 36q0 71 -73 71q-51 0 -87 -33t-45 -81l-59 -300h-137l100 511h137l-13 -67h2q30 38 75 61t103 23q67 0 103.5 -35zM430 578h-137l-74 147h118l32 -84h2l64 84h127z" />
    <glyph glyph-name="Eng" unicode="&#x14a;" horiz-adv-x="725" 
d="M300 -168l20 103q62 -2 92.5 11.5t41.5 51.5l-192 473h-2l-91 -471h-155l139 715h160l189 -472h2l92 472h154l-132 -682q-20 -102 -76.5 -156t-150.5 -54q-56 0 -91 9z" />
    <glyph glyph-name="eng" unicode="&#x14b;" 
d="M506.5 492q35.5 -35 35.5 -106q0 -34 -7 -69l-66 -334q-17 -86 -57.5 -125.5t-115.5 -39.5q-41 0 -86 9l21 106q36 -1 56 3t31.5 17.5t16.5 42.5l60 311q4 17 4 36q0 71 -73 71q-51 0 -87 -33t-45 -81l-59 -300h-137l100 511h137l-13 -68h1q31 38 77.5 61t104.5 23
q66 0 101.5 -35z" />
    <glyph glyph-name="Omacron" unicode="&#x14c;" horiz-adv-x="773" 
d="M186.5 21.5q-68.5 36.5 -104.5 103.5t-36 157q0 122 51.5 224.5t145.5 163t216 60.5q96 0 165.5 -36.5t105.5 -103.5t36 -157q0 -121 -51.5 -223.5t-146 -163.5t-217.5 -61q-96 0 -164.5 36.5zM493.5 157q57.5 45 87.5 118t30 155q0 80 -39.5 126.5t-117.5 46.5
q-77 0 -134.5 -45t-88 -118t-30.5 -155q0 -80 40 -126.5t118 -46.5q77 0 134.5 45zM631 787h-278l17 92h278z" />
    <glyph glyph-name="omacron" unicode="&#x14d;" horiz-adv-x="583" 
d="M80 41.5q-60 57.5 -60 159.5q0 91 39.5 165.5t111.5 118t163 43.5q109 0 168.5 -57.5t59.5 -160.5q0 -90 -39.5 -164.5t-110.5 -118t-162 -43.5q-110 0 -170 57.5zM348.5 120.5q37.5 30.5 57.5 80.5t20 107q0 55 -27 84.5t-77 29.5t-87.5 -30.5t-58 -80.5t-20.5 -107
q0 -55 27.5 -84.5t77.5 -29.5t87.5 30.5zM500 583h-278l17 92h278z" />
    <glyph glyph-name="Ohungarumlaut" unicode="&#x150;" horiz-adv-x="773" 
d="M186.5 21.5q-68.5 36.5 -104.5 103.5t-36 157q0 122 51.5 224.5t145.5 163t216 60.5q96 0 165.5 -36.5t105.5 -103.5t36 -157q0 -121 -51.5 -223.5t-146 -163.5t-217.5 -61q-96 0 -164.5 36.5zM493.5 157q57.5 45 87.5 118t30 155q0 80 -39.5 126.5t-117.5 46.5
q-77 0 -134.5 -45t-88 -118t-30.5 -155q0 -80 40 -126.5t118 -46.5q77 0 134.5 45zM465 782h-100l75 147h130zM632 782h-101l86 147h135z" />
    <glyph glyph-name="ohungarumlaut" unicode="&#x151;" horiz-adv-x="583" 
d="M80 41.5q-60 57.5 -60 159.5q0 91 39.5 165.5t111.5 118t163 43.5q109 0 168.5 -57.5t59.5 -160.5q0 -90 -39.5 -164.5t-110.5 -118t-162 -43.5q-110 0 -170 57.5zM348.5 120.5q37.5 30.5 57.5 80.5t20 107q0 55 -27 84.5t-77 29.5t-87.5 -30.5t-58 -80.5t-20.5 -107
q0 -55 27.5 -84.5t77.5 -29.5t87.5 30.5zM335 578h-100l75 147h130zM502 578h-101l86 147h135z" />
    <glyph glyph-name="OE" unicode="&#x152;" horiz-adv-x="1133" 
d="M1156 587h-375l-29 -155h325l-25 -128h-325l-34 -176h382l-25 -128h-537l18 94q-47 -52 -106 -80.5t-128 -28.5q-75 0 -132 35t-88.5 101t-31.5 156q0 118 52 222.5t142 167.5t197 63q71 0 120.5 -29t76.5 -83l19 97h529zM465.5 158.5q56.5 46.5 87.5 120.5t31 153
q0 84 -36.5 127.5t-104.5 43.5q-69 0 -124.5 -43.5t-87.5 -117t-32 -158.5q0 -82 33 -127t104 -45q73 0 129.5 46.5z" />
    <glyph glyph-name="oe" unicode="&#x153;" horiz-adv-x="967" 
d="M554 219v-15q0 -60 27 -87.5t78 -27.5q49 0 80.5 22t39.5 49h140q-36 -84 -105.5 -130t-168.5 -46q-133 0 -188 83q-42 -39 -97 -61t-118 -22q-107 0 -165.5 56t-58.5 155q0 89 41 165.5t114.5 122t166.5 45.5q126 0 183 -77q41 37 94 57t115 20q215 0 215 -212
q0 -42 -10 -97h-383zM624 395q-39 -31 -56 -85h244q3 15 3 29q0 42 -24.5 64.5t-69.5 22.5q-58 0 -97 -31zM346.5 120q38.5 30 59 79t20.5 105q0 57 -26.5 87.5t-75.5 30.5q-51 0 -89 -30.5t-58.5 -80.5t-20.5 -107q0 -56 25.5 -85t74.5 -29q52 0 90.5 30z" />
    <glyph glyph-name="Racute" unicode="&#x154;" horiz-adv-x="675" 
d="M14 0l139 715h312q110 0 168 -44t58 -128q0 -78 -51 -137t-131 -76l-1 -2q52 -10 72.5 -49.5t20.5 -98.5q0 -27 -7 -92q-4 -42 -4 -53q0 -23 9 -26l-2 -9h-161q-4 5 -4 18q0 17 7 54q10 56 10 89q0 99 -88 99h-142l-50 -260h-155zM386 388q68 0 107.5 34.5t39.5 90.5
q0 38 -26.5 56t-85.5 18h-139l-38 -199h142zM472 782h-104l78 147h156z" />
    <glyph glyph-name="racute" unicode="&#x155;" horiz-adv-x="370" 
d="M411 514l-25 -122q-20 3 -35 3q-65 0 -108 -37.5t-60 -110.5l-48 -247h-137l100 511h137l-17 -87h1q31 47 67.5 70.5t87.5 23.5q14 0 37 -4zM312 578h-104l78 147h156z" />
    <glyph glyph-name="uni0156" unicode="&#x156;" horiz-adv-x="675" 
d="M14 0l139 715h312q110 0 168 -44t58 -128q0 -78 -51 -137t-131 -76l-1 -2q52 -10 72.5 -49.5t20.5 -98.5q0 -27 -7 -92q-4 -42 -4 -53q0 -23 9 -26l-2 -9h-161q-4 5 -4 18q0 17 7 54q10 56 10 89q0 99 -88 99h-142l-50 -260h-155zM386 388q68 0 107.5 34.5t39.5 90.5
q0 38 -26.5 56t-85.5 18h-139l-38 -199h142zM226 -49h136l-19 -95q-8 -44 -48.5 -72.5t-108.5 -37.5l8 45q34 6 53 20.5t25 44.5h-65z" />
    <glyph glyph-name="uni0157" unicode="&#x157;" horiz-adv-x="370" 
d="M411 514l-25 -122q-20 3 -35 3q-65 0 -108 -37.5t-60 -110.5l-48 -247h-137l100 511h137l-17 -87h1q31 47 67.5 70.5t87.5 23.5q14 0 37 -4zM-10 -49h136l-19 -95q-8 -44 -48.5 -72.5t-108.5 -37.5l8 45q34 6 53 20.5t25 44.5h-65z" />
    <glyph glyph-name="Rcaron" unicode="&#x158;" horiz-adv-x="675" 
d="M14 0l139 715h312q110 0 168 -44t58 -128q0 -78 -51 -137t-131 -76l-1 -2q52 -10 72.5 -49.5t20.5 -98.5q0 -27 -7 -92q-4 -42 -4 -53q0 -23 9 -26l-2 -9h-161q-4 5 -4 18q0 17 7 54q10 56 10 89q0 99 -88 99h-142l-50 -260h-155zM386 388q68 0 107.5 34.5t39.5 90.5
q0 38 -26.5 56t-85.5 18h-139l-38 -199h142zM496 782h-137l-74 147h118l32 -84h2l64 84h127z" />
    <glyph glyph-name="rcaron" unicode="&#x159;" horiz-adv-x="370" 
d="M411 514l-25 -122q-20 3 -35 3q-65 0 -108 -37.5t-60 -110.5l-48 -247h-137l100 511h137l-17 -87h1q31 47 67.5 70.5t87.5 23.5q14 0 37 -4zM336 578h-137l-74 147h118l32 -84h2l64 84h127z" />
    <glyph glyph-name="Sacute" unicode="&#x15a;" horiz-adv-x="647" 
d="M149.5 16q-67.5 31 -102 88t-30.5 135h155q-1 -7 -1 -20q0 -53 38 -80.5t104 -27.5q65 0 102.5 24.5t37.5 67.5q0 27 -17 44.5t-46 30t-95 35.5q-69 24 -112 48.5t-67 61t-24 90.5q0 68 37 117t103 74.5t150 25.5q132 0 201 -60t67 -170h-153q7 106 -125 106
q-56 0 -89 -19.5t-33 -58.5q0 -25 13 -41t38 -27.5t80 -32.5q85 -31 130 -53.5t73 -59.5t28 -96q0 -69 -35.5 -121.5t-103.5 -82t-163 -29.5q-93 0 -160.5 31zM456 782h-104l78 147h156z" />
    <glyph glyph-name="sacute" unicode="&#x15b;" horiz-adv-x="501" 
d="M95.5 10q-51.5 25 -74.5 67t-21 92h127q-2 -41 24 -63.5t80 -22.5q45 0 69.5 15.5t24.5 43.5q0 21 -15 34t-33 20t-67 22t-82 30.5t-55.5 43.5t-22.5 72q0 48 28.5 85t79.5 57.5t117 20.5q73 0 121.5 -24t70 -62.5t17.5 -82.5h-128q2 34 -19 53.5t-69 19.5
q-39 0 -61.5 -13t-22.5 -39q0 -24 20.5 -36t70.5 -28q18 -5 23 -7q52 -16 86.5 -33.5t56 -46t21.5 -72.5q0 -47 -26.5 -86t-79.5 -62t-129 -23q-80 0 -131.5 25zM358 578h-104l78 147h156z" />
    <glyph glyph-name="Scircumflex" unicode="&#x15c;" horiz-adv-x="647" 
d="M149.5 16q-67.5 31 -102 88t-30.5 135h155q-1 -7 -1 -20q0 -53 38 -80.5t104 -27.5q65 0 102.5 24.5t37.5 67.5q0 27 -17 44.5t-46 30t-95 35.5q-69 24 -112 48.5t-67 61t-24 90.5q0 68 37 117t103 74.5t150 25.5q132 0 201 -60t67 -170h-153q7 106 -125 106
q-56 0 -89 -19.5t-33 -58.5q0 -25 13 -41t38 -27.5t80 -32.5q85 -31 130 -53.5t73 -59.5t28 -96q0 -69 -35.5 -121.5t-103.5 -82t-163 -29.5q-93 0 -160.5 31zM362 782h-126l136 147h132l78 -147h-121l-32 84h-2z" />
    <glyph glyph-name="scircumflex" unicode="&#x15d;" horiz-adv-x="501" 
d="M95.5 10q-51.5 25 -74.5 67t-21 92h127q-2 -41 24 -63.5t80 -22.5q45 0 69.5 15.5t24.5 43.5q0 21 -15 34t-33 20t-67 22t-82 30.5t-55.5 43.5t-22.5 72q0 48 28.5 85t79.5 57.5t117 20.5q73 0 121.5 -24t70 -62.5t17.5 -82.5h-128q2 34 -19 53.5t-69 19.5
q-39 0 -61.5 -13t-22.5 -39q0 -24 20.5 -36t70.5 -28q18 -5 23 -7q52 -16 86.5 -33.5t56 -46t21.5 -72.5q0 -47 -26.5 -86t-79.5 -62t-129 -23q-80 0 -131.5 25zM264 578h-126l136 147h132l78 -147h-121l-32 84h-2z" />
    <glyph glyph-name="Scedilla" unicode="&#x15e;" horiz-adv-x="647" 
d="M497 500q7 106 -125 106q-56 0 -89 -19.5t-33 -58.5q0 -25 13 -41t38 -27.5t80 -32.5q85 -31 130 -53.5t73 -59.5t28 -96q0 -68 -34 -120t-100 -82t-158 -31l-34 -35l-1 -2q6 1 18 1q32 0 52.5 -14t20.5 -40q0 -40 -39.5 -66.5t-100.5 -26.5t-104 32l33 33q32 -15 62 -15
q25 0 39.5 10.5t14.5 27.5q0 21 -30 21q-21 0 -40 -7l-11 30l56 54q-117 13 -180.5 79.5t-58.5 171.5h155q-1 -7 -1 -20q0 -53 38 -80.5t104 -27.5q65 0 102.5 24.5t37.5 67.5q0 27 -17 44.5t-46 30t-95 35.5q-69 24 -112 48.5t-67 61t-24 90.5q0 68 37 117t103 74.5
t150 25.5q132 0 201 -60t67 -170h-153z" />
    <glyph glyph-name="scedilla" unicode="&#x15f;" horiz-adv-x="501" 
d="M356 358q2 34 -19 53.5t-69 19.5q-39 0 -61.5 -13t-22.5 -39q0 -24 20.5 -36t70.5 -28q18 -5 23 -7q52 -16 86.5 -33.5t56 -46t21.5 -72.5q0 -45 -24.5 -83t-73 -61.5t-118.5 -26.5l-35 -35l-1 -2q6 1 18 1q32 0 52.5 -14t20.5 -40q0 -40 -39.5 -66.5t-100.5 -26.5
t-104 32l33 33q32 -15 62 -15q25 0 39.5 10.5t14.5 27.5q0 21 -30 21q-21 0 -40 -7l-11 30l56 53q-94 11 -139 61.5t-42 120.5h127q-2 -41 24 -63.5t80 -22.5q45 0 69.5 15.5t24.5 43.5q0 21 -15 34t-33 20t-67 22t-82 30.5t-55.5 43.5t-22.5 72q0 48 28.5 85t79.5 57.5
t117 20.5q73 0 121.5 -24t70 -62.5t17.5 -82.5h-128z" />
    <glyph glyph-name="Scaron" unicode="&#x160;" horiz-adv-x="647" 
d="M149.5 16q-67.5 31 -102 88t-30.5 135h155q-1 -7 -1 -20q0 -53 38 -80.5t104 -27.5q65 0 102.5 24.5t37.5 67.5q0 27 -17 44.5t-46 30t-95 35.5q-69 24 -112 48.5t-67 61t-24 90.5q0 68 37 117t103 74.5t150 25.5q132 0 201 -60t67 -170h-153q7 106 -125 106
q-56 0 -89 -19.5t-33 -58.5q0 -25 13 -41t38 -27.5t80 -32.5q85 -31 130 -53.5t73 -59.5t28 -96q0 -69 -35.5 -121.5t-103.5 -82t-163 -29.5q-93 0 -160.5 31zM480 782h-137l-74 147h118l32 -84h2l64 84h127z" />
    <glyph glyph-name="scaron" unicode="&#x161;" horiz-adv-x="501" 
d="M95.5 10q-51.5 25 -74.5 67t-21 92h127q-2 -41 24 -63.5t80 -22.5q45 0 69.5 15.5t24.5 43.5q0 21 -15 34t-33 20t-67 22t-82 30.5t-55.5 43.5t-22.5 72q0 48 28.5 85t79.5 57.5t117 20.5q73 0 121.5 -24t70 -62.5t17.5 -82.5h-128q2 34 -19 53.5t-69 19.5
q-39 0 -61.5 -13t-22.5 -39q0 -24 20.5 -36t70.5 -28q18 -5 23 -7q52 -16 86.5 -33.5t56 -46t21.5 -72.5q0 -47 -26.5 -86t-79.5 -62t-129 -23q-80 0 -131.5 25zM382 578h-137l-74 147h118l32 -84h2l64 84h127z" />
    <glyph glyph-name="uni0162" unicode="&#x162;" horiz-adv-x="616" 
d="M336 0h-155l114 587h-217l26 128h586l-25 -128h-216zM95 -166l33 33q32 -15 62 -15q25 0 39.5 10.5t14.5 27.5q0 21 -30 21q-21 0 -40 -7l-11 30l69 66h66l-49 -50l-1 -2q6 1 18 1q32 0 52.5 -14t20.5 -40q0 -40 -39.5 -66.5t-100.5 -26.5t-104 32z" />
    <glyph glyph-name="uni0163" unicode="&#x163;" horiz-adv-x="347" 
d="M253 406l-48 -247q-3 -15 -3 -26q0 -21 11 -28.5t35 -7.5q17 0 44 4l-20 -100q-43 -9 -78 -10l-29 -30l-1 -2q6 1 18 1q32 0 52.5 -14t20.5 -40q0 -40 -39.5 -66.5t-100.5 -26.5t-104 32l33 33q32 -15 62 -15q25 0 39.5 10.5t14.5 27.5q0 21 -30 21q-21 0 -40 -7l-11 30
l54 52q-36 9 -54 34t-18 69q0 25 6 58l49 248h-72l20 105h72l30 151h137l-29 -151h91l-20 -105h-92z" />
    <glyph glyph-name="Tcaron" unicode="&#x164;" horiz-adv-x="616" 
d="M336 0h-155l114 587h-217l26 128h586l-25 -128h-216zM478 782h-137l-74 147h118l32 -84h2l64 84h127z" />
    <glyph glyph-name="tcaron" unicode="&#x165;" horiz-adv-x="347" 
d="M317 553l56 162h130l-102 -162h-84zM303 662l-29 -151h91l-20 -105h-92l-48 -247q-3 -15 -3 -26q0 -21 11 -28.5t35 -7.5q17 0 44 4l-20 -100q-47 -10 -85 -10q-64 0 -95 26t-31 83q0 25 6 58l49 248h-72l20 105h72l30 151h137z" />
    <glyph glyph-name="Tbar" unicode="&#x166;" horiz-adv-x="616" 
d="M690 715l-25 -128h-216l-34 -175h147l-16 -84h-147l-63 -328h-155l64 328h-136l17 84h135l34 175h-217l26 128h586z" />
    <glyph glyph-name="tbar" unicode="&#x167;" horiz-adv-x="350" 
d="M348 406h-92l-14 -75h91l-16 -85h-92l-17 -87q-3 -15 -3 -26q0 -21 11 -28.5t35 -7.5q17 0 44 4l-20 -100q-47 -10 -85 -10q-64 0 -95 26t-31 83q0 25 6 58l17 88h-72l16 85h73l15 75h-72l20 105h72l30 151h137l-29 -151h91z" />
    <glyph glyph-name="Utilde" unicode="&#x168;" horiz-adv-x="701" 
d="M115.5 41.5q-64.5 56.5 -64.5 150.5q0 29 6 60l90 463h155l-91 -463q-5 -28 -5 -46q0 -49 28.5 -71.5t85.5 -22.5q71 0 111.5 33.5t55.5 106.5l90 463h154l-90 -463q-26 -132 -105 -199.5t-231 -67.5q-125 0 -189.5 56.5zM289 775q13 67 41.5 99.5t68.5 32.5
q19 0 35 -5.5t39 -16.5q17 -9 28 -13t22 -4q32 0 40 38h78q-13 -67 -41.5 -99.5t-68.5 -32.5q-19 0 -36.5 6t-38.5 16q-13 6 -26 11t-24 5q-31 0 -38 -37h-79z" />
    <glyph glyph-name="utilde" unicode="&#x169;" 
d="M430 511h138l-99 -511h-138l14 70h-2q-28 -37 -73 -61t-101 -24q-69 0 -107 34t-38 106q0 29 8 71l62 315h137l-60 -305q-4 -17 -4 -37q0 -72 71 -72q49 0 83 26.5t48 71.5zM180 571q13 67 41.5 99.5t68.5 32.5q19 0 35 -5.5t39 -16.5q17 -9 28 -13t22 -4q32 0 40 38h78
q-13 -67 -41.5 -99.5t-68.5 -32.5q-19 0 -36.5 6t-38.5 16q-13 6 -26 11t-24 5q-31 0 -38 -37h-79z" />
    <glyph glyph-name="Umacron" unicode="&#x16a;" horiz-adv-x="701" 
d="M115.5 41.5q-64.5 56.5 -64.5 150.5q0 29 6 60l90 463h155l-91 -463q-5 -28 -5 -46q0 -49 28.5 -71.5t85.5 -22.5q71 0 111.5 33.5t55.5 106.5l90 463h154l-90 -463q-26 -132 -105 -199.5t-231 -67.5q-125 0 -189.5 56.5zM590 787h-278l17 92h278z" />
    <glyph glyph-name="umacron" unicode="&#x16b;" 
d="M430 511h138l-99 -511h-138l14 70h-2q-28 -37 -73 -61t-101 -24q-69 0 -107 34t-38 106q0 29 8 71l62 315h137l-60 -305q-4 -17 -4 -37q0 -72 71 -72q49 0 83 26.5t48 71.5zM480 583h-278l17 92h278z" />
    <glyph glyph-name="Ubreve" unicode="&#x16c;" horiz-adv-x="701" 
d="M115.5 41.5q-64.5 56.5 -64.5 150.5q0 29 6 60l90 463h155l-91 -463q-5 -28 -5 -46q0 -49 28.5 -71.5t85.5 -22.5q71 0 111.5 33.5t55.5 106.5l90 463h154l-90 -463q-26 -132 -105 -199.5t-231 -67.5q-125 0 -189.5 56.5zM356.5 803.5q-34.5 30.5 -34.5 85.5q0 15 3 31
h80q-6 -60 55 -60q31 0 52 15.5t29 44.5h85q-16 -68 -62 -107.5t-114 -39.5q-59 0 -93.5 30.5z" />
    <glyph glyph-name="ubreve" unicode="&#x16d;" 
d="M430 511h138l-99 -511h-138l14 70h-2q-28 -37 -73 -61t-101 -24q-69 0 -107 34t-38 106q0 29 8 71l62 315h137l-60 -305q-4 -17 -4 -37q0 -72 71 -72q49 0 83 26.5t48 71.5zM246.5 599.5q-34.5 30.5 -34.5 85.5q0 15 3 31h80q-6 -60 55 -60q31 0 52 15.5t29 44.5h85
q-16 -68 -62 -107.5t-114 -39.5q-59 0 -93.5 30.5z" />
    <glyph glyph-name="Uring" unicode="&#x16e;" horiz-adv-x="701" 
d="M115.5 41.5q-64.5 56.5 -64.5 150.5q0 29 6 60l90 463h155l-91 -463q-5 -28 -5 -46q0 -49 28.5 -71.5t85.5 -22.5q71 0 111.5 33.5t55.5 106.5l90 463h154l-90 -463q-26 -132 -105 -199.5t-231 -67.5q-125 0 -189.5 56.5zM379.5 783q-24.5 24 -24.5 65q0 49 34 81t82 32
q44 0 68.5 -23.5t24.5 -64.5q0 -50 -34 -82t-83 -32q-43 0 -67.5 24zM490.5 830q15.5 17 15.5 41q0 17 -10.5 26.5t-27.5 9.5q-24 0 -39.5 -16.5t-15.5 -40.5q0 -18 10 -27.5t28 -9.5q24 0 39.5 17z" />
    <glyph glyph-name="uring" unicode="&#x16f;" 
d="M430 511h138l-99 -511h-138l14 70h-2q-28 -37 -73 -61t-101 -24q-69 0 -107 34t-38 106q0 29 8 71l62 315h137l-60 -305q-4 -17 -4 -37q0 -72 71 -72q49 0 83 26.5t48 71.5zM270.5 579q-24.5 24 -24.5 65q0 49 34 81t82 32q44 0 68.5 -23.5t24.5 -64.5q0 -50 -34 -82
t-83 -32q-43 0 -67.5 24zM381.5 626q15.5 17 15.5 41q0 17 -10.5 26.5t-27.5 9.5q-24 0 -39.5 -16.5t-15.5 -40.5q0 -18 10 -27.5t28 -9.5q24 0 39.5 17z" />
    <glyph glyph-name="Uhungarumlaut" unicode="&#x170;" horiz-adv-x="701" 
d="M115.5 41.5q-64.5 56.5 -64.5 150.5q0 29 6 60l90 463h155l-91 -463q-5 -28 -5 -46q0 -49 28.5 -71.5t85.5 -22.5q71 0 111.5 33.5t55.5 106.5l90 463h154l-90 -463q-26 -132 -105 -199.5t-231 -67.5q-125 0 -189.5 56.5zM424 782h-100l75 147h130zM591 782h-101l86 147
h135z" />
    <glyph glyph-name="uhungarumlaut" unicode="&#x171;" 
d="M430 511h138l-99 -511h-138l14 70h-2q-28 -37 -73 -61t-101 -24q-69 0 -107 34t-38 106q0 29 8 71l62 315h137l-60 -305q-4 -17 -4 -37q0 -72 71 -72q49 0 83 26.5t48 71.5zM315 578h-100l75 147h130zM482 578h-101l86 147h135z" />
    <glyph glyph-name="Uogonek" unicode="&#x172;" horiz-adv-x="701" 
d="M577 715h154l-90 -463q-21 -108 -77 -173t-158 -85q-24 -14 -39 -30t-15 -32q0 -24 29 -24q14 0 44 8l-15 -81q-42 -11 -79 -11q-46 0 -69.5 17t-23.5 50q0 26 16.5 50.5t44.5 43.5q-122 1 -185 57t-63 149q0 30 6 61l90 463h155l-91 -463q-5 -28 -5 -46
q0 -49 28.5 -71.5t85.5 -22.5q71 0 111.5 33.5t55.5 106.5z" />
    <glyph glyph-name="uogonek" unicode="&#x173;" 
d="M459 0q-28 -14 -46.5 -32.5t-18.5 -35.5q0 -24 29 -24q14 0 44 8l-15 -81q-42 -11 -79 -11q-46 0 -69.5 17t-23.5 50q0 32 25 62t65 47h-39l14 70h-2q-28 -37 -73 -61t-101 -24q-69 0 -107 34t-38 106q0 29 8 71l62 315h137l-60 -305q-4 -17 -4 -37q0 -72 71 -72
q49 0 83 26.5t48 71.5l61 316h138l-99 -511h-10z" />
    <glyph glyph-name="Wcircumflex" unicode="&#x174;" horiz-adv-x="946" 
d="M299 0h-157l-45 715h156l7 -514h2l221 514h151l26 -514h2l204 514h156l-320 -715h-157l-27 494h-2zM523 782h-126l136 147h132l78 -147h-121l-32 84h-2z" />
    <glyph glyph-name="wcircumflex" unicode="&#x175;" horiz-adv-x="776" 
d="M236 0h-136l-46 511h138l18 -342h2l164 342h116l30 -342h3l155 342h142l-250 -511h-135l-32 350h-2zM398 578h-126l136 147h132l78 -147h-121l-32 84h-2z" />
    <glyph glyph-name="Ycircumflex" unicode="&#x176;" horiz-adv-x="658" 
d="M356 0h-154l53 272l-162 443h164l96 -318h2l222 318h165l-333 -443zM379 782h-126l136 147h132l78 -147h-121l-32 84h-2z" />
    <glyph glyph-name="ycircumflex" unicode="&#x177;" horiz-adv-x="533" 
d="M-26 -169l21 107q24 -3 44 -3q34 0 64 14.5t49 56.5l-109 505h140l62 -358h2l186 358h145l-304 -540q-47 -82 -95 -115.5t-124 -33.5q-36 0 -81 9zM272 578h-126l136 147h132l78 -147h-121l-32 84h-2z" />
    <glyph glyph-name="Ydieresis" unicode="&#x178;" horiz-adv-x="658" 
d="M356 0h-154l53 272l-162 443h164l96 -318h2l222 318h165l-333 -443zM404 787h-142l28 129h142zM597 787h-142l28 129h142z" />
    <glyph glyph-name="Zacute" unicode="&#x179;" horiz-adv-x="610" 
d="M531 0h-556l25 128l446 457v2h-338l26 128h526l-25 -128l-447 -457v-2h369zM453 782h-104l78 147h156z" />
    <glyph glyph-name="zacute" unicode="&#x17a;" horiz-adv-x="486" 
d="M415 0h-446l19 99l320 305v2h-241l21 105h416l-19 -95l-322 -308l-1 -2h273zM347 578h-104l78 147h156z" />
    <glyph glyph-name="Zdotaccent" unicode="&#x17b;" horiz-adv-x="610" 
d="M531 0h-556l25 128l446 457v2h-338l26 128h526l-25 -128l-447 -457v-2h369zM482 787h-142l25 129h142z" />
    <glyph glyph-name="zdotaccent" unicode="&#x17c;" horiz-adv-x="486" 
d="M415 0h-446l19 99l320 305v2h-241l21 105h416l-19 -95l-322 -308l-1 -2h273zM375 583h-142l25 129h142z" />
    <glyph glyph-name="Zcaron" unicode="&#x17d;" horiz-adv-x="610" 
d="M531 0h-556l25 128l446 457v2h-338l26 128h526l-25 -128l-447 -457v-2h369zM478 782h-137l-74 147h118l32 -84h2l64 84h127z" />
    <glyph glyph-name="zcaron" unicode="&#x17e;" horiz-adv-x="486" 
d="M415 0h-446l19 99l320 305v2h-241l21 105h416l-19 -95l-322 -308l-1 -2h273zM371 578h-137l-74 147h118l32 -84h2l64 84h127z" />
    <glyph glyph-name="florin" unicode="&#x192;" horiz-adv-x="395" 
d="M343.5 600q-13.5 -17 -22.5 -62l-15 -78h87l-4 -106h-104l-63 -317q-17 -90 -58 -128t-114 -38q-37 0 -76 9l-6 101q28 -4 47 -4q37 0 51 16.5t23 60.5l59 300h-70l4 106h87l19 97q17 90 60.5 128t121.5 38q41 0 83 -9l-27 -101q-20 4 -35 4q-34 0 -47.5 -17z" />
    <glyph glyph-name="uni0218" unicode="&#x218;" horiz-adv-x="647" 
d="M149.5 16q-67.5 31 -102 88t-30.5 135h155q-1 -7 -1 -20q0 -53 38 -80.5t104 -27.5q65 0 102.5 24.5t37.5 67.5q0 27 -17 44.5t-46 30t-95 35.5q-69 24 -112 48.5t-67 61t-24 90.5q0 68 37 117t103 74.5t150 25.5q132 0 201 -60t67 -170h-153q7 106 -125 106
q-56 0 -89 -19.5t-33 -58.5q0 -25 13 -41t38 -27.5t80 -32.5q85 -31 130 -53.5t73 -59.5t28 -96q0 -69 -35.5 -121.5t-103.5 -82t-163 -29.5q-93 0 -160.5 31zM218 -49h136l-19 -95q-8 -44 -48.5 -72.5t-108.5 -37.5l8 45q34 6 53 20.5t25 44.5h-65z" />
    <glyph glyph-name="uni0219" unicode="&#x219;" horiz-adv-x="501" 
d="M95.5 10q-51.5 25 -74.5 67t-21 92h127q-2 -41 24 -63.5t80 -22.5q45 0 69.5 15.5t24.5 43.5q0 21 -15 34t-33 20t-67 22t-82 30.5t-55.5 43.5t-22.5 72q0 48 28.5 85t79.5 57.5t117 20.5q73 0 121.5 -24t70 -62.5t17.5 -82.5h-128q2 34 -19 53.5t-69 19.5
q-39 0 -61.5 -13t-22.5 -39q0 -24 20.5 -36t70.5 -28q18 -5 23 -7q52 -16 86.5 -33.5t56 -46t21.5 -72.5q0 -47 -26.5 -86t-79.5 -62t-129 -23q-80 0 -131.5 25zM143 -49h136l-19 -95q-8 -44 -48.5 -72.5t-108.5 -37.5l8 45q34 6 53 20.5t25 44.5h-65z" />
    <glyph glyph-name="uni021A" unicode="&#x21a;" horiz-adv-x="616" 
d="M336 0h-155l114 587h-217l26 128h586l-25 -128h-216zM181 -49h136l-19 -95q-8 -44 -48.5 -72.5t-108.5 -37.5l8 45q34 6 53 20.5t25 44.5h-65z" />
    <glyph glyph-name="uni021B" unicode="&#x21b;" horiz-adv-x="347" 
d="M253 406l-48 -247q-3 -15 -3 -26q0 -21 11 -28.5t35 -7.5q17 0 44 4l-20 -100q-47 -10 -85 -10q-64 0 -95 26t-31 83q0 25 6 58l49 248h-72l20 105h72l30 151h137l-29 -151h91l-20 -105h-92zM97 -38h136l-19 -95q-8 -44 -48.5 -72.5t-108.5 -37.5l8 45q34 6 53 20.5
t25 44.5h-65z" />
    <glyph glyph-name="uni0237" unicode="&#x237;" horiz-adv-x="235" 
d="M-123 -174l21 107q24 -3 37 -3q26 0 40.5 13.5t22.5 52.5l100 515h137l-99 -512q-35 -181 -182 -181q-38 0 -77 8z" />
    <glyph glyph-name="circumflex" unicode="&#x2c6;" horiz-adv-x="423" 
d="M224 578h-126l136 147h132l78 -147h-121l-32 84h-2z" />
    <glyph glyph-name="caron" unicode="&#x2c7;" horiz-adv-x="423" 
d="M342 578h-137l-74 147h118l32 -84h2l64 84h127z" />
    <glyph glyph-name="breve" unicode="&#x2d8;" horiz-adv-x="381" 
d="M159.5 598.5q-34.5 30.5 -34.5 85.5q0 15 3 31h80q-6 -60 55 -60q31 0 52 15.5t29 44.5h85q-16 -68 -62 -107.5t-114 -39.5q-59 0 -93.5 30.5z" />
    <glyph glyph-name="dotaccent" unicode="&#x2d9;" horiz-adv-x="222" 
d="M244 583h-141l28 130h141z" />
    <glyph glyph-name="ring" unicode="&#x2da;" horiz-adv-x="276" 
d="M130.5 551q-24.5 24 -24.5 65q0 49 34 81t82 32q44 0 68.5 -23.5t24.5 -64.5q0 -50 -34 -82t-83 -32q-43 0 -67.5 24zM241.5 598q15.5 17 15.5 41q0 17 -10.5 26.5t-27.5 9.5q-24 0 -39.5 -16.5t-15.5 -40.5q0 -18 10 -27.5t28 -9.5q24 0 39.5 17z" />
    <glyph glyph-name="ogonek" unicode="&#x2db;" horiz-adv-x="264" 
d="M-6.5 -160q-23.5 17 -23.5 50t25.5 63t66.5 47h89q-28 -14 -47.5 -32.5t-19.5 -36.5q0 -24 29 -24q14 0 44 8l-15 -81q-42 -11 -79 -11q-46 0 -69.5 17z" />
    <glyph glyph-name="tilde" unicode="&#x2dc;" horiz-adv-x="407" 
d="M101 571q13 67 41.5 99.5t68.5 32.5q19 0 35 -5.5t39 -16.5q17 -9 28 -13t22 -4q32 0 40 38h78q-13 -67 -41.5 -99.5t-68.5 -32.5q-19 0 -36.5 6t-38.5 16q-13 6 -26 11t-24 5q-31 0 -38 -37h-79z" />
    <glyph glyph-name="hungarumlaut" unicode="&#x2dd;" horiz-adv-x="476" 
d="M261 578h-100l75 147h130zM428 578h-101l86 147h135z" />
    <glyph glyph-name="gravecomb" unicode="&#x300;" horiz-adv-x="0" 
d="M244 578h-105l-98 147h156z" />
    <glyph glyph-name="acutecomb" unicode="&#x301;" horiz-adv-x="0" 
d="M234 578h-104l78 147h156z" />
    <glyph glyph-name="uni0302" unicode="&#x302;" horiz-adv-x="0" 
d="M224 578h-126l136 147h132l78 -147h-121l-32 84h-2z" />
    <glyph glyph-name="tildecomb" unicode="&#x303;" horiz-adv-x="0" 
d="M101 571q13 67 41.5 99.5t68.5 32.5q19 0 35 -5.5t39 -16.5q17 -9 28 -13t22 -4q32 0 40 38h78q-13 -67 -41.5 -99.5t-68.5 -32.5q-19 0 -36.5 6t-38.5 16q-13 6 -26 11t-24 5q-31 0 -38 -37h-79z" />
    <glyph glyph-name="uni0304" unicode="&#x304;" horiz-adv-x="0" 
d="M382 583h-278l17 92h278z" />
    <glyph glyph-name="uni0306" unicode="&#x306;" horiz-adv-x="0" 
d="M159.5 598.5q-34.5 30.5 -34.5 85.5q0 15 3 31h80q-6 -60 55 -60q31 0 52 15.5t29 44.5h85q-16 -68 -62 -107.5t-114 -39.5q-59 0 -93.5 30.5z" />
    <glyph glyph-name="uni0307" unicode="&#x307;" horiz-adv-x="0" 
d="M246 583h-142l25 129h142z" />
    <glyph glyph-name="uni0308" unicode="&#x308;" horiz-adv-x="0" 
d="M250 583h-142l28 129h142zM443 583h-142l28 129h142z" />
    <glyph glyph-name="uni030A" unicode="&#x30a;" horiz-adv-x="0" 
d="M130.5 578q-24.5 24 -24.5 65q0 49 34 81t82 32q44 0 68.5 -23.5t24.5 -64.5q0 -50 -34 -82t-83 -32q-43 0 -67.5 24zM241.5 625q15.5 17 15.5 41q0 17 -10.5 26.5t-27.5 9.5q-24 0 -39.5 -16.5t-15.5 -40.5q0 -18 10 -27.5t28 -9.5q24 0 39.5 17z" />
    <glyph glyph-name="uni030B" unicode="&#x30b;" horiz-adv-x="0" 
d="M261 578h-100l75 147h130zM428 578h-101l86 147h135z" />
    <glyph glyph-name="uni030C" unicode="&#x30c;" horiz-adv-x="0" 
d="M342 578h-137l-74 147h118l32 -84h2l64 84h127z" />
    <glyph glyph-name="uni0312" unicode="&#x312;" horiz-adv-x="0" 
d="M272 744q-33 -6 -52.5 -21t-25.5 -46h64l-19 -99h-136l19 99q9 46 49.5 75.5t109.5 38.5z" />
    <glyph glyph-name="uni0326" unicode="&#x326;" horiz-adv-x="0" 
d="M-19 -49h136l-19 -95q-8 -44 -48.5 -72.5t-108.5 -37.5l8 45q34 6 53 20.5t25 44.5h-65z" />
    <glyph glyph-name="uni0327" unicode="&#x327;" horiz-adv-x="0" 
d="M-48 -166l33 33q32 -15 62 -15q25 0 39.5 10.5t14.5 27.5q0 21 -30 21q-21 0 -40 -7l-11 30l69 66h66l-49 -50l-1 -2q6 1 18 1q32 0 52.5 -14t20.5 -40q0 -40 -39.5 -66.5t-100.5 -26.5t-104 32z" />
    <glyph glyph-name="uni0328" unicode="&#x328;" horiz-adv-x="0" 
d="M-6.5 -160q-23.5 17 -23.5 50t25.5 63t66.5 47h89q-28 -14 -47.5 -32.5t-19.5 -36.5q0 -24 29 -24q14 0 44 8l-15 -81q-42 -11 -79 -11q-46 0 -69.5 17z" />
    <glyph glyph-name="uni0335" unicode="&#x335;" horiz-adv-x="0" 
d="M490 328h-436l16 84h436z" />
    <glyph glyph-name="uni0336" unicode="&#x336;" horiz-adv-x="0" 
d="M576 294h-529l26 131h529z" />
    <glyph glyph-name="uni0337" unicode="&#x337;" horiz-adv-x="0" 
d="M618 483l-590 -495l-32 41l589 494z" />
    <glyph glyph-name="uni0338" unicode="&#x338;" horiz-adv-x="0" 
d="M618 483l-590 -495l-32 41l589 494z" />
    <glyph glyph-name="uni0394" unicode="&#x394;" horiz-adv-x="671" 
d="M340 715h170l116 -588l-24 -127h-630l25 127zM402 573h-9l-251 -449h337z" />
    <glyph glyph-name="uni03A9" unicode="&#x3a9;" horiz-adv-x="800" 
d="M-14 0l25 127h163q-53 35 -79 85t-26 121q0 109 54.5 199.5t151 143.5t215.5 53q92 0 158 -32t101 -91t35 -139q0 -102 -53 -195.5t-143 -144.5h151l-25 -127h-309l23 116q92 48 147 134.5t55 185.5q0 84 -41 125.5t-118 41.5q-79 0 -137 -40.5t-88 -107t-30 -144.5
q0 -71 25.5 -116t74.5 -79l-22 -116h-308z" />
    <glyph glyph-name="uni03BC" unicode="&#x3bc;" horiz-adv-x="571" 
d="M434 511h138l-99 -511h-138l14 70h-2q-23 -36 -59 -59.5t-80 -23.5q-50 0 -73 30l-37 -194h-134l134 688h137l-60 -305q-4 -19 -4 -37q0 -72 73 -72q47 0 81 27t48 71z" />
    <glyph glyph-name="pi" unicode="&#x3c0;" horiz-adv-x="598" 
d="M519 406l-48 -247q-4 -24 -4 -29q0 -20 9 -26.5t28 -6.5q13 0 32 4l-20 -100q-37 -10 -78 -10q-57 0 -84.5 23.5t-27.5 76.5q0 31 7 66l49 249h-120l-80 -406h-137l80 406h-80l20 105h554l-21 -105h-79z" />
    <glyph glyph-name="uni0400" unicode="&#x400;" horiz-adv-x="634" 
d="M551 0h-537l139 715h529l-25 -128h-375l-29 -155h325l-26 -128h-324l-34 -176h382zM474 782h-105l-98 147h156z" />
    <glyph glyph-name="uni0401" unicode="&#x401;" horiz-adv-x="634" 
d="M551 0h-537l139 715h529l-25 -128h-375l-29 -155h325l-26 -128h-324l-34 -176h382zM406 787h-142l28 129h142zM599 787h-142l28 129h142z" />
    <glyph glyph-name="uni0402" unicode="&#x402;" horiz-adv-x="751" 
d="M355 -170l25 131q14 -6 33.5 -9.5t31.5 -3.5q26 0 41.5 11t22.5 45l46 241q3 18 3 33q0 39 -23 59.5t-70 20.5q-59 0 -101.5 -34.5t-54.5 -94.5l-44 -229h-155l114 587h-143l24 128h514l-24 -128h-216l-38 -196h2q33 46 90 71.5t120 25.5q81 0 124.5 -40t43.5 -116
q0 -28 -6 -61l-56 -288q-18 -81 -71.5 -123.5t-131.5 -42.5q-59 0 -101 13z" />
    <glyph glyph-name="uni0403" unicode="&#x403;" horiz-adv-x="528" 
d="M168 0h-154l139 715h449l-25 -128h-294zM462 782h-104l78 147h156z" />
    <glyph glyph-name="uni0404" unicode="&#x404;" horiz-adv-x="708" 
d="M305 550q-55 -51 -83 -131h228l-21 -108h-230q-1 -12 -1 -34q0 -76 40.5 -120.5t105.5 -44.5q74 0 120.5 36.5t62.5 96.5h157q-18 -77 -65.5 -135.5t-120.5 -91t-165 -32.5q-85 0 -150.5 32.5t-102 95t-36.5 148.5q0 124 50 230.5t147.5 171.5t235.5 65q81 0 139.5 -34
t87 -89.5t23.5 -117.5h-156q-1 50 -34 81.5t-94 31.5q-83 0 -138 -51z" />
    <glyph glyph-name="uni0405" unicode="&#x405;" horiz-adv-x="647" 
d="M149.5 16q-67.5 31 -102 88t-30.5 135h155q-1 -7 -1 -20q0 -53 38 -80.5t104 -27.5q65 0 102.5 24.5t37.5 67.5q0 27 -17 44.5t-46 30t-95 35.5q-69 24 -112 48.5t-67 61t-24 90.5q0 68 37 117t103 74.5t150 25.5q132 0 201 -60t67 -170h-153q7 106 -125 106
q-56 0 -89 -19.5t-33 -58.5q0 -25 13 -41t38 -27.5t80 -32.5q85 -31 130 -53.5t73 -59.5t28 -96q0 -69 -35.5 -121.5t-103.5 -82t-163 -29.5q-93 0 -160.5 31z" />
    <glyph glyph-name="uni0406" unicode="&#x406;" horiz-adv-x="283" 
d="M169 0h-155l139 715h155z" />
    <glyph glyph-name="uni0407" unicode="&#x407;" horiz-adv-x="283" 
d="M169 0h-155l139 715h155zM218 787h-142l28 129h142zM411 787h-142l28 129h142z" />
    <glyph glyph-name="uni0408" unicode="&#x408;" horiz-adv-x="544" 
d="M50.5 32q-48.5 47 -48.5 128q0 32 8 72l10 49h140l-10 -49q-6 -30 -6 -53q0 -34 16 -50.5t54 -16.5q51 0 75.5 30.5t35.5 89.5l94 483h155l-96 -488q-22 -114 -83 -178t-188 -64q-108 0 -156.5 47z" />
    <glyph glyph-name="uni0409" unicode="&#x409;" horiz-adv-x="991" 
d="M-9 -12q-26 3 -35 9l25 132q26 -10 58 -10t51.5 20.5t31.5 69.5l126 506h451l-47 -240h98q102 0 164 -49t62 -132t-41 -150t-113.5 -105.5t-164.5 -38.5h-251l113 587h-159l-97 -391q-29 -115 -85 -163t-134 -48q-27 0 -53 3zM680 128q43 0 75 19.5t49 50t17 63.5
q0 42 -22 64t-63 22h-108l-43 -219h95z" />
    <glyph glyph-name="uni040A" unicode="&#x40a;" horiz-adv-x="1007" 
d="M14 0l139 715h155l-51 -262h250l51 262h155l-47 -262h97q102 0 164.5 -49t62.5 -132q0 -82 -40.5 -143.5t-113 -95t-165.5 -33.5h-252l64 326h-251l-64 -326h-154zM694 128q65 0 103 34.5t38 84.5q0 79 -85 79h-108l-43 -198h95z" />
    <glyph glyph-name="uni040B" unicode="&#x40b;" horiz-adv-x="751" 
d="M110 0l114 587h-143l24 128h515l-25 -128h-216l-39 -201h2q32 46 89.5 71t119.5 25q81 0 125 -40t44 -116q0 -28 -6 -61l-52 -265h-154l46 239q3 17 3 32q0 39 -23.5 60t-69.5 21q-59 0 -101.5 -34t-54.5 -95l-43 -223h-155z" />
    <glyph glyph-name="uni040C" unicode="&#x40c;" horiz-adv-x="693" 
d="M607 715h184l-364 -371l228 -344h-188l-174 282h-69l-55 -282h-155l139 715h155l-59 -305h69zM492 782h-104l78 147h156z" />
    <glyph glyph-name="uni040D" unicode="&#x40d;" horiz-adv-x="748" 
d="M169 0h-155l139 715h155l-91 -465h2l400 465h154l-139 -715h-154l90 465h-2zM514 782h-105l-98 147h156z" />
    <glyph glyph-name="uni040E" unicode="&#x40e;" horiz-adv-x="660" 
d="M246 0h-164l148 212l-132 503h160l81 -348h2l237 348h162zM331.5 803.5q-34.5 30.5 -34.5 85.5q0 15 3 31h80q-6 -60 55 -60q31 0 52 15.5t29 44.5h85q-16 -68 -62 -107.5t-114 -39.5q-59 0 -93.5 30.5z" />
    <glyph glyph-name="uni040F" unicode="&#x40f;" horiz-adv-x="708" 
d="M355 -131h-137l24 131h-228l139 715h155l-114 -587h270l115 587h154l-138 -715h-215z" />
    <glyph glyph-name="uni0410" unicode="&#x410;" horiz-adv-x="689" 
d="M112 0h-160l400 715h160l128 -715h-161l-20 158h-265zM407 573l-152 -295h191l-37 295h-2z" />
    <glyph glyph-name="uni0411" unicode="&#x411;" horiz-adv-x="636" 
d="M14 0l139 715h483l-25 -128h-328l-26 -128h145q104 0 159 -45.5t55 -126.5q0 -82 -40 -147.5t-111 -102.5t-162 -37h-289zM327 128q41 0 70.5 18.5t44.5 48.5t15 63q0 34 -21 53.5t-61 19.5h-142l-39 -203h133z" />
    <glyph glyph-name="uni0412" unicode="&#x412;" horiz-adv-x="683" 
d="M14 0l139 715h322q100 0 152.5 -40t52.5 -113q0 -67 -41.5 -115.5t-106.5 -64.5v-2q115 -26 115 -142q0 -69 -35 -123t-99.5 -84.5t-148.5 -30.5h-350zM396 423q57 0 91 26t34 73q0 35 -21.5 50t-66.5 15h-151l-31 -164h145zM344 128q71 0 111 30.5t40 85.5
q0 43 -25 60.5t-78 17.5h-161l-37 -194h150z" />
    <glyph glyph-name="uni0413" unicode="&#x413;" horiz-adv-x="528" 
d="M168 0h-154l139 715h449l-25 -128h-294z" />
    <glyph glyph-name="uni0414" unicode="&#x414;" horiz-adv-x="741" 
d="M-69 -130l50 257h51q28 0 47.5 18t34.5 56t32 106l99 408h481l-113 -588h76l-50 -257h-137l25 129h-434l-25 -129h-137zM215 127h243l89 460h-187l-77 -321q-12 -50 -29 -82.5t-39 -54.5v-2z" />
    <glyph glyph-name="uni0415" unicode="&#x415;" horiz-adv-x="634" 
d="M551 0h-537l139 715h529l-25 -128h-375l-29 -155h325l-26 -128h-324l-34 -176h382z" />
    <glyph glyph-name="uni0416" unicode="&#x416;" horiz-adv-x="981" 
d="M900 715h168l-301 -365l166 -350h-174l-128 282h-60l-55 -282h-154l55 282h-60l-224 -282h-192l311 358l-148 357h153l125 -305h59l60 305h154l-59 -305h60z" />
    <glyph glyph-name="uni0417" unicode="&#x417;" horiz-adv-x="627" 
d="M82 34.5q-73 50.5 -73 141.5q0 21 2 32h158q-4 -47 26.5 -71.5t95.5 -24.5q37 0 70 15t53 42t20 61q0 35 -30.5 53.5t-78.5 18.5h-85l20 109h81q36 0 62.5 17t40.5 42.5t14 52.5q0 33 -29.5 55.5t-70.5 22.5q-50 0 -83 -24t-40 -67h-157q24 110 102 164.5t203 54.5
q66 0 118 -21.5t81.5 -60t29.5 -88.5q0 -69 -42 -119t-115 -74l-1 -2q55 -12 94.5 -48.5t39.5 -94.5q0 -67 -44 -121.5t-115.5 -85t-149.5 -30.5q-124 0 -197 50.5z" />
    <glyph glyph-name="uni0418" unicode="&#x418;" horiz-adv-x="748" 
d="M169 0h-155l139 715h155l-91 -465h2l400 465h154l-139 -715h-154l90 465h-2z" />
    <glyph glyph-name="uni0419" unicode="&#x419;" horiz-adv-x="748" 
d="M169 0h-155l139 715h155l-91 -465h2l400 465h154l-139 -715h-154l90 465h-2zM378.5 803.5q-34.5 30.5 -34.5 85.5q0 15 3 31h80q-6 -60 55 -60q31 0 52 15.5t29 44.5h85q-16 -68 -62 -107.5t-114 -39.5q-59 0 -93.5 30.5z" />
    <glyph glyph-name="uni041A" unicode="&#x41a;" horiz-adv-x="693" 
d="M607 715h184l-364 -371l228 -344h-188l-174 282h-69l-55 -282h-155l139 715h155l-59 -305h69z" />
    <glyph glyph-name="uni041B" unicode="&#x41b;" horiz-adv-x="698" 
d="M-9 -12q-26 3 -35 9l25 132q26 -10 58 -10t51.5 20.5t31.5 69.5l126 506h475l-139 -715h-155l115 587h-184l-97 -391q-29 -115 -85 -163t-134 -48q-27 0 -53 3z" />
    <glyph glyph-name="uni041C" unicode="&#x41c;" horiz-adv-x="853" 
d="M160 0h-146l139 715h191l70 -509h2l262 509h200l-139 -715h-146l94 486h-3l-252 -486h-110l-65 486h-3z" />
    <glyph glyph-name="uni041D" unicode="&#x41d;" horiz-adv-x="721" 
d="M169 0h-155l139 715h155l-56 -287h284l56 287h154l-139 -715h-154l58 300h-284z" />
    <glyph glyph-name="uni041E" unicode="&#x41e;" horiz-adv-x="773" 
d="M186.5 21.5q-68.5 36.5 -104.5 103.5t-36 157q0 122 51.5 224.5t145.5 163t216 60.5q96 0 165.5 -36.5t105.5 -103.5t36 -157q0 -121 -51.5 -223.5t-146 -163.5t-217.5 -61q-96 0 -164.5 36.5zM493.5 157q57.5 45 87.5 118t30 155q0 80 -39.5 126.5t-117.5 46.5
q-77 0 -134.5 -45t-88 -118t-30.5 -155q0 -80 40 -126.5t118 -46.5q77 0 134.5 45z" />
    <glyph glyph-name="uni041F" unicode="&#x41f;" horiz-adv-x="708" 
d="M169 0h-155l139 715h580l-139 -715h-154l114 587h-271z" />
    <glyph glyph-name="uni0420" unicode="&#x420;" horiz-adv-x="651" 
d="M14 0l139 715h312q219 0 219 -180q0 -74 -36.5 -134.5t-101.5 -95.5t-149 -35h-176l-52 -270h-155zM392 398q63 0 99.5 33t36.5 86q0 38 -23 54t-75 16h-148l-36 -189h146z" />
    <glyph glyph-name="uni0421" unicode="&#x421;" horiz-adv-x="716" 
d="M118.5 62q-72.5 77 -72.5 216q0 123 54 226.5t149 164.5t214 61q87 0 147.5 -30.5t91 -85t30.5 -124.5q0 -10 -2 -32h-157q2 68 -29 106.5t-98 38.5q-75 0 -131.5 -44.5t-86.5 -118t-30 -156.5q0 -85 32.5 -128.5t107.5 -43.5q148 0 198 153h158q-37 -126 -134 -203
t-237 -77q-132 0 -204.5 77z" />
    <glyph glyph-name="uni0422" unicode="&#x422;" horiz-adv-x="616" 
d="M336 0h-155l114 587h-217l26 128h586l-25 -128h-216z" />
    <glyph glyph-name="uni0423" unicode="&#x423;" horiz-adv-x="660" 
d="M246 0h-164l148 212l-132 503h160l81 -348h2l237 348h162z" />
    <glyph glyph-name="uni0424" unicode="&#x424;" horiz-adv-x="788" 
d="M738 247.5q-46 -68.5 -126 -110.5t-179 -54l-16 -83h-147l16 84q-112 15 -178 73t-66 149q0 88 45.5 156.5t125 111t179.5 55.5l17 86h147l-17 -87q112 -15 178.5 -75t66.5 -150q0 -87 -46 -155.5zM456 200q79 18 126.5 68.5t47.5 120.5q0 47 -29.5 79t-83.5 45z
M226.5 242.5q29.5 -31.5 82.5 -43.5l60 313q-78 -18 -125 -68.5t-47 -122.5q0 -47 29.5 -78.5z" />
    <glyph glyph-name="uni0425" unicode="&#x425;" horiz-adv-x="641" 
d="M117 0h-174l310 366l-152 349h164l98 -237h2l191 237h165l-291 -350l169 -365h-172l-106 252h-2z" />
    <glyph glyph-name="uni0426" unicode="&#x426;" horiz-adv-x="751" 
d="M650 -131h-138l25 131h-523l139 715h155l-114 -587h270l115 587h154l-114 -587h81z" />
    <glyph glyph-name="uni0427" unicode="&#x427;" horiz-adv-x="649" 
d="M380 0l61 309h-2q-40 -44 -94 -70t-109 -26q-78 0 -122 43t-44 120q0 28 6 59l53 280h155l-51 -259q-3 -15 -3 -28q0 -40 25 -62.5t69 -22.5q39 0 71.5 17.5t65.5 51.5l58 303h155l-139 -715h-155z" />
    <glyph glyph-name="uni0428" unicode="&#x428;" horiz-adv-x="946" 
d="M831 0h-817l139 715h155l-114 -587h177l113 587h155l-114 -587h177l113 587h155z" />
    <glyph glyph-name="uni0429" unicode="&#x429;" horiz-adv-x="987" 
d="M886 -131h-137l24 131h-759l139 715h155l-114 -587h177l113 587h155l-114 -587h177l113 587h155l-114 -587h80z" />
    <glyph glyph-name="uni042A" unicode="&#x42a;" horiz-adv-x="727" 
d="M105 0l114 587h-145l25 128h300l-46 -235h134q102 0 164 -48.5t62 -133.5q0 -82 -40 -150t-113 -108t-167 -40h-288zM417 128q44 0 76 20.5t48.5 52.5t16.5 64q0 42 -21 64.5t-63 22.5h-145l-44 -224h132z" />
    <glyph glyph-name="uni042B" unicode="&#x42b;" horiz-adv-x="870" 
d="M14 0l139 715h155l-46 -235h104q103 0 165 -49t62 -133q0 -82 -40 -150t-113 -108t-167 -40h-259zM755 0h-154l139 715h154zM297 128q43 0 74.5 20.5t48.5 52.5t17 64q0 42 -21 64.5t-62 22.5h-117l-43 -224h103z" />
    <glyph glyph-name="uni042C" unicode="&#x42c;" horiz-adv-x="636" 
d="M14 0l139 715h155l-46 -235h134q102 0 164 -48.5t62 -133.5q0 -82 -40 -150t-112.5 -108t-166.5 -40h-289zM327 128q43 0 74.5 20.5t48.5 52.5t17 64q0 42 -21 64.5t-62 22.5h-147l-43 -224h133z" />
    <glyph glyph-name="uni042D" unicode="&#x42d;" horiz-adv-x="720" 
d="M574 694q65 -35 101.5 -100t36.5 -151q0 -125 -49 -229.5t-140 -166t-211 -61.5q-88 0 -154.5 29t-103 81.5t-36.5 119.5q0 9 2 29h159q-5 -60 35.5 -95.5t114.5 -35.5q75 0 130 54t79 143h-237l21 108h231v10q0 78 -42.5 125t-111.5 47q-58 0 -105.5 -31t-67.5 -82h-159
q21 72 72 126.5t125 84.5t163 30q82 0 147 -35z" />
    <glyph glyph-name="uni042E" unicode="&#x42e;" horiz-adv-x="984" 
d="M912 660.5q69 -69.5 69 -189.5q0 -121 -45 -232.5t-133 -182.5t-211 -71q-80 0 -138.5 33t-89 93t-30.5 140q0 15 2 49h-109l-58 -300h-155l139 715h155l-56 -288h109q40 131 130 217t228 86q124 0 193 -69.5zM729.5 169q48.5 57 72.5 137t24 145q0 73 -32 112.5
t-89 39.5q-71 0 -120 -56.5t-72.5 -136t-23.5 -145.5q0 -73 32 -113t89 -40q71 0 119.5 57z" />
    <glyph glyph-name="uni042F" unicode="&#x42f;" horiz-adv-x="676" 
d="M-30 6q9 11 20.5 33.5t22.5 48.5q29 66 54 111.5t66.5 83.5t99.5 49v2q-59 15 -97.5 54.5t-38.5 93.5q0 110 80 171.5t215 61.5h310l-140 -715h-155l52 263h-112q-55 0 -91 -30.5t-54.5 -71t-36.5 -98.5q-15 -50 -24 -63h-172zM482 384l40 203h-153q-57 0 -87 -30
t-30 -77q0 -44 30 -70t77 -26h123z" />
    <glyph glyph-name="uni0430" unicode="&#x430;" horiz-adv-x="562" 
d="M43 19q-38 34 -38 97q0 82 61 123t171 65q56 11 85.5 19.5t48 23.5t18.5 39q0 45 -72 45q-49 0 -77 -20t-40 -64h-132q19 82 84.5 131.5t179.5 49.5q188 0 188 -147q0 -22 -7 -61l-42 -203q-3 -15 -3 -24q0 -11 5.5 -16t18.5 -5q6 0 11 1l-15 -73q-42 -9 -73 -9
q-86 0 -84 74h-2q-30 -37 -76 -58.5t-102 -21.5q-70 0 -108 34zM307 118q37 33 49 90l11 51q-18 -12 -36 -18t-69 -17q-63 -14 -90.5 -31t-27.5 -52q0 -28 17.5 -42t49.5 -14q59 0 96 33z" />
    <glyph glyph-name="uni0431" unicode="&#x431;" horiz-adv-x="577" 
d="M86 41.5q-55 57.5 -55 172.5q0 89 33 188.5t104.5 175t179.5 90.5l98 14q73 12 79 33h111q-13 -64 -53.5 -95t-102.5 -40l-125 -18q-66 -9 -115.5 -53t-72.5 -119h2q35 63 99 100.5t132 37.5q76 0 118.5 -48.5t42.5 -136.5q0 -95 -37.5 -177t-109.5 -132t-169 -50
q-104 0 -159 57.5zM350 126q36 37 55 89.5t19 95.5q0 52 -22.5 81.5t-64.5 29.5q-49 0 -87 -34t-59 -85t-21 -99q0 -53 25 -84t70 -31q49 0 85 37z" />
    <glyph glyph-name="uni0432" unicode="&#x432;" horiz-adv-x="532" 
d="M-1 0l99 511h253q73 0 114 -32t41 -86q0 -44 -34.5 -79t-85.5 -47v-2q45 -5 75 -29t30 -69q0 -47 -29 -85t-81 -60t-118 -22h-264zM304 304q29 0 47 18.5t18 40.5t-14 32.5t-37 10.5h-104l-19 -102h109zM275 106q37 0 58 16.5t21 48.5q0 22 -13.5 32.5t-41.5 10.5h-121
l-21 -108h118z" />
    <glyph glyph-name="uni0433" unicode="&#x433;" horiz-adv-x="416" 
d="M136 0h-137l100 511h357l-22 -105h-219z" />
    <glyph glyph-name="uni0434" unicode="&#x434;" horiz-adv-x="611" 
d="M491 106h71l-47 -236h-127l26 130h-329l-26 -130h-127l46 236h40q58 0 77 73l85 332h390zM195 106h159l58 300h-124l-58 -223q-11 -47 -35 -75v-2z" />
    <glyph glyph-name="uni0435" unicode="&#x435;" horiz-adv-x="568" 
d="M155 219v-15q0 -60 27 -87.5t78 -27.5q49 0 80.5 22t39.5 49h140q-36 -84 -105.5 -130t-168.5 -46q-111 0 -167.5 58t-56.5 168q0 86 38.5 159t109 116t163.5 43q215 0 215 -212q0 -42 -10 -97h-383zM225 395q-39 -31 -56 -85h244q3 15 3 29q0 42 -24.5 64.5t-69.5 22.5
q-58 0 -97 -31z" />
    <glyph glyph-name="uni0436" unicode="&#x436;" horiz-adv-x="772" 
d="M110 0h-164l221 259l-120 252h148l97 -206h36l40 206h138l-40 -206h38l171 206h155l-228 -269l111 -242h-149l-84 199h-36l-38 -199h-138l39 199h-34z" />
    <glyph glyph-name="uni0437" unicode="&#x437;" horiz-adv-x="498" 
d="M51.5 20.5q-56.5 36.5 -56.5 103.5q0 15 3 31h134q-1 -4 -1 -11q0 -26 25 -40t63 -14q39 0 68 19t29 54q0 49 -64 49h-75l18 92h71q38 0 59 19t21 46q0 25 -20.5 39t-50.5 14q-41 0 -67 -17t-34 -48h-134q9 49 44 88t89.5 61t121.5 22q82 0 134.5 -32.5t52.5 -92.5
q0 -35 -19.5 -66.5t-52 -52t-68.5 -21.5v-1q51 -8 81 -35t30 -70q0 -52 -33.5 -91.5t-91.5 -60.5t-130 -21q-90 0 -146.5 36.5z" />
    <glyph glyph-name="uni0438" unicode="&#x438;" horiz-adv-x="597" 
d="M136 0h-138l101 510h137l-63 -322l288 322h138l-101 -510h-137l64 323z" />
    <glyph glyph-name="uni0439" unicode="&#x439;" horiz-adv-x="597" 
d="M136 0h-138l101 510h137l-63 -322l288 322h138l-101 -510h-137l64 323zM269.5 598.5q-34.5 30.5 -34.5 85.5q0 15 3 31h80q-6 -60 55 -60q31 0 52 15.5t29 44.5h85q-16 -68 -62 -107.5t-114 -39.5q-59 0 -93.5 30.5z" />
    <glyph glyph-name="uni043A" unicode="&#x43a;" horiz-adv-x="534" 
d="M428 511h163l-240 -266l149 -245h-157l-116 199h-52l-39 -199h-137l100 511h137l-40 -206h55z" />
    <glyph glyph-name="uni043B" unicode="&#x43b;" horiz-adv-x="559" 
d="M-39 -6l21 106q21 -7 39 -7q39 0 58 76l87 342h394l-99 -511h-138l79 406h-133l-65 -260q-20 -77 -64.5 -119t-112.5 -42q-44 0 -66 9z" />
    <glyph glyph-name="uni043C" unicode="&#x43c;" horiz-adv-x="696" 
d="M135 0h-137l102 511h136l92 -347h2l243 347h128l-106 -511h-138l55 256h-2l-173 -256h-92l-56 259h-2z" />
    <glyph glyph-name="uni043D" unicode="&#x43d;" horiz-adv-x="582" 
d="M407 309l39 201h137l-99 -510h-137l40 204h-211l-40 -204h-137l99 510h137l-39 -201h211z" />
    <glyph glyph-name="uni043E" unicode="&#x43e;" horiz-adv-x="583" 
d="M80 41.5q-60 57.5 -60 159.5q0 91 39.5 165.5t111.5 118t163 43.5q109 0 168.5 -57.5t59.5 -160.5q0 -90 -39.5 -164.5t-110.5 -118t-162 -43.5q-110 0 -170 57.5zM348.5 120.5q37.5 30.5 57.5 80.5t20 107q0 55 -27 84.5t-77 29.5t-87.5 -30.5t-58 -80.5t-20.5 -107
q0 -55 27.5 -84.5t77.5 -29.5t87.5 30.5z" />
    <glyph glyph-name="uni043F" unicode="&#x43f;" horiz-adv-x="570" 
d="M136 0h-137l99 511h473l-99 -511h-138l79 406h-197z" />
    <glyph glyph-name="uni0440" unicode="&#x440;" horiz-adv-x="591" 
d="M523 472.5q48 -54.5 48 -152.5q0 -91 -37.5 -168t-102.5 -122t-142 -45q-53 0 -89 21t-51 49h-3l-45 -232h-137l134 688h137l-11 -54h2q25 28 68 49t97 21q84 0 132 -54.5zM354 120q36 30 56 80t20 106q0 115 -91 115q-45 0 -81.5 -30.5t-56.5 -80.5t-20 -104
q0 -58 24 -87t68 -29q45 0 81 30z" />
    <glyph glyph-name="uni0441" unicode="&#x441;" horiz-adv-x="542" 
d="M78.5 40.5q-58.5 56.5 -58.5 157.5q0 89 36.5 164t106 120.5t163.5 45.5q71 0 120 -27t71.5 -74.5t17.5 -106.5h-133l1 15q0 40 -21.5 63.5t-65.5 23.5q-48 0 -84.5 -30.5t-56.5 -80.5t-20 -107q0 -53 24 -83.5t71 -30.5q54 0 83.5 28t43.5 73h134q-24 -93 -96.5 -150
t-174.5 -57q-103 0 -161.5 56.5z" />
    <glyph glyph-name="uni0442" unicode="&#x442;" horiz-adv-x="490" 
d="M266 0h-138l79 406h-168l21 105h469l-21 -105h-163z" />
    <glyph glyph-name="uni0443" unicode="&#x443;" horiz-adv-x="533" 
d="M-26 -169l21 107q24 -3 44 -3q34 0 64 14.5t49 56.5l-109 505h140l62 -358h2l186 358h145l-304 -540q-47 -82 -95 -115.5t-124 -33.5q-36 0 -81 9z" />
    <glyph glyph-name="uni0444" unicode="&#x444;" horiz-adv-x="693" 
d="M634.5 161q-39.5 -69 -110 -113.5t-161.5 -57.5l-32 -167h-137l32 167q-96 14 -152 68t-56 141q0 27 6 57q21 110 102.5 180.5t203.5 87.5l37 191h137l-37 -192q99 -14 153 -68.5t54 -140.5q0 -84 -39.5 -153zM156 218q0 -45 23.5 -77t67.5 -45l62 321q-59 -17 -98 -59
t-51 -102q-4 -17 -4 -38zM384 97q69 20 110 73t41 125q0 45 -23 76t-66 45z" />
    <glyph glyph-name="uni0445" unicode="&#x445;" horiz-adv-x="507" 
d="M95 0h-156l235 263l-118 248h149l69 -159h2l125 159h149l-215 -251l135 -260h-156l-79 171h-2z" />
    <glyph glyph-name="uni0446" unicode="&#x446;" horiz-adv-x="611" 
d="M515 -130h-127l25 130h-414l99 511h138l-78 -405h196l78 405h138l-79 -405h71z" />
    <glyph glyph-name="uni0447" unicode="&#x447;" horiz-adv-x="534" 
d="M298 0l40 210h-1q-30 -31 -73.5 -50.5t-91.5 -19.5q-63 0 -100.5 31.5t-37.5 88.5q0 19 4 38l41 212h138l-32 -163q-2 -9 -2 -26q0 -33 18 -50.5t50 -17.5q56 0 107 57l39 200h138l-100 -510h-137z" />
    <glyph glyph-name="uni0448" unicode="&#x448;" horiz-adv-x="754" 
d="M656 0h-657l99 511h130l-79 -405h134l78 405h131l-79 -405h134l78 405h130z" />
    <glyph glyph-name="uni0449" unicode="&#x449;" horiz-adv-x="797" 
d="M701 -130h-127l25 130h-600l99 511h130l-79 -405h134l78 405h131l-79 -405h134l78 405h130l-78 -405h70z" />
    <glyph glyph-name="uni044A" unicode="&#x44a;" horiz-adv-x="574" 
d="M74 0l79 405h-114l21 106h250l-32 -164h103q79 0 123 -37.5t44 -104.5q0 -58 -29 -105t-82 -73.5t-122 -26.5h-241zM325 106q39 0 63 21t24 57q0 26 -17 41.5t-46 15.5h-91l-26 -135h93z" />
    <glyph glyph-name="uni044B" unicode="&#x44b;" horiz-adv-x="711" 
d="M-1 0l99 511h137l-32 -164h86q79 0 123 -37.5t44 -104.5q0 -58 -29 -105t-82 -73.5t-122 -26.5h-224zM613 0h-137l99 510h137zM233 106q39 0 63 21t24 57q0 26 -17 41.5t-47 15.5h-73l-26 -135h76z" />
    <glyph glyph-name="uni044C" unicode="&#x44c;" horiz-adv-x="499" 
d="M-1 0l99 511h137l-32 -164h103q79 0 123 -37.5t44 -104.5q0 -58 -29 -105t-82 -73.5t-122 -26.5h-241zM250 106q39 0 63 21t24 57q0 26 -17 41.5t-46 15.5h-91l-26 -135h93z" />
    <glyph glyph-name="uni044D" unicode="&#x44d;" horiz-adv-x="546" 
d="M466.5 470.5q58.5 -57.5 58.5 -156.5q0 -90 -36.5 -165t-105.5 -120t-164 -45q-103 0 -163.5 50.5t-54.5 137.5h135q3 -37 29 -59.5t73 -22.5q53 0 87 32.5t50 88.5h-172l18 92h168v16q0 103 -96 103q-45 0 -78.5 -20.5t-46.5 -59.5h-134q19 90 93 138t169 48
q112 0 170.5 -57.5z" />
    <glyph glyph-name="uni044E" unicode="&#x44e;" horiz-adv-x="747" 
d="M682 476q48 -52 48 -143q0 -86 -36 -167t-103 -131.5t-154 -50.5q-99 0 -142.5 61.5t-36.5 157.5h-83l-39 -203h-137l99 510h137l-39 -201h82q33 100 105.5 159.5t167.5 59.5q83 0 131 -52zM530.5 132q30.5 43 46.5 101.5t16 98.5q0 44 -17 67t-49 23q-44 0 -73 -41.5
t-42.5 -98t-13.5 -101.5q0 -46 14.5 -69t46.5 -23q41 0 71.5 43z" />
    <glyph glyph-name="uni044F" unicode="&#x44f;" horiz-adv-x="520" 
d="M-36 4q8 12 31 58q22 46 41 77.5t48 57t68 31.5l1 1q-48 10 -76.5 42.5t-26.5 74.5q4 76 61.5 120.5t149.5 44.5h261l-100 -511h-137l32 169h-69q-50 0 -76.5 -38t-47.5 -99q-7 -20 -12 -32h-149zM337 268l26 138h-93q-36 0 -59.5 -21.5t-23.5 -59.5q0 -28 19 -42.5
t54 -14.5h77z" />
    <glyph glyph-name="uni0450" unicode="&#x450;" horiz-adv-x="568" 
d="M155 219v-15q0 -60 27 -87.5t78 -27.5q49 0 80.5 22t39.5 49h140q-36 -84 -105.5 -130t-168.5 -46q-111 0 -167.5 58t-56.5 168q0 86 38.5 159t109 116t163.5 43q215 0 215 -212q0 -42 -10 -97h-383zM225 395q-39 -31 -56 -85h244q3 15 3 29q0 42 -24.5 64.5t-69.5 22.5
q-58 0 -97 -31zM396 579h-105l-98 147h156z" />
    <glyph glyph-name="uni0451" unicode="&#x451;" horiz-adv-x="568" 
d="M155 219v-15q0 -60 27 -87.5t78 -27.5q49 0 80.5 22t39.5 49h140q-36 -84 -105.5 -130t-168.5 -46q-111 0 -167.5 58t-56.5 168q0 86 38.5 159t109 116t163.5 43q215 0 215 -212q0 -42 -10 -97h-383zM225 395q-39 -31 -56 -85h244q3 15 3 29q0 42 -24.5 64.5t-69.5 22.5
q-58 0 -97 -31zM328 584h-142l28 129h142zM521 584h-142l28 129h142z" />
    <glyph glyph-name="uni0452" unicode="&#x452;" 
d="M199 -173l19 107q24 -3 54 -3q50 0 61 54l62 322q4 17 4 36q0 71 -73 71q-51 0 -86.5 -32t-45.5 -79l-59 -303h-137l113 578h-53l15 82h54l11 55h137l-11 -55h163l-16 -82h-163l-26 -134h2q30 38 75 61t103 23q67 0 103.5 -35t36.5 -107q0 -34 -7 -69l-66 -337
q-15 -78 -66 -120t-125 -42q-38 0 -79 9z" />
    <glyph glyph-name="uni0453" unicode="&#x453;" horiz-adv-x="416" 
d="M136 0h-137l100 511h357l-22 -105h-219zM340 577h-104l78 147h156z" />
    <glyph glyph-name="uni0454" unicode="&#x454;" horiz-adv-x="541" 
d="M376 172h136q-29 -90 -92 -139t-169 -49q-110 0 -170 62t-60 163q0 80 36 153.5t104 119.5t159 46q68 0 116.5 -26t74 -68.5t26.5 -91.5h-136q-2 36 -26 58t-70 22q-52 0 -86.5 -33t-49.5 -87h171l-18 -91h-165v-1q0 -55 24.5 -87.5t80.5 -32.5q86 0 114 82z" />
    <glyph glyph-name="uni0455" unicode="&#x455;" horiz-adv-x="501" 
d="M95.5 10q-51.5 25 -74.5 67t-21 92h127q-2 -41 24 -63.5t80 -22.5q45 0 69.5 15.5t24.5 43.5q0 21 -15 34t-33 20t-67 22t-82 30.5t-55.5 43.5t-22.5 72q0 48 28.5 85t79.5 57.5t117 20.5q73 0 121.5 -24t70 -62.5t17.5 -82.5h-128q2 34 -19 53.5t-69 19.5
q-39 0 -61.5 -13t-22.5 -39q0 -24 20.5 -36t70.5 -28q18 -5 23 -7q52 -16 86.5 -33.5t56 -46t21.5 -72.5q0 -47 -26.5 -86t-79.5 -62t-129 -23q-80 0 -131.5 25z" />
    <glyph glyph-name="uni0456" unicode="&#x456;" horiz-adv-x="234" 
d="M135 0h-137l100 511h137zM251 583h-142l25 129h142z" />
    <glyph glyph-name="uni0457" unicode="&#x457;" horiz-adv-x="234" 
d="M166 583h-110l28 129h110zM302 583h-110l28 129h110zM135 0h-137l100 511h137z" />
    <glyph glyph-name="uni0458" unicode="&#x458;" horiz-adv-x="235" 
d="M-123 -174l21 107q24 -3 37 -3q26 0 40.5 13.5t22.5 52.5l100 515h137l-99 -512q-35 -181 -182 -181q-38 0 -77 8zM251 583h-142l25 129h142z" />
    <glyph glyph-name="uni0459" unicode="&#x459;" horiz-adv-x="798" 
d="M-39 -7l21 106q21 -7 39 -7q39 0 58 75l87 344h386l-32 -164h85q79 0 123 -37.5t44 -104.5q0 -58 -29 -105t-82 -73.5t-122 -26.5h-224l79 406h-125l-65 -262q-20 -77 -64.5 -118.5t-112.5 -41.5q-44 0 -66 9zM549 106q39 0 63 21t24 57q0 26 -17 41.5t-46 15.5h-74
l-26 -135h76z" />
    <glyph glyph-name="uni045A" unicode="&#x45a;" horiz-adv-x="805" 
d="M607 332q81 0 126 -36t45 -106q0 -55 -29 -98t-82 -67.5t-123 -24.5h-224l44 227h-184l-44 -227h-137l99 510h137l-34 -177h184l34 178h138l-35 -179h85zM554 106q41 0 64.5 17.5t23.5 52.5q0 25 -18 38t-49 13h-73l-24 -121h76z" />
    <glyph glyph-name="uni045B" unicode="&#x45b;" 
d="M505.5 493q36.5 -35 36.5 -107q0 -34 -7 -69l-62 -317h-138l60 307q4 17 4 36q0 71 -73 71q-51 0 -87 -33t-45 -81l-59 -300h-137l113 578h-54l16 82h54l11 55h137l-11 -55h162l-15 -82h-163l-26 -134h2q30 38 75 61t103 23q67 0 103.5 -35z" />
    <glyph glyph-name="uni045C" unicode="&#x45c;" horiz-adv-x="534" 
d="M428 511h163l-240 -266l149 -245h-157l-116 199h-52l-39 -199h-137l100 511h137l-40 -206h55zM385 577h-104l78 147h156z" />
    <glyph glyph-name="uni045D" unicode="&#x45d;" horiz-adv-x="597" 
d="M136 0h-138l101 510h137l-63 -322l288 322h138l-101 -510h-137l64 323zM405 577h-105l-98 147h156z" />
    <glyph glyph-name="uni045E" unicode="&#x45e;" horiz-adv-x="533" 
d="M-26 -169l21 107q24 -3 44 -3q34 0 64 14.5t49 56.5l-109 505h140l62 -358h2l186 358h145l-304 -540q-47 -82 -95 -115.5t-124 -33.5q-36 0 -81 9zM229.5 599.5q-34.5 30.5 -34.5 85.5q0 15 3 31h80q-6 -60 55 -60q31 0 52 15.5t29 44.5h85q-16 -68 -62 -107.5
t-114 -39.5q-59 0 -93.5 30.5z" />
    <glyph glyph-name="uni045F" unicode="&#x45f;" horiz-adv-x="569" 
d="M281 -130h-128l26 130h-180l99 511h138l-78 -405h196l78 405h138l-99 -511h-165z" />
    <glyph glyph-name="uni0490" unicode="&#x490;" horiz-adv-x="536" 
d="M168 0h-154l139 715h318l19 99h138l-44 -227h-301z" />
    <glyph glyph-name="uni0491" unicode="&#x491;" horiz-adv-x="452" 
d="M136 0h-137l100 511h265l21 109h128l-43 -214h-255z" />
    <glyph glyph-name="uni0492" unicode="&#x492;" horiz-adv-x="576" 
d="M646 715l-25 -128h-294l-37 -189h219l-25 -105h-215l-57 -293h-154l57 293h-98l25 105h93l62 317h449z" />
    <glyph glyph-name="uni0493" unicode="&#x493;" horiz-adv-x="463" 
d="M501 511l-21 -105h-220l-20 -104h158l-21 -103h-157l-39 -199h-137l39 199h-82l21 103h81l41 209h357z" />
    <glyph glyph-name="uni0496" unicode="&#x496;" horiz-adv-x="981" 
d="M1068 715l-301 -365l140 -296h58l-36 -184h-138l25 130h-57l-128 282h-60l-55 -282h-154l55 282h-60l-224 -282h-192l311 358l-148 357h153l125 -305h59l60 305h154l-59 -305h60l244 305h168z" />
    <glyph glyph-name="uni0497" unicode="&#x497;" horiz-adv-x="772" 
d="M830 511l-228 -269l70 -153h81l-43 -219h-127l26 130h-45l-84 199h-36l-38 -199h-138l39 199h-34l-163 -199h-164l221 259l-120 252h148l97 -206h36l40 206h138l-40 -206h38l171 206h155z" />
    <glyph glyph-name="uni049A" unicode="&#x49a;" horiz-adv-x="693" 
d="M791 715l-364 -371l192 -290h77l-36 -184h-138l25 130h-80l-174 282h-69l-55 -282h-155l139 715h155l-59 -305h69l289 305h184z" />
    <glyph glyph-name="uni049B" unicode="&#x49b;" horiz-adv-x="534" 
d="M591 511l-240 -266l95 -156h86l-43 -219h-127l26 130h-45l-116 199h-52l-39 -199h-137l100 511h137l-40 -206h55l177 206h163z" />
    <glyph glyph-name="uni04A2" unicode="&#x4a2;" horiz-adv-x="721" 
d="M592 715h154l-129 -661h59l-36 -184h-138l25 130h-74l58 300h-284l-58 -300h-155l139 715h155l-56 -287h284z" />
    <glyph glyph-name="uni04A3" unicode="&#x4a3;" horiz-adv-x="582" 
d="M446 510h137l-82 -421h59l-43 -219h-127l26 130h-69l40 204h-211l-40 -204h-137l99 510h137l-39 -201h211z" />
    <glyph glyph-name="uni04AE" unicode="&#x4ae;" horiz-adv-x="658" 
d="M356 0h-154l53 272l-162 443h164l96 -318h2l222 318h165l-333 -443z" />
    <glyph glyph-name="uni04AF" unicode="&#x4af;" horiz-adv-x="531" 
d="M257 -177h-138l44 223l-121 465h141l71 -317h2l181 317h145l-282 -465z" />
    <glyph glyph-name="uni04B0" unicode="&#x4b0;" horiz-adv-x="651" 
d="M739 715l-333 -443l-6 -31h133l-21 -106h-133l-26 -135h-154l26 135h-147l22 106h146l6 31l-163 443h165l96 -318h2l221 318h166z" />
    <glyph glyph-name="uni04B1" unicode="&#x4b1;" horiz-adv-x="533" 
d="M583 511l-282 -465l-6 -32h140l-20 -103h-140l-17 -88h-138l17 88h-141l21 103h140l6 32l-120 465h141l70 -317h2l182 317h145z" />
    <glyph glyph-name="uni04B2" unicode="&#x4b2;" horiz-adv-x="641" 
d="M721 715l-291 -350l144 -311h53l-36 -184h-138l25 130h-51l-106 252h-2l-202 -252h-174l310 366l-152 349h164l98 -237h2l191 237h165z" />
    <glyph glyph-name="uni04B3" unicode="&#x4b3;" horiz-adv-x="507" 
d="M550 511l-215 -251l89 -171h93l-43 -219h-127l26 130h-59l-79 171h-2l-138 -171h-156l235 263l-118 248h149l69 -159h2l125 159h149z" />
    <glyph glyph-name="uni04B6" unicode="&#x4b6;" horiz-adv-x="649" 
d="M674 715l-129 -661h61l-36 -184h-138l25 130h-77l61 309h-2q-40 -44 -94 -70t-109 -26q-78 0 -122 43t-44 120q0 28 6 59l53 280h155l-51 -259q-3 -15 -3 -28q0 -40 25 -62.5t69 -22.5q39 0 71.5 17.5t65.5 51.5l58 303h155z" />
    <glyph glyph-name="uni04B7" unicode="&#x4b7;" horiz-adv-x="534" 
d="M535 510l-83 -421h52l-43 -219h-127l26 130h-62l40 210h-1q-30 -31 -73.5 -50.5t-91.5 -19.5q-63 0 -100.5 31.5t-37.5 88.5q0 19 4 38l41 212h138l-32 -163q-2 -9 -2 -26q0 -33 18 -50.5t50 -17.5q56 0 107 57l39 200h138z" />
    <glyph glyph-name="uni04BA" unicode="&#x4ba;" horiz-adv-x="657" 
d="M14 0l140 715h154l-62 -315h2q33 46 90.5 71.5t119.5 25.5q81 0 125 -40t44 -115q0 -23 -7 -63l-54 -279h-155l50 253q3 18 3 33q0 39 -23.5 60t-70.5 21q-59 0 -101.5 -35t-53.5 -95l-46 -237h-155z" />
    <glyph glyph-name="uni04BB" unicode="&#x4bb;" 
d="M505.5 493q36.5 -35 36.5 -107q0 -34 -7 -69l-62 -317h-138l60 307q4 17 4 36q0 71 -73 71q-51 0 -87 -33t-45 -81l-59 -300h-137l140 715h137l-53 -271h2q30 38 75 61t103 23q67 0 103.5 -35z" />
    <glyph glyph-name="uni04D8" unicode="&#x4d8;" horiz-adv-x="741" 
d="M602.5 692.5q62.5 -36.5 96.5 -101.5t34 -148q0 -133 -54 -237.5t-148.5 -162.5t-211.5 -58q-87 0 -150 34.5t-96 95.5t-33 140q0 38 7 74q8 42 22 76h509v2q1 8 1 24q0 81 -42.5 125.5t-108.5 44.5q-67 0 -115.5 -29t-66.5 -76h-157q38 114 137.5 173.5t231.5 59.5
q82 0 144.5 -36.5zM462 158q55 45 86 119h-364q-3 -13 -3 -28q0 -37 19.5 -68t55 -49.5t79.5 -18.5q72 0 127 45z" />
    <glyph glyph-name="uni04D9" unicode="&#x4d9;" horiz-adv-x="554" 
d="M430.5 500.5q49.5 -27.5 76 -76t26.5 -111.5q0 -92 -36 -167t-102 -118.5t-151 -43.5q-75 0 -126 30t-75.5 79t-24.5 107q0 24 5 52q4 23 11 41h370v14q0 51 -30.5 83t-75.5 32q-42 0 -71 -17.5t-43 -47.5h-135q37 88 105.5 129.5t159.5 41.5q67 0 116.5 -27.5zM334 120
q35 30 53 81h-241q-1 -5 -1 -16q0 -42 29.5 -68.5t74.5 -26.5q50 0 85 30z" />
    <glyph glyph-name="uni04E2" unicode="&#x4e2;" horiz-adv-x="748" 
d="M169 0h-155l139 715h155l-91 -465h2l400 465h154l-139 -715h-154l90 465h-2zM612 787h-278l17 92h278z" />
    <glyph glyph-name="uni04E3" unicode="&#x4e3;" horiz-adv-x="597" 
d="M136 0h-138l101 510h137l-63 -322l288 322h138l-101 -510h-137l64 323zM503 582h-278l17 92h278z" />
    <glyph glyph-name="uni04E8" unicode="&#x4e8;" horiz-adv-x="773" 
d="M624.5 693.5q69.5 -36.5 105.5 -103.5t36 -157q0 -121 -51.5 -223.5t-146 -163.5t-217.5 -61q-96 0 -164.5 36.5t-104.5 103.5t-36 157q0 122 51.5 224.5t145.5 163t216 60.5q96 0 165.5 -36.5zM310.5 550q-60.5 -53 -89.5 -138h390v18q0 80 -39.5 126.5t-117.5 46.5
q-83 0 -143.5 -53zM503.5 165.5q60.5 53.5 87.5 138.5h-390v-19q0 -80 40 -126.5t118 -46.5q84 0 144.5 53.5z" />
    <glyph glyph-name="uni04E9" unicode="&#x4e9;" horiz-adv-x="583" 
d="M502.5 470.5q59.5 -57.5 59.5 -160.5q0 -90 -39.5 -164.5t-110.5 -118t-162 -43.5q-110 0 -170 57.5t-60 159.5q0 91 39.5 165.5t111.5 118t163 43.5q109 0 168.5 -57.5zM231.5 388.5q-38.5 -33.5 -58.5 -87.5h253v7q0 55 -27 84.5t-77 29.5q-52 0 -90.5 -33.5z
M351.5 123q38.5 33 58.5 87h-254v-6q0 -55 27.5 -84.5t77.5 -29.5q52 0 90.5 33z" />
    <glyph glyph-name="uni04EE" unicode="&#x4ee;" horiz-adv-x="660" 
d="M246 0h-164l148 212l-132 503h160l81 -348h2l237 348h162zM565 787h-278l17 92h278z" />
    <glyph glyph-name="uni04EF" unicode="&#x4ef;" horiz-adv-x="533" 
d="M-26 -169l21 107q24 -3 44 -3q34 0 64 14.5t49 56.5l-109 505h140l62 -358h2l186 358h145l-304 -540q-47 -82 -95 -115.5t-124 -33.5q-36 0 -81 9zM462 583h-278l17 92h278z" />
    <glyph glyph-name="uni139A" unicode="&#x139a;" horiz-adv-x="654" 
 />
    <glyph glyph-name="Wgrave" unicode="&#x1e80;" horiz-adv-x="946" 
d="M299 0h-157l-45 715h156l7 -514h2l221 514h151l26 -514h2l204 514h156l-320 -715h-157l-27 494h-2zM615 782h-105l-98 147h156z" />
    <glyph glyph-name="wgrave" unicode="&#x1e81;" horiz-adv-x="776" 
d="M236 0h-136l-46 511h138l18 -342h2l164 342h116l30 -342h3l155 342h142l-250 -511h-135l-32 350h-2zM491 578h-105l-98 147h156z" />
    <glyph glyph-name="Wacute" unicode="&#x1e82;" horiz-adv-x="946" 
d="M299 0h-157l-45 715h156l7 -514h2l221 514h151l26 -514h2l204 514h156l-320 -715h-157l-27 494h-2zM616 782h-104l78 147h156z" />
    <glyph glyph-name="wacute" unicode="&#x1e83;" horiz-adv-x="776" 
d="M236 0h-136l-46 511h138l18 -342h2l164 342h116l30 -342h3l155 342h142l-250 -511h-135l-32 350h-2zM492 578h-104l78 147h156z" />
    <glyph glyph-name="Wdieresis" unicode="&#x1e84;" horiz-adv-x="946" 
d="M299 0h-157l-45 715h156l7 -514h2l221 514h151l26 -514h2l204 514h156l-320 -715h-157l-27 494h-2zM547 787h-142l28 129h142zM740 787h-142l28 129h142z" />
    <glyph glyph-name="wdieresis" unicode="&#x1e85;" horiz-adv-x="776" 
d="M236 0h-136l-46 511h138l18 -342h2l164 342h116l30 -342h3l155 342h142l-250 -511h-135l-32 350h-2zM423 583h-142l28 129h142zM616 583h-142l28 129h142z" />
    <glyph glyph-name="Ygrave" unicode="&#x1ef2;" horiz-adv-x="658" 
d="M356 0h-154l53 272l-162 443h164l96 -318h2l222 318h165l-333 -443zM472 782h-105l-98 147h156z" />
    <glyph glyph-name="ygrave" unicode="&#x1ef3;" horiz-adv-x="533" 
d="M-26 -169l21 107q24 -3 44 -3q34 0 64 14.5t49 56.5l-109 505h140l62 -358h2l186 358h145l-304 -540q-47 -82 -95 -115.5t-124 -33.5q-36 0 -81 9zM364 578h-105l-98 147h156z" />
    <glyph glyph-name="uni2000" unicode="&#x2000;" horiz-adv-x="500" 
 />
    <glyph glyph-name="uni2001" unicode="&#x2001;" horiz-adv-x="1000" 
 />
    <glyph glyph-name="uni2002" unicode="&#x2002;" horiz-adv-x="500" 
 />
    <glyph glyph-name="uni2003" unicode="&#x2003;" horiz-adv-x="1000" 
 />
    <glyph glyph-name="uni2004" unicode="&#x2004;" horiz-adv-x="333" 
 />
    <glyph glyph-name="uni2005" unicode="&#x2005;" horiz-adv-x="250" 
 />
    <glyph glyph-name="uni2006" unicode="&#x2006;" horiz-adv-x="167" 
 />
    <glyph glyph-name="uni2007" unicode="&#x2007;" horiz-adv-x="771" 
 />
    <glyph glyph-name="uni2008" unicode="&#x2008;" horiz-adv-x="216" 
 />
    <glyph glyph-name="uni2009" unicode="&#x2009;" horiz-adv-x="125" 
 />
    <glyph glyph-name="uni200A" unicode="&#x200a;" horiz-adv-x="42" 
 />
    <glyph glyph-name="uni200B" unicode="&#x200b;" horiz-adv-x="0" 
 />
    <glyph glyph-name="endash" unicode="&#x2013;" horiz-adv-x="583" 
d="M529 193h-500l23 121h500z" />
    <glyph glyph-name="emdash" unicode="&#x2014;" horiz-adv-x="1082" 
d="M1028 193h-1000l24 120h1000z" />
    <glyph glyph-name="quoteleft" unicode="&#x2018;" horiz-adv-x="216" 
d="M249 651q-33 -7 -53 -28t-28 -64h64l-27 -136h-136l27 136q12 63 54 104t112 52z" />
    <glyph glyph-name="quoteright" unicode="&#x2019;" horiz-adv-x="211" 
d="M87 488q34 6 55 27.5t30 63.5h-68l27 136h136l-27 -136q-27 -134 -166 -156z" />
    <glyph glyph-name="quotesinglbase" unicode="&#x201a;" horiz-adv-x="220" 
d="M-24 -91q34 6 55 27.5t30 63.5h-68l27 136h136l-27 -136q-27 -134 -166 -156z" />
    <glyph glyph-name="quotedblleft" unicode="&#x201c;" horiz-adv-x="401" 
d="M250 653q-33 -7 -53.5 -28t-28.5 -63h65l-27 -136h-136l27 136q13 63 54 103.5t112 51.5zM435 653q-33 -7 -53.5 -28t-28.5 -63h65l-27 -136h-136l27 136q12 62 53.5 103t112.5 52z" />
    <glyph glyph-name="quotedblright" unicode="&#x201d;" horiz-adv-x="396" 
d="M87 488q34 6 55 27.5t30 63.5h-68l27 136h136l-27 -136q-27 -134 -166 -156zM272 488q34 6 55 27.5t30 63.5h-68l27 136h136l-27 -136q-27 -134 -166 -156z" />
    <glyph glyph-name="quotedblbase" unicode="&#x201e;" horiz-adv-x="405" 
d="M161 -91q34 6 55 27.5t30 63.5h-68l27 136h136l-27 -136q-27 -134 -166 -156zM-24 -91q34 6 55 27.5t30 63.5h-68l27 136h136l-27 -136q-27 -134 -166 -156z" />
    <glyph glyph-name="dagger" unicode="&#x2020;" horiz-adv-x="527" 
d="M253 -177h-147l110 568h-175l23 121h176l39 203h147l-39 -203h175l-24 -121h-175z" />
    <glyph glyph-name="daggerdbl" unicode="&#x2021;" horiz-adv-x="570" 
d="M275 -177h-147l48 248h-175l23 121h176l38 199h-175l23 121h176l39 203h147l-39 -203h175l-24 -121h-175l-38 -199h175l-24 -121h-175z" />
    <glyph glyph-name="bullet" unicode="&#x2022;" horiz-adv-x="406" 
d="M317 166h-263l51 262h262z" />
    <glyph glyph-name="ellipsis" unicode="&#x2026;" horiz-adv-x="631" 
d="M127 0h-136l27 136h136zM334 0h-136l27 136h136zM542 0h-136l27 136h136z" />
    <glyph glyph-name="perthousand" unicode="&#x2030;" horiz-adv-x="1273" 
d="M106 352.5q-42 44.5 -42 121.5q0 61 26.5 114.5t76 85.5t114.5 32q75 0 117.5 -46.5t42.5 -119.5q0 -61 -26.5 -114.5t-75.5 -85.5t-114 -32q-77 0 -119 44.5zM243 0h-100l518 691h99zM300.5 445q23.5 45 23.5 102q0 67 -51 67q-43 0 -67 -45t-24 -102q0 -34 12.5 -50.5
t39.5 -16.5q43 0 66.5 45zM512 29.5q-42 44.5 -42 121.5q0 61 26.5 114.5t75.5 85.5t114 32q75 0 118 -46.5t43 -119.5q0 -61 -26.5 -114.5t-76 -85.5t-114.5 -32q-76 0 -118 44.5zM909 29.5q-42 44.5 -42 121.5q0 61 26.5 114.5t75.5 85.5t114 32q75 0 118 -46.5t43 -119.5
q0 -61 -26.5 -114.5t-76 -85.5t-114.5 -32q-76 0 -118 44.5zM705.5 122q23.5 45 23.5 102q0 67 -50 67q-43 0 -67.5 -45t-24.5 -102q0 -67 52 -67q43 0 66.5 45zM1102.5 122q23.5 45 23.5 102q0 67 -50 67q-43 0 -67.5 -45t-24.5 -102q0 -67 52 -67q43 0 66.5 45z" />
    <glyph glyph-name="guilsinglleft" unicode="&#x2039;" horiz-adv-x="287" 
d="M222 163l-26 -131l-169 156l28 140l229 156l-28 -144l-139 -88v-2z" />
    <glyph glyph-name="guilsinglright" unicode="&#x203a;" horiz-adv-x="286" 
d="M233 188l-229 -156l27 144l139 88l1 2l-105 87l25 131l169 -157z" />
    <glyph glyph-name="fraction" unicode="&#x2044;" horiz-adv-x="229" 
d="M-101 0h-127l592 715h127z" />
    <glyph glyph-name="uni2070" unicode="&#x2070;" horiz-adv-x="418" 
d="M121 404q-39 44 -39 117q0 74 29 134.5t80.5 95.5t115.5 35q76 0 114 -43.5t38 -117.5t-28.5 -134.5t-79.5 -95.5t-114 -35q-77 0 -116 44zM302.5 475.5q24.5 28.5 36.5 69.5t12 80q0 74 -52 74q-35 0 -59.5 -28t-37 -69.5t-12.5 -80.5q0 -74 53 -74q35 0 59.5 28.5z" />
    <glyph glyph-name="uni2074" unicode="&#x2074;" horiz-adv-x="393" 
d="M333 364h-109l16 84h-181l20 102l224 220h109l-45 -235h59l-17 -87h-60zM282 649l-118 -114h94z" />
    <glyph glyph-name="uni2075" unicode="&#x2075;" horiz-adv-x="381" 
d="M104 387q-40 33 -40 84q0 7 2 21h103q-2 -22 11.5 -37t42.5 -15q34 0 53 21t19 52q0 27 -14.5 40.5t-39.5 13.5q-40 0 -58 -27h-102l93 230h264l-17 -87h-189l-28 -68l1 -2q35 21 76 21q55 0 90.5 -30.5t35.5 -87.5q0 -44 -22 -81t-65 -59t-102 -22q-74 0 -114 33z" />
    <glyph glyph-name="uni2076" unicode="&#x2076;" horiz-adv-x="397" 
d="M121 401.5q-38 43.5 -38 116.5q0 75 28 136t78 96t113 35q64 0 102 -32t39 -82h-106q-5 36 -48 36q-32 0 -56 -24t-33 -65l-3 -10l3 -1q15 16 43 27t60 11q57 0 89.5 -31t32.5 -84q0 -47 -23.5 -86t-66.5 -62.5t-99 -23.5q-77 0 -115 43.5zM295.5 462q22.5 22 22.5 53
q0 24 -14 37.5t-40 13.5q-33 0 -55.5 -20t-22.5 -52q0 -24 14.5 -39t39.5 -15q33 0 55.5 22z" />
    <glyph glyph-name="uni2077" unicode="&#x2077;" horiz-adv-x="327" 
d="M94 364q19 96 72.5 185t112.5 133v1h-187l17 87h302l-16 -80q-72 -52 -119.5 -138.5t-67.5 -187.5h-114z" />
    <glyph glyph-name="uni2078" unicode="&#x2078;" horiz-adv-x="381" 
d="M107 387.5q-41 28.5 -41 80.5q0 44 28.5 75t71.5 45v3q-43 24 -43 72q0 36 23 64.5t61.5 44t83.5 15.5q59 0 95.5 -25.5t36.5 -70.5q0 -37 -23.5 -64.5t-53.5 -39.5v-2q28 -15 43 -34t15 -51q0 -63 -54 -102t-135 -39q-67 0 -108 28.5zM311.5 637.5q17.5 16.5 17.5 39.5
q0 18 -12.5 28.5t-36.5 10.5q-32 0 -49.5 -16t-17.5 -40q0 -18 13 -28.5t37 -10.5q31 0 48.5 16.5zM281.5 456.5q21.5 18.5 21.5 46.5q0 21 -14.5 33t-40.5 12q-33 0 -54.5 -18.5t-21.5 -45.5q0 -21 14.5 -33.5t39.5 -12.5q34 0 55.5 18.5z" />
    <glyph glyph-name="uni2079" unicode="&#x2079;" horiz-adv-x="397" 
d="M117.5 390.5q-38.5 31.5 -39.5 82.5h106q5 -36 47 -36q32 0 56 24t34 65l2 10l-2 1q-15 -16 -43 -27t-60 -11q-57 0 -89.5 31t-32.5 86q0 46 23.5 85t66.5 62t99 23q78 0 115.5 -43.5t37.5 -117.5q0 -72 -26.5 -133t-76.5 -97t-115 -36q-64 0 -102.5 31.5zM312 599
q23 21 23 52q0 24 -14.5 38.5t-39.5 14.5q-33 0 -55.5 -22t-22.5 -53q0 -24 13.5 -37.5t39.5 -13.5q33 0 56 21z" />
    <glyph glyph-name="uni2080" unicode="&#x2080;" horiz-adv-x="418" 
d="M30 -65q-39 44 -39 117q0 74 29 134.5t80.5 95.5t115.5 35q76 0 114 -43.5t38 -117.5t-28.5 -134.5t-79.5 -95.5t-114 -35q-77 0 -116 44zM211.5 6.5q24.5 28.5 36.5 69.5t12 80q0 74 -52 74q-35 0 -59.5 -28t-37 -69.5t-12.5 -80.5q0 -74 53 -74q35 0 59.5 28.5z" />
    <glyph glyph-name="uni2081" unicode="&#x2081;" horiz-adv-x="254" 
d="M80 163q-22 -11 -89 -11l17 84q46 0 79.5 18.5t39.5 51.5h94l-79 -406h-113z" />
    <glyph glyph-name="uni2082" unicode="&#x2082;" horiz-adv-x="369" 
d="M-48 -100q7 48 31.5 81.5t52.5 54t77 48.5q45 27 63.5 39.5t31 29.5t12.5 40q0 38 -40 38q-28 0 -45.5 -17.5t-24.5 -58.5h-103q14 77 62 119.5t127 42.5q62 0 97.5 -28t35.5 -78q0 -43 -19 -74.5t-45.5 -52.5t-67.5 -46q-53 -31 -70 -49v-1h161l-17 -88h-319z" />
    <glyph glyph-name="uni2083" unicode="&#x2083;" horiz-adv-x="382" 
d="M14.5 -79q-40.5 31 -40.5 88q0 19 4 36h104q-2 -8 -2 -22q0 -48 55 -48q31 0 48 15t17 41q0 23 -14 32.5t-44 9.5h-22l14 70h24q32 0 48.5 13.5t16.5 37.5q0 37 -43 37q-26 0 -41.5 -14t-19.5 -36h-104q10 61 59 98.5t125 37.5q62 0 99.5 -28.5t37.5 -77.5
q0 -35 -23 -60.5t-59 -36.5v-1q58 -21 58 -80q0 -64 -50 -103.5t-134 -39.5q-73 0 -113.5 31z" />
    <glyph glyph-name="uni2084" unicode="&#x2084;" horiz-adv-x="393" 
d="M243 -100h-109l16 84h-181l20 102l224 220h109l-45 -235h59l-17 -87h-60zM192 185l-118 -114h94z" />
    <glyph glyph-name="uni2085" unicode="&#x2085;" horiz-adv-x="381" 
d="M14 -77q-40 33 -40 84q0 7 2 21h103q-2 -22 11.5 -37t42.5 -15q34 0 53 21t19 52q0 27 -14.5 40.5t-39.5 13.5q-40 0 -58 -27h-102l93 230h264l-17 -87h-189l-28 -68l1 -2q35 21 76 21q55 0 90.5 -30.5t35.5 -87.5q0 -44 -22 -81t-65 -59t-102 -22q-74 0 -114 33z" />
    <glyph glyph-name="uni2086" unicode="&#x2086;" horiz-adv-x="397" 
d="M30 -66.5q-38 43.5 -38 116.5q0 75 28 136t78 96t113 35q64 0 102 -32t39 -82h-106q-5 36 -48 36q-32 0 -56 -24t-33 -65l-3 -10l3 -1q15 16 43 27t60 11q57 0 89.5 -31t32.5 -84q0 -47 -23.5 -86t-66.5 -62.5t-99 -23.5q-77 0 -115 43.5zM204.5 -6q22.5 22 22.5 53
q0 24 -14 37.5t-40 13.5q-33 0 -55.5 -20t-22.5 -52q0 -24 14.5 -39t39.5 -15q33 0 55.5 22z" />
    <glyph glyph-name="uni2087" unicode="&#x2087;" horiz-adv-x="327" 
d="M4 -100q19 96 72.5 185t112.5 133v1h-187l17 87h302l-16 -80q-72 -52 -119.5 -138.5t-67.5 -187.5h-114z" />
    <glyph glyph-name="uni2088" unicode="&#x2088;" horiz-adv-x="381" 
d="M16 -81.5q-41 28.5 -41 80.5q0 44 28.5 75t71.5 45v3q-43 24 -43 72q0 36 23 64.5t61.5 44t83.5 15.5q59 0 95.5 -25.5t36.5 -70.5q0 -37 -23.5 -64.5t-53.5 -39.5v-2q28 -15 43 -34t15 -51q0 -63 -54 -102t-135 -39q-67 0 -108 28.5zM220.5 168.5q17.5 16.5 17.5 39.5
q0 18 -12.5 28.5t-36.5 10.5q-32 0 -49.5 -16t-17.5 -40q0 -18 13 -28.5t37 -10.5q31 0 48.5 16.5zM190.5 -12.5q21.5 18.5 21.5 46.5q0 21 -14.5 33t-40.5 12q-33 0 -54.5 -18.5t-21.5 -45.5q0 -21 14.5 -33.5t39.5 -12.5q34 0 55.5 18.5z" />
    <glyph glyph-name="uni2089" unicode="&#x2089;" horiz-adv-x="397" 
d="M26.5 -78.5q-38.5 31.5 -39.5 82.5h106q5 -36 47 -36q32 0 56 24t34 65l2 10l-2 1q-15 -16 -43 -27t-60 -11q-57 0 -89.5 31t-32.5 86q0 46 23.5 85t66.5 62t99 23q78 0 115.5 -43.5t37.5 -117.5q0 -72 -26.5 -133t-76.5 -97t-115 -36q-64 0 -102.5 31.5zM221 130
q23 21 23 52q0 24 -14.5 38.5t-39.5 14.5q-33 0 -55.5 -22t-22.5 -53q0 -24 13.5 -37.5t39.5 -13.5q33 0 56 21z" />
    <glyph glyph-name="Euro" unicode="&#x20ac;" horiz-adv-x="689" 
d="M542 441q2 20 2 30q0 109 -97 109q-53 0 -97 -41t-71 -111h171l-12 -65h-179q-6 -25 -9 -53h177l-12 -65h-169v-3q0 -66 25.5 -101.5t82.5 -35.5q60 0 96.5 38t54.5 109h148q-31 -124 -112 -195.5t-208 -71.5q-120 0 -177.5 68t-57.5 189v3h-55l12 65h47q4 36 8 53h-44
l12 65h49q42 124 133.5 198t210.5 74q110 0 165.5 -56t55.5 -154q0 -23 -3 -49h-147z" />
    <glyph glyph-name="trademark" unicode="&#x2122;" horiz-adv-x="686" 
d="M218 438h-89l39 199h-77l15 78h243l-15 -78h-77zM413 438h-81l54 277h115l19 -169h2l86 169h115l-54 -277h-83l35 180h-2l-89 -180h-62l-18 180h-2z" />
    <glyph glyph-name="uni2126" unicode="&#x2126;" horiz-adv-x="800" 
d="M-14 0l25 127h163q-53 35 -79 85t-26 121q0 109 54.5 199.5t151 143.5t215.5 53q92 0 158 -32t101 -91t35 -139q0 -102 -53 -195.5t-143 -144.5h151l-25 -127h-309l23 116q92 48 147 134.5t55 185.5q0 84 -41 125.5t-118 41.5q-79 0 -137 -40.5t-88 -107t-30 -144.5
q0 -71 25.5 -116t74.5 -79l-22 -116h-308z" />
    <glyph glyph-name="oneeighth" unicode="&#x215b;" horiz-adv-x="847" 
d="M163 572q-22 -11 -89 -11l17 84q46 0 79.5 18.5t39.5 51.5h94l-79 -406h-113zM166 0h-127l592 715h127zM503 18.5q-41 28.5 -41 80.5q0 44 28.5 75t71.5 45v3q-43 24 -43 72q0 36 23 64.5t61.5 44t83.5 15.5q59 0 95.5 -25.5t36.5 -70.5q0 -37 -23.5 -64.5t-53.5 -39.5
v-2q28 -15 43 -34t15 -51q0 -63 -54 -102t-135 -39q-67 0 -108 28.5zM707.5 268.5q17.5 16.5 17.5 39.5q0 18 -12.5 28.5t-36.5 10.5q-32 0 -49.5 -16t-17.5 -40q0 -18 13 -28.5t37 -10.5q31 0 48.5 16.5zM677.5 87.5q21.5 18.5 21.5 46.5q0 21 -14.5 33t-40.5 12
q-33 0 -54.5 -18.5t-21.5 -45.5q0 -21 14.5 -33.5t39.5 -12.5q34 0 55.5 18.5z" />
    <glyph glyph-name="threeeighths" unicode="&#x215c;" horiz-adv-x="956" 
d="M100.5 330q-40.5 31 -40.5 88q0 19 4 36h104q-2 -8 -2 -22q0 -48 55 -48q31 0 48 15t17 41q0 23 -14 32.5t-44 9.5h-22l14 70h24q32 0 48.5 13.5t16.5 37.5q0 37 -43 37q-26 0 -41.5 -14t-19.5 -36h-104q10 61 59 98.5t125 37.5q62 0 99.5 -28.5t37.5 -77.5
q0 -35 -23 -60.5t-59 -36.5v-1q58 -21 58 -80q0 -64 -50 -103.5t-134 -39.5q-73 0 -113.5 31zM279 0h-127l592 715h127zM610 18.5q-41 28.5 -41 80.5q0 44 28.5 75t71.5 45v3q-43 24 -43 72q0 36 23 64.5t61.5 44t83.5 15.5q59 0 95.5 -25.5t36.5 -70.5q0 -37 -23.5 -64.5
t-53.5 -39.5v-2q28 -15 43 -34t15 -51q0 -63 -54 -102t-135 -39q-67 0 -108 28.5zM814.5 268.5q17.5 16.5 17.5 39.5q0 18 -12.5 28.5t-36.5 10.5q-32 0 -49.5 -16t-17.5 -40q0 -18 13 -28.5t37 -10.5q31 0 48.5 16.5zM784.5 87.5q21.5 18.5 21.5 46.5q0 21 -14.5 33
t-40.5 12q-33 0 -54.5 -18.5t-21.5 -45.5q0 -21 14.5 -33.5t39.5 -12.5q34 0 55.5 18.5z" />
    <glyph glyph-name="fiveeighths" unicode="&#x215d;" horiz-adv-x="934" 
d="M91 332q-40 33 -40 84q0 7 2 21h103q-2 -22 11.5 -37t42.5 -15q34 0 53 21t19 52q0 27 -14.5 40.5t-39.5 13.5q-40 0 -58 -27h-102l93 230h264l-17 -87h-189l-28 -68l1 -2q35 21 76 21q55 0 90.5 -30.5t35.5 -87.5q0 -44 -22 -81t-65 -59t-102 -22q-74 0 -114 33zM265 0
h-127l592 715h127zM589 18.5q-41 28.5 -41 80.5q0 44 28.5 75t71.5 45v3q-43 24 -43 72q0 36 23 64.5t61.5 44t83.5 15.5q59 0 95.5 -25.5t36.5 -70.5q0 -37 -23.5 -64.5t-53.5 -39.5v-2q28 -15 43 -34t15 -51q0 -63 -54 -102t-135 -39q-67 0 -108 28.5zM793.5 268.5
q17.5 16.5 17.5 39.5q0 18 -12.5 28.5t-36.5 10.5q-32 0 -49.5 -16t-17.5 -40q0 -18 13 -28.5t37 -10.5q31 0 48.5 16.5zM763.5 87.5q21.5 18.5 21.5 46.5q0 21 -14.5 33t-40.5 12q-33 0 -54.5 -18.5t-21.5 -45.5q0 -21 14.5 -33.5t39.5 -12.5q34 0 55.5 18.5z" />
    <glyph glyph-name="seveneighths" unicode="&#x215e;" horiz-adv-x="859" 
d="M87 309q19 96 72.5 185t112.5 133v1h-187l17 87h302l-16 -80q-72 -52 -119.5 -138.5t-67.5 -187.5h-114zM178 0h-127l592 715h127zM515 18.5q-41 28.5 -41 80.5q0 44 28.5 75t71.5 45v3q-43 24 -43 72q0 36 23 64.5t61.5 44t83.5 15.5q59 0 95.5 -25.5t36.5 -70.5
q0 -37 -23.5 -64.5t-53.5 -39.5v-2q28 -15 43 -34t15 -51q0 -63 -54 -102t-135 -39q-67 0 -108 28.5zM719.5 268.5q17.5 16.5 17.5 39.5q0 18 -12.5 28.5t-36.5 10.5q-32 0 -49.5 -16t-17.5 -40q0 -18 13 -28.5t37 -10.5q31 0 48.5 16.5zM689.5 87.5q21.5 18.5 21.5 46.5
q0 21 -14.5 33t-40.5 12q-33 0 -54.5 -18.5t-21.5 -45.5q0 -21 14.5 -33.5t39.5 -12.5q34 0 55.5 18.5z" />
    <glyph glyph-name="arrowleft" unicode="&#x2190;" horiz-adv-x="774" 
d="M353 92l-84 -71l-218 299l334 298l57 -70l-198 -175h508l-21 -106h-508z" />
    <glyph glyph-name="arrowup" unicode="&#x2191;" horiz-adv-x="646" 
d="M324 0h-105l99 508l-207 -164l-57 71l352 276l245 -276l-84 -71l-143 164z" />
    <glyph glyph-name="arrowright" unicode="&#x2192;" horiz-adv-x="774" 
d="M747 320l-335 -299l-56 71l198 175h-508l21 106h508l-130 175l84 70z" />
    <glyph glyph-name="arrowdown" unicode="&#x2193;" horiz-adv-x="647" 
d="M619 236l-353 -276l-244 276l84 71l143 -164l99 508h106l-99 -508l207 164z" />
    <glyph glyph-name="arrowboth" unicode="&#x2194;" horiz-adv-x="1151" 
d="M350 92l-84 -72l-219 299l334 299l58 -70l-199 -175h715l-129 175l83 70l218 -298l-333 -299l-57 71l199 175h-716z" />
    <glyph glyph-name="arrowupdn" unicode="&#x2195;" horiz-adv-x="639" 
d="M588 99l-353 -276l-245 276l84 71l144 -164l116 597l-207 -164l-57 71l352 276l246 -276l-84 -71l-144 164l-116 -597l207 164z" />
    <glyph glyph-name="uni2196" unicode="&#x2196;" horiz-adv-x="606" 
d="M558 145l-89 -75l-286 359l-47 -238l-96 -1l79 407h407l-19 -93h-242z" />
    <glyph glyph-name="uni2197" unicode="&#x2197;" horiz-adv-x="606" 
d="M490 429l-426 -359l-60 75l433 359h-242l17 93h407l-79 -407l-96 1z" />
    <glyph glyph-name="uni2198" unicode="&#x2198;" horiz-adv-x="605" 
d="M510 47h-407l20 93h242l-294 359l89 75l287 -359l47 238l95 1z" />
    <glyph glyph-name="uni2199" unicode="&#x2199;" horiz-adv-x="605" 
d="M420 47h-407l79 407l95 -1l-46 -238l426 359l60 -75l-433 -359h242z" />
    <glyph glyph-name="partialdiff" unicode="&#x2202;" horiz-adv-x="579" 
d="M71.5 36.5q-55.5 51.5 -55.5 145.5q0 78 35.5 144.5t96.5 105.5t133 39q57 0 92.5 -21.5t55.5 -61.5q-1 104 -52 153.5t-147 55.5l23 118q313 -14 313 -308q0 -114 -45 -211t-123.5 -154t-176.5 -57q-94 0 -149.5 51.5zM319 119.5q37 24.5 59 64.5t22 85q0 42 -21.5 66.5
t-63.5 24.5q-43 0 -79.5 -24t-58 -63.5t-21.5 -84.5q0 -44 21.5 -68.5t62.5 -24.5q42 0 79 24.5z" />
    <glyph glyph-name="emptyset" unicode="&#x2205;" horiz-adv-x="829" 
d="M837 647l-77 -64q47 -72 47 -168q0 -112 -61 -211.5t-164 -159t-221 -59.5q-67 0 -123.5 20t-97.5 58l-78 -65l-37 46l77 64q-47 71 -47 167q0 113 61.5 212t164.5 159t221 60q67 0 123 -20t97 -58l78 65zM152 150l520 436q-64 56 -174 56q-105 0 -191.5 -49.5
t-136.5 -133t-50 -180.5q0 -76 32 -129zM710 540l-520 -435q64 -56 174 -56q105 0 191.5 49.5t136 132.5t49.5 180q0 75 -31 129z" />
    <glyph glyph-name="uni2206" unicode="&#x2206;" horiz-adv-x="670" 
d="M338 715h171l116 -588l-24 -127h-630l24 127zM400 573h-8l-252 -449h338z" />
    <glyph glyph-name="product" unicode="&#x220f;" horiz-adv-x="727" 
d="M142 -100h-147l158 815h598l-158 -815h-147l135 694h-303z" />
    <glyph glyph-name="summation" unicode="&#x2211;" horiz-adv-x="605" 
d="M508 -100h-546l23 124l317 291v2l-206 275l24 123h536l-23 -121h-364l-1 -2l183 -241l-12 -64l-288 -264v-2h381z" />
    <glyph glyph-name="minus" unicode="&#x2212;" horiz-adv-x="571" 
d="M526 267h-477l23 122h477z" />
    <glyph glyph-name="uni2219" unicode="&#x2219;" horiz-adv-x="330" 
d="M236 278h-136l27 136h136z" />
    <glyph glyph-name="radical" unicode="&#x221a;" horiz-adv-x="671" 
d="M309 -100h-137l-60 329h-76l24 121h168l45 -274h2l315 639h149z" />
    <glyph glyph-name="infinity" unicode="&#x221e;" horiz-adv-x="756" 
d="M83.5 158q-37.5 36 -37.5 108q0 58 27.5 109t74.5 81.5t103 30.5q52 0 89 -27t61 -68h2q44 43 90.5 69t99.5 26q59 0 96.5 -35t37.5 -106q0 -59 -27.5 -110.5t-74 -82.5t-100.5 -31q-53 0 -87.5 28t-64.5 75h-2q-50 -47 -95 -75t-98 -28q-57 0 -94.5 36zM253 235.5
q22 11.5 37 25t46 44.5q-24 40 -44 60.5t-52 20.5q-37 0 -63 -29.5t-26 -71.5q0 -29 14 -45t42 -16q24 0 46 11.5zM597.5 254q25.5 30 25.5 71q0 28 -14.5 44.5t-42.5 16.5q-34 0 -61 -20t-68 -61q23 -39 43.5 -60t54.5 -21q37 0 62.5 30z" />
    <glyph glyph-name="integral" unicode="&#x222b;" horiz-adv-x="396" 
d="M-67 -166l21 108q15 -5 36 -5q36 0 58.5 23t31.5 71l104 535q33 174 190 174q59 0 99 -10l-21 -108q-16 5 -37 5q-71 0 -90 -94l-104 -535q-18 -88 -63.5 -131t-126.5 -43q-58 0 -98 10z" />
    <glyph glyph-name="approxequal" unicode="&#x2248;" horiz-adv-x="578" 
d="M64 327q31 158 148 158q25 0 53 -6t70 -17q27 -8 53 -13.5t43 -5.5q47 0 54 45h92q-32 -158 -149 -158q-25 0 -52 6t-70 17q-70 19 -97 19q-45 0 -54 -45h-91zM25 129q30 157 148 157q25 0 53 -6t70 -17q27 -8 53 -13.5t43 -5.5q47 0 54 45h92q-31 -158 -148 -158
q-41 0 -123 24q-27 8 -53 13.5t-43 5.5q-46 0 -55 -45h-91z" />
    <glyph glyph-name="notequal" unicode="&#x2260;" horiz-adv-x="560" 
d="M558 485l-23 -122h-172l-46 -70h202l-22 -121h-261l-58 -87h-91l58 87h-112l23 121h170l46 70h-201l23 122h259l59 88h91l-59 -88h114z" />
    <glyph glyph-name="lessequal" unicode="&#x2264;" horiz-adv-x="497" 
d="M448 243l-24 -120l-382 146l26 133l439 145l-24 -122l-312 -90l-1 -2zM401 0h-411l20 106h411z" />
    <glyph glyph-name="greaterequal" unicode="&#x2265;" horiz-adv-x="495" 
d="M460 269l-439 -146l24 123l312 90l1 2l-278 90l23 119l383 -145zM408 0h-411l21 106h410z" />
    <glyph glyph-name="uni2266" unicode="&#x2266;" horiz-adv-x="560" 
d="M590 694l-23 -115l-344 -103v-2l304 -102l-21 -112h-1l-19 -103h-457l21 106h448l-419 151l24 124zM455 0h-456l21 106h456z" />
    <glyph glyph-name="uni2267" unicode="&#x2267;" horiz-adv-x="557" 
d="M139 694l426 -156l-24 -124l-468 -151h438l-20 -106h-456l20 106l21 109l345 102l1 2l-305 103zM461 0h-457l21 106h457z" />
    <glyph glyph-name="uni2460" unicode="&#x2460;" horiz-adv-x="844" 
d="M212 21.5q-73 36.5 -113 107.5t-40 171q0 120 56 221.5t157 161.5t229 60q98 0 171.5 -36.5t113.5 -108t40 -171.5q0 -120 -56.5 -221t-157.5 -161t-229 -60q-98 0 -171 36.5zM569 121.5q76 49.5 116.5 130.5t40.5 173q0 114 -62 172t-170 58q-103 0 -179 -49.5
t-116 -130.5t-40 -173q0 -115 61.5 -172.5t169.5 -57.5q103 0 179 49.5zM413 427q-22 -11 -89 -11l17 84q46 0 79.5 18.5t39.5 51.5h94l-79 -406h-113z" />
    <glyph glyph-name="uni2461" unicode="&#x2461;" horiz-adv-x="844" 
d="M212 21.5q-73 36.5 -113 107.5t-40 171q0 120 56 221.5t157 161.5t229 60q98 0 171.5 -36.5t113.5 -108t40 -171.5q0 -120 -56.5 -221t-157.5 -161t-229 -60q-98 0 -171 36.5zM569 121.5q76 49.5 116.5 130.5t40.5 173q0 114 -62 172t-170 58q-103 0 -179 -49.5
t-116 -130.5t-40 -173q0 -115 61.5 -172.5t169.5 -57.5q103 0 179 49.5zM252 163q7 48 31.5 81.5t52.5 54t77 48.5q45 27 63.5 39.5t31 29.5t12.5 40q0 38 -40 38q-28 0 -45.5 -17.5t-24.5 -58.5h-103q14 77 62 119.5t127 42.5q62 0 97.5 -28t35.5 -78q0 -43 -19 -74.5
t-45.5 -52.5t-67.5 -46q-53 -31 -70 -49v-1h161l-17 -88h-319z" />
    <glyph glyph-name="uni2462" unicode="&#x2462;" horiz-adv-x="844" 
d="M212 21.5q-73 36.5 -113 107.5t-40 171q0 120 56 221.5t157 161.5t229 60q98 0 171.5 -36.5t113.5 -108t40 -171.5q0 -120 -56.5 -221t-157.5 -161t-229 -60q-98 0 -171 36.5zM569 121.5q76 49.5 116.5 130.5t40.5 173q0 114 -62 172t-170 58q-103 0 -179 -49.5
t-116 -130.5t-40 -173q0 -115 61.5 -172.5t169.5 -57.5q103 0 179 49.5zM301.5 183q-40.5 31 -40.5 88q0 19 4 36h104q-2 -8 -2 -22q0 -48 55 -48q31 0 48 15t17 41q0 23 -14 32.5t-44 9.5h-22l14 70h24q32 0 48.5 13.5t16.5 37.5q0 37 -43 37q-26 0 -41.5 -14t-19.5 -36
h-104q10 61 59 98.5t125 37.5q62 0 99.5 -28.5t37.5 -77.5q0 -35 -23 -60.5t-59 -36.5v-1q58 -21 58 -80q0 -64 -50 -103.5t-134 -39.5q-73 0 -113.5 31z" />
    <glyph glyph-name="uni2463" unicode="&#x2463;" horiz-adv-x="844" 
d="M212 21.5q-73 36.5 -113 107.5t-40 171q0 120 56 221.5t157 161.5t229 60q98 0 171.5 -36.5t113.5 -108t40 -171.5q0 -120 -56.5 -221t-157.5 -161t-229 -60q-98 0 -171 36.5zM569 121.5q76 49.5 116.5 130.5t40.5 173q0 114 -62 172t-170 58q-103 0 -179 -49.5
t-116 -130.5t-40 -173q0 -115 61.5 -172.5t169.5 -57.5q103 0 179 49.5zM513 163h-109l16 84h-181l20 102l224 220h109l-45 -235h59l-17 -87h-60zM462 448l-118 -114h94z" />
    <glyph glyph-name="uni2464" unicode="&#x2464;" horiz-adv-x="844" 
d="M212 21.5q-73 36.5 -113 107.5t-40 171q0 120 56 221.5t157 161.5t229 60q98 0 171.5 -36.5t113.5 -108t40 -171.5q0 -120 -56.5 -221t-157.5 -161t-229 -60q-98 0 -171 36.5zM569 121.5q76 49.5 116.5 130.5t40.5 173q0 114 -62 172t-170 58q-103 0 -179 -49.5
t-116 -130.5t-40 -173q0 -115 61.5 -172.5t169.5 -57.5q103 0 179 49.5zM295 185q-40 33 -40 84q0 7 2 21h103q-2 -22 11.5 -37t42.5 -15q34 0 53 21t19 52q0 27 -14.5 40.5t-39.5 13.5q-40 0 -58 -27h-102l93 230h264l-17 -87h-189l-28 -68l1 -2q35 21 76 21
q55 0 90.5 -30.5t35.5 -87.5q0 -44 -22 -81t-65 -59t-102 -22q-74 0 -114 33z" />
    <glyph glyph-name="uni2465" unicode="&#x2465;" horiz-adv-x="844" 
d="M212 21.5q-73 36.5 -113 107.5t-40 171q0 120 56 221.5t157 161.5t229 60q98 0 171.5 -36.5t113.5 -108t40 -171.5q0 -120 -56.5 -221t-157.5 -161t-229 -60q-98 0 -171 36.5zM569 121.5q76 49.5 116.5 130.5t40.5 173q0 114 -62 172t-170 58q-103 0 -179 -49.5
t-116 -130.5t-40 -173q0 -115 61.5 -172.5t169.5 -57.5q103 0 179 49.5zM301 194.5q-38 43.5 -38 116.5q0 75 28 136t78 96t113 35q64 0 102 -32t39 -82h-106q-5 36 -48 36q-32 0 -56 -24t-33 -65l-3 -10l3 -1q15 16 43 27t60 11q57 0 89.5 -31t32.5 -84q0 -47 -23.5 -86
t-66.5 -62.5t-99 -23.5q-77 0 -115 43.5zM475.5 255q22.5 22 22.5 53q0 24 -14 37.5t-40 13.5q-33 0 -55.5 -20t-22.5 -52q0 -24 14.5 -39t39.5 -15q33 0 55.5 22z" />
    <glyph glyph-name="uni2466" unicode="&#x2466;" horiz-adv-x="844" 
d="M212 21.5q-73 36.5 -113 107.5t-40 171q0 120 56 221.5t157 161.5t229 60q98 0 171.5 -36.5t113.5 -108t40 -171.5q0 -120 -56.5 -221t-157.5 -161t-229 -60q-98 0 -171 36.5zM569 121.5q76 49.5 116.5 130.5t40.5 173q0 114 -62 172t-170 58q-103 0 -179 -49.5
t-116 -130.5t-40 -173q0 -115 61.5 -172.5t169.5 -57.5q103 0 179 49.5zM313 159q19 96 72.5 185t112.5 133v1h-187l17 87h302l-16 -80q-72 -52 -119.5 -138.5t-67.5 -187.5h-114z" />
    <glyph glyph-name="uni2467" unicode="&#x2467;" horiz-adv-x="844" 
d="M212 21.5q-73 36.5 -113 107.5t-40 171q0 120 56 221.5t157 161.5t229 60q98 0 171.5 -36.5t113.5 -108t40 -171.5q0 -120 -56.5 -221t-157.5 -161t-229 -60q-98 0 -171 36.5zM569 121.5q76 49.5 116.5 130.5t40.5 173q0 114 -62 172t-170 58q-103 0 -179 -49.5
t-116 -130.5t-40 -173q0 -115 61.5 -172.5t169.5 -57.5q103 0 179 49.5zM301 180.5q-41 28.5 -41 80.5q0 44 28.5 75t71.5 45v3q-43 24 -43 72q0 36 23 64.5t61.5 44t83.5 15.5q59 0 95.5 -25.5t36.5 -70.5q0 -37 -23.5 -64.5t-53.5 -39.5v-2q28 -15 43 -34t15 -51
q0 -63 -54 -102t-135 -39q-67 0 -108 28.5zM505.5 430.5q17.5 16.5 17.5 39.5q0 18 -12.5 28.5t-36.5 10.5q-32 0 -49.5 -16t-17.5 -40q0 -18 13 -28.5t37 -10.5q31 0 48.5 16.5zM475.5 249.5q21.5 18.5 21.5 46.5q0 21 -14.5 33t-40.5 12q-33 0 -54.5 -18.5t-21.5 -45.5
q0 -21 14.5 -33.5t39.5 -12.5q34 0 55.5 18.5z" />
    <glyph glyph-name="uni2468" unicode="&#x2468;" horiz-adv-x="844" 
d="M212 21.5q-73 36.5 -113 107.5t-40 171q0 120 56 221.5t157 161.5t229 60q98 0 171.5 -36.5t113.5 -108t40 -171.5q0 -120 -56.5 -221t-157.5 -161t-229 -60q-98 0 -171 36.5zM569 121.5q76 49.5 116.5 130.5t40.5 173q0 114 -62 172t-170 58q-103 0 -179 -49.5
t-116 -130.5t-40 -173q0 -115 61.5 -172.5t169.5 -57.5q103 0 179 49.5zM301.5 182.5q-38.5 31.5 -39.5 82.5h106q5 -36 47 -36q32 0 56 24t34 65l2 10l-2 1q-15 -16 -43 -27t-60 -11q-57 0 -89.5 31t-32.5 86q0 46 23.5 85t66.5 62t99 23q78 0 115.5 -43.5t37.5 -117.5
q0 -72 -26.5 -133t-76.5 -97t-115 -36q-64 0 -102.5 31.5zM496 391q23 21 23 52q0 24 -14.5 38.5t-39.5 14.5q-33 0 -55.5 -22t-22.5 -53q0 -24 13.5 -37.5t39.5 -13.5q33 0 56 21z" />
    <glyph glyph-name="uni24EA" unicode="&#x24ea;" horiz-adv-x="844" 
d="M212 21.5q-73 36.5 -113 107.5t-40 171q0 120 56 221.5t157 161.5t229 60q98 0 171.5 -36.5t113.5 -108t40 -171.5q0 -120 -56.5 -221t-157.5 -161t-229 -60q-98 0 -171 36.5zM569 121.5q76 49.5 116.5 130.5t40.5 173q0 114 -62 172t-170 58q-103 0 -179 -49.5
t-116 -130.5t-40 -173q0 -115 61.5 -172.5t169.5 -57.5q103 0 179 49.5zM293 197q-39 44 -39 117q0 74 29 134.5t80.5 95.5t115.5 35q76 0 114 -43.5t38 -117.5t-28.5 -134.5t-79.5 -95.5t-114 -35q-77 0 -116 44zM474.5 268.5q24.5 28.5 36.5 69.5t12 80q0 74 -52 74
q-35 0 -59.5 -28t-37 -69.5t-12.5 -80.5q0 -74 53 -74q35 0 59.5 28.5z" />
    <glyph glyph-name="upblock" unicode="&#x2580;" horiz-adv-x="824" 
d="M788 357h-715l70 358h715z" />
    <glyph glyph-name="dnblock" unicode="&#x2584;" horiz-adv-x="826" 
d="M721 0h-715l70 358h715z" />
    <glyph glyph-name="block" unicode="&#x2588;" horiz-adv-x="844" 
d="M729 0h-715l139 715h715z" />
    <glyph glyph-name="filledbox" unicode="&#x25a0;" horiz-adv-x="844" 
d="M729 0h-715l139 715h715z" />
    <glyph glyph-name="uni25A1" unicode="&#x25a1;" horiz-adv-x="844" 
d="M729 0h-715l139 715h715zM241 606l-97 -497h498l97 497h-498z" />
    <glyph glyph-name="uni25AA" unicode="&#x25aa;" horiz-adv-x="367" 
d="M302 189h-263l51 262h262z" />
    <glyph glyph-name="uni25AB" unicode="&#x25ab;" horiz-adv-x="407" 
d="M337 169h-303l59 302h303zM180 363l-16 -86h85l17 86h-86z" />
    <glyph glyph-name="triagup" unicode="&#x25b2;" horiz-adv-x="828" 
d="M765 0h-800l539 715z" />
    <glyph glyph-name="triagrt" unicode="&#x25ba;" horiz-adv-x="823" 
d="M811 357l-792 -400l155 800z" />
    <glyph glyph-name="triagdn" unicode="&#x25bc;" horiz-adv-x="828" 
d="M903 715l-539 -715l-261 715h800z" />
    <glyph glyph-name="triaglf" unicode="&#x25c4;" horiz-adv-x="822" 
d="M843 757l-156 -800l-637 400z" />
    <glyph glyph-name="lozenge" unicode="&#x25ca;" horiz-adv-x="615" 
d="M328 0h-140l-133 357l271 358h141l132 -358zM202 358l79 -237h2l169 235l-79 238h-2z" />
    <glyph glyph-name="circle" unicode="&#x25cb;" horiz-adv-x="844" 
d="M212 21.5q-73 36.5 -113 107.5t-40 171q0 120 56 221.5t157 161.5t229 60q98 0 171.5 -36.5t113.5 -108t40 -171.5q0 -120 -56.5 -221t-157.5 -161t-229 -60q-98 0 -171 36.5zM569 121.5q76 49.5 116.5 130.5t40.5 173q0 114 -62 172t-170 58q-103 0 -179 -49.5
t-116 -130.5t-40 -173q0 -115 61.5 -172.5t169.5 -57.5q103 0 179 49.5z" />
    <glyph glyph-name="uni25CF" unicode="&#x25cf;" horiz-adv-x="832" 
d="M203.5 24q-70.5 39 -109.5 107.5t-39 153.5q0 113 64.5 216t169 166t219.5 63q89 0 159 -39.5t109 -108t39 -153.5q0 -113 -64 -215.5t-168.5 -165.5t-218.5 -63q-90 0 -160.5 39z" />
    <glyph glyph-name="uni2B0E" unicode="&#x2b0e;" horiz-adv-x="688" 
d="M394 170l206 163l57 -70l-353 -277l-244 277l84 70l141 -163l48 243h-283l18 99h393z" />
    <glyph glyph-name="uni2B0F" unicode="&#x2b0f;" horiz-adv-x="695" 
d="M63 249l352 277l245 -277l-84 -70l-142 163l-67 -342h-393l21 99h283l47 243l-205 -163z" />
    <glyph glyph-name="uni2B10" unicode="&#x2b10;" horiz-adv-x="693" 
d="M717 508l-20 -99h-283l-47 -243l205 163l57 -70l-352 -277l-246 277l85 70l142 -163l67 342h392z" />
    <glyph glyph-name="uni2B11" unicode="&#x2b11;" horiz-adv-x="691" 
d="M404 341l-48 -243h283l-18 -99h-393l67 342l-206 -163l-57 71l353 276l244 -276l-84 -71z" />
    <glyph glyph-name="uni2BA0" unicode="&#x2ba0;" horiz-adv-x="612" 
d="M625 591l-58 -295l-18 -98h-342l129 -174l-84 -70l-219 298l335 299l56 -71l-197 -173h244l55 284h99z" />
    <glyph glyph-name="uni2BA1" unicode="&#x2ba1;" horiz-adv-x="611" 
d="M274 481l83 71l219 -299l-335 -298l-56 70l196 174h-342l18 93l59 300h99l-56 -285h243z" />
    <glyph glyph-name="uni2BA2" unicode="&#x2ba2;" horiz-adv-x="611" 
d="M231 321h342l-22 -109l-55 -284h-98l55 284h-244l130 -173l-84 -71l-219 299l335 298l57 -70z" />
    <glyph glyph-name="uni2BA3" unicode="&#x2ba3;" horiz-adv-x="611" 
d="M276 495l84 70l218 -298l-335 -299l-56 71l197 173h-243l-56 -284h-98l58 300l18 93h342z" />
    <glyph glyph-name="uni2BA4" unicode="&#x2ba4;" horiz-adv-x="688" 
d="M401 340l-47 -243h283l-18 -99h-393l67 342l-207 -163l-56 70l353 277l244 -277l-84 -70z" />
    <glyph glyph-name="uni2BA5" unicode="&#x2ba5;" horiz-adv-x="695" 
d="M63 249l352 277l245 -277l-84 -70l-142 163l-67 -342h-393l21 99h283l47 243l-205 -163z" />
    <glyph glyph-name="uni2BA6" unicode="&#x2ba6;" horiz-adv-x="693" 
d="M717 508l-20 -99h-283l-47 -243l205 163l57 -70l-352 -277l-246 277l85 70l142 -163l67 342h392z" />
    <glyph glyph-name="uni2BA7" unicode="&#x2ba7;" horiz-adv-x="688" 
d="M394 170l206 163l57 -70l-353 -277l-244 277l84 70l141 -163l48 243h-283l18 99h393z" />
    <glyph glyph-name="fi" unicode="&#xfb01;" horiz-adv-x="562" 
d="M303.5 600q-13.5 -17 -21.5 -60l-6 -29h92l-21 -105h-91l-79 -406h-138l79 406h-69l21 105h69l9 46q18 90 59 128t117 38q39 0 83 -9l-20 -101q-20 4 -36 4q-34 0 -47.5 -17zM463 0h-137l100 511h137zM579 583h-142l25 129h142z" />
    <glyph glyph-name="fl" unicode="&#xfb02;" horiz-adv-x="562" 
d="M303.5 600q-13.5 -17 -21.5 -60l-6 -29h92l-21 -105h-91l-79 -406h-138l79 406h-69l21 105h69l9 46q18 90 59 128t117 38q39 0 83 -9l-20 -101q-20 4 -36 4q-34 0 -47.5 -17zM464 0h-137l139 715h137z" />
    <glyph glyph-name="uniFEFF" unicode="&#xfeff;" horiz-adv-x="0" 
 />
    <glyph glyph-name="u1F150" unicode="&#x1f150;" horiz-adv-x="579" 
d="M188.5 281.5q-44.5 24.5 -69.5 68t-25 98.5q0 79 37.5 144t103.5 102t147 37q56 0 101 -24.5t70 -68t25 -98.5q0 -79 -37.5 -144t-103.5 -102t-147 -37q-57 0 -101.5 24.5z" />
    <glyph glyph-name="Adieresis.ss02" horiz-adv-x="689" 
d="M112 0h-160l400 715h160l128 -715h-161l-20 158h-265zM407 573l-152 -295h191l-37 295h-2zM314.5 797.5q-14.5 14.5 -14.5 38.5q0 33 24 58.5t60 25.5q27 0 41.5 -15t14.5 -39q0 -34 -23.5 -58.5t-59.5 -24.5q-28 0 -42.5 14.5zM498.5 797.5q-14.5 14.5 -14.5 38.5
q0 33 24 58.5t60 25.5q27 0 41.5 -15t14.5 -39q0 -34 -23.5 -58.5t-59.5 -24.5q-28 0 -42.5 14.5z" />
    <glyph glyph-name="Cdotaccent.ss02" horiz-adv-x="716" 
d="M118.5 62q-72.5 77 -72.5 216q0 123 54 226.5t149 164.5t214 61q87 0 147.5 -30.5t91 -85t30.5 -124.5q0 -10 -2 -32h-157q2 68 -29 106.5t-98 38.5q-75 0 -131.5 -44.5t-86.5 -118t-30 -156.5q0 -85 32.5 -128.5t107.5 -43.5q148 0 198 153h158q-37 -126 -134 -203
t-237 -77q-132 0 -204.5 77zM440 793.5q-15 15.5 -15 39.5q0 35 24.5 61t61.5 26q29 0 44 -16t15 -41q0 -34 -24 -59.5t-62 -25.5q-29 0 -44 15.5z" />
    <glyph glyph-name="Edieresis.ss02" horiz-adv-x="634" 
d="M551 0h-537l139 715h529l-25 -128h-375l-29 -155h325l-26 -128h-324l-34 -176h382zM297.5 797.5q-14.5 14.5 -14.5 38.5q0 33 24 58.5t60 25.5q27 0 41.5 -15t14.5 -39q0 -34 -23.5 -58.5t-59.5 -24.5q-28 0 -42.5 14.5zM481.5 797.5q-14.5 14.5 -14.5 38.5q0 33 24 58.5
t60 25.5q27 0 41.5 -15t14.5 -39q0 -34 -23.5 -58.5t-59.5 -24.5q-28 0 -42.5 14.5z" />
    <glyph glyph-name="Edotaccent.ss02" horiz-adv-x="634" 
d="M551 0h-537l139 715h529l-25 -128h-375l-29 -155h325l-26 -128h-324l-34 -176h382zM387 793.5q-15 15.5 -15 39.5q0 35 24.5 61t61.5 26q29 0 44 -16t15 -41q0 -34 -24 -59.5t-62 -25.5q-29 0 -44 15.5z" />
    <glyph glyph-name="uni0122.ss02" horiz-adv-x="748" 
d="M112 61.5q-68 76.5 -68 207.5q0 127 55 232.5t151 167t214 61.5q93 0 155.5 -33t91.5 -89t25 -124h-158q-2 53 -33 86t-102 33t-127 -43t-88 -118.5t-32 -167.5q0 -162 147 -162q74 0 131.5 42t72.5 108h-164l22 116h322l-73 -378h-109l-3 94h-2q-85 -109 -234 -109
q-126 0 -194 76.5zM201 -222q81 12 91 55q-8 -2 -22 -2q-25 0 -40.5 12.5t-15.5 35.5q0 34 25 55t62 21q31 0 47.5 -17t16.5 -46q0 -16 -2 -24q-11 -53 -54.5 -91t-116.5 -47z" />
    <glyph glyph-name="Gdotaccent.ss02" horiz-adv-x="748" 
d="M112 61.5q-68 76.5 -68 207.5q0 127 55 232.5t151 167t214 61.5q93 0 155.5 -33t91.5 -89t25 -124h-158q-2 53 -33 86t-102 33t-127 -43t-88 -118.5t-32 -167.5q0 -162 147 -162q74 0 131.5 42t72.5 108h-164l22 116h322l-73 -378h-109l-3 94h-2q-85 -109 -234 -109
q-126 0 -194 76.5zM432 793.5q-15 15.5 -15 39.5q0 35 24.5 61t61.5 26q29 0 44 -16t15 -41q0 -34 -24 -59.5t-62 -25.5q-29 0 -44 15.5z" />
    <glyph glyph-name="Idieresis.ss02" horiz-adv-x="283" 
d="M169 0h-155l139 715h155zM109.5 797.5q-14.5 14.5 -14.5 38.5q0 33 24 58.5t60 25.5q27 0 41.5 -15t14.5 -39q0 -34 -23.5 -58.5t-59.5 -24.5q-28 0 -42.5 14.5zM293.5 797.5q-14.5 14.5 -14.5 38.5q0 33 24 58.5t60 25.5q27 0 41.5 -15t14.5 -39q0 -34 -23.5 -58.5
t-59.5 -24.5q-28 0 -42.5 14.5z" />
    <glyph glyph-name="Idotaccent.ss02" horiz-adv-x="283" 
d="M169 0h-155l139 715h155zM199 793.5q-15 15.5 -15 39.5q0 35 24.5 61t61.5 26q29 0 44 -16t15 -41q0 -34 -24 -59.5t-62 -25.5q-29 0 -44 15.5z" />
    <glyph glyph-name="uni0136.ss02" horiz-adv-x="679" 
d="M590 715h174l-333 -307l219 -408h-179l-153 303l-110 -101l-39 -202h-155l139 715h155l-62 -317zM200 -222q81 12 91 55q-8 -2 -22 -2q-25 0 -40.5 12.5t-15.5 35.5q0 34 25 55t62 21q31 0 47.5 -17t16.5 -46q0 -16 -2 -24q-11 -53 -54.5 -91t-116.5 -47z" />
    <glyph glyph-name="uni013B.ss02" 
d="M503 0h-489l139 715h155l-114 -587h334zM147 -222q81 12 91 55q-8 -2 -22 -2q-25 0 -40.5 12.5t-15.5 35.5q0 34 25 55t62 21q31 0 47.5 -17t16.5 -46q0 -16 -2 -24q-11 -53 -54.5 -91t-116.5 -47z" />
    <glyph glyph-name="uni0145.ss02" horiz-adv-x="725" 
d="M169 0h-155l139 715h158l189 -471h4l92 471h154l-139 -715h-158l-189 471h-4zM201 -222q81 12 91 55q-8 -2 -22 -2q-25 0 -40.5 12.5t-15.5 35.5q0 34 25 55t62 21q31 0 47.5 -17t16.5 -46q0 -16 -2 -24q-11 -53 -54.5 -91t-116.5 -47z" />
    <glyph glyph-name="Odieresis.ss02" horiz-adv-x="773" 
d="M186.5 21.5q-68.5 36.5 -104.5 103.5t-36 157q0 122 51.5 224.5t145.5 163t216 60.5q96 0 165.5 -36.5t105.5 -103.5t36 -157q0 -121 -51.5 -223.5t-146 -163.5t-217.5 -61q-96 0 -164.5 36.5zM493.5 157q57.5 45 87.5 118t30 155q0 80 -39.5 126.5t-117.5 46.5
q-77 0 -134.5 -45t-88 -118t-30.5 -155q0 -80 40 -126.5t118 -46.5q77 0 134.5 45zM356.5 797.5q-14.5 14.5 -14.5 38.5q0 33 24 58.5t60 25.5q27 0 41.5 -15t14.5 -39q0 -34 -23.5 -58.5t-59.5 -24.5q-28 0 -42.5 14.5zM540.5 797.5q-14.5 14.5 -14.5 38.5q0 33 24 58.5
t60 25.5q27 0 41.5 -15t14.5 -39q0 -34 -23.5 -58.5t-59.5 -24.5q-28 0 -42.5 14.5z" />
    <glyph glyph-name="uni0156.ss02" horiz-adv-x="675" 
d="M14 0l139 715h312q110 0 168 -44t58 -128q0 -78 -51 -137t-131 -76l-1 -2q52 -10 72.5 -49.5t20.5 -98.5q0 -27 -7 -92q-4 -42 -4 -53q0 -23 9 -26l-2 -9h-161q-4 5 -4 18q0 17 7 54q10 56 10 89q0 99 -88 99h-142l-50 -260h-155zM386 388q68 0 107.5 34.5t39.5 90.5
q0 38 -26.5 56t-85.5 18h-139l-38 -199h142zM191 -222q81 12 91 55q-8 -2 -22 -2q-25 0 -40.5 12.5t-15.5 35.5q0 34 25 55t62 21q31 0 47.5 -17t16.5 -46q0 -16 -2 -24q-11 -53 -54.5 -91t-116.5 -47z" />
    <glyph glyph-name="uni0218.ss02" horiz-adv-x="647" 
d="M149.5 16q-67.5 31 -102 88t-30.5 135h155q-1 -7 -1 -20q0 -53 38 -80.5t104 -27.5q65 0 102.5 24.5t37.5 67.5q0 27 -17 44.5t-46 30t-95 35.5q-69 24 -112 48.5t-67 61t-24 90.5q0 68 37 117t103 74.5t150 25.5q132 0 201 -60t67 -170h-153q7 106 -125 106
q-56 0 -89 -19.5t-33 -58.5q0 -25 13 -41t38 -27.5t80 -32.5q85 -31 130 -53.5t73 -59.5t28 -96q0 -69 -35.5 -121.5t-103.5 -82t-163 -29.5q-93 0 -160.5 31zM183 -222q81 12 91 55q-8 -2 -22 -2q-25 0 -40.5 12.5t-15.5 35.5q0 34 25 55t62 21q31 0 47.5 -17t16.5 -46
q0 -16 -2 -24q-11 -53 -54.5 -91t-116.5 -47z" />
    <glyph glyph-name="uni021A.ss02" horiz-adv-x="616" 
d="M336 0h-155l114 587h-217l26 128h586l-25 -128h-216zM146 -222q81 12 91 55q-8 -2 -22 -2q-25 0 -40.5 12.5t-15.5 35.5q0 34 25 55t62 21q31 0 47.5 -17t16.5 -46q0 -16 -2 -24q-11 -53 -54.5 -91t-116.5 -47z" />
    <glyph glyph-name="Udieresis.ss02" horiz-adv-x="701" 
d="M115.5 41.5q-64.5 56.5 -64.5 150.5q0 29 6 60l90 463h155l-91 -463q-5 -28 -5 -46q0 -49 28.5 -71.5t85.5 -22.5q71 0 111.5 33.5t55.5 106.5l90 463h154l-90 -463q-26 -132 -105 -199.5t-231 -67.5q-125 0 -189.5 56.5zM315.5 797.5q-14.5 14.5 -14.5 38.5
q0 33 24 58.5t60 25.5q27 0 41.5 -15t14.5 -39q0 -34 -23.5 -58.5t-59.5 -24.5q-28 0 -42.5 14.5zM499.5 797.5q-14.5 14.5 -14.5 38.5q0 33 24 58.5t60 25.5q27 0 41.5 -15t14.5 -39q0 -34 -23.5 -58.5t-59.5 -24.5q-28 0 -42.5 14.5z" />
    <glyph glyph-name="Wdieresis.ss02" horiz-adv-x="946" 
d="M299 0h-157l-45 715h156l7 -514h2l221 514h151l26 -514h2l204 514h156l-320 -715h-157l-27 494h-2zM438.5 797.5q-14.5 14.5 -14.5 38.5q0 33 24 58.5t60 25.5q27 0 41.5 -15t14.5 -39q0 -34 -23.5 -58.5t-59.5 -24.5q-28 0 -42.5 14.5zM622.5 797.5
q-14.5 14.5 -14.5 38.5q0 33 24 58.5t60 25.5q27 0 41.5 -15t14.5 -39q0 -34 -23.5 -58.5t-59.5 -24.5q-28 0 -42.5 14.5z" />
    <glyph glyph-name="Ydieresis.ss02" horiz-adv-x="658" 
d="M356 0h-154l53 272l-162 443h164l96 -318h2l222 318h165l-333 -443zM295.5 797.5q-14.5 14.5 -14.5 38.5q0 33 24 58.5t60 25.5q27 0 41.5 -15t14.5 -39q0 -34 -23.5 -58.5t-59.5 -24.5q-28 0 -42.5 14.5zM479.5 797.5q-14.5 14.5 -14.5 38.5q0 33 24 58.5t60 25.5
q27 0 41.5 -15t14.5 -39q0 -34 -23.5 -58.5t-59.5 -24.5q-28 0 -42.5 14.5z" />
    <glyph glyph-name="Zdotaccent.ss02" horiz-adv-x="610" 
d="M531 0h-556l25 128l446 457v2h-338l26 128h526l-25 -128l-447 -457v-2h369zM365 793.5q-15 15.5 -15 39.5q0 35 24.5 61t61.5 26q29 0 44 -16t15 -41q0 -34 -24 -59.5t-62 -25.5q-29 0 -44 15.5z" />
    <glyph glyph-name="i.latn_TRK" horiz-adv-x="234" 
d="M135 0h-137l100 511h137zM251 583h-142l25 129h142z" />
    <glyph glyph-name="a.ss01" horiz-adv-x="590" 
d="M455 511h137l-100 -511h-137l11 54h-2q-25 -28 -68.5 -48.5t-96.5 -20.5q-84 0 -132 54.5t-48 152.5q0 90 37.5 167t102.5 122.5t142 45.5q53 0 88.5 -21t51.5 -50h3zM332.5 120.5q36.5 30.5 56.5 80.5t20 105q0 57 -24 86t-69 29t-80.5 -30t-55.5 -79.5t-20 -105.5
q0 -116 90 -116q46 0 82.5 30.5z" />
    <glyph glyph-name="aacute.ss01" horiz-adv-x="590" 
d="M455 511h137l-100 -511h-137l11 54h-2q-25 -28 -68.5 -48.5t-96.5 -20.5q-84 0 -132 54.5t-48 152.5q0 90 37.5 167t102.5 122.5t142 45.5q53 0 88.5 -21t51.5 -50h3zM332.5 120.5q36.5 30.5 56.5 80.5t20 105q0 57 -24 86t-69 29t-80.5 -30t-55.5 -79.5t-20 -105.5
q0 -116 90 -116q46 0 82.5 30.5zM389 578h-104l78 147h156z" />
    <glyph glyph-name="abreve.ss01" horiz-adv-x="590" 
d="M455 511h137l-100 -511h-137l11 54h-2q-25 -28 -68.5 -48.5t-96.5 -20.5q-84 0 -132 54.5t-48 152.5q0 90 37.5 167t102.5 122.5t142 45.5q53 0 88.5 -21t51.5 -50h3zM332.5 120.5q36.5 30.5 56.5 80.5t20 105q0 57 -24 86t-69 29t-80.5 -30t-55.5 -79.5t-20 -105.5
q0 -116 90 -116q46 0 82.5 30.5zM252.5 599.5q-34.5 30.5 -34.5 85.5q0 15 3 31h80q-6 -60 55 -60q31 0 52 15.5t29 44.5h85q-16 -68 -62 -107.5t-114 -39.5q-59 0 -93.5 30.5z" />
    <glyph glyph-name="acircumflex.ss01" horiz-adv-x="590" 
d="M455 511h137l-100 -511h-137l11 54h-2q-25 -28 -68.5 -48.5t-96.5 -20.5q-84 0 -132 54.5t-48 152.5q0 90 37.5 167t102.5 122.5t142 45.5q53 0 88.5 -21t51.5 -50h3zM332.5 120.5q36.5 30.5 56.5 80.5t20 105q0 57 -24 86t-69 29t-80.5 -30t-55.5 -79.5t-20 -105.5
q0 -116 90 -116q46 0 82.5 30.5zM295 578h-126l136 147h132l78 -147h-121l-32 84h-2z" />
    <glyph glyph-name="adieresis.ss01" horiz-adv-x="590" 
d="M455 511h137l-100 -511h-137l11 54h-2q-25 -28 -68.5 -48.5t-96.5 -20.5q-84 0 -132 54.5t-48 152.5q0 90 37.5 167t102.5 122.5t142 45.5q53 0 88.5 -21t51.5 -50h3zM332.5 120.5q36.5 30.5 56.5 80.5t20 105q0 57 -24 86t-69 29t-80.5 -30t-55.5 -79.5t-20 -105.5
q0 -116 90 -116q46 0 82.5 30.5zM320 583h-142l28 129h142zM513 583h-142l28 129h142z" />
    <glyph glyph-name="agrave.ss01" horiz-adv-x="590" 
d="M455 511h137l-100 -511h-137l11 54h-2q-25 -28 -68.5 -48.5t-96.5 -20.5q-84 0 -132 54.5t-48 152.5q0 90 37.5 167t102.5 122.5t142 45.5q53 0 88.5 -21t51.5 -50h3zM332.5 120.5q36.5 30.5 56.5 80.5t20 105q0 57 -24 86t-69 29t-80.5 -30t-55.5 -79.5t-20 -105.5
q0 -116 90 -116q46 0 82.5 30.5zM388 578h-105l-98 147h156z" />
    <glyph glyph-name="amacron.ss01" horiz-adv-x="590" 
d="M455 511h137l-100 -511h-137l11 54h-2q-25 -28 -68.5 -48.5t-96.5 -20.5q-84 0 -132 54.5t-48 152.5q0 90 37.5 167t102.5 122.5t142 45.5q53 0 88.5 -21t51.5 -50h3zM332.5 120.5q36.5 30.5 56.5 80.5t20 105q0 57 -24 86t-69 29t-80.5 -30t-55.5 -79.5t-20 -105.5
q0 -116 90 -116q46 0 82.5 30.5zM486 583h-278l17 92h278z" />
    <glyph glyph-name="aogonek.ss01" horiz-adv-x="590" 
d="M473 0q-28 -14 -46.5 -32.5t-18.5 -35.5q0 -24 29 -24q14 0 44 8l-15 -81q-42 -11 -79 -11q-46 0 -69.5 17t-23.5 50q0 32 25 62t65 47h-29l11 54h-2q-25 -28 -68.5 -48.5t-96.5 -20.5q-84 0 -132 54.5t-48 152.5q0 90 37.5 167t102.5 122.5t142 45.5q53 0 88.5 -21
t51.5 -50h3l11 55h137l-100 -511h-19zM332.5 120.5q36.5 30.5 56.5 80.5t20 105q0 57 -24 86t-69 29t-80.5 -30t-55.5 -79.5t-20 -105.5q0 -116 90 -116q46 0 82.5 30.5z" />
    <glyph glyph-name="aring.ss01" horiz-adv-x="590" 
d="M455 511h137l-100 -511h-137l11 54h-2q-25 -28 -68.5 -48.5t-96.5 -20.5q-84 0 -132 54.5t-48 152.5q0 90 37.5 167t102.5 122.5t142 45.5q53 0 88.5 -21t51.5 -50h3zM332.5 120.5q36.5 30.5 56.5 80.5t20 105q0 57 -24 86t-69 29t-80.5 -30t-55.5 -79.5t-20 -105.5
q0 -116 90 -116q46 0 82.5 30.5zM275.5 579q-24.5 24 -24.5 65q0 49 34 81t82 32q44 0 68.5 -23.5t24.5 -64.5q0 -50 -34 -82t-83 -32q-43 0 -67.5 24zM386.5 626q15.5 17 15.5 41q0 17 -10.5 26.5t-27.5 9.5q-24 0 -39.5 -16.5t-15.5 -40.5q0 -18 10 -27.5t28 -9.5
q24 0 39.5 17z" />
    <glyph glyph-name="atilde.ss01" horiz-adv-x="590" 
d="M455 511h137l-100 -511h-137l11 54h-2q-25 -28 -68.5 -48.5t-96.5 -20.5q-84 0 -132 54.5t-48 152.5q0 90 37.5 167t102.5 122.5t142 45.5q53 0 88.5 -21t51.5 -50h3zM332.5 120.5q36.5 30.5 56.5 80.5t20 105q0 57 -24 86t-69 29t-80.5 -30t-55.5 -79.5t-20 -105.5
q0 -116 90 -116q46 0 82.5 30.5zM185 571q13 67 41.5 99.5t68.5 32.5q19 0 35 -5.5t39 -16.5q17 -9 28 -13t22 -4q32 0 40 38h78q-13 -67 -41.5 -99.5t-68.5 -32.5q-19 0 -36.5 6t-38.5 16q-13 6 -26 11t-24 5q-31 0 -38 -37h-79z" />
    <glyph glyph-name="adieresis.ss02" horiz-adv-x="562" 
d="M43 19q-38 34 -38 97q0 82 61 123t171 65q56 11 85.5 19.5t48 23.5t18.5 39q0 45 -72 45q-49 0 -77 -20t-40 -64h-132q19 82 84.5 131.5t179.5 49.5q188 0 188 -147q0 -22 -7 -61l-42 -203q-3 -15 -3 -24q0 -11 5.5 -16t18.5 -5q6 0 11 1l-15 -73q-42 -9 -73 -9
q-86 0 -84 74h-2q-30 -37 -76 -58.5t-102 -21.5q-70 0 -108 34zM307 118q37 33 49 90l11 51q-18 -12 -36 -18t-69 -17q-63 -14 -90.5 -31t-27.5 -52q0 -28 17.5 -42t49.5 -14q59 0 96 33zM214.5 593.5q-14.5 14.5 -14.5 38.5q0 33 24 58.5t60 25.5q27 0 41.5 -15t14.5 -39
q0 -34 -23.5 -58.5t-59.5 -24.5q-28 0 -42.5 14.5zM398.5 593.5q-14.5 14.5 -14.5 38.5q0 33 24 58.5t60 25.5q27 0 41.5 -15t14.5 -39q0 -34 -23.5 -58.5t-59.5 -24.5q-28 0 -42.5 14.5z" />
    <glyph glyph-name="cdotaccent.ss02" horiz-adv-x="542" 
d="M78.5 40.5q-58.5 56.5 -58.5 157.5q0 89 36.5 164t106 120.5t163.5 45.5q71 0 120 -27t71.5 -74.5t17.5 -106.5h-133l1 15q0 40 -21.5 63.5t-65.5 23.5q-48 0 -84.5 -30.5t-56.5 -80.5t-20 -107q0 -53 24 -83.5t71 -30.5q54 0 83.5 28t43.5 73h134q-24 -93 -96.5 -150
t-174.5 -57q-103 0 -161.5 56.5zM300 589.5q-15 15.5 -15 39.5q0 35 24.5 61t61.5 26q29 0 44 -16t15 -41q0 -34 -24 -59.5t-62 -25.5q-29 0 -44 15.5z" />
    <glyph glyph-name="edieresis.ss02" horiz-adv-x="568" 
d="M155 219v-15q0 -60 27 -87.5t78 -27.5q49 0 80.5 22t39.5 49h140q-36 -84 -105.5 -130t-168.5 -46q-111 0 -167.5 58t-56.5 168q0 86 38.5 159t109 116t163.5 43q215 0 215 -212q0 -42 -10 -97h-383zM225 395q-39 -31 -56 -85h244q3 15 3 29q0 42 -24.5 64.5t-69.5 22.5
q-58 0 -97 -31zM219.5 594.5q-14.5 14.5 -14.5 38.5q0 33 24 58.5t60 25.5q27 0 41.5 -15t14.5 -39q0 -34 -23.5 -58.5t-59.5 -24.5q-28 0 -42.5 14.5zM403.5 594.5q-14.5 14.5 -14.5 38.5q0 33 24 58.5t60 25.5q27 0 41.5 -15t14.5 -39q0 -34 -23.5 -58.5t-59.5 -24.5
q-28 0 -42.5 14.5z" />
    <glyph glyph-name="edotaccent.ss02" horiz-adv-x="568" 
d="M155 219v-15q0 -60 27 -87.5t78 -27.5q49 0 80.5 22t39.5 49h140q-36 -84 -105.5 -130t-168.5 -46q-111 0 -167.5 58t-56.5 168q0 86 38.5 159t109 116t163.5 43q215 0 215 -212q0 -42 -10 -97h-383zM225 395q-39 -31 -56 -85h244q3 15 3 29q0 42 -24.5 64.5t-69.5 22.5
q-58 0 -97 -31zM309 590.5q-15 15.5 -15 39.5q0 35 24.5 61t61.5 26q29 0 44 -16t15 -41q0 -34 -24 -59.5t-62 -25.5q-29 0 -44 15.5z" />
    <glyph glyph-name="uni0123.ss02" horiz-adv-x="580" 
d="M446 511h137l-92 -467q-23 -119 -93.5 -172.5t-184.5 -53.5q-71 0 -121 23.5t-76.5 61.5t-29.5 81h138q5 -64 94 -64q60 0 92.5 32t46.5 104l8 39h-3q-64 -70 -158 -70q-83 0 -130.5 51t-47.5 146q0 80 34.5 150t95.5 112.5t136 42.5q54 0 88 -20.5t52 -49.5h3z
M332.5 157.5q33.5 27.5 51.5 71.5t18 93q0 99 -84 99q-47 0 -82 -26.5t-53.5 -70t-18.5 -91.5q0 -50 22.5 -76.5t66.5 -26.5q46 0 79.5 27.5zM297.5 593q-15.5 17 -15.5 45q0 16 2 24q10 48 48 81t106 42l-9 -45q-34 -5 -56 -19t-27 -38q16 2 22 2q23 0 36 -10.5t13 -29.5
q0 -31 -21 -50t-53 -19q-30 0 -45.5 17z" />
    <glyph glyph-name="gdotaccent.ss02" horiz-adv-x="580" 
d="M446 511h137l-92 -467q-23 -119 -93.5 -172.5t-184.5 -53.5q-71 0 -121 23.5t-76.5 61.5t-29.5 81h138q5 -64 94 -64q60 0 92.5 32t46.5 104l8 39h-3q-64 -70 -158 -70q-83 0 -130.5 51t-47.5 146q0 80 34.5 150t95.5 112.5t136 42.5q54 0 88 -20.5t52 -49.5h3z
M332.5 157.5q33.5 27.5 51.5 71.5t18 93q0 99 -84 99q-47 0 -82 -26.5t-53.5 -70t-18.5 -91.5q0 -50 22.5 -76.5t66.5 -26.5q46 0 79.5 27.5zM292 589.5q-15 15.5 -15 39.5q0 35 24.5 61t61.5 26q29 0 44 -16t15 -41q0 -34 -24 -59.5t-62 -25.5q-29 0 -44 15.5z" />
    <glyph glyph-name="i.ss02" horiz-adv-x="234" 
d="M132 587q-16 16 -16 41q0 36 25.5 63t64.5 27q29 0 45.5 -16t16.5 -42q0 -35 -26 -62t-64 -27q-30 0 -46 16zM135 0h-137l100 511h137z" />
    <glyph glyph-name="idieresis.ss02" horiz-adv-x="234" 
d="M135 0h-137l100 511h137zM45.5 593.5q-14.5 14.5 -14.5 38.5q0 33 24 58.5t60 25.5q27 0 41.5 -15t14.5 -39q0 -34 -23.5 -58.5t-59.5 -24.5q-28 0 -42.5 14.5zM229.5 593.5q-14.5 14.5 -14.5 38.5q0 33 24 58.5t60 25.5q27 0 41.5 -15t14.5 -39q0 -34 -23.5 -58.5
t-59.5 -24.5q-28 0 -42.5 14.5z" />
    <glyph glyph-name="iogonek.ss02" horiz-adv-x="234" 
d="M249 700q15 -16 15 -41q0 -34 -24 -59.5t-62 -25.5q-29 0 -44 15.5t-15 39.5q0 35 24.5 61t61.5 26q29 0 44 -16zM129 0q-28 -14 -46.5 -32.5t-18.5 -35.5q0 -24 29 -24q14 0 44 8l-15 -81q-42 -11 -79 -11q-46 0 -69.5 17t-23.5 50q0 32 25 62t65 47h-42l100 511h137
l-100 -511h-6z" />
    <glyph glyph-name="j.ss02" horiz-adv-x="235" 
d="M-123 -174l21 107q24 -3 37 -3q26 0 40.5 13.5t22.5 52.5l100 515h137l-99 -512q-35 -181 -182 -181q-38 0 -77 8zM134 589.5q-15 15.5 -15 39.5q0 35 24.5 61t61.5 26q29 0 44 -16t15 -41q0 -34 -24 -59.5t-62 -25.5q-29 0 -44 15.5z" />
    <glyph glyph-name="uni0137.ss02" horiz-adv-x="525" 
d="M413 511h161l-224 -190l145 -321h-155l-97 229l-76 -64l-32 -165h-137l139 715h137l-76 -393zM132 -222q81 12 91 55q-8 -2 -22 -2q-25 0 -40.5 12.5t-15.5 35.5q0 34 25 55t62 21q31 0 47.5 -17t16.5 -46q0 -16 -2 -24q-11 -53 -54.5 -91t-116.5 -47z" />
    <glyph glyph-name="uni013C.ss02" horiz-adv-x="235" 
d="M136 0h-137l139 715h137zM-45 -222q81 12 91 55q-8 -2 -22 -2q-25 0 -40.5 12.5t-15.5 35.5q0 34 25 55t62 21q31 0 47.5 -17t16.5 -46q0 -16 -2 -24q-11 -53 -54.5 -91t-116.5 -47z" />
    <glyph glyph-name="uni0146.ss02" 
d="M505.5 493q36.5 -35 36.5 -107q0 -34 -7 -69l-62 -317h-138l60 307q4 17 4 36q0 71 -73 71q-51 0 -87 -33t-45 -81l-59 -300h-137l100 511h137l-13 -67h2q30 38 75 61t103 23q67 0 103.5 -35zM123 -222q81 12 91 55q-8 -2 -22 -2q-25 0 -40.5 12.5t-15.5 35.5q0 34 25 55
t62 21q31 0 47.5 -17t16.5 -46q0 -16 -2 -24q-11 -53 -54.5 -91t-116.5 -47z" />
    <glyph glyph-name="odieresis.ss02" horiz-adv-x="583" 
d="M80 41.5q-60 57.5 -60 159.5q0 91 39.5 165.5t111.5 118t163 43.5q109 0 168.5 -57.5t59.5 -160.5q0 -90 -39.5 -164.5t-110.5 -118t-162 -43.5q-110 0 -170 57.5zM348.5 120.5q37.5 30.5 57.5 80.5t20 107q0 55 -27 84.5t-77 29.5t-87.5 -30.5t-58 -80.5t-20.5 -107
q0 -55 27.5 -84.5t77.5 -29.5t87.5 30.5zM225.5 593.5q-14.5 14.5 -14.5 38.5q0 33 24 58.5t60 25.5q27 0 41.5 -15t14.5 -39q0 -34 -23.5 -58.5t-59.5 -24.5q-28 0 -42.5 14.5zM409.5 593.5q-14.5 14.5 -14.5 38.5q0 33 24 58.5t60 25.5q27 0 41.5 -15t14.5 -39
q0 -34 -23.5 -58.5t-59.5 -24.5q-28 0 -42.5 14.5z" />
    <glyph glyph-name="uni0157.ss02" horiz-adv-x="370" 
d="M411 514l-25 -122q-20 3 -35 3q-65 0 -108 -37.5t-60 -110.5l-48 -247h-137l100 511h137l-17 -87h1q31 47 67.5 70.5t87.5 23.5q14 0 37 -4zM-45 -222q81 12 91 55q-8 -2 -22 -2q-25 0 -40.5 12.5t-15.5 35.5q0 34 25 55t62 21q31 0 47.5 -17t16.5 -46q0 -16 -2 -24
q-11 -53 -54.5 -91t-116.5 -47z" />
    <glyph glyph-name="uni0219.ss02" horiz-adv-x="501" 
d="M95.5 10q-51.5 25 -74.5 67t-21 92h127q-2 -41 24 -63.5t80 -22.5q45 0 69.5 15.5t24.5 43.5q0 21 -15 34t-33 20t-67 22t-82 30.5t-55.5 43.5t-22.5 72q0 48 28.5 85t79.5 57.5t117 20.5q73 0 121.5 -24t70 -62.5t17.5 -82.5h-128q2 34 -19 53.5t-69 19.5
q-39 0 -61.5 -13t-22.5 -39q0 -24 20.5 -36t70.5 -28q18 -5 23 -7q52 -16 86.5 -33.5t56 -46t21.5 -72.5q0 -47 -26.5 -86t-79.5 -62t-129 -23q-80 0 -131.5 25zM108 -222q81 12 91 55q-8 -2 -22 -2q-25 0 -40.5 12.5t-15.5 35.5q0 34 25 55t62 21q31 0 47.5 -17t16.5 -46
q0 -16 -2 -24q-11 -53 -54.5 -91t-116.5 -47z" />
    <glyph glyph-name="uni021B.ss02" horiz-adv-x="347" 
d="M253 406l-48 -247q-3 -15 -3 -26q0 -21 11 -28.5t35 -7.5q17 0 44 4l-20 -100q-47 -10 -85 -10q-64 0 -95 26t-31 83q0 25 6 58l49 248h-72l20 105h72l30 151h137l-29 -151h91l-20 -105h-92zM62 -211q81 12 91 55q-8 -2 -22 -2q-25 0 -40.5 12.5t-15.5 35.5q0 34 25 55
t62 21q31 0 47.5 -17t16.5 -46q0 -16 -2 -24q-11 -53 -54.5 -91t-116.5 -47z" />
    <glyph glyph-name="udieresis.ss02" 
d="M430 511h138l-99 -511h-138l14 70h-2q-28 -37 -73 -61t-101 -24q-69 0 -107 34t-38 106q0 29 8 71l62 315h137l-60 -305q-4 -17 -4 -37q0 -72 71 -72q49 0 83 26.5t48 71.5zM205.5 593.5q-14.5 14.5 -14.5 38.5q0 33 24 58.5t60 25.5q27 0 41.5 -15t14.5 -39
q0 -34 -23.5 -58.5t-59.5 -24.5q-28 0 -42.5 14.5zM389.5 593.5q-14.5 14.5 -14.5 38.5q0 33 24 58.5t60 25.5q27 0 41.5 -15t14.5 -39q0 -34 -23.5 -58.5t-59.5 -24.5q-28 0 -42.5 14.5z" />
    <glyph glyph-name="wdieresis.ss02" horiz-adv-x="776" 
d="M236 0h-136l-46 511h138l18 -342h2l164 342h116l30 -342h3l155 342h142l-250 -511h-135l-32 350h-2zM314.5 593.5q-14.5 14.5 -14.5 38.5q0 33 24 58.5t60 25.5q27 0 41.5 -15t14.5 -39q0 -34 -23.5 -58.5t-59.5 -24.5q-28 0 -42.5 14.5zM498.5 593.5
q-14.5 14.5 -14.5 38.5q0 33 24 58.5t60 25.5q27 0 41.5 -15t14.5 -39q0 -34 -23.5 -58.5t-59.5 -24.5q-28 0 -42.5 14.5z" />
    <glyph glyph-name="ydieresis.ss02" horiz-adv-x="533" 
d="M-26 -169l21 107q24 -3 44 -3q34 0 64 14.5t49 56.5l-109 505h140l62 -358h2l186 358h145l-304 -540q-47 -82 -95 -115.5t-124 -33.5q-36 0 -81 9zM187.5 593.5q-14.5 14.5 -14.5 38.5q0 33 24 58.5t60 25.5q27 0 41.5 -15t14.5 -39q0 -34 -23.5 -58.5t-59.5 -24.5
q-28 0 -42.5 14.5zM371.5 593.5q-14.5 14.5 -14.5 38.5q0 33 24 58.5t60 25.5q27 0 41.5 -15t14.5 -39q0 -34 -23.5 -58.5t-59.5 -24.5q-28 0 -42.5 14.5z" />
    <glyph glyph-name="zdotaccent.ss02" horiz-adv-x="486" 
d="M415 0h-446l19 99l320 305v2h-241l21 105h416l-19 -95l-322 -308l-1 -2h273zM258 589.5q-15 15.5 -15 39.5q0 35 24.5 61t61.5 26q29 0 44 -16t15 -41q0 -34 -24 -59.5t-62 -25.5q-29 0 -44 15.5z" />
    <glyph glyph-name="i.latn_TRK.ss02" horiz-adv-x="234" 
d="M132 587q-16 16 -16 41q0 36 25.5 63t64.5 27q29 0 45.5 -16t16.5 -42q0 -35 -26 -62t-64 -27q-30 0 -46 16zM135 0h-137l100 511h137z" />
    <glyph glyph-name="adieresis.ss01.ss02" horiz-adv-x="590" 
d="M455 511h137l-100 -511h-137l11 54h-2q-25 -28 -68.5 -48.5t-96.5 -20.5q-84 0 -132 54.5t-48 152.5q0 90 37.5 167t102.5 122.5t142 45.5q53 0 88.5 -21t51.5 -50h3zM332.5 120.5q36.5 30.5 56.5 80.5t20 105q0 57 -24 86t-69 29t-80.5 -30t-55.5 -79.5t-20 -105.5
q0 -116 90 -116q46 0 82.5 30.5zM211.5 593.5q-14.5 14.5 -14.5 38.5q0 33 24 58.5t60 25.5q27 0 41.5 -15t14.5 -39q0 -34 -23.5 -58.5t-59.5 -24.5q-28 0 -42.5 14.5zM395.5 593.5q-14.5 14.5 -14.5 38.5q0 33 24 58.5t60 25.5q27 0 41.5 -15t14.5 -39q0 -34 -23.5 -58.5
t-59.5 -24.5q-28 0 -42.5 14.5z" />
    <glyph glyph-name="s_s" horiz-adv-x="1009" 
d="M95.5 10q-51.5 25 -74.5 67t-21 92h127q-2 -41 24 -63.5t80 -22.5q44 0 69 15t25 43q0 22 -17 36.5t-34.5 20.5t-63.5 20q-47 14 -80.5 29.5t-56.5 44t-23 73.5q0 48 26.5 84.5t75 57t112.5 20.5q79 0 131 -28t86 -84t62 -148q21 -69 45.5 -108.5t59 -57.5t85.5 -18
q49 0 74.5 15t25.5 43q0 22 -16 36t-36 21.5t-63 19.5q-73 21 -116 52t-43 94q0 48 28 85t79 57.5t117 20.5q73 0 121.5 -24t70 -62.5t18.5 -81.5h-127q2 33 -19.5 52.5t-69.5 19.5q-39 0 -61.5 -13t-22.5 -39q0 -24 20.5 -36t70.5 -28q5 -1 10 -3t12 -4q79 -24 121.5 -56.5
t42.5 -95.5q0 -47 -25.5 -86t-75.5 -62t-122 -23q-79 0 -126 26.5t-74 77.5t-55 142q-34 114 -88.5 157t-125.5 43q-45 0 -69.5 -13.5t-24.5 -38.5t21 -37t72 -28l21 -6q52 -16 86.5 -33.5t56 -46t21.5 -72.5q0 -47 -26.5 -86t-79.5 -62t-129 -23q-80 0 -131.5 25z" />
    <glyph glyph-name="w_w_w" horiz-adv-x="2196" 
d="M1944 169l156 342h141l-250 -511h-135l-31 350h-2l-168 -350h-136l-37 411l-201 -411h-135l-32 350h-2l-167 -350h-136l-37 411l-201 -411h-135l-32 350h-2l-167 -350h-136l-46 511h138l18 -342h2l164 342h116l30 -342h3l155 342h222l19 -342h2l164 342h115l30 -342h3
l156 342h221l19 -342h2l164 342h116l30 -342h2z" />
    <glyph glyph-name="f_f_i.ss02" horiz-adv-x="851" 
d="M39 0l80 406h-70l21 105h69l9 46q18 90 59 128t117 38q39 0 83 -9l-20 -101q-20 4 -36 4q-34 0 -47.5 -17t-21.5 -60l-6 -29h152l9 46q17 90 58.5 128t117.5 38q39 0 83 -9l-21 -101q-20 4 -35 4q-34 0 -48 -17t-22 -60l-5 -29h91l-21 -105h-91l-79 -406h-137l80 406
h-153l-78 -406h-138zM749 587q-16 16 -16 41q0 36 25.5 63t64.5 27q29 0 45.5 -16t16.5 -42q0 -35 -26 -62t-64 -27q-30 0 -46 16zM752 0h-137l100 511h137z" />
    <glyph glyph-name="f_i.ss02" horiz-adv-x="562" 
d="M303.5 600q-13.5 -17 -21.5 -60l-6 -29h92l-21 -105h-91l-79 -406h-138l79 406h-69l21 105h69l9 46q18 90 59 128t117 38q39 0 83 -9l-20 -101q-20 4 -36 4q-34 0 -47.5 -17zM460 587q-16 16 -16 41q0 36 25.5 63t64.5 27q29 0 45.5 -16t16.5 -42q0 -35 -26 -62t-64 -27
q-30 0 -46 16zM463 0h-137l100 511h137z" />
    <glyph glyph-name="zero.zero" horiz-adv-x="670" 
d="M592 635q64 -71 64 -200q0 -116 -44 -219.5t-125.5 -167t-188.5 -63.5q-119 0 -184.5 71.5t-65.5 199.5q0 115 45 219t127.5 167.5t188.5 63.5q119 0 183 -71zM287.5 540.5q-46.5 -50.5 -71.5 -129t-25 -159.5q0 -49 12 -84l244 414q-21 9 -50 9q-63 0 -109.5 -50.5z
M416.5 150.5q46.5 50.5 71 129.5t24.5 160q0 42 -8 69l-236 -404q18 -5 39 -5q63 0 109.5 50.5z" />
    <glyph glyph-name="zero.slash" horiz-adv-x="670" 
d="M592 635q64 -71 64 -200q0 -116 -44 -219.5t-125.5 -167t-188.5 -63.5q-119 0 -184.5 71.5t-65.5 199.5q0 115 45 219t127.5 167.5t188.5 63.5q119 0 183 -71zM287.5 540.5q-46.5 -50.5 -71.5 -129t-25 -159.5q0 -49 12 -84l244 414q-21 9 -50 9q-63 0 -109.5 -50.5z
M416.5 150.5q46.5 50.5 71 129.5t24.5 160q0 42 -8 69l-236 -404q18 -5 39 -5q63 0 109.5 50.5z" />
    <glyph glyph-name="zero.tf" horiz-adv-x="771" 
d="M164.5 56.5q-65.5 71.5 -65.5 199.5q0 115 45 219t127.5 167.5t188.5 63.5q119 0 183 -71t64 -200q0 -116 -44 -219.5t-125.5 -167t-188.5 -63.5q-119 0 -184.5 71.5zM464 157q45 50 68.5 127t23.5 156q0 70 -25.5 107t-82.5 37q-60 0 -105.5 -49.5t-69.5 -126.5
t-24 -156q0 -70 26 -107.5t83 -37.5q61 0 106 50z" />
    <glyph glyph-name="one.tf" horiz-adv-x="771" 
d="M450 121h148l-24 -121h-438l24 121h143l70 361q-42 -30 -152 -30l23 116q81 1 131.5 31.5t65.5 91.5h120z" />
    <glyph glyph-name="two.tf" horiz-adv-x="771" 
d="M70 0q13 70 44.5 122t84 96t137.5 95l37 22q61 36 94 59t53 52t20 67q0 73 -86 73q-116 0 -145 -141h-143q22 116 101.5 188.5t207.5 72.5q104 0 159.5 -47t55.5 -128q0 -68 -36 -122.5t-85.5 -91.5t-124.5 -84l-20 -13q-54 -32 -83.5 -54t-43.5 -43v-2h313l-24 -121
h-516z" />
    <glyph glyph-name="three.tf" horiz-adv-x="771" 
d="M160.5 37q-65.5 52 -65.5 144q0 23 7 60h144q-5 -25 -5 -41q0 -95 116 -95q68 0 104 31t36 83q0 46 -28.5 65t-87.5 19h-43l20 107h42q57 0 94 29t37 76q0 34 -22.5 52.5t-69.5 18.5q-54 0 -87 -27t-42 -79h-144q11 64 50 115t103 81t146 30q100 0 160.5 -44.5
t60.5 -121.5q0 -58 -36.5 -103.5t-101.5 -72.5l-1 -2q100 -32 100 -136q0 -69 -36.5 -124t-105 -86t-160.5 -31q-119 0 -184.5 52z" />
    <glyph glyph-name="four.tf" horiz-adv-x="771" 
d="M519 0h-147l29 151h-319l28 142l396 398h147l-81 -420h100l-24 -120h-100zM474 517l-245 -246h196z" />
    <glyph glyph-name="five.tf" horiz-adv-x="771" 
d="M207.5 10.5q-53.5 25.5 -80.5 68.5t-27 95q0 18 3 36h143q-4 -44 21.5 -74.5t80.5 -30.5q47 0 82.5 21.5t54.5 58t19 79.5q0 48 -25 72.5t-73 24.5q-38 0 -71 -13.5t-57 -40.5h-145l152 384h419l-23 -121h-313l-61 -154v-2q73 54 158 54q89 0 138.5 -50.5t49.5 -141.5
q0 -78 -37 -144.5t-108.5 -106.5t-168.5 -40q-78 0 -131.5 25.5z" />
    <glyph glyph-name="six.tf" horiz-adv-x="771" 
d="M179 54q-64 69 -64 193q0 118 45.5 223.5t129 170.5t193.5 65q67 0 115.5 -24.5t73.5 -68t23 -97.5h-149q1 32 -19 54.5t-69 22.5q-68 0 -112.5 -51t-59.5 -134l-2 -12l4 -2q68 71 175 71q93 0 148 -53t55 -145q0 -76 -37 -140.5t-105 -103t-159 -38.5q-122 0 -186 69z
M445 119q34 21 53.5 56t19.5 76q0 49 -27.5 75t-77.5 26q-43 0 -78 -19t-55 -52.5t-20 -74.5q0 -50 29.5 -79t79.5 -29q42 0 76 21z" />
    <glyph glyph-name="seven.tf" horiz-adv-x="771" 
d="M187 0q21 108 75 219.5t126 203.5t144 145v2h-341l23 121h499l-21 -111q-132 -92 -224 -250.5t-126 -329.5h-155z" />
    <glyph glyph-name="eight.tf" horiz-adv-x="771" 
d="M160.5 31.5q-68.5 46.5 -68.5 134.5q0 76 48 128.5t122 75.5v4q-75 43 -75 126q0 60 37 107t101 73t140 26q98 0 159 -43t61 -121q0 -59 -36 -106t-94 -69v-3q47 -23 73 -55.5t26 -88.5q0 -69 -41 -122.5t-112.5 -83t-160.5 -29.5q-111 0 -179.5 46.5zM515.5 447.5
q34.5 31.5 34.5 74.5q0 37 -26.5 57.5t-73.5 20.5q-63 0 -96 -30.5t-33 -74.5q0 -37 26 -58t74 -21q60 0 94.5 31.5zM467.5 134.5q41.5 36.5 41.5 92.5q0 43 -29.5 67t-83.5 24q-44 0 -79 -17t-55 -46t-20 -64q0 -45 30 -69t84 -24q70 0 111.5 36.5z" />
    <glyph glyph-name="nine.tf" horiz-adv-x="771" 
d="M208.5 9.5q-48.5 24.5 -74 68t-23.5 97.5h149q-1 -32 19 -54.5t69 -22.5q68 0 112.5 51t59.5 134l2 12l-4 2q-68 -71 -174 -71q-93 0 -148 53t-55 145q0 76 36.5 140.5t105 103t158.5 38.5q123 0 187 -69t64 -193q0 -118 -45.5 -223.5t-129 -170.5t-193.5 -65
q-67 0 -115.5 24.5zM471.5 358q35.5 19 55.5 52.5t20 74.5q0 50 -30 79t-80 29q-42 0 -76 -21t-53.5 -56t-19.5 -76q0 -48 27.5 -74.5t77.5 -26.5q43 0 78.5 19z" />
    <glyph glyph-name="zero.tf.zero" horiz-adv-x="771" 
d="M643 635q64 -71 64 -200q0 -116 -44 -219.5t-125.5 -167t-188.5 -63.5q-119 0 -184.5 71.5t-65.5 199.5q0 115 45 219t127.5 167.5t188.5 63.5q119 0 183 -71zM338.5 540.5q-46.5 -50.5 -71.5 -129t-25 -159.5q0 -49 12 -84l244 414q-21 9 -50 9q-63 0 -109.5 -50.5z
M467.5 150.5q46.5 50.5 71 129.5t24.5 160q0 42 -8 69l-236 -404q18 -5 39 -5q63 0 109.5 50.5z" />
    <glyph glyph-name="zero.dnom" horiz-adv-x="418" 
d="M49 35q-39 44 -39 117q0 74 29 134.5t80.5 95.5t115.5 35q76 0 114 -43.5t38 -117.5t-28.5 -134.5t-79.5 -95.5t-114 -35q-77 0 -116 44zM230.5 106.5q24.5 28.5 36.5 69.5t12 80q0 74 -52 74q-35 0 -59.5 -28t-37 -69.5t-12.5 -80.5q0 -74 53 -74q35 0 59.5 28.5z" />
    <glyph glyph-name="one.dnom" horiz-adv-x="254" 
d="M99 263q-22 -11 -89 -11l17 84q46 0 79.5 18.5t39.5 51.5h94l-79 -406h-113z" />
    <glyph glyph-name="two.dnom" horiz-adv-x="369" 
d="M-29 0q7 48 31.5 81.5t52.5 54t77 48.5q45 27 63.5 39.5t31 29.5t12.5 40q0 38 -40 38q-28 0 -45.5 -17.5t-24.5 -58.5h-103q14 77 62 119.5t127 42.5q62 0 97.5 -28t35.5 -78q0 -43 -19 -74.5t-45.5 -52.5t-67.5 -46q-53 -31 -70 -49v-1h161l-17 -88h-319z" />
    <glyph glyph-name="three.dnom" horiz-adv-x="382" 
d="M33.5 21q-40.5 31 -40.5 88q0 19 4 36h104q-2 -8 -2 -22q0 -48 55 -48q31 0 48 15t17 41q0 23 -14 32.5t-44 9.5h-22l14 70h24q32 0 48.5 13.5t16.5 37.5q0 37 -43 37q-26 0 -41.5 -14t-19.5 -36h-104q10 61 59 98.5t125 37.5q62 0 99.5 -28.5t37.5 -77.5
q0 -35 -23 -60.5t-59 -36.5v-1q58 -21 58 -80q0 -64 -50 -103.5t-134 -39.5q-73 0 -113.5 31z" />
    <glyph glyph-name="four.dnom" horiz-adv-x="393" 
d="M262 0h-109l16 84h-181l20 102l224 220h109l-45 -235h59l-17 -87h-60zM211 285l-118 -114h94z" />
    <glyph glyph-name="five.dnom" horiz-adv-x="381" 
d="M33 23q-40 33 -40 84q0 7 2 21h103q-2 -22 11.5 -37t42.5 -15q34 0 53 21t19 52q0 27 -14.5 40.5t-39.5 13.5q-40 0 -58 -27h-102l93 230h264l-17 -87h-189l-28 -68l1 -2q35 21 76 21q55 0 90.5 -30.5t35.5 -87.5q0 -44 -22 -81t-65 -59t-102 -22q-74 0 -114 33z" />
    <glyph glyph-name="six.dnom" horiz-adv-x="397" 
d="M49 33.5q-38 43.5 -38 116.5q0 75 28 136t78 96t113 35q64 0 102 -32t39 -82h-106q-5 36 -48 36q-32 0 -56 -24t-33 -65l-3 -10l3 -1q15 16 43 27t60 11q57 0 89.5 -31t32.5 -84q0 -47 -23.5 -86t-66.5 -62.5t-99 -23.5q-77 0 -115 43.5zM223.5 94q22.5 22 22.5 53
q0 24 -14 37.5t-40 13.5q-33 0 -55.5 -20t-22.5 -52q0 -24 14.5 -39t39.5 -15q33 0 55.5 22z" />
    <glyph glyph-name="seven.dnom" horiz-adv-x="327" 
d="M23 0q19 96 72.5 185t112.5 133v1h-187l17 87h302l-16 -80q-72 -52 -119.5 -138.5t-67.5 -187.5h-114z" />
    <glyph glyph-name="eight.dnom" horiz-adv-x="381" 
d="M35 18.5q-41 28.5 -41 80.5q0 44 28.5 75t71.5 45v3q-43 24 -43 72q0 36 23 64.5t61.5 44t83.5 15.5q59 0 95.5 -25.5t36.5 -70.5q0 -37 -23.5 -64.5t-53.5 -39.5v-2q28 -15 43 -34t15 -51q0 -63 -54 -102t-135 -39q-67 0 -108 28.5zM239.5 268.5q17.5 16.5 17.5 39.5
q0 18 -12.5 28.5t-36.5 10.5q-32 0 -49.5 -16t-17.5 -40q0 -18 13 -28.5t37 -10.5q31 0 48.5 16.5zM209.5 87.5q21.5 18.5 21.5 46.5q0 21 -14.5 33t-40.5 12q-33 0 -54.5 -18.5t-21.5 -45.5q0 -21 14.5 -33.5t39.5 -12.5q34 0 55.5 18.5z" />
    <glyph glyph-name="nine.dnom" horiz-adv-x="397" 
d="M45.5 21.5q-38.5 31.5 -39.5 82.5h106q5 -36 47 -36q32 0 56 24t34 65l2 10l-2 1q-15 -16 -43 -27t-60 -11q-57 0 -89.5 31t-32.5 86q0 46 23.5 85t66.5 62t99 23q78 0 115.5 -43.5t37.5 -117.5q0 -72 -26.5 -133t-76.5 -97t-115 -36q-64 0 -102.5 31.5zM240 230
q23 21 23 52q0 24 -14.5 38.5t-39.5 14.5q-33 0 -55.5 -22t-22.5 -53q0 -24 13.5 -37.5t39.5 -13.5q33 0 56 21z" />
    <glyph glyph-name="zero.numr" horiz-adv-x="418" 
d="M109 345q-39 44 -39 117q0 74 29 134.5t80.5 95.5t115.5 35q76 0 114 -43.5t38 -117.5t-28.5 -134.5t-79.5 -95.5t-114 -35q-77 0 -116 44zM290.5 416.5q24.5 28.5 36.5 69.5t12 80q0 74 -52 74q-35 0 -59.5 -28t-37 -69.5t-12.5 -80.5q0 -74 53 -74q35 0 59.5 28.5z" />
    <glyph glyph-name="one.numr" horiz-adv-x="254" 
d="M159 572q-22 -11 -89 -11l17 84q46 0 79.5 18.5t39.5 51.5h94l-79 -406h-113z" />
    <glyph glyph-name="two.numr" horiz-adv-x="369" 
d="M31 310q7 48 31.5 81.5t52.5 54t77 48.5q45 27 63.5 39.5t31 29.5t12.5 40q0 38 -40 38q-28 0 -45.5 -17.5t-24.5 -58.5h-103q14 77 62 119.5t127 42.5q62 0 97.5 -28t35.5 -78q0 -43 -19 -74.5t-45.5 -52.5t-67.5 -46q-53 -31 -70 -49v-1h161l-17 -88h-319z" />
    <glyph glyph-name="three.numr" horiz-adv-x="382" 
d="M93.5 330q-40.5 31 -40.5 88q0 19 4 36h104q-2 -8 -2 -22q0 -48 55 -48q31 0 48 15t17 41q0 23 -14 32.5t-44 9.5h-22l14 70h24q32 0 48.5 13.5t16.5 37.5q0 37 -43 37q-26 0 -41.5 -14t-19.5 -36h-104q10 61 59 98.5t125 37.5q62 0 99.5 -28.5t37.5 -77.5
q0 -35 -23 -60.5t-59 -36.5v-1q58 -21 58 -80q0 -64 -50 -103.5t-134 -39.5q-73 0 -113.5 31z" />
    <glyph glyph-name="four.numr" horiz-adv-x="393" 
d="M322 310h-109l16 84h-181l20 102l224 220h109l-45 -235h59l-17 -87h-60zM271 595l-118 -114h94z" />
    <glyph glyph-name="five.numr" horiz-adv-x="381" 
d="M93 332q-40 33 -40 84q0 7 2 21h103q-2 -22 11.5 -37t42.5 -15q34 0 53 21t19 52q0 27 -14.5 40.5t-39.5 13.5q-40 0 -58 -27h-102l93 230h264l-17 -87h-189l-28 -68l1 -2q35 21 76 21q55 0 90.5 -30.5t35.5 -87.5q0 -44 -22 -81t-65 -59t-102 -22q-74 0 -114 33z" />
    <glyph glyph-name="six.numr" horiz-adv-x="397" 
d="M109 342.5q-38 43.5 -38 116.5q0 75 28 136t78 96t113 35q64 0 102 -32t39 -82h-106q-5 36 -48 36q-32 0 -56 -24t-33 -65l-3 -10l3 -1q15 16 43 27t60 11q57 0 89.5 -31t32.5 -84q0 -47 -23.5 -86t-66.5 -62.5t-99 -23.5q-77 0 -115 43.5zM283.5 403q22.5 22 22.5 53
q0 24 -14 37.5t-40 13.5q-33 0 -55.5 -20t-22.5 -52q0 -24 14.5 -39t39.5 -15q33 0 55.5 22z" />
    <glyph glyph-name="seven.numr" horiz-adv-x="327" 
d="M83 309q19 96 72.5 185t112.5 133v1h-187l17 87h302l-16 -80q-72 -52 -119.5 -138.5t-67.5 -187.5h-114z" />
    <glyph glyph-name="eight.numr" horiz-adv-x="381" 
d="M95 327.5q-41 28.5 -41 80.5q0 44 28.5 75t71.5 45v3q-43 24 -43 72q0 36 23 64.5t61.5 44t83.5 15.5q59 0 95.5 -25.5t36.5 -70.5q0 -37 -23.5 -64.5t-53.5 -39.5v-2q28 -15 43 -34t15 -51q0 -63 -54 -102t-135 -39q-67 0 -108 28.5zM299.5 577.5q17.5 16.5 17.5 39.5
q0 18 -12.5 28.5t-36.5 10.5q-32 0 -49.5 -16t-17.5 -40q0 -18 13 -28.5t37 -10.5q31 0 48.5 16.5zM269.5 396.5q21.5 18.5 21.5 46.5q0 21 -14.5 33t-40.5 12q-33 0 -54.5 -18.5t-21.5 -45.5q0 -21 14.5 -33.5t39.5 -12.5q34 0 55.5 18.5z" />
    <glyph glyph-name="nine.numr" horiz-adv-x="397" 
d="M105.5 330.5q-38.5 31.5 -39.5 82.5h106q5 -36 47 -36q32 0 56 24t34 65l2 10l-2 1q-15 -16 -43 -27t-60 -11q-57 0 -89.5 31t-32.5 86q0 46 23.5 85t66.5 62t99 23q78 0 115.5 -43.5t37.5 -117.5q0 -72 -26.5 -133t-76.5 -97t-115 -36q-64 0 -102.5 31.5zM300 539
q23 21 23 52q0 24 -14.5 38.5t-39.5 14.5q-33 0 -55.5 -22t-22.5 -53q0 -24 13.5 -37.5t39.5 -13.5q33 0 56 21z" />
    <glyph glyph-name="space.frac" horiz-adv-x="38" 
 />
    <glyph glyph-name="uni2007.tf" horiz-adv-x="771" 
 />
    <glyph glyph-name="periodcentered.case" horiz-adv-x="241" 
d="M194 288h-136l27 136h136z" />
    <glyph glyph-name="bullet.case" horiz-adv-x="407" 
d="M329 227h-263l51 262h262z" />
    <glyph glyph-name="period.ss02" horiz-adv-x="201" 
d="M6.5 11q-15.5 16 -15.5 41q0 35 25.5 62t63.5 27q29 0 44.5 -16.5t15.5 -41.5q0 -36 -25 -62t-64 -26q-29 0 -44.5 16z" />
    <glyph glyph-name="comma.ss02" horiz-adv-x="208" 
d="M-26 -77q37 6 62 25t31 51q-12 -3 -23 -3q-23 0 -37.5 13.5t-14.5 37.5q0 39 25.5 65.5t62.5 26.5q30 0 45.5 -18.5t15.5 -52.5q0 -15 -3 -33q-12 -63 -58 -111t-117 -59z" />
    <glyph glyph-name="colon.ss02" horiz-adv-x="230" 
d="M79.5 320q-15.5 16 -15.5 41q0 35 25.5 62t63.5 27q29 0 44.5 -16.5t15.5 -41.5q0 -36 -25 -62t-64 -26q-29 0 -44.5 16zM19.5 11q-15.5 16 -15.5 41q0 35 25.5 62t63.5 27q29 0 44.5 -16.5t15.5 -41.5q0 -36 -25 -62t-64 -26q-29 0 -44.5 16z" />
    <glyph glyph-name="semicolon.ss02" horiz-adv-x="232" 
d="M80.5 320q-15.5 16 -15.5 41q0 35 25.5 62t63.5 27q29 0 44.5 -16.5t15.5 -41.5q0 -36 -25 -62t-64 -26q-29 0 -44.5 16zM-15 -77q37 6 62 25t31 51q-12 -3 -23 -3q-23 0 -37.5 13.5t-14.5 37.5q0 39 25.5 65.5t62.5 26.5q30 0 45.5 -18.5t15.5 -52.5q0 -15 -3 -33
q-12 -63 -58 -111t-117 -59z" />
    <glyph glyph-name="ellipsis.ss02" horiz-adv-x="616" 
d="M6.5 11q-15.5 16 -15.5 41q0 35 25.5 62t63.5 27q29 0 44.5 -16.5t15.5 -41.5q0 -36 -25 -62t-64 -26q-29 0 -44.5 16zM213.5 11q-15.5 16 -15.5 41q0 35 25.5 62t63.5 27q29 0 44.5 -16.5t15.5 -41.5q0 -36 -25 -62t-64 -26q-29 0 -44.5 16zM421.5 11q-15.5 16 -15.5 41
q0 35 25.5 62t63.5 27q29 0 44.5 -16.5t15.5 -41.5q0 -36 -25 -62t-64 -26q-29 0 -44.5 16z" />
    <glyph glyph-name="exclam.ss02" horiz-adv-x="242" 
d="M149 220h-71l25 325l33 170h147l-33 -170zM25.5 11q-15.5 16 -15.5 41q0 35 25.5 62t63.5 27q29 0 45 -16t16 -41q0 -36 -25.5 -62.5t-63.5 -26.5q-30 0 -45.5 16z" />
    <glyph glyph-name="exclamdown.ss02" horiz-adv-x="241" 
d="M112.5 459.5q-15.5 16.5 -15.5 41.5q0 35 25.5 61.5t63.5 26.5q29 0 44.5 -16.5t15.5 -41.5q0 -35 -25.5 -61.5t-63.5 -26.5q-29 0 -44.5 16.5zM118 -130h-147l34 170l101 325h71l-25 -325z" />
    </font>
</defs>
</svg>
