<svg width="90" height="90" viewBox="0 0 90 90" fill="none" xmlns="http://www.w3.org/2000/svg">
<path d="M87.9358 50.228V39.6696L87.2819 39.6081C83.1127 39.2157 79.6699 36.3379 78.207 32.3589C77.921 31.5804 77.6088 30.8147 77.2721 30.0629C75.5349 26.1862 75.944 21.6747 78.6261 18.3987L79.0414 17.8916L71.6798 10.4256L71.1798 10.8464C67.9492 13.5665 63.5009 13.9813 59.6785 12.2198C58.9371 11.878 58.1825 11.5616 57.4149 11.2715C53.4913 9.78768 50.6538 6.29608 50.2672 2.06775L50.2066 1.40475H39.7958L39.7352 2.06757C39.3484 6.29608 36.5109 9.78768 32.5875 11.2713C31.8199 11.5618 31.0649 11.8781 30.3235 12.2197C26.5009 13.9814 22.0524 13.5665 18.8219 10.8463L18.3217 10.4254L10.9597 17.8916L11.375 18.3987C14.0571 21.6747 14.466 26.1864 12.7292 30.0629C12.3923 30.8147 12.0804 31.5802 11.7942 32.3589C10.3314 36.3381 6.88848 39.2159 2.71908 39.6078L2.06519 39.6692V50.2281L2.71908 50.2894C6.88848 50.6815 10.3314 53.5593 11.7942 57.5383C12.0802 58.3168 12.3923 59.0827 12.7292 59.8343C14.4662 63.7112 14.0571 68.2225 11.375 71.4985L10.9597 72.006L18.3214 79.4718L18.8216 79.051C22.0517 76.3309 26.5004 75.9161 30.3227 77.6776C31.0642 78.0194 31.8193 78.336 32.5872 78.6262C36.5106 80.1099 39.3479 83.6015 39.7343 87.8298L39.7949 88.493H50.206L50.2666 87.83C50.6532 83.6015 53.4908 80.1099 57.414 78.6262C58.1818 78.3362 58.9368 78.0196 59.6783 77.6779C63.5004 75.9163 67.9489 76.3312 71.1793 79.0513L71.6791 79.472L79.0406 72.0061L78.6259 71.4994C75.9435 68.2231 75.5346 63.7113 77.2716 59.8345C77.6085 59.0829 77.9204 58.3173 78.2064 57.539C79.6695 53.5598 83.1123 50.6818 87.2817 50.2896L87.9358 50.228Z" fill="#5ABF90"/>
<path d="M45.0004 74.2688C60.9672 74.2688 73.9108 61.1417 73.9108 44.9486C73.9108 28.7555 60.9672 15.6284 45.0004 15.6284C29.0337 15.6284 16.0901 28.7555 16.0901 44.9486C16.0901 61.1417 29.0337 74.2688 45.0004 74.2688Z" fill="white"/>
<path d="M47.4929 44.9493C47.4929 46.3448 46.3773 47.4764 45.0011 47.4764C43.6237 47.4764 42.5081 46.345 42.5081 44.9493C42.5081 43.5538 43.6239 42.4209 45.0011 42.4209C46.3771 42.4208 47.4929 43.5536 47.4929 44.9493Z" fill="#D7E9FF"/>
<path d="M88.0641 38.2708C87.9237 38.216 81.8691 38.2994 79.5051 31.8691C79.2075 31.0597 78.8829 30.2627 78.5326 29.4811C75.7145 23.19 80.0458 18.929 80.1071 18.7885C80.5641 18.2302 80.5264 17.4113 80.0205 16.8982L72.6585 9.43185C72.1526 8.9188 71.3451 8.88052 70.7932 9.34546C70.6535 9.40814 66.4491 13.7949 60.2514 10.9408C59.4805 10.5854 58.696 10.2576 57.8979 9.95596C51.5603 7.557 51.6389 1.41518 51.5857 1.27437C51.5194 0.552728 50.9216 0 50.2063 0H39.795C39.0796 0 38.4816 0.552904 38.416 1.27559C38.3627 1.41606 38.4491 7.55419 32.1016 9.95596C31.3042 10.2578 30.5204 10.5854 29.7495 10.9408C23.5467 13.7998 19.3449 9.40621 19.2064 9.34406C18.6573 8.88175 17.8493 8.92003 17.3419 9.43185L9.97968 16.8984C9.47381 17.4115 9.43676 18.2304 9.89312 18.7887C9.95475 18.9299 14.2846 23.1972 11.4675 29.4812C11.118 30.2631 10.7939 31.0587 10.4958 31.8681C8.13329 38.2966 2.07508 38.2159 1.93624 38.2698C1.224 38.337 0.679688 38.9433 0.679688 39.6688V50.2284C0.679688 50.9555 1.22607 51.5617 1.93901 51.6274C2.07751 51.6815 8.12827 51.5865 10.4958 58.0291C10.7934 58.8369 11.118 59.6339 11.4675 60.4159C14.2876 66.7061 9.9544 70.968 9.89312 71.1085C9.43658 71.6668 9.47381 72.4857 9.97968 72.9987L17.3417 80.4651C17.8488 80.9794 18.6569 81.0165 19.2063 80.5529C19.346 80.4901 23.5517 76.0976 29.7481 78.9548C30.519 79.3114 31.3043 79.6392 32.1028 79.941C38.4406 82.3396 38.3623 88.4818 38.4158 88.6226C38.4821 89.3441 39.0799 89.897 39.7948 89.897H50.2061C50.9214 89.897 51.5194 89.3441 51.5855 88.6226C51.6389 88.4822 51.5504 82.3426 57.8977 79.941C58.6958 79.6392 59.4801 79.3116 60.2512 78.9562C66.454 76.0972 70.6558 80.4908 70.7943 80.5529C71.346 81.0152 72.1509 80.9796 72.6581 80.4651L80.0188 72.9987C80.5246 72.4857 80.5624 71.6668 80.1053 71.1085C80.0437 70.9673 75.7161 66.7005 78.5323 60.4159C78.8827 59.6341 79.2058 58.8385 79.5034 58.0291C81.8934 51.5322 87.9221 51.6813 88.061 51.6274C88.7738 51.5616 89.3203 50.9553 89.3203 50.2284V39.67C89.3207 38.9443 88.7755 38.3382 88.0641 38.2708ZM86.5506 48.9621C82.186 49.6014 78.5259 52.6519 76.9098 57.0471C76.6338 57.7959 76.335 58.5312 76.0116 59.2529C74.0895 63.5381 74.5468 68.3281 77.1802 71.9056L71.5806 77.5846C68.0518 74.9126 63.3273 74.4503 59.1048 76.3994C58.3934 76.7274 57.6683 77.0304 56.9298 77.3103C52.5963 78.9495 49.5882 82.6613 48.9592 87.0879H41.042C40.4116 82.6613 37.4044 78.9494 33.0714 77.3103C32.3337 77.0304 31.6092 76.7274 30.8951 76.3982C26.6689 74.4489 21.9479 74.9112 18.4192 77.5847L12.8196 71.9072C15.4531 68.3297 15.9101 63.5395 13.9903 59.2531C13.6664 58.5316 13.3662 57.795 13.0916 57.0472C11.476 52.6537 7.81664 49.603 3.44988 48.9623V40.9335C7.81508 40.2956 11.4758 37.2449 13.0916 32.8499C13.3669 32.1011 13.6664 31.3657 13.9903 30.6443C15.9103 26.3577 15.4525 21.5676 12.8196 17.9902L18.4192 12.3126C21.946 14.982 26.669 15.4457 30.8958 13.4978C31.608 13.1698 32.3334 12.8667 33.0706 12.5869C37.4034 10.9489 40.4115 7.23709 41.0418 2.80929H48.9591C49.5894 7.23586 52.5973 10.9478 56.9296 12.5869C57.6682 12.8667 58.393 13.1698 59.1046 13.4978C63.3299 15.4471 68.0518 14.982 71.5818 12.3126L77.18 17.9902C74.548 21.5676 74.0907 26.3578 76.0114 30.6443C76.3348 31.3657 76.635 32.0997 76.9096 32.8499C78.5259 37.2449 82.1858 40.2956 86.5505 40.9349V48.9621H86.5506Z" fill="#545F62"/>
<path d="M45.0003 14.2234C28.295 14.2234 14.7046 28.0065 14.7046 44.9486C14.7046 61.8908 28.295 75.6739 45.0003 75.6739C61.7056 75.6739 75.296 61.8908 75.296 44.9486C75.296 28.0065 61.7056 14.2234 45.0003 14.2234ZM45.0003 72.8646C29.8227 72.8646 17.4746 60.342 17.4746 44.9486C17.4746 29.5553 29.8227 17.0327 45.0003 17.0327C60.1786 17.0327 72.526 29.5553 72.526 44.9486C72.526 60.342 60.1786 72.8646 45.0003 72.8646Z" fill="#545F62"/>
<path d="M46.3854 41.2866V31.5374C46.3854 30.7612 45.7659 30.1328 45.0011 30.1328C44.2362 30.1328 43.6161 30.761 43.6161 31.5374V41.2867C42.5937 41.686 41.7839 42.507 41.3902 43.5442H33.3284C32.5635 43.5442 31.9434 44.1724 31.9434 44.9488C31.9434 45.7251 32.5635 46.3535 33.3284 46.3535H41.3902C41.9499 47.8282 43.3519 48.8816 45.0009 48.8816C47.1385 48.8816 48.8779 47.1176 48.8779 44.9488C48.8782 43.2762 47.8393 41.854 46.3854 41.2866ZM45.0011 46.072C44.3904 46.072 43.8934 45.5686 43.8934 44.9486C43.8934 44.3287 44.3904 43.8253 45.0011 43.8253C45.6117 43.8253 46.108 44.3287 46.108 44.9486C46.108 45.5686 45.6117 46.072 45.0011 46.072Z" fill="#545F62"/>
<path d="M45.0002 24.9859C45.7651 24.9859 46.3853 24.3576 46.3853 23.5812V22.9693C46.3853 22.1931 45.7651 21.5647 45.0002 21.5647C44.2354 21.5647 43.6152 22.1929 43.6152 22.9693V23.5812C43.6154 24.3576 44.2354 24.9859 45.0002 24.9859Z" fill="#545F62"/>
<path d="M45.0002 64.9115C44.2354 64.9115 43.6152 65.5397 43.6152 66.3161V66.928C43.6152 67.7043 44.2354 68.3327 45.0002 68.3327C45.7651 68.3327 46.3853 67.7044 46.3853 66.928V66.3161C46.3853 65.5397 45.7651 64.9115 45.0002 64.9115Z" fill="#545F62"/>
<path d="M59.3455 28.414L58.9194 28.8461C58.3784 29.3948 58.3784 30.2837 58.9194 30.8324C59.4605 31.3811 60.337 31.3811 60.878 30.8324L61.3041 30.4003C61.8451 29.8516 61.8451 28.9627 61.3041 28.414C60.7629 27.8651 59.8865 27.8651 59.3455 28.414Z" fill="#545F62"/>
<path d="M29.1228 59.065L28.6968 59.4971C28.1558 60.0457 28.1558 60.9347 28.6968 61.4834C29.2378 62.0321 30.1143 62.0321 30.6554 61.4834L31.0814 61.0513C31.6224 60.5026 31.6224 59.6136 31.0814 59.065C30.5404 58.5164 29.6639 58.5164 29.1228 59.065Z" fill="#545F62"/>
<path d="M30.6551 28.4141C30.1141 27.8654 29.2376 27.8654 28.6965 28.4141C28.1555 28.9627 28.1555 29.8517 28.6965 30.4004L29.1226 30.8325C29.6636 31.3812 30.5402 31.3812 31.0812 30.8325C31.6222 30.2838 31.6222 29.3948 31.0812 28.8462L30.6551 28.4141Z" fill="#545F62"/>
<path d="M66.0688 46.3525H66.6722C67.4376 46.3525 68.0572 45.7245 68.0572 44.9483C68.0572 44.1721 67.4378 43.544 66.6722 43.544H66.0688C65.3033 43.544 64.6838 44.1721 64.6838 44.9483C64.684 45.7243 65.3035 46.3525 66.0688 46.3525Z" fill="#545F62"/>
<path d="M23.9317 43.544H23.3284C22.5635 43.544 21.9434 44.1721 21.9434 44.9483C21.9434 45.7243 22.5635 46.3525 23.3284 46.3525H23.9317C24.6966 46.3525 25.3167 45.7245 25.3167 44.9483C25.3165 44.1721 24.6966 43.544 23.9317 43.544Z" fill="#545F62"/>
<path d="M60.878 59.065C60.337 58.5163 59.4605 58.5163 58.9194 59.065C58.3784 59.6136 58.3784 60.5026 58.9194 61.0513L59.3455 61.4834C59.8865 62.0321 60.7631 62.0321 61.3041 61.4834C61.8451 60.9347 61.8451 60.0458 61.3041 59.4971L60.878 59.065Z" fill="#545F62"/>
</svg>
