<svg width="82" height="76" viewBox="0 0 82 76" fill="none" xmlns="http://www.w3.org/2000/svg">
<path d="M80.6365 49.3741L75.2716 57.3509C74.8633 57.9753 73.9461 57.8989 73.6257 57.23L69.4983 48.5332C69.1779 47.8643 69.6931 47.0997 70.4282 47.1507L72.7714 47.3291C71.4521 39.6008 66.4264 32.9875 59.491 29.6554C58.9318 29.3878 58.6806 28.7188 58.9068 28.1392L59.6794 26.1321C59.937 25.4822 60.6783 25.1892 61.3066 25.4822C69.9571 29.5917 76.1074 37.9699 77.37 47.6732L79.9143 47.8707C80.6491 47.928 81.0512 48.7626 80.6365 49.3741Z" fill="#5ABF90"/>
<path d="M23.3495 43.4008L22.6019 45.4141C22.3568 46.0767 21.6156 46.3761 20.9811 46.0894C12.2803 42.0946 6.0296 33.793 4.64117 24.1087L2.09685 23.943C1.36179 23.892 0.947152 23.0638 1.36179 22.4457L6.61999 14.4054C7.0221 13.7746 7.93926 13.8383 8.26586 14.5072L12.5063 23.1467C12.8329 23.8093 12.3242 24.5802 11.5954 24.5419L9.246 24.3953C10.6658 32.0982 15.7668 38.6541 22.7464 41.8907C23.3117 42.1521 23.563 42.8147 23.3495 43.4008Z" fill="#5ABF90"/>
<path d="M67.5291 53.4133V56.58C67.5291 56.8922 67.3156 57.1662 67.0014 57.2234L63.7472 57.8988C63.3451 60.0841 62.5033 62.0975 61.3034 63.8623L63.1378 66.6784C63.3199 66.9396 63.2823 67.29 63.0561 67.513L60.8572 69.743C60.6374 69.9722 60.2919 70.0105 60.0343 69.8257L57.2576 67.9654C55.5175 69.1822 53.5323 70.0359 51.3774 70.4437L50.7115 73.744C50.6549 74.0626 50.3848 74.2791 50.0771 74.2791H46.9549C46.6408 74.2791 46.3769 74.0626 46.3142 73.744L45.6483 70.4437C43.4998 70.0359 41.3325 69.3606 39.7681 67.9654L36.9978 69.8257C36.734 70.0105 36.3884 69.9722 36.1749 69.743L33.9698 67.513C33.75 67.2898 33.7122 66.9396 33.8882 66.6784L35.7225 63.8623C34.4597 62.1994 33.6808 60.0841 33.2787 57.8988L30.0246 57.2234C29.7167 57.1662 29.5032 56.892 29.5032 56.58V53.4133C29.5032 53.0948 29.7167 52.8273 30.0246 52.7636L33.2787 52.0883C33.5991 49.7308 34.5226 47.8895 35.7225 46.1247L33.8882 43.3151C33.7122 43.0474 33.75 42.697 33.9698 42.4805L36.1749 40.2442C36.3884 40.0212 36.734 39.9831 36.9978 40.1614L39.7681 42.0219C41.5082 40.8049 43.4998 39.9513 45.6483 39.5435L46.3142 36.2432C46.377 35.9309 46.6408 35.7144 46.9549 35.7144H50.0771C50.3849 35.7144 50.6551 35.9309 50.7115 36.2432L51.3774 39.5435C53.5322 39.9513 55.5174 40.805 57.2576 42.0219L60.0343 40.1614C60.2919 39.983 60.6374 40.0212 60.8572 40.2442L63.0561 42.4805C63.2823 42.697 63.3199 43.0476 63.1378 43.3151L61.3034 46.1247C62.5033 47.8895 63.3451 49.9092 63.7472 52.0883L67.0014 52.7636C67.3154 52.8273 67.5291 53.0948 67.5291 53.4133Z" fill="#D9E7EC"/>
<path d="M56.8203 57.5631C58.2095 52.9138 55.6193 48.0026 51.035 46.5938C46.4506 45.1849 41.6082 47.8118 40.219 52.4611C38.8298 57.1104 41.4199 62.0216 46.0043 63.4304C50.5886 64.8393 55.4311 62.2124 56.8203 57.5631Z" fill="white"/>
<path d="M15.5658 15.8798L16.3287 13.0626C16.4038 12.7849 16.6598 12.5941 16.9532 12.6208L20.0111 12.8263C20.8954 10.9816 22.1294 9.39892 23.6221 8.12614L22.6685 5.16616C22.5694 4.88856 22.6874 4.58621 22.9422 4.44378L25.4358 3.00464C25.6866 2.85512 26.0032 2.90677 26.1879 3.13502L28.2102 5.47825C30.0515 4.82684 32.0235 4.55915 34.0388 4.73029L35.4264 1.95895C35.5535 1.68961 35.8459 1.56385 36.1198 1.6401L38.8976 2.4138C39.177 2.4917 39.3596 2.74966 39.3388 3.04871L39.1362 6.14996C40.9495 7.04513 42.715 8.18308 43.7706 9.81201L46.6837 8.8434C46.963 8.74438 47.2612 8.86403 47.396 9.12099L48.8205 11.6514C48.9625 11.9044 48.9115 12.2254 48.6922 12.4142L46.3817 14.4651C47.1045 16.2576 47.2879 18.3325 47.1192 20.3765L49.8518 21.7836C50.1118 21.9109 50.2358 22.2076 50.1606 22.4854L49.3978 25.3026C49.3209 25.586 49.0666 25.7711 48.7773 25.7515L45.7194 25.5459C44.8663 27.5638 43.6012 28.9732 42.1085 30.246L43.0636 33.2004C43.1557 33.4821 43.0377 33.7845 42.7899 33.9228L40.2893 35.366C40.0455 35.5114 39.7289 35.4598 39.5372 35.2358L37.5206 32.8941C35.6791 33.5455 33.7018 33.8117 31.692 33.642L30.3044 36.4134C30.1732 36.6756 29.8863 36.8028 29.6069 36.7251L26.8291 35.9514C26.5552 35.8752 26.3671 35.6156 26.392 35.3238L26.5946 32.2225C24.7758 31.3259 23.2153 30.0744 21.9602 28.5605L19.0416 29.5276C18.7695 29.6225 18.4712 29.5028 18.3293 29.25L16.9119 26.7155C16.7628 26.4668 16.8138 26.1456 17.0403 25.9527L19.3493 23.9075C18.707 22.0399 18.4445 20.0345 18.6118 17.9961L15.8792 16.589C15.6146 16.4542 15.489 16.1632 15.5658 15.8798Z" fill="#D9E7EC"/>
<path d="M39.6338 23.5193C41.9896 19.7272 40.8681 14.7163 37.129 12.3272C33.3899 9.93804 28.449 11.0754 26.0933 14.8675C23.7376 18.6596 24.859 23.6705 28.5981 26.0597C32.3373 28.4488 37.2781 27.3114 39.6338 23.5193Z" fill="white"/>
<path d="M63.6556 41.8743L61.4558 39.636C60.9463 39.1206 60.1466 39.043 59.5678 39.4447L57.2588 40.9918C55.67 39.9618 53.9382 39.2316 52.0956 38.8156L51.5448 36.0885C51.4165 35.3739 50.7988 34.8555 50.0776 34.8555H46.9547C46.2335 34.8555 45.629 35.3554 45.4851 36.0703L44.9302 38.8159C43.0868 39.2331 41.355 39.9629 39.7678 40.9911L37.4688 39.447C36.8666 39.0407 36.0686 39.124 35.5757 39.6367L33.38 41.864C32.8656 42.3699 32.7829 43.18 33.1814 43.7894L34.7048 46.121C33.8546 47.4354 32.944 49.1518 32.5372 51.3657L29.8552 51.9217C29.1489 52.0681 28.656 52.6812 28.656 53.413V56.5797C28.656 57.3107 29.1671 57.9369 29.8552 58.0648L32.5604 58.6262C32.9946 60.6493 33.7241 62.4459 34.6934 63.8844L33.1873 66.1951C32.7853 66.7948 32.8623 67.6042 33.3717 68.1209L35.5591 70.3331C36.0644 70.8741 36.8732 70.958 37.4653 70.5416L39.7182 69.0288C41.0067 70.0052 42.6905 70.6975 44.931 71.1748L45.4843 73.9125C45.6265 74.6339 46.2311 75.1379 46.9547 75.1379H50.0776C50.8012 75.1379 51.4181 74.6154 51.5413 73.9158L52.0954 71.171C53.9381 70.755 55.6698 70.0248 57.2586 68.9953L59.5461 70.5277C60.1432 70.9555 60.9513 70.8771 61.4566 70.35L63.6457 68.129C64.175 67.6082 64.2518 66.7899 63.8442 66.205L62.3192 63.8636C63.3349 62.2523 64.0543 60.4956 64.4653 58.6264L67.1524 58.0686C67.8619 57.9385 68.3764 57.3124 68.3764 56.5797V53.413C68.3764 52.6795 67.8795 52.0659 67.1714 51.9222L64.4645 51.3602C64.0535 49.4902 63.334 47.7335 62.3201 46.1243L63.8351 43.8027C64.2551 43.1852 64.1716 42.3661 63.6556 41.8743ZM60.5972 45.6507C60.4062 45.9435 60.4102 46.3237 60.6063 46.6127C61.7625 48.3124 62.5391 50.2079 62.9145 52.2466C62.9781 52.5898 63.2403 52.8603 63.5778 52.9297L66.6824 53.5739V56.4134L63.5778 57.0575C63.2403 57.1275 62.9781 57.3977 62.9145 57.7411C62.5407 59.7772 61.7633 61.6727 60.6063 63.3746C60.4104 63.6631 60.4062 64.0435 60.5972 64.3358L62.3456 67.019L60.3707 69.0219L57.7242 67.2487C57.4381 67.0566 57.0633 67.0596 56.7772 67.2583C55.0983 68.4317 53.2294 69.2193 51.2221 69.5992C50.8837 69.6629 50.6167 69.9288 50.548 70.2714L49.9129 73.42H47.1134L46.4774 70.2709C46.4088 69.9288 46.1425 69.6632 45.8034 69.599C43.2719 69.1184 41.5319 68.3942 40.3268 67.3202C40.0399 67.0639 39.6189 67.0341 39.3005 67.2494L36.6614 69.022L34.6807 67.0191L36.4291 64.3356C36.6292 64.0294 36.6143 63.6286 36.3934 63.3379C35.3117 61.9141 34.5227 59.9787 34.1116 57.741C34.048 57.3975 33.7858 57.1273 33.4483 57.0574L30.3494 56.4145V53.5729L33.4483 52.9296C33.8006 52.8566 34.0686 52.5663 34.1173 52.2054C34.3803 50.2721 35.0683 48.5996 36.4198 46.6125C36.6157 46.3235 36.6199 45.9428 36.4289 45.6505L34.6805 42.9741L36.6605 40.9649L39.3003 42.7376C39.5882 42.9322 39.9636 42.928 40.2481 42.7288C41.9253 41.5567 43.7943 40.7687 45.8032 40.3874C46.1424 40.3232 46.4086 40.0578 46.4773 39.7155L47.1124 36.5732H49.9135L50.5479 39.7152C50.6165 40.0578 50.8836 40.3237 51.2219 40.3874C53.2298 40.7673 55.0982 41.5549 56.7771 42.7288C57.0623 42.928 57.4371 42.931 57.724 42.7384L60.3705 40.9649L62.3454 42.9733L60.5972 45.6507Z" fill="#545F62"/>
<path d="M48.5143 45.3394C43.2644 45.3394 38.9937 49.6706 38.9937 54.9946C38.9937 60.3186 43.2644 64.6503 48.5143 64.6503C53.7642 64.6503 58.0349 60.3185 58.0349 54.9946C58.0349 49.6708 53.7644 45.3394 48.5143 45.3394ZM48.5143 62.9325C44.199 62.9325 40.6874 59.3717 40.6874 54.9946C40.6874 50.6181 44.199 47.0571 48.5143 47.0571C52.8296 47.0571 56.3412 50.618 56.3412 54.9946C56.3414 59.3717 52.8298 62.9325 48.5143 62.9325Z" fill="#545F62"/>
<path d="M79.9786 47.0143L78.1112 46.8693C76.6276 37.2924 70.3777 28.8429 61.6602 24.702C60.6151 24.2142 59.3407 24.6807 58.8905 25.8197L58.1196 27.8226C57.7268 28.827 58.1709 29.9732 59.1285 30.4315C65.5486 33.516 70.1933 39.428 71.7241 46.3878L70.4861 46.2939C69.0876 46.2061 68.1356 47.6555 68.7353 48.9059L72.8638 57.6057C73.4699 58.8675 75.2071 59.0048 75.9708 57.8351L81.3349 49.8603C82.1183 48.7035 81.3672 47.1221 79.9786 47.0143ZM79.9389 48.8882C79.938 48.8887 79.938 48.8895 79.9372 48.8903L74.565 56.8769C74.5558 56.8911 74.5277 56.9221 74.4815 56.9193C74.4377 56.9164 74.4063 56.8946 74.3889 56.8576L70.2604 48.1577C70.2234 48.0785 70.2867 48.0067 70.3564 48.0067C70.3596 48.0067 70.3631 48.0072 70.3647 48.0072L72.7077 48.1855C73.2768 48.2256 73.6973 47.7171 73.6058 47.1827C72.2438 39.2045 67.1029 32.362 59.8524 28.8787C59.7018 28.8066 59.6315 28.6169 59.696 28.4514L60.465 26.4523C60.541 26.2597 60.7641 26.1742 60.9472 26.2602C69.3505 30.2521 75.3225 38.5005 76.5308 47.7857C76.5828 48.1883 76.9062 48.4987 77.3057 48.5297L79.8497 48.7273C79.9389 48.7339 79.9812 48.824 79.9389 48.8882Z" fill="#545F62"/>
<path d="M13.2652 22.7636L9.02503 14.1261C8.40682 12.8615 6.66298 12.7534 5.91457 13.9307L0.661259 21.963C-0.129455 23.1432 0.667769 24.7052 2.04237 24.8001L3.91053 24.9217C5.51751 34.4831 11.8732 42.8504 20.6363 46.8742C21.6932 47.3508 22.9695 46.8645 23.3944 45.7168L24.142 43.7033C24.1428 43.7017 24.1437 43.7 24.1445 43.6984C24.5126 42.6877 24.0519 41.5504 23.0983 41.1096C16.6458 38.1174 11.9277 32.2674 10.3043 25.3217L11.5514 25.3993C12.9404 25.4643 13.8772 24.0079 13.2652 22.7636ZM22.3954 42.6726C22.5468 42.7426 22.6171 42.9306 22.5559 43.1013L21.8099 45.1118C21.7661 45.2288 21.6833 45.2846 21.6213 45.311C21.5676 45.3344 21.4584 45.3651 21.3302 45.3072C12.8821 41.4284 6.80846 33.2585 5.47862 23.9849C5.4215 23.5836 5.09408 23.2774 4.69539 23.2515L2.15481 23.0863C2.0728 23.0805 2.01259 23.0036 2.0671 22.9206L7.33116 14.872C7.3764 14.8033 7.47257 14.8139 7.50723 14.8904L11.749 23.5307C11.7838 23.6015 11.7236 23.6903 11.6473 23.6847L9.29777 23.5383C8.76141 23.4994 8.31015 23.9962 8.41284 24.5532C9.88182 32.5199 15.1086 39.2933 22.3954 42.6726Z" fill="#545F62"/>
<path d="M19.51 11.9316L17.0289 11.7651C16.35 11.7085 15.6975 12.151 15.5121 12.8354L14.7496 15.652C14.5635 16.3356 14.8719 17.0368 15.4947 17.3547L17.7301 18.5055C17.6515 20.2504 17.8657 21.9711 18.3694 23.6344L16.4953 25.2947C15.9479 25.7606 15.8189 26.5452 16.1744 27.1395L17.592 29.6734C17.936 30.287 18.658 30.5684 19.3039 30.3439L21.6907 29.553C22.8461 30.8438 24.195 31.91 25.7125 32.7307L25.548 35.2499C25.4884 35.949 25.9325 36.5923 26.6041 36.7798L29.3813 37.5535C29.5128 37.59 29.6451 37.6076 29.7749 37.6076C30.3092 37.6076 30.8053 37.3091 31.0594 36.8024L32.1941 34.5357C33.9143 34.6171 35.6113 34.3983 37.2513 33.8875L38.897 35.7994C39.3543 36.3333 40.1201 36.4629 40.7074 36.1132L43.1992 34.6752C43.8054 34.3359 44.0866 33.6024 43.8682 32.9335L43.0892 30.5235C44.1502 29.5707 45.3544 28.2824 46.245 26.4425L48.7195 26.6086C49.4035 26.6589 50.0295 26.2131 50.2139 25.5304L50.9765 22.7135C51.1617 22.032 50.8433 21.3158 50.2354 21.0184L48.0007 19.868C48.0958 17.9868 47.8833 16.2291 47.3788 14.7215L49.2388 13.0699C49.7664 12.6166 49.9005 11.842 49.5555 11.2259L48.143 8.718C47.8097 8.08145 47.0753 7.79329 46.4195 8.02764L44.0947 8.80102C43.1842 7.62891 41.8659 6.60682 40.0183 5.63804L40.1828 3.10882C40.2324 2.39964 39.7948 1.77315 39.1209 1.586L36.3438 0.812296C35.6673 0.623656 34.9635 0.951094 34.6707 1.57049L33.536 3.8368C31.8092 3.75412 30.1196 3.97395 28.478 4.48557L26.8422 2.59092C26.3914 2.03441 25.6181 1.89809 25.017 2.2587L22.5325 3.69207C21.9089 4.04145 21.631 4.78446 21.8635 5.43323L22.6425 7.85336C21.3708 9.02415 20.3195 10.3922 19.51 11.9316ZM16.3821 16.1075C16.3821 16.1075 16.3821 16.1075 16.3821 16.107L16.3829 16.1061C16.3829 16.1066 16.3821 16.107 16.3821 16.1075ZM24.1669 8.78385C24.4315 8.55825 24.534 8.19252 24.4266 7.85963L23.5341 5.09011L25.6803 3.85166L27.5733 6.0442C27.8008 6.30761 28.1631 6.40448 28.4889 6.28962C30.2553 5.66428 32.0955 5.4291 33.9679 5.58638C34.3044 5.61362 34.6369 5.43042 34.7933 5.11916L36.0925 2.52359L38.4809 3.18869L38.2907 6.09322C38.2684 6.44129 38.4552 6.76922 38.7654 6.92188C40.8908 7.97203 42.2571 9.04016 43.0626 10.2841C43.2727 10.6079 43.6696 10.7486 44.0343 10.6283L46.7584 9.7221L47.985 11.9L45.8239 13.819C45.551 14.0607 45.4608 14.451 45.5974 14.7903C46.2126 16.3164 46.4467 18.2233 46.2746 20.3042C46.2457 20.6528 46.4276 20.984 46.7345 21.1422L49.2893 22.4573L48.6334 24.8813L45.7752 24.6888C45.4081 24.6657 45.0821 24.873 44.9407 25.2076C44.2444 26.8537 43.2347 28.1641 41.5632 29.5887C41.2986 29.8143 41.1961 30.1809 41.3035 30.5139L42.1967 33.2772L40.044 34.5197L38.1576 32.3293C37.9293 32.0648 37.5646 31.9679 37.2412 32.0831C35.4772 32.7079 33.6322 32.9425 31.7614 32.7863C31.4032 32.754 31.0906 32.9423 30.936 33.2536L29.6392 35.8437L27.25 35.1781L27.4394 32.279C27.4617 31.9304 27.2741 31.6025 26.9647 31.4498C25.2785 30.619 23.8129 29.4611 22.6079 28.0076C22.3862 27.7401 22.0248 27.6356 21.6966 27.7439L18.9666 28.649L17.7459 26.4673L19.906 24.5545C20.1666 24.3234 20.2624 23.9556 20.1483 23.6243C19.5322 21.8353 19.299 19.9658 19.4545 18.0671C19.4834 17.7191 19.3015 17.3882 18.9946 17.2301L16.435 15.9124L17.0908 13.4909L19.9547 13.6834C20.3137 13.7048 20.6221 13.5157 20.7726 13.2015C21.5924 11.4913 22.7345 10.0051 24.1669 8.78385Z" fill="#545F62"/>
<path d="M30.521 27.8395C35.2466 29.1547 40.1059 26.3355 41.3972 21.5614C42.695 16.7693 39.9157 11.8416 35.2077 10.5302C30.5028 9.21877 25.6225 12.0362 24.3307 16.8078V16.8083C23.0355 21.5904 25.8042 26.5254 30.521 27.8395ZM25.9632 17.2628V17.2633C27.0094 13.4033 30.9568 11.1278 34.7594 12.1868C38.5637 13.2462 40.8091 17.2478 39.7645 21.1069C38.7199 24.9647 34.7948 27.2465 30.9692 26.183C27.1642 25.1231 24.9188 21.1219 25.9632 17.2628Z" fill="#545F62"/>
</svg>
