<svg fill="none" height="79" viewBox="0 0 44 79" width="44" xmlns="http://www.w3.org/2000/svg"><path d="m42.3686 45.6895c0 .7456-.1839 1.4987-.5587 2.1996l-3.3598 6.2185-3.1025 6.0619c-.9557 1.8565-1.4556 3.9293-1.4556 6.032l-20.056 1.4241c0-3.139-1.1101-6.1736-3.1318-8.5521l-4.13181-4.8762c-2.49228-2.9378-3.58032-6.8447-2.95549-10.6772l.51463-3.1987c.26461-1.6628.85276-3.2584 1.71304-4.6974l1.26456-2.1026s0 0 0-.0075c.02931-.3057.68377-7.6947-4.95524-14.0995-1.08068-1.2302-.38233-3.1688 1.22035-3.4448.02211 0 .04406-.0075.07352-.0075 2.29382-.3803 4.61696.2685 6.49899 1.6553 1.47035 1.0812 3.10985 2.6693 3.86705 4.7196l5.9255-9.8793c.8235-1.5209 2.3674-2.3784 3.9627-2.3784.7352 0 1.4777.179 2.1615.5591 2.1835 1.2152 2.9848 3.9964 1.7939 6.2108l-8.2414 15.2477c1.2792-1.9684 3.8596-2.6468 5.9329-1.4912 1.4925.8351 2.3452 2.3934 2.3452 4.0114 0 .7456-.1838 1.4987-.5587 2.1996l-2.5805 4.7794 2.5144-4.6228c1.1984-2.2144 3.9405-3.0271 6.124-1.8119 1.4925.8277 2.3453 2.3935 2.3453 4.0114 0 .7381-.1839 1.4912-.5587 2.1922l-1.1395 2.1101.0588.0149c1.1984-2.2144 3.9405-3.0271 6.1242-1.8119 1.4923.8352 2.3452 2.3935 2.3452 4.0114z" fill="#fff"/><path d="m37.3128 70.2748v7.4775h-27.0745v-7.4775c0-1.4631 1.1695-2.6493 2.6122-2.6493h21.8502c1.4426 0 2.6121 1.1862 2.6121 2.6493z" fill="#5abf90"/><g fill="#545f62"><path d="m40.6001 40.6064c-1.2192-.6768-2.604-.8531-3.9507-.5558.3529-2.3396-.7185-4.7603-2.8811-5.962-1.4607-.8116-3.1844-.9822-4.9432-.2372-.2608-1.9566-1.3577-3.4608-2.8997-4.3174-1.0515-.5837-2.2269-.8007-3.3945-.6624l6.1774-11.4353c1.5137-2.8016.4968-6.3302-2.2651-7.86522-2.763-1.53392-6.2411-.50378-7.7289 2.25022l-4.8338 8.0586c-2.2191-3.2667-6.19889-5.844-10.70745-5.1116-2.498746.4249-3.646933 3.4877-1.91405 5.4585 4.76595 5.414 4.72882 11.6431 4.66642 12.9157l-1.10834 1.8479c-.94883 1.5821-1.57818 3.3089-1.87406 5.1333l-.51674 3.2005c-.67761 4.1955.5014 8.4493 3.23498 11.6713l4.13225 4.8707c1.57229 1.8555 2.53329 4.1532 2.77389 6.5689-1.9691.1497-3.53133 1.8049-3.53133 3.8397v7.4776c0 .6735.53779 1.2195 1.20243 1.2195h27.0747c.6647 0 1.2025-.546 1.2025-1.2195v-7.4778c0-1.9968-1.505-3.6262-3.423-3.8284.0169-.1489-.1759-2.7955 1.3211-5.7171l3.0919-6.0367 3.3595-6.22c1.5174-2.8073.5054-6.3266-2.2651-7.866zm-37.54673-22.0041c-.42818-.4856-.20717-1.3055.58244-1.4392 3.82329-.6263 7.52009 2.3255 8.82289 5.0872l-4.3453 7.2443c-.44863-2.9644-1.70296-7.0782-5.06003-10.8923zm33.05753 51.6723v6.2581h-24.6699v-6.2581c0-.7883.6317-1.4296 1.409-1.4296h21.8505c.7774 0 1.4104.6413 1.4104 1.4296zm4.6454-22.9748-3.3724 6.2446-3.1048 6.0605c-1.7179 3.3566-1.577 6.6789-1.5911 6.8012h-17.7053c-.2524-2.9896-1.4236-5.8392-3.3667-8.1302l-4.13225-4.8713c-2.26871-2.6736-3.24686-6.204-2.68321-9.6861l.51673-3.2005c.24432-1.5137.76797-2.9476 1.55473-4.2604l13.9242-23.216c.8772-1.6231 2.8922-2.2193 4.4916-1.3314 1.5994.8889 2.1877 2.9326 1.3116 4.5546-1.2635 2.339-10.905 20.1866-12.3519 22.8653-.3193.5907-.1057 1.3321.4767 1.6553.5825.3234 1.3129.1072 1.6322-.4835l4.0205-7.4424c.9511-1.5629 2.8766-2.0275 4.393-1.1863 1.6037.8908 2.1913 2.928 1.3116 4.5547l-4.2309 7.8336c-.3193.5907-.1057 1.3321.4768 1.6553.5795.3222 1.3125.1093 1.6321-.4835.0761-.1403 4.0953-7.5493 4.1628-7.6748.8763-1.6205 2.8786-2.2237 4.4903-1.3308 1.6005.889 2.1888 2.932 1.3129 4.5547l-4.4258 8.1927c-.3193.5907-.1057 1.332.4768 1.6553.5796.3222 1.3125.1093 1.6321-.4835.0964-.1747 3.2412-5.8769 3.3455-6.0706.8817-1.6301 2.893-2.2194 4.4904-1.3308 1.6037.8906 2.1913 2.9279 1.3118 4.5543z"/><path d="m12.6705 6.01559c.6647 0 1.2024-.54602 1.2024-1.21952v-2.65142c0-.67349-.5377-1.21951-1.2024-1.21951s-1.2025.54602-1.2025 1.21951v2.65158c0 .67334.5378 1.21936 1.2025 1.21936z"/><path d="m17.2372 8.14782c.6006.29398 1.319.03797 1.6075-.56569l1.1402-2.38657c.2888-.60609.0388-1.33554-.5578-1.62921-.5976-.29291-1.3175-.04056-1.6075.56569l-1.1402 2.38657c-.2888.60624-.0386 1.33569.5578 1.62921z"/><path d="m6.49637 7.58171c.29212.61174 1.01573.85738 1.60644.5663.59762-.29291.8478-1.02236.55898-1.62861l-1.13902-2.38657c-.28881-.60503-1.004-.86165-1.60644-.5663-.59762.29291-.84779 1.02236-.55898 1.62861z"/></g></svg>