<svg width="17" height="17" viewBox="0 0 17 17" fill="none" xmlns="http://www.w3.org/2000/svg">
<path d="M3.7874 2.13028C3.7874 2.58971 3.60546 3.03032 3.28159 3.35519C2.95772 3.68006 2.51847 3.86256 2.06045 3.86256C1.60243 3.86256 1.16318 3.68006 0.839309 3.35519C0.515442 3.03032 0.333496 2.58971 0.333496 2.13028C0.333496 1.67252 0.514781 1.23351 0.83747 0.909826C1.16016 0.586141 1.59782 0.404297 2.05417 0.404297C2.51052 0.404297 2.94818 0.586141 3.27087 0.909826C3.59356 1.23351 3.77484 1.67252 3.77484 2.13028H3.7874ZM3.7874 5.26729H0.333496V16.4043H3.79996L3.7874 5.26729ZM9.33877 5.26729H5.89742V16.4043H9.35133V10.5586C9.35133 7.30823 13.5337 7.04367 13.5337 10.5586V16.4043H17.0002V9.34918C17.0002 3.86886 10.7957 4.07044 9.35133 6.7665L9.33877 5.26729Z" fill="white"/>
</svg>
