<svg width="25" height="24" viewBox="0 0 25 24" fill="none" xmlns="http://www.w3.org/2000/svg">
<path d="M20.7169 20.452H17.1629V14.883C17.1629 13.555 17.1359 11.846 15.3109 11.846C13.4579 11.846 13.1749 13.291 13.1749 14.785V20.452H9.6209V9H13.0349V10.561H13.0809C13.5579 9.661 14.7179 8.711 16.4509 8.711C20.0519 8.711 20.7179 11.081 20.7179 14.166V20.452H20.7169ZM5.6069 7.433C4.4629 7.433 3.5439 6.507 3.5439 5.368C3.5439 4.23 4.4639 3.305 5.6069 3.305C6.7469 3.305 7.6709 4.23 7.6709 5.368C7.6709 6.507 6.7459 7.433 5.6069 7.433ZM7.3889 20.452H3.8249V9H7.3889V20.452ZM22.4949 0H2.0409C1.0619 0 0.269897 0.774 0.269897 1.729V22.271C0.269897 23.227 1.0619 24 2.0409 24H22.4919C23.4699 24 24.2699 23.227 24.2699 22.271V1.729C24.2699 0.774 23.4699 0 22.4919 0H22.4949Z" fill="white"/>
</svg>
