<svg width="25" height="23" viewBox="0 0 25 23" fill="none" xmlns="http://www.w3.org/2000/svg">
<path fill-rule="evenodd" clip-rule="evenodd" d="M24.5 0.217407H0V22.2792H24.5V0.217407ZM6.8646 6.19906C7.18846 5.8742 7.37041 5.43358 7.37041 4.97415H7.35785C7.35785 4.51639 7.17657 4.07738 6.85388 3.7537C6.53119 3.43001 6.09353 3.24817 5.63718 3.24817C5.18083 3.24817 4.74317 3.43001 4.42048 3.7537C4.09779 4.07738 3.9165 4.51639 3.9165 4.97415C3.9165 5.43358 4.09845 5.8742 4.42232 6.19906C4.74618 6.52393 5.18544 6.70644 5.64346 6.70644C6.10147 6.70644 6.54073 6.52393 6.8646 6.19906ZM3.9165 19.2482V8.11116H7.37041L7.38297 19.2482H3.9165ZM9.48043 8.11116H12.9218L12.9343 9.61037C14.3787 6.91431 20.5832 6.71274 20.5832 12.1931V19.2482H17.1167V13.4025C17.1167 9.88754 12.9343 10.1521 12.9343 13.4025V19.2482H9.48043V8.11116Z" fill="#003A51"/>
</svg>
