<svg width="216" height="44" viewBox="0 0 216 44" fill="none" xmlns="http://www.w3.org/2000/svg">
<g clip-path="url(#clip0_2060_794)">
<path d="M80.0201 24.5V12.96H83.9901V30.23H80.0201L70.8401 18.74V30.23H66.8701V12.96H70.8401L80.0201 24.5Z" fill="white"/>
<path d="M106.73 30.22H91.76V12.96H106.73V16.51H95.73V19.64H105.99V23.17H95.73V26.67H106.73V30.22Z" fill="white"/>
<path d="M127.17 12.96H131.14V22.14C131.14 27.79 128.23 30.62 122.48 30.62C116.73 30.62 113.82 27.78 113.82 22.14V12.96H117.79V22.14C117.79 25.54 119.22 27.05 122.48 27.05C125.74 27.05 127.17 25.55 127.17 22.14V12.96Z" fill="white"/>
<path d="M154.94 25.26C154.94 28.79 153.36 30.22 149.41 30.22H138.66V12.96H149.22C153.26 12.96 154.6 14.12 154.6 17.57C154.6 19.47 153.56 20.87 151.79 21.2C153.84 21.52 154.95 23.03 154.95 25.27L154.94 25.26ZM142.63 16.28V19.78H148.8C150.11 19.78 150.65 19.29 150.65 18.03C150.65 16.77 150.11 16.28 148.8 16.28H142.63ZM142.63 26.89H148.89C150.37 26.89 150.96 26.32 150.96 24.97C150.96 23.62 150.37 23.07 148.89 23.07H142.63V26.89Z" fill="white"/>
<path d="M166.26 30.22H162.29V12.96H166.26V30.23V30.22Z" fill="white"/>
<path d="M192.28 30.22H187.17L181.87 24H178.71V30.22H174.74V12.96H185.27C189.07 12.96 190.77 14.61 190.77 18.26C190.77 21.32 189.46 22.95 186.5 23.56L192.27 30.22H192.28ZM178.71 16.48V20.48H184.65C186.11 20.48 186.8 19.86 186.8 18.48C186.8 17.1 186.11 16.48 184.65 16.48H178.71Z" fill="white"/>
<path d="M206.51 12.96C212.5 12.96 215.41 15.8 215.41 21.59C215.41 27.38 212.5 30.22 206.51 30.22H198.07V12.96H206.51ZM202.05 26.65H206.51C210.01 26.65 211.44 25.17 211.44 21.59C211.44 18.01 210.01 16.53 206.51 16.53H202.05V26.64V26.65Z" fill="white"/>
<path d="M21.3899 12.92C26.2299 12.92 30.1699 16.86 30.1699 21.7C30.1699 23.66 29.5199 25.46 28.4299 26.93H57.9899C57.9899 18.27 50.9699 11.25 42.3099 11.25H21.3999V12.93L21.3899 12.92Z" fill="#F3755F"/>
<path d="M21.3899 25.4697C23.4775 25.4697 25.1699 23.7773 25.1699 21.6897C25.1699 19.602 23.4775 17.9097 21.3899 17.9097C19.3022 17.9097 17.6099 19.602 17.6099 21.6897C17.6099 23.7773 19.3022 25.4697 21.3899 25.4697Z" fill="white"/>
<path d="M39.1299 26.9196C38.3299 29.6296 36.9099 32.0796 35.0499 34.1196C34.7299 34.4696 34.1899 34.4896 33.8599 34.1496L31.0699 31.3596C29.8799 30.1696 29.6399 28.3396 30.4699 26.8796C31.5099 25.0696 32.0199 22.9096 31.7999 20.6196C31.3099 15.6596 27.2499 11.6796 22.2799 11.2696C18.2799 10.9396 14.7099 12.8696 12.6899 15.9096H12.6799C9.58991 20.7196 8.44991 25.3996 8.42991 29.6496C8.42991 30.7396 9.73991 31.2896 10.5099 30.5196L15.7699 25.2596C14.8999 23.8996 14.4999 22.2096 14.8399 20.4196C15.3499 17.7096 17.5499 15.5496 20.2699 15.0996C24.8299 14.3496 28.7399 18.2496 27.9899 22.8196C27.5399 25.5396 25.3799 27.7396 22.6699 28.2496C20.8799 28.5796 19.1899 28.1896 17.8299 27.3196L10.0499 35.0996C9.67991 35.4696 9.07991 35.4696 8.69991 35.0996C4.64991 31.2596 2.31991 25.6096 3.03991 19.4596C4.03991 10.9196 10.9999 4.1196 19.5699 3.2896C26.6299 2.6096 32.9799 5.9296 36.6299 11.2396H40.0499C36.3199 4.6096 29.1699 0.159598 21.0099 0.299598C9.33991 0.509598 -0.120092 10.2596 -9.15374e-05 21.9196C0.119908 33.5796 9.66991 43.0796 21.3899 43.0796C31.3799 43.0796 39.7999 36.1896 42.1299 26.9096H39.1199L39.1299 26.9196Z" fill="white"/>
</g>
<defs>
<clipPath id="clip0_2060_794">
<rect width="215.41" height="42.79" fill="white" transform="translate(0 0.299805)"/>
</clipPath>
</defs>
</svg>
