<svg width="49" height="49" viewBox="0 0 49 49" fill="none" xmlns="http://www.w3.org/2000/svg">
<path fill-rule="evenodd" clip-rule="evenodd" d="M5.83333 48.5H43.1667C46.1122 48.5 48.5 46.1122 48.5 43.1667V5.83333C48.5 2.88781 46.1122 0.5 43.1667 0.5H5.83333C2.88781 0.5 0.5 2.88781 0.5 5.83333V43.1667C0.5 46.1122 2.88781 48.5 5.83333 48.5Z" fill="#007EBB"/>
<path fill-rule="evenodd" clip-rule="evenodd" d="M41.8337 41.8333H34.7107V29.7014C34.7107 26.3752 33.4469 24.5163 30.8141 24.5163C27.9501 24.5163 26.4537 26.4507 26.4537 29.7014V41.8333H19.5892V18.7222H26.4537V21.8353C26.4537 21.8353 28.5177 18.0161 33.422 18.0161C38.3241 18.0161 41.8337 21.0096 41.8337 27.2008V41.8333ZM11.3999 15.696C9.0617 15.696 7.16699 13.7864 7.16699 11.4313C7.16699 9.07623 9.0617 7.16666 11.3999 7.16666C13.7381 7.16666 15.6317 9.07623 15.6317 11.4313C15.6317 13.7864 13.7381 15.696 11.3999 15.696ZM7.85536 41.8333H15.0133V18.7222H7.85536V41.8333Z" fill="white"/>
</svg>
